<?xml version="1.0" standalone="no"?>
<!DOCTYPE svg PUBLIC "-//W3C//DTD SVG 1.1//EN" "http://www.w3.org/Graphics/SVG/1.1/DTD/svg11.dtd" >
<svg xmlns="http://www.w3.org/2000/svg" xmlns:xlink="http://www.w3.org/1999/xlink" version="1.1">
<metadata>
Created by FontForge 20201107 at Mon Nov 11 05:26:57 2024
 By 
Copyright 2024 The Geist Project Authors (https://github.com/vercel/geist-font.git)
</metadata>
<defs>
<font id="Geist-Thin" horiz-adv-x="1126" >
  <font-face 
    font-family="Geist Thin"
    font-weight="100"
    font-stretch="normal"
    units-per-em="2048"
    panose-1="0 0 0 0 0 0 0 0 0 0"
    ascent="1638"
    descent="-410"
    x-height="1085"
    cap-height="1454"
    bbox="-410 -418 4788 1872"
    underline-thickness="102"
    underline-position="-255"
    unicode-range="U+0020-FB02"
  />
<missing-glyph horiz-adv-x="1239" 
d="M82 0v1454h1075v-1454h-1075zM195 1380l426 -594l423 594h-849zM150 1323v-1192l428 596zM662 727l428 -596v1192zM195 74h849l-423 594z" />
    <glyph glyph-name="fi" unicode="fi" horiz-adv-x="1142" 
d="M299 0v1028h-166v57h166v144q0 107 59.5 166t173.5 59h121v-57h-112q-95 0 -138 -44.5t-43 -129.5v-138h293v-57h-293v-1028h-61zM903 1286v144h70v-144h-70zM907 0v1085h62v-1085h-62z" />
    <glyph glyph-name="fl" unicode="fl" horiz-adv-x="1206" 
d="M299 0v1028h-166v57h166v144q0 107 59.5 166t173.5 59h121v-57h-112q-95 0 -138 -44.5t-43 -129.5v-138h293v-57h-293v-1028h-61zM1065 0q-170 0 -170 164v1290h61v-1290q0 -107 115 -107h66v-57h-72z" />
    <glyph glyph-name="f_f.liga" unicode="ff" horiz-adv-x="1263" 
d="M299 0v1028h-166v57h166v144q0 107 59.5 166t173.5 59h121v-57h-112q-95 0 -138 -44.5t-43 -129.5v-138h457v144q0 107 60 166t174 59h120v-57h-112q-95 0 -137.5 -44.5t-42.5 -129.5v-138h292v-57h-292v-1028h-62v1028h-457v-1028h-61z" />
    <glyph glyph-name="t_t.liga" unicode="tt" horiz-adv-x="1232" 
d="M520 0q-207 0 -207 205v823h-190v57h190v254h62v-254h450v254h62v-254h264v-57h-264v-819q0 -81 36.5 -116.5t112.5 -35.5h115v-57h-119q-207 0 -207 205v823h-450v-819q0 -81 36.5 -116.5t112.5 -35.5h115v-57h-119z" />
    <glyph glyph-name="hyphen_hyphen_hyphen_greater.liga" unicode="&#x2d;&#x2d;&#x2d;&#x3e;" horiz-adv-x="4915" 
d="M127 696v62h4544l-612 612h88l641 -643l-643 -643h-88l610 612h-4540z" />
    <glyph glyph-name="hyphen_hyphen_greater.liga" unicode="&#x2d;&#x2d;&#x3e;" horiz-adv-x="3686" 
d="M127 696v62h3316l-613 612h88l641 -643l-643 -643h-88l611 612h-3312z" />
    <glyph glyph-name="hyphen_greater.liga" unicode="&#x2d;&#x3e;" horiz-adv-x="2457" 
d="M127 696v62h2087l-612 612h88l641 -643l-643 -643h-89l611 612h-2083z" />
    <glyph glyph-name="less_hyphen.liga" unicode="&#x3c;&#x2d;" horiz-adv-x="2457" 
d="M858 84h-88l-643 643l641 643h88l-612 -612h2087v-62h-2083z" />
    <glyph glyph-name="less_hyphen_hyphen.liga" unicode="&#x3c;&#x2d;&#x2d;" horiz-adv-x="3686" 
d="M858 84h-88l-643 643l641 643h88l-612 -612h3315v-62h-3311z" />
    <glyph glyph-name="less_hyphen_hyphen_hyphen.liga" unicode="&#x3c;&#x2d;&#x2d;&#x2d;" horiz-adv-x="4915" 
d="M858 84h-88l-643 643l641 643h88l-612 -612h4544v-62h-4540z" />
    <glyph glyph-name="less_hyphen_greater.liga" unicode="&#x3c;&#x2d;&#x3e;" horiz-adv-x="3686" 
d="M770 84l-643 643l641 643h88l-612 -612h3199l-613 612h88l641 -643l-643 -643h-88l611 612h-3191l610 -612h-88z" />
    <glyph glyph-name=".notdef" horiz-adv-x="1239" 
d="M82 0v1454h1075v-1454h-1075zM195 1380l426 -594l423 594h-849zM150 1323v-1192l428 596zM662 727l428 -596v1192zM195 74h849l-423 594z" />
    <glyph glyph-name=".null" horiz-adv-x="0" 
 />
    <glyph glyph-name="nonmarkingreturn" horiz-adv-x="682" 
 />
    <glyph glyph-name="space" unicode=" " horiz-adv-x="512" 
 />
    <glyph glyph-name="exclam" unicode="!" horiz-adv-x="346" 
d="M152 420q-11 506 -11 522v512h66v-512q0 -62 -10 -522h-45zM113 0v133h120v-133h-120z" />
    <glyph glyph-name="quotedbl" unicode="&#x22;" horiz-adv-x="524" 
d="M119 950l-17 361v143h78l-4 -504h-57zM348 950l-4 504h78v-143l-16 -361h-58z" />
    <glyph glyph-name="numbersign" unicode="#" horiz-adv-x="978" 
d="M115 0l82 442h-217l16 62h213l82 440h-230l17 62h223l84 448h66l-84 -448h338l83 448h66l-84 -448h219l-16 -62h-213l-82 -440h229l-16 -62h-225l-82 -442h-66l82 442h-338l-82 -442h-65zM274 504h338l82 440h-338z" />
    <glyph glyph-name="dollar" unicode="$" horiz-adv-x="1255" 
d="M602 -184v153q-208 15 -343.5 149.5t-135.5 321.5l65 6q0 -160 115 -278t299 -133v672h-2q-124 28 -203 57.5t-136.5 72.5t-82 101t-24.5 141q0 162 121 269.5t327 107.5v182h62v-182q103 -8 186 -48.5t135.5 -101.5t80.5 -134.5t28 -151.5l-68 -6q0 97 -40.5 177.5
t-124 135t-197.5 64.5v-635q183 -45 287.5 -104.5t143 -128.5t38.5 -167q0 -172 -134 -278t-335 -111v-151h-62zM221 1075q0 -125 78.5 -188t302.5 -117v623q-178 -3 -279.5 -91t-101.5 -227zM1063 360q0 57 -16.5 100.5t-59.5 86t-123 77.5t-200 66v-657q176 3 287.5 90
t111.5 237z" />
    <glyph glyph-name="percent" unicode="%" horiz-adv-x="1386" 
d="M356 815q-115 0 -184.5 88t-69.5 240t69.5 239.5t184.5 87.5t184.5 -87.5t69.5 -239.5t-69.5 -240t-184.5 -88zM141 0l1043 1454h61l-1042 -1454h-62zM356 872q91 0 142 69t51 202t-51 201.5t-142 68.5t-141.5 -68.5t-50.5 -201.5t50.5 -202t141.5 -69zM1030 -16
q-115 0 -184.5 87.5t-69.5 239.5t69.5 240t184.5 88t184.5 -88t69.5 -240t-69.5 -239.5t-184.5 -87.5zM1030 41q91 0 142 68.5t51 201.5t-51 202t-142 69t-141.5 -69t-50.5 -202t50.5 -201.5t141.5 -68.5z" />
    <glyph glyph-name="ampersand" unicode="&#x26;" horiz-adv-x="1196" 
d="M532 -33q-195 0 -312.5 100t-117.5 281q0 148 79.5 254.5t238.5 206.5q-113 149 -152 224t-39 163q0 133 80.5 212t214.5 79q133 0 215 -76.5t82 -214.5q0 -120 -71 -212.5t-240 -197.5l432 -540q80 113 98 258l70 -8q-12 -82 -47 -163t-82 -138l154 -195h-82l-113 143
q-162 -176 -408 -176zM475 836q161 107 219 179t58 177q0 106 -61 167.5t-167 61.5q-103 0 -164 -60.5t-61 -164.5q0 -76 37 -151.5t139 -208.5zM541 33q104 0 200.5 45t157.5 119l-442 561q-152 -97 -218.5 -194t-66.5 -216q0 -153 100.5 -234t268.5 -81z" />
    <glyph glyph-name="quotesingle" unicode="'" horiz-adv-x="282" 
d="M115 956l-13 355v143h78v-143l-12 -355h-53z" />
    <glyph glyph-name="parenleft" unicode="(" horiz-adv-x="428" 
d="M336 -225q-234 443 -234 880q0 442 234 881h51q-215 -441 -215 -881q0 -436 215 -880h-51z" />
    <glyph glyph-name="parenright" unicode=")" horiz-adv-x="428" 
d="M92 -225h-51q215 444 215 880q0 440 -215 881h51q234 -439 234 -881q0 -437 -234 -880z" />
    <glyph glyph-name="asterisk" unicode="*" horiz-adv-x="905" 
d="M295 815l-53 33l155 256h-295v61h295l-155 256l53 33l158 -270l157 270l54 -33l-156 -256h295v-61h-295l156 -256l-54 -33l-157 270z" />
    <glyph glyph-name="plus" unicode="+" horiz-adv-x="1142" 
d="M543 94v461h-461v57h461v461h57v-461h461v-57h-461v-461h-57z" />
    <glyph glyph-name="comma" unicode="," horiz-adv-x="331" 
d="M102 -256l66 256h-59v133h120v-117l-82 -272h-45z" />
    <glyph glyph-name="hyphen" unicode="-" horiz-adv-x="811" 
d="M102 545v61h607v-61h-607z" />
    <glyph glyph-name="period" unicode="." horiz-adv-x="325" 
d="M102 0v133h121v-133h-121z" />
    <glyph glyph-name="slash" unicode="/" horiz-adv-x="884" 
d="M82 -225l604 1761h66l-607 -1761h-63z" />
    <glyph glyph-name="zero" unicode="0" horiz-adv-x="1306" 
d="M653 -33q-249 0 -394.5 204.5t-145.5 553.5q0 352 145.5 557t394.5 205t395 -205t146 -557q0 -349 -146 -553.5t-395 -204.5zM653 33q219 0 345 184t126 508q0 325 -126 510.5t-345 185.5t-345 -185.5t-126 -510.5q0 -324 126 -508t345 -184z" />
    <glyph glyph-name="one" unicode="1" horiz-adv-x="718" 
d="M408 0v1155h-306v53h99q125 0 172 50.5t47 195.5h53v-1454h-65z" />
    <glyph glyph-name="two" unicode="2" horiz-adv-x="1263" 
d="M143 0q0 200 124.5 353.5t400.5 291.5q105 53 171.5 94.5t117 91.5t72.5 106t22 128q0 157 -101 256.5t-284 99.5q-187 0 -302.5 -105t-146.5 -306l-70 6q28 220 166 345.5t353 125.5q210 0 332 -118t122 -300q0 -84 -24.5 -150.5t-79 -123.5t-128 -104.5t-183.5 -100.5
q-232 -114 -355.5 -249.5t-132.5 -279.5h903v-61h-977z" />
    <glyph glyph-name="three" unicode="3" horiz-adv-x="1247" 
d="M623 -33q-215 0 -350 106.5t-150 282.5l63 6q15 -150 132 -239.5t305 -89.5q194 0 313 101t119 274q0 155 -122 249.5t-323 94.5h-137v61h137q184 0 290 81t106 218q0 141 -101.5 225t-273.5 84q-151 0 -251.5 -73t-125.5 -199l-70 6q30 154 147.5 243t299.5 89
q200 0 322 -102.5t122 -272.5q0 -122 -75.5 -207.5t-215.5 -120.5q160 -41 250 -142.5t90 -242.5q0 -193 -140 -312.5t-361 -119.5z" />
    <glyph glyph-name="four" unicode="4" horiz-adv-x="1228" 
d="M856 0v358h-774v54l774 1042h66v-1034h184v-62h-184v-358h-66zM168 420h688v926z" />
    <glyph glyph-name="five" unicode="5" horiz-adv-x="1255" 
d="M633 -33q-208 0 -339.5 107.5t-150.5 279.5l66 6q22 -155 132.5 -241t291.5 -86q186 0 297.5 116t111.5 318q0 190 -107.5 311t-303.5 121q-126 0 -232 -62.5t-155 -166.5h-80l90 784h766v-61h-709l-73 -637q54 94 162.5 151.5t230.5 57.5q225 0 353 -140t128 -358
q0 -226 -133.5 -363t-345.5 -137z" />
    <glyph glyph-name="six" unicode="6" horiz-adv-x="1265" 
d="M649 -33q-234 0 -370 159t-136 484q0 147 19.5 276t61.5 240t103.5 191t151 125t199.5 45q167 0 271 -88.5t153 -245.5l-68 -8q-33 124 -121.5 200t-234.5 76q-198 0 -323 -183.5t-146 -545.5q53 128 169 201.5t271 73.5q214 0 343.5 -134.5t129.5 -353.5
q0 -229 -131.5 -370.5t-341.5 -141.5zM649 33q182 0 293 118.5t111 327.5q0 190 -110.5 307t-293.5 117t-305.5 -113t-122.5 -294q0 -202 116 -332.5t312 -130.5z" />
    <glyph glyph-name="seven" unicode="7" horiz-adv-x="1001" 
d="M397 0q0 362 145 736.5t384 656.5h-885v61h960v-57q-239 -281 -386.5 -649t-147.5 -748h-70z" />
    <glyph glyph-name="eight" unicode="8" horiz-adv-x="1228" 
d="M614 -33q-232 0 -372 117t-140 311q0 147 89 252t241 144q-260 80 -260 317q0 172 117.5 275.5t324.5 103.5q208 0 325.5 -103.5t117.5 -275.5q0 -237 -258 -317q152 -40 239.5 -144.5t87.5 -251.5q0 -194 -140 -311t-372 -117zM614 819q169 0 271 76t102 217
q0 142 -98 225.5t-275 83.5t-274.5 -83.5t-97.5 -225.5q0 -141 101.5 -217t270.5 -76zM614 33q210 0 326.5 96t116.5 268q0 162 -117.5 261.5t-325.5 99.5t-325 -99.5t-117 -261.5q0 -172 116 -268t326 -96z" />
    <glyph glyph-name="nine" unicode="9" horiz-adv-x="1265" 
d="M602 -33q-149 0 -256 75.5t-149 207.5l67 8q34 -108 121.5 -166.5t216.5 -58.5q208 0 324 183t129 536q-62 -125 -177.5 -195t-261.5 -70q-210 0 -341.5 134.5t-131.5 349.5q0 227 132 371.5t341 144.5q246 0 376 -168t130 -467q0 -153 -16.5 -281.5t-55 -242t-97.5 -192
t-148 -124t-203 -45.5zM616 553q186 0 309.5 115t123.5 295q0 194 -120.5 326t-312.5 132q-178 0 -290.5 -126t-112.5 -324q0 -186 112 -302t291 -116z" />
    <glyph glyph-name="colon" unicode=":" horiz-adv-x="514" 
d="M197 846v133h120v-133h-120zM197 0v133h120v-133h-120z" />
    <glyph glyph-name="semicolon" unicode=";" horiz-adv-x="526" 
d="M209 846v133h121v-133h-121zM197 -256l65 256h-59v133h121v-117l-82 -272h-45z" />
    <glyph glyph-name="less" unicode="&#x3c;" horiz-adv-x="1093" 
d="M991 113l-909 450v70l909 450v-61l-864 -424l864 -424v-61z" />
    <glyph glyph-name="equal" unicode="=" horiz-adv-x="1064" 
d="M82 772v62h901v-62h-901zM82 350v62h901v-62h-901z" />
    <glyph glyph-name="greater" unicode="&#x3e;" horiz-adv-x="1093" 
d="M102 113v61l865 424l-865 424v61l910 -450v-70z" />
    <glyph glyph-name="question" unicode="?" horiz-adv-x="1056" 
d="M489 442q0 116 41 191t134 145q144 108 184.5 170.5t40.5 181.5q0 124 -90.5 207.5t-245.5 83.5q-176 0 -274.5 -106t-110.5 -297l-66 4q12 217 130.5 341t320.5 124q185 0 293 -105.5t108 -251.5q0 -131 -52 -208t-210 -193q-74 -55 -105.5 -118t-31.5 -169h-66zM463 0
v133h121v-133h-121z" />
    <glyph glyph-name="at" unicode="@" horiz-adv-x="1896" 
d="M1294 -104q-223 -113 -467 -113q-157 0 -289.5 48.5t-229.5 139t-151.5 229.5t-54.5 312q0 210 66.5 386.5t184 298.5t282 189.5t356.5 67.5q364 0 583.5 -208.5t219.5 -555.5q0 -233 -85.5 -373.5t-227.5 -140.5q-93 0 -154 69t-72 185q-51 -124 -157 -193t-246 -69
q-159 0 -259.5 105.5t-100.5 267.5q0 211 123 346t313 135q120 0 211 -65t133 -177l22 224h54l-31 -310q-10 -88 -10 -211q0 -124 43.5 -184.5t132.5 -60.5q117 0 181.5 118.5t64.5 333.5q0 323 -200.5 513t-541.5 190q-176 0 -327.5 -63t-260 -175.5t-170 -277.5
t-61.5 -361q0 -215 84.5 -368.5t232.5 -228.5t346 -75q245 0 443 109zM870 229q156 0 267.5 112.5t111.5 279.5q0 141 -89 240.5t-226 99.5q-168 0 -272.5 -115t-104.5 -299q0 -150 82 -234t231 -84z" />
    <glyph glyph-name="A" unicode="A" horiz-adv-x="1253" 
d="M49 0l539 1454h78l538 -1454h-67l-176 481h-668l-176 -481h-68zM315 543h623l-311 846z" />
    <glyph glyph-name="B" unicode="B" horiz-adv-x="1306" 
d="M197 0v1454h444q492 0 492 -389q0 -128 -76 -218.5t-201 -113.5q157 -20 247.5 -112t90.5 -234q0 -387 -471 -387h-526zM262 756h379q203 0 312.5 80t109.5 229q0 328 -422 328h-379v-637zM262 61h461q202 0 301.5 80.5t99.5 245.5q0 141 -108.5 224t-292.5 83h-461v-633
z" />
    <glyph glyph-name="C" unicode="C" horiz-adv-x="1384" 
d="M713 -33q-281 0 -446 203t-165 555t165 557t446 205q231 0 377 -135.5t190 -368.5l-70 -6q-34 207 -163 325.5t-334 118.5q-249 0 -395 -187t-146 -509t145.5 -507t395.5 -185q217 0 349.5 125.5t160.5 351.5l69 -6q-37 -252 -188 -394.5t-391 -142.5z" />
    <glyph glyph-name="D" unicode="D" horiz-adv-x="1384" 
d="M197 0v1454h413q323 0 497.5 -189.5t174.5 -539.5q0 -349 -170.5 -537t-488.5 -188h-426zM262 61h348q290 0 446 172t156 492q0 321 -156 494.5t-446 173.5h-348v-1332z" />
    <glyph glyph-name="E" unicode="E" horiz-adv-x="1173" 
d="M197 0v1454h858v-61h-793v-637h768v-62h-768v-633h809v-61h-874z" />
    <glyph glyph-name="F" unicode="F" horiz-adv-x="1146" 
d="M197 0v1454h858v-61h-793v-637h756v-62h-756v-694h-65z" />
    <glyph glyph-name="G" unicode="G" horiz-adv-x="1382" 
d="M709 -33q-278 0 -442.5 205t-164.5 553q0 355 162.5 558.5t456.5 203.5q214 0 357 -129t188 -373l-68 -8q-43 220 -164 332t-313 112q-261 0 -405 -186t-144 -510q0 -319 145.5 -505.5t391.5 -186.5q221 0 348.5 151t146.5 434h-479v58h545v-676h-58l-6 358
q-43 -174 -169 -282.5t-328 -108.5z" />
    <glyph glyph-name="H" unicode="H" horiz-adv-x="1384" 
d="M197 0v1454h65v-678h860v678h66v-1454h-66v715h-860v-715h-65z" />
    <glyph glyph-name="I" unicode="I" horiz-adv-x="458" 
d="M197 0v1454h65v-1454h-65z" />
    <glyph glyph-name="J" unicode="J" horiz-adv-x="1167" 
d="M571 -33q-190 0 -306.5 136t-119.5 374l70 6q3 -217 98.5 -333.5t257.5 -116.5q171 0 268 121t97 354v946h65v-946q0 -260 -115.5 -400.5t-314.5 -140.5z" />
    <glyph glyph-name="K" unicode="K" horiz-adv-x="1259" 
d="M197 0v1454h65v-891l832 891h80l-592 -633l637 -821h-76l-600 778l-281 -301v-477h-65z" />
    <glyph glyph-name="L" unicode="L" 
d="M197 0v1454h65v-1393h782v-61h-847z" />
    <glyph glyph-name="M" unicode="M" horiz-adv-x="1740" 
d="M197 0v1454h110l563 -1384l564 1384h110v-1454h-65v1393l-572 -1393h-73l-572 1393v-1393h-65z" />
    <glyph glyph-name="N" unicode="N" horiz-adv-x="1456" 
d="M197 0v1454h96l901 -1393v1393h66v-1454h-97l-901 1393v-1393h-65z" />
    <glyph glyph-name="O" unicode="O" horiz-adv-x="1462" 
d="M731 -33q-291 0 -460 204.5t-169 553.5q0 352 169 557t460 205t460 -205t169 -557q0 -349 -169 -553.5t-460 -204.5zM731 33q259 0 409 186t150 506q0 322 -150 509t-409 187t-409 -187t-150 -509q0 -320 150 -506t409 -186z" />
    <glyph glyph-name="P" unicode="P" horiz-adv-x="1265" 
d="M197 0v1454h485q229 0 360.5 -113t131.5 -307q0 -190 -131 -299.5t-361 -109.5h-420v-625h-65zM262 686h420q203 0 312.5 90.5t109.5 257.5q0 172 -110 265.5t-312 93.5h-420v-707z" />
    <glyph glyph-name="Q" unicode="Q" horiz-adv-x="1449" 
d="M1167 -141l-143 186q-132 -78 -299 -78q-281 0 -452 207.5t-171 550.5q0 228 77 401t218 267t328 94t328 -94t218 -267t77 -401q0 -223 -71.5 -387.5t-203.5 -261.5l172 -217h-78zM725 33q143 0 260 63l-260 330h78l231 -299q117 86 180.5 240t63.5 358q0 321 -149 508.5
t-404 187.5t-404 -187.5t-149 -508.5q0 -319 149 -505.5t404 -186.5z" />
    <glyph glyph-name="R" unicode="R" horiz-adv-x="1290" 
d="M197 0v1454h493q235 0 361.5 -108.5t126.5 -307.5q0 -136 -77 -231t-210 -131q236 -37 254 -277l33 -399h-68l-31 397q-9 124 -89 182t-245 58h-483v-637h-65zM262 698h451q185 0 290 88.5t105 251.5q0 355 -422 355h-424v-695z" />
    <glyph glyph-name="S" unicode="S" horiz-adv-x="1275" 
d="M659 -33q-228 0 -382 140.5t-154 341.5l67 6q0 -84 34.5 -161t95.5 -134.5t151 -92t193 -34.5q184 0 301.5 90t117.5 246q0 62 -19.5 108t-70.5 91t-145.5 82.5t-237.5 70.5q-251 58 -353.5 138t-102.5 243q0 166 126.5 275.5t346.5 109.5q115 0 210 -38.5t154 -102.5
t91 -143t32 -163l-70 -6q0 79 -27.5 148.5t-79.5 123t-133 84.5t-181 31q-187 0 -293.5 -89.5t-106.5 -233.5q0 -89 36.5 -144t122.5 -94.5t249 -77.5q155 -36 257.5 -77.5t160.5 -94t81 -110t23 -135.5q0 -120 -67 -211.5t-178.5 -139t-248.5 -47.5z" />
    <glyph glyph-name="T" unicode="T" horiz-adv-x="1114" 
d="M524 0v1393h-495v61h1056v-61h-495v-1393h-66z" />
    <glyph glyph-name="U" unicode="U" horiz-adv-x="1355" 
d="M678 -33q-246 0 -379 140.5t-133 400.5v948h65v-948q0 -229 116 -352t331 -123t330.5 123t115.5 352v948h66v-948q0 -260 -133 -400.5t-379 -140.5z" />
    <glyph glyph-name="V" unicode="V" horiz-adv-x="1314" 
d="M621 0l-572 1454h72l536 -1384l537 1384h72l-572 -1454h-73z" />
    <glyph glyph-name="W" unicode="W" horiz-adv-x="1871" 
d="M494 0l-408 1454h68l387 -1386l350 1386h90l350 -1386l387 1386h68l-408 -1454h-98l-344 1384l-344 -1384h-98z" />
    <glyph glyph-name="X" unicode="X" horiz-adv-x="1224" 
d="M41 0l528 733l-514 721h80l475 -672l480 672h79l-514 -725l529 -729h-80l-490 680l-493 -680h-80z" />
    <glyph glyph-name="Y" unicode="Y" horiz-adv-x="1107" 
d="M522 0v594l-526 860h78l481 -799l479 799h78l-524 -860v-594h-66z" />
    <glyph glyph-name="Z" unicode="Z" horiz-adv-x="1071" 
d="M61 0v61l857 1332h-830v61h901v-61l-856 -1332h877v-61h-949z" />
    <glyph glyph-name="bracketleft" unicode="[" horiz-adv-x="589" 
d="M549 -225h-352v1761h352v-57h-287v-1647h287v-57z" />
    <glyph glyph-name="backslash" unicode="\" horiz-adv-x="915" 
d="M793 -225h-64l-606 1761h65z" />
    <glyph glyph-name="bracketright" unicode="]" horiz-adv-x="589" 
d="M41 -225v57h287v1647h-287v57h352v-1761h-352z" />
    <glyph glyph-name="asciicircum" unicode="^" horiz-adv-x="753" 
d="M82 784l246 594h98l246 -594h-70l-225 553l-225 -553h-70z" />
    <glyph glyph-name="underscore" unicode="_" horiz-adv-x="1093" 
d="M102 -61v61h889v-61h-889z" />
    <glyph glyph-name="grave" unicode="`" horiz-adv-x="421" 
d="M266 1266l-164 237h70l147 -237h-53z" />
    <glyph glyph-name="a" unicode="a" horiz-adv-x="1103" 
d="M451 -25q-157 0 -253 79.5t-96 211.5q0 118 89 194t241 105l436 82q0 210 -79.5 306t-247.5 96q-150 0 -240 -75t-113 -216l-67 6q28 167 136 256.5t284 89.5q190 0 289.5 -110.5t99.5 -331.5v-463q0 -84 23.5 -114t78.5 -30h12v-61q-12 -2 -30 -2q-72 0 -109 46.5
t-41 176.5q-48 -105 -159 -175.5t-254 -70.5zM455 37q178 0 295.5 109t117.5 272v170l-417 -80q-283 -54 -283 -238q0 -114 74 -173.5t213 -59.5z" />
    <glyph glyph-name="b" unicode="b" horiz-adv-x="1167" 
d="M612 -25q-135 0 -237.5 84t-149.5 215l-6 -274h-45v1454h62v-635q44 130 144.5 210.5t231.5 80.5q209 0 331 -154t122 -413q0 -261 -122 -414.5t-331 -153.5zM612 37q178 0 282.5 136.5t104.5 369.5q0 231 -104.5 368.5t-282.5 137.5q-167 0 -271.5 -142.5t-104.5 -363.5
q0 -225 104 -365.5t272 -140.5z" />
    <glyph glyph-name="c" unicode="c" horiz-adv-x="1087" 
d="M563 -25q-148 0 -254.5 79t-156.5 205.5t-50 283.5q0 117 29.5 218.5t85.5 180t145 123.5t201 45q175 0 284 -99t152 -263l-65 -5q-78 306 -371 306q-182 0 -288.5 -136.5t-106.5 -369.5t106.5 -369.5t288.5 -136.5q150 0 248 86.5t129 241.5l66 -7q-39 -174 -152 -278.5
t-291 -104.5z" />
    <glyph glyph-name="d" unicode="d" horiz-adv-x="1167" 
d="M555 -25q-211 0 -332 153t-121 415t121 414.5t332 152.5q136 0 237.5 -81t139.5 -210v635h61v-1454h-45l-6 283q-45 -142 -152 -225t-235 -83zM555 37q171 0 274 140t103 366q0 141 -46 256t-132.5 182.5t-198.5 67.5q-178 0 -282.5 -137.5t-104.5 -368.5t104.5 -368.5
t282.5 -137.5z" />
    <glyph glyph-name="e" unicode="e" 
d="M573 -25q-113 0 -204 45.5t-148.5 124t-88 180t-30.5 218.5q0 93 18.5 177t56.5 155.5t92 123.5t130 81.5t166 29.5q91 0 167 -29t129.5 -80.5t90.5 -121.5t54.5 -151t17.5 -171v-25h-856q3 -229 113 -362t292 -133q141 0 233.5 69.5t127.5 190.5l67 -4
q-41 -143 -154 -230.5t-274 -87.5zM168 590h788q-6 213 -107.5 336t-283.5 123q-172 0 -279.5 -123t-117.5 -336z" />
    <glyph glyph-name="f" unicode="f" horiz-adv-x="745" 
d="M299 0v1028h-166v57h166v144q0 107 59.5 166t173.5 59h121v-57h-112q-95 0 -138 -44.5t-43 -129.5v-138h293v-57h-293v-1028h-61z" />
    <glyph glyph-name="g" unicode="g" horiz-adv-x="1167" 
d="M557 -332q-169 0 -282 90.5t-119 229.5l65 4q6 -118 96.5 -190t239.5 -72q177 0 276 101.5t99 285.5v209q-51 -127 -149 -201t-232 -74q-206 0 -327.5 143.5t-121.5 389.5q0 240 122 383t327 143q136 0 236 -79.5t145 -207.5v262h61v-972q0 -207 -116.5 -326t-319.5 -119
zM551 113q173 0 277 127.5t104 343.5q0 202 -105.5 333.5t-275.5 131.5q-175 0 -279 -126.5t-104 -338.5q0 -216 104 -343.5t279 -127.5z" />
    <glyph glyph-name="h" unicode="h" horiz-adv-x="1138" 
d="M174 0v1454h62v-610q28 128 130.5 197t241.5 69q118 0 200 -56t119.5 -147t37.5 -209v-698h-62v649q0 187 -75 293.5t-236 106.5q-166 0 -261 -111t-95 -289v-649h-62z" />
    <glyph glyph-name="i" unicode="i" horiz-adv-x="409" 
d="M170 1286v144h70v-144h-70zM174 0v1085h62v-1085h-62z" />
    <glyph glyph-name="j" unicode="j" horiz-adv-x="471" 
d="M231 1286v144h70v-144h-70zM-10 -307v57h55q109 0 150 41.5t41 159.5v1134h61v-1142q0 -135 -57.5 -192.5t-182.5 -57.5h-67z" />
    <glyph glyph-name="k" unicode="k" horiz-adv-x="1167" 
d="M174 0v1454h62v-1057l708 688h82l-481 -467l522 -618h-74l-489 582l-268 -263v-319h-62z" />
    <glyph glyph-name="l" unicode="l" horiz-adv-x="485" 
d="M344 0q-170 0 -170 164v1290h62v-1290q0 -107 114 -107h66v-57h-72z" />
    <glyph glyph-name="m" unicode="m" horiz-adv-x="1732" 
d="M174 0v1085h57l5 -237q28 115 125 188.5t225 73.5q106 0 184.5 -79t106.5 -214q34 134 131 213.5t227 79.5q143 0 233.5 -117t90.5 -301v-692h-62v643q0 187 -72.5 296.5t-197.5 109.5q-141 0 -238.5 -121.5t-97.5 -296.5v-631h-62v649q0 186 -67.5 293t-188.5 107
q-142 0 -239.5 -116t-97.5 -284v-649h-62z" />
    <glyph glyph-name="n" unicode="n" horiz-adv-x="1138" 
d="M174 0v1085h57l5 -241q30 128 131.5 197t238.5 69q176 0 267.5 -115t91.5 -297v-698h-62v649q0 186 -74 293t-235 107q-166 0 -262 -111t-96 -289v-649h-62z" />
    <glyph glyph-name="o" unicode="o" 
d="M563 -25q-212 0 -336.5 153.5t-124.5 414.5t124.5 414t336.5 153t336.5 -153t124.5 -414t-124.5 -414.5t-336.5 -153.5zM563 37q183 0 289 136t106 370t-106 370t-289 136t-289 -136t-106 -370t106 -370t289 -136z" />
    <glyph glyph-name="p" unicode="p" horiz-adv-x="1167" 
d="M174 -307v1392h53l4 -284q47 148 149.5 228.5t240.5 80.5q205 0 324.5 -153t119.5 -414t-119 -414.5t-321 -153.5q-132 0 -240.5 87t-148.5 210v-579h-62zM625 37q173 0 273.5 136t100.5 370q0 233 -101.5 369.5t-276.5 136.5q-111 0 -199 -66.5t-137 -182t-49 -257.5
q0 -216 110.5 -361t278.5 -145z" />
    <glyph glyph-name="q" unicode="q" horiz-adv-x="1167" 
d="M993 -307h-61v579q-40 -123 -148.5 -210t-240.5 -87q-203 0 -322 153.5t-119 414.5t120 414t325 153q138 0 240 -80.5t149 -228.5l4 284h53v-1392zM543 37q168 0 278.5 145t110.5 361q0 142 -49 257.5t-137 182t-199 66.5q-175 0 -277 -136.5t-102 -369.5t101 -369.5
t274 -136.5z" />
    <glyph glyph-name="r" unicode="r" horiz-adv-x="702" 
d="M174 0v1085h49l8 -243q39 123 110 183t187 60h72v-65h-88q-118 0 -197 -103.5t-79 -244.5v-672h-62z" />
    <glyph glyph-name="s" unicode="s" horiz-adv-x="1040" 
d="M543 -25q-194 0 -313 96.5t-128 245.5l64 9q6 -130 108 -209.5t269 -79.5q162 0 245.5 57t83.5 168q0 39 -7 66t-29 54.5t-62 47.5t-105.5 39t-160.5 35q-150 26 -231 65.5t-109.5 92t-28.5 137.5q0 141 101.5 226t267.5 85q167 0 270 -90.5t129 -231.5l-63 -12
q-16 116 -103.5 194.5t-232.5 78.5q-140 0 -221.5 -65.5t-81.5 -184.5q0 -109 67.5 -158.5t264.5 -81.5q225 -36 313 -103t88 -190q0 -141 -102.5 -216t-292.5 -75z" />
    <glyph glyph-name="t" unicode="t" horiz-adv-x="720" 
d="M520 0q-207 0 -207 205v823h-190v57h190v254h62v-254h264v-57h-264v-819q0 -81 36.5 -116.5t112.5 -35.5h115v-57h-119z" />
    <glyph glyph-name="u" unicode="u" horiz-adv-x="1138" 
d="M530 -25q-164 0 -260 110t-96 302v698h62v-671q0 -185 80 -281t231 -96q163 0 259.5 108t96.5 291v649h62v-1085h-54l-4 244q-31 -128 -129.5 -198.5t-247.5 -70.5z" />
    <glyph glyph-name="v" unicode="v" horiz-adv-x="987" 
d="M455 0l-406 1085h66l379 -1028l378 1028h66l-406 -1085h-77z" />
    <glyph glyph-name="w" unicode="w" horiz-adv-x="1591" 
d="M416 0l-367 1085h66l338 -1024l313 1024h61l312 -1024l338 1024h65l-366 -1085h-74l-305 991l-308 -991h-73z" />
    <glyph glyph-name="x" unicode="x" horiz-adv-x="1097" 
d="M100 0l408 545l-393 540h71l363 -503l360 503h74l-393 -540l407 -545h-71l-373 510l-379 -510h-74z" />
    <glyph glyph-name="y" unicode="y" horiz-adv-x="1017" 
d="M180 -307v57h82q87 0 128.5 30t72.5 114l47 126h-33l-428 1065h66l407 -1024l381 1024h66l-457 -1216q-37 -98 -91.5 -137t-158.5 -39h-82z" />
    <glyph glyph-name="z" unicode="z" horiz-adv-x="1097" 
d="M121 0v61l770 967h-750v57h820v-61l-771 -967h787v-57h-856z" />
    <glyph glyph-name="braceleft" unicode="{" horiz-adv-x="733" 
d="M664 -231q-156 0 -246 93t-90 255v188q0 157 -60.5 236.5t-165.5 79.5v63q105 0 165.5 79.5t60.5 235.5v189q0 162 90 255t246 93h28v-61q-299 0 -299 -287v-189q0 -155 -58.5 -244t-154.5 -100v-2q97 -11 155 -101t58 -247v-188q0 -287 299 -287v-61h-28z" />
    <glyph glyph-name="bar" unicode="|" horiz-adv-x="454" 
d="M197 -225v1761h61v-1761h-61z" />
    <glyph glyph-name="braceright" unicode="}" horiz-adv-x="733" 
d="M70 -231h-29v61q299 0 299 287v188q0 157 58 247t155 101v2q-96 11 -154.5 100t-58.5 244v189q0 287 -299 287v61h29q156 0 246 -93t90 -255v-189q0 -157 60 -236t165 -79v-63q-105 0 -165 -79.5t-60 -236.5v-188q0 -162 -90 -255t-246 -93z" />
    <glyph glyph-name="asciitilde" unicode="~" horiz-adv-x="987" 
d="M680 539q-57 0 -102 26t-99 86q-59 67 -93 91t-83 24q-65 0 -108.5 -60t-47.5 -157h-65q7 133 65.5 205.5t155.5 72.5q58 0 104.5 -28.5t96.5 -85.5q57 -66 94.5 -89.5t79.5 -23.5q69 0 113 59.5t49 155.5h65q-7 -132 -66 -204t-159 -72z" />
    <glyph glyph-name="uni00A0" unicode="&#xa0;" horiz-adv-x="512" 
 />
    <glyph glyph-name="exclamdown" unicode="&#xa1;" horiz-adv-x="346" 
d="M113 1122h120v-133h-120v133zM141 -332v512q0 16 11 522h45q10 -460 10 -522v-512h-66z" />
    <glyph glyph-name="cent" unicode="&#xa2;" horiz-adv-x="1087" 
d="M446 -33l17 195q-117 25 -199.5 106.5t-122 196.5t-39.5 254q0 157 50 283.5t155.5 205t251.5 78.5l16 201h58l-17 -203q152 -14 248 -111t135 -249l-65 -4q-34 135 -115.5 213t-208.5 90l-86 -1008q12 -2 39 -2q150 0 248 86.5t129 241.5l66 -6q-39 -174 -152 -278.5
t-291 -104.5q-29 0 -43 2l-16 -187h-58zM168 719q0 -200 80.5 -331t220.5 -165l84 1002q-177 -5 -281 -140.5t-104 -365.5z" />
    <glyph glyph-name="sterling" unicode="&#xa3;" horiz-adv-x="1224" 
d="M123 0v59q133 93 211 219t78 273q0 70 -13 143h-276v62h264q-7 23 -21 68t-20 67t-14.5 57t-11.5 67t-3 68q0 172 105 288t272 116q187 0 290 -95t118 -268l-68 -8q-37 305 -340 305q-137 0 -223 -98.5t-86 -243.5q0 -133 68 -323h409v-62h-397q48 -416 -252 -633h930
v-61h-1020z" />
    <glyph glyph-name="currency" unicode="&#xa4;" horiz-adv-x="1181" 
d="M147 225l-43 43l175 176q-99 117 -99 267q0 151 101 266l-179 178l43 43l179 -178q114 100 266 100q150 0 268 -100l178 180l43 -43l-178 -180q98 -116 98 -266q0 -153 -100 -267l178 -178l-43 -43l-178 178q-114 -100 -266 -100q-150 0 -268 100zM590 362q140 0 244 104
t104 245t-104 244.5t-244 103.5q-141 0 -244.5 -103.5t-103.5 -244.5t103.5 -245t244.5 -104z" />
    <glyph glyph-name="yen" unicode="&#xa5;" horiz-adv-x="1107" 
d="M164 342v61h358v168h-358v62h334l-502 821h78l481 -799l479 799h78l-500 -821h441v-62h-465v-168h465v-61h-465v-342h-66v342h-358z" />
    <glyph glyph-name="brokenbar" unicode="&#xa6;" horiz-adv-x="454" 
d="M197 809v727h61v-727h-61zM197 -225v727h61v-727h-61z" />
    <glyph glyph-name="section" unicode="&#xa7;" horiz-adv-x="1099" 
d="M573 -131q-202 0 -316 101.5t-134 265.5l70 8q16 -145 110 -227.5t270 -82.5q57 0 115 14t110 41t84.5 73t32.5 104q0 82 -92.5 147t-294.5 95q-66 10 -117 22.5t-100.5 34t-81.5 50t-51.5 70.5t-19.5 95q0 99 71 170t213 92q-136 31 -207 95.5t-71 158.5
q0 128 106 209.5t273 81.5q170 0 273 -97t124 -251l-70 -6q-49 288 -335 288q-130 0 -220 -64.5t-90 -158.5q0 -90 82 -145.5t256 -83.5q158 -25 250.5 -66t128 -95t35.5 -132q0 -199 -281 -254q281 -73 281 -258q0 -77 -35 -136t-94.5 -92.5t-128.5 -50t-146 -16.5z
M618 467q127 0 212 61t85 152q0 97 -111 157t-302 60q-119 0 -201 -60t-82 -151q0 -219 399 -219z" />
    <glyph glyph-name="dieresis" unicode="&#xa8;" horiz-adv-x="536" 
d="M102 1286v144h70v-144h-70zM365 1286v144h69v-144h-69z" />
    <glyph glyph-name="copyright" unicode="&#xa9;" horiz-adv-x="1716" 
d="M858 -25q-154 0 -294 60t-241 161t-161 241t-60 294t60 294t161 241t241 161t294 60t294 -60t241 -161t161 -241t60 -294t-60 -294t-161 -241t-241 -161t-294 -60zM858 39q139 0 266.5 55.5t220.5 148t148 221t55 267.5t-55 267.5t-148 221t-220.5 148t-266.5 55.5
q-140 0 -267.5 -55.5t-220 -148t-147.5 -220.5t-55 -268t55 -268t147.5 -220.5t220 -148t267.5 -55.5zM866 295q-183 0 -299 122t-116 314q0 190 116 311t299 121q141 0 241 -85t114 -210l-64 -4q-18 100 -100 169t-191 69q-156 0 -255 -104t-99 -267q0 -165 99 -270
t255 -105q113 0 197 74t102 182l64 -6q-15 -132 -117.5 -221.5t-245.5 -89.5z" />
    <glyph glyph-name="ordfeminine" unicode="&#xaa;" horiz-adv-x="743" 
d="M301 770q-99 0 -159 48.5t-60 131.5q0 76 55.5 123.5t151.5 65.5l270 51q0 130 -48 188t-149 58q-182 0 -212 -168l-56 4q17 102 86 158.5t182 56.5q250 0 250 -289v-289q0 -46 13.5 -63t44.5 -17h12v-49q-6 -2 -23 -2q-47 0 -72.5 31t-29.5 104q-33 -62 -103 -102.5
t-153 -40.5zM305 819q107 0 180.5 65.5t73.5 162.5v94l-258 -47q-164 -31 -164 -140q0 -65 44 -100t124 -35z" />
    <glyph glyph-name="guillemotleft" unicode="&#xab;" horiz-adv-x="1024" 
d="M508 156h-82l-324 379v61l324 379h82l-350 -410zM922 156h-82l-324 379v61l324 379h82l-351 -410z" />
    <glyph glyph-name="logicalnot" unicode="&#xac;" horiz-adv-x="1024" 
d="M885 135v453h-803v57h860v-510h-57z" />
    <glyph glyph-name="registered" unicode="&#xae;" horiz-adv-x="1308" 
d="M655 383q-113 0 -215.5 44t-176.5 118t-117.5 175.5t-43.5 213.5q0 113 43.5 215.5t117.5 176.5t176.5 117.5t215.5 43.5q112 0 214 -43.5t176 -117.5t117.5 -176.5t43.5 -215.5q0 -149 -73.5 -276t-200.5 -201t-277 -74zM655 432q134 0 249.5 68.5t183 184t67.5 249.5
q0 135 -67.5 251t-182.5 184.5t-250 68.5t-250.5 -68.5t-183 -184.5t-67.5 -251q0 -134 67.5 -249.5t183.5 -184t250 -68.5zM444 614v637h205q107 0 169.5 -50t62.5 -136q0 -64 -36 -107.5t-104 -60.5l148 -283h-64l-137 269h-188v-269h-56zM500 938h166q75 0 119 35t44 96
q0 60 -44 95.5t-119 35.5h-166v-262z" />
    <glyph glyph-name="macron" unicode="&#xaf;" horiz-adv-x="712" 
d="M102 1319v57h508v-57h-508z" />
    <glyph glyph-name="degree" unicode="&#xb0;" horiz-adv-x="745" 
d="M373 950q-112 0 -191.5 76.5t-79.5 190.5q0 117 79.5 193.5t191.5 76.5q115 0 192.5 -76.5t77.5 -193.5q0 -115 -78 -191t-192 -76zM373 1012q87 0 148 58t61 147t-61.5 148.5t-147.5 59.5q-85 0 -147 -59.5t-62 -148.5t62 -147t147 -58z" />
    <glyph glyph-name="plusminus" unicode="&#xb1;" horiz-adv-x="1101" 
d="M522 176v440h-440v58h440v440h58v-440h440v-58h-440v-440h-58zM82 0v61h938v-61h-938z" />
    <glyph glyph-name="uni00B2" unicode="&#xb2;" horiz-adv-x="704" 
d="M82 662q0 127 52.5 201t189.5 149l67 37q103 56 133.5 95t30.5 101q0 81 -51 124.5t-144 43.5q-178 0 -215 -207l-61 6q14 123 86 190.5t190 67.5q120 0 188 -59.5t68 -165.5q0 -82 -41.5 -132.5t-150.5 -108.5l-62 -33q-114 -61 -163 -120t-47 -132h471v-57h-541z" />
    <glyph glyph-name="uni00B3" unicode="&#xb3;" horiz-adv-x="669" 
d="M330 645q-141 0 -212 59.5t-77 165.5l63 7q6 -88 57 -131.5t169 -43.5q109 0 163 46.5t54 134.5q0 77 -56 126.5t-155 49.5h-57v53h57q78 0 129 38t51 124q0 139 -188 139q-177 0 -193 -147l-65 8q12 92 80 144t178 52q122 0 186 -52.5t64 -143.5q0 -70 -40 -119
t-110 -70q90 -21 135 -74.5t45 -127.5q0 -108 -74 -173t-204 -65z" />
    <glyph glyph-name="acute" unicode="&#xb4;" horiz-adv-x="421" 
d="M102 1249l148 238h69l-163 -238h-54z" />
    <glyph glyph-name="uni00B5" unicode="&#xb5;" horiz-adv-x="1138" 
d="M174 -307v1392h62v-671q0 -185 80 -281t231 -96q163 0 259.5 108t96.5 291v649h62v-1085h-54l-4 244q-31 -128 -129.5 -198.5t-247.5 -70.5q-200 0 -294 158v-440h-62z" />
    <glyph glyph-name="paragraph" unicode="&#xb6;" horiz-adv-x="1034" 
d="M543 0v627q-199 0 -320 112t-121 301t121 301.5t320 112.5h295v-1454h-66v1393h-164v-1393h-65z" />
    <glyph glyph-name="periodcentered" unicode="&#xb7;" horiz-adv-x="325" 
d="M102 530v134h121v-134h-121z" />
    <glyph glyph-name="cedilla" unicode="&#xb8;" horiz-adv-x="593" 
d="M299 -418q-76 0 -127 32t-70 91l50 21q27 -91 143 -91q139 0 139 111q0 55 -40.5 81t-135.5 26l-29 36l62 119h57l-57 -106q201 -6 201 -160q0 -75 -52.5 -117.5t-140.5 -42.5z" />
    <glyph glyph-name="uni00B9" unicode="&#xb9;" horiz-adv-x="421" 
d="M242 662v585h-201v45h27q186 0 186 162h45v-792h-57z" />
    <glyph glyph-name="ordmasculine" unicode="&#xba;" horiz-adv-x="759" 
d="M381 770q-139 0 -219 96t-80 260q0 165 80 263t219 98q138 0 217.5 -97.5t79.5 -263.5q0 -163 -80 -259.5t-217 -96.5zM381 821q114 0 177 82t63 223q0 144 -63.5 227t-176.5 83q-114 0 -178 -83t-64 -227q0 -141 64 -223t178 -82z" />
    <glyph glyph-name="guillemotright" unicode="&#xbb;" horiz-adv-x="1024" 
d="M516 156l350 409l-350 410h82l324 -379v-61l-324 -379h-82zM102 156l351 409l-351 410h82l324 -379v-61l-324 -379h-82z" />
    <glyph glyph-name="onequarter" unicode="&#xbc;" horiz-adv-x="1306" 
d="M242 662v585h-201v45h27q186 0 186 162h45v-792h-57zM94 0l1043 1454h61l-1042 -1454h-62zM1077 0v195h-391v45l391 553h58v-545h131v-53h-131v-195h-58zM752 248h325v463z" />
    <glyph glyph-name="onehalf" unicode="&#xbd;" horiz-adv-x="1492" 
d="M242 662v585h-201v45h27q186 0 186 162h45v-792h-57zM94 0l1043 1454h61l-1042 -1454h-62zM870 0q0 127 52.5 201t189.5 149l68 37q102 56 132.5 95.5t30.5 101.5q0 81 -50.5 124.5t-143.5 43.5q-178 0 -215 -207l-62 6q13 123 85.5 190.5t191.5 67.5q120 0 188 -59.5
t68 -165.5q0 -82 -42 -133t-151 -109l-61 -33q-114 -61 -163.5 -120t-47.5 -132h471v-57h-541z" />
    <glyph glyph-name="threequarters" unicode="&#xbe;" horiz-adv-x="1472" 
d="M330 645q-141 0 -212 59.5t-77 165.5l63 7q6 -88 57 -131.5t169 -43.5q109 0 163 46.5t54 134.5q0 77 -56 126.5t-155 49.5h-57v53h57q78 0 129 38t51 124q0 139 -188 139q-177 0 -193 -147l-65 8q12 92 80 144t178 52q122 0 186 -52.5t64 -143.5q0 -70 -40 -119
t-110 -70q90 -21 135 -74.5t45 -127.5q0 -108 -74 -173t-204 -65zM260 0l1043 1454h61l-1042 -1454h-62zM1243 0v195h-391v45l391 553h57v-545h132v-53h-132v-195h-57zM918 248h325v463z" />
    <glyph glyph-name="questiondown" unicode="&#xbf;" horiz-adv-x="1056" 
d="M594 1155v-133h-121v133h121zM504 -332q-185 0 -293.5 105.5t-108.5 251.5q0 91 25 153t77 115t161 133q74 55 105.5 118t31.5 169h65q0 -116 -40.5 -191t-133.5 -145q-144 -108 -184.5 -170.5t-40.5 -181.5q0 -124 90.5 -207.5t245.5 -83.5q176 0 274.5 106t110.5 297
l65 -4q-12 -217 -130 -341t-320 -124z" />
    <glyph glyph-name="Agrave" unicode="&#xc0;" horiz-adv-x="1253" 
d="M600 1634l-164 238h70l147 -238h-53zM49 0l539 1454h78l538 -1454h-67l-176 481h-668l-176 -481h-68zM315 543h623l-311 846z" />
    <glyph glyph-name="Aacute" unicode="&#xc1;" horiz-adv-x="1253" 
d="M598 1618l147 237h70l-164 -237h-53zM49 0l539 1454h78l538 -1454h-67l-176 481h-668l-176 -481h-68zM315 543h623l-311 846z" />
    <glyph glyph-name="Acircumflex" unicode="&#xc2;" horiz-adv-x="1253" 
d="M426 1618l180 254h45l180 -254h-57l-145 203l-146 -203h-57zM49 0l539 1454h78l538 -1454h-67l-176 481h-668l-176 -481h-68zM315 543h623l-311 846z" />
    <glyph glyph-name="Atilde" unicode="&#xc3;" horiz-adv-x="1253" 
d="M739 1659q-41 0 -70.5 15.5t-60.5 49.5q-27 30 -51 44t-59 14q-97 0 -103 -133h-53q6 85 48.5 133.5t107.5 48.5q46 0 79 -18.5t68 -55.5q49 -49 94 -49q41 0 62.5 33t27.5 108h54q-6 -90 -43 -140t-101 -50zM49 0l539 1454h78l538 -1454h-67l-176 481h-668l-176 -481
h-68zM315 543h623l-311 846z" />
    <glyph glyph-name="Adieresis" unicode="&#xc4;" horiz-adv-x="1253" 
d="M461 1655v143h69v-143h-69zM723 1655v143h70v-143h-70zM49 0l539 1454h78l538 -1454h-67l-176 481h-668l-176 -481h-68zM315 543h623l-311 846z" />
    <glyph glyph-name="Aring" unicode="&#xc5;" horiz-adv-x="1253" 
d="M627 1581q-65 0 -106.5 40.5t-41.5 104.5q0 63 42 104.5t106 41.5q63 0 104 -41.5t41 -104.5t-40.5 -104t-104.5 -41zM627 1632q43 0 67.5 25.5t24.5 68.5t-24.5 68t-67.5 25t-69 -25t-26 -68t26 -68.5t69 -25.5zM49 0l539 1454h78l538 -1454h-67l-176 481h-668
l-176 -481h-68zM315 543h623l-311 846z" />
    <glyph glyph-name="AE" unicode="&#xc6;" horiz-adv-x="1822" 
d="M49 0l760 1454h895v-61h-715v-633h690v-62h-690v-637h731v-61h-796v481h-551l-250 -481h-74zM924 1393h-80l-441 -850h521v850z" />
    <glyph glyph-name="Ccedilla" unicode="&#xc7;" horiz-adv-x="1384" 
d="M696 -418q-76 0 -126.5 32t-69.5 91l49 21q27 -91 143 -91q139 0 139 111q0 55 -40.5 81t-135.5 26l-28 36l41 80q-261 17 -413.5 218t-152.5 538q0 352 165 557t446 205q231 0 377 -135.5t190 -368.5l-70 -6q-34 207 -163 325.5t-334 118.5q-249 0 -395 -187t-146 -509
t145.5 -507t395.5 -185q217 0 349.5 125.5t160.5 351.5l69 -6q-37 -251 -186.5 -394t-382.5 -143l-35 -65q201 -6 201 -160q0 -75 -52.5 -117.5t-140.5 -42.5z" />
    <glyph glyph-name="Egrave" unicode="&#xc8;" horiz-adv-x="1173" 
d="M600 1634l-164 238h70l147 -238h-53zM197 0v1454h858v-61h-793v-637h768v-62h-768v-633h809v-61h-874z" />
    <glyph glyph-name="Eacute" unicode="&#xc9;" horiz-adv-x="1173" 
d="M598 1618l147 237h70l-164 -237h-53zM197 0v1454h858v-61h-793v-637h768v-62h-768v-633h809v-61h-874z" />
    <glyph glyph-name="Ecircumflex" unicode="&#xca;" horiz-adv-x="1173" 
d="M426 1618l180 254h45l180 -254h-57l-145 203l-146 -203h-57zM197 0v1454h858v-61h-793v-637h768v-62h-768v-633h809v-61h-874z" />
    <glyph glyph-name="Edieresis" unicode="&#xcb;" horiz-adv-x="1173" 
d="M461 1655v143h69v-143h-69zM723 1655v143h70v-143h-70zM197 0v1454h858v-61h-793v-637h768v-62h-768v-633h809v-61h-874z" />
    <glyph glyph-name="Igrave" unicode="&#xcc;" horiz-adv-x="458" 
d="M203 1634l-164 238h70l147 -238h-53zM197 0v1454h65v-1454h-65z" />
    <glyph glyph-name="Iacute" unicode="&#xcd;" horiz-adv-x="458" 
d="M201 1618l147 237h70l-164 -237h-53zM197 0v1454h65v-1454h-65z" />
    <glyph glyph-name="Icircumflex" unicode="&#xce;" horiz-adv-x="458" 
d="M29 1618l180 254h45l180 -254h-57l-146 203l-145 -203h-57zM197 0v1454h65v-1454h-65z" />
    <glyph glyph-name="Idieresis" unicode="&#xcf;" horiz-adv-x="458" 
d="M63 1655v143h70v-143h-70zM326 1655v143h69v-143h-69zM197 0v1454h65v-1454h-65z" />
    <glyph glyph-name="Eth" unicode="&#xd0;" horiz-adv-x="1384" 
d="M197 0v696h-177v62h177v696h413q323 0 497.5 -189.5t174.5 -539.5q0 -349 -170.5 -537t-488.5 -188h-426zM262 61h348q290 0 446 172t156 492q0 321 -156 494.5t-446 173.5h-348v-635h537v-62h-537v-635z" />
    <glyph glyph-name="Ntilde" unicode="&#xd1;" horiz-adv-x="1456" 
d="M842 1659q-41 0 -70.5 15.5t-60.5 49.5q-27 30 -51.5 44t-59.5 14q-96 0 -102 -133h-54q6 85 48.5 133.5t107.5 48.5q46 0 79.5 -18.5t68.5 -55.5q49 -49 94 -49q41 0 62.5 33t27.5 108h53q-6 -90 -42.5 -140t-100.5 -50zM197 0v1454h96l901 -1393v1393h66v-1454h-97
l-901 1393v-1393h-65z" />
    <glyph glyph-name="Ograve" unicode="&#xd2;" horiz-adv-x="1462" 
d="M705 1634l-164 238h69l148 -238h-53zM731 -33q-291 0 -460 204.5t-169 553.5q0 352 169 557t460 205t460 -205t169 -557q0 -349 -169 -553.5t-460 -204.5zM731 33q259 0 409 186t150 506q0 322 -150 509t-409 187t-409 -187t-150 -509q0 -320 150 -506t409 -186z" />
    <glyph glyph-name="Oacute" unicode="&#xd3;" horiz-adv-x="1462" 
d="M702 1618l148 237h70l-164 -237h-54zM731 -33q-291 0 -460 204.5t-169 553.5q0 352 169 557t460 205t460 -205t169 -557q0 -349 -169 -553.5t-460 -204.5zM731 33q259 0 409 186t150 506q0 322 -150 509t-409 187t-409 -187t-150 -509q0 -320 150 -506t409 -186z" />
    <glyph glyph-name="Ocircumflex" unicode="&#xd4;" horiz-adv-x="1462" 
d="M530 1618l181 254h45l180 -254h-57l-146 203l-145 -203h-58zM731 -33q-291 0 -460 204.5t-169 553.5q0 352 169 557t460 205t460 -205t169 -557q0 -349 -169 -553.5t-460 -204.5zM731 33q259 0 409 186t150 506q0 322 -150 509t-409 187t-409 -187t-150 -509
q0 -320 150 -506t409 -186z" />
    <glyph glyph-name="Otilde" unicode="&#xd5;" horiz-adv-x="1462" 
d="M844 1659q-41 0 -70.5 15.5t-60.5 49.5q-27 30 -51.5 44t-59.5 14q-96 0 -102 -133h-54q6 85 48.5 133.5t107.5 48.5q46 0 79.5 -18.5t68.5 -55.5q49 -49 94 -49q41 0 62.5 33t27.5 108h53q-6 -90 -42.5 -140t-100.5 -50zM731 -33q-291 0 -460 204.5t-169 553.5
q0 352 169 557t460 205t460 -205t169 -557q0 -349 -169 -553.5t-460 -204.5zM731 33q259 0 409 186t150 506q0 322 -150 509t-409 187t-409 -187t-150 -509q0 -320 150 -506t409 -186z" />
    <glyph glyph-name="Odieresis" unicode="&#xd6;" horiz-adv-x="1462" 
d="M565 1655v143h70v-143h-70zM827 1655v143h70v-143h-70zM731 -33q-291 0 -460 204.5t-169 553.5q0 352 169 557t460 205t460 -205t169 -557q0 -349 -169 -553.5t-460 -204.5zM731 33q259 0 409 186t150 506q0 322 -150 509t-409 187t-409 -187t-150 -509q0 -320 150 -506
t409 -186z" />
    <glyph glyph-name="multiply" unicode="&#xd7;" horiz-adv-x="925" 
d="M82 244l340 340l-340 340l41 41l340 -340l340 340l41 -41l-340 -340l340 -340l-41 -41l-340 340l-340 -340z" />
    <glyph glyph-name="Oslash" unicode="&#xd8;" horiz-adv-x="1462" 
d="M164 -33l127 183q-189 205 -189 575q0 352 169 557t460 205q240 0 399 -141l99 141h69l-127 -182q189 -205 189 -580q0 -349 -169 -553.5t-460 -204.5q-238 0 -399 142l-99 -142h-69zM172 725q0 -328 160 -518l758 1081q-142 133 -359 133q-259 0 -409 -187t-150 -509z
M731 33q259 0 409 186t150 506q0 332 -160 522l-757 -1081q142 -133 358 -133z" />
    <glyph glyph-name="Ugrave" unicode="&#xd9;" horiz-adv-x="1355" 
d="M651 1634l-164 238h70l148 -238h-54zM678 -33q-246 0 -379 140.5t-133 400.5v948h65v-948q0 -229 116 -352t331 -123t330.5 123t115.5 352v948h66v-948q0 -260 -133 -400.5t-379 -140.5z" />
    <glyph glyph-name="Uacute" unicode="&#xda;" horiz-adv-x="1355" 
d="M649 1618l148 237h69l-164 -237h-53zM678 -33q-246 0 -379 140.5t-133 400.5v948h65v-948q0 -229 116 -352t331 -123t330.5 123t115.5 352v948h66v-948q0 -260 -133 -400.5t-379 -140.5z" />
    <glyph glyph-name="Ucircumflex" unicode="&#xdb;" horiz-adv-x="1355" 
d="M477 1618l180 254h45l181 -254h-58l-145 203l-145 -203h-58zM678 -33q-246 0 -379 140.5t-133 400.5v948h65v-948q0 -229 116 -352t331 -123t330.5 123t115.5 352v948h66v-948q0 -260 -133 -400.5t-379 -140.5z" />
    <glyph glyph-name="Udieresis" unicode="&#xdc;" horiz-adv-x="1355" 
d="M512 1655v143h70v-143h-70zM774 1655v143h70v-143h-70zM678 -33q-246 0 -379 140.5t-133 400.5v948h65v-948q0 -229 116 -352t331 -123t330.5 123t115.5 352v948h66v-948q0 -260 -133 -400.5t-379 -140.5z" />
    <glyph glyph-name="Yacute" unicode="&#xdd;" horiz-adv-x="1107" 
d="M526 1618l148 237h69l-163 -237h-54zM522 0v594l-526 860h78l481 -799l479 799h78l-524 -860v-594h-66z" />
    <glyph glyph-name="Thorn" unicode="&#xde;" horiz-adv-x="1204" 
d="M197 0v1454h65v-289h338q244 0 378 -112t134 -308q0 -198 -133 -303.5t-379 -105.5h-338v-336h-65zM600 1104h-338v-707h338q442 0 442 348q0 180 -115.5 269.5t-326.5 89.5z" />
    <glyph glyph-name="germandbls" unicode="&#xdf;" horiz-adv-x="1150" 
d="M174 0v1028q0 203 109.5 325t294.5 122q179 0 287 -100t108 -267q0 -126 -71.5 -215.5t-194.5 -122.5q166 -34 259 -134.5t93 -246.5q0 -191 -119.5 -290t-335.5 -99h-172v57h172q188 0 288.5 85.5t100.5 246.5q0 157 -123 252.5t-317 95.5h-100v58h100q161 0 257.5 84.5
t96.5 228.5q0 138 -90.5 221.5t-238.5 83.5q-155 0 -248.5 -106.5t-93.5 -278.5v-1028h-62z" />
    <glyph glyph-name="agrave" unicode="&#xe0;" horiz-adv-x="1103" 
d="M514 1266l-164 237h70l147 -237h-53zM451 -25q-157 0 -253 79.5t-96 211.5q0 118 89 194t241 105l436 82q0 210 -79.5 306t-247.5 96q-150 0 -240 -75t-113 -216l-67 6q28 167 136 256.5t284 89.5q190 0 289.5 -110.5t99.5 -331.5v-463q0 -84 23.5 -114t78.5 -30h12v-61
q-12 -2 -30 -2q-72 0 -109 46.5t-41 176.5q-48 -105 -159 -175.5t-254 -70.5zM455 37q178 0 295.5 109t117.5 272v170l-417 -80q-283 -54 -283 -238q0 -114 74 -173.5t213 -59.5z" />
    <glyph glyph-name="aacute" unicode="&#xe1;" horiz-adv-x="1103" 
d="M512 1249l147 238h70l-164 -238h-53zM451 -25q-157 0 -253 79.5t-96 211.5q0 118 89 194t241 105l436 82q0 210 -79.5 306t-247.5 96q-150 0 -240 -75t-113 -216l-67 6q28 167 136 256.5t284 89.5q190 0 289.5 -110.5t99.5 -331.5v-463q0 -84 23.5 -114t78.5 -30h12v-61
q-12 -2 -30 -2q-72 0 -109 46.5t-41 176.5q-48 -105 -159 -175.5t-254 -70.5zM455 37q178 0 295.5 109t117.5 272v170l-417 -80q-283 -54 -283 -238q0 -114 74 -173.5t213 -59.5z" />
    <glyph glyph-name="acircumflex" unicode="&#xe2;" horiz-adv-x="1103" 
d="M340 1249l180 254h45l180 -254h-57l-145 203l-146 -203h-57zM451 -25q-157 0 -253 79.5t-96 211.5q0 118 89 194t241 105l436 82q0 210 -79.5 306t-247.5 96q-150 0 -240 -75t-113 -216l-67 6q28 167 136 256.5t284 89.5q190 0 289.5 -110.5t99.5 -331.5v-463
q0 -84 23.5 -114t78.5 -30h12v-61q-12 -2 -30 -2q-72 0 -109 46.5t-41 176.5q-48 -105 -159 -175.5t-254 -70.5zM455 37q178 0 295.5 109t117.5 272v170l-417 -80q-283 -54 -283 -238q0 -114 74 -173.5t213 -59.5z" />
    <glyph glyph-name="atilde" unicode="&#xe3;" horiz-adv-x="1103" 
d="M653 1290q-41 0 -70.5 16t-60.5 50q-27 30 -51 43.5t-59 13.5q-97 0 -103 -133h-53q6 85 48.5 133.5t107.5 48.5q46 0 79 -18.5t68 -54.5q50 -50 94 -50q40 0 62 33.5t28 108.5h54q-6 -90 -43 -140.5t-101 -50.5zM451 -25q-157 0 -253 79.5t-96 211.5q0 118 89 194
t241 105l436 82q0 210 -79.5 306t-247.5 96q-150 0 -240 -75t-113 -216l-67 6q28 167 136 256.5t284 89.5q190 0 289.5 -110.5t99.5 -331.5v-463q0 -84 23.5 -114t78.5 -30h12v-61q-12 -2 -30 -2q-72 0 -109 46.5t-41 176.5q-48 -105 -159 -175.5t-254 -70.5zM455 37
q178 0 295.5 109t117.5 272v170l-417 -80q-283 -54 -283 -238q0 -114 74 -173.5t213 -59.5z" />
    <glyph glyph-name="adieresis" unicode="&#xe4;" horiz-adv-x="1103" 
d="M375 1286v144h69v-144h-69zM637 1286v144h70v-144h-70zM451 -25q-157 0 -253 79.5t-96 211.5q0 118 89 194t241 105l436 82q0 210 -79.5 306t-247.5 96q-150 0 -240 -75t-113 -216l-67 6q28 167 136 256.5t284 89.5q190 0 289.5 -110.5t99.5 -331.5v-463q0 -84 23.5 -114
t78.5 -30h12v-61q-12 -2 -30 -2q-72 0 -109 46.5t-41 176.5q-48 -105 -159 -175.5t-254 -70.5zM455 37q178 0 295.5 109t117.5 272v170l-417 -80q-283 -54 -283 -238q0 -114 74 -173.5t213 -59.5z" />
    <glyph glyph-name="aring" unicode="&#xe5;" horiz-adv-x="1103" 
d="M541 1212q-65 0 -106.5 41t-41.5 105q0 63 42 104t106 41q63 0 104 -41t41 -104t-40.5 -104.5t-104.5 -41.5zM541 1264q43 0 67.5 25.5t24.5 68.5t-24.5 67.5t-67.5 24.5t-69 -25t-26 -67q0 -43 26 -68.5t69 -25.5zM451 -25q-157 0 -253 79.5t-96 211.5q0 118 89 194
t241 105l436 82q0 210 -79.5 306t-247.5 96q-150 0 -240 -75t-113 -216l-67 6q28 167 136 256.5t284 89.5q190 0 289.5 -110.5t99.5 -331.5v-463q0 -84 23.5 -114t78.5 -30h12v-61q-12 -2 -30 -2q-72 0 -109 46.5t-41 176.5q-48 -105 -159 -175.5t-254 -70.5zM455 37
q178 0 295.5 109t117.5 272v170l-417 -80q-283 -54 -283 -238q0 -114 74 -173.5t213 -59.5z" />
    <glyph glyph-name="ae" unicode="&#xe6;" horiz-adv-x="1896" 
d="M457 -25q-164 0 -259.5 79.5t-95.5 213.5q0 118 89 195t241 94l436 49q0 234 -80.5 338.5t-238.5 104.5q-154 0 -248 -76.5t-113 -214.5l-67 6q23 159 133 252.5t278 93.5q324 0 386 -299q53 138 159 218.5t258 80.5q91 0 167 -29t129.5 -80.5t90.5 -121.5t54.5 -151
t17.5 -171v-25h-856q3 -229 113 -362t292 -133q141 0 233.5 69.5t127.5 190.5l68 -4q-41 -143 -154.5 -230.5t-274.5 -87.5q-167 0 -279.5 93t-160.5 249q-31 -159 -156.5 -250.5t-289.5 -91.5zM938 590h788q-6 213 -107.5 336t-283.5 123q-172 0 -279.5 -123t-117.5 -336z
M455 37q185 0 299 111.5t114 271.5v127l-417 -47q-136 -15 -209.5 -74.5t-73.5 -157.5q0 -115 77.5 -173t209.5 -58z" />
    <glyph glyph-name="ccedilla" unicode="&#xe7;" horiz-adv-x="1087" 
d="M547 -418q-76 0 -127 32t-70 91l49 21q27 -91 144 -91q139 0 139 111q0 55 -40.5 81t-135.5 26l-29 36l45 88q-136 11 -232.5 91.5t-142 202.5t-45.5 272q0 117 29.5 218.5t85.5 180t145 123.5t201 45q175 0 284 -99t152 -263l-65 -5q-78 306 -371 306
q-182 0 -288.5 -136.5t-106.5 -369.5t106.5 -369.5t288.5 -136.5q150 0 248 86.5t129 241.5l66 -7q-37 -170 -146.5 -274.5t-281.5 -108.5l-39 -73q200 -6 200 -160q0 -75 -52 -117.5t-140 -42.5z" />
    <glyph glyph-name="egrave" unicode="&#xe8;" 
d="M537 1266l-164 237h69l148 -237h-53zM573 -25q-113 0 -204 45.5t-148.5 124t-88 180t-30.5 218.5q0 93 18.5 177t56.5 155.5t92 123.5t130 81.5t166 29.5q91 0 167 -29t129.5 -80.5t90.5 -121.5t54.5 -151t17.5 -171v-25h-856q3 -229 113 -362t292 -133q141 0 233.5 69.5
t127.5 190.5l67 -4q-41 -143 -154 -230.5t-274 -87.5zM168 590h788q-6 213 -107.5 336t-283.5 123q-172 0 -279.5 -123t-117.5 -336z" />
    <glyph glyph-name="eacute" unicode="&#xe9;" 
d="M535 1249l147 238h70l-164 -238h-53zM573 -25q-113 0 -204 45.5t-148.5 124t-88 180t-30.5 218.5q0 93 18.5 177t56.5 155.5t92 123.5t130 81.5t166 29.5q91 0 167 -29t129.5 -80.5t90.5 -121.5t54.5 -151t17.5 -171v-25h-856q3 -229 113 -362t292 -133q141 0 233.5 69.5
t127.5 190.5l67 -4q-41 -143 -154 -230.5t-274 -87.5zM168 590h788q-6 213 -107.5 336t-283.5 123q-172 0 -279.5 -123t-117.5 -336z" />
    <glyph glyph-name="ecircumflex" unicode="&#xea;" 
d="M362 1249l181 254h45l180 -254h-57l-146 203l-145 -203h-58zM573 -25q-113 0 -204 45.5t-148.5 124t-88 180t-30.5 218.5q0 93 18.5 177t56.5 155.5t92 123.5t130 81.5t166 29.5q91 0 167 -29t129.5 -80.5t90.5 -121.5t54.5 -151t17.5 -171v-25h-856q3 -229 113 -362
t292 -133q141 0 233.5 69.5t127.5 190.5l67 -4q-41 -143 -154 -230.5t-274 -87.5zM168 590h788q-6 213 -107.5 336t-283.5 123q-172 0 -279.5 -123t-117.5 -336z" />
    <glyph glyph-name="edieresis" unicode="&#xeb;" 
d="M397 1286v144h70v-144h-70zM659 1286v144h70v-144h-70zM573 -25q-113 0 -204 45.5t-148.5 124t-88 180t-30.5 218.5q0 93 18.5 177t56.5 155.5t92 123.5t130 81.5t166 29.5q91 0 167 -29t129.5 -80.5t90.5 -121.5t54.5 -151t17.5 -171v-25h-856q3 -229 113 -362t292 -133
q141 0 233.5 69.5t127.5 190.5l67 -4q-41 -143 -154 -230.5t-274 -87.5zM168 590h788q-6 213 -107.5 336t-283.5 123q-172 0 -279.5 -123t-117.5 -336z" />
    <glyph glyph-name="igrave" unicode="&#xec;" horiz-adv-x="409" 
d="M178 1266l-164 237h70l147 -237h-53zM174 0v1085h62v-1085h-62z" />
    <glyph glyph-name="iacute" unicode="&#xed;" horiz-adv-x="409" 
d="M176 1249l148 238h69l-164 -238h-53zM174 0v1085h62v-1085h-62z" />
    <glyph glyph-name="icircumflex" unicode="&#xee;" horiz-adv-x="409" 
d="M4 1249l180 254h45l181 -254h-58l-145 203l-146 -203h-57zM174 0v1085h62v-1085h-62z" />
    <glyph glyph-name="idieresis" unicode="&#xef;" horiz-adv-x="409" 
d="M39 1286v144h70v-144h-70zM301 1286v144h70v-144h-70zM174 0v1085h62v-1085h-62z" />
    <glyph glyph-name="eth" unicode="&#xf0;" 
d="M563 -25q-209 0 -335 141.5t-126 385.5t126 385t335 141q122 0 220 -54.5t159 -150.5q-51 275 -215 418l-252 -90l-20 57l217 78q-139 95 -348 135l20 58q242 -55 391 -170l330 118l20 -57l-297 -106q126 -120 181 -302t55 -440q0 -257 -125.5 -402t-335.5 -145zM563 37
q185 0 290 127t105 358q0 203 -106.5 324t-288.5 121q-184 0 -289.5 -123.5t-105.5 -341.5t105.5 -341.5t289.5 -123.5z" />
    <glyph glyph-name="ntilde" unicode="&#xf1;" horiz-adv-x="1138" 
d="M682 1290q-41 0 -70.5 16t-60.5 50q-27 30 -51.5 43.5t-59.5 13.5q-96 0 -102 -133h-53q6 85 48 133.5t107 48.5q46 0 79.5 -18.5t68.5 -54.5q50 -50 94 -50q40 0 62 33.5t28 108.5h53q-6 -91 -42.5 -141t-100.5 -50zM174 0v1085h57l5 -241q30 128 131.5 197t238.5 69
q176 0 267.5 -115t91.5 -297v-698h-62v649q0 186 -74 293t-235 107q-166 0 -262 -111t-96 -289v-649h-62z" />
    <glyph glyph-name="ograve" unicode="&#xf2;" 
d="M537 1266l-164 237h69l148 -237h-53zM563 -25q-212 0 -336.5 153.5t-124.5 414.5t124.5 414t336.5 153t336.5 -153t124.5 -414t-124.5 -414.5t-336.5 -153.5zM563 37q183 0 289 136t106 370t-106 370t-289 136t-289 -136t-106 -370t106 -370t289 -136z" />
    <glyph glyph-name="oacute" unicode="&#xf3;" 
d="M535 1249l147 238h70l-164 -238h-53zM563 -25q-212 0 -336.5 153.5t-124.5 414.5t124.5 414t336.5 153t336.5 -153t124.5 -414t-124.5 -414.5t-336.5 -153.5zM563 37q183 0 289 136t106 370t-106 370t-289 136t-289 -136t-106 -370t106 -370t289 -136z" />
    <glyph glyph-name="ocircumflex" unicode="&#xf4;" 
d="M362 1249l181 254h45l180 -254h-57l-146 203l-145 -203h-58zM563 -25q-212 0 -336.5 153.5t-124.5 414.5t124.5 414t336.5 153t336.5 -153t124.5 -414t-124.5 -414.5t-336.5 -153.5zM563 37q183 0 289 136t106 370t-106 370t-289 136t-289 -136t-106 -370t106 -370
t289 -136z" />
    <glyph glyph-name="otilde" unicode="&#xf5;" 
d="M676 1290q-41 0 -70.5 16t-60.5 50q-27 30 -51.5 43.5t-59.5 13.5q-96 0 -102 -133h-53q6 85 48 133.5t107 48.5q46 0 79.5 -18.5t68.5 -54.5q50 -50 94 -50q40 0 62 33.5t28 108.5h53q-6 -91 -42.5 -141t-100.5 -50zM563 -25q-212 0 -336.5 153.5t-124.5 414.5
t124.5 414t336.5 153t336.5 -153t124.5 -414t-124.5 -414.5t-336.5 -153.5zM563 37q183 0 289 136t106 370t-106 370t-289 136t-289 -136t-106 -370t106 -370t289 -136z" />
    <glyph glyph-name="odieresis" unicode="&#xf6;" 
d="M397 1286v144h70v-144h-70zM659 1286v144h70v-144h-70zM563 -25q-212 0 -336.5 153.5t-124.5 414.5t124.5 414t336.5 153t336.5 -153t124.5 -414t-124.5 -414.5t-336.5 -153.5zM563 37q183 0 289 136t106 370t-106 370t-289 136t-289 -136t-106 -370t106 -370t289 -136z
" />
    <glyph glyph-name="divide" unicode="&#xf7;" horiz-adv-x="1064" 
d="M532 840q-30 0 -49.5 19.5t-19.5 49.5q0 31 19 50.5t50 19.5t50.5 -19.5t19.5 -50.5q0 -29 -20 -49t-50 -20zM82 532v62h901v-62h-901zM532 139q-30 0 -49.5 20t-19.5 50q0 31 19 50.5t50 19.5t50.5 -19.5t19.5 -50.5q0 -30 -20 -50t-50 -20z" />
    <glyph glyph-name="oslash" unicode="&#xf8;" 
d="M164 -29l86 131q-148 154 -148 441q0 261 124.5 414t336.5 153q165 0 279 -94l63 98h58l-86 -131q147 -153 147 -440q0 -261 -124.5 -414.5t-336.5 -153.5q-163 0 -278 95l-64 -99h-57zM168 543q0 -244 117 -383l522 801q-102 88 -244 88q-183 0 -289 -136t-106 -370z
M563 37q183 0 289 136t106 370q0 245 -116 383l-523 -801q102 -88 244 -88z" />
    <glyph glyph-name="ugrave" unicode="&#xf9;" horiz-adv-x="1138" 
d="M543 1266l-164 237h70l147 -237h-53zM530 -25q-164 0 -260 110t-96 302v698h62v-671q0 -185 80 -281t231 -96q163 0 259.5 108t96.5 291v649h62v-1085h-54l-4 244q-31 -128 -129.5 -198.5t-247.5 -70.5z" />
    <glyph glyph-name="uacute" unicode="&#xfa;" horiz-adv-x="1138" 
d="M541 1249l147 238h70l-164 -238h-53zM530 -25q-164 0 -260 110t-96 302v698h62v-671q0 -185 80 -281t231 -96q163 0 259.5 108t96.5 291v649h62v-1085h-54l-4 244q-31 -128 -129.5 -198.5t-247.5 -70.5z" />
    <glyph glyph-name="ucircumflex" unicode="&#xfb;" horiz-adv-x="1138" 
d="M369 1249l180 254h45l180 -254h-57l-146 203l-145 -203h-57zM530 -25q-164 0 -260 110t-96 302v698h62v-671q0 -185 80 -281t231 -96q163 0 259.5 108t96.5 291v649h62v-1085h-54l-4 244q-31 -128 -129.5 -198.5t-247.5 -70.5z" />
    <glyph glyph-name="udieresis" unicode="&#xfc;" horiz-adv-x="1138" 
d="M403 1286v144h70v-144h-70zM666 1286v144h69v-144h-69zM530 -25q-164 0 -260 110t-96 302v698h62v-671q0 -185 80 -281t231 -96q163 0 259.5 108t96.5 291v649h62v-1085h-54l-4 244q-31 -128 -129.5 -198.5t-247.5 -70.5z" />
    <glyph glyph-name="yacute" unicode="&#xfd;" horiz-adv-x="1017" 
d="M496 1249l147 238h70l-164 -238h-53zM180 -307v57h82q87 0 128.5 30t72.5 114l47 126h-33l-428 1065h66l407 -1024l381 1024h66l-457 -1216q-37 -98 -91.5 -137t-158.5 -39h-82z" />
    <glyph glyph-name="thorn" unicode="&#xfe;" horiz-adv-x="1171" 
d="M174 -307v1761h66v-620q44 120 148 195t226 75q209 0 332 -151.5t123 -409.5q0 -261 -123 -414.5t-332 -153.5q-117 0 -216 69t-158 189v-540h-66zM623 35q178 0 282.5 137t104.5 371q0 230 -104 364.5t-283 134.5q-161 0 -272 -144t-111 -355q0 -214 111 -361t272 -147z
" />
    <glyph glyph-name="ydieresis" unicode="&#xff;" horiz-adv-x="1017" 
d="M358 1286v144h70v-144h-70zM621 1286v144h69v-144h-69zM180 -307v57h82q87 0 128.5 30t72.5 114l47 126h-33l-428 1065h66l407 -1024l381 1024h66l-457 -1216q-37 -98 -91.5 -137t-158.5 -39h-82z" />
    <glyph glyph-name="Amacron" unicode="&#x100;" horiz-adv-x="1253" 
d="M373 1688v57h508v-57h-508zM49 0l539 1454h78l538 -1454h-67l-176 481h-668l-176 -481h-68zM315 543h623l-311 846z" />
    <glyph glyph-name="amacron" unicode="&#x101;" horiz-adv-x="1103" 
d="M287 1319v57h508v-57h-508zM451 -25q-157 0 -253 79.5t-96 211.5q0 118 89 194t241 105l436 82q0 210 -79.5 306t-247.5 96q-150 0 -240 -75t-113 -216l-67 6q28 167 136 256.5t284 89.5q190 0 289.5 -110.5t99.5 -331.5v-463q0 -84 23.5 -114t78.5 -30h12v-61
q-12 -2 -30 -2q-72 0 -109 46.5t-41 176.5q-48 -105 -159 -175.5t-254 -70.5zM455 37q178 0 295.5 109t117.5 272v170l-417 -80q-283 -54 -283 -238q0 -114 74 -173.5t213 -59.5z" />
    <glyph glyph-name="Abreve" unicode="&#x102;" horiz-adv-x="1253" 
d="M627 1634q-105 0 -172 64.5t-82 173.5h53q12 -87 65.5 -133.5t135.5 -46.5q81 0 134.5 46.5t65.5 133.5h54q-15 -109 -82 -173.5t-172 -64.5zM49 0l539 1454h78l538 -1454h-67l-176 481h-668l-176 -481h-68zM315 543h623l-311 846z" />
    <glyph glyph-name="abreve" unicode="&#x103;" horiz-adv-x="1103" 
d="M541 1266q-106 0 -172.5 64t-81.5 173h53q12 -87 65.5 -133.5t135.5 -46.5q81 0 134.5 46.5t65.5 133.5h54q-15 -109 -81.5 -173t-172.5 -64zM451 -25q-157 0 -253 79.5t-96 211.5q0 118 89 194t241 105l436 82q0 210 -79.5 306t-247.5 96q-150 0 -240 -75t-113 -216
l-67 6q28 167 136 256.5t284 89.5q190 0 289.5 -110.5t99.5 -331.5v-463q0 -84 23.5 -114t78.5 -30h12v-61q-12 -2 -30 -2q-72 0 -109 46.5t-41 176.5q-48 -105 -159 -175.5t-254 -70.5zM455 37q178 0 295.5 109t117.5 272v170l-417 -80q-283 -54 -283 -238
q0 -114 74 -173.5t213 -59.5z" />
    <glyph glyph-name="Aogonek" unicode="&#x104;" horiz-adv-x="1253" 
d="M49 0l539 1454h78l538 -1454l-53 -82q-70 -104 -70 -184q0 -74 82 -74q58 0 101 31l28 -45q-58 -39 -129 -39q-64 0 -103.5 29.5t-39.5 93.5q0 45 24.5 93.5t73.5 123.5l35 53h-16l-176 481h-668l-176 -481h-68zM315 543h623l-311 846z" />
    <glyph glyph-name="aogonek" unicode="&#x105;" horiz-adv-x="1103" 
d="M451 -25q-157 0 -253 79.5t-96 211.5q0 118 89 194t241 105l436 82q0 210 -79.5 306t-247.5 96q-150 0 -240 -75t-113 -216l-67 6q28 167 136 256.5t284 89.5q190 0 289.5 -110.5t99.5 -331.5v-463q0 -84 23.5 -114t78.5 -30h12v-61l-53 -82q-69 -103 -69 -184
q0 -74 82 -74q57 0 100 31l29 -45q-58 -39 -129 -39q-64 0 -104 30t-40 93q0 45 24.5 93.5t73.5 123.5l35 51q-62 6 -93.5 54.5t-35.5 168.5q-48 -105 -159 -175.5t-254 -70.5zM455 37q178 0 295.5 109t117.5 272v170l-417 -80q-283 -54 -283 -238q0 -114 74 -173.5
t213 -59.5z" />
    <glyph glyph-name="Cacute" unicode="&#x106;" horiz-adv-x="1384" 
d="M684 1618l147 237h70l-164 -237h-53zM713 -33q-281 0 -446 203t-165 555t165 557t446 205q231 0 377 -135.5t190 -368.5l-70 -6q-34 207 -163 325.5t-334 118.5q-249 0 -395 -187t-146 -509t145.5 -507t395.5 -185q217 0 349.5 125.5t160.5 351.5l69 -6
q-37 -252 -188 -394.5t-391 -142.5z" />
    <glyph glyph-name="cacute" unicode="&#x107;" horiz-adv-x="1087" 
d="M535 1249l147 238h70l-164 -238h-53zM563 -25q-148 0 -254.5 79t-156.5 205.5t-50 283.5q0 117 29.5 218.5t85.5 180t145 123.5t201 45q175 0 284 -99t152 -263l-65 -5q-78 306 -371 306q-182 0 -288.5 -136.5t-106.5 -369.5t106.5 -369.5t288.5 -136.5q150 0 248 86.5
t129 241.5l66 -7q-39 -174 -152 -278.5t-291 -104.5z" />
    <glyph glyph-name="Ccircumflex" unicode="&#x108;" horiz-adv-x="1384" 
d="M512 1618l180 254h45l181 -254h-58l-145 203l-146 -203h-57zM713 -33q-281 0 -446 203t-165 555t165 557t446 205q231 0 377 -135.5t190 -368.5l-70 -6q-34 207 -163 325.5t-334 118.5q-249 0 -395 -187t-146 -509t145.5 -507t395.5 -185q217 0 349.5 125.5t160.5 351.5
l69 -6q-37 -252 -188 -394.5t-391 -142.5z" />
    <glyph glyph-name="ccircumflex" unicode="&#x109;" horiz-adv-x="1087" 
d="M362 1249l181 254h45l180 -254h-57l-146 203l-145 -203h-58zM563 -25q-148 0 -254.5 79t-156.5 205.5t-50 283.5q0 117 29.5 218.5t85.5 180t145 123.5t201 45q175 0 284 -99t152 -263l-65 -5q-78 306 -371 306q-182 0 -288.5 -136.5t-106.5 -369.5t106.5 -369.5
t288.5 -136.5q150 0 248 86.5t129 241.5l66 -7q-39 -174 -152 -278.5t-291 -104.5z" />
    <glyph glyph-name="Cdotaccent" unicode="&#x10a;" horiz-adv-x="1384" 
d="M678 1655v143h70v-143h-70zM713 -33q-281 0 -446 203t-165 555t165 557t446 205q231 0 377 -135.5t190 -368.5l-70 -6q-34 207 -163 325.5t-334 118.5q-249 0 -395 -187t-146 -509t145.5 -507t395.5 -185q217 0 349.5 125.5t160.5 351.5l69 -6q-37 -252 -188 -394.5
t-391 -142.5z" />
    <glyph glyph-name="cdotaccent" unicode="&#x10b;" horiz-adv-x="1087" 
d="M528 1286v144h70v-144h-70zM563 -25q-148 0 -254.5 79t-156.5 205.5t-50 283.5q0 117 29.5 218.5t85.5 180t145 123.5t201 45q175 0 284 -99t152 -263l-65 -5q-78 306 -371 306q-182 0 -288.5 -136.5t-106.5 -369.5t106.5 -369.5t288.5 -136.5q150 0 248 86.5t129 241.5
l66 -7q-39 -174 -152 -278.5t-291 -104.5z" />
    <glyph glyph-name="Ccaron" unicode="&#x10c;" horiz-adv-x="1384" 
d="M510 1872h57l146 -203l145 203h57l-180 -254h-45zM713 -33q-281 0 -446 203t-165 555t165 557t446 205q231 0 377 -135.5t190 -368.5l-70 -6q-34 207 -163 325.5t-334 118.5q-249 0 -395 -187t-146 -509t145.5 -507t395.5 -185q217 0 349.5 125.5t160.5 351.5l69 -6
q-37 -252 -188 -394.5t-391 -142.5z" />
    <glyph glyph-name="ccaron" unicode="&#x10d;" horiz-adv-x="1087" 
d="M360 1503h58l145 -203l146 203h57l-180 -254h-45zM563 -25q-148 0 -254.5 79t-156.5 205.5t-50 283.5q0 117 29.5 218.5t85.5 180t145 123.5t201 45q175 0 284 -99t152 -263l-65 -5q-78 306 -371 306q-182 0 -288.5 -136.5t-106.5 -369.5t106.5 -369.5t288.5 -136.5
q150 0 248 86.5t129 241.5l66 -7q-39 -174 -152 -278.5t-291 -104.5z" />
    <glyph glyph-name="Dcaron" unicode="&#x10e;" horiz-adv-x="1384" 
d="M451 1872h57l145 -203l146 203h57l-180 -254h-45zM197 0v1454h413q323 0 497.5 -189.5t174.5 -539.5q0 -349 -170.5 -537t-488.5 -188h-426zM262 61h348q290 0 446 172t156 492q0 321 -156 494.5t-446 173.5h-348v-1332z" />
    <glyph glyph-name="dcaron" unicode="&#x10f;" horiz-adv-x="1271" 
d="M555 -25q-211 0 -332 153t-121 415t121 414.5t332 152.5q136 0 237.5 -81t139.5 -210v635h61v-1454h-45l-6 283q-45 -142 -152 -225t-235 -83zM1137 1028l69 426h66l-82 -426h-53zM555 37q171 0 274 140t103 366q0 141 -46 256t-132.5 182.5t-198.5 67.5
q-178 0 -282.5 -137.5t-104.5 -368.5t104.5 -368.5t282.5 -137.5z" />
    <glyph glyph-name="Dcroat" unicode="&#x110;" horiz-adv-x="1384" 
d="M197 0v696h-177v62h177v696h413q323 0 497.5 -189.5t174.5 -539.5q0 -349 -170.5 -537t-488.5 -188h-426zM262 61h348q290 0 446 172t156 492q0 321 -156 494.5t-446 173.5h-348v-635h537v-62h-537v-635z" />
    <glyph glyph-name="dcroat" unicode="&#x111;" horiz-adv-x="1167" 
d="M555 -25q-211 0 -332 153t-121 415t121 414.5t332 152.5q136 0 237.5 -81t139.5 -210v420h-316v53h316v162h61v-162h156v-53h-156v-1239h-45l-6 283q-45 -142 -152 -225t-235 -83zM555 37q171 0 274 140t103 366q0 141 -46 256t-132.5 182.5t-198.5 67.5
q-178 0 -282.5 -137.5t-104.5 -368.5t104.5 -368.5t282.5 -137.5z" />
    <glyph glyph-name="Emacron" unicode="&#x112;" horiz-adv-x="1173" 
d="M373 1688v57h508v-57h-508zM197 0v1454h858v-61h-793v-637h768v-62h-768v-633h809v-61h-874z" />
    <glyph glyph-name="emacron" unicode="&#x113;" 
d="M309 1319v57h508v-57h-508zM573 -25q-113 0 -204 45.5t-148.5 124t-88 180t-30.5 218.5q0 93 18.5 177t56.5 155.5t92 123.5t130 81.5t166 29.5q91 0 167 -29t129.5 -80.5t90.5 -121.5t54.5 -151t17.5 -171v-25h-856q3 -229 113 -362t292 -133q141 0 233.5 69.5
t127.5 190.5l67 -4q-41 -143 -154 -230.5t-274 -87.5zM168 590h788q-6 213 -107.5 336t-283.5 123q-172 0 -279.5 -123t-117.5 -336z" />
    <glyph glyph-name="Edotaccent" unicode="&#x116;" horiz-adv-x="1173" 
d="M592 1655v143h70v-143h-70zM197 0v1454h858v-61h-793v-637h768v-62h-768v-633h809v-61h-874z" />
    <glyph glyph-name="edotaccent" unicode="&#x117;" 
d="M528 1286v144h70v-144h-70zM573 -25q-113 0 -204 45.5t-148.5 124t-88 180t-30.5 218.5q0 93 18.5 177t56.5 155.5t92 123.5t130 81.5t166 29.5q91 0 167 -29t129.5 -80.5t90.5 -121.5t54.5 -151t17.5 -171v-25h-856q3 -229 113 -362t292 -133q141 0 233.5 69.5
t127.5 190.5l67 -4q-41 -143 -154 -230.5t-274 -87.5zM168 590h788q-6 213 -107.5 336t-283.5 123q-172 0 -279.5 -123t-117.5 -336z" />
    <glyph glyph-name="Eogonek" unicode="&#x118;" horiz-adv-x="1173" 
d="M197 0v1454h858v-61h-793v-637h768v-62h-768v-633h809v-61l-53 -82q-70 -104 -70 -184q0 -74 82 -74q57 0 100 31l29 -45q-58 -39 -129 -39q-64 0 -103.5 29.5t-39.5 93.5q0 45 24.5 93.5t73.5 123.5l35 53h-823z" />
    <glyph glyph-name="eogonek" unicode="&#x119;" 
d="M573 -25q-113 0 -204 45.5t-148.5 124t-88 180t-30.5 218.5q0 93 18.5 177t56.5 155.5t92 123.5t130 81.5t166 29.5q91 0 167 -29t129.5 -80.5t90.5 -121.5t54.5 -151t17.5 -171v-25h-856q3 -229 113 -362t292 -133q141 0 233.5 69.5t127.5 190.5l67 -4q-25 -92 -83 -162
l-115 -147q-90 -115 -90 -222q0 -102 94 -102q53 0 96 31l29 -45q-58 -39 -129 -39q-68 0 -110 35t-42 112q0 113 107 246l14 16q-87 -41 -199 -41zM168 590h788q-6 213 -107.5 336t-283.5 123q-172 0 -279.5 -123t-117.5 -336z" />
    <glyph glyph-name="Ecaron" unicode="&#x11a;" horiz-adv-x="1173" 
d="M424 1872h57l146 -203l145 203h57l-180 -254h-45zM197 0v1454h858v-61h-793v-637h768v-62h-768v-633h809v-61h-874z" />
    <glyph glyph-name="ecaron" unicode="&#x11b;" 
d="M360 1503h58l145 -203l146 203h57l-180 -254h-45zM573 -25q-113 0 -204 45.5t-148.5 124t-88 180t-30.5 218.5q0 93 18.5 177t56.5 155.5t92 123.5t130 81.5t166 29.5q91 0 167 -29t129.5 -80.5t90.5 -121.5t54.5 -151t17.5 -171v-25h-856q3 -229 113 -362t292 -133
q141 0 233.5 69.5t127.5 190.5l67 -4q-41 -143 -154 -230.5t-274 -87.5zM168 590h788q-6 213 -107.5 336t-283.5 123q-172 0 -279.5 -123t-117.5 -336z" />
    <glyph glyph-name="Gcircumflex" unicode="&#x11c;" horiz-adv-x="1382" 
d="M520 1618l180 254h45l181 -254h-58l-145 203l-145 -203h-58zM709 -33q-278 0 -442.5 205t-164.5 553q0 355 162.5 558.5t456.5 203.5q214 0 357 -129t188 -373l-68 -8q-43 220 -164 332t-313 112q-261 0 -405 -186t-144 -510q0 -319 145.5 -505.5t391.5 -186.5
q221 0 348.5 151t146.5 434h-479v58h545v-676h-58l-6 358q-43 -174 -169 -282.5t-328 -108.5z" />
    <glyph glyph-name="gcircumflex" unicode="&#x11d;" horiz-adv-x="1167" 
d="M354 1249l181 254h45l180 -254h-58l-145 203l-145 -203h-58zM557 -332q-169 0 -282 90.5t-119 229.5l65 4q6 -118 96.5 -190t239.5 -72q177 0 276 101.5t99 285.5v209q-51 -127 -149 -201t-232 -74q-206 0 -327.5 143.5t-121.5 389.5q0 240 122 383t327 143
q136 0 236 -79.5t145 -207.5v262h61v-972q0 -207 -116.5 -326t-319.5 -119zM551 113q173 0 277 127.5t104 343.5q0 202 -105.5 333.5t-275.5 131.5q-175 0 -279 -126.5t-104 -338.5q0 -216 104 -343.5t279 -127.5z" />
    <glyph glyph-name="Gbreve" unicode="&#x11e;" horiz-adv-x="1382" 
d="M721 1634q-105 0 -172 64.5t-82 173.5h53q12 -87 65.5 -133.5t135.5 -46.5t135.5 46.5t65.5 133.5h53q-15 -109 -82 -173.5t-172 -64.5zM709 -33q-278 0 -442.5 205t-164.5 553q0 355 162.5 558.5t456.5 203.5q214 0 357 -129t188 -373l-68 -8q-43 220 -164 332t-313 112
q-261 0 -405 -186t-144 -510q0 -319 145.5 -505.5t391.5 -186.5q221 0 348.5 151t146.5 434h-479v58h545v-676h-58l-6 358q-43 -174 -169 -282.5t-328 -108.5z" />
    <glyph glyph-name="gbreve" unicode="&#x11f;" horiz-adv-x="1167" 
d="M555 1266q-106 0 -172.5 64t-81.5 173h53q12 -87 65.5 -133.5t135.5 -46.5t135.5 46.5t65.5 133.5h53q-15 -109 -81.5 -173t-172.5 -64zM557 -332q-169 0 -282 90.5t-119 229.5l65 4q6 -118 96.5 -190t239.5 -72q177 0 276 101.5t99 285.5v209q-51 -127 -149 -201
t-232 -74q-206 0 -327.5 143.5t-121.5 389.5q0 240 122 383t327 143q136 0 236 -79.5t145 -207.5v262h61v-972q0 -207 -116.5 -326t-319.5 -119zM551 113q173 0 277 127.5t104 343.5q0 202 -105.5 333.5t-275.5 131.5q-175 0 -279 -126.5t-104 -338.5q0 -216 104 -343.5
t279 -127.5z" />
    <glyph glyph-name="Gdotaccent" unicode="&#x120;" horiz-adv-x="1382" 
d="M686 1655v143h70v-143h-70zM709 -33q-278 0 -442.5 205t-164.5 553q0 355 162.5 558.5t456.5 203.5q214 0 357 -129t188 -373l-68 -8q-43 220 -164 332t-313 112q-261 0 -405 -186t-144 -510q0 -319 145.5 -505.5t391.5 -186.5q221 0 348.5 151t146.5 434h-479v58h545
v-676h-58l-6 358q-43 -174 -169 -282.5t-328 -108.5z" />
    <glyph glyph-name="gdotaccent" unicode="&#x121;" horiz-adv-x="1167" 
d="M520 1286v144h70v-144h-70zM557 -332q-169 0 -282 90.5t-119 229.5l65 4q6 -118 96.5 -190t239.5 -72q177 0 276 101.5t99 285.5v209q-51 -127 -149 -201t-232 -74q-206 0 -327.5 143.5t-121.5 389.5q0 240 122 383t327 143q136 0 236 -79.5t145 -207.5v262h61v-972
q0 -207 -116.5 -326t-319.5 -119zM551 113q173 0 277 127.5t104 343.5q0 202 -105.5 333.5t-275.5 131.5q-175 0 -279 -126.5t-104 -338.5q0 -216 104 -343.5t279 -127.5z" />
    <glyph glyph-name="uni0122" unicode="&#x122;" horiz-adv-x="1382" 
d="M709 -33q-278 0 -442.5 205t-164.5 553q0 355 162.5 558.5t456.5 203.5q214 0 357 -129t188 -373l-68 -8q-43 220 -164 332t-313 112q-261 0 -405 -186t-144 -510q0 -319 145.5 -505.5t391.5 -186.5q221 0 348.5 151t146.5 434h-479v58h545v-676h-58l-6 358
q-43 -174 -169 -282.5t-328 -108.5zM649 -346l74 153h-49v99h102v-88l-82 -164h-45z" />
    <glyph glyph-name="uni0123" unicode="&#x123;" horiz-adv-x="1167" 
d="M502 1266v88l82 164h45l-74 -154h49v-98h-102zM557 -332q-169 0 -282 90.5t-119 229.5l65 4q6 -118 96.5 -190t239.5 -72q177 0 276 101.5t99 285.5v209q-51 -127 -149 -201t-232 -74q-206 0 -327.5 143.5t-121.5 389.5q0 240 122 383t327 143q136 0 236 -79.5
t145 -207.5v262h61v-972q0 -207 -116.5 -326t-319.5 -119zM551 113q173 0 277 127.5t104 343.5q0 202 -105.5 333.5t-275.5 131.5q-175 0 -279 -126.5t-104 -338.5q0 -216 104 -343.5t279 -127.5z" />
    <glyph glyph-name="Hcircumflex" unicode="&#x124;" horiz-adv-x="1384" 
d="M492 1618l180 254h45l180 -254h-57l-146 203l-145 -203h-57zM197 0v1454h65v-678h860v678h66v-1454h-66v715h-860v-715h-65z" />
    <glyph glyph-name="hcircumflex" unicode="&#x125;" horiz-adv-x="1138" 
d="M4 1577l180 254h45l181 -254h-58l-145 203l-146 -203h-57zM174 0v1454h62v-610q28 128 130.5 197t241.5 69q118 0 200 -56t119.5 -147t37.5 -209v-698h-62v649q0 187 -75 293.5t-236 106.5q-166 0 -261 -111t-95 -289v-649h-62z" />
    <glyph glyph-name="Hbar" unicode="&#x126;" horiz-adv-x="1384" 
d="M197 0v1118h-160v58h160v278h65v-278h860v278h66v-278h160v-58h-160v-1118h-66v715h-860v-715h-65zM262 776h860v342h-860v-342z" />
    <glyph glyph-name="hbar" unicode="&#x127;" horiz-adv-x="1138" 
d="M174 0v1239h-154v53h154v162h62v-162h317v-53h-317v-395q28 128 130.5 197t241.5 69q118 0 200 -56t119.5 -147t37.5 -209v-698h-62v649q0 187 -75 293.5t-236 106.5q-166 0 -261 -111t-95 -289v-649h-62z" />
    <glyph glyph-name="Itilde" unicode="&#x128;" horiz-adv-x="458" 
d="M342 1659q-41 0 -70.5 15.5t-60.5 49.5q-27 30 -51.5 44t-59.5 14q-96 0 -102 -133h-53q6 85 48 133.5t107 48.5q46 0 79.5 -18.5t68.5 -55.5q49 -49 94 -49q41 0 62.5 33t27.5 108h53q-6 -90 -42.5 -140t-100.5 -50zM197 0v1454h65v-1454h-65z" />
    <glyph glyph-name="itilde" unicode="&#x129;" horiz-adv-x="409" 
d="M317 1290q-41 0 -70.5 16t-60.5 50q-27 30 -51 43.5t-59 13.5q-97 0 -103 -133h-53q6 85 48.5 133.5t107.5 48.5q46 0 79 -18.5t68 -54.5q50 -50 94 -50q41 0 63 33.5t28 108.5h53q-6 -90 -43 -140.5t-101 -50.5zM174 0v1085h62v-1085h-62z" />
    <glyph glyph-name="Imacron" unicode="&#x12a;" horiz-adv-x="458" 
d="M-25 1688v57h508v-57h-508zM197 0v1454h65v-1454h-65z" />
    <glyph glyph-name="imacron" unicode="&#x12b;" horiz-adv-x="409" 
d="M-49 1319v57h508v-57h-508zM174 0v1085h62v-1085h-62z" />
    <glyph glyph-name="Iogonek" unicode="&#x12e;" horiz-adv-x="458" 
d="M197 0v1454h65v-1454l-53 -82q-70 -104 -70 -184q0 -74 82 -74q58 0 101 31l28 -45q-58 -39 -129 -39q-64 0 -103.5 29.5t-39.5 93.5q0 45 24.5 93.5t73.5 123.5l35 53h-14z" />
    <glyph glyph-name="iogonek" unicode="&#x12f;" horiz-adv-x="409" 
d="M170 1286v144h70v-144h-70zM174 0v1085h62v-1085l-54 -82q-69 -103 -69 -184q0 -74 82 -74q57 0 100 31l29 -45q-58 -39 -129 -39q-64 0 -104 30t-40 93q0 31 15.5 70t32.5 67.5t51 79.5l34 53h-10z" />
    <glyph glyph-name="Idotaccent" unicode="&#x130;" horiz-adv-x="458" 
d="M195 1655v143h69v-143h-69zM197 0v1454h65v-1454h-65z" />
    <glyph glyph-name="dotlessi" unicode="&#x131;" horiz-adv-x="409" 
d="M174 0v1085h62v-1085h-62z" />
    <glyph glyph-name="IJ" unicode="&#x132;" horiz-adv-x="1564" 
d="M197 0v1454h65v-1454h-65zM969 -33q-190 0 -306.5 136t-119.5 374l69 6q3 -217 99 -333.5t258 -116.5q171 0 267.5 121t96.5 354v946h66v-946q0 -260 -115.5 -400.5t-314.5 -140.5z" />
    <glyph glyph-name="ij" unicode="&#x133;" horiz-adv-x="864" 
d="M170 1286v144h70v-144h-70zM625 1286v144h69v-144h-69zM174 0v1085h62v-1085h-62zM383 -307v57h55q109 0 150 41.5t41 159.5v1134h61v-1142q0 -136 -57 -193t-182 -57h-68z" />
    <glyph glyph-name="Jcircumflex" unicode="&#x134;" horiz-adv-x="1167" 
d="M768 1618l180 254h45l181 -254h-58l-145 203l-146 -203h-57zM571 -33q-190 0 -306.5 136t-119.5 374l70 6q3 -217 98.5 -333.5t257.5 -116.5q171 0 268 121t97 354v946h65v-946q0 -260 -115.5 -400.5t-314.5 -140.5z" />
    <glyph glyph-name="jcircumflex" unicode="&#x135;" horiz-adv-x="471" 
d="M66 1249l180 254h45l180 -254h-57l-146 203l-145 -203h-57zM-10 -307v57h55q109 0 150 41.5t41 159.5v1134h61v-1142q0 -135 -57.5 -192.5t-182.5 -57.5h-67z" />
    <glyph glyph-name="uni0136" unicode="&#x136;" horiz-adv-x="1259" 
d="M197 0v1454h65v-891l832 891h80l-592 -633l637 -821h-76l-600 778l-281 -301v-477h-65zM594 -346l74 153h-50v99h103v-88l-82 -164h-45z" />
    <glyph glyph-name="uni0137" unicode="&#x137;" horiz-adv-x="1167" 
d="M174 0v1454h62v-1057l708 688h82l-481 -467l522 -618h-74l-489 582l-268 -263v-319h-62zM537 -346l73 153h-49v99h103v-88l-82 -164h-45z" />
    <glyph glyph-name="Lacute" unicode="&#x139;" 
d="M201 1618l147 237h70l-164 -237h-53zM197 0v1454h65v-1393h782v-61h-847z" />
    <glyph glyph-name="lacute" unicode="&#x13a;" horiz-adv-x="485" 
d="M176 1536l148 238h69l-164 -238h-53zM344 0q-170 0 -170 164v1290h62v-1290q0 -107 114 -107h66v-57h-72z" />
    <glyph glyph-name="uni013B" unicode="&#x13b;" 
d="M197 0v1454h65v-1393h782v-61h-847zM545 -346l73 153h-49v99h103v-88l-82 -164h-45z" />
    <glyph glyph-name="uni013C" unicode="&#x13c;" horiz-adv-x="485" 
d="M344 0q-170 0 -170 164v1290h62v-1290q0 -107 114 -107h66v-57h-72zM219 -346l74 153h-49v99h102v-88l-82 -164h-45z" />
    <glyph glyph-name="Lcaron" unicode="&#x13d;" 
d="M197 0v1454h65v-1393h782v-61h-847zM737 1028l70 426h65l-81 -426h-54z" />
    <glyph glyph-name="lcaron" unicode="&#x13e;" horiz-adv-x="514" 
d="M344 0q-170 0 -170 164v1290h62v-1290q0 -107 114 -107h66v-57h-72zM379 1028l70 426h65l-82 -426h-53z" />
    <glyph glyph-name="Lslash" unicode="&#x141;" 
d="M197 0v711l-142 -66v53l142 66v690h65v-661l256 118v-53l-256 -119v-678h782v-61h-847z" />
    <glyph glyph-name="lslash" unicode="&#x142;" horiz-adv-x="485" 
d="M344 0q-170 0 -170 164v475l-129 -78v57l129 78v758h62v-721l219 131v-57l-219 -131v-512q0 -107 114 -107h66v-57h-72z" />
    <glyph glyph-name="Nacute" unicode="&#x143;" horiz-adv-x="1456" 
d="M700 1618l148 237h70l-164 -237h-54zM197 0v1454h96l901 -1393v1393h66v-1454h-97l-901 1393v-1393h-65z" />
    <glyph glyph-name="nacute" unicode="&#x144;" horiz-adv-x="1138" 
d="M541 1249l147 238h70l-164 -238h-53zM174 0v1085h57l5 -241q30 128 131.5 197t238.5 69q176 0 267.5 -115t91.5 -297v-698h-62v649q0 186 -74 293t-235 107q-166 0 -262 -111t-96 -289v-649h-62z" />
    <glyph glyph-name="uni0145" unicode="&#x145;" horiz-adv-x="1456" 
d="M197 0v1454h96l901 -1393v1393h66v-1454h-97l-901 1393v-1393h-65zM653 -346l74 153h-49v99h102v-88l-82 -164h-45z" />
    <glyph glyph-name="uni0146" unicode="&#x146;" horiz-adv-x="1138" 
d="M174 0v1085h57l5 -241q30 128 131.5 197t238.5 69q176 0 267.5 -115t91.5 -297v-698h-62v649q0 186 -74 293t-235 107q-166 0 -262 -111t-96 -289v-649h-62zM494 -346l73 153h-49v99h103v-88l-82 -164h-45z" />
    <glyph glyph-name="Ncaron" unicode="&#x147;" horiz-adv-x="1456" 
d="M526 1872h58l145 -203l145 203h58l-180 -254h-45zM197 0v1454h96l901 -1393v1393h66v-1454h-97l-901 1393v-1393h-65z" />
    <glyph glyph-name="ncaron" unicode="&#x148;" horiz-adv-x="1138" 
d="M367 1503h57l145 -203l146 203h57l-180 -254h-45zM174 0v1085h57l5 -241q30 128 131.5 197t238.5 69q176 0 267.5 -115t91.5 -297v-698h-62v649q0 186 -74 293t-235 107q-166 0 -262 -111t-96 -289v-649h-62z" />
    <glyph glyph-name="Eng" unicode="&#x14a;" horiz-adv-x="1456" 
d="M197 0v1454h96l901 -1393v1393h66v-1515q0 -109 -68 -177.5t-184 -68.5h-201v57h201q87 0 136.5 52.5t49.5 136.5v61h-31l-901 1393v-1393h-65z" />
    <glyph glyph-name="eng" unicode="&#x14b;" horiz-adv-x="1138" 
d="M174 0v1085h57l5 -241q30 128 131.5 197t238.5 69q176 0 267.5 -115t91.5 -297v-759q0 -108 -71 -177t-183 -69h-156v57h160q83 0 135.5 53.5t52.5 135.5v710q0 186 -74 293t-235 107q-166 0 -262 -111t-96 -289v-649h-62z" />
    <glyph glyph-name="Omacron" unicode="&#x14c;" horiz-adv-x="1462" 
d="M477 1688v57h508v-57h-508zM731 -33q-291 0 -460 204.5t-169 553.5q0 352 169 557t460 205t460 -205t169 -557q0 -349 -169 -553.5t-460 -204.5zM731 33q259 0 409 186t150 506q0 322 -150 509t-409 187t-409 -187t-150 -509q0 -320 150 -506t409 -186z" />
    <glyph glyph-name="omacron" unicode="&#x14d;" 
d="M309 1319v57h508v-57h-508zM563 -25q-212 0 -336.5 153.5t-124.5 414.5t124.5 414t336.5 153t336.5 -153t124.5 -414t-124.5 -414.5t-336.5 -153.5zM563 37q183 0 289 136t106 370t-106 370t-289 136t-289 -136t-106 -370t106 -370t289 -136z" />
    <glyph glyph-name="Ohungarumlaut" unicode="&#x150;" horiz-adv-x="1462" 
d="M608 1618l148 237h69l-163 -237h-54zM801 1618l147 237h70l-164 -237h-53zM731 -33q-291 0 -460 204.5t-169 553.5q0 352 169 557t460 205t460 -205t169 -557q0 -349 -169 -553.5t-460 -204.5zM731 33q259 0 409 186t150 506q0 322 -150 509t-409 187t-409 -187
t-150 -509q0 -320 150 -506t409 -186z" />
    <glyph glyph-name="ohungarumlaut" unicode="&#x151;" 
d="M440 1249l148 238h69l-163 -238h-54zM633 1249l147 238h70l-164 -238h-53zM563 -25q-212 0 -336.5 153.5t-124.5 414.5t124.5 414t336.5 153t336.5 -153t124.5 -414t-124.5 -414.5t-336.5 -153.5zM563 37q183 0 289 136t106 370t-106 370t-289 136t-289 -136t-106 -370
t106 -370t289 -136z" />
    <glyph glyph-name="OE" unicode="&#x152;" horiz-adv-x="2205" 
d="M729 -33q-284 0 -455.5 207.5t-171.5 550.5q0 346 171 554t456 208q198 0 342.5 -100.5t218.5 -286.5v354h797v-61h-731v-637h706v-62h-706v-633h747v-61h-813v354q-74 -185 -219 -286t-342 -101zM729 33q261 0 411 186t150 506q0 322 -150.5 509t-410.5 187
q-258 0 -407.5 -187.5t-149.5 -508.5q0 -320 149.5 -506t407.5 -186z" />
    <glyph glyph-name="oe" unicode="&#x153;" horiz-adv-x="1986" 
d="M563 -25q-212 0 -336.5 153.5t-124.5 414.5t124.5 414t336.5 153q160 0 272 -89.5t158 -250.5q48 156 158 248t274 92q91 0 167 -29t129.5 -80.5t90.5 -121.5t54.5 -151t17.5 -171v-25h-856q3 -229 113 -362t293 -133q141 0 233 69.5t127 190.5l68 -4
q-41 -143 -154 -230.5t-274 -87.5q-167 0 -280 93t-159 249q-46 -162 -159 -252t-273 -90zM563 37q183 0 289 136t106 370t-106 370t-289 136t-289 -136t-106 -370t106 -370t289 -136zM1028 590h789q-6 213 -108 336t-284 123q-172 0 -279.5 -123t-117.5 -336z" />
    <glyph glyph-name="Racute" unicode="&#x154;" horiz-adv-x="1290" 
d="M635 1618l147 237h70l-164 -237h-53zM197 0v1454h493q235 0 361.5 -108.5t126.5 -307.5q0 -136 -77 -231t-210 -131q236 -37 254 -277l33 -399h-68l-31 397q-9 124 -89 182t-245 58h-483v-637h-65zM262 698h451q185 0 290 88.5t105 251.5q0 355 -422 355h-424v-695z" />
    <glyph glyph-name="racute" unicode="&#x155;" horiz-adv-x="702" 
d="M338 1249l147 238h70l-164 -238h-53zM174 0v1085h49l8 -243q39 123 110 183t187 60h72v-65h-88q-118 0 -197 -103.5t-79 -244.5v-672h-62z" />
    <glyph glyph-name="uni0156" unicode="&#x156;" horiz-adv-x="1290" 
d="M197 0v1454h493q235 0 361.5 -108.5t126.5 -307.5q0 -136 -77 -231t-210 -131q236 -37 254 -277l33 -399h-68l-31 397q-9 124 -89 182t-245 58h-483v-637h-65zM262 698h451q185 0 290 88.5t105 251.5q0 355 -422 355h-424v-695zM575 -346l74 153h-49v99h102v-88l-81 -164
h-46z" />
    <glyph glyph-name="uni0157" unicode="&#x157;" horiz-adv-x="702" 
d="M174 0v1085h49l8 -243q39 123 110 183t187 60h72v-65h-88q-118 0 -197 -103.5t-79 -244.5v-672h-62zM129 -346l74 153h-49v99h102v-88l-82 -164h-45z" />
    <glyph glyph-name="Rcaron" unicode="&#x158;" horiz-adv-x="1290" 
d="M461 1872h57l146 -203l145 203h57l-180 -254h-45zM197 0v1454h493q235 0 361.5 -108.5t126.5 -307.5q0 -136 -77 -231t-210 -131q236 -37 254 -277l33 -399h-68l-31 397q-9 124 -89 182t-245 58h-483v-637h-65zM262 698h451q185 0 290 88.5t105 251.5q0 355 -422 355
h-424v-695z" />
    <glyph glyph-name="rcaron" unicode="&#x159;" horiz-adv-x="702" 
d="M164 1503h57l146 -203l145 203h57l-180 -254h-45zM174 0v1085h49l8 -243q39 123 110 183t187 60h72v-65h-88q-118 0 -197 -103.5t-79 -244.5v-672h-62z" />
    <glyph glyph-name="Sacute" unicode="&#x15a;" horiz-adv-x="1275" 
d="M594 1618l147 237h70l-164 -237h-53zM659 -33q-228 0 -382 140.5t-154 341.5l67 6q0 -84 34.5 -161t95.5 -134.5t151 -92t193 -34.5q184 0 301.5 90t117.5 246q0 62 -19.5 108t-70.5 91t-145.5 82.5t-237.5 70.5q-251 58 -353.5 138t-102.5 243q0 166 126.5 275.5
t346.5 109.5q115 0 210 -38.5t154 -102.5t91 -143t32 -163l-70 -6q0 79 -27.5 148.5t-79.5 123t-133 84.5t-181 31q-187 0 -293.5 -89.5t-106.5 -233.5q0 -89 36.5 -144t122.5 -94.5t249 -77.5q155 -36 257.5 -77.5t160.5 -94t81 -110t23 -135.5q0 -120 -67 -211.5
t-178.5 -139t-248.5 -47.5z" />
    <glyph glyph-name="sacute" unicode="&#x15b;" horiz-adv-x="1040" 
d="M479 1249l148 238h69l-164 -238h-53zM543 -25q-194 0 -313 96.5t-128 245.5l64 9q6 -130 108 -209.5t269 -79.5q162 0 245.5 57t83.5 168q0 39 -7 66t-29 54.5t-62 47.5t-105.5 39t-160.5 35q-150 26 -231 65.5t-109.5 92t-28.5 137.5q0 141 101.5 226t267.5 85
q167 0 270 -90.5t129 -231.5l-63 -12q-16 116 -103.5 194.5t-232.5 78.5q-140 0 -221.5 -65.5t-81.5 -184.5q0 -109 67.5 -158.5t264.5 -81.5q225 -36 313 -103t88 -190q0 -141 -102.5 -216t-292.5 -75z" />
    <glyph glyph-name="Scircumflex" unicode="&#x15c;" horiz-adv-x="1275" 
d="M422 1618l180 254h45l180 -254h-57l-145 203l-146 -203h-57zM659 -33q-228 0 -382 140.5t-154 341.5l67 6q0 -84 34.5 -161t95.5 -134.5t151 -92t193 -34.5q184 0 301.5 90t117.5 246q0 62 -19.5 108t-70.5 91t-145.5 82.5t-237.5 70.5q-251 58 -353.5 138t-102.5 243
q0 166 126.5 275.5t346.5 109.5q115 0 210 -38.5t154 -102.5t91 -143t32 -163l-70 -6q0 79 -27.5 148.5t-79.5 123t-133 84.5t-181 31q-187 0 -293.5 -89.5t-106.5 -233.5q0 -89 36.5 -144t122.5 -94.5t249 -77.5q155 -36 257.5 -77.5t160.5 -94t81 -110t23 -135.5
q0 -120 -67 -211.5t-178.5 -139t-248.5 -47.5z" />
    <glyph glyph-name="scircumflex" unicode="&#x15d;" horiz-adv-x="1040" 
d="M307 1249l180 254h45l181 -254h-58l-145 203l-145 -203h-58zM543 -25q-194 0 -313 96.5t-128 245.5l64 9q6 -130 108 -209.5t269 -79.5q162 0 245.5 57t83.5 168q0 39 -7 66t-29 54.5t-62 47.5t-105.5 39t-160.5 35q-150 26 -231 65.5t-109.5 92t-28.5 137.5
q0 141 101.5 226t267.5 85q167 0 270 -90.5t129 -231.5l-63 -12q-16 116 -103.5 194.5t-232.5 78.5q-140 0 -221.5 -65.5t-81.5 -184.5q0 -109 67.5 -158.5t264.5 -81.5q225 -36 313 -103t88 -190q0 -141 -102.5 -216t-292.5 -75z" />
    <glyph glyph-name="Scedilla" unicode="&#x15e;" horiz-adv-x="1275" 
d="M659 -33h-14l-35 -65q201 -6 201 -160q0 -75 -52.5 -117.5t-140.5 -42.5q-76 0 -126.5 32t-69.5 91l49 21q27 -91 143 -91q140 0 140 111q0 55 -40.5 81t-135.5 26l-29 36l43 82q-204 22 -336.5 157.5t-132.5 320.5l67 6q0 -84 34.5 -161t95.5 -134.5t151 -92t193 -34.5
q184 0 301.5 90t117.5 246q0 62 -19.5 108t-70.5 91t-145.5 82.5t-237.5 70.5q-251 58 -353.5 138t-102.5 243q0 166 126.5 275.5t346.5 109.5q115 0 210 -38.5t154 -102.5t91 -143t32 -163l-70 -6q0 79 -27.5 148.5t-79.5 123t-133 84.5t-181 31q-187 0 -293.5 -89.5
t-106.5 -233.5q0 -89 36.5 -144t122.5 -94.5t249 -77.5q155 -36 257.5 -77.5t160.5 -94t81 -110t23 -135.5q0 -120 -67 -211.5t-178.5 -139t-248.5 -47.5z" />
    <glyph glyph-name="scedilla" unicode="&#x15f;" horiz-adv-x="1040" 
d="M520 -418q-76 0 -126.5 32t-69.5 91l49 21q27 -91 143 -91q139 0 139 111q0 55 -40.5 81t-135.5 26l-28 36l45 88q-174 12 -279.5 106.5t-114.5 233.5l64 9q6 -130 108 -209.5t269 -79.5q162 0 245.5 57t83.5 168q0 39 -7 66t-29 54.5t-62 47.5t-105.5 39t-160.5 35
q-150 26 -231 65.5t-109.5 92t-28.5 137.5q0 141 101.5 226t267.5 85q167 0 270 -90.5t129 -231.5l-63 -12q-16 116 -103.5 194.5t-232.5 78.5q-140 0 -221.5 -65.5t-81.5 -184.5q0 -109 67.5 -158.5t264.5 -81.5q225 -36 313 -103t88 -190q0 -140 -101.5 -215.5
t-285.5 -75.5l-39 -73q201 -6 201 -160q0 -75 -52.5 -117.5t-140.5 -42.5z" />
    <glyph glyph-name="Scaron" unicode="&#x160;" horiz-adv-x="1275" 
d="M420 1872h57l146 -203l145 203h57l-180 -254h-45zM659 -33q-228 0 -382 140.5t-154 341.5l67 6q0 -84 34.5 -161t95.5 -134.5t151 -92t193 -34.5q184 0 301.5 90t117.5 246q0 62 -19.5 108t-70.5 91t-145.5 82.5t-237.5 70.5q-251 58 -353.5 138t-102.5 243
q0 166 126.5 275.5t346.5 109.5q115 0 210 -38.5t154 -102.5t91 -143t32 -163l-70 -6q0 79 -27.5 148.5t-79.5 123t-133 84.5t-181 31q-187 0 -293.5 -89.5t-106.5 -233.5q0 -89 36.5 -144t122.5 -94.5t249 -77.5q155 -36 257.5 -77.5t160.5 -94t81 -110t23 -135.5
q0 -120 -67 -211.5t-178.5 -139t-248.5 -47.5z" />
    <glyph glyph-name="scaron" unicode="&#x161;" horiz-adv-x="1040" 
d="M305 1503h57l146 -203l145 203h58l-181 -254h-45zM543 -25q-194 0 -313 96.5t-128 245.5l64 9q6 -130 108 -209.5t269 -79.5q162 0 245.5 57t83.5 168q0 39 -7 66t-29 54.5t-62 47.5t-105.5 39t-160.5 35q-150 26 -231 65.5t-109.5 92t-28.5 137.5q0 141 101.5 226
t267.5 85q167 0 270 -90.5t129 -231.5l-63 -12q-16 116 -103.5 194.5t-232.5 78.5q-140 0 -221.5 -65.5t-81.5 -184.5q0 -109 67.5 -158.5t264.5 -81.5q225 -36 313 -103t88 -190q0 -141 -102.5 -216t-292.5 -75z" />
    <glyph glyph-name="uni0162" unicode="&#x162;" horiz-adv-x="1114" 
d="M524 0v1393h-495v61h1056v-61h-495v-1393h-4l-54 -98q201 -6 201 -160q0 -75 -52 -117.5t-140 -42.5q-76 0 -127 32t-70 91l49 21q27 -91 144 -91q139 0 139 111q0 55 -40.5 81t-135.5 26l-29 36l57 111h-4z" />
    <glyph glyph-name="uni0163" unicode="&#x163;" horiz-adv-x="720" 
d="M520 0h-26l-54 -98q201 -6 201 -160q0 -75 -52 -117.5t-140 -42.5q-76 0 -127 32t-70 91l49 21q27 -91 143 -91q140 0 140 111q0 55 -40.5 81t-135.5 26l-29 36l61 119h6q-133 34 -133 197v823h-190v57h190v254h62v-254h264v-57h-264v-819q0 -81 36.5 -116.5t112.5 -35.5
h115v-57h-119z" />
    <glyph glyph-name="Tcaron" unicode="&#x164;" horiz-adv-x="1114" 
d="M354 1872h58l145 -203l145 203h58l-180 -254h-45zM524 0v1393h-495v61h1056v-61h-495v-1393h-66z" />
    <glyph glyph-name="tcaron" unicode="&#x165;" horiz-adv-x="741" 
d="M586 1130l69 365h66l-82 -365h-53zM520 0q-207 0 -207 205v823h-190v57h190v254h62v-254h264v-57h-264v-819q0 -81 36.5 -116.5t112.5 -35.5h115v-57h-119z" />
    <glyph glyph-name="Tbar" unicode="&#x166;" horiz-adv-x="1114" 
d="M524 0v682h-356v61h356v650h-495v61h1056v-61h-495v-650h356v-61h-356v-682h-66z" />
    <glyph glyph-name="tbar" unicode="&#x167;" horiz-adv-x="720" 
d="M520 0q-207 0 -207 205v434h-198v53h198v336h-190v57h190v254h62v-254h264v-57h-264v-336h272v-53h-272v-430q0 -81 36.5 -116.5t112.5 -35.5h115v-57h-119z" />
    <glyph glyph-name="Utilde" unicode="&#x168;" horiz-adv-x="1355" 
d="M791 1659q-41 0 -71 15.5t-61 49.5q-27 30 -51 44t-59 14q-97 0 -103 -133h-53q6 85 48.5 133.5t107.5 48.5q46 0 79 -18.5t68 -55.5q49 -49 95 -49q41 0 62.5 33t27.5 108h53q-6 -90 -42.5 -140t-100.5 -50zM678 -33q-246 0 -379 140.5t-133 400.5v948h65v-948
q0 -229 116 -352t331 -123t330.5 123t115.5 352v948h66v-948q0 -260 -133 -400.5t-379 -140.5z" />
    <glyph glyph-name="utilde" unicode="&#x169;" horiz-adv-x="1138" 
d="M682 1290q-41 0 -70.5 16t-60.5 50q-27 30 -51.5 43.5t-59.5 13.5q-96 0 -102 -133h-53q6 85 48 133.5t107 48.5q46 0 79.5 -18.5t68.5 -54.5q50 -50 94 -50q40 0 62 33.5t28 108.5h53q-6 -91 -42.5 -141t-100.5 -50zM530 -25q-164 0 -260 110t-96 302v698h62v-671
q0 -185 80 -281t231 -96q163 0 259.5 108t96.5 291v649h62v-1085h-54l-4 244q-31 -128 -129.5 -198.5t-247.5 -70.5z" />
    <glyph glyph-name="Umacron" unicode="&#x16a;" horiz-adv-x="1355" 
d="M424 1688v57h508v-57h-508zM678 -33q-246 0 -379 140.5t-133 400.5v948h65v-948q0 -229 116 -352t331 -123t330.5 123t115.5 352v948h66v-948q0 -260 -133 -400.5t-379 -140.5z" />
    <glyph glyph-name="umacron" unicode="&#x16b;" horiz-adv-x="1138" 
d="M315 1319v57h508v-57h-508zM530 -25q-164 0 -260 110t-96 302v698h62v-671q0 -185 80 -281t231 -96q163 0 259.5 108t96.5 291v649h62v-1085h-54l-4 244q-31 -128 -129.5 -198.5t-247.5 -70.5z" />
    <glyph glyph-name="Ubreve" unicode="&#x16c;" horiz-adv-x="1355" 
d="M678 1634q-105 0 -172 64.5t-82 173.5h53q12 -87 65.5 -133.5t135.5 -46.5t135.5 46.5t65.5 133.5h53q-15 -109 -82 -173.5t-172 -64.5zM678 -33q-246 0 -379 140.5t-133 400.5v948h65v-948q0 -229 116 -352t331 -123t330.5 123t115.5 352v948h66v-948
q0 -260 -133 -400.5t-379 -140.5z" />
    <glyph glyph-name="ubreve" unicode="&#x16d;" horiz-adv-x="1138" 
d="M569 1266q-106 0 -172.5 64t-81.5 173h54q12 -87 65.5 -133.5t134.5 -46.5q82 0 135.5 46.5t65.5 133.5h53q-15 -109 -81.5 -173t-172.5 -64zM530 -25q-164 0 -260 110t-96 302v698h62v-671q0 -185 80 -281t231 -96q163 0 259.5 108t96.5 291v649h62v-1085h-54l-4 244
q-31 -128 -129.5 -198.5t-247.5 -70.5z" />
    <glyph glyph-name="Uring" unicode="&#x16e;" horiz-adv-x="1355" 
d="M678 1581q-65 0 -106.5 40.5t-41.5 104.5q0 63 42 104.5t106 41.5q63 0 104 -41.5t41 -104.5t-40.5 -104t-104.5 -41zM678 1632q43 0 67.5 25.5t24.5 68.5t-24.5 68t-67.5 25t-68.5 -25t-25.5 -68t25.5 -68.5t68.5 -25.5zM678 -33q-246 0 -379 140.5t-133 400.5v948h65
v-948q0 -229 116 -352t331 -123t330.5 123t115.5 352v948h66v-948q0 -260 -133 -400.5t-379 -140.5z" />
    <glyph glyph-name="uring" unicode="&#x16f;" horiz-adv-x="1138" 
d="M569 1212q-65 0 -106 41t-41 105q0 63 41.5 104t105.5 41q63 0 104.5 -41t41.5 -104t-41 -104.5t-105 -41.5zM569 1264q43 0 68 25.5t25 68.5t-25 67.5t-68 24.5t-68.5 -24.5t-25.5 -67.5t25.5 -68.5t68.5 -25.5zM530 -25q-164 0 -260 110t-96 302v698h62v-671
q0 -185 80 -281t231 -96q163 0 259.5 108t96.5 291v649h62v-1085h-54l-4 244q-31 -128 -129.5 -198.5t-247.5 -70.5z" />
    <glyph glyph-name="Uhungarumlaut" unicode="&#x170;" horiz-adv-x="1355" 
d="M555 1618l147 237h70l-164 -237h-53zM748 1618l147 237h70l-164 -237h-53zM678 -33q-246 0 -379 140.5t-133 400.5v948h65v-948q0 -229 116 -352t331 -123t330.5 123t115.5 352v948h66v-948q0 -260 -133 -400.5t-379 -140.5z" />
    <glyph glyph-name="uhungarumlaut" unicode="&#x171;" horiz-adv-x="1138" 
d="M446 1249l148 238h70l-164 -238h-54zM639 1249l147 238h70l-164 -238h-53zM530 -25q-164 0 -260 110t-96 302v698h62v-671q0 -185 80 -281t231 -96q163 0 259.5 108t96.5 291v649h62v-1085h-54l-4 244q-31 -128 -129.5 -198.5t-247.5 -70.5z" />
    <glyph glyph-name="Uogonek" unicode="&#x172;" horiz-adv-x="1355" 
d="M678 -33q-246 0 -379 140.5t-133 400.5v948h65v-948q0 -229 116 -352t331 -123t330.5 123t115.5 352v948h66v-948q0 -195 -76 -324t-221 -182l-53 -82q-70 -104 -70 -184q0 -74 82 -74q57 0 100 31l29 -45q-58 -39 -129 -39q-64 0 -103.5 29.5t-39.5 93.5q0 45 24.5 93.5
t73.5 123.5l22 35q-77 -17 -151 -17z" />
    <glyph glyph-name="uogonek" unicode="&#x173;" horiz-adv-x="1138" 
d="M530 -25q-164 0 -260 110t-96 302v698h62v-671q0 -185 80 -281t231 -96q163 0 259.5 108t96.5 291v649h62v-1085l-54 -82q-69 -103 -69 -184q0 -74 82 -74q57 0 100 31l29 -45q-58 -39 -129 -39q-64 0 -104 30t-40 93q0 31 15.5 70t32.5 67.5t51 79.5l34 53h-2l-4 244
q-31 -128 -129.5 -198.5t-247.5 -70.5z" />
    <glyph glyph-name="Wcircumflex" unicode="&#x174;" horiz-adv-x="1871" 
d="M735 1618l180 254h46l180 -254h-58l-145 203l-145 -203h-58zM494 0l-408 1454h68l387 -1386l350 1386h90l350 -1386l387 1386h68l-408 -1454h-98l-344 1384l-344 -1384h-98z" />
    <glyph glyph-name="wcircumflex" unicode="&#x175;" horiz-adv-x="1591" 
d="M596 1249l180 254h45l180 -254h-57l-145 203l-146 -203h-57zM416 0l-367 1085h66l338 -1024l313 1024h61l312 -1024l338 1024h65l-366 -1085h-74l-305 991l-308 -991h-73z" />
    <glyph glyph-name="Ycircumflex" unicode="&#x176;" horiz-adv-x="1107" 
d="M354 1618l181 254h45l180 -254h-58l-145 203l-145 -203h-58zM522 0v594l-526 860h78l481 -799l479 799h78l-524 -860v-594h-66z" />
    <glyph glyph-name="ycircumflex" unicode="&#x177;" horiz-adv-x="1017" 
d="M324 1249l180 254h45l180 -254h-57l-146 203l-145 -203h-57zM180 -307v57h82q87 0 128.5 30t72.5 114l47 126h-33l-428 1065h66l407 -1024l381 1024h66l-457 -1216q-37 -98 -91.5 -137t-158.5 -39h-82z" />
    <glyph glyph-name="Ydieresis" unicode="&#x178;" horiz-adv-x="1107" 
d="M389 1655v143h70v-143h-70zM651 1655v143h70v-143h-70zM522 0v594l-526 860h78l481 -799l479 799h78l-524 -860v-594h-66z" />
    <glyph glyph-name="Zacute" unicode="&#x179;" horiz-adv-x="1071" 
d="M516 1618l148 237h69l-164 -237h-53zM61 0v61l857 1332h-830v61h901v-61l-856 -1332h877v-61h-949z" />
    <glyph glyph-name="zacute" unicode="&#x17a;" horiz-adv-x="1097" 
d="M522 1249l148 238h69l-164 -238h-53zM121 0v61l770 967h-750v57h820v-61l-771 -967h787v-57h-856z" />
    <glyph glyph-name="Zdotaccent" unicode="&#x17b;" horiz-adv-x="1071" 
d="M510 1655v143h70v-143h-70zM61 0v61l857 1332h-830v61h901v-61l-856 -1332h877v-61h-949z" />
    <glyph glyph-name="zdotaccent" unicode="&#x17c;" horiz-adv-x="1097" 
d="M516 1286v144h70v-144h-70zM121 0v61l770 967h-750v57h820v-61l-771 -967h787v-57h-856z" />
    <glyph glyph-name="Zcaron" unicode="&#x17d;" horiz-adv-x="1071" 
d="M342 1872h57l146 -203l145 203h58l-181 -254h-45zM61 0v61l857 1332h-830v61h901v-61l-856 -1332h877v-61h-949z" />
    <glyph glyph-name="zcaron" unicode="&#x17e;" horiz-adv-x="1097" 
d="M348 1503h58l145 -203l145 203h58l-181 -254h-45zM121 0v61l770 967h-750v57h820v-61l-771 -967h787v-57h-856z" />
    <glyph glyph-name="uni018F" unicode="&#x18f;" horiz-adv-x="1435" 
d="M1333 729q0 -346 -170.5 -553t-443.5 -207q-180 0 -320 92t-218.5 265t-78.5 403v19h1164q-4 309 -155.5 491t-391.5 182q-170 0 -305 -100.5t-193 -263.5l-69 6q58 190 212.5 307t354.5 117q273 0 443.5 -206.5t170.5 -551.5zM719 35q236 0 388.5 176t158.5 475h-1094
q12 -301 162 -476t385 -175z" />
    <glyph glyph-name="florin" unicode="&#x192;" horiz-adv-x="972" 
d="M133 0v61h84q71 0 119.5 56.5t58.5 152.5l84 754h-180v61h186l11 95q13 132 78 203t171 71h136v-61h-144q-75 0 -121 -53.5t-57 -151.5l-12 -103h334v-61h-340l-84 -745q-15 -134 -80.5 -206.5t-171.5 -72.5h-72z" />
    <glyph glyph-name="uni01CD" unicode="&#x1cd;" horiz-adv-x="1253" 
d="M424 1872h57l146 -203l145 203h57l-180 -254h-45zM49 0l539 1454h78l538 -1454h-67l-176 481h-668l-176 -481h-68zM315 543h623l-311 846z" />
    <glyph glyph-name="uni01CE" unicode="&#x1ce;" horiz-adv-x="1103" 
d="M338 1503h57l146 -203l145 203h57l-180 -254h-45zM451 -25q-157 0 -253 79.5t-96 211.5q0 118 89 194t241 105l436 82q0 210 -79.5 306t-247.5 96q-150 0 -240 -75t-113 -216l-67 6q28 167 136 256.5t284 89.5q190 0 289.5 -110.5t99.5 -331.5v-463q0 -84 23.5 -114
t78.5 -30h12v-61q-12 -2 -30 -2q-72 0 -109 46.5t-41 176.5q-48 -105 -159 -175.5t-254 -70.5zM455 37q178 0 295.5 109t117.5 272v170l-417 -80q-283 -54 -283 -238q0 -114 74 -173.5t213 -59.5z" />
    <glyph glyph-name="uni01E4" unicode="&#x1e4;" horiz-adv-x="1462" 
d="M705 -33q-279 0 -441 202t-162 556q0 362 166.5 562t456.5 200q212 0 354 -130t187 -372l-68 -8q-40 216 -162.5 330t-310.5 114q-259 0 -406 -180.5t-147 -515.5q0 -321 141 -506.5t392 -185.5q166 0 282.5 83t171.5 232h-432v53h451q26 107 26 217h-479v58h545v-49
q0 -121 -27 -226h127v-53h-141q-60 -180 -194.5 -280.5t-329.5 -100.5z" />
    <glyph glyph-name="uni01E5" unicode="&#x1e5;" horiz-adv-x="1226" 
d="M557 -332q-169 0 -282 90.5t-119 229.5l65 4q6 -118 96.5 -190t239.5 -72q177 0 276 101.5t99 285.5v209q-51 -127 -149 -201t-232 -74q-206 0 -327.5 143.5t-121.5 389.5q0 240 122 383t327 143q136 0 236 -79.5t145 -207.5v262h61v-483h142v-57h-142v-432
q0 -207 -116.5 -326t-319.5 -119zM551 113q165 0 268 116.5t113 315.5h-453v57h453q-6 196 -111 321.5t-270 125.5q-175 0 -279 -126.5t-104 -338.5q0 -216 104 -343.5t279 -127.5z" />
    <glyph glyph-name="Gcaron" unicode="&#x1e6;" horiz-adv-x="1382" 
d="M518 1872h57l146 -203l145 203h58l-181 -254h-45zM709 -33q-278 0 -442.5 205t-164.5 553q0 355 162.5 558.5t456.5 203.5q214 0 357 -129t188 -373l-68 -8q-43 220 -164 332t-313 112q-261 0 -405 -186t-144 -510q0 -319 145.5 -505.5t391.5 -186.5q221 0 348.5 151
t146.5 434h-479v58h545v-676h-58l-6 358q-43 -174 -169 -282.5t-328 -108.5z" />
    <glyph glyph-name="gcaron" unicode="&#x1e7;" horiz-adv-x="1167" 
d="M352 1503h58l145 -203l145 203h58l-180 -254h-46zM557 -332q-169 0 -282 90.5t-119 229.5l65 4q6 -118 96.5 -190t239.5 -72q177 0 276 101.5t99 285.5v209q-51 -127 -149 -201t-232 -74q-206 0 -327.5 143.5t-121.5 389.5q0 240 122 383t327 143q136 0 236 -79.5
t145 -207.5v262h61v-972q0 -207 -116.5 -326t-319.5 -119zM551 113q173 0 277 127.5t104 343.5q0 202 -105.5 333.5t-275.5 131.5q-175 0 -279 -126.5t-104 -338.5q0 -216 104 -343.5t279 -127.5z" />
    <glyph glyph-name="uni01E8" unicode="&#x1e8;" horiz-adv-x="1259" 
d="M446 1872h58l145 -203l146 203h57l-180 -254h-45zM197 0v1454h65v-891l832 891h80l-592 -633l637 -821h-76l-600 778l-281 -301v-477h-65z" />
    <glyph glyph-name="uni01E9" unicode="&#x1e9;" horiz-adv-x="1167" 
d="M2 1790h57l146 -203l145 203h58l-181 -254h-45zM174 0v1454h62v-1057l708 688h82l-481 -467l522 -618h-74l-489 582l-268 -263v-319h-62z" />
    <glyph glyph-name="uni0218" unicode="&#x218;" horiz-adv-x="1275" 
d="M659 -33q-228 0 -382 140.5t-154 341.5l67 6q0 -84 34.5 -161t95.5 -134.5t151 -92t193 -34.5q184 0 301.5 90t117.5 246q0 62 -19.5 108t-70.5 91t-145.5 82.5t-237.5 70.5q-251 58 -353.5 138t-102.5 243q0 166 126.5 275.5t346.5 109.5q115 0 210 -38.5t154 -102.5
t91 -143t32 -163l-70 -6q0 79 -27.5 148.5t-79.5 123t-133 84.5t-181 31q-187 0 -293.5 -89.5t-106.5 -233.5q0 -89 36.5 -144t122.5 -94.5t249 -77.5q155 -36 257.5 -77.5t160.5 -94t81 -110t23 -135.5q0 -120 -67 -211.5t-178.5 -139t-248.5 -47.5zM559 -346l74 153h-49
v99h102v-88l-82 -164h-45z" />
    <glyph glyph-name="uni0219" unicode="&#x219;" horiz-adv-x="1040" 
d="M543 -25q-194 0 -313 96.5t-128 245.5l64 9q6 -130 108 -209.5t269 -79.5q162 0 245.5 57t83.5 168q0 39 -7 66t-29 54.5t-62 47.5t-105.5 39t-160.5 35q-150 26 -231 65.5t-109.5 92t-28.5 137.5q0 141 101.5 226t267.5 85q167 0 270 -90.5t129 -231.5l-63 -12
q-16 116 -103.5 194.5t-232.5 78.5q-140 0 -221.5 -65.5t-81.5 -184.5q0 -109 67.5 -158.5t264.5 -81.5q225 -36 313 -103t88 -190q0 -141 -102.5 -216t-292.5 -75zM461 -346l74 153h-50v99h103v-88l-82 -164h-45z" />
    <glyph glyph-name="uni021A" unicode="&#x21a;" horiz-adv-x="1114" 
d="M524 0v1393h-495v61h1056v-61h-495v-1393h-66zM481 -346l74 153h-49v99h102v-88l-82 -164h-45z" />
    <glyph glyph-name="uni021B" unicode="&#x21b;" horiz-adv-x="720" 
d="M520 0q-207 0 -207 205v823h-190v57h190v254h62v-254h264v-57h-264v-819q0 -81 36.5 -116.5t112.5 -35.5h115v-57h-119zM389 -346l74 153h-49v99h102v-88l-82 -164h-45z" />
    <glyph glyph-name="uni0237" unicode="&#x237;" horiz-adv-x="471" 
d="M-10 -307v57h55q109 0 150 41.5t41 159.5v1134h61v-1142q0 -135 -57.5 -192.5t-182.5 -57.5h-67z" />
    <glyph glyph-name="uni0259" unicode="&#x259;" 
d="M553 1110q113 0 204 -45t148.5 -123.5t88 -180t30.5 -218.5q0 -157 -50.5 -283.5t-157.5 -205.5t-255 -79q-91 0 -167 29t-129.5 80.5t-90.5 121.5t-54.5 151t-17.5 171v25h856q-3 229 -113 362.5t-292 133.5q-141 0 -233 -70t-127 -191l-68 5q41 142 154 229.5t274 87.5
zM958 496h-788q6 -213 107.5 -336t283.5 -123q172 0 279.5 123t117.5 336z" />
    <glyph glyph-name="uni02B9" unicode="&#x2b9;" horiz-adv-x="421" 
d="M82 971l86 483h65l-94 -483h-57z" />
    <glyph glyph-name="uni02BC" unicode="&#x2bc;" horiz-adv-x="331" 
d="M90 997l70 457h78l-95 -457h-53z" />
    <glyph glyph-name="circumflex" unicode="&#x2c6;" horiz-adv-x="610" 
d="M102 1249l181 254h45l180 -254h-57l-146 203l-145 -203h-58z" />
    <glyph glyph-name="caron" unicode="&#x2c7;" horiz-adv-x="610" 
d="M102 1503h58l145 -203l146 203h57l-180 -254h-45z" />
    <glyph glyph-name="uni02C8" unicode="&#x2c8;" horiz-adv-x="286" 
d="M117 997l-13 314v143h78v-143l-12 -314h-53z" />
    <glyph glyph-name="breve" unicode="&#x2d8;" horiz-adv-x="712" 
d="M356 1266q-106 0 -172.5 64t-81.5 173h54q12 -87 65.5 -133.5t134.5 -46.5q82 0 135.5 46.5t65.5 133.5h53q-15 -109 -81.5 -173t-172.5 -64z" />
    <glyph glyph-name="dotaccent" unicode="&#x2d9;" horiz-adv-x="274" 
d="M102 1286v144h70v-144h-70z" />
    <glyph glyph-name="ring" unicode="&#x2da;" horiz-adv-x="497" 
d="M250 1212q-65 0 -106.5 41t-41.5 105q0 63 42 104t106 41q63 0 104 -41t41 -104t-40.5 -104.5t-104.5 -41.5zM250 1264q43 0 67.5 25.5t24.5 68.5t-24.5 67.5t-67.5 24.5t-68.5 -24.5t-25.5 -67.5t25.5 -68.5t68.5 -25.5z" />
    <glyph glyph-name="ogonek" unicode="&#x2db;" horiz-adv-x="477" 
d="M246 -393q-64 0 -104 30t-40 93q0 31 15.5 70t32.5 67.5t51 79.5l49 73l37 -20l-54 -82q-69 -103 -69 -184q0 -74 82 -74q57 0 100 31l29 -45q-58 -39 -129 -39z" />
    <glyph glyph-name="tilde" unicode="&#x2dc;" horiz-adv-x="745" 
d="M500 1290q-41 0 -70.5 16t-60.5 50q-27 30 -51.5 43.5t-59.5 13.5q-96 0 -102 -133h-54q6 85 48.5 133.5t107.5 48.5q46 0 79.5 -18.5t68.5 -54.5q50 -50 94 -50q40 0 62 33.5t28 108.5h53q-6 -91 -42.5 -141t-100.5 -50z" />
    <glyph glyph-name="hungarumlaut" unicode="&#x2dd;" horiz-adv-x="614" 
d="M102 1249l148 238h69l-163 -238h-54zM295 1249l147 238h70l-164 -238h-53z" />
    <glyph glyph-name="gravecomb" unicode="&#x300;" horiz-adv-x="0" 
d="M266 1266l-164 237h70l147 -237h-53z" />
    <glyph glyph-name="acutecomb" unicode="&#x301;" horiz-adv-x="0" 
d="M102 1249l148 238h69l-163 -238h-54z" />
    <glyph glyph-name="uni0302" unicode="&#x302;" horiz-adv-x="0" 
d="M102 1249l181 254h45l180 -254h-57l-146 203l-145 -203h-58z" />
    <glyph glyph-name="tildecomb" unicode="&#x303;" horiz-adv-x="0" 
d="M500 1290q-41 0 -70.5 16t-60.5 50q-27 30 -51.5 43.5t-59.5 13.5q-96 0 -102 -133h-54q6 85 48.5 133.5t107.5 48.5q46 0 79.5 -18.5t68.5 -54.5q50 -50 94 -50q40 0 62 33.5t28 108.5h53q-6 -91 -42.5 -141t-100.5 -50z" />
    <glyph glyph-name="uni0304" unicode="&#x304;" horiz-adv-x="0" 
d="M102 1319v57h508v-57h-508z" />
    <glyph glyph-name="uni0306" unicode="&#x306;" horiz-adv-x="0" 
d="M356 1266q-106 0 -172.5 64t-81.5 173h54q12 -87 65.5 -133.5t134.5 -46.5q82 0 135.5 46.5t65.5 133.5h53q-15 -109 -81.5 -173t-172.5 -64z" />
    <glyph glyph-name="uni0307" unicode="&#x307;" horiz-adv-x="0" 
d="M102 1286v144h70v-144h-70z" />
    <glyph glyph-name="uni0308" unicode="&#x308;" horiz-adv-x="0" 
d="M102 1286v144h70v-144h-70zM365 1286v144h69v-144h-69z" />
    <glyph glyph-name="uni030A" unicode="&#x30a;" horiz-adv-x="0" 
d="M250 1212q-65 0 -106.5 41t-41.5 105q0 63 42 104t106 41q63 0 104 -41t41 -104t-40.5 -104.5t-104.5 -41.5zM250 1264q43 0 67.5 25.5t24.5 68.5t-24.5 67.5t-67.5 24.5t-68.5 -24.5t-25.5 -67.5t25.5 -68.5t68.5 -25.5z" />
    <glyph glyph-name="uni030B" unicode="&#x30b;" horiz-adv-x="0" 
d="M102 1249l148 238h69l-163 -238h-54zM295 1249l147 238h70l-164 -238h-53z" />
    <glyph glyph-name="uni030C" unicode="&#x30c;" horiz-adv-x="0" 
d="M102 1503h58l145 -203l146 203h57l-180 -254h-45z" />
    <glyph glyph-name="uni0312" unicode="&#x312;" horiz-adv-x="0" 
d="M102 1266v88l82 164h45l-73 -154h49v-98h-103z" />
    <glyph glyph-name="uni0326" unicode="&#x326;" horiz-adv-x="0" 
d="M102 -346l74 153h-49v99h102v-88l-82 -164h-45z" />
    <glyph glyph-name="uni0327" unicode="&#x327;" horiz-adv-x="0" 
d="M299 -418q-76 0 -127 32t-70 91l50 21q27 -91 143 -91q139 0 139 111q0 55 -40.5 81t-135.5 26l-29 36l62 119h57l-57 -106q201 -6 201 -160q0 -75 -52.5 -117.5t-140.5 -42.5z" />
    <glyph glyph-name="uni0328" unicode="&#x328;" horiz-adv-x="0" 
d="M246 -393q-64 0 -104 30t-40 93q0 31 15.5 70t32.5 67.5t51 79.5l49 73l37 -20l-54 -82q-69 -103 -69 -184q0 -74 82 -74q57 0 100 31l29 -45q-58 -39 -129 -39z" />
    <glyph glyph-name="uni0335" unicode="&#x335;" horiz-adv-x="0" 
d="M348 688v53h533v-53h-533z" />
    <glyph glyph-name="uni0336" unicode="&#x336;" horiz-adv-x="0" 
d="M41 1141v57h1311v-57h-1311z" />
    <glyph glyph-name="uni0337" unicode="&#x337;" horiz-adv-x="0" 
d="M82 655v58l410 245v-57z" />
    <glyph glyph-name="uni0338" unicode="&#x338;" horiz-adv-x="0" 
d="M82 -33l741 1143h58l-742 -1143h-57z" />
    <glyph glyph-name="Lambda" unicode="&#x39b;" horiz-adv-x="1253" 
d="M49 0l539 1454h78l538 -1454h-67l-510 1389l-510 -1389h-68z" />
    <glyph glyph-name="uni03A9" unicode="&#x3a9;" horiz-adv-x="1437" 
d="M106 0v61h371q-157 53 -266 251.5t-109 432.5q0 341 166.5 541.5t450.5 200.5t450 -200t166 -542q0 -154 -49.5 -299t-135.5 -248t-189 -137h370v-61h-510v68q123 15 225.5 110t161 245.5t58.5 321.5q0 312 -147.5 494t-399.5 182t-399.5 -182t-147.5 -494
q0 -172 58.5 -322t160.5 -245t225 -110v-68h-510z" />
    <glyph glyph-name="lambda" unicode="&#x3bb;" horiz-adv-x="1103" 
d="M49 0l422 1081l-39 99q-48 123 -88 168t-113 45h-69v61h69q51 0 87 -14t67 -49.5t55.5 -83t55.5 -127.5l360 -914q6 -16 16.5 -48.5t19 -56t21.5 -48.5t30 -38.5t38 -13.5h74v-61h-29q-36 0 -61.5 4t-45 16.5t-31.5 24.5t-25 39t-20.5 48.5t-23 65t-28.5 76.5l-287 725
l-389 -999h-66z" />
    <glyph glyph-name="pi" unicode="&#x3c0;" horiz-adv-x="1255" 
d="M346 0v1024h-223v61h1051v-61h-213v-805q0 -76 42.5 -120t116.5 -44h54v-55h-46q-106 0 -167.5 61.5t-61.5 167.5v795h-491v-1024h-62z" />
    <glyph glyph-name="uni0400" unicode="&#x400;" horiz-adv-x="1173" 
d="M604 1634l-164 238h70l147 -238h-53zM197 0v1454h858v-61h-793v-637h768v-62h-768v-633h809v-61h-874z" />
    <glyph glyph-name="uni0401" unicode="&#x401;" horiz-adv-x="1173" 
d="M461 1655v143h69v-143h-69zM723 1655v143h70v-143h-70zM197 0v1454h858v-61h-793v-637h768v-62h-768v-633h809v-61h-874z" />
    <glyph glyph-name="uni0402" unicode="&#x402;" horiz-adv-x="1400" 
d="M393 0v1393h-364v61h929v-61h-499v-699q31 117 150.5 195t267.5 78q204 0 323 -133t119 -359q0 -221 -139.5 -348t-384.5 -127v61q214 0 334 111t120 303q0 198 -100 312t-272 114q-180 0 -299 -111t-119 -284v-506h-66z" />
    <glyph glyph-name="uni0403" unicode="&#x403;" horiz-adv-x="1165" 
d="M637 1618l147 237h70l-164 -237h-53zM197 0v1454h940v-61h-875v-1393h-65z" />
    <glyph glyph-name="uni0404" unicode="&#x404;" horiz-adv-x="1443" 
d="M731 -33q-291 0 -460 204.5t-169 553.5q0 352 169 557t460 205q239 0 399 -137t211 -367h-71q-47 198 -189 318t-350 120q-253 0 -402 -178.5t-157 -486.5h645v-62h-645q8 -307 157 -484t402 -177q208 0 349.5 117.5t189.5 314.5h69q-51 -227 -210.5 -362.5
t-397.5 -135.5z" />
    <glyph glyph-name="uni0405" unicode="&#x405;" horiz-adv-x="1275" 
d="M659 -33q-228 0 -382 140.5t-154 341.5l67 6q0 -84 34.5 -161t95.5 -134.5t151 -92t193 -34.5q184 0 301.5 90t117.5 246q0 62 -19.5 108t-70.5 91t-145.5 82.5t-237.5 70.5q-251 58 -353.5 138t-102.5 243q0 166 126.5 275.5t346.5 109.5q115 0 210 -38.5t154 -102.5
t91 -143t32 -163l-70 -6q0 79 -27.5 148.5t-79.5 123t-133 84.5t-181 31q-187 0 -293.5 -89.5t-106.5 -233.5q0 -89 36.5 -144t122.5 -94.5t249 -77.5q155 -36 257.5 -77.5t160.5 -94t81 -110t23 -135.5q0 -120 -67 -211.5t-178.5 -139t-248.5 -47.5z" />
    <glyph glyph-name="uni0406" unicode="&#x406;" horiz-adv-x="458" 
d="M197 0v1454h65v-1454h-65z" />
    <glyph glyph-name="uni0407" unicode="&#x407;" horiz-adv-x="458" 
d="M63 1655v143h70v-143h-70zM326 1655v143h69v-143h-69zM197 0v1454h65v-1454h-65z" />
    <glyph glyph-name="uni0408" unicode="&#x408;" horiz-adv-x="1167" 
d="M571 -33q-190 0 -306.5 136t-119.5 374l70 6q3 -217 98.5 -333.5t257.5 -116.5q171 0 268 121t97 354v946h65v-946q0 -260 -115.5 -400.5t-314.5 -140.5z" />
    <glyph glyph-name="uni0409" unicode="&#x409;" horiz-adv-x="2269" 
d="M145 0v61h60q157 0 178 244l96 1149h828v-625h358q230 0 361 -109.5t131 -299.5q0 -194 -131.5 -307t-360.5 -113h-485v1393h-639l-92 -1092q-27 -301 -242 -301h-62zM1665 768h-358v-707h358q202 0 312 93.5t110 265.5q0 167 -109.5 257.5t-312.5 90.5z" />
    <glyph glyph-name="uni040A" unicode="&#x40a;" horiz-adv-x="2211" 
d="M197 0v1454h65v-625h860v625h66v-625h420q229 0 360 -109.5t131 -299.5q0 -194 -131 -307t-360 -113h-486v768h-860v-768h-65zM1188 768v-707h420q202 0 312 93.5t110 265.5q0 167 -109.5 257.5t-312.5 90.5h-420z" />
    <glyph glyph-name="uni040B" unicode="&#x40b;" horiz-adv-x="1417" 
d="M29 1393v61h929v-61h-499v-699q31 118 154.5 195.5t283.5 77.5q201 0 309.5 -112.5t108.5 -319.5v-535h-66v535q0 178 -91.5 273t-260.5 95q-193 0 -315.5 -111t-122.5 -286v-506h-66v1393h-364z" />
    <glyph glyph-name="uni040C" unicode="&#x40c;" horiz-adv-x="1116" 
d="M588 1618l147 237h70l-164 -237h-53zM197 0v1454h65v-713l711 713h80l-723 -727l745 -727h-82l-731 713v-713h-65z" />
    <glyph glyph-name="uni040D" unicode="&#x40d;" horiz-adv-x="1456" 
d="M700 1634l-163 238h69l148 -238h-54zM1260 0h-66v1393l-901 -1393h-96v1454h65v-1393l901 1393h97v-1454z" />
    <glyph glyph-name="uni040E" unicode="&#x40e;" horiz-adv-x="1026" 
d="M528 1634q-105 0 -172 64.5t-82 173.5h54q12 -87 65.5 -133.5t134.5 -46.5q82 0 135.5 46.5t65.5 133.5h53q-15 -109 -82 -173.5t-172 -64.5zM172 0v61h80q75 0 121 38t80 128l59 162h-35l-428 1065h70l409 -1022l379 1022h70l-475 -1268q-68 -186 -250 -186h-80z" />
    <glyph glyph-name="uni040F" unicode="&#x40f;" horiz-adv-x="1384" 
d="M659 -307v307h-462v1454h65v-1393h860v1393h66v-1454h-463v-307h-66z" />
    <glyph glyph-name="uni0410" unicode="&#x410;" horiz-adv-x="1253" 
d="M49 0l539 1454h78l538 -1454h-67l-176 481h-668l-176 -481h-68zM315 543h623l-311 846z" />
    <glyph glyph-name="uni0411" unicode="&#x411;" horiz-adv-x="1286" 
d="M197 0v1454h940v-61h-875v-564h420q226 0 359 -110t133 -299q0 -193 -133 -306.5t-359 -113.5h-485zM262 61h420q202 0 312 93.5t110 265.5q0 167 -109.5 257.5t-312.5 90.5h-420v-707z" />
    <glyph glyph-name="uni0412" unicode="&#x412;" horiz-adv-x="1306" 
d="M197 0v1454h444q492 0 492 -389q0 -128 -76 -218.5t-201 -113.5q157 -20 247.5 -112t90.5 -234q0 -387 -471 -387h-526zM262 756h379q203 0 312.5 80t109.5 229q0 328 -422 328h-379v-637zM262 61h461q202 0 301.5 80.5t99.5 245.5q0 141 -108.5 224t-292.5 83h-461v-633
z" />
    <glyph glyph-name="uni0413" unicode="&#x413;" horiz-adv-x="1165" 
d="M197 0v1454h940v-61h-875v-1393h-65z" />
    <glyph glyph-name="uni0414" unicode="&#x414;" horiz-adv-x="1607" 
d="M123 -307v368h43q91 0 148.5 86t72.5 244l107 1063h811v-1393h180v-368h-66v307h-1231v-307h-65zM313 61h926v1332h-688l-102 -1022q-10 -102 -47.5 -187t-88.5 -123z" />
    <glyph glyph-name="uni0415" unicode="&#x415;" horiz-adv-x="1173" 
d="M197 0v1454h858v-61h-793v-637h768v-62h-768v-633h809v-61h-874z" />
    <glyph glyph-name="uni0416" unicode="&#x416;" horiz-adv-x="1746" 
d="M41 0l729 727l-709 727h89l690 -713v713h65v-713l690 713h91l-709 -727l729 -727h-90l-711 713v-713h-65v713l-711 -713h-88z" />
    <glyph glyph-name="uni0417" unicode="&#x417;" horiz-adv-x="1308" 
d="M649 -33q-228 0 -369.5 104.5t-156.5 284.5l63 6q15 -152 140 -240.5t323 -88.5q212 0 339.5 102.5t127.5 272.5q0 152 -125 249t-321 97l-135 -2v63l135 -2q175 0 286 82.5t111 212.5q0 140 -112 226.5t-300 86.5q-161 0 -268.5 -73t-132.5 -199l-70 6q29 153 156 242.5
t315 89.5q219 0 350.5 -105t131.5 -274q0 -108 -73 -195t-198 -127q148 -46 234 -150.5t86 -236.5q0 -192 -147.5 -312t-389.5 -120z" />
    <glyph glyph-name="uni0418" unicode="&#x418;" horiz-adv-x="1456" 
d="M1260 0h-66v1393l-901 -1393h-96v1454h65v-1393l901 1393h97v-1454z" />
    <glyph glyph-name="uni0419" unicode="&#x419;" horiz-adv-x="1456" 
d="M727 1634q-105 0 -172 64.5t-82 173.5h53q12 -87 65.5 -133.5t135.5 -46.5t135.5 46.5t65.5 133.5h53q-15 -109 -82 -173.5t-172 -64.5zM1260 0h-66v1393l-901 -1393h-96v1454h65v-1393l901 1393h97v-1454z" />
    <glyph glyph-name="uni041A" unicode="&#x41a;" horiz-adv-x="1116" 
d="M197 0v1454h65v-713l711 713h80l-723 -727l745 -727h-82l-731 713v-713h-65z" />
    <glyph glyph-name="uni041B" unicode="&#x41b;" horiz-adv-x="1503" 
d="M145 0v61h60q157 0 178 244l96 1149h828v-1454h-66v1393h-700l-92 -1092q-27 -301 -242 -301h-62z" />
    <glyph glyph-name="uni041C" unicode="&#x41c;" horiz-adv-x="1740" 
d="M197 0v1454h110l563 -1384l564 1384h110v-1454h-65v1393l-572 -1393h-73l-572 1393v-1393h-65z" />
    <glyph glyph-name="uni041D" unicode="&#x41d;" horiz-adv-x="1384" 
d="M197 0v1454h65v-678h860v678h66v-1454h-66v715h-860v-715h-65z" />
    <glyph glyph-name="uni041E" unicode="&#x41e;" horiz-adv-x="1462" 
d="M731 -33q-291 0 -460 204.5t-169 553.5q0 352 169 557t460 205t460 -205t169 -557q0 -349 -169 -553.5t-460 -204.5zM731 33q259 0 409 186t150 506q0 322 -150 509t-409 187t-409 -187t-150 -509q0 -320 150 -506t409 -186z" />
    <glyph glyph-name="uni041F" unicode="&#x41f;" horiz-adv-x="1384" 
d="M197 0v1454h991v-1454h-66v1393h-860v-1393h-65z" />
    <glyph glyph-name="uni0420" unicode="&#x420;" horiz-adv-x="1265" 
d="M197 0v1454h485q229 0 360.5 -113t131.5 -307q0 -190 -131 -299.5t-361 -109.5h-420v-625h-65zM262 686h420q203 0 312.5 90.5t109.5 257.5q0 172 -110 265.5t-312 93.5h-420v-707z" />
    <glyph glyph-name="uni0421" unicode="&#x421;" horiz-adv-x="1384" 
d="M713 -33q-281 0 -446 203t-165 555t165 557t446 205q231 0 377 -135.5t190 -368.5l-70 -6q-34 207 -163 325.5t-334 118.5q-249 0 -395 -187t-146 -509t145.5 -507t395.5 -185q217 0 349.5 125.5t160.5 351.5l69 -6q-37 -252 -188 -394.5t-391 -142.5z" />
    <glyph glyph-name="uni0422" unicode="&#x422;" horiz-adv-x="1114" 
d="M524 0v1393h-495v61h1056v-61h-495v-1393h-66z" />
    <glyph glyph-name="uni0423" unicode="&#x423;" horiz-adv-x="1026" 
d="M172 0v61h80q75 0 121 38t80 128l59 162h-35l-428 1065h70l409 -1022l379 1022h70l-475 -1268q-68 -186 -250 -186h-80z" />
    <glyph glyph-name="uni0424" unicode="&#x424;" horiz-adv-x="1642" 
d="M788 0v150q-317 8 -501.5 163t-184.5 414t184.5 414.5t501.5 163.5v149h66v-149q317 -9 501.5 -164.5t184.5 -413.5t-184.5 -413t-501.5 -164v-150h-66zM172 727q0 -231 165.5 -369.5t450.5 -146.5v1032q-285 -8 -450.5 -146.5t-165.5 -369.5zM1470 727
q0 230 -165.5 368.5t-450.5 147.5v-1032q285 9 450.5 147.5t165.5 368.5z" />
    <glyph glyph-name="uni0425" unicode="&#x425;" horiz-adv-x="1224" 
d="M41 0l528 733l-514 721h80l475 -672l480 672h79l-514 -725l529 -729h-80l-490 680l-493 -680h-80z" />
    <glyph glyph-name="uni0426" unicode="&#x426;" horiz-adv-x="1449" 
d="M1229 -307v307h-1032v1454h65v-1393h860v1393h66v-1393h106v-368h-65z" />
    <glyph glyph-name="uni0427" unicode="&#x427;" horiz-adv-x="1220" 
d="M958 0v760q-31 -118 -154.5 -195.5t-283.5 -77.5q-201 0 -309.5 113t-108.5 320v534h66v-534q0 -178 91.5 -273.5t260.5 -95.5q193 0 315.5 111t122.5 286v506h66v-1454h-66z" />
    <glyph glyph-name="uni0428" unicode="&#x428;" horiz-adv-x="1816" 
d="M197 0v1454h65v-1393h615v1393h65v-1393h612v1393h66v-1454h-1423z" />
    <glyph glyph-name="uni0429" unicode="&#x429;" horiz-adv-x="1890" 
d="M197 0v1454h65v-1393h615v1393h65v-1393h612v1393h66v-1393h115v-368h-62v307h-1476z" />
    <glyph glyph-name="uni042A" unicode="&#x42a;" horiz-adv-x="1456" 
d="M156 1393v61h297v-625h419q230 0 361 -109.5t131 -299.5q0 -194 -131.5 -307t-360.5 -113h-485v1393h-231zM453 768v-707h419q202 0 312 93.5t110 265.5q0 167 -109.5 257.5t-312.5 90.5h-419z" />
    <glyph glyph-name="uni042B" unicode="&#x42b;" horiz-adv-x="1585" 
d="M1327 0v1454h62v-1454h-62zM197 1454h65v-625h420q230 0 361 -109.5t131 -299.5q0 -194 -131.5 -307t-360.5 -113h-485v1454zM262 768v-707h420q202 0 312 93.5t110 265.5q0 167 -109.5 257.5t-312.5 90.5h-420z" />
    <glyph glyph-name="uni042C" unicode="&#x42c;" horiz-adv-x="1265" 
d="M197 1454h65v-625h420q230 0 361 -109.5t131 -299.5q0 -194 -131.5 -307t-360.5 -113h-485v1454zM262 768v-707h420q202 0 312 93.5t110 265.5q0 167 -109.5 257.5t-312.5 90.5h-420z" />
    <glyph glyph-name="uni042D" unicode="&#x42d;" horiz-adv-x="1443" 
d="M713 -33q-238 0 -398 135.5t-211 362.5h70q48 -197 189.5 -314.5t349.5 -117.5q253 0 402 177t157 484h-645v62h645q-8 308 -157 486.5t-402 178.5q-208 0 -350 -120t-189 -318h-72q51 230 211.5 367t399.5 137q291 0 459.5 -205t168.5 -557q0 -350 -168.5 -554
t-459.5 -204z" />
    <glyph glyph-name="uni042E" unicode="&#x42e;" horiz-adv-x="1865" 
d="M197 0v1454h65v-696h244q9 339 177 534t452 195q291 0 459.5 -205t168.5 -557q0 -350 -168.5 -554t-459.5 -204q-285 0 -453 195.5t-176 533.5h-244v-696h-65zM1135 33q259 0 409 186t150 506q0 322 -150 509t-409 187t-409.5 -187.5t-150.5 -508.5q0 -320 150.5 -506
t409.5 -186z" />
    <glyph glyph-name="uni042F" unicode="&#x42f;" horiz-adv-x="1286" 
d="M1090 0h-66v637h-420q-39 0 -55 2l-367 -639h-69l370 645q-174 28 -272 130.5t-98 258.5q0 193 132.5 306.5t358.5 113.5h486v-1454zM1024 698v695h-420q-202 0 -312 -93.5t-110 -265.5q0 -161 109.5 -248.5t312.5 -87.5h420z" />
    <glyph glyph-name="uni0430" unicode="&#x430;" horiz-adv-x="1103" 
d="M451 -25q-157 0 -253 79.5t-96 211.5q0 118 89 194t241 105l436 82q0 210 -79.5 306t-247.5 96q-150 0 -240 -75t-113 -216l-67 6q28 167 136 256.5t284 89.5q190 0 289.5 -110.5t99.5 -331.5v-463q0 -84 23.5 -114t78.5 -30h12v-61q-12 -2 -30 -2q-72 0 -109 46.5
t-41 176.5q-48 -105 -159 -175.5t-254 -70.5zM455 37q178 0 295.5 109t117.5 272v170l-417 -80q-283 -54 -283 -238q0 -114 74 -173.5t213 -59.5z" />
    <glyph glyph-name="uni0431" unicode="&#x431;" horiz-adv-x="1157" 
d="M582 -33q-107 0 -201 52t-162 149q-103 146 -115 473q-10 245 81 402.5t276 250.5q81 41 126 87.5t57.5 85.5t12.5 89l64 3q0 -94 -49.5 -171t-177.5 -141q-176 -89 -264 -245t-70 -371q31 159 157.5 259.5t294.5 100.5q195 0 319 -142t124 -366q0 -227 -132 -371.5
t-341 -144.5zM590 29q175 0 287 127.5t112 326.5q0 197 -108.5 322t-280.5 125q-181 0 -297.5 -125t-118.5 -322q-5 -200 109 -327t297 -127z" />
    <glyph glyph-name="uni0432" unicode="&#x432;" horiz-adv-x="1153" 
d="M174 0v1085h410q170 0 270 -75.5t100 -204.5q0 -99 -62 -164t-171 -82q130 -14 204 -80.5t74 -171.5q0 -141 -96 -224t-260 -83h-469zM236 588h350q139 0 221 58.5t82 158.5q0 101 -81.5 160t-221.5 59h-350v-436zM236 61h407q134 0 212.5 66t78.5 180q0 101 -78.5 160
t-212.5 59h-407v-465z" />
    <glyph glyph-name="uni0433" unicode="&#x433;" horiz-adv-x="935" 
d="M174 0v1085h680v-61h-618v-1024h-62z" />
    <glyph glyph-name="uni0434" unicode="&#x434;" horiz-adv-x="1333" 
d="M82 -307v368h20q86 0 147.5 77.5t80.5 209.5l98 737h645v-1024h178l-2 -368h-61l2 307h-1047v-307h-61zM389 332q-24 -182 -127 -271h750v963h-527z" />
    <glyph glyph-name="uni0435" unicode="&#x435;" 
d="M573 -25q-113 0 -204 45.5t-148.5 124t-88 180t-30.5 218.5q0 93 18.5 177t56.5 155.5t92 123.5t130 81.5t166 29.5q91 0 167 -29t129.5 -80.5t90.5 -121.5t54.5 -151t17.5 -171v-25h-856q3 -229 113 -362t292 -133q141 0 233.5 69.5t127.5 190.5l67 -4
q-41 -143 -154 -230.5t-274 -87.5zM168 590h788q-6 213 -107.5 336t-283.5 123q-172 0 -279.5 -123t-117.5 -336z" />
    <glyph glyph-name="uni0436" unicode="&#x436;" horiz-adv-x="1531" 
d="M100 0l562 543l-541 542h84l530 -532v532h62v-532l530 532h84l-541 -542l562 -543h-84l-551 532v-532h-62v532l-551 -532h-84z" />
    <glyph glyph-name="uni0437" unicode="&#x437;" horiz-adv-x="976" 
d="M479 -25q-161 0 -265 92.5t-112 239.5l66 4q9 -127 92 -200.5t219 -73.5q150 0 240 70.5t90 189.5q0 123 -86 192.5t-234 65.5l-112 -4v65l112 -4q131 -5 207 48.5t76 150.5q0 107 -79.5 172.5t-207.5 65.5q-119 0 -192.5 -62.5t-85.5 -169.5l-66 6q15 133 106 210
t238 77q159 0 256 -81.5t97 -217.5q0 -83 -54.5 -141t-156.5 -86q119 -30 183 -106t64 -183q0 -147 -107 -233.5t-288 -86.5z" />
    <glyph glyph-name="uni0438" unicode="&#x438;" horiz-adv-x="1114" 
d="M174 0v1085h62v-1009l614 1009h90v-1085h-61v1018l-621 -1018h-84z" />
    <glyph glyph-name="uni0439" unicode="&#x439;" horiz-adv-x="1114" 
d="M557 1266q-106 0 -172.5 64t-81.5 173h53q12 -87 65.5 -133.5t135.5 -46.5t135.5 46.5t65.5 133.5h53q-15 -109 -81.5 -173t-172.5 -64zM174 0v1085h62v-1009l614 1009h90v-1085h-61v1018l-621 -1018h-84z" />
    <glyph glyph-name="uni043A" unicode="&#x43a;" horiz-adv-x="1097" 
d="M174 0v1085h62v-536l641 536h98l-653 -542l675 -543h-100l-661 539v-539h-62z" />
    <glyph glyph-name="uni043B" unicode="&#x43b;" horiz-adv-x="1247" 
d="M133 0v61h74q57 0 100.5 58.5t50.5 148.5l76 817h639v-1085h-61v1024h-523l-67 -733q-12 -134 -70 -212.5t-145 -78.5h-74z" />
    <glyph glyph-name="uni043C" unicode="&#x43c;" horiz-adv-x="1411" 
d="M174 0v1085h76l457 -1022l454 1022h76v-1085h-61v967l-437 -967h-67l-436 967v-967h-62z" />
    <glyph glyph-name="uni043D" unicode="&#x43d;" horiz-adv-x="1124" 
d="M174 0v1085h62v-514h653v514h61v-1085h-61v510h-653v-510h-62z" />
    <glyph glyph-name="uni043E" unicode="&#x43e;" 
d="M563 -25q-212 0 -336.5 153.5t-124.5 414.5t124.5 414t336.5 153t336.5 -153t124.5 -414t-124.5 -414.5t-336.5 -153.5zM563 37q183 0 289 136t106 370t-106 370t-289 136t-289 -136t-106 -370t106 -370t289 -136z" />
    <glyph glyph-name="uni043F" unicode="&#x43f;" 
d="M174 0v1085h778v-1085h-61v1024h-655v-1024h-62z" />
    <glyph glyph-name="uni0440" unicode="&#x440;" horiz-adv-x="1167" 
d="M174 -307v1392h53l4 -284q47 148 149.5 228.5t240.5 80.5q205 0 324.5 -153t119.5 -414t-119 -414.5t-321 -153.5q-132 0 -240.5 87t-148.5 210v-579h-62zM625 37q173 0 273.5 136t100.5 370q0 233 -101.5 369.5t-276.5 136.5q-111 0 -199 -66.5t-137 -182t-49 -257.5
q0 -216 110.5 -361t278.5 -145z" />
    <glyph glyph-name="uni0441" unicode="&#x441;" horiz-adv-x="1087" 
d="M563 -25q-148 0 -254.5 79t-156.5 205.5t-50 283.5q0 117 29.5 218.5t85.5 180t145 123.5t201 45q175 0 284 -99t152 -263l-65 -5q-78 306 -371 306q-182 0 -288.5 -136.5t-106.5 -369.5t106.5 -369.5t288.5 -136.5q150 0 248 86.5t129 241.5l66 -7q-39 -174 -152 -278.5
t-291 -104.5z" />
    <glyph glyph-name="uni0442" unicode="&#x442;" horiz-adv-x="1081" 
d="M510 0v1024h-408v61h877v-61h-408v-1024h-61z" />
    <glyph glyph-name="uni0443" unicode="&#x443;" horiz-adv-x="1017" 
d="M180 -307v57h82q87 0 128.5 30t72.5 114l47 126h-33l-428 1065h66l407 -1024l381 1024h66l-457 -1216q-37 -98 -91.5 -137t-158.5 -39h-82z" />
    <glyph glyph-name="uni0444" unicode="&#x444;" horiz-adv-x="1257" 
d="M598 -307v358q-229 9 -362.5 143t-133.5 355t133.5 355t362.5 143v407h66v-407q228 -11 359.5 -144t131.5 -354t-131.5 -354t-359.5 -144v-358h-66zM168 549q0 -193 116 -310t314 -126v872q-198 -9 -314 -126t-116 -310zM1090 549q0 193 -114.5 309t-311.5 127v-872
q197 11 311.5 127t114.5 309z" />
    <glyph glyph-name="uni0445" unicode="&#x445;" horiz-adv-x="1097" 
d="M100 0l408 545l-393 540h71l363 -503l360 503h74l-393 -540l407 -545h-71l-373 510l-379 -510h-74z" />
    <glyph glyph-name="uni0446" unicode="&#x446;" horiz-adv-x="1224" 
d="M1010 -307v307h-836v1085h62v-1024h655v1024h61v-1024h119v-368h-61z" />
    <glyph glyph-name="uni0447" unicode="&#x447;" horiz-adv-x="1167" 
d="M932 0v614q-23 -122 -142 -206t-260 -84q-164 0 -260 116.5t-96 315.5v329h62v-329q0 -170 80 -270.5t214 -100.5q166 0 284 113.5t118 285.5v301h61v-1085h-61z" />
    <glyph glyph-name="uni0448" unicode="&#x448;" horiz-adv-x="1566" 
d="M174 0v1085h62v-1024h518v1024h61v-1024h516v1024h62v-1085h-1219z" />
    <glyph glyph-name="uni0449" unicode="&#x449;" horiz-adv-x="1654" 
d="M174 0v1085h62v-1024h518v1024h61v-1024h516v1024h62v-1024h129v-368h-62v307h-1286z" />
    <glyph glyph-name="uni044A" unicode="&#x44a;" horiz-adv-x="1232" 
d="M276 0v1024h-143v61h205v-419h317q229 0 352 -86t123 -246q0 -161 -123 -247.5t-352 -86.5h-379zM338 66h317q197 0 303.5 69.5t106.5 198.5q0 130 -106.5 200t-303.5 70h-317v-538z" />
    <glyph glyph-name="uni044B" unicode="&#x44b;" horiz-adv-x="1466" 
d="M1231 0v1085h61v-1085h-61zM174 0v1085h62v-419h317q229 0 352 -86t123 -246q0 -161 -123 -247.5t-352 -86.5h-379zM236 66h317q197 0 303.5 69.5t106.5 198.5q0 130 -106.5 200t-303.5 70h-317v-538z" />
    <glyph glyph-name="uni044C" unicode="&#x44c;" horiz-adv-x="1130" 
d="M174 0v1085h62v-419h317q229 0 352 -86t123 -246q0 -161 -123 -247.5t-352 -86.5h-379zM236 66h317q197 0 303.5 69.5t106.5 198.5q0 130 -106.5 200t-303.5 70h-317v-538z" />
    <glyph glyph-name="uni044D" unicode="&#x44d;" horiz-adv-x="1107" 
d="M545 -25q-169 0 -284 99.5t-157 275.5h68q38 -149 135.5 -231t237.5 -82q177 0 282 127.5t113 347.5h-403v61h403q-8 220 -113.5 348t-281.5 128q-142 0 -240 -84t-135 -234h-68q40 178 156 278.5t287 100.5q212 0 336.5 -153t124.5 -414t-124.5 -414.5t-336.5 -153.5z
" />
    <glyph glyph-name="uni044E" unicode="&#x44e;" horiz-adv-x="1464" 
d="M174 0v1085h62v-512h204q8 248 132 392.5t329 144.5q212 0 336.5 -153t124.5 -414t-124.5 -414.5t-336.5 -153.5q-205 0 -329 144.5t-132 392.5h-204v-512h-62zM901 37q183 0 289 136t106 370t-106 370t-289 136t-289 -136t-106 -370t106 -370t289 -136z" />
    <glyph glyph-name="uni044F" unicode="&#x44f;" horiz-adv-x="1146" 
d="M174 0l258 438q-117 38 -179.5 120.5t-62.5 199.5q0 158 102.5 242.5t291.5 84.5h389v-1085h-62v420h-417l-248 -420h-72zM584 481h327v543h-327q-160 0 -246 -70t-86 -200q0 -131 86.5 -202t245.5 -71z" />
    <glyph glyph-name="uni0450" unicode="&#x450;" 
d="M537 1266l-164 237h69l148 -237h-53zM573 -25q-113 0 -204 45.5t-148.5 124t-88 180t-30.5 218.5q0 93 18.5 177t56.5 155.5t92 123.5t130 81.5t166 29.5q91 0 167 -29t129.5 -80.5t90.5 -121.5t54.5 -151t17.5 -171v-25h-856q3 -229 113 -362t292 -133q141 0 233.5 69.5
t127.5 190.5l67 -4q-41 -143 -154 -230.5t-274 -87.5zM168 590h788q-6 213 -107.5 336t-283.5 123q-172 0 -279.5 -123t-117.5 -336z" />
    <glyph glyph-name="uni0451" unicode="&#x451;" 
d="M397 1286v144h70v-144h-70zM659 1286v144h70v-144h-70zM573 -25q-113 0 -204 45.5t-148.5 124t-88 180t-30.5 218.5q0 93 18.5 177t56.5 155.5t92 123.5t130 81.5t166 29.5q91 0 167 -29t129.5 -80.5t90.5 -121.5t54.5 -151t17.5 -171v-25h-856q3 -229 113 -362t292 -133
q141 0 233.5 69.5t127.5 190.5l67 -4q-41 -143 -154 -230.5t-274 -87.5zM168 590h788q-6 213 -107.5 336t-283.5 123q-172 0 -279.5 -123t-117.5 -336z" />
    <glyph glyph-name="uni0452" unicode="&#x452;" horiz-adv-x="1220" 
d="M256 0v1241h-123v62h123v151h61v-151h316v-62h-316v-393q28 130 129.5 196t243.5 66q170 0 263.5 -116t93.5 -296v-704q0 -163 -58 -232t-196 -69h-54v55h54q117 0 154.5 52t37.5 194v655q0 187 -75.5 293.5t-235.5 106.5q-167 0 -262 -110.5t-95 -289.5v-649h-61z" />
    <glyph glyph-name="uni0453" unicode="&#x453;" horiz-adv-x="935" 
d="M485 1249l148 238h69l-163 -238h-54zM174 0v1085h680v-61h-618v-1024h-62z" />
    <glyph glyph-name="uni0454" unicode="&#x454;" horiz-adv-x="1107" 
d="M563 -25q-212 0 -336.5 153.5t-124.5 414.5t124.5 414t336.5 153q171 0 287 -100.5t156 -278.5h-68q-37 150 -135 234t-240 84q-176 0 -281.5 -128t-113.5 -348h403v-61h-403q8 -220 113 -347.5t282 -127.5q140 0 237.5 82t135.5 231h68q-42 -176 -157 -275.5t-284 -99.5
z" />
    <glyph glyph-name="uni0455" unicode="&#x455;" horiz-adv-x="1040" 
d="M543 -25q-194 0 -313 96.5t-128 245.5l64 9q6 -130 108 -209.5t269 -79.5q162 0 245.5 57t83.5 168q0 39 -7 66t-29 54.5t-62 47.5t-105.5 39t-160.5 35q-150 26 -231 65.5t-109.5 92t-28.5 137.5q0 141 101.5 226t267.5 85q167 0 270 -90.5t129 -231.5l-63 -12
q-16 116 -103.5 194.5t-232.5 78.5q-140 0 -221.5 -65.5t-81.5 -184.5q0 -109 67.5 -158.5t264.5 -81.5q225 -36 313 -103t88 -190q0 -141 -102.5 -216t-292.5 -75z" />
    <glyph glyph-name="uni0456" unicode="&#x456;" horiz-adv-x="409" 
d="M170 1286v144h70v-144h-70zM174 0v1085h62v-1085h-62z" />
    <glyph glyph-name="uni0457" unicode="&#x457;" horiz-adv-x="409" 
d="M39 1286v144h70v-144h-70zM301 1286v144h70v-144h-70zM174 0v1085h62v-1085h-62z" />
    <glyph glyph-name="uni0458" unicode="&#x458;" horiz-adv-x="471" 
d="M231 1286v144h70v-144h-70zM-10 -307v57h55q109 0 150 41.5t41 159.5v1134h61v-1142q0 -135 -57.5 -192.5t-182.5 -57.5h-67z" />
    <glyph glyph-name="uni0459" unicode="&#x459;" horiz-adv-x="1968" 
d="M133 0v61h74q57 0 100.5 58.5t50.5 148.5l76 817h639v-419h318q229 0 352 -86t123 -246q0 -161 -123 -247.5t-352 -86.5h-379v1024h-523l-67 -733q-12 -134 -70 -212.5t-145 -78.5h-74zM1073 66h318q197 0 303 69.5t106 198.5q0 130 -106 200t-303 70h-318v-538z" />
    <glyph glyph-name="uni045A" unicode="&#x45a;" horiz-adv-x="1845" 
d="M174 0v1085h62v-419h653v419h61v-419h318q229 0 352 -86t123 -246q0 -161 -123 -247.5t-352 -86.5h-379v604h-653v-604h-62zM950 66h318q197 0 303 69.5t106 198.5q0 130 -106 200t-303 70h-318v-538z" />
    <glyph glyph-name="uni045B" unicode="&#x45b;" horiz-adv-x="1138" 
d="M174 0v1239h-154v53h154v162h62v-162h317v-53h-317v-395q28 128 130.5 197t241.5 69q118 0 200 -56t119.5 -147t37.5 -209v-698h-62v649q0 187 -75 293.5t-236 106.5q-166 0 -261 -111t-95 -289v-649h-62z" />
    <glyph glyph-name="uni045C" unicode="&#x45c;" horiz-adv-x="1097" 
d="M514 1249l148 238h69l-164 -238h-53zM174 0v1085h62v-536l641 536h98l-653 -542l675 -543h-100l-661 539v-539h-62z" />
    <glyph glyph-name="uni045D" unicode="&#x45d;" horiz-adv-x="1114" 
d="M530 1266l-163 237h69l148 -237h-54zM174 0v1085h62v-1009l614 1009h90v-1085h-61v1018l-621 -1018h-84z" />
    <glyph glyph-name="uni045E" unicode="&#x45e;" horiz-adv-x="1017" 
d="M510 1266q-106 0 -172.5 64t-81.5 173h53q12 -87 65.5 -133.5t135.5 -46.5t135.5 46.5t65.5 133.5h53q-15 -109 -81.5 -173t-172.5 -64zM180 -307v57h82q87 0 128.5 30t72.5 114l47 126h-33l-428 1065h66l407 -1024l381 1024h66l-457 -1216q-37 -98 -91.5 -137
t-158.5 -39h-82z" />
    <glyph glyph-name="uni045F" unicode="&#x45f;" 
d="M532 -307v307h-358v1085h62v-1024h655v1024h61v-1085h-358v-307h-62z" />
    <glyph glyph-name="uni0462" unicode="&#x462;" horiz-adv-x="1462" 
d="M135 1126v62h238v266h65v-266h240v-62h-240v-297h420q230 0 361 -109.5t131 -299.5q0 -194 -131.5 -307t-360.5 -113h-485v1126h-238zM438 768v-707h420q202 0 312 93.5t110 265.5q0 167 -109.5 257.5t-312.5 90.5h-420z" />
    <glyph glyph-name="uni0463" unicode="&#x463;" horiz-adv-x="1329" 
d="M373 0v1085h-240v62h240v307h61v-307h242v-62h-242v-358h318q228 0 351.5 -95t123.5 -270t-123 -268.5t-352 -93.5h-379zM434 66h318q197 0 303 77t106 219q0 146 -106 225t-303 79h-318v-600z" />
    <glyph glyph-name="uni046A" unicode="&#x46a;" horiz-adv-x="1337" 
d="M41 0l254 590q73 168 242 168h59l-414 635v61h975v-61l-414 -635h58q168 0 241 -168l254 -590h-71l-219 522q-39 95 -86.5 134.5t-118.5 39.5h-99v-696h-65v696h-100q-71 0 -118.5 -39.5t-86.5 -134.5l-219 -522h-72zM256 1393l414 -635l413 635h-827z" />
    <glyph glyph-name="uni046B" unicode="&#x46b;" horiz-adv-x="1374" 
d="M100 0l195 410q34 70 101.5 107.5t158.5 37.5h61l-415 469v61h975v-61l-416 -469h59q91 0 158.5 -37.5t101.5 -107.5l195 -410h-68l-168 362q-32 69 -83.5 100.5t-133.5 31.5h-102v-494h-62v494h-102q-83 0 -136 -31.5t-85 -100.5l-166 -362h-68zM279 1024l409 -461
l410 461h-819z" />
    <glyph glyph-name="uni0472" unicode="&#x472;" horiz-adv-x="1462" 
d="M731 -33q-291 0 -460 204.5t-169 553.5q0 352 169 557t460 205t460 -205t169 -557q0 -349 -169 -553.5t-460 -204.5zM666 786q182 -78 239.5 -94.5t128.5 -11.5q70 5 129 29t125 77q-14 294 -162 464.5t-395 170.5q-245 0 -393.5 -169.5t-163.5 -463.5q79 43 199 52
q63 4 144.5 -11t148.5 -43zM731 33q255 0 404 179t155 490q-124 -79 -252 -88q-64 -3 -131.5 15t-236.5 88q-73 31 -152 46.5t-139 10.5q-127 -9 -207 -65q5 -313 154 -494.5t405 -181.5z" />
    <glyph glyph-name="uni0473" unicode="&#x473;" 
d="M563 -25q-212 0 -336.5 153.5t-124.5 414.5t124.5 414t336.5 153t336.5 -153t124.5 -414t-124.5 -414.5t-336.5 -153.5zM494 592q189 -62 247 -73t127 -1q36 4 90 23v2q0 234 -106 370t-289 136q-167 0 -271.5 -115.5t-121.5 -317.5q4 1 13.5 2.5t13.5 2.5q61 9 144.5 1
t152.5 -30zM563 37q169 0 273.5 117t119.5 321q-45 -13 -77 -18q-64 -8 -134 3.5t-241 65.5q-164 53 -295 33q-30 -4 -41 -8v-8q0 -234 106 -370t289 -136z" />
    <glyph glyph-name="uni0474" unicode="&#x474;" horiz-adv-x="1462" 
d="M621 0l-572 1454h72l536 -1384l478 1230q62 154 225 154h53v-61h-47q-123 0 -170 -115l-502 -1278h-73z" />
    <glyph glyph-name="uni0475" unicode="&#x475;" 
d="M455 0l-406 1085h66l379 -1022l309 834q67 188 248 188h26v-61h-26q-73 0 -118 -38t-79 -128l-322 -858h-77z" />
    <glyph glyph-name="uni0490" unicode="&#x490;" horiz-adv-x="966" 
d="M197 0v1454h675v318h66v-379h-676v-1393h-65z" />
    <glyph glyph-name="uni0491" unicode="&#x491;" horiz-adv-x="837" 
d="M174 0v1085h553v318h61v-379h-552v-1024h-62z" />
    <glyph glyph-name="uni0492" unicode="&#x492;" horiz-adv-x="1261" 
d="M293 0v641h-137v61h137v752h940v-61h-875v-691h568v-61h-568v-641h-65z" />
    <glyph glyph-name="uni0493" unicode="&#x493;" horiz-adv-x="1046" 
d="M264 0v541h-131v61h131v483h680v-61h-618v-422h393v-61h-393v-541h-62z" />
    <glyph glyph-name="uni0496" unicode="&#x496;" horiz-adv-x="1759" 
d="M41 0l729 727l-709 727h89l690 -713v713h65v-713l690 713h91l-709 -727l686 -684v18h66v-368h-66v307h-47l-711 713v-713h-65v713l-711 -713h-88z" />
    <glyph glyph-name="uni0497" unicode="&#x497;" horiz-adv-x="1544" 
d="M100 0l562 543l-541 542h84l530 -532v532h62v-532l530 532h84l-541 -542l512 -496h62v-354h-62v307h-34l-551 532v-532h-62v532l-551 -532h-84z" />
    <glyph glyph-name="uni049A" unicode="&#x49a;" horiz-adv-x="1122" 
d="M197 0v1454h65v-713l711 713h80l-723 -727l686 -670h65v-364h-65v307h-23l-731 713v-713h-65z" />
    <glyph glyph-name="uni049B" unicode="&#x49b;" horiz-adv-x="1099" 
d="M174 0v1085h62v-536l641 536h98l-653 -542l616 -496h61v-354h-61v307h-41l-661 539v-539h-62z" />
    <glyph glyph-name="uni04A2" unicode="&#x4a2;" horiz-adv-x="1406" 
d="M197 0v1454h65v-678h860v678h66v-1397h63v-364h-65v307h-64v715h-860v-715h-65z" />
    <glyph glyph-name="uni04A3" unicode="&#x4a3;" horiz-adv-x="1185" 
d="M174 0v1085h62v-514h653v514h61v-1038h62v-354h-62v307h-61v510h-653v-510h-62z" />
    <glyph glyph-name="uni04AE" unicode="&#x4ae;" horiz-adv-x="1107" 
d="M522 0v594l-526 860h78l481 -799l479 799h78l-524 -860v-594h-66z" />
    <glyph glyph-name="uni04AF" unicode="&#x4af;" horiz-adv-x="987" 
d="M463 0l-414 1085h66l379 -1003l378 1003h66l-414 -1085v-307h-61v307z" />
    <glyph glyph-name="uni04B0" unicode="&#x4b0;" horiz-adv-x="1234" 
d="M543 0v580h-307v61h278l-498 813h78l481 -799l480 799h78l-496 -813h385v-61h-414v-580h-65z" />
    <glyph glyph-name="uni04B1" unicode="&#x4b1;" horiz-adv-x="987" 
d="M188 -31v62h263l-402 1054h66l379 -1003l378 1003h66l-401 -1054h264v-62h-277v-276h-61v276h-275z" />
    <glyph glyph-name="uni04B2" unicode="&#x4b2;" horiz-adv-x="1255" 
d="M41 0l528 733l-514 721h80l475 -672l480 672h79l-514 -725l494 -682v10h65v-364h-65v307h-45l-490 680l-493 -680h-80z" />
    <glyph glyph-name="uni04B3" unicode="&#x4b3;" horiz-adv-x="1124" 
d="M100 0l408 545l-393 540h71l363 -503l360 503h74l-393 -540l373 -498h61v-354h-61v307h-37l-373 510l-379 -510h-74z" />
    <glyph glyph-name="uni04B6" unicode="&#x4b6;" horiz-adv-x="1243" 
d="M958 0v760q-31 -118 -154.5 -195.5t-283.5 -77.5q-201 0 -309.5 113t-108.5 320v534h66v-534q0 -178 91.5 -273.5t260.5 -95.5q193 0 315.5 111t122.5 286v506h66v-1397h63v-364h-65v307h-64z" />
    <glyph glyph-name="uni04B7" unicode="&#x4b7;" horiz-adv-x="1196" 
d="M932 0v614q-23 -122 -142 -206t-260 -84q-164 0 -260 116.5t-96 315.5v329h62v-329q0 -170 80 -270.5t214 -100.5q166 0 284 113.5t118 285.5v301h61v-1038h60v-354h-62v307h-59z" />
    <glyph glyph-name="uni04BA" unicode="&#x4ba;" horiz-adv-x="1220" 
d="M262 1454v-760q31 118 154.5 195.5t283.5 77.5q201 0 309.5 -112.5t108.5 -319.5v-535h-65v535q0 178 -92 273t-261 95q-193 0 -315.5 -111t-122.5 -286v-506h-65v1454h65z" />
    <glyph glyph-name="uni04BB" unicode="&#x4bb;" horiz-adv-x="1138" 
d="M174 0v1454h62v-610q28 128 130.5 197t241.5 69q118 0 200 -56t119.5 -147t37.5 -209v-698h-62v649q0 187 -75 293.5t-236 106.5q-166 0 -261 -111t-95 -289v-649h-62z" />
    <glyph glyph-name="uni04C0" unicode="&#x4c0;" horiz-adv-x="458" 
d="M197 0v1454h65v-1454h-65z" />
    <glyph glyph-name="uni04CF" unicode="&#x4cf;" horiz-adv-x="454" 
d="M197 0v1454h61v-1454h-61z" />
    <glyph glyph-name="uni04D8" unicode="&#x4d8;" horiz-adv-x="1435" 
d="M1333 729q0 -346 -170.5 -553t-443.5 -207q-180 0 -320 92t-218.5 265t-78.5 403v19h1164q-4 309 -155.5 491t-391.5 182q-170 0 -305 -100.5t-193 -263.5l-69 6q58 190 212.5 307t354.5 117q273 0 443.5 -206.5t170.5 -551.5zM719 35q236 0 388.5 176t158.5 475h-1094
q12 -301 162 -476t385 -175z" />
    <glyph glyph-name="uni04D9" unicode="&#x4d9;" 
d="M553 1110q113 0 204 -45t148.5 -123.5t88 -180t30.5 -218.5q0 -157 -50.5 -283.5t-157.5 -205.5t-255 -79q-91 0 -167 29t-129.5 80.5t-90.5 121.5t-54.5 151t-17.5 171v25h856q-3 229 -113 362.5t-292 133.5q-141 0 -233 -70t-127 -191l-68 5q41 142 154 229.5t274 87.5
zM958 496h-788q6 -213 107.5 -336t283.5 -123q172 0 279.5 123t117.5 336z" />
    <glyph glyph-name="uni04E2" unicode="&#x4e2;" horiz-adv-x="1456" 
d="M473 1688v57h508v-57h-508zM1260 0h-66v1393l-901 -1393h-96v1454h65v-1393l901 1393h97v-1454z" />
    <glyph glyph-name="uni04E3" unicode="&#x4e3;" horiz-adv-x="1114" 
d="M303 1319v57h508v-57h-508zM174 0v1085h62v-1009l614 1009h90v-1085h-61v1018l-621 -1018h-84z" />
    <glyph glyph-name="uni04E8" unicode="&#x4e8;" horiz-adv-x="1462" 
d="M731 -33q-291 0 -460 204.5t-169 553.5q0 352 169 557t460 205t460 -205t169 -557q0 -349 -169 -553.5t-460 -204.5zM731 1421q-253 0 -401.5 -177.5t-157.5 -485.5h1118q-8 308 -157 485.5t-402 177.5zM731 33q253 0 402 177.5t157 485.5h-1118q8 -308 157 -485.5
t402 -177.5z" />
    <glyph glyph-name="uni04E9" unicode="&#x4e9;" 
d="M563 -25q-212 0 -336.5 153.5t-124.5 414.5t124.5 414t336.5 153t336.5 -153t124.5 -414t-124.5 -414.5t-336.5 -153.5zM563 1049q-176 0 -281.5 -128t-113.5 -348h790q-8 220 -113.5 348t-281.5 128zM563 37q177 0 282 127.5t113 347.5h-790q8 -220 113 -347.5
t282 -127.5z" />
    <glyph glyph-name="uni04EE" unicode="&#x4ee;" horiz-adv-x="1026" 
d="M274 1688v57h508v-57h-508zM172 0v61h80q75 0 121 38t80 128l59 162h-35l-428 1065h70l409 -1022l379 1022h70l-475 -1268q-68 -186 -250 -186h-80z" />
    <glyph glyph-name="uni04EF" unicode="&#x4ef;" horiz-adv-x="1017" 
d="M256 1319v57h508v-57h-508zM180 -307v57h82q87 0 128.5 30t72.5 114l47 126h-33l-428 1065h66l407 -1024l381 1024h66l-457 -1216q-37 -98 -91.5 -137t-158.5 -39h-82z" />
    <glyph glyph-name="uni0E3F" unicode="&#xe3f;" horiz-adv-x="1265" 
d="M197 0v1454h356v195h65v-195q228 -5 351 -105t123 -284q0 -128 -76 -218.5t-201 -113.5q157 -20 247.5 -112t90.5 -234q0 -186 -122 -286.5t-349 -100.5h-64v-186h-65v186h-356zM262 756h291v637h-291v-637zM1022 1065q0 155 -105 239t-299 89v-637h44q161 0 260.5 81.5
t99.5 227.5zM262 61h291v633h-291v-633zM682 694h-64v-633h64q401 0 401 326q0 141 -108.5 224t-292.5 83z" />
    <glyph glyph-name="uni1E20" unicode="&#x1e20;" horiz-adv-x="1382" 
d="M467 1688v57h508v-57h-508zM709 -33q-278 0 -442.5 205t-164.5 553q0 355 162.5 558.5t456.5 203.5q214 0 357 -129t188 -373l-68 -8q-43 220 -164 332t-313 112q-261 0 -405 -186t-144 -510q0 -319 145.5 -505.5t391.5 -186.5q221 0 348.5 151t146.5 434h-479v58h545
v-676h-58l-6 358q-43 -174 -169 -282.5t-328 -108.5z" />
    <glyph glyph-name="uni1E21" unicode="&#x1e21;" horiz-adv-x="1167" 
d="M301 1319v57h508v-57h-508zM557 -332q-169 0 -282 90.5t-119 229.5l65 4q6 -118 96.5 -190t239.5 -72q177 0 276 101.5t99 285.5v209q-51 -127 -149 -201t-232 -74q-206 0 -327.5 143.5t-121.5 389.5q0 240 122 383t327 143q136 0 236 -79.5t145 -207.5v262h61v-972
q0 -207 -116.5 -326t-319.5 -119zM551 113q173 0 277 127.5t104 343.5q0 202 -105.5 333.5t-275.5 131.5q-175 0 -279 -126.5t-104 -338.5q0 -216 104 -343.5t279 -127.5z" />
    <glyph glyph-name="Wgrave" unicode="&#x1e80;" horiz-adv-x="1871" 
d="M909 1634l-164 238h70l148 -238h-54zM494 0l-408 1454h68l387 -1386l350 1386h90l350 -1386l387 1386h68l-408 -1454h-98l-344 1384l-344 -1384h-98z" />
    <glyph glyph-name="wgrave" unicode="&#x1e81;" horiz-adv-x="1591" 
d="M770 1266l-164 237h70l147 -237h-53zM416 0l-367 1085h66l338 -1024l313 1024h61l312 -1024l338 1024h65l-366 -1085h-74l-305 991l-308 -991h-73z" />
    <glyph glyph-name="Wacute" unicode="&#x1e82;" horiz-adv-x="1871" 
d="M907 1618l148 237h69l-163 -237h-54zM494 0l-408 1454h68l387 -1386l350 1386h90l350 -1386l387 1386h68l-408 -1454h-98l-344 1384l-344 -1384h-98z" />
    <glyph glyph-name="wacute" unicode="&#x1e83;" horiz-adv-x="1591" 
d="M768 1249l147 238h70l-164 -238h-53zM416 0l-367 1085h66l338 -1024l313 1024h61l312 -1024l338 1024h65l-366 -1085h-74l-305 991l-308 -991h-73z" />
    <glyph glyph-name="Wdieresis" unicode="&#x1e84;" horiz-adv-x="1871" 
d="M770 1655v143h70v-143h-70zM1032 1655v143h70v-143h-70zM494 0l-408 1454h68l387 -1386l350 1386h90l350 -1386l387 1386h68l-408 -1454h-98l-344 1384l-344 -1384h-98z" />
    <glyph glyph-name="wdieresis" unicode="&#x1e85;" horiz-adv-x="1591" 
d="M631 1286v144h69v-144h-69zM893 1286v144h70v-144h-70zM416 0l-367 1085h66l338 -1024l313 1024h61l312 -1024l338 1024h65l-366 -1085h-74l-305 991l-308 -991h-73z" />
    <glyph glyph-name="uni1E9E" unicode="&#x1e9e;" horiz-adv-x="1339" 
d="M197 0v1085q0 192 86.5 280.5t273.5 88.5h592v-86l-555 -532q307 0 470 -108.5t163 -317.5q0 -194 -136.5 -302t-359.5 -108h-274v61h274q192 0 309 92t117 257q0 184 -138 274t-429 90h-72v68l567 551h-526q-161 0 -229 -70t-68 -236v-1087h-65z" />
    <glyph glyph-name="uni1EBC" unicode="&#x1ebc;" horiz-adv-x="1173" 
d="M739 1659q-41 0 -70.5 15.5t-60.5 49.5q-27 30 -51 44t-59 14q-97 0 -103 -133h-53q6 85 48.5 133.5t107.5 48.5q46 0 79 -18.5t68 -55.5q49 -49 94 -49q41 0 62.5 33t27.5 108h54q-6 -90 -43 -140t-101 -50zM197 0v1454h858v-61h-793v-637h768v-62h-768v-633h809v-61
h-874z" />
    <glyph glyph-name="uni1EBD" unicode="&#x1ebd;" 
d="M676 1290q-41 0 -70.5 16t-60.5 50q-27 30 -51.5 43.5t-59.5 13.5q-96 0 -102 -133h-53q6 85 48 133.5t107 48.5q46 0 79.5 -18.5t68.5 -54.5q50 -50 94 -50q40 0 62 33.5t28 108.5h53q-6 -91 -42.5 -141t-100.5 -50zM573 -25q-113 0 -204 45.5t-148.5 124t-88 180
t-30.5 218.5q0 93 18.5 177t56.5 155.5t92 123.5t130 81.5t166 29.5q91 0 167 -29t129.5 -80.5t90.5 -121.5t54.5 -151t17.5 -171v-25h-856q3 -229 113 -362t292 -133q141 0 233.5 69.5t127.5 190.5l67 -4q-41 -143 -154 -230.5t-274 -87.5zM168 590h788q-6 213 -107.5 336
t-283.5 123q-172 0 -279.5 -123t-117.5 -336z" />
    <glyph glyph-name="Ygrave" unicode="&#x1ef2;" horiz-adv-x="1107" 
d="M528 1634l-163 238h69l148 -238h-54zM522 0v594l-526 860h78l481 -799l479 799h78l-524 -860v-594h-66z" />
    <glyph glyph-name="ygrave" unicode="&#x1ef3;" horiz-adv-x="1017" 
d="M498 1266l-164 237h69l148 -237h-53zM180 -307v57h82q87 0 128.5 30t72.5 114l47 126h-33l-428 1065h66l407 -1024l381 1024h66l-457 -1216q-37 -98 -91.5 -137t-158.5 -39h-82z" />
    <glyph glyph-name="uni1EF8" unicode="&#x1ef8;" horiz-adv-x="1107" 
d="M668 1659q-41 0 -70.5 15.5t-60.5 49.5q-27 30 -51.5 44t-59.5 14q-96 0 -102 -133h-54q6 85 48.5 133.5t107.5 48.5q46 0 79 -18.5t68 -55.5q49 -49 95 -49q41 0 62.5 33t27.5 108h53q-6 -90 -42.5 -140t-100.5 -50zM522 0v594l-526 860h78l481 -799l479 799h78
l-524 -860v-594h-66z" />
    <glyph glyph-name="uni1EF9" unicode="&#x1ef9;" horiz-adv-x="1017" 
d="M637 1290q-41 0 -70.5 16t-60.5 50q-27 30 -51.5 43.5t-59.5 13.5q-96 0 -102 -133h-53q6 85 48 133.5t107 48.5q46 0 79.5 -18.5t68.5 -54.5q50 -50 94 -50q40 0 62 33.5t28 108.5h53q-6 -91 -42.5 -141t-100.5 -50zM180 -307v57h82q87 0 128.5 30t72.5 114l47 126h-33
l-428 1065h66l407 -1024l381 1024h66l-457 -1216q-37 -98 -91.5 -137t-158.5 -39h-82z" />
    <glyph glyph-name="endash" unicode="&#x2013;" horiz-adv-x="1163" 
d="M102 547v61h959v-61h-959z" />
    <glyph glyph-name="emdash" unicode="&#x2014;" horiz-adv-x="1810" 
d="M102 547v61h1606v-61h-1606z" />
    <glyph glyph-name="quoteleft" unicode="&#x2018;" horiz-adv-x="331" 
d="M229 1487l-65 -256h59v-133h-121v116l82 273h45z" />
    <glyph glyph-name="quoteright" unicode="&#x2019;" horiz-adv-x="331" 
d="M102 1065l66 256h-59v133h120v-117l-82 -272h-45z" />
    <glyph glyph-name="quotesinglbase" unicode="&#x201a;" horiz-adv-x="331" 
d="M102 -256l66 256h-59v133h120v-117l-82 -272h-45z" />
    <glyph glyph-name="quotedblleft" unicode="&#x201c;" horiz-adv-x="557" 
d="M229 1487l-65 -256h59v-133h-121v116l82 273h45zM455 1487l-66 -256h60v-133h-121v116l82 273h45z" />
    <glyph glyph-name="quotedblright" unicode="&#x201d;" horiz-adv-x="557" 
d="M328 1065l65 256h-59v133h121v-117l-82 -272h-45zM102 1065l66 256h-59v133h120v-117l-82 -272h-45z" />
    <glyph glyph-name="quotedblbase" unicode="&#x201e;" horiz-adv-x="557" 
d="M328 -268l65 256h-59v133h121v-117l-82 -272h-45zM102 -268l66 256h-59v133h120v-117l-82 -272h-45z" />
    <glyph glyph-name="dagger" unicode="&#x2020;" horiz-adv-x="1130" 
d="M532 0v1024h-335v61h335v369h66v-369h336v-61h-336v-1024h-66z" />
    <glyph glyph-name="daggerdbl" unicode="&#x2021;" horiz-adv-x="1124" 
d="M197 362v62h333v600h-333v61h333v369h66v-369h332v-61h-332v-600h332v-62h-332v-362h-66v362h-333z" />
    <glyph glyph-name="bullet" unicode="&#x2022;" horiz-adv-x="448" 
d="M225 492q-54 0 -88.5 34.5t-34.5 85.5q0 54 34.5 87.5t88.5 33.5t87.5 -33.5t33.5 -87.5q0 -52 -34 -86t-87 -34z" />
    <glyph glyph-name="ellipsis" unicode="&#x2026;" horiz-adv-x="1083" 
d="M102 0v133h121v-133h-121zM481 0v133h121v-133h-121zM860 0v133h121v-133h-121z" />
    <glyph glyph-name="perthousand" unicode="&#x2030;" horiz-adv-x="2058" 
d="M356 815q-115 0 -184.5 88t-69.5 240t69.5 239.5t184.5 87.5t184.5 -87.5t69.5 -239.5t-69.5 -240t-184.5 -88zM141 0l1043 1454h61l-1042 -1454h-62zM356 872q91 0 142 69t51 202t-51 201.5t-142 68.5t-141.5 -68.5t-50.5 -201.5t50.5 -202t141.5 -69zM1030 -16
q-115 0 -184.5 87.5t-69.5 239.5t69.5 240t184.5 88t184.5 -88t69.5 -240t-69.5 -239.5t-184.5 -87.5zM1702 -16q-115 0 -184.5 87.5t-69.5 239.5t69.5 240t184.5 88t184.5 -88t69.5 -240t-69.5 -239.5t-184.5 -87.5zM1030 41q91 0 142 68.5t51 201.5t-51 202t-142 69
t-141.5 -69t-50.5 -202t50.5 -201.5t141.5 -68.5zM1702 41q91 0 141.5 68.5t50.5 201.5t-50.5 202t-141.5 69t-142 -69t-51 -202t51 -201.5t142 -68.5z" />
    <glyph glyph-name="minute" unicode="&#x2032;" horiz-adv-x="315" 
d="M82 971l86 483h65l-94 -483h-57z" />
    <glyph glyph-name="second" unicode="&#x2033;" horiz-adv-x="487" 
d="M82 971l86 483h65l-94 -483h-57zM254 971l86 483h66l-95 -483h-57z" />
    <glyph glyph-name="guilsinglleft" unicode="&#x2039;" horiz-adv-x="610" 
d="M508 156h-82l-324 379v61l324 379h82l-350 -410z" />
    <glyph glyph-name="guilsinglright" unicode="&#x203a;" horiz-adv-x="610" 
d="M102 156l351 409l-351 410h82l324 -379v-61l-324 -379h-82z" />
    <glyph glyph-name="fraction" unicode="&#x2044;" horiz-adv-x="284" 
d="M-410 0l1043 1454h61l-1042 -1454h-62z" />
    <glyph glyph-name="uni2070" unicode="&#x2070;" horiz-adv-x="765" 
d="M383 645q-140 0 -220.5 111t-80.5 303q0 193 80 302t221 109t221 -109t80 -302q0 -192 -80.5 -303t-220.5 -111zM143 1059q0 -152 54 -246l338 539q-59 65 -152 65q-112 0 -176 -95.5t-64 -262.5zM383 698q110 0 175 97t65 264q0 154 -54 248l-340 -541q62 -68 154 -68z
" />
    <glyph glyph-name="uni2074" unicode="&#x2074;" horiz-adv-x="641" 
d="M412 662v194h-392v45l392 553h57v-545h131v-53h-131v-194h-57zM86 909h326v463z" />
    <glyph glyph-name="uni2075" unicode="&#x2075;" horiz-adv-x="686" 
d="M348 645q-117 0 -185.5 57t-80.5 152l65 6q6 -75 57 -116.5t144 -41.5q96 0 155.5 60t59.5 156q0 98 -53.5 154t-144.5 56q-145 0 -211 -135h-64l57 461h431v-57h-379l-43 -328q21 50 79 83.5t134 33.5q117 0 186.5 -72.5t69.5 -195.5q0 -120 -76.5 -196.5t-200.5 -76.5z
" />
    <glyph glyph-name="uni2076" unicode="&#x2076;" horiz-adv-x="716" 
d="M367 645q-137 0 -211 92t-74 277q0 206 81 331t224 125q186 0 244 -192l-58 -8q-20 75 -65 111t-121 36q-109 0 -174.5 -101t-69.5 -280q31 72 91.5 113t138.5 41q116 0 189 -73.5t73 -190.5q0 -126 -73.5 -203.5t-194.5 -77.5zM367 698q91 0 148.5 63t57.5 165
q0 92 -56 151.5t-144 59.5q-89 0 -154 -64t-65 -155q0 -98 60 -159t153 -61z" />
    <glyph glyph-name="uni2077" unicode="&#x2077;" horiz-adv-x="585" 
d="M217 662q0 176 76 373t196 362h-448v57h504v-57q-116 -162 -189 -358.5t-73 -376.5h-66z" />
    <glyph glyph-name="uni2078" unicode="&#x2078;" horiz-adv-x="700" 
d="M350 645q-134 0 -211.5 56t-77.5 169q0 171 181 224q-142 42 -142 172q0 204 250 204t250 -204q0 -130 -141 -172q180 -53 180 -224q0 -113 -77.5 -169t-211.5 -56zM350 1122q86 0 137.5 36t51.5 108q0 74 -44.5 110.5t-144.5 36.5t-144 -36.5t-44 -110.5q0 -72 51 -108
t137 -36zM350 702q228 0 228 172q0 87 -64 141t-164 54t-163.5 -54t-63.5 -141q0 -172 227 -172z" />
    <glyph glyph-name="uni2079" unicode="&#x2079;" horiz-adv-x="716" 
d="M350 1470q137 0 211 -91.5t74 -276.5q0 -206 -81.5 -331.5t-223.5 -125.5q-186 0 -244 193l57 8q20 -76 65.5 -112t121.5 -36q109 0 174 101t69 280q-31 -72 -91 -112.5t-138 -40.5q-116 0 -189 73.5t-73 190.5q0 126 73.5 203t194.5 77zM350 1417q-91 0 -149 -62.5
t-58 -164.5q0 -92 56.5 -151.5t144.5 -59.5q89 0 154 64t65 155q0 97 -60 158t-153 61z" />
    <glyph glyph-name="uni2080" unicode="&#x2080;" horiz-adv-x="765" 
d="M383 -221q-140 0 -220.5 111t-80.5 303q0 193 80 302t221 109t221 -109t80 -302q0 -192 -80.5 -303t-220.5 -111zM143 193q0 -152 54 -246l338 538q-60 66 -152 66q-112 0 -176 -95.5t-64 -262.5zM383 -168q110 0 175 97t65 264q0 153 -54 247l-340 -540q62 -68 154 -68z
" />
    <glyph glyph-name="uni2081" unicode="&#x2081;" horiz-adv-x="421" 
d="M242 -205v586h-201v45h27q186 0 186 162h45v-793h-57z" />
    <glyph glyph-name="uni2082" unicode="&#x2082;" horiz-adv-x="704" 
d="M82 -205q0 127 52.5 201t189.5 149l67 37q103 56 133.5 95.5t30.5 101.5q0 81 -51 124.5t-144 43.5q-178 0 -215 -207l-61 6q14 123 86 190.5t190 67.5q120 0 188 -59.5t68 -165.5q0 -82 -41.5 -133t-150.5 -109l-62 -33q-114 -61 -163 -119.5t-47 -131.5h471v-58h-541z
" />
    <glyph glyph-name="uni2083" unicode="&#x2083;" horiz-adv-x="669" 
d="M330 -221q-141 0 -212 59.5t-77 165.5l63 6q6 -88 57 -131t169 -43q217 0 217 180q0 77 -56 127t-155 50h-57v53h57q78 0 129 38t51 124q0 139 -188 139q-177 0 -193 -148l-65 9q12 92 80 144t178 52q122 0 186 -52.5t64 -143.5q0 -70 -40 -119t-110 -70
q90 -21 135 -74.5t45 -128.5q0 -107 -74 -172t-204 -65z" />
    <glyph glyph-name="uni2084" unicode="&#x2084;" horiz-adv-x="641" 
d="M412 -205v195h-392v45l392 553h57v-545h131v-53h-131v-195h-57zM86 43h326v463z" />
    <glyph glyph-name="uni2085" unicode="&#x2085;" horiz-adv-x="686" 
d="M348 -221q-117 0 -185.5 57t-80.5 152l65 6q6 -75 57 -116.5t144 -41.5q96 0 155.5 59.5t59.5 155.5q0 98 -53.5 154.5t-144.5 56.5q-145 0 -211 -135h-64l57 461h431v-58h-379l-43 -327q21 50 78.5 83t134.5 33q117 0 186.5 -72.5t69.5 -195.5q0 -119 -76.5 -195.5
t-200.5 -76.5z" />
    <glyph glyph-name="uni2086" unicode="&#x2086;" horiz-adv-x="716" 
d="M367 -221q-137 0 -211 91.5t-74 276.5q0 206 81.5 331.5t223.5 125.5q186 0 244 -192l-58 -9q-20 76 -65 112t-121 36q-109 0 -174.5 -101t-69.5 -280q31 72 91.5 113t138.5 41q116 0 189 -74t73 -191q0 -126 -73.5 -203t-194.5 -77zM367 -168q91 0 148.5 62.5
t57.5 164.5q0 92 -56 151.5t-144 59.5q-89 0 -154 -64t-65 -155q0 -97 60 -158t153 -61z" />
    <glyph glyph-name="uni2087" unicode="&#x2087;" horiz-adv-x="585" 
d="M217 -205q0 176 76 373t196 362h-448v58h504v-58q-116 -162 -189 -358.5t-73 -376.5h-66z" />
    <glyph glyph-name="uni2088" unicode="&#x2088;" horiz-adv-x="700" 
d="M350 -221q-134 0 -211.5 56t-77.5 169q0 170 181 223q-142 42 -142 172q0 205 250 205t250 -205q0 -130 -141 -172q180 -53 180 -223q0 -113 -77.5 -169t-211.5 -56zM350 256q86 0 137.5 35.5t51.5 107.5q0 74 -44.5 111t-144.5 37t-144 -37t-44 -111q0 -72 51 -107.5
t137 -35.5zM350 -164q228 0 228 172q0 87 -64 141t-164 54t-163.5 -54t-63.5 -141q0 -172 227 -172z" />
    <glyph glyph-name="uni2089" unicode="&#x2089;" horiz-adv-x="716" 
d="M350 604q137 0 211 -91.5t74 -276.5q0 -206 -81.5 -331.5t-223.5 -125.5q-186 0 -244 192l57 9q20 -76 65.5 -112t121.5 -36q109 0 174 101t69 280q-31 -72 -91 -113t-138 -41q-116 0 -189 74t-73 191q0 126 73.5 203t194.5 77zM350 551q-91 0 -149 -62.5t-58 -164.5
q0 -92 56.5 -151.5t144.5 -59.5q89 0 154 64t65 155q0 97 -60 158t-153 61z" />
    <glyph glyph-name="uni20AA" unicode="&#x20aa;" horiz-adv-x="1488" 
d="M541 0v1137h65v-1076h436q82 0 133.5 66t51.5 170v1157h65v-1147q0 -135 -71 -221t-183 -86h-497zM197 0v1454h497q112 0 183 -86t71 -221v-830h-65v840q0 104 -51.5 170t-133.5 66h-436v-1393h-65z" />
    <glyph glyph-name="Euro" unicode="&#x20ac;" horiz-adv-x="1503" 
d="M123 543v61h199q-7 68 -7 121q0 69 9 133h-201v62h211q47 252 202 409.5t377 157.5q190 0 318.5 -123.5t171.5 -339.5l-70 -6q-37 189 -146.5 296t-273.5 107q-192 0 -329.5 -136t-180.5 -365h621l-10 -62h-621q-8 -57 -8 -133q0 -62 6 -121h586l-8 -61h-568
q42 -232 180 -371t332 -139q178 0 289.5 116t138.5 320l70 -6q-33 -228 -157 -362t-341 -134q-224 0 -380.5 160.5t-200.5 415.5h-209z" />
    <glyph glyph-name="uni20B4" unicode="&#x20b4;" horiz-adv-x="1343" 
d="M123 836v61h823q98 80 98 209q0 139 -92.5 227t-269.5 88q-145 0 -244 -88t-147 -256l-64 17q51 190 167.5 291.5t285.5 101.5q206 0 318 -107.5t112 -273.5q0 -58 -22.5 -115t-63.5 -94h197v-61h-1098zM657 -25q-200 0 -320 105t-120 270q0 110 53 187h-147v61h1098v-61
h-879q-59 -75 -59 -187q0 -136 99 -222.5t265 -86.5q169 0 280 80t146 229l72 -6q-111 -369 -488 -369z" />
    <glyph glyph-name="uni20B9" unicode="&#x20b9;" horiz-adv-x="1306" 
d="M840 0l-643 604v94h338q171 0 285 79.5t124 221.5h-747v62h745q-15 141 -130.5 236.5t-276.5 95.5h-338v61h997v-61h-430q104 -49 169.5 -135.5t74.5 -196.5h186v-62h-184q-11 -158 -144 -260t-331 -102h-283l680 -637h-92z" />
    <glyph glyph-name="uni20BD" unicode="&#x20bd;" horiz-adv-x="1378" 
d="M82 295v61h227v1098h486q229 0 360 -113t131 -307q0 -190 -131 -299.5t-360 -109.5h-420v-269h403v-61h-403v-295h-66v295h-227zM375 686h420q203 0 312.5 90.5t109.5 257.5q0 172 -110 265.5t-312 93.5h-420v-707z" />
    <glyph glyph-name="uni2107" unicode="&#x2107;" horiz-adv-x="1171" 
d="M598 -33q-214 0 -355 121.5t-141 310.5q0 131 84.5 236t223.5 151q-117 40 -187.5 127.5t-70.5 194.5q0 167 120.5 273t309.5 106q128 0 245.5 -60.5t192.5 -164.5l-47 -54q-70 98 -176 155.5t-215 57.5q-158 0 -259.5 -87.5t-101.5 -225.5q0 -129 108 -212t269 -83
l115 2v-63l-115 2q-183 0 -304.5 -97.5t-121.5 -248.5q0 -168 121 -271.5t305 -103.5q115 0 224.5 59t199.5 168l47 -51q-98 -117 -220.5 -179.5t-250.5 -62.5z" />
    <glyph glyph-name="uni2116" unicode="&#x2116;" horiz-adv-x="2211" 
d="M197 0v1454h96l901 -1393v1393h66v-1454h-97l-901 1393v-1393h-65zM1718 299q-139 0 -219 96t-80 260q0 165 80 263t219 98q138 0 217.5 -97.5t79.5 -263.5q0 -163 -80 -259.5t-217 -96.5zM1718 350q114 0 177 82t63 223q0 144 -63.5 227t-176.5 83q-114 0 -177.5 -83
t-63.5 -227q0 -141 63.5 -223t177.5 -82zM1452 0v57h533v-57h-533z" />
    <glyph glyph-name="uni2117" unicode="&#x2117;" horiz-adv-x="1308" 
d="M655 383q-113 0 -215.5 44t-176.5 118t-117.5 175.5t-43.5 213.5q0 113 43.5 215.5t117.5 176.5t176.5 117.5t215.5 43.5q112 0 214 -43.5t176 -117.5t117.5 -176.5t43.5 -215.5q0 -149 -73.5 -276t-200.5 -201t-277 -74zM655 432q134 0 249.5 68.5t183 184t67.5 249.5
q0 135 -67.5 251t-182.5 184.5t-250 68.5t-250.5 -68.5t-183 -184.5t-67.5 -251q0 -134 67.5 -249.5t183.5 -184t250 -68.5zM485 614v637h205q107 0 169.5 -50t62.5 -136t-62 -134t-170 -48h-149v-269h-56zM541 938h166q77 0 120 33t43 98q0 60 -44 95.5t-119 35.5h-166
v-262z" />
    <glyph glyph-name="trademark" unicode="&#x2122;" horiz-adv-x="1808" 
d="M905 735v719h115l240 -653l239 653h113v-719h-62v676l-254 -676h-73l-256 680v-680h-62zM455 735v660h-258v59h577v-59h-258v-660h-61z" />
    <glyph glyph-name="uni2153" unicode="&#x2153;" horiz-adv-x="1458" 
d="M242 662v585h-201v45h27q186 0 186 162h45v-792h-57zM94 0l1043 1454h61l-1042 -1454h-62zM1118 -16q-141 0 -212 59.5t-77 165.5l64 6q6 -88 56.5 -131t168.5 -43q217 0 217 180q0 77 -56 126.5t-155 49.5h-57v54h57q78 0 129.5 38t51.5 123q0 66 -46.5 103t-142.5 37
q-176 0 -192 -148l-66 8q12 93 80 145t178 52q122 0 186 -53t64 -144q0 -70 -39.5 -118.5t-109.5 -69.5q90 -21 135 -74.5t45 -128.5q0 -107 -74.5 -172t-204.5 -65z" />
    <glyph glyph-name="uni2154" unicode="&#x2154;" horiz-adv-x="1658" 
d="M82 662q0 127 52.5 201t189.5 149l67 37q103 56 133.5 95t30.5 101q0 81 -51 124.5t-144 43.5q-178 0 -215 -207l-61 6q14 123 86 190.5t190 67.5q120 0 188 -59.5t68 -165.5q0 -82 -41.5 -132.5t-150.5 -108.5l-62 -33q-114 -61 -163 -120t-47 -132h471v-57h-541zM295 0
l1042 1454h62l-1043 -1454h-61zM1319 -16q-141 0 -212 59.5t-77 165.5l64 6q6 -88 56.5 -131t168.5 -43q217 0 217 180q0 77 -56 126.5t-155 49.5h-57v54h57q78 0 129 38t51 123q0 66 -46 103t-142 37q-177 0 -193 -148l-65 8q12 93 80 145t178 52q122 0 186 -53t64 -144
q0 -69 -40 -118t-110 -70q90 -21 135 -74.5t45 -128.5q0 -107 -74 -172t-204 -65z" />
    <glyph glyph-name="uni2155" unicode="&#x2155;" horiz-adv-x="1474" 
d="M242 662v585h-201v45h27q186 0 186 162h45v-792h-57zM94 0l1043 1454h61l-1042 -1454h-62zM1137 -16q-117 0 -186 57t-81 152l66 6q6 -75 57 -116.5t144 -41.5q96 0 155.5 59.5t59.5 155.5q0 98 -54 154.5t-145 56.5q-145 0 -211 -135h-63l57 461h430v-58h-379l-43 -327
q21 50 78.5 83t134.5 33q117 0 186.5 -72.5t69.5 -195.5q0 -120 -76.5 -196t-199.5 -76z" />
    <glyph glyph-name="oneeighth" unicode="&#x215b;" horiz-adv-x="1488" 
d="M242 662v585h-201v45h27q186 0 186 162h45v-792h-57zM94 0l1043 1454h61l-1042 -1454h-62zM1139 -16q-134 0 -211.5 56t-77.5 169q0 170 180 223q-141 42 -141 172q0 205 250 205t250 -205q0 -130 -142 -172q180 -53 180 -223q0 -113 -77 -169t-211 -56zM1139 461
q86 0 137 35.5t51 107.5q0 74 -44 111t-144 37t-144.5 -37t-44.5 -111q0 -72 51.5 -107.5t137.5 -35.5zM1139 41q227 0 227 172q0 87 -63.5 141t-163.5 54t-164 -54t-64 -141q0 -172 228 -172z" />
    <glyph glyph-name="threeeighths" unicode="&#x215c;" horiz-adv-x="1654" 
d="M330 645q-141 0 -212 59.5t-77 165.5l63 7q6 -88 57 -131.5t169 -43.5q109 0 163 46.5t54 134.5q0 77 -56 126.5t-155 49.5h-57v53h57q78 0 129 38t51 124q0 139 -188 139q-177 0 -193 -147l-65 8q12 92 80 144t178 52q122 0 186 -52.5t64 -143.5q0 -70 -40 -119
t-110 -70q90 -21 135 -74.5t45 -127.5q0 -108 -74 -173t-204 -65zM260 0l1043 1454h61l-1042 -1454h-62zM1305 -16q-134 0 -211.5 56t-77.5 169q0 170 180 223q-141 42 -141 172q0 205 250 205q249 0 249 -205q0 -130 -141 -172q180 -53 180 -223q0 -113 -77 -169t-211 -56z
M1305 461q86 0 137 35.5t51 107.5q0 74 -44 111t-144 37t-144.5 -37t-44.5 -111q0 -72 51.5 -107.5t137.5 -35.5zM1305 41q227 0 227 172q0 87 -63.5 141t-163.5 54t-164 -54t-64 -141q0 -172 228 -172z" />
    <glyph glyph-name="fiveeighths" unicode="&#x215d;" horiz-adv-x="1671" 
d="M348 645q-117 0 -185.5 57t-80.5 152l65 6q6 -75 57 -116.5t144 -41.5q96 0 155.5 60t59.5 156q0 98 -53.5 154t-144.5 56q-145 0 -211 -135h-64l57 461h431v-57h-379l-43 -328q21 50 79 83.5t134 33.5q117 0 186.5 -72.5t69.5 -195.5q0 -120 -76.5 -196.5t-200.5 -76.5z
M276 0l1043 1454h61l-1042 -1454h-62zM1321 -16q-134 0 -211.5 56t-77.5 169q0 170 180 223q-141 42 -141 172q0 205 250 205t250 -205q0 -130 -141 -172q180 -53 180 -223q0 -113 -77.5 -169t-211.5 -56zM1321 461q86 0 137 35.5t51 107.5q0 74 -44 111t-144 37t-144 -37
t-44 -111q0 -72 51 -107.5t137 -35.5zM1321 41q227 0 227 172q0 87 -63.5 141t-163.5 54t-163.5 -54t-63.5 -141q0 -172 227 -172z" />
    <glyph glyph-name="seveneighths" unicode="&#x215e;" horiz-adv-x="1509" 
d="M217 662q0 176 76 373t196 362h-448v57h504v-57q-116 -162 -189 -358.5t-73 -376.5h-66zM115 0l1042 1454h62l-1043 -1454h-61zM1159 -16q-134 0 -211.5 56t-77.5 169q0 170 181 223q-142 42 -142 172q0 205 250 205t250 -205q0 -130 -141 -172q180 -53 180 -223
q0 -113 -77.5 -169t-211.5 -56zM1159 461q86 0 137.5 35.5t51.5 107.5q0 74 -44.5 111t-144.5 37t-144 -37t-44 -111q0 -72 51 -107.5t137 -35.5zM1159 41q227 0 227 172q0 87 -63.5 141t-163.5 54t-163.5 -54t-63.5 -141q0 -172 227 -172z" />
    <glyph glyph-name="arrowleft" unicode="&#x2190;" horiz-adv-x="1658" 
d="M834 88h-89l-643 643l641 643h88l-610 -610h1335v-66h-1331z" />
    <glyph glyph-name="arrowup" unicode="&#x2191;" horiz-adv-x="1490" 
d="M713 0v1335l-611 -610v88l643 641l644 -643v-88l-611 608v-1331h-65z" />
    <glyph glyph-name="arrowright" unicode="&#x2192;" horiz-adv-x="1658" 
d="M102 764h1336l-611 610h88l641 -643l-643 -643h-88l609 610h-1332v66z" />
    <glyph glyph-name="arrowdown" unicode="&#x2193;" horiz-adv-x="1490" 
d="M1389 731v-88l-644 -643l-643 641v88l611 -610v1335h65v-1331z" />
    <glyph glyph-name="arrowboth" unicode="&#x2194;" horiz-adv-x="2048" 
d="M834 88h-89l-643 643l641 643h88l-610 -610h1606l-610 610h88l641 -643l-643 -643h-89l609 610h-1598z" />
    <glyph glyph-name="arrowupdn" unicode="&#x2195;" horiz-adv-x="1490" 
d="M102 403l611 -608v1598l-611 -609v88l643 644l644 -642v-88l-611 611v-1606l611 610v-88l-644 -641l-643 643v88z" />
    <glyph glyph-name="uni2196" unicode="&#x2196;" horiz-adv-x="1255" 
d="M164 485l-62 64v909h908l61 -61h-862l944 -944l-47 -47l-940 942z" />
    <glyph glyph-name="uni2197" unicode="&#x2197;" horiz-adv-x="1255" 
d="M102 453l945 944h-863l62 61h907v-909l-61 -64l-2 863l-940 -942z" />
    <glyph glyph-name="uni2198" unicode="&#x2198;" horiz-adv-x="1257" 
d="M182 66l862 2l-942 940l48 47l944 -944v862l61 -62v-907h-909z" />
    <glyph glyph-name="uni2199" unicode="&#x2199;" horiz-adv-x="1257" 
d="M1075 66l-63 -62h-910v907l62 62v-862l944 944l47 -47l-942 -940z" />
    <glyph glyph-name="uni219D" unicode="&#x219d;" horiz-adv-x="1210" 
d="M723 436q-83 0 -141.5 62t-79.5 164q-21 99 -56 149.5t-104 50.5q-50 0 -93 -32t-71 -89h-76q38 94 101 142.5t135 48.5q87 0 142 -61t75 -162q21 -108 56 -154.5t106 -46.5q47 0 94 30t78 80l-156 91l348 163l27 -383l-164 97q-101 -150 -221 -150z" />
    <glyph glyph-name="uni21A9" unicode="&#x21a9;" horiz-adv-x="1320" 
d="M596 178h-88l-406 406l404 405h88l-373 -373h567q153 0 259 92t106 224q0 154 -105.5 259t-259.5 105h-604v66h604q182 0 306.5 -124.5t124.5 -305.5q0 -160 -125 -270.5t-306 -110.5h-563z" />
    <glyph glyph-name="uni21AA" unicode="&#x21aa;" horiz-adv-x="1320" 
d="M725 178l371 373h-564q-181 0 -305.5 110.5t-124.5 270.5q0 182 124 306t306 124h605v-66h-605q-154 0 -259 -105t-105 -259q0 -132 105.5 -224t258.5 -92h568l-373 373h88l404 -405l-406 -406h-88z" />
    <glyph glyph-name="uni21B0" unicode="&#x21b0;" horiz-adv-x="1314" 
d="M420 659l-318 252l316 252v-221h794v-942h-61v881h-731v-222z" />
    <glyph glyph-name="uni21B1" unicode="&#x21b1;" horiz-adv-x="1314" 
d="M164 0h-62v942h795v221l315 -252l-317 -252v222h-731v-881z" />
    <glyph glyph-name="uni21B3" unicode="&#x21b3;" horiz-adv-x="1314" 
d="M895 795l317 -252l-315 -252v221h-795v942h62v-881h731v222z" />
    <glyph glyph-name="uni21B4" unicode="&#x21b4;" horiz-adv-x="1308" 
d="M954 0l-252 315h222v1037h-822v61h883v-1096h221z" />
    <glyph glyph-name="carriagereturn" unicode="&#x21b5;" horiz-adv-x="1314" 
d="M420 795v-222h731v881h61v-942h-794v-221l-316 252z" />
    <glyph glyph-name="uni21E4" unicode="&#x21e4;" horiz-adv-x="1310" 
d="M102 326v798h62v-798h-62zM573 477l-317 252l315 252v-221h637v-66h-635v-217z" />
    <glyph glyph-name="uni21E5" unicode="&#x21e5;" horiz-adv-x="1310" 
d="M1208 326h-61v798h61v-798zM737 477v217h-635v66h637v221l316 -252z" />
    <glyph glyph-name="uni21E7" unicode="&#x21e7;" horiz-adv-x="1388" 
d="M387 0v823h-338l645 645l645 -645h-338v-823h-614zM453 66h483v819h252l-494 493l-493 -493h252v-819z" />
    <glyph glyph-name="partialdiff" unicode="&#x2202;" horiz-adv-x="1062" 
d="M510 -23q-184 0 -296 134t-112 360t115.5 360t312.5 134q124 0 215 -54.5t148 -140.5q-96 538 -682 655l16 62q166 -35 293.5 -101t210 -151t135 -196t74 -228.5t21.5 -255.5q0 -274 -118.5 -426t-332.5 -152zM510 35q186 0 287.5 132t101.5 368q0 158 -105 265t-264 107
q-170 0 -268 -116.5t-98 -319.5q0 -201 94.5 -318.5t251.5 -117.5z" />
    <glyph glyph-name="uni2206" unicode="&#x2206;" horiz-adv-x="1306" 
d="M49 0v61l555 1393h98l555 -1393v-61h-1208zM115 61h1077l-539 1332z" />
    <glyph glyph-name="product" unicode="&#x220f;" horiz-adv-x="1216" 
d="M313 -307v1700h-284v61h1159v-61h-277v-1700h-65v1700h-467v-1700h-66z" />
    <glyph glyph-name="summation" unicode="&#x2211;" horiz-adv-x="1064" 
d="M61 0v61l424 666l-424 666v61h943v-61h-877l420 -666l-420 -666h877v-61h-943z" />
    <glyph glyph-name="minus" unicode="&#x2212;" horiz-adv-x="1064" 
d="M82 532v62h901v-62h-901z" />
    <glyph glyph-name="radical" unicode="&#x221a;" horiz-adv-x="1298" 
d="M297 -307l-248 1057h64l233 -1006l369 1710h534v-61h-483l-369 -1700h-100z" />
    <glyph glyph-name="infinity" unicode="&#x221e;" horiz-adv-x="1695" 
d="M436 195q-151 0 -252.5 97.5t-101.5 262.5q0 169 100.5 264.5t253.5 95.5q121 0 222 -71.5t190 -225.5q70 136 181.5 216.5t230.5 80.5q150 0 252 -99.5t102 -260.5t-102 -260.5t-252 -99.5q-254 0 -410 297q-72 -142 -181 -219.5t-233 -77.5zM1255 258q127 0 208 78
t81 219q0 142 -83.5 218.5t-221.5 76.5q-198 -3 -365 -291q100 -170 184.5 -235.5t196.5 -65.5zM446 258q227 0 375 297q-174 293 -375 293q-134 2 -214 -74t-80 -219q0 -142 81.5 -219.5t212.5 -77.5z" />
    <glyph glyph-name="integral" unicode="&#x222b;" horiz-adv-x="718" 
d="M68 -307h-68l14 61h70q156 0 178 205l133 1221q17 137 84 205.5t172 68.5h68l-14 -61h-68q-72 0 -120 -53.5t-58 -151.5l-135 -1221q-29 -274 -256 -274z" />
    <glyph glyph-name="approxequal" unicode="&#x2248;" horiz-adv-x="987" 
d="M680 743q-57 0 -102 26t-99 87q-59 67 -93 91t-83 24q-65 0 -108.5 -60t-47.5 -157h-65q7 133 65.5 205.5t155.5 72.5q58 0 104.5 -28.5t96.5 -85.5q57 -66 94.5 -89.5t79.5 -23.5q69 0 113 59.5t49 155.5h65q-8 -132 -66.5 -204.5t-158.5 -72.5zM680 334q-57 0 -102 26
t-99 86q-59 67 -93 91t-83 24q-65 0 -108.5 -60t-47.5 -157h-65q7 133 65.5 206t155.5 73q58 0 104.5 -29t96.5 -86q57 -66 94.5 -89.5t79.5 -23.5q69 0 113 59.5t49 155.5h65q-7 -132 -66 -204t-159 -72z" />
    <glyph glyph-name="notequal" unicode="&#x2260;" horiz-adv-x="1064" 
d="M342 41l94 309h-354v62h373l110 360h-483v62h502l78 251h63l-78 -251h336v-62h-354l-111 -360h465v-62h-483l-94 -309h-64z" />
    <glyph glyph-name="lessequal" unicode="&#x2264;" horiz-adv-x="1093" 
d="M991 195l-909 409v70l909 409v-61l-862 -383l862 -383v-61zM991 0h-909v61h909v-61z" />
    <glyph glyph-name="greaterequal" unicode="&#x2265;" horiz-adv-x="1093" 
d="M102 195v61l863 383l-863 383v61l910 -409v-70zM102 0v61h910v-61h-910z" />
    <glyph glyph-name="uni23CE" unicode="&#x23ce;" horiz-adv-x="1689" 
d="M829 -111l-727 729l727 728v-490h283v598h475v-1073h-758v-492zM764 45v401h758v943h-344v-598h-414v399l-571 -572z" />
    <glyph glyph-name="uni240B" unicode="&#x240b;" horiz-adv-x="1228" 
d="M313 614l-207 676h70l186 -622h15l184 622h70l-207 -676h-111zM844 145v615h-215v61h493v-61h-215v-615h-63z" />
    <glyph glyph-name="uni240C" unicode="&#x240c;" horiz-adv-x="1228" 
d="M182 614v676h398v-61h-336v-244h317v-61h-317v-310h-62zM680 145v676h397v-61h-336v-244h318v-61h-318v-310h-61z" />
    <glyph glyph-name="uni2460" unicode="&#x2460;" horiz-adv-x="1716" 
d="M858 -25q-154 0 -294 60t-241 161t-161 241.5t-60 295.5q0 153 60 292.5t161 240.5t241 161t294 60t294 -60t241 -161t161 -240.5t60 -292.5q0 -155 -60 -295.5t-161 -241.5t-241 -161t-294 -60zM858 37q187 0 347 93.5t253.5 254t93.5 348.5q0 186 -93.5 345.5
t-253.5 253t-347 93.5t-347 -93.5t-253.5 -253t-93.5 -345.5q0 -188 93.5 -348.5t253.5 -254t347 -93.5zM862 328v585h-200v45h26q186 0 186 162h46v-792h-58z" />
    <glyph glyph-name="uni2461" unicode="&#x2461;" horiz-adv-x="1716" 
d="M858 -25q-154 0 -294 60t-241 161t-161 241.5t-60 295.5q0 153 60 292.5t161 240.5t241 161t294 60t294 -60t241 -161t161 -240.5t60 -292.5q0 -155 -60 -295.5t-161 -241.5t-241 -161t-294 -60zM858 37q187 0 347 93.5t253.5 254t93.5 348.5q0 186 -93.5 345.5
t-253.5 253t-347 93.5t-347 -93.5t-253.5 -253t-93.5 -345.5q0 -188 93.5 -348.5t253.5 -254t347 -93.5zM590 328q0 127 52 201t189 149l68 37q103 56 133.5 95t30.5 101q0 81 -51 124.5t-144 43.5q-178 0 -215 -207l-61 7q14 123 86 190.5t190 67.5q120 0 188 -60t68 -166
q0 -82 -41.5 -132.5t-150.5 -108.5l-62 -33q-114 -61 -163.5 -120t-47.5 -132h471v-57h-540z" />
    <glyph glyph-name="uni2462" unicode="&#x2462;" horiz-adv-x="1716" 
d="M858 -25q-154 0 -294 60t-241 161t-161 241.5t-60 295.5q0 153 60 292.5t161 240.5t241 161t294 60t294 -60t241 -161t161 -240.5t60 -292.5q0 -155 -60 -295.5t-161 -241.5t-241 -161t-294 -60zM858 37q187 0 347 93.5t253.5 254t93.5 348.5q0 186 -93.5 345.5
t-253.5 253t-347 93.5t-347 -93.5t-253.5 -253t-93.5 -345.5q0 -188 93.5 -348.5t253.5 -254t347 -93.5zM864 311q-141 0 -212 60t-77 166l64 6q6 -88 56.5 -131t168.5 -43q217 0 217 180q0 77 -56 126.5t-155 49.5h-57v53h57q78 0 129.5 38.5t51.5 123.5q0 139 -189 139
q-176 0 -192 -147l-66 8q12 93 80 145t178 52q122 0 186 -53t64 -144q0 -70 -39.5 -118.5t-109.5 -69.5q90 -21 135 -74.5t45 -128.5q0 -107 -74.5 -172.5t-204.5 -65.5z" />
    <glyph glyph-name="uni2463" unicode="&#x2463;" horiz-adv-x="1716" 
d="M858 -25q-154 0 -294 60t-241 161t-161 241.5t-60 295.5q0 153 60 292.5t161 240.5t241 161t294 60t294 -60t241 -161t161 -240.5t60 -292.5q0 -155 -60 -295.5t-161 -241.5t-241 -161t-294 -60zM858 37q187 0 347 93.5t253.5 254t93.5 348.5q0 186 -93.5 345.5
t-253.5 253t-347 93.5t-347 -93.5t-253.5 -253t-93.5 -345.5q0 -188 93.5 -348.5t253.5 -254t347 -93.5zM928 328v194h-391v45l391 553h57v-545h131v-53h-131v-194h-57zM602 575h326v463z" />
    <glyph glyph-name="uni2464" unicode="&#x2464;" horiz-adv-x="1716" 
d="M858 -25q-154 0 -294 60t-241 161t-161 241.5t-60 295.5q0 153 60 292.5t161 240.5t241 161t294 60t294 -60t241 -161t161 -240.5t60 -292.5q0 -155 -60 -295.5t-161 -241.5t-241 -161t-294 -60zM858 37q187 0 347 93.5t253.5 254t93.5 348.5q0 186 -93.5 345.5
t-253.5 253t-347 93.5t-347 -93.5t-253.5 -253t-93.5 -345.5q0 -188 93.5 -348.5t253.5 -254t347 -93.5zM854 311q-117 0 -185.5 57t-80.5 152l65 6q6 -75 56.5 -116t144.5 -41q96 0 155.5 59.5t59.5 155.5q0 98 -54 154.5t-145 56.5q-145 0 -211 -136h-63l57 461h430v-57
h-378l-43 -328q21 50 78.5 83.5t133.5 33.5q117 0 186.5 -72.5t69.5 -195.5q0 -120 -76.5 -196.5t-199.5 -76.5z" />
    <glyph glyph-name="uni2465" unicode="&#x2465;" horiz-adv-x="1716" 
d="M858 -25q-154 0 -294 60t-241 161t-161 241.5t-60 295.5q0 153 60 292.5t161 240.5t241 161t294 60t294 -60t241 -161t161 -240.5t60 -292.5q0 -155 -60 -295.5t-161 -241.5t-241 -161t-294 -60zM858 37q187 0 347 93.5t253.5 254t93.5 348.5q0 186 -93.5 345.5
t-253.5 253t-347 93.5t-347 -93.5t-253.5 -253t-93.5 -345.5q0 -188 93.5 -348.5t253.5 -254t347 -93.5zM866 311q-137 0 -210.5 92t-73.5 277q0 206 81.5 331.5t223.5 125.5q185 0 243 -193l-57 -8q-20 75 -65 111t-121 36q-109 0 -174.5 -101t-69.5 -280q31 72 91 113
t138 41q116 0 189.5 -73.5t73.5 -190.5q0 -126 -74 -203.5t-195 -77.5zM866 365q91 0 149 62.5t58 164.5q0 92 -56.5 151.5t-144.5 59.5q-89 0 -154 -64t-65 -155q0 -97 60 -158t153 -61z" />
    <glyph glyph-name="uni2466" unicode="&#x2466;" horiz-adv-x="1716" 
d="M858 -25q-154 0 -294 60t-241 161t-161 241.5t-60 295.5q0 153 60 292.5t161 240.5t241 161t294 60t294 -60t241 -161t161 -240.5t60 -292.5q0 -155 -60 -295.5t-161 -241.5t-241 -161t-294 -60zM858 37q187 0 347 93.5t253.5 254t93.5 348.5q0 186 -93.5 345.5
t-253.5 253t-347 93.5t-347 -93.5t-253.5 -253t-93.5 -345.5q0 -188 93.5 -348.5t253.5 -254t347 -93.5zM778 328q0 175 76.5 372.5t196.5 362.5h-449v57h504v-57q-116 -162 -189 -358.5t-73 -376.5h-66z" />
    <glyph glyph-name="uni2467" unicode="&#x2467;" horiz-adv-x="1716" 
d="M858 -25q-154 0 -294 60t-241 161t-161 241.5t-60 295.5q0 153 60 292.5t161 240.5t241 161t294 60t294 -60t241 -161t161 -240.5t60 -292.5q0 -155 -60 -295.5t-161 -241.5t-241 -161t-294 -60zM858 37q187 0 347 93.5t253.5 254t93.5 348.5q0 186 -93.5 345.5
t-253.5 253t-347 93.5t-347 -93.5t-253.5 -253t-93.5 -345.5q0 -188 93.5 -348.5t253.5 -254t347 -93.5zM858 311q-134 0 -211.5 56.5t-77.5 169.5q0 170 181 223q-142 42 -142 172q0 205 250 205t250 -205q0 -130 -141 -172q180 -53 180 -223q0 -113 -77.5 -169.5
t-211.5 -56.5zM858 788q86 0 137.5 36t51.5 108q0 74 -44.5 110.5t-144.5 36.5t-144 -36.5t-44 -110.5q0 -72 51 -108t137 -36zM858 369q227 0 227 172q0 87 -63.5 140.5t-163.5 53.5t-163.5 -53.5t-63.5 -140.5q0 -172 227 -172z" />
    <glyph glyph-name="uni2468" unicode="&#x2468;" horiz-adv-x="1716" 
d="M858 -25q-154 0 -294 60t-241 161t-161 241.5t-60 295.5q0 153 60 292.5t161 240.5t241 161t294 60t294 -60t241 -161t161 -240.5t60 -292.5q0 -155 -60 -295.5t-161 -241.5t-241 -161t-294 -60zM858 37q187 0 347 93.5t253.5 254t93.5 348.5q0 186 -93.5 345.5
t-253.5 253t-347 93.5t-347 -93.5t-253.5 -253t-93.5 -345.5q0 -188 93.5 -348.5t253.5 -254t347 -93.5zM870 1137q137 0 211 -92t74 -277q0 -206 -81.5 -331.5t-223.5 -125.5q-186 0 -244 193l58 8q20 -75 65 -111t121 -36q109 0 174.5 100.5t69.5 279.5
q-31 -71 -91.5 -112t-138.5 -41q-116 0 -189 73.5t-73 190.5q0 126 73.5 203.5t194.5 77.5zM870 1083q-91 0 -148.5 -62.5t-57.5 -164.5q0 -92 56 -151.5t144 -59.5q89 0 154 64t65 155q0 97 -60 158t-153 61z" />
    <glyph glyph-name="uni24EA" unicode="&#x24ea;" horiz-adv-x="1716" 
d="M858 -25q-154 0 -294 60t-241 161t-161 241.5t-60 295.5q0 153 60 292.5t161 240.5t241 161t294 60t294 -60t241 -161t161 -240.5t60 -292.5q0 -155 -60 -295.5t-161 -241.5t-241 -161t-294 -60zM858 37q187 0 347 93.5t253.5 254t93.5 348.5q0 186 -93.5 345.5
t-253.5 253t-347 93.5t-347 -93.5t-253.5 -253t-93.5 -345.5q0 -188 93.5 -348.5t253.5 -254t347 -93.5zM858 313q-140 0 -220.5 111t-80.5 303q0 193 80 302.5t221 109.5t221 -109.5t80 -302.5q0 -192 -80.5 -303t-220.5 -111zM618 727q0 -152 54 -246l338 539
q-59 65 -152 65q-112 0 -176 -95.5t-64 -262.5zM858 367q111 0 175.5 96.5t64.5 263.5q0 154 -54 248l-339 -541q61 -67 153 -67z" />
    <glyph glyph-name="uni24FF" unicode="&#x24ff;" horiz-adv-x="1716" 
d="M858 -25q-154 0 -294 60t-241 161t-161 241.5t-60 295.5q0 153 60 292.5t161 240.5t241 161t294 60t294 -60t241 -161t161 -240.5t60 -292.5q0 -155 -60 -295.5t-161 -241.5t-241 -161t-294 -60zM858 311q140 0 220.5 111t80.5 303q0 193 -80 302.5t-221 109.5
t-221 -109.5t-80 -302.5q0 -192 80.5 -303t220.5 -111zM672 479q-54 94 -54 246q0 167 64 262.5t176 95.5q93 0 152 -65zM858 365q-92 0 -153 67l339 541q54 -94 54 -248q0 -167 -64.5 -263.5t-175.5 -96.5z" />
    <glyph glyph-name="triagup" unicode="&#x25b2;" horiz-adv-x="1775" 
d="M49 0l838 1454l839 -1454h-1677z" />
    <glyph glyph-name="uni25B3" unicode="&#x25b3;" horiz-adv-x="1775" 
d="M49 0l838 1454l839 -1454h-1677zM158 61h1460l-729 1270z" />
    <glyph glyph-name="uni25B6" unicode="&#x25b6;" horiz-adv-x="1699" 
d="M197 -2v1460l1454 -729z" />
    <glyph glyph-name="uni25B7" unicode="&#x25b7;" horiz-adv-x="1699" 
d="M197 -2v1460l1454 -729zM258 96l1255 633l-1255 631v-1264z" />
    <glyph glyph-name="triagdn" unicode="&#x25bc;" horiz-adv-x="1669" 
d="M-4 1454h1677l-839 -1454z" />
    <glyph glyph-name="uni25BD" unicode="&#x25bd;" horiz-adv-x="1669" 
d="M-4 1454h1677l-839 -1454zM104 1393l732 -1270l729 1270h-1461z" />
    <glyph glyph-name="uni25C0" unicode="&#x25c0;" horiz-adv-x="1699" 
d="M1503 -2l-1454 731l1454 729v-1460z" />
    <glyph glyph-name="uni25C1" unicode="&#x25c1;" horiz-adv-x="1699" 
d="M1503 -2l-1454 731l1454 729v-1460zM1442 96v1264l-1256 -631z" />
    <glyph glyph-name="lozenge" unicode="&#x25ca;" horiz-adv-x="972" 
d="M449 0l-347 659l347 660h75l346 -660l-346 -659h-75zM172 659l315 -596l314 596l-314 596z" />
    <glyph glyph-name="circle" unicode="&#x25cb;" horiz-adv-x="1748" 
d="M874 -25q-161 0 -304 57t-246 156t-162.5 239.5t-59.5 301.5q0 216 101.5 390t278 271t392.5 97t392.5 -97t278.5 -271t102 -390q0 -161 -60 -301.5t-163 -239.5t-246 -156t-304 -57zM874 39q197 0 359 88.5t255 247t93 354.5q0 148 -54.5 278t-149 221t-225 143
t-278.5 52t-278.5 -52t-224.5 -143t-148.5 -221t-54.5 -278q0 -196 93 -354.5t254.5 -247t358.5 -88.5z" />
    <glyph glyph-name="uni25CC" unicode="&#x25cc;" horiz-adv-x="1748" 
d="M733 1454l-8 49q92 15 149 15v-52q-43 0 -141 -12zM1135 1430q-57 21 -136 38l7 50q82 -16 147 -41zM473 1346l-27 43q50 35 134 71l18 -47q-73 -29 -125 -67zM1376 1280q-61 54 -112 88l24 41q65 -41 119 -92zM272 1149l-41 29q39 58 97 116l34 -37q-50 -49 -90 -108z
M1538 1053q-25 60 -70 118l39 33q48 -68 76 -131zM166 891l-49 8q12 75 43 145l45 -20q-31 -75 -39 -133zM1597 778q0 82 -16 142l49 8q17 -80 17 -150h-50zM119 600q-17 80 -17 150h50q0 -82 16 -142zM1589 483l-45 21q31 75 39 133l49 -8q-12 -76 -43 -146zM242 324
q-48 68 -76 131l45 20q26 -62 70 -119zM1421 233l-35 37q50 51 91 109l41 -29q-41 -61 -97 -117zM461 119q-65 41 -119 92l31 37q61 -54 112 -88zM1169 68l-18 47q73 29 125 67l27 -43q-50 -35 -134 -71zM743 10q-82 16 -147 41l18 47q63 -24 136 -39zM874 10v51
q36 0 142 13l8 -49q-92 -15 -150 -15z" />
    <glyph glyph-name="uni25CF" unicode="&#x25cf;" horiz-adv-x="1748" 
d="M874 -25q-161 0 -304 57t-246 156t-162.5 239.5t-59.5 301.5q0 216 101.5 390t278 271t392.5 97t392.5 -97t278.5 -271t102 -390q0 -161 -60 -301.5t-163 -239.5t-246 -156t-304 -57z" />
    <glyph glyph-name="uni2639" unicode="&#x2639;" horiz-adv-x="1716" 
d="M858 -25q-154 0 -294 60t-241 161t-161 241.5t-60 295.5q0 153 60 292.5t161 240.5t241 161t294 60t294 -60t241 -161t161 -240.5t60 -292.5q0 -155 -60 -295.5t-161 -241.5t-241 -161t-294 -60zM858 37q187 0 347 93.5t253.5 254t93.5 348.5q0 186 -93.5 345.5
t-253.5 253t-347 93.5t-347 -93.5t-253.5 -253t-93.5 -345.5q0 -188 93.5 -348.5t253.5 -254t347 -93.5zM651 883q-29 0 -49 20t-20 49q0 28 20 48t49 20q28 0 48 -20t20 -48q0 -29 -20 -49t-48 -20zM1069 883q-29 0 -49.5 20t-20.5 49q0 28 20.5 48t49.5 20q28 0 48 -20
t20 -48q0 -29 -20 -49t-48 -20zM446 412q23 152 138.5 249t273.5 97t273.5 -97t138.5 -249h-64q-28 131 -121.5 206.5t-226.5 75.5t-226.5 -75.5t-121.5 -206.5h-64z" />
    <glyph glyph-name="smileface" unicode="&#x263a;" horiz-adv-x="1716" 
d="M858 -25q-154 0 -294 60t-241 161t-161 241.5t-60 295.5q0 153 60 292.5t161 240.5t241 161t294 60t294 -60t241 -161t161 -240.5t60 -292.5q0 -155 -60 -295.5t-161 -241.5t-241 -161t-294 -60zM858 37q187 0 347 93.5t253.5 254t93.5 348.5q0 186 -93.5 345.5
t-253.5 253t-347 93.5t-347 -93.5t-253.5 -253t-93.5 -345.5q0 -188 93.5 -348.5t253.5 -254t347 -93.5zM651 883q-29 0 -49 20t-20 49q0 28 20 48t49 20q28 0 48 -20t20 -48q0 -29 -20 -49t-48 -20zM1069 883q-29 0 -49.5 20t-20.5 49q0 28 20.5 48t49.5 20q28 0 48 -20
t20 -48q0 -29 -20 -49t-48 -20zM858 371q-158 0 -273.5 97t-138.5 249h64q28 -131 121.5 -207t226.5 -76t226.5 76t121.5 207h64q-23 -152 -138.5 -249t-273.5 -97z" />
    <glyph glyph-name="uni2776" unicode="&#x2776;" horiz-adv-x="1716" 
d="M858 -25q-154 0 -294 60t-241 161t-161 241.5t-60 295.5q0 153 60 292.5t161 240.5t241 161t294 60t294 -60t241 -161t161 -240.5t60 -292.5q0 -155 -60 -295.5t-161 -241.5t-241 -161t-294 -60zM864 328h58v792h-45q0 -162 -187 -162h-26v-45h200v-585z" />
    <glyph glyph-name="uni2777" unicode="&#x2777;" horiz-adv-x="1716" 
d="M858 -25q-154 0 -294 60t-241 161t-161 241.5t-60 295.5q0 153 60 292.5t161 240.5t241 161t294 60t294 -60t241 -161t161 -240.5t60 -292.5q0 -155 -60 -295.5t-161 -241.5t-241 -161t-294 -60zM606 328h541v57h-471q-2 73 47.5 132t163.5 120l61 33q110 58 151.5 108.5
t41.5 132.5q0 106 -68 166t-188 60q-119 0 -191.5 -67.5t-85.5 -190.5l62 -7q37 207 215 207q93 0 143.5 -43.5t50.5 -124.5q0 -62 -30.5 -101t-133.5 -95l-67 -37q-137 -75 -189.5 -149t-52.5 -201z" />
    <glyph glyph-name="uni2778" unicode="&#x2778;" horiz-adv-x="1716" 
d="M858 -25q-154 0 -294 60t-241 161t-161 241.5t-60 295.5q0 153 60 292.5t161 240.5t241 161t294 60t294 -60t241 -161t161 -240.5t60 -292.5q0 -155 -60 -295.5t-161 -241.5t-241 -161t-294 -60zM866 311q130 0 204.5 65.5t74.5 172.5q0 75 -45 128.5t-135 74.5
q70 21 109.5 69.5t39.5 118.5q0 91 -64 144t-186 53q-110 0 -178 -52t-80 -145l66 -8q16 147 192 147q189 0 189 -139q0 -85 -51.5 -123.5t-129.5 -38.5h-57v-53h57q99 0 155 -49.5t56 -126.5q0 -180 -217 -180q-118 0 -168.5 43t-56.5 131l-63 -6q6 -106 76.5 -166
t211.5 -60z" />
    <glyph glyph-name="uni2779" unicode="&#x2779;" horiz-adv-x="1716" 
d="M858 -25q-154 0 -294 60t-241 161t-161 241.5t-60 295.5q0 153 60 292.5t161 240.5t241 161t294 60t294 -60t241 -161t161 -240.5t60 -292.5q0 -155 -60 -295.5t-161 -241.5t-241 -161t-294 -60zM924 328h57v194h131v53h-131v545h-57l-392 -553v-45h392v-194zM598 575
l326 463v-463h-326z" />
    <glyph glyph-name="uni277A" unicode="&#x277a;" horiz-adv-x="1716" 
d="M858 -25q-154 0 -294 60t-241 161t-161 241.5t-60 295.5q0 153 60 292.5t161 240.5t241 161t294 60t294 -60t241 -161t161 -240.5t60 -292.5q0 -155 -60 -295.5t-161 -241.5t-241 -161t-294 -60zM856 311q124 0 200.5 76.5t76.5 196.5q0 123 -69.5 195.5t-186.5 72.5
q-76 0 -134 -33.5t-79 -83.5l43 328h378v57h-430l-57 -461h64q66 136 210 136q91 0 145 -56.5t54 -154.5q0 -96 -59.5 -155.5t-155.5 -59.5q-94 0 -144.5 41t-56.5 116l-65 -6q12 -95 80.5 -152t185.5 -57z" />
    <glyph glyph-name="uni277B" unicode="&#x277b;" horiz-adv-x="1716" 
d="M858 -25q-154 0 -294 60t-241 161t-161 241.5t-60 295.5q0 153 60 292.5t161 240.5t241 161t294 60t294 -60t241 -161t161 -240.5t60 -292.5q0 -155 -60 -295.5t-161 -241.5t-241 -161t-294 -60zM860 311q121 0 194.5 77.5t73.5 203.5q0 117 -73 190.5t-189 73.5
q-78 0 -138 -41t-91 -113q4 179 69.5 280t174.5 101q76 0 121 -36t65 -111l57 8q-58 193 -243 193q-143 0 -224.5 -125.5t-81.5 -331.5q0 -185 74 -277t211 -92zM860 365q-93 0 -153 61t-60 158q0 91 65 155t154 64q88 0 144.5 -59.5t56.5 -151.5q0 -102 -58 -164.5
t-149 -62.5z" />
    <glyph glyph-name="uni277C" unicode="&#x277c;" horiz-adv-x="1716" 
d="M858 -25q-154 0 -294 60t-241 161t-161 241.5t-60 295.5q0 153 60 292.5t161 240.5t241 161t294 60t294 -60t241 -161t161 -240.5t60 -292.5q0 -155 -60 -295.5t-161 -241.5t-241 -161t-294 -60zM786 328h66q0 180 73 376.5t189 358.5v57h-504v-57h449
q-120 -165 -196.5 -362.5t-76.5 -372.5z" />
    <glyph glyph-name="uni277D" unicode="&#x277d;" horiz-adv-x="1716" 
d="M858 -25q-154 0 -294 60t-241 161t-161 241.5t-60 295.5q0 153 60 292.5t161 240.5t241 161t294 60t294 -60t241 -161t161 -240.5t60 -292.5q0 -155 -60 -295.5t-161 -241.5t-241 -161t-294 -60zM858 311q134 0 211.5 56.5t77.5 169.5q0 170 -180 223q141 42 141 172
q0 205 -250 205t-250 -205q0 -130 142 -172q-181 -53 -181 -223q0 -113 77.5 -169.5t211.5 -56.5zM858 788q-86 0 -137 36t-51 108q0 74 44 110.5t144 36.5t144.5 -36.5t44.5 -110.5q0 -72 -51.5 -108t-137.5 -36zM858 369q-227 0 -227 172q0 87 63.5 140.5t163.5 53.5
t163.5 -53.5t63.5 -140.5q0 -172 -227 -172z" />
    <glyph glyph-name="uni277E" unicode="&#x277e;" horiz-adv-x="1716" 
d="M858 -25q-154 0 -294 60t-241 161t-161 241.5t-60 295.5q0 153 60 292.5t161 240.5t241 161t294 60t294 -60t241 -161t161 -240.5t60 -292.5q0 -155 -60 -295.5t-161 -241.5t-241 -161t-294 -60zM854 1137q-121 0 -194.5 -77.5t-73.5 -203.5q0 -117 73 -190.5t189 -73.5
q78 0 138 40.5t91 112.5q-4 -179 -69 -279.5t-174 -100.5q-76 0 -121.5 36t-65.5 111l-57 -8q58 -193 244 -193q142 0 223.5 125.5t81.5 331.5q0 185 -74 277t-211 92zM854 1083q93 0 153 -61t60 -158q0 -91 -65 -155t-154 -64q-88 0 -144.5 59.5t-56.5 151.5
q0 102 58 164.5t149 62.5z" />
    <glyph glyph-name="uni3003" unicode="&#x3003;" horiz-adv-x="557" 
d="M102 575l115 410h62l-140 -410h-37zM279 575l114 410h62l-140 -410h-36z" />
    <glyph glyph-name="uni3008" unicode="&#x3008;" horiz-adv-x="649" 
d="M477 -233l-375 958l375 956h70l-375 -956l375 -958h-70z" />
    <glyph glyph-name="uni3009" unicode="&#x3009;" horiz-adv-x="649" 
d="M172 -233h-70l375 958l-375 956h70l375 -956z" />
    <glyph glyph-name="uni300A" unicode="&#x300a;" horiz-adv-x="991" 
d="M477 -233l-375 958l375 956h70l-375 -956l375 -958h-70zM819 -233l-375 958l375 956h70l-375 -956l375 -958h-70z" />
    <glyph glyph-name="uni300B" unicode="&#x300b;" horiz-adv-x="991" 
d="M514 -233h-70l375 958l-375 956h70l375 -956zM172 -233h-70l375 958l-375 956h70l375 -956z" />
    <glyph glyph-name="uni300C" unicode="&#x300c;" horiz-adv-x="780" 
d="M102 600v1092h576v-62h-510v-1030h-66z" />
    <glyph glyph-name="uni300D" unicode="&#x300d;" horiz-adv-x="780" 
d="M678 879v-1092h-576v61h510v1031h66z" />
    <glyph glyph-name="uni300E" unicode="&#x300e;" horiz-adv-x="825" 
d="M102 477v1215h621v-328h-293v-887h-328zM168 539h197v886h292v205h-489v-1091z" />
    <glyph glyph-name="uni300F" unicode="&#x300f;" horiz-adv-x="825" 
d="M723 1004v-1215h-621v328h293v887h328zM657 942h-196v-887h-293v-205h489v1092z" />
    <glyph glyph-name="uni3010" unicode="&#x3010;" horiz-adv-x="706" 
d="M604 -129h-502v1819h502q-276 -440 -276 -910q0 -467 276 -909z" />
    <glyph glyph-name="uni3011" unicode="&#x3011;" horiz-adv-x="706" 
d="M102 -129q277 444 277 909q0 469 -277 910h502v-1819h-502z" />
    <glyph glyph-name="uni3014" unicode="&#x3014;" horiz-adv-x="718" 
d="M573 -307l-471 457v1134l471 457l41 -49l-448 -432l2 -1084l448 -432z" />
    <glyph glyph-name="uni3015" unicode="&#x3015;" horiz-adv-x="718" 
d="M145 -307l-43 51l449 432l2 1084l-449 432l41 49l471 -457v-1134z" />
    <glyph glyph-name="uni3016" unicode="&#x3016;" horiz-adv-x="747" 
d="M645 -129h-543v1819h543q-276 -440 -276 -910q0 -467 276 -909zM520 -68q-213 411 -213 848q0 440 213 848h-352v-1696h352z" />
    <glyph glyph-name="uni3017" unicode="&#x3017;" horiz-adv-x="747" 
d="M102 -129q277 444 277 909q0 469 -277 910h543v-1819h-543zM227 -68h353v1696h-353q213 -408 213 -848q0 -437 -213 -848z" />
    <glyph glyph-name="uni301C" unicode="&#x301c;" horiz-adv-x="1603" 
d="M1110 440q-75 0 -148 25t-204 96q-177 96 -303 96q-91 0 -164.5 -33t-147.5 -100l-41 49q85 77 164 109.5t189 32.5q147 0 336 -107q110 -62 177 -86t142 -24q84 0 161.5 37.5t188.5 128.5l41 -50q-189 -174 -391 -174z" />
    <glyph glyph-name="uniA78B" unicode="&#xa78b;" horiz-adv-x="274" 
d="M111 758l-9 573v123h70v-123l-8 -573h-53z" />
    <glyph glyph-name="uniA78C" unicode="&#xa78c;" horiz-adv-x="413" 
d="M182 799l-8 594v61h66v-61l-9 -594h-49z" />
    <glyph glyph-name="uniF8FF" unicode="&#xf8ff;" horiz-adv-x="1228" 
d="M215 0q-86 0 -142.5 56.5t-56.5 142.5v798q0 86 56.5 142.5t142.5 56.5h799q86 0 142 -56.5t56 -142.5v-798q0 -86 -56 -142.5t-142 -56.5h-799zM176 254h875l-439 760z" />
    <glyph glyph-name="uni004A0301" horiz-adv-x="1167" 
d="M940 1618l147 237h70l-164 -237h-53zM571 -33q-190 0 -306.5 136t-119.5 374l70 6q3 -217 98.5 -333.5t257.5 -116.5q171 0 268 121t97 354v946h65v-946q0 -260 -115.5 -400.5t-314.5 -140.5z" />
    <glyph glyph-name="uni013B.loclMAH" 
d="M197 0v1454h65v-1393h782v-61h-847zM545 -346l73 153h-49v99h103v-88l-82 -164h-45z" />
    <glyph glyph-name="uni0145.loclMAH" horiz-adv-x="1456" 
d="M197 0v1454h96l901 -1393v1393h66v-1454h-97l-901 1393v-1393h-65zM653 -346l74 153h-49v99h102v-88l-82 -164h-45z" />
    <glyph glyph-name="R.ss04" horiz-adv-x="1286" 
d="M197 0v1454h485q226 0 359 -113.5t133 -306.5q0 -156 -98.5 -258.5t-272.5 -130.5l371 -645h-70l-367 639q-16 -2 -55 -2h-420v-637h-65zM262 698h420q203 0 312.5 87.5t109.5 248.5q0 172 -110 265.5t-312 93.5h-420v-695z" />
    <glyph glyph-name="Racute.ss04" horiz-adv-x="1286" 
d="M623 1618l147 237h70l-164 -237h-53zM197 0v1454h485q226 0 359 -113.5t133 -306.5q0 -156 -98.5 -258.5t-272.5 -130.5l371 -645h-70l-367 639q-16 -2 -55 -2h-420v-637h-65zM262 698h420q203 0 312.5 87.5t109.5 248.5q0 172 -110 265.5t-312 93.5h-420v-695z" />
    <glyph glyph-name="Rcaron.ss04" horiz-adv-x="1286" 
d="M449 1872h57l145 -203l146 203h57l-180 -254h-45zM197 0v1454h485q226 0 359 -113.5t133 -306.5q0 -156 -98.5 -258.5t-272.5 -130.5l371 -645h-70l-367 639q-16 -2 -55 -2h-420v-637h-65zM262 698h420q203 0 312.5 87.5t109.5 248.5q0 172 -110 265.5t-312 93.5h-420
v-695z" />
    <glyph glyph-name="uni0156.ss04" horiz-adv-x="1286" 
d="M197 0v1454h485q226 0 359 -113.5t133 -306.5q0 -156 -98.5 -258.5t-272.5 -130.5l371 -645h-70l-367 639q-16 -2 -55 -2h-420v-637h-65zM262 698h420q203 0 312.5 87.5t109.5 248.5q0 172 -110 265.5t-312 93.5h-420v-695zM575 -346l74 153h-49v99h102v-88l-81 -164h-46
z" />
    <glyph glyph-name="I.ss05" horiz-adv-x="655" 
d="M102 0v61h193v1332h-180v61h426v-61h-181v-1332h193v-61h-451z" />
    <glyph glyph-name="Iacute.ss05" horiz-adv-x="655" 
d="M299 1618l147 237h70l-164 -237h-53zM102 0v61h193v1332h-180v61h426v-61h-181v-1332h193v-61h-451z" />
    <glyph glyph-name="Icircumflex.ss05" horiz-adv-x="655" 
d="M127 1618l180 254h45l180 -254h-57l-145 203l-146 -203h-57zM102 0v61h193v1332h-180v61h426v-61h-181v-1332h193v-61h-451z" />
    <glyph glyph-name="Idieresis.ss05" horiz-adv-x="655" 
d="M162 1655v143h69v-143h-69zM424 1655v143h70v-143h-70zM102 0v61h193v1332h-180v61h426v-61h-181v-1332h193v-61h-451z" />
    <glyph glyph-name="Idotaccent.ss05" horiz-adv-x="655" 
d="M293 1655v143h69v-143h-69zM102 0v61h193v1332h-180v61h426v-61h-181v-1332h193v-61h-451z" />
    <glyph glyph-name="Igrave.ss05" horiz-adv-x="655" 
d="M301 1634l-164 238h70l147 -238h-53zM102 0v61h193v1332h-180v61h426v-61h-181v-1332h193v-61h-451z" />
    <glyph glyph-name="Imacron.ss05" horiz-adv-x="655" 
d="M74 1688v57h508v-57h-508zM102 0v61h193v1332h-180v61h426v-61h-181v-1332h193v-61h-451z" />
    <glyph glyph-name="Iogonek.ss05" horiz-adv-x="655" 
d="M102 0v61h193v1332h-180v61h426v-61h-181v-1332h193v-61l-53 -82q-70 -104 -70 -184q0 -74 82 -74q57 0 100 31l29 -45q-58 -39 -129 -39q-64 0 -103.5 29.5t-39.5 93.5q0 45 24.5 93.5t73.5 123.5l35 53h-400z" />
    <glyph glyph-name="Itilde.ss05" horiz-adv-x="655" 
d="M440 1659q-41 0 -70.5 15.5t-60.5 49.5q-27 30 -51 44t-59 14q-97 0 -103 -133h-53q6 85 48.5 133.5t107.5 48.5q46 0 79 -18.5t68 -55.5q49 -49 94 -49q41 0 62.5 33t27.5 108h54q-6 -90 -43 -140t-101 -50zM102 0v61h193v1332h-180v61h426v-61h-181v-1332h193v-61h-451
z" />
    <glyph glyph-name="G.ss06" horiz-adv-x="1361" 
d="M705 -33q-279 0 -441 202t-162 556q0 362 166.5 562t456.5 200q212 0 354 -130t187 -372l-68 -8q-40 216 -162.5 330t-310.5 114q-259 0 -406 -180.5t-147 -515.5q0 -321 141 -506.5t392 -185.5q234 0 366.5 160t132.5 425h-479v58h545v-49q0 -197 -66.5 -345.5
t-195 -231.5t-303.5 -83z" />
    <glyph glyph-name="Gbreve.ss06" horiz-adv-x="1361" 
d="M723 1634q-105 0 -172 64.5t-82 173.5h53q12 -87 65.5 -133.5t135.5 -46.5t135.5 46.5t65.5 133.5h53q-15 -109 -82 -173.5t-172 -64.5zM705 -33q-279 0 -441 202t-162 556q0 362 166.5 562t456.5 200q212 0 354 -130t187 -372l-68 -8q-40 216 -162.5 330t-310.5 114
q-259 0 -406 -180.5t-147 -515.5q0 -321 141 -506.5t392 -185.5q234 0 366.5 160t132.5 425h-479v58h545v-49q0 -197 -66.5 -345.5t-195 -231.5t-303.5 -83z" />
    <glyph glyph-name="Gcircumflex.ss06" horiz-adv-x="1361" 
d="M522 1618l180 254h46l180 -254h-58l-145 203l-145 -203h-58zM705 -33q-279 0 -441 202t-162 556q0 362 166.5 562t456.5 200q212 0 354 -130t187 -372l-68 -8q-40 216 -162.5 330t-310.5 114q-259 0 -406 -180.5t-147 -515.5q0 -321 141 -506.5t392 -185.5
q234 0 366.5 160t132.5 425h-479v58h545v-49q0 -197 -66.5 -345.5t-195 -231.5t-303.5 -83z" />
    <glyph glyph-name="uni0122.ss06" horiz-adv-x="1361" 
d="M705 -33q-279 0 -441 202t-162 556q0 362 166.5 562t456.5 200q212 0 354 -130t187 -372l-68 -8q-40 216 -162.5 330t-310.5 114q-259 0 -406 -180.5t-147 -515.5q0 -321 141 -506.5t392 -185.5q234 0 366.5 160t132.5 425h-479v58h545v-49q0 -197 -66.5 -345.5
t-195 -231.5t-303.5 -83zM641 -346l74 153h-49v99h102v-88l-82 -164h-45z" />
    <glyph glyph-name="Gdotaccent.ss06" horiz-adv-x="1361" 
d="M688 1655v143h70v-143h-70zM705 -33q-279 0 -441 202t-162 556q0 362 166.5 562t456.5 200q212 0 354 -130t187 -372l-68 -8q-40 216 -162.5 330t-310.5 114q-259 0 -406 -180.5t-147 -515.5q0 -321 141 -506.5t392 -185.5q234 0 366.5 160t132.5 425h-479v58h545v-49
q0 -197 -66.5 -345.5t-195 -231.5t-303.5 -83z" />
    <glyph glyph-name="uni1E20.ss06" horiz-adv-x="1361" 
d="M469 1688v57h508v-57h-508zM705 -33q-279 0 -441 202t-162 556q0 362 166.5 562t456.5 200q212 0 354 -130t187 -372l-68 -8q-40 216 -162.5 330t-310.5 114q-259 0 -406 -180.5t-147 -515.5q0 -321 141 -506.5t392 -185.5q234 0 366.5 160t132.5 425h-479v58h545v-49
q0 -197 -66.5 -345.5t-195 -231.5t-303.5 -83z" />
    <glyph glyph-name="Adieresis.ss08" horiz-adv-x="1253" 
d="M463 1667q-23 0 -38 15t-15 42t15 42.5t38 15.5t38 -15.5t15 -42.5t-15 -42t-38 -15zM791 1667q-23 0 -38.5 15t-15.5 42t15.5 42.5t38.5 15.5t38 -15.5t15 -42.5t-15 -42t-38 -15zM49 0l539 1454h78l538 -1454h-67l-176 481h-668l-176 -481h-68zM315 543h623l-311 846z
" />
    <glyph glyph-name="Cdotaccent.ss08" horiz-adv-x="1384" 
d="M713 1667q-23 0 -38.5 15t-15.5 42t15.5 42.5t38.5 15.5t38 -15.5t15 -42.5t-15 -42t-38 -15zM713 -33q-281 0 -446 203t-165 555t165 557t446 205q231 0 377 -135.5t190 -368.5l-70 -6q-34 207 -163 325.5t-334 118.5q-249 0 -395 -187t-146 -509t145.5 -507t395.5 -185
q217 0 349.5 125.5t160.5 351.5l69 -6q-37 -252 -188 -394.5t-391 -142.5z" />
    <glyph glyph-name="Edieresis.ss08" horiz-adv-x="1173" 
d="M463 1667q-23 0 -38 15t-15 42t15 42.5t38 15.5t38 -15.5t15 -42.5t-15 -42t-38 -15zM791 1667q-23 0 -38.5 15t-15.5 42t15.5 42.5t38.5 15.5t38 -15.5t15 -42.5t-15 -42t-38 -15zM197 0v1454h858v-61h-793v-637h768v-62h-768v-633h809v-61h-874z" />
    <glyph glyph-name="Edotaccent.ss08" horiz-adv-x="1173" 
d="M627 1667q-23 0 -38.5 15t-15.5 42t15.5 42.5t38.5 15.5t38 -15.5t15 -42.5t-15 -42t-38 -15zM197 0v1454h858v-61h-793v-637h768v-62h-768v-633h809v-61h-874z" />
    <glyph glyph-name="Gdotaccent.ss08" horiz-adv-x="1382" 
d="M721 1667q-23 0 -38 15t-15 42t15 42.5t38 15.5t38 -15.5t15 -42.5t-15 -42t-38 -15zM709 -33q-278 0 -442.5 205t-164.5 553q0 355 162.5 558.5t456.5 203.5q214 0 357 -129t188 -373l-68 -8q-43 220 -164 332t-313 112q-261 0 -405 -186t-144 -510q0 -319 145.5 -505.5
t391.5 -186.5q221 0 348.5 151t146.5 434h-479v58h545v-676h-58l-6 358q-43 -174 -169 -282.5t-328 -108.5z" />
    <glyph glyph-name="Idieresis.ss08" horiz-adv-x="458" 
d="M66 1667q-23 0 -38.5 15t-15.5 42t15.5 42.5t38.5 15.5t38 -15.5t15 -42.5t-15 -42t-38 -15zM393 1667q-23 0 -38 15t-15 42t15 42.5t38 15.5t38 -15.5t15 -42.5t-15 -42t-38 -15zM197 0v1454h65v-1454h-65z" />
    <glyph glyph-name="Idotaccent.ss08" horiz-adv-x="458" 
d="M229 1667q-23 0 -38 15t-15 42t15 42.5t38 15.5t38.5 -15.5t15.5 -42.5t-15.5 -42t-38.5 -15zM197 0v1454h65v-1454h-65z" />
    <glyph glyph-name="Odieresis.ss08" horiz-adv-x="1462" 
d="M567 1667q-23 0 -38 15t-15 42t15 42.5t38 15.5t38.5 -15.5t15.5 -42.5t-15.5 -42t-38.5 -15zM895 1667q-23 0 -38 15t-15 42t15 42.5t38 15.5t38 -15.5t15 -42.5t-15 -42t-38 -15zM731 -33q-291 0 -460 204.5t-169 553.5q0 352 169 557t460 205t460 -205t169 -557
q0 -349 -169 -553.5t-460 -204.5zM731 33q259 0 409 186t150 506q0 322 -150 509t-409 187t-409 -187t-150 -509q0 -320 150 -506t409 -186z" />
    <glyph glyph-name="Udieresis.ss08" horiz-adv-x="1355" 
d="M514 1667q-23 0 -38 15t-15 42t15 42.5t38 15.5t38 -15.5t15 -42.5t-15 -42t-38 -15zM842 1667q-23 0 -38.5 15t-15.5 42t15.5 42.5t38.5 15.5t38 -15.5t15 -42.5t-15 -42t-38 -15zM678 -33q-246 0 -379 140.5t-133 400.5v948h65v-948q0 -229 116 -352t331 -123
t330.5 123t115.5 352v948h66v-948q0 -260 -133 -400.5t-379 -140.5z" />
    <glyph glyph-name="Wdieresis.ss08" horiz-adv-x="1871" 
d="M772 1667q-23 0 -38 15t-15 42t15 42.5t38 15.5t38 -15.5t15 -42.5t-15 -42t-38 -15zM1100 1667q-23 0 -38 15t-15 42t15 42.5t38 15.5t38 -15.5t15 -42.5t-15 -42t-38 -15zM494 0l-408 1454h68l387 -1386l350 1386h90l350 -1386l387 1386h68l-408 -1454h-98l-344 1384
l-344 -1384h-98z" />
    <glyph glyph-name="Ydieresis.ss08" horiz-adv-x="1107" 
d="M391 1667q-23 0 -38 15t-15 42t15 42.5t38 15.5t38 -15.5t15 -42.5t-15 -42t-38 -15zM719 1667q-23 0 -38 15t-15 42t15 42.5t38 15.5t38 -15.5t15 -42.5t-15 -42t-38 -15zM522 0v594l-526 860h78l481 -799l479 799h78l-524 -860v-594h-66z" />
    <glyph glyph-name="Zdotaccent.ss08" horiz-adv-x="1071" 
d="M545 1667q-23 0 -38 15t-15 42t15 42.5t38 15.5t38 -15.5t15 -42.5t-15 -42t-38 -15zM61 0v61l857 1332h-830v61h901v-61l-856 -1332h877v-61h-949z" />
    <glyph glyph-name="Idieresis.ss05.ss08" horiz-adv-x="655" 
d="M164 1667q-23 0 -38 15t-15 42t15 42.5t38 15.5t38 -15.5t15 -42.5t-15 -42t-38 -15zM492 1667q-23 0 -38.5 15t-15.5 42t15.5 42.5t38.5 15.5t38 -15.5t15 -42.5t-15 -42t-38 -15zM102 0v61h193v1332h-180v61h426v-61h-181v-1332h193v-61h-451z" />
    <glyph glyph-name="Idotaccent.ss05.ss08" horiz-adv-x="655" 
d="M328 1667q-23 0 -38.5 15t-15.5 42t15.5 42.5t38.5 15.5t38 -15.5t15 -42.5t-15 -42t-38 -15zM102 0v61h193v1332h-180v61h426v-61h-181v-1332h193v-61h-451z" />
    <glyph glyph-name="Gdotaccent.ss06.ss08" horiz-adv-x="1361" 
d="M723 1667q-23 0 -38 15t-15 42t15 42.5t38 15.5t38 -15.5t15 -42.5t-15 -42t-38 -15zM705 -33q-279 0 -441 202t-162 556q0 362 166.5 562t456.5 200q212 0 354 -130t187 -372l-68 -8q-40 216 -162.5 330t-310.5 114q-259 0 -406 -180.5t-147 -515.5q0 -321 141 -506.5
t392 -185.5q234 0 366.5 160t132.5 425h-479v58h545v-49q0 -197 -66.5 -345.5t-195 -231.5t-303.5 -83z" />
    <glyph glyph-name="A_I.dlig" horiz-adv-x="1908" 
d="M49 0l539 1454h78l538 -1454h-67l-176 481h-668l-176 -481h-68zM1356 0v61h192v1332h-180v61h426v-61h-180v-1332h192v-61h-450zM315 543h623l-311 846z" />
    <glyph glyph-name="U_I.dlig" horiz-adv-x="2011" 
d="M678 -33q-246 0 -379 140.5t-133 400.5v948h65v-948q0 -229 116 -352t331 -123t330.5 123t115.5 352v948h66v-948q0 -260 -133 -400.5t-379 -140.5zM1458 0v61h193v1332h-181v61h426v-61h-180v-1332h193v-61h-451z" />
    <glyph glyph-name="i.loclTRK" horiz-adv-x="409" 
d="M170 1286v144h70v-144h-70zM174 0v1085h62v-1085h-62z" />
    <glyph glyph-name="uni006A0301" horiz-adv-x="471" 
d="M238 1249l147 238h70l-164 -238h-53zM-10 -307v57h55q109 0 150 41.5t41 159.5v1134h61v-1142q0 -135 -57.5 -192.5t-182.5 -57.5h-67z" />
    <glyph glyph-name="uni013C.loclMAH" horiz-adv-x="485" 
d="M344 0q-170 0 -170 164v1290h62v-1290q0 -107 114 -107h66v-57h-72zM219 -346l74 153h-49v99h102v-88l-82 -164h-45z" />
    <glyph glyph-name="uni0146.loclMAH" horiz-adv-x="1138" 
d="M174 0v1085h57l5 -241q30 128 131.5 197t238.5 69q176 0 267.5 -115t91.5 -297v-698h-62v649q0 186 -74 293t-235 107q-166 0 -262 -111t-96 -289v-649h-62zM494 -346l73 153h-49v99h103v-88l-82 -164h-45z" />
    <glyph glyph-name="a.ss01" horiz-adv-x="1093" 
d="M440 -25q-157 0 -252.5 79.5t-95.5 211.5q0 118 89 194t241 105l436 82q0 210 -80 306t-248 96q-149 0 -239 -75t-113 -216l-67 6q28 167 135.5 256.5t283.5 89.5q190 0 290 -110.5t100 -331.5v-668h-54l-6 238q-51 -119 -162.5 -191t-257.5 -72zM444 37q178 0 296 109
t118 272v170l-418 -80q-282 -54 -282 -238q0 -114 74 -173.5t212 -59.5z" />
    <glyph glyph-name="aacute.ss01" horiz-adv-x="1093" 
d="M487 1249l148 238h70l-164 -238h-54zM440 -25q-157 0 -252.5 79.5t-95.5 211.5q0 118 89 194t241 105l436 82q0 210 -80 306t-248 96q-149 0 -239 -75t-113 -216l-67 6q28 167 135.5 256.5t283.5 89.5q190 0 290 -110.5t100 -331.5v-668h-54l-6 238q-51 -119 -162.5 -191
t-257.5 -72zM444 37q178 0 296 109t118 272v170l-418 -80q-282 -54 -282 -238q0 -114 74 -173.5t212 -59.5z" />
    <glyph glyph-name="abreve.ss01" horiz-adv-x="1093" 
d="M516 1266q-106 0 -172.5 64t-81.5 173h53q12 -87 65.5 -133.5t135.5 -46.5t135.5 46.5t65.5 133.5h53q-15 -109 -81.5 -173t-172.5 -64zM440 -25q-157 0 -252.5 79.5t-95.5 211.5q0 118 89 194t241 105l436 82q0 210 -80 306t-248 96q-149 0 -239 -75t-113 -216l-67 6
q28 167 135.5 256.5t283.5 89.5q190 0 290 -110.5t100 -331.5v-668h-54l-6 238q-51 -119 -162.5 -191t-257.5 -72zM444 37q178 0 296 109t118 272v170l-418 -80q-282 -54 -282 -238q0 -114 74 -173.5t212 -59.5z" />
    <glyph glyph-name="uni01CE.ss01" horiz-adv-x="1093" 
d="M313 1503h58l145 -203l146 203h57l-180 -254h-45zM440 -25q-157 0 -252.5 79.5t-95.5 211.5q0 118 89 194t241 105l436 82q0 210 -80 306t-248 96q-149 0 -239 -75t-113 -216l-67 6q28 167 135.5 256.5t283.5 89.5q190 0 290 -110.5t100 -331.5v-668h-54l-6 238
q-51 -119 -162.5 -191t-257.5 -72zM444 37q178 0 296 109t118 272v170l-418 -80q-282 -54 -282 -238q0 -114 74 -173.5t212 -59.5z" />
    <glyph glyph-name="acircumflex.ss01" horiz-adv-x="1093" 
d="M315 1249l181 254h45l180 -254h-57l-146 203l-145 -203h-58zM440 -25q-157 0 -252.5 79.5t-95.5 211.5q0 118 89 194t241 105l436 82q0 210 -80 306t-248 96q-149 0 -239 -75t-113 -216l-67 6q28 167 135.5 256.5t283.5 89.5q190 0 290 -110.5t100 -331.5v-668h-54
l-6 238q-51 -119 -162.5 -191t-257.5 -72zM444 37q178 0 296 109t118 272v170l-418 -80q-282 -54 -282 -238q0 -114 74 -173.5t212 -59.5z" />
    <glyph glyph-name="adieresis.ss01" horiz-adv-x="1093" 
d="M350 1286v144h70v-144h-70zM612 1286v144h70v-144h-70zM440 -25q-157 0 -252.5 79.5t-95.5 211.5q0 118 89 194t241 105l436 82q0 210 -80 306t-248 96q-149 0 -239 -75t-113 -216l-67 6q28 167 135.5 256.5t283.5 89.5q190 0 290 -110.5t100 -331.5v-668h-54l-6 238
q-51 -119 -162.5 -191t-257.5 -72zM444 37q178 0 296 109t118 272v170l-418 -80q-282 -54 -282 -238q0 -114 74 -173.5t212 -59.5z" />
    <glyph glyph-name="agrave.ss01" horiz-adv-x="1093" 
d="M489 1266l-163 237h69l148 -237h-54zM440 -25q-157 0 -252.5 79.5t-95.5 211.5q0 118 89 194t241 105l436 82q0 210 -80 306t-248 96q-149 0 -239 -75t-113 -216l-67 6q28 167 135.5 256.5t283.5 89.5q190 0 290 -110.5t100 -331.5v-668h-54l-6 238q-51 -119 -162.5 -191
t-257.5 -72zM444 37q178 0 296 109t118 272v170l-418 -80q-282 -54 -282 -238q0 -114 74 -173.5t212 -59.5z" />
    <glyph glyph-name="amacron.ss01" horiz-adv-x="1093" 
d="M262 1319v57h508v-57h-508zM440 -25q-157 0 -252.5 79.5t-95.5 211.5q0 118 89 194t241 105l436 82q0 210 -80 306t-248 96q-149 0 -239 -75t-113 -216l-67 6q28 167 135.5 256.5t283.5 89.5q190 0 290 -110.5t100 -331.5v-668h-54l-6 238q-51 -119 -162.5 -191
t-257.5 -72zM444 37q178 0 296 109t118 272v170l-418 -80q-282 -54 -282 -238q0 -114 74 -173.5t212 -59.5z" />
    <glyph glyph-name="aogonek.ss01" horiz-adv-x="1093" 
d="M440 -25q-157 0 -252.5 79.5t-95.5 211.5q0 118 89 194t241 105l436 82q0 210 -80 306t-248 96q-149 0 -239 -75t-113 -216l-67 6q28 167 135.5 256.5t283.5 89.5q190 0 290 -110.5t100 -331.5v-668l-54 -82q-69 -103 -69 -184q0 -74 82 -74q57 0 100 31l29 -45
q-58 -39 -129 -39q-64 0 -104 30t-40 93q0 31 15.5 70t32.5 67.5t51 79.5l34 53h-2l-6 238q-51 -119 -162.5 -191t-257.5 -72zM444 37q178 0 296 109t118 272v170l-418 -80q-282 -54 -282 -238q0 -114 74 -173.5t212 -59.5z" />
    <glyph glyph-name="aring.ss01" horiz-adv-x="1093" 
d="M516 1212q-65 0 -106 41t-41 105q0 63 41.5 104t105.5 41q63 0 104.5 -41t41.5 -104t-41 -104.5t-105 -41.5zM516 1264q43 0 67.5 25.5t24.5 68.5t-24.5 67.5t-67.5 24.5t-68.5 -24.5t-25.5 -67.5t25.5 -68.5t68.5 -25.5zM440 -25q-157 0 -252.5 79.5t-95.5 211.5
q0 118 89 194t241 105l436 82q0 210 -80 306t-248 96q-149 0 -239 -75t-113 -216l-67 6q28 167 135.5 256.5t283.5 89.5q190 0 290 -110.5t100 -331.5v-668h-54l-6 238q-51 -119 -162.5 -191t-257.5 -72zM444 37q178 0 296 109t118 272v170l-418 -80q-282 -54 -282 -238
q0 -114 74 -173.5t212 -59.5z" />
    <glyph glyph-name="atilde.ss01" horiz-adv-x="1093" 
d="M629 1290q-41 0 -70.5 16t-60.5 50q-27 30 -51.5 43.5t-59.5 13.5q-96 0 -102 -133h-54q6 85 48.5 133.5t107.5 48.5q46 0 79.5 -18.5t68.5 -54.5q50 -50 94 -50q40 0 62 33.5t28 108.5h53q-6 -91 -42.5 -141t-100.5 -50zM440 -25q-157 0 -252.5 79.5t-95.5 211.5
q0 118 89 194t241 105l436 82q0 210 -80 306t-248 96q-149 0 -239 -75t-113 -216l-67 6q28 167 135.5 256.5t283.5 89.5q190 0 290 -110.5t100 -331.5v-668h-54l-6 238q-51 -119 -162.5 -191t-257.5 -72zM444 37q178 0 296 109t118 272v170l-418 -80q-282 -54 -282 -238
q0 -114 74 -173.5t212 -59.5z" />
    <glyph glyph-name="a.ss02" horiz-adv-x="1167" 
d="M555 -25q-209 0 -331 153.5t-122 414.5t120 414t333 153q139 0 235.5 -78.5t141.5 -208.5v262h61v-1085h-53l-2 262q-52 -132 -156 -209.5t-227 -77.5zM555 37q162 0 271 138t106 368q-3 228 -108.5 367t-268.5 139q-178 0 -282.5 -137.5t-104.5 -368.5t104.5 -368.5
t282.5 -137.5z" />
    <glyph glyph-name="aacute.ss02" horiz-adv-x="1167" 
d="M530 1249l148 238h70l-164 -238h-54zM555 -25q-209 0 -331 153.5t-122 414.5t120 414t333 153q139 0 235.5 -78.5t141.5 -208.5v262h61v-1085h-53l-2 262q-52 -132 -156 -209.5t-227 -77.5zM555 37q162 0 271 138t106 368q-3 228 -108.5 367t-268.5 139
q-178 0 -282.5 -137.5t-104.5 -368.5t104.5 -368.5t282.5 -137.5z" />
    <glyph glyph-name="abreve.ss02" horiz-adv-x="1167" 
d="M559 1266q-106 0 -172.5 64t-81.5 173h53q12 -87 65.5 -133.5t135.5 -46.5t135.5 46.5t65.5 133.5h53q-15 -109 -81.5 -173t-172.5 -64zM555 -25q-209 0 -331 153.5t-122 414.5t120 414t333 153q139 0 235.5 -78.5t141.5 -208.5v262h61v-1085h-53l-2 262
q-52 -132 -156 -209.5t-227 -77.5zM555 37q162 0 271 138t106 368q-3 228 -108.5 367t-268.5 139q-178 0 -282.5 -137.5t-104.5 -368.5t104.5 -368.5t282.5 -137.5z" />
    <glyph glyph-name="uni01CE.ss02" horiz-adv-x="1167" 
d="M356 1503h58l145 -203l146 203h57l-180 -254h-45zM555 -25q-209 0 -331 153.5t-122 414.5t120 414t333 153q139 0 235.5 -78.5t141.5 -208.5v262h61v-1085h-53l-2 262q-52 -132 -156 -209.5t-227 -77.5zM555 37q162 0 271 138t106 368q-3 228 -108.5 367t-268.5 139
q-178 0 -282.5 -137.5t-104.5 -368.5t104.5 -368.5t282.5 -137.5z" />
    <glyph glyph-name="acircumflex.ss02" horiz-adv-x="1167" 
d="M358 1249l181 254h45l180 -254h-57l-146 203l-145 -203h-58zM555 -25q-209 0 -331 153.5t-122 414.5t120 414t333 153q139 0 235.5 -78.5t141.5 -208.5v262h61v-1085h-53l-2 262q-52 -132 -156 -209.5t-227 -77.5zM555 37q162 0 271 138t106 368q-3 228 -108.5 367
t-268.5 139q-178 0 -282.5 -137.5t-104.5 -368.5t104.5 -368.5t282.5 -137.5z" />
    <glyph glyph-name="adieresis.ss02" horiz-adv-x="1167" 
d="M393 1286v144h70v-144h-70zM655 1286v144h70v-144h-70zM555 -25q-209 0 -331 153.5t-122 414.5t120 414t333 153q139 0 235.5 -78.5t141.5 -208.5v262h61v-1085h-53l-2 262q-52 -132 -156 -209.5t-227 -77.5zM555 37q162 0 271 138t106 368q-3 228 -108.5 367t-268.5 139
q-178 0 -282.5 -137.5t-104.5 -368.5t104.5 -368.5t282.5 -137.5z" />
    <glyph glyph-name="agrave.ss02" horiz-adv-x="1167" 
d="M532 1266l-163 237h69l148 -237h-54zM555 -25q-209 0 -331 153.5t-122 414.5t120 414t333 153q139 0 235.5 -78.5t141.5 -208.5v262h61v-1085h-53l-2 262q-52 -132 -156 -209.5t-227 -77.5zM555 37q162 0 271 138t106 368q-3 228 -108.5 367t-268.5 139
q-178 0 -282.5 -137.5t-104.5 -368.5t104.5 -368.5t282.5 -137.5z" />
    </font>
</defs>
</svg>
