<?xml version="1.0" standalone="no"?>
<!DOCTYPE svg PUBLIC "-//W3C//DTD SVG 1.1//EN" "http://www.w3.org/Graphics/SVG/1.1/DTD/svg11.dtd" >
<svg xmlns="http://www.w3.org/2000/svg" xmlns:xlink="http://www.w3.org/1999/xlink" version="1.1">
<metadata>
Created by FontForge 20201107 at Mon Nov 11 05:26:56 2024
 By 
Copyright 2024 The Geist Project Authors (https://github.com/vercel/geist-font.git)
</metadata>
<defs>
<font id="Geist-Light" horiz-adv-x="0" >
  <font-face 
    font-family="Geist Light"
    font-weight="300"
    font-stretch="normal"
    units-per-em="2048"
    panose-1="0 0 0 0 0 0 0 0 0 0"
    ascent="1638"
    descent="-410"
    x-height="1085"
    cap-height="1454"
    bbox="-410 -442 4788 1907"
    underline-thickness="102"
    underline-position="-255"
    unicode-range="U+0020-FB02"
  />
<missing-glyph horiz-adv-x="1232" 
d="M82 0v1454h1075v-1454h-1075zM195 1380l426 -594l423 594h-849zM150 1323v-1192l428 596zM662 727l428 -596v1192zM195 74h849l-423 594z" />
    <glyph glyph-name="fi" unicode="fi" horiz-adv-x="1230" 
d="M281 0v965h-154v120h154v113q0 119 67.5 187.5t200.5 68.5h156v-121h-146q-143 0 -143 -145v-103h278v-120h-278v-965h-135zM926 1266v182h143v-182h-143zM930 0v1085h135v-1085h-135z" />
    <glyph glyph-name="fl" unicode="fl" horiz-adv-x="1277" 
d="M281 0v965h-154v120h154v113q0 119 67.5 187.5t200.5 68.5h156v-121h-146q-143 0 -143 -145v-103h278v-120h-278v-965h-135zM1118 0q-95 0 -146.5 47t-51.5 143v1264h135v-1253q0 -80 84 -80h84v-121h-105z" />
    <glyph glyph-name="f_f.liga" unicode="ff" horiz-adv-x="1353" 
d="M281 0v965h-154v120h154v113q0 119 67.5 187.5t200.5 68.5h156v-121h-146q-143 0 -143 -145v-103h430v113q0 119 67.5 187.5t200.5 68.5h156v-121h-144q-145 0 -145 -145v-103h279v-120h-279v-965h-135v965h-430v-965h-135z" />
    <glyph glyph-name="t_t.liga" unicode="tt" horiz-adv-x="1357" 
d="M547 0q-132 0 -196 62t-64 192v711h-170v120h170v254h135v-254h446v254h136v-254h280v-120h-280v-707q0 -75 33 -106t104 -31h143v-121h-156q-132 0 -196 62t-64 192v711h-446v-707q0 -75 33 -106t104 -31h143v-121h-155z" />
    <glyph glyph-name="hyphen_hyphen_hyphen_greater.liga" unicode="&#x2d;&#x2d;&#x2d;&#x3e;" horiz-adv-x="4915" 
d="M127 664v127h4420l-576 575h180l637 -639l-639 -639h-180l573 576h-4415z" />
    <glyph glyph-name="hyphen_hyphen_greater.liga" unicode="&#x2d;&#x2d;&#x3e;" horiz-adv-x="3686" 
d="M127 664v127h3191l-576 575h180l637 -639l-639 -639h-180l574 576h-3187z" />
    <glyph glyph-name="hyphen_greater.liga" unicode="&#x2d;&#x3e;" horiz-adv-x="2457" 
d="M127 664v127h1962l-576 575h181l637 -639l-639 -639h-181l574 576h-1958z" />
    <glyph glyph-name="less_hyphen.liga" unicode="&#x3c;&#x2d;" horiz-adv-x="2457" 
d="M946 88h-180l-639 639l637 639h180l-575 -575h1962v-127h-1958z" />
    <glyph glyph-name="less_hyphen_hyphen.liga" unicode="&#x3c;&#x2d;&#x2d;" horiz-adv-x="3686" 
d="M946 88h-180l-639 639l637 639h180l-575 -575h3190v-127h-3186z" />
    <glyph glyph-name="less_hyphen_hyphen_hyphen.liga" unicode="&#x3c;&#x2d;&#x2d;&#x2d;" horiz-adv-x="4915" 
d="M946 88h-180l-639 639l637 639h180l-575 -575h4419v-127h-4415z" />
    <glyph glyph-name="less_hyphen_greater.liga" unicode="&#x3c;&#x2d;&#x3e;" horiz-adv-x="3686" 
d="M766 88l-639 639l637 639h180l-575 -575h2949l-576 575h180l637 -639l-639 -639h-180l574 576h-2941l573 -576h-180z" />
    <glyph glyph-name=".notdef" horiz-adv-x="1232" 
d="M82 0v1454h1075v-1454h-1075zM195 1380l426 -594l423 594h-849zM150 1323v-1192l428 596zM662 727l428 -596v1192zM195 74h849l-423 594z" />
    <glyph glyph-name=".null" 
 />
    <glyph glyph-name="nonmarkingreturn" horiz-adv-x="682" 
 />
    <glyph glyph-name="space" unicode=" " horiz-adv-x="512" 
 />
    <glyph glyph-name="exclam" unicode="!" horiz-adv-x="405" 
d="M164 420q-25 395 -25 549v485h140v-485q0 -154 -25 -549h-90zM106 0v199h195v-199h-195z" />
    <glyph glyph-name="quotedbl" unicode="&#x22;" horiz-adv-x="647" 
d="M129 924l-33 372v158h146l-11 -530h-102zM416 924l-10 530h145v-158l-33 -372h-102z" />
    <glyph glyph-name="numbersign" unicode="#" horiz-adv-x="978" 
d="M88 0l76 416h-184l22 116h184l72 383h-197l23 117h195l79 422h119l-78 -422h285l78 422h121l-78 -422h184l-22 -117h-185l-71 -383h196l-22 -116h-195l-78 -416h-120l77 416h-284l-78 -416h-119zM307 532h285l70 383h-285z" />
    <glyph glyph-name="dollar" unicode="$" horiz-adv-x="1277" 
d="M590 -184v155q-206 23 -334 155t-139 325l141 10q12 -144 99 -239t233 -116v570q-125 30 -206 63t-136.5 78.5t-79 104t-23.5 139.5q0 169 120 279t325 116v182h121v-188q185 -27 294 -148t123 -292l-143 -11q-9 120 -79.5 204.5t-194.5 109.5v-533q249 -65 349.5 -162.5
t100.5 -248.5q0 -172 -125 -280.5t-325 -119.5v-153h-121zM289 1065q0 -100 61.5 -152.5t239.5 -101.5v512q-140 -6 -220.5 -76.5t-80.5 -181.5zM1018 360q0 49 -13 85.5t-46 72t-94 66t-154 59.5v-541q143 9 225 76t82 182z" />
    <glyph glyph-name="percent" unicode="%" horiz-adv-x="1556" 
d="M389 772q-133 0 -214 92t-81 256q0 165 81 257.5t214 92.5t214 -92.5t81 -257.5q0 -164 -81 -256t-214 -92zM205 0l1018 1454h129l-1016 -1454h-131zM389 874q85 0 130.5 64t45.5 182q0 120 -45.5 183t-130.5 63t-130.5 -63t-45.5 -183q0 -118 45.5 -182t130.5 -64z
M1167 -16q-132 0 -213.5 92.5t-81.5 257.5q0 164 81.5 256t213.5 92q133 0 214 -92t81 -256q0 -165 -81 -257.5t-214 -92.5zM1167 88q86 0 131 63t45 183q0 119 -45 182.5t-131 63.5q-85 0 -130.5 -64t-45.5 -182q0 -120 45.5 -183t130.5 -63z" />
    <glyph glyph-name="ampersand" unicode="&#x26;" horiz-adv-x="1245" 
d="M532 -33q-206 0 -325 101t-119 286q0 141 68 242t229 211q-90 119 -126 194t-36 164q0 149 90.5 235.5t245.5 86.5q153 0 239.5 -80.5t86.5 -224.5q0 -117 -69.5 -209.5t-235.5 -200.5l364 -463q76 101 82 293l139 -14q-6 -108 -42.5 -211.5t-92.5 -171.5l168 -205h-166
l-88 109q-142 -142 -412 -142zM506 870q131 84 182 150t51 154q0 84 -47.5 130t-132.5 46q-88 0 -138 -49.5t-50 -135.5q0 -67 29 -131t106 -164zM549 98q101 0 181 31t124 82l-387 489q-125 -84 -178 -164t-53 -182q0 -123 79.5 -189.5t233.5 -66.5z" />
    <glyph glyph-name="quotesingle" unicode="'" horiz-adv-x="337" 
d="M121 926l-25 370v158h146v-158l-27 -370h-94z" />
    <glyph glyph-name="parenleft" unicode="(" horiz-adv-x="516" 
d="M362 -225q-266 434 -266 880q0 447 266 881h121q-245 -438 -245 -881q0 -439 245 -880h-121z" />
    <glyph glyph-name="parenright" unicode=")" horiz-adv-x="516" 
d="M154 -225h-119q244 444 244 880q0 440 -244 881h119q268 -432 268 -881q0 -448 -268 -880z" />
    <glyph glyph-name="asterisk" unicode="*" horiz-adv-x="888" 
d="M301 793l-88 57l143 225h-262v109h262l-143 223l88 57l143 -235l144 235l90 -57l-146 -223h263v-109h-263l146 -225l-90 -57l-144 235z" />
    <glyph glyph-name="plus" unicode="+" horiz-adv-x="1142" 
d="M508 109v426h-426v124h426v428h127v-428h426v-124h-426v-426h-127z" />
    <glyph glyph-name="comma" unicode="," horiz-adv-x="385" 
d="M98 -299l88 299h-90v199h195v-174l-109 -324h-84z" />
    <glyph glyph-name="hyphen" unicode="-" horiz-adv-x="841" 
d="M94 526v127h654v-127h-654z" />
    <glyph glyph-name="period" unicode="." horiz-adv-x="382" 
d="M94 0v199h195v-199h-195z" />
    <glyph glyph-name="slash" unicode="/" horiz-adv-x="950" 
d="M82 -225l604 1761h131l-604 -1761h-131z" />
    <glyph glyph-name="zero" unicode="0" horiz-adv-x="1341" 
d="M670 -33q-259 0 -411.5 204.5t-152.5 553.5q0 350 152.5 556t411.5 206q260 0 412.5 -205.5t152.5 -556.5q0 -349 -152.5 -553.5t-412.5 -204.5zM670 104q199 0 309.5 163t110.5 458q0 296 -111 460.5t-309 164.5t-308 -164.5t-110 -460.5t110 -458.5t308 -162.5z" />
    <glyph glyph-name="one" unicode="1" horiz-adv-x="763" 
d="M393 0v1104h-305v119h115q123 0 171 49t48 182h110v-1454h-139z" />
    <glyph glyph-name="two" unicode="2" horiz-adv-x="1265" 
d="M129 0q0 226 122 388.5t425 320.5q90 47 144 81.5t95.5 76.5t58.5 88.5t17 107.5q0 129 -84 208t-239 79q-163 0 -261 -87.5t-124 -254.5l-146 10q25 219 164.5 344t366.5 125q217 0 343 -116.5t126 -303.5q0 -163 -89 -266.5t-317 -220.5q-204 -106 -314 -222.5
t-118 -222.5h838v-135h-1008z" />
    <glyph glyph-name="three" unicode="3" horiz-adv-x="1253" 
d="M618 -33q-229 0 -363 110t-146 292l143 10q13 -135 110.5 -205t255.5 -70q109 0 192.5 31t135 100.5t51.5 170.5q0 146 -103 224.5t-278 78.5h-122v135h122q153 0 241.5 63t88.5 187q0 123 -82 189.5t-235 66.5q-145 0 -227.5 -60t-100.5 -168l-147 11q24 162 148 258
t327 96q214 0 339.5 -104.5t125.5 -282.5q0 -118 -68 -198.5t-197 -117.5q147 -40 230.5 -141t83.5 -240q0 -201 -145.5 -318.5t-379.5 -117.5z" />
    <glyph glyph-name="four" unicode="4" horiz-adv-x="1249" 
d="M819 0v330h-751v125l743 999h147v-989h183v-135h-183v-330h-139zM240 465h579v772z" />
    <glyph glyph-name="five" unicode="5" horiz-adv-x="1273" 
d="M637 -33q-220 0 -355 110t-153 292l145 10q17 -132 113 -203.5t250 -71.5q165 0 261.5 97t96.5 266q0 166 -95.5 266.5t-266.5 100.5q-109 0 -198.5 -50.5t-129.5 -136.5h-151l94 807h799v-135h-672l-62 -502q57 70 148 110t194 40q220 0 354 -141t134 -359
q0 -222 -141.5 -361t-364.5 -139z" />
    <glyph glyph-name="six" unicode="6" horiz-adv-x="1273" 
d="M643 -33q-242 0 -378 165.5t-136 479.5q0 149 18.5 276.5t60.5 239t106 190.5t159.5 124t216.5 45q343 0 443 -340l-146 -14q-63 217 -297 217q-178 0 -286.5 -148t-129.5 -440q54 97 157 155t233 58q215 0 347 -135.5t132 -358.5q0 -234 -139 -374t-361 -140zM645 104
q158 0 255 100.5t97 276.5q0 164 -94 262.5t-248 98.5q-161 0 -265.5 -98t-104.5 -257q0 -169 97.5 -276t262.5 -107z" />
    <glyph glyph-name="seven" unicode="7" horiz-adv-x="1048" 
d="M375 0q0 344 138.5 690.5t381.5 628.5h-854v135h1008v-125q-264 -304 -397.5 -631t-133.5 -698h-143z" />
    <glyph glyph-name="eight" unicode="8" horiz-adv-x="1234" 
d="M616 -33q-238 0 -383 114t-145 316q0 142 79.5 242.5t217.5 144.5q-227 87 -227 310q0 174 125 283.5t333 109.5q210 0 334.5 -109.5t124.5 -283.5q0 -227 -225 -310q138 -44 216.5 -144.5t78.5 -242.5q0 -202 -145 -316t-384 -114zM616 842q149 0 231.5 65t82.5 189
q0 119 -82 186.5t-232 67.5t-230.5 -67.5t-80.5 -186.5q0 -124 82 -189t229 -65zM616 104q181 0 282 77.5t101 224.5q0 142 -98 224.5t-285 82.5q-186 0 -283 -82.5t-97 -224.5q0 -147 100 -224.5t280 -77.5z" />
    <glyph glyph-name="nine" unicode="9" horiz-adv-x="1273" 
d="M594 -33q-166 0 -279.5 82.5t-154.5 220.5l147 13q59 -179 287 -179q367 0 401 584q-62 -104 -161.5 -160.5t-223.5 -56.5q-213 0 -347 139t-134 361q0 233 138.5 374.5t357.5 141.5q131 0 230 -46.5t162 -133.5t94.5 -208t31.5 -274q0 -151 -17.5 -276.5t-57.5 -235
t-102.5 -185t-156.5 -118.5t-215 -43zM618 608q162 0 266.5 97.5t104.5 259.5q0 167 -100 276t-264 109q-158 0 -253.5 -105.5t-95.5 -273.5q0 -164 94.5 -263.5t247.5 -99.5z" />
    <glyph glyph-name="colon" unicode=":" horiz-adv-x="577" 
d="M190 819v199h195v-199h-195zM190 0v199h195v-199h-195z" />
    <glyph glyph-name="semicolon" unicode=";" horiz-adv-x="581" 
d="M195 819v199h194v-199h-194zM195 -299l88 299h-90v199h194v-174l-108 -324h-84z" />
    <glyph glyph-name="less" unicode="&#x3c;" horiz-adv-x="1107" 
d="M1006 82l-924 428v168l924 428v-135l-818 -377l818 -377v-135z" />
    <glyph glyph-name="equal" unicode="=" horiz-adv-x="1091" 
d="M82 754v127h928v-127h-928zM82 332v127h928v-127h-928z" />
    <glyph glyph-name="greater" unicode="&#x3e;" horiz-adv-x="1107" 
d="M102 82v135l816 377l-816 377v135l924 -428v-168z" />
    <glyph glyph-name="question" unicode="?" horiz-adv-x="1116" 
d="M483 422q0 136 44 219t147 152q88 59 129.5 99.5t57.5 84t16 113.5q0 113 -78.5 186.5t-210.5 73.5q-159 0 -246.5 -86.5t-101.5 -249.5l-146 10q18 210 149 336.5t345 126.5q193 0 313.5 -113.5t120.5 -283.5q0 -86 -28.5 -150.5t-80.5 -115.5t-151 -119
q-79 -55 -109 -115t-30 -168h-140zM453 0v199h194v-199h-194z" />
    <glyph glyph-name="at" unicode="@" horiz-adv-x="1869" 
d="M1294 -127q-215 -96 -458 -96q-343 0 -541.5 194t-198.5 541q0 207 67 382.5t185 298.5t285.5 192t363.5 69q352 0 564.5 -201.5t212.5 -539.5q0 -243 -100 -393t-261 -150q-87 0 -145.5 52.5t-73.5 142.5q-50 -91 -142.5 -147t-199.5 -56q-171 0 -270 103t-99 270
q0 211 121.5 351t313.5 140q101 0 178.5 -46t113.5 -124l15 162h116l-30 -391q-13 -123 -13 -201q0 -145 125 -145q107 0 168.5 113.5t61.5 314.5q0 298 -173.5 463t-486.5 165q-170 0 -314.5 -59t-246.5 -165.5t-159.5 -260t-57.5 -336.5q0 -298 165.5 -460t459.5 -162
q230 0 424 90zM872 272q146 0 234 106t88 253q0 124 -68 204t-194 80q-145 0 -230.5 -105t-85.5 -265q0 -127 63.5 -200t192.5 -73z" />
    <glyph glyph-name="A" unicode="A" horiz-adv-x="1329" 
d="M43 0l530 1454h185l528 -1454h-151l-156 436h-629l-155 -436h-152zM397 571h535l-266 758z" />
    <glyph glyph-name="B" unicode="B" horiz-adv-x="1363" 
d="M190 0v1454h482q257 0 382.5 -95.5t125.5 -295.5q0 -124 -71 -209.5t-194 -108.5q152 -20 239 -113.5t87 -236.5q0 -196 -124 -295.5t-363 -99.5h-564zM330 803h342q175 0 268.5 66.5t93.5 189.5q0 260 -362 260h-342v-516zM330 135h424q168 0 255 67t87 199
q0 125 -90.5 196t-251.5 71h-424v-533z" />
    <glyph glyph-name="C" unicode="C" horiz-adv-x="1421" 
d="M735 -33q-291 0 -465 203.5t-174 554.5t174 556.5t465 205.5q248 0 395 -131.5t193 -366.5l-147 -10q-32 175 -143.5 273t-297.5 98q-225 0 -359 -167.5t-134 -457.5q0 -289 134 -455t359 -166q195 0 310 106t143 298l147 -10q-39 -245 -194.5 -388t-405.5 -143z" />
    <glyph glyph-name="D" unicode="D" horiz-adv-x="1415" 
d="M190 0v1454h439q332 0 511 -189.5t179 -539.5q0 -349 -175.5 -537t-502.5 -188h-451zM330 135h299q268 0 406.5 150t138.5 440q0 293 -138 443.5t-407 150.5h-299v-1184z" />
    <glyph glyph-name="E" unicode="E" horiz-adv-x="1214" 
d="M190 0v1454h895v-135h-755v-524h731v-133h-731v-527h772v-135h-912z" />
    <glyph glyph-name="F" unicode="F" horiz-adv-x="1187" 
d="M190 0v1454h895v-135h-755v-537h719v-133h-719v-649h-140z" />
    <glyph glyph-name="G" unicode="G" horiz-adv-x="1417" 
d="M731 -33q-195 0 -340 96.5t-220 267.5t-75 394q0 224 74.5 395t221 269t345.5 98q237 0 382 -131t188 -357l-146 -10q-70 361 -424 361q-124 0 -219.5 -48t-155 -133t-90 -197.5t-30.5 -246.5q0 -281 127 -451t364 -170q199 0 319 133.5t128 346.5h-439v131h570v-715
h-107l-8 283q-51 -141 -175 -228.5t-290 -87.5z" />
    <glyph glyph-name="H" unicode="H" horiz-adv-x="1435" 
d="M190 0v1454h140v-651h774v651h139v-1454h-139v668h-774v-668h-140z" />
    <glyph glyph-name="I" unicode="I" horiz-adv-x="522" 
d="M190 0v1454h140v-1454h-140z" />
    <glyph glyph-name="J" unicode="J" horiz-adv-x="1204" 
d="M590 -33q-197 0 -322.5 140t-128.5 368l144 10q3 -183 84 -282t223 -99q150 0 232.5 104.5t82.5 299.5v946h139v-946q0 -252 -123 -396.5t-331 -144.5z" />
    <glyph glyph-name="K" unicode="K" horiz-adv-x="1294" 
d="M190 0v1454h140v-778l712 778h177l-578 -631l619 -823h-168l-543 721l-219 -238v-483h-140z" />
    <glyph glyph-name="L" unicode="L" horiz-adv-x="1167" 
d="M190 0v1454h140v-1319h745v-135h-885z" />
    <glyph glyph-name="M" unicode="M" horiz-adv-x="1777" 
d="M190 0v1454h201l498 -1302l497 1302h201v-1454h-139v1214l-469 -1214h-180l-469 1214v-1214h-140z" />
    <glyph glyph-name="N" unicode="N" horiz-adv-x="1499" 
d="M190 0v1454h199l780 -1317v1317h140v-1454h-207l-772 1300v-1300h-140z" />
    <glyph glyph-name="O" unicode="O" horiz-adv-x="1497" 
d="M748 -33q-304 0 -478 203t-174 555q0 354 174 558t478 204q305 0 479 -204t174 -558q0 -353 -174 -555.5t-479 -202.5zM748 104q236 0 371.5 165.5t135.5 455.5q0 292 -135.5 458.5t-371.5 166.5t-371 -166.5t-135 -458.5q0 -290 135 -455.5t371 -165.5z" />
    <glyph glyph-name="P" unicode="P" horiz-adv-x="1308" 
d="M190 0v1454h510q239 0 373.5 -115.5t134.5 -318.5t-134.5 -318.5t-373.5 -115.5h-370v-586h-140zM330 721h370q178 0 269.5 76t91.5 223q0 148 -91.5 223.5t-269.5 75.5h-370v-598z" />
    <glyph glyph-name="Q" unicode="Q" horiz-adv-x="1484" 
d="M1137 -141l-127 166q-116 -58 -269 -58q-148 0 -270 57.5t-204 158.5t-126.5 240.5t-44.5 301.5q0 219 75.5 390.5t223.5 271.5t346 100q200 0 348.5 -100t224 -271.5t75.5 -390.5q0 -210 -72 -376.5t-205 -266.5l176 -223h-151zM741 104q115 0 181 35l-228 287h152
l182 -236q215 169 215 535q0 180 -56.5 320t-171.5 222.5t-274 82.5t-273 -82.5t-170 -222.5t-56 -320q0 -179 56 -318t170.5 -221t272.5 -82z" />
    <glyph glyph-name="R" unicode="R" horiz-adv-x="1347" 
d="M190 0v1454h533q231 0 362.5 -115.5t131.5 -316.5q0 -126 -74.5 -219t-186.5 -125q212 -35 232 -260l37 -418h-142l-34 406q-8 102 -73 149t-204 47h-442v-602h-140zM330 737h415q151 0 237.5 75t86.5 212q0 143 -88.5 219t-259.5 76h-391v-582z" />
    <glyph glyph-name="S" unicode="S" horiz-adv-x="1298" 
d="M678 -33q-242 0 -395.5 137.5t-165.5 354.5l145 10q14 -167 124.5 -266t295.5 -99q163 0 258.5 69.5t95.5 195.5q0 57 -17 98t-63.5 81t-133 73.5t-220.5 66.5q-252 61 -353.5 146.5t-101.5 248.5q0 178 129 291t351 113q116 0 212.5 -36t161 -99t102.5 -145t46 -177
l-145 -10q-13 146 -111.5 238t-269.5 92q-152 0 -241 -72.5t-89 -190.5q0 -77 33.5 -123.5t114 -82t241.5 -74.5q188 -45 300 -108t157 -140t45 -184q0 -122 -66.5 -215.5t-181 -143t-258.5 -49.5z" />
    <glyph glyph-name="T" unicode="T" horiz-adv-x="1124" 
d="M494 0v1319h-467v135h1073v-135h-467v-1319h-139z" />
    <glyph glyph-name="U" unicode="U" horiz-adv-x="1392" 
d="M696 -33q-250 0 -393 144.5t-143 396.5v948h139v-948q0 -194 103.5 -299t293.5 -105q191 0 294.5 105.5t103.5 298.5v948h139v-948q0 -252 -143.5 -396.5t-393.5 -144.5z" />
    <glyph glyph-name="V" unicode="V" horiz-adv-x="1349" 
d="M586 0l-543 1454h154l479 -1302l477 1302h152l-541 -1454h-178z" />
    <glyph glyph-name="W" unicode="W" horiz-adv-x="1914" 
d="M471 0l-391 1454h151l328 -1270l315 1270h164l316 -1270l327 1270h152l-391 -1454h-180l-306 1212l-305 -1212h-180z" />
    <glyph glyph-name="X" unicode="X" horiz-adv-x="1234" 
d="M35 0l493 731l-487 723h166l411 -614l410 614h164l-487 -723l497 -731h-166l-420 623l-419 -623h-162z" />
    <glyph glyph-name="Y" unicode="Y" horiz-adv-x="1155" 
d="M508 0v594l-518 860h166l422 -719l421 719h166l-518 -860v-594h-139z" />
    <glyph glyph-name="Z" unicode="Z" horiz-adv-x="1099" 
d="M59 0v141l803 1178h-776v135h934v-141l-803 -1178h823v-135h-981z" />
    <glyph glyph-name="bracketleft" unicode="[" horiz-adv-x="669" 
d="M637 -225h-447v1761h447v-115h-315v-1532h315v-114z" />
    <glyph glyph-name="backslash" unicode="\" horiz-adv-x="925" 
d="M831 -225h-131l-604 1761h131z" />
    <glyph glyph-name="bracketright" unicode="]" horiz-adv-x="669" 
d="M35 -225v114h313v1532h-313v115h444v-1761h-444z" />
    <glyph glyph-name="asciicircum" unicode="^" horiz-adv-x="833" 
d="M82 784l246 594h178l246 -594h-136l-200 478l-199 -478h-135z" />
    <glyph glyph-name="underscore" unicode="_" horiz-adv-x="1124" 
d="M94 -127v127h936v-127h-936z" />
    <glyph glyph-name="grave" unicode="`" horiz-adv-x="479" 
d="M272 1245l-178 254h152l139 -254h-113z" />
    <glyph glyph-name="a" unicode="a" horiz-adv-x="1120" 
d="M455 -25q-165 0 -263 78.5t-98 214.5q0 132 84.5 210.5t253.5 111.5l402 76q0 160 -69.5 237.5t-211.5 77.5q-245 0 -297 -227l-143 12q30 159 145.5 251.5t294.5 92.5q201 0 308.5 -114.5t107.5 -327.5v-453q0 -53 17 -73.5t56 -20.5h33v-121q-24 -4 -55 -4
q-90 0 -134.5 43.5t-51.5 146.5q-42 -92 -147 -151.5t-232 -59.5zM467 96q165 0 266 96.5t101 243.5v109l-373 -70q-117 -22 -171 -69t-54 -125q0 -89 61 -137t170 -48z" />
    <glyph glyph-name="b" unicode="b" horiz-adv-x="1202" 
d="M645 -25q-121 0 -214 61.5t-138 164.5l-6 -201h-119v1454h135v-559q42 92 133.5 153.5t208.5 61.5q213 0 338 -153.5t125 -413.5q0 -261 -124.5 -414.5t-338.5 -153.5zM639 104q150 0 238 119t88 320q0 202 -87.5 320t-236.5 118q-156 0 -247 -119t-91 -319
q0 -199 91 -319t245 -120z" />
    <glyph glyph-name="c" unicode="c" horiz-adv-x="1107" 
d="M580 -25q-225 0 -355.5 157.5t-130.5 410.5t130.5 410t355.5 157q184 0 301.5 -99.5t150.5 -273.5l-141 -8q-25 120 -106 186t-205 66q-161 0 -252.5 -117t-91.5 -321t91.5 -321.5t252.5 -117.5q126 0 208 71.5t105 203.5l141 -10q-31 -180 -151 -287t-303 -107z" />
    <glyph glyph-name="d" unicode="d" horiz-adv-x="1202" 
d="M551 -25q-212 0 -334.5 153t-122.5 415t122.5 414.5t334.5 152.5q119 0 213 -58t135 -157v559h135v-1454h-119l-6 203q-45 -106 -141.5 -167t-216.5 -61zM573 104q152 0 239 119.5t87 319.5q0 199 -87 318.5t-239 119.5q-154 0 -245.5 -118t-91.5 -320q0 -201 91.5 -320
t245.5 -119z" />
    <glyph glyph-name="e" unicode="e" horiz-adv-x="1140" 
d="M584 -25q-228 0 -359 157t-131 411t129 410.5t352 156.5q217 0 344.5 -153.5t127.5 -409.5v-43h-811q7 -192 99 -296t249 -104q115 0 192 56t107 153l145 -10q-42 -148 -160.5 -238t-283.5 -90zM236 625h663q-10 171 -95.5 263.5t-228.5 92.5q-142 0 -231 -93t-108 -263z
" />
    <glyph glyph-name="f" unicode="f" horiz-adv-x="788" 
d="M281 0v965h-154v120h154v113q0 119 67.5 187.5t200.5 68.5h156v-121h-146q-143 0 -143 -145v-103h278v-120h-278v-965h-135z" />
    <glyph glyph-name="g" unicode="g" horiz-adv-x="1200" 
d="M569 -332q-172 0 -291.5 88t-144.5 230l141 8q20 -93 93 -145t202 -52q158 0 243 74.5t85 214.5v186q-43 -100 -133 -158.5t-205 -58.5q-207 0 -336 146.5t-129 382.5q0 235 127.5 380.5t331.5 145.5q122 0 216.5 -62.5t133.5 -164.5v202h129v-999q0 -195 -123 -306.5
t-340 -111.5zM565 184q151 0 241.5 108t90.5 292q3 178 -89 287.5t-243 109.5q-153 0 -241 -106.5t-88 -290.5q0 -185 88.5 -292.5t240.5 -107.5z" />
    <glyph glyph-name="h" unicode="h" horiz-adv-x="1173" 
d="M168 0v1454h135v-561q37 107 127.5 162t214.5 55q173 0 267 -113.5t94 -298.5v-698h-136v649q0 340 -256 340q-145 0 -228 -91t-83 -251v-647h-135z" />
    <glyph glyph-name="i" unicode="i" horiz-adv-x="468" 
d="M164 1266v182h143v-182h-143zM168 0v1085h135v-1085h-135z" />
    <glyph glyph-name="j" unicode="j" horiz-adv-x="512" 
d="M205 1266v182h143v-182h-143zM-10 -307v121h78q74 0 107.5 31.5t33.5 113.5v1126h135v-1134q0 -141 -60.5 -199.5t-201.5 -58.5h-92z" />
    <glyph glyph-name="k" unicode="k" horiz-adv-x="1193" 
d="M168 0v1454h135v-987l588 618h180l-446 -462l473 -623h-164l-399 532l-232 -237v-295h-135z" />
    <glyph glyph-name="l" unicode="l" horiz-adv-x="526" 
d="M367 0q-95 0 -147 47t-52 143v1264h135v-1253q0 -80 82 -80h86v-121h-104z" />
    <glyph glyph-name="m" unicode="m" horiz-adv-x="1775" 
d="M168 0v1085h123l4 -204q37 105 123 167t198 62q117 0 199.5 -65.5t114.5 -182.5q35 117 122 182.5t210 65.5q162 0 254 -110.5t92 -303.5v-696h-135v655q0 161 -62.5 247.5t-179.5 86.5q-124 0 -201.5 -95.5t-77.5 -250.5v-643h-135v649q0 163 -58 251.5t-175 88.5
q-125 0 -203 -94t-78 -246v-649h-135z" />
    <glyph glyph-name="n" unicode="n" horiz-adv-x="1173" 
d="M168 0v1085h123l4 -208q39 115 131 174t215 59q178 0 271.5 -115.5t93.5 -296.5v-698h-136v649q0 340 -258 340q-141 0 -225 -91.5t-84 -248.5v-649h-135z" />
    <glyph glyph-name="o" unicode="o" horiz-adv-x="1157" 
d="M580 -25q-221 0 -353.5 154.5t-132.5 413.5t132 413t354 154q220 0 351.5 -154t131.5 -413t-131.5 -413.5t-351.5 -154.5zM580 104q160 0 251 117.5t91 321.5t-91 321t-251 117q-161 0 -252.5 -117t-91.5 -321t91.5 -321.5t252.5 -117.5z" />
    <glyph glyph-name="p" unicode="p" horiz-adv-x="1202" 
d="M168 -307v1392h123l4 -202q47 109 139 168t213 59q112 0 201 -44t145 -121.5t85.5 -179.5t29.5 -222t-29.5 -222t-85.5 -180t-145 -122t-201 -44q-114 0 -208 58.5t-136 150.5v-491h-135zM637 104q152 0 240 117.5t88 321.5t-88 321t-242 117q-152 0 -242 -117.5
t-90 -320.5t90.5 -321t243.5 -118z" />
    <glyph glyph-name="q" unicode="q" horiz-adv-x="1202" 
d="M1034 -307h-135v491q-44 -93 -137.5 -151t-208.5 -58q-111 0 -199.5 44t-144.5 122t-85.5 180t-29.5 222t29.5 222t85.5 179.5t145 121.5t201 44q119 0 211 -58.5t141 -168.5l2 202h125v-1392zM565 104q152 0 243 118t91 321q0 202 -91 320t-243 118t-240.5 -117
t-88.5 -321t88.5 -321.5t240.5 -117.5z" />
    <glyph glyph-name="r" unicode="r" horiz-adv-x="751" 
d="M168 0v1085h117l6 -215q64 215 272 215h94v-131h-98q-122 0 -189 -78t-67 -214v-662h-135z" />
    <glyph glyph-name="s" unicode="s" horiz-adv-x="1062" 
d="M553 -25q-207 0 -327.5 99.5t-131.5 259.5l142 10q12 -111 93 -175.5t224 -64.5q131 0 201.5 44.5t70.5 132.5q0 53 -21.5 84t-88 57.5t-195.5 48.5q-153 27 -240 69t-121 99.5t-34 144.5q0 147 106 236.5t289 89.5q181 0 289 -96t135 -244l-141 -12q-18 99 -91 161
t-194 62t-186.5 -51t-65.5 -139q0 -89 60.5 -131t224.5 -70q161 -26 252.5 -66.5t128.5 -97t37 -143.5q0 -145 -114.5 -226.5t-301.5 -81.5z" />
    <glyph glyph-name="t" unicode="t" horiz-adv-x="776" 
d="M547 0q-132 0 -196 62t-64 192v711h-170v120h170v254h135v-254h280v-120h-280v-707q0 -75 33 -106t104 -31h143v-121h-155z" />
    <glyph glyph-name="u" unicode="u" horiz-adv-x="1165" 
d="M524 -25q-164 0 -260 110t-96 302v698h135v-657q0 -332 256 -332q140 0 221.5 92t81.5 250v647h135v-1085h-127l-2 197q-40 -106 -129 -164t-215 -58z" />
    <glyph glyph-name="v" unicode="v" horiz-adv-x="1060" 
d="M444 0l-397 1085h148l335 -948l336 948h148l-398 -1085h-172z" />
    <glyph glyph-name="w" unicode="w" horiz-adv-x="1648" 
d="M393 0l-346 1085h148l280 -944l277 944h143l276 -944l283 944h148l-347 -1085h-168l-264 881l-262 -881h-168z" />
    <glyph glyph-name="x" unicode="x" horiz-adv-x="1165" 
d="M98 0l402 553l-383 532h157l310 -440l305 440h162l-381 -534l397 -551h-158l-323 463l-328 -463h-160z" />
    <glyph glyph-name="y" unicode="y" horiz-adv-x="1073" 
d="M201 -307v121h110q67 0 99.5 20.5t52.5 75.5l41 110h-49l-408 1065h148l350 -944l334 944h147l-446 -1220q-33 -92 -92 -132t-166 -40h-121z" />
    <glyph glyph-name="z" unicode="z" horiz-adv-x="1116" 
d="M119 0v135l712 830h-692v120h842v-135l-715 -829h731v-121h-878z" />
    <glyph glyph-name="braceleft" unicode="{" horiz-adv-x="776" 
d="M655 -233q-159 0 -251.5 95.5t-92.5 254.5v176q0 140 -56.5 215.5t-158.5 75.5v135q102 0 158.5 75t56.5 216v176q0 158 93 254t251 96h86v-127q-159 4 -229 -49.5t-70 -171.5v-189q0 -148 -62.5 -237t-160.5 -109v-2q100 -18 161.5 -108t61.5 -240v-188
q0 -117 70 -170.5t229 -50.5v-127h-86z" />
    <glyph glyph-name="bar" unicode="|" horiz-adv-x="512" 
d="M190 -225v1761h132v-1761h-132z" />
    <glyph glyph-name="braceright" unicode="}" horiz-adv-x="776" 
d="M121 -233h-86v127q159 -3 229 50.5t70 170.5v188q0 150 61.5 240t161.5 108v2q-99 20 -161 108.5t-62 237.5v189q0 118 -70 171.5t-229 49.5v127h86q158 0 251 -96t93 -254v-176q0 -141 56.5 -216t158.5 -75v-135q-102 0 -158.5 -75.5t-56.5 -215.5v-176
q0 -159 -92.5 -254.5t-251.5 -95.5z" />
    <glyph glyph-name="asciitilde" unicode="~" horiz-adv-x="1042" 
d="M707 502q-65 0 -108.5 26t-104.5 97q-60 72 -88 92t-68 20q-59 0 -92.5 -57.5t-34.5 -161.5h-129q3 157 71.5 250.5t180.5 93.5q68 0 114 -28.5t101 -96.5t85.5 -89t70.5 -21q58 0 91 57.5t35 161.5h130q-1 -157 -70.5 -250.5t-183.5 -93.5z" />
    <glyph glyph-name="uni00A0" unicode="&#xa0;" horiz-adv-x="512" 
 />
    <glyph glyph-name="exclamdown" unicode="&#xa1;" horiz-adv-x="405" 
d="M106 1122h195v-198h-195v198zM139 -332v486q0 153 25 548h90q25 -395 25 -548v-486h-140z" />
    <glyph glyph-name="cent" unicode="&#xa2;" horiz-adv-x="1107" 
d="M438 -27l17 201q-169 41 -265 189.5t-96 363.5q0 245 122.5 401t334.5 166l16 193h115l-16 -199q148 -22 243 -117.5t123 -248.5l-141 -9q-22 100 -83.5 163.5t-154.5 80.5l-73 -868q126 0 208 71t105 203l141 -10q-31 -180 -151 -286.5t-303 -106.5h-11l-16 -187h-115z
M236 727q0 -163 61 -273t170 -147l74 856q-143 -15 -224 -130.5t-81 -305.5z" />
    <glyph glyph-name="sterling" unicode="&#xa3;" horiz-adv-x="1243" 
d="M117 0v131q122 76 189 187t67 245q0 35 -8 101h-248v122h219q-23 74 -33 109.5t-19.5 88.5t-9.5 99q0 172 117 288t297 116q204 0 315.5 -99.5t133.5 -261.5l-158 -12q-23 115 -97.5 175.5t-189.5 60.5q-123 0 -198.5 -81t-75.5 -206q0 -97 57 -277h381v-122h-360
q8 -194 -45.5 -319.5t-186.5 -205.5h871v-139h-1018z" />
    <glyph glyph-name="currency" unicode="&#xa4;" horiz-adv-x="1245" 
d="M186 186l-90 88l185 187q-82 113 -82 250q0 139 82 252l-185 186l90 88l187 -184q113 82 250 82q136 0 249 -82l187 186l92 -90l-186 -186q82 -116 82 -252t-82 -252l184 -185l-90 -90l-185 185q-116 -82 -251 -82q-136 0 -252 82zM623 401q125 0 217 91.5t92 218.5
t-92 218t-217 91q-128 0 -219 -91t-91 -218t91.5 -218.5t218.5 -91.5z" />
    <glyph glyph-name="yen" unicode="&#xa5;" horiz-adv-x="1155" 
d="M174 309v127h334v152h-334v127h262l-446 739h166l422 -719l421 719h166l-444 -739h371v-127h-445v-152h445v-127h-445v-309h-139v309h-334z" />
    <glyph glyph-name="brokenbar" unicode="&#xa6;" horiz-adv-x="512" 
d="M190 809v727h132v-727h-132zM190 -225v727h132v-727h-132z" />
    <glyph glyph-name="section" unicode="&#xa7;" horiz-adv-x="1116" 
d="M580 -131q-203 0 -325 102.5t-138 264.5l141 10q16 -115 96.5 -180.5t225.5 -65.5q130 0 204 46.5t74 131.5q0 149 -326 207q-197 39 -288.5 107t-91.5 188q0 93 55.5 160t167.5 102q-219 77 -219 238q0 138 112.5 222.5t292.5 84.5t291 -93.5t135 -254.5l-141 -11
q-19 107 -95.5 167.5t-203.5 60.5q-107 0 -178.5 -49t-71.5 -121t63 -115t222 -80q161 -34 252 -77.5t128 -101.5t37 -146q0 -176 -206 -238q105 -40 154.5 -102.5t49.5 -155.5q0 -138 -119.5 -219.5t-297.5 -81.5zM633 494q106 0 172.5 50t66.5 128q0 64 -51.5 110
t-131.5 67t-177 21q-96 0 -163.5 -51t-67.5 -125q0 -87 84.5 -143.5t267.5 -56.5z" />
    <glyph glyph-name="dieresis" unicode="&#xa8;" horiz-adv-x="657" 
d="M94 1266v182h144v-182h-144zM420 1266v182h143v-182h-143z" />
    <glyph glyph-name="copyright" unicode="&#xa9;" horiz-adv-x="1701" 
d="M852 -25q-154 0 -294 60t-241 161t-161 241t-60 294t60 294t161 241t241 161t294 60t294 -60t241 -161t161 -241t60 -294t-60 -294t-161 -241t-241 -161t-294 -60zM852 106q125 0 239.5 49.5t198 133t133.5 199.5t50 243t-50 243t-133.5 199.5t-198 133t-239.5 49.5
q-168 0 -311.5 -83.5t-227.5 -227.5t-84 -314t84 -314t227.5 -227.5t311.5 -83.5zM860 295q-183 0 -299.5 122t-116.5 314q0 190 116.5 311t299.5 121q148 0 250.5 -87.5t116.5 -221.5l-127 -8q-14 87 -81 142.5t-159 55.5q-127 0 -208 -87.5t-81 -225.5q0 -140 81 -228.5
t208 -88.5q95 0 164.5 61.5t83.5 155.5l127 -10q-15 -141 -120 -233.5t-255 -92.5z" />
    <glyph glyph-name="ordfeminine" unicode="&#xaa;" horiz-adv-x="794" 
d="M313 770q-106 0 -168.5 48.5t-62.5 133.5q0 166 217 209l242 47q0 174 -152 174q-136 0 -160 -125l-135 9q19 106 95.5 163.5t199.5 57.5q139 0 211 -72.5t72 -212.5v-266q0 -34 10.5 -46.5t34.5 -12.5h16v-99q-18 -6 -47 -6q-120 0 -133 127q-29 -57 -92.5 -93
t-147.5 -36zM334 866q90 0 148.5 52t58.5 135v61l-201 -39q-123 -28 -123 -110q0 -47 30 -73t87 -26z" />
    <glyph glyph-name="guillemotleft" unicode="&#xab;" horiz-adv-x="1069" 
d="M561 156h-168l-299 348v123l299 348h168l-352 -410zM975 156h-168l-299 348v123l299 348h168l-352 -410z" />
    <glyph glyph-name="logicalnot" unicode="&#xac;" horiz-adv-x="1024" 
d="M821 135v391h-739v121h860v-512h-121z" />
    <glyph glyph-name="registered" unicode="&#xae;" horiz-adv-x="1302" 
d="M653 373q-153 0 -281 74.5t-202 203t-74 279.5q0 152 74 280t202 202.5t281 74.5q113 0 216 -44t177 -118.5t118 -177.5t44 -217q0 -113 -44 -216t-118 -178t-177 -119t-216 -44zM653 467q129 0 235 63t165 169t59 231t-59 230.5t-165 168t-235 62.5q-197 0 -330 -135
t-133 -326t133 -327t330 -136zM434 618v619h203q116 0 181 -49t65 -137q0 -63 -35.5 -107t-99.5 -61l153 -265h-106l-142 250h-125v-250h-94zM528 948h125q64 0 101 28.5t37 78.5q0 47 -37 74.5t-101 27.5h-125v-209z" />
    <glyph glyph-name="macron" unicode="&#xaf;" horiz-adv-x="722" 
d="M94 1292v119h535v-119h-535z" />
    <glyph glyph-name="degree" unicode="&#xb0;" horiz-adv-x="800" 
d="M399 877q-126 0 -215.5 88t-89.5 217t89.5 217t215.5 88q127 0 217.5 -88t90.5 -217t-90.5 -217t-217.5 -88zM399 997q77 0 131 52.5t54 132.5t-54.5 133t-130.5 53q-75 0 -129.5 -53t-54.5 -133t54.5 -132.5t129.5 -52.5z" />
    <glyph glyph-name="plusminus" unicode="&#xb1;" horiz-adv-x="1101" 
d="M487 203v407h-405v125h405v406h127v-406h406v-125h-406v-407h-127zM82 0v121h938v-121h-938z" />
    <glyph glyph-name="uni00B2" unicode="&#xb2;" horiz-adv-x="710" 
d="M82 662q0 135 43 212.5t172 149.5l94 51q75 41 100 75t25 93q0 60 -41 94.5t-106 34.5q-79 0 -121.5 -40.5t-54.5 -125.5l-109 6q12 121 86 189.5t199 68.5q118 0 188 -62t70 -165q0 -88 -46.5 -143.5t-150.5 -110.5l-76 -41q-150 -81 -147 -188h418v-98h-543z" />
    <glyph glyph-name="uni00B3" unicode="&#xb3;" horiz-adv-x="675" 
d="M330 645q-275 0 -289 223l109 6q5 -64 47 -97.5t133 -33.5q86 0 131 38.5t45 105.5q0 66 -45.5 105.5t-134.5 39.5h-54v96h54q64 0 103.5 30.5t39.5 92.5q0 56 -36.5 87.5t-110.5 31.5q-71 0 -109.5 -31t-44.5 -84l-109 9q12 93 81 149.5t182 56.5q125 0 191.5 -56.5
t66.5 -153.5q0 -131 -142 -175q176 -42 176 -200q0 -109 -78.5 -174.5t-205.5 -65.5z" />
    <glyph glyph-name="acute" unicode="&#xb4;" horiz-adv-x="479" 
d="M94 1233l139 254h152l-178 -254h-113z" />
    <glyph glyph-name="uni00B5" unicode="&#xb5;" horiz-adv-x="1165" 
d="M168 -307v1392h135v-657q0 -332 256 -332q140 0 221.5 92t81.5 250v647h135v-1085h-127l-2 197q-40 -106 -129 -164t-215 -58q-134 0 -221 72v-354h-135z" />
    <glyph glyph-name="paragraph" unicode="&#xb6;" horiz-adv-x="1159" 
d="M557 0v627q-208 0 -334.5 112t-126.5 301t127 301.5t334 112.5h410v-1454h-131v1329h-148v-1329h-131z" />
    <glyph glyph-name="periodcentered" unicode="&#xb7;" horiz-adv-x="382" 
d="M94 516v199h195v-199h-195z" />
    <glyph glyph-name="cedilla" unicode="&#xb8;" horiz-adv-x="630" 
d="M319 -440q-88 0 -146 40t-79 107l86 35q18 -45 49.5 -66.5t85.5 -21.5q57 0 89 24t32 68q0 47 -36 71.5t-128 24.5l-47 54l72 120h106l-65 -98q97 -4 148 -50t51 -126q0 -82 -61 -132t-157 -50z" />
    <glyph glyph-name="uni00B9" unicode="&#xb9;" horiz-adv-x="471" 
d="M240 662v542l-199 -2v84h41q90 0 137 44t47 126h82v-794h-108z" />
    <glyph glyph-name="ordmasculine" unicode="&#xba;" horiz-adv-x="825" 
d="M414 770q-153 0 -242.5 96.5t-89.5 261.5q0 164 89.5 261.5t242.5 97.5q152 0 240.5 -97.5t88.5 -261.5q0 -165 -88.5 -261.5t-240.5 -96.5zM414 877q93 0 144.5 66t51.5 185q0 118 -51.5 185t-144.5 67q-94 0 -146.5 -67.5t-52.5 -184.5q0 -118 52 -184.5t147 -66.5z
" />
    <glyph glyph-name="guillemotright" unicode="&#xbb;" horiz-adv-x="1073" 
d="M502 156l350 409l-350 410h168l299 -348v-123l-299 -348h-168zM88 156l350 409l-350 410h168l299 -348v-123l-299 -348h-168z" />
    <glyph glyph-name="onequarter" unicode="&#xbc;" horiz-adv-x="1435" 
d="M240 662v542l-199 -2v84h41q90 0 137 44t47 126h82v-794h-108zM143 0l1016 1454h131l-1018 -1454h-129zM1167 0v188h-376v84l383 521h102v-508h119v-97h-119v-188h-109zM909 285h258v350z" />
    <glyph glyph-name="onehalf" unicode="&#xbd;" horiz-adv-x="1589" 
d="M240 662v542l-199 -2v84h41q90 0 137 44t47 126h82v-794h-108zM143 0l1016 1454h131l-1018 -1454h-129zM963 0q0 135 43 212.5t172 149.5l94 52q73 41 98 75t25 93q0 60 -40.5 94.5t-105.5 34.5q-79 0 -122.5 -40.5t-55.5 -125.5l-106 6q12 121 85.5 189.5t198.5 68.5
q118 0 187 -62t69 -165q0 -89 -45.5 -144t-148.5 -110l-76 -41q-150 -81 -150 -189h420v-98h-542z" />
    <glyph glyph-name="threequarters" unicode="&#xbe;" horiz-adv-x="1558" 
d="M330 645q-275 0 -289 223l109 6q5 -64 47 -97.5t133 -33.5q86 0 131 38.5t45 105.5q0 66 -45.5 105.5t-134.5 39.5h-54v96h54q64 0 103.5 30.5t39.5 92.5q0 56 -36.5 87.5t-110.5 31.5q-71 0 -109.5 -31t-44.5 -84l-109 9q12 93 81 149.5t182 56.5q125 0 191.5 -56.5
t66.5 -153.5q0 -131 -142 -175q176 -42 176 -200q0 -109 -78.5 -174.5t-205.5 -65.5zM266 0l1018 1454h129l-1016 -1454h-131zM1290 0v188h-375v84l381 521h105v-508h117v-97h-117v-188h-111zM1032 285h258v350z" />
    <glyph glyph-name="questiondown" unicode="&#xbf;" horiz-adv-x="1116" 
d="M664 1155v-199h-195v199h195zM528 -332q-194 0 -314 113.5t-120 284.5q0 86 27.5 150.5t80.5 115.5t152 119q79 55 109.5 115t30.5 167h139q0 -135 -44.5 -218.5t-146.5 -152.5q-88 -59 -129 -99t-57 -83.5t-16 -113.5q0 -114 77.5 -187.5t210.5 -73.5q159 0 247 86.5
t102 249.5l145 -10q-18 -210 -149 -336.5t-345 -126.5z" />
    <glyph glyph-name="Agrave" unicode="&#xc0;" horiz-adv-x="1329" 
d="M614 1614l-178 254h152l139 -254h-113zM43 0l530 1454h185l528 -1454h-151l-156 436h-629l-155 -436h-152zM397 571h535l-266 758z" />
    <glyph glyph-name="Aacute" unicode="&#xc1;" horiz-adv-x="1329" 
d="M604 1602l139 253h152l-176 -253h-115zM43 0l530 1454h185l528 -1454h-151l-156 436h-629l-155 -436h-152zM397 571h535l-266 758z" />
    <glyph glyph-name="Acircumflex" unicode="&#xc2;" horiz-adv-x="1329" 
d="M412 1602l182 266h143l183 -266h-115l-139 190l-140 -190h-114zM43 0l530 1454h185l528 -1454h-151l-156 436h-629l-155 -436h-152zM397 571h535l-266 758z" />
    <glyph glyph-name="Atilde" unicode="&#xc3;" horiz-adv-x="1331" 
d="M766 1632q-73 0 -139 60q-35 31 -56.5 43t-52.5 12q-87 0 -92 -129h-90q4 105 54 163t128 58q83 0 154 -65q32 -28 53 -39t45 -11q41 0 61.5 30.5t26.5 105.5h88q-6 -108 -53.5 -168t-126.5 -60zM43 0l528 1454h185l528 -1454h-149l-156 436h-631l-155 -436h-150z
M395 571h537l-268 758z" />
    <glyph glyph-name="Adieresis" unicode="&#xc4;" horiz-adv-x="1329" 
d="M430 1634v183h143v-183h-143zM756 1634v183h143v-183h-143zM43 0l530 1454h185l528 -1454h-151l-156 436h-629l-155 -436h-152zM397 571h535l-266 758z" />
    <glyph glyph-name="Aring" unicode="&#xc5;" horiz-adv-x="1331" 
d="M659 1559q-75 0 -124.5 50t-49.5 124q0 75 49.5 124.5t124.5 49.5q74 0 124.5 -49.5t50.5 -124.5q0 -74 -50 -124t-125 -50zM659 1645q38 0 63.5 25t25.5 63q0 39 -25 63.5t-64 24.5t-63.5 -24.5t-24.5 -63.5q0 -38 25 -63t63 -25zM43 0l528 1454h185l528 -1454h-149
l-156 436h-631l-155 -436h-150zM395 571h537l-268 758z" />
    <glyph glyph-name="AE" unicode="&#xc6;" horiz-adv-x="1935" 
d="M43 0l772 1454h991v-135h-686v-524h662v-131h-662v-529h703v-135h-842v436h-555l-225 -436h-158zM981 1323h-96l-389 -752h485v752z" />
    <glyph glyph-name="Ccedilla" unicode="&#xc7;" horiz-adv-x="1421" 
d="M719 -440q-89 0 -146.5 40t-78.5 107l86 35q30 -88 135 -88q56 0 87.5 24t31.5 68q0 47 -35 71.5t-127 24.5l-47 54l45 73q-264 25 -419 225.5t-155 530.5q0 351 174 556.5t465 205.5q248 0 395 -131.5t193 -366.5l-147 -10q-32 175 -143.5 273t-297.5 98
q-225 0 -359 -167.5t-134 -457.5q0 -289 134 -455t359 -166q195 0 310 106t143 298l147 -10q-38 -237 -184 -379t-381 -152l-33 -49q97 -4 148 -50t51 -126q0 -82 -60.5 -132t-156.5 -50z" />
    <glyph glyph-name="Egrave" unicode="&#xc8;" horiz-adv-x="1214" 
d="M590 1614l-176 254h151l140 -254h-115zM190 0v1454h895v-135h-755v-524h731v-133h-731v-527h772v-135h-912z" />
    <glyph glyph-name="Eacute" unicode="&#xc9;" horiz-adv-x="1214" 
d="M582 1602l139 253h151l-178 -253h-112zM190 0v1454h895v-135h-755v-524h731v-133h-731v-527h772v-135h-912z" />
    <glyph glyph-name="Ecircumflex" unicode="&#xca;" horiz-adv-x="1214" 
d="M387 1602l184 266h144l182 -266h-115l-139 190l-141 -190h-115zM190 0v1454h895v-135h-755v-524h731v-133h-731v-527h772v-135h-912z" />
    <glyph glyph-name="Edieresis" unicode="&#xcb;" horiz-adv-x="1214" 
d="M408 1634v183h143v-183h-143zM733 1634v183h144v-183h-144zM190 0v1454h895v-135h-755v-524h731v-133h-731v-527h772v-135h-912z" />
    <glyph glyph-name="Igrave" unicode="&#xcc;" horiz-adv-x="522" 
d="M209 1614l-176 254h151l140 -254h-115zM190 0v1454h140v-1454h-140z" />
    <glyph glyph-name="Iacute" unicode="&#xcd;" horiz-adv-x="522" 
d="M201 1602l139 253h152l-179 -253h-112zM190 0v1454h140v-1454h-140z" />
    <glyph glyph-name="Icircumflex" unicode="&#xce;" horiz-adv-x="522" 
d="M6 1602l184 266h144l182 -266h-115l-139 190l-141 -190h-115zM190 0v1454h140v-1454h-140z" />
    <glyph glyph-name="Idieresis" unicode="&#xcf;" horiz-adv-x="522" 
d="M27 1634v183h143v-183h-143zM352 1634v183h144v-183h-144zM190 0v1454h140v-1454h-140z" />
    <glyph glyph-name="Eth" unicode="&#xd0;" horiz-adv-x="1415" 
d="M190 0v664h-155v127h155v663h439q332 0 511 -189.5t179 -539.5q0 -349 -175.5 -537t-502.5 -188h-451zM330 135h299q268 0 406.5 150t138.5 440q0 293 -138 443.5t-407 150.5h-299v-528h454v-127h-454v-529z" />
    <glyph glyph-name="Ntilde" unicode="&#xd1;" horiz-adv-x="1499" 
d="M889 1632q-73 0 -139 60q-35 31 -56.5 43t-52.5 12q-87 0 -92 -129h-90q4 105 54 163t128 58q83 0 154 -65q32 -28 53 -39t45 -11q41 0 61.5 30.5t26.5 105.5h88q-6 -108 -53.5 -168t-126.5 -60zM190 0v1454h199l780 -1317v1317h140v-1454h-207l-772 1300v-1300h-140z
" />
    <glyph glyph-name="Ograve" unicode="&#xd2;" horiz-adv-x="1497" 
d="M696 1614l-178 254h152l139 -254h-113zM748 -33q-304 0 -478 203t-174 555q0 354 174 558t478 204q305 0 479 -204t174 -558q0 -353 -174 -555.5t-479 -202.5zM748 104q236 0 371.5 165.5t135.5 455.5q0 292 -135.5 458.5t-371.5 166.5t-371 -166.5t-135 -458.5
q0 -290 135 -455.5t371 -165.5z" />
    <glyph glyph-name="Oacute" unicode="&#xd3;" horiz-adv-x="1497" 
d="M688 1602l139 253h152l-178 -253h-113zM748 -33q-304 0 -478 203t-174 555q0 354 174 558t478 204q305 0 479 -204t174 -558q0 -353 -174 -555.5t-479 -202.5zM748 104q236 0 371.5 165.5t135.5 455.5q0 292 -135.5 458.5t-371.5 166.5t-371 -166.5t-135 -458.5
q0 -290 135 -455.5t371 -165.5z" />
    <glyph glyph-name="Ocircumflex" unicode="&#xd4;" horiz-adv-x="1497" 
d="M494 1602l182 266h143l185 -266h-115l-141 190l-140 -190h-114zM748 -33q-304 0 -478 203t-174 555q0 354 174 558t478 204q305 0 479 -204t174 -558q0 -353 -174 -555.5t-479 -202.5zM748 104q236 0 371.5 165.5t135.5 455.5q0 292 -135.5 458.5t-371.5 166.5
t-371 -166.5t-135 -458.5q0 -290 135 -455.5t371 -165.5z" />
    <glyph glyph-name="Otilde" unicode="&#xd5;" horiz-adv-x="1497" 
d="M866 1632q-73 0 -139 60q-35 31 -56.5 43t-52.5 12q-87 0 -92 -129h-90q4 105 54 163t128 58q83 0 154 -65q32 -28 53 -39t45 -11q41 0 61.5 30.5t26.5 105.5h89q-6 -107 -54 -167.5t-127 -60.5zM748 -33q-304 0 -478 203t-174 555q0 354 174 558t478 204q305 0 479 -204
t174 -558q0 -353 -174 -555.5t-479 -202.5zM748 104q236 0 371.5 165.5t135.5 455.5q0 292 -135.5 458.5t-371.5 166.5t-371 -166.5t-135 -458.5q0 -290 135 -455.5t371 -165.5z" />
    <glyph glyph-name="Odieresis" unicode="&#xd6;" horiz-adv-x="1497" 
d="M514 1634v183h143v-183h-143zM838 1634v183h143v-183h-143zM748 -33q-304 0 -478 203t-174 555q0 354 174 558t478 204q305 0 479 -204t174 -558q0 -353 -174 -555.5t-479 -202.5zM748 104q236 0 371.5 165.5t135.5 455.5q0 292 -135.5 458.5t-371.5 166.5t-371 -166.5
t-135 -458.5q0 -290 135 -455.5t371 -165.5z" />
    <glyph glyph-name="multiply" unicode="&#xd7;" horiz-adv-x="993" 
d="M82 270l326 328l-326 326l88 88l328 -326l325 326l88 -88l-325 -326l325 -328l-88 -88l-325 326l-328 -326z" />
    <glyph glyph-name="Oslash" unicode="&#xd8;" horiz-adv-x="1497" 
d="M158 -33l127 187q-189 201 -189 571q0 354 174 558t478 204q222 0 376 -111l78 111h137l-129 -187q191 -207 191 -575q0 -353 -174 -555.5t-479 -202.5q-220 0 -377 111l-76 -111h-137zM242 725q0 -286 129 -449l673 981q-126 93 -296 93q-236 0 -371 -166.5t-135 -458.5
zM748 104q236 0 371.5 165.5t135.5 455.5q0 284 -129 451l-673 -979q119 -93 295 -93z" />
    <glyph glyph-name="Ugrave" unicode="&#xd9;" horiz-adv-x="1392" 
d="M645 1614l-176 254h152l139 -254h-115zM696 -33q-250 0 -393 144.5t-143 396.5v948h139v-948q0 -194 103.5 -299t293.5 -105q191 0 294.5 105.5t103.5 298.5v948h139v-948q0 -252 -143.5 -396.5t-393.5 -144.5z" />
    <glyph glyph-name="Uacute" unicode="&#xda;" horiz-adv-x="1392" 
d="M637 1602l139 253h152l-178 -253h-113zM696 -33q-250 0 -393 144.5t-143 396.5v948h139v-948q0 -194 103.5 -299t293.5 -105q191 0 294.5 105.5t103.5 298.5v948h139v-948q0 -252 -143.5 -396.5t-393.5 -144.5z" />
    <glyph glyph-name="Ucircumflex" unicode="&#xdb;" horiz-adv-x="1392" 
d="M442 1602l185 266h143l182 -266h-114l-140 190l-141 -190h-115zM696 -33q-250 0 -393 144.5t-143 396.5v948h139v-948q0 -194 103.5 -299t293.5 -105q191 0 294.5 105.5t103.5 298.5v948h139v-948q0 -252 -143.5 -396.5t-393.5 -144.5z" />
    <glyph glyph-name="Udieresis" unicode="&#xdc;" horiz-adv-x="1392" 
d="M463 1634v183h143v-183h-143zM788 1634v183h144v-183h-144zM696 -33q-250 0 -393 144.5t-143 396.5v948h139v-948q0 -194 103.5 -299t293.5 -105q191 0 294.5 105.5t103.5 298.5v948h139v-948q0 -252 -143.5 -396.5t-393.5 -144.5z" />
    <glyph glyph-name="Yacute" unicode="&#xdd;" horiz-adv-x="1155" 
d="M518 1602l139 253h152l-178 -253h-113zM508 0v594l-518 860h166l422 -719l421 719h166l-518 -860v-594h-139z" />
    <glyph glyph-name="Thorn" unicode="&#xde;" horiz-adv-x="1247" 
d="M190 0v1454h140v-270h301q245 0 380.5 -115.5t135.5 -320.5q0 -204 -135 -317.5t-381 -113.5h-301v-317h-140zM631 1049h-301v-596h301q368 0 368 295q0 301 -368 301z" />
    <glyph glyph-name="germandbls" unicode="&#xdf;" horiz-adv-x="1185" 
d="M168 0v1028q0 204 116.5 325.5t311.5 121.5q192 0 304 -102t112 -271q0 -117 -62.5 -201.5t-171.5 -118.5q150 -34 237 -134t87 -242q0 -193 -131 -299.5t-365 -106.5h-145v129h145q170 0 261 71.5t91 211.5q0 137 -101.5 216t-281.5 79h-94v127h94q137 0 217 71.5
t80 192.5q0 113 -72.5 180.5t-203.5 67.5q-134 0 -213.5 -86t-79.5 -232v-1028h-135z" />
    <glyph glyph-name="agrave" unicode="&#xe0;" horiz-adv-x="1120" 
d="M508 1245l-176 254h151l140 -254h-115zM455 -25q-165 0 -263 78.5t-98 214.5q0 132 84.5 210.5t253.5 111.5l402 76q0 160 -69.5 237.5t-211.5 77.5q-245 0 -297 -227l-143 12q30 159 145.5 251.5t294.5 92.5q201 0 308.5 -114.5t107.5 -327.5v-453q0 -53 17 -73.5
t56 -20.5h33v-121q-24 -4 -55 -4q-90 0 -134.5 43.5t-51.5 146.5q-42 -92 -147 -151.5t-232 -59.5zM467 96q165 0 266 96.5t101 243.5v109l-373 -70q-117 -22 -171 -69t-54 -125q0 -89 61 -137t170 -48z" />
    <glyph glyph-name="aacute" unicode="&#xe1;" horiz-adv-x="1120" 
d="M500 1233l139 254h152l-179 -254h-112zM455 -25q-165 0 -263 78.5t-98 214.5q0 132 84.5 210.5t253.5 111.5l402 76q0 160 -69.5 237.5t-211.5 77.5q-245 0 -297 -227l-143 12q30 159 145.5 251.5t294.5 92.5q201 0 308.5 -114.5t107.5 -327.5v-453q0 -53 17 -73.5
t56 -20.5h33v-121q-24 -4 -55 -4q-90 0 -134.5 43.5t-51.5 146.5q-42 -92 -147 -151.5t-232 -59.5zM467 96q165 0 266 96.5t101 243.5v109l-373 -70q-117 -22 -171 -69t-54 -125q0 -89 61 -137t170 -48z" />
    <glyph glyph-name="acircumflex" unicode="&#xe2;" horiz-adv-x="1120" 
d="M305 1233l184 266h144l182 -266h-115l-139 190l-141 -190h-115zM455 -25q-165 0 -263 78.5t-98 214.5q0 132 84.5 210.5t253.5 111.5l402 76q0 160 -69.5 237.5t-211.5 77.5q-245 0 -297 -227l-143 12q30 159 145.5 251.5t294.5 92.5q201 0 308.5 -114.5t107.5 -327.5
v-453q0 -53 17 -73.5t56 -20.5h33v-121q-24 -4 -55 -4q-90 0 -134.5 43.5t-51.5 146.5q-42 -92 -147 -151.5t-232 -59.5zM467 96q165 0 266 96.5t101 243.5v109l-373 -70q-117 -22 -171 -69t-54 -125q0 -89 61 -137t170 -48z" />
    <glyph glyph-name="atilde" unicode="&#xe3;" horiz-adv-x="1120" 
d="M678 1264q-74 0 -139 59q-35 32 -56 43.5t-53 11.5q-87 0 -92 -129h-88q3 105 52.5 163t127.5 58q83 0 154 -65q57 -49 100 -49q39 0 59.5 30.5t26.5 104.5h90q-6 -107 -54 -167t-128 -60zM455 -25q-165 0 -263 78.5t-98 214.5q0 132 84.5 210.5t253.5 111.5l402 76
q0 160 -69.5 237.5t-211.5 77.5q-245 0 -297 -227l-143 12q30 159 145.5 251.5t294.5 92.5q201 0 308.5 -114.5t107.5 -327.5v-453q0 -53 17 -73.5t56 -20.5h33v-121q-24 -4 -55 -4q-90 0 -134.5 43.5t-51.5 146.5q-42 -92 -147 -151.5t-232 -59.5zM467 96q165 0 266 96.5
t101 243.5v109l-373 -70q-117 -22 -171 -69t-54 -125q0 -89 61 -137t170 -48z" />
    <glyph glyph-name="adieresis" unicode="&#xe4;" horiz-adv-x="1120" 
d="M326 1266v182h143v-182h-143zM651 1266v182h144v-182h-144zM455 -25q-165 0 -263 78.5t-98 214.5q0 132 84.5 210.5t253.5 111.5l402 76q0 160 -69.5 237.5t-211.5 77.5q-245 0 -297 -227l-143 12q30 159 145.5 251.5t294.5 92.5q201 0 308.5 -114.5t107.5 -327.5v-453
q0 -53 17 -73.5t56 -20.5h33v-121q-24 -4 -55 -4q-90 0 -134.5 43.5t-51.5 146.5q-42 -92 -147 -151.5t-232 -59.5zM467 96q165 0 266 96.5t101 243.5v109l-373 -70q-117 -22 -171 -69t-54 -125q0 -89 61 -137t170 -48z" />
    <glyph glyph-name="aring" unicode="&#xe5;" horiz-adv-x="1120" 
d="M559 1190q-73 0 -123.5 50t-50.5 124q0 75 50 124.5t124 49.5q75 0 124.5 -49.5t49.5 -124.5q0 -74 -49.5 -124t-124.5 -50zM559 1276q39 0 63.5 24.5t24.5 63.5q0 40 -24 64t-64 24q-39 0 -63.5 -24.5t-24.5 -63.5q0 -38 25 -63t63 -25zM455 -25q-165 0 -263 78.5
t-98 214.5q0 132 84.5 210.5t253.5 111.5l402 76q0 160 -69.5 237.5t-211.5 77.5q-245 0 -297 -227l-143 12q30 159 145.5 251.5t294.5 92.5q201 0 308.5 -114.5t107.5 -327.5v-453q0 -53 17 -73.5t56 -20.5h33v-121q-24 -4 -55 -4q-90 0 -134.5 43.5t-51.5 146.5
q-42 -92 -147 -151.5t-232 -59.5zM467 96q165 0 266 96.5t101 243.5v109l-373 -70q-117 -22 -171 -69t-54 -125q0 -89 61 -137t170 -48z" />
    <glyph glyph-name="ae" unicode="&#xe6;" horiz-adv-x="1886" 
d="M459 -25q-166 0 -265.5 77.5t-99.5 217.5q0 143 92.5 220t245.5 98l402 49q0 181 -69 262.5t-214 81.5q-123 0 -198.5 -61t-96.5 -166l-143 12q30 157 145.5 250.5t288.5 93.5q286 0 381 -215q61 102 161.5 158.5t231.5 56.5q217 0 344 -153.5t127 -409.5v-43h-811
q7 -192 99 -296t249 -104q115 0 192 56t107 153l146 -10q-42 -148 -160.5 -238t-284.5 -90q-151 0 -261.5 72t-168.5 199q-53 -126 -170.5 -198.5t-269.5 -72.5zM981 625h664q-10 171 -95.5 263.5t-228.5 92.5q-142 0 -231.5 -93.5t-108.5 -262.5zM489 96q153 5 249 98
t96 244v80l-373 -45q-225 -26 -225 -190q0 -94 65 -142t188 -45z" />
    <glyph glyph-name="ccedilla" unicode="&#xe7;" horiz-adv-x="1107" 
d="M561 -440q-89 0 -146.5 40t-78.5 107l86 35q30 -88 135 -88q56 0 87.5 24t31.5 68q0 47 -35 71.5t-127 24.5l-47 54l49 84q-197 23 -309.5 176.5t-112.5 386.5q0 253 130.5 410t355.5 157q184 0 301.5 -99.5t150.5 -273.5l-141 -8q-25 120 -106 186t-205 66
q-161 0 -252.5 -117t-91.5 -321t91.5 -321.5t252.5 -117.5q126 0 208 71.5t105 203.5l141 -10q-30 -170 -139.5 -276t-276.5 -116l-38 -59q97 -4 147.5 -50t50.5 -126q0 -82 -60.5 -132t-156.5 -50z" />
    <glyph glyph-name="egrave" unicode="&#xe8;" horiz-adv-x="1140" 
d="M528 1243l-178 254h152l139 -254h-113zM584 -25q-228 0 -359 157t-131 411t129 410.5t352 156.5q217 0 344.5 -153.5t127.5 -409.5v-43h-811q7 -192 99 -296t249 -104q115 0 192 56t107 153l145 -10q-42 -148 -160.5 -238t-283.5 -90zM236 625h663q-10 171 -95.5 263.5
t-228.5 92.5q-142 0 -231 -93t-108 -263z" />
    <glyph glyph-name="eacute" unicode="&#xe9;" horiz-adv-x="1140" 
d="M520 1231l139 254h152l-178 -254h-113zM584 -25q-228 0 -359 157t-131 411t129 410.5t352 156.5q217 0 344.5 -153.5t127.5 -409.5v-43h-811q7 -192 99 -296t249 -104q115 0 192 56t107 153l145 -10q-42 -148 -160.5 -238t-283.5 -90zM236 625h663q-10 171 -95.5 263.5
t-228.5 92.5q-142 0 -231 -93t-108 -263z" />
    <glyph glyph-name="ecircumflex" unicode="&#xea;" horiz-adv-x="1140" 
d="M326 1231l182 266h143l185 -266h-115l-141 188l-140 -188h-114zM584 -25q-228 0 -359 157t-131 411t129 410.5t352 156.5q217 0 344.5 -153.5t127.5 -409.5v-43h-811q7 -192 99 -296t249 -104q115 0 192 56t107 153l145 -10q-42 -148 -160.5 -238t-283.5 -90zM236 625
h663q-10 171 -95.5 263.5t-228.5 92.5q-142 0 -231 -93t-108 -263z" />
    <glyph glyph-name="edieresis" unicode="&#xeb;" horiz-adv-x="1140" 
d="M346 1264v180h143v-180h-143zM670 1264v180h143v-180h-143zM584 -25q-228 0 -359 157t-131 411t129 410.5t352 156.5q217 0 344.5 -153.5t127.5 -409.5v-43h-811q7 -192 99 -296t249 -104q115 0 192 56t107 153l145 -10q-42 -148 -160.5 -238t-283.5 -90zM236 625h663
q-10 171 -95.5 263.5t-228.5 92.5q-142 0 -231 -93t-108 -263z" />
    <glyph glyph-name="igrave" unicode="&#xec;" horiz-adv-x="468" 
d="M184 1245l-178 254h152l139 -254h-113zM168 0v1085h135v-1085h-135z" />
    <glyph glyph-name="iacute" unicode="&#xed;" horiz-adv-x="468" 
d="M174 1233l139 254h152l-176 -254h-115zM168 0v1085h135v-1085h-135z" />
    <glyph glyph-name="icircumflex" unicode="&#xee;" horiz-adv-x="468" 
d="M-18 1233l182 266h143l182 -266h-114l-139 190l-140 -190h-114zM168 0v1085h135v-1085h-135z" />
    <glyph glyph-name="idieresis" unicode="&#xef;" horiz-adv-x="468" 
d="M0 1266v182h143v-182h-143zM326 1266v182h143v-182h-143zM168 0v1085h135v-1085h-135z" />
    <glyph glyph-name="eth" unicode="&#xf0;" horiz-adv-x="1157" 
d="M580 -25q-221 0 -353.5 142t-132.5 385t132.5 384.5t353.5 141.5q178 0 311 -123q-50 180 -158 285l-248 -88l-41 106l179 64q-114 64 -289 86l33 121q245 -36 401 -156l299 107l39 -107l-246 -88q203 -238 203 -713q0 -257 -131 -402t-352 -145zM580 104q162 0 252 107
t90 311q0 174 -91.5 275.5t-250.5 101.5q-162 0 -253 -104.5t-91 -292.5t91 -293t253 -105z" />
    <glyph glyph-name="ntilde" unicode="&#xf1;" horiz-adv-x="1173" 
d="M705 1264q-75 0 -140 59q-33 32 -54 43.5t-52 11.5q-89 0 -94 -129h-89q4 105 54.5 163t128.5 58q47 0 80.5 -16t70.5 -49q57 -49 101 -49q40 0 61 30.5t27 104.5h88q-6 -107 -54 -167t-128 -60zM168 0v1085h123l4 -208q39 115 131 174t215 59q178 0 271.5 -115.5
t93.5 -296.5v-698h-136v649q0 340 -258 340q-141 0 -225 -91.5t-84 -248.5v-649h-135z" />
    <glyph glyph-name="ograve" unicode="&#xf2;" horiz-adv-x="1157" 
d="M528 1245l-178 254h152l139 -254h-113zM580 -25q-221 0 -353.5 154.5t-132.5 413.5t132 413t354 154q220 0 351.5 -154t131.5 -413t-131.5 -413.5t-351.5 -154.5zM580 104q160 0 251 117.5t91 321.5t-91 321t-251 117q-161 0 -252.5 -117t-91.5 -321t91.5 -321.5
t252.5 -117.5z" />
    <glyph glyph-name="oacute" unicode="&#xf3;" horiz-adv-x="1157" 
d="M520 1233l139 254h152l-178 -254h-113zM580 -25q-221 0 -353.5 154.5t-132.5 413.5t132 413t354 154q220 0 351.5 -154t131.5 -413t-131.5 -413.5t-351.5 -154.5zM580 104q160 0 251 117.5t91 321.5t-91 321t-251 117q-161 0 -252.5 -117t-91.5 -321t91.5 -321.5
t252.5 -117.5z" />
    <glyph glyph-name="ocircumflex" unicode="&#xf4;" horiz-adv-x="1157" 
d="M326 1233l182 266h143l185 -266h-115l-141 190l-140 -190h-114zM580 -25q-221 0 -353.5 154.5t-132.5 413.5t132 413t354 154q220 0 351.5 -154t131.5 -413t-131.5 -413.5t-351.5 -154.5zM580 104q160 0 251 117.5t91 321.5t-91 321t-251 117q-161 0 -252.5 -117
t-91.5 -321t91.5 -321.5t252.5 -117.5z" />
    <glyph glyph-name="otilde" unicode="&#xf5;" horiz-adv-x="1157" 
d="M698 1264q-74 0 -139 59q-35 32 -56.5 43.5t-51.5 11.5q-88 0 -93 -129h-90q4 105 54.5 163t128.5 58q82 0 153 -65q57 -49 98 -49t62 30.5t27 104.5h88q-6 -107 -53.5 -167t-127.5 -60zM580 -25q-221 0 -353.5 154.5t-132.5 413.5t132 413t354 154q220 0 351.5 -154
t131.5 -413t-131.5 -413.5t-351.5 -154.5zM580 104q160 0 251 117.5t91 321.5t-91 321t-251 117q-161 0 -252.5 -117t-91.5 -321t91.5 -321.5t252.5 -117.5z" />
    <glyph glyph-name="odieresis" unicode="&#xf6;" horiz-adv-x="1157" 
d="M346 1266v182h143v-182h-143zM670 1266v182h143v-182h-143zM580 -25q-221 0 -353.5 154.5t-132.5 413.5t132 413t354 154q220 0 351.5 -154t131.5 -413t-131.5 -413.5t-351.5 -154.5zM580 104q160 0 251 117.5t91 321.5t-91 321t-251 117q-161 0 -252.5 -117t-91.5 -321
t91.5 -321.5t252.5 -117.5z" />
    <glyph glyph-name="divide" unicode="&#xf7;" horiz-adv-x="1091" 
d="M547 846q-51 0 -81 29.5t-30 76.5q0 48 30 78.5t81 30.5q50 0 80 -30.5t30 -78.5q0 -47 -30 -76.5t-80 -29.5zM82 526v127h928v-127h-928zM547 117q-51 0 -81 30.5t-30 77.5q0 48 30 78.5t81 30.5q50 0 80 -30.5t30 -78.5q0 -47 -30 -77.5t-80 -30.5z" />
    <glyph glyph-name="oslash" unicode="&#xf8;" horiz-adv-x="1157" 
d="M139 -29l99 146q-144 157 -144 426q0 259 132 413t354 154q153 0 266 -78l55 82h117l-96 -145q141 -154 141 -426q0 -259 -131.5 -413.5t-351.5 -154.5q-156 0 -269 78l-55 -82h-117zM236 543q0 -190 79 -305l457 684q-77 59 -192 59q-161 0 -252.5 -117t-91.5 -321z
M580 104q160 0 251 117.5t91 321.5q0 189 -80 305l-457 -684q82 -60 195 -60z" />
    <glyph glyph-name="ugrave" unicode="&#xf9;" horiz-adv-x="1165" 
d="M526 1245l-178 254h152l139 -254h-113zM524 -25q-164 0 -260 110t-96 302v698h135v-657q0 -332 256 -332q140 0 221.5 92t81.5 250v647h135v-1085h-127l-2 197q-40 -106 -129 -164t-215 -58z" />
    <glyph glyph-name="uacute" unicode="&#xfa;" horiz-adv-x="1165" 
d="M518 1233l139 254h152l-178 -254h-113zM524 -25q-164 0 -260 110t-96 302v698h135v-657q0 -332 256 -332q140 0 221.5 92t81.5 250v647h135v-1085h-127l-2 197q-40 -106 -129 -164t-215 -58z" />
    <glyph glyph-name="ucircumflex" unicode="&#xfb;" horiz-adv-x="1165" 
d="M324 1233l182 266h143l185 -266h-115l-141 190l-140 -190h-114zM524 -25q-164 0 -260 110t-96 302v698h135v-657q0 -332 256 -332q140 0 221.5 92t81.5 250v647h135v-1085h-127l-2 197q-40 -106 -129 -164t-215 -58z" />
    <glyph glyph-name="udieresis" unicode="&#xfc;" horiz-adv-x="1165" 
d="M344 1266v182h143v-182h-143zM668 1266v182h143v-182h-143zM524 -25q-164 0 -260 110t-96 302v698h135v-657q0 -332 256 -332q140 0 221.5 92t81.5 250v647h135v-1085h-127l-2 197q-40 -106 -129 -164t-215 -58z" />
    <glyph glyph-name="yacute" unicode="&#xfd;" horiz-adv-x="1073" 
d="M481 1233l140 254h151l-176 -254h-115zM201 -307v121h110q67 0 99.5 20.5t52.5 75.5l41 110h-49l-408 1065h148l350 -944l334 944h147l-446 -1220q-33 -92 -92 -132t-166 -40h-121z" />
    <glyph glyph-name="thorn" unicode="&#xfe;" horiz-adv-x="1202" 
d="M168 -307v1761h139v-545q45 93 135.5 146t208.5 53q146 0 251 -77t155.5 -202.5t50.5 -285.5q0 -161 -50.5 -287.5t-155.5 -203.5t-251 -77q-115 0 -202.5 50t-141.5 141v-473h-139zM631 104q164 0 251 123.5t87 315.5q0 126 -36 223.5t-113.5 157t-188.5 59.5
q-106 0 -184 -62t-115 -160.5t-37 -217.5q0 -118 37 -215.5t115 -160.5t184 -63z" />
    <glyph glyph-name="ydieresis" unicode="&#xff;" horiz-adv-x="1073" 
d="M307 1266v182h144v-182h-144zM633 1266v182h143v-182h-143zM201 -307v121h110q67 0 99.5 20.5t52.5 75.5l41 110h-49l-408 1065h148l350 -944l334 944h147l-446 -1220q-33 -92 -92 -132t-166 -40h-121z" />
    <glyph glyph-name="Amacron" unicode="&#x100;" horiz-adv-x="1329" 
d="M397 1661v119h535v-119h-535zM43 0l530 1454h185l528 -1454h-151l-156 436h-629l-155 -436h-152zM397 571h535l-266 758z" />
    <glyph glyph-name="amacron" unicode="&#x101;" horiz-adv-x="1120" 
d="M293 1292v119h534v-119h-534zM455 -25q-165 0 -263 78.5t-98 214.5q0 132 84.5 210.5t253.5 111.5l402 76q0 160 -69.5 237.5t-211.5 77.5q-245 0 -297 -227l-143 12q30 159 145.5 251.5t294.5 92.5q201 0 308.5 -114.5t107.5 -327.5v-453q0 -53 17 -73.5t56 -20.5h33
v-121q-24 -4 -55 -4q-90 0 -134.5 43.5t-51.5 146.5q-42 -92 -147 -151.5t-232 -59.5zM467 96q165 0 266 96.5t101 243.5v109l-373 -70q-117 -22 -171 -69t-54 -125q0 -89 61 -137t170 -48z" />
    <glyph glyph-name="Abreve" unicode="&#x102;" horiz-adv-x="1329" 
d="M666 1614q-119 0 -193.5 69t-83.5 185h96q10 -75 57.5 -112.5t123.5 -37.5q75 0 121 37.5t55 112.5h98q-9 -117 -82 -185.5t-192 -68.5zM43 0l530 1454h185l528 -1454h-151l-156 436h-629l-155 -436h-152zM397 571h535l-266 758z" />
    <glyph glyph-name="abreve" unicode="&#x103;" horiz-adv-x="1120" 
d="M559 1245q-119 0 -192 68.5t-82 185.5h96q10 -75 56.5 -112t121.5 -37t121.5 37t56.5 112h97q-9 -116 -82.5 -185t-192.5 -69zM455 -25q-165 0 -263 78.5t-98 214.5q0 132 84.5 210.5t253.5 111.5l402 76q0 160 -69.5 237.5t-211.5 77.5q-245 0 -297 -227l-143 12
q30 159 145.5 251.5t294.5 92.5q201 0 308.5 -114.5t107.5 -327.5v-453q0 -53 17 -73.5t56 -20.5h33v-121q-24 -4 -55 -4q-90 0 -134.5 43.5t-51.5 146.5q-42 -92 -147 -151.5t-232 -59.5zM467 96q165 0 266 96.5t101 243.5v109l-373 -70q-117 -22 -171 -69t-54 -125
q0 -89 61 -137t170 -48z" />
    <glyph glyph-name="Aogonek" unicode="&#x104;" horiz-adv-x="1329" 
d="M43 0l530 1454h185l528 -1454l-65 -92q-66 -98 -66 -156q0 -29 18.5 -44t49.5 -15q56 0 98 28l43 -90q-56 -49 -162 -49q-80 0 -127 34.5t-47 102.5q0 35 18 78.5t38 74.5t55 81l35 47h-39l-156 436h-629l-155 -436h-152zM397 571h535l-266 758z" />
    <glyph glyph-name="aogonek" unicode="&#x105;" horiz-adv-x="1120" 
d="M455 -25q-165 0 -263 78.5t-98 214.5q0 132 84.5 210.5t253.5 111.5l402 76q0 160 -69.5 237.5t-211.5 77.5q-245 0 -297 -227l-143 12q30 159 145.5 251.5t294.5 92.5q201 0 308.5 -114.5t107.5 -327.5v-453q0 -53 17 -73.5t56 -20.5h33v-121l-65 -92q-66 -94 -66 -156
q0 -29 18.5 -44t47.5 -15q58 0 100 28l41 -90q-56 -49 -160 -49q-81 0 -127.5 34.5t-46.5 102.5q0 35 18 78.5t38 74.5t55 81l35 49q-61 11 -92 54t-37 130q-42 -92 -147 -151.5t-232 -59.5zM467 96q165 0 266 96.5t101 243.5v109l-373 -70q-117 -22 -171 -69t-54 -125
q0 -89 61 -137t170 -48z" />
    <glyph glyph-name="Cacute" unicode="&#x106;" horiz-adv-x="1421" 
d="M672 1602l139 253h152l-179 -253h-112zM735 -33q-291 0 -465 203.5t-174 554.5t174 556.5t465 205.5q248 0 395 -131.5t193 -366.5l-147 -10q-32 175 -143.5 273t-297.5 98q-225 0 -359 -167.5t-134 -457.5q0 -289 134 -455t359 -166q195 0 310 106t143 298l147 -10
q-39 -245 -194.5 -388t-405.5 -143z" />
    <glyph glyph-name="cacute" unicode="&#x107;" horiz-adv-x="1107" 
d="M520 1233l139 254h152l-178 -254h-113zM580 -25q-225 0 -355.5 157.5t-130.5 410.5t130.5 410t355.5 157q184 0 301.5 -99.5t150.5 -273.5l-141 -8q-25 120 -106 186t-205 66q-161 0 -252.5 -117t-91.5 -321t91.5 -321.5t252.5 -117.5q126 0 208 71.5t105 203.5l141 -10
q-31 -180 -151 -287t-303 -107z" />
    <glyph glyph-name="Ccircumflex" unicode="&#x108;" horiz-adv-x="1421" 
d="M477 1602l185 266h143l182 -266h-115l-139 190l-141 -190h-115zM735 -33q-291 0 -465 203.5t-174 554.5t174 556.5t465 205.5q248 0 395 -131.5t193 -366.5l-147 -10q-32 175 -143.5 273t-297.5 98q-225 0 -359 -167.5t-134 -457.5q0 -289 134 -455t359 -166
q195 0 310 106t143 298l147 -10q-39 -245 -194.5 -388t-405.5 -143z" />
    <glyph glyph-name="ccircumflex" unicode="&#x109;" horiz-adv-x="1107" 
d="M326 1233l182 266h143l185 -266h-115l-141 190l-140 -190h-114zM580 -25q-225 0 -355.5 157.5t-130.5 410.5t130.5 410t355.5 157q184 0 301.5 -99.5t150.5 -273.5l-141 -8q-25 120 -106 186t-205 66q-161 0 -252.5 -117t-91.5 -321t91.5 -321.5t252.5 -117.5
q126 0 208 71.5t105 203.5l141 -10q-31 -180 -151 -287t-303 -107z" />
    <glyph glyph-name="Cdotaccent" unicode="&#x10a;" horiz-adv-x="1421" 
d="M659 1634v183h144v-183h-144zM735 -33q-291 0 -465 203.5t-174 554.5t174 556.5t465 205.5q248 0 395 -131.5t193 -366.5l-147 -10q-32 175 -143.5 273t-297.5 98q-225 0 -359 -167.5t-134 -457.5q0 -289 134 -455t359 -166q195 0 310 106t143 298l147 -10
q-39 -245 -194.5 -388t-405.5 -143z" />
    <glyph glyph-name="cdotaccent" unicode="&#x10b;" horiz-adv-x="1107" 
d="M508 1266v182h143v-182h-143zM580 -25q-225 0 -355.5 157.5t-130.5 410.5t130.5 410t355.5 157q184 0 301.5 -99.5t150.5 -273.5l-141 -8q-25 120 -106 186t-205 66q-161 0 -252.5 -117t-91.5 -321t91.5 -321.5t252.5 -117.5q126 0 208 71.5t105 203.5l141 -10
q-31 -180 -151 -287t-303 -107z" />
    <glyph glyph-name="Ccaron" unicode="&#x10c;" horiz-adv-x="1421" 
d="M477 1868h115l139 -191l141 191h115l-184 -266h-144zM735 -33q-291 0 -465 203.5t-174 554.5t174 556.5t465 205.5q248 0 395 -131.5t193 -366.5l-147 -10q-32 175 -143.5 273t-297.5 98q-225 0 -359 -167.5t-134 -457.5q0 -289 134 -455t359 -166q195 0 310 106t143 298
l147 -10q-39 -245 -194.5 -388t-405.5 -143z" />
    <glyph glyph-name="ccaron" unicode="&#x10d;" horiz-adv-x="1107" 
d="M326 1499h114l140 -190l139 190h115l-183 -266h-143zM580 -25q-225 0 -355.5 157.5t-130.5 410.5t130.5 410t355.5 157q184 0 301.5 -99.5t150.5 -273.5l-141 -8q-25 120 -106 186t-205 66q-161 0 -252.5 -117t-91.5 -321t91.5 -321.5t252.5 -117.5q126 0 208 71.5
t105 203.5l141 -10q-31 -180 -151 -287t-303 -107z" />
    <glyph glyph-name="Dcaron" unicode="&#x10e;" horiz-adv-x="1415" 
d="M403 1868h115l141 -191l140 191h114l-182 -266h-143zM190 0v1454h439q332 0 511 -189.5t179 -539.5q0 -349 -175.5 -537t-502.5 -188h-451zM330 135h299q268 0 406.5 150t138.5 440q0 293 -138 443.5t-407 150.5h-299v-1184z" />
    <glyph glyph-name="dcaron" unicode="&#x10f;" horiz-adv-x="1327" 
d="M551 -25q-212 0 -334.5 153t-122.5 415t122.5 414.5t334.5 152.5q119 0 213 -58t135 -157v559h135v-1454h-119l-6 203q-45 -106 -141.5 -167t-216.5 -61zM1155 965l64 489h137l-99 -489h-102zM573 104q152 0 239 119.5t87 319.5q0 199 -87 318.5t-239 119.5
q-154 0 -245.5 -118t-91.5 -320q0 -201 91.5 -320t245.5 -119z" />
    <glyph glyph-name="Dcroat" unicode="&#x110;" horiz-adv-x="1415" 
d="M190 0v664h-155v127h155v663h439q332 0 511 -189.5t179 -539.5q0 -349 -175.5 -537t-502.5 -188h-451zM330 135h299q268 0 406.5 150t138.5 440q0 293 -138 443.5t-407 150.5h-299v-528h454v-127h-454v-529z" />
    <glyph glyph-name="dcroat" unicode="&#x111;" horiz-adv-x="1202" 
d="M551 -25q-212 0 -334.5 153t-122.5 415t122.5 414.5t334.5 152.5q119 0 213 -58t135 -157v313h-309v111h309v135h135v-135h142v-111h-142v-1208h-119l-6 203q-45 -106 -141.5 -167t-216.5 -61zM573 104q152 0 239 119.5t87 319.5q0 199 -87 318.5t-239 119.5
q-154 0 -245.5 -118t-91.5 -320q0 -201 91.5 -320t245.5 -119z" />
    <glyph glyph-name="Emacron" unicode="&#x112;" horiz-adv-x="1214" 
d="M375 1661v119h534v-119h-534zM190 0v1454h895v-135h-755v-524h731v-133h-731v-527h772v-135h-912z" />
    <glyph glyph-name="emacron" unicode="&#x113;" horiz-adv-x="1140" 
d="M311 1290v117h537v-117h-537zM584 -25q-228 0 -359 157t-131 411t129 410.5t352 156.5q217 0 344.5 -153.5t127.5 -409.5v-43h-811q7 -192 99 -296t249 -104q115 0 192 56t107 153l145 -10q-42 -148 -160.5 -238t-283.5 -90zM236 625h663q-10 171 -95.5 263.5
t-228.5 92.5q-142 0 -231 -93t-108 -263z" />
    <glyph glyph-name="Edotaccent" unicode="&#x116;" horiz-adv-x="1214" 
d="M569 1634v183h144v-183h-144zM190 0v1454h895v-135h-755v-524h731v-133h-731v-527h772v-135h-912z" />
    <glyph glyph-name="edotaccent" unicode="&#x117;" horiz-adv-x="1140" 
d="M508 1264v180h143v-180h-143zM584 -25q-228 0 -359 157t-131 411t129 410.5t352 156.5q217 0 344.5 -153.5t127.5 -409.5v-43h-811q7 -192 99 -296t249 -104q115 0 192 56t107 153l145 -10q-42 -148 -160.5 -238t-283.5 -90zM236 625h663q-10 171 -95.5 263.5
t-228.5 92.5q-142 0 -231 -93t-108 -263z" />
    <glyph glyph-name="Eogonek" unicode="&#x118;" horiz-adv-x="1214" 
d="M190 0v1454h895v-135h-755v-524h731v-133h-731v-527h772v-135l-66 -92q-65 -97 -65 -156t67 -59q60 0 99 28l43 -90q-56 -49 -160 -49q-81 0 -128.5 34.5t-47.5 102.5q0 34 19 79t36.5 72.5t54.5 82.5l35 47h-799z" />
    <glyph glyph-name="eogonek" unicode="&#x119;" horiz-adv-x="1140" 
d="M584 -25q-228 0 -359 157t-131 411t129 410.5t352 156.5q217 0 344.5 -153.5t127.5 -409.5v-43h-811q7 -192 99 -296t249 -104q115 0 192 56t107 153l145 -10q-29 -100 -88 -168h4l-151 -188q-78 -97 -78 -176q0 -78 69 -78q57 0 99 28l43 -90q-56 -49 -162 -49
q-80 0 -127 43t-47 121q0 119 100 231l8 11q-60 -13 -114 -13zM236 625h663q-10 171 -95.5 263.5t-228.5 92.5q-142 0 -231 -93t-108 -263z" />
    <glyph glyph-name="Ecaron" unicode="&#x11a;" horiz-adv-x="1214" 
d="M387 1868h115l139 -191l141 191h115l-184 -266h-144zM190 0v1454h895v-135h-755v-524h731v-133h-731v-527h772v-135h-912z" />
    <glyph glyph-name="ecaron" unicode="&#x11b;" horiz-adv-x="1140" 
d="M326 1497h114l140 -190l139 190h115l-183 -266h-143zM584 -25q-228 0 -359 157t-131 411t129 410.5t352 156.5q217 0 344.5 -153.5t127.5 -409.5v-43h-811q7 -192 99 -296t249 -104q115 0 192 56t107 153l145 -10q-42 -148 -160.5 -238t-283.5 -90zM236 625h663
q-10 171 -95.5 263.5t-228.5 92.5q-142 0 -231 -93t-108 -263z" />
    <glyph glyph-name="Gcircumflex" unicode="&#x11c;" horiz-adv-x="1417" 
d="M483 1602l183 266h143l184 -266h-114l-142 190l-139 -190h-115zM731 -33q-195 0 -340 96.5t-220 267.5t-75 394q0 224 74.5 395t221 269t345.5 98q237 0 382 -131t188 -357l-146 -10q-70 361 -424 361q-124 0 -219.5 -48t-155 -133t-90 -197.5t-30.5 -246.5
q0 -281 127 -451t364 -170q199 0 319 133.5t128 346.5h-439v131h570v-715h-107l-8 283q-51 -141 -175 -228.5t-290 -87.5z" />
    <glyph glyph-name="gcircumflex" unicode="&#x11d;" horiz-adv-x="1200" 
d="M317 1233l183 266h143l184 -266h-114l-142 190l-139 -190h-115zM569 -332q-172 0 -291.5 88t-144.5 230l141 8q20 -93 93 -145t202 -52q158 0 243 74.5t85 214.5v186q-43 -100 -133 -158.5t-205 -58.5q-207 0 -336 146.5t-129 382.5q0 235 127.5 380.5t331.5 145.5
q122 0 216.5 -62.5t133.5 -164.5v202h129v-999q0 -195 -123 -306.5t-340 -111.5zM565 184q151 0 241.5 108t90.5 292q3 178 -89 287.5t-243 109.5q-153 0 -241 -106.5t-88 -290.5q0 -185 88.5 -292.5t240.5 -107.5z" />
    <glyph glyph-name="Gbreve" unicode="&#x11e;" horiz-adv-x="1417" 
d="M737 1614q-119 0 -193 69t-83 185h98q9 -75 55.5 -112.5t122.5 -37.5q157 0 178 150h97q-9 -116 -82.5 -185t-192.5 -69zM731 -33q-195 0 -340 96.5t-220 267.5t-75 394q0 224 74.5 395t221 269t345.5 98q237 0 382 -131t188 -357l-146 -10q-70 361 -424 361
q-124 0 -219.5 -48t-155 -133t-90 -197.5t-30.5 -246.5q0 -281 127 -451t364 -170q199 0 319 133.5t128 346.5h-439v131h570v-715h-107l-8 283q-51 -141 -175 -228.5t-290 -87.5z" />
    <glyph glyph-name="gbreve" unicode="&#x11f;" horiz-adv-x="1200" 
d="M571 1245q-119 0 -193 69t-83 185h98q9 -75 55.5 -112t122.5 -37t122.5 37t56.5 112h96q-9 -116 -82.5 -185t-192.5 -69zM569 -332q-172 0 -291.5 88t-144.5 230l141 8q20 -93 93 -145t202 -52q158 0 243 74.5t85 214.5v186q-43 -100 -133 -158.5t-205 -58.5
q-207 0 -336 146.5t-129 382.5q0 235 127.5 380.5t331.5 145.5q122 0 216.5 -62.5t133.5 -164.5v202h129v-999q0 -195 -123 -306.5t-340 -111.5zM565 184q151 0 241.5 108t90.5 292q3 178 -89 287.5t-243 109.5q-153 0 -241 -106.5t-88 -290.5q0 -185 88.5 -292.5
t240.5 -107.5z" />
    <glyph glyph-name="Gdotaccent" unicode="&#x120;" horiz-adv-x="1417" 
d="M666 1634v183h143v-183h-143zM731 -33q-195 0 -340 96.5t-220 267.5t-75 394q0 224 74.5 395t221 269t345.5 98q237 0 382 -131t188 -357l-146 -10q-70 361 -424 361q-124 0 -219.5 -48t-155 -133t-90 -197.5t-30.5 -246.5q0 -281 127 -451t364 -170q199 0 319 133.5
t128 346.5h-439v131h570v-715h-107l-8 283q-51 -141 -175 -228.5t-290 -87.5z" />
    <glyph glyph-name="gdotaccent" unicode="&#x121;" horiz-adv-x="1200" 
d="M500 1266v182h143v-182h-143zM569 -332q-172 0 -291.5 88t-144.5 230l141 8q20 -93 93 -145t202 -52q158 0 243 74.5t85 214.5v186q-43 -100 -133 -158.5t-205 -58.5q-207 0 -336 146.5t-129 382.5q0 235 127.5 380.5t331.5 145.5q122 0 216.5 -62.5t133.5 -164.5v202
h129v-999q0 -195 -123 -306.5t-340 -111.5zM565 184q151 0 241.5 108t90.5 292q3 178 -89 287.5t-243 109.5q-153 0 -241 -106.5t-88 -290.5q0 -185 88.5 -292.5t240.5 -107.5z" />
    <glyph glyph-name="uni0122" unicode="&#x122;" horiz-adv-x="1417" 
d="M731 -33q-195 0 -340 96.5t-220 267.5t-75 394q0 224 74.5 395t221 269t345.5 98q237 0 382 -131t188 -357l-146 -10q-70 361 -424 361q-124 0 -219.5 -48t-155 -133t-90 -197.5t-30.5 -246.5q0 -281 127 -451t364 -170q199 0 319 133.5t128 346.5h-439v131h570v-715
h-107l-8 283q-51 -141 -175 -228.5t-290 -87.5zM623 -442l98 182h-66v156h172v-142l-110 -196h-94z" />
    <glyph glyph-name="uni0123" unicode="&#x123;" horiz-adv-x="1200" 
d="M483 1245v141l111 199h94l-100 -184h65v-156h-170zM569 -332q-172 0 -291.5 88t-144.5 230l141 8q20 -93 93 -145t202 -52q158 0 243 74.5t85 214.5v186q-43 -100 -133 -158.5t-205 -58.5q-207 0 -336 146.5t-129 382.5q0 235 127.5 380.5t331.5 145.5q122 0 216.5 -62.5
t133.5 -164.5v202h129v-999q0 -195 -123 -306.5t-340 -111.5zM565 184q151 0 241.5 108t90.5 292q3 178 -89 287.5t-243 109.5q-153 0 -241 -106.5t-88 -290.5q0 -185 88.5 -292.5t240.5 -107.5z" />
    <glyph glyph-name="Hcircumflex" unicode="&#x124;" horiz-adv-x="1435" 
d="M465 1602l182 266h144l182 -266h-115l-139 190l-139 -190h-115zM190 0v1454h140v-651h774v651h139v-1454h-139v668h-774v-668h-140z" />
    <glyph glyph-name="hcircumflex" unicode="&#x125;" horiz-adv-x="1173" 
d="M-18 1561l182 266h143l182 -266h-114l-139 190l-140 -190h-114zM168 0v1454h135v-561q37 107 127.5 162t214.5 55q173 0 267 -113.5t94 -298.5v-698h-136v649q0 340 -256 340q-145 0 -228 -91t-83 -251v-647h-135z" />
    <glyph glyph-name="Hbar" unicode="&#x126;" horiz-adv-x="1435" 
d="M190 0v1094h-155v129h155v231h140v-231h774v231h139v-231h158v-129h-158v-1094h-139v668h-774v-668h-140zM330 803h774v291h-774v-291z" />
    <glyph glyph-name="hbar" unicode="&#x127;" horiz-adv-x="1173" 
d="M168 0v1208h-148v111h148v135h135v-135h305v-111h-305v-315q37 107 127.5 162t214.5 55q173 0 267 -113.5t94 -298.5v-698h-136v649q0 340 -256 340q-145 0 -228 -91t-83 -251v-647h-135z" />
    <glyph glyph-name="Itilde" unicode="&#x128;" horiz-adv-x="522" 
d="M379 1632q-73 0 -139 60q-35 32 -56 43.5t-53 11.5q-87 0 -92 -129h-88q3 105 52.5 163t127.5 58q83 0 154 -65q59 -50 100 -50q39 0 59.5 30.5t26.5 105.5h90q-6 -107 -54 -167.5t-128 -60.5zM190 0v1454h140v-1454h-140z" />
    <glyph glyph-name="itilde" unicode="&#x129;" horiz-adv-x="468" 
d="M352 1264q-74 0 -139 59q-33 31 -54.5 43t-52.5 12q-89 0 -94 -129h-88q4 105 54 163t128 58q47 0 81 -16t71 -49q57 -49 100 -49q40 0 61 30.5t27 104.5h89q-6 -107 -54.5 -167t-128.5 -60zM168 0v1085h135v-1085h-135z" />
    <glyph glyph-name="Imacron" unicode="&#x12a;" horiz-adv-x="522" 
d="M-6 1661v119h534v-119h-534zM190 0v1454h140v-1454h-140z" />
    <glyph glyph-name="imacron" unicode="&#x12b;" horiz-adv-x="468" 
d="M-33 1292v119h535v-119h-535zM168 0v1085h135v-1085h-135z" />
    <glyph glyph-name="Iogonek" unicode="&#x12e;" horiz-adv-x="522" 
d="M190 0v1454h140v-1454l-66 -92q-65 -97 -65 -156t67 -59q60 0 99 28l43 -90q-56 -49 -160 -49q-81 0 -128.5 34.5t-47.5 102.5q0 34 19 79t36.5 72.5t54.5 82.5l35 47h-27z" />
    <glyph glyph-name="iogonek" unicode="&#x12f;" horiz-adv-x="468" 
d="M164 1266v182h143v-182h-143zM168 0v1085h135v-1085l-65 -92q-66 -94 -66 -156q0 -29 18.5 -44t47.5 -15q58 0 100 28l41 -90q-56 -49 -160 -49q-81 0 -127.5 34.5t-46.5 102.5q0 35 18 78.5t38 74.5t55 81l34 47h-22z" />
    <glyph glyph-name="Idotaccent" unicode="&#x130;" horiz-adv-x="522" 
d="M188 1634v183h144v-183h-144zM190 0v1454h140v-1454h-140z" />
    <glyph glyph-name="dotlessi" unicode="&#x131;" horiz-adv-x="468" 
d="M168 0v1085h135v-1085h-135z" />
    <glyph glyph-name="IJ" unicode="&#x132;" horiz-adv-x="1677" 
d="M190 0v1454h140v-1454h-140zM1065 -33q-199 0 -324.5 140t-126.5 368l144 10q1 -183 82 -282t225 -99q149 0 231 104.5t82 299.5v946h140v-946q0 -252 -122.5 -396.5t-330.5 -144.5z" />
    <glyph glyph-name="ij" unicode="&#x133;" horiz-adv-x="962" 
d="M164 1266v182h143v-182h-143zM655 1266v182h144v-182h-144zM168 0v1085h135v-1085h-135zM440 -307v121h78q74 0 107.5 31.5t33.5 113.5v1126h136v-1134q0 -141 -61 -199.5t-202 -58.5h-92z" />
    <glyph glyph-name="Jcircumflex" unicode="&#x134;" horiz-adv-x="1204" 
d="M721 1602l184 266h144l182 -266h-115l-139 190l-141 -190h-115zM590 -33q-197 0 -322.5 140t-128.5 368l144 10q3 -183 84 -282t223 -99q150 0 232.5 104.5t82.5 299.5v946h139v-946q0 -252 -123 -396.5t-331 -144.5z" />
    <glyph glyph-name="jcircumflex" unicode="&#x135;" horiz-adv-x="512" 
d="M23 1233l184 266h143l182 -266h-114l-139 190l-142 -190h-114zM-10 -307v121h78q74 0 107.5 31.5t33.5 113.5v1126h135v-1134q0 -141 -60.5 -199.5t-201.5 -58.5h-92z" />
    <glyph glyph-name="uni0136" unicode="&#x136;" horiz-adv-x="1294" 
d="M190 0v1454h140v-778l712 778h177l-578 -631l619 -823h-168l-543 721l-219 -238v-483h-140zM578 -442l100 182h-66v156h170v-142l-110 -196h-94z" />
    <glyph glyph-name="uni0137" unicode="&#x137;" horiz-adv-x="1193" 
d="M168 0v1454h135v-987l588 618h180l-446 -462l473 -623h-164l-399 532l-232 -237v-295h-135zM487 -442l101 182h-66v156h170v-142l-110 -196h-95z" />
    <glyph glyph-name="Lacute" unicode="&#x139;" horiz-adv-x="1167" 
d="M201 1602l139 253h152l-179 -253h-112zM190 0v1454h140v-1319h745v-135h-885z" />
    <glyph glyph-name="lacute" unicode="&#x13a;" horiz-adv-x="526" 
d="M174 1520l139 254h152l-176 -254h-115zM367 0q-95 0 -147 47t-52 143v1264h135v-1253q0 -80 82 -80h86v-121h-104z" />
    <glyph glyph-name="uni013B" unicode="&#x13b;" horiz-adv-x="1167" 
d="M190 0v1454h140v-1319h745v-135h-885zM514 -442l100 182h-65v156h170v-142l-111 -196h-94z" />
    <glyph glyph-name="uni013C" unicode="&#x13c;" horiz-adv-x="526" 
d="M367 0q-95 0 -147 47t-52 143v1264h135v-1253q0 -80 82 -80h86v-121h-104zM205 -442l98 182h-65v156h172v-142l-111 -196h-94z" />
    <glyph glyph-name="Lcaron" unicode="&#x13d;" horiz-adv-x="1167" 
d="M190 0v1454h140v-1319h745v-135h-885zM793 965l63 489h137l-98 -489h-102z" />
    <glyph glyph-name="lcaron" unicode="&#x13e;" horiz-adv-x="606" 
d="M367 0q-95 0 -147 47t-52 143v1264h135v-1253q0 -80 82 -80h86v-121h-104zM432 965l64 489h137l-98 -489h-103z" />
    <glyph glyph-name="Lslash" unicode="&#x141;" horiz-adv-x="1167" 
d="M190 0v645l-145 -72v121l145 74v686h140v-616l291 145v-121l-291 -145v-582h745v-135h-885z" />
    <glyph glyph-name="lslash" unicode="&#x142;" horiz-adv-x="526" 
d="M367 0q-95 0 -147 47t-52 143v502l-145 -80v111l145 78v653h135v-580l170 95v-111l-170 -92v-565q0 -80 82 -80h86v-121h-104z" />
    <glyph glyph-name="Nacute" unicode="&#x143;" horiz-adv-x="1499" 
d="M711 1602l139 253h151l-178 -253h-112zM190 0v1454h199l780 -1317v1317h140v-1454h-207l-772 1300v-1300h-140z" />
    <glyph glyph-name="nacute" unicode="&#x144;" horiz-adv-x="1173" 
d="M526 1233l140 254h151l-176 -254h-115zM168 0v1085h123l4 -208q39 115 131 174t215 59q178 0 271.5 -115.5t93.5 -296.5v-698h-136v649q0 340 -258 340q-141 0 -225 -91.5t-84 -248.5v-649h-135z" />
    <glyph glyph-name="uni0145" unicode="&#x145;" horiz-adv-x="1499" 
d="M190 0v1454h199l780 -1317v1317h140v-1454h-207l-772 1300v-1300h-140zM633 -442l100 182h-65v156h170v-142l-111 -196h-94z" />
    <glyph glyph-name="uni0146" unicode="&#x146;" horiz-adv-x="1173" 
d="M168 0v1085h123l4 -208q39 115 131 174t215 59q178 0 271.5 -115.5t93.5 -296.5v-698h-136v649q0 340 -258 340q-141 0 -225 -91.5t-84 -248.5v-649h-135zM467 -442l100 182h-65v156h170v-142l-111 -196h-94z" />
    <glyph glyph-name="Ncaron" unicode="&#x147;" horiz-adv-x="1499" 
d="M516 1868h115l139 -191l139 191h115l-182 -266h-144zM190 0v1454h199l780 -1317v1317h140v-1454h-207l-772 1300v-1300h-140z" />
    <glyph glyph-name="ncaron" unicode="&#x148;" horiz-adv-x="1173" 
d="M332 1499h114l142 -190l139 190h115l-183 -266h-143zM168 0v1085h123l4 -208q39 115 131 174t215 59q178 0 271.5 -115.5t93.5 -296.5v-698h-136v649q0 340 -258 340q-141 0 -225 -91.5t-84 -248.5v-649h-135z" />
    <glyph glyph-name="Eng" unicode="&#x14a;" horiz-adv-x="1499" 
d="M190 0v1454h199l780 -1315v1315h140v-1485q0 -125 -78 -200.5t-211 -75.5h-207v129h209q71 0 109 40t38 107v31h-67l-772 1298v-1298h-140z" />
    <glyph glyph-name="eng" unicode="&#x14b;" horiz-adv-x="1173" 
d="M168 0v1085h123l4 -208q39 115 131 174t215 59q178 0 271.5 -115.5t93.5 -296.5v-729q0 -125 -79.5 -200.5t-209.5 -75.5h-164v121h168q67 0 108 43t41 112v680q0 340 -258 340q-141 0 -225 -91.5t-84 -248.5v-649h-135z" />
    <glyph glyph-name="Omacron" unicode="&#x14c;" horiz-adv-x="1497" 
d="M479 1661v119h537v-119h-537zM748 -33q-304 0 -478 203t-174 555q0 354 174 558t478 204q305 0 479 -204t174 -558q0 -353 -174 -555.5t-479 -202.5zM748 104q236 0 371.5 165.5t135.5 455.5q0 292 -135.5 458.5t-371.5 166.5t-371 -166.5t-135 -458.5q0 -290 135 -455.5
t371 -165.5z" />
    <glyph glyph-name="omacron" unicode="&#x14d;" horiz-adv-x="1157" 
d="M311 1292v119h537v-119h-537zM580 -25q-221 0 -353.5 154.5t-132.5 413.5t132 413t354 154q220 0 351.5 -154t131.5 -413t-131.5 -413.5t-351.5 -154.5zM580 104q160 0 251 117.5t91 321.5t-91 321t-251 117q-161 0 -252.5 -117t-91.5 -321t91.5 -321.5t252.5 -117.5z
" />
    <glyph glyph-name="Ohungarumlaut" unicode="&#x150;" horiz-adv-x="1497" 
d="M565 1602l140 253h151l-178 -253h-113zM807 1602l139 253h152l-176 -253h-115zM748 -33q-304 0 -478 203t-174 555q0 354 174 558t478 204q305 0 479 -204t174 -558q0 -353 -174 -555.5t-479 -202.5zM748 104q236 0 371.5 165.5t135.5 455.5q0 292 -135.5 458.5
t-371.5 166.5t-371 -166.5t-135 -458.5q0 -290 135 -455.5t371 -165.5z" />
    <glyph glyph-name="ohungarumlaut" unicode="&#x151;" horiz-adv-x="1157" 
d="M397 1233l140 254h151l-178 -254h-113zM639 1233l139 254h152l-176 -254h-115zM580 -25q-221 0 -353.5 154.5t-132.5 413.5t132 413t354 154q220 0 351.5 -154t131.5 -413t-131.5 -413.5t-351.5 -154.5zM580 104q160 0 251 117.5t91 321.5t-91 321t-251 117
q-161 0 -252.5 -117t-91.5 -321t91.5 -321.5t252.5 -117.5z" />
    <glyph glyph-name="OE" unicode="&#x152;" horiz-adv-x="2220" 
d="M745 -33q-201 0 -348.5 95.5t-224 266.5t-76.5 396q0 227 76 398.5t223.5 267.5t349.5 96q173 0 304.5 -75t210.5 -214v256h833v-135h-694v-524h669v-133h-669v-527h710v-135h-849v254q-79 -137 -211 -212t-304 -75zM745 104q243 0 376.5 168t133.5 453
q0 186 -57.5 325.5t-173.5 219.5t-279 80q-161 0 -276 -80t-171 -219.5t-56 -325.5q0 -286 131 -453.5t372 -167.5z" />
    <glyph glyph-name="oe" unicode="&#x153;" horiz-adv-x="1970" 
d="M580 -25q-221 0 -353.5 154.5t-132.5 413.5t132 413t354 154q140 0 246.5 -64t166.5 -182q60 116 165 181t245 65q218 0 345.5 -153t127.5 -410v-43h-811q7 -192 99 -296t247 -104q117 0 194 56t107 153l146 -10q-42 -148 -161 -238t-286 -90q-143 0 -250 64.5
t-168 181.5q-60 -118 -166.5 -182t-246.5 -64zM580 104q160 0 251 117.5t91 321.5t-91 321t-251 117q-161 0 -252.5 -117t-91.5 -321t91.5 -321.5t252.5 -117.5zM1065 625h664q-10 171 -96.5 263.5t-229.5 92.5q-141 0 -230 -93t-108 -263z" />
    <glyph glyph-name="Racute" unicode="&#x154;" horiz-adv-x="1347" 
d="M621 1602l139 253h151l-176 -253h-114zM190 0v1454h533q231 0 362.5 -115.5t131.5 -316.5q0 -126 -74.5 -219t-186.5 -125q212 -35 232 -260l37 -418h-142l-34 406q-8 102 -73 149t-204 47h-442v-602h-140zM330 737h415q151 0 237.5 75t86.5 212q0 143 -88.5 219
t-259.5 76h-391v-582z" />
    <glyph glyph-name="racute" unicode="&#x155;" horiz-adv-x="751" 
d="M330 1233l139 254h152l-179 -254h-112zM168 0v1085h117l6 -215q64 215 272 215h94v-131h-98q-122 0 -189 -78t-67 -214v-662h-135z" />
    <glyph glyph-name="uni0156" unicode="&#x156;" horiz-adv-x="1347" 
d="M190 0v1454h533q231 0 362.5 -115.5t131.5 -316.5q0 -126 -74.5 -219t-186.5 -125q212 -35 232 -260l37 -418h-142l-34 406q-8 102 -73 149t-204 47h-442v-602h-140zM330 737h415q151 0 237.5 75t86.5 212q0 143 -88.5 219t-259.5 76h-391v-582zM575 -442l101 182h-66
v156h170v-142l-110 -196h-95z" />
    <glyph glyph-name="uni0157" unicode="&#x157;" horiz-adv-x="751" 
d="M168 0v1085h117l6 -215q64 215 272 215h94v-131h-98q-122 0 -189 -78t-67 -214v-662h-135zM115 -442l100 182h-65v156h169v-142l-110 -196h-94z" />
    <glyph glyph-name="Rcaron" unicode="&#x158;" horiz-adv-x="1347" 
d="M426 1868h115l141 -191l139 191h115l-182 -266h-144zM190 0v1454h533q231 0 362.5 -115.5t131.5 -316.5q0 -126 -74.5 -219t-186.5 -125q212 -35 232 -260l37 -418h-142l-34 406q-8 102 -73 149t-204 47h-442v-602h-140zM330 737h415q151 0 237.5 75t86.5 212
q0 143 -88.5 219t-259.5 76h-391v-582z" />
    <glyph glyph-name="rcaron" unicode="&#x159;" horiz-adv-x="751" 
d="M135 1499h115l139 -190l141 190h115l-184 -266h-144zM168 0v1085h117l6 -215q64 215 272 215h94v-131h-98q-122 0 -189 -78t-67 -214v-662h-135z" />
    <glyph glyph-name="Sacute" unicode="&#x15a;" horiz-adv-x="1298" 
d="M565 1602l140 253h151l-178 -253h-113zM678 -33q-242 0 -395.5 137.5t-165.5 354.5l145 10q14 -167 124.5 -266t295.5 -99q163 0 258.5 69.5t95.5 195.5q0 57 -17 98t-63.5 81t-133 73.5t-220.5 66.5q-252 61 -353.5 146.5t-101.5 248.5q0 178 129 291t351 113
q116 0 212.5 -36t161 -99t102.5 -145t46 -177l-145 -10q-13 146 -111.5 238t-269.5 92q-152 0 -241 -72.5t-89 -190.5q0 -77 33.5 -123.5t114 -82t241.5 -74.5q188 -45 300 -108t157 -140t45 -184q0 -122 -66.5 -215.5t-181 -143t-258.5 -49.5z" />
    <glyph glyph-name="sacute" unicode="&#x15b;" horiz-adv-x="1062" 
d="M461 1233l139 254h152l-179 -254h-112zM553 -25q-207 0 -327.5 99.5t-131.5 259.5l142 10q12 -111 93 -175.5t224 -64.5q131 0 201.5 44.5t70.5 132.5q0 53 -21.5 84t-88 57.5t-195.5 48.5q-153 27 -240 69t-121 99.5t-34 144.5q0 147 106 236.5t289 89.5q181 0 289 -96
t135 -244l-141 -12q-18 99 -91 161t-194 62t-186.5 -51t-65.5 -139q0 -89 60.5 -131t224.5 -70q161 -26 252.5 -66.5t128.5 -97t37 -143.5q0 -145 -114.5 -226.5t-301.5 -81.5z" />
    <glyph glyph-name="Scircumflex" unicode="&#x15c;" horiz-adv-x="1298" 
d="M371 1602l184 266h143l183 -266h-115l-139 190l-142 -190h-114zM678 -33q-242 0 -395.5 137.5t-165.5 354.5l145 10q14 -167 124.5 -266t295.5 -99q163 0 258.5 69.5t95.5 195.5q0 57 -17 98t-63.5 81t-133 73.5t-220.5 66.5q-252 61 -353.5 146.5t-101.5 248.5
q0 178 129 291t351 113q116 0 212.5 -36t161 -99t102.5 -145t46 -177l-145 -10q-13 146 -111.5 238t-269.5 92q-152 0 -241 -72.5t-89 -190.5q0 -77 33.5 -123.5t114 -82t241.5 -74.5q188 -45 300 -108t157 -140t45 -184q0 -122 -66.5 -215.5t-181 -143t-258.5 -49.5z" />
    <glyph glyph-name="scircumflex" unicode="&#x15d;" horiz-adv-x="1062" 
d="M266 1233l183 266h143l184 -266h-114l-142 190l-139 -190h-115zM553 -25q-207 0 -327.5 99.5t-131.5 259.5l142 10q12 -111 93 -175.5t224 -64.5q131 0 201.5 44.5t70.5 132.5q0 53 -21.5 84t-88 57.5t-195.5 48.5q-153 27 -240 69t-121 99.5t-34 144.5q0 147 106 236.5
t289 89.5q181 0 289 -96t135 -244l-141 -12q-18 99 -91 161t-194 62t-186.5 -51t-65.5 -139q0 -89 60.5 -131t224.5 -70q161 -26 252.5 -66.5t128.5 -97t37 -143.5q0 -145 -114.5 -226.5t-301.5 -81.5z" />
    <glyph glyph-name="Scedilla" unicode="&#x15e;" horiz-adv-x="1298" 
d="M639 -440q-88 0 -146 40t-79 107l86 35q18 -45 49.5 -66.5t85.5 -21.5q57 0 89 24t32 68q0 47 -36 71.5t-128 24.5l-47 54l47 77q-208 25 -336 158t-139 328l145 10q14 -167 124.5 -266t295.5 -99q163 0 258.5 69.5t95.5 195.5q0 57 -17 98t-63.5 81t-133 73.5
t-220.5 66.5q-252 61 -353.5 146.5t-101.5 248.5q0 178 129 291t351 113q116 0 212.5 -36t161 -99t102.5 -145t46 -177l-145 -10q-13 146 -111.5 238t-269.5 92q-152 0 -241 -72.5t-89 -190.5q0 -77 33.5 -123.5t114 -82t241.5 -74.5q188 -45 300 -108t157 -140t45 -184
q0 -122 -66 -216t-178 -143t-250 -49l-33 -49q97 -4 148 -50t51 -126q0 -82 -60.5 -132t-156.5 -50z" />
    <glyph glyph-name="scedilla" unicode="&#x15f;" horiz-adv-x="1062" 
d="M522 -440q-89 0 -146.5 40t-78.5 107l86 35q30 -88 135 -88q56 0 87.5 24t31.5 68q0 47 -35 71.5t-127 24.5l-47 54l49 84q-173 18 -272.5 114t-110.5 240l142 10q12 -111 93 -175.5t224 -64.5q131 0 201.5 44.5t70.5 132.5q0 53 -21.5 84t-88 57.5t-195.5 48.5
q-153 27 -240 69t-121 99.5t-34 144.5q0 147 106 236.5t289 89.5q181 0 289 -96t135 -244l-141 -12q-18 99 -91 161t-194 62t-186.5 -51t-65.5 -139q0 -89 60.5 -131t224.5 -70q161 -26 252.5 -66.5t128.5 -97t37 -143.5q0 -140 -106.5 -221t-282.5 -87l-39 -57
q97 -4 147.5 -50t50.5 -126q0 -82 -60.5 -132t-156.5 -50z" />
    <glyph glyph-name="Scaron" unicode="&#x160;" horiz-adv-x="1298" 
d="M371 1868h114l140 -191l141 191h115l-185 -266h-143zM678 -33q-242 0 -395.5 137.5t-165.5 354.5l145 10q14 -167 124.5 -266t295.5 -99q163 0 258.5 69.5t95.5 195.5q0 57 -17 98t-63.5 81t-133 73.5t-220.5 66.5q-252 61 -353.5 146.5t-101.5 248.5q0 178 129 291
t351 113q116 0 212.5 -36t161 -99t102.5 -145t46 -177l-145 -10q-13 146 -111.5 238t-269.5 92q-152 0 -241 -72.5t-89 -190.5q0 -77 33.5 -123.5t114 -82t241.5 -74.5q188 -45 300 -108t157 -140t45 -184q0 -122 -66.5 -215.5t-181 -143t-258.5 -49.5z" />
    <glyph glyph-name="scaron" unicode="&#x161;" horiz-adv-x="1062" 
d="M266 1499h115l139 -190l139 190h115l-182 -266h-143zM553 -25q-207 0 -327.5 99.5t-131.5 259.5l142 10q12 -111 93 -175.5t224 -64.5q131 0 201.5 44.5t70.5 132.5q0 53 -21.5 84t-88 57.5t-195.5 48.5q-153 27 -240 69t-121 99.5t-34 144.5q0 147 106 236.5t289 89.5
q181 0 289 -96t135 -244l-141 -12q-18 99 -91 161t-194 62t-186.5 -51t-65.5 -139q0 -89 60.5 -131t224.5 -70q161 -26 252.5 -66.5t128.5 -97t37 -143.5q0 -145 -114.5 -226.5t-301.5 -81.5z" />
    <glyph glyph-name="uni0162" unicode="&#x162;" horiz-adv-x="1124" 
d="M494 0v1319h-467v135h1073v-135h-467v-1319h-17l-53 -82q97 -4 147 -50t50 -126q0 -82 -60.5 -132t-156.5 -50q-88 0 -145.5 40t-80.5 107l86 35q18 -45 50 -66.5t86 -21.5q57 0 88.5 24t31.5 68q0 47 -35 71.5t-126 24.5l-49 54l63 104h-18z" />
    <glyph glyph-name="uni0163" unicode="&#x163;" horiz-adv-x="776" 
d="M547 0h-19l-53 -82q97 -4 147 -50t50 -126q0 -82 -60.5 -132t-156.5 -50q-88 0 -145.5 40t-80.5 107l86 35q18 -45 50 -66.5t86 -21.5q57 0 88.5 24t31.5 68q0 47 -35 71.5t-126 24.5l-50 54l72 118q-145 46 -145 240v711h-170v120h170v254h135v-254h280v-120h-280v-707
q0 -75 33 -106t104 -31h143v-121h-155z" />
    <glyph glyph-name="Tcaron" unicode="&#x164;" horiz-adv-x="1124" 
d="M307 1868h115l141 -191l139 191h115l-182 -266h-143zM494 0v1319h-467v135h1073v-135h-467v-1319h-139z" />
    <glyph glyph-name="tcaron" unicode="&#x165;" horiz-adv-x="792" 
d="M598 1130l64 402h137l-99 -402h-102zM547 0q-132 0 -196 62t-64 192v711h-170v120h170v254h135v-254h280v-120h-280v-707q0 -75 33 -106t104 -31h143v-121h-155z" />
    <glyph glyph-name="Tbar" unicode="&#x166;" horiz-adv-x="1124" 
d="M494 0v649h-308v127h308v543h-467v135h1073v-135h-467v-543h305v-127h-305v-649h-139z" />
    <glyph glyph-name="tbar" unicode="&#x167;" horiz-adv-x="776" 
d="M547 0q-132 0 -196 62t-64 192v309h-176v111h176v291h-170v120h170v254h135v-254h280v-120h-280v-291h276v-111h-276v-305q0 -75 33 -106t104 -31h143v-121h-155z" />
    <glyph glyph-name="Utilde" unicode="&#x168;" horiz-adv-x="1392" 
d="M815 1632q-73 0 -139 60q-35 32 -56 43.5t-53 11.5q-87 0 -92 -129h-88q3 105 52.5 163t127.5 58q83 0 154 -65q59 -50 100 -50q39 0 59.5 30.5t26.5 105.5h90q-6 -107 -54 -167.5t-128 -60.5zM696 -33q-250 0 -393 144.5t-143 396.5v948h139v-948q0 -194 103.5 -299
t293.5 -105q191 0 294.5 105.5t103.5 298.5v948h139v-948q0 -252 -143.5 -396.5t-393.5 -144.5z" />
    <glyph glyph-name="utilde" unicode="&#x169;" horiz-adv-x="1165" 
d="M678 1264q-74 0 -139 59q-35 32 -56 43.5t-53 11.5q-87 0 -92 -129h-88q3 105 52.5 163t127.5 58q83 0 154 -65q57 -49 100 -49q39 0 59.5 30.5t26.5 104.5h90q-6 -107 -54 -167t-128 -60zM524 -25q-164 0 -260 110t-96 302v698h135v-657q0 -332 256 -332q140 0 221.5 92
t81.5 250v647h135v-1085h-127l-2 197q-40 -106 -129 -164t-215 -58z" />
    <glyph glyph-name="Umacron" unicode="&#x16a;" horiz-adv-x="1392" 
d="M430 1661v119h535v-119h-535zM696 -33q-250 0 -393 144.5t-143 396.5v948h139v-948q0 -194 103.5 -299t293.5 -105q191 0 294.5 105.5t103.5 298.5v948h139v-948q0 -252 -143.5 -396.5t-393.5 -144.5z" />
    <glyph glyph-name="umacron" unicode="&#x16b;" horiz-adv-x="1165" 
d="M309 1292v119h537v-119h-537zM524 -25q-164 0 -260 110t-96 302v698h135v-657q0 -332 256 -332q140 0 221.5 92t81.5 250v647h135v-1085h-127l-2 197q-40 -106 -129 -164t-215 -58z" />
    <glyph glyph-name="Ubreve" unicode="&#x16c;" horiz-adv-x="1392" 
d="M696 1614q-119 0 -192 68.5t-82 185.5h96q21 -150 178 -150t178 150h97q-9 -116 -82.5 -185t-192.5 -69zM696 -33q-250 0 -393 144.5t-143 396.5v948h139v-948q0 -194 103.5 -299t293.5 -105q191 0 294.5 105.5t103.5 298.5v948h139v-948q0 -252 -143.5 -396.5
t-393.5 -144.5z" />
    <glyph glyph-name="ubreve" unicode="&#x16d;" horiz-adv-x="1165" 
d="M578 1245q-119 0 -193.5 69t-83.5 185h98q9 -74 56 -111.5t123 -37.5q75 0 121.5 37t56.5 112h96q-9 -117 -82 -185.5t-192 -68.5zM524 -25q-164 0 -260 110t-96 302v698h135v-657q0 -332 256 -332q140 0 221.5 92t81.5 250v647h135v-1085h-127l-2 197
q-40 -106 -129 -164t-215 -58z" />
    <glyph glyph-name="Uring" unicode="&#x16e;" horiz-adv-x="1392" 
d="M696 1559q-74 0 -124 50.5t-50 123.5q0 75 50 124.5t124 49.5q75 0 124.5 -49.5t49.5 -124.5q0 -74 -49.5 -124t-124.5 -50zM696 1645q39 0 63.5 24.5t24.5 63.5q0 40 -24 64t-64 24q-39 0 -63.5 -24.5t-24.5 -63.5q0 -38 25 -63t63 -25zM696 -33q-250 0 -393 144.5
t-143 396.5v948h139v-948q0 -194 103.5 -299t293.5 -105q191 0 294.5 105.5t103.5 298.5v948h139v-948q0 -252 -143.5 -396.5t-393.5 -144.5z" />
    <glyph glyph-name="uring" unicode="&#x16f;" horiz-adv-x="1165" 
d="M578 1190q-75 0 -125 50t-50 124q0 75 50 124.5t125 49.5q74 0 124 -49.5t50 -124.5q0 -74 -49.5 -124t-124.5 -50zM578 1276q38 0 63 25t25 63q0 39 -24.5 63.5t-63.5 24.5t-64 -24.5t-25 -63.5q0 -38 25.5 -63t63.5 -25zM524 -25q-164 0 -260 110t-96 302v698h135v-657
q0 -332 256 -332q140 0 221.5 92t81.5 250v647h135v-1085h-127l-2 197q-40 -106 -129 -164t-215 -58z" />
    <glyph glyph-name="Uhungarumlaut" unicode="&#x170;" horiz-adv-x="1392" 
d="M514 1602l139 253h152l-178 -253h-113zM758 1602l139 253h152l-179 -253h-112zM696 -33q-250 0 -393 144.5t-143 396.5v948h139v-948q0 -194 103.5 -299t293.5 -105q191 0 294.5 105.5t103.5 298.5v948h139v-948q0 -252 -143.5 -396.5t-393.5 -144.5z" />
    <glyph glyph-name="uhungarumlaut" unicode="&#x171;" horiz-adv-x="1165" 
d="M395 1233l140 254h151l-178 -254h-113zM637 1233l139 254h152l-176 -254h-115zM524 -25q-164 0 -260 110t-96 302v698h135v-657q0 -332 256 -332q140 0 221.5 92t81.5 250v647h135v-1085h-127l-2 197q-40 -106 -129 -164t-215 -58z" />
    <glyph glyph-name="Uogonek" unicode="&#x172;" horiz-adv-x="1392" 
d="M696 -33q-250 0 -393 144.5t-143 396.5v948h139v-948q0 -194 103.5 -299t293.5 -105q191 0 294.5 105.5t103.5 298.5v948h139v-948q0 -188 -81 -318t-230 -186l-66 -92q-65 -94 -65 -154q0 -61 67 -61q51 0 98 31l43 -93q-56 -49 -161 -49q-79 0 -126.5 35.5t-47.5 102.5
q0 35 18 78t37.5 74t54.5 81l10 14q-54 -4 -88 -4z" />
    <glyph glyph-name="uogonek" unicode="&#x173;" horiz-adv-x="1165" 
d="M524 -25q-164 0 -260 110t-96 302v698h135v-657q0 -332 256 -332q140 0 221.5 92t81.5 250v647h135v-1085l-65 -92q-66 -98 -66 -156q0 -29 18.5 -44t49.5 -15q56 0 98 28l43 -90q-56 -49 -162 -49q-80 0 -127 34.5t-47 102.5q0 35 18 78.5t38 74.5t55 81l35 47h-15
l-2 197q-40 -106 -129 -164t-215 -58z" />
    <glyph glyph-name="Wcircumflex" unicode="&#x174;" horiz-adv-x="1914" 
d="M702 1602l183 266h143l184 -266h-114l-142 190l-139 -190h-115zM471 0l-391 1454h151l328 -1270l315 1270h164l316 -1270l327 1270h152l-391 -1454h-180l-306 1212l-305 -1212h-180z" />
    <glyph glyph-name="wcircumflex" unicode="&#x175;" horiz-adv-x="1648" 
d="M571 1233l183 266h143l184 -266h-114l-142 190l-139 -190h-115zM393 0l-346 1085h148l280 -944l277 944h143l276 -944l283 944h148l-347 -1085h-168l-264 881l-262 -881h-168z" />
    <glyph glyph-name="Ycircumflex" unicode="&#x176;" horiz-adv-x="1155" 
d="M324 1602l184 266h143l183 -266h-115l-139 190l-142 -190h-114zM508 0v594l-518 860h166l422 -719l421 719h166l-518 -860v-594h-139z" />
    <glyph glyph-name="ycircumflex" unicode="&#x177;" horiz-adv-x="1073" 
d="M289 1233l182 266h143l183 -266h-115l-139 190l-140 -190h-114zM201 -307v121h110q67 0 99.5 20.5t52.5 75.5l41 110h-49l-408 1065h148l350 -944l334 944h147l-446 -1220q-33 -92 -92 -132t-166 -40h-121z" />
    <glyph glyph-name="Ydieresis" unicode="&#x178;" horiz-adv-x="1155" 
d="M344 1634v183h143v-183h-143zM670 1634v183h143v-183h-143zM508 0v594l-518 860h166l422 -719l421 719h166l-518 -860v-594h-139z" />
    <glyph glyph-name="Zacute" unicode="&#x179;" horiz-adv-x="1099" 
d="M504 1602l139 253h152l-179 -253h-112zM59 0v141l803 1178h-776v135h934v-141l-803 -1178h823v-135h-981z" />
    <glyph glyph-name="zacute" unicode="&#x17a;" horiz-adv-x="1116" 
d="M500 1233l139 254h152l-177 -254h-114zM119 0v135l712 830h-692v120h842v-135l-715 -829h731v-121h-878z" />
    <glyph glyph-name="Zdotaccent" unicode="&#x17b;" horiz-adv-x="1099" 
d="M492 1634v183h143v-183h-143zM59 0v141l803 1178h-776v135h934v-141l-803 -1178h823v-135h-981z" />
    <glyph glyph-name="zdotaccent" unicode="&#x17c;" horiz-adv-x="1116" 
d="M489 1266v182h144v-182h-144zM119 0v135l712 830h-692v120h842v-135l-715 -829h731v-121h-878z" />
    <glyph glyph-name="Zcaron" unicode="&#x17d;" horiz-adv-x="1099" 
d="M309 1868h115l139 -191l142 191h114l-184 -266h-143zM59 0v141l803 1178h-776v135h934v-141l-803 -1178h823v-135h-981z" />
    <glyph glyph-name="zcaron" unicode="&#x17e;" horiz-adv-x="1116" 
d="M305 1499h115l141 -190l139 190h115l-182 -266h-144zM119 0v135l712 830h-692v120h842v-135l-715 -829h731v-121h-878z" />
    <glyph glyph-name="uni018F" unicode="&#x18f;" horiz-adv-x="1452" 
d="M1356 727q0 -351 -177 -555.5t-464 -204.5q-126 0 -237.5 49.5t-197 141t-135 233.5t-49.5 316v75h1114q-9 262 -148.5 415t-346.5 153q-144 0 -256.5 -82t-169.5 -232l-148 15q62 199 216.5 317.5t357.5 118.5q291 0 466 -206t175 -554zM715 104q206 0 344 144t151 399
h-966q23 -258 148 -400.5t323 -142.5z" />
    <glyph glyph-name="florin" unicode="&#x192;" horiz-adv-x="1021" 
d="M127 0v121h115q61 0 98 38t45 107l78 699h-168v120h180l10 95q15 135 88.5 205t200.5 69l164 -2v-119h-176q-61 0 -98.5 -38t-45.5 -107l-10 -103h330v-120h-344l-78 -691q-15 -136 -88.5 -206.5t-200.5 -69.5z" />
    <glyph glyph-name="uni01CD" unicode="&#x1cd;" horiz-adv-x="1329" 
d="M410 1868h114l142 -191l139 191h115l-183 -266h-143zM43 0l530 1454h185l528 -1454h-151l-156 436h-629l-155 -436h-152zM397 571h535l-266 758z" />
    <glyph glyph-name="uni01CE" unicode="&#x1ce;" horiz-adv-x="1120" 
d="M305 1499h115l139 -190l141 190h115l-184 -266h-144zM455 -25q-165 0 -263 78.5t-98 214.5q0 132 84.5 210.5t253.5 111.5l402 76q0 160 -69.5 237.5t-211.5 77.5q-245 0 -297 -227l-143 12q30 159 145.5 251.5t294.5 92.5q201 0 308.5 -114.5t107.5 -327.5v-453
q0 -53 17 -73.5t56 -20.5h33v-121q-24 -4 -55 -4q-90 0 -134.5 43.5t-51.5 146.5q-42 -92 -147 -151.5t-232 -59.5zM467 96q165 0 266 96.5t101 243.5v109l-373 -70q-117 -22 -171 -69t-54 -125q0 -89 61 -137t170 -48z" />
    <glyph glyph-name="uni01E4" unicode="&#x1e4;" horiz-adv-x="1503" 
d="M729 -33q-149 0 -269.5 57t-199.5 158t-121.5 239.5t-42.5 303.5q0 166 44 306t125 241.5t203.5 158t272.5 56.5q230 0 375.5 -129.5t190.5 -358.5l-146 -10q-32 170 -136.5 265.5t-283.5 95.5q-124 0 -220 -46.5t-156.5 -131t-91.5 -197.5t-31 -250q0 -283 125 -452
t362 -169q135 0 233.5 56.5t153.5 158.5h-375v113h418q18 70 21 152h-439v131h570v-76q0 -113 -21 -207h127v-113h-157q-64 -169 -199.5 -260.5t-331.5 -91.5z" />
    <glyph glyph-name="uni01E5" unicode="&#x1e5;" horiz-adv-x="1261" 
d="M569 -332q-172 0 -291.5 88t-144.5 230l141 8q20 -93 93 -145t202 -52q158 0 243 74.5t85 214.5v186q-43 -100 -133 -158.5t-205 -58.5q-207 0 -336 146.5t-129 382.5q0 235 127.5 380.5t331.5 145.5q122 0 216.5 -62.5t133.5 -164.5v202h129v-452h144v-115h-144v-432
q0 -195 -123 -306.5t-340 -111.5zM565 184q136 0 223.5 89t106.5 245h-416v115h418q-12 157 -102.5 252.5t-229.5 95.5q-153 0 -241 -106.5t-88 -290.5q0 -185 88.5 -292.5t240.5 -107.5z" />
    <glyph glyph-name="Gcaron" unicode="&#x1e6;" horiz-adv-x="1417" 
d="M483 1868h115l139 -191l140 191h114l-182 -266h-143zM731 -33q-195 0 -340 96.5t-220 267.5t-75 394q0 224 74.5 395t221 269t345.5 98q237 0 382 -131t188 -357l-146 -10q-70 361 -424 361q-124 0 -219.5 -48t-155 -133t-90 -197.5t-30.5 -246.5q0 -281 127 -451
t364 -170q199 0 319 133.5t128 346.5h-439v131h570v-715h-107l-8 283q-51 -141 -175 -228.5t-290 -87.5z" />
    <glyph glyph-name="gcaron" unicode="&#x1e7;" horiz-adv-x="1200" 
d="M317 1499h115l139 -190l140 190h114l-182 -266h-143zM569 -332q-172 0 -291.5 88t-144.5 230l141 8q20 -93 93 -145t202 -52q158 0 243 74.5t85 214.5v186q-43 -100 -133 -158.5t-205 -58.5q-207 0 -336 146.5t-129 382.5q0 235 127.5 380.5t331.5 145.5
q122 0 216.5 -62.5t133.5 -164.5v202h129v-999q0 -195 -123 -306.5t-340 -111.5zM565 184q151 0 241.5 108t90.5 292q3 178 -89 287.5t-243 109.5q-153 0 -241 -106.5t-88 -290.5q0 -185 88.5 -292.5t240.5 -107.5z" />
    <glyph glyph-name="uni01E8" unicode="&#x1e8;" horiz-adv-x="1294" 
d="M410 1868h114l140 -191l141 191h115l-185 -266h-143zM190 0v1454h140v-778l712 778h177l-578 -631l619 -823h-168l-543 721l-219 -238v-483h-140z" />
    <glyph glyph-name="uni01E9" unicode="&#x1e9;" horiz-adv-x="1193" 
d="M-20 1786h114l142 -191l139 191h114l-182 -266h-143zM168 0v1454h135v-987l588 618h180l-446 -462l473 -623h-164l-399 532l-232 -237v-295h-135z" />
    <glyph glyph-name="uni0218" unicode="&#x218;" horiz-adv-x="1298" 
d="M678 -33q-242 0 -395.5 137.5t-165.5 354.5l145 10q14 -167 124.5 -266t295.5 -99q163 0 258.5 69.5t95.5 195.5q0 57 -17 98t-63.5 81t-133 73.5t-220.5 66.5q-252 61 -353.5 146.5t-101.5 248.5q0 178 129 291t351 113q116 0 212.5 -36t161 -99t102.5 -145t46 -177
l-145 -10q-13 146 -111.5 238t-269.5 92q-152 0 -241 -72.5t-89 -190.5q0 -77 33.5 -123.5t114 -82t241.5 -74.5q188 -45 300 -108t157 -140t45 -184q0 -122 -66.5 -215.5t-181 -143t-258.5 -49.5zM539 -442l100 182h-66v156h170v-142l-110 -196h-94z" />
    <glyph glyph-name="uni0219" unicode="&#x219;" horiz-adv-x="1062" 
d="M553 -25q-207 0 -327.5 99.5t-131.5 259.5l142 10q12 -111 93 -175.5t224 -64.5q131 0 201.5 44.5t70.5 132.5q0 53 -21.5 84t-88 57.5t-195.5 48.5q-153 27 -240 69t-121 99.5t-34 144.5q0 147 106 236.5t289 89.5q181 0 289 -96t135 -244l-141 -12q-18 99 -91 161
t-194 62t-186.5 -51t-65.5 -139q0 -89 60.5 -131t224.5 -70q161 -26 252.5 -66.5t128.5 -97t37 -143.5q0 -145 -114.5 -226.5t-301.5 -81.5zM422 -442l98 182h-65v156h172v-142l-111 -196h-94z" />
    <glyph glyph-name="uni021A" unicode="&#x21a;" horiz-adv-x="1124" 
d="M494 0v1319h-467v135h1073v-135h-467v-1319h-139zM442 -442l101 182h-66v156h170v-142l-110 -196h-95z" />
    <glyph glyph-name="uni021B" unicode="&#x21b;" horiz-adv-x="776" 
d="M547 0q-132 0 -196 62t-64 192v711h-170v120h170v254h135v-254h280v-120h-280v-707q0 -75 33 -106t104 -31h143v-121h-155zM354 -442l101 182h-66v156h170v-142l-110 -196h-95z" />
    <glyph glyph-name="uni0237" unicode="&#x237;" horiz-adv-x="512" 
d="M-10 -307v121h78q74 0 107.5 31.5t33.5 113.5v1126h135v-1134q0 -141 -60.5 -199.5t-201.5 -58.5h-92z" />
    <glyph glyph-name="uni0259" unicode="&#x259;" horiz-adv-x="1140" 
d="M559 1110q226 0 357 -156.5t131 -410.5q0 -253 -129 -410.5t-351 -157.5q-218 0 -345.5 153.5t-127.5 410.5v43h811q-7 192 -99 295.5t-247 103.5q-117 0 -194 -56t-107 -153l-145 10q42 148 160.5 238t285.5 90zM905 461h-663q10 -171 96 -264t229 -93q141 0 230 93.5
t108 263.5z" />
    <glyph glyph-name="uni02B9" unicode="&#x2b9;" horiz-adv-x="483" 
d="M82 981l92 473h137l-106 -473h-123z" />
    <glyph glyph-name="uni02BC" unicode="&#x2bc;" horiz-adv-x="391" 
d="M100 971l64 483h139l-102 -483h-101z" />
    <glyph glyph-name="circumflex" unicode="&#x2c6;" horiz-adv-x="698" 
d="M94 1233l182 266h144l184 -266h-115l-141 190l-139 -190h-115z" />
    <glyph glyph-name="caron" unicode="&#x2c7;" horiz-adv-x="698" 
d="M94 1499h115l139 -190l141 190h115l-184 -266h-144z" />
    <glyph glyph-name="uni02C8" unicode="&#x2c8;" horiz-adv-x="344" 
d="M123 971l-25 332v151h148v-151l-23 -332h-100z" />
    <glyph glyph-name="breve" unicode="&#x2d8;" horiz-adv-x="739" 
d="M371 1245q-119 0 -193.5 69t-83.5 185h96q10 -75 57.5 -112t123.5 -37q158 0 176 149h98q-9 -117 -82 -185.5t-192 -68.5z" />
    <glyph glyph-name="dotaccent" unicode="&#x2d9;" horiz-adv-x="331" 
d="M94 1266v182h144v-182h-144z" />
    <glyph glyph-name="ring" unicode="&#x2da;" horiz-adv-x="536" 
d="M268 1190q-74 0 -124 50t-50 124q0 75 50 124.5t124 49.5q75 0 124.5 -49.5t49.5 -124.5q0 -74 -49.5 -124t-124.5 -50zM268 1276q39 0 63.5 24.5t24.5 63.5q0 40 -24 64t-64 24q-39 0 -63.5 -24.5t-24.5 -63.5q0 -38 25 -63t63 -25z" />
    <glyph glyph-name="ogonek" unicode="&#x2db;" horiz-adv-x="524" 
d="M268 -418q-80 0 -127 34.5t-47 102.5q0 35 18 78.5t38 74.5t55 81l57 78l90 -31l-65 -92q-66 -98 -66 -156q0 -29 18.5 -44t49.5 -15q56 0 98 28l43 -90q-56 -49 -162 -49z" />
    <glyph glyph-name="tilde" unicode="&#x2dc;" horiz-adv-x="798" 
d="M522 1264q-74 0 -139 59q-33 31 -54.5 43t-52.5 12q-89 0 -94 -129h-88q4 105 54 163t128 58q47 0 81 -16t71 -49q57 -49 100 -49q40 0 61 30.5t27 104.5h89q-6 -107 -54.5 -167t-128.5 -60z" />
    <glyph glyph-name="hungarumlaut" unicode="&#x2dd;" horiz-adv-x="722" 
d="M94 1233l139 254h152l-178 -254h-113zM338 1233l139 254h152l-178 -254h-113z" />
    <glyph glyph-name="gravecomb" unicode="&#x300;" 
d="M272 1245l-178 254h152l139 -254h-113z" />
    <glyph glyph-name="acutecomb" unicode="&#x301;" 
d="M94 1233l139 254h152l-178 -254h-113z" />
    <glyph glyph-name="uni0302" unicode="&#x302;" 
d="M94 1233l182 266h144l184 -266h-115l-141 190l-139 -190h-115z" />
    <glyph glyph-name="tildecomb" unicode="&#x303;" 
d="M522 1264q-74 0 -139 59q-33 31 -54.5 43t-52.5 12q-89 0 -94 -129h-88q4 105 54 163t128 58q47 0 81 -16t71 -49q57 -49 100 -49q40 0 61 30.5t27 104.5h89q-6 -107 -54.5 -167t-128.5 -60z" />
    <glyph glyph-name="uni0304" unicode="&#x304;" 
d="M94 1292v119h535v-119h-535z" />
    <glyph glyph-name="uni0306" unicode="&#x306;" 
d="M371 1245q-119 0 -193.5 69t-83.5 185h96q10 -75 57.5 -112t123.5 -37q158 0 176 149h98q-9 -117 -82 -185.5t-192 -68.5z" />
    <glyph glyph-name="uni0307" unicode="&#x307;" 
d="M94 1266v182h144v-182h-144z" />
    <glyph glyph-name="uni0308" unicode="&#x308;" 
d="M94 1266v182h144v-182h-144zM420 1266v182h143v-182h-143z" />
    <glyph glyph-name="uni030A" unicode="&#x30a;" 
d="M268 1190q-74 0 -124 50t-50 124q0 75 50 124.5t124 49.5q75 0 124.5 -49.5t49.5 -124.5q0 -74 -49.5 -124t-124.5 -50zM268 1276q39 0 63.5 24.5t24.5 63.5q0 40 -24 64t-64 24q-39 0 -63.5 -24.5t-24.5 -63.5q0 -38 25 -63t63 -25z" />
    <glyph glyph-name="uni030B" unicode="&#x30b;" 
d="M94 1233l139 254h152l-178 -254h-113zM338 1233l139 254h152l-178 -254h-113z" />
    <glyph glyph-name="uni030C" unicode="&#x30c;" 
d="M94 1499h115l139 -190l141 190h115l-184 -266h-144z" />
    <glyph glyph-name="uni0312" unicode="&#x312;" 
d="M94 1245v141l111 199h94l-100 -184h65v-156h-170z" />
    <glyph glyph-name="uni0326" unicode="&#x326;" 
d="M94 -442l101 182h-66v156h170v-142l-111 -196h-94z" />
    <glyph glyph-name="uni0327" unicode="&#x327;" 
d="M319 -440q-88 0 -146 40t-79 107l86 35q18 -45 49.5 -66.5t85.5 -21.5q57 0 89 24t32 68q0 47 -36 71.5t-128 24.5l-47 54l72 120h106l-65 -98q97 -4 148 -50t51 -126q0 -82 -61 -132t-157 -50z" />
    <glyph glyph-name="uni0328" unicode="&#x328;" 
d="M268 -418q-80 0 -127 34.5t-47 102.5q0 35 18 78.5t38 74.5t55 81l57 78l90 -31l-65 -92q-66 -98 -66 -156q0 -29 18.5 -44t49.5 -15q56 0 98 28l43 -90q-56 -49 -162 -49z" />
    <glyph glyph-name="uni0335" unicode="&#x335;" 
d="M285 662v110h587v-110h-587z" />
    <glyph glyph-name="uni0336" unicode="&#x336;" 
d="M41 1106v127h1366v-127h-1366z" />
    <glyph glyph-name="uni0337" unicode="&#x337;" 
d="M82 623v108l450 246v-109z" />
    <glyph glyph-name="uni0338" unicode="&#x338;" 
d="M82 -33l762 1143h117l-762 -1143h-117z" />
    <glyph glyph-name="Lambda" unicode="&#x39b;" horiz-adv-x="1329" 
d="M43 0l530 1454h185l528 -1454h-151l-469 1329l-471 -1329h-152z" />
    <glyph glyph-name="uni03A9" unicode="&#x3a9;" horiz-adv-x="1476" 
d="M100 0v135h303q-138 76 -222.5 241.5t-84.5 368.5q0 339 173.5 540.5t467.5 201.5q296 0 470.5 -201.5t174.5 -540.5q0 -204 -85 -369t-224 -241h305v-135h-538v137q109 6 199.5 88t143 220t52.5 300q0 284 -131.5 444.5t-366.5 160.5q-233 0 -364 -161t-131 -444
q0 -162 52 -300t142.5 -220t198.5 -88v-137h-535z" />
    <glyph glyph-name="lambda" unicode="&#x3bb;" horiz-adv-x="1146" 
d="M43 0l414 1055l-51 131q-34 82 -64.5 114.5t-89.5 32.5h-96v121h88q115 0 178.5 -61t122.5 -213l360 -914q2 -4 9.5 -23.5t9.5 -24.5t9.5 -21t11.5 -21.5t12 -17.5t14.5 -16t16 -10.5t20 -8.5t22.5 -2h72v-121h-55q-42 0 -73.5 5.5t-57.5 22t-44 34t-37.5 54t-33.5 68.5
t-37 90l-240 607l-338 -881h-143z" />
    <glyph glyph-name="pi" unicode="&#x3c0;" horiz-adv-x="1312" 
d="M336 0v965h-219v120h1122v-120h-211v-693q0 -72 39 -112.5t109 -40.5h61v-119h-57q-143 0 -215 73t-72 203v689h-422v-965h-135z" />
    <glyph glyph-name="uni0400" unicode="&#x400;" horiz-adv-x="1214" 
d="M596 1614l-178 254h151l140 -254h-113zM190 0v1454h895v-135h-755v-524h731v-133h-731v-527h772v-135h-912z" />
    <glyph glyph-name="uni0401" unicode="&#x401;" horiz-adv-x="1214" 
d="M408 1634v183h143v-183h-143zM733 1634v183h144v-183h-144zM190 0v1454h895v-135h-755v-524h731v-133h-731v-527h772v-135h-912z" />
    <glyph glyph-name="uni0402" unicode="&#x402;" horiz-adv-x="1513" 
d="M412 0v1319h-385v135h983v-135h-459v-578q43 99 156.5 162.5t253.5 63.5q211 0 341 -133.5t130 -348.5q0 -224 -152.5 -354.5t-413.5 -130.5v135q196 0 307 94t111 256q0 160 -86 252t-237 92q-179 0 -294.5 -92.5t-115.5 -238.5v-498h-139z" />
    <glyph glyph-name="uni0403" unicode="&#x403;" horiz-adv-x="1175" 
d="M610 1602l140 253h151l-178 -253h-113zM190 0v1454h959v-135h-819v-1319h-140z" />
    <glyph glyph-name="uni0404" unicode="&#x404;" horiz-adv-x="1486" 
d="M766 -33q-305 0 -479 203.5t-174 554.5q0 354 174 558t479 204q251 0 416 -141t215 -390h-150q-45 184 -170.5 289t-310.5 105q-222 0 -356.5 -148.5t-149.5 -408.5h614v-136h-614q15 -258 149.5 -405.5t356.5 -147.5q185 0 310.5 104t170.5 286h150
q-50 -246 -215 -386.5t-416 -140.5z" />
    <glyph glyph-name="uni0405" unicode="&#x405;" horiz-adv-x="1298" 
d="M678 -33q-242 0 -395.5 137.5t-165.5 354.5l145 10q14 -167 124.5 -266t295.5 -99q163 0 258.5 69.5t95.5 195.5q0 57 -17 98t-63.5 81t-133 73.5t-220.5 66.5q-252 61 -353.5 146.5t-101.5 248.5q0 178 129 291t351 113q116 0 212.5 -36t161 -99t102.5 -145t46 -177
l-145 -10q-13 146 -111.5 238t-269.5 92q-152 0 -241 -72.5t-89 -190.5q0 -77 33.5 -123.5t114 -82t241.5 -74.5q188 -45 300 -108t157 -140t45 -184q0 -122 -66.5 -215.5t-181 -143t-258.5 -49.5z" />
    <glyph glyph-name="uni0406" unicode="&#x406;" horiz-adv-x="526" 
d="M197 0v1454h139v-1454h-139z" />
    <glyph glyph-name="uni0407" unicode="&#x407;" horiz-adv-x="522" 
d="M35 1634v183h143v-183h-143zM360 1634v183h144v-183h-144zM186 0v1454h140v-1454h-140z" />
    <glyph glyph-name="uni0408" unicode="&#x408;" horiz-adv-x="1204" 
d="M590 -33q-197 0 -322.5 140t-128.5 368l144 10q3 -183 84 -282t223 -99q150 0 232.5 104.5t82.5 299.5v946h139v-946q0 -252 -123 -396.5t-331 -144.5z" />
    <glyph glyph-name="uni0409" unicode="&#x409;" horiz-adv-x="2291" 
d="M139 0v135h101q123 0 139 180l94 1139h881v-586h309q239 0 373.5 -115.5t134.5 -318.5t-134.5 -318.5t-373.5 -115.5h-510v1319h-549l-84 -1018q-26 -301 -262 -301h-119zM1663 733h-309v-598h309q178 0 269 75.5t91 223.5q0 147 -91 223t-269 76z" />
    <glyph glyph-name="uni040A" unicode="&#x40a;" horiz-adv-x="2230" 
d="M190 0v1454h140v-586h762v586h139v-586h371q237 0 371 -115.5t134 -318.5t-134 -318.5t-371 -115.5h-510v733h-762v-733h-140zM1231 733v-598h371q177 0 268.5 75.5t91.5 223.5q0 146 -91.5 222.5t-268.5 76.5h-371z" />
    <glyph glyph-name="uni040B" unicode="&#x40b;" horiz-adv-x="1517" 
d="M27 1319v135h983v-135h-459v-578q43 100 157.5 163t260.5 63q221 0 341 -121.5t120 -337.5v-508h-140v508q0 154 -83 238.5t-238 84.5q-184 0 -301 -93.5t-117 -239.5v-498h-139v1319h-385z" />
    <glyph glyph-name="uni040C" unicode="&#x40c;" horiz-adv-x="1243" 
d="M604 1602l139 253h152l-178 -253h-113zM190 0v1454h140v-713l671 713h187l-684 -727l704 -727h-186l-692 713v-713h-140z" />
    <glyph glyph-name="uni040D" unicode="&#x40d;" horiz-adv-x="1492" 
d="M672 1614l-178 254h151l139 -254h-112zM1303 0h-140v1300l-772 -1300h-207v1454h140v-1317l780 1317h199v-1454z" />
    <glyph glyph-name="uni040E" unicode="&#x40e;" horiz-adv-x="1079" 
d="M541 1614q-119 0 -193.5 69t-83.5 185h98q9 -75 56 -112.5t123 -37.5q157 0 178 150h96q-9 -117 -82 -185.5t-192 -68.5zM172 0v135h137q51 0 83 25t54 82l56 147h-51l-408 1065h152l352 -942l338 942h151l-467 -1278q-32 -90 -92 -133t-153 -43h-152z" />
    <glyph glyph-name="uni040F" unicode="&#x40f;" horiz-adv-x="1421" 
d="M641 -307v307h-451v1454h140v-1319h762v1319h139v-1454h-451v-307h-139z" />
    <glyph glyph-name="uni0410" unicode="&#x410;" horiz-adv-x="1329" 
d="M43 0l530 1454h185l528 -1454h-151l-156 436h-629l-155 -436h-152zM397 571h535l-266 758z" />
    <glyph glyph-name="uni0411" unicode="&#x411;" horiz-adv-x="1329" 
d="M190 0v1454h961v-135h-821v-451h370q238 0 373 -115.5t135 -318.5t-135 -318.5t-373 -115.5h-510zM330 135h370q178 0 269.5 75.5t91.5 223.5q0 147 -91.5 223t-269.5 76h-370v-598z" />
    <glyph glyph-name="uni0412" unicode="&#x412;" horiz-adv-x="1363" 
d="M190 0v1454h482q257 0 382.5 -95.5t125.5 -295.5q0 -124 -71 -209.5t-194 -108.5q152 -20 239 -113.5t87 -236.5q0 -196 -124 -295.5t-363 -99.5h-564zM330 803h342q175 0 268.5 66.5t93.5 189.5q0 260 -362 260h-342v-516zM330 135h424q168 0 255 67t87 199
q0 125 -90.5 196t-251.5 71h-424v-533z" />
    <glyph glyph-name="uni0413" unicode="&#x413;" horiz-adv-x="1175" 
d="M190 0v1454h959v-135h-819v-1319h-140z" />
    <glyph glyph-name="uni0414" unicode="&#x414;" horiz-adv-x="1634" 
d="M109 -307v442h71q81 0 127.5 72t61.5 219l106 1028h868v-1319h181v-442h-140v307h-1136v-307h-139zM408 135h796v1184h-602l-94 -913q-22 -183 -100 -271z" />
    <glyph glyph-name="uni0415" unicode="&#x415;" horiz-adv-x="1214" 
d="M190 0v1454h895v-135h-755v-524h731v-133h-731v-527h772v-135h-912z" />
    <glyph glyph-name="uni0416" unicode="&#x416;" horiz-adv-x="1847" 
d="M35 0l647 727l-627 727h189l610 -711v711h139v-711l613 711h188l-627 -727l648 -727h-189l-633 711v-711h-139v711l-631 -711h-188z" />
    <glyph glyph-name="uni0417" unicode="&#x417;" horiz-adv-x="1327" 
d="M664 -33q-236 0 -389.5 111t-165.5 291l143 10q12 -126 123.5 -200.5t288.5 -74.5q187 0 298 83.5t111 224.5q0 95 -54.5 164t-140.5 102t-190 33l-145 -2v137l145 -2q65 -1 124 15t106.5 47t75.5 83t28 119q0 109 -96.5 175.5t-259.5 66.5q-147 0 -242.5 -58.5
t-112.5 -158.5l-145 10q23 154 161 249t339 95q224 0 362.5 -105.5t138.5 -273.5q0 -117 -68.5 -200.5t-197.5 -121.5q151 -46 233.5 -147.5t82.5 -239.5q0 -191 -154 -311.5t-399 -120.5z" />
    <glyph glyph-name="uni0418" unicode="&#x418;" horiz-adv-x="1492" 
d="M1303 0h-140v1300l-772 -1300h-207v1454h140v-1317l780 1317h199v-1454z" />
    <glyph glyph-name="uni0419" unicode="&#x419;" horiz-adv-x="1492" 
d="M739 1614q-119 0 -193 69t-83 185h98q9 -75 55.5 -112.5t122.5 -37.5q75 0 122 37.5t57 112.5h96q-9 -116 -82.5 -185t-192.5 -69zM1303 0h-140v1300l-772 -1300h-207v1454h140v-1317l780 1317h199v-1454z" />
    <glyph glyph-name="uni041A" unicode="&#x41a;" horiz-adv-x="1243" 
d="M190 0v1454h140v-713l671 713h187l-684 -727l704 -727h-186l-692 713v-713h-140z" />
    <glyph glyph-name="uni041B" unicode="&#x41b;" horiz-adv-x="1546" 
d="M139 0v135h101q123 0 139 180l94 1139h881v-1454h-140v1319h-610l-84 -1018q-26 -301 -262 -301h-119z" />
    <glyph glyph-name="uni041C" unicode="&#x41c;" horiz-adv-x="1777" 
d="M190 0v1454h201l498 -1302l497 1302h201v-1454h-139v1214l-469 -1214h-180l-469 1214v-1214h-140z" />
    <glyph glyph-name="uni041D" unicode="&#x41d;" horiz-adv-x="1435" 
d="M190 0v1454h140v-651h774v651h139v-1454h-139v668h-774v-668h-140z" />
    <glyph glyph-name="uni041E" unicode="&#x41e;" horiz-adv-x="1497" 
d="M748 -33q-304 0 -478 203t-174 555q0 354 174 558t478 204q305 0 479 -204t174 -558q0 -353 -174 -555.5t-479 -202.5zM748 104q236 0 371.5 165.5t135.5 455.5q0 292 -135.5 458.5t-371.5 166.5t-371 -166.5t-135 -458.5q0 -290 135 -455.5t371 -165.5z" />
    <glyph glyph-name="uni041F" unicode="&#x41f;" horiz-adv-x="1421" 
d="M190 0v1454h1041v-1454h-139v1319h-762v-1319h-140z" />
    <glyph glyph-name="uni0420" unicode="&#x420;" horiz-adv-x="1308" 
d="M190 0v1454h510q239 0 373.5 -115.5t134.5 -318.5t-134.5 -318.5t-373.5 -115.5h-370v-586h-140zM330 721h370q178 0 269.5 76t91.5 223q0 148 -91.5 223.5t-269.5 75.5h-370v-598z" />
    <glyph glyph-name="uni0421" unicode="&#x421;" horiz-adv-x="1413" 
d="M729 -33q-290 0 -464.5 204t-174.5 554q0 351 175 556.5t464 205.5q247 0 395 -131.5t195 -366.5l-148 -10q-33 175 -144.5 273t-297.5 98q-225 0 -359 -167.5t-134 -457.5q0 -289 134 -455t359 -166q196 0 311.5 106t143.5 298l147 -10q-41 -245 -197 -388t-405 -143z
" />
    <glyph glyph-name="uni0422" unicode="&#x422;" horiz-adv-x="1144" 
d="M477 0v1319h-467v135h1073v-135h-467v-1319h-139z" />
    <glyph glyph-name="uni0423" unicode="&#x423;" horiz-adv-x="1079" 
d="M172 0v135h137q51 0 83 25t54 82l56 147h-51l-408 1065h152l352 -942l338 942h151l-467 -1278q-32 -90 -92 -133t-153 -43h-152z" />
    <glyph glyph-name="uni0424" unicode="&#x424;" horiz-adv-x="1681" 
d="M772 0v152q-306 17 -491 173.5t-185 401.5t185 402t491 174v151h137v-151q305 -17 491.5 -174.5t186.5 -401.5q0 -161 -84.5 -288t-238.5 -201.5t-355 -85.5v-152h-137zM242 727q0 -190 142 -307.5t388 -132.5v880q-246 -15 -388 -132.5t-142 -307.5zM1440 727
q0 190 -142 307.5t-389 132.5v-880q247 15 389 132.5t142 307.5z" />
    <glyph glyph-name="uni0425" unicode="&#x425;" horiz-adv-x="1234" 
d="M35 0l493 731l-487 723h166l411 -614l410 614h164l-487 -723l497 -731h-166l-420 623l-419 -623h-162z" />
    <glyph glyph-name="uni0426" unicode="&#x426;" horiz-adv-x="1533" 
d="M1245 -307v307h-1055v1454h140v-1319h762v1319h139v-1319h153v-442h-139z" />
    <glyph glyph-name="uni0427" unicode="&#x427;" horiz-adv-x="1296" 
d="M967 0v713q-43 -100 -157.5 -163t-258.5 -63q-221 0 -342 122t-121 337v508h139v-508q0 -154 83.5 -238.5t240.5 -84.5q184 0 300 93t116 240v498h139v-1454h-139z" />
    <glyph glyph-name="uni0428" unicode="&#x428;" horiz-adv-x="1859" 
d="M190 0v1454h140v-1319h530v1319h141v-1319h527v1319h139v-1454h-1477z" />
    <glyph glyph-name="uni0429" unicode="&#x429;" horiz-adv-x="1974" 
d="M190 0v1454h140v-1319h530v1319h141v-1319h527v1319h139v-1319h158v-442h-137v307h-1498z" />
    <glyph glyph-name="uni042A" unicode="&#x42a;" horiz-adv-x="1495" 
d="M150 1319v135h366v-586h371q237 0 371.5 -115.5t134.5 -318.5t-134.5 -318.5t-371.5 -115.5h-510v1319h-227zM516 733v-598h371q177 0 268.5 75.5t91.5 223.5q0 146 -91.5 222.5t-268.5 76.5h-371z" />
    <glyph glyph-name="uni042B" unicode="&#x42b;" horiz-adv-x="1695" 
d="M1366 0v1454h139v-1454h-139zM190 1454h140v-586h370q239 0 373.5 -115.5t134.5 -318.5t-134.5 -318.5t-373.5 -115.5h-510v1454zM330 733v-598h370q178 0 269.5 75.5t91.5 223.5q0 147 -91.5 223t-269.5 76h-370z" />
    <glyph glyph-name="uni042C" unicode="&#x42c;" horiz-adv-x="1323" 
d="M190 1454h140v-586h370q239 0 373.5 -115.5t134.5 -318.5t-134.5 -318.5t-373.5 -115.5h-510v1454zM330 733v-598h370q178 0 269.5 75.5t91.5 223.5q0 147 -91.5 223t-269.5 76h-370z" />
    <glyph glyph-name="uni042D" unicode="&#x42d;" horiz-adv-x="1476" 
d="M727 -33q-251 0 -416 140.5t-215 386.5h150q45 -182 170.5 -286t310.5 -104q222 0 356.5 147.5t149.5 405.5h-615v136h615q-15 261 -149 409t-357 148q-185 0 -310.5 -105t-170.5 -289h-150q50 249 215 390t416 141q305 0 479 -204t174 -558q0 -351 -174 -554.5
t-479 -203.5z" />
    <glyph glyph-name="uni042E" unicode="&#x42e;" horiz-adv-x="1968" 
d="M190 0v1454h140v-659h239q17 323 189.5 507.5t460.5 184.5q305 0 479 -204t174 -558q0 -353 -174 -555.5t-479 -202.5q-288 0 -460.5 184.5t-189.5 507.5h-239v-659h-140zM1219 104q238 0 372.5 165.5t134.5 455.5q0 292 -135 458.5t-372 166.5q-235 0 -370.5 -167
t-135.5 -458q0 -290 135.5 -455.5t370.5 -165.5z" />
    <glyph glyph-name="uni042F" unicode="&#x42f;" horiz-adv-x="1353" 
d="M1163 0h-139v602h-371q-22 0 -32 2l-347 -604h-151l354 623q-158 37 -244 140t-86 257q0 203 135 318.5t371 115.5h510v-1454zM1024 737v582h-371q-173 0 -266.5 -77t-93.5 -218q0 -138 93.5 -212.5t266.5 -74.5h371z" />
    <glyph glyph-name="uni0430" unicode="&#x430;" horiz-adv-x="1120" 
d="M455 -25q-165 0 -263 78.5t-98 214.5q0 132 84.5 210.5t253.5 111.5l402 76q0 160 -69.5 237.5t-211.5 77.5q-245 0 -297 -227l-143 12q30 159 145.5 251.5t294.5 92.5q201 0 308.5 -114.5t107.5 -327.5v-453q0 -53 17 -73.5t56 -20.5h33v-121q-24 -4 -55 -4
q-90 0 -134.5 43.5t-51.5 146.5q-42 -92 -147 -151.5t-232 -59.5zM467 96q165 0 266 96.5t101 243.5v109l-373 -70q-117 -22 -171 -69t-54 -125q0 -89 61 -137t170 -48z" />
    <glyph glyph-name="uni0431" unicode="&#x431;" horiz-adv-x="1196" 
d="M600 -33q-217 0 -362 172q-67 75 -103.5 205t-38.5 297q-2 188 37.5 318t119.5 214t212 144q109 51 147.5 103.5t38.5 135.5l137 3q0 -115 -50.5 -197.5t-174.5 -142.5q-65 -31 -108 -57.5t-88 -67t-71.5 -87t-44 -114.5t-18.5 -154q53 117 159 184.5t239 67.5
q209 0 339 -141.5t130 -366.5q0 -233 -139 -374.5t-361 -141.5zM604 96q155 0 254.5 108.5t99.5 278.5q0 166 -95.5 272.5t-244.5 106.5q-161 0 -264.5 -106.5t-105.5 -272.5q-3 -170 96.5 -278.5t259.5 -108.5z" />
    <glyph glyph-name="uni0432" unicode="&#x432;" horiz-adv-x="1191" 
d="M168 0v1085h436q182 0 289.5 -79.5t107.5 -214.5q0 -93 -61.5 -154t-169.5 -76q128 -15 202.5 -82.5t74.5 -171.5q0 -141 -104 -224t-279 -83h-496zM303 614h301q116 0 184 47.5t68 129.5q0 80 -68.5 127t-183.5 47h-301v-351zM303 121h361q109 0 173 50.5t64 135.5
q0 86 -64 135.5t-173 49.5h-361v-371z" />
    <glyph glyph-name="uni0433" unicode="&#x433;" horiz-adv-x="974" 
d="M168 0v1085h733v-120h-598v-965h-135z" />
    <glyph glyph-name="uni0434" unicode="&#x434;" horiz-adv-x="1384" 
d="M82 -307v428h72q71 0 116 57.5t60 169.5l98 737h698v-964h177v-428h-136v307h-950v-307h-135zM461 332q-18 -132 -84 -211h614v844h-440z" />
    <glyph glyph-name="uni0435" unicode="&#x435;" horiz-adv-x="1140" 
d="M584 -25q-228 0 -359 157t-131 411t129 410.5t352 156.5q217 0 344.5 -153.5t127.5 -409.5v-43h-811q7 -192 99 -296t249 -104q115 0 192 56t107 153l145 -10q-42 -148 -160.5 -238t-283.5 -90zM236 625h663q-10 171 -95.5 263.5t-228.5 92.5q-142 0 -231 -93t-108 -263z
" />
    <glyph glyph-name="uni0436" unicode="&#x436;" horiz-adv-x="1685" 
d="M98 0l508 543l-487 542h182l475 -530v530h135v-530l475 530h181l-488 -542l508 -543h-180l-496 530v-530h-135v530l-495 -530h-183z" />
    <glyph glyph-name="uni0437" unicode="&#x437;" horiz-adv-x="1056" 
d="M526 -25q-186 0 -301 90t-123 240l142 6q8 -95 83.5 -151t198.5 -56q131 0 208 53.5t77 145.5q0 100 -72.5 157t-195.5 54l-113 -2v131l113 -4q106 -2 168.5 43.5t62.5 124.5q0 78 -67 126t-179 48q-103 0 -167.5 -45t-73.5 -119l-146 8q15 132 119 208.5t268 76.5
q178 0 284 -82t106 -221q0 -78 -57.5 -136.5t-160.5 -86.5q120 -34 187 -110t67 -179q0 -147 -116 -233.5t-312 -86.5z" />
    <glyph glyph-name="uni0438" unicode="&#x438;" horiz-adv-x="1153" 
d="M168 0v1085h135v-884l518 884h166v-1085h-135v877l-514 -877h-170z" />
    <glyph glyph-name="uni0439" unicode="&#x439;" horiz-adv-x="1153" 
d="M571 1245q-119 0 -193 69t-83 185h96q10 -75 57 -112t123 -37t122 37t55 112h98q-9 -116 -82.5 -185t-192.5 -69zM168 0v1085h135v-884l518 884h166v-1085h-135v877l-514 -877h-170z" />
    <glyph glyph-name="uni043A" unicode="&#x43a;" horiz-adv-x="1173" 
d="M168 0v1085h137v-532l553 532h195l-574 -542l598 -543h-198l-574 532v-532h-137z" />
    <glyph glyph-name="uni043B" unicode="&#x43b;" horiz-adv-x="1337" 
d="M127 0v135h90q54 0 88.5 45t42.5 123l80 782h741v-1085h-135v965h-483l-68 -668q-14 -145 -77.5 -221t-172.5 -76h-106z" />
    <glyph glyph-name="uni043C" unicode="&#x43c;" horiz-adv-x="1449" 
d="M168 0v1085h182l377 -944l375 944h182v-1085h-135v834l-340 -834h-166l-340 834v-834h-135z" />
    <glyph glyph-name="uni043D" unicode="&#x43d;" horiz-adv-x="1163" 
d="M168 0v1085h135v-483h559v483h135v-1085h-135v479h-559v-479h-135z" />
    <glyph glyph-name="uni043E" unicode="&#x43e;" horiz-adv-x="1157" 
d="M580 -25q-221 0 -353.5 154.5t-132.5 413.5t132 413t354 154q220 0 351.5 -154t131.5 -413t-131.5 -413.5t-351.5 -154.5zM580 104q160 0 251 117.5t91 321.5t-91 321t-251 117q-161 0 -252.5 -117t-91.5 -321t91.5 -321.5t252.5 -117.5z" />
    <glyph glyph-name="uni043F" unicode="&#x43f;" horiz-adv-x="1165" 
d="M168 0v1085h831v-1085h-135v965h-561v-965h-135z" />
    <glyph glyph-name="uni0440" unicode="&#x440;" horiz-adv-x="1202" 
d="M168 -307v1392h123l4 -202q47 109 139 168t213 59q112 0 201 -44t145 -121.5t85.5 -179.5t29.5 -222t-29.5 -222t-85.5 -180t-145 -122t-201 -44q-114 0 -208 58.5t-136 150.5v-491h-135zM637 104q152 0 240 117.5t88 321.5t-88 321t-242 117q-152 0 -242 -117.5
t-90 -320.5t90.5 -321t243.5 -118z" />
    <glyph glyph-name="uni0441" unicode="&#x441;" horiz-adv-x="1107" 
d="M580 -25q-225 0 -355.5 157.5t-130.5 410.5t130.5 410t355.5 157q184 0 301.5 -99.5t150.5 -273.5l-141 -8q-25 120 -106 186t-205 66q-161 0 -252.5 -117t-91.5 -321t91.5 -321.5t252.5 -117.5q126 0 208 71.5t105 203.5l141 -10q-31 -180 -151 -287t-303 -107z" />
    <glyph glyph-name="uni0442" unicode="&#x442;" horiz-adv-x="1122" 
d="M496 0v965h-398v120h930v-120h-397v-965h-135z" />
    <glyph glyph-name="uni0443" unicode="&#x443;" horiz-adv-x="1073" 
d="M201 -307v121h110q67 0 99.5 20.5t52.5 75.5l41 110h-49l-408 1065h148l350 -944l334 944h147l-446 -1220q-33 -92 -92 -132t-166 -40h-121z" />
    <glyph glyph-name="uni0444" unicode="&#x444;" horiz-adv-x="1294" 
d="M580 -307v360q-219 20 -352.5 155t-133.5 341t133 340.5t353 154.5v410h139v-412q219 -20 350 -154t131 -339t-131 -339.5t-350 -154.5v-362h-139zM240 549q0 -151 91 -246.5t249 -112.5v717q-159 -17 -249.5 -112.5t-90.5 -245.5zM1055 549q0 150 -89.5 244.5
t-246.5 113.5v-717q157 19 246.5 114t89.5 245z" />
    <glyph glyph-name="uni0445" unicode="&#x445;" horiz-adv-x="1165" 
d="M98 0l402 553l-383 532h157l310 -440l305 440h162l-381 -534l397 -551h-158l-323 463l-328 -463h-160z" />
    <glyph glyph-name="uni0446" unicode="&#x446;" horiz-adv-x="1300" 
d="M1020 -307v307h-852v1085h135v-964h561v964h135v-964h156v-428h-135z" />
    <glyph glyph-name="uni0447" unicode="&#x447;" horiz-adv-x="1210" 
d="M907 0v553q-37 -102 -132.5 -165.5t-213.5 -63.5q-182 0 -287.5 123t-105.5 335v303h135v-303q0 -152 69.5 -240.5t188.5 -88.5q153 0 249.5 93.5t96.5 246.5v292h135v-1085h-135z" />
    <glyph glyph-name="uni0448" unicode="&#x448;" horiz-adv-x="1605" 
d="M168 0v1085h135v-964h432v964h137v-964h433v964h135v-1085h-1272z" />
    <glyph glyph-name="uni0449" unicode="&#x449;" horiz-adv-x="1730" 
d="M168 0v1085h135v-964h432v964h137v-964h433v964h135v-964h166v-428h-136v307h-1302z" />
    <glyph glyph-name="uni044A" unicode="&#x44a;" horiz-adv-x="1292" 
d="M291 0v965h-164v120h299v-405h297q228 0 351.5 -88.5t123.5 -251.5q0 -164 -123 -252t-352 -88h-432zM426 125h297q332 0 332 215q0 107 -84.5 162t-247.5 55h-297v-432z" />
    <glyph glyph-name="uni044B" unicode="&#x44b;" horiz-adv-x="1572" 
d="M1270 0v1085h135v-1085h-135zM168 0v1085h135v-405h297q228 0 351.5 -88.5t123.5 -251.5q0 -164 -123 -252t-352 -88h-432zM303 125h297q332 0 332 215q0 107 -84.5 162t-247.5 55h-297v-432z" />
    <glyph glyph-name="uni044C" unicode="&#x44c;" horiz-adv-x="1169" 
d="M168 0v1085h135v-405h297q228 0 351.5 -88.5t123.5 -251.5q0 -164 -123 -252t-352 -88h-432zM303 125h297q332 0 332 215q0 107 -84.5 162t-247.5 55h-297v-432z" />
    <glyph glyph-name="uni044D" unicode="&#x44d;" horiz-adv-x="1140" 
d="M561 -25q-179 0 -302 104t-163 286h146q34 -124 116.5 -192.5t202.5 -68.5q149 0 238.5 99.5t103.5 277.5h-377v123h377q-14 178 -103.5 277.5t-238.5 99.5q-122 0 -205.5 -69.5t-115.5 -196.5h-146q40 185 163 290t304 105q222 0 354 -154t132 -413t-132.5 -413.5
t-353.5 -154.5z" />
    <glyph glyph-name="uni044E" unicode="&#x44e;" horiz-adv-x="1556" 
d="M168 0v1085h135v-481h191q17 234 146.5 370t336.5 136q221 0 353 -154t132 -413t-132 -413.5t-353 -154.5q-207 0 -336.5 136t-146.5 370h-191v-481h-135zM977 104q161 0 251.5 117t90.5 322t-90.5 321.5t-251.5 116.5t-251.5 -116.5t-90.5 -321.5t90.5 -322t251.5 -117z
" />
    <glyph glyph-name="uni044F" unicode="&#x44f;" horiz-adv-x="1185" 
d="M168 0l262 446q-119 41 -182.5 122t-63.5 190q0 158 108.5 242.5t311.5 84.5h416v-1085h-135v420h-312l-247 -420h-158zM604 541h281v424h-281q-133 0 -204.5 -55t-71.5 -156q0 -102 71.5 -157.5t204.5 -55.5z" />
    <glyph glyph-name="uni0450" unicode="&#x450;" horiz-adv-x="1140" 
d="M528 1243l-178 254h152l139 -254h-113zM584 -25q-228 0 -359 157t-131 411t129 410.5t352 156.5q217 0 344.5 -153.5t127.5 -409.5v-43h-811q7 -192 99 -296t249 -104q115 0 192 56t107 153l145 -10q-42 -148 -160.5 -238t-283.5 -90zM236 625h663q-10 171 -95.5 263.5
t-228.5 92.5q-142 0 -231 -93t-108 -263z" />
    <glyph glyph-name="uni0451" unicode="&#x451;" horiz-adv-x="1140" 
d="M346 1264v180h143v-180h-143zM670 1264v180h143v-180h-143zM584 -25q-228 0 -359 157t-131 411t129 410.5t352 156.5q217 0 344.5 -153.5t127.5 -409.5v-43h-811q7 -192 99 -296t249 -104q115 0 192 56t107 153l145 -10q-42 -148 -160.5 -238t-283.5 -90zM236 625h663
q-10 171 -95.5 263.5t-228.5 92.5q-142 0 -231 -93t-108 -263z" />
    <glyph glyph-name="uni0452" unicode="&#x452;" horiz-adv-x="1247" 
d="M242 0v1210h-115v123h115v121h135v-121h262v-123h-262v-299q41 99 132.5 149t207.5 50q169 0 266.5 -113t97.5 -299v-704q0 -301 -268 -301h-88v119h74q77 0 112 44.5t35 137.5v647q0 340 -258 340q-143 0 -227 -91t-84 -249v-641h-135z" />
    <glyph glyph-name="uni0453" unicode="&#x453;" horiz-adv-x="974" 
d="M473 1233l139 254h152l-178 -254h-113zM168 0v1085h733v-120h-598v-965h-135z" />
    <glyph glyph-name="uni0454" unicode="&#x454;" horiz-adv-x="1140" 
d="M580 -25q-221 0 -353.5 154.5t-132.5 413.5t132 413t354 154q181 0 304 -105t163 -290h-146q-32 127 -115.5 196.5t-205.5 69.5q-149 0 -238.5 -99.5t-103.5 -277.5h376v-123h-376q14 -178 103.5 -277.5t238.5 -99.5q120 0 202.5 68.5t116.5 192.5h145
q-40 -182 -162.5 -286t-301.5 -104z" />
    <glyph glyph-name="uni0455" unicode="&#x455;" horiz-adv-x="1062" 
d="M553 -25q-207 0 -327.5 99.5t-131.5 259.5l142 10q12 -111 93 -175.5t224 -64.5q131 0 201.5 44.5t70.5 132.5q0 53 -21.5 84t-88 57.5t-195.5 48.5q-153 27 -240 69t-121 99.5t-34 144.5q0 147 106 236.5t289 89.5q181 0 289 -96t135 -244l-141 -12q-18 99 -91 161
t-194 62t-186.5 -51t-65.5 -139q0 -89 60.5 -131t224.5 -70q161 -26 252.5 -66.5t128.5 -97t37 -143.5q0 -145 -114.5 -226.5t-301.5 -81.5z" />
    <glyph glyph-name="uni0456" unicode="&#x456;" horiz-adv-x="468" 
d="M164 1266v182h143v-182h-143zM168 0v1085h135v-1085h-135z" />
    <glyph glyph-name="uni0457" unicode="&#x457;" horiz-adv-x="468" 
d="M0 1266v182h143v-182h-143zM326 1266v182h143v-182h-143zM168 0v1085h135v-1085h-135z" />
    <glyph glyph-name="uni0458" unicode="&#x458;" horiz-adv-x="512" 
d="M205 1266v182h143v-182h-143zM-10 -307v121h78q74 0 107.5 31.5t33.5 113.5v1126h135v-1134q0 -141 -60.5 -199.5t-201.5 -58.5h-92z" />
    <glyph glyph-name="uni0459" unicode="&#x459;" horiz-adv-x="2035" 
d="M127 0v135h90q54 0 88.5 45t42.5 123l80 782h741v-405h297q229 0 352.5 -88.5t123.5 -251.5q0 -164 -123.5 -252t-352.5 -88h-432v965h-483l-68 -668q-14 -145 -77.5 -221t-172.5 -76h-106zM1169 125h297q334 0 334 215q0 107 -85 162t-249 55h-297v-432z" />
    <glyph glyph-name="uni045A" unicode="&#x45a;" horiz-adv-x="1863" 
d="M168 0v1085h135v-405h559v405h135v-405h297q228 0 351.5 -88.5t123.5 -251.5q0 -164 -123 -252t-352 -88h-432v557h-559v-557h-135zM997 125h297q332 0 332 215q0 107 -84.5 162t-247.5 55h-297v-432z" />
    <glyph glyph-name="uni045B" unicode="&#x45b;" horiz-adv-x="1173" 
d="M168 0v1208h-148v111h148v135h135v-135h305v-111h-305v-315q37 107 127.5 162t214.5 55q173 0 267 -113.5t94 -298.5v-698h-136v649q0 340 -256 340q-145 0 -228 -91t-83 -251v-647h-135z" />
    <glyph glyph-name="uni045C" unicode="&#x45c;" horiz-adv-x="1173" 
d="M516 1233l139 254h152l-176 -254h-115zM168 0v1085h137v-532l553 532h195l-574 -542l598 -543h-198l-574 532v-532h-137z" />
    <glyph glyph-name="uni045D" unicode="&#x45d;" horiz-adv-x="1153" 
d="M520 1245l-176 254h152l139 -254h-115zM168 0v1085h135v-884l518 884h166v-1085h-135v877l-514 -877h-170z" />
    <glyph glyph-name="uni045E" unicode="&#x45e;" horiz-adv-x="1073" 
d="M532 1245q-119 0 -193 69t-83 185h96q10 -75 57 -112t123 -37t122 37t55 112h98q-9 -116 -82.5 -185t-192.5 -69zM201 -307v121h110q67 0 99.5 20.5t52.5 75.5l41 110h-49l-408 1065h148l350 -944l334 944h147l-446 -1220q-33 -92 -92 -132t-166 -40h-121z" />
    <glyph glyph-name="uni045F" unicode="&#x45f;" horiz-adv-x="1165" 
d="M514 -307v307h-346v1085h135v-964h561v964h135v-1085h-350v-307h-135z" />
    <glyph glyph-name="uni0462" unicode="&#x462;" horiz-adv-x="1505" 
d="M129 1100v135h238v219h139v-219h239v-135h-239v-232h371q239 0 373 -115.5t134 -318.5t-134 -318.5t-373 -115.5h-510v1100h-238zM506 733v-598h371q178 0 269 75.5t91 223.5q0 147 -91 223t-269 76h-371z" />
    <glyph glyph-name="uni0463" unicode="&#x463;" horiz-adv-x="1368" 
d="M367 0v1085h-240v136h240v233h135v-233h241v-136h-241v-358h297q228 0 351.5 -95t123.5 -270t-123 -268.5t-352 -93.5h-432zM502 125h297q160 0 247 61t87 176q0 117 -87 180.5t-247 63.5h-297v-481z" />
    <glyph glyph-name="uni046A" unicode="&#x46a;" horiz-adv-x="1376" 
d="M35 0l237 592q39 96 102 144t142 48h14l-354 535v135h1028v-135l-356 -535h12q167 0 242 -192l241 -592h-155l-205 512q-29 75 -63 106t-86 31h-74v-649h-142v649h-75q-52 0 -87 -31t-65 -106l-203 -512h-153zM340 1319l350 -526l350 526h-700z" />
    <glyph glyph-name="uni046B" unicode="&#x46b;" horiz-adv-x="1421" 
d="M98 0l205 430q34 73 101 112.5t147 39.5l-352 383v120h1028v-120l-355 -383q80 -2 146 -41t100 -111l207 -430h-154l-167 362q-26 55 -63.5 78t-96.5 23h-64v-463h-137v463h-65q-59 0 -96.5 -23t-63.5 -78l-166 -362h-154zM362 965l351 -379l348 379h-699z" />
    <glyph glyph-name="uni0472" unicode="&#x472;" horiz-adv-x="1497" 
d="M748 -33q-304 0 -478 203t-174 555q0 354 174 558t478 204q305 0 479 -204t174 -558q0 -353 -174 -555.5t-479 -202.5zM700 821q186 -72 244.5 -87t128.5 -9q102 9 180 61q-15 265 -148 414.5t-357 149.5q-213 0 -345 -138t-157 -383q70 33 162 39q64 6 145.5 -7
t146.5 -40zM748 104q217 0 349 139.5t154 389.5q-73 -37 -166 -47q-66 -5 -132.5 11t-239.5 83q-154 61 -291 51q-110 -13 -178 -57q12 -269 145 -419.5t359 -150.5z" />
    <glyph glyph-name="uni0473" unicode="&#x473;" horiz-adv-x="1157" 
d="M580 -25q-221 0 -353.5 154.5t-132.5 413.5t132 413t354 154q220 0 351.5 -154t131.5 -413t-131.5 -413.5t-351.5 -154.5zM541 618q157 -65 210 -78t119 -8q16 0 52 9v2q0 204 -91 321t-251 117q-137 0 -225 -87t-111 -243q24 4 35 4q137 14 262 -37zM580 104
q132 0 217.5 81t113.5 229q-5 -1 -13.5 -2t-12.5 -2q-46 -1 -74.5 2t-92.5 22t-167 60q-124 51 -258 43q-27 -3 -57 -13q5 -197 96 -308.5t248 -111.5z" />
    <glyph glyph-name="uni0474" unicode="&#x474;" horiz-adv-x="1472" 
d="M586 0l-543 1454h154l479 -1300l393 1073q38 106 114 166.5t171 60.5h76v-135h-39q-72 0 -116.5 -37.5t-78.5 -126.5l-432 -1155h-178z" />
    <glyph glyph-name="uni0475" unicode="&#x475;" horiz-adv-x="1177" 
d="M444 0l-397 1085h143l340 -944l258 717q38 110 116 168.5t186 58.5h40v-120h-22q-71 0 -118.5 -38.5t-76.5 -119.5l-297 -807h-172z" />
    <glyph glyph-name="uni0490" unicode="&#x490;" horiz-adv-x="1011" 
d="M190 0v1454h656v318h139v-453h-655v-1319h-140z" />
    <glyph glyph-name="uni0491" unicode="&#x491;" horiz-adv-x="868" 
d="M168 0v1085h516v318h137v-438h-518v-965h-135z" />
    <glyph glyph-name="uni0492" unicode="&#x492;" horiz-adv-x="1280" 
d="M295 0v604h-145v135h145v715h958v-135h-819v-580h527v-135h-527v-604h-139z" />
    <glyph glyph-name="uni0493" unicode="&#x493;" horiz-adv-x="1077" 
d="M250 0v498h-123v120h123v467h733v-120h-598v-347h354v-120h-354v-498h-135z" />
    <glyph glyph-name="uni0496" unicode="&#x496;" horiz-adv-x="1894" 
d="M35 0l647 727l-627 727h189l610 -711v711h139v-711l613 711h188l-627 -727l564 -635v25h139v-424h-139v307h-105l-633 711v-711h-139v711l-631 -711h-188z" />
    <glyph glyph-name="uni0497" unicode="&#x497;" horiz-adv-x="1697" 
d="M98 0l508 543l-487 542h182l475 -530v530h135v-530l475 530h181l-488 -542l400 -426h120v-424h-135v307h-57l-496 530v-530h-135v530l-495 -530h-183z" />
    <glyph glyph-name="uni049A" unicode="&#x49a;" horiz-adv-x="1265" 
d="M190 0v1454h140v-713l671 713h187l-684 -727l594 -612h133v-422h-139v307h-70l-692 713v-713h-140z" />
    <glyph glyph-name="uni049B" unicode="&#x49b;" horiz-adv-x="1185" 
d="M168 0v1085h137v-532l553 532h195l-574 -542l473 -430v4h135v-424h-135v307h-73l-574 532v-532h-137z" />
    <glyph glyph-name="uni04A2" unicode="&#x4a2;" horiz-adv-x="1492" 
d="M190 0v1454h140v-651h774v651h139v-1339h100v-422h-139v307h-100v668h-774v-668h-140z" />
    <glyph glyph-name="uni04A3" unicode="&#x4a3;" horiz-adv-x="1294" 
d="M168 0v1085h135v-483h559v483h135v-968h129v-424h-135v307h-129v479h-559v-479h-135z" />
    <glyph glyph-name="uni04AE" unicode="&#x4ae;" horiz-adv-x="1155" 
d="M508 0v594l-518 860h166l422 -719l421 719h166l-518 -860v-594h-139z" />
    <glyph glyph-name="uni04AF" unicode="&#x4af;" horiz-adv-x="1060" 
d="M463 0l-416 1085h143l340 -919l340 919h144l-416 -1085v-307h-135v307z" />
    <glyph glyph-name="uni04B0" unicode="&#x4b0;" horiz-adv-x="1284" 
d="M528 0v506h-297v135h269l-490 813h164l424 -719l422 719h164l-488 -813h377v-135h-405v-506h-140z" />
    <glyph glyph-name="uni04B1" unicode="&#x4b1;" horiz-adv-x="1060" 
d="M211 -61v122h229l-393 1024h143l340 -919l340 919h144l-393 -1024h231v-122h-254v-246h-135v246h-252z" />
    <glyph glyph-name="uni04B2" unicode="&#x4b2;" horiz-adv-x="1310" 
d="M35 0l493 731l-487 723h166l411 -614l410 614h164l-487 -723l432 -635v19h139v-422h-139v307h-101l-420 623l-419 -623h-162z" />
    <glyph glyph-name="uni04B3" unicode="&#x4b3;" horiz-adv-x="1216" 
d="M98 0l402 553l-383 532h157l310 -440l305 440h162l-381 -534l313 -434h135v-424h-135v307h-74l-323 463l-328 -463h-160z" />
    <glyph glyph-name="uni04B6" unicode="&#x4b6;" horiz-adv-x="1376" 
d="M967 0v713q-43 -100 -157.5 -163t-258.5 -63q-221 0 -342 122t-121 337v508h139v-508q0 -154 83.5 -238.5t240.5 -84.5q184 0 300 93t116 240v498h139v-1339h121v-422h-140v307h-120z" />
    <glyph glyph-name="uni04B7" unicode="&#x4b7;" horiz-adv-x="1304" 
d="M907 0v553q-37 -102 -132.5 -165.5t-213.5 -63.5q-182 0 -287.5 123t-105.5 335v303h135v-303q0 -152 69.5 -240.5t188.5 -88.5q153 0 249.5 93.5t96.5 246.5v292h135v-968h127v-424h-135v307h-127z" />
    <glyph glyph-name="uni04BA" unicode="&#x4ba;" horiz-adv-x="1296" 
d="M330 1454v-713q43 100 157.5 163t260.5 63q221 0 340.5 -121.5t119.5 -337.5v-508h-139v508q0 154 -83 238.5t-238 84.5q-184 0 -301 -93.5t-117 -239.5v-498h-140v1454h140z" />
    <glyph glyph-name="uni04BB" unicode="&#x4bb;" horiz-adv-x="1173" 
d="M168 0v1454h135v-561q37 107 127.5 162t214.5 55q173 0 267 -113.5t94 -298.5v-698h-136v649q0 340 -256 340q-145 0 -228 -91t-83 -251v-647h-135z" />
    <glyph glyph-name="uni04C0" unicode="&#x4c0;" horiz-adv-x="522" 
d="M190 0v1454h140v-1454h-140z" />
    <glyph glyph-name="uni04CF" unicode="&#x4cf;" horiz-adv-x="518" 
d="M190 0v1454h136v-1454h-136z" />
    <glyph glyph-name="uni04D8" unicode="&#x4d8;" horiz-adv-x="1452" 
d="M1356 727q0 -351 -177 -555.5t-464 -204.5q-126 0 -237.5 49.5t-197 141t-135 233.5t-49.5 316v75h1114q-9 262 -148.5 415t-346.5 153q-144 0 -256.5 -82t-169.5 -232l-148 15q62 199 216.5 317.5t357.5 118.5q291 0 466 -206t175 -554zM715 104q206 0 344 144t151 399
h-966q23 -258 148 -400.5t323 -142.5z" />
    <glyph glyph-name="uni04D9" unicode="&#x4d9;" horiz-adv-x="1140" 
d="M559 1110q226 0 357 -156.5t131 -410.5q0 -253 -129 -410.5t-351 -157.5q-218 0 -345.5 153.5t-127.5 410.5v43h811q-7 192 -99 295.5t-247 103.5q-117 0 -194 -56t-107 -153l-145 10q42 148 160.5 238t285.5 90zM905 461h-663q10 -171 96 -264t229 -93q141 0 230 93.5
t108 263.5z" />
    <glyph glyph-name="uni04E2" unicode="&#x4e2;" horiz-adv-x="1492" 
d="M455 1661v119h536v-119h-536zM1303 0h-140v1300l-772 -1300h-207v1454h140v-1317l780 1317h199v-1454z" />
    <glyph glyph-name="uni04E3" unicode="&#x4e3;" horiz-adv-x="1153" 
d="M309 1292v119h537v-119h-537zM168 0v1085h135v-884l518 884h166v-1085h-135v877l-514 -877h-170z" />
    <glyph glyph-name="uni04E8" unicode="&#x4e8;" horiz-adv-x="1497" 
d="M748 -33q-304 0 -478 203t-174 555q0 354 174 558t478 204q305 0 479 -204t174 -558q0 -353 -174 -555.5t-479 -202.5zM748 1350q-221 0 -354 -147.5t-150 -407.5h1009q-17 261 -150 408t-355 147zM748 104q223 0 356.5 147t148.5 408h-1009q15 -261 148 -408t356 -147z
" />
    <glyph glyph-name="uni04E9" unicode="&#x4e9;" horiz-adv-x="1161" 
d="M575 -25q-221 0 -353 154.5t-132 413.5t132 413t353 154q220 0 352 -154t132 -413t-132 -413.5t-352 -154.5zM575 981q-149 0 -238.5 -99.5t-103.5 -277.5h682q-14 177 -103.5 277t-236.5 100zM575 104q147 0 236.5 100t103.5 277h-682q14 -178 103.5 -277.5t238.5 -99.5
z" />
    <glyph glyph-name="uni04EE" unicode="&#x4ee;" horiz-adv-x="1079" 
d="M276 1661v119h537v-119h-537zM172 0v135h137q51 0 83 25t54 82l56 147h-51l-408 1065h152l352 -942l338 942h151l-467 -1278q-32 -90 -92 -133t-153 -43h-152z" />
    <glyph glyph-name="uni04EF" unicode="&#x4ef;" horiz-adv-x="1073" 
d="M268 1292v119h535v-119h-535zM201 -307v121h110q67 0 99.5 20.5t52.5 75.5l41 110h-49l-408 1065h148l350 -944l334 944h147l-446 -1220q-33 -92 -92 -132t-166 -40h-121z" />
    <glyph glyph-name="uni0E3F" unicode="&#xe3f;" horiz-adv-x="1308" 
d="M190 0v1454h353v195h125v-197q221 -9 339.5 -111.5t118.5 -285.5q0 -119 -72 -203t-192 -107q153 -20 239.5 -110t86.5 -232q0 -188 -130 -295.5t-358 -107.5h-32v-186h-125v186h-353zM330 803h213v516h-213v-516zM979 1055q0 118 -80 185.5t-231 76.5v-514
q148 6 229.5 71t81.5 181zM330 135h213v533h-213v-533zM700 668h-32v-533h32q163 0 251.5 69.5t88.5 198.5q0 125 -90 195t-250 70z" />
    <glyph glyph-name="uni1E20" unicode="&#x1e20;" horiz-adv-x="1417" 
d="M469 1661v119h537v-119h-537zM731 -33q-195 0 -340 96.5t-220 267.5t-75 394q0 224 74.5 395t221 269t345.5 98q237 0 382 -131t188 -357l-146 -10q-70 361 -424 361q-124 0 -219.5 -48t-155 -133t-90 -197.5t-30.5 -246.5q0 -281 127 -451t364 -170q199 0 319 133.5
t128 346.5h-439v131h570v-715h-107l-8 283q-51 -141 -175 -228.5t-290 -87.5z" />
    <glyph glyph-name="uni1E21" unicode="&#x1e21;" horiz-adv-x="1200" 
d="M303 1292v119h537v-119h-537zM569 -332q-172 0 -291.5 88t-144.5 230l141 8q20 -93 93 -145t202 -52q158 0 243 74.5t85 214.5v186q-43 -100 -133 -158.5t-205 -58.5q-207 0 -336 146.5t-129 382.5q0 235 127.5 380.5t331.5 145.5q122 0 216.5 -62.5t133.5 -164.5v202
h129v-999q0 -195 -123 -306.5t-340 -111.5zM565 184q151 0 241.5 108t90.5 292q3 178 -89 287.5t-243 109.5q-153 0 -241 -106.5t-88 -290.5q0 -185 88.5 -292.5t240.5 -107.5z" />
    <glyph glyph-name="Wgrave" unicode="&#x1e80;" horiz-adv-x="1914" 
d="M905 1614l-178 254h152l139 -254h-113zM471 0l-391 1454h151l328 -1270l315 1270h164l316 -1270l327 1270h152l-391 -1454h-180l-306 1212l-305 -1212h-180z" />
    <glyph glyph-name="wgrave" unicode="&#x1e81;" horiz-adv-x="1648" 
d="M774 1245l-178 254h152l139 -254h-113zM393 0l-346 1085h148l280 -944l277 944h143l276 -944l283 944h148l-347 -1085h-168l-264 881l-262 -881h-168z" />
    <glyph glyph-name="Wacute" unicode="&#x1e82;" horiz-adv-x="1914" 
d="M897 1602l139 253h152l-178 -253h-113zM471 0l-391 1454h151l328 -1270l315 1270h164l316 -1270l327 1270h152l-391 -1454h-180l-306 1212l-305 -1212h-180z" />
    <glyph glyph-name="wacute" unicode="&#x1e83;" horiz-adv-x="1648" 
d="M766 1233l139 254h152l-178 -254h-113zM393 0l-346 1085h148l280 -944l277 944h143l276 -944l283 944h148l-347 -1085h-168l-264 881l-262 -881h-168z" />
    <glyph glyph-name="Wdieresis" unicode="&#x1e84;" horiz-adv-x="1914" 
d="M723 1634v183h143v-183h-143zM1047 1634v183h143v-183h-143zM471 0l-391 1454h151l328 -1270l315 1270h164l316 -1270l327 1270h152l-391 -1454h-180l-306 1212l-305 -1212h-180z" />
    <glyph glyph-name="wdieresis" unicode="&#x1e85;" horiz-adv-x="1648" 
d="M592 1266v182h143v-182h-143zM915 1266v182h144v-182h-144zM393 0l-346 1085h148l280 -944l277 944h143l276 -944l283 944h148l-347 -1085h-168l-264 881l-262 -881h-168z" />
    <glyph glyph-name="uni1E9E" unicode="&#x1e9e;" horiz-adv-x="1390" 
d="M190 0v1047q0 195 103 301t291 106h596v-154l-471 -438q277 -6 419 -114t142 -310q0 -201 -139.5 -319.5t-368.5 -118.5h-275v135h275q164 0 262 79.5t98 219.5q0 149 -109.5 227t-314.5 78h-163v129l473 451h-422q-129 0 -192.5 -67t-63.5 -205v-1047h-140z" />
    <glyph glyph-name="uni1EBC" unicode="&#x1ebc;" horiz-adv-x="1214" 
d="M760 1632q-73 0 -139 60q-35 32 -56 43.5t-53 11.5q-87 0 -92 -129h-88q3 105 52.5 163t127.5 58q83 0 154 -65q59 -50 100 -50q39 0 59.5 30.5t26.5 105.5h90q-6 -107 -54 -167.5t-128 -60.5zM190 0v1454h895v-135h-755v-524h731v-133h-731v-527h772v-135h-912z" />
    <glyph glyph-name="uni1EBD" unicode="&#x1ebd;" horiz-adv-x="1140" 
d="M698 1260q-72 0 -139 61q-36 31 -57 42t-51 11q-88 0 -93 -127h-90q4 105 54.5 163t128.5 58q46 0 80.5 -16t72.5 -49q54 -49 98 -49q41 0 62 29.5t27 103.5h88q-6 -107 -53.5 -167t-127.5 -60zM584 -25q-228 0 -359 157t-131 411t129 410.5t352 156.5
q217 0 344.5 -153.5t127.5 -409.5v-43h-811q7 -192 99 -296t249 -104q115 0 192 56t107 153l145 -10q-42 -148 -160.5 -238t-283.5 -90zM236 625h663q-10 171 -95.5 263.5t-228.5 92.5q-142 0 -231 -93t-108 -263z" />
    <glyph glyph-name="Ygrave" unicode="&#x1ef2;" horiz-adv-x="1155" 
d="M526 1614l-176 254h152l139 -254h-115zM508 0v594l-518 860h166l422 -719l421 719h166l-518 -860v-594h-139z" />
    <glyph glyph-name="ygrave" unicode="&#x1ef3;" horiz-adv-x="1073" 
d="M492 1245l-179 254h152l139 -254h-112zM201 -307v121h110q67 0 99.5 20.5t52.5 75.5l41 110h-49l-408 1065h148l350 -944l334 944h147l-446 -1220q-33 -92 -92 -132t-166 -40h-121z" />
    <glyph glyph-name="uni1EF8" unicode="&#x1ef8;" horiz-adv-x="1155" 
d="M696 1632q-73 0 -139 60q-36 32 -56 43.5t-52 11.5q-88 0 -93 -129h-88q3 105 52.5 163t128.5 58q82 0 153 -65q59 -50 100 -50q39 0 59.5 30.5t26.5 105.5h91q-6 -107 -54.5 -167.5t-128.5 -60.5zM508 0v594l-518 860h166l422 -719l421 719h166l-518 -860v-594h-139z
" />
    <glyph glyph-name="uni1EF9" unicode="&#x1ef9;" horiz-adv-x="1073" 
d="M659 1264q-74 0 -139 59q-33 32 -54 43.5t-52 11.5q-90 0 -95 -129h-88q4 105 54.5 163t128.5 58q47 0 80.5 -16t70.5 -49q57 -49 101 -49q40 0 61 30.5t27 104.5h88q-6 -107 -54.5 -167t-128.5 -60zM201 -307v121h110q67 0 99.5 20.5t52.5 75.5l41 110h-49l-408 1065
h148l350 -944l334 944h147l-446 -1220q-33 -92 -92 -132t-166 -40h-121z" />
    <glyph glyph-name="endash" unicode="&#x2013;" horiz-adv-x="1193" 
d="M94 528v127h1006v-127h-1006z" />
    <glyph glyph-name="emdash" unicode="&#x2014;" horiz-adv-x="1841" 
d="M94 528v127h1653v-127h-1653z" />
    <glyph glyph-name="quoteleft" unicode="&#x2018;" horiz-adv-x="387" 
d="M289 1487l-88 -299h90v-199h-195v174l109 324h84z" />
    <glyph glyph-name="quoteright" unicode="&#x2019;" horiz-adv-x="387" 
d="M100 956l86 299h-88v199h195v-174l-111 -324h-82z" />
    <glyph glyph-name="quotesinglbase" unicode="&#x201a;" horiz-adv-x="385" 
d="M98 -299l88 299h-90v199h195v-174l-109 -324h-84z" />
    <glyph glyph-name="quotedblleft" unicode="&#x201c;" horiz-adv-x="688" 
d="M289 1487l-88 -299h90v-199h-195v174l109 324h84zM588 1487l-86 -299h88v-199h-195v174l111 324h82z" />
    <glyph glyph-name="quotedblright" unicode="&#x201d;" horiz-adv-x="688" 
d="M399 956l88 299h-90v199h195v-174l-109 -324h-84zM100 956l86 299h-88v199h195v-174l-111 -324h-82z" />
    <glyph glyph-name="quotedblbase" unicode="&#x201e;" horiz-adv-x="686" 
d="M399 -303l86 299h-88v199h195v-175l-111 -323h-82zM98 -303l88 299h-90v199h195v-175l-109 -323h-84z" />
    <glyph glyph-name="dagger" unicode="&#x2020;" horiz-adv-x="1173" 
d="M522 0v961h-332v124h332v369h131v-369h330v-124h-330v-961h-131z" />
    <glyph glyph-name="daggerdbl" unicode="&#x2021;" horiz-adv-x="1171" 
d="M190 356v123h330v482h-330v124h330v369h131v-369h330v-124h-330v-482h330v-123h-330v-356h-131v356h-330z" />
    <glyph glyph-name="bullet" unicode="&#x2022;" horiz-adv-x="575" 
d="M289 440q-89 0 -142 53t-53 136q0 84 52.5 136t142.5 52q88 0 140 -52t52 -136q0 -83 -52 -136t-140 -53z" />
    <glyph glyph-name="ellipsis" unicode="&#x2026;" horiz-adv-x="1140" 
d="M94 0v199h195v-199h-195zM473 0v199h195v-199h-195zM852 0v199h195v-199h-195z" />
    <glyph glyph-name="perthousand" unicode="&#x2030;" horiz-adv-x="2283" 
d="M389 772q-133 0 -214 92t-81 256q0 165 81 257.5t214 92.5t214 -92.5t81 -257.5q0 -164 -81 -256t-214 -92zM205 0l1018 1454h129l-1016 -1454h-131zM389 874q85 0 130.5 64t45.5 182q0 120 -45.5 183t-130.5 63t-130.5 -63t-45.5 -183q0 -118 45.5 -182t130.5 -64z
M1167 -16q-132 0 -213.5 92.5t-81.5 257.5q0 164 81.5 256t213.5 92q133 0 214 -92t81 -256q0 -165 -81 -257.5t-214 -92.5zM1894 -16q-133 0 -214 92.5t-81 257.5q0 164 81 256t214 92t214 -92t81 -256q0 -165 -81 -257.5t-214 -92.5zM1167 88q86 0 131 63t45 183
q0 119 -45 182.5t-131 63.5q-85 0 -130.5 -64t-45.5 -182q0 -120 45.5 -183t130.5 -63zM1894 88q85 0 131 63.5t46 182.5q0 118 -46 182t-131 64t-130.5 -64t-45.5 -182q0 -120 45.5 -183t130.5 -63z" />
    <glyph glyph-name="minute" unicode="&#x2032;" horiz-adv-x="393" 
d="M82 981l92 473h137l-106 -473h-123z" />
    <glyph glyph-name="second" unicode="&#x2033;" horiz-adv-x="616" 
d="M82 981l92 473h137l-106 -473h-123zM305 981l92 473h138l-107 -473h-123z" />
    <glyph glyph-name="guilsinglleft" unicode="&#x2039;" horiz-adv-x="655" 
d="M561 156h-168l-299 348v123l299 348h168l-352 -410z" />
    <glyph glyph-name="guilsinglright" unicode="&#x203a;" horiz-adv-x="655" 
d="M94 156l352 409l-352 410h168l299 -348v-123l-299 -348h-168z" />
    <glyph glyph-name="fraction" unicode="&#x2044;" horiz-adv-x="327" 
d="M-410 0l1016 1454h131l-1018 -1454h-129z" />
    <glyph glyph-name="uni2070" unicode="&#x2070;" horiz-adv-x="790" 
d="M395 645q-143 0 -228 111.5t-85 302.5q0 192 84 301.5t229 109.5t229.5 -110t84.5 -301t-85.5 -302.5t-228.5 -111.5zM193 1059q0 -109 32 -187l283 459q-45 39 -113 39q-98 0 -150 -79.5t-52 -231.5zM395 745q97 0 150 82t53 232q0 108 -33 192l-284 -460
q46 -46 114 -46z" />
    <glyph glyph-name="uni2074" unicode="&#x2074;" horiz-adv-x="663" 
d="M397 662v188h-377v84l381 520h105v-508h117v-96h-117v-188h-109zM137 946h260v350z" />
    <glyph glyph-name="uni2075" unicode="&#x2075;" horiz-adv-x="700" 
d="M352 645q-118 0 -188.5 55.5t-81.5 153.5l108 6q22 -117 164 -117q80 0 128 47t48 128q0 79 -41.5 126.5t-117.5 47.5q-112 0 -172 -99h-105l58 461h436v-98h-346l-29 -246q24 35 70 56.5t104 21.5q120 0 186 -74t66 -196q0 -125 -78.5 -199t-208.5 -74z" />
    <glyph glyph-name="uni2076" unicode="&#x2076;" horiz-adv-x="743" 
d="M373 645q-135 0 -213 95t-78 274q0 132 32.5 232.5t105 162t177.5 61.5q110 0 170.5 -47.5t85.5 -146.5l-102 -12q-15 57 -51.5 83.5t-102.5 26.5q-91 0 -144.5 -74t-59.5 -208q26 49 77.5 78.5t118.5 29.5q121 0 197 -72t76 -202q0 -129 -80 -205t-209 -76zM375 741
q83 0 131.5 51t48.5 136q0 80 -46.5 127t-129.5 47q-79 0 -130.5 -48.5t-51.5 -127.5q-2 -83 47 -134t131 -51z" />
    <glyph glyph-name="uni2077" unicode="&#x2077;" horiz-adv-x="604" 
d="M195 659q0 182 65 362.5t182 334.5h-401v98h522v-80q-258 -339 -258 -715h-110z" />
    <glyph glyph-name="uni2078" unicode="&#x2078;" horiz-adv-x="710" 
d="M356 645q-140 0 -217.5 58.5t-77.5 168.5q0 78 44.5 134.5t121.5 85.5q-127 42 -127 172q0 99 65 152.5t191 53.5t190 -53t64 -153q0 -131 -127 -172q78 -30 122 -86.5t44 -133.5q0 -109 -77 -168t-216 -59zM356 1137q68 0 106 31t38 92q0 112 -144 112q-145 0 -145 -112
q0 -62 38 -92.5t107 -30.5zM356 743q87 0 135 34.5t48 103.5t-50 113t-133 44t-133.5 -44t-50.5 -113t48 -103.5t136 -34.5z" />
    <glyph glyph-name="uni2079" unicode="&#x2079;" horiz-adv-x="743" 
d="M371 1470q135 0 213 -94.5t78 -273.5q0 -132 -32.5 -232.5t-104.5 -162.5t-177 -62q-111 0 -172 48t-86 147l105 12q14 -58 50 -84.5t103 -26.5q90 0 144.5 75t58.5 208q-26 -49 -77.5 -79t-119.5 -30q-121 0 -196.5 72.5t-75.5 202.5q0 129 80.5 204.5t208.5 75.5z
M369 1374q-83 0 -131 -50.5t-48 -135.5q0 -80 46.5 -127t130.5 -47q78 0 129.5 48.5t52.5 127.5q0 84 -48.5 134t-131.5 50z" />
    <glyph glyph-name="uni2080" unicode="&#x2080;" horiz-adv-x="790" 
d="M395 -221q-143 0 -228 111.5t-85 302.5q0 192 84 301.5t229 109.5t229.5 -110t84.5 -301t-85.5 -302.5t-228.5 -111.5zM193 193q0 -109 32 -187l283 459q-45 39 -113 39q-98 0 -150 -79.5t-52 -231.5zM395 -121q97 0 150 82t53 232q0 108 -33 192l-284 -461
q45 -45 114 -45z" />
    <glyph glyph-name="uni2081" unicode="&#x2081;" horiz-adv-x="471" 
d="M240 -205v543l-199 -2v84h41q90 0 137 44t47 126h82v-795h-108z" />
    <glyph glyph-name="uni2082" unicode="&#x2082;" horiz-adv-x="710" 
d="M82 -205q0 135 43 213t172 150l94 51q75 41 100 75t25 93q0 60 -41 94.5t-106 34.5q-79 0 -121.5 -40.5t-54.5 -125.5l-109 6q12 121 86 189.5t199 68.5q118 0 188 -62t70 -165q0 -88 -46.5 -143.5t-150.5 -110.5l-76 -41q-150 -81 -147 -188h418v-99h-543z" />
    <glyph glyph-name="uni2083" unicode="&#x2083;" horiz-adv-x="675" 
d="M330 -221q-275 0 -289 223l109 6q5 -64 47 -97.5t133 -33.5q86 0 131 38t45 105q0 66 -45.5 106t-134.5 40h-54v96h54q64 0 103.5 30.5t39.5 92.5q0 56 -36.5 87.5t-110.5 31.5q-71 0 -109.5 -31t-44.5 -84l-109 8q12 93 81 150t182 57q125 0 191.5 -57t66.5 -154
q0 -130 -142 -174q176 -42 176 -201q0 -109 -78.5 -174t-205.5 -65z" />
    <glyph glyph-name="uni2084" unicode="&#x2084;" horiz-adv-x="663" 
d="M397 -205v189h-377v84l381 520h105v-508h117v-96h-117v-189h-109zM137 80h260v350z" />
    <glyph glyph-name="uni2085" unicode="&#x2085;" horiz-adv-x="700" 
d="M352 -221q-118 0 -188.5 55.5t-81.5 153.5l108 6q22 -117 164 -117q80 0 128 46.5t48 127.5q0 79 -41.5 126.5t-117.5 47.5q-113 0 -172 -98h-105l58 461h436v-99h-346l-29 -245q24 35 70 56.5t104 21.5q120 0 186 -74.5t66 -196.5q0 -125 -78.5 -198.5t-208.5 -73.5z
" />
    <glyph glyph-name="uni2086" unicode="&#x2086;" horiz-adv-x="743" 
d="M373 -221q-135 0 -213 94.5t-78 273.5q0 132 32.5 232.5t105 162.5t177.5 62q110 0 170.5 -47.5t85.5 -146.5l-102 -13q-15 57 -51.5 84t-102.5 27q-91 0 -144.5 -74.5t-59.5 -208.5q26 49 77.5 79t118.5 30q121 0 197 -72.5t76 -202.5q0 -129 -80 -204.5t-209 -75.5z
M375 -125q83 0 131.5 50.5t48.5 135.5q0 80 -47 127.5t-129 47.5q-79 0 -130.5 -49t-51.5 -128q-1 -83 47.5 -133.5t130.5 -50.5z" />
    <glyph glyph-name="uni2087" unicode="&#x2087;" horiz-adv-x="604" 
d="M195 -205q0 181 65.5 362t181.5 335h-401v98h522v-80q-258 -339 -258 -715h-110z" />
    <glyph glyph-name="uni2088" unicode="&#x2088;" horiz-adv-x="710" 
d="M356 -221q-140 0 -217.5 58.5t-77.5 168.5q0 78 44.5 134t121.5 85q-127 42 -127 172q0 99 65 153t191 54t190 -53.5t64 -153.5q0 -131 -127 -172q78 -30 122 -86t44 -133q0 -109 -77 -168t-216 -59zM356 270q68 0 106 31t38 92q0 113 -144 113q-145 0 -145 -113
q0 -62 38 -92.5t107 -30.5zM356 -123q87 0 135 34t48 103t-50 113.5t-133 44.5t-133.5 -44.5t-50.5 -113.5q0 -137 184 -137z" />
    <glyph glyph-name="uni2089" unicode="&#x2089;" horiz-adv-x="743" 
d="M371 604q135 0 213 -94.5t78 -273.5q0 -132 -32.5 -232.5t-104.5 -162.5t-177 -62q-111 0 -172 47.5t-86 146.5l105 13q14 -58 50 -84.5t103 -26.5q90 0 144.5 75t58.5 208q-26 -49 -77.5 -79t-119.5 -30q-121 0 -196.5 72.5t-75.5 202.5q0 129 80.5 204.5t208.5 75.5z
M369 508q-83 0 -131 -50.5t-48 -135.5q0 -81 46.5 -128t130.5 -47q77 0 129 49t53 128q0 84 -48.5 134t-131.5 50z" />
    <glyph glyph-name="uni20AA" unicode="&#x20aa;" horiz-adv-x="1552" 
d="M535 0v1137h139v-1004h403q66 0 105 45t39 119v1157h139v-1147q0 -140 -78.5 -223.5t-208.5 -83.5h-538zM190 0v1454h539q130 0 208.5 -83.5t78.5 -223.5v-830h-139v840q0 74 -39 119t-105 45h-403v-1321h-140z" />
    <glyph glyph-name="Euro" unicode="&#x20ac;" horiz-adv-x="1492" 
d="M117 502v121h182q-4 66 -4 102q0 30 4 92h-182v121h198q50 249 204 399t374 150q189 0 324 -126.5t180 -334.5l-146 -10q-36 153 -131 243.5t-227 90.5q-165 0 -277 -111t-153 -301h528l-18 -121h-529q-4 -62 -4 -92q0 -53 6 -102h502l-18 -121h-465q44 -184 155.5 -291
t272.5 -107q143 0 241 100t126 267l149 -10q-38 -223 -172 -358.5t-344 -135.5q-216 0 -370 146.5t-206 388.5h-200z" />
    <glyph glyph-name="uni20B4" unicode="&#x20b4;" horiz-adv-x="1355" 
d="M117 809v123h819q65 59 65 155q0 119 -78 191t-227 72q-241 0 -338 -275l-151 19q50 188 173.5 290.5t309.5 102.5q214 0 335.5 -109.5t121.5 -290.5q0 -97 -55 -155h147v-123h-1122zM664 -25q-204 0 -328.5 104t-124.5 273q0 92 37 148h-131v121h1122v-121h-840
q-43 -59 -43 -140q0 -107 82 -177t215 -70t230 64t135 179l160 -14q-51 -174 -186 -270.5t-328 -96.5z" />
    <glyph glyph-name="uni20B9" unicode="&#x20b9;" horiz-adv-x="1363" 
d="M813 0l-623 578v147h379q149 0 240 58t113 171h-732v125h732q-20 113 -113 176.5t-240 63.5h-379v135h1051v-125h-319q122 -96 143 -250h176v-125h-176q-22 -170 -153.5 -267t-342.5 -97h-198l641 -590h-199z" />
    <glyph glyph-name="uni20BD" unicode="&#x20bd;" horiz-adv-x="1433" 
d="M82 264v123h233v1067h510q239 0 373.5 -115.5t134.5 -318.5t-134.5 -318.5t-373.5 -115.5h-370v-199h387v-123h-387v-264h-140v264h-233zM455 721h370q178 0 269.5 76t91.5 223q0 148 -91.5 223.5t-269.5 75.5h-370v-598z" />
    <glyph glyph-name="uni2107" unicode="&#x2107;" horiz-adv-x="1200" 
d="M604 -33q-227 0 -371.5 121t-144.5 311q0 139 80.5 241t226.5 146q-124 39 -191 121.5t-67 200.5q0 167 129.5 273t333.5 106q131 0 259.5 -57.5t203.5 -149.5l-92 -111q-68 83 -170.5 135t-200.5 52q-145 0 -232 -67.5t-87 -180.5q0 -88 48 -151t119.5 -90.5
t155.5 -26.5l113 2v-129l-113 2q-166 2 -269.5 -82.5t-103.5 -220.5q0 -141 103.5 -227.5t269.5 -86.5q110 0 224.5 56t191.5 149l90 -113q-86 -101 -224.5 -162t-281.5 -61z" />
    <glyph glyph-name="uni2116" unicode="&#x2116;" horiz-adv-x="2312" 
d="M190 0v1454h199l780 -1317v1317h140v-1454h-207l-772 1300v-1300h-140zM1792 326q-153 0 -242.5 96.5t-89.5 261.5q0 163 89.5 260.5t242.5 97.5q152 0 241 -97.5t89 -260.5q0 -164 -89 -261t-241 -97zM1792 432q93 0 145 67t52 185t-52 186t-145 68q-94 0 -146.5 -68.5
t-52.5 -185.5q0 -118 52 -185t147 -67zM1511 0v121h562v-121h-562z" />
    <glyph glyph-name="uni2117" unicode="&#x2117;" horiz-adv-x="1302" 
d="M653 373q-153 0 -281 74.5t-202 203t-74 279.5q0 152 74 280t202 202.5t281 74.5q113 0 216 -44t177 -118.5t118 -177.5t44 -217q0 -113 -44 -216t-118 -178t-177 -119t-216 -44zM653 467q129 0 235 63t165 169t59 231t-59 230.5t-165 168t-235 62.5q-197 0 -330 -135
t-133 -326t133 -327t330 -136zM471 618v619h205q114 0 179 -49t65 -137q0 -89 -64 -136t-180 -47h-109v-250h-96zM567 948h125q65 0 101 28t36 79q0 47 -36.5 74.5t-100.5 27.5h-125v-209z" />
    <glyph glyph-name="trademark" unicode="&#x2122;" horiz-adv-x="1822" 
d="M879 735v719h147l229 -614l232 614h145v-719h-100v582l-213 -582h-127l-215 584v-584h-98zM430 735v623h-240v96h580v-96h-238v-623h-102z" />
    <glyph glyph-name="uni2153" unicode="&#x2153;" horiz-adv-x="1556" 
d="M240 662v542l-199 -2v84h41q90 0 137 44t47 126h82v-794h-108zM143 0l1016 1454h131l-1018 -1454h-129zM1210 -16q-147 0 -214.5 58.5t-73.5 164.5l108 6q5 -64 47 -97.5t133 -33.5q85 0 130.5 38t45.5 105q0 66 -46 106t-136 40h-53v96h53q65 0 105.5 30.5t40.5 92.5
q0 56 -37 87.5t-111 31.5q-71 0 -109.5 -31t-43.5 -84l-111 8q12 93 81.5 150t182.5 57q125 0 190.5 -56.5t65.5 -154.5q0 -132 -141 -174q178 -42 178 -201q0 -109 -79 -174t-206 -65z" />
    <glyph glyph-name="uni2154" unicode="&#x2154;" horiz-adv-x="1714" 
d="M82 662q0 135 43 212.5t172 149.5l94 51q75 41 100 75t25 93q0 60 -41 94.5t-106 34.5q-79 0 -121.5 -40.5t-54.5 -125.5l-109 6q12 121 86 189.5t199 68.5q118 0 188 -62t70 -165q0 -88 -46.5 -143.5t-150.5 -110.5l-76 -41q-150 -81 -147 -188h418v-98h-543zM301 0
l1016 1454h129l-1016 -1454h-129zM1366 -16q-275 0 -289 223l109 6q6 -64 47.5 -97.5t132.5 -33.5q86 0 131 38t45 105q0 66 -45.5 106t-134.5 40h-53v96h53q65 0 105 30.5t40 92.5q0 56 -37 87.5t-110 31.5q-71 0 -110.5 -31t-45.5 -84l-108 8q12 93 81.5 150t182.5 57
q125 0 190.5 -56.5t65.5 -154.5q0 -132 -141 -174q178 -42 178 -201q0 -109 -79.5 -174t-207.5 -65z" />
    <glyph glyph-name="uni2155" unicode="&#x2155;" horiz-adv-x="1579" 
d="M240 662v542l-199 -2v84h41q90 0 137 44t47 126h82v-794h-108zM143 0l1016 1454h131l-1018 -1454h-129zM1233 -16q-118 0 -189.5 56t-80.5 153l108 6q22 -117 164 -117q80 0 128 46.5t48 127.5q0 78 -42.5 126t-117.5 48q-116 0 -172 -98h-104l57 461h434v-99h-344
l-28 -245q24 35 69.5 56t102.5 21q120 0 186 -74t66 -196q0 -125 -77.5 -198.5t-207.5 -73.5z" />
    <glyph glyph-name="oneeighth" unicode="&#x215b;" horiz-adv-x="1591" 
d="M240 662v542l-199 -2v84h41q90 0 137 44t47 126h82v-794h-108zM143 0l1016 1454h131l-1018 -1454h-129zM1235 -16q-139 0 -216 59t-77 168q0 78 44.5 134t121.5 85q-127 41 -127 172q0 100 64 153.5t190 53.5q127 0 191.5 -53.5t64.5 -153.5q0 -130 -127 -172
q77 -31 121.5 -86.5t44.5 -132.5q0 -110 -77.5 -168.5t-217.5 -58.5zM1235 475q69 0 107 30.5t38 92.5q0 113 -145 113q-143 0 -143 -113q0 -62 37.5 -92.5t105.5 -30.5zM1235 82q184 0 184 137q0 69 -50.5 113.5t-133.5 44.5t-132.5 -44.5t-49.5 -113.5t47.5 -103
t134.5 -34z" />
    <glyph glyph-name="threeeighths" unicode="&#x215c;" horiz-adv-x="1714" 
d="M330 645q-275 0 -289 223l109 6q5 -64 47 -97.5t133 -33.5q86 0 131 38.5t45 105.5q0 66 -45.5 105.5t-134.5 39.5h-54v96h54q64 0 103.5 30.5t39.5 92.5q0 56 -36.5 87.5t-110.5 31.5q-71 0 -109.5 -31t-44.5 -84l-109 9q12 93 81 149.5t182 56.5q125 0 191.5 -56.5
t66.5 -153.5q0 -131 -142 -175q176 -42 176 -200q0 -109 -78.5 -174.5t-205.5 -65.5zM266 0l1018 1454h129l-1016 -1454h-131zM1360 -16q-140 0 -217.5 58.5t-77.5 168.5q0 78 44.5 134t121.5 85q-127 42 -127 172q0 99 65 153t191 54t190 -53.5t64 -153.5q0 -131 -127 -172
q78 -30 122 -86t44 -133q0 -109 -77 -168t-216 -59zM1360 475q68 0 105.5 30.5t37.5 92.5q0 113 -143 113q-146 0 -146 -113q0 -62 38.5 -92.5t107.5 -30.5zM1360 82q87 0 134.5 34t47.5 103t-49.5 113.5t-132.5 44.5t-133.5 -44.5t-50.5 -113.5q0 -137 184 -137z" />
    <glyph glyph-name="fiveeighths" unicode="&#x215d;" horiz-adv-x="1738" 
d="M352 645q-118 0 -188.5 55.5t-81.5 153.5l108 6q22 -117 164 -117q80 0 128 47t48 128q0 79 -41.5 126.5t-117.5 47.5q-112 0 -172 -99h-105l58 461h436v-98h-346l-29 -246q24 35 70 56.5t104 21.5q120 0 186 -74t66 -196q0 -125 -78.5 -199t-208.5 -74zM291 0l1016 1454
h129l-1016 -1454h-129zM1382 -16q-140 0 -217.5 58.5t-77.5 168.5q0 78 44.5 134.5t123.5 84.5q-129 41 -129 172q0 99 65 153t191 54q127 0 191.5 -53.5t64.5 -153.5q0 -131 -129 -172q78 -30 123 -86t45 -133q0 -110 -77.5 -168.5t-217.5 -58.5zM1382 475q69 0 107.5 30.5
t38.5 92.5q0 113 -146 113q-145 0 -145 -113q0 -62 38 -92.5t107 -30.5zM1382 82q185 0 185 137q0 69 -51 113.5t-134 44.5t-133.5 -44.5t-50.5 -113.5q0 -137 184 -137z" />
    <glyph glyph-name="seveneighths" unicode="&#x215e;" horiz-adv-x="1581" 
d="M195 659q0 182 65 362.5t182 334.5h-401v98h522v-80q-258 -339 -258 -715h-110zM133 0l1018 1454h129l-1016 -1454h-131zM1227 -16q-140 0 -217.5 58.5t-77.5 168.5q0 78 44.5 134t121.5 85q-127 42 -127 172q0 99 65 153t191 54t190 -53.5t64 -153.5q0 -131 -127 -172
q78 -30 122 -86t44 -133q0 -109 -77 -168t-216 -59zM1227 475q68 0 105.5 30.5t37.5 92.5q0 113 -143 113q-146 0 -146 -113q0 -62 38.5 -92.5t107.5 -30.5zM1227 82q87 0 134.5 34t47.5 103t-49.5 113.5t-132.5 44.5t-134 -44.5t-51 -113.5q0 -137 185 -137z" />
    <glyph glyph-name="arrowleft" unicode="&#x2190;" horiz-adv-x="1644" 
d="M915 94h-180l-639 639l637 639h180l-571 -573h1208v-133h-1204z" />
    <glyph glyph-name="arrowup" unicode="&#x2191;" horiz-adv-x="1468" 
d="M668 0v1208l-572 -571v180l639 637l639 -639v-180l-573 569v-1204h-133z" />
    <glyph glyph-name="arrowright" unicode="&#x2192;" horiz-adv-x="1644" 
d="M729 94l571 572h-1204v133h1209l-574 573h182l637 -639l-639 -639h-182z" />
    <glyph glyph-name="arrowdown" unicode="&#x2193;" horiz-adv-x="1468" 
d="M1374 819v-180l-639 -639l-639 637v180l572 -571v1208h133v-1204z" />
    <glyph glyph-name="arrowboth" unicode="&#x2194;" horiz-adv-x="2097" 
d="M915 94h-180l-639 639l637 639h180l-571 -573h1413l-571 573h180l637 -639l-639 -639h-180l569 572h-1405z" />
    <glyph glyph-name="arrowupdn" unicode="&#x2195;" horiz-adv-x="1468" 
d="M96 492l572 -572v1407l-572 -569v180l639 639l639 -637v-180l-573 571v-1415l573 573v-182l-639 -637l-639 639v183z" />
    <glyph glyph-name="uni2196" unicode="&#x2196;" horiz-adv-x="1265" 
d="M223 430l-127 127v903l901 2l129 -127h-809l854 -856l-94 -94l-852 852z" />
    <glyph glyph-name="uni2197" unicode="&#x2197;" horiz-adv-x="1265" 
d="M96 479l854 856h-809l127 127l903 -2v-903l-129 -127v807l-852 -852z" />
    <glyph glyph-name="uni2198" unicode="&#x2198;" horiz-adv-x="1267" 
d="M139 135l809 2l-852 852l94 94l854 -854v809l130 -127l-3 -903h-903z" />
    <glyph glyph-name="uni2199" unicode="&#x2199;" horiz-adv-x="1267" 
d="M1128 135l-129 -127h-903v903l127 127v-809l854 854l94 -94l-849 -852z" />
    <glyph glyph-name="uni219D" unicode="&#x219d;" horiz-adv-x="1292" 
d="M750 377q-79 0 -145.5 56t-88.5 169q-19 111 -45.5 158t-85.5 47q-45 0 -86.5 -36t-65.5 -101h-137q27 116 112.5 191t182.5 75q93 0 154.5 -67t75.5 -177q13 -94 43 -140t88 -46q41 0 83.5 35t77.5 94l-163 96l407 189l39 -451l-172 100q-57 -92 -128.5 -142t-145.5 -50
z" />
    <glyph glyph-name="uni21A9" unicode="&#x21a9;" horiz-adv-x="1335" 
d="M633 221h-174l-363 363l359 362h176l-299 -299h463q132 0 223.5 83t91.5 202q0 127 -91.5 214t-223.5 87h-605v129h605q187 0 315.5 -124t128.5 -306q0 -173 -128.5 -292.5t-315.5 -119.5h-461z" />
    <glyph glyph-name="uni21AA" unicode="&#x21aa;" horiz-adv-x="1335" 
d="M702 221l297 299h-460q-186 0 -314.5 119.5t-128.5 292.5q0 181 128.5 305.5t314.5 124.5h604v-129h-604q-132 0 -224 -87t-92 -214q0 -119 92 -202t224 -83h465l-299 299h174l360 -362l-362 -363h-175z" />
    <glyph glyph-name="uni21B0" unicode="&#x21b0;" horiz-adv-x="1341" 
d="M467 608l-371 303l369 303v-237h782v-977h-133v846h-649z" />
    <glyph glyph-name="uni21B1" unicode="&#x21b1;" horiz-adv-x="1341" 
d="M227 0h-131v977h781l2 237l368 -303l-370 -303v238h-650v-846z" />
    <glyph glyph-name="uni21B3" unicode="&#x21b3;" horiz-adv-x="1341" 
d="M877 846l370 -303l-368 -303l-2 237h-781v977h131v-846h650v238z" />
    <glyph glyph-name="uni21B4" unicode="&#x21b4;" horiz-adv-x="1347" 
d="M948 0l-305 371h242v942h-789v127h916v-1071h239z" />
    <glyph glyph-name="carriagereturn" unicode="&#x21b5;" horiz-adv-x="1341" 
d="M467 846l-2 -238h649v846h133v-977h-782v-237l-369 303z" />
    <glyph glyph-name="uni21E4" unicode="&#x21e4;" horiz-adv-x="1353" 
d="M96 326v798h127v-798h-127zM674 422l-371 305l369 303v-239h585v-129h-585z" />
    <glyph glyph-name="uni21E5" unicode="&#x21e5;" horiz-adv-x="1353" 
d="M1257 326h-127v798h127v-798zM680 422v240h-584v129h586v239l367 -303z" />
    <glyph glyph-name="uni21E7" unicode="&#x21e7;" horiz-adv-x="1550" 
d="M442 0v743h-399l733 732l729 -732h-395v-743h-668zM571 129h410v741h223l-428 428l-430 -428h225v-741z" />
    <glyph glyph-name="partialdiff" unicode="&#x2202;" horiz-adv-x="1073" 
d="M516 -23q-196 0 -309 132.5t-113 357.5q0 224 118 356.5t316 132.5q177 0 310 -133q-52 221 -202 353.5t-425 185.5l33 125q168 -33 295.5 -95t209.5 -144.5t134 -192.5t73 -229t21 -263q0 -276 -126.5 -431t-334.5 -155zM516 92q158 0 245 105.5t87 330.5
q0 144 -84.5 229t-226.5 85q-148 0 -231 -99t-83 -276q0 -178 76 -276.5t217 -98.5z" />
    <glyph glyph-name="uni2206" unicode="&#x2206;" horiz-adv-x="1320" 
d="M43 0v127l526 1327h185l524 -1327v-127h-1235zM178 127h965l-481 1210z" />
    <glyph glyph-name="product" unicode="&#x220f;" horiz-adv-x="1210" 
d="M274 -307v1634h-247v127h1159v-127h-240v-1634h-129v1634h-416v-1634h-127z" />
    <glyph glyph-name="summation" unicode="&#x2211;" horiz-adv-x="1081" 
d="M59 0v135l390 592l-390 592v135h963v-135h-811l391 -592l-391 -592h811v-135h-963z" />
    <glyph glyph-name="minus" unicode="&#x2212;" horiz-adv-x="1064" 
d="M82 526v127h901v-127h-901z" />
    <glyph glyph-name="radical" unicode="&#x221a;" horiz-adv-x="1333" 
d="M307 -307l-260 1016h129l213 -830l338 1575h561v-121h-457l-354 -1640h-170z" />
    <glyph glyph-name="infinity" unicode="&#x221e;" horiz-adv-x="1693" 
d="M436 195q-151 0 -252.5 97.5t-101.5 262.5q0 162 102 261t252 99q249 0 412 -266q84 134 182.5 200t226.5 66q150 0 252.5 -103.5t102.5 -256.5q0 -155 -99 -257.5t-256 -102.5q-127 0 -225.5 63t-183.5 205q-71 -130 -179 -199t-233 -69zM453 319q95 0 179.5 59.5
t151.5 176.5q-144 233 -331 233q-101 1 -164.5 -64t-63.5 -169q0 -111 63 -173.5t165 -62.5zM1247 319q98 2 159.5 67t61.5 169t-62 167.5t-165 65.5q-183 0 -332 -235q80 -122 161 -178.5t177 -55.5z" />
    <glyph glyph-name="integral" unicode="&#x222b;" horiz-adv-x="755" 
d="M86 -307h-86l14 121h88q64 0 99.5 33t44.5 112l133 1221q15 137 89.5 205.5t201.5 68.5h86l-15 -121h-86q-62 0 -99 -37.5t-44 -107.5l-135 -1221q-15 -139 -86.5 -206.5t-204.5 -67.5z" />
    <glyph glyph-name="approxequal" unicode="&#x2248;" horiz-adv-x="1042" 
d="M707 721q-66 0 -109.5 26t-103.5 97q-60 72 -88 92t-68 20q-59 0 -92.5 -57.5t-34.5 -161.5h-129q3 157 71.5 250.5t180.5 93.5q68 0 114 -28.5t101 -96.5t85.5 -89t70.5 -21q58 0 91 57t35 160h130q-1 -156 -70.5 -249t-183.5 -93zM707 283q-65 0 -108.5 26.5
t-104.5 98.5q-60 70 -88 90t-68 20q-59 0 -92.5 -57t-34.5 -160h-129q3 156 71.5 250t180.5 94q69 0 115 -29t100 -98q55 -67 85.5 -87.5t70.5 -20.5q58 0 91 57t35 160h130q-1 -157 -70.5 -250.5t-183.5 -93.5z" />
    <glyph glyph-name="notequal" unicode="&#x2260;" horiz-adv-x="1091" 
d="M328 63l80 269h-326v127h364l89 295h-453v127h491l74 247h117l-74 -247h320v-127h-359l-88 -295h447v-127h-486l-80 -269h-116z" />
    <glyph glyph-name="lessequal" unicode="&#x2264;" horiz-adv-x="1107" 
d="M1006 217l-924 361v167l924 361v-135l-811 -309l811 -310v-135zM1006 0h-924v121h924v-121z" />
    <glyph glyph-name="greaterequal" unicode="&#x2265;" horiz-adv-x="1107" 
d="M102 217v135l811 310l-811 309v135l924 -361v-167zM102 0v121h924v-121h-924z" />
    <glyph glyph-name="uni23CE" unicode="&#x23ce;" horiz-adv-x="1720" 
d="M842 -129l-746 747l746 746v-463h219v553h565v-1118h-784v-465zM713 174v291h784v860h-307v-553h-477v289l-443 -443z" />
    <glyph glyph-name="uni240B" unicode="&#x240b;" horiz-adv-x="1228" 
d="M313 614l-207 676h97l166 -563l166 563h96l-207 -676h-111zM829 145v588h-200v88h493v-88h-200v-588h-93z" />
    <glyph glyph-name="uni240C" unicode="&#x240c;" horiz-adv-x="1228" 
d="M168 614v676h412v-88h-322v-211h303v-86h-303v-291h-90zM680 145v676h412v-88h-324v-211h305v-86h-305v-291h-88z" />
    <glyph glyph-name="uni2460" unicode="&#x2460;" horiz-adv-x="1701" 
d="M850 -25q-154 0 -294 60t-241 161t-161 241.5t-60 295.5q0 153 60 292.5t161 240.5t241 161t294 60t294.5 -60t242 -161t161.5 -240.5t60 -292.5q0 -155 -60 -295.5t-161.5 -241.5t-242 -161t-294.5 -60zM850 96q174 0 320 85t230.5 231.5t84.5 320.5q0 173 -84.5 319
t-230.5 230t-320 84t-320 -84t-230.5 -230t-84.5 -319q0 -174 84.5 -320.5t230.5 -231.5t320 -85zM831 328v542l-198 -2v84h41q90 0 137 44t47 126h82v-794h-109z" />
    <glyph glyph-name="uni2461" unicode="&#x2461;" horiz-adv-x="1701" 
d="M850 -25q-154 0 -294 60t-241 161t-161 241.5t-60 295.5q0 153 60 292.5t161 240.5t241 161t294 60t294.5 -60t242 -161t161.5 -240.5t60 -292.5q0 -155 -60 -295.5t-161.5 -241.5t-242 -161t-294.5 -60zM850 96q174 0 320 85t230.5 231.5t84.5 320.5q0 173 -84.5 319
t-230.5 230t-320 84t-320 -84t-230.5 -230t-84.5 -319q0 -174 84.5 -320.5t230.5 -231.5t320 -85zM582 328q0 135 43 212.5t172 149.5l94 51q75 41 100 75t25 93q0 60 -41.5 94.5t-106.5 34.5q-79 0 -121.5 -40.5t-54.5 -125.5l-108 7q12 121 85.5 189.5t198.5 68.5
q118 0 188 -62.5t70 -165.5q0 -88 -46.5 -143.5t-149.5 -110.5l-76 -41q-150 -81 -147 -188h417v-98h-542z" />
    <glyph glyph-name="uni2462" unicode="&#x2462;" horiz-adv-x="1701" 
d="M850 -25q-154 0 -294 60t-241 161t-161 241.5t-60 295.5q0 153 60 292.5t161 240.5t241 161t294 60t294.5 -60t242 -161t161.5 -240.5t60 -292.5q0 -155 -60 -295.5t-161.5 -241.5t-242 -161t-294.5 -60zM850 96q174 0 320 85t230.5 231.5t84.5 320.5q0 173 -84.5 319
t-230.5 230t-320 84t-320 -84t-230.5 -230t-84.5 -319q0 -174 84.5 -320.5t230.5 -231.5t320 -85zM856 311q-275 0 -289 224l109 6q5 -64 47 -97.5t133 -33.5q86 0 131 38t45 105q0 66 -45.5 105.5t-134.5 39.5h-53v97h53q64 0 103.5 30.5t39.5 92.5q0 56 -36.5 87
t-110.5 31q-71 0 -109.5 -30.5t-44.5 -83.5l-108 8q12 93 80.5 150t181.5 57q125 0 191.5 -57t66.5 -154q0 -131 -141 -174q176 -42 176 -201q0 -109 -79 -174.5t-206 -65.5z" />
    <glyph glyph-name="uni2463" unicode="&#x2463;" horiz-adv-x="1701" 
d="M850 -25q-154 0 -294 60t-241 161t-161 241.5t-60 295.5q0 153 60 292.5t161 240.5t241 161t294 60t294.5 -60t242 -161t161.5 -240.5t60 -292.5q0 -155 -60 -295.5t-161.5 -241.5t-242 -161t-294.5 -60zM850 96q174 0 320 85t230.5 231.5t84.5 320.5q0 173 -84.5 319
t-230.5 230t-320 84t-320 -84t-230.5 -230t-84.5 -319q0 -174 84.5 -320.5t230.5 -231.5t320 -85zM893 328v188h-375v84l381 520h105v-508h116v-96h-116v-188h-111zM635 612h258v351z" />
    <glyph glyph-name="uni2464" unicode="&#x2464;" horiz-adv-x="1701" 
d="M850 -25q-154 0 -294 60t-241 161t-161 241.5t-60 295.5q0 153 60 292.5t161 240.5t241 161t294 60t294.5 -60t242 -161t161.5 -240.5t60 -292.5q0 -155 -60 -295.5t-161.5 -241.5t-242 -161t-294.5 -60zM850 96q174 0 320 85t230.5 231.5t84.5 320.5q0 173 -84.5 319
t-230.5 230t-320 84t-320 -84t-230.5 -230t-84.5 -319q0 -174 84.5 -320.5t230.5 -231.5t320 -85zM848 311q-118 0 -189.5 56t-80.5 153l108 6q21 -116 164 -116q80 0 128 46.5t48 127.5q0 78 -42.5 126t-117.5 48q-115 0 -172 -99h-104l57 461h434v-98h-344l-28 -246
q24 35 69.5 56.5t102.5 21.5q120 0 186 -74t66 -196q0 -125 -77.5 -199t-207.5 -74z" />
    <glyph glyph-name="uni2465" unicode="&#x2465;" horiz-adv-x="1701" 
d="M850 -25q-154 0 -294 60t-241 161t-161 241.5t-60 295.5q0 153 60 292.5t161 240.5t241 161t294 60t294.5 -60t242 -161t161.5 -240.5t60 -292.5q0 -155 -60 -295.5t-161.5 -241.5t-242 -161t-294.5 -60zM850 96q174 0 320 85t230.5 231.5t84.5 320.5q0 173 -84.5 319
t-230.5 230t-320 84t-320 -84t-230.5 -230t-84.5 -319q0 -174 84.5 -320.5t230.5 -231.5t320 -85zM856 311q-136 0 -214.5 95t-78.5 274q0 132 33 232.5t105.5 162.5t177.5 62q111 0 171 -47.5t87 -147.5l-105 -12q-15 57 -51 83.5t-102 26.5q-90 0 -144.5 -74.5
t-60.5 -207.5q26 49 77.5 78.5t118.5 29.5q122 0 198.5 -72t76.5 -202q0 -129 -80.5 -205t-208.5 -76zM856 408q84 0 132 50.5t48 135.5q0 80 -46.5 127t-129.5 47q-78 0 -129.5 -48.5t-52.5 -127.5q-1 -83 47.5 -133.5t130.5 -50.5z" />
    <glyph glyph-name="uni2466" unicode="&#x2466;" horiz-adv-x="1701" 
d="M850 -25q-154 0 -294 60t-241 161t-161 241.5t-60 295.5q0 153 60 292.5t161 240.5t241 161t294 60t294.5 -60t242 -161t161.5 -240.5t60 -292.5q0 -155 -60 -295.5t-161.5 -241.5t-242 -161t-294.5 -60zM850 96q174 0 320 85t230.5 231.5t84.5 320.5q0 173 -84.5 319
t-230.5 230t-320 84t-320 -84t-230.5 -230t-84.5 -319q0 -174 84.5 -320.5t230.5 -231.5t320 -85zM745 328q0 181 65.5 361.5t182.5 334.5h-401v98h522v-80q-260 -342 -260 -714h-109z" />
    <glyph glyph-name="uni2467" unicode="&#x2467;" horiz-adv-x="1701" 
d="M850 -25q-154 0 -294 60t-241 161t-161 241.5t-60 295.5q0 153 60 292.5t161 240.5t241 161t294 60t294.5 -60t242 -161t161.5 -240.5t60 -292.5q0 -155 -60 -295.5t-161.5 -241.5t-242 -161t-294.5 -60zM850 96q174 0 320 85t230.5 231.5t84.5 320.5q0 173 -84.5 319
t-230.5 230t-320 84t-320 -84t-230.5 -230t-84.5 -319q0 -174 84.5 -320.5t230.5 -231.5t320 -85zM854 311q-140 0 -217.5 59t-77.5 169q0 78 44.5 134.5t123.5 84.5q-129 41 -129 172q0 99 65 153t191 54q127 0 191.5 -53.5t64.5 -153.5q0 -131 -129 -172q78 -30 123 -86
t45 -133q0 -110 -77.5 -169t-217.5 -59zM854 803q69 0 107 30.5t38 92.5q0 112 -145 112t-145 -112q0 -62 38 -92.5t107 -30.5zM854 410q184 0 184 137q0 69 -50.5 113.5t-133.5 44.5t-133.5 -44.5t-50.5 -113.5q0 -137 184 -137z" />
    <glyph glyph-name="uni2468" unicode="&#x2468;" horiz-adv-x="1701" 
d="M850 -25q-154 0 -294 60t-241 161t-161 241.5t-60 295.5q0 153 60 292.5t161 240.5t241 161t294 60t294.5 -60t242 -161t161.5 -240.5t60 -292.5q0 -155 -60 -295.5t-161.5 -241.5t-242 -161t-294.5 -60zM850 96q174 0 320 85t230.5 231.5t84.5 320.5q0 173 -84.5 319
t-230.5 230t-320 84t-320 -84t-230.5 -230t-84.5 -319q0 -174 84.5 -320.5t230.5 -231.5t320 -85zM870 1137q135 0 213 -95t78 -274q0 -132 -32 -232.5t-104 -162.5t-177 -62q-111 0 -172 48t-86 147l104 12q14 -57 50.5 -83.5t103.5 -26.5q90 0 144.5 74.5t58.5 207.5
q-26 -49 -77.5 -78.5t-119.5 -29.5q-121 0 -196.5 72t-75.5 202q0 129 80 205t208 76zM868 1040q-83 0 -130.5 -50.5t-47.5 -135.5q0 -81 46 -127.5t130 -46.5q78 0 130 49t53 127q0 84 -49 134t-132 50z" />
    <glyph glyph-name="uni24EA" unicode="&#x24ea;" horiz-adv-x="1701" 
d="M850 -25q-154 0 -294 60t-241 161t-161 241.5t-60 295.5q0 153 60 292.5t161 240.5t241 161t294 60t294.5 -60t242 -161t161.5 -240.5t60 -292.5q0 -155 -60 -295.5t-161.5 -241.5t-242 -161t-294.5 -60zM850 96q174 0 320 85t230.5 231.5t84.5 320.5q0 173 -84.5 319
t-230.5 230t-320 84t-320 -84t-230.5 -230t-84.5 -319q0 -174 84.5 -320.5t230.5 -231.5t320 -85zM854 311q-143 0 -228 111.5t-85 302.5q0 193 84 302.5t229 109.5t229 -109.5t84 -302.5q0 -191 -85 -302.5t-228 -111.5zM651 725q0 -105 33 -186l283 458q-47 41 -113 41
q-98 0 -150.5 -80.5t-52.5 -232.5zM854 412q97 0 150 81.5t53 231.5q0 112 -33 193l-285 -461q48 -45 115 -45z" />
    <glyph glyph-name="uni24FF" unicode="&#x24ff;" horiz-adv-x="1699" 
d="M850 -25q-154 0 -294 60t-241 161t-161 241.5t-60 295.5q0 153 60 292.5t161 240.5t241 161t294 60t294 -60t241 -161t161 -240.5t60 -292.5q0 -155 -60 -295.5t-161 -241.5t-241 -161t-294 -60zM854 311q143 0 228 111.5t85 302.5q0 192 -84 302t-229 110t-229 -110
t-84 -302q0 -191 85 -302.5t228 -111.5zM686 539q-35 75 -35 186q0 152 52 231.5t151 79.5q66 0 113 -41zM854 412q-67 0 -115 45l285 458q33 -81 33 -190q0 -150 -53 -231.5t-150 -81.5z" />
    <glyph glyph-name="triagup" unicode="&#x25b2;" horiz-adv-x="1765" 
d="M43 0l838 1454l839 -1454h-1677z" />
    <glyph glyph-name="uni25B3" unicode="&#x25b3;" horiz-adv-x="1765" 
d="M43 0l838 1454l839 -1454h-1677zM266 127h1233l-616 1073z" />
    <glyph glyph-name="uni25B6" unicode="&#x25b6;" horiz-adv-x="1689" 
d="M190 -2v1460l1455 -729z" />
    <glyph glyph-name="uni25B7" unicode="&#x25b7;" horiz-adv-x="1689" 
d="M190 -2v1460l1455 -729zM317 203l1043 526l-1043 524v-1050z" />
    <glyph glyph-name="triagdn" unicode="&#x25bc;" horiz-adv-x="1658" 
d="M-10 1454h1677l-840 -1454z" />
    <glyph glyph-name="uni25BD" unicode="&#x25bd;" horiz-adv-x="1658" 
d="M-10 1454h1677l-840 -1454zM213 1327l616 -1073l617 1073h-1233z" />
    <glyph glyph-name="uni25C0" unicode="&#x25c0;" horiz-adv-x="1689" 
d="M1499 -2l-1454 731l1454 729v-1460z" />
    <glyph glyph-name="uni25C1" unicode="&#x25c1;" horiz-adv-x="1689" 
d="M1499 -2l-1454 731l1454 729v-1460zM1372 203v1050l-1042 -524z" />
    <glyph glyph-name="lozenge" unicode="&#x25ca;" horiz-adv-x="1048" 
d="M442 0l-346 659l346 660h166l346 -660l-346 -659h-166zM236 659l288 -546l289 546l-289 547z" />
    <glyph glyph-name="circle" unicode="&#x25cb;" horiz-adv-x="1734" 
d="M868 -25q-161 0 -304 57t-246 156t-162.5 239.5t-59.5 301.5q0 216 101.5 390t278 271t392.5 97t392.5 -97t278 -271t101.5 -390q0 -161 -59.5 -301.5t-162.5 -239.5t-246 -156t-304 -57zM868 94q182 0 330.5 81t234 227t85.5 327q0 137 -50 256.5t-137 203t-207 131.5
t-256 48q-137 0 -257 -48t-207 -131.5t-137 -203t-50 -256.5q0 -181 85.5 -327t234 -227t331.5 -81z" />
    <glyph glyph-name="uni25CC" unicode="&#x25cc;" horiz-adv-x="1734" 
d="M739 1391l-20 112q92 15 149 15v-115q-39 0 -129 -12zM1104 1370q-51 18 -123 35l18 113q84 -16 148 -41zM504 1292l-64 97q51 36 133 71l43 -106q-72 -31 -112 -62zM1323 1233q-55 48 -102 80l61 96q65 -41 119 -92zM322 1114l-97 64q39 58 97 116l79 -82
q-38 -40 -79 -98zM1470 1026q-23 56 -63 109l94 69q48 -68 76 -131zM223 879l-112 20q12 75 43 145l106 -43q-28 -61 -37 -122zM1526 776q0 71 -17 129l115 23q16 -75 16 -150zM113 600q-17 80 -17 150l115 2q0 -72 14 -129zM1583 483l-106 43q26 66 34 123l115 -20
q-12 -76 -43 -146zM236 324q-48 68 -76 131l106 47q20 -49 62 -109zM1415 233l-82 82q50 53 80 99l98 -64q-43 -64 -96 -117zM455 119q-65 41 -119 92l76 84q55 -48 102 -80zM1163 68l-43 106q74 33 113 62l63 -97q-51 -36 -133 -71zM737 10q-82 16 -147 41l41 107
q54 -19 125 -35zM868 10v115q41 0 127 12l23 -112q-92 -15 -150 -15z" />
    <glyph glyph-name="uni25CF" unicode="&#x25cf;" horiz-adv-x="1734" 
d="M868 -25q-161 0 -304 57t-246 156t-162.5 239.5t-59.5 301.5q0 216 101.5 390t278 271t392.5 97t392.5 -97t278 -271t101.5 -390q0 -161 -59.5 -301.5t-162.5 -239.5t-246 -156t-304 -57z" />
    <glyph glyph-name="uni2639" unicode="&#x2639;" horiz-adv-x="1701" 
d="M850 -25q-154 0 -294 60t-241 161t-161 241.5t-60 295.5q0 153 60 292.5t161 240.5t241 161t294 60t294.5 -60t242 -161t161.5 -240.5t60 -292.5q0 -155 -60 -295.5t-161.5 -241.5t-242 -161t-294.5 -60zM850 96q174 0 320 85t230.5 231.5t84.5 320.5q0 173 -84.5 319
t-230.5 230t-320 84t-320 -84t-230.5 -230t-84.5 -319q0 -174 84.5 -320.5t230.5 -231.5t320 -85zM651 860q-38 0 -65 27t-27 65q0 37 27 62.5t65 25.5q37 0 63.5 -25.5t26.5 -62.5q0 -38 -26.5 -65t-63.5 -27zM1069 860q-38 0 -65 27t-27 65q0 37 27 62.5t65 25.5
q37 0 63.5 -25.5t26.5 -62.5q0 -38 -26.5 -65t-63.5 -27zM444 414q32 157 145.5 251.5t268.5 94.5t268.5 -94.5t145.5 -251.5h-121q-32 110 -109.5 170.5t-183.5 60.5t-183.5 -60.5t-109.5 -170.5h-121z" />
    <glyph glyph-name="smileface" unicode="&#x263a;" horiz-adv-x="1701" 
d="M850 -25q-154 0 -294 60t-241 161t-161 241.5t-60 295.5q0 153 60 292.5t161 240.5t241 161t294 60t294.5 -60t242 -161t161.5 -240.5t60 -292.5q0 -155 -60 -295.5t-161.5 -241.5t-242 -161t-294.5 -60zM850 96q174 0 320 85t230.5 231.5t84.5 320.5q0 173 -84.5 319
t-230.5 230t-320 84t-320 -84t-230.5 -230t-84.5 -319q0 -174 84.5 -320.5t230.5 -231.5t320 -85zM651 860q-38 0 -65 27t-27 65q0 37 27 62.5t65 25.5q37 0 63.5 -25.5t26.5 -62.5q0 -38 -26.5 -65t-63.5 -27zM1069 860q-38 0 -65 27t-27 65q0 37 27 62.5t65 25.5
q37 0 63.5 -25.5t26.5 -62.5q0 -38 -26.5 -65t-63.5 -27zM858 346q-165 0 -286 104.5t-144 266.5h115q26 -116 112.5 -187t202.5 -71q117 0 203.5 71t112.5 187h116q-25 -162 -146 -266.5t-286 -104.5z" />
    <glyph glyph-name="uni2776" unicode="&#x2776;" horiz-adv-x="1699" 
d="M850 -25q-154 0 -294 60t-241 161t-161 241.5t-60 295.5q0 153 60 292.5t161 240.5t241 161t294 60t294 -60t241 -161t161 -240.5t60 -292.5q0 -155 -60 -295.5t-161 -241.5t-241 -161t-294 -60zM836 328h108v794h-82q0 -83 -46 -126.5t-136 -43.5h-43v-84l199 2v-542z
" />
    <glyph glyph-name="uni2777" unicode="&#x2777;" horiz-adv-x="1699" 
d="M850 -25q-154 0 -294 60t-241 161t-161 241.5t-60 295.5q0 153 60 292.5t161 240.5t241 161t294 60t294 -60t241 -161t161 -240.5t60 -292.5q0 -155 -60 -295.5t-161 -241.5t-241 -161t-294 -60zM588 328h545v98h-420q0 107 147 188l78 41q103 55 149 110t46 144
q0 103 -70 165.5t-189 62.5q-125 0 -197.5 -68.5t-86.5 -189.5l108 -7q12 85 55 125.5t121 40.5q66 0 107 -34.5t41 -94.5q0 -59 -25 -93t-100 -75l-92 -51q-130 -72 -173.5 -150t-43.5 -212z" />
    <glyph glyph-name="uni2778" unicode="&#x2778;" horiz-adv-x="1699" 
d="M850 -25q-154 0 -294 60t-241 161t-161 241.5t-60 295.5q0 153 60 292.5t161 240.5t241 161t294 60t294 -60t241 -161t161 -240.5t60 -292.5q0 -155 -60 -295.5t-161 -241.5t-241 -161t-294 -60zM860 311q127 0 206 65.5t79 174.5q0 159 -178 201q141 42 141 174
q0 98 -65.5 154.5t-190.5 56.5q-113 0 -182.5 -57t-81.5 -150l110 -8q5 53 44 83.5t110 30.5q74 0 110.5 -31t36.5 -87q0 -62 -40 -92.5t-105 -30.5h-53v-97h53q90 0 136 -39.5t46 -105.5q0 -67 -45.5 -105t-130.5 -38q-91 0 -133 33.5t-47 97.5l-109 -6q14 -224 289 -224z
" />
    <glyph glyph-name="uni2779" unicode="&#x2779;" horiz-adv-x="1699" 
d="M850 -25q-154 0 -294 60t-241 161t-161 241.5t-60 295.5q0 153 60 292.5t161 240.5t241 161t294 60t294 -60t241 -161t161 -240.5t60 -292.5q0 -155 -60 -295.5t-161 -241.5t-241 -161t-294 -60zM893 328h111v188h116v96h-116v508h-105l-381 -520v-84h375v-188zM635 612
l258 351v-351h-258z" />
    <glyph glyph-name="uni277A" unicode="&#x277a;" horiz-adv-x="1699" 
d="M850 -25q-154 0 -294 60t-241 161t-161 241.5t-60 295.5q0 153 60 292.5t161 240.5t241 161t294 60t294 -60t241 -161t161 -240.5t60 -292.5q0 -155 -60 -295.5t-161 -241.5t-241 -161t-294 -60zM846 311q131 0 209 73.5t78 199.5q0 122 -66 196t-186 74
q-58 0 -104 -21.5t-70 -56.5l30 246h344v98h-436l-57 -461h104q60 99 174 99q75 0 116.5 -48t41.5 -126q0 -81 -47.5 -127.5t-126.5 -46.5q-146 0 -164 116l-111 -6q11 -97 82.5 -153t188.5 -56z" />
    <glyph glyph-name="uni277B" unicode="&#x277b;" horiz-adv-x="1699" 
d="M850 -25q-154 0 -294 60t-241 161t-161 241.5t-60 295.5q0 153 60 292.5t161 240.5t241 161t294 60t294 -60t241 -161t161 -240.5t60 -292.5q0 -155 -60 -295.5t-161 -241.5t-241 -161t-294 -60zM862 311q129 0 209 76t80 205q0 130 -75.5 202t-196.5 72
q-67 0 -119 -29.5t-78 -78.5q6 133 60 207.5t145 74.5q66 0 102 -26.5t51 -83.5l103 12q-25 99 -85.5 147t-170.5 48q-105 0 -177.5 -62t-105.5 -162.5t-33 -232.5q0 -179 78 -274t213 -95zM864 408q-82 0 -130.5 50.5t-47.5 133.5q0 79 51.5 127.5t130.5 48.5
q83 0 129.5 -47t46.5 -127q0 -85 -48.5 -135.5t-131.5 -50.5z" />
    <glyph glyph-name="uni277C" unicode="&#x277c;" horiz-adv-x="1699" 
d="M850 -25q-154 0 -294 60t-241 161t-161 241.5t-60 295.5q0 153 60 292.5t161 240.5t241 161t294 60t294 -60t241 -161t161 -240.5t60 -292.5q0 -155 -60 -295.5t-161 -241.5t-241 -161t-294 -60zM756 328h110q0 375 258 714v80h-522v-98h402q-117 -154 -182.5 -334.5
t-65.5 -361.5z" />
    <glyph glyph-name="uni277D" unicode="&#x277d;" horiz-adv-x="1699" 
d="M850 -25q-154 0 -294 60t-241 161t-161 241.5t-60 295.5q0 153 60 292.5t161 240.5t241 161t294 60t294 -60t241 -161t161 -240.5t60 -292.5q0 -155 -60 -295.5t-161 -241.5t-241 -161t-294 -60zM856 311q139 0 216 59t77 169q0 77 -44 133t-122 86q127 41 127 172
q0 100 -64 153.5t-190 53.5t-191 -54t-65 -153q0 -130 127 -172q-77 -29 -121.5 -85t-44.5 -134q0 -110 77.5 -169t217.5 -59zM856 803q-69 0 -107 30.5t-38 92.5q0 112 145 112q143 0 143 -112q0 -61 -37.5 -92t-105.5 -31zM856 410q-184 0 -184 137q0 69 50.5 113.5
t133.5 44.5t132.5 -44.5t49.5 -113.5t-47.5 -103t-134.5 -34z" />
    <glyph glyph-name="uni277E" unicode="&#x277e;" horiz-adv-x="1699" 
d="M850 -25q-154 0 -294 60t-241 161t-161 241.5t-60 295.5q0 153 60 292.5t161 240.5t241 161t294 60t294 -60t241 -161t161 -240.5t60 -292.5q0 -155 -60 -295.5t-161 -241.5t-241 -161t-294 -60zM856 1137q-129 0 -209 -76t-80 -205q0 -130 76 -202t197 -72
q67 0 118.5 29.5t77.5 78.5q-6 -133 -60 -207.5t-145 -74.5q-66 0 -102 26.5t-51 83.5l-103 -12q25 -99 85.5 -147t170.5 -48q105 0 177.5 62t105.5 162.5t33 232.5q0 179 -78 274t-213 95zM854 1040q82 0 130.5 -50.5t47.5 -133.5q0 -79 -51.5 -127.5t-130.5 -48.5
q-83 0 -129.5 47t-46.5 127q0 85 48.5 135.5t131.5 50.5z" />
    <glyph glyph-name="uni3003" unicode="&#x3003;" horiz-adv-x="686" 
d="M94 575l125 410h148l-172 -410h-101zM322 575l122 410h148l-170 -410h-100z" />
    <glyph glyph-name="uni3008" unicode="&#x3008;" horiz-adv-x="696" 
d="M469 -233l-375 958l375 956h133l-375 -956l375 -958h-133z" />
    <glyph glyph-name="uni3009" unicode="&#x3009;" horiz-adv-x="696" 
d="M227 -233h-133l375 958l-375 956h133l375 -956z" />
    <glyph glyph-name="uni300A" unicode="&#x300a;" horiz-adv-x="1038" 
d="M469 -233l-375 958l375 956h133l-375 -956l375 -958h-133zM811 -233l-375 958l375 956h133l-375 -956l375 -958h-133z" />
    <glyph glyph-name="uni300B" unicode="&#x300b;" horiz-adv-x="1038" 
d="M569 -233h-133l375 958l-375 956h133l375 -956zM227 -233h-133l375 958l-375 956h133l375 -956z" />
    <glyph glyph-name="uni300C" unicode="&#x300c;" horiz-adv-x="792" 
d="M94 520v1172h604v-127h-473v-1045h-131z" />
    <glyph glyph-name="uni300D" unicode="&#x300d;" horiz-adv-x="792" 
d="M698 958v-1169h-604v127h473v1042h131z" />
    <glyph glyph-name="uni300E" unicode="&#x300e;" horiz-adv-x="808" 
d="M94 477v1215h621v-328h-293v-887h-328zM170 553h176v887h293v176h-469v-1063z" />
    <glyph glyph-name="uni300F" unicode="&#x300f;" horiz-adv-x="808" 
d="M715 1004v-1215h-621v328h293v887h328zM639 928h-176v-887h-293v-176h469v1063z" />
    <glyph glyph-name="uni3010" unicode="&#x3010;" horiz-adv-x="729" 
d="M635 -129h-541v1819h541q-277 -441 -277 -910q0 -465 277 -909z" />
    <glyph glyph-name="uni3011" unicode="&#x3011;" horiz-adv-x="729" 
d="M94 -129q277 444 277 909q0 469 -277 910h541v-1819h-541z" />
    <glyph glyph-name="uni3014" unicode="&#x3014;" horiz-adv-x="774" 
d="M594 -301l-500 461v1124l498 457l84 -94l-451 -414v-1022l455 -418z" />
    <glyph glyph-name="uni3015" unicode="&#x3015;" horiz-adv-x="774" 
d="M180 -301l-86 94l455 418v1022l-451 414l84 94l498 -457v-1124z" />
    <glyph glyph-name="uni3016" unicode="&#x3016;" horiz-adv-x="731" 
d="M637 -129h-543v1819h543q-277 -441 -277 -910q0 -465 277 -909zM498 -53q-213 411 -213 833q0 426 213 834h-328v-1667h328z" />
    <glyph glyph-name="uni3017" unicode="&#x3017;" horiz-adv-x="731" 
d="M94 -129q277 444 277 909q0 469 -277 910h543v-1819h-543zM233 -53h328v1667h-328q213 -408 213 -834q0 -422 -213 -833z" />
    <glyph glyph-name="uni301C" unicode="&#x301c;" horiz-adv-x="1693" 
d="M1182 426q-90 0 -162.5 27t-206.5 98q-167 92 -303 92q-92 0 -171.5 -40.5t-172.5 -127.5l-72 100q117 107 212 150t210 43q145 0 350 -109q125 -66 181.5 -86t130.5 -20q86 0 164 39t186 135l71 -100q-213 -201 -417 -201z" />
    <glyph glyph-name="uniA78B" unicode="&#xa78b;" horiz-adv-x="331" 
d="M115 731l-19 518v205h140v-205l-19 -518h-102z" />
    <glyph glyph-name="uniA78C" unicode="&#xa78c;" horiz-adv-x="468" 
d="M186 772l-18 553v129h133v-129l-18 -553h-97z" />
    <glyph glyph-name="uniF8FF" unicode="&#xf8ff;" horiz-adv-x="1228" 
d="M215 0q-86 0 -142.5 56.5t-56.5 142.5v798q0 86 56.5 142.5t142.5 56.5h799q86 0 142 -56.5t56 -142.5v-798q0 -86 -56 -142.5t-142 -56.5h-799zM176 254h875l-439 760z" />
    <glyph glyph-name="uni004A0301" horiz-adv-x="1204" 
d="M915 1602l140 253h151l-178 -253h-113zM590 -33q-197 0 -322.5 140t-128.5 368l144 10q3 -183 84 -282t223 -99q150 0 232.5 104.5t82.5 299.5v946h139v-946q0 -252 -123 -396.5t-331 -144.5z" />
    <glyph glyph-name="uni013B.loclMAH" horiz-adv-x="1167" 
d="M190 0v1454h140v-1319h745v-135h-885zM514 -442l100 182h-65v156h170v-142l-111 -196h-94z" />
    <glyph glyph-name="uni0145.loclMAH" horiz-adv-x="1499" 
d="M190 0v1454h199l780 -1317v1317h140v-1454h-207l-772 1300v-1300h-140zM629 -442l100 182h-65v156h170v-142l-111 -196h-94z" />
    <glyph glyph-name="R.ss04" horiz-adv-x="1353" 
d="M190 0v1454h510q238 0 373 -115.5t135 -318.5q0 -154 -86.5 -257t-244.5 -140l356 -623h-154l-344 604q-12 -2 -35 -2h-370v-602h-140zM330 737h370q174 0 267.5 74.5t93.5 212.5q0 141 -93.5 218t-267.5 77h-370v-582z" />
    <glyph glyph-name="Racute.ss04" horiz-adv-x="1353" 
d="M610 1602l140 253h151l-178 -253h-113zM190 0v1454h510q238 0 373 -115.5t135 -318.5q0 -154 -86.5 -257t-244.5 -140l356 -623h-154l-344 604q-12 -2 -35 -2h-370v-602h-140zM330 737h370q174 0 267.5 74.5t93.5 212.5q0 141 -93.5 218t-267.5 77h-370v-582z" />
    <glyph glyph-name="Rcaron.ss04" horiz-adv-x="1353" 
d="M416 1868h114l140 -191l141 191h115l-185 -266h-143zM190 0v1454h510q238 0 373 -115.5t135 -318.5q0 -154 -86.5 -257t-244.5 -140l356 -623h-154l-344 604q-12 -2 -35 -2h-370v-602h-140zM330 737h370q174 0 267.5 74.5t93.5 212.5q0 141 -93.5 218t-267.5 77h-370
v-582z" />
    <glyph glyph-name="uni0156.ss04" horiz-adv-x="1353" 
d="M190 0v1454h510q238 0 373 -115.5t135 -318.5q0 -154 -86.5 -257t-244.5 -140l356 -623h-154l-344 604q-12 -2 -35 -2h-370v-602h-140zM330 737h370q174 0 267.5 74.5t93.5 212.5q0 141 -93.5 218t-267.5 77h-370v-582zM551 -442l100 182h-65v156h170v-142l-111 -196h-94
z" />
    <glyph glyph-name="I.ss05" horiz-adv-x="800" 
d="M96 0v135h234v1184h-221v135h583v-135h-223v-1184h236v-135h-609z" />
    <glyph glyph-name="Iacute.ss05" horiz-adv-x="800" 
d="M340 1602l139 253h152l-178 -253h-113zM96 0v135h234v1184h-221v135h583v-135h-223v-1184h236v-135h-609z" />
    <glyph glyph-name="Icircumflex.ss05" horiz-adv-x="800" 
d="M145 1602l185 266h143l182 -266h-114l-140 190l-141 -190h-115zM96 0v135h234v1184h-221v135h583v-135h-223v-1184h236v-135h-609z" />
    <glyph glyph-name="Idieresis.ss05" horiz-adv-x="800" 
d="M166 1634v183h143v-183h-143zM492 1634v183h143v-183h-143zM96 0v135h234v1184h-221v135h583v-135h-223v-1184h236v-135h-609z" />
    <glyph glyph-name="Idotaccent.ss05" horiz-adv-x="800" 
d="M328 1634v183h143v-183h-143zM96 0v135h234v1184h-221v135h583v-135h-223v-1184h236v-135h-609z" />
    <glyph glyph-name="Igrave.ss05" horiz-adv-x="800" 
d="M348 1614l-176 254h152l139 -254h-115zM96 0v135h234v1184h-221v135h583v-135h-223v-1184h236v-135h-609z" />
    <glyph glyph-name="Imacron.ss05" horiz-adv-x="800" 
d="M133 1661v119h535v-119h-535zM96 0v135h234v1184h-221v135h583v-135h-223v-1184h236v-135h-609z" />
    <glyph glyph-name="Iogonek.ss05" horiz-adv-x="800" 
d="M96 0v135h234v1184h-221v135h583v-135h-223v-1184h236v-135l-66 -92q-66 -98 -66 -156q0 -29 18.5 -44t49.5 -15q56 0 98 28l43 -90q-56 -49 -161 -49q-80 0 -127.5 34.5t-47.5 102.5q0 35 18 78.5t38 74.5t55 81l35 47h-496z" />
    <glyph glyph-name="Itilde.ss05" horiz-adv-x="800" 
d="M518 1632q-73 0 -139 60q-35 32 -56 43.5t-53 11.5q-87 0 -92 -129h-88q3 105 52.5 163t127.5 58q83 0 154 -65q59 -50 100 -50q39 0 59.5 30.5t26.5 105.5h90q-6 -107 -54 -167.5t-128 -60.5zM96 0v135h234v1184h-221v135h583v-135h-223v-1184h236v-135h-609z" />
    <glyph glyph-name="G.ss06" horiz-adv-x="1396" 
d="M729 -33q-149 0 -269.5 57t-199.5 158t-121.5 239.5t-42.5 303.5q0 166 44 306t125 241.5t203.5 158t272.5 56.5q230 0 375.5 -129.5t190.5 -358.5l-146 -10q-32 170 -136.5 265.5t-283.5 95.5q-124 0 -220 -46.5t-156.5 -131t-91.5 -197.5t-31 -250q0 -283 125 -452
t362 -169q210 0 328 133.5t123 346.5h-439v131h570v-76q0 -315 -152.5 -493.5t-429.5 -178.5z" />
    <glyph glyph-name="Gbreve.ss06" horiz-adv-x="1396" 
d="M739 1614q-119 0 -193 69t-83 185h98q9 -75 55.5 -112.5t122.5 -37.5q75 0 122 37.5t57 112.5h96q-9 -116 -82.5 -185t-192.5 -69zM729 -33q-149 0 -269.5 57t-199.5 158t-121.5 239.5t-42.5 303.5q0 166 44 306t125 241.5t203.5 158t272.5 56.5q230 0 375.5 -129.5
t190.5 -358.5l-146 -10q-32 170 -136.5 265.5t-283.5 95.5q-124 0 -220 -46.5t-156.5 -131t-91.5 -197.5t-31 -250q0 -283 125 -452t362 -169q210 0 328 133.5t123 346.5h-439v131h570v-76q0 -315 -152.5 -493.5t-429.5 -178.5z" />
    <glyph glyph-name="Gcircumflex.ss06" horiz-adv-x="1396" 
d="M485 1602l183 266h143l184 -266h-114l-142 190l-139 -190h-115zM729 -33q-149 0 -269.5 57t-199.5 158t-121.5 239.5t-42.5 303.5q0 166 44 306t125 241.5t203.5 158t272.5 56.5q230 0 375.5 -129.5t190.5 -358.5l-146 -10q-32 170 -136.5 265.5t-283.5 95.5
q-124 0 -220 -46.5t-156.5 -131t-91.5 -197.5t-31 -250q0 -283 125 -452t362 -169q210 0 328 133.5t123 346.5h-439v131h570v-76q0 -315 -152.5 -493.5t-429.5 -178.5z" />
    <glyph glyph-name="uni0122.ss06" horiz-adv-x="1396" 
d="M729 -33q-149 0 -269.5 57t-199.5 158t-121.5 239.5t-42.5 303.5q0 166 44 306t125 241.5t203.5 158t272.5 56.5q230 0 375.5 -129.5t190.5 -358.5l-146 -10q-32 170 -136.5 265.5t-283.5 95.5q-124 0 -220 -46.5t-156.5 -131t-91.5 -197.5t-31 -250q0 -283 125 -452
t362 -169q210 0 328 133.5t123 346.5h-439v131h570v-76q0 -315 -152.5 -493.5t-429.5 -178.5zM621 -442l100 182h-66v156h170v-142l-110 -196h-94z" />
    <glyph glyph-name="Gdotaccent.ss06" horiz-adv-x="1396" 
d="M668 1634v183h143v-183h-143zM729 -33q-149 0 -269.5 57t-199.5 158t-121.5 239.5t-42.5 303.5q0 166 44 306t125 241.5t203.5 158t272.5 56.5q230 0 375.5 -129.5t190.5 -358.5l-146 -10q-32 170 -136.5 265.5t-283.5 95.5q-124 0 -220 -46.5t-156.5 -131t-91.5 -197.5
t-31 -250q0 -283 125 -452t362 -169q210 0 328 133.5t123 346.5h-439v131h570v-76q0 -315 -152.5 -493.5t-429.5 -178.5z" />
    <glyph glyph-name="uni1E20.ss06" horiz-adv-x="1396" 
d="M471 1661v119h537v-119h-537zM729 -33q-149 0 -269.5 57t-199.5 158t-121.5 239.5t-42.5 303.5q0 166 44 306t125 241.5t203.5 158t272.5 56.5q230 0 375.5 -129.5t190.5 -358.5l-146 -10q-32 170 -136.5 265.5t-283.5 95.5q-124 0 -220 -46.5t-156.5 -131t-91.5 -197.5
t-31 -250q0 -283 125 -452t362 -169q210 0 328 133.5t123 346.5h-439v131h570v-76q0 -315 -152.5 -493.5t-429.5 -178.5z" />
    <glyph glyph-name="Adieresis.ss08" horiz-adv-x="1329" 
d="M487 1634q-36 0 -60 24t-24 64q0 38 24 62t60 24t60 -24t24 -62q0 -40 -24 -64t-60 -24zM842 1634q-36 0 -59 24t-23 64q0 38 23 62t59 24q37 0 60.5 -24t23.5 -62q0 -41 -23.5 -64.5t-60.5 -23.5zM43 0l530 1454h185l528 -1454h-151l-156 436h-629l-155 -436h-152z
M397 571h535l-266 758z" />
    <glyph glyph-name="Cdotaccent.ss08" horiz-adv-x="1421" 
d="M733 1634q-36 0 -60 24t-24 64q0 38 24 62t60 24t60 -24t24 -62q0 -40 -24 -64t-60 -24zM735 -33q-291 0 -465 203.5t-174 554.5t174 556.5t465 205.5q248 0 395 -131.5t193 -366.5l-147 -10q-32 175 -143.5 273t-297.5 98q-225 0 -359 -167.5t-134 -457.5
q0 -289 134 -455t359 -166q195 0 310 106t143 298l147 -10q-39 -245 -194.5 -388t-405.5 -143z" />
    <glyph glyph-name="Edieresis.ss08" horiz-adv-x="1214" 
d="M465 1634q-37 0 -60.5 23.5t-23.5 64.5q0 38 23.5 62t60.5 24q36 0 59 -24t23 -62q0 -40 -23 -64t-59 -24zM819 1634q-36 0 -60 24t-24 64q0 38 24 62t60 24t60 -24t24 -62q0 -40 -24 -64t-60 -24zM190 0v1454h895v-135h-755v-524h731v-133h-731v-527h772v-135h-912z" />
    <glyph glyph-name="Edotaccent.ss08" horiz-adv-x="1214" 
d="M643 1634q-36 0 -60 24t-24 64q0 38 24 62t60 24t60 -24t24 -62q0 -40 -24 -64t-60 -24zM190 0v1454h895v-135h-755v-524h731v-133h-731v-527h772v-135h-912z" />
    <glyph glyph-name="Gdotaccent.ss08" horiz-adv-x="1417" 
d="M739 1634q-37 0 -60.5 23.5t-23.5 64.5q0 38 23.5 62t60.5 24q36 0 59 -24t23 -62q0 -40 -23 -64t-59 -24zM731 -33q-195 0 -340 96.5t-220 267.5t-75 394q0 224 74.5 395t221 269t345.5 98q237 0 382 -131t188 -357l-146 -10q-70 361 -424 361q-124 0 -219.5 -48
t-155 -133t-90 -197.5t-30.5 -246.5q0 -281 127 -451t364 -170q199 0 319 133.5t128 346.5h-439v131h570v-715h-107l-8 283q-51 -141 -175 -228.5t-290 -87.5z" />
    <glyph glyph-name="Idieresis.ss08" horiz-adv-x="522" 
d="M84 1634q-37 0 -60.5 23.5t-23.5 64.5q0 38 23.5 62t60.5 24q36 0 59 -24t23 -62q0 -40 -23 -64t-59 -24zM438 1634q-36 0 -60 24t-24 64q0 38 24 62t60 24t60 -24t24 -62q0 -40 -24 -64t-60 -24zM190 0v1454h140v-1454h-140z" />
    <glyph glyph-name="Idotaccent.ss08" horiz-adv-x="522" 
d="M262 1634q-36 0 -60 24t-24 64q0 38 24 62t60 24t60 -24t24 -62q0 -40 -24 -64t-60 -24zM190 0v1454h140v-1454h-140z" />
    <glyph glyph-name="Odieresis.ss08" horiz-adv-x="1497" 
d="M569 1634q-36 0 -59 24t-23 64q0 38 23 62t59 24q37 0 60.5 -24t23.5 -62q0 -41 -23.5 -64.5t-60.5 -23.5zM926 1634q-37 0 -60.5 23.5t-23.5 64.5q0 38 23.5 62t60.5 24q36 0 59 -24t23 -62q0 -40 -23 -64t-59 -24zM748 -33q-304 0 -478 203t-174 555q0 354 174 558
t478 204q305 0 479 -204t174 -558q0 -353 -174 -555.5t-479 -202.5zM748 104q236 0 371.5 165.5t135.5 455.5q0 292 -135.5 458.5t-371.5 166.5t-371 -166.5t-135 -458.5q0 -290 135 -455.5t371 -165.5z" />
    <glyph glyph-name="Udieresis.ss08" horiz-adv-x="1392" 
d="M520 1634q-37 0 -60.5 23.5t-23.5 64.5q0 38 23.5 62t60.5 24q36 0 59 -24t23 -62q0 -40 -23 -64t-59 -24zM874 1634q-36 0 -59.5 24t-23.5 64q0 38 23.5 62t59.5 24t60 -24t24 -62q0 -40 -24 -64t-60 -24zM696 -33q-250 0 -393 144.5t-143 396.5v948h139v-948
q0 -194 103.5 -299t293.5 -105q191 0 294.5 105.5t103.5 298.5v948h139v-948q0 -252 -143.5 -396.5t-393.5 -144.5z" />
    <glyph glyph-name="Wdieresis.ss08" horiz-adv-x="1914" 
d="M778 1634q-36 0 -59 24t-23 64q0 38 23 62t59 24q37 0 60.5 -24t23.5 -62q0 -41 -23.5 -64.5t-60.5 -23.5zM1135 1634q-37 0 -60.5 23.5t-23.5 64.5q0 38 23.5 62t60.5 24q36 0 59 -24t23 -62q0 -40 -23 -64t-59 -24zM471 0l-391 1454h151l328 -1270l315 1270h164
l316 -1270l327 1270h152l-391 -1454h-180l-306 1212l-305 -1212h-180z" />
    <glyph glyph-name="Ydieresis.ss08" horiz-adv-x="1155" 
d="M401 1634q-37 0 -60.5 23.5t-23.5 64.5q0 38 23.5 62t60.5 24q36 0 59 -24t23 -62q0 -40 -23 -64t-59 -24zM756 1634q-36 0 -60 24t-24 64q0 38 24 62t60 24t60 -24t24 -62q0 -40 -24 -64t-60 -24zM508 0v594l-518 860h166l422 -719l421 719h166l-518 -860v-594h-139z
" />
    <glyph glyph-name="Zdotaccent.ss08" horiz-adv-x="1099" 
d="M565 1634q-36 0 -60 24t-24 64q0 38 24 62t60 24t60 -24t24 -62q0 -40 -24 -64t-60 -24zM59 0v141l803 1178h-776v135h934v-141l-803 -1178h823v-135h-981z" />
    <glyph glyph-name="Idieresis.ss05.ss08" horiz-adv-x="800" 
d="M223 1634q-37 0 -60.5 23.5t-23.5 64.5q0 38 23.5 62t60.5 24q36 0 59 -24t23 -62q0 -40 -23 -64t-59 -24zM578 1634q-36 0 -60 24t-24 64q0 38 24 62t60 24t60 -24t24 -62q0 -40 -24 -64t-60 -24zM96 0v135h234v1184h-221v135h583v-135h-223v-1184h236v-135h-609z" />
    <glyph glyph-name="Idotaccent.ss05.ss08" horiz-adv-x="800" 
d="M401 1634q-36 0 -60 24t-24 64q0 38 24 62t60 24t60 -24t24 -62q0 -40 -24 -64t-60 -24zM96 0v135h234v1184h-221v135h583v-135h-223v-1184h236v-135h-609z" />
    <glyph glyph-name="Gdotaccent.ss06.ss08" horiz-adv-x="1396" 
d="M741 1634q-37 0 -60.5 23.5t-23.5 64.5q0 38 23.5 62t60.5 24q36 0 59 -24t23 -62q0 -40 -23 -64t-59 -24zM729 -33q-149 0 -269.5 57t-199.5 158t-121.5 239.5t-42.5 303.5q0 166 44 306t125 241.5t203.5 158t272.5 56.5q230 0 375.5 -129.5t190.5 -358.5l-146 -10
q-32 170 -136.5 265.5t-283.5 95.5q-124 0 -220 -46.5t-156.5 -131t-91.5 -197.5t-31 -250q0 -283 125 -452t362 -169q210 0 328 133.5t123 346.5h-439v131h570v-76q0 -315 -152.5 -493.5t-429.5 -178.5z" />
    <glyph glyph-name="A_I.dlig" horiz-adv-x="2129" 
d="M43 0l530 1454h185l528 -1454h-151l-156 436h-629l-155 -436h-152zM1425 0v135h236v1184h-223v135h583v-135h-221v-1184h234v-135h-609zM397 571h535l-266 758z" />
    <glyph glyph-name="U_I.dlig" horiz-adv-x="2193" 
d="M696 -33q-250 0 -393 144.5t-143 396.5v948h139v-948q0 -194 103.5 -299t293.5 -105q191 0 294.5 105.5t103.5 298.5v948h139v-948q0 -252 -143.5 -396.5t-393.5 -144.5zM1489 0v135h233v1184h-221v135h584v-135h-223v-1184h235v-135h-608z" />
    <glyph glyph-name="i.loclTRK" horiz-adv-x="468" 
d="M164 1266v182h143v-182h-143zM168 0v1085h135v-1085h-135z" />
    <glyph glyph-name="uni006A0301" horiz-adv-x="512" 
d="M217 1233l139 254h152l-178 -254h-113zM-10 -307v121h78q74 0 107.5 31.5t33.5 113.5v1126h135v-1134q0 -141 -60.5 -199.5t-201.5 -58.5h-92z" />
    <glyph glyph-name="uni013C.loclMAH" horiz-adv-x="526" 
d="M367 0q-95 0 -147 47t-52 143v1264h135v-1253q0 -80 82 -80h86v-121h-104zM178 -442l101 182h-66v156h170v-142l-111 -196h-94z" />
    <glyph glyph-name="uni0146.loclMAH" horiz-adv-x="1173" 
d="M168 0v1085h123l4 -208q39 115 131 174t215 59q178 0 271.5 -115.5t93.5 -296.5v-698h-136v649q0 340 -258 340q-141 0 -225 -91.5t-84 -248.5v-649h-135zM467 -442l100 182h-65v156h170v-142l-111 -196h-94z" />
    <glyph glyph-name="a.ss01" horiz-adv-x="1126" 
d="M444 -25q-165 0 -262.5 78.5t-97.5 214.5q0 132 84.5 210.5t253.5 111.5l401 76q0 161 -69 238t-211 77q-245 0 -297 -227l-144 12q30 159 146 251.5t295 92.5q201 0 308 -114.5t107 -327.5v-668h-120l-7 195q-43 -97 -150 -158.5t-237 -61.5zM457 96q165 0 265.5 96.5
t100.5 243.5v109l-372 -70q-117 -22 -171.5 -69t-54.5 -125q0 -89 61 -137t171 -48z" />
    <glyph glyph-name="aacute.ss01" horiz-adv-x="1126" 
d="M473 1233l139 254h152l-176 -254h-115zM444 -25q-165 0 -262.5 78.5t-97.5 214.5q0 132 84.5 210.5t253.5 111.5l401 76q0 161 -69 238t-211 77q-245 0 -297 -227l-144 12q30 159 146 251.5t295 92.5q201 0 308 -114.5t107 -327.5v-668h-120l-7 195q-43 -97 -150 -158.5
t-237 -61.5zM457 96q165 0 265.5 96.5t100.5 243.5v109l-372 -70q-117 -22 -171.5 -69t-54.5 -125q0 -89 61 -137t171 -48z" />
    <glyph glyph-name="abreve.ss01" horiz-adv-x="1126" 
d="M535 1245q-119 0 -193.5 69t-83.5 185h96q10 -75 57.5 -112t123.5 -37q158 0 176 149h98q-9 -117 -82 -185.5t-192 -68.5zM444 -25q-165 0 -262.5 78.5t-97.5 214.5q0 132 84.5 210.5t253.5 111.5l401 76q0 161 -69 238t-211 77q-245 0 -297 -227l-144 12
q30 159 146 251.5t295 92.5q201 0 308 -114.5t107 -327.5v-668h-120l-7 195q-43 -97 -150 -158.5t-237 -61.5zM457 96q165 0 265.5 96.5t100.5 243.5v109l-372 -70q-117 -22 -171.5 -69t-54.5 -125q0 -89 61 -137t171 -48z" />
    <glyph glyph-name="uni01CE.ss01" horiz-adv-x="1126" 
d="M279 1499h114l142 -190l139 190h114l-182 -266h-143zM444 -25q-165 0 -262.5 78.5t-97.5 214.5q0 132 84.5 210.5t253.5 111.5l401 76q0 161 -69 238t-211 77q-245 0 -297 -227l-144 12q30 159 146 251.5t295 92.5q201 0 308 -114.5t107 -327.5v-668h-120l-7 195
q-43 -97 -150 -158.5t-237 -61.5zM457 96q165 0 265.5 96.5t100.5 243.5v109l-372 -70q-117 -22 -171.5 -69t-54.5 -125q0 -89 61 -137t171 -48z" />
    <glyph glyph-name="acircumflex.ss01" horiz-adv-x="1126" 
d="M281 1233l182 266h143l182 -266h-114l-139 190l-140 -190h-114zM444 -25q-165 0 -262.5 78.5t-97.5 214.5q0 132 84.5 210.5t253.5 111.5l401 76q0 161 -69 238t-211 77q-245 0 -297 -227l-144 12q30 159 146 251.5t295 92.5q201 0 308 -114.5t107 -327.5v-668h-120
l-7 195q-43 -97 -150 -158.5t-237 -61.5zM457 96q165 0 265.5 96.5t100.5 243.5v109l-372 -70q-117 -22 -171.5 -69t-54.5 -125q0 -89 61 -137t171 -48z" />
    <glyph glyph-name="adieresis.ss01" horiz-adv-x="1126" 
d="M299 1266v182h143v-182h-143zM625 1266v182h143v-182h-143zM444 -25q-165 0 -262.5 78.5t-97.5 214.5q0 132 84.5 210.5t253.5 111.5l401 76q0 161 -69 238t-211 77q-245 0 -297 -227l-144 12q30 159 146 251.5t295 92.5q201 0 308 -114.5t107 -327.5v-668h-120l-7 195
q-43 -97 -150 -158.5t-237 -61.5zM457 96q165 0 265.5 96.5t100.5 243.5v109l-372 -70q-117 -22 -171.5 -69t-54.5 -125q0 -89 61 -137t171 -48z" />
    <glyph glyph-name="agrave.ss01" horiz-adv-x="1126" 
d="M483 1245l-178 254h152l139 -254h-113zM444 -25q-165 0 -262.5 78.5t-97.5 214.5q0 132 84.5 210.5t253.5 111.5l401 76q0 161 -69 238t-211 77q-245 0 -297 -227l-144 12q30 159 146 251.5t295 92.5q201 0 308 -114.5t107 -327.5v-668h-120l-7 195q-43 -97 -150 -158.5
t-237 -61.5zM457 96q165 0 265.5 96.5t100.5 243.5v109l-372 -70q-117 -22 -171.5 -69t-54.5 -125q0 -89 61 -137t171 -48z" />
    <glyph glyph-name="amacron.ss01" horiz-adv-x="1126" 
d="M266 1292v119h535v-119h-535zM444 -25q-165 0 -262.5 78.5t-97.5 214.5q0 132 84.5 210.5t253.5 111.5l401 76q0 161 -69 238t-211 77q-245 0 -297 -227l-144 12q30 159 146 251.5t295 92.5q201 0 308 -114.5t107 -327.5v-668h-120l-7 195q-43 -97 -150 -158.5
t-237 -61.5zM457 96q165 0 265.5 96.5t100.5 243.5v109l-372 -70q-117 -22 -171.5 -69t-54.5 -125q0 -89 61 -137t171 -48z" />
    <glyph glyph-name="aogonek.ss01" horiz-adv-x="1126" 
d="M444 -25q-165 0 -262.5 78.5t-97.5 214.5q0 132 84.5 210.5t253.5 111.5l401 76q0 161 -69 238t-211 77q-245 0 -297 -227l-144 12q30 159 146 251.5t295 92.5q201 0 308 -114.5t107 -327.5v-668l-65 -92q-66 -98 -66 -156q0 -29 18.5 -44t49.5 -15q59 0 98 28l43 -90
q-56 -49 -159 -49q-81 0 -129 34.5t-48 102.5q0 34 19.5 80t36 71.5t55.5 82.5l35 47h-8l-7 195q-43 -97 -150 -158.5t-237 -61.5zM457 96q165 0 265.5 96.5t100.5 243.5v109l-372 -70q-117 -22 -171.5 -69t-54.5 -125q0 -89 61 -137t171 -48z" />
    <glyph glyph-name="aring.ss01" horiz-adv-x="1126" 
d="M535 1190q-75 0 -126 50t-51 124q0 75 51 124.5t126 49.5q74 0 124 -49.5t50 -124.5q0 -74 -50.5 -124t-123.5 -50zM535 1276q38 0 63 25t25 63q0 39 -24.5 63.5t-63.5 24.5q-40 0 -65.5 -24.5t-25.5 -63.5q0 -38 25.5 -63t65.5 -25zM444 -25q-165 0 -262.5 78.5
t-97.5 214.5q0 132 84.5 210.5t253.5 111.5l401 76q0 161 -69 238t-211 77q-245 0 -297 -227l-144 12q30 159 146 251.5t295 92.5q201 0 308 -114.5t107 -327.5v-668h-120l-7 195q-43 -97 -150 -158.5t-237 -61.5zM457 96q165 0 265.5 96.5t100.5 243.5v109l-372 -70
q-117 -22 -171.5 -69t-54.5 -125q0 -89 61 -137t171 -48z" />
    <glyph glyph-name="atilde.ss01" horiz-adv-x="1126" 
d="M651 1264q-74 0 -139 59q-33 32 -54 43.5t-52 11.5q-90 0 -95 -129h-88q4 105 54.5 163t128.5 58q47 0 80.5 -16t70.5 -49q57 -49 100 -49q40 0 61 30.5t27 104.5h89q-6 -107 -54.5 -167t-128.5 -60zM444 -25q-165 0 -262.5 78.5t-97.5 214.5q0 132 84.5 210.5
t253.5 111.5l401 76q0 161 -69 238t-211 77q-245 0 -297 -227l-144 12q30 159 146 251.5t295 92.5q201 0 308 -114.5t107 -327.5v-668h-120l-7 195q-43 -97 -150 -158.5t-237 -61.5zM457 96q165 0 265.5 96.5t100.5 243.5v109l-372 -70q-117 -22 -171.5 -69t-54.5 -125
q0 -89 61 -137t171 -48z" />
    <glyph glyph-name="a.ss02" horiz-adv-x="1202" 
d="M551 -25q-146 0 -251 75.5t-155.5 202t-50.5 290.5q0 162 49.5 288t154 202.5t251.5 76.5q125 0 214.5 -57t135.5 -156v188h135v-1085h-121l-6 201q-46 -106 -139.5 -166t-216.5 -60zM573 104q106 0 181.5 60.5t110.5 158t34 220.5q-1 126 -35.5 222.5t-109 156
t-181.5 59.5q-161 0 -249 -122.5t-88 -315.5q0 -123 36.5 -220.5t114 -158t186.5 -60.5z" />
    </font>
</defs>
</svg>
