<?xml version="1.0" standalone="no"?>
<!DOCTYPE svg PUBLIC "-//W3C//DTD SVG 1.1//EN" "http://www.w3.org/Graphics/SVG/1.1/DTD/svg11.dtd" >
<svg xmlns="http://www.w3.org/2000/svg" xmlns:xlink="http://www.w3.org/1999/xlink" version="1.1">
<metadata>
Created by FontForge 20201107 at Mon Nov 11 05:27:00 2024
 By 
Copyright 2024 The Geist Project Authors (https://github.com/vercel/geist-font.git)
</metadata>
<defs>
<font id="GeistMono-Regular" horiz-adv-x="1228" >
  <font-face 
    font-family="Geist Mono"
    font-weight="400"
    font-stretch="normal"
    units-per-em="2048"
    panose-1="0 0 0 0 0 0 0 0 0 0"
    ascent="1638"
    descent="-410"
    x-height="1085"
    cap-height="1454"
    bbox="-3559 -506 1339 2073"
    underline-thickness="102"
    underline-position="-255"
    unicode-range="U+0020-F8FF"
  />
<missing-glyph horiz-adv-x="1024" 
d="M102 -307v1945h820v-1945h-820zM205 -205h614v1741h-614v-1741z" />
    <glyph glyph-name=".notdef" horiz-adv-x="1024" 
d="M102 -307v1945h820v-1945h-820zM205 -205h614v1741h-614v-1741z" />
    <glyph glyph-name=".null" horiz-adv-x="0" 
 />
    <glyph glyph-name="nonmarkingreturn" horiz-adv-x="682" 
 />
    <glyph glyph-name="space" unicode=" " 
 />
    <glyph glyph-name="exclam" unicode="!" 
d="M559 428q-33 393 -33 555v471h176v-471q0 -197 -30 -555h-113zM487 0v250h254v-250h-254z" />
    <glyph glyph-name="quotedbl" unicode="&#x22;" 
d="M707 784l-9 670h183v-164l-50 -506h-124zM397 784l-49 506v164h182l-8 -670h-125z" />
    <glyph glyph-name="numbersign" unicode="#" 
d="M205 0l76 403h-179l25 144h180l66 354h-189l25 143h190l76 410h148l-76 -410h256l76 410h147l-76 -410h176l-24 -143h-178l-66 -354h186l-24 -144h-189l-75 -403h-148l76 403h-256l-76 -403h-147zM455 547h256l65 354h-256z" />
    <glyph glyph-name="dollar" unicode="$" 
d="M539 -184v159q-190 28 -311 160.5t-138 329.5l184 12q19 -133 86.5 -216t178.5 -109v501q-220 59 -317 155t-97 245q0 167 110.5 273.5t303.5 125.5v186h151v-188q182 -23 291 -141.5t131 -304.5l-184 -13q-15 114 -75 188t-163 95v-486q251 -73 350 -166.5t99 -265.5
q0 -161 -124 -267t-325 -120v-153h-151zM309 1061q0 -86 48.5 -133.5t181.5 -91.5v442q-107 -14 -168.5 -70.5t-61.5 -146.5zM954 360q0 46 -10.5 79t-39.5 63.5t-80.5 56t-133.5 51.5v-469q129 9 196.5 65.5t67.5 153.5z" />
    <glyph glyph-name="percent" unicode="%" 
d="M315 750q-128 0 -211.5 95.5t-83.5 264.5t83.5 264.5t211.5 95.5t211.5 -95.5t83.5 -264.5t-83.5 -264.5t-211.5 -95.5zM100 0l873 1454h155l-872 -1454h-156zM315 877q68 0 108 62t40 171t-40 171t-108 62t-107.5 -62t-39.5 -171t39.5 -171t107.5 -62zM913 -16
q-128 0 -211.5 95.5t-83.5 264.5t83.5 265t211.5 96t211.5 -96t83.5 -265t-83.5 -264.5t-211.5 -95.5zM913 111q68 0 108 62t40 171t-40 171.5t-108 62.5t-107.5 -62t-39.5 -172q0 -109 39.5 -171t107.5 -62z" />
    <glyph glyph-name="ampersand" unicode="&#x26;" 
d="M492 -33q-211 0 -331 101.5t-120 287.5q0 140 62 238t225 213q-78 102 -113 177.5t-35 166.5q0 157 95.5 246.5t261.5 89.5q162 0 251 -82.5t89 -228.5q0 -116 -69.5 -209t-234.5 -203l332 -424q74 103 74 311l172 -16q-1 -122 -38.5 -236.5t-98.5 -187.5l174 -211h-207
l-76 92q-132 -125 -413 -125zM479 889q117 72 165 134t48 140q0 73 -40.5 112.5t-114.5 39.5q-81 0 -126.5 -43.5t-45.5 -120.5q0 -64 25 -121.5t89 -140.5zM512 131q197 0 279 86l-361 455q-111 -77 -158 -149t-47 -167q0 -107 70.5 -166t216.5 -59z" />
    <glyph glyph-name="quotesingle" unicode="'" 
d="M553 784l-29 514v156h181v-156l-29 -514h-123z" />
    <glyph glyph-name="parenleft" unicode="(" 
d="M680 -225q-285 429 -285 880q0 452 285 881h154q-261 -445 -261 -881q0 -432 261 -880h-154z" />
    <glyph glyph-name="parenright" unicode=")" 
d="M549 -225h-154q260 446 260 880q0 438 -260 881h154q285 -429 285 -881q0 -451 -285 -880z" />
    <glyph glyph-name="asterisk" unicode="*" 
d="M479 782l-106 70l137 209h-244v131h244l-137 209l106 69l135 -219l138 219l106 -69l-139 -209h244v-131h-244l139 -209l-106 -70l-138 217z" />
    <glyph glyph-name="plus" unicode="+" 
d="M125 524v160h410v410h159v-410h410v-160h-410v-409h-159v409h-410z" />
    <glyph glyph-name="comma" unicode="," 
d="M506 -319l96 319h-110v250h245v-221l-129 -348h-102z" />
    <glyph glyph-name="hyphen" unicode="-" 
d="M287 516v162h655v-162h-655z" />
    <glyph glyph-name="period" unicode="." 
d="M487 0v250h254v-250h-254z" />
    <glyph glyph-name="slash" unicode="/" 
d="M221 -225l623 1761h164l-623 -1761h-164z" />
    <glyph glyph-name="zero" unicode="0" 
d="M614 -33q-237 0 -374.5 204t-137.5 554q0 352 137.5 557t374.5 205t374.5 -205t137.5 -557q0 -350 -137.5 -554t-374.5 -204zM287 725q0 -203 51 -348l467 850q-79 88 -191 88q-152 0 -239.5 -159t-87.5 -431zM614 139q152 0 240 158.5t88 427.5q0 208 -51 350l-467 -848
q79 -88 190 -88z" />
    <glyph glyph-name="one" unicode="1" 
d="M123 0v172h459v905h-381v152h196q117 0 167 51t50 174h144v-1282h348v-172h-983z" />
    <glyph glyph-name="two" unicode="2" 
d="M102 0q0 120 26 214t89 184.5t171 173.5t271 169q159 84 220 149t61 171q0 116 -75 185t-216 69q-152 0 -241 -79t-113 -228l-184 12q25 217 165 342t373 125q221 0 348 -116t127 -306q0 -164 -85 -267t-314 -225q-190 -101 -295 -207.5t-111 -193.5h807v-172h-1024z" />
    <glyph glyph-name="three" unicode="3" 
d="M602 -33q-230 0 -360.5 111.5t-139.5 296.5l183 12q11 -128 95 -188t222 -60q69 0 128 14.5t107.5 44.5t76.5 83.5t28 124.5q0 139 -90.5 209.5t-239.5 70.5h-114v172h114q124 0 201.5 55t77.5 172q0 112 -72 171t-207 59q-264 0 -293 -207l-184 12q21 167 145.5 267
t331.5 100q213 0 338 -106t125 -287q0 -235 -252 -312q142 -38 222.5 -137.5t80.5 -238.5q0 -205 -145.5 -322t-378.5 -117z" />
    <glyph glyph-name="four" unicode="4" 
d="M795 0v315h-713v160l700 979h189v-967h176v-172h-176v-315h-176zM262 487h533v721z" />
    <glyph glyph-name="five" unicode="5" 
d="M610 -33q-210 0 -341 112t-146 296l184 12q15 -121 95 -184.5t208 -63.5q142 0 227 88t85 240q0 154 -82 243t-226 89q-89 0 -166.5 -43.5t-111.5 -118.5h-189l97 817h774v-172h-612l-54 -438q52 59 129.5 91t157.5 32q208 0 337.5 -140t129.5 -360q0 -219 -139.5 -359.5
t-356.5 -140.5z" />
    <glyph glyph-name="six" unicode="6" 
d="M618 -33q-247 0 -381.5 168t-134.5 479q0 149 18 275.5t60.5 238.5t107.5 190t163.5 123.5t224.5 45.5q354 0 450 -344l-184 -17q-26 92 -89 140.5t-177 48.5q-168 0 -267.5 -131.5t-121.5 -390.5q55 84 149.5 135t214.5 51q215 0 345 -136t130 -360q0 -237 -140 -376.5
t-368 -139.5zM623 139q145 0 232 91.5t87 252.5q0 150 -83 239t-220 89q-150 0 -247 -90t-97 -238q0 -153 89.5 -248.5t238.5 -95.5z" />
    <glyph glyph-name="seven" unicode="7" 
d="M393 0q0 334 136.5 666t383.5 616h-790v172h983v-160q-276 -314 -400 -620t-124 -674h-189z" />
    <glyph glyph-name="eight" unicode="8" 
d="M614 -33q-225 0 -368.5 113.5t-143.5 318.5q0 138 74.5 237t206.5 146q-211 87 -211 305q0 173 124.5 286.5t317.5 113.5t318 -114t125 -286q0 -218 -211 -305q132 -47 206 -145.5t74 -237.5q0 -205 -143.5 -318.5t-368.5 -113.5zM614 854q120 0 189 59.5t69 173.5
q0 105 -69 166.5t-189 61.5t-189 -61.5t-69 -166.5q0 -114 69 -173.5t189 -59.5zM614 139q149 0 238.5 69t89.5 202q0 130 -84 205t-244 75q-159 0 -243 -75t-84 -205q0 -133 89 -202t238 -69z" />
    <glyph glyph-name="nine" unicode="9" 
d="M610 1487q247 0 381.5 -168t134.5 -479q0 -149 -18 -275.5t-60 -238.5t-107 -190t-163.5 -123.5t-224.5 -45.5q-355 0 -451 344l185 17q26 -92 89 -140.5t177 -48.5q168 0 267.5 131.5t121.5 391.5q-55 -84 -150 -135.5t-214 -51.5q-215 0 -345.5 136t-130.5 360
q0 237 140 376.5t368 139.5zM606 1315q-145 0 -232 -91.5t-87 -252.5q0 -150 83 -239t220 -89q150 0 247 90t97 238q0 153 -89.5 248.5t-238.5 95.5z" />
    <glyph glyph-name="colon" unicode=":" 
d="M487 791v249h254v-249h-254zM487 0v250h254v-250h-254z" />
    <glyph glyph-name="semicolon" unicode=";" 
d="M487 791v249h254v-249h-254zM506 -319l96 319h-110v250h245v-221l-129 -348h-102z" />
    <glyph glyph-name="less" unicode="&#x3c;" 
d="M1081 68l-934 415v217l934 416v-176l-780 -348l780 -348v-176z" />
    <glyph glyph-name="equal" unicode="=" 
d="M164 745v160h901v-160h-901zM164 322v159h901v-159h-901z" />
    <glyph glyph-name="greater" unicode="&#x3e;" 
d="M147 68v176l781 348l-781 348v176l934 -416v-217z" />
    <glyph glyph-name="question" unicode="?" 
d="M520 412q0 146 46 233t153 154q118 72 154 124t36 146q0 108 -71 177t-193 69q-295 0 -326 -303l-184 12q19 207 154.5 335t355.5 128q199 0 324 -117t125 -301q0 -124 -58.5 -205t-197.5 -172q-83 -54 -112.5 -113t-29.5 -167h-176zM481 0v250h254v-250h-254z" />
    <glyph glyph-name="at" unicode="@" 
d="M877 -143q-163 -82 -316 -82q-116 0 -209.5 42.5t-164 128.5t-108.5 227t-38 329q0 232 48 415t134 299.5t201 177t252 60.5q164 0 281 -86.5t174 -236t57 -349.5q0 -145 -15 -255t-40.5 -180t-63.5 -113.5t-79.5 -60.5t-92.5 -17q-60 0 -105.5 48.5t-66.5 129.5
q-32 -82 -87.5 -126t-125.5 -44q-102 0 -159.5 94.5t-57.5 257.5q0 133 40.5 250t111 188.5t153.5 71.5q55 0 95 -28t55 -74l12 100h143q-4 -35 -12.5 -114.5t-11.5 -109.5t-9.5 -89t-8.5 -86.5t-5.5 -66.5t-4.5 -64.5t-1 -47.5q0 -72 19.5 -111.5t50.5 -39.5
q59 0 90.5 110.5t31.5 366.5q0 258 -92 398.5t-284 140.5q-103 0 -190 -50.5t-153 -148t-103.5 -253.5t-37.5 -355q0 -299 99 -444.5t282 -145.5q120 0 258 78zM561 291q43 0 81.5 54.5t61.5 145.5t23 193q0 203 -109 203q-44 0 -82 -50t-59.5 -132t-21.5 -173
q0 -113 27 -177t79 -64z" />
    <glyph glyph-name="A" unicode="A" 
d="M53 0l443 1454h237l443 -1454h-189l-119 414h-508l-118 -414h-189zM614 1294l-204 -708h409z" />
    <glyph glyph-name="B" unicode="B" 
d="M184 0v1454h410q236 0 359.5 -104.5t123.5 -292.5q0 -118 -72 -201.5t-192 -105.5q153 -20 239.5 -111.5t86.5 -232.5q0 -189 -132 -297.5t-362 -108.5h-461zM360 825h242q291 0 291 228q0 229 -291 229h-242v-457zM360 172h287q154 0 230.5 60.5t76.5 173.5
q0 118 -79 182.5t-228 64.5h-287v-481z" />
    <glyph glyph-name="C" unicode="C" 
d="M618 -33q-258 0 -399 202.5t-141 555.5q0 356 141 559t399 203q193 0 327.5 -126t180.5 -351l-188 -13q-35 154 -119.5 236t-200.5 82q-173 0 -264.5 -153t-91.5 -437q0 -282 91.5 -434t264.5 -152q128 0 216 89.5t118 260.5l187 -10q-40 -240 -178 -376t-343 -136z" />
    <glyph glyph-name="D" unicode="D" 
d="M184 0v1454h344q287 0 455 -191.5t168 -537.5q0 -345 -168 -535t-455 -190h-344zM360 172h158q215 0 332 140t117 413t-117 415t-332 142h-158v-1110z" />
    <glyph glyph-name="E" unicode="E" 
d="M184 0v1454h885v-172h-709v-469h684v-168h-684v-473h725v-172h-901z" />
    <glyph glyph-name="F" unicode="F" 
d="M205 0v1454h901v-168h-725v-491h688v-168h-688v-627h-176z" />
    <glyph glyph-name="G" unicode="G" 
d="M610 -33q-238 0 -385 197t-147 561q0 354 143 558t397 204q194 0 327.5 -127.5t182.5 -339.5l-184 -12q-37 142 -119.5 224.5t-206.5 82.5q-170 0 -263 -153.5t-93 -436.5q0 -280 95.5 -433t269.5 -153q153 0 245.5 118t98.5 310h-348v168h512v-735h-164l-4 201
q-113 -234 -357 -234z" />
    <glyph glyph-name="H" unicode="H" 
d="M123 0v1454h176v-637h631v637h176v-1454h-176v645h-631v-645h-176z" />
    <glyph glyph-name="I" unicode="I" 
d="M164 0v172h362v1110h-362v172h901v-172h-363v-1110h363v-172h-901z" />
    <glyph glyph-name="J" unicode="J" 
d="M563 -33q-215 0 -345 136.5t-136 367.5l172 16q6 -177 81.5 -262.5t227.5 -85.5q305 0 305 348v967h176v-967q0 -241 -129 -380.5t-352 -139.5z" />
    <glyph glyph-name="K" unicode="K" 
d="M123 0v1454h176v-729l610 729h217l-546 -639l567 -815h-217l-467 678l-164 -191v-487h-176z" />
    <glyph glyph-name="L" unicode="L" 
d="M205 0v1454h176v-1282h725v-172h-901z" />
    <glyph glyph-name="M" unicode="M" 
d="M537 164l-258 1059v-1223h-177v1454h267l245 -1026l246 1026h266v-1454h-176v1223l-258 -1059h-155z" />
    <glyph glyph-name="N" unicode="N" 
d="M143 0v1454h250l516 -1253v1253h176v-1454h-249l-517 1253v-1253h-176z" />
    <glyph glyph-name="O" unicode="O" 
d="M614 -33q-258 0 -397 197t-139 561q0 367 139 564.5t397 197.5t397.5 -197.5t139.5 -564.5q0 -364 -139.5 -561t-397.5 -197zM614 139q170 0 261.5 151t91.5 435q0 285 -92 437.5t-261 152.5t-260.5 -152.5t-91.5 -437.5t91.5 -435.5t260.5 -150.5z" />
    <glyph glyph-name="P" unicode="P" 
d="M184 0v1454h443q229 0 364 -118t135 -326t-135 -326.5t-364 -118.5h-267v-565h-176zM360 737h246q336 0 336 273q0 272 -336 272h-246v-545z" />
    <glyph glyph-name="Q" unicode="Q" 
d="M614 -33q-258 0 -397 197t-139 561q0 367 139 564.5t397 197.5t397.5 -197.5t139.5 -564.5q0 -468 -227 -655l145 -211h-188l-93 135q-80 -27 -174 -27zM614 139q36 0 70 6l-192 281h188l141 -205q146 143 146 504q0 285 -92 437.5t-261 152.5t-260.5 -152.5
t-91.5 -437.5t91.5 -435.5t260.5 -150.5z" />
    <glyph glyph-name="R" unicode="R" 
d="M143 0v1454h443q229 0 362 -116t133 -318q0 -123 -71 -215.5t-174 -126.5q105 -20 158 -82t63 -178l37 -418h-176l-35 395q-9 104 -65.5 147.5t-194.5 43.5h-304v-586h-176zM319 758h267q150 0 230.5 68t80.5 194t-80.5 194t-230.5 68h-267v-524z" />
    <glyph glyph-name="S" unicode="S" 
d="M637 -33q-229 0 -378.5 137.5t-168.5 360.5l184 12q22 -162 117.5 -250t249.5 -88q152 0 232.5 57.5t80.5 163.5q0 74 -31 123t-120 95t-256 94q-232 66 -327 153.5t-95 247.5q0 185 130.5 299.5t352.5 114.5q217 0 347.5 -127.5t156.5 -335.5l-184 -12q-20 139 -101 221
t-223 82q-134 0 -214.5 -64.5t-80.5 -169.5q0 -101 69 -151.5t279 -110.5q266 -75 374 -178.5t108 -284.5q0 -172 -140 -280.5t-362 -108.5z" />
    <glyph glyph-name="T" unicode="T" 
d="M526 0v1282h-444v172h1065v-172h-445v-1282h-176z" />
    <glyph glyph-name="U" unicode="U" 
d="M614 -33q-228 0 -359.5 145t-131.5 396v946h176v-946q0 -180 80.5 -274.5t234.5 -94.5t235 94.5t81 274.5v946h176v-946q0 -251 -131.5 -396t-360.5 -145z" />
    <glyph glyph-name="V" unicode="V" 
d="M500 0l-439 1454h189l364 -1255l365 1255h188l-438 -1454h-229z" />
    <glyph glyph-name="W" unicode="W" 
d="M221 0l-160 1454h185l127 -1264l147 1100h189l147 -1100l127 1264h184l-159 -1454h-267l-127 961l-127 -961h-266z" />
    <glyph glyph-name="X" unicode="X" 
d="M102 0l402 731l-393 723h204l301 -584l302 584h200l-393 -725l401 -729h-204l-310 592l-309 -592h-201z" />
    <glyph glyph-name="Y" unicode="Y" 
d="M528 0v594l-446 860h201l331 -680l332 680h201l-442 -860v-594h-177z" />
    <glyph glyph-name="Z" unicode="Z" 
d="M102 0v176l811 1106h-774v172h971v-176l-811 -1106h827v-172h-1024z" />
    <glyph glyph-name="bracketleft" unicode="[" 
d="M860 -225h-491v1761h491v-143h-328v-1475h328v-143z" />
    <glyph glyph-name="backslash" unicode="\" 
d="M1008 -225h-164l-623 1761h164z" />
    <glyph glyph-name="bracketright" unicode="]" 
d="M369 -225v143h327v1475h-327v143h491v-1761h-491z" />
    <glyph glyph-name="asciicircum" unicode="^" 
d="M260 784l246 594h217l246 -594h-168l-187 441l-186 -441h-168z" />
    <glyph glyph-name="underscore" unicode="_" 
d="M164 -160v160h901v-160h-901z" />
    <glyph glyph-name="grave" unicode="`" 
d="M635 1229l-184 262h192l135 -262h-143z" />
    <glyph glyph-name="a" unicode="a" 
d="M471 -25q-155 0 -257.5 82t-102.5 213q0 137 82 215t262 113l364 74q0 137 -61.5 205.5t-179.5 68.5q-214 0 -265 -194l-182 14q31 157 148.5 250.5t298.5 93.5q195 0 304 -117.5t109 -324.5v-451q0 -36 15.5 -50.5t50.5 -14.5h69v-152q-32 -4 -90 -4q-90 0 -142 38
t-69 120q-45 -80 -141.5 -129.5t-212.5 -49.5zM487 127q162 0 247 82t85 221v94l-332 -65q-107 -21 -151.5 -62t-44.5 -110q0 -76 51.5 -118t144.5 -42z" />
    <glyph glyph-name="b" unicode="b" 
d="M682 -25q-114 0 -202 50t-134 139l-6 -164h-156v1454h172v-520q43 73 130.5 124.5t195.5 51.5q215 0 340 -153t125 -414t-125 -414.5t-340 -153.5zM672 139q136 0 215.5 109t79.5 295q0 188 -78.5 295.5t-212.5 107.5q-151 0 -235.5 -107t-84.5 -296q0 -187 84.5 -295.5
t231.5 -108.5z" />
    <glyph glyph-name="c" unicode="c" 
d="M643 -25q-227 0 -363.5 155t-136.5 413t136.5 412.5t363.5 154.5q182 0 301.5 -98t153.5 -279l-180 -12q-25 107 -97.5 166t-177.5 59q-150 0 -234.5 -107t-84.5 -296t84.5 -296.5t234.5 -107.5q107 0 183 63t100 183l180 -12q-34 -183 -158 -290.5t-305 -107.5z" />
    <glyph glyph-name="d" unicode="d" 
d="M547 -25q-215 0 -340 153.5t-125 414.5t125 414t340 153q107 0 194.5 -51.5t130.5 -124.5v520h172v-1454h-155l-6 164q-46 -89 -134 -139t-202 -50zM557 139q147 0 231 108.5t84 295.5q0 189 -84.5 296t-234.5 107q-134 0 -212.5 -107.5t-78.5 -295.5q0 -186 79.5 -295
t215.5 -109z" />
    <glyph glyph-name="e" unicode="e" 
d="M633 -25q-229 0 -363.5 154.5t-134.5 413.5q0 258 133 412.5t357 154.5q217 0 349 -150.5t132 -418.5v-52h-791q9 -172 92 -261t226 -89q103 0 172 48.5t98 134.5l184 -15q-44 -150 -165 -241t-289 -91zM315 641h603q-12 152 -90 228.5t-203 76.5q-127 0 -207.5 -78
t-102.5 -227z" />
    <glyph glyph-name="f" unicode="f" 
d="M434 0v934h-291v151h291v70q0 299 303 299h348v-151h-348q-63 0 -97 -39.5t-34 -108.5v-70h459v-151h-459v-934h-172z" />
    <glyph glyph-name="g" unicode="g" 
d="M608 -332q-174 0 -297 86.5t-157 229.5l180 12q26 -81 90 -122.5t184 -41.5q149 0 227 59.5t78 178.5v176q-40 -86 -125.5 -137.5t-191.5 -51.5q-207 0 -340 148t-133 379q0 232 130.5 379t334.5 147q115 0 206 -53.5t128 -143.5v172h163v-1011q0 -191 -126.5 -298.5
t-350.5 -107.5zM604 221q140 0 224 98t85 265q3 166 -82 264t-227 98t-221.5 -97t-79.5 -265q0 -167 81 -265t220 -98z" />
    <glyph glyph-name="h" unicode="h" 
d="M205 0v1454h172v-539q40 97 125.5 146t199.5 49q171 0 267 -113t96 -299v-698h-172v649q0 309 -227 309q-133 0 -211 -81.5t-78 -229.5v-647h-172z" />
    <glyph glyph-name="i" unicode="i" 
d="M584 1255v201h180v-201h-180zM164 0v152h436v782h-416v151h588v-933h375v-152h-983z" />
    <glyph glyph-name="j" unicode="j" 
d="M719 1255v201h180v-201h-180zM225 -307v151h344q83 0 121.5 36.5t38.5 131.5v922h-483v151h655v-1085q0 -152 -75.5 -229.5t-235.5 -77.5h-365z" />
    <glyph glyph-name="k" unicode="k" 
d="M184 0v1454h172v-952l529 583h229l-428 -460l449 -625h-209l-357 508l-213 -225v-283h-172z" />
    <glyph glyph-name="l" unicode="l" 
d="M123 0v152h436v1011q0 66 -36.5 103t-102.5 37h-256v151h264q149 0 226 -77t77 -226v-999h375v-152h-983z" />
    <glyph glyph-name="m" unicode="m" 
d="M82 0v1085h158l4 -159q28 87 83.5 135.5t131.5 48.5q167 0 205 -215q27 101 87.5 158t145.5 57q132 0 191 -90.5t59 -298.5v-721h-172v696q0 142 -30.5 202t-96.5 60q-68 0 -108 -66.5t-40 -199.5v-692h-172v696q0 138 -30 200t-97 62t-107 -66.5t-40 -199.5v-692h-172z
" />
    <glyph glyph-name="n" unicode="n" 
d="M172 0v1085h158l4 -194q43 108 135.5 163.5t210.5 55.5q179 0 278 -116t99 -296v-698h-172v649q0 309 -242 309q-131 0 -215 -81.5t-84 -227.5v-649h-172z" />
    <glyph glyph-name="o" unicode="o" 
d="M614 -25q-226 0 -360.5 154.5t-134.5 413.5t134.5 413t360.5 154q225 0 360.5 -154t135.5 -413t-135.5 -413.5t-360.5 -154.5zM614 139q149 0 232.5 107.5t83.5 296.5t-83.5 296t-232.5 107q-150 0 -232.5 -106.5t-82.5 -296.5t82.5 -297t232.5 -107z" />
    <glyph glyph-name="p" unicode="p" 
d="M164 -307v1392h160l2 -174q49 96 135.5 147.5t197.5 51.5q118 0 209 -46t146.5 -126t83.5 -180t28 -215t-28 -215.5t-83.5 -180.5t-146.5 -126t-209 -46q-106 0 -193 45t-130 123v-450h-172zM643 139q141 0 222 107t81 297t-80.5 296.5t-222.5 106.5
q-144 0 -225.5 -103.5t-81.5 -299.5q0 -197 81 -300.5t226 -103.5z" />
    <glyph glyph-name="q" unicode="q" 
d="M1065 -307h-172v450q-43 -78 -130.5 -123t-193.5 -45q-118 0 -209 46t-146.5 126t-83.5 180.5t-28 215.5t28 215t83.5 180t146.5 126t209 46q111 0 198 -51.5t136 -147.5l2 174h160v-1392zM586 139q145 0 226 103.5t81 300.5q0 196 -81.5 299.5t-225.5 103.5
q-142 0 -222.5 -106.5t-80.5 -296.5t81 -297t222 -107z" />
    <glyph glyph-name="r" unicode="r" 
d="M184 0v152h283v782h-283v151h426l13 -208q55 208 260 208h223v-155h-221q-120 0 -183 -70.5t-63 -204.5v-503h344v-152h-799z" />
    <glyph glyph-name="s" unicode="s" 
d="M635 -25q-206 0 -332.5 104t-138.5 263l180 12q15 -103 89.5 -159t201.5 -56q254 0 254 144q0 49 -22.5 78t-83.5 51t-181 43q-156 27 -246 71t-126.5 104.5t-36.5 151.5q0 145 108.5 236.5t302.5 91.5q190 0 301.5 -98t138.5 -250l-180 -12q-19 89 -87 142.5t-175 53.5
q-115 0 -174 -45.5t-59 -118.5q0 -80 57.5 -115t212.5 -61q167 -27 260 -69t129.5 -101t36.5 -153q0 -142 -120.5 -225t-309.5 -83z" />
    <glyph glyph-name="t" unicode="t" 
d="M774 0q-159 0 -236 73.5t-77 225.5v635h-359v151h359v254h172v-254h432v-151h-432v-635q0 -75 34.5 -111t106.5 -36h291v-152h-291z" />
    <glyph glyph-name="u" unicode="u" 
d="M539 -25q-163 0 -259 110t-96 302v698h172v-651q0 -158 56.5 -232.5t173.5 -74.5q128 0 201 82.5t73 228.5v647h172v-1085h-164v176q-45 -97 -129 -149t-200 -52z" />
    <glyph glyph-name="v" unicode="v" 
d="M506 0l-404 1085h189l323 -909l324 909h188l-403 -1085h-217z" />
    <glyph glyph-name="w" unicode="w" 
d="M256 0l-215 1085h188l142 -905l159 754h168l160 -754l141 905h189l-213 -1085h-217l-144 684l-143 -684h-215z" />
    <glyph glyph-name="x" unicode="x" 
d="M111 0l399 557l-379 528h201l284 -409l279 409h205l-377 -532l395 -553h-200l-302 438l-301 -438h-204z" />
    <glyph glyph-name="y" unicode="y" 
d="M283 -307v151h125q55 0 83 17t44 57l38 102h-59l-403 1065h188l330 -905l309 905h188l-440 -1222q-31 -89 -92.5 -129.5t-169.5 -40.5h-141z" />
    <glyph glyph-name="z" unicode="z" 
d="M168 0v172l688 762h-668v151h856v-172l-688 -761h705v-152h-893z" />
    <glyph glyph-name="braceleft" unicode="{" 
d="M838 -236q-161 0 -255 97.5t-94 255.5v170q0 133 -54.5 205.5t-155.5 72.5v170q101 0 155.5 73t54.5 206v170q0 157 94 254.5t255 97.5h112v-160q-162 6 -229.5 -37t-67.5 -151v-189q0 -146 -64 -234.5t-165 -111.5v-2q102 -23 165.5 -113t63.5 -237v-188
q0 -106 67.5 -149.5t229.5 -39.5v-160h-112z" />
    <glyph glyph-name="bar" unicode="|" 
d="M532 -225v1761h164v-1761h-164z" />
    <glyph glyph-name="braceright" unicode="}" 
d="M391 -236h-112v160q162 -4 229 39.5t67 149.5v188q0 147 64 237t166 113v2q-101 23 -165.5 111.5t-64.5 234.5v189q0 108 -67 151t-229 37v160h112q161 0 254.5 -97t93.5 -255v-170q0 -132 55 -205.5t156 -73.5v-170q-101 0 -156 -73t-55 -205v-170q0 -158 -94 -255.5
t-254 -97.5z" />
    <glyph glyph-name="asciitilde" unicode="~" 
d="M801 483q-70 0 -113.5 26.5t-107.5 102.5q-61 74 -86 92.5t-60 18.5q-110 0 -110 -219h-162q0 167 74 272t192 105q74 0 119.5 -28.5t103.5 -102.5q54 -69 81 -89t67 -20q53 0 80.5 56t27.5 163h162q0 -169 -74 -273t-194 -104z" />
    <glyph glyph-name="uni00A0" unicode="&#xa0;" 
 />
    <glyph glyph-name="exclamdown" unicode="&#xa1;" 
d="M487 1122h254v-250h-254v250zM559 694h113q30 -358 30 -555v-471h-176v471q0 162 33 555z" />
    <glyph glyph-name="cent" unicode="&#xa2;" 
d="M463 -25l18 205q-162 48 -255 192t-93 355q0 241 119.5 393t322.5 172l17 195h143l-16 -199q148 -22 243.5 -117t124.5 -253l-180 -13q-20 87 -72.5 143.5t-129.5 73.5l-68 -798q106 2 180 64.5t98 180.5l181 -12q-34 -182 -158 -289.5t-305 -107.5h-10l-17 -185h-143z
M313 727q0 -139 47.5 -236.5t135.5 -138.5l65 772q-118 -25 -183 -129t-65 -268z" />
    <glyph glyph-name="sterling" unicode="&#xa3;" 
d="M94 0v168q117 70 178.5 171.5t61.5 229.5q0 22 -8 80h-232v152h197q-60 182 -60 282q0 172 123.5 288t309.5 116q110 0 197 -29t142 -80.5t87.5 -114.5t44.5 -137l-205 -14q-25 98 -95 150.5t-163 52.5q-116 0 -187 -72.5t-71 -187.5q0 -79 53 -254h364v-152h-339
q0 -190 -48.5 -298.5t-173.5 -172.5h840v-178h-1016z" />
    <glyph glyph-name="currency" unicode="&#xa4;" 
d="M182 227l-114 113l190 190q-76 110 -76 242q0 131 76 244l-190 190l114 113l191 -189q110 74 241 74q132 0 242 -74l191 189l114 -113l-190 -190q76 -113 76 -244q0 -132 -76 -242l190 -190l-114 -113l-189 189q-113 -76 -244 -76q-130 0 -243 76zM614 483
q118 0 203.5 85t85.5 204t-85.5 204t-203.5 85q-120 0 -204 -84.5t-84 -204.5t84 -204.5t204 -84.5z" />
    <glyph glyph-name="yen" unicode="&#xa5;" 
d="M160 293v160h368v141l-2 2h-366v160h284l-362 698h201l331 -680l332 680h201l-359 -698h285v-160h-366l-2 -2v-141h368v-160h-368v-293h-177v293h-368z" />
    <glyph glyph-name="brokenbar" unicode="&#xa6;" 
d="M535 809v727h159v-727h-159zM535 -225v727h159v-727h-159z" />
    <glyph glyph-name="section" unicode="&#xa7;" 
d="M635 -131q-204 0 -330 102t-141 265l178 12q15 -101 89 -158t204 -57q133 0 190.5 39t57.5 112q0 65 -69 111.5t-226 79.5q-209 44 -299 115.5t-90 189.5q0 179 192 262q-188 83 -188 229q0 144 116 230t306 86q184 0 299.5 -92t138.5 -256l-176 -13q-17 94 -90.5 145.5
t-190.5 51.5q-96 0 -158.5 -40.5t-62.5 -102.5q0 -63 54 -99.5t206 -76.5q240 -64 330 -137t90 -208q0 -162 -172 -229q87 -42 127.5 -103.5t40.5 -154.5q0 -132 -120 -217.5t-306 -85.5zM694 508q95 0 152 44t57 116q0 48 -30 86t-79.5 60t-107 33t-117.5 11
q-85 0 -146 -47t-61 -113q0 -80 78.5 -135t253.5 -55z" />
    <glyph glyph-name="dieresis" unicode="&#xa8;" 
d="M328 1255v201h180v-201h-180zM721 1255v201h180v-201h-180z" />
    <glyph glyph-name="copyright" unicode="&#xa9;" 
d="M612 -25q-175 0 -310.5 96t-208.5 268t-73 392t73 392t208.5 268t310.5 96q176 0 312 -96t210 -268t74 -392t-74 -392t-210 -268t-312 -96zM612 102q212 0 336.5 172t124.5 457q0 286 -124.5 457.5t-336.5 171.5t-334 -171t-122 -458q0 -286 122 -457.5t334 -171.5z
M614 295q-154 0 -251 121.5t-97 312.5q0 190 97.5 312t250.5 122q132 0 228.5 -84.5t111.5 -224.5l-141 -10q-12 87 -64 132.5t-135 45.5q-99 0 -152.5 -79t-53.5 -214t53.5 -214t152.5 -79q84 0 138 50t67 145l142 -10q-18 -149 -115 -237.5t-232 -88.5z" />
    <glyph glyph-name="ordfeminine" unicode="&#xaa;" 
d="M504 770q-109 0 -173.5 48.5t-64.5 135.5q0 172 221 217l228 46q0 68 -33 103.5t-94 35.5q-111 0 -133 -103l-176 9q19 108 99.5 166.5t209.5 58.5q147 0 223 -73t76 -210v-256q0 -27 9 -38t28 -11h22v-123q-24 -6 -63 -6q-133 0 -148 123q-26 -55 -86 -89t-145 -34z
M532 891q81 0 132 45t51 119v47l-170 -37q-103 -23 -103 -96q0 -37 23 -57.5t67 -20.5z" />
    <glyph glyph-name="guillemotleft" unicode="&#xab;" 
d="M655 156h-211l-280 333v152l280 334h211l-348 -410zM1065 156h-211l-281 333v152l281 334h211l-348 -410z" />
    <glyph glyph-name="logicalnot" unicode="&#xac;" 
d="M893 135v361h-709v151h860v-512h-151z" />
    <glyph glyph-name="registered" unicode="&#xae;" 
d="M616 367q-153 0 -281.5 75.5t-203 204.5t-74.5 281t74.5 280.5t203 203.5t281.5 75q152 0 280 -75t201.5 -203.5t73.5 -280.5t-73.5 -281t-201.5 -204.5t-280 -75.5zM616 477q191 0 314 131.5t123 319.5q0 123 -54.5 225t-155 162.5t-227.5 60.5q-193 0 -316.5 -130
t-123.5 -318q0 -123 54.5 -225.5t156 -164t229.5 -61.5zM393 621v610h203q118 0 185 -49.5t67 -137.5q0 -64 -35 -108.5t-98 -61.5l157 -253h-129l-141 239h-94v-239h-115zM508 954h104q59 0 92 26t33 69q0 41 -32.5 63.5t-92.5 22.5h-104v-181z" />
    <glyph glyph-name="macron" unicode="&#xaf;" 
d="M340 1280v147h549v-147h-549z" />
    <glyph glyph-name="degree" unicode="&#xb0;" 
d="M614 840q-133 0 -228 93t-95 230t95 230.5t228 93.5t228.5 -93.5t95.5 -230.5t-95.5 -230t-228.5 -93zM614 991q72 0 122 48.5t50 123.5q0 76 -50.5 126t-121.5 50t-121.5 -50t-50.5 -126q0 -75 50 -123.5t122 -48.5z" />
    <glyph glyph-name="plusminus" unicode="&#xb1;" 
d="M535 217v389h-390v160h390v389h159v-389h389v-160h-389v-389h-159zM145 0v152h938v-152h-938z" />
    <glyph glyph-name="uni00B2" unicode="&#xb2;" 
d="M340 662q0 56 4 94.5t16 79t34 71.5t59 62t90 61l106 60q61 33 83 63.5t22 87.5q0 51 -35.5 81t-87.5 30q-73 0 -111 -36t-47 -110l-131 6q12 120 86 189t203 69q117 0 187.5 -63.5t70.5 -165.5q0 -91 -48.5 -148t-148.5 -110l-84 -45q-116 -64 -116 -158h389v-118h-541z
" />
    <glyph glyph-name="uni00B3" unicode="&#xb3;" 
d="M614 645q-150 0 -215.5 58.5t-72.5 164.5l131 6q10 -110 157 -110q74 0 115 33.5t41 91.5q0 61 -40.5 96t-125.5 35h-51v117h51q59 0 93 26.5t34 77.5q0 49 -32.5 79t-94.5 30q-60 0 -95 -28.5t-40 -72.5l-131 8q13 94 82 153.5t184 59.5q126 0 193 -59t67 -158
q0 -68 -34 -107.5t-103 -60.5q176 -43 176 -198q0 -111 -81.5 -176.5t-207.5 -65.5z" />
    <glyph glyph-name="acute" unicode="&#xb4;" 
d="M451 1229l135 262h192l-184 -262h-143z" />
    <glyph glyph-name="uni00B5" unicode="&#xb5;" 
d="M190 -307v1392h172v-647q0 -311 224 -311q130 0 205 84t75 227v647h172v-1085h-164v180q-38 -95 -115.5 -150t-172.5 -55q-77 0 -137.5 34.5t-86.5 94.5v-411h-172z" />
    <glyph glyph-name="paragraph" unicode="&#xb6;" 
d="M553 0v627q-170 0 -279.5 113t-109.5 300t114 300.5t285 113.5h461v-1454h-164v1298h-143v-1298h-164z" />
    <glyph glyph-name="periodcentered" unicode="&#xb7;" 
d="M487 498v250h254v-250h-254z" />
    <glyph glyph-name="cedilla" unicode="&#xb8;" 
d="M618 -451q-94 0 -155 44t-84 116l104 41q19 -46 49.5 -66t81.5 -20q52 0 81.5 22t29.5 60q0 44 -32.5 67t-123.5 23l-57 62l78 122h131l-70 -94q97 -4 147 -53t50 -131q0 -86 -65 -139.5t-165 -53.5z" />
    <glyph glyph-name="uni00B9" unicode="&#xb9;" 
d="M645 662v520l-196 -2v102h49q88 0 135 45.5t47 128.5h100v-794h-135z" />
    <glyph glyph-name="ordmasculine" unicode="&#xba;" 
d="M614 770q-160 0 -254 97t-94 261q0 163 94.5 261t253.5 98q158 0 253.5 -98.5t95.5 -260.5q0 -164 -95 -261t-254 -97zM614 903q83 0 130 59.5t47 165.5q0 105 -47 165.5t-130 60.5q-84 0 -130 -61t-46 -165q0 -106 45.5 -165.5t130.5 -59.5z" />
    <glyph glyph-name="guillemotright" unicode="&#xbb;" 
d="M573 156l349 409l-349 410h211l281 -334v-152l-281 -333h-211zM164 156l348 409l-348 410h211l280 -334v-152l-280 -333h-211z" />
    <glyph glyph-name="onequarter" unicode="&#xbc;" 
d="M324 662v520l-197 -2v102h49q88 0 135 45.5t47 128.5h101v-794h-135zM702 930l285 524h160l-285 -524h-160zM881 0v184h-369v105l377 504h127v-490h110v-119h-110v-184h-135zM655 303h226v293zM82 0l285 522h159l-284 -522h-160z" />
    <glyph glyph-name="onehalf" unicode="&#xbd;" 
d="M324 662v520l-197 -2v102h49q88 0 135 45.5t47 128.5h101v-794h-135zM702 930l285 524h160l-285 -524h-160zM582 0q0 71 6.5 116.5t27 93t61.5 85t107 74.5l107 59q60 33 82 64t22 88q0 51 -35.5 80.5t-87.5 29.5q-73 0 -110.5 -35.5t-46.5 -109.5l-131 6
q12 120 85.5 189t202.5 69q117 0 187.5 -63.5t70.5 -165.5q0 -92 -48 -148.5t-148 -109.5l-84 -46q-59 -32 -88 -73.5t-29 -83.5h389v-119h-540zM82 0l285 522h159l-284 -522h-160z" />
    <glyph glyph-name="threequarters" unicode="&#xbe;" 
d="M338 645q-150 0 -216 58.5t-73 164.5l131 6q10 -110 158 -110q74 0 115 33.5t41 91.5q0 61 -40.5 96t-125.5 35h-52v117h52q59 0 93 26.5t34 77.5q0 49 -32.5 79t-94.5 30q-60 0 -95 -28.5t-40 -72.5l-132 8q13 94 82.5 153.5t184.5 59.5q126 0 193 -59t67 -158
q0 -68 -34 -107.5t-103 -60.5q176 -43 176 -198q0 -111 -81.5 -176.5t-207.5 -65.5zM731 930l285 524h160l-285 -524h-160zM934 0v184h-369v105l377 504h127v-490h111v-119h-111v-184h-135zM709 303h225v293zM111 0l284 522h160l-285 -522h-159z" />
    <glyph glyph-name="questiondown" unicode="&#xbf;" 
d="M748 1114v-250h-254v250h254zM584 -332q-201 0 -325 104t-124 279q0 130 58.5 214t197.5 175q82 53 111.5 112.5t29.5 168.5h177q0 -146 -46 -233t-153 -154q-118 -72 -154.5 -127.5t-36.5 -155.5t70 -155.5t195 -55.5q294 0 325 303l185 -12q-19 -207 -154.5 -335
t-355.5 -128z" />
    <glyph glyph-name="Agrave" unicode="&#xc0;" 
d="M553 1597l-184 263h192l135 -263h-143zM53 0l443 1454h237l443 -1454h-189l-119 414h-508l-118 -414h-189zM614 1294l-204 -708h409z" />
    <glyph glyph-name="Aacute" unicode="&#xc1;" 
d="M537 1597l135 263h192l-184 -263h-143zM53 0l443 1454h237l443 -1454h-189l-119 414h-508l-118 -414h-189zM614 1294l-204 -708h409z" />
    <glyph glyph-name="Acircumflex" unicode="&#xc2;" 
d="M326 1593l190 273h193l190 -273h-143l-144 185l-143 -185h-143zM53 0l443 1454h237l443 -1454h-189l-119 414h-508l-118 -414h-189zM614 1294l-204 -708h409z" />
    <glyph glyph-name="Atilde" unicode="&#xc3;" 
d="M737 1618q-69 0 -143 61q-39 33 -58.5 43.5t-48.5 10.5q-85 0 -90 -129h-106q3 115 56.5 177t139.5 62q78 0 156 -65q60 -49 102 -49q39 0 59.5 30.5t26.5 104.5h107q-6 -116 -59.5 -181t-141.5 -65zM53 0l443 1454h237l443 -1454h-189l-119 414h-508l-118 -414h-189z
M614 1294l-204 -708h409z" />
    <glyph glyph-name="Adieresis" unicode="&#xc4;" 
d="M328 1624v201h180v-201h-180zM721 1624v201h180v-201h-180zM53 0l443 1454h237l443 -1454h-189l-119 414h-508l-118 -414h-189zM614 1294l-204 -708h409z" />
    <glyph glyph-name="Aring" unicode="&#xc5;" 
d="M614 1548q-79 0 -133.5 54.5t-54.5 134.5q0 79 54 133.5t134 54.5t134.5 -54.5t54.5 -133.5t-54.5 -134t-134.5 -55zM614 1651q37 0 61.5 24.5t24.5 61.5t-24.5 61.5t-61.5 24.5t-61.5 -24.5t-24.5 -61.5t24.5 -61.5t61.5 -24.5zM53 0l443 1454h237l443 -1454h-189
l-119 414h-508l-118 -414h-189zM614 1294l-204 -708h409z" />
    <glyph glyph-name="AE" unicode="&#xc6;" 
d="M20 0l463 1454h688v-172h-352v-469h328v-168h-328v-473h369v-172h-545v414h-309l-129 -414h-185zM606 1288l-219 -702h256v702h-37z" />
    <glyph glyph-name="Ccedilla" unicode="&#xc7;" 
d="M625 -451q-94 0 -155.5 44t-84.5 116l104 41q19 -46 50 -66t82 -20q52 0 81 22t29 60q0 44 -32.5 67t-123.5 23l-57 62l45 71q-233 23 -359 223t-126 533q0 356 141 559t399 203q193 0 327.5 -126t180.5 -351l-188 -13q-35 154 -119.5 236t-200.5 82q-173 0 -264.5 -153
t-91.5 -437q0 -282 91.5 -434t264.5 -152q128 0 216 89.5t118 260.5l187 -10q-37 -218 -154 -350.5t-295 -157.5l-33 -45q97 -4 147 -53t50 -131q0 -86 -64.5 -139.5t-164.5 -53.5z" />
    <glyph glyph-name="Egrave" unicode="&#xc8;" 
d="M590 1599l-184 263h192l135 -263h-143zM184 0v1454h885v-172h-709v-469h684v-168h-684v-473h725v-172h-901z" />
    <glyph glyph-name="Eacute" unicode="&#xc9;" 
d="M573 1599l136 263h192l-184 -263h-144zM184 0v1454h885v-172h-709v-469h684v-168h-684v-473h725v-172h-901z" />
    <glyph glyph-name="Ecircumflex" unicode="&#xca;" 
d="M362 1595l191 273h192l191 -273h-143l-144 185l-143 -185h-144zM184 0v1454h885v-172h-709v-469h684v-168h-684v-473h725v-172h-901z" />
    <glyph glyph-name="Edieresis" unicode="&#xcb;" 
d="M365 1626v201h180v-201h-180zM758 1626v201h180v-201h-180zM184 0v1454h885v-172h-709v-469h684v-168h-684v-473h725v-172h-901z" />
    <glyph glyph-name="Igrave" unicode="&#xcc;" 
d="M553 1597l-184 263h192l135 -263h-143zM164 0v172h362v1110h-362v172h901v-172h-363v-1110h363v-172h-901z" />
    <glyph glyph-name="Iacute" unicode="&#xcd;" 
d="M537 1597l135 263h192l-184 -263h-143zM164 0v172h362v1110h-362v172h901v-172h-363v-1110h363v-172h-901z" />
    <glyph glyph-name="Icircumflex" unicode="&#xce;" 
d="M326 1593l190 273h193l190 -273h-143l-144 185l-143 -185h-143zM164 0v172h362v1110h-362v172h901v-172h-363v-1110h363v-172h-901z" />
    <glyph glyph-name="Idieresis" unicode="&#xcf;" 
d="M328 1624v201h180v-201h-180zM721 1624v201h180v-201h-180zM164 0v172h362v1110h-362v172h901v-172h-363v-1110h363v-172h-901z" />
    <glyph glyph-name="Eth" unicode="&#xd0;" 
d="M184 0v647h-143v160h143v647h344q287 0 455 -191.5t168 -537.5q0 -345 -168 -535t-455 -190h-344zM360 172h158q215 0 332 140t117 413t-117 415t-332 142h-158v-475h336v-160h-336v-475z" />
    <glyph glyph-name="Ntilde" unicode="&#xd1;" 
d="M737 1618q-69 0 -143 61q-39 33 -58.5 43.5t-48.5 10.5q-85 0 -90 -129h-106q3 115 56.5 177t139.5 62q78 0 156 -65q60 -49 102 -49q39 0 59.5 30.5t26.5 104.5h107q-6 -116 -59.5 -181t-141.5 -65zM143 0v1454h250l516 -1253v1253h176v-1454h-249l-517 1253v-1253h-176
z" />
    <glyph glyph-name="Ograve" unicode="&#xd2;" 
d="M553 1597l-184 263h192l135 -263h-143zM614 -33q-258 0 -397 197t-139 561q0 367 139 564.5t397 197.5t397.5 -197.5t139.5 -564.5q0 -364 -139.5 -561t-397.5 -197zM614 139q170 0 261.5 151t91.5 435q0 285 -92 437.5t-261 152.5t-260.5 -152.5t-91.5 -437.5
t91.5 -435.5t260.5 -150.5z" />
    <glyph glyph-name="Oacute" unicode="&#xd3;" 
d="M537 1597l135 263h192l-184 -263h-143zM614 -33q-258 0 -397 197t-139 561q0 367 139 564.5t397 197.5t397.5 -197.5t139.5 -564.5q0 -364 -139.5 -561t-397.5 -197zM614 139q170 0 261.5 151t91.5 435q0 285 -92 437.5t-261 152.5t-260.5 -152.5t-91.5 -437.5
t91.5 -435.5t260.5 -150.5z" />
    <glyph glyph-name="Ocircumflex" unicode="&#xd4;" 
d="M326 1593l190 273h193l190 -273h-143l-144 185l-143 -185h-143zM614 -33q-258 0 -397 197t-139 561q0 367 139 564.5t397 197.5t397.5 -197.5t139.5 -564.5q0 -364 -139.5 -561t-397.5 -197zM614 139q170 0 261.5 151t91.5 435q0 285 -92 437.5t-261 152.5t-260.5 -152.5
t-91.5 -437.5t91.5 -435.5t260.5 -150.5z" />
    <glyph glyph-name="Otilde" unicode="&#xd5;" 
d="M737 1618q-69 0 -143 61q-39 33 -58.5 43.5t-48.5 10.5q-85 0 -90 -129h-106q3 115 56.5 177t139.5 62q78 0 156 -65q60 -49 102 -49q39 0 59.5 30.5t26.5 104.5h107q-6 -116 -59.5 -181t-141.5 -65zM614 -33q-258 0 -397 197t-139 561q0 367 139 564.5t397 197.5
t397.5 -197.5t139.5 -564.5q0 -364 -139.5 -561t-397.5 -197zM614 139q170 0 261.5 151t91.5 435q0 285 -92 437.5t-261 152.5t-260.5 -152.5t-91.5 -437.5t91.5 -435.5t260.5 -150.5z" />
    <glyph glyph-name="Odieresis" unicode="&#xd6;" 
d="M328 1624v201h180v-201h-180zM721 1624v201h180v-201h-180zM614 -33q-258 0 -397 197t-139 561q0 367 139 564.5t397 197.5t397.5 -197.5t139.5 -564.5q0 -364 -139.5 -561t-397.5 -197zM614 139q170 0 261.5 151t91.5 435q0 285 -92 437.5t-261 152.5t-260.5 -152.5
t-91.5 -437.5t91.5 -435.5t260.5 -150.5z" />
    <glyph glyph-name="multiply" unicode="&#xd7;" 
d="M182 285l320 319l-320 320l113 112l319 -319l320 319l113 -112l-320 -320l320 -319l-113 -113l-320 320l-319 -320z" />
    <glyph glyph-name="Oslash" unicode="&#xd8;" 
d="M82 -33l125 213q-129 195 -129 545q0 367 139 564.5t397 197.5q182 0 304 -98l57 98h172l-125 -213q129 -198 129 -549q0 -364 -139.5 -561t-397.5 -197q-178 0 -303 96l-57 -96h-172zM262 725q0 -221 55 -358l506 862q-83 86 -209 86q-169 0 -260.5 -152.5t-91.5 -437.5
zM614 139q170 0 261.5 151t91.5 435q0 220 -56 362l-505 -864q84 -84 208 -84z" />
    <glyph glyph-name="Ugrave" unicode="&#xd9;" 
d="M553 1597l-184 263h192l135 -263h-143zM614 -33q-228 0 -359.5 145t-131.5 396v946h176v-946q0 -180 80.5 -274.5t234.5 -94.5t235 94.5t81 274.5v946h176v-946q0 -251 -131.5 -396t-360.5 -145z" />
    <glyph glyph-name="Uacute" unicode="&#xda;" 
d="M537 1597l135 263h192l-184 -263h-143zM614 -33q-228 0 -359.5 145t-131.5 396v946h176v-946q0 -180 80.5 -274.5t234.5 -94.5t235 94.5t81 274.5v946h176v-946q0 -251 -131.5 -396t-360.5 -145z" />
    <glyph glyph-name="Ucircumflex" unicode="&#xdb;" 
d="M326 1593l190 273h193l190 -273h-143l-144 185l-143 -185h-143zM614 -33q-228 0 -359.5 145t-131.5 396v946h176v-946q0 -180 80.5 -274.5t234.5 -94.5t235 94.5t81 274.5v946h176v-946q0 -251 -131.5 -396t-360.5 -145z" />
    <glyph glyph-name="Udieresis" unicode="&#xdc;" 
d="M328 1624v201h180v-201h-180zM721 1624v201h180v-201h-180zM614 -33q-228 0 -359.5 145t-131.5 396v946h176v-946q0 -180 80.5 -274.5t234.5 -94.5t235 94.5t81 274.5v946h176v-946q0 -251 -131.5 -396t-360.5 -145z" />
    <glyph glyph-name="Yacute" unicode="&#xdd;" 
d="M537 1597l135 263h192l-184 -263h-143zM528 0v594l-446 860h201l331 -680l332 680h201l-442 -860v-594h-177z" />
    <glyph glyph-name="Thorn" unicode="&#xde;" 
d="M184 0v1454h176v-262h271q244 0 380 -115.5t136 -322.5q0 -211 -136 -330t-380 -119h-271v-305h-176zM631 1020h-271v-543h271q332 0 332 277q0 266 -332 266z" />
    <glyph glyph-name="germandbls" unicode="&#xdf;" 
d="M164 0v1028q0 205 121 326t321 121q197 0 311.5 -103.5t114.5 -273.5q0 -113 -58.5 -194.5t-160.5 -115.5q142 -34 225.5 -134t83.5 -240q0 -194 -135.5 -304t-380.5 -110h-131v164h131q163 0 249.5 64.5t86.5 193.5t-90.5 199.5t-265.5 70.5h-90v162h90q126 0 198 65
t72 175q0 99 -64 158t-186 59q-124 0 -197 -76t-73 -207v-1028h-172z" />
    <glyph glyph-name="agrave" unicode="&#xe0;" 
d="M520 1229l-184 262h192l136 -262h-144zM471 -25q-155 0 -257.5 82t-102.5 213q0 137 82 215t262 113l364 74q0 137 -61.5 205.5t-179.5 68.5q-214 0 -265 -194l-182 14q31 157 148.5 250.5t298.5 93.5q195 0 304 -117.5t109 -324.5v-451q0 -36 15.5 -50.5t50.5 -14.5h69
v-152q-32 -4 -90 -4q-90 0 -142 38t-69 120q-45 -80 -141.5 -129.5t-212.5 -49.5zM487 127q162 0 247 82t85 221v94l-332 -65q-107 -21 -151.5 -62t-44.5 -110q0 -76 51.5 -118t144.5 -42z" />
    <glyph glyph-name="aacute" unicode="&#xe1;" 
d="M504 1229l135 262h192l-184 -262h-143zM471 -25q-155 0 -257.5 82t-102.5 213q0 137 82 215t262 113l364 74q0 137 -61.5 205.5t-179.5 68.5q-214 0 -265 -194l-182 14q31 157 148.5 250.5t298.5 93.5q195 0 304 -117.5t109 -324.5v-451q0 -36 15.5 -50.5t50.5 -14.5h69
v-152q-32 -4 -90 -4q-90 0 -142 38t-69 120q-45 -80 -141.5 -129.5t-212.5 -49.5zM487 127q162 0 247 82t85 221v94l-332 -65q-107 -21 -151.5 -62t-44.5 -110q0 -76 51.5 -118t144.5 -42z" />
    <glyph glyph-name="acircumflex" unicode="&#xe2;" 
d="M293 1225l190 272h193l190 -272h-143l-143 184l-144 -184h-143zM471 -25q-155 0 -257.5 82t-102.5 213q0 137 82 215t262 113l364 74q0 137 -61.5 205.5t-179.5 68.5q-214 0 -265 -194l-182 14q31 157 148.5 250.5t298.5 93.5q195 0 304 -117.5t109 -324.5v-451
q0 -36 15.5 -50.5t50.5 -14.5h69v-152q-32 -4 -90 -4q-90 0 -142 38t-69 120q-45 -80 -141.5 -129.5t-212.5 -49.5zM487 127q162 0 247 82t85 221v94l-332 -65q-107 -21 -151.5 -62t-44.5 -110q0 -76 51.5 -118t144.5 -42z" />
    <glyph glyph-name="atilde" unicode="&#xe3;" 
d="M705 1249q-69 0 -144 62q-39 32 -58 42.5t-48 10.5q-85 0 -90 -129h-107q3 115 57 177.5t140 62.5q46 0 80.5 -16.5t74.5 -49.5q60 -49 103 -49q39 0 59.5 30.5t26.5 104.5h106q-6 -117 -59 -181.5t-141 -64.5zM471 -25q-155 0 -257.5 82t-102.5 213q0 137 82 215
t262 113l364 74q0 137 -61.5 205.5t-179.5 68.5q-214 0 -265 -194l-182 14q31 157 148.5 250.5t298.5 93.5q195 0 304 -117.5t109 -324.5v-451q0 -36 15.5 -50.5t50.5 -14.5h69v-152q-32 -4 -90 -4q-90 0 -142 38t-69 120q-45 -80 -141.5 -129.5t-212.5 -49.5zM487 127
q162 0 247 82t85 221v94l-332 -65q-107 -21 -151.5 -62t-44.5 -110q0 -76 51.5 -118t144.5 -42z" />
    <glyph glyph-name="adieresis" unicode="&#xe4;" 
d="M295 1255v201h180v-201h-180zM688 1255v201h180v-201h-180zM471 -25q-155 0 -257.5 82t-102.5 213q0 137 82 215t262 113l364 74q0 137 -61.5 205.5t-179.5 68.5q-214 0 -265 -194l-182 14q31 157 148.5 250.5t298.5 93.5q195 0 304 -117.5t109 -324.5v-451
q0 -36 15.5 -50.5t50.5 -14.5h69v-152q-32 -4 -90 -4q-90 0 -142 38t-69 120q-45 -80 -141.5 -129.5t-212.5 -49.5zM487 127q162 0 247 82t85 221v94l-332 -65q-107 -21 -151.5 -62t-44.5 -110q0 -76 51.5 -118t144.5 -42z" />
    <glyph glyph-name="aring" unicode="&#xe5;" 
d="M582 1180q-80 0 -134.5 54.5t-54.5 133.5t54.5 133.5t134.5 54.5t134 -54t54 -134t-54 -134t-134 -54zM582 1282q37 0 61.5 24.5t24.5 61.5t-24.5 61.5t-61.5 24.5t-61.5 -24.5t-24.5 -61.5t24.5 -61.5t61.5 -24.5zM471 -25q-155 0 -257.5 82t-102.5 213q0 137 82 215
t262 113l364 74q0 137 -61.5 205.5t-179.5 68.5q-214 0 -265 -194l-182 14q31 157 148.5 250.5t298.5 93.5q195 0 304 -117.5t109 -324.5v-451q0 -36 15.5 -50.5t50.5 -14.5h69v-152q-32 -4 -90 -4q-90 0 -142 38t-69 120q-45 -80 -141.5 -129.5t-212.5 -49.5zM487 127
q162 0 247 82t85 221v94l-332 -65q-107 -21 -151.5 -62t-44.5 -110q0 -76 51.5 -118t144.5 -42z" />
    <glyph glyph-name="ae" unicode="&#xe6;" 
d="M299 -25q-119 0 -190.5 78.5t-71.5 235.5q0 130 78.5 218t212.5 107l176 25q0 162 -33.5 234.5t-105.5 72.5q-66 0 -96.5 -48.5t-43.5 -143.5l-172 12q53 344 312 344q168 0 241 -137q90 137 252 137q161 0 247.5 -136.5t86.5 -404.5v-80h-510q7 -168 53 -259t123 -91
q60 0 94 42t54 141l174 -15q-38 -180 -112 -256t-210 -76q-205 0 -289 209q-33 -101 -101.5 -155t-168.5 -54zM684 641h330q-11 305 -156 305q-77 0 -118 -71t-56 -234zM330 127q92 0 133 80.5t41 241.5v32l-142 -22q-153 -24 -153 -170q0 -80 33 -121t88 -41z" />
    <glyph glyph-name="ccedilla" unicode="&#xe7;" 
d="M621 -451q-94 0 -155.5 44t-84.5 116l104 41q19 -46 49.5 -66t81.5 -20q52 0 81.5 22t29.5 60q0 44 -32.5 67t-123.5 23l-57 62l53 82q-195 26 -309.5 177.5t-114.5 385.5q0 258 136.5 412.5t363.5 154.5q182 0 301.5 -98t153.5 -279l-180 -12q-25 107 -97.5 166
t-177.5 59q-150 0 -234.5 -107t-84.5 -296t84.5 -296.5t234.5 -107.5q107 0 183 63t100 183l180 -12q-32 -170 -143 -276.5t-271 -119.5l-39 -51q97 -4 147 -53t50 -131q0 -86 -64.5 -139.5t-164.5 -53.5z" />
    <glyph glyph-name="egrave" unicode="&#xe8;" 
d="M565 1225l-184 262h192l136 -262h-144zM633 -25q-229 0 -363.5 154.5t-134.5 413.5q0 258 133 412.5t357 154.5q217 0 349 -150.5t132 -418.5v-52h-791q9 -172 92 -261t226 -89q103 0 172 48.5t98 134.5l184 -15q-44 -150 -165 -241t-289 -91zM315 641h603
q-12 152 -90 228.5t-203 76.5q-127 0 -207.5 -78t-102.5 -227z" />
    <glyph glyph-name="eacute" unicode="&#xe9;" 
d="M549 1225l135 262h193l-185 -262h-143zM633 -25q-229 0 -363.5 154.5t-134.5 413.5q0 258 133 412.5t357 154.5q217 0 349 -150.5t132 -418.5v-52h-791q9 -172 92 -261t226 -89q103 0 172 48.5t98 134.5l184 -15q-44 -150 -165 -241t-289 -91zM315 641h603
q-12 152 -90 228.5t-203 76.5q-127 0 -207.5 -78t-102.5 -227z" />
    <glyph glyph-name="ecircumflex" unicode="&#xea;" 
d="M338 1221l190 272h193l190 -272h-143l-143 184l-144 -184h-143zM633 -25q-229 0 -363.5 154.5t-134.5 413.5q0 258 133 412.5t357 154.5q217 0 349 -150.5t132 -418.5v-52h-791q9 -172 92 -261t226 -89q103 0 172 48.5t98 134.5l184 -15q-44 -150 -165 -241t-289 -91z
M315 641h603q-12 152 -90 228.5t-203 76.5q-127 0 -207.5 -78t-102.5 -227z" />
    <glyph glyph-name="edieresis" unicode="&#xeb;" 
d="M340 1251v201h180v-201h-180zM733 1251v201h180v-201h-180zM633 -25q-229 0 -363.5 154.5t-134.5 413.5q0 258 133 412.5t357 154.5q217 0 349 -150.5t132 -418.5v-52h-791q9 -172 92 -261t226 -89q103 0 172 48.5t98 134.5l184 -15q-44 -150 -165 -241t-289 -91z
M315 641h603q-12 152 -90 228.5t-203 76.5q-127 0 -207.5 -78t-102.5 -227z" />
    <glyph glyph-name="igrave" unicode="&#xec;" 
d="M614 1229l-184 262h193l135 -262h-144zM164 0v152h436v782h-416v151h588v-933h375v-152h-983z" />
    <glyph glyph-name="iacute" unicode="&#xed;" 
d="M598 1229l135 262h193l-185 -262h-143zM164 0v152h436v782h-416v151h588v-933h375v-152h-983z" />
    <glyph glyph-name="icircumflex" unicode="&#xee;" 
d="M387 1225l191 272h192l191 -272h-144l-143 184l-144 -184h-143zM164 0v152h436v782h-416v151h588v-933h375v-152h-983z" />
    <glyph glyph-name="idieresis" unicode="&#xef;" 
d="M389 1255v201h180v-201h-180zM782 1255v201h181v-201h-181zM164 0v152h436v782h-416v151h588v-933h375v-152h-983z" />
    <glyph glyph-name="eth" unicode="&#xf0;" 
d="M618 -25q-227 0 -361 141.5t-134 385.5q0 243 134 384.5t361 141.5q151 0 281 -98q-46 143 -133 233l-246 -86l-49 131l156 56q-107 51 -258 63l41 152q241 -23 403 -150l285 101l49 -132l-223 -77q190 -242 190 -699q0 -257 -134.5 -402t-361.5 -145zM618 139
q152 0 234 96.5t82 286.5q0 159 -83.5 250.5t-232.5 91.5q-151 0 -233 -94.5t-82 -267.5t82 -268t233 -95z" />
    <glyph glyph-name="ntilde" unicode="&#xf1;" 
d="M737 1249q-68 0 -143 62q-39 32 -58.5 42.5t-48.5 10.5q-85 0 -90 -129h-106q3 115 56.5 177.5t139.5 62.5q46 0 81 -16.5t75 -49.5q60 -49 102 -49q39 0 59.5 30.5t26.5 104.5h107q-6 -116 -59.5 -181t-141.5 -65zM172 0v1085h158l4 -194q43 108 135.5 163.5t210.5 55.5
q179 0 278 -116t99 -296v-698h-172v649q0 309 -242 309q-131 0 -215 -81.5t-84 -227.5v-649h-172z" />
    <glyph glyph-name="ograve" unicode="&#xf2;" 
d="M553 1229l-184 262h192l135 -262h-143zM614 -25q-226 0 -360.5 154.5t-134.5 413.5t134.5 413t360.5 154q225 0 360.5 -154t135.5 -413t-135.5 -413.5t-360.5 -154.5zM614 139q149 0 232.5 107.5t83.5 296.5t-83.5 296t-232.5 107q-150 0 -232.5 -106.5t-82.5 -296.5
t82.5 -297t232.5 -107z" />
    <glyph glyph-name="oacute" unicode="&#xf3;" 
d="M537 1229l135 262h192l-184 -262h-143zM614 -25q-226 0 -360.5 154.5t-134.5 413.5t134.5 413t360.5 154q225 0 360.5 -154t135.5 -413t-135.5 -413.5t-360.5 -154.5zM614 139q149 0 232.5 107.5t83.5 296.5t-83.5 296t-232.5 107q-150 0 -232.5 -106.5t-82.5 -296.5
t82.5 -297t232.5 -107z" />
    <glyph glyph-name="ocircumflex" unicode="&#xf4;" 
d="M326 1225l190 272h193l190 -272h-143l-144 184l-143 -184h-143zM614 -25q-226 0 -360.5 154.5t-134.5 413.5t134.5 413t360.5 154q225 0 360.5 -154t135.5 -413t-135.5 -413.5t-360.5 -154.5zM614 139q149 0 232.5 107.5t83.5 296.5t-83.5 296t-232.5 107
q-150 0 -232.5 -106.5t-82.5 -296.5t82.5 -297t232.5 -107z" />
    <glyph glyph-name="otilde" unicode="&#xf5;" 
d="M737 1249q-68 0 -143 62q-39 32 -58.5 42.5t-48.5 10.5q-85 0 -90 -129h-106q3 115 56.5 177.5t139.5 62.5q46 0 81 -16.5t75 -49.5q60 -49 102 -49q39 0 59.5 30.5t26.5 104.5h107q-6 -116 -59.5 -181t-141.5 -65zM614 -25q-226 0 -360.5 154.5t-134.5 413.5t134.5 413
t360.5 154q225 0 360.5 -154t135.5 -413t-135.5 -413.5t-360.5 -154.5zM614 139q149 0 232.5 107.5t83.5 296.5t-83.5 296t-232.5 107q-150 0 -232.5 -106.5t-82.5 -296.5t82.5 -297t232.5 -107z" />
    <glyph glyph-name="odieresis" unicode="&#xf6;" 
d="M328 1255v201h180v-201h-180zM721 1255v201h180v-201h-180zM614 -25q-226 0 -360.5 154.5t-134.5 413.5t134.5 413t360.5 154q225 0 360.5 -154t135.5 -413t-135.5 -413.5t-360.5 -154.5zM614 139q149 0 232.5 107.5t83.5 296.5t-83.5 296t-232.5 107
q-150 0 -232.5 -106.5t-82.5 -296.5t82.5 -297t232.5 -107z" />
    <glyph glyph-name="divide" unicode="&#xf7;" 
d="M614 848q-60 0 -95.5 35t-35.5 92t35.5 92t95.5 35t95.5 -35t35.5 -92t-35.5 -92t-95.5 -35zM143 524v160h942v-160h-942zM614 106q-60 0 -95.5 35t-35.5 92t35.5 92t95.5 35t95.5 -35t35.5 -92t-35.5 -92t-95.5 -35z" />
    <glyph glyph-name="oslash" unicode="&#xf8;" 
d="M164 -29l98 150q-143 152 -143 422q0 259 134.5 413t360.5 154q147 0 256 -68l48 72h147l-98 -149q143 -152 143 -422q0 -259 -135.5 -413.5t-360.5 -154.5q-147 0 -256 68l-47 -72h-147zM299 543q0 -167 63 -271l416 629q-65 45 -164 45q-150 0 -232.5 -106.5
t-82.5 -296.5zM614 139q149 0 232.5 107.5t83.5 296.5q0 162 -64 268l-415 -629q67 -43 163 -43z" />
    <glyph glyph-name="ugrave" unicode="&#xf9;" 
d="M539 1229l-185 262h193l135 -262h-143zM539 -25q-163 0 -259 110t-96 302v698h172v-651q0 -158 56.5 -232.5t173.5 -74.5q128 0 201 82.5t73 228.5v647h172v-1085h-164v176q-45 -97 -129 -149t-200 -52z" />
    <glyph glyph-name="uacute" unicode="&#xfa;" 
d="M522 1229l135 262h193l-184 -262h-144zM539 -25q-163 0 -259 110t-96 302v698h172v-651q0 -158 56.5 -232.5t173.5 -74.5q128 0 201 82.5t73 228.5v647h172v-1085h-164v176q-45 -97 -129 -149t-200 -52z" />
    <glyph glyph-name="ucircumflex" unicode="&#xfb;" 
d="M311 1225l191 272h192l191 -272h-144l-143 184l-143 -184h-144zM539 -25q-163 0 -259 110t-96 302v698h172v-651q0 -158 56.5 -232.5t173.5 -74.5q128 0 201 82.5t73 228.5v647h172v-1085h-164v176q-45 -97 -129 -149t-200 -52z" />
    <glyph glyph-name="udieresis" unicode="&#xfc;" 
d="M313 1255v201h181v-201h-181zM707 1255v201h180v-201h-180zM539 -25q-163 0 -259 110t-96 302v698h172v-651q0 -158 56.5 -232.5t173.5 -74.5q128 0 201 82.5t73 228.5v647h172v-1085h-164v176q-45 -97 -129 -149t-200 -52z" />
    <glyph glyph-name="yacute" unicode="&#xfd;" 
d="M543 1229l135 262h192l-184 -262h-143zM283 -307v151h125q55 0 83 17t44 57l38 102h-59l-403 1065h188l330 -905l309 905h188l-440 -1222q-31 -89 -92.5 -129.5t-169.5 -40.5h-141z" />
    <glyph glyph-name="thorn" unicode="&#xfe;" 
d="M164 -307v1761h176v-514q47 80 131.5 125t198.5 45q91 0 167 -30.5t129 -83t89.5 -124.5t53.5 -155t17 -174q0 -115 -28 -215.5t-82 -180t-143 -126t-203 -46.5q-224 0 -330 164v-446h-176zM635 139q81 0 143 33.5t97.5 91.5t53 128t17.5 151q0 84 -17.5 155.5t-53 130
t-97.5 92t-143 33.5t-142.5 -34t-98 -93t-54.5 -130.5t-18 -153.5q0 -79 18 -149t54.5 -128.5t98.5 -92.5t142 -34z" />
    <glyph glyph-name="ydieresis" unicode="&#xff;" 
d="M334 1255v201h180v-201h-180zM727 1255v201h180v-201h-180zM283 -307v151h125q55 0 83 17t44 57l38 102h-59l-403 1065h188l330 -905l309 905h188l-440 -1222q-31 -89 -92.5 -129.5t-169.5 -40.5h-141z" />
    <glyph glyph-name="Amacron" unicode="&#x100;" 
d="M338 1649v147h549v-147h-549zM53 0l443 1454h237l443 -1454h-189l-119 414h-508l-118 -414h-189zM614 1294l-204 -708h409z" />
    <glyph glyph-name="amacron" unicode="&#x101;" 
d="M305 1280v147h549v-147h-549zM471 -25q-155 0 -257.5 82t-102.5 213q0 137 82 215t262 113l364 74q0 137 -61.5 205.5t-179.5 68.5q-214 0 -265 -194l-182 14q31 157 148.5 250.5t298.5 93.5q195 0 304 -117.5t109 -324.5v-451q0 -36 15.5 -50.5t50.5 -14.5h69v-152
q-32 -4 -90 -4q-90 0 -142 38t-69 120q-45 -80 -141.5 -129.5t-212.5 -49.5zM487 127q162 0 247 82t85 221v94l-332 -65q-107 -21 -151.5 -62t-44.5 -110q0 -76 51.5 -118t144.5 -42z" />
    <glyph glyph-name="Abreve" unicode="&#x102;" 
d="M614 1604q-126 0 -203 71t-83 191h118q17 -135 168 -135t168 135h119q-6 -120 -83.5 -191t-203.5 -71zM53 0l443 1454h237l443 -1454h-189l-119 414h-508l-118 -414h-189zM614 1294l-204 -708h409z" />
    <glyph glyph-name="abreve" unicode="&#x103;" 
d="M582 1235q-126 0 -203.5 71t-83.5 191h119q17 -135 168 -135t168 135h118q-6 -120 -83 -191t-203 -71zM471 -25q-155 0 -257.5 82t-102.5 213q0 137 82 215t262 113l364 74q0 137 -61.5 205.5t-179.5 68.5q-214 0 -265 -194l-182 14q31 157 148.5 250.5t298.5 93.5
q195 0 304 -117.5t109 -324.5v-451q0 -36 15.5 -50.5t50.5 -14.5h69v-152q-32 -4 -90 -4q-90 0 -142 38t-69 120q-45 -80 -141.5 -129.5t-212.5 -49.5zM487 127q162 0 247 82t85 221v94l-332 -65q-107 -21 -151.5 -62t-44.5 -110q0 -76 51.5 -118t144.5 -42z" />
    <glyph glyph-name="Aogonek" unicode="&#x104;" 
d="M53 0l443 1454h237l443 -1454l-72 -92q-64 -85 -64 -137q0 -62 62 -62q58 0 94 29l49 -115q-53 -53 -176 -53q-86 0 -135 43.5t-49 120.5q0 99 84 205l49 61h-31l-119 414h-508l-118 -414h-189zM614 1294l-204 -708h409z" />
    <glyph glyph-name="aogonek" unicode="&#x105;" 
d="M471 -25q-155 0 -257.5 82t-102.5 213q0 137 82 215t262 113l364 74q0 137 -61.5 205.5t-179.5 68.5q-214 0 -265 -194l-182 14q31 157 148.5 250.5t298.5 93.5q195 0 304 -117.5t109 -324.5v-451q0 -36 15.5 -50.5t50.5 -14.5h69v-152l-71 -92q-64 -85 -64 -137
q0 -62 62 -62q58 0 94 29l49 -115q-53 -53 -176 -53q-86 0 -135 43.5t-49 120.5q0 99 84 205l51 63q-119 21 -146 152q-45 -80 -141.5 -129.5t-212.5 -49.5zM487 127q162 0 247 82t85 221v94l-332 -65q-107 -21 -151.5 -62t-44.5 -110q0 -76 51.5 -118t144.5 -42z" />
    <glyph glyph-name="Cacute" unicode="&#x106;" 
d="M541 1597l135 263h192l-184 -263h-143zM618 -33q-258 0 -399 202.5t-141 555.5q0 356 141 559t399 203q193 0 327.5 -126t180.5 -351l-188 -13q-35 154 -119.5 236t-200.5 82q-173 0 -264.5 -153t-91.5 -437q0 -282 91.5 -434t264.5 -152q128 0 216 89.5t118 260.5
l187 -10q-40 -240 -178 -376t-343 -136z" />
    <glyph glyph-name="cacute" unicode="&#x107;" 
d="M563 1229l135 262h193l-184 -262h-144zM643 -25q-227 0 -363.5 155t-136.5 413t136.5 412.5t363.5 154.5q182 0 301.5 -98t153.5 -279l-180 -12q-25 107 -97.5 166t-177.5 59q-150 0 -234.5 -107t-84.5 -296t84.5 -296.5t234.5 -107.5q107 0 183 63t100 183l180 -12
q-34 -183 -158 -290.5t-305 -107.5z" />
    <glyph glyph-name="Ccircumflex" unicode="&#x108;" 
d="M330 1593l190 273h193l190 -273h-143l-144 185l-143 -185h-143zM618 -33q-258 0 -399 202.5t-141 555.5q0 356 141 559t399 203q193 0 327.5 -126t180.5 -351l-188 -13q-35 154 -119.5 236t-200.5 82q-173 0 -264.5 -153t-91.5 -437q0 -282 91.5 -434t264.5 -152
q128 0 216 89.5t118 260.5l187 -10q-40 -240 -178 -376t-343 -136z" />
    <glyph glyph-name="ccircumflex" unicode="&#x109;" 
d="M352 1225l191 272h192l191 -272h-144l-143 184l-143 -184h-144zM643 -25q-227 0 -363.5 155t-136.5 413t136.5 412.5t363.5 154.5q182 0 301.5 -98t153.5 -279l-180 -12q-25 107 -97.5 166t-177.5 59q-150 0 -234.5 -107t-84.5 -296t84.5 -296.5t234.5 -107.5
q107 0 183 63t100 183l180 -12q-34 -183 -158 -290.5t-305 -107.5z" />
    <glyph glyph-name="Cdotaccent" unicode="&#x10a;" 
d="M526 1624v201h181v-201h-181zM618 -33q-258 0 -399 202.5t-141 555.5q0 356 141 559t399 203q193 0 327.5 -126t180.5 -351l-188 -13q-35 154 -119.5 236t-200.5 82q-173 0 -264.5 -153t-91.5 -437q0 -282 91.5 -434t264.5 -152q128 0 216 89.5t118 260.5l187 -10
q-40 -240 -178 -376t-343 -136z" />
    <glyph glyph-name="cdotaccent" unicode="&#x10b;" 
d="M549 1255v201h180v-201h-180zM643 -25q-227 0 -363.5 155t-136.5 413t136.5 412.5t363.5 154.5q182 0 301.5 -98t153.5 -279l-180 -12q-25 107 -97.5 166t-177.5 59q-150 0 -234.5 -107t-84.5 -296t84.5 -296.5t234.5 -107.5q107 0 183 63t100 183l180 -12
q-34 -183 -158 -290.5t-305 -107.5z" />
    <glyph glyph-name="Ccaron" unicode="&#x10c;" 
d="M332 1866h143l143 -185l144 185h143l-190 -273h-193zM618 -33q-258 0 -399 202.5t-141 555.5q0 356 141 559t399 203q193 0 327.5 -126t180.5 -351l-188 -13q-35 154 -119.5 236t-200.5 82q-173 0 -264.5 -153t-91.5 -437q0 -282 91.5 -434t264.5 -152q128 0 216 89.5
t118 260.5l187 -10q-40 -240 -178 -376t-343 -136z" />
    <glyph glyph-name="ccaron" unicode="&#x10d;" 
d="M354 1497h144l143 -184l143 184h144l-191 -272h-192zM643 -25q-227 0 -363.5 155t-136.5 413t136.5 412.5t363.5 154.5q182 0 301.5 -98t153.5 -279l-180 -12q-25 107 -97.5 166t-177.5 59q-150 0 -234.5 -107t-84.5 -296t84.5 -296.5t234.5 -107.5q107 0 183 63t100 183
l180 -12q-34 -183 -158 -290.5t-305 -107.5z" />
    <glyph glyph-name="Dcaron" unicode="&#x10e;" 
d="M328 1866h143l143 -185l144 185h143l-190 -273h-193zM184 0v1454h344q287 0 455 -191.5t168 -537.5q0 -345 -168 -535t-455 -190h-344zM360 172h158q215 0 332 140t117 413t-117 415t-332 142h-158v-1110z" />
    <glyph glyph-name="dcaron" unicode="&#x10f;" 
d="M465 -25q-198 0 -311 152.5t-113 415.5q0 262 113 414.5t311 152.5q96 0 168 -49.5t117 -126.5v520h172v-1454h-156l-6 164q-97 -189 -295 -189zM975 934l61 520h172l-110 -520h-123zM475 139q124 0 199.5 109.5t75.5 294.5q0 187 -76 295t-203 108q-112 0 -181 -108.5
t-69 -294.5q0 -185 69.5 -294.5t184.5 -109.5z" />
    <glyph glyph-name="Dcroat" unicode="&#x110;" 
d="M184 0v647h-143v160h143v647h344q287 0 455 -191.5t168 -537.5q0 -345 -168 -535t-455 -190h-344zM360 172h158q215 0 332 140t117 413t-117 415t-332 142h-158v-475h336v-160h-336v-475z" />
    <glyph glyph-name="dcroat" unicode="&#x111;" 
d="M547 -25q-215 0 -340 153.5t-125 414.5t125 414t340 153q107 0 194.5 -51.5t130.5 -124.5v258h-299v139h299v123h172v-123h144v-139h-144v-1192h-155l-6 164q-46 -89 -134 -139t-202 -50zM557 139q147 0 231 108.5t84 295.5q0 189 -84.5 296t-234.5 107
q-134 0 -212.5 -107.5t-78.5 -295.5q0 -186 79.5 -295t215.5 -109z" />
    <glyph glyph-name="Emacron" unicode="&#x112;" 
d="M375 1651v147h549v-147h-549zM184 0v1454h885v-172h-709v-469h684v-168h-684v-473h725v-172h-901z" />
    <glyph glyph-name="emacron" unicode="&#x113;" 
d="M350 1276v147h549v-147h-549zM633 -25q-229 0 -363.5 154.5t-134.5 413.5q0 258 133 412.5t357 154.5q217 0 349 -150.5t132 -418.5v-52h-791q9 -172 92 -261t226 -89q103 0 172 48.5t98 134.5l184 -15q-44 -150 -165 -241t-289 -91zM315 641h603q-12 152 -90 228.5
t-203 76.5q-127 0 -207.5 -78t-102.5 -227z" />
    <glyph glyph-name="Edotaccent" unicode="&#x116;" 
d="M559 1626v201h180v-201h-180zM184 0v1454h885v-172h-709v-469h684v-168h-684v-473h725v-172h-901z" />
    <glyph glyph-name="edotaccent" unicode="&#x117;" 
d="M535 1251v201h180v-201h-180zM633 -25q-229 0 -363.5 154.5t-134.5 413.5q0 258 133 412.5t357 154.5q217 0 349 -150.5t132 -418.5v-52h-791q9 -172 92 -261t226 -89q103 0 172 48.5t98 134.5l184 -15q-44 -150 -165 -241t-289 -91zM315 641h603q-12 152 -90 228.5
t-203 76.5q-127 0 -207.5 -78t-102.5 -227z" />
    <glyph glyph-name="Eogonek" unicode="&#x118;" 
d="M184 0v1454h885v-172h-709v-469h684v-168h-684v-473h725v-170l9 -2l-72 -92q-64 -85 -64 -137q0 -62 62 -62q58 0 94 29l49 -115q-53 -53 -176 -53q-86 0 -135 43.5t-49 120.5q0 99 84 205l49 61h-752z" />
    <glyph glyph-name="eogonek" unicode="&#x119;" 
d="M633 -25q-229 0 -363.5 154.5t-134.5 413.5q0 258 133 412.5t357 154.5q217 0 349 -150.5t132 -418.5v-52h-791q9 -172 92 -261t226 -89q103 0 172 48.5t98 134.5l184 -15q-51 -169 -190 -258l-72 -92q-63 -83 -63 -137q0 -62 61 -62q59 0 95 29l49 -115
q-53 -53 -176 -53q-86 0 -135.5 44t-49.5 120q0 99 76 194q-16 -2 -49 -2zM315 641h603q-12 152 -90 228.5t-203 76.5q-127 0 -207.5 -78t-102.5 -227z" />
    <glyph glyph-name="Ecaron" unicode="&#x11a;" 
d="M365 1868h143l143 -185l144 185h143l-190 -273h-193zM184 0v1454h885v-172h-709v-469h684v-168h-684v-473h725v-172h-901z" />
    <glyph glyph-name="ecaron" unicode="&#x11b;" 
d="M340 1493h143l144 -184l143 184h143l-190 -272h-193zM633 -25q-229 0 -363.5 154.5t-134.5 413.5q0 258 133 412.5t357 154.5q217 0 349 -150.5t132 -418.5v-52h-791q9 -172 92 -261t226 -89q103 0 172 48.5t98 134.5l184 -15q-44 -150 -165 -241t-289 -91zM315 641h603
q-12 152 -90 228.5t-203 76.5q-127 0 -207.5 -78t-102.5 -227z" />
    <glyph glyph-name="Gcircumflex" unicode="&#x11c;" 
d="M324 1593l190 273h193l190 -273h-143l-144 185l-143 -185h-143zM610 -33q-238 0 -385 197t-147 561q0 354 143 558t397 204q194 0 327.5 -127.5t182.5 -339.5l-184 -12q-37 142 -119.5 224.5t-206.5 82.5q-170 0 -263 -153.5t-93 -436.5q0 -280 95.5 -433t269.5 -153
q153 0 245.5 118t98.5 310h-348v168h512v-735h-164l-4 201q-113 -234 -357 -234z" />
    <glyph glyph-name="gcircumflex" unicode="&#x11d;" 
d="M322 1225l190 272h193l190 -272h-143l-144 184l-143 -184h-143zM608 -332q-174 0 -297 86.5t-157 229.5l180 12q26 -81 90 -122.5t184 -41.5q149 0 227 59.5t78 178.5v176q-40 -86 -125.5 -137.5t-191.5 -51.5q-207 0 -340 148t-133 379q0 232 130.5 379t334.5 147
q115 0 206 -53.5t128 -143.5v172h163v-1011q0 -191 -126.5 -298.5t-350.5 -107.5zM604 221q140 0 224 98t85 265q3 166 -82 264t-227 98t-221.5 -97t-79.5 -265q0 -167 81 -265t220 -98z" />
    <glyph glyph-name="Gbreve" unicode="&#x11e;" 
d="M612 1604q-126 0 -203 71t-83 191h118q17 -135 168 -135t168 135h119q-6 -120 -83.5 -191t-203.5 -71zM610 -33q-238 0 -385 197t-147 561q0 354 143 558t397 204q194 0 327.5 -127.5t182.5 -339.5l-184 -12q-37 142 -119.5 224.5t-206.5 82.5q-170 0 -263 -153.5
t-93 -436.5q0 -280 95.5 -433t269.5 -153q153 0 245.5 118t98.5 310h-348v168h512v-735h-164l-4 201q-113 -234 -357 -234z" />
    <glyph glyph-name="gbreve" unicode="&#x11f;" 
d="M610 1235q-126 0 -203 71t-83 191h118q17 -135 168 -135t168 135h119q-6 -120 -83.5 -191t-203.5 -71zM608 -332q-174 0 -297 86.5t-157 229.5l180 12q26 -81 90 -122.5t184 -41.5q149 0 227 59.5t78 178.5v176q-40 -86 -125.5 -137.5t-191.5 -51.5q-207 0 -340 148
t-133 379q0 232 130.5 379t334.5 147q115 0 206 -53.5t128 -143.5v172h163v-1011q0 -191 -126.5 -298.5t-350.5 -107.5zM604 221q140 0 224 98t85 265q3 166 -82 264t-227 98t-221.5 -97t-79.5 -265q0 -167 81 -265t220 -98z" />
    <glyph glyph-name="Gdotaccent" unicode="&#x120;" 
d="M520 1624v201h180v-201h-180zM610 -33q-238 0 -385 197t-147 561q0 354 143 558t397 204q194 0 327.5 -127.5t182.5 -339.5l-184 -12q-37 142 -119.5 224.5t-206.5 82.5q-170 0 -263 -153.5t-93 -436.5q0 -280 95.5 -433t269.5 -153q153 0 245.5 118t98.5 310h-348v168
h512v-735h-164l-4 201q-113 -234 -357 -234z" />
    <glyph glyph-name="gdotaccent" unicode="&#x121;" 
d="M518 1255v201h180v-201h-180zM608 -332q-174 0 -297 86.5t-157 229.5l180 12q26 -81 90 -122.5t184 -41.5q149 0 227 59.5t78 178.5v176q-40 -86 -125.5 -137.5t-191.5 -51.5q-207 0 -340 148t-133 379q0 232 130.5 379t334.5 147q115 0 206 -53.5t128 -143.5v172h163
v-1011q0 -191 -126.5 -298.5t-350.5 -107.5zM604 221q140 0 224 98t85 265q3 166 -82 264t-227 98t-221.5 -97t-79.5 -265q0 -167 81 -265t220 -98z" />
    <glyph glyph-name="uni0122" unicode="&#x122;" 
d="M610 -33q-238 0 -385 197t-147 561q0 354 143 558t397 204q194 0 327.5 -127.5t182.5 -339.5l-184 -12q-37 142 -119.5 224.5t-206.5 82.5q-170 0 -263 -153.5t-93 -436.5q0 -280 95.5 -433t269.5 -153q153 0 245.5 118t98.5 310h-348v168h512v-735h-164l-4 201
q-113 -234 -357 -234zM469 -492l111 197h-70v184h205v-176l-131 -205h-115z" />
    <glyph glyph-name="uni0123" unicode="&#x123;" 
d="M780 1616l-110 -197h69v-184h-204v176l131 205h114zM608 -332q-174 0 -297 86.5t-157 229.5l180 12q26 -81 90 -122.5t184 -41.5q149 0 227 59.5t78 178.5v176q-40 -86 -125.5 -137.5t-191.5 -51.5q-207 0 -340 148t-133 379q0 232 130.5 379t334.5 147q115 0 206 -53.5
t128 -143.5v172h163v-1011q0 -191 -126.5 -298.5t-350.5 -107.5zM604 221q140 0 224 98t85 265q3 166 -82 264t-227 98t-221.5 -97t-79.5 -265q0 -167 81 -265t220 -98z" />
    <glyph glyph-name="Hcircumflex" unicode="&#x124;" 
d="M326 1593l190 273h193l190 -273h-143l-144 185l-143 -185h-143zM123 0v1454h176v-637h631v637h176v-1454h-176v645h-631v-645h-176z" />
    <glyph glyph-name="hcircumflex" unicode="&#x125;" 
d="M4 1593l191 273h192l191 -273h-144l-143 185l-144 -185h-143zM205 0v1454h172v-539q40 97 125.5 146t199.5 49q171 0 267 -113t96 -299v-698h-172v649q0 309 -227 309q-133 0 -211 -81.5t-78 -229.5v-647h-172z" />
    <glyph glyph-name="Hbar" unicode="&#x126;" 
d="M123 0v1081h-82v164h82v209h176v-209h631v209h176v-209h82v-164h-82v-1081h-176v645h-631v-645h-176zM299 817h631v264h-631v-264z" />
    <glyph glyph-name="hbar" unicode="&#x127;" 
d="M205 0v1192h-131v139h131v123h172v-123h311v-139h-311v-277q40 97 125.5 146t199.5 49q171 0 267 -113t96 -299v-698h-172v649q0 309 -227 309q-133 0 -211 -81.5t-78 -229.5v-647h-172z" />
    <glyph glyph-name="Itilde" unicode="&#x128;" 
d="M737 1618q-69 0 -143 61q-39 33 -58.5 43.5t-48.5 10.5q-85 0 -90 -129h-106q3 115 56.5 177t139.5 62q78 0 156 -65q60 -49 102 -49q39 0 59.5 30.5t26.5 104.5h107q-6 -116 -59.5 -181t-141.5 -65zM164 0v172h362v1110h-362v172h901v-172h-363v-1110h363v-172h-901z
" />
    <glyph glyph-name="itilde" unicode="&#x129;" 
d="M799 1249q-69 0 -144 62q-39 32 -58 42.5t-48 10.5q-85 0 -90 -129h-107q3 115 57 177.5t140 62.5q46 0 81 -16.5t75 -49.5q60 -49 102 -49q39 0 59.5 30.5t26.5 104.5h106q-6 -117 -59 -181.5t-141 -64.5zM164 0v152h436v782h-416v151h588v-933h375v-152h-983z" />
    <glyph glyph-name="Imacron" unicode="&#x12a;" 
d="M338 1649v147h549v-147h-549zM164 0v172h362v1110h-362v172h901v-172h-363v-1110h363v-172h-901z" />
    <glyph glyph-name="imacron" unicode="&#x12b;" 
d="M399 1280v147h549v-147h-549zM164 0v152h436v782h-416v151h588v-933h375v-152h-983z" />
    <glyph glyph-name="Iogonek" unicode="&#x12e;" 
d="M164 0v172h362v1110h-362v172h901v-172h-363v-1110h363v-172l-72 -92q-63 -83 -63 -137q0 -62 61 -62q58 0 94 29l50 -115q-53 -53 -177 -53q-86 0 -135 43.5t-49 120.5q0 99 84 205l49 61h-743z" />
    <glyph glyph-name="iogonek" unicode="&#x12f;" 
d="M584 1255v201h180v-201h-180zM164 0v152h436v782h-416v151h588v-933h375v-152l-72 -92q-63 -83 -63 -137q0 -62 61 -62q58 0 94 29l50 -115q-53 -53 -177 -53q-86 0 -135 43.5t-49 120.5q0 99 84 205l49 61h-825z" />
    <glyph glyph-name="Idotaccent" unicode="&#x130;" 
d="M522 1624v201h180v-201h-180zM164 0v172h362v1110h-362v172h901v-172h-363v-1110h363v-172h-901z" />
    <glyph glyph-name="dotlessi" unicode="&#x131;" 
d="M164 0v152h436v782h-416v151h588v-933h375v-152h-983z" />
    <glyph glyph-name="Jcircumflex" unicode="&#x134;" 
d="M664 1593l190 273h193l190 -273h-143l-144 185l-143 -185h-143zM563 -33q-215 0 -345 136.5t-136 367.5l172 16q6 -177 81.5 -262.5t227.5 -85.5q305 0 305 348v967h176v-967q0 -241 -129 -380.5t-352 -139.5z" />
    <glyph glyph-name="jcircumflex" unicode="&#x135;" 
d="M522 1225l191 272h192l191 -272h-144l-143 184l-143 -184h-144zM225 -307v151h344q83 0 121.5 36.5t38.5 131.5v922h-483v151h655v-1085q0 -152 -75.5 -229.5t-235.5 -77.5h-365z" />
    <glyph glyph-name="uni0136" unicode="&#x136;" 
d="M123 0v1454h176v-729l610 729h217l-546 -639l567 -815h-217l-467 678l-164 -191v-487h-176zM438 -492l111 197h-70v184h205v-176l-131 -205h-115z" />
    <glyph glyph-name="uni0137" unicode="&#x137;" 
d="M184 0v1454h172v-952l529 583h229l-428 -460l449 -625h-209l-357 508l-213 -225v-283h-172zM489 -492l111 197h-70v184h205v-176l-131 -205h-115z" />
    <glyph glyph-name="Lacute" unicode="&#x139;" 
d="M215 1597l135 263h193l-185 -263h-143zM205 0v1454h176v-1282h725v-172h-901z" />
    <glyph glyph-name="lacute" unicode="&#x13a;" 
d="M496 1597l135 263h192l-184 -263h-143zM123 0v152h436v1011q0 66 -36.5 103t-102.5 37h-256v151h264q149 0 226 -77t77 -226v-999h375v-152h-983z" />
    <glyph glyph-name="uni013B" unicode="&#x13b;" 
d="M205 0v1454h176v-1282h725v-172h-901zM514 -492l111 197h-70v184h205v-176l-131 -205h-115z" />
    <glyph glyph-name="uni013C" unicode="&#x13c;" 
d="M123 0v152h436v1011q0 66 -36.5 103t-102.5 37h-256v151h264q149 0 226 -77t77 -226v-999h375v-152h-983zM500 -492l110 197h-69v184h204v-176l-131 -205h-114z" />
    <glyph glyph-name="Lcaron" unicode="&#x13d;" 
d="M205 0v1454h176v-1282h725v-172h-901zM725 934l61 520h172l-110 -520h-123z" />
    <glyph glyph-name="lcaron" unicode="&#x13e;" 
d="M123 0v152h436v1011q0 66 -36.5 103t-102.5 37h-256v151h264q149 0 226 -77t77 -226v-999h375v-152h-983zM860 934l62 520h172l-111 -520h-123z" />
    <glyph glyph-name="Lslash" unicode="&#x141;" 
d="M205 0v610l-144 -73v155l144 74v688h176v-596l311 162v-156l-311 -162v-530h725v-172h-901z" />
    <glyph glyph-name="lslash" unicode="&#x142;" 
d="M123 0v152h436v555l-211 -84v135l211 84v321q0 66 -36.5 103t-102.5 37h-256v151h264q149 0 226 -77t77 -226v-240l232 93v-136l-232 -92v-624h375v-152h-983z" />
    <glyph glyph-name="Nacute" unicode="&#x143;" 
d="M537 1597l135 263h192l-184 -263h-143zM143 0v1454h250l516 -1253v1253h176v-1454h-249l-517 1253v-1253h-176z" />
    <glyph glyph-name="nacute" unicode="&#x144;" 
d="M537 1229l135 262h192l-184 -262h-143zM172 0v1085h158l4 -194q43 108 135.5 163.5t210.5 55.5q179 0 278 -116t99 -296v-698h-172v649q0 309 -242 309q-131 0 -215 -81.5t-84 -227.5v-649h-172z" />
    <glyph glyph-name="uni0145" unicode="&#x145;" 
d="M143 0v1454h250l516 -1253v1253h176v-1454h-249l-517 1253v-1253h-176zM471 -492l111 197h-70v184h205v-176l-131 -205h-115z" />
    <glyph glyph-name="uni0146" unicode="&#x146;" 
d="M172 0v1085h158l4 -194q43 108 135.5 163.5t210.5 55.5q179 0 278 -116t99 -296v-698h-172v649q0 309 -242 309q-131 0 -215 -81.5t-84 -227.5v-649h-172zM471 -492l111 197h-70v184h205v-176l-131 -205h-115z" />
    <glyph glyph-name="Ncaron" unicode="&#x147;" 
d="M328 1866h143l143 -185l144 185h143l-190 -273h-193zM143 0v1454h250l516 -1253v1253h176v-1454h-249l-517 1253v-1253h-176z" />
    <glyph glyph-name="ncaron" unicode="&#x148;" 
d="M328 1497h143l143 -184l144 184h143l-190 -272h-193zM172 0v1085h158l4 -194q43 108 135.5 163.5t210.5 55.5q179 0 278 -116t99 -296v-698h-172v649q0 309 -242 309q-131 0 -215 -81.5t-84 -227.5v-649h-172z" />
    <glyph glyph-name="Eng" unicode="&#x14a;" 
d="M143 0v1454h250l516 -1253v1253h176v-1468q0 -134 -83 -213.5t-224 -79.5h-211v172h211q131 0 131 119v16h-73l-517 1253v-1253h-176z" />
    <glyph glyph-name="eng" unicode="&#x14b;" 
d="M172 0v1085h158l4 -194q43 108 135.5 163.5t210.5 55.5q179 0 278 -116t99 -296v-712q0 -134 -82.5 -213.5t-224.5 -79.5h-166v151h170q61 0 96 38t35 102v665q0 309 -242 309q-131 0 -215 -81.5t-84 -227.5v-649h-172z" />
    <glyph glyph-name="Omacron" unicode="&#x14c;" 
d="M338 1649v147h549v-147h-549zM614 -33q-258 0 -397 197t-139 561q0 367 139 564.5t397 197.5t397.5 -197.5t139.5 -564.5q0 -364 -139.5 -561t-397.5 -197zM614 139q170 0 261.5 151t91.5 435q0 285 -92 437.5t-261 152.5t-260.5 -152.5t-91.5 -437.5t91.5 -435.5
t260.5 -150.5z" />
    <glyph glyph-name="omacron" unicode="&#x14d;" 
d="M338 1280v147h549v-147h-549zM614 -25q-226 0 -360.5 154.5t-134.5 413.5t134.5 413t360.5 154q225 0 360.5 -154t135.5 -413t-135.5 -413.5t-360.5 -154.5zM614 139q149 0 232.5 107.5t83.5 296.5t-83.5 296t-232.5 107q-150 0 -232.5 -106.5t-82.5 -296.5t82.5 -297
t232.5 -107z" />
    <glyph glyph-name="Ohungarumlaut" unicode="&#x150;" 
d="M389 1593l135 262h193l-185 -262h-143zM676 1593l135 262h193l-185 -262h-143zM614 -33q-258 0 -397 197t-139 561q0 367 139 564.5t397 197.5t397.5 -197.5t139.5 -564.5q0 -364 -139.5 -561t-397.5 -197zM614 139q170 0 261.5 151t91.5 435q0 285 -92 437.5t-261 152.5
t-260.5 -152.5t-91.5 -437.5t91.5 -435.5t260.5 -150.5z" />
    <glyph glyph-name="ohungarumlaut" unicode="&#x151;" 
d="M389 1225l135 262h193l-185 -262h-143zM676 1225l135 262h193l-185 -262h-143zM614 -25q-226 0 -360.5 154.5t-134.5 413.5t134.5 413t360.5 154q225 0 360.5 -154t135.5 -413t-135.5 -413.5t-360.5 -154.5zM614 139q149 0 232.5 107.5t83.5 296.5t-83.5 296t-232.5 107
q-150 0 -232.5 -106.5t-82.5 -296.5t82.5 -297t232.5 -107z" />
    <glyph glyph-name="OE" unicode="&#x152;" 
d="M434 -33q-199 0 -306.5 195.5t-107.5 562.5q0 368 107.5 565t306.5 197q143 0 238 -125v92h520v-172h-344v-469h319v-168h-319v-473h360v-172h-536v90q-96 -123 -238 -123zM434 139q126 0 180 144.5t54 441.5q0 299 -53.5 444.5t-180.5 145.5q-126 0 -179.5 -145
t-53.5 -445q0 -297 53.5 -441.5t179.5 -144.5z" />
    <glyph glyph-name="oe" unicode="&#x153;" 
d="M358 -25q-155 0 -246.5 153.5t-91.5 414.5t91.5 414t246.5 153q163 0 252 -162q92 162 267 162q163 0 248 -139.5t85 -403.5v-78h-510q7 -168 53.5 -259t123.5 -91q60 0 93.5 42t53.5 141l174 -15q-38 -180 -111.5 -256t-209.5 -76q-173 0 -267 168q-94 -168 -252 -168z
M358 139q77 0 120.5 107.5t43.5 296.5t-43.5 296t-120.5 107q-75 0 -118 -107.5t-43 -295.5t43 -296t118 -108zM702 641h330q-21 305 -166 305q-140 0 -164 -305z" />
    <glyph glyph-name="Racute" unicode="&#x154;" 
d="M508 1597l135 263h193l-185 -263h-143zM143 0v1454h443q229 0 362 -116t133 -318q0 -123 -71 -215.5t-174 -126.5q105 -20 158 -82t63 -178l37 -418h-176l-35 395q-9 104 -65.5 147.5t-194.5 43.5h-304v-586h-176zM319 758h267q150 0 230.5 68t80.5 194t-80.5 194
t-230.5 68h-267v-524z" />
    <glyph glyph-name="racute" unicode="&#x155;" 
d="M616 1229l136 262h192l-184 -262h-144zM184 0v152h283v782h-283v151h426l13 -208q55 208 260 208h223v-155h-221q-120 0 -183 -70.5t-63 -204.5v-503h344v-152h-799z" />
    <glyph glyph-name="uni0156" unicode="&#x156;" 
d="M143 0v1454h443q229 0 362 -116t133 -318q0 -123 -71 -215.5t-174 -126.5q105 -20 158 -82t63 -178l37 -418h-176l-35 395q-9 104 -65.5 147.5t-194.5 43.5h-304v-586h-176zM319 758h267q150 0 230.5 68t80.5 194t-80.5 194t-230.5 68h-267v-524zM479 -492l111 197h-70
v184h205v-176l-131 -205h-115z" />
    <glyph glyph-name="uni0157" unicode="&#x157;" 
d="M184 0v152h283v782h-283v151h426l13 -208q55 208 260 208h223v-155h-221q-120 0 -183 -70.5t-63 -204.5v-503h344v-152h-799zM408 -492l110 197h-69v184h204v-176l-131 -205h-114z" />
    <glyph glyph-name="Rcaron" unicode="&#x158;" 
d="M299 1866h143l144 -185l143 185h143l-190 -273h-193zM143 0v1454h443q229 0 362 -116t133 -318q0 -123 -71 -215.5t-174 -126.5q105 -20 158 -82t63 -178l37 -418h-176l-35 395q-9 104 -65.5 147.5t-194.5 43.5h-304v-586h-176zM319 758h267q150 0 230.5 68t80.5 194
t-80.5 194t-230.5 68h-267v-524z" />
    <glyph glyph-name="rcaron" unicode="&#x159;" 
d="M408 1497h143l143 -184l144 184h143l-190 -272h-193zM184 0v152h283v782h-283v151h426l13 -208q55 208 260 208h223v-155h-221q-120 0 -183 -70.5t-63 -204.5v-503h344v-152h-799z" />
    <glyph glyph-name="Sacute" unicode="&#x15a;" 
d="M535 1597l135 263h192l-184 -263h-143zM637 -33q-229 0 -378.5 137.5t-168.5 360.5l184 12q22 -162 117.5 -250t249.5 -88q152 0 232.5 57.5t80.5 163.5q0 74 -31 123t-120 95t-256 94q-232 66 -327 153.5t-95 247.5q0 185 130.5 299.5t352.5 114.5q217 0 347.5 -127.5
t156.5 -335.5l-184 -12q-20 139 -101 221t-223 82q-134 0 -214.5 -64.5t-80.5 -169.5q0 -101 69 -151.5t279 -110.5q266 -75 374 -178.5t108 -284.5q0 -172 -140 -280.5t-362 -108.5z" />
    <glyph glyph-name="sacute" unicode="&#x15b;" 
d="M541 1229l135 262h192l-184 -262h-143zM635 -25q-206 0 -332.5 104t-138.5 263l180 12q15 -103 89.5 -159t201.5 -56q254 0 254 144q0 49 -22.5 78t-83.5 51t-181 43q-156 27 -246 71t-126.5 104.5t-36.5 151.5q0 145 108.5 236.5t302.5 91.5q190 0 301.5 -98t138.5 -250
l-180 -12q-19 89 -87 142.5t-175 53.5q-115 0 -174 -45.5t-59 -118.5q0 -80 57.5 -115t212.5 -61q167 -27 260 -69t129.5 -101t36.5 -153q0 -142 -120.5 -225t-309.5 -83z" />
    <glyph glyph-name="Scircumflex" unicode="&#x15c;" 
d="M324 1593l190 273h193l190 -273h-143l-144 185l-143 -185h-143zM637 -33q-229 0 -378.5 137.5t-168.5 360.5l184 12q22 -162 117.5 -250t249.5 -88q152 0 232.5 57.5t80.5 163.5q0 74 -31 123t-120 95t-256 94q-232 66 -327 153.5t-95 247.5q0 185 130.5 299.5
t352.5 114.5q217 0 347.5 -127.5t156.5 -335.5l-184 -12q-20 139 -101 221t-223 82q-134 0 -214.5 -64.5t-80.5 -169.5q0 -101 69 -151.5t279 -110.5q266 -75 374 -178.5t108 -284.5q0 -172 -140 -280.5t-362 -108.5z" />
    <glyph glyph-name="scircumflex" unicode="&#x15d;" 
d="M330 1225l190 272h193l190 -272h-143l-144 184l-143 -184h-143zM635 -25q-206 0 -332.5 104t-138.5 263l180 12q15 -103 89.5 -159t201.5 -56q254 0 254 144q0 49 -22.5 78t-83.5 51t-181 43q-156 27 -246 71t-126.5 104.5t-36.5 151.5q0 145 108.5 236.5t302.5 91.5
q190 0 301.5 -98t138.5 -250l-180 -12q-19 89 -87 142.5t-175 53.5q-115 0 -174 -45.5t-59 -118.5q0 -80 57.5 -115t212.5 -61q167 -27 260 -69t129.5 -101t36.5 -153q0 -142 -120.5 -225t-309.5 -83z" />
    <glyph glyph-name="Scedilla" unicode="&#x15e;" 
d="M594 -451q-94 0 -155.5 44t-84.5 116l105 41q19 -46 49.5 -66t81.5 -20q52 0 81 22t29 60q0 44 -32 67t-123 23l-58 62l50 77q-190 29 -310 161t-137 329l184 12q22 -162 117.5 -250t249.5 -88q152 0 232.5 57.5t80.5 163.5q0 74 -31 123t-120 95t-256 94
q-232 66 -327 153.5t-95 247.5q0 185 130.5 299.5t352.5 114.5q217 0 347.5 -127.5t156.5 -335.5l-184 -12q-20 139 -101 221t-223 82q-134 0 -214.5 -64.5t-80.5 -169.5q0 -101 69 -151.5t279 -110.5q266 -75 374 -178.5t108 -284.5q0 -167 -133.5 -275t-348.5 -114
l-30 -41q97 -4 146.5 -53t49.5 -131q0 -86 -64.5 -139.5t-164.5 -53.5z" />
    <glyph glyph-name="scedilla" unicode="&#x15f;" 
d="M598 -451q-94 0 -155.5 44t-84.5 116l105 41q19 -46 49.5 -66t81.5 -20q52 0 81.5 22t29.5 60q0 44 -32.5 67t-123.5 23l-57 62l53 84q-168 23 -269 121.5t-112 238.5l180 12q15 -103 89.5 -159t201.5 -56q254 0 254 144q0 49 -22.5 78t-83.5 51t-181 43q-156 27 -246 71
t-126.5 104.5t-36.5 151.5q0 145 108.5 236.5t302.5 91.5q190 0 301.5 -98t138.5 -250l-180 -12q-19 89 -87 142.5t-175 53.5q-115 0 -174 -45.5t-59 -118.5q0 -80 57.5 -115t212.5 -61q167 -27 260 -69t129.5 -101t36.5 -153q0 -135 -110.5 -217.5t-286.5 -90.5l-37 -49
q97 -4 146.5 -53t49.5 -131q0 -86 -64.5 -139.5t-164.5 -53.5z" />
    <glyph glyph-name="Scaron" unicode="&#x160;" 
d="M326 1866h143l143 -185l144 185h143l-190 -273h-193zM637 -33q-229 0 -378.5 137.5t-168.5 360.5l184 12q22 -162 117.5 -250t249.5 -88q152 0 232.5 57.5t80.5 163.5q0 74 -31 123t-120 95t-256 94q-232 66 -327 153.5t-95 247.5q0 185 130.5 299.5t352.5 114.5
q217 0 347.5 -127.5t156.5 -335.5l-184 -12q-20 139 -101 221t-223 82q-134 0 -214.5 -64.5t-80.5 -169.5q0 -101 69 -151.5t279 -110.5q266 -75 374 -178.5t108 -284.5q0 -172 -140 -280.5t-362 -108.5z" />
    <glyph glyph-name="scaron" unicode="&#x161;" 
d="M332 1497h143l143 -184l144 184h143l-190 -272h-193zM635 -25q-206 0 -332.5 104t-138.5 263l180 12q15 -103 89.5 -159t201.5 -56q254 0 254 144q0 49 -22.5 78t-83.5 51t-181 43q-156 27 -246 71t-126.5 104.5t-36.5 151.5q0 145 108.5 236.5t302.5 91.5
q190 0 301.5 -98t138.5 -250l-180 -12q-19 89 -87 142.5t-175 53.5q-115 0 -174 -45.5t-59 -118.5q0 -80 57.5 -115t212.5 -61q167 -27 260 -69t129.5 -101t36.5 -153q0 -142 -120.5 -225t-309.5 -83z" />
    <glyph glyph-name="uni0162" unicode="&#x162;" 
d="M526 0v1282h-444v172h1065v-172h-445v-1282h-20l-55 -74q97 -4 146.5 -53t49.5 -131q0 -86 -64.5 -139.5t-164.5 -53.5q-94 0 -155.5 44t-84.5 116l105 41q19 -46 49.5 -66t81.5 -20q52 0 81 22t29 60q0 44 -32 67t-123 23l-58 62l66 102h-27z" />
    <glyph glyph-name="uni0163" unicode="&#x163;" 
d="M717 -451q-94 0 -155.5 44t-84.5 116l105 41q19 -46 49.5 -66t81.5 -20q52 0 81 22t29 60q0 44 -32 67t-123 23l-58 62l70 110q-219 40 -219 291v635h-359v151h359v254h172v-254h432v-151h-432v-635q0 -75 34.5 -111t106.5 -36h291v-152h-260l-55 -74q97 -4 146.5 -53
t49.5 -131q0 -86 -64.5 -139.5t-164.5 -53.5z" />
    <glyph glyph-name="Tcaron" unicode="&#x164;" 
d="M328 1866h143l143 -185l144 185h143l-190 -273h-193zM526 0v1282h-444v172h1065v-172h-445v-1282h-176z" />
    <glyph glyph-name="tcaron" unicode="&#x165;" 
d="M776 1174l62 520h172l-111 -520h-123zM774 0q-159 0 -236 73.5t-77 225.5v635h-359v151h359v254h172v-254h432v-151h-432v-635q0 -75 34.5 -111t106.5 -36h291v-152h-291z" />
    <glyph glyph-name="Tbar" unicode="&#x166;" 
d="M526 0v633h-239v160h239v489h-444v172h1065v-172h-445v-489h240v-160h-240v-633h-176z" />
    <glyph glyph-name="tbar" unicode="&#x167;" 
d="M221 524v140h240v270h-359v151h359v254h172v-254h432v-151h-432v-270h325v-140h-325v-225q0 -75 34.5 -111t106.5 -36h291v-152h-291q-159 0 -236 73.5t-77 225.5v225h-240z" />
    <glyph glyph-name="Utilde" unicode="&#x168;" 
d="M737 1618q-69 0 -143 61q-39 33 -58.5 43.5t-48.5 10.5q-85 0 -90 -129h-106q3 115 56.5 177t139.5 62q78 0 156 -65q60 -49 102 -49q39 0 59.5 30.5t26.5 104.5h107q-6 -116 -59.5 -181t-141.5 -65zM614 -33q-228 0 -359.5 145t-131.5 396v946h176v-946
q0 -180 80.5 -274.5t234.5 -94.5t235 94.5t81 274.5v946h176v-946q0 -251 -131.5 -396t-360.5 -145z" />
    <glyph glyph-name="utilde" unicode="&#x169;" 
d="M723 1249q-68 0 -143 62q-39 32 -58.5 42.5t-48.5 10.5q-85 0 -90 -129h-107q3 115 57 177.5t140 62.5q46 0 81 -16.5t75 -49.5q60 -49 102 -49q39 0 59.5 30.5t26.5 104.5h107q-6 -116 -59.5 -181t-141.5 -65zM539 -25q-163 0 -259 110t-96 302v698h172v-651
q0 -158 56.5 -232.5t173.5 -74.5q128 0 201 82.5t73 228.5v647h172v-1085h-164v176q-45 -97 -129 -149t-200 -52z" />
    <glyph glyph-name="Umacron" unicode="&#x16a;" 
d="M338 1649v147h549v-147h-549zM614 -33q-228 0 -359.5 145t-131.5 396v946h176v-946q0 -180 80.5 -274.5t234.5 -94.5t235 94.5t81 274.5v946h176v-946q0 -251 -131.5 -396t-360.5 -145z" />
    <glyph glyph-name="umacron" unicode="&#x16b;" 
d="M324 1280v147h548v-147h-548zM539 -25q-163 0 -259 110t-96 302v698h172v-651q0 -158 56.5 -232.5t173.5 -74.5q128 0 201 82.5t73 228.5v647h172v-1085h-164v176q-45 -97 -129 -149t-200 -52z" />
    <glyph glyph-name="Ubreve" unicode="&#x16c;" 
d="M614 1604q-126 0 -203 71t-83 191h118q17 -135 168 -135t168 135h119q-6 -120 -83.5 -191t-203.5 -71zM614 -33q-228 0 -359.5 145t-131.5 396v946h176v-946q0 -180 80.5 -274.5t234.5 -94.5t235 94.5t81 274.5v946h176v-946q0 -251 -131.5 -396t-360.5 -145z" />
    <glyph glyph-name="ubreve" unicode="&#x16d;" 
d="M600 1235q-126 0 -203.5 71t-83.5 191h119q17 -135 168 -135t168 135h119q-6 -120 -83.5 -191t-203.5 -71zM539 -25q-163 0 -259 110t-96 302v698h172v-651q0 -158 56.5 -232.5t173.5 -74.5q128 0 201 82.5t73 228.5v647h172v-1085h-164v176q-45 -97 -129 -149t-200 -52z
" />
    <glyph glyph-name="Uring" unicode="&#x16e;" 
d="M614 1548q-79 0 -133.5 54.5t-54.5 134.5q0 79 54 133.5t134 54.5t134.5 -54.5t54.5 -133.5t-54.5 -134t-134.5 -55zM614 1651q37 0 61.5 24.5t24.5 61.5t-24.5 61.5t-61.5 24.5t-61.5 -24.5t-24.5 -61.5t24.5 -61.5t61.5 -24.5zM614 -33q-228 0 -359.5 145t-131.5 396
v946h176v-946q0 -180 80.5 -274.5t234.5 -94.5t235 94.5t81 274.5v946h176v-946q0 -251 -131.5 -396t-360.5 -145z" />
    <glyph glyph-name="uring" unicode="&#x16f;" 
d="M600 1180q-80 0 -134 54t-54 134t54 134t134 54t134 -54t54 -134t-54 -134t-134 -54zM600 1282q37 0 61.5 24.5t24.5 61.5t-24.5 61.5t-61.5 24.5t-61.5 -24.5t-24.5 -61.5t24.5 -61.5t61.5 -24.5zM539 -25q-163 0 -259 110t-96 302v698h172v-651q0 -158 56.5 -232.5
t173.5 -74.5q128 0 201 82.5t73 228.5v647h172v-1085h-164v176q-45 -97 -129 -149t-200 -52z" />
    <glyph glyph-name="Uhungarumlaut" unicode="&#x170;" 
d="M389 1593l135 262h193l-185 -262h-143zM676 1593l135 262h193l-185 -262h-143zM614 -33q-228 0 -359.5 145t-131.5 396v946h176v-946q0 -180 80.5 -274.5t234.5 -94.5t235 94.5t81 274.5v946h176v-946q0 -251 -131.5 -396t-360.5 -145z" />
    <glyph glyph-name="uhungarumlaut" unicode="&#x171;" 
d="M375 1225l135 262h192l-184 -262h-143zM662 1225l135 262h192l-184 -262h-143zM539 -25q-163 0 -259 110t-96 302v698h172v-651q0 -158 56.5 -232.5t173.5 -74.5q128 0 201 82.5t73 228.5v647h172v-1085h-164v176q-45 -97 -129 -149t-200 -52z" />
    <glyph glyph-name="Uogonek" unicode="&#x172;" 
d="M614 -33q-228 0 -359.5 145t-131.5 396v946h176v-946q0 -180 80.5 -274.5t234.5 -94.5t235 94.5t81 274.5v946h176v-946q0 -191 -78.5 -323t-220.5 -185l-72 -92q-63 -83 -63 -137q0 -62 61 -62q58 0 94 29l50 -115q-53 -53 -177 -53q-86 0 -135 43.5t-49 120.5
q0 99 84 205l23 28h-9z" />
    <glyph glyph-name="uogonek" unicode="&#x173;" 
d="M539 -25q-163 0 -259 110t-96 302v698h172v-651q0 -158 56.5 -232.5t173.5 -74.5q128 0 201 82.5t73 228.5v647h172v-1085l-71 -92q-64 -85 -64 -137q0 -62 61 -62q59 0 95 29l49 -115q-53 -53 -176 -53q-86 0 -135.5 44t-49.5 120q0 99 84 205l49 61h-6v176
q-45 -97 -129 -149t-200 -52z" />
    <glyph glyph-name="Wcircumflex" unicode="&#x174;" 
d="M326 1593l190 273h193l190 -273h-143l-144 185l-143 -185h-143zM221 0l-160 1454h185l127 -1264l147 1100h189l147 -1100l127 1264h184l-159 -1454h-267l-127 961l-127 -961h-266z" />
    <glyph glyph-name="wcircumflex" unicode="&#x175;" 
d="M326 1225l190 272h193l190 -272h-143l-144 184l-143 -184h-143zM256 0l-215 1085h188l142 -905l159 754h168l160 -754l141 905h189l-213 -1085h-217l-144 684l-143 -684h-215z" />
    <glyph glyph-name="Ycircumflex" unicode="&#x176;" 
d="M326 1593l190 273h193l190 -273h-143l-144 185l-143 -185h-143zM528 0v594l-446 860h201l331 -680l332 680h201l-442 -860v-594h-177z" />
    <glyph glyph-name="ycircumflex" unicode="&#x177;" 
d="M332 1225l190 272h193l190 -272h-143l-144 184l-143 -184h-143zM283 -307v151h125q55 0 83 17t44 57l38 102h-59l-403 1065h188l330 -905l309 905h188l-440 -1222q-31 -89 -92.5 -129.5t-169.5 -40.5h-141z" />
    <glyph glyph-name="Ydieresis" unicode="&#x178;" 
d="M328 1624v201h180v-201h-180zM721 1624v201h180v-201h-180zM528 0v594l-446 860h201l331 -680l332 680h201l-442 -860v-594h-177z" />
    <glyph glyph-name="Zacute" unicode="&#x179;" 
d="M537 1597l135 263h192l-184 -263h-143zM102 0v176l811 1106h-774v172h971v-176l-811 -1106h827v-172h-1024z" />
    <glyph glyph-name="zacute" unicode="&#x17a;" 
d="M539 1229l135 262h192l-184 -262h-143zM168 0v172l688 762h-668v151h856v-172l-688 -761h705v-152h-893z" />
    <glyph glyph-name="Zdotaccent" unicode="&#x17b;" 
d="M522 1624v201h180v-201h-180zM102 0v176l811 1106h-774v172h971v-176l-811 -1106h827v-172h-1024z" />
    <glyph glyph-name="zdotaccent" unicode="&#x17c;" 
d="M524 1255v201h181v-201h-181zM168 0v172l688 762h-668v151h856v-172l-688 -761h705v-152h-893z" />
    <glyph glyph-name="Zcaron" unicode="&#x17d;" 
d="M328 1866h143l143 -185l144 185h143l-190 -273h-193zM102 0v176l811 1106h-774v172h971v-176l-811 -1106h827v-172h-1024z" />
    <glyph glyph-name="zcaron" unicode="&#x17e;" 
d="M330 1497h143l143 -184l144 184h143l-190 -272h-193zM168 0v172l688 762h-668v151h856v-172l-688 -761h705v-152h-893z" />
    <glyph glyph-name="uni018F" unicode="&#x18f;" 
d="M631 -33q-257 0 -405 201.5t-148 533.5v97h907q0 234 -99 375t-268 141q-122 0 -203 -82.5t-116 -228.5l-193 16q62 222 192.5 344.5t311.5 122.5q267 0 414 -198t147 -562q0 -347 -150 -553.5t-390 -206.5zM631 139q162 0 257 131t95 357h-715q0 -227 97 -357.5
t266 -130.5z" />
    <glyph glyph-name="florin" unicode="&#x192;" 
d="M164 0v152h188q115 0 127 112l74 670h-219v151h235l11 95q30 277 307 274l178 -2v-149h-193q-112 0 -124 -115l-13 -103h330v-151h-346l-74 -662q-30 -277 -309 -274z" />
    <glyph glyph-name="uni01CD" unicode="&#x1cd;" 
d="M328 1866h143l143 -185l144 185h143l-190 -273h-193zM53 0l443 1454h237l443 -1454h-189l-119 414h-508l-118 -414h-189zM614 1294l-204 -708h409z" />
    <glyph glyph-name="uni01CE" unicode="&#x1ce;" 
d="M295 1497h143l144 -184l143 184h143l-190 -272h-193zM471 -25q-155 0 -257.5 82t-102.5 213q0 137 82 215t262 113l364 74q0 137 -61.5 205.5t-179.5 68.5q-214 0 -265 -194l-182 14q31 157 148.5 250.5t298.5 93.5q195 0 304 -117.5t109 -324.5v-451q0 -36 15.5 -50.5
t50.5 -14.5h69v-152q-32 -4 -90 -4q-90 0 -142 38t-69 120q-45 -80 -141.5 -129.5t-212.5 -49.5zM487 127q162 0 247 82t85 221v94l-332 -65q-107 -21 -151.5 -62t-44.5 -110q0 -76 51.5 -118t144.5 -42z" />
    <glyph glyph-name="uni01E4" unicode="&#x1e4;" 
d="M612 -33q-259 0 -415 206t-156 552q0 348 156 555t415 207q209 0 340 -126.5t181 -340.5l-185 -12q-77 307 -336 307q-182 0 -284.5 -160t-102.5 -430q0 -269 102.5 -427.5t284.5 -158.5q214 0 301 166h-286v144h334q10 62 10 118h-344v168h520v-100q0 -101 -12 -186h65
v-144h-100q-58 -168 -182.5 -253t-305.5 -85z" />
    <glyph glyph-name="uni01E5" unicode="&#x1e5;" 
d="M608 -332q-174 0 -297 86.5t-157 229.5l180 12q26 -81 90 -122.5t184 -41.5q149 0 227 59.5t78 178.5v176q-40 -86 -125.5 -137.5t-191.5 -51.5q-207 0 -340 148t-133 379q0 232 130.5 379t334.5 147q115 0 206 -53.5t128 -143.5v172h163v-438h103v-143h-103v-430
q0 -191 -126.5 -298.5t-350.5 -107.5zM604 221q123 0 203 75t100 208h-303v143h307q-13 139 -96 219t-211 80q-142 0 -221.5 -97t-79.5 -265q0 -167 81 -265t220 -98z" />
    <glyph glyph-name="Gcaron" unicode="&#x1e6;" 
d="M326 1866h143l143 -185l144 185h143l-190 -273h-193zM610 -33q-238 0 -385 197t-147 561q0 354 143 558t397 204q194 0 327.5 -127.5t182.5 -339.5l-184 -12q-37 142 -119.5 224.5t-206.5 82.5q-170 0 -263 -153.5t-93 -436.5q0 -280 95.5 -433t269.5 -153
q153 0 245.5 118t98.5 310h-348v168h512v-735h-164l-4 201q-113 -234 -357 -234z" />
    <glyph glyph-name="gcaron" unicode="&#x1e7;" 
d="M324 1497h143l143 -184l144 184h143l-190 -272h-193zM608 -332q-174 0 -297 86.5t-157 229.5l180 12q26 -81 90 -122.5t184 -41.5q149 0 227 59.5t78 178.5v176q-40 -86 -125.5 -137.5t-191.5 -51.5q-207 0 -340 148t-133 379q0 232 130.5 379t334.5 147q115 0 206 -53.5
t128 -143.5v172h163v-1011q0 -191 -126.5 -298.5t-350.5 -107.5zM604 221q140 0 224 98t85 265q3 166 -82 264t-227 98t-221.5 -97t-79.5 -265q0 -167 81 -265t220 -98z" />
    <glyph glyph-name="uni01E8" unicode="&#x1e8;" 
d="M281 1866h143l143 -185l144 185h143l-190 -273h-193zM123 0v1454h176v-729l610 729h217l-546 -639l567 -815h-217l-467 678l-164 -191v-487h-176z" />
    <glyph glyph-name="uni01E9" unicode="&#x1e9;" 
d="M-14 1866h143l143 -185l144 185h143l-190 -273h-193zM184 0v1454h172v-952l529 583h229l-428 -460l449 -625h-209l-357 508l-213 -225v-283h-172z" />
    <glyph glyph-name="uni0218" unicode="&#x218;" 
d="M637 -33q-229 0 -378.5 137.5t-168.5 360.5l184 12q22 -162 117.5 -250t249.5 -88q152 0 232.5 57.5t80.5 163.5q0 74 -31 123t-120 95t-256 94q-232 66 -327 153.5t-95 247.5q0 185 130.5 299.5t352.5 114.5q217 0 347.5 -127.5t156.5 -335.5l-184 -12q-20 139 -101 221
t-223 82q-134 0 -214.5 -64.5t-80.5 -169.5q0 -101 69 -151.5t279 -110.5q266 -75 374 -178.5t108 -284.5q0 -172 -140 -280.5t-362 -108.5zM471 -492l111 197h-70v184h205v-176l-131 -205h-115z" />
    <glyph glyph-name="uni0219" unicode="&#x219;" 
d="M635 -25q-206 0 -332.5 104t-138.5 263l180 12q15 -103 89.5 -159t201.5 -56q254 0 254 144q0 49 -22.5 78t-83.5 51t-181 43q-156 27 -246 71t-126.5 104.5t-36.5 151.5q0 145 108.5 236.5t302.5 91.5q190 0 301.5 -98t138.5 -250l-180 -12q-19 89 -87 142.5t-175 53.5
q-115 0 -174 -45.5t-59 -118.5q0 -80 57.5 -115t212.5 -61q167 -27 260 -69t129.5 -101t36.5 -153q0 -142 -120.5 -225t-309.5 -83zM475 -492l111 197h-70v184h205v-176l-131 -205h-115z" />
    <glyph glyph-name="uni021A" unicode="&#x21a;" 
d="M526 0v1282h-444v172h1065v-172h-445v-1282h-176zM471 -492l111 197h-70v184h205v-176l-131 -205h-115z" />
    <glyph glyph-name="uni021B" unicode="&#x21b;" 
d="M774 0q-159 0 -236 73.5t-77 225.5v635h-359v151h359v254h172v-254h432v-151h-432v-635q0 -75 34.5 -111t106.5 -36h291v-152h-291zM594 -492l111 197h-70v184h205v-176l-131 -205h-115z" />
    <glyph glyph-name="uni0237" unicode="&#x237;" 
d="M225 -307v151h344q83 0 121.5 36.5t38.5 131.5v922h-483v151h655v-1085q0 -152 -75.5 -229.5t-235.5 -77.5h-365z" />
    <glyph glyph-name="uni0259" unicode="&#x259;" 
d="M596 1110q229 0 363.5 -154t134.5 -413q0 -258 -133 -413t-357 -155q-217 0 -349 150.5t-132 419.5v51h790q-9 172 -91.5 261t-225.5 89q-103 0 -172.5 -48.5t-97.5 -133.5l-185 14q44 149 165.5 240.5t289.5 91.5zM913 444h-602q12 -152 90 -228.5t203 -76.5
q127 0 207 78t102 227z" />
    <glyph glyph-name="uni02B9" unicode="&#x2b9;" 
d="M451 1229l135 262h192l-184 -262h-143z" />
    <glyph glyph-name="uni02BC" unicode="&#x2bc;" 
d="M483 885l97 319h-111v250h246v-221l-129 -348h-103z" />
    <glyph glyph-name="circumflex" unicode="&#x2c6;" 
d="M328 1225l190 272h193l190 -272h-143l-144 184l-143 -184h-143z" />
    <glyph glyph-name="caron" unicode="&#x2c7;" 
d="M328 1497h143l143 -184l144 184h143l-190 -272h-193z" />
    <glyph glyph-name="uni02C8" unicode="&#x2c8;" 
d="M553 874l-29 424v156h181v-156l-29 -424h-123z" />
    <glyph glyph-name="breve" unicode="&#x2d8;" 
d="M614 1235q-126 0 -203 71t-83 191h118q17 -135 168 -135t168 135h119q-6 -120 -83.5 -191t-203.5 -71z" />
    <glyph glyph-name="dotaccent" unicode="&#x2d9;" 
d="M524 1255v201h181v-201h-181z" />
    <glyph glyph-name="ring" unicode="&#x2da;" 
d="M614 1180q-80 0 -134 54t-54 134t54 134t134 54t134.5 -54.5t54.5 -133.5t-54.5 -133.5t-134.5 -54.5zM614 1282q37 0 61.5 24.5t24.5 61.5t-24.5 61.5t-61.5 24.5t-61.5 -24.5t-24.5 -61.5t24.5 -61.5t61.5 -24.5z" />
    <glyph glyph-name="ogonek" unicode="&#x2db;" 
d="M618 -430q-86 0 -135 43.5t-49 120.5q0 99 84 205l66 81l141 -20l-72 -92q-63 -83 -63 -137q0 -62 61 -62q58 0 94 29l50 -115q-53 -53 -177 -53z" />
    <glyph glyph-name="tilde" unicode="&#x2dc;" 
d="M737 1249q-68 0 -143 62q-39 32 -58.5 42.5t-48.5 10.5q-85 0 -90 -129h-106q3 115 56.5 177.5t139.5 62.5q46 0 81 -16.5t75 -49.5q60 -49 102 -49q39 0 59.5 30.5t26.5 104.5h107q-6 -116 -59.5 -181t-141.5 -65z" />
    <glyph glyph-name="hungarumlaut" unicode="&#x2dd;" 
d="M307 1225l135 262h193l-184 -262h-144zM594 1225l135 262h193l-185 -262h-143z" />
    <glyph glyph-name="gravecomb" unicode="&#x300;" horiz-adv-x="0" 
d="M635 1229l-184 262h192l135 -262h-143z" />
    <glyph glyph-name="acutecomb" unicode="&#x301;" horiz-adv-x="0" 
d="M451 1229l135 262h192l-184 -262h-143z" />
    <glyph glyph-name="uni0302" unicode="&#x302;" horiz-adv-x="0" 
d="M328 1225l190 272h193l190 -272h-143l-144 184l-143 -184h-143z" />
    <glyph glyph-name="tildecomb" unicode="&#x303;" horiz-adv-x="0" 
d="M737 1249q-68 0 -143 62q-39 32 -58.5 42.5t-48.5 10.5q-85 0 -90 -129h-106q3 115 56.5 177.5t139.5 62.5q46 0 81 -16.5t75 -49.5q60 -49 102 -49q39 0 59.5 30.5t26.5 104.5h107q-6 -116 -59.5 -181t-141.5 -65z" />
    <glyph glyph-name="uni0304" unicode="&#x304;" horiz-adv-x="0" 
d="M340 1280v147h549v-147h-549z" />
    <glyph glyph-name="uni0306" unicode="&#x306;" horiz-adv-x="0" 
d="M614 1235q-126 0 -203 71t-83 191h118q17 -135 168 -135t168 135h119q-6 -120 -83.5 -191t-203.5 -71z" />
    <glyph glyph-name="uni0307" unicode="&#x307;" horiz-adv-x="0" 
d="M524 1255v201h181v-201h-181z" />
    <glyph glyph-name="uni0308" unicode="&#x308;" horiz-adv-x="0" 
d="M328 1255v201h180v-201h-180zM721 1255v201h180v-201h-180z" />
    <glyph glyph-name="uni030A" unicode="&#x30a;" horiz-adv-x="0" 
d="M614 1180q-80 0 -134 54t-54 134t54 134t134 54t134.5 -54.5t54.5 -133.5t-54.5 -133.5t-134.5 -54.5zM614 1282q37 0 61.5 24.5t24.5 61.5t-24.5 61.5t-61.5 24.5t-61.5 -24.5t-24.5 -61.5t24.5 -61.5t61.5 -24.5z" />
    <glyph glyph-name="uni030B" unicode="&#x30b;" horiz-adv-x="0" 
d="M307 1225l135 262h193l-184 -262h-144zM594 1225l135 262h193l-185 -262h-143z" />
    <glyph glyph-name="uni030C" unicode="&#x30c;" horiz-adv-x="0" 
d="M328 1497h143l143 -184l144 184h143l-190 -272h-193z" />
    <glyph glyph-name="uni0312" unicode="&#x312;" horiz-adv-x="0" 
d="M758 1616l-111 -197h70v-184h-205v176l131 205h115z" />
    <glyph glyph-name="uni0326" unicode="&#x326;" horiz-adv-x="0" 
d="M471 -492l111 197h-70v184h205v-176l-131 -205h-115z" />
    <glyph glyph-name="uni0327" unicode="&#x327;" horiz-adv-x="0" 
d="M618 -451q-94 0 -155 44t-84 116l104 41q19 -46 49.5 -66t81.5 -20q52 0 81.5 22t29.5 60q0 44 -32.5 67t-123.5 23l-57 62l78 122h131l-70 -94q97 -4 147 -53t50 -131q0 -86 -65 -139.5t-165 -53.5z" />
    <glyph glyph-name="uni0328" unicode="&#x328;" horiz-adv-x="0" 
d="M618 -430q-86 0 -135 43.5t-49 120.5q0 99 84 205l66 81l141 -20l-72 -92q-63 -83 -63 -137q0 -62 61 -62q58 0 94 29l50 -115q-53 -53 -177 -53z" />
    <glyph glyph-name="uni0335" unicode="&#x335;" horiz-adv-x="0" 
d="M307 647v139h615v-139h-615z" />
    <glyph glyph-name="uni0336" unicode="&#x336;" horiz-adv-x="0" 
d="M41 1087v164h1147v-164h-1147z" />
    <glyph glyph-name="uni0337" unicode="&#x337;" horiz-adv-x="0" 
d="M307 606v135l615 246v-135z" />
    <glyph glyph-name="uni0338" unicode="&#x338;" horiz-adv-x="0" 
d="M164 -33l754 1143h147l-754 -1143h-147z" />
    <glyph glyph-name="Lambda" unicode="&#x39b;" 
d="M53 0l443 1454h237l443 -1454h-181l-381 1300l-381 -1300h-180z" />
    <glyph glyph-name="uni03A9" unicode="&#x3a9;" 
d="M23 0v172h270q-121 81 -198 242.5t-77 330.5q0 215 75.5 384.5t211.5 263.5t309 94t309 -94t211.5 -263.5t75.5 -384.5q0 -170 -76.5 -331t-197.5 -242h270v-172h-510v172q138 2 234 168t96 405q0 251 -115.5 410.5t-296.5 159.5t-296 -159.5t-115 -410.5
q0 -239 95.5 -405t233.5 -168v-172h-509z" />
    <glyph glyph-name="lambda" unicode="&#x3bb;" 
d="M121 0l401 1022l-51 166q-19 60 -46.5 87.5t-80.5 27.5h-129v151h115q129 0 201 -62t118 -212l281 -914q19 -59 46 -86.5t79 -27.5h71v-152h-69q-125 0 -191.5 60t-113.5 214l-154 500l-297 -774h-180z" />
    <glyph glyph-name="pi" unicode="&#x3c0;" 
d="M252 0v934h-219v151h1159v-151h-209v-635q0 -70 36 -108.5t103 -38.5h66v-152h-64q-160 0 -236.5 79t-76.5 220v635h-387v-934h-172z" />
    <glyph glyph-name="uni0400" unicode="&#x400;" 
d="M590 1599l-184 263h192l135 -263h-143zM184 0v1454h885v-172h-709v-469h684v-168h-684v-473h725v-172h-901z" />
    <glyph glyph-name="uni0401" unicode="&#x401;" 
d="M365 1626v201h180v-201h-180zM758 1626v201h180v-201h-180zM184 0v1454h885v-172h-709v-469h684v-168h-684v-473h725v-172h-901z" />
    <glyph glyph-name="uni0402" unicode="&#x402;" 
d="M246 0v1282h-236v172h711v-172h-299v-508q39 87 122.5 140t186.5 53q209 0 343 -133.5t134 -344.5q0 -226 -157.5 -357.5t-427.5 -131.5v172q188 0 294.5 85t106.5 232q0 141 -79.5 223.5t-213.5 82.5q-136 0 -222.5 -84.5t-86.5 -216.5v-494h-176z" />
    <glyph glyph-name="uni0403" unicode="&#x403;" 
d="M590 1597l135 263h193l-185 -263h-143zM205 0v1454h925v-172h-749v-1282h-176z" />
    <glyph glyph-name="uni0404" unicode="&#x404;" 
d="M614 -33q-258 0 -397 197t-139 561q0 367 139 564.5t397 197.5q216 0 349.5 -139t173.5 -402h-189q-31 179 -116.5 274t-217.5 95q-155 0 -245.5 -130.5t-104.5 -373.5h443v-172h-443q13 -241 104 -370.5t246 -129.5q132 0 218 95t118 274h187q-38 -262 -172.5 -401.5
t-350.5 -139.5z" />
    <glyph glyph-name="uni0405" unicode="&#x405;" 
d="M637 -33q-229 0 -378.5 137.5t-168.5 360.5l184 12q22 -162 117.5 -250t249.5 -88q152 0 232.5 57.5t80.5 163.5q0 74 -31 123t-120 95t-256 94q-232 66 -327 153.5t-95 247.5q0 185 130.5 299.5t352.5 114.5q217 0 347.5 -127.5t156.5 -335.5l-184 -12q-20 139 -101 221
t-223 82q-134 0 -214.5 -64.5t-80.5 -169.5q0 -101 69 -151.5t279 -110.5q266 -75 374 -178.5t108 -284.5q0 -172 -140 -280.5t-362 -108.5z" />
    <glyph glyph-name="uni0406" unicode="&#x406;" 
d="M164 0v172h362v1110h-362v172h901v-172h-363v-1110h363v-172h-901z" />
    <glyph glyph-name="uni0407" unicode="&#x407;" 
d="M328 1624v201h180v-201h-180zM721 1624v201h180v-201h-180zM164 0v172h362v1110h-362v172h901v-172h-363v-1110h363v-172h-901z" />
    <glyph glyph-name="uni0408" unicode="&#x408;" 
d="M563 -33q-215 0 -345 136.5t-136 367.5l172 16q6 -177 81.5 -262.5t227.5 -85.5q305 0 305 348v967h176v-967q0 -241 -129 -380.5t-352 -139.5z" />
    <glyph glyph-name="uni0409" unicode="&#x409;" 
d="M10 0v172h58q54 0 85.5 40.5t34.5 109.5l54 1132h506l2 -565h57q196 0 304 -118.5t108 -330.5q0 -208 -108 -324t-304 -116h-236v1282h-163l-41 -981q-6 -142 -74 -221.5t-199 -79.5h-84zM750 172h38q118 0 173 66.5t55 201.5q0 139 -55 208t-173 69h-38v-545z" />
    <glyph glyph-name="uni040A" unicode="&#x40a;" 
d="M41 0v1454h176v-565h242v565h178v-565h78q238 0 355.5 -116.5t117.5 -332.5q0 -212 -117.5 -326t-355.5 -114h-256v717h-242v-717h-176zM637 172h59q160 0 224.5 64.5t64.5 203.5q0 143 -64.5 210t-224.5 67h-59v-545z" />
    <glyph glyph-name="uni040B" unicode="&#x40b;" 
d="M246 0v1282h-236v172h711v-172h-299v-510q40 87 128 141t195 54q189 0 305.5 -128t116.5 -343v-496h-176v496q0 132 -74.5 215.5t-191.5 83.5q-133 0 -218 -84.5t-85 -216.5v-494h-176z" />
    <glyph glyph-name="uni040C" unicode="&#x40c;" 
d="M524 1597l135 263h193l-184 -263h-144zM119 0v1454h176v-711l610 711h232l-629 -727l649 -727h-231l-631 711v-711h-176z" />
    <glyph glyph-name="uni040D" unicode="&#x40d;" 
d="M553 1597l-184 263h192l135 -263h-143zM1085 0h-176v1253l-516 -1253h-250v1454h176v-1253l517 1253h249v-1454z" />
    <glyph glyph-name="uni040E" unicode="&#x40e;" 
d="M623 1604q-126 0 -203.5 71t-83.5 191h119q17 -135 168 -135t168 135h118q-6 -120 -83 -191t-203 -71zM289 0v172h125q40 0 65.5 17.5t40.5 58.5l51 141h-69l-396 1065h195l326 -901l315 901h193l-463 -1284q-31 -87 -90 -128.5t-152 -41.5h-141z" />
    <glyph glyph-name="uni040F" unicode="&#x40f;" 
d="M526 -307v307h-383v1454h176v-1282h590v1282h176v-1454h-383v-307h-176z" />
    <glyph glyph-name="uni0410" unicode="&#x410;" 
d="M53 0l443 1454h237l443 -1454h-189l-119 414h-508l-118 -414h-189zM614 1294l-204 -708h409z" />
    <glyph glyph-name="uni0411" unicode="&#x411;" 
d="M164 0v1454h907v-172h-731v-393h266q229 0 364.5 -118.5t135.5 -326.5q0 -207 -135.5 -325.5t-364.5 -118.5h-442zM340 172h246q336 0 336 272q0 273 -336 273h-246v-545z" />
    <glyph glyph-name="uni0412" unicode="&#x412;" 
d="M184 0v1454h410q236 0 359.5 -104.5t123.5 -292.5q0 -118 -72 -201.5t-192 -105.5q153 -20 239.5 -111.5t86.5 -232.5q0 -189 -132 -297.5t-362 -108.5h-461zM360 825h242q291 0 291 228q0 229 -291 229h-242v-457zM360 172h287q154 0 230.5 60.5t76.5 173.5
q0 118 -79 182.5t-228 64.5h-287v-481z" />
    <glyph glyph-name="uni0413" unicode="&#x413;" 
d="M205 0v1454h925v-172h-749v-1282h-176z" />
    <glyph glyph-name="uni0414" unicode="&#x414;" 
d="M25 -307v479h84q76 0 117.5 65t56.5 205l106 1012h619v-1282h180v-479h-176v307h-811v-307h-176zM377 172h454v1110h-280l-92 -860q-18 -162 -82 -250z" />
    <glyph glyph-name="uni0415" unicode="&#x415;" 
d="M184 0v1454h885v-172h-709v-469h684v-168h-684v-473h725v-172h-901z" />
    <glyph glyph-name="uni0416" unicode="&#x416;" 
d="M14 0l342 727l-321 727h190l301 -680v680h176v-680l302 680h190l-322 -727l342 -727h-190l-322 684v-684h-176v684l-321 -684h-191z" />
    <glyph glyph-name="uni0417" unicode="&#x417;" 
d="M614 -33q-227 0 -382 114.5t-164 293.5l182 12q10 -113 111 -180.5t253 -67.5q161 0 261 75t100 200q0 70 -30 125t-79.5 86.5t-106.5 47.5t-116 15l-151 -2v174l151 -2q47 -1 94 12.5t90 41t70 78.5t27 118q0 94 -86 150.5t-224 56.5q-125 0 -210.5 -52t-98.5 -139
l-184 13q20 153 160 251.5t333 98.5q214 0 354 -106.5t140 -272.5q0 -245 -266 -322q152 -44 233.5 -145t81.5 -242q0 -189 -154 -310.5t-389 -121.5z" />
    <glyph glyph-name="uni0418" unicode="&#x418;" 
d="M1085 0h-176v1253l-516 -1253h-250v1454h176v-1253l517 1253h249v-1454z" />
    <glyph glyph-name="uni0419" unicode="&#x419;" 
d="M614 1604q-126 0 -203 71t-83 191h118q17 -135 168 -135t168 135h119q-6 -120 -83.5 -191t-203.5 -71zM1085 0h-176v1253l-516 -1253h-250v1454h176v-1253l517 1253h249v-1454z" />
    <glyph glyph-name="uni041A" unicode="&#x41a;" 
d="M119 0v1454h176v-711l610 711h232l-629 -727l649 -727h-231l-631 711v-711h-176z" />
    <glyph glyph-name="uni041B" unicode="&#x41b;" 
d="M41 0v172h119q54 0 84.5 40t36.5 110l94 1132h745v-1454h-176v1282h-403l-82 -981q-23 -301 -273 -301h-145z" />
    <glyph glyph-name="uni041C" unicode="&#x41c;" 
d="M537 164l-258 1059v-1223h-177v1454h267l245 -1026l246 1026h266v-1454h-176v1223l-258 -1059h-155z" />
    <glyph glyph-name="uni041D" unicode="&#x41d;" 
d="M123 0v1454h176v-637h631v637h176v-1454h-176v645h-631v-645h-176z" />
    <glyph glyph-name="uni041E" unicode="&#x41e;" 
d="M614 -33q-258 0 -397 197t-139 561q0 367 139 564.5t397 197.5t397.5 -197.5t139.5 -564.5q0 -364 -139.5 -561t-397.5 -197zM614 139q170 0 261.5 151t91.5 435q0 285 -92 437.5t-261 152.5t-260.5 -152.5t-91.5 -437.5t91.5 -435.5t260.5 -150.5z" />
    <glyph glyph-name="uni041F" unicode="&#x41f;" 
d="M143 0v1454h942v-1454h-176v1282h-590v-1282h-176z" />
    <glyph glyph-name="uni0420" unicode="&#x420;" 
d="M184 0v1454h443q229 0 364 -118t135 -326t-135 -326.5t-364 -118.5h-267v-565h-176zM360 737h246q336 0 336 273q0 272 -336 272h-246v-545z" />
    <glyph glyph-name="uni0421" unicode="&#x421;" 
d="M618 -33q-258 0 -399 202.5t-141 555.5q0 356 141 559t399 203q193 0 327.5 -126t180.5 -351l-188 -13q-35 154 -119.5 236t-200.5 82q-173 0 -264.5 -153t-91.5 -437q0 -282 91.5 -434t264.5 -152q128 0 216 89.5t118 260.5l187 -10q-40 -240 -178 -376t-343 -136z" />
    <glyph glyph-name="uni0422" unicode="&#x422;" 
d="M526 0v1282h-444v172h1065v-172h-445v-1282h-176z" />
    <glyph glyph-name="uni0423" unicode="&#x423;" 
d="M289 0v172h125q40 0 65.5 17.5t40.5 58.5l51 141h-69l-396 1065h195l326 -901l315 901h193l-463 -1284q-31 -87 -90 -128.5t-152 -41.5h-141z" />
    <glyph glyph-name="uni0424" unicode="&#x424;" 
d="M524 0v156q-221 26 -347 177.5t-126 393.5t126 393.5t347 177.5v156h176v-154q224 -28 351 -179.5t127 -393.5t-127 -393.5t-351 -179.5v-154h-176zM993 727q0 162 -78 267t-215 130v-794q137 25 215 130t78 267zM236 727q0 -161 76.5 -266t211.5 -131v794
q-135 -26 -211.5 -131t-76.5 -266z" />
    <glyph glyph-name="uni0425" unicode="&#x425;" 
d="M102 0l402 731l-393 723h204l301 -584l302 584h200l-393 -725l401 -729h-204l-310 592l-309 -592h-201z" />
    <glyph glyph-name="uni0426" unicode="&#x426;" 
d="M1022 -307v307h-899v1454h176v-1282h590v1282h176v-1282h133v-479h-176z" />
    <glyph glyph-name="uni0427" unicode="&#x427;" 
d="M909 0v692q-46 -92 -151.5 -148.5t-233.5 -56.5q-189 0 -305.5 128t-116.5 343v496h177v-496q0 -136 68.5 -217.5t176.5 -81.5q165 0 275 85.5t110 216.5v493h176v-1454h-176z" />
    <glyph glyph-name="uni0428" unicode="&#x428;" 
d="M113 0v1454h176v-1282h237v1282h176v-1282h238v1282h176v-1454h-1003z" />
    <glyph glyph-name="uni0429" unicode="&#x429;" 
d="M72 0v1454h176v-1282h237v1282h177v-1282h237v1282h176v-1282h123v-479h-176v307h-950z" />
    <glyph glyph-name="uni042A" unicode="&#x42a;" 
d="M61 1282v172h336v-172h-2v-393h267q229 0 364 -118.5t135 -326.5t-135 -326t-364 -118h-443v1282h-158zM395 717v-545h246q336 0 336 272q0 273 -336 273h-246z" />
    <glyph glyph-name="uni042B" unicode="&#x42b;" 
d="M72 0v1454h178v-565h98q243 0 378.5 -119t135.5 -330q0 -207 -135.5 -323.5t-378.5 -116.5h-276zM981 0v1454h176v-1454h-176zM250 172h98q330 0 330 268q0 277 -330 277h-98v-545z" />
    <glyph glyph-name="uni042C" unicode="&#x42c;" 
d="M184 1454h176v-565h267q229 0 364 -118.5t135 -326.5t-135 -326t-364 -118h-443v1454zM360 717v-545h246q336 0 336 272q0 273 -336 273h-246z" />
    <glyph glyph-name="uni042D" unicode="&#x42d;" 
d="M614 -33q-216 0 -350 139.5t-172 401.5h187q32 -179 118 -274t217 -95q155 0 246.5 129.5t104.5 370.5h-443v172h443q-13 243 -104.5 373.5t-246.5 130.5q-132 0 -217 -95t-116 -274h-189q40 263 173 402t349 139q258 0 397.5 -197.5t139.5 -564.5q0 -364 -139.5 -561
t-397.5 -197z" />
    <glyph glyph-name="uni042E" unicode="&#x42e;" 
d="M41 0v1454h176v-641h180q9 350 104.5 512t289.5 162q207 0 302 -182.5t95 -579.5q0 -395 -95 -576.5t-302 -181.5q-195 0 -290 162t-104 512h-180v-641h-176zM791 139q116 0 164.5 134t48.5 452q0 320 -49 455t-164 135q-114 0 -161.5 -135t-47.5 -455q0 -318 47.5 -452
t161.5 -134z" />
    <glyph glyph-name="uni042F" unicode="&#x42f;" 
d="M1085 0h-176v586h-301l-323 -586h-195l352 621q-311 102 -311 393q0 206 131.5 323t360.5 117h462v-1454zM909 758v524h-286q-308 0 -308 -264q0 -129 74.5 -194.5t233.5 -65.5h286z" />
    <glyph glyph-name="uni0430" unicode="&#x430;" 
d="M471 -25q-155 0 -257.5 82t-102.5 213q0 137 82 215t262 113l364 74q0 137 -61.5 205.5t-179.5 68.5q-214 0 -265 -194l-182 14q31 157 148.5 250.5t298.5 93.5q195 0 304 -117.5t109 -324.5v-451q0 -36 15.5 -50.5t50.5 -14.5h69v-152q-32 -4 -90 -4q-90 0 -142 38
t-69 120q-45 -80 -141.5 -129.5t-212.5 -49.5zM487 127q162 0 247 82t85 221v94l-332 -65q-107 -21 -151.5 -62t-44.5 -110q0 -76 51.5 -118t144.5 -42z" />
    <glyph glyph-name="uni0431" unicode="&#x431;" 
d="M614 -33q-195 0 -340 158q-77 77 -116 210.5t-39 305.5q0 197 37 329t113 215.5t204 143.5q105 48 142.5 94.5t37.5 132.5l176 3q0 -123 -51.5 -206.5t-173.5 -148.5q-114 -61 -131 -72q-101 -64 -140 -163q-31 -76 -36 -187q116 209 348 209q202 0 332.5 -142.5
t130.5 -365.5q0 -117 -37.5 -214t-104 -163t-157 -102.5t-195.5 -36.5zM614 131q138 0 226 98.5t88 253.5q0 152 -84.5 248t-218.5 96q-138 0 -227.5 -96t-90.5 -248q-3 -155 83 -253.5t224 -98.5z" />
    <glyph glyph-name="uni0432" unicode="&#x432;" 
d="M184 0v1085h451q188 0 298.5 -81.5t110.5 -219.5q0 -91 -61 -149.5t-170 -73.5q129 -13 203 -81.5t74 -172.5q0 -141 -107 -224t-289 -83h-510zM356 627h279q103 0 164 42.5t61 114.5q0 69 -61 109.5t-164 40.5h-279v-307zM356 152h338q97 0 154 42t57 113q0 78 -57 123
t-154 45h-338v-323z" />
    <glyph glyph-name="uni0433" unicode="&#x433;" 
d="M305 0v1085h760v-151h-588v-934h-172z" />
    <glyph glyph-name="uni0434" unicode="&#x434;" 
d="M41 -307v459h96q65 0 102 47.5t50 148.5l98 737h625v-933h176v-459h-172v307h-803v-307h-172zM457 332q-14 -110 -66 -180h449v782h-297z" />
    <glyph glyph-name="uni0435" unicode="&#x435;" 
d="M633 -25q-229 0 -363.5 154.5t-134.5 413.5q0 258 133 412.5t357 154.5q217 0 349 -150.5t132 -418.5v-52h-791q9 -172 92 -261t226 -89q103 0 172 48.5t98 134.5l184 -15q-44 -150 -165 -241t-289 -91zM315 641h603q-12 152 -90 228.5t-203 76.5q-127 0 -207.5 -78
t-102.5 -227z" />
    <glyph glyph-name="uni0436" unicode="&#x436;" 
d="M23 0l321 543l-309 542h196l297 -520v520h172v-520l297 520h197l-309 -542l321 -543h-196l-310 522v-522h-172v522l-309 -522h-196z" />
    <glyph glyph-name="uni0437" unicode="&#x437;" 
d="M610 -25q-198 0 -318 88.5t-128 239.5l180 8q6 -78 78 -125t188 -47q122 0 193 45t71 121q0 89 -66 140t-177 49l-113 -2v163l113 -2q94 -2 150.5 40t56.5 112q0 64 -62 102.5t-166 38.5q-95 0 -154 -35t-67 -94l-186 10q15 130 125 206.5t282 76.5q188 0 298 -82
t110 -223q0 -76 -57.5 -134.5t-159.5 -86.5q119 -34 186.5 -111t67.5 -178q0 -147 -120.5 -233.5t-324.5 -86.5z" />
    <glyph glyph-name="uni0438" unicode="&#x438;" 
d="M193 0v1085h172v-823l471 823h202v-1085h-172v807l-460 -807h-213z" />
    <glyph glyph-name="uni0439" unicode="&#x439;" 
d="M616 1235q-126 0 -203 71t-83 191h119q17 -135 167 -135q151 0 168 135h119q-6 -120 -83.5 -191t-203.5 -71zM193 0v1085h172v-823l471 823h202v-1085h-172v807l-460 -807h-213z" />
    <glyph glyph-name="uni043A" unicode="&#x43a;" 
d="M186 0v1085h176v-528l510 528h242l-534 -542l559 -543h-246l-531 528v-528h-176z" />
    <glyph glyph-name="uni043B" unicode="&#x43b;" 
d="M51 0v172h101q103 0 118 147l82 766h733v-1085h-172v934h-403l-68 -633q-30 -301 -266 -301h-125z" />
    <glyph glyph-name="uni043C" unicode="&#x43c;" 
d="M74 0l20 1085h228l305 -874l303 874h225v-1085h-172v707l-250 -707h-215l-256 717l-16 -717h-172z" />
    <glyph glyph-name="uni043D" unicode="&#x43d;" 
d="M186 0v1085h172v-469h512v469h172v-1085h-172v465h-512v-465h-172z" />
    <glyph glyph-name="uni043E" unicode="&#x43e;" 
d="M614 -25q-226 0 -360.5 154.5t-134.5 413.5t134.5 413t360.5 154q225 0 360.5 -154t135.5 -413t-135.5 -413.5t-360.5 -154.5zM614 139q149 0 232.5 107.5t83.5 296.5t-83.5 296t-232.5 107q-150 0 -232.5 -106.5t-82.5 -296.5t82.5 -297t232.5 -107z" />
    <glyph glyph-name="uni043F" unicode="&#x43f;" 
d="M184 0v1085h860v-1085h-172v934h-516v-934h-172z" />
    <glyph glyph-name="uni0440" unicode="&#x440;" 
d="M164 -307v1392h160l2 -174q49 96 135.5 147.5t197.5 51.5q118 0 209 -46t146.5 -126t83.5 -180t28 -215t-28 -215.5t-83.5 -180.5t-146.5 -126t-209 -46q-106 0 -193 45t-130 123v-450h-172zM643 139q141 0 222 107t81 297t-80.5 296.5t-222.5 106.5
q-144 0 -225.5 -103.5t-81.5 -299.5q0 -197 81 -300.5t226 -103.5z" />
    <glyph glyph-name="uni0441" unicode="&#x441;" 
d="M643 -25q-227 0 -363.5 155t-136.5 413t136.5 412.5t363.5 154.5q182 0 301.5 -98t153.5 -279l-180 -12q-25 107 -97.5 166t-177.5 59q-150 0 -234.5 -107t-84.5 -296t84.5 -296.5t234.5 -107.5q107 0 183 63t100 183l180 -12q-34 -183 -158 -290.5t-305 -107.5z" />
    <glyph glyph-name="uni0442" unicode="&#x442;" 
d="M528 0v934h-391v151h957v-151h-392v-934h-174z" />
    <glyph glyph-name="uni0443" unicode="&#x443;" 
d="M283 -307v151h125q55 0 83 17t44 57l38 102h-59l-403 1065h188l330 -905l309 905h188l-440 -1222q-31 -89 -92.5 -129.5t-169.5 -40.5h-141z" />
    <glyph glyph-name="uni0444" unicode="&#x444;" 
d="M528 -307v362q-216 25 -348.5 159.5t-132.5 334.5t132 334t349 159v412h174v-414q215 -25 346.5 -159t131.5 -332t-131.5 -332.5t-346.5 -159.5v-364h-174zM231 549q0 -130 79 -215t218 -105v639q-139 -20 -218 -104.5t-79 -214.5zM995 549q0 128 -78 212.5t-215 106.5
v-639q137 22 215 106.5t78 213.5z" />
    <glyph glyph-name="uni0445" unicode="&#x445;" 
d="M111 0l399 557l-379 528h201l284 -409l279 409h205l-377 -532l395 -553h-200l-302 438l-301 -438h-204z" />
    <glyph glyph-name="uni0446" unicode="&#x446;" 
d="M1024 -307v307h-840v1085h172v-933h516v933h172v-933h152v-459h-172z" />
    <glyph glyph-name="uni0447" unicode="&#x447;" 
d="M872 0v526q-39 -92 -125 -147t-194 -55q-189 0 -300.5 127t-111.5 344v290h172v-290q0 -141 65.5 -224.5t174.5 -83.5q147 0 233 83.5t86 226.5v288h172v-1085h-172z" />
    <glyph glyph-name="uni0448" unicode="&#x448;" 
d="M115 0v1085h172v-933h239v933h174v-933h240v933h172v-1085h-997z" />
    <glyph glyph-name="uni0449" unicode="&#x449;" 
d="M115 0v1085h172v-933h239v933h174v-933h240v933h172v-933h96v-459h-172v307h-921z" />
    <glyph glyph-name="uni044A" unicode="&#x44a;" 
d="M197 0v934h-177v151h349v-399h286q229 0 352 -89t123 -255q0 -164 -123 -253t-352 -89h-458zM369 154h286q295 0 295 188q0 193 -295 193h-286v-381z" />
    <glyph glyph-name="uni044B" unicode="&#x44b;" 
d="M72 0v1085h172v-399h162q229 0 352 -89t123 -255q0 -164 -123 -253t-352 -89h-334zM985 0v1085h172v-1085h-172zM244 154h162q294 0 294 188q0 193 -294 193h-162v-381z" />
    <glyph glyph-name="uni044C" unicode="&#x44c;" 
d="M166 0v1085h172v-399h287q229 0 352 -89t123 -255q0 -164 -123 -253t-352 -89h-459zM338 154h287q295 0 295 188q0 193 -295 193h-287v-381z" />
    <glyph glyph-name="uni044D" unicode="&#x44d;" 
d="M606 -25q-184 0 -310.5 106t-166.5 292h184q31 -111 107 -172.5t186 -61.5q135 0 217 86t97 242h-363v151h363q-15 156 -97 242t-217 86q-112 0 -188 -62t-107 -177h-184q40 188 167 295.5t312 107.5q226 0 362 -154t136 -413t-136 -413.5t-362 -154.5z" />
    <glyph glyph-name="uni044E" unicode="&#x44e;" 
d="M41 0v1085h172v-467h123q15 238 121.5 365t292.5 127q201 0 309 -146.5t108 -420.5t-108 -421t-309 -147q-186 0 -292.5 127t-121.5 365h-123v-467h-172zM750 139q114 0 175.5 105t61.5 299t-61.5 298.5t-175.5 104.5t-175 -104.5t-61 -298.5t61 -299t175 -105z" />
    <glyph glyph-name="uni044F" unicode="&#x44f;" 
d="M166 0l264 451q-120 43 -184 122.5t-64 184.5q0 158 112.5 242.5t321.5 84.5h428v-1085h-172v420h-258l-247 -420h-201zM616 571h256v365h-256q-120 0 -184.5 -47t-64.5 -135t64.5 -135.5t184.5 -47.5z" />
    <glyph glyph-name="uni0450" unicode="&#x450;" 
d="M565 1225l-184 262h192l136 -262h-144zM633 -25q-229 0 -363.5 154.5t-134.5 413.5q0 258 133 412.5t357 154.5q217 0 349 -150.5t132 -418.5v-52h-791q9 -172 92 -261t226 -89q103 0 172 48.5t98 134.5l184 -15q-44 -150 -165 -241t-289 -91zM315 641h603
q-12 152 -90 228.5t-203 76.5q-127 0 -207.5 -78t-102.5 -227z" />
    <glyph glyph-name="uni0451" unicode="&#x451;" 
d="M340 1251v201h180v-201h-180zM733 1251v201h180v-201h-180zM633 -25q-229 0 -363.5 154.5t-134.5 413.5q0 258 133 412.5t357 154.5q217 0 349 -150.5t132 -418.5v-52h-791q9 -172 92 -261t226 -89q103 0 172 48.5t98 134.5l184 -15q-44 -150 -165 -241t-289 -91z
M315 641h603q-12 152 -90 228.5t-203 76.5q-127 0 -207.5 -78t-102.5 -227z" />
    <glyph glyph-name="uni0452" unicode="&#x452;" 
d="M195 0v1196h-144v152h144v106h172v-106h204v-152h-204v-258q44 86 130.5 129t192.5 43q169 0 268 -111.5t99 -300.5v-704q0 -141 -70.5 -221t-204.5 -80h-104v151h84q57 0 90 40.5t33 109.5v643q0 309 -232 309q-132 0 -209 -80.5t-77 -228.5v-637h-172z" />
    <glyph glyph-name="uni0453" unicode="&#x453;" 
d="M608 1229l135 262h193l-184 -262h-144zM305 0v1085h760v-151h-588v-934h-172z" />
    <glyph glyph-name="uni0454" unicode="&#x454;" 
d="M623 -25q-226 0 -362 154.5t-136 413.5t136 413t362 154q185 0 312 -107.5t167 -295.5h-184q-31 115 -107 177t-188 62q-135 0 -217 -86t-97 -242h363v-151h-363q15 -156 97 -242t217 -86q109 0 185 61.5t107 172.5h185q-40 -186 -166.5 -292t-310.5 -106z" />
    <glyph glyph-name="uni0455" unicode="&#x455;" 
d="M635 -25q-206 0 -332.5 104t-138.5 263l180 12q15 -103 89.5 -159t201.5 -56q254 0 254 144q0 49 -22.5 78t-83.5 51t-181 43q-156 27 -246 71t-126.5 104.5t-36.5 151.5q0 145 108.5 236.5t302.5 91.5q190 0 301.5 -98t138.5 -250l-180 -12q-19 89 -87 142.5t-175 53.5
q-115 0 -174 -45.5t-59 -118.5q0 -80 57.5 -115t212.5 -61q167 -27 260 -69t129.5 -101t36.5 -153q0 -142 -120.5 -225t-309.5 -83z" />
    <glyph glyph-name="uni0456" unicode="&#x456;" 
d="M584 1255v201h180v-201h-180zM164 0v152h436v782h-416v151h588v-933h375v-152h-983z" />
    <glyph glyph-name="uni0457" unicode="&#x457;" 
d="M389 1255v201h180v-201h-180zM782 1255v201h181v-201h-181zM164 0v152h436v782h-416v151h588v-933h375v-152h-983z" />
    <glyph glyph-name="uni0458" unicode="&#x458;" 
d="M719 1255v201h180v-201h-180zM225 -307v151h344q83 0 121.5 36.5t38.5 131.5v922h-483v151h655v-1085q0 -152 -75.5 -229.5t-235.5 -77.5h-365z" />
    <glyph glyph-name="uni0459" unicode="&#x459;" 
d="M10 0v172h19q103 0 118 147l82 766h502v-399h115q180 0 276.5 -89t96.5 -255q0 -164 -96.5 -253t-276.5 -89h-289v934h-170l-68 -633q-30 -301 -266 -301h-43zM846 535h-115v-381h115q92 0 142 48.5t50 139.5q0 92 -50 142.5t-142 50.5z" />
    <glyph glyph-name="uni045A" unicode="&#x45a;" 
d="M41 0v1085h172v-399h324v399h172v-399h116q180 0 276.5 -89t96.5 -255q0 -164 -96.5 -253t-276.5 -89h-288v535h-324v-535h-172zM709 154h116q92 0 142.5 48.5t50.5 139.5q0 92 -50.5 142.5t-142.5 50.5h-116v-381z" />
    <glyph glyph-name="uni045B" unicode="&#x45b;" 
d="M205 0v1192h-131v139h131v123h172v-123h311v-139h-311v-277q40 97 125.5 146t199.5 49q171 0 267 -113t96 -299v-698h-172v649q0 309 -227 309q-133 0 -211 -81.5t-78 -229.5v-647h-172z" />
    <glyph glyph-name="uni045C" unicode="&#x45c;" 
d="M539 1229l135 262h192l-184 -262h-143zM186 0v1085h176v-528l510 528h242l-534 -542l559 -543h-246l-531 528v-528h-176z" />
    <glyph glyph-name="uni045D" unicode="&#x45d;" 
d="M555 1229l-184 262h192l135 -262h-143zM193 0v1085h172v-823l471 823h202v-1085h-172v807l-460 -807h-213z" />
    <glyph glyph-name="uni045E" unicode="&#x45e;" 
d="M621 1235q-126 0 -203.5 71t-83.5 191h119q17 -135 168 -135q150 0 167 135h119q-6 -120 -83 -191t-203 -71zM283 -307v151h125q55 0 83 17t44 57l38 102h-59l-403 1065h188l330 -905l309 905h188l-440 -1222q-31 -89 -92.5 -129.5t-169.5 -40.5h-141z" />
    <glyph glyph-name="uni045F" unicode="&#x45f;" 
d="M528 -307v307h-344v1085h172v-933h516v933h172v-1085h-344v-307h-172z" />
    <glyph glyph-name="uni0462" unicode="&#x462;" 
d="M31 1085v172h202v197h177v-197h335v-172h-335v-196h266q229 0 364.5 -118.5t135.5 -326.5q0 -207 -135.5 -325.5t-364.5 -118.5h-443v1085h-202zM410 717v-545h245q336 0 336 272q0 273 -336 273h-245z" />
    <glyph glyph-name="uni0463" unicode="&#x463;" 
d="M262 0v1085h-242v172h242v197h172v-197h240v-172h-240v-358h287q228 0 351.5 -95t123.5 -270t-123 -268.5t-352 -93.5h-459zM434 154h287q142 0 218.5 53.5t76.5 154.5t-77 157t-218 56h-287v-421z" />
    <glyph glyph-name="uni046A" unicode="&#x46a;" 
d="M2 0l213 592q37 102 94 153.5t121 51.5l-299 485v172h967v-172l-299 -485q67 -3 122 -54.5t91 -150.5l215 -592h-189l-180 508q-24 66 -49.5 91.5t-63.5 25.5h-43v-625h-176v625h-43q-39 0 -65 -25.5t-49 -91.5l-179 -508h-188zM336 1282l278 -453l279 453h-557z" />
    <glyph glyph-name="uni046B" unicode="&#x46b;" 
d="M29 0l170 440q27 68 84 107t127 45l-322 342v151h1055v-151l-322 -342q70 -8 126.5 -46.5t82.5 -105.5l170 -440h-196l-125 362q-18 49 -50 66.5t-84 17.5h-43v-446h-176v446h-45q-51 0 -82 -17.5t-49 -66.5l-125 -362h-196zM297 934l319 -338l318 338h-637z" />
    <glyph glyph-name="uni0472" unicode="&#x472;" 
d="M614 -33q-258 0 -397 197t-139 561q0 367 139 564.5t397 197.5t397.5 -197.5t139.5 -564.5q0 -364 -139.5 -561t-397.5 -197zM573 840q187 -71 245 -85t128 -7q3 0 10.5 1t10.5 1q-4 274 -96 419.5t-257 145.5q-145 0 -233 -110.5t-111 -321.5h9q64 7 146 -5t148 -38z
M614 139q145 0 233 110t111 322q-64 -6 -128.5 10t-241.5 81q-156 60 -289 47q-6 -1 -18.5 -3.5t-18.5 -3.5q4 -275 95 -419t257 -144z" />
    <glyph glyph-name="uni0473" unicode="&#x473;" 
d="M614 -25q-226 0 -360.5 154.5t-134.5 413.5t134.5 413t360.5 154q225 0 360.5 -154t135.5 -413t-135.5 -413.5t-360.5 -154.5zM563 631q145 -66 194 -80t113 -12q30 0 60 10q-2 188 -85 292.5t-231 104.5q-122 0 -200 -71t-103 -201h8q58 3 125 -7.5t119 -35.5zM614 139
q114 0 191 65t108 185q-10 -2 -26 -2q-45 0 -71 3.5t-85 23.5t-156 63q-110 51 -239 47q-13 0 -37 -4q6 -181 88 -281t227 -100z" />
    <glyph glyph-name="uni0474" unicode="&#x474;" 
d="M477 0l-448 1454h186l360 -1186l279 922q37 122 109 193t161 71h95v-172h-29q-67 0 -106.5 -41t-71.5 -147l-336 -1094h-199z" />
    <glyph glyph-name="uni0475" unicode="&#x475;" 
d="M471 0l-395 1085h184l320 -905l231 660q41 118 127 181.5t203 63.5h47v-151h-21q-138 0 -194 -152l-285 -782h-217z" />
    <glyph glyph-name="uni0490" unicode="&#x490;" 
d="M205 0v1454h770v318h176v-490h-770v-1282h-176z" />
    <glyph glyph-name="uni0491" unicode="&#x491;" 
d="M305 0v1085h584v318h176v-469h-588v-934h-172z" />
    <glyph glyph-name="uni0492" unicode="&#x492;" 
d="M205 0v586h-166v172h166v696h925v-172h-749v-524h489v-172h-489v-586h-176z" />
    <glyph glyph-name="uni0493" unicode="&#x493;" 
d="M305 0v475h-221v152h221v458h760v-151h-588v-307h234v-152h-234v-475h-172z" />
    <glyph glyph-name="uni0496" unicode="&#x496;" 
d="M14 0l328 727l-309 727h184l289 -680v680h168v-680l289 680h184l-309 -727l264 -584h106v-450h-176v307h-49l-309 684v-684h-168v684l-309 -684h-183z" />
    <glyph glyph-name="uni0497" unicode="&#x497;" 
d="M23 0l321 543l-309 542h196l297 -520v520h172v-520l297 520h197l-309 -542l231 -391h92v-459h-172v307h-26l-310 522v-522h-172v522l-309 -522h-196z" />
    <glyph glyph-name="uni049A" unicode="&#x49a;" 
d="M98 0v1454h176v-711l611 711h231l-629 -727l521 -584h170v-450h-177v307h-96l-631 711v-711h-176z" />
    <glyph glyph-name="uni049B" unicode="&#x49b;" 
d="M184 0v1085h176v-528l510 528h242l-534 -542l403 -391h166v-459h-172v307h-84l-531 528v-528h-176z" />
    <glyph glyph-name="uni04A2" unicode="&#x4a2;" 
d="M92 0v1454h176v-637h631v637h176v-1311h123v-450h-176v307h-123v645h-631v-645h-176z" />
    <glyph glyph-name="uni04A3" unicode="&#x4a3;" 
d="M186 0v1085h172v-469h512v469h172v-933h142v-459h-172v307h-142v465h-512v-465h-172z" />
    <glyph glyph-name="uni04AE" unicode="&#x4ae;" 
d="M528 0v594l-446 860h201l331 -680l332 680h201l-442 -860v-594h-177z" />
    <glyph glyph-name="uni04AF" unicode="&#x4af;" 
d="M528 0l-417 1085h184l319 -878l320 878h184l-418 -1085v-307h-172v307z" />
    <glyph glyph-name="uni04B0" unicode="&#x4b0;" 
d="M178 469v172h324l-422 813h201l331 -680l332 680h201l-418 -813h320v-172h-345v-469h-176v469h-348z" />
    <glyph glyph-name="uni04B1" unicode="&#x4b1;" 
d="M287 -76v152h213l-389 1009h184l319 -878l320 878h184l-389 -1009h211v-152h-240v-231h-172v231h-241z" />
    <glyph glyph-name="uni04B2" unicode="&#x4b2;" 
d="M102 0l402 731l-393 723h204l301 -584l302 584h200l-393 -725l322 -586h141v-450h-176v307h-90l-310 592l-309 -592h-201z" />
    <glyph glyph-name="uni04B3" unicode="&#x4b3;" 
d="M111 0l399 557l-379 528h201l284 -409l279 409h205l-377 -532l287 -401h155v-459h-172v307h-75l-302 438l-301 -438h-204z" />
    <glyph glyph-name="uni04B6" unicode="&#x4b6;" 
d="M879 0v692q-46 -92 -151.5 -148.5t-233.5 -56.5q-189 0 -305.5 128t-116.5 343v496h176v-496q0 -136 69 -217.5t177 -81.5q165 0 275 85.5t110 216.5v493h176v-1311h143v-450h-176v307h-143z" />
    <glyph glyph-name="uni04B7" unicode="&#x4b7;" 
d="M872 0v526q-39 -92 -125 -147t-194 -55q-189 0 -300.5 127t-111.5 344v290h172v-290q0 -141 65.5 -224.5t174.5 -83.5q147 0 233 83.5t86 226.5v288h172v-933h142v-459h-172v307h-142z" />
    <glyph glyph-name="uni04BA" unicode="&#x4ba;" 
d="M319 1454v-692q46 91 152 148t234 57q189 0 305 -128t116 -343v-496h-176v496q0 136 -68.5 217.5t-176.5 81.5q-165 0 -275.5 -85t-110.5 -216v-494h-176v1454h176z" />
    <glyph glyph-name="uni04BB" unicode="&#x4bb;" 
d="M205 0v1454h172v-539q40 97 125.5 146t199.5 49q171 0 267 -113t96 -299v-698h-172v649q0 309 -227 309q-133 0 -211 -81.5t-78 -229.5v-647h-172z" />
    <glyph glyph-name="uni04C0" unicode="&#x4c0;" 
d="M164 0v172h362v1110h-362v172h901v-172h-363v-1110h363v-172h-901z" />
    <glyph glyph-name="uni04CF" unicode="&#x4cf;" 
d="M164 0v172h362v1110h-362v172h901v-172h-363v-1110h363v-172h-901z" />
    <glyph glyph-name="uni04D8" unicode="&#x4d8;" 
d="M631 -33q-257 0 -405 201.5t-148 533.5v97h907q0 234 -99 375t-268 141q-122 0 -203 -82.5t-116 -228.5l-193 16q62 222 192.5 344.5t311.5 122.5q267 0 414 -198t147 -562q0 -347 -150 -553.5t-390 -206.5zM631 139q162 0 257 131t95 357h-715q0 -227 97 -357.5
t266 -130.5z" />
    <glyph glyph-name="uni04D9" unicode="&#x4d9;" 
d="M596 1110q229 0 363.5 -154t134.5 -413q0 -258 -133 -413t-357 -155q-217 0 -349 150.5t-132 419.5v51h790q-9 172 -91.5 261t-225.5 89q-103 0 -172.5 -48.5t-97.5 -133.5l-185 14q44 149 165.5 240.5t289.5 91.5zM913 444h-602q12 -152 90 -228.5t203 -76.5
q127 0 207 78t102 227z" />
    <glyph glyph-name="uni04E2" unicode="&#x4e2;" 
d="M338 1649v147h549v-147h-549zM1085 0h-176v1253l-516 -1253h-250v1454h176v-1253l517 1253h249v-1454z" />
    <glyph glyph-name="uni04E3" unicode="&#x4e3;" 
d="M340 1280v147h549v-147h-549zM193 0v1085h172v-823l471 823h202v-1085h-172v807l-460 -807h-213z" />
    <glyph glyph-name="uni04E8" unicode="&#x4e8;" 
d="M614 -33q-258 0 -397 197t-139 561q0 367 139 564.5t397 197.5t397.5 -197.5t139.5 -564.5q0 -364 -139.5 -561t-397.5 -197zM614 1315q-156 0 -246.5 -129t-103.5 -373h701q-13 244 -104 373t-247 129zM614 139q157 0 247.5 128.5t103.5 373.5h-701q13 -246 103 -374
t247 -128z" />
    <glyph glyph-name="uni04E9" unicode="&#x4e9;" 
d="M614 -25q-226 0 -360.5 154.5t-134.5 413.5t134.5 413t360.5 154q225 0 360.5 -154t135.5 -413t-135.5 -413.5t-360.5 -154.5zM614 946q-134 0 -215 -86t-96 -242h623q-15 155 -97 241.5t-215 86.5zM614 139q133 0 215 86.5t97 241.5h-623q15 -156 96 -242t215 -86z" />
    <glyph glyph-name="uni04EE" unicode="&#x4ee;" 
d="M346 1649v147h549v-147h-549zM289 0v172h125q40 0 65.5 17.5t40.5 58.5l51 141h-69l-396 1065h195l326 -901l315 901h193l-463 -1284q-31 -87 -90 -128.5t-152 -41.5h-141z" />
    <glyph glyph-name="uni04EF" unicode="&#x4ef;" 
d="M344 1280v147h549v-147h-549zM283 -307v151h125q55 0 83 17t44 57l38 102h-59l-403 1065h188l330 -905l309 905h188l-440 -1222q-31 -89 -92.5 -129.5t-169.5 -40.5h-141z" />
    <glyph glyph-name="uni0E3F" unicode="&#xe3f;" 
d="M137 0v1454h336v195h143v-197q203 -15 308.5 -118.5t105.5 -276.5q0 -118 -72 -201.5t-192 -105.5q153 -20 239.5 -111.5t86.5 -232.5q0 -186 -126.5 -293.5t-349.5 -112.5v-186h-143v186h-336zM313 825h160v457h-160v-457zM846 1053q0 204 -230 227v-453q230 23 230 226
zM313 172h160v481h-160v-481zM907 406q0 115 -74.5 179t-216.5 68v-481q146 3 218.5 63.5t72.5 170.5z" />
    <glyph glyph-name="uni1E20" unicode="&#x1e20;" 
d="M336 1649v147h549v-147h-549zM610 -33q-238 0 -385 197t-147 561q0 354 143 558t397 204q194 0 327.5 -127.5t182.5 -339.5l-184 -12q-37 142 -119.5 224.5t-206.5 82.5q-170 0 -263 -153.5t-93 -436.5q0 -280 95.5 -433t269.5 -153q153 0 245.5 118t98.5 310h-348v168
h512v-735h-164l-4 201q-113 -234 -357 -234z" />
    <glyph glyph-name="uni1E21" unicode="&#x1e21;" 
d="M334 1280v147h549v-147h-549zM608 -332q-174 0 -297 86.5t-157 229.5l180 12q26 -81 90 -122.5t184 -41.5q149 0 227 59.5t78 178.5v176q-40 -86 -125.5 -137.5t-191.5 -51.5q-207 0 -340 148t-133 379q0 232 130.5 379t334.5 147q115 0 206 -53.5t128 -143.5v172h163
v-1011q0 -191 -126.5 -298.5t-350.5 -107.5zM604 221q140 0 224 98t85 265q3 166 -82 264t-227 98t-221.5 -97t-79.5 -265q0 -167 81 -265t220 -98z" />
    <glyph glyph-name="Wgrave" unicode="&#x1e80;" 
d="M553 1597l-184 263h192l135 -263h-143zM221 0l-160 1454h185l127 -1264l147 1100h189l147 -1100l127 1264h184l-159 -1454h-267l-127 961l-127 -961h-266z" />
    <glyph glyph-name="wgrave" unicode="&#x1e81;" 
d="M553 1229l-184 262h192l135 -262h-143zM256 0l-215 1085h188l142 -905l159 754h168l160 -754l141 905h189l-213 -1085h-217l-144 684l-143 -684h-215z" />
    <glyph glyph-name="Wacute" unicode="&#x1e82;" 
d="M537 1597l135 263h192l-184 -263h-143zM221 0l-160 1454h185l127 -1264l147 1100h189l147 -1100l127 1264h184l-159 -1454h-267l-127 961l-127 -961h-266z" />
    <glyph glyph-name="wacute" unicode="&#x1e83;" 
d="M537 1229l135 262h192l-184 -262h-143zM256 0l-215 1085h188l142 -905l159 754h168l160 -754l141 905h189l-213 -1085h-217l-144 684l-143 -684h-215z" />
    <glyph glyph-name="Wdieresis" unicode="&#x1e84;" 
d="M328 1624v201h180v-201h-180zM721 1624v201h180v-201h-180zM221 0l-160 1454h185l127 -1264l147 1100h189l147 -1100l127 1264h184l-159 -1454h-267l-127 961l-127 -961h-266z" />
    <glyph glyph-name="wdieresis" unicode="&#x1e85;" 
d="M328 1255v201h180v-201h-180zM721 1255v201h180v-201h-180zM256 0l-215 1085h188l142 -905l159 754h168l160 -754l141 905h189l-213 -1085h-217l-144 684l-143 -684h-215z" />
    <glyph glyph-name="uni1E9E" unicode="&#x1e9e;" 
d="M74 0v1026q0 198 110 313t299 115h596v-188l-450 -394q245 4 397 -112t152 -307q0 -203 -140.5 -328t-375.5 -125h-275v172h275q155 0 244 73.5t89 198.5q0 134 -96 206.5t-283 72.5h-176v160l416 399h-369q-113 0 -175 -68t-62 -192v-1022h-176z" />
    <glyph glyph-name="uni1EBC" unicode="&#x1ebc;" 
d="M774 1620q-69 0 -143 61q-39 33 -58.5 43.5t-48.5 10.5q-85 0 -90 -129h-106q3 115 56.5 177t139.5 62q78 0 156 -65q60 -49 102 -49q39 0 59.5 30.5t26.5 104.5h107q-6 -116 -59.5 -181t-141.5 -65zM184 0v1454h885v-172h-709v-469h684v-168h-684v-473h725v-172h-901z
" />
    <glyph glyph-name="uni1EBD" unicode="&#x1ebd;" 
d="M750 1245q-69 0 -144 62q-39 32 -58 42.5t-48 10.5q-85 0 -90 -129h-107q3 115 57 177t140 62q46 0 80.5 -16t74.5 -49q60 -49 103 -49q39 0 59.5 30.5t26.5 104.5h106q-6 -117 -59 -181.5t-141 -64.5zM633 -25q-229 0 -363.5 154.5t-134.5 413.5q0 258 133 412.5
t357 154.5q217 0 349 -150.5t132 -418.5v-52h-791q9 -172 92 -261t226 -89q103 0 172 48.5t98 134.5l184 -15q-44 -150 -165 -241t-289 -91zM315 641h603q-12 152 -90 228.5t-203 76.5q-127 0 -207.5 -78t-102.5 -227z" />
    <glyph glyph-name="Ygrave" unicode="&#x1ef2;" 
d="M553 1597l-184 263h192l135 -263h-143zM528 0v594l-446 860h201l331 -680l332 680h201l-442 -860v-594h-177z" />
    <glyph glyph-name="ygrave" unicode="&#x1ef3;" 
d="M559 1229l-184 262h192l135 -262h-143zM283 -307v151h125q55 0 83 17t44 57l38 102h-59l-403 1065h188l330 -905l309 905h188l-440 -1222q-31 -89 -92.5 -129.5t-169.5 -40.5h-141z" />
    <glyph glyph-name="uni1EF8" unicode="&#x1ef8;" 
d="M737 1618q-69 0 -143 61q-39 33 -58.5 43.5t-48.5 10.5q-85 0 -90 -129h-106q3 115 56.5 177t139.5 62q78 0 156 -65q60 -49 102 -49q39 0 59.5 30.5t26.5 104.5h107q-6 -116 -59.5 -181t-141.5 -65zM528 0v594l-446 860h201l331 -680l332 680h201l-442 -860v-594h-177z
" />
    <glyph glyph-name="uni1EF9" unicode="&#x1ef9;" 
d="M743 1249q-68 0 -143 62q-39 32 -58 42.5t-48 10.5q-86 0 -91 -129h-106q3 115 57 177.5t140 62.5q46 0 80.5 -16.5t74.5 -49.5q60 -49 103 -49q39 0 59.5 30.5t26.5 104.5h106q-6 -116 -59.5 -181t-141.5 -65zM283 -307v151h125q55 0 83 17t44 57l38 102h-59l-403 1065
h188l330 -905l309 905h188l-440 -1222q-31 -89 -92.5 -129.5t-169.5 -40.5h-141z" />
    <glyph glyph-name="endash" unicode="&#x2013;" 
d="M205 518v160h819v-160h-819z" />
    <glyph glyph-name="emdash" unicode="&#x2014;" 
d="M41 518v160h1147v-160h-1147z" />
    <glyph glyph-name="quoteleft" unicode="&#x2018;" 
d="M735 1485l-96 -320h111v-250h-246v222l129 348h102z" />
    <glyph glyph-name="quoteright" unicode="&#x2019;" 
d="M494 885l96 319h-111v250h246v-221l-129 -348h-102z" />
    <glyph glyph-name="quotesinglbase" unicode="&#x201a;" 
d="M506 -319l96 319h-110v250h245v-221l-129 -348h-102z" />
    <glyph glyph-name="quotedblleft" unicode="&#x201c;" 
d="M928 1487l-97 -320h111v-249h-246v221l129 348h103zM518 1487l-96 -320h110v-249h-245v221l129 348h102z" />
    <glyph glyph-name="quotedblright" unicode="&#x201d;" 
d="M301 885l96 319h-110v250h245v-221l-129 -348h-102zM711 885l96 319h-111v250h246v-221l-129 -348h-102z" />
    <glyph glyph-name="quotedblbase" unicode="&#x201e;" 
d="M301 -319l96 319h-110v250h245v-221l-129 -348h-102zM711 -319l96 319h-111v250h246v-221l-129 -348h-102z" />
    <glyph glyph-name="dagger" unicode="&#x2020;" 
d="M532 0v930h-327v155h327v369h164v-369h328v-155h-328v-930h-164z" />
    <glyph glyph-name="daggerdbl" unicode="&#x2021;" 
d="M205 352v156h327v422h-327v155h327v369h164v-369h328v-155h-328v-422h328v-156h-328v-352h-164v352h-327z" />
    <glyph glyph-name="bullet" unicode="&#x2022;" 
d="M614 416q-91 0 -156 65t-65 156q0 92 65 156.5t156 64.5t156.5 -64.5t65.5 -156.5q0 -91 -65.5 -156t-156.5 -65z" />
    <glyph glyph-name="ellipsis" unicode="&#x2026;" 
d="M102 0v250h254v-250h-254zM485 0v250h254v-250h-254zM872 0v250h254v-250h-254z" />
    <glyph glyph-name="perthousand" unicode="&#x2030;" 
d="M274 750q-125 0 -199.5 94t-74.5 266t74.5 266t199.5 94q126 0 200.5 -94.5t74.5 -265.5t-74.5 -265.5t-200.5 -94.5zM0 0l856 1454h143l-856 -1454h-143zM274 877q127 0 127 233t-127 233t-127 -233t127 -233zM676 -16q-95 0 -154 95t-59 265t59 265.5t154 95.5
q105 0 170 -103q65 103 170 103q95 0 154 -95.5t59 -265.5t-59 -265t-154 -95q-105 0 -170 102q-64 -102 -170 -102zM696 111q41 0 63.5 51t22.5 182q0 120 -23.5 177t-62.5 57t-62.5 -57t-23.5 -177q0 -131 22.5 -182t63.5 -51zM995 111q41 0 63.5 51t22.5 182
q0 120 -23.5 177t-62.5 57t-62.5 -57t-23.5 -177q0 -131 22.5 -182t63.5 -51z" />
    <glyph glyph-name="minute" unicode="&#x2032;" 
d="M481 987l94 467h175l-113 -467h-156z" />
    <glyph glyph-name="second" unicode="&#x2033;" 
d="M356 987l95 467h174l-113 -467h-156zM606 987l94 467h174l-112 -467h-156z" />
    <glyph glyph-name="guilsinglleft" unicode="&#x2039;" 
d="M860 156h-211l-280 333v152l280 334h211l-348 -410z" />
    <glyph glyph-name="guilsinglright" unicode="&#x203a;" 
d="M369 156l348 409l-348 410h211l280 -334v-152l-280 -333h-211z" />
    <glyph glyph-name="fraction" unicode="&#x2044;" 
d="M702 930l285 524h160l-285 -524h-160zM82 0l285 522h159l-284 -522h-160z" />
    <glyph glyph-name="uni2070" unicode="&#x2070;" 
d="M614 645q-146 0 -232.5 111.5t-86.5 302.5t86 301t233 110t233.5 -110t86.5 -301t-87 -302.5t-233 -111.5zM430 1059q0 -89 25 -156l254 416q-44 29 -95 29q-184 0 -184 -289zM614 768q90 0 137.5 74.5t47.5 216.5q0 95 -25 162l-254 -418q41 -35 94 -35z" />
    <glyph glyph-name="uni2074" unicode="&#x2074;" 
d="M676 662v184h-369v104l377 504h127v-489h111v-119h-111v-184h-135zM451 965h225v292z" />
    <glyph glyph-name="uni2075" unicode="&#x2075;" 
d="M606 645q-118 0 -190.5 55t-81.5 154l131 6q23 -96 145 -96q72 0 114 40t42 114q0 69 -35.5 112t-103.5 43q-100 0 -154 -80h-125l49 461h447v-119h-328l-27 -205q52 58 158 58q122 0 186 -74.5t64 -195.5q0 -128 -79 -200.5t-212 -72.5z" />
    <glyph glyph-name="uni2076" unicode="&#x2076;" 
d="M612 645q-135 0 -215 96.5t-80 272.5q0 97 18 177.5t55.5 144t100.5 99t146 35.5q120 0 180 -47t84 -149l-127 -12q-12 47 -44 68.5t-93 21.5q-80 0 -129 -62t-55 -172q23 38 70.5 62t109.5 24q124 0 201 -71t77 -207q0 -131 -83.5 -206t-215.5 -75zM614 764q78 0 122 45
t44 121q0 74 -41.5 114.5t-122.5 40.5q-73 0 -117.5 -41t-45.5 -114q-2 -76 41.5 -121t119.5 -45z" />
    <glyph glyph-name="uni2077" unicode="&#x2077;" 
d="M492 659q0 371 235 676h-379v119h533v-90q-127 -163 -192.5 -332.5t-65.5 -372.5h-131z" />
    <glyph glyph-name="uni2078" unicode="&#x2078;" 
d="M614 645q-144 0 -220.5 60t-76.5 169q0 72 43 129.5t117 86.5q-121 44 -121 174q0 98 66.5 152t191.5 54q126 0 192 -54t66 -152q0 -130 -120 -174q73 -31 116 -88t43 -128q0 -109 -76.5 -169t-220.5 -60zM614 1145q123 0 123 110q0 45 -32 71t-91 26t-90.5 -26
t-31.5 -71q0 -110 122 -110zM614 764q78 0 120 30t42 89q0 60 -43.5 99.5t-118.5 39.5q-74 0 -117.5 -39.5t-43.5 -99.5q0 -119 161 -119z" />
    <glyph glyph-name="uni2079" unicode="&#x2079;" 
d="M616 1470q135 0 215 -96t80 -272q0 -77 -11 -144t-35.5 -125t-61 -99.5t-90.5 -65t-121 -23.5q-119 0 -179.5 47.5t-84.5 149.5l127 12q12 -47 44 -68.5t93 -21.5q80 0 129 61.5t55 171.5q-23 -38 -70.5 -62t-109.5 -24q-124 0 -201.5 71.5t-77.5 207.5q0 131 83.5 205.5
t215.5 74.5zM614 1352q-78 0 -121.5 -45t-43.5 -121q0 -75 41 -115.5t122 -40.5q73 0 118 41.5t46 114.5q2 75 -42 120.5t-120 45.5z" />
    <glyph glyph-name="uni2080" unicode="&#x2080;" 
d="M614 -221q-146 0 -232.5 111.5t-86.5 302.5t86 301t233 110t233.5 -110t86.5 -301t-87 -302.5t-233 -111.5zM430 193q0 -89 25 -156l254 416q-42 28 -95 28q-184 0 -184 -288zM614 -98q90 0 137.5 74.5t47.5 216.5q0 94 -25 161l-254 -417q41 -35 94 -35z" />
    <glyph glyph-name="uni2081" unicode="&#x2081;" 
d="M645 -205v520l-196 -2v103h49q88 0 135 45.5t47 128.5h100v-795h-135z" />
    <glyph glyph-name="uni2082" unicode="&#x2082;" 
d="M340 -205q0 71 6.5 117t27 92.5t62 84.5t107.5 75l106 59q60 33 82.5 64t22.5 88q0 51 -35.5 80.5t-87.5 29.5q-73 0 -111 -35.5t-47 -109.5l-131 6q12 120 86 189t203 69q117 0 187.5 -63.5t70.5 -165.5q0 -91 -48.5 -148t-148.5 -110l-84 -45q-116 -64 -116 -158h389
v-119h-541z" />
    <glyph glyph-name="uni2083" unicode="&#x2083;" 
d="M614 -221q-150 0 -215.5 58.5t-72.5 164.5l131 6q10 -110 157 -110q74 0 115 33.5t41 91.5q0 61 -40.5 96t-125.5 35h-51v116h51q59 0 93 27t34 78q0 49 -32.5 78.5t-94.5 29.5q-60 0 -95 -28t-40 -72l-131 8q13 94 82 153.5t184 59.5q126 0 193 -59t67 -158
q0 -68 -34 -107.5t-103 -60.5q176 -43 176 -199q0 -111 -81.5 -176t-207.5 -65z" />
    <glyph glyph-name="uni2084" unicode="&#x2084;" 
d="M676 -205v185h-369v104l377 504h127v-490h111v-118h-111v-185h-135zM451 98h225v293z" />
    <glyph glyph-name="uni2085" unicode="&#x2085;" 
d="M606 -221q-118 0 -190.5 55t-81.5 154l131 6q23 -96 145 -96q72 0 114 39.5t42 113.5q0 69 -35.5 112.5t-103.5 43.5q-100 0 -154 -80h-125l49 461h447v-119h-328l-27 -205q52 58 158 58q121 0 185.5 -75t64.5 -196q0 -128 -79 -200t-212 -72z" />
    <glyph glyph-name="uni2086" unicode="&#x2086;" 
d="M612 -221q-135 0 -215 96t-80 272q0 97 18 177.5t55.5 144t100.5 99.5t146 36q120 0 180 -47t84 -149l-127 -13q-12 47 -44 68.5t-93 21.5q-80 0 -129 -61.5t-55 -171.5q23 38 70.5 62t109.5 24q124 0 201 -71.5t77 -207.5q0 -131 -83.5 -205.5t-215.5 -74.5zM614 -102
q79 0 122.5 44.5t43.5 120.5q0 75 -41.5 115.5t-122.5 40.5q-73 0 -117.5 -41.5t-45.5 -114.5q-2 -75 41.5 -120t119.5 -45z" />
    <glyph glyph-name="uni2087" unicode="&#x2087;" 
d="M492 -205q0 371 235 676h-379v119h533v-90q-127 -163 -192.5 -332.5t-65.5 -372.5h-131z" />
    <glyph glyph-name="uni2088" unicode="&#x2088;" 
d="M614 -221q-144 0 -220.5 60t-76.5 169q0 71 43 128t117 87q-121 44 -121 174q0 98 66.5 152.5t191.5 54.5q126 0 192 -54.5t66 -152.5q0 -130 -120 -174q73 -31 116 -87.5t43 -127.5q0 -109 -76.5 -169t-220.5 -60zM614 279q123 0 123 110q0 45 -32 70.5t-91 25.5
t-90.5 -25.5t-31.5 -70.5q0 -110 122 -110zM614 -102q162 0 162 118q0 60 -44 100t-118 40t-117.5 -40t-43.5 -100q0 -118 161 -118z" />
    <glyph glyph-name="uni2089" unicode="&#x2089;" 
d="M616 604q135 0 215 -96t80 -272q0 -77 -11 -144t-35.5 -125t-61 -99.5t-90.5 -65t-121 -23.5q-120 0 -180 47t-84 149l127 13q12 -47 44 -68.5t93 -21.5q80 0 129 61.5t55 171.5q-23 -38 -70.5 -62t-109.5 -24q-124 0 -201.5 71.5t-77.5 207.5q0 131 83.5 205.5
t215.5 74.5zM614 485q-78 0 -121.5 -45t-43.5 -121q0 -75 41 -115t122 -40q73 0 118 41t46 114q2 75 -42 120.5t-120 45.5z" />
    <glyph glyph-name="uni20AA" unicode="&#x20aa;" 
d="M365 0v1137h167v-969h363q57 0 91 34.5t34 94.5v1157h168v-1147q0 -141 -83 -224t-224 -83h-516zM41 0v1454h516q140 0 222.5 -83t82.5 -224v-830h-168v840q0 59 -34 94t-91 35h-360v-1286h-168z" />
    <glyph glyph-name="Euro" unicode="&#x20ac;" 
d="M20 481v152h109q-2 31 -2 92q0 49 2 72h-109v151h121q38 257 165.5 398t340.5 141q193 0 327.5 -126t180.5 -351l-188 -13q-35 154 -119.5 236t-200.5 82q-264 0 -321 -367h454l-22 -151h-445q-2 -23 -2 -72q0 -63 2 -92h426l-22 -152h-387q60 -342 317 -342
q128 0 216 89.5t118 260.5l186 -10q-40 -240 -177.5 -376t-342.5 -136q-208 0 -334.5 133.5t-167.5 380.5h-125z" />
    <glyph glyph-name="uni20B4" unicode="&#x20b4;" 
d="M41 797v151h860q45 72 45 146q0 102 -70.5 161.5t-224.5 59.5q-137 0 -214.5 -60t-112.5 -180l-193 19q102 393 516 393q222 0 344.5 -108t122.5 -285q0 -78 -41 -146h115v-151h-1147zM600 -25q-222 0 -358 106t-136 279q0 76 25 121h-90v152h1147v-152h-877
q-28 -46 -28 -108q0 -101 85.5 -163.5t221.5 -62.5q114 0 204.5 57t131.5 154l200 -16q-50 -169 -191 -268t-335 -99z" />
    <glyph glyph-name="uni20B9" unicode="&#x20b9;" 
d="M688 0l-627 565v172h412q275 0 322 195h-734v153h736q-44 197 -324 197h-412v172h1106v-151h-280q78 -87 96 -218h184v-153h-186q-25 -174 -157 -270.5t-349 -96.5h-176l639 -565h-250z" />
    <glyph glyph-name="uni20BD" unicode="&#x20bd;" 
d="M225 0v250h-164v151h164v1053h443q229 0 364 -118t135 -326t-135 -326.5t-364 -118.5h-267v-164h357v-151h-357v-250h-176zM401 737h246q336 0 336 273q0 272 -336 272h-246v-545z" />
    <glyph glyph-name="uni2107" unicode="&#x2107;" 
d="M629 -33q-234 0 -379.5 120.5t-145.5 311.5q0 143 78.5 243t229.5 144q-258 76 -258 322q0 167 132.5 273t342.5 106q135 0 267.5 -55t207.5 -142l-115 -141q-65 76 -166 125t-194 49q-136 0 -215.5 -58t-79.5 -157q0 -67 26.5 -119t70 -81t94 -43t104.5 -13l110 2v-162
l-110 2q-156 3 -250 -74t-94 -206q0 -127 94 -205t250 -78q106 0 222.5 54.5t188.5 140.5l111 -146q-80 -94 -225 -153.5t-297 -59.5z" />
    <glyph glyph-name="uni2116" unicode="&#x2116;" 
d="M950 770q-126 0 -192 95t-66 263q0 167 66 263t192 96q125 0 191.5 -97t66.5 -262q0 -167 -66.5 -262.5t-191.5 -95.5zM20 0v1454h246l205 -1167v1167h164v-1454h-246l-205 1167v-1167h-164zM950 903q50 0 72 57t22 168q0 226 -94 226q-52 0 -73 -58t-21 -168
q0 -112 20.5 -168.5t73.5 -56.5zM725 430v152h451v-152h-451z" />
    <glyph glyph-name="uni2117" unicode="&#x2117;" 
d="M616 367q-153 0 -281.5 75.5t-203 204.5t-74.5 281t74.5 280.5t203 203.5t281.5 75q152 0 280 -75t201.5 -203.5t73.5 -280.5t-73.5 -281t-201.5 -204.5t-280 -75.5zM616 477q191 0 314 131.5t123 319.5q0 123 -54.5 225t-155 162.5t-227.5 60.5q-193 0 -316.5 -130
t-123.5 -318q0 -123 54.5 -225.5t156 -164t229.5 -61.5zM430 621v610h203q118 0 185 -49.5t67 -137.5q0 -92 -65.5 -138t-186.5 -46h-88v-239h-115zM545 954h104q59 0 92 26t33 69q0 41 -32.5 63.5t-92.5 22.5h-104v-181z" />
    <glyph glyph-name="trademark" unicode="&#x2122;" 
d="M559 735v719h131l182 -559l187 559h129v-719h-121v393l-133 -393h-121l-133 395v-395h-121zM209 735v604h-168v115h459v-115h-170v-604h-121z" />
    <glyph glyph-name="uni2153" unicode="&#x2153;" 
d="M324 662v520l-197 -2v102h49q88 0 135 45.5t47 128.5h101v-794h-135zM702 930l285 524h160l-285 -524h-160zM842 -16q-150 0 -216 58.5t-73 164.5l131 6q10 -111 158 -111q74 0 114.5 33.5t40.5 91.5q0 61 -40.5 96t-125.5 35h-51v117h51q59 0 93 27t34 78
q0 49 -32.5 78.5t-94.5 29.5q-60 0 -95 -28t-40 -72l-131 8q13 94 82 153.5t184 59.5q126 0 193.5 -59t67.5 -158q0 -68 -34.5 -107.5t-103.5 -60.5q176 -43 176 -199q0 -111 -81 -176t-207 -65zM82 0l285 522h159l-284 -522h-160z" />
    <glyph glyph-name="uni2154" unicode="&#x2154;" 
d="M37 662q0 56 4 94.5t16 79t34 71.5t59 62t90 61l106 60q61 33 83 63.5t22 87.5q0 51 -35.5 81t-87.5 30q-73 0 -111 -36t-47 -110l-131 6q12 120 86 189t203 69q117 0 187.5 -63.5t70.5 -165.5q0 -91 -48.5 -148t-148.5 -110l-84 -45q-59 -32 -88 -74t-29 -84h390v-118
h-541zM694 930l285 524h160l-285 -524h-160zM903 -16q-150 0 -216 58.5t-73 164.5l131 6q10 -111 158 -111q74 0 115 33.5t41 91.5q0 61 -40.5 96t-125.5 35h-51v117h51q59 0 93 27t34 78q0 49 -32.5 78.5t-94.5 29.5q-60 0 -95 -28t-40 -72l-131 8q13 94 82 153.5t184 59.5
q126 0 193 -59t67 -158q0 -68 -34 -107.5t-103 -60.5q176 -43 176 -199q0 -111 -81.5 -176t-207.5 -65zM74 0l284 522h160l-285 -522h-159z" />
    <glyph glyph-name="uni2155" unicode="&#x2155;" 
d="M303 662v520l-197 -2v102h50q88 0 135 45.5t47 128.5h100v-794h-135zM702 930l285 524h160l-285 -524h-160zM852 -16q-118 0 -190.5 55t-81.5 154l131 6q24 -97 145 -97q72 0 114 40t42 114q0 69 -36 112.5t-104 43.5q-99 0 -153 -80h-125l49 461h447v-119h-328l-27 -205
q51 57 158 57q122 0 186 -74.5t64 -195.5q0 -128 -79 -200t-212 -72zM82 0l285 522h159l-284 -522h-160z" />
    <glyph glyph-name="oneeighth" unicode="&#x215b;" 
d="M283 662v520l-197 -2v102h49q88 0 135 45.5t47 128.5h101v-794h-135zM682 930l285 524h159l-284 -524h-160zM870 -16q-144 0 -220.5 60t-76.5 169q0 71 43 128t117 87q-121 44 -121 174q0 98 66.5 152.5t191.5 54.5q126 0 192 -54.5t66 -152.5q0 -130 -120 -174
q73 -31 116 -87.5t43 -127.5q0 -109 -76.5 -169t-220.5 -60zM870 483q123 0 123 111q0 45 -32 70.5t-91 25.5t-90.5 -25.5t-31.5 -70.5q0 -111 122 -111zM61 0l285 522h160l-285 -522h-160zM870 102q78 0 120 30t42 89q0 60 -43.5 99.5t-118.5 39.5q-74 0 -117.5 -39.5
t-43.5 -99.5q0 -119 161 -119z" />
    <glyph glyph-name="threeeighths" unicode="&#x215c;" 
d="M313 645q-118 0 -190.5 55t-81.5 154l131 6q23 -96 145 -96q72 0 114 40t42 114q0 69 -35.5 112t-103.5 43q-100 0 -154 -80h-125l49 461h447v-119h-328l-26 -205q52 58 157 58q122 0 186 -74.5t64 -195.5q0 -128 -79 -200.5t-212 -72.5zM702 930l285 524h160l-285 -524
h-160zM891 -16q-144 0 -220.5 60t-76.5 169q0 71 43 128t117 87q-121 44 -121 174q0 98 66.5 152.5t191.5 54.5q126 0 192 -54.5t66 -152.5q0 -130 -121 -174q74 -31 117 -87.5t43 -127.5q0 -109 -76.5 -169t-220.5 -60zM891 483q123 0 123 111q0 45 -32 70.5t-91 25.5
t-91 -25.5t-32 -70.5q0 -111 123 -111zM82 0l285 522h159l-284 -522h-160zM891 102q78 0 120 30t42 89q0 60 -43.5 99.5t-118.5 39.5t-118.5 -39.5t-43.5 -99.5q0 -59 42 -89t120 -30z" />
    <glyph glyph-name="fiveeighths" unicode="&#x215d;" 
d="M330 645q-150 0 -216 58.5t-73 164.5l131 6q10 -110 158 -110q74 0 114.5 33.5t40.5 91.5q0 61 -40.5 96t-125.5 35h-51v117h51q59 0 93 26.5t34 77.5q0 49 -32.5 79t-94.5 30q-60 0 -95 -28.5t-40 -72.5l-131 8q13 94 82 153.5t184 59.5q126 0 193.5 -59t67.5 -158
q0 -68 -34.5 -107.5t-103.5 -60.5q176 -43 176 -198q0 -112 -81 -177t-207 -65zM692 930l285 524h160l-285 -524h-160zM891 -16q-144 0 -220.5 60t-76.5 169q0 71 43 128t117 87q-121 44 -121 174q0 98 66.5 152.5t191.5 54.5q126 0 192 -54.5t66 -152.5q0 -130 -121 -174
q74 -31 117 -87.5t43 -127.5q0 -109 -76.5 -169t-220.5 -60zM891 483q123 0 123 111q0 45 -32 70.5t-91 25.5t-91 -25.5t-32 -70.5q0 -111 123 -111zM72 0l284 522h160l-285 -522h-159zM891 102q78 0 120 30t42 89q0 60 -43.5 99.5t-118.5 39.5t-118.5 -39.5t-43.5 -99.5
q0 -59 42 -89t120 -30z" />
    <glyph glyph-name="seveneighths" unicode="&#x215e;" 
d="M199 659q0 371 235 676h-379v119h533v-90q-127 -163 -192.5 -332.5t-65.5 -372.5h-131zM664 930l284 524h160l-285 -524h-159zM891 -16q-144 0 -220.5 60t-76.5 169q0 71 43 128t117 87q-121 44 -121 174q0 98 66.5 152.5t191.5 54.5q126 0 192 -54.5t66 -152.5
q0 -130 -121 -174q74 -31 117 -87.5t43 -127.5q0 -109 -76.5 -169t-220.5 -60zM891 483q123 0 123 111q0 45 -32 70.5t-91 25.5t-91 -25.5t-32 -70.5q0 -111 123 -111zM43 0l285 522h159l-284 -522h-160zM891 102q78 0 120 30t42 89q0 60 -43.5 99.5t-118.5 39.5
t-118.5 -39.5t-43.5 -99.5q0 -59 42 -89t120 -30z" />
    <glyph glyph-name="arrowleft" unicode="&#x2190;" 
d="M766 111l-219 2l-533 532l533 535h217l-453 -455h883v-160h-883z" />
    <glyph glyph-name="arrowup" unicode="&#x2191;" 
d="M535 37v1089l-476 -475v217l555 553l555 -555v-217l-475 473v-1085h-159z" />
    <glyph glyph-name="arrowright" unicode="&#x2192;" 
d="M463 111l455 454h-883v160h883l-453 455h217l532 -535l-532 -532z" />
    <glyph glyph-name="arrowdown" unicode="&#x2193;" 
d="M1169 809v-217l-555 -555l-555 553v217l476 -475v1089h159v-1085z" />
    <glyph glyph-name="arrowboth" unicode="&#x2194;" 
d="M338 367l-334 335l332 332h215l-250 -252h627l-250 252h215l332 -332l-334 -335h-215l252 256h-627l252 -256h-215z" />
    <glyph glyph-name="arrowupdn" unicode="&#x2195;" 
d="M616 -18l-354 352v217l275 -272v1036l-275 -273v218l354 352l351 -350v-218l-271 271v-1036l271 270v-217z" />
    <glyph glyph-name="uni2196" unicode="&#x2196;" 
d="M297 514l-154 154v786h785l153 -154h-671l770 -770l-113 -112l-768 768z" />
    <glyph glyph-name="uni2197" unicode="&#x2197;" 
d="M49 530l770 770h-672l154 154h784v-786l-153 -154l-2 672l-768 -768z" />
    <glyph glyph-name="uni2198" unicode="&#x2198;" 
d="M172 154l672 2l-768 768l112 112l770 -770v672l154 -154v-784h-786z" />
    <glyph glyph-name="uni2199" unicode="&#x2199;" 
d="M1057 154l-154 -154h-786v784l153 154v-672l770 770l113 -112l-768 -768z" />
    <glyph glyph-name="uni219D" unicode="&#x219d;" 
d="M594 379q-61 35 -87.5 83t-35.5 111q-3 16 -6.5 46t-7 47t-10.5 38.5t-19.5 37t-32.5 26.5q-51 29 -105 -8.5t-83 -124.5h-170q11 63 43.5 120t78.5 96.5t98.5 63t108.5 22.5t103 -28q37 -22 62 -48.5t38 -58.5t18.5 -56.5t10.5 -61.5q3 -33 6 -52t10 -43.5t21 -41.5
t35 -29q49 -28 100.5 7t97.5 118l-166 98l439 203l45 -485l-178 104q-84 -140 -196.5 -191t-217.5 7z" />
    <glyph glyph-name="uni21A9" unicode="&#x21a9;" 
d="M594 242h-217l-342 342l338 340h219l-262 -260h413q121 0 205 77.5t84 190.5q0 114 -83.5 192t-205.5 78h-604v160h604q189 0 320 -124.5t131 -305.5t-130.5 -304.5t-320.5 -123.5h-409z" />
    <glyph glyph-name="uni21AA" unicode="&#x21aa;" 
d="M635 242l260 262h-410q-189 0 -319.5 123.5t-130.5 304.5t130.5 305.5t319.5 124.5h605v-160h-605q-122 0 -205 -78t-83 -192q0 -113 83.5 -190.5t204.5 -77.5h414l-262 260h219l338 -340l-342 -342h-217z" />
    <glyph glyph-name="uni21B0" unicode="&#x21b0;" 
d="M434 582l-397 329l395 330v-250h735v-991h-159v831h-574v-249z" />
    <glyph glyph-name="uni21B1" unicode="&#x21b1;" 
d="M221 0h-160v991h736v250l395 -330l-397 -329v249h-574v-831z" />
    <glyph glyph-name="uni21B3" unicode="&#x21b3;" 
d="M795 872l397 -329l-395 -330v250h-736v991h160v-831h574v249z" />
    <glyph glyph-name="uni21B4" unicode="&#x21b4;" 
d="M881 0l-328 397h248v895h-772v160h934v-1057h247z" />
    <glyph glyph-name="carriagereturn" unicode="&#x21b5;" 
d="M434 872v-249h574v831h159v-991h-735v-250l-395 330z" />
    <glyph glyph-name="uni21E4" unicode="&#x21e4;" 
d="M41 244v798h160v-798h-160zM651 313l-397 330l395 330v-250h539v-160h-537v-250z" />
    <glyph glyph-name="uni21E5" unicode="&#x21e5;" 
d="M1188 244h-160v798h160v-798zM578 313v250h-537v160h539v250l395 -330z" />
    <glyph glyph-name="uni21E7" unicode="&#x21e7;" 
d="M291 0v811h-287l612 641l609 -641h-283v-811h-651zM451 160h331v772h113l-279 299l-280 -299h115v-772z" />
    <glyph glyph-name="partialdiff" unicode="&#x2202;" 
d="M596 -23q-201 0 -314.5 131.5t-113.5 356.5q0 222 119.5 354.5t316.5 132.5q159 0 287 -114q-51 204 -195 323t-407 170l41 156q169 -31 296 -91.5t209 -141.5t133.5 -191t72 -229t20.5 -267q0 -277 -129 -433.5t-336 -156.5zM596 121q145 0 224 92.5t79 312.5
q0 137 -75 210t-208 73q-135 0 -209.5 -90.5t-74.5 -253.5q0 -166 65.5 -255t198.5 -89z" />
    <glyph glyph-name="uni2206" unicode="&#x2206;" 
d="M20 0v164l484 1290h221l483 -1290v-164h-1188zM160 160h909l-455 1155z" />
    <glyph glyph-name="product" unicode="&#x220f;" 
d="M264 -307v1601h-223v160h1147v-160h-215v-1601h-160v1601h-389v-1601h-160z" />
    <glyph glyph-name="summation" unicode="&#x2211;" 
d="M127 0v172l373 555l-373 555v172h975v-172h-772l370 -555l-370 -555h772v-172h-975z" />
    <glyph glyph-name="minus" unicode="&#x2212;" 
d="M164 524v160h901v-160h-901z" />
    <glyph glyph-name="radical" unicode="&#x221a;" 
d="M262 -307l-242 995h166l170 -702l265 1468h587v-151h-448l-293 -1610h-205z" />
    <glyph glyph-name="infinity" unicode="&#x221e;" 
d="M309 236q-126 0 -209.5 92.5t-83.5 226.5t83.5 226.5t209.5 92.5q87 0 170.5 -55.5t134.5 -148.5q51 95 135.5 148.5t174.5 53.5q123 1 205.5 -91t82.5 -226q0 -133 -82.5 -226t-205.5 -93q-88 0 -174.5 53.5t-135.5 150.5q-49 -95 -134 -149.5t-171 -54.5zM309 391
q62 0 127 46t105 118q-40 70 -105 116t-127 48q-61 0 -99 -46t-38 -118t38 -118t99 -46zM924 391q58 1 95.5 47t37.5 117q0 69 -37.5 115t-95.5 47q-61 1 -127 -44t-111 -118q43 -73 109.5 -119.5t128.5 -44.5z" />
    <glyph glyph-name="integral" unicode="&#x222b;" 
d="M322 -307h-97l15 151h100q58 0 88 25t37 90l133 1221q30 274 309 274h97l-15 -151h-96q-115 0 -127 -115l-135 -1221q-15 -138 -90.5 -206t-218.5 -68z" />
    <glyph glyph-name="approxequal" unicode="&#x2248;" 
d="M881 709q-70 0 -114.5 26.5t-107.5 102.5q-61 74 -85.5 92t-59.5 18q-54 0 -82.5 -56t-28.5 -163h-161q0 167 74 272t192 105q74 0 119.5 -28.5t103.5 -102.5q54 -69 81 -89t67 -20q53 0 80.5 56t27.5 163h162q0 -169 -74 -272.5t-194 -103.5zM881 258q-70 0 -114.5 26.5
t-107.5 102.5q-61 75 -85.5 93t-59.5 18q-54 0 -82.5 -56t-28.5 -163h-161q0 167 74 271.5t192 104.5q74 0 119.5 -28.5t103.5 -102.5q54 -69 81 -88.5t67 -19.5q53 0 80.5 56t27.5 163h162q0 -169 -74 -273t-194 -104z" />
    <glyph glyph-name="notequal" unicode="&#x2260;" 
d="M164 322v159h340l78 264h-418v160h467l71 244h144l-72 -244h291v-160h-340l-78 -264h418v-159h-465l-74 -246h-143l74 246h-293z" />
    <glyph glyph-name="lessequal" unicode="&#x2264;" 
d="M1012 229l-930 336v217l930 336v-172l-787 -272l787 -273v-172zM1012 0h-930v152h930v-152z" />
    <glyph glyph-name="greaterequal" unicode="&#x2265;" 
d="M150 229v172l786 273l-786 272v172l929 -336v-217zM150 0v152h929v-152h-929z" />
    <glyph glyph-name="uni2326" unicode="&#x2326;" 
d="M905 0h-889v1454h889l316 -731zM809 141l256 584l-256 588h-651v-1172h651zM373 424l-113 115l186 188l-184 184l111 113l186 -186l186 188l115 -115l-186 -186l184 -186l-113 -113l-184 186z" />
    <glyph glyph-name="uni2327" unicode="&#x2327;" 
d="M29 0v1454h1171v-1454h-1171zM170 141h889v1172h-889v-1172zM428 426l-113 113l187 186l-189 186l115 115l188 -186l185 184l112 -113l-184 -184l186 -188l-114 -115l-187 188z" />
    <glyph glyph-name="uni232B" unicode="&#x232b;" 
d="M324 0l-316 723l316 731h888v-1454h-888zM420 141h651v1172h-651l-256 -588zM483 426l-112 113l186 186l-188 186l114 115l187 -188l186 186l111 -113l-185 -184l187 -188l-113 -115l-188 188z" />
    <glyph glyph-name="uni23CE" unicode="&#x23ce;" 
d="M618 -16l-610 634l610 631v-393h121v598h475v-1073h-596v-397zM489 696v201l-268 -281l268 -278v203h566v753h-156v-598h-410z" />
    <glyph glyph-name="uni240B" unicode="&#x240b;" 
d="M313 614l-207 676h109l154 -522l153 522h109l-207 -676h-111zM823 145v576h-194v100h493v-100h-194v-576h-105z" />
    <glyph glyph-name="uni240C" unicode="&#x240c;" 
d="M162 614v676h418v-100h-314v-195h295v-100h-295v-281h-104zM680 145v676h418v-100h-316v-195h297v-100h-297v-281h-102z" />
    <glyph glyph-name="uni2423" unicode="&#x2423;" 
d="M78 -389v389h162v-229h749v229h162v-389h-1073z" />
    <glyph glyph-name="uni2460" unicode="&#x2460;" 
d="M614 -33q-276 0 -432.5 199t-156.5 561t156.5 561t432.5 199q274 0 432 -199t158 -561t-158 -561t-432 -199zM614 106q208 0 329.5 163t121.5 458t-121.5 458t-329.5 163q-209 0 -329.5 -162.5t-120.5 -458.5t120.5 -458.5t329.5 -162.5zM584 328v520l-197 -2v102h49
q88 0 135 45.5t47 128.5h101v-794h-135z" />
    <glyph glyph-name="uni2461" unicode="&#x2461;" 
d="M614 -33q-276 0 -432.5 199t-156.5 561t156.5 561t432.5 199q274 0 432 -199t158 -561t-158 -561t-432 -199zM614 106q208 0 329.5 163t121.5 458t-121.5 458t-329.5 163q-209 0 -329.5 -162.5t-120.5 -458.5t120.5 -458.5t329.5 -162.5zM342 328q0 56 4 94.5t16 79
t34 71.5t59 62t90 61l106 60q61 33 83 63.5t22 87.5q0 51 -35.5 81t-87.5 30q-73 0 -111 -36t-47 -110l-131 7q12 120 86 189t203 69q117 0 187.5 -64t70.5 -166q0 -91 -48.5 -148t-148.5 -110l-84 -45q-116 -64 -116 -158h389v-118h-541z" />
    <glyph glyph-name="uni2462" unicode="&#x2462;" 
d="M614 -33q-276 0 -432.5 199t-156.5 561t156.5 561t432.5 199q274 0 432 -199t158 -561t-158 -561t-432 -199zM614 106q208 0 329.5 163t121.5 458t-121.5 458t-329.5 163q-209 0 -329.5 -162.5t-120.5 -458.5t120.5 -458.5t329.5 -162.5zM616 311q-150 0 -215.5 59
t-72.5 165l131 6q10 -111 157 -111q74 0 115 33.5t41 91.5q0 61 -40.5 96t-125.5 35h-51v117h51q59 0 93 26.5t34 77.5q0 49 -32.5 79t-94.5 30q-60 0 -95 -28.5t-40 -72.5l-131 9q13 94 82 153.5t184 59.5q126 0 193 -59t67 -158q0 -68 -34 -107.5t-103 -60.5
q176 -43 176 -199q0 -111 -81.5 -176.5t-207.5 -65.5z" />
    <glyph glyph-name="uni2463" unicode="&#x2463;" 
d="M614 -33q-276 0 -432.5 199t-156.5 561t156.5 561t432.5 199q274 0 432 -199t158 -561t-158 -561t-432 -199zM614 106q208 0 329.5 163t121.5 458t-121.5 458t-329.5 163q-209 0 -329.5 -162.5t-120.5 -458.5t120.5 -458.5t329.5 -162.5zM678 328v184h-369v104l377 504
h127v-489h111v-119h-111v-184h-135zM453 631h225v293z" />
    <glyph glyph-name="uni2464" unicode="&#x2464;" 
d="M614 -33q-276 0 -432.5 199t-156.5 561t156.5 561t432.5 199q274 0 432 -199t158 -561t-158 -561t-432 -199zM614 106q208 0 329.5 163t121.5 458t-121.5 458t-329.5 163q-209 0 -329.5 -162.5t-120.5 -458.5t120.5 -458.5t329.5 -162.5zM606 311q-118 0 -190.5 55
t-81.5 154l131 6q23 -96 145 -96q72 0 114 40t42 114q0 69 -35.5 112t-103.5 43q-100 0 -154 -80h-125l49 461h447v-119h-328l-27 -204q51 57 158 57q122 0 186 -74.5t64 -195.5q0 -128 -79 -200.5t-212 -72.5z" />
    <glyph glyph-name="uni2465" unicode="&#x2465;" 
d="M614 -33q-276 0 -432.5 199t-156.5 561t156.5 561t432.5 199q274 0 432 -199t158 -561t-158 -561t-432 -199zM614 106q208 0 329.5 163t121.5 458t-121.5 458t-329.5 163q-209 0 -329.5 -162.5t-120.5 -458.5t120.5 -458.5t329.5 -162.5zM614 311q-135 0 -215 96.5
t-80 272.5q0 97 18 177.5t55.5 144t100.5 99.5t146 36q119 0 179.5 -47.5t84.5 -149.5l-127 -12q-12 47 -44 68.5t-93 21.5q-80 0 -129 -62t-55 -172q23 38 70.5 62t109.5 24q124 0 201 -71t77 -207q0 -131 -83.5 -206t-215.5 -75zM616 430q78 0 122 45t44 121
q0 75 -41.5 115.5t-122.5 40.5q-73 0 -117.5 -41.5t-45.5 -114.5q-2 -76 41.5 -121t119.5 -45z" />
    <glyph glyph-name="uni2466" unicode="&#x2466;" 
d="M614 -33q-276 0 -432.5 199t-156.5 561t156.5 561t432.5 199q274 0 432 -199t158 -561t-158 -561t-432 -199zM614 106q208 0 329.5 163t121.5 458t-121.5 458t-329.5 163q-209 0 -329.5 -162.5t-120.5 -458.5t120.5 -458.5t329.5 -162.5zM494 328q0 371 235 676h-379v118
h533v-90q-127 -163 -192.5 -332t-65.5 -372h-131z" />
    <glyph glyph-name="uni2467" unicode="&#x2467;" 
d="M614 -33q-276 0 -432.5 199t-156.5 561t156.5 561t432.5 199q274 0 432 -199t158 -561t-158 -561t-432 -199zM614 106q208 0 329.5 163t121.5 458t-121.5 458t-329.5 163q-209 0 -329.5 -162.5t-120.5 -458.5t120.5 -458.5t329.5 -162.5zM616 311q-144 0 -220.5 60
t-76.5 170q0 71 43 128t117 87q-121 44 -121 174q0 98 66.5 152.5t191.5 54.5q126 0 192 -54.5t66 -152.5q0 -130 -120 -174q73 -31 116 -87.5t43 -127.5q0 -110 -76.5 -170t-220.5 -60zM616 811q123 0 123 111q0 45 -32 70.5t-91 25.5t-90.5 -25.5t-31.5 -70.5
q0 -111 122 -111zM616 430q78 0 120 30t42 89q0 60 -43.5 99.5t-118.5 39.5q-74 0 -117.5 -39.5t-43.5 -99.5q0 -119 161 -119z" />
    <glyph glyph-name="uni2468" unicode="&#x2468;" 
d="M614 -33q-276 0 -432.5 199t-156.5 561t156.5 561t432.5 199q274 0 432 -199t158 -561t-158 -561t-432 -199zM614 106q208 0 329.5 163t121.5 458t-121.5 458t-329.5 163q-209 0 -329.5 -162.5t-120.5 -458.5t120.5 -458.5t329.5 -162.5zM618 1137q135 0 215 -96.5
t80 -272.5q0 -77 -11 -144t-35.5 -125t-61 -99.5t-90.5 -65t-121 -23.5q-119 0 -179.5 47.5t-84.5 149.5l127 12q12 -47 44 -68.5t93 -21.5q80 0 129 62t55 172q-23 -38 -70.5 -62t-109.5 -24q-124 0 -201.5 71t-77.5 207q0 131 83.5 206t215.5 75zM616 1018
q-78 0 -121.5 -45t-43.5 -121q0 -75 41 -115.5t122 -40.5q73 0 118 41.5t46 114.5q2 75 -42 120.5t-120 45.5z" />
    <glyph glyph-name="uni24EA" unicode="&#x24ea;" 
d="M614 -33q-276 0 -432.5 199t-156.5 561t156.5 561t432.5 199q274 0 432 -199t158 -561t-158 -561t-432 -199zM614 106q208 0 329.5 163t121.5 458t-121.5 458t-329.5 163q-209 0 -329.5 -162.5t-120.5 -458.5t120.5 -458.5t329.5 -162.5zM616 311q-146 0 -232.5 111.5
t-86.5 302.5t86 301.5t233 110.5t233.5 -110.5t86.5 -301.5t-87 -302.5t-233 -111.5zM432 725q0 -89 25 -156l254 416q-43 29 -95 29q-184 0 -184 -289zM616 434q90 0 137.5 74.5t47.5 216.5q0 95 -25 162l-254 -418q41 -35 94 -35z" />
    <glyph glyph-name="uni24FF" unicode="&#x24ff;" 
d="M614 -33q-270 0 -427.5 205t-157.5 555t157.5 555t427.5 205q269 0 427.5 -205t158.5 -555t-158.5 -555t-427.5 -205zM616 311q146 0 233 111.5t87 302.5t-86.5 301.5t-233.5 110.5t-233 -110.5t-86 -301.5t86.5 -302.5t232.5 -111.5zM457 569q-25 67 -25 156
q0 289 184 289q52 0 95 -29zM616 434q-53 0 -94 35l256 418q23 -71 23 -162q0 -142 -47.5 -216.5t-137.5 -74.5z" />
    <glyph glyph-name="uni2500" unicode="&#x2500;" 
d="M-82 653v176h1311v-176h-1311z" />
    <glyph glyph-name="uni2502" unicode="&#x2502;" 
d="M526 -506v2579h176v-2579h-176z" />
    <glyph glyph-name="uni250C" unicode="&#x250c;" 
d="M526 -506v1335h703v-176h-527v-1159h-176z" />
    <glyph glyph-name="uni2514" unicode="&#x2514;" 
d="M526 653v1418h176v-1242h527v-176h-703z" />
    <glyph glyph-name="uni251C" unicode="&#x251c;" 
d="M526 -506v2579h176v-1244h527v-176h-527v-1159h-176z" />
    <glyph glyph-name="triagup" unicode="&#x25b2;" 
d="M16 0l596 1034l598 -1034h-1194z" />
    <glyph glyph-name="uni25B3" unicode="&#x25b3;" 
d="M16 201l596 1034l598 -1034h-1194zM276 352h674l-338 584z" />
    <glyph glyph-name="uni25B6" unicode="&#x25b6;" 
d="M-111 1329l1035 -596l-1035 -598v1194z" />
    <glyph glyph-name="uni25B7" unicode="&#x25b7;" 
d="M90 1329l1034 -596l-1034 -598v1194zM242 1069v-674l583 338z" />
    <glyph glyph-name="triagdn" unicode="&#x25bc;" 
d="M16 1454h1194l-598 -1034z" />
    <glyph glyph-name="uni25BD" unicode="&#x25bd;" 
d="M16 1270h1194l-598 -1034zM276 1118l336 -583l338 583h-674z" />
    <glyph glyph-name="uni25C0" unicode="&#x25c0;" 
d="M1339 1329v-1194l-1034 598z" />
    <glyph glyph-name="uni25C1" unicode="&#x25c1;" 
d="M1139 1329v-1194l-1035 598zM987 1069l-584 -336l584 -338v674z" />
    <glyph glyph-name="lozenge" unicode="&#x25ca;" 
d="M508 0l-346 659l346 660h211l346 -660l-346 -659h-211zM338 659l276 -522l275 522l-275 523z" />
    <glyph glyph-name="circle" unicode="&#x25cb;" 
d="M616 162q-163 0 -296.5 72.5t-210 203t-76.5 291.5q0 247 167 409t416 162q162 0 295 -73t210 -204t77 -294q0 -121 -45 -226.5t-122.5 -180t-185.5 -117.5t-229 -43zM616 315q180 0 301 117t121 297q0 183 -121 300.5t-301 117.5q-182 0 -302.5 -117.5t-120.5 -300.5
q0 -180 121 -297t302 -117z" />
    <glyph glyph-name="uni25CC" unicode="&#x25cc;" 
d="M504 1202l-23 117q55 11 129 14l2 -121q-50 0 -108 -10zM803 1180q-42 15 -105 26l19 119q57 -8 127 -35zM328 1128l-66 101q48 33 119 59l41 -110q-38 -14 -94 -50zM963 1079q-36 36 -84 64l61 102q65 -40 107 -80zM197 995l-101 64q37 58 84 102l82 -86
q-40 -40 -65 -80zM1069 922q-23 54 -53 92l100 69q43 -66 62 -116zM131 817l-119 19q13 74 35 127l113 -43q-19 -45 -29 -103zM1104 735q0 55 -12 107l116 24q15 -65 15 -131h-119zM18 600q-14 57 -14 131h119q0 -53 12 -106zM1180 502l-111 45q21 53 29 102l116 -18
q-14 -77 -34 -129zM115 381q-38 52 -66 119l111 45q20 -50 51 -92zM1047 303l-84 88q41 38 67 80l100 -63q-36 -58 -83 -105zM291 221q-61 36 -107 82l82 84q41 -38 86 -61zM846 178l-43 111q55 22 94 49l66 -100q-50 -34 -117 -60zM512 143q-51 7 -127 33l43 111
q64 -21 102 -25zM612 135v121q65 0 109 8l22 -114q-77 -15 -131 -15z" />
    <glyph glyph-name="uni25CF" unicode="&#x25cf;" 
d="M616 162q-163 0 -296.5 72.5t-210 202.5t-76.5 292q0 164 76.5 295t209.5 203.5t297 72.5q163 0 295.5 -72.5t209.5 -203.5t77 -295q0 -162 -77 -292t-210 -202.5t-295 -72.5z" />
    <glyph glyph-name="uni2776" unicode="&#x2776;" 
d="M614 -33q-270 0 -427.5 205t-157.5 555t157.5 555t427.5 205q269 0 427.5 -205t158.5 -555t-158.5 -555t-427.5 -205zM586 328h135v794h-100q0 -83 -47.5 -128.5t-135.5 -45.5h-49v-102l197 2v-520z" />
    <glyph glyph-name="uni2777" unicode="&#x2777;" 
d="M614 -33q-270 0 -427.5 205t-157.5 555t157.5 555t427.5 205q269 0 427.5 -205t158.5 -555t-158.5 -555t-427.5 -205zM342 328h541v118h-389q0 94 116 158l84 45q100 53 148.5 110t48.5 148q0 102 -70.5 166t-187.5 64q-129 0 -203 -69t-86 -189l131 -7q9 74 47 110
t111 36q52 0 87.5 -30t35.5 -81q0 -57 -22 -87.5t-83 -63.5l-106 -60q-53 -30 -90 -61t-59 -62t-34 -71.5t-16 -79t-4 -94.5z" />
    <glyph glyph-name="uni2778" unicode="&#x2778;" 
d="M614 -33q-270 0 -427.5 205t-157.5 555t157.5 555t427.5 205q269 0 427.5 -205t158.5 -555t-158.5 -555t-427.5 -205zM616 311q126 0 207.5 65.5t81.5 176.5q0 156 -176 199q69 21 103 60.5t34 107.5q0 99 -67 158t-193 59q-115 0 -184 -59.5t-82 -153.5l131 -9
q5 44 40 72.5t95 28.5q62 0 94.5 -30t32.5 -79q0 -51 -34 -77.5t-93 -26.5h-51v-117h51q85 0 125.5 -35t40.5 -96q0 -58 -41 -91.5t-115 -33.5q-147 0 -157 111l-131 -6q7 -106 72.5 -165t215.5 -59z" />
    <glyph glyph-name="uni2779" unicode="&#x2779;" 
d="M614 -33q-270 0 -427.5 205t-157.5 555t157.5 555t427.5 205q269 0 427.5 -205t158.5 -555t-158.5 -555t-427.5 -205zM678 328h135v184h111v119h-111v489h-127l-377 -504v-104h369v-184zM453 631l225 293v-293h-225z" />
    <glyph glyph-name="uni277A" unicode="&#x277a;" 
d="M614 -33q-270 0 -427.5 205t-157.5 555t157.5 555t427.5 205q269 0 427.5 -205t158.5 -555t-158.5 -555t-427.5 -205zM606 311q133 0 212 72.5t79 200.5q0 121 -64 195.5t-186 74.5q-107 0 -158 -57l27 204h328v119h-447l-49 -461h125q54 80 154 80q68 0 103.5 -43
t35.5 -112q0 -74 -42 -114t-114 -40q-122 0 -145 96l-131 -6q9 -99 81.5 -154t190.5 -55z" />
    <glyph glyph-name="uni277B" unicode="&#x277b;" 
d="M614 -33q-270 0 -427.5 205t-157.5 555t157.5 555t427.5 205q269 0 427.5 -205t158.5 -555t-158.5 -555t-427.5 -205zM614 311q132 0 215.5 75t83.5 206q0 136 -77 207t-201 71q-62 0 -109.5 -24t-70.5 -62q6 110 55 172t129 62q61 0 93 -21.5t44 -68.5l127 12
q-24 102 -84.5 149.5t-179.5 47.5q-83 0 -146 -36t-100.5 -99.5t-55.5 -144t-18 -177.5q0 -176 80 -272.5t215 -96.5zM616 430q-76 0 -119.5 45t-41.5 121q1 73 45.5 114.5t117.5 41.5q81 0 122.5 -40.5t41.5 -115.5q0 -76 -44 -121t-122 -45z" />
    <glyph glyph-name="uni277C" unicode="&#x277c;" 
d="M614 -33q-270 0 -427.5 205t-157.5 555t157.5 555t427.5 205q269 0 427.5 -205t158.5 -555t-158.5 -555t-427.5 -205zM494 328h131q0 203 65.5 372t192.5 332v90h-533v-118h379q-235 -305 -235 -676z" />
    <glyph glyph-name="uni277D" unicode="&#x277d;" 
d="M614 -33q-270 0 -427.5 205t-157.5 555t157.5 555t427.5 205q269 0 427.5 -205t158.5 -555t-158.5 -555t-427.5 -205zM616 311q144 0 220.5 60t76.5 170q0 71 -43 127.5t-116 87.5q120 44 120 174q0 98 -66 152.5t-192 54.5q-125 0 -191.5 -54.5t-66.5 -152.5
q0 -130 121 -174q-74 -30 -117 -87t-43 -128q0 -110 76.5 -170t220.5 -60zM616 811q-122 0 -122 111q0 45 31.5 70.5t90.5 25.5t91 -25.5t32 -70.5q0 -111 -123 -111zM616 430q-161 0 -161 119q0 60 43.5 99.5t117.5 39.5q75 0 118.5 -39.5t43.5 -99.5q0 -59 -42 -89
t-120 -30z" />
    <glyph glyph-name="uni277E" unicode="&#x277e;" 
d="M614 -33q-270 0 -427.5 205t-157.5 555t157.5 555t427.5 205q269 0 427.5 -205t158.5 -555t-158.5 -555t-427.5 -205zM594 311q67 0 121 23.5t90.5 65t61 99.5t35.5 125t11 144q0 176 -80 272.5t-215 96.5q-132 0 -215.5 -75t-83.5 -206q0 -136 77.5 -207t201.5 -71
q62 0 109.5 24t70.5 62q-6 -110 -55 -172t-129 -62q-61 0 -93 21.5t-44 68.5l-127 -12q24 -102 84.5 -149.5t179.5 -47.5zM614 696q-81 0 -122 40.5t-41 115.5q0 76 43.5 121t121.5 45q76 0 120 -45.5t42 -120.5q-1 -73 -46 -114.5t-118 -41.5z" />
    <glyph glyph-name="uni3003" unicode="&#x3003;" 
d="M584 575l127 410h190l-184 -410h-133zM328 575l129 410h188l-184 -410h-133z" />
    <glyph glyph-name="uni3008" unicode="&#x3008;" 
d="M725 -233l-375 958l375 956h164l-375 -956l375 -958h-164z" />
    <glyph glyph-name="uni3009" unicode="&#x3009;" 
d="M504 -233h-164l375 958l-375 956h164l375 -956z" />
    <glyph glyph-name="uni300A" unicode="&#x300a;" 
d="M547 -233l-375 958l375 956h164l-375 -956l375 -958h-164zM889 -233l-375 958l375 956h164l-375 -956l375 -958h-164z" />
    <glyph glyph-name="uni300B" unicode="&#x300b;" 
d="M682 -233h-164l375 958l-375 956h164l375 -956zM340 -233h-164l375 958l-375 956h164l375 -956z" />
    <glyph glyph-name="uni300C" unicode="&#x300c;" 
d="M348 481v1211h621v-160h-455v-1051h-166z" />
    <glyph glyph-name="uni300D" unicode="&#x300d;" 
d="M881 999v-1210h-621v160h455v1050h166z" />
    <glyph glyph-name="uni300E" unicode="&#x300e;" 
d="M348 477v1215h621v-328h-293v-887h-328zM430 559h166v887h293v164h-459v-1051z" />
    <glyph glyph-name="uni300F" unicode="&#x300f;" 
d="M881 1004v-1215h-621v328h293v887h328zM799 922h-166v-887h-293v-164h459v1051z" />
    <glyph glyph-name="uni3010" unicode="&#x3010;" 
d="M940 -129h-561v1819h561q-277 -439 -277 -908.5t277 -910.5z" />
    <glyph glyph-name="uni3011" unicode="&#x3011;" 
d="M289 -129q277 441 277 910.5t-277 908.5h561v-1819h-561z" />
    <glyph glyph-name="uni3014" unicode="&#x3014;" 
d="M874 -299l-514 463v1120l510 457l107 -117l-453 -405v-990l457 -411z" />
    <glyph glyph-name="uni3015" unicode="&#x3015;" 
d="M354 -299l-106 117l457 411v990l-453 405l106 117l510 -457v-1120z" />
    <glyph glyph-name="uni3016" unicode="&#x3016;" 
d="M922 -129h-543v1819h543q-277 -439 -277 -908.5t277 -910.5zM778 -47q-429 829 0 1655h-317v-1655h317z" />
    <glyph glyph-name="uni3017" unicode="&#x3017;" 
d="M307 -129q277 441 277 910.5t-277 908.5h543v-1819h-543zM451 -47h317v1655h-317q429 -826 0 -1655z" />
    <glyph glyph-name="uni301C" unicode="&#x301c;" 
d="M864 444q-110 0 -250 88q-154 95 -249 95q-120 0 -234 -168l-119 119q60 102 155 161.5t198 59.5q109 0 249 -88q154 -95 250 -95q117 0 234 168l119 -118q-58 -102 -154 -162t-199 -60z" />
    <glyph glyph-name="uniA78B" unicode="&#xa78b;" 
d="M553 774l-29 402v278h181v-278l-29 -402h-123z" />
    <glyph glyph-name="uniA78C" unicode="&#xa78c;" 
d="M553 774l-29 402v278h181v-278l-29 -402h-123z" />
    <glyph glyph-name="uniF8FF" unicode="&#xf8ff;" 
d="M215 0q-86 0 -142.5 56.5t-56.5 142.5v798q0 86 56.5 142.5t142.5 56.5h799q86 0 142 -56.5t56 -142.5v-798q0 -86 -56 -142.5t-142 -56.5h-799zM176 254h875l-439 760z" />
    <glyph glyph-name="uni004A0301" 
d="M874 1597l136 263h192l-184 -263h-144zM563 -33q-215 0 -345 136.5t-136 367.5l172 16q6 -177 81.5 -262.5t227.5 -85.5q305 0 305 348v967h176v-967q0 -241 -129 -380.5t-352 -139.5z" />
    <glyph glyph-name="uni013B.loclMAH" 
d="M205 0v1454h176v-1282h725v-172h-901zM514 -492l111 197h-70v184h205v-176l-131 -205h-115z" />
    <glyph glyph-name="uni0145.loclMAH" 
d="M143 0v1454h250l516 -1253v1253h176v-1454h-249l-517 1253v-1253h-176zM471 -492l111 197h-70v184h205v-176l-131 -205h-115z" />
    <glyph glyph-name="R.ss04" 
d="M143 0v1454h463q229 0 360.5 -117t131.5 -323q0 -291 -312 -393l353 -621h-195l-323 586h-302v-586h-176zM319 758h287q159 0 233 65.5t74 194.5q0 264 -307 264h-287v-524z" />
    <glyph glyph-name="Racute.ss04" 
d="M516 1597l135 263h193l-185 -263h-143zM143 0v1454h463q229 0 360.5 -117t131.5 -323q0 -291 -312 -393l353 -621h-195l-323 586h-302v-586h-176zM319 758h287q159 0 233 65.5t74 194.5q0 264 -307 264h-287v-524z" />
    <glyph glyph-name="Rcaron.ss04" 
d="M307 1866h144l143 -185l143 185h144l-191 -273h-192zM143 0v1454h463q229 0 360.5 -117t131.5 -323q0 -291 -312 -393l353 -621h-195l-323 586h-302v-586h-176zM319 758h287q159 0 233 65.5t74 194.5q0 264 -307 264h-287v-524z" />
    <glyph glyph-name="uni0156.ss04" 
d="M143 0v1454h463q229 0 360.5 -117t131.5 -323q0 -291 -312 -393l353 -621h-195l-323 586h-302v-586h-176zM319 758h287q159 0 233 65.5t74 194.5q0 264 -307 264h-287v-524zM451 -492l110 197h-69v184h204v-176l-131 -205h-114z" />
    <glyph glyph-name="G.ss06" 
d="M633 -33q-259 0 -415.5 206t-156.5 552q0 348 156.5 555t415.5 207q209 0 339.5 -126.5t180.5 -340.5l-184 -12q-77 307 -336 307q-182 0 -284.5 -160t-102.5 -430q0 -269 102.5 -427.5t284.5 -158.5q170 0 264 110.5t94 317.5h-344v168h520v-100q0 -330 -138.5 -499
t-395.5 -169z" />
    <glyph glyph-name="Gbreve.ss06" 
d="M614 1604q-126 0 -203 71t-83 191h118q17 -135 168 -135t168 135h119q-6 -120 -83.5 -191t-203.5 -71zM633 -33q-259 0 -415.5 206t-156.5 552q0 348 156.5 555t415.5 207q209 0 339.5 -126.5t180.5 -340.5l-184 -12q-77 307 -336 307q-182 0 -284.5 -160t-102.5 -430
q0 -269 102.5 -427.5t284.5 -158.5q170 0 264 110.5t94 317.5h-344v168h520v-100q0 -330 -138.5 -499t-395.5 -169z" />
    <glyph glyph-name="Gcircumflex.ss06" 
d="M326 1593l190 273h193l190 -273h-143l-144 185l-143 -185h-143zM633 -33q-259 0 -415.5 206t-156.5 552q0 348 156.5 555t415.5 207q209 0 339.5 -126.5t180.5 -340.5l-184 -12q-77 307 -336 307q-182 0 -284.5 -160t-102.5 -430q0 -269 102.5 -427.5t284.5 -158.5
q170 0 264 110.5t94 317.5h-344v168h520v-100q0 -330 -138.5 -499t-395.5 -169z" />
    <glyph glyph-name="uni0122.ss06" 
d="M633 -33q-259 0 -415.5 206t-156.5 552q0 348 156.5 555t415.5 207q209 0 339.5 -126.5t180.5 -340.5l-184 -12q-77 307 -336 307q-182 0 -284.5 -160t-102.5 -430q0 -269 102.5 -427.5t284.5 -158.5q170 0 264 110.5t94 317.5h-344v168h520v-100q0 -330 -138.5 -499
t-395.5 -169zM471 -492l111 197h-70v184h205v-176l-131 -205h-115z" />
    <glyph glyph-name="Gdotaccent.ss06" 
d="M522 1624v201h180v-201h-180zM633 -33q-259 0 -415.5 206t-156.5 552q0 348 156.5 555t415.5 207q209 0 339.5 -126.5t180.5 -340.5l-184 -12q-77 307 -336 307q-182 0 -284.5 -160t-102.5 -430q0 -269 102.5 -427.5t284.5 -158.5q170 0 264 110.5t94 317.5h-344v168h520
v-100q0 -330 -138.5 -499t-395.5 -169z" />
    <glyph glyph-name="uni1E20.ss06" 
d="M338 1649v147h549v-147h-549zM633 -33q-259 0 -415.5 206t-156.5 552q0 348 156.5 555t415.5 207q209 0 339.5 -126.5t180.5 -340.5l-184 -12q-77 307 -336 307q-182 0 -284.5 -160t-102.5 -430q0 -269 102.5 -427.5t284.5 -158.5q170 0 264 110.5t94 317.5h-344v168h520
v-100q0 -330 -138.5 -499t-395.5 -169z" />
    <glyph glyph-name="Adieresis.ss08" 
d="M449 1618q-43 0 -71 28t-28 74q0 44 28 73.5t71 29.5t70.5 -29.5t27.5 -73.5q0 -47 -27.5 -74.5t-70.5 -27.5zM776 1618q-43 0 -70.5 27.5t-27.5 74.5q0 44 27.5 73.5t70.5 29.5t70.5 -29.5t27.5 -73.5q0 -47 -27.5 -74.5t-70.5 -27.5zM53 0l443 1454h237l443 -1454h-189
l-119 414h-508l-118 -414h-189zM614 1294l-204 -708h409z" />
    <glyph glyph-name="Cdotaccent.ss08" 
d="M618 1618q-43 0 -70.5 27.5t-27.5 74.5q0 44 27.5 73.5t70.5 29.5t71 -29.5t28 -73.5q0 -46 -27.5 -74t-71.5 -28zM618 -33q-258 0 -399 202.5t-141 555.5q0 356 141 559t399 203q193 0 327.5 -126t180.5 -351l-188 -13q-35 154 -119.5 236t-200.5 82q-173 0 -264.5 -153
t-91.5 -437q0 -282 91.5 -434t264.5 -152q128 0 216 89.5t118 260.5l187 -10q-40 -240 -178 -376t-343 -136z" />
    <glyph glyph-name="Edieresis.ss08" 
d="M485 1620q-43 0 -70.5 27.5t-27.5 74.5q0 44 27.5 73.5t70.5 29.5t71 -29.5t28 -73.5q0 -46 -28 -74t-71 -28zM813 1620q-43 0 -70.5 27.5t-27.5 74.5q0 44 27.5 73.5t70.5 29.5t70.5 -29.5t27.5 -73.5q0 -47 -27.5 -74.5t-70.5 -27.5zM184 0v1454h885v-172h-709v-469
h684v-168h-684v-473h725v-172h-901z" />
    <glyph glyph-name="Edotaccent.ss08" 
d="M651 1620q-43 0 -70.5 27.5t-27.5 74.5q0 44 27.5 73.5t70.5 29.5t71 -29.5t28 -73.5q0 -46 -28 -74t-71 -28zM184 0v1454h885v-172h-709v-469h684v-168h-684v-473h725v-172h-901z" />
    <glyph glyph-name="Gdotaccent.ss08" 
d="M612 1618q-43 0 -70.5 27.5t-27.5 74.5q0 44 27.5 73.5t70.5 29.5t71 -29.5t28 -73.5q0 -46 -27.5 -74t-71.5 -28zM610 -33q-238 0 -385 197t-147 561q0 354 143 558t397 204q194 0 327.5 -127.5t182.5 -339.5l-184 -12q-37 142 -119.5 224.5t-206.5 82.5
q-170 0 -263 -153.5t-93 -436.5q0 -280 95.5 -433t269.5 -153q153 0 245.5 118t98.5 310h-348v168h512v-735h-164l-4 201q-113 -234 -357 -234z" />
    <glyph glyph-name="Idieresis.ss08" 
d="M449 1618q-43 0 -71 28t-28 74q0 44 28 73.5t71 29.5t70.5 -29.5t27.5 -73.5q0 -47 -27.5 -74.5t-70.5 -27.5zM776 1618q-43 0 -70.5 27.5t-27.5 74.5q0 44 27.5 73.5t70.5 29.5t70.5 -29.5t27.5 -73.5q0 -47 -27.5 -74.5t-70.5 -27.5zM164 0v172h362v1110h-362v172h901
v-172h-363v-1110h363v-172h-901z" />
    <glyph glyph-name="Idotaccent.ss08" 
d="M614 1618q-43 0 -70.5 27.5t-27.5 74.5q0 44 27.5 73.5t70.5 29.5t71 -29.5t28 -73.5q0 -46 -27.5 -74t-71.5 -28zM164 0v172h362v1110h-362v172h901v-172h-363v-1110h363v-172h-901z" />
    <glyph glyph-name="Odieresis.ss08" 
d="M449 1618q-43 0 -71 28t-28 74q0 44 28 73.5t71 29.5t70.5 -29.5t27.5 -73.5q0 -47 -27.5 -74.5t-70.5 -27.5zM776 1618q-43 0 -70.5 27.5t-27.5 74.5q0 44 27.5 73.5t70.5 29.5t70.5 -29.5t27.5 -73.5q0 -47 -27.5 -74.5t-70.5 -27.5zM614 -33q-258 0 -397 197t-139 561
q0 367 139 564.5t397 197.5t397.5 -197.5t139.5 -564.5q0 -364 -139.5 -561t-397.5 -197zM614 139q170 0 261.5 151t91.5 435q0 285 -92 437.5t-261 152.5t-260.5 -152.5t-91.5 -437.5t91.5 -435.5t260.5 -150.5z" />
    <glyph glyph-name="Udieresis.ss08" 
d="M449 1618q-43 0 -71 28t-28 74q0 44 28 73.5t71 29.5t70.5 -29.5t27.5 -73.5q0 -47 -27.5 -74.5t-70.5 -27.5zM776 1618q-43 0 -70.5 27.5t-27.5 74.5q0 44 27.5 73.5t70.5 29.5t70.5 -29.5t27.5 -73.5q0 -47 -27.5 -74.5t-70.5 -27.5zM614 -33q-228 0 -359.5 145
t-131.5 396v946h176v-946q0 -180 80.5 -274.5t234.5 -94.5t235 94.5t81 274.5v946h176v-946q0 -251 -131.5 -396t-360.5 -145z" />
    <glyph glyph-name="Wdieresis.ss08" 
d="M449 1618q-43 0 -71 28t-28 74q0 44 28 73.5t71 29.5t70.5 -29.5t27.5 -73.5q0 -47 -27.5 -74.5t-70.5 -27.5zM776 1618q-43 0 -70.5 27.5t-27.5 74.5q0 44 27.5 73.5t70.5 29.5t70.5 -29.5t27.5 -73.5q0 -47 -27.5 -74.5t-70.5 -27.5zM221 0l-160 1454h185l127 -1264
l147 1100h189l147 -1100l127 1264h184l-159 -1454h-267l-127 961l-127 -961h-266z" />
    <glyph glyph-name="Ydieresis.ss08" 
d="M449 1618q-43 0 -71 28t-28 74q0 44 28 73.5t71 29.5t70.5 -29.5t27.5 -73.5q0 -47 -27.5 -74.5t-70.5 -27.5zM776 1618q-43 0 -70.5 27.5t-27.5 74.5q0 44 27.5 73.5t70.5 29.5t70.5 -29.5t27.5 -73.5q0 -47 -27.5 -74.5t-70.5 -27.5zM528 0v594l-446 860h201l331 -680
l332 680h201l-442 -860v-594h-177z" />
    <glyph glyph-name="Zdotaccent.ss08" 
d="M614 1618q-43 0 -70.5 27.5t-27.5 74.5q0 44 27.5 73.5t70.5 29.5t71 -29.5t28 -73.5q0 -46 -27.5 -74t-71.5 -28zM102 0v176l811 1106h-774v172h971v-176l-811 -1106h827v-172h-1024z" />
    <glyph glyph-name="Gdotaccent.ss06.ss08" 
d="M614 1618q-43 0 -70.5 27.5t-27.5 74.5q0 44 27.5 73.5t70.5 29.5t71 -29.5t28 -73.5q0 -46 -27.5 -74t-71.5 -28zM633 -33q-259 0 -415.5 206t-156.5 552q0 348 156.5 555t415.5 207q209 0 339.5 -126.5t180.5 -340.5l-184 -12q-77 307 -336 307q-182 0 -284.5 -160
t-102.5 -430q0 -269 102.5 -427.5t284.5 -158.5q170 0 264 110.5t94 317.5h-344v168h520v-100q0 -330 -138.5 -499t-395.5 -169z" />
    <glyph glyph-name="i.loclTRK" 
d="M584 1255v201h180v-201h-180zM164 0v152h436v782h-416v151h588v-933h375v-152h-983z" />
    <glyph glyph-name="uni006A0301" 
d="M733 1229l135 262h193l-184 -262h-144zM225 -307v151h344q83 0 121.5 36.5t38.5 131.5v922h-483v151h655v-1085q0 -152 -75.5 -229.5t-235.5 -77.5h-365z" />
    <glyph glyph-name="uni013C.loclMAH" 
d="M123 0v152h436v1011q0 66 -36.5 103t-102.5 37h-256v151h264q149 0 226 -77t77 -226v-999h375v-152h-983zM500 -492l110 197h-69v184h204v-176l-131 -205h-114z" />
    <glyph glyph-name="uni0146.loclMAH" 
d="M172 0v1085h158l4 -194q43 108 135.5 163.5t210.5 55.5q179 0 278 -116t99 -296v-698h-172v649q0 309 -242 309q-131 0 -215 -81.5t-84 -227.5v-649h-172zM471 -492l111 197h-70v184h205v-176l-131 -205h-115z" />
    <glyph glyph-name="a.ss01" 
d="M471 -25q-155 0 -257.5 82t-102.5 213q0 137 82 215t262 113l364 74q0 137 -61.5 205.5t-179.5 68.5q-214 0 -265 -194l-182 14q31 157 148.5 250.5t298.5 93.5q195 0 304 -117.5t109 -324.5v-668h-160l-8 178q-46 -91 -142 -147t-210 -56zM487 127q162 0 247 82t85 221
v94l-332 -65q-107 -21 -151.5 -62t-44.5 -110q0 -76 51.5 -118t144.5 -42z" />
    <glyph glyph-name="aacute.ss01" 
d="M543 1229l135 262h192l-184 -262h-143zM471 -25q-155 0 -257.5 82t-102.5 213q0 137 82 215t262 113l364 74q0 137 -61.5 205.5t-179.5 68.5q-214 0 -265 -194l-182 14q31 157 148.5 250.5t298.5 93.5q195 0 304 -117.5t109 -324.5v-668h-160l-8 178q-46 -91 -142 -147
t-210 -56zM487 127q162 0 247 82t85 221v94l-332 -65q-107 -21 -151.5 -62t-44.5 -110q0 -76 51.5 -118t144.5 -42z" />
    <glyph glyph-name="abreve.ss01" 
d="M621 1235q-126 0 -203.5 71t-83.5 191h119q17 -135 168 -135q150 0 167 135h119q-6 -120 -83 -191t-203 -71zM471 -25q-155 0 -257.5 82t-102.5 213q0 137 82 215t262 113l364 74q0 137 -61.5 205.5t-179.5 68.5q-214 0 -265 -194l-182 14q31 157 148.5 250.5t298.5 93.5
q195 0 304 -117.5t109 -324.5v-668h-160l-8 178q-46 -91 -142 -147t-210 -56zM487 127q162 0 247 82t85 221v94l-332 -65q-107 -21 -151.5 -62t-44.5 -110q0 -76 51.5 -118t144.5 -42z" />
    <glyph glyph-name="uni01CE.ss01" 
d="M334 1497h143l144 -184l143 184h143l-190 -272h-193zM471 -25q-155 0 -257.5 82t-102.5 213q0 137 82 215t262 113l364 74q0 137 -61.5 205.5t-179.5 68.5q-214 0 -265 -194l-182 14q31 157 148.5 250.5t298.5 93.5q195 0 304 -117.5t109 -324.5v-668h-160l-8 178
q-46 -91 -142 -147t-210 -56zM487 127q162 0 247 82t85 221v94l-332 -65q-107 -21 -151.5 -62t-44.5 -110q0 -76 51.5 -118t144.5 -42z" />
    <glyph glyph-name="acircumflex.ss01" 
d="M332 1225l190 272h193l190 -272h-143l-144 184l-143 -184h-143zM471 -25q-155 0 -257.5 82t-102.5 213q0 137 82 215t262 113l364 74q0 137 -61.5 205.5t-179.5 68.5q-214 0 -265 -194l-182 14q31 157 148.5 250.5t298.5 93.5q195 0 304 -117.5t109 -324.5v-668h-160
l-8 178q-46 -91 -142 -147t-210 -56zM487 127q162 0 247 82t85 221v94l-332 -65q-107 -21 -151.5 -62t-44.5 -110q0 -76 51.5 -118t144.5 -42z" />
    <glyph glyph-name="adieresis.ss01" 
d="M334 1255v201h180v-201h-180zM727 1255v201h180v-201h-180zM471 -25q-155 0 -257.5 82t-102.5 213q0 137 82 215t262 113l364 74q0 137 -61.5 205.5t-179.5 68.5q-214 0 -265 -194l-182 14q31 157 148.5 250.5t298.5 93.5q195 0 304 -117.5t109 -324.5v-668h-160l-8 178
q-46 -91 -142 -147t-210 -56zM487 127q162 0 247 82t85 221v94l-332 -65q-107 -21 -151.5 -62t-44.5 -110q0 -76 51.5 -118t144.5 -42z" />
    <glyph glyph-name="agrave.ss01" 
d="M559 1229l-184 262h192l135 -262h-143zM471 -25q-155 0 -257.5 82t-102.5 213q0 137 82 215t262 113l364 74q0 137 -61.5 205.5t-179.5 68.5q-214 0 -265 -194l-182 14q31 157 148.5 250.5t298.5 93.5q195 0 304 -117.5t109 -324.5v-668h-160l-8 178q-46 -91 -142 -147
t-210 -56zM487 127q162 0 247 82t85 221v94l-332 -65q-107 -21 -151.5 -62t-44.5 -110q0 -76 51.5 -118t144.5 -42z" />
    <glyph glyph-name="amacron.ss01" 
d="M344 1280v147h549v-147h-549zM471 -25q-155 0 -257.5 82t-102.5 213q0 137 82 215t262 113l364 74q0 137 -61.5 205.5t-179.5 68.5q-214 0 -265 -194l-182 14q31 157 148.5 250.5t298.5 93.5q195 0 304 -117.5t109 -324.5v-668h-160l-8 178q-46 -91 -142 -147t-210 -56z
M487 127q162 0 247 82t85 221v94l-332 -65q-107 -21 -151.5 -62t-44.5 -110q0 -76 51.5 -118t144.5 -42z" />
    <glyph glyph-name="aogonek.ss01" 
d="M471 -25q-155 0 -257.5 82t-102.5 213q0 137 82 215t262 113l364 74q0 137 -61.5 205.5t-179.5 68.5q-214 0 -265 -194l-182 14q31 157 148.5 250.5t298.5 93.5q195 0 304 -117.5t109 -324.5v-668l-71 -92q-64 -85 -64 -137q0 -62 62 -62q58 0 94 29l49 -115
q-53 -53 -176 -53q-86 0 -135.5 44t-49.5 120q0 99 84 205l50 61h-3l-8 178q-46 -91 -142 -147t-210 -56zM487 127q162 0 247 82t85 221v94l-332 -65q-107 -21 -151.5 -62t-44.5 -110q0 -76 51.5 -118t144.5 -42z" />
    <glyph glyph-name="aring.ss01" 
d="M621 1180q-80 0 -134.5 54.5t-54.5 133.5t54.5 133.5t134.5 54.5q79 0 133.5 -54t54.5 -134t-54.5 -134t-133.5 -54zM621 1282q37 0 61.5 24.5t24.5 61.5t-24.5 61.5t-61.5 24.5t-61.5 -24.5t-24.5 -61.5t24.5 -61.5t61.5 -24.5zM471 -25q-155 0 -257.5 82t-102.5 213
q0 137 82 215t262 113l364 74q0 137 -61.5 205.5t-179.5 68.5q-214 0 -265 -194l-182 14q31 157 148.5 250.5t298.5 93.5q195 0 304 -117.5t109 -324.5v-668h-160l-8 178q-46 -91 -142 -147t-210 -56zM487 127q162 0 247 82t85 221v94l-332 -65q-107 -21 -151.5 -62
t-44.5 -110q0 -76 51.5 -118t144.5 -42z" />
    <glyph glyph-name="atilde.ss01" 
d="M743 1249q-68 0 -143 62q-39 32 -58 42.5t-48 10.5q-86 0 -91 -129h-106q3 115 57 177.5t140 62.5q46 0 80.5 -16.5t74.5 -49.5q60 -49 103 -49q39 0 59.5 30.5t26.5 104.5h106q-6 -116 -59.5 -181t-141.5 -65zM471 -25q-155 0 -257.5 82t-102.5 213q0 137 82 215
t262 113l364 74q0 137 -61.5 205.5t-179.5 68.5q-214 0 -265 -194l-182 14q31 157 148.5 250.5t298.5 93.5q195 0 304 -117.5t109 -324.5v-668h-160l-8 178q-46 -91 -142 -147t-210 -56zM487 127q162 0 247 82t85 221v94l-332 -65q-107 -21 -151.5 -62t-44.5 -110
q0 -76 51.5 -118t144.5 -42z" />
    <glyph glyph-name="a.ss02" 
d="M569 -25q-114 0 -203.5 46.5t-144 126t-82.5 180t-28 215.5t28 215.5t82.5 180t144 125.5t203.5 46q238 0 332 -168v143h172v-1085h-155l-7 156q-45 -86 -132.5 -133.5t-209.5 -47.5zM604 139q65 0 118 22.5t89 61t60.5 90.5t35.5 109.5t11 120.5q0 65 -11 124t-35.5 112
t-60.5 91.5t-89 61t-118 22.5q-81 0 -143 -33.5t-98 -92t-54 -130t-18 -155.5q0 -81 18 -151t54 -128t98 -91.5t143 -33.5z" />
    <glyph glyph-name="aacute.ss02" 
d="M512 1229l135 262h193l-185 -262h-143zM569 -25q-114 0 -203.5 46.5t-144 126t-82.5 180t-28 215.5t28 215.5t82.5 180t144 125.5t203.5 46q238 0 332 -168v143h172v-1085h-155l-7 156q-45 -86 -132.5 -133.5t-209.5 -47.5zM604 139q65 0 118 22.5t89 61t60.5 90.5
t35.5 109.5t11 120.5q0 65 -11 124t-35.5 112t-60.5 91.5t-89 61t-118 22.5q-81 0 -143 -33.5t-98 -92t-54 -130t-18 -155.5q0 -81 18 -151t54 -128t98 -91.5t143 -33.5z" />
    <glyph glyph-name="abreve.ss02" 
d="M590 1235q-126 0 -203.5 71t-83.5 191h119q17 -135 168 -135t168 135h119q-6 -120 -83.5 -191t-203.5 -71zM569 -25q-114 0 -203.5 46.5t-144 126t-82.5 180t-28 215.5t28 215.5t82.5 180t144 125.5t203.5 46q238 0 332 -168v143h172v-1085h-155l-7 156
q-45 -86 -132.5 -133.5t-209.5 -47.5zM604 139q65 0 118 22.5t89 61t60.5 90.5t35.5 109.5t11 120.5q0 65 -11 124t-35.5 112t-60.5 91.5t-89 61t-118 22.5q-81 0 -143 -33.5t-98 -92t-54 -130t-18 -155.5q0 -81 18 -151t54 -128t98 -91.5t143 -33.5z" />
    <glyph glyph-name="uni01CE.ss02" 
d="M303 1497h143l144 -184l143 184h144l-191 -272h-192zM569 -25q-114 0 -203.5 46.5t-144 126t-82.5 180t-28 215.5t28 215.5t82.5 180t144 125.5t203.5 46q238 0 332 -168v143h172v-1085h-155l-7 156q-45 -86 -132.5 -133.5t-209.5 -47.5zM604 139q65 0 118 22.5t89 61
t60.5 90.5t35.5 109.5t11 120.5q0 65 -11 124t-35.5 112t-60.5 91.5t-89 61t-118 22.5q-81 0 -143 -33.5t-98 -92t-54 -130t-18 -155.5q0 -81 18 -151t54 -128t98 -91.5t143 -33.5z" />
    <glyph glyph-name="acircumflex.ss02" 
d="M301 1225l191 272h192l190 -272h-143l-143 184l-144 -184h-143zM569 -25q-114 0 -203.5 46.5t-144 126t-82.5 180t-28 215.5t28 215.5t82.5 180t144 125.5t203.5 46q238 0 332 -168v143h172v-1085h-155l-7 156q-45 -86 -132.5 -133.5t-209.5 -47.5zM604 139
q65 0 118 22.5t89 61t60.5 90.5t35.5 109.5t11 120.5q0 65 -11 124t-35.5 112t-60.5 91.5t-89 61t-118 22.5q-81 0 -143 -33.5t-98 -92t-54 -130t-18 -155.5q0 -81 18 -151t54 -128t98 -91.5t143 -33.5z" />
    <glyph glyph-name="adieresis.ss02" 
d="M303 1255v201h180v-201h-180zM696 1255v201h181v-201h-181zM569 -25q-114 0 -203.5 46.5t-144 126t-82.5 180t-28 215.5t28 215.5t82.5 180t144 125.5t203.5 46q238 0 332 -168v143h172v-1085h-155l-7 156q-45 -86 -132.5 -133.5t-209.5 -47.5zM604 139q65 0 118 22.5
t89 61t60.5 90.5t35.5 109.5t11 120.5q0 65 -11 124t-35.5 112t-60.5 91.5t-89 61t-118 22.5q-81 0 -143 -33.5t-98 -92t-54 -130t-18 -155.5q0 -81 18 -151t54 -128t98 -91.5t143 -33.5z" />
    <glyph glyph-name="agrave.ss02" 
d="M528 1229l-184 262h193l135 -262h-144zM569 -25q-114 0 -203.5 46.5t-144 126t-82.5 180t-28 215.5t28 215.5t82.5 180t144 125.5t203.5 46q238 0 332 -168v143h172v-1085h-155l-7 156q-45 -86 -132.5 -133.5t-209.5 -47.5zM604 139q65 0 118 22.5t89 61t60.5 90.5
t35.5 109.5t11 120.5q0 65 -11 124t-35.5 112t-60.5 91.5t-89 61t-118 22.5q-81 0 -143 -33.5t-98 -92t-54 -130t-18 -155.5q0 -81 18 -151t54 -128t98 -91.5t143 -33.5z" />
    <glyph glyph-name="amacron.ss02" 
d="M313 1280v147h549v-147h-549zM569 -25q-114 0 -203.5 46.5t-144 126t-82.5 180t-28 215.5t28 215.5t82.5 180t144 125.5t203.5 46q238 0 332 -168v143h172v-1085h-155l-7 156q-45 -86 -132.5 -133.5t-209.5 -47.5zM604 139q65 0 118 22.5t89 61t60.5 90.5t35.5 109.5
t11 120.5q0 65 -11 124t-35.5 112t-60.5 91.5t-89 61t-118 22.5q-81 0 -143 -33.5t-98 -92t-54 -130t-18 -155.5q0 -81 18 -151t54 -128t98 -91.5t143 -33.5z" />
    <glyph glyph-name="aogonek.ss02" 
d="M569 -25q-114 0 -203.5 46.5t-144 126t-82.5 180t-28 215.5t28 215.5t82.5 180t144 125.5t203.5 46q238 0 332 -168v143h172v-1085l-72 -92q-63 -83 -63 -137q0 -62 61 -62q59 0 95 29l49 -115q-53 -53 -176 -53q-86 0 -135.5 44t-49.5 120q0 99 84 205l52 63l-7 154
q-45 -86 -132.5 -133.5t-209.5 -47.5zM604 139q65 0 118 22.5t89 61t60.5 90.5t35.5 109.5t11 120.5q0 65 -11 124t-35.5 112t-60.5 91.5t-89 61t-118 22.5q-81 0 -143 -33.5t-98 -92t-54 -130t-18 -155.5q0 -81 18 -151t54 -128t98 -91.5t143 -33.5z" />
    <glyph glyph-name="aring.ss02" 
d="M590 1180q-80 0 -134.5 54.5t-54.5 133.5t54.5 133.5t134.5 54.5t134 -54t54 -134t-54 -134t-134 -54zM590 1282q37 0 61.5 24.5t24.5 61.5t-24.5 61.5t-61.5 24.5t-61.5 -24.5t-24.5 -61.5t24.5 -61.5t61.5 -24.5zM569 -25q-114 0 -203.5 46.5t-144 126t-82.5 180
t-28 215.5t28 215.5t82.5 180t144 125.5t203.5 46q238 0 332 -168v143h172v-1085h-155l-7 156q-45 -86 -132.5 -133.5t-209.5 -47.5zM604 139q65 0 118 22.5t89 61t60.5 90.5t35.5 109.5t11 120.5q0 65 -11 124t-35.5 112t-60.5 91.5t-89 61t-118 22.5q-81 0 -143 -33.5
t-98 -92t-54 -130t-18 -155.5q0 -81 18 -151t54 -128t98 -91.5t143 -33.5z" />
    <glyph glyph-name="atilde.ss02" 
d="M713 1249q-69 0 -144 62q-39 32 -58 42.5t-48 10.5q-85 0 -90 -129h-107q3 115 57 177.5t140 62.5q46 0 80.5 -16.5t74.5 -49.5q60 -49 103 -49q39 0 59.5 30.5t26.5 104.5h106q-6 -117 -59 -181.5t-141 -64.5zM569 -25q-114 0 -203.5 46.5t-144 126t-82.5 180t-28 215.5
t28 215.5t82.5 180t144 125.5t203.5 46q238 0 332 -168v143h172v-1085h-155l-7 156q-45 -86 -132.5 -133.5t-209.5 -47.5zM604 139q65 0 118 22.5t89 61t60.5 90.5t35.5 109.5t11 120.5q0 65 -11 124t-35.5 112t-60.5 91.5t-89 61t-118 22.5q-81 0 -143 -33.5t-98 -92
t-54 -130t-18 -155.5q0 -81 18 -151t54 -128t98 -91.5t143 -33.5z" />
    <glyph glyph-name="l.ss03" 
d="M821 0q-141 0 -217 72.5t-76 206.5v1024h-364v151h536v-1175q0 -66 29 -96.5t92 -30.5h326v-152h-326z" />
    <glyph glyph-name="lacute.ss03" 
d="M537 1597l135 263h192l-184 -263h-143zM821 0q-141 0 -217 72.5t-76 206.5v1024h-364v151h536v-1175q0 -66 29 -96.5t92 -30.5h326v-152h-326z" />
    <glyph glyph-name="lcaron.ss03" 
d="M821 0q-141 0 -217 72.5t-76 206.5v1024h-364v151h536v-1175q0 -66 29 -96.5t92 -30.5h326v-152h-326zM881 934l61 520h172l-110 -520h-123z" />
    <glyph glyph-name="uni013C.ss03" 
d="M821 0q-141 0 -217 72.5t-76 206.5v1024h-364v151h536v-1175q0 -66 29 -96.5t92 -30.5h326v-152h-326zM471 -492l111 197h-70v184h205v-176l-131 -205h-115z" />
    <glyph glyph-name="lslash.ss03" 
d="M416 623l-66 137l176 82v461h-364v151h536v-534l115 53l66 -137l-181 -82v-475q0 -66 29 -96.5t92 -30.5h326v-152h-326q-141 0 -217 72.5t-76 206.5v395z" />
    <glyph glyph-name="adieresis.ss08" 
d="M416 1249q-43 0 -71 28t-28 75q0 44 28 73t71 29t70.5 -29t27.5 -73q0 -47 -27.5 -75t-70.5 -28zM743 1249q-43 0 -70.5 28t-27.5 75q0 44 27.5 73t70.5 29t71 -29t28 -73q0 -47 -28 -75t-71 -28zM471 -25q-155 0 -257.5 82t-102.5 213q0 137 82 215t262 113l364 74
q0 137 -61.5 205.5t-179.5 68.5q-214 0 -265 -194l-182 14q31 157 148.5 250.5t298.5 93.5q195 0 304 -117.5t109 -324.5v-451q0 -36 15.5 -50.5t50.5 -14.5h69v-152q-32 -4 -90 -4q-90 0 -142 38t-69 120q-45 -80 -141.5 -129.5t-212.5 -49.5zM487 127q162 0 247 82t85 221
v94l-332 -65q-107 -21 -151.5 -62t-44.5 -110q0 -76 51.5 -118t144.5 -42z" />
    <glyph glyph-name="cdotaccent.ss08" 
d="M641 1249q-43 0 -70.5 28t-27.5 75q0 44 27.5 73t70.5 29t70.5 -29t27.5 -73q0 -47 -27.5 -75t-70.5 -28zM643 -25q-227 0 -363.5 155t-136.5 413t136.5 412.5t363.5 154.5q182 0 301.5 -98t153.5 -279l-180 -12q-25 107 -97.5 166t-177.5 59q-150 0 -234.5 -107
t-84.5 -296t84.5 -296.5t234.5 -107.5q107 0 183 63t100 183l180 -12q-34 -183 -158 -290.5t-305 -107.5z" />
    <glyph glyph-name="edieresis.ss08" 
d="M461 1245q-43 0 -71 28t-28 75q0 44 28 73t71 29t70.5 -29t27.5 -73q0 -47 -27.5 -75t-70.5 -28zM788 1245q-43 0 -70.5 28t-27.5 75q0 44 27.5 73t70.5 29t71 -29t28 -73q0 -47 -28 -75t-71 -28zM633 -25q-229 0 -363.5 154.5t-134.5 413.5q0 258 133 412.5t357 154.5
q217 0 349 -150.5t132 -418.5v-52h-791q9 -172 92 -261t226 -89q103 0 172 48.5t98 134.5l184 -15q-44 -150 -165 -241t-289 -91zM315 641h603q-12 152 -90 228.5t-203 76.5q-127 0 -207.5 -78t-102.5 -227z" />
    <glyph glyph-name="edotaccent.ss08" 
d="M627 1245q-43 0 -71 28t-28 75q0 44 28 73t71 29t70.5 -29t27.5 -73q0 -47 -27.5 -75t-70.5 -28zM633 -25q-229 0 -363.5 154.5t-134.5 413.5q0 258 133 412.5t357 154.5q217 0 349 -150.5t132 -418.5v-52h-791q9 -172 92 -261t226 -89q103 0 172 48.5t98 134.5l184 -15
q-44 -150 -165 -241t-289 -91zM315 641h603q-12 152 -90 228.5t-203 76.5q-127 0 -207.5 -78t-102.5 -227z" />
    <glyph glyph-name="gdotaccent.ss08" 
d="M610 1249q-43 0 -70.5 28t-27.5 75q0 44 27.5 73t70.5 29t71 -29t28 -73q0 -47 -28 -75t-71 -28zM608 -332q-174 0 -297 86.5t-157 229.5l180 12q26 -81 90 -122.5t184 -41.5q149 0 227 59.5t78 178.5v176q-40 -86 -125.5 -137.5t-191.5 -51.5q-207 0 -340 148t-133 379
q0 232 130.5 379t334.5 147q115 0 206 -53.5t128 -143.5v172h163v-1011q0 -191 -126.5 -298.5t-350.5 -107.5zM604 221q140 0 224 98t85 265q3 166 -82 264t-227 98t-221.5 -97t-79.5 -265q0 -167 81 -265t220 -98z" />
    <glyph glyph-name="i.ss08" 
d="M676 1249q-43 0 -70.5 28t-27.5 75q0 44 27.5 73t70.5 29t70.5 -29t27.5 -73q0 -47 -27.5 -75t-70.5 -28zM164 0v152h436v782h-416v151h588v-933h375v-152h-983z" />
    <glyph glyph-name="idieresis.ss08" 
d="M510 1249q-43 0 -70.5 28t-27.5 75q0 44 27.5 73t70.5 29t70.5 -29t27.5 -73q0 -47 -27.5 -75t-70.5 -28zM838 1249q-43 0 -71 28t-28 75q0 44 28 73t71 29t70.5 -29t27.5 -73q0 -47 -27.5 -75t-70.5 -28zM164 0v152h436v782h-416v151h588v-933h375v-152h-983z" />
    <glyph glyph-name="i.loclTRK.ss08" 
d="M676 1249q-43 0 -70.5 28t-27.5 75q0 44 27.5 73t70.5 29t70.5 -29t27.5 -73q0 -47 -27.5 -75t-70.5 -28zM164 0v152h436v782h-416v151h588v-933h375v-152h-983z" />
    <glyph glyph-name="iogonek.ss08" 
d="M676 1249q-43 0 -70.5 28t-27.5 75q0 44 27.5 73t70.5 29t70.5 -29t27.5 -73q0 -47 -27.5 -75t-70.5 -28zM164 0v152h436v782h-416v151h588v-933h375v-152l-72 -92q-63 -83 -63 -137q0 -62 61 -62q58 0 94 29l50 -115q-53 -53 -177 -53q-86 0 -135 43.5t-49 120.5
q0 99 84 205l49 61h-825z" />
    <glyph glyph-name="j.ss08" 
d="M811 1249q-43 0 -70.5 28t-27.5 75q0 44 27.5 73t70.5 29t70.5 -29t27.5 -73q0 -47 -27.5 -75t-70.5 -28zM225 -307v151h344q83 0 121.5 36.5t38.5 131.5v922h-483v151h655v-1085q0 -152 -75.5 -229.5t-235.5 -77.5h-365z" />
    <glyph glyph-name="odieresis.ss08" 
d="M449 1249q-43 0 -71 28t-28 75q0 44 28 73t71 29t70.5 -29t27.5 -73q0 -47 -27.5 -75t-70.5 -28zM776 1249q-43 0 -70.5 28t-27.5 75q0 44 27.5 73t70.5 29t70.5 -29t27.5 -73q0 -47 -27.5 -75t-70.5 -28zM614 -25q-226 0 -360.5 154.5t-134.5 413.5t134.5 413t360.5 154
q225 0 360.5 -154t135.5 -413t-135.5 -413.5t-360.5 -154.5zM614 139q149 0 232.5 107.5t83.5 296.5t-83.5 296t-232.5 107q-150 0 -232.5 -106.5t-82.5 -296.5t82.5 -297t232.5 -107z" />
    <glyph glyph-name="udieresis.ss08" 
d="M434 1249q-43 0 -70.5 28t-27.5 75q0 44 27.5 73t70.5 29t70.5 -29t27.5 -73q0 -47 -27.5 -75t-70.5 -28zM762 1249q-43 0 -70.5 28t-27.5 75q0 44 27.5 73t70.5 29t70.5 -29t27.5 -73q0 -47 -27.5 -75t-70.5 -28zM539 -25q-163 0 -259 110t-96 302v698h172v-651
q0 -158 56.5 -232.5t173.5 -74.5q128 0 201 82.5t73 228.5v647h172v-1085h-164v176q-45 -97 -129 -149t-200 -52z" />
    <glyph glyph-name="wdieresis.ss08" 
d="M449 1249q-43 0 -71 28t-28 75q0 44 28 73t71 29t70.5 -29t27.5 -73q0 -47 -27.5 -75t-70.5 -28zM776 1249q-43 0 -70.5 28t-27.5 75q0 44 27.5 73t70.5 29t70.5 -29t27.5 -73q0 -47 -27.5 -75t-70.5 -28zM256 0l-215 1085h188l142 -905l159 754h168l160 -754l141 905
h189l-213 -1085h-217l-144 684l-143 -684h-215z" />
    <glyph glyph-name="ydieresis.ss08" 
d="M455 1249q-43 0 -71 28t-28 75q0 44 28 73t71 29t70.5 -29t27.5 -73q0 -47 -27.5 -75t-70.5 -28zM782 1249q-43 0 -70.5 28t-27.5 75q0 44 27.5 73t70.5 29t71 -29t28 -73q0 -47 -28 -75t-71 -28zM283 -307v151h125q55 0 83 17t44 57l38 102h-59l-403 1065h188l330 -905
l309 905h188l-440 -1222q-31 -89 -92.5 -129.5t-169.5 -40.5h-141z" />
    <glyph glyph-name="zdotaccent.ss08" 
d="M616 1249q-43 0 -70.5 28t-27.5 75q0 44 27.5 73t70.5 29t71 -29t28 -73q0 -47 -28 -75t-71 -28zM168 0v172l688 762h-668v151h856v-172l-688 -761h705v-152h-893z" />
    <glyph glyph-name="adieresis.ss01.ss08" 
d="M455 1249q-43 0 -71 28t-28 75q0 44 28 73t71 29t70.5 -29t27.5 -73q0 -47 -27.5 -75t-70.5 -28zM782 1249q-43 0 -70.5 28t-27.5 75q0 44 27.5 73t70.5 29t71 -29t28 -73q0 -47 -28 -75t-71 -28zM471 -25q-155 0 -257.5 82t-102.5 213q0 137 82 215t262 113l364 74
q0 137 -61.5 205.5t-179.5 68.5q-214 0 -265 -194l-182 14q31 157 148.5 250.5t298.5 93.5q195 0 304 -117.5t109 -324.5v-668h-160l-8 178q-46 -91 -142 -147t-210 -56zM487 127q162 0 247 82t85 221v94l-332 -65q-107 -21 -151.5 -62t-44.5 -110q0 -76 51.5 -118
t144.5 -42z" />
    <glyph glyph-name="adieresis.ss02.ss08" 
d="M424 1249q-43 0 -70.5 28t-27.5 75q0 44 27.5 73t70.5 29t70.5 -29t27.5 -73q0 -47 -27.5 -75t-70.5 -28zM752 1249q-43 0 -71 28t-28 75q0 44 28 73t71 29t70.5 -29t27.5 -73q0 -47 -27.5 -75t-70.5 -28zM569 -25q-114 0 -203.5 46.5t-144 126t-82.5 180t-28 215.5
t28 215.5t82.5 180t144 125.5t203.5 46q238 0 332 -168v143h172v-1085h-155l-7 156q-45 -86 -132.5 -133.5t-209.5 -47.5zM604 139q65 0 118 22.5t89 61t60.5 90.5t35.5 109.5t11 120.5q0 65 -11 124t-35.5 112t-60.5 91.5t-89 61t-118 22.5q-81 0 -143 -33.5t-98 -92
t-54 -130t-18 -155.5q0 -81 18 -151t54 -128t98 -91.5t143 -33.5z" />
    <glyph glyph-name="zero.ss09" 
d="M614 -33q-237 0 -374.5 204t-137.5 554q0 352 137.5 557t374.5 205t374.5 -205t137.5 -557q0 -350 -137.5 -554t-374.5 -204zM614 139q152 0 240 158.5t88 427.5q0 272 -88 431t-240 159t-239.5 -159t-87.5 -431q0 -270 87.5 -428t239.5 -158z" />
    <glyph glyph-name="zero.dnom" 
d="M614 -16q-146 0 -232.5 111t-86.5 302t86 301.5t233 110.5t233.5 -110.5t86.5 -301.5t-87 -302t-233 -111zM430 397q0 -88 25 -155l254 415q-44 29 -95 29q-184 0 -184 -289zM614 106q90 0 137.5 74.5t47.5 216.5q0 95 -25 162l-254 -418q41 -35 94 -35z" />
    <glyph glyph-name="one.dnom" 
d="M645 0v520l-196 -2v103h49q88 0 135 45.5t47 128.5h100v-795h-135z" />
    <glyph glyph-name="two.dnom" 
d="M340 0q0 71 6.5 117t27 92.5t62 84.5t107.5 75l106 59q60 33 82.5 64t22.5 88q0 51 -35.5 80.5t-87.5 29.5q-73 0 -111 -35.5t-47 -109.5l-131 6q12 120 86 189t203 69q117 0 187.5 -63.5t70.5 -165.5q0 -91 -48.5 -148t-148.5 -110l-84 -46q-116 -64 -116 -157h389v-119
h-541z" />
    <glyph glyph-name="three.dnom" 
d="M614 -16q-150 0 -215.5 58.5t-72.5 164.5l131 6q10 -111 157 -111q74 0 115 33.5t41 91.5q0 61 -40.5 96t-125.5 35h-51v117h51q59 0 93 27t34 78q0 49 -32.5 78.5t-94.5 29.5q-60 0 -95 -28t-40 -72l-131 8q13 94 82 153.5t184 59.5q126 0 193 -59t67 -158
q0 -68 -34 -107.5t-103 -60.5q176 -43 176 -199q0 -111 -81.5 -176t-207.5 -65z" />
    <glyph glyph-name="four.dnom" 
d="M676 0v184h-369v105l377 504h127v-490h111v-119h-111v-184h-135zM451 303h225v293z" />
    <glyph glyph-name="five.dnom" 
d="M606 -16q-118 0 -190.5 55t-81.5 154l131 6q24 -97 145 -97q72 0 114 40t42 114q0 69 -35.5 112.5t-103.5 43.5q-100 0 -154 -80h-125l49 461h447v-119h-328l-27 -205q51 57 158 57q122 0 186 -74.5t64 -195.5q0 -128 -79 -200t-212 -72z" />
    <glyph glyph-name="six.dnom" 
d="M612 -16q-135 0 -215 96t-80 272q0 97 18 177.5t55.5 144t100.5 99.5t146 36q119 0 179.5 -47.5t84.5 -149.5l-127 -12q-12 47 -44 68.5t-93 21.5q-80 0 -129 -61.5t-55 -171.5q23 38 70.5 62t109.5 24q124 0 201 -71.5t77 -207.5q0 -131 -83.5 -205.5t-215.5 -74.5z
M614 102q78 0 122 45t44 121q0 75 -41.5 115.5t-122.5 40.5q-73 0 -117.5 -41.5t-45.5 -114.5q-2 -76 41.5 -121t119.5 -45z" />
    <glyph glyph-name="seven.dnom" 
d="M492 0q0 371 235 676h-379v119h533v-90q-127 -163 -192.5 -332.5t-65.5 -372.5h-131z" />
    <glyph glyph-name="eight.dnom" 
d="M614 -16q-144 0 -220.5 60t-76.5 169q0 71 43 128t117 87q-121 44 -121 174q0 98 66.5 152.5t191.5 54.5q126 0 192 -54.5t66 -152.5q0 -130 -120 -174q73 -31 116 -87.5t43 -127.5q0 -109 -76.5 -169t-220.5 -60zM614 483q123 0 123 111q0 45 -32 70.5t-91 25.5
t-90.5 -25.5t-31.5 -70.5q0 -111 122 -111zM614 102q78 0 120 30t42 89q0 60 -43.5 99.5t-118.5 39.5q-74 0 -117.5 -39.5t-43.5 -99.5q0 -119 161 -119z" />
    <glyph glyph-name="nine.dnom" 
d="M616 809q135 0 215 -96.5t80 -272.5q0 -77 -11 -143.5t-35.5 -124.5t-61 -99.5t-90.5 -65t-121 -23.5q-120 0 -180 47t-84 149l127 13q12 -47 44.5 -69t92.5 -22q80 0 129 62t55 172q-23 -38 -70.5 -62t-109.5 -24q-124 0 -201.5 71t-77.5 207q0 131 83.5 206t215.5 75z
M614 690q-78 0 -121.5 -45t-43.5 -121q0 -75 41 -115t122 -40q73 0 118 41t46 114q2 75 -42 120.5t-120 45.5z" />
    <glyph glyph-name="zero.numr" 
d="M614 645q-146 0 -232.5 111.5t-86.5 302.5t86 301t233 110t233.5 -110t86.5 -301t-87 -302.5t-233 -111.5zM430 1059q0 -89 25 -156l254 416q-44 29 -95 29q-184 0 -184 -289zM614 768q90 0 137.5 74.5t47.5 216.5q0 95 -25 162l-254 -418q41 -35 94 -35z" />
    <glyph glyph-name="one.numr" 
d="M645 662v520l-196 -2v102h49q88 0 135 45.5t47 128.5h100v-794h-135z" />
    <glyph glyph-name="two.numr" 
d="M340 662q0 56 4 94.5t16 79t34 71.5t59 62t90 61l106 60q61 33 83 63.5t22 87.5q0 51 -35.5 81t-87.5 30q-73 0 -111 -36t-47 -110l-131 6q12 120 86 189t203 69q117 0 187.5 -63.5t70.5 -165.5q0 -91 -48.5 -148t-148.5 -110l-84 -45q-116 -64 -116 -158h389v-118h-541z
" />
    <glyph glyph-name="three.numr" 
d="M614 645q-150 0 -215.5 58.5t-72.5 164.5l131 6q10 -110 157 -110q74 0 115 33.5t41 91.5q0 61 -40.5 96t-125.5 35h-51v117h51q59 0 93 26.5t34 77.5q0 49 -32.5 79t-94.5 30q-60 0 -95 -28.5t-40 -72.5l-131 8q13 94 82 153.5t184 59.5q126 0 193 -59t67 -158
q0 -68 -34 -107.5t-103 -60.5q176 -43 176 -198q0 -111 -81.5 -176.5t-207.5 -65.5z" />
    <glyph glyph-name="four.numr" 
d="M676 662v184h-369v104l377 504h127v-489h111v-119h-111v-184h-135zM451 965h225v292z" />
    <glyph glyph-name="five.numr" 
d="M606 645q-118 0 -190.5 55t-81.5 154l131 6q23 -96 145 -96q72 0 114 40t42 114q0 69 -35.5 112t-103.5 43q-100 0 -154 -80h-125l49 461h447v-119h-328l-27 -205q52 58 158 58q122 0 186 -74.5t64 -195.5q0 -128 -79 -200.5t-212 -72.5z" />
    <glyph glyph-name="six.numr" 
d="M612 645q-135 0 -215 96.5t-80 272.5q0 97 18 177.5t55.5 144t100.5 99t146 35.5q120 0 180 -47t84 -149l-127 -12q-12 47 -44 68.5t-93 21.5q-80 0 -129 -62t-55 -172q23 38 70.5 62t109.5 24q124 0 201 -71t77 -207q0 -131 -83.5 -206t-215.5 -75zM614 764q78 0 122 45
t44 121q0 74 -41.5 114.5t-122.5 40.5q-73 0 -117.5 -41t-45.5 -114q-2 -76 41.5 -121t119.5 -45z" />
    <glyph glyph-name="seven.numr" 
d="M492 659q0 371 235 676h-379v119h533v-90q-127 -163 -192.5 -332.5t-65.5 -372.5h-131z" />
    <glyph glyph-name="eight.numr" 
d="M614 645q-144 0 -220.5 60t-76.5 169q0 72 43 129.5t117 86.5q-121 44 -121 174q0 98 66.5 152t191.5 54q126 0 192 -54t66 -152q0 -130 -120 -174q73 -31 116 -88t43 -128q0 -109 -76.5 -169t-220.5 -60zM614 1145q123 0 123 110q0 45 -32 71t-91 26t-90.5 -26
t-31.5 -71q0 -110 122 -110zM614 764q78 0 120 30t42 89q0 60 -43.5 99.5t-118.5 39.5q-74 0 -117.5 -39.5t-43.5 -99.5q0 -119 161 -119z" />
    <glyph glyph-name="nine.numr" 
d="M616 1470q135 0 215 -96t80 -272q0 -77 -11 -144t-35.5 -125t-61 -99.5t-90.5 -65t-121 -23.5q-119 0 -179.5 47.5t-84.5 149.5l127 12q12 -47 44 -68.5t93 -21.5q80 0 129 61.5t55 171.5q-23 -38 -70.5 -62t-109.5 -24q-124 0 -201.5 71.5t-77.5 207.5q0 131 83.5 205.5
t215.5 74.5zM614 1352q-78 0 -121.5 -45t-43.5 -121q0 -75 41 -115.5t122 -40.5q73 0 118 41.5t46 114.5q2 75 -42 120.5t-120 45.5z" />
    <glyph glyph-name="hyphen_hyphen.liga" 
d="M86 565v160h889v-160h-889zM-975 565v160h887v-160h-887z" />
    <glyph glyph-name="hyphen_hyphen_hyphen.liga" 
d="M23 565v160h929v-160h-929zM-2181 565v160h928v-160h-928zM-1079 565v160h927v-160h-927z" />
    <glyph glyph-name="hyphen_hyphen_hyphen_greater.liga" 
d="M350 111l453 454h-4362v160h4366l-455 455h217l533 -535l-533 -532z" />
    <glyph glyph-name="hyphen_hyphen_greater.liga" 
d="M350 111l453 454h-3134v160h3138l-455 455h217l533 -535l-533 -532z" />
    <glyph glyph-name="hyphen_greater.liga" 
d="M350 111l453 454h-1905v160h1909l-455 455h217l533 -535l-533 -532z" />
    <glyph glyph-name="hyphen_greater_greater.liga" 
d="M350 111l535 534l-533 535h217l533 -535l-533 -532zM-98 111l454 454h-2687v160h2691l-456 455h217l532 -535l-532 -532z" />
    <glyph glyph-name="hyphen_less.liga" 
d="M883 113l-453 452h-1532v160h1532l453 455h217l-533 -533l535 -534h-219z" />
    <glyph glyph-name="hyphen_less_less.liga" 
d="M883 113l-533 532l533 535h217l-533 -533l535 -534h-219zM438 113l-454 452h-2315v160h2315l454 455h215l-532 -533l534 -534h-217z" />
    <glyph glyph-name="hyphen_asciitilde.liga" 
d="M-809 483v160h678q28 0 50.5 17.5t36.5 44t35 57.5t44 57.5t64.5 44t95.5 17.5q59 0 102.5 -24.5t68 -59.5t45.5 -70t48 -59.5t61 -24.5q54 0 84.5 64.5t30.5 173.5h170q0 -53 -8 -105t-29 -106t-52 -94.5t-81.5 -66.5t-114.5 -26q-54 0 -95.5 17.5t-64.5 44t-43.5 57.5
t-35 57.5t-36.5 44t-50 17.5q-34 0 -61 -24.5t-48 -59.5t-46 -70t-68.5 -59.5t-102.5 -24.5h-678z" />
    <glyph glyph-name="braceleft_bar.liga" 
d="M-260 -184q-163 0 -265 98.5t-102 253.5v166q0 149 -75 215t-240 63v170q164 -3 239.5 63.5t75.5 215.5v164q0 155 102 253.5t265 98.5h446v-160h-379q-149 0 -210.5 -42t-61.5 -146v-182q0 -136 -69.5 -230.5t-180.5 -116.5v-2q113 -22 181.5 -116.5t68.5 -233.5v-184
q0 -103 62 -146.5t210 -42.5h379v-159h-446zM463 -186v1761h164v-1761h-164z" />
    <glyph glyph-name="period_period_period.liga" 
d="M-1653 0v250h254v-250h-254zM-741 0v250h254v-250h-254zM168 0v250h254v-250h-254z" />
    <glyph glyph-name="period_period_equal.liga" 
d="M-252 745v160h901v-160h-901zM-1935 422v326h331v-326h-331zM-1114 422v326h332v-326h-332zM-252 322v159h901v-159h-901z" />
    <glyph glyph-name="period_equal.liga" 
d="M-41 745v160h901v-160h-901zM-903 422v326h332v-326h-332zM-41 322v159h901v-159h-901z" />
    <glyph glyph-name="colon_equal.liga" 
d="M-793 885v250h254v-250h-254zM-147 745v160h901v-160h-901zM-147 322v159h901v-159h-901zM-793 94v250h254v-250h-254z" />
    <glyph glyph-name="exclam_question.liga" 
d="M375 412q0 146 45.5 233t152.5 154q119 73 155 125t36 145q0 108 -71 177t-193 69q-295 0 -326 -303l-184 12q19 207 154.5 335t355.5 128q199 0 323.5 -117t124.5 -301q0 -124 -58.5 -205t-197.5 -172q-82 -53 -111.5 -112.5t-29.5 -167.5h-176zM-608 428
q-33 393 -33 555v471h176v-471q0 -186 -31 -555h-112zM336 0v250h254v-250h-254zM-680 0v250h254v-250h-254z" />
    <glyph glyph-name="exclam_equal.liga" 
d="M-317 0l98 281h-883v159h938l90 262h-1028v160h1084l92 264h170l-92 -264h950v-160h-1006l-92 -262h1098v-159h-1153l-99 -281h-167z" />
    </font>
</defs>
</svg>
