<?xml version="1.0" standalone="no"?>
<!DOCTYPE svg PUBLIC "-//W3C//DTD SVG 1.1//EN" "http://www.w3.org/Graphics/SVG/1.1/DTD/svg11.dtd" >
<svg xmlns="http://www.w3.org/2000/svg" xmlns:xlink="http://www.w3.org/1999/xlink" version="1.1">
<metadata>
Created by FontForge 20201107 at Mon Nov 11 05:27:01 2024
 By 
Copyright 2024 The Geist Project Authors (https://github.com/vercel/geist-font.git)
</metadata>
<defs>
<font id="GeistMono-Thin" horiz-adv-x="1228" >
  <font-face 
    font-family="Geist Mono Thin"
    font-weight="100"
    font-stretch="normal"
    units-per-em="2048"
    panose-1="0 0 0 0 0 0 0 0 0 0"
    ascent="1638"
    descent="-410"
    x-height="1085"
    cap-height="1454"
    bbox="-3559 -506 1339 2073"
    underline-thickness="102"
    underline-position="-255"
    unicode-range="U+0020-F8FF"
  />
<missing-glyph horiz-adv-x="1024" 
d="M102 -307v1945h820v-1945h-820zM205 -205h614v1741h-614v-1741z" />
    <glyph glyph-name=".notdef" horiz-adv-x="1024" 
d="M102 -307v1945h820v-1945h-820zM205 -205h614v1741h-614v-1741z" />
    <glyph glyph-name=".null" horiz-adv-x="0" 
 />
    <glyph glyph-name="nonmarkingreturn" horiz-adv-x="682" 
 />
    <glyph glyph-name="space" unicode=" " 
 />
    <glyph glyph-name="exclam" unicode="!" 
d="M592 420q-10 460 -10 522v512h65v-512q0 -62 -10 -522h-45zM532 0v164h164v-164h-164z" />
    <glyph glyph-name="quotedbl" unicode="&#x22;" 
d="M684 784l-4 670h82v-143l-21 -527h-57zM487 784l-20 529v141h82l-4 -670h-58z" />
    <glyph glyph-name="numbersign" unicode="#" 
d="M246 0l82 442h-226l17 62h221l82 440h-238l17 62h231l84 448h66l-84 -448h336l84 448h65l-84 -448h227l-16 -62h-221l-82 -440h237l-16 -62h-233l-82 -442h-66l82 442h-336l-82 -442h-65zM406 504h335l82 440h-336z" />
    <glyph glyph-name="dollar" unicode="$" 
d="M582 -186v155q-196 19 -329.5 156t-133.5 324l67 6q0 -158 112 -279t284 -141v667q-118 31 -192.5 60t-132 72.5t-82.5 103t-25 143.5q0 158 117 264.5t315 112.5v180h61v-182q100 -7 182.5 -48t135.5 -103t81.5 -137.5t28.5 -155.5l-70 -6q0 153 -95.5 261.5
t-262.5 123.5v-639q186 -51 287 -106.5t140.5 -124t39.5 -173.5q0 -113 -65.5 -201t-171.5 -134t-230 -46v-153h-61zM219 1077q0 -66 17 -111t62 -80.5t110 -61.5t174 -56v625q-166 -4 -264.5 -92t-98.5 -224zM1040 352q0 82 -33 137t-119 102t-245 93v-651q170 2 283.5 88
t113.5 231z" />
    <glyph glyph-name="percent" unicode="%" 
d="M295 815q-115 0 -184.5 88t-69.5 240t69.5 239.5t184.5 87.5t184.5 -87.5t69.5 -239.5t-69.5 -240t-184.5 -88zM121 0l926 1454h61l-926 -1454h-61zM295 872q91 0 141.5 69t50.5 202t-50.5 201.5t-141.5 68.5t-142 -68.5t-51 -201.5t51 -202t142 -69zM934 -16
q-115 0 -184.5 87.5t-69.5 239.5t69.5 240t184.5 88t184.5 -88t69.5 -240t-69.5 -239.5t-184.5 -87.5zM934 41q91 0 141.5 68.5t50.5 201.5t-50.5 202t-141.5 69t-142 -69t-51 -202t51 -201.5t142 -68.5z" />
    <glyph glyph-name="ampersand" unicode="&#x26;" 
d="M528 -33q-195 0 -312.5 100t-117.5 281q0 148 79.5 254.5t238.5 206.5q-113 149 -152 224t-39 163q0 133 80.5 212t214.5 79q133 0 215 -76.5t82 -214.5q0 -120 -71 -212.5t-240 -197.5l432 -540q80 113 98 258l70 -8q-12 -82 -47 -163t-82 -138l153 -195h-81l-113 143
q-162 -176 -408 -176zM471 836q161 107 219 179t58 177q0 106 -61 167.5t-167 61.5q-103 0 -164 -60.5t-61 -164.5q0 -76 37 -151.5t139 -208.5zM537 33q104 0 200.5 45t157.5 119l-442 561q-152 -97 -218.5 -194t-66.5 -216q0 -153 100.5 -234t268.5 -81z" />
    <glyph glyph-name="quotesingle" unicode="'" 
d="M586 784l-13 527v143h82v-143l-12 -527h-57z" />
    <glyph glyph-name="parenleft" unicode="(" 
d="M707 -225q-236 446 -236 880q0 438 236 881h51q-217 -445 -217 -881q0 -432 217 -880h-51z" />
    <glyph glyph-name="parenright" unicode=")" 
d="M522 -225h-51q217 448 217 880q0 436 -217 881h51q236 -443 236 -881q0 -434 -236 -880z" />
    <glyph glyph-name="asterisk" unicode="*" 
d="M457 815l-54 33l156 256h-293v61h293l-156 256l54 33l157 -270l158 270l53 -33l-155 -256h293v-61h-293l155 -256l-53 -33l-158 270z" />
    <glyph glyph-name="plus" unicode="+" 
d="M125 555v57h461v461h57v-461h461v-57h-461v-461h-57v461h-461z" />
    <glyph glyph-name="comma" unicode="," 
d="M545 -256l82 256h-95v164h164v-148l-100 -272h-51z" />
    <glyph glyph-name="hyphen" unicode="-" 
d="M307 545v61h615v-61h-615z" />
    <glyph glyph-name="period" unicode="." 
d="M532 0v164h164v-164h-164z" />
    <glyph glyph-name="slash" unicode="/" 
d="M279 -225l606 1753h65l-606 -1753h-65z" />
    <glyph glyph-name="zero" unicode="0" 
d="M614 -33q-144 0 -256.5 96.5t-173.5 269t-61 392.5q0 221 61 394.5t173.5 270.5t256.5 97t256.5 -97t174 -270.5t61.5 -394.5q0 -220 -61.5 -392.5t-174 -269t-256.5 -96.5zM193 725q0 -298 108 -485l592 1028q-112 153 -279 153q-188 0 -304.5 -193.5t-116.5 -502.5z
M614 33q124 0 220.5 88t149 245.5t52.5 358.5q0 302 -108 489l-592 -1028q112 -153 278 -153z" />
    <glyph glyph-name="one" unicode="1" 
d="M164 0v57h446v1098h-329v53h129q82 0 125 18.5t65.5 72t22.5 155.5h53v-1397h389v-57h-901z" />
    <glyph glyph-name="two" unicode="2" 
d="M123 0q0 202 121 355t395 290q105 53 171.5 94.5t117 91.5t72.5 106t22 128q0 156 -99.5 256t-277.5 100q-187 0 -302 -105t-146 -306l-70 6q28 220 165.5 345.5t352.5 125.5q205 0 326 -118t121 -300q0 -84 -25 -150.5t-79.5 -123.5t-128 -104.5t-183.5 -100.5
q-231 -113 -350.5 -248.5t-128.5 -280.5h909v-61h-983z" />
    <glyph glyph-name="three" unicode="3" 
d="M623 -33q-215 0 -350 106.5t-150 282.5l63 6q15 -150 132 -239.5t305 -89.5q182 0 297.5 101.5t115.5 273.5q0 154 -118.5 249t-307.5 95h-137v61h137q171 0 274 81.5t103 217.5q0 140 -98.5 224.5t-257.5 84.5q-151 0 -251.5 -73t-125.5 -199l-70 6q30 154 147.5 243
t299.5 89q188 0 307 -103t119 -272q0 -121 -73.5 -207t-205.5 -121q152 -42 240 -143.5t88 -241.5q0 -191 -137.5 -311.5t-345.5 -120.5z" />
    <glyph glyph-name="four" unicode="4" 
d="M877 0v358h-775v54l775 1042h65v-1034h184v-62h-184v-358h-65zM180 420h697v932z" />
    <glyph glyph-name="five" unicode="5" 
d="M625 -33q-202 0 -332.5 107.5t-149.5 279.5l66 6q22 -154 131.5 -240.5t284.5 -86.5q178 0 284.5 113.5t106.5 320.5q0 193 -102.5 312.5t-290.5 119.5q-121 0 -225.5 -62.5t-153.5 -166.5h-80l90 784h786v-61h-729l-73 -641q56 96 161 154.5t224 58.5q217 0 339.5 -139
t122.5 -359q0 -230 -128 -365t-332 -135z" />
    <glyph glyph-name="six" unicode="6" 
d="M629 -33q-106 0 -193 38t-153.5 114t-103 201t-36.5 290q0 184 31 340.5t92.5 277.5t161.5 190t229 69q153 0 254.5 -89.5t149.5 -244.5l-68 -8q-33 123 -118.5 199.5t-217.5 76.5q-186 0 -306.5 -184.5t-141.5 -544.5q53 127 165.5 201t254.5 74q213 0 334.5 -133.5
t121.5 -354.5q0 -231 -124 -371.5t-332 -140.5zM629 33q180 0 283.5 117.5t103.5 328.5q0 192 -102.5 308t-284.5 116q-169 0 -288.5 -113.5t-119.5 -293.5q0 -201 113 -332t295 -131z" />
    <glyph glyph-name="seven" unicode="7" 
d="M479 0q0 362 145.5 736t385.5 657h-867v61h942v-57q-240 -282 -388 -649.5t-148 -747.5h-70z" />
    <glyph glyph-name="eight" unicode="8" 
d="M614 -33q-218 0 -354.5 118t-136.5 310q0 147 89 252t241 144q-260 80 -260 317q0 170 114 274.5t307 104.5t307.5 -104.5t114.5 -274.5q0 -237 -258 -317q152 -40 240 -145t88 -251q0 -192 -137 -310t-355 -118zM614 819q155 0 254 76.5t99 216.5q0 141 -95 225t-258 84
t-257.5 -84t-94.5 -225q0 -140 98.5 -216.5t253.5 -76.5zM614 33q196 0 309 96.5t113 267.5q0 161 -114 261t-308 100t-307.5 -100t-113.5 -261q0 -171 112.5 -267.5t308.5 -96.5z" />
    <glyph glyph-name="nine" unicode="9" 
d="M600 1487q84 0 156.5 -23.5t133.5 -73.5t104 -124.5t67 -182t24 -239.5q0 -184 -31 -340.5t-92.5 -277.5t-161.5 -190t-229 -69q-153 0 -254 89t-149 245l68 8q33 -123 118 -199.5t217 -76.5q186 0 307 184.5t142 544.5q-53 -127 -165.5 -201t-254.5 -74
q-213 0 -335 133.5t-122 354.5q0 231 124.5 371.5t332.5 140.5zM600 1421q-180 0 -283.5 -117.5t-103.5 -328.5q0 -192 102.5 -308t284.5 -116q169 0 288.5 113.5t119.5 293.5q0 201 -113 332t-295 131z" />
    <glyph glyph-name="colon" unicode=":" 
d="M532 815v164h164v-164h-164zM532 0v164h164v-164h-164z" />
    <glyph glyph-name="semicolon" unicode=";" 
d="M532 815v164h164v-164h-164zM545 -256l82 256h-95v164h164v-148l-100 -272h-51z" />
    <glyph glyph-name="less" unicode="&#x3c;" 
d="M1069 113l-909 446v78l909 446v-69l-846 -416l846 -416v-69z" />
    <glyph glyph-name="equal" unicode="=" 
d="M184 772v62h860v-62h-860zM184 350v62h860v-62h-860z" />
    <glyph glyph-name="greater" unicode="&#x3e;" 
d="M160 113v69l846 416l-846 416v69l909 -446v-78z" />
    <glyph glyph-name="question" unicode="?" 
d="M575 442q0 116 41 191t134 145q143 108 184 168.5t41 167.5q0 135 -90 221t-246 86q-176 0 -274.5 -106t-110.5 -297l-66 4q12 217 130.5 341t320.5 124q186 0 293.5 -107.5t107.5 -265.5q0 -120 -52.5 -194.5t-209.5 -190.5q-74 -55 -105.5 -118t-31.5 -169h-66zM526 0
v164h164v-164h-164z" />
    <glyph glyph-name="at" unicode="@" 
d="M883 -121q-136 -90 -318 -90q-244 0 -374 195.5t-130 578.5q0 254 80.5 457.5t224 318.5t322.5 115q221 0 350 -200.5t129 -546.5q0 -152 -29 -276t-80.5 -194.5t-115.5 -70.5q-61 0 -101.5 54t-52.5 153q-29 -93 -96.5 -150t-144.5 -57q-111 0 -175.5 95.5t-64.5 277.5
q0 126 33.5 234t104.5 178.5t165 70.5q71 0 125 -42t78 -108l8 132h62q-6 -66 -14 -155t-12 -136t-8.5 -101.5t-6.5 -90t-2 -62.5q0 -113 28 -172.5t78 -59.5q71 0 113.5 129t42.5 344q0 320 -112.5 506.5t-305.5 186.5q-155 0 -283 -108.5t-201 -298.5t-73 -421
q0 -349 114 -529.5t324 -180.5q161 0 289 79zM553 223q53 0 95.5 33t69 83.5t45 115t25.5 123t7 110.5q0 129 -49 202t-140 73q-56 0 -101.5 -35.5t-73.5 -94t-43 -131t-15 -151.5q0 -153 44 -240.5t136 -87.5z" />
    <glyph glyph-name="A" unicode="A" 
d="M98 0l477 1454h78l477 -1454h-67l-156 481h-585l-156 -481h-68zM614 1389l-272 -846h545z" />
    <glyph glyph-name="B" unicode="B" 
d="M205 0v1454h375q235 0 357 -100t122 -289q0 -128 -77 -218.5t-204 -113.5q159 -20 249.5 -112t90.5 -234q0 -188 -118 -287.5t-345 -99.5h-450zM270 754h344q170 0 272.5 82t102.5 229q0 160 -104 246t-305 86h-310v-643zM270 57h381q198 0 298 84.5t100 245.5
q0 141 -108 225t-292 84h-379v-639z" />
    <glyph glyph-name="C" unicode="C" 
d="M623 -33q-234 0 -379.5 206.5t-145.5 551.5q0 348 146 555t379 207q190 0 309 -120.5t166 -346.5l-70 -8q-37 197 -141.5 303t-263.5 106q-197 0 -326 -190.5t-129 -505.5q0 -314 129 -503t326 -189q162 0 271.5 112.5t145.5 325.5l70 -8q-44 -231 -170.5 -363.5
t-316.5 -132.5z" />
    <glyph glyph-name="D" unicode="D" 
d="M205 0v1454h287q304 0 471 -191t167 -538t-166.5 -536t-471.5 -189h-287zM270 61h213q279 0 428.5 171t149.5 493t-150.5 495t-427.5 173h-213v-1332z" />
    <glyph glyph-name="E" unicode="E" 
d="M205 0v1454h844v-61h-779v-637h754v-62h-754v-633h795v-61h-860z" />
    <glyph glyph-name="F" unicode="F" 
d="M225 0v1454h860v-61h-794v-637h758v-62h-758v-694h-66z" />
    <glyph glyph-name="G" unicode="G" 
d="M614 -33q-239 0 -377.5 203t-138.5 555q0 224 64.5 397.5t182 269t269.5 95.5q383 0 484 -463l-70 -8q-43 202 -145 303.5t-269 101.5q-130 0 -231.5 -88t-158 -246.5t-56.5 -361.5q0 -318 122 -505t328 -187q183 0 301.5 163.5t124.5 421.5h-421v58h483v-676h-57v371
q-44 -183 -159.5 -293.5t-275.5 -110.5z" />
    <glyph glyph-name="H" unicode="H" 
d="M164 0v1454h65v-678h770v678h66v-1454h-66v715h-770v-715h-65z" />
    <glyph glyph-name="I" unicode="I" 
d="M184 0v61h398v1332h-398v61h860v-61h-397v-1332h397v-61h-860z" />
    <glyph glyph-name="J" unicode="J" 
d="M557 -33q-200 0 -324.5 139t-130.5 369l70 8q6 -215 106.5 -332.5t278.5 -117.5q196 0 298.5 124.5t102.5 362.5v934h66v-934q0 -263 -122.5 -408t-344.5 -145z" />
    <glyph glyph-name="K" unicode="K" 
d="M164 0v1454h65v-889l797 889h78l-569 -635l591 -819h-77l-555 774l-265 -295v-479h-65z" />
    <glyph glyph-name="L" unicode="L" 
d="M225 0v1454h66v-1393h794v-61h-860z" />
    <glyph glyph-name="M" unicode="M" 
d="M582 164l-394 1210v-1374h-65v1454h102l389 -1212l390 1212h102v-1454h-66v1374l-393 -1210h-65z" />
    <glyph glyph-name="N" unicode="N" 
d="M164 0v1454h96l739 -1393v1393h66v-1454h-96l-740 1393v-1393h-65z" />
    <glyph glyph-name="O" unicode="O" 
d="M614 -33q-239 0 -377.5 204.5t-138.5 553.5q0 352 138.5 557t377.5 205t377.5 -205t138.5 -557q0 -349 -138.5 -553.5t-377.5 -204.5zM614 33q213 0 330 184.5t117 507.5q0 324 -117 510t-330 186t-329.5 -185.5t-116.5 -510.5q0 -323 116.5 -507.5t329.5 -184.5z" />
    <glyph glyph-name="P" unicode="P" 
d="M225 0v1454h398q222 0 352.5 -112t130.5 -308q0 -194 -129.5 -301.5t-353.5 -107.5h-332v-625h-66zM291 686h323q203 0 312.5 88t109.5 260q0 174 -110.5 266.5t-311.5 92.5h-323v-707z" />
    <glyph glyph-name="Q" unicode="Q" 
d="M614 -33q-239 0 -377.5 204.5t-138.5 553.5q0 352 138.5 557t377.5 205t377.5 -205t138.5 -557q0 -246 -70 -422.5t-200 -263.5l127 -180h-74l-104 149q-90 -41 -195 -41zM614 33q86 0 156 30l-254 363h74l233 -334q115 75 176.5 238.5t61.5 394.5q0 324 -117 510
t-330 186t-329.5 -185.5t-116.5 -510.5q0 -323 116.5 -507.5t329.5 -184.5z" />
    <glyph glyph-name="R" unicode="R" 
d="M176 0v1454h426q209 0 330 -107.5t121 -302.5q0 -147 -73.5 -240.5t-203.5 -129.5q104 -18 168.5 -80t73.5 -170l35 -424h-66l-33 412q-8 110 -80 167.5t-227 57.5h-405v-637h-66zM242 698h356q185 0 285 88t100 258q0 175 -99.5 264t-285.5 89h-356v-699z" />
    <glyph glyph-name="S" unicode="S" 
d="M633 -33q-140 0 -258.5 64.5t-187 175.5t-68.5 242l67 6q0 -112 58 -208.5t162 -155t231 -58.5q172 0 287.5 86.5t115.5 232.5q0 52 -12 93t-41.5 80t-81 71.5t-130.5 64t-189 60.5q-118 31 -193.5 62t-133.5 75.5t-83.5 105.5t-25.5 146q0 162 122.5 269.5t327.5 107.5
q110 0 201 -38.5t149 -102t89.5 -143t31.5 -163.5l-70 -6q0 106 -46.5 193t-140 140.5t-218.5 53.5q-171 0 -274 -87.5t-103 -227.5q0 -132 81 -198.5t306 -125.5q199 -52 309.5 -114.5t152.5 -136.5t42 -183q0 -113 -66 -201t-174 -134t-237 -46z" />
    <glyph glyph-name="T" unicode="T" 
d="M582 0v1393h-500v61h1065v-61h-500v-1393h-65z" />
    <glyph glyph-name="U" unicode="U" 
d="M614 -33q-217 0 -333.5 140.5t-116.5 400.5v946h65v-946q0 -229 99.5 -352t285.5 -123t285.5 123t99.5 352v946h66v-946q0 -260 -117 -400.5t-334 -140.5z" />
    <glyph glyph-name="V" unicode="V" 
d="M578 0l-496 1454h65l467 -1388l467 1388h66l-496 -1454h-73z" />
    <glyph glyph-name="W" unicode="W" 
d="M295 0l-213 1454h65l199 -1384l232 1220h73l232 -1220l198 1384h66l-213 -1454h-94l-226 1180l-225 -1180h-94z" />
    <glyph glyph-name="X" unicode="X" 
d="M123 0l448 737l-432 717h74l405 -672l398 672h74l-431 -725l447 -729h-74l-420 688l-415 -688h-74z" />
    <glyph glyph-name="Y" unicode="Y" 
d="M582 0v594l-480 860h78l434 -790l435 790h77l-479 -860v-594h-65z" />
    <glyph glyph-name="Z" unicode="Z" 
d="M123 0v61l897 1332h-860v61h930v-61l-897 -1332h913v-61h-983z" />
    <glyph glyph-name="bracketleft" unicode="[" 
d="M791 -225h-353v1761h353v-57h-287v-1647h287v-57z" />
    <glyph glyph-name="backslash" unicode="\" 
d="M950 -225h-65l-606 1753h65z" />
    <glyph glyph-name="bracketright" unicode="]" 
d="M438 -225v57h287v1647h-287v57h353v-1761h-353z" />
    <glyph glyph-name="asciicircum" unicode="^" 
d="M319 784l246 594h99l245 -594h-69l-226 553l-225 -553h-70z" />
    <glyph glyph-name="underscore" unicode="_" 
d="M205 -61v61h819v-61h-819z" />
    <glyph glyph-name="grave" unicode="`" 
d="M684 1249l-164 238h70l147 -238h-53z" />
    <glyph glyph-name="a" unicode="a" 
d="M479 -25q-157 0 -252.5 79.5t-95.5 211.5q0 118 89 194t241 105l424 82q0 209 -79 305.5t-241 96.5q-147 0 -236 -75t-112 -216l-67 6q28 166 135 256t280 90q184 0 282.5 -110.5t98.5 -331.5v-459q0 -87 23 -117.5t75 -30.5h62v-61q-24 -4 -70 -4q-75 0 -112 45t-43 170
q-48 -102 -155 -169t-247 -67zM479 37q180 0 293 108t113 273v170l-406 -80q-282 -57 -282 -238q0 -113 73 -173t209 -60z" />
    <glyph glyph-name="b" unicode="b" 
d="M664 -25q-136 0 -239 84t-149 215l-6 -274h-45v1454h62v-635q44 130 144.5 210.5t232.5 80.5q208 0 330 -154t122 -413q0 -261 -121.5 -414.5t-330.5 -153.5zM664 37q178 0 282.5 136.5t104.5 369.5q0 231 -104.5 368.5t-282.5 137.5q-168 0 -272.5 -142.5t-104.5 -363.5
q0 -225 104.5 -365.5t272.5 -140.5z" />
    <glyph glyph-name="c" unicode="c" 
d="M645 -25q-148 0 -254.5 79t-156.5 205.5t-50 283.5q0 117 29.5 218.5t85.5 180t145 123.5t201 45q161 0 267.5 -99.5t148.5 -262.5l-66 -5q-37 146 -127 226t-223 80q-182 0 -288.5 -136.5t-106.5 -369.5t106.5 -369.5t288.5 -136.5q135 0 229 87t125 241l66 -7
q-38 -173 -147.5 -278t-272.5 -105z" />
    <glyph glyph-name="d" unicode="d" 
d="M565 -25q-209 0 -330.5 153.5t-121.5 414.5q0 259 122 413t330 154q132 0 232.5 -80.5t144.5 -210.5v635h62v-1454h-46l-6 274q-47 -131 -149.5 -215t-237.5 -84zM565 37q168 0 272.5 140.5t104.5 365.5q0 221 -104.5 363.5t-272.5 142.5q-178 0 -282.5 -137.5
t-104.5 -368.5q0 -233 104.5 -369.5t282.5 -136.5z" />
    <glyph glyph-name="e" unicode="e" 
d="M635 -25q-113 0 -204 45.5t-148.5 124t-88 180t-30.5 218.5q0 93 18.5 177t56.5 155.5t92 123.5t130 81.5t166 29.5q113 0 202 -44.5t144 -121.5t83.5 -175.5t28.5 -211.5v-25h-856q3 -229 113 -362t293 -133q141 0 233 69.5t127 190.5l68 -4q-41 -143 -154 -230.5
t-274 -87.5zM229 590h789q-6 213 -107.5 336t-283.5 123q-172 0 -280 -123t-118 -336z" />
    <glyph glyph-name="f" unicode="f" 
d="M492 0v1028h-328v57h328v144q0 104 60.5 164.5t164.5 60.5h348v-57h-352q-77 0 -118.5 -41.5t-41.5 -118.5v-152h491v-57h-491v-1028h-61z" />
    <glyph glyph-name="g" unicode="g" 
d="M598 -332q-169 0 -282 90.5t-119 229.5l65 4q6 -118 96.5 -190t239.5 -72q177 0 276 101.5t99 285.5v209q-51 -127 -149 -201t-232 -74q-206 0 -327.5 143.5t-121.5 389.5q0 240 122 383t327 143q136 0 236 -79.5t145 -207.5v262h61v-972q0 -207 -116.5 -326t-319.5 -119
zM592 113q173 0 277 127.5t104 343.5q0 202 -105.5 333.5t-275.5 131.5q-175 0 -279 -126.5t-104 -338.5q0 -216 104 -343.5t279 -127.5z" />
    <glyph glyph-name="h" unicode="h" 
d="M246 0v1454h61v-610q28 128 131 197t242 69q118 0 200 -56t119 -147t37 -209v-698h-61v649q0 187 -75 293.5t-236 106.5q-166 0 -261.5 -111t-95.5 -289v-649h-61z" />
    <glyph glyph-name="i" unicode="i" 
d="M651 1286v144h70v-144h-70zM205 0v57h450v971h-430v57h492v-1028h389v-57h-901z" />
    <glyph glyph-name="j" unicode="j" 
d="M788 1286v144h70v-144h-70zM266 -307v57h299q119 0 176.5 61.5t57.5 188.5v1028h-533v57h594v-1085q0 -157 -72 -232t-223 -75h-299z" />
    <glyph glyph-name="k" unicode="k" 
d="M233 0v1454h62v-1057l709 688h81l-481 -467l522 -618h-73l-490 582l-268 -263v-319h-62z" />
    <glyph glyph-name="l" unicode="l" 
d="M164 0v57h450v1180q0 77 -41.5 118.5t-117.5 41.5h-250v57h246q104 0 164.5 -60.5t60.5 -164.5v-1172h389v-57h-901z" />
    <glyph glyph-name="m" unicode="m" 
d="M102 0v1085h58l2 -223q60 248 235 248q96 0 152 -69.5t78 -209.5q62 279 258 279q123 0 182 -93t59 -292v-725h-61v721q0 173 -45 250.5t-143 77.5q-95 0 -163.5 -103t-68.5 -250v-696h-61v696q0 169 -49 261t-146 92q-92 0 -158.5 -105t-66.5 -248v-696h-62z" />
    <glyph glyph-name="n" unicode="n" 
d="M213 0v1085h57l4 -243q31 129 135 198.5t242 69.5q177 0 271 -115.5t94 -296.5v-698h-62v649q0 185 -77 292.5t-238 107.5q-167 0 -266 -111.5t-99 -288.5v-649h-61z" />
    <glyph glyph-name="o" unicode="o" 
d="M614 -25q-211 0 -332.5 153t-121.5 415t121.5 414.5t332.5 152.5q212 0 333.5 -152.5t121.5 -414.5t-122 -415t-333 -153zM614 37q182 0 286 136t104 370t-104 370t-286 136t-285.5 -136t-103.5 -370t103.5 -370t285.5 -136z" />
    <glyph glyph-name="p" unicode="p" 
d="M184 -307v1392h54l4 -284q47 148 149 228.5t240 80.5q205 0 324.5 -153t119.5 -414t-119 -414.5t-321 -153.5q-132 0 -240.5 87t-148.5 210v-579h-62zM635 37q173 0 274 136.5t101 369.5t-102 369.5t-277 136.5q-111 0 -199 -66.5t-137 -182t-49 -257.5
q0 -216 110.5 -361t278.5 -145z" />
    <glyph glyph-name="q" unicode="q" 
d="M1044 -307h-61v579q-40 -123 -148.5 -210t-240.5 -87q-202 0 -321 153.5t-119 414.5t119.5 414t324.5 153q138 0 240 -80.5t149 -228.5l4 284h53v-1392zM594 37q168 0 278.5 145t110.5 361q0 142 -49 257.5t-137 182t-199 66.5q-175 0 -277 -136.5t-102 -369.5
t101 -369.5t274 -136.5z" />
    <glyph glyph-name="r" unicode="r" 
d="M205 0v57h313v971h-313v57h362l8 -243q39 123 110 183t187 60h193v-61h-205q-120 0 -200 -105t-80 -247v-615h362v-57h-737z" />
    <glyph glyph-name="s" unicode="s" 
d="M637 -25q-203 0 -323.5 96t-129.5 246l64 9q6 -131 109.5 -210t279.5 -79q342 0 342 225q0 49 -12.5 81.5t-51 63.5t-115 54t-198.5 43q-94 15 -160.5 35t-109.5 44.5t-67.5 58t-34 70t-9.5 87.5q0 141 103.5 226t277.5 85q175 0 280 -90.5t132 -231.5l-64 -12
q-16 117 -105.5 195t-242.5 78q-149 0 -232 -65.5t-83 -184.5q0 -74 28 -117.5t101.5 -72.5t214.5 -50q233 -34 323 -101.5t90 -191.5q0 -141 -104.5 -216t-302.5 -75z" />
    <glyph glyph-name="t" unicode="t" 
d="M733 0q-107 0 -168 61t-61 168v799h-381v57h381v254h61v-254h459v-57h-459v-807q0 -78 42.5 -121t117.5 -43h299v-57h-291z" />
    <glyph glyph-name="u" unicode="u" 
d="M561 -25q-164 0 -260 110t-96 302v698h61v-671q0 -185 80 -281t232 -96q163 0 259.5 108t96.5 291v649h61v-1085h-53l-4 244q-31 -128 -129.5 -198.5t-247.5 -70.5z" />
    <glyph glyph-name="v" unicode="v" 
d="M575 0l-411 1085h65l385 -1028l385 1028h66l-412 -1085h-78z" />
    <glyph glyph-name="w" unicode="w" 
d="M328 0l-267 1085h66l238 -1024l219 881h61l219 -881l238 1024h65l-266 -1085h-74l-213 848l-213 -848h-73z" />
    <glyph glyph-name="x" unicode="x" 
d="M168 0l405 545l-391 540h72l360 -503l359 503h74l-392 -540l406 -545h-72l-371 510l-376 -510h-74z" />
    <glyph glyph-name="y" unicode="y" 
d="M293 -307v57h82q87 0 128 30t72 114l48 126h-33l-430 1065h65l410 -1024l381 1024h65l-456 -1216q-37 -98 -91.5 -137t-158.5 -39h-82z" />
    <glyph glyph-name="z" unicode="z" 
d="M184 0v61l774 967h-753v57h823v-61l-774 -967h790v-57h-860z" />
    <glyph glyph-name="braceleft" unicode="{" 
d="M881 -231q-156 0 -246 93t-90 255v188q0 157 -60.5 236.5t-165.5 79.5v63q105 0 165.5 79.5t60.5 235.5v189q0 162 90 255t246 93h28v-61q-299 0 -299 -287v-189q0 -155 -58.5 -244t-154.5 -100v-2q97 -11 155 -101t58 -247v-188q0 -287 299 -287v-61h-28z" />
    <glyph glyph-name="bar" unicode="|" 
d="M582 -225v1761h65v-1761h-65z" />
    <glyph glyph-name="braceright" unicode="}" 
d="M348 -231h-29v61q299 0 299 287v188q0 157 58 247t155 101v2q-96 11 -154.5 100t-58.5 244v189q0 287 -299 287v61h29q156 0 246 -93t90 -255v-189q0 -157 60 -236t165 -79v-63q-105 0 -165 -79.5t-60 -236.5v-188q0 -162 -90 -255t-246 -93z" />
    <glyph glyph-name="asciitilde" unicode="~" 
d="M801 539q-57 0 -102 26t-99 86q-59 67 -93 91t-83 24q-65 0 -108.5 -60t-47.5 -157h-65q7 133 65.5 205.5t155.5 72.5q58 0 104.5 -28.5t96.5 -85.5q57 -66 94.5 -89.5t79.5 -23.5q69 0 113 59.5t49 155.5h65q-7 -132 -66 -204t-159 -72z" />
    <glyph glyph-name="uni00A0" unicode="&#xa0;" 
 />
    <glyph glyph-name="exclamdown" unicode="&#xa1;" 
d="M532 1122h164v-164h-164v164zM592 702h45q10 -460 10 -522v-512h-65v512q0 62 10 522z" />
    <glyph glyph-name="cent" unicode="&#xa2;" 
d="M524 -33l17 193q-118 24 -202.5 105.5t-124.5 197.5t-40 256q0 117 29.5 218.5t85.5 180t145 123.5t201 45h2l16 201h62l-17 -205q134 -19 224 -116t129 -242l-66 -4q-32 130 -106.5 207t-186.5 94l-86 -1008h29q135 0 229 87t125 241l66 -6q-38 -173 -147.5 -278
t-272.5 -105q-23 0 -33 2l-16 -187h-62zM240 719q0 -202 82 -333.5t225 -162.5l84 1002q-180 -2 -285.5 -138t-105.5 -368z" />
    <glyph glyph-name="sterling" unicode="&#xa3;" 
d="M102 0v59q133 93 212 219t79 273q0 75 -12 143h-279v62h267q-7 23 -21 68t-20 67t-14.5 57t-11.5 67t-3 68q0 172 105 288t272 116q187 0 289.5 -95t117.5 -268l-67 -8q-37 305 -340 305q-137 0 -223 -98.5t-86 -243.5q0 -136 67 -323h410v-62h-398q48 -415 -253 -633
h933v-61h-1024z" />
    <glyph glyph-name="currency" unicode="&#xa4;" 
d="M172 287l-43 43l174 176q-98 116 -98 266q0 152 100 266l-178 179l43 43l178 -179q115 101 266 101q150 0 269 -101l178 181l43 -43l-178 -181q98 -116 98 -266q0 -152 -100 -266l178 -178l-43 -43l-178 178q-115 -101 -267 -101q-149 0 -268 101zM614 424
q140 0 244.5 103.5t104.5 244.5t-104.5 244.5t-244.5 103.5q-141 0 -244.5 -103.5t-103.5 -244.5t103.5 -244.5t244.5 -103.5z" />
    <glyph glyph-name="yen" unicode="&#xa5;" 
d="M172 342v61h410v168h-410v62h387l-457 821h78l434 -790l435 790h77l-456 -821h387v-62h-410v-168h410v-61h-410v-342h-65v342h-410z" />
    <glyph glyph-name="brokenbar" unicode="&#xa6;" 
d="M582 809v727h65v-727h-65zM582 -225v727h65v-727h-65z" />
    <glyph glyph-name="section" unicode="&#xa7;" 
d="M639 -131q-203 0 -317 102t-134 265l70 8q16 -145 110.5 -227.5t270.5 -82.5q57 0 114.5 14t109 41t84 73t32.5 104q0 82 -91.5 147t-293.5 95q-66 10 -117 22.5t-100.5 34t-82 50t-52 70.5t-19.5 95q0 99 71.5 170t213.5 92q-137 31 -208 95.5t-71 158.5
q0 128 106 209.5t273 81.5q170 0 273.5 -97t124.5 -251l-70 -6q-49 288 -336 288q-130 0 -219.5 -64.5t-89.5 -158.5q0 -90 82 -145.5t256 -83.5q158 -25 249.5 -66t126.5 -94.5t35 -132.5q0 -199 -278 -254q278 -72 278 -258q0 -77 -34.5 -136t-93.5 -92.5t-127.5 -50
t-145.5 -16.5zM684 467q127 0 211 61t84 152q0 97 -110.5 157t-301.5 60q-118 0 -200 -60t-82 -151q0 -219 399 -219z" />
    <glyph glyph-name="dieresis" unicode="&#xa8;" 
d="M410 1286v144h69v-144h-69zM750 1286v144h69v-144h-69z" />
    <glyph glyph-name="copyright" unicode="&#xa9;" 
d="M612 -25q-167 0 -297 96t-202 268t-72 392t72 392t202 268t297 96t298.5 -96t204.5 -268.5t73 -391.5t-73 -391.5t-204.5 -268.5t-298.5 -96zM612 37q151 0 268 88t181.5 246t64.5 360t-64.5 360t-181.5 246t-268 88q-150 0 -266 -88t-180 -246t-64 -360t64 -360
t180 -246t266 -88zM625 295q-164 0 -262.5 120t-98.5 314q0 191 98.5 311.5t262.5 120.5q134 0 222 -83.5t105 -225.5l-61 -10q-19 125 -87.5 191.5t-178.5 66.5q-136 0 -217.5 -103.5t-81.5 -267.5q0 -165 81.5 -269t217.5 -104q113 0 183 71t89 204l61 -10
q-19 -151 -108.5 -238.5t-224.5 -87.5z" />
    <glyph glyph-name="ordfeminine" unicode="&#xaa;" 
d="M506 770q-99 0 -159 48.5t-60 131.5q0 76 55.5 123.5t151.5 65.5l270 51q0 130 -48 188t-149 58q-183 0 -213 -168l-55 4q17 102 86 158.5t182 56.5q250 0 250 -289v-289q0 -46 13.5 -63t43.5 -17h15v-49q-6 -2 -25 -2q-47 0 -72.5 31t-29.5 104q-33 -62 -103 -102.5
t-153 -40.5zM510 819q107 0 180.5 65.5t73.5 162.5v94l-258 -47q-164 -31 -164 -140q0 -65 44 -100t124 -35z" />
    <glyph glyph-name="guillemotleft" unicode="&#xab;" 
d="M606 156h-82l-319 379v61l319 379h82l-346 -410zM1024 156h-82l-319 379v61l319 379h82l-346 -410z" />
    <glyph glyph-name="logicalnot" unicode="&#xac;" 
d="M987 135v453h-803v57h860v-510h-57z" />
    <glyph glyph-name="registered" unicode="&#xae;" 
d="M616 383q-113 0 -216 44t-177 117.5t-118 175.5t-44 214q0 113 44 215.5t118 176.5t177 117.5t216 43.5q112 0 214 -43.5t176 -117.5t117.5 -176.5t43.5 -215.5q0 -149 -73.5 -276t-200.5 -201t-277 -74zM616 432q134 0 249.5 68.5t183 184t67.5 249.5q0 135 -67.5 251
t-182.5 184.5t-250 68.5t-251 -68.5t-184 -184.5t-68 -251q0 -134 68 -249.5t184 -184t251 -68.5zM406 614v637h204q107 0 169.5 -50t62.5 -136q0 -64 -36 -107.5t-104 -60.5l148 -283h-64l-137 269h-188v-269h-55zM461 938h166q75 0 119.5 35t44.5 96q0 60 -44.5 95.5
t-119.5 35.5h-166v-262z" />
    <glyph glyph-name="macron" unicode="&#xaf;" 
d="M360 1319v57h508v-57h-508z" />
    <glyph glyph-name="degree" unicode="&#xb0;" 
d="M614 950q-112 0 -191 76.5t-79 190.5q0 117 79 193.5t191 76.5q115 0 193 -76.5t78 -193.5q0 -114 -78.5 -190.5t-192.5 -76.5zM614 1012q87 0 148 58t61 147t-61.5 148.5t-147.5 59.5q-85 0 -146.5 -59.5t-61.5 -148.5t61.5 -147t146.5 -58z" />
    <glyph glyph-name="plusminus" unicode="&#xb1;" 
d="M586 176v440h-441v58h441v440h57v-440h440v-58h-440v-440h-57zM145 0v61h938v-61h-938z" />
    <glyph glyph-name="uni00B2" unicode="&#xb2;" 
d="M344 662q0 127 52.5 201t189.5 149l67 37q103 56 133.5 95t30.5 101q0 81 -50.5 124.5t-143.5 43.5q-178 0 -215 -207l-62 6q13 123 85.5 190.5t191.5 67.5q120 0 188 -59.5t68 -165.5q0 -82 -41.5 -132.5t-151.5 -108.5l-61 -33q-114 -61 -163.5 -120t-47.5 -132h456
v-57h-526z" />
    <glyph glyph-name="uni00B3" unicode="&#xb3;" 
d="M621 645q-141 0 -212 59.5t-77 165.5l63 7q6 -88 57 -131.5t169 -43.5q109 0 163 46.5t54 134.5q0 77 -56 126.5t-155 49.5h-58v53h58q78 0 129 38t51 124q0 139 -189 139q-176 0 -192 -147l-66 8q12 92 80 144t178 52q122 0 186 -52.5t64 -143.5q0 -70 -39.5 -119.5
t-109.5 -69.5q90 -21 135 -74.5t45 -127.5q0 -108 -74 -173t-204 -65z" />
    <glyph glyph-name="acute" unicode="&#xb4;" 
d="M506 1249l147 238h70l-164 -238h-53z" />
    <glyph glyph-name="uni00B5" unicode="&#xb5;" 
d="M219 -307v1392h62v-649q0 -187 75.5 -293t235.5 -106q167 0 261.5 110t94.5 289v649h62v-1085h-58l-4 233q-20 -86 -76 -145.5t-131 -86t-166 -26.5q-102 0 -178 52.5t-116 150.5v-485h-62z" />
    <glyph glyph-name="paragraph" unicode="&#xb6;" 
d="M647 0v627q-214 0 -328 106.5t-114 306.5t117 307t340 107h280v-1454h-65v1393h-164v-1393h-66z" />
    <glyph glyph-name="periodcentered" unicode="&#xb7;" 
d="M532 512v164h164v-164h-164z" />
    <glyph glyph-name="cedilla" unicode="&#xb8;" 
d="M612 -418q-76 0 -126.5 32t-69.5 91l49 21q27 -91 143 -91q140 0 140 111q0 55 -41 81t-136 26l-28 36l61 119h58l-58 -106q201 -6 201 -160q0 -75 -52.5 -117.5t-140.5 -42.5z" />
    <glyph glyph-name="uni00B9" unicode="&#xb9;" 
d="M686 662v585h-201v45h27q186 0 186 162h45v-792h-57z" />
    <glyph glyph-name="ordmasculine" unicode="&#xba;" 
d="M614 770q-139 0 -219 96t-80 260q0 165 80 263t219 98q138 0 218.5 -97.5t80.5 -263.5q0 -163 -80.5 -259.5t-218.5 -96.5zM614 821q114 0 178 82t64 223q0 143 -64.5 226.5t-177.5 83.5q-114 0 -177.5 -83t-63.5 -227q0 -141 63.5 -223t177.5 -82z" />
    <glyph glyph-name="guillemotright" unicode="&#xbb;" 
d="M623 156l346 409l-346 410h82l319 -379v-61l-319 -379h-82zM205 156l346 409l-346 410h82l319 -379v-61l-319 -379h-82z" />
    <glyph glyph-name="onequarter" unicode="&#xbc;" 
d="M352 662v585h-200v45h26q187 0 187 162h45v-792h-58zM756 950l252 504h65l-252 -504h-65zM909 0v195h-391v45l391 553h58v-545h131v-53h-131v-195h-58zM584 248h325v463zM131 0l252 502h66l-252 -502h-66z" />
    <glyph glyph-name="onehalf" unicode="&#xbd;" 
d="M344 662v585h-201v45h27q186 0 186 162h45v-792h-57zM748 950l251 504h66l-252 -504h-65zM565 0q0 127 52.5 201t189.5 149l67 37q103 56 133.5 95.5t30.5 101.5q0 81 -50.5 124.5t-143.5 43.5q-178 0 -215 -207l-62 6q13 123 85.5 190.5t191.5 67.5q120 0 188 -59.5
t68 -165.5q0 -82 -42 -133t-151 -109l-61 -33q-114 -61 -163.5 -120t-47.5 -132h457v-57h-527zM123 0l252 502h65l-252 -502h-65z" />
    <glyph glyph-name="threequarters" unicode="&#xbe;" 
d="M375 645q-141 0 -212 59.5t-77 165.5l64 7q6 -88 56.5 -131.5t168.5 -43.5q109 0 163 46.5t54 134.5q0 77 -56 126.5t-155 49.5h-57v53h57q78 0 129 38t51 124q0 139 -188 139q-177 0 -193 -147l-65 8q12 92 80 144t178 52q122 0 186 -52.5t64 -143.5q0 -70 -40 -119
t-110 -70q90 -21 135 -74.5t45 -127.5q0 -108 -74 -173t-204 -65zM811 950l252 504h65l-251 -504h-66zM954 0v195h-391v45l391 553h58v-545h131v-53h-131v-195h-58zM629 248h325v463zM186 0l252 502h66l-252 -502h-66z" />
    <glyph glyph-name="questiondown" unicode="&#xbf;" 
d="M702 1114v-164h-163v164h163zM590 -332q-186 0 -294 107.5t-108 265.5q0 83 25 141.5t77.5 111t160.5 132.5q73 55 105 116t32 160h65q0 -109 -40.5 -182t-133.5 -143q-143 -108 -184 -168.5t-41 -167.5q0 -135 90 -221t246 -86q176 0 274.5 106t110.5 297l65 -4
q-12 -217 -130 -341t-320 -124z" />
    <glyph glyph-name="Agrave" unicode="&#xc0;" 
d="M592 1618l-164 237h70l147 -237h-53zM98 0l477 1454h78l477 -1454h-67l-156 481h-585l-156 -481h-68zM614 1389l-272 -846h545z" />
    <glyph glyph-name="Aacute" unicode="&#xc1;" 
d="M582 1618l147 237h70l-164 -237h-53zM98 0l477 1454h78l477 -1454h-67l-156 481h-585l-156 -481h-68zM614 1389l-272 -846h545z" />
    <glyph glyph-name="Acircumflex" unicode="&#xc2;" 
d="M410 1618l182 254h45l182 -254h-57l-148 203l-147 -203h-57zM98 0l477 1454h78l477 -1454h-67l-156 481h-585l-156 -481h-68zM614 1389l-272 -846h545z" />
    <glyph glyph-name="Atilde" unicode="&#xc3;" 
d="M741 1659q-41 0 -70.5 15.5t-60.5 49.5q-27 30 -51 44t-59 14q-97 0 -103 -133h-53q6 85 48.5 133.5t107.5 48.5q46 0 79 -18.5t68 -55.5q49 -49 94 -49q41 0 62.5 33t27.5 108h54q-6 -90 -43 -140t-101 -50zM98 0l477 1454h78l477 -1454h-67l-156 481h-585l-156 -481
h-68zM614 1389l-272 -846h545z" />
    <glyph glyph-name="Adieresis" unicode="&#xc4;" 
d="M408 1655v143h69v-143h-69zM748 1655v143h69v-143h-69zM98 0l477 1454h78l477 -1454h-67l-156 481h-585l-156 -481h-68zM614 1389l-272 -846h545z" />
    <glyph glyph-name="Aring" unicode="&#xc5;" 
d="M612 1581q-65 0 -106 40.5t-41 104.5q0 63 41.5 104.5t105.5 41.5q63 0 105.5 -41.5t42.5 -104.5t-42 -104t-106 -41zM612 1632q43 0 69 25.5t26 68.5t-26 68t-69 25t-68.5 -25t-25.5 -68t25.5 -68.5t68.5 -25.5zM98 0l477 1454h78l477 -1454h-67l-156 481h-585
l-156 -481h-68zM614 1389l-272 -846h545z" />
    <glyph glyph-name="AE" unicode="&#xc6;" 
d="M16 0l531 1454h645v-61h-485v-633h460v-62h-460v-637h501v-61h-567v481h-381l-174 -481h-70zM592 1393l-309 -850h358v850h-49z" />
    <glyph glyph-name="Ccedilla" unicode="&#xc7;" 
d="M606 -418q-76 0 -126.5 32t-69.5 91l49 21q27 -91 143 -91q139 0 139 111q0 55 -40.5 81t-135.5 26l-28 36l41 80q-216 20 -348 224t-132 532q0 348 146 555t379 207q190 0 309 -120.5t166 -346.5l-70 -8q-37 197 -141.5 303t-263.5 106q-197 0 -326 -190.5t-129 -505.5
q0 -314 129 -503t326 -189q162 0 271.5 112.5t145.5 325.5l70 -8q-43 -230 -168 -363t-309 -133l-35 -65q201 -6 201 -160q0 -75 -52.5 -117.5t-140.5 -42.5z" />
    <glyph glyph-name="Egrave" unicode="&#xc8;" 
d="M604 1618l-164 237h70l147 -237h-53zM205 0v1454h844v-61h-779v-637h754v-62h-754v-633h795v-61h-860z" />
    <glyph glyph-name="Eacute" unicode="&#xc9;" 
d="M594 1618l147 237h70l-164 -237h-53zM205 0v1454h844v-61h-779v-637h754v-62h-754v-633h795v-61h-860z" />
    <glyph glyph-name="Ecircumflex" unicode="&#xca;" 
d="M422 1618l182 254h45l182 -254h-57l-147 203l-148 -203h-57zM205 0v1454h844v-61h-779v-637h754v-62h-754v-633h795v-61h-860z" />
    <glyph glyph-name="Edieresis" unicode="&#xcb;" 
d="M420 1655v143h69v-143h-69zM760 1655v143h69v-143h-69zM205 0v1454h844v-61h-779v-637h754v-62h-754v-633h795v-61h-860z" />
    <glyph glyph-name="Igrave" unicode="&#xcc;" 
d="M592 1618l-164 237h70l147 -237h-53zM184 0v61h398v1332h-398v61h860v-61h-397v-1332h397v-61h-860z" />
    <glyph glyph-name="Iacute" unicode="&#xcd;" 
d="M582 1618l147 237h70l-164 -237h-53zM184 0v61h398v1332h-398v61h860v-61h-397v-1332h397v-61h-860z" />
    <glyph glyph-name="Icircumflex" unicode="&#xce;" 
d="M410 1618l182 254h45l182 -254h-57l-148 203l-147 -203h-57zM184 0v61h398v1332h-398v61h860v-61h-397v-1332h397v-61h-860z" />
    <glyph glyph-name="Idieresis" unicode="&#xcf;" 
d="M408 1655v143h69v-143h-69zM748 1655v143h69v-143h-69zM184 0v61h398v1332h-398v61h860v-61h-397v-1332h397v-61h-860z" />
    <glyph glyph-name="Eth" unicode="&#xd0;" 
d="M205 0v696h-164v62h164v696h287q304 0 471 -191t167 -538t-166.5 -536t-471.5 -189h-287zM270 61h213q279 0 428.5 171t149.5 493t-150.5 495t-427.5 173h-213v-635h467v-62h-467v-635z" />
    <glyph glyph-name="Ntilde" unicode="&#xd1;" 
d="M758 1659q-41 0 -70.5 15.5t-60.5 49.5q-27 30 -51.5 44t-59.5 14q-96 0 -102 -133h-54q6 85 48.5 133.5t107.5 48.5q46 0 79.5 -18.5t68.5 -55.5q49 -49 94 -49q41 0 62.5 33t27.5 108h53q-6 -90 -42.5 -140t-100.5 -50zM164 0v1454h96l739 -1393v1393h66v-1454h-96
l-740 1393v-1393h-65z" />
    <glyph glyph-name="Ograve" unicode="&#xd2;" 
d="M592 1618l-164 237h70l147 -237h-53zM614 -33q-239 0 -377.5 204.5t-138.5 553.5q0 352 138.5 557t377.5 205t377.5 -205t138.5 -557q0 -349 -138.5 -553.5t-377.5 -204.5zM614 33q213 0 330 184.5t117 507.5q0 324 -117 510t-330 186t-329.5 -185.5t-116.5 -510.5
q0 -323 116.5 -507.5t329.5 -184.5z" />
    <glyph glyph-name="Oacute" unicode="&#xd3;" 
d="M582 1618l147 237h70l-164 -237h-53zM614 -33q-239 0 -377.5 204.5t-138.5 553.5q0 352 138.5 557t377.5 205t377.5 -205t138.5 -557q0 -349 -138.5 -553.5t-377.5 -204.5zM614 33q213 0 330 184.5t117 507.5q0 324 -117 510t-330 186t-329.5 -185.5t-116.5 -510.5
q0 -323 116.5 -507.5t329.5 -184.5z" />
    <glyph glyph-name="Ocircumflex" unicode="&#xd4;" 
d="M410 1618l182 254h45l182 -254h-57l-148 203l-147 -203h-57zM614 -33q-239 0 -377.5 204.5t-138.5 553.5q0 352 138.5 557t377.5 205t377.5 -205t138.5 -557q0 -349 -138.5 -553.5t-377.5 -204.5zM614 33q213 0 330 184.5t117 507.5q0 324 -117 510t-330 186
t-329.5 -185.5t-116.5 -510.5q0 -323 116.5 -507.5t329.5 -184.5z" />
    <glyph glyph-name="Otilde" unicode="&#xd5;" 
d="M741 1659q-41 0 -70.5 15.5t-60.5 49.5q-27 30 -51 44t-59 14q-97 0 -103 -133h-53q6 85 48.5 133.5t107.5 48.5q46 0 79 -18.5t68 -55.5q49 -49 94 -49q41 0 62.5 33t27.5 108h54q-6 -90 -43 -140t-101 -50zM614 -33q-239 0 -377.5 204.5t-138.5 553.5q0 352 138.5 557
t377.5 205t377.5 -205t138.5 -557q0 -349 -138.5 -553.5t-377.5 -204.5zM614 33q213 0 330 184.5t117 507.5q0 324 -117 510t-330 186t-329.5 -185.5t-116.5 -510.5q0 -323 116.5 -507.5t329.5 -184.5z" />
    <glyph glyph-name="Odieresis" unicode="&#xd6;" 
d="M408 1655v143h69v-143h-69zM748 1655v143h69v-143h-69zM614 -33q-239 0 -377.5 204.5t-138.5 553.5q0 352 138.5 557t377.5 205t377.5 -205t138.5 -557q0 -349 -138.5 -553.5t-377.5 -204.5zM614 33q213 0 330 184.5t117 507.5q0 324 -117 510t-330 186t-329.5 -185.5
t-116.5 -510.5q0 -323 116.5 -507.5t329.5 -184.5z" />
    <glyph glyph-name="multiply" unicode="&#xd7;" 
d="M233 244l340 340l-340 340l41 41l340 -340l340 340l41 -41l-340 -340l340 -340l-41 -41l-340 340l-340 -340z" />
    <glyph glyph-name="Oslash" unicode="&#xd8;" 
d="M123 -33l119 197q-144 205 -144 561q0 352 138.5 557t377.5 205q202 0 336 -150l90 150h66l-119 -197q143 -207 143 -565q0 -349 -138.5 -553.5t-377.5 -204.5q-201 0 -335 150l-91 -150h-65zM168 725q0 -313 111 -500l634 1053q-115 143 -299 143q-213 0 -329.5 -185.5
t-116.5 -510.5zM614 33q213 0 330 184.5t117 507.5q0 317 -113 502l-633 -1051q115 -143 299 -143z" />
    <glyph glyph-name="Ugrave" unicode="&#xd9;" 
d="M592 1618l-164 237h70l147 -237h-53zM614 -33q-217 0 -333.5 140.5t-116.5 400.5v946h65v-946q0 -229 99.5 -352t285.5 -123t285.5 123t99.5 352v946h66v-946q0 -260 -117 -400.5t-334 -140.5z" />
    <glyph glyph-name="Uacute" unicode="&#xda;" 
d="M582 1618l147 237h70l-164 -237h-53zM614 -33q-217 0 -333.5 140.5t-116.5 400.5v946h65v-946q0 -229 99.5 -352t285.5 -123t285.5 123t99.5 352v946h66v-946q0 -260 -117 -400.5t-334 -140.5z" />
    <glyph glyph-name="Ucircumflex" unicode="&#xdb;" 
d="M410 1618l182 254h45l182 -254h-57l-148 203l-147 -203h-57zM614 -33q-217 0 -333.5 140.5t-116.5 400.5v946h65v-946q0 -229 99.5 -352t285.5 -123t285.5 123t99.5 352v946h66v-946q0 -260 -117 -400.5t-334 -140.5z" />
    <glyph glyph-name="Udieresis" unicode="&#xdc;" 
d="M408 1655v143h69v-143h-69zM748 1655v143h69v-143h-69zM614 -33q-217 0 -333.5 140.5t-116.5 400.5v946h65v-946q0 -229 99.5 -352t285.5 -123t285.5 123t99.5 352v946h66v-946q0 -260 -117 -400.5t-334 -140.5z" />
    <glyph glyph-name="Yacute" unicode="&#xdd;" 
d="M582 1618l147 237h70l-164 -237h-53zM582 0v594l-480 860h78l434 -790l435 790h77l-479 -860v-594h-65z" />
    <glyph glyph-name="Thorn" unicode="&#xde;" 
d="M205 0v1454h65v-301h340q238 0 377 -107.5t139 -291.5q0 -189 -139 -299.5t-377 -110.5h-340v-344h-65zM610 1092h-340v-686h340q205 0 326 94t121 254q0 155 -121 246.5t-326 91.5z" />
    <glyph glyph-name="germandbls" unicode="&#xdf;" 
d="M174 0v1028q0 203 109.5 325t294.5 122q179 0 287 -100t108 -267q0 -126 -71.5 -215.5t-194.5 -122.5q166 -34 259 -134.5t93 -246.5q0 -191 -119.5 -290t-335.5 -99h-172v57h172q188 0 288.5 85.5t100.5 246.5q0 157 -123 252.5t-317 95.5h-100v58h100q161 0 257.5 84.5
t96.5 228.5q0 138 -90.5 221.5t-238.5 83.5q-155 0 -248.5 -106.5t-93.5 -278.5v-1028h-62z" />
    <glyph glyph-name="agrave" unicode="&#xe0;" 
d="M547 1249l-164 238h70l147 -238h-53zM479 -25q-157 0 -252.5 79.5t-95.5 211.5q0 118 89 194t241 105l424 82q0 209 -79 305.5t-241 96.5q-147 0 -236 -75t-112 -216l-67 6q28 166 135 256t280 90q184 0 282.5 -110.5t98.5 -331.5v-459q0 -87 23 -117.5t75 -30.5h62v-61
q-24 -4 -70 -4q-75 0 -112 45t-43 170q-48 -102 -155 -169t-247 -67zM479 37q180 0 293 108t113 273v170l-406 -80q-282 -57 -282 -238q0 -113 73 -173t209 -60z" />
    <glyph glyph-name="aacute" unicode="&#xe1;" 
d="M537 1249l147 238h70l-164 -238h-53zM479 -25q-157 0 -252.5 79.5t-95.5 211.5q0 118 89 194t241 105l424 82q0 209 -79 305.5t-241 96.5q-147 0 -236 -75t-112 -216l-67 6q28 166 135 256t280 90q184 0 282.5 -110.5t98.5 -331.5v-459q0 -87 23 -117.5t75 -30.5h62v-61
q-24 -4 -70 -4q-75 0 -112 45t-43 170q-48 -102 -155 -169t-247 -67zM479 37q180 0 293 108t113 273v170l-406 -80q-282 -57 -282 -238q0 -113 73 -173t209 -60z" />
    <glyph glyph-name="acircumflex" unicode="&#xe2;" 
d="M365 1249l182 254h45l182 -254h-57l-148 203l-147 -203h-57zM479 -25q-157 0 -252.5 79.5t-95.5 211.5q0 118 89 194t241 105l424 82q0 209 -79 305.5t-241 96.5q-147 0 -236 -75t-112 -216l-67 6q28 166 135 256t280 90q184 0 282.5 -110.5t98.5 -331.5v-459
q0 -87 23 -117.5t75 -30.5h62v-61q-24 -4 -70 -4q-75 0 -112 45t-43 170q-48 -102 -155 -169t-247 -67zM479 37q180 0 293 108t113 273v170l-406 -80q-282 -57 -282 -238q0 -113 73 -173t209 -60z" />
    <glyph glyph-name="atilde" unicode="&#xe3;" 
d="M696 1290q-41 0 -70.5 16t-60.5 50q-27 30 -51 43.5t-59 13.5q-97 0 -103 -133h-53q6 85 48.5 133.5t107.5 48.5q46 0 79 -18.5t68 -54.5q50 -50 94 -50q40 0 62 33.5t28 108.5h54q-6 -90 -43 -140.5t-101 -50.5zM479 -25q-157 0 -252.5 79.5t-95.5 211.5q0 118 89 194
t241 105l424 82q0 209 -79 305.5t-241 96.5q-147 0 -236 -75t-112 -216l-67 6q28 166 135 256t280 90q184 0 282.5 -110.5t98.5 -331.5v-459q0 -87 23 -117.5t75 -30.5h62v-61q-24 -4 -70 -4q-75 0 -112 45t-43 170q-48 -102 -155 -169t-247 -67zM479 37q180 0 293 108
t113 273v170l-406 -80q-282 -57 -282 -238q0 -113 73 -173t209 -60z" />
    <glyph glyph-name="adieresis" unicode="&#xe4;" 
d="M362 1286v144h70v-144h-70zM702 1286v144h70v-144h-70zM479 -25q-157 0 -252.5 79.5t-95.5 211.5q0 118 89 194t241 105l424 82q0 209 -79 305.5t-241 96.5q-147 0 -236 -75t-112 -216l-67 6q28 166 135 256t280 90q184 0 282.5 -110.5t98.5 -331.5v-459q0 -87 23 -117.5
t75 -30.5h62v-61q-24 -4 -70 -4q-75 0 -112 45t-43 170q-48 -102 -155 -169t-247 -67zM479 37q180 0 293 108t113 273v170l-406 -80q-282 -57 -282 -238q0 -113 73 -173t209 -60z" />
    <glyph glyph-name="aring" unicode="&#xe5;" 
d="M567 1212q-65 0 -106 41t-41 105q0 63 41.5 104t105.5 41q63 0 105.5 -41t42.5 -104t-42 -104.5t-106 -41.5zM567 1264q43 0 69 25.5t26 68.5q0 42 -26 67t-69 25t-68.5 -24.5t-25.5 -67.5t25.5 -68.5t68.5 -25.5zM479 -25q-157 0 -252.5 79.5t-95.5 211.5q0 118 89 194
t241 105l424 82q0 209 -79 305.5t-241 96.5q-147 0 -236 -75t-112 -216l-67 6q28 166 135 256t280 90q184 0 282.5 -110.5t98.5 -331.5v-459q0 -87 23 -117.5t75 -30.5h62v-61q-24 -4 -70 -4q-75 0 -112 45t-43 170q-48 -102 -155 -169t-247 -67zM479 37q180 0 293 108
t113 273v170l-406 -80q-282 -57 -282 -238q0 -113 73 -173t209 -60z" />
    <glyph glyph-name="ae" unicode="&#xe6;" 
d="M276 -25q-112 0 -173.5 77t-61.5 216q0 113 72.5 190.5t201.5 102.5l230 43q0 207 -54 326t-155 119q-92 0 -146.5 -75t-68.5 -216l-66 6q22 174 91 260t190 86q198 0 254 -244q77 244 284 244q152 0 233 -139.5t81 -417.5v-21h-578q3 -258 64.5 -376.5t191.5 -118.5
q96 0 156.5 62t97.5 198l66 -4q-73 -318 -320 -318q-229 0 -293 289q-28 -138 -104 -213.5t-193 -75.5zM610 590h512q0 207 -66 333t-182 126q-120 0 -188 -122t-76 -337zM287 37q120 0 189 113t69 299v92l-205 -37q-113 -20 -172 -81t-59 -155q0 -115 46.5 -173t131.5 -58z
" />
    <glyph glyph-name="ccedilla" unicode="&#xe7;" 
d="M627 -418q-76 0 -127 32t-70 91l49 21q27 -91 144 -91q139 0 139 111q0 55 -40.5 81t-135.5 26l-29 36l45 88q-102 8 -182.5 56.5t-131.5 125.5t-77.5 175t-26.5 209q0 117 29.5 218.5t85.5 180t145 123.5t201 45q161 0 267.5 -99.5t148.5 -262.5l-66 -5
q-37 146 -127 226t-223 80q-182 0 -288.5 -136.5t-106.5 -369.5t106.5 -369.5t288.5 -136.5q135 0 229 87t125 241l66 -7q-38 -170 -143.5 -274.5t-264.5 -108.5l-39 -73q201 -6 201 -160q0 -75 -52 -117.5t-140 -42.5z" />
    <glyph glyph-name="egrave" unicode="&#xe8;" 
d="M602 1249l-164 238h70l147 -238h-53zM635 -25q-113 0 -204 45.5t-148.5 124t-88 180t-30.5 218.5q0 93 18.5 177t56.5 155.5t92 123.5t130 81.5t166 29.5q113 0 202 -44.5t144 -121.5t83.5 -175.5t28.5 -211.5v-25h-856q3 -229 113 -362t293 -133q141 0 233 69.5
t127 190.5l68 -4q-41 -143 -154 -230.5t-274 -87.5zM229 590h789q-6 213 -107.5 336t-283.5 123q-172 0 -280 -123t-118 -336z" />
    <glyph glyph-name="eacute" unicode="&#xe9;" 
d="M592 1249l147 238h70l-164 -238h-53zM635 -25q-113 0 -204 45.5t-148.5 124t-88 180t-30.5 218.5q0 93 18.5 177t56.5 155.5t92 123.5t130 81.5t166 29.5q113 0 202 -44.5t144 -121.5t83.5 -175.5t28.5 -211.5v-25h-856q3 -229 113 -362t293 -133q141 0 233 69.5
t127 190.5l68 -4q-41 -143 -154 -230.5t-274 -87.5zM229 590h789q-6 213 -107.5 336t-283.5 123q-172 0 -280 -123t-118 -336z" />
    <glyph glyph-name="ecircumflex" unicode="&#xea;" 
d="M420 1249l182 254h45l182 -254h-57l-147 203l-148 -203h-57zM635 -25q-113 0 -204 45.5t-148.5 124t-88 180t-30.5 218.5q0 93 18.5 177t56.5 155.5t92 123.5t130 81.5t166 29.5q113 0 202 -44.5t144 -121.5t83.5 -175.5t28.5 -211.5v-25h-856q3 -229 113 -362t293 -133
q141 0 233 69.5t127 190.5l68 -4q-41 -143 -154 -230.5t-274 -87.5zM229 590h789q-6 213 -107.5 336t-283.5 123q-172 0 -280 -123t-118 -336z" />
    <glyph glyph-name="edieresis" unicode="&#xeb;" 
d="M418 1286v144h69v-144h-69zM758 1286v144h69v-144h-69zM635 -25q-113 0 -204 45.5t-148.5 124t-88 180t-30.5 218.5q0 93 18.5 177t56.5 155.5t92 123.5t130 81.5t166 29.5q113 0 202 -44.5t144 -121.5t83.5 -175.5t28.5 -211.5v-25h-856q3 -229 113 -362t293 -133
q141 0 233 69.5t127 190.5l68 -4q-41 -143 -154 -230.5t-274 -87.5zM229 590h789q-6 213 -107.5 336t-283.5 123q-172 0 -280 -123t-118 -336z" />
    <glyph glyph-name="igrave" unicode="&#xec;" 
d="M664 1249l-164 238h69l148 -238h-53zM205 0v57h450v971h-430v57h492v-1028h389v-57h-901z" />
    <glyph glyph-name="iacute" unicode="&#xed;" 
d="M653 1249l148 238h69l-163 -238h-54zM205 0v57h450v971h-430v57h492v-1028h389v-57h-901z" />
    <glyph glyph-name="icircumflex" unicode="&#xee;" 
d="M481 1249l183 254h45l182 -254h-57l-148 203l-147 -203h-58zM205 0v57h450v971h-430v57h492v-1028h389v-57h-901z" />
    <glyph glyph-name="idieresis" unicode="&#xef;" 
d="M479 1286v144h70v-144h-70zM819 1286v144h70v-144h-70zM205 0v57h450v971h-430v57h492v-1028h389v-57h-901z" />
    <glyph glyph-name="eth" unicode="&#xf0;" 
d="M604 -25q-209 0 -335 141.5t-126 385.5t126 385t335 141q122 0 220 -54.5t159 -150.5q-51 275 -215 418l-252 -90l-20 57l217 78q-139 95 -348 135l20 58q242 -55 391 -170l330 118l20 -57l-297 -106q126 -120 181 -302t55 -440q0 -257 -125.5 -402t-335.5 -145zM604 37
q185 0 290 127t105 358q0 203 -106.5 324t-288.5 121q-184 0 -289.5 -123.5t-105.5 -341.5t105.5 -341.5t289.5 -123.5z" />
    <glyph glyph-name="ntilde" unicode="&#xf1;" 
d="M741 1290q-41 0 -70.5 16t-60.5 50q-27 30 -51 43.5t-59 13.5q-97 0 -103 -133h-53q6 85 48.5 133.5t107.5 48.5q46 0 79 -18.5t68 -54.5q50 -50 94 -50q40 0 62 33.5t28 108.5h54q-6 -90 -43 -140.5t-101 -50.5zM213 0v1085h57l4 -243q31 129 135 198.5t242 69.5
q177 0 271 -115.5t94 -296.5v-698h-62v649q0 185 -77 292.5t-238 107.5q-167 0 -266 -111.5t-99 -288.5v-649h-61z" />
    <glyph glyph-name="ograve" unicode="&#xf2;" 
d="M592 1249l-164 238h70l147 -238h-53zM614 -25q-211 0 -332.5 153t-121.5 415t121.5 414.5t332.5 152.5q212 0 333.5 -152.5t121.5 -414.5t-122 -415t-333 -153zM614 37q182 0 286 136t104 370t-104 370t-286 136t-285.5 -136t-103.5 -370t103.5 -370t285.5 -136z" />
    <glyph glyph-name="oacute" unicode="&#xf3;" 
d="M582 1249l147 238h70l-164 -238h-53zM614 -25q-211 0 -332.5 153t-121.5 415t121.5 414.5t332.5 152.5q212 0 333.5 -152.5t121.5 -414.5t-122 -415t-333 -153zM614 37q182 0 286 136t104 370t-104 370t-286 136t-285.5 -136t-103.5 -370t103.5 -370t285.5 -136z" />
    <glyph glyph-name="ocircumflex" unicode="&#xf4;" 
d="M410 1249l182 254h45l182 -254h-57l-148 203l-147 -203h-57zM614 -25q-211 0 -332.5 153t-121.5 415t121.5 414.5t332.5 152.5q212 0 333.5 -152.5t121.5 -414.5t-122 -415t-333 -153zM614 37q182 0 286 136t104 370t-104 370t-286 136t-285.5 -136t-103.5 -370
t103.5 -370t285.5 -136z" />
    <glyph glyph-name="otilde" unicode="&#xf5;" 
d="M741 1290q-41 0 -70.5 16t-60.5 50q-27 30 -51 43.5t-59 13.5q-97 0 -103 -133h-53q6 85 48.5 133.5t107.5 48.5q46 0 79 -18.5t68 -54.5q50 -50 94 -50q40 0 62 33.5t28 108.5h54q-6 -90 -43 -140.5t-101 -50.5zM614 -25q-211 0 -332.5 153t-121.5 415t121.5 414.5
t332.5 152.5q212 0 333.5 -152.5t121.5 -414.5t-122 -415t-333 -153zM614 37q182 0 286 136t104 370t-104 370t-286 136t-285.5 -136t-103.5 -370t103.5 -370t285.5 -136z" />
    <glyph glyph-name="odieresis" unicode="&#xf6;" 
d="M408 1286v144h69v-144h-69zM748 1286v144h69v-144h-69zM614 -25q-211 0 -332.5 153t-121.5 415t121.5 414.5t332.5 152.5q212 0 333.5 -152.5t121.5 -414.5t-122 -415t-333 -153zM614 37q182 0 286 136t104 370t-104 370t-286 136t-285.5 -136t-103.5 -370t103.5 -370
t285.5 -136z" />
    <glyph glyph-name="divide" unicode="&#xf7;" 
d="M614 840q-30 0 -49.5 19.5t-19.5 49.5q0 31 19 50.5t50 19.5t50.5 -19.5t19.5 -50.5q0 -29 -20 -49t-50 -20zM164 532v62h901v-62h-901zM614 139q-30 0 -49.5 20t-19.5 50q0 31 19 50.5t50 19.5t50.5 -19.5t19.5 -50.5q0 -30 -20 -50t-50 -20z" />
    <glyph glyph-name="oslash" unicode="&#xf8;" 
d="M205 -29l92 140q-137 153 -137 432q0 262 121.5 414.5t332.5 152.5q171 0 283 -100l70 104h57l-92 -139q137 -153 137 -432q0 -262 -122 -415t-333 -153q-169 0 -282 101l-70 -105h-57zM225 543q0 -240 109 -377l528 790q-104 93 -248 93q-182 0 -285.5 -136t-103.5 -370
zM614 37q182 0 286 136t104 370q0 240 -109 377l-528 -791q103 -92 247 -92z" />
    <glyph glyph-name="ugrave" unicode="&#xf9;" 
d="M578 1249l-164 238h69l148 -238h-53zM561 -25q-164 0 -260 110t-96 302v698h61v-671q0 -185 80 -281t232 -96q163 0 259.5 108t96.5 291v649h61v-1085h-53l-4 244q-31 -128 -129.5 -198.5t-247.5 -70.5z" />
    <glyph glyph-name="uacute" unicode="&#xfa;" 
d="M567 1249l148 238h69l-163 -238h-54zM561 -25q-164 0 -260 110t-96 302v698h61v-671q0 -185 80 -281t232 -96q163 0 259.5 108t96.5 291v649h61v-1085h-53l-4 244q-31 -128 -129.5 -198.5t-247.5 -70.5z" />
    <glyph glyph-name="ucircumflex" unicode="&#xfb;" 
d="M395 1249l183 254h45l182 -254h-57l-148 203l-147 -203h-58zM561 -25q-164 0 -260 110t-96 302v698h61v-671q0 -185 80 -281t232 -96q163 0 259.5 108t96.5 291v649h61v-1085h-53l-4 244q-31 -128 -129.5 -198.5t-247.5 -70.5z" />
    <glyph glyph-name="udieresis" unicode="&#xfc;" 
d="M393 1286v144h70v-144h-70zM733 1286v144h70v-144h-70zM561 -25q-164 0 -260 110t-96 302v698h61v-671q0 -185 80 -281t232 -96q163 0 259.5 108t96.5 291v649h61v-1085h-53l-4 244q-31 -128 -129.5 -198.5t-247.5 -70.5z" />
    <glyph glyph-name="yacute" unicode="&#xfd;" 
d="M602 1249l148 238h69l-164 -238h-53zM293 -307v57h82q87 0 128 30t72 114l48 126h-33l-430 1065h65l410 -1024l381 1024h65l-456 -1216q-37 -98 -91.5 -137t-158.5 -39h-82z" />
    <glyph glyph-name="thorn" unicode="&#xfe;" 
d="M174 -307v1761h66v-649q43 138 146.5 218.5t227.5 80.5q209 0 332 -151.5t123 -409.5q0 -261 -123 -414.5t-332 -153.5q-119 0 -217.5 74t-156.5 213v-569h-66zM623 35q178 0 282.5 137t104.5 371q0 230 -104 364.5t-283 134.5q-161 0 -272 -144t-111 -355
q0 -214 111 -361t272 -147z" />
    <glyph glyph-name="ydieresis" unicode="&#xff;" 
d="M428 1286v144h70v-144h-70zM768 1286v144h70v-144h-70zM293 -307v57h82q87 0 128 30t72 114l48 126h-33l-430 1065h65l410 -1024l381 1024h65l-456 -1216q-37 -98 -91.5 -137t-158.5 -39h-82z" />
    <glyph glyph-name="Amacron" unicode="&#x100;" 
d="M360 1688v57h508v-57h-508zM98 0l477 1454h78l477 -1454h-67l-156 481h-585l-156 -481h-68zM614 1389l-272 -846h545z" />
    <glyph glyph-name="amacron" unicode="&#x101;" 
d="M315 1319v57h508v-57h-508zM479 -25q-157 0 -252.5 79.5t-95.5 211.5q0 118 89 194t241 105l424 82q0 209 -79 305.5t-241 96.5q-147 0 -236 -75t-112 -216l-67 6q28 166 135 256t280 90q184 0 282.5 -110.5t98.5 -331.5v-459q0 -87 23 -117.5t75 -30.5h62v-61
q-24 -4 -70 -4q-75 0 -112 45t-43 170q-48 -102 -155 -169t-247 -67zM479 37q180 0 293 108t113 273v170l-406 -80q-282 -57 -282 -238q0 -113 73 -173t209 -60z" />
    <glyph glyph-name="Abreve" unicode="&#x102;" 
d="M614 1634q-105 0 -172 64.5t-82 173.5h54q12 -87 65.5 -133.5t134.5 -46.5q82 0 135.5 46.5t65.5 133.5h53q-15 -109 -82 -173.5t-172 -64.5zM98 0l477 1454h78l477 -1454h-67l-156 481h-585l-156 -481h-68zM614 1389l-272 -846h545z" />
    <glyph glyph-name="abreve" unicode="&#x103;" 
d="M569 1266q-106 0 -172.5 64t-81.5 173h54q12 -87 65.5 -133.5t134.5 -46.5q82 0 135.5 46.5t65.5 133.5h53q-15 -109 -81.5 -173t-172.5 -64zM479 -25q-157 0 -252.5 79.5t-95.5 211.5q0 118 89 194t241 105l424 82q0 209 -79 305.5t-241 96.5q-147 0 -236 -75t-112 -216
l-67 6q28 166 135 256t280 90q184 0 282.5 -110.5t98.5 -331.5v-459q0 -87 23 -117.5t75 -30.5h62v-61q-24 -4 -70 -4q-75 0 -112 45t-43 170q-48 -102 -155 -169t-247 -67zM479 37q180 0 293 108t113 273v170l-406 -80q-282 -57 -282 -238q0 -113 73 -173t209 -60z" />
    <glyph glyph-name="Aogonek" unicode="&#x104;" 
d="M98 0l477 1454h78l477 -1454l-49 -74q-73 -105 -73 -176q0 -44 23 -67t59 -23q55 0 98 31l29 -45q-58 -39 -127 -39q-63 0 -103.5 32t-40.5 99q0 85 86 205l41 57h-10l-156 481h-585l-156 -481h-68zM614 1389l-272 -846h545z" />
    <glyph glyph-name="aogonek" unicode="&#x105;" 
d="M479 -25q-157 0 -252.5 79.5t-95.5 211.5q0 118 89 194t241 105l424 82q0 209 -79 305.5t-241 96.5q-147 0 -236 -75t-112 -216l-67 6q28 166 135 256t280 90q184 0 282.5 -110.5t98.5 -331.5v-459q0 -87 23 -117.5t75 -30.5h62v-61l-49 -74q-74 -106 -74 -176
q0 -44 23 -67t59 -23q55 0 98 31l29 -45q-58 -39 -127 -39q-63 0 -103 32t-40 99q0 85 86 205l36 53h-8q-75 0 -112 45t-43 170q-48 -102 -155 -169t-247 -67zM479 37q180 0 293 108t113 273v170l-406 -80q-282 -57 -282 -238q0 -113 73 -173t209 -60z" />
    <glyph glyph-name="Cacute" unicode="&#x106;" 
d="M590 1618l147 237h70l-164 -237h-53zM623 -33q-234 0 -379.5 206.5t-145.5 551.5q0 348 146 555t379 207q190 0 309 -120.5t166 -346.5l-70 -8q-37 197 -141.5 303t-263.5 106q-197 0 -326 -190.5t-129 -505.5q0 -314 129 -503t326 -189q162 0 271.5 112.5t145.5 325.5
l70 -8q-44 -231 -170.5 -363.5t-316.5 -132.5z" />
    <glyph glyph-name="cacute" unicode="&#x107;" 
d="M610 1249l148 238h69l-163 -238h-54zM645 -25q-148 0 -254.5 79t-156.5 205.5t-50 283.5q0 117 29.5 218.5t85.5 180t145 123.5t201 45q161 0 267.5 -99.5t148.5 -262.5l-66 -5q-37 146 -127 226t-223 80q-182 0 -288.5 -136.5t-106.5 -369.5t106.5 -369.5t288.5 -136.5
q135 0 229 87t125 241l66 -7q-38 -173 -147.5 -278t-272.5 -105z" />
    <glyph glyph-name="Ccircumflex" unicode="&#x108;" 
d="M418 1618l182 254h45l182 -254h-57l-147 203l-148 -203h-57zM623 -33q-234 0 -379.5 206.5t-145.5 551.5q0 348 146 555t379 207q190 0 309 -120.5t166 -346.5l-70 -8q-37 197 -141.5 303t-263.5 106q-197 0 -326 -190.5t-129 -505.5q0 -314 129 -503t326 -189
q162 0 271.5 112.5t145.5 325.5l70 -8q-44 -231 -170.5 -363.5t-316.5 -132.5z" />
    <glyph glyph-name="ccircumflex" unicode="&#x109;" 
d="M438 1249l183 254h45l182 -254h-57l-148 203l-147 -203h-58zM645 -25q-148 0 -254.5 79t-156.5 205.5t-50 283.5q0 117 29.5 218.5t85.5 180t145 123.5t201 45q161 0 267.5 -99.5t148.5 -262.5l-66 -5q-37 146 -127 226t-223 80q-182 0 -288.5 -136.5t-106.5 -369.5
t106.5 -369.5t288.5 -136.5q135 0 229 87t125 241l66 -7q-38 -173 -147.5 -278t-272.5 -105z" />
    <glyph glyph-name="Cdotaccent" unicode="&#x10a;" 
d="M588 1655v143h69v-143h-69zM623 -33q-234 0 -379.5 206.5t-145.5 551.5q0 348 146 555t379 207q190 0 309 -120.5t166 -346.5l-70 -8q-37 197 -141.5 303t-263.5 106q-197 0 -326 -190.5t-129 -505.5q0 -314 129 -503t326 -189q162 0 271.5 112.5t145.5 325.5l70 -8
q-44 -231 -170.5 -363.5t-316.5 -132.5z" />
    <glyph glyph-name="cdotaccent" unicode="&#x10b;" 
d="M608 1286v144h70v-144h-70zM645 -25q-148 0 -254.5 79t-156.5 205.5t-50 283.5q0 117 29.5 218.5t85.5 180t145 123.5t201 45q161 0 267.5 -99.5t148.5 -262.5l-66 -5q-37 146 -127 226t-223 80q-182 0 -288.5 -136.5t-106.5 -369.5t106.5 -369.5t288.5 -136.5
q135 0 229 87t125 241l66 -7q-38 -173 -147.5 -278t-272.5 -105z" />
    <glyph glyph-name="Ccaron" unicode="&#x10c;" 
d="M418 1872h57l148 -203l147 203h57l-182 -254h-45zM623 -33q-234 0 -379.5 206.5t-145.5 551.5q0 348 146 555t379 207q190 0 309 -120.5t166 -346.5l-70 -8q-37 197 -141.5 303t-263.5 106q-197 0 -326 -190.5t-129 -505.5q0 -314 129 -503t326 -189q162 0 271.5 112.5
t145.5 325.5l70 -8q-44 -231 -170.5 -363.5t-316.5 -132.5z" />
    <glyph glyph-name="ccaron" unicode="&#x10d;" 
d="M438 1503h58l147 -203l148 203h57l-182 -254h-45zM645 -25q-148 0 -254.5 79t-156.5 205.5t-50 283.5q0 117 29.5 218.5t85.5 180t145 123.5t201 45q161 0 267.5 -99.5t148.5 -262.5l-66 -5q-37 146 -127 226t-223 80q-182 0 -288.5 -136.5t-106.5 -369.5t106.5 -369.5
t288.5 -136.5q135 0 229 87t125 241l66 -7q-38 -173 -147.5 -278t-272.5 -105z" />
    <glyph glyph-name="Dcaron" unicode="&#x10e;" 
d="M410 1872h57l147 -203l148 203h57l-182 -254h-45zM205 0v1454h287q304 0 471 -191t167 -538t-166.5 -536t-471.5 -189h-287zM270 61h213q279 0 428.5 171t149.5 493t-150.5 495t-427.5 173h-213v-1332z" />
    <glyph glyph-name="dcaron" unicode="&#x10f;" 
d="M514 -25q-207 0 -319.5 152t-112.5 416q0 262 113 414.5t319 152.5q125 0 224 -81t143 -210v635h61v-1454h-45l-6 274q-46 -130 -147 -214.5t-230 -84.5zM1040 1028l70 426h78l-94 -426h-54zM514 37q162 0 264.5 141t102.5 365q0 220 -103 363t-264 143
q-176 0 -271.5 -136t-95.5 -370q0 -236 95.5 -371t271.5 -135z" />
    <glyph glyph-name="Dcroat" unicode="&#x110;" 
d="M205 0v696h-164v62h164v696h287q304 0 471 -191t167 -538t-166.5 -536t-471.5 -189h-287zM270 61h213q279 0 428.5 171t149.5 493t-150.5 495t-427.5 173h-213v-635h467v-62h-467v-635z" />
    <glyph glyph-name="dcroat" unicode="&#x111;" 
d="M565 -25q-209 0 -330.5 153.5t-121.5 414.5q0 259 122 413t330 154q132 0 232.5 -80.5t144.5 -210.5v420h-303v53h303v162h62v-162h167v-53h-167v-1239h-46l-6 274q-47 -131 -149.5 -215t-237.5 -84zM565 37q168 0 272.5 140.5t104.5 365.5q0 221 -104.5 363.5
t-272.5 142.5q-178 0 -282.5 -137.5t-104.5 -368.5q0 -233 104.5 -369.5t282.5 -136.5z" />
    <glyph glyph-name="Emacron" unicode="&#x112;" 
d="M373 1688v57h508v-57h-508zM205 0v1454h844v-61h-779v-637h754v-62h-754v-633h795v-61h-860z" />
    <glyph glyph-name="emacron" unicode="&#x113;" 
d="M371 1319v57h508v-57h-508zM635 -25q-113 0 -204 45.5t-148.5 124t-88 180t-30.5 218.5q0 93 18.5 177t56.5 155.5t92 123.5t130 81.5t166 29.5q113 0 202 -44.5t144 -121.5t83.5 -175.5t28.5 -211.5v-25h-856q3 -229 113 -362t293 -133q141 0 233 69.5t127 190.5l68 -4
q-41 -143 -154 -230.5t-274 -87.5zM229 590h789q-6 213 -107.5 336t-283.5 123q-172 0 -280 -123t-118 -336z" />
    <glyph glyph-name="Edotaccent" unicode="&#x116;" 
d="M592 1655v143h70v-143h-70zM205 0v1454h844v-61h-779v-637h754v-62h-754v-633h795v-61h-860z" />
    <glyph glyph-name="edotaccent" unicode="&#x117;" 
d="M590 1286v144h69v-144h-69zM635 -25q-113 0 -204 45.5t-148.5 124t-88 180t-30.5 218.5q0 93 18.5 177t56.5 155.5t92 123.5t130 81.5t166 29.5q113 0 202 -44.5t144 -121.5t83.5 -175.5t28.5 -211.5v-25h-856q3 -229 113 -362t293 -133q141 0 233 69.5t127 190.5l68 -4
q-41 -143 -154 -230.5t-274 -87.5zM229 590h789q-6 213 -107.5 336t-283.5 123q-172 0 -280 -123t-118 -336z" />
    <glyph glyph-name="Eogonek" unicode="&#x118;" 
d="M205 0v1454h844v-61h-779v-637h754v-62h-754v-633h795v-61h-6l-49 -74q-74 -106 -74 -176q0 -44 23 -67t59 -23q55 0 98 31l29 -45q-58 -39 -127 -39q-63 0 -103.5 32t-40.5 99q0 84 87 205l40 57h-796z" />
    <glyph glyph-name="eogonek" unicode="&#x119;" 
d="M635 -25q-113 0 -204 45.5t-148.5 124t-88 180t-30.5 218.5q0 93 18.5 177t56.5 155.5t92 123.5t130 81.5t166 29.5q113 0 202 -44.5t144 -121.5t83.5 -175.5t28.5 -211.5v-25h-856q3 -229 113 -362t293 -133q141 0 233 69.5t127 190.5l68 -4q-45 -155 -170 -242l-49 -74
q-74 -106 -74 -176q0 -44 23 -67t59 -23q55 0 98 31l29 -45q-58 -39 -127 -39q-63 0 -103 32t-40 99q0 85 86 205l8 10q-82 -29 -168 -29zM229 590h789q-6 213 -107.5 336t-283.5 123q-172 0 -280 -123t-118 -336z" />
    <glyph glyph-name="Ecaron" unicode="&#x11a;" 
d="M422 1872h57l148 -203l147 203h57l-182 -254h-45zM205 0v1454h844v-61h-779v-637h754v-62h-754v-633h795v-61h-860z" />
    <glyph glyph-name="ecaron" unicode="&#x11b;" 
d="M420 1503h57l148 -203l147 203h57l-182 -254h-45zM635 -25q-113 0 -204 45.5t-148.5 124t-88 180t-30.5 218.5q0 93 18.5 177t56.5 155.5t92 123.5t130 81.5t166 29.5q113 0 202 -44.5t144 -121.5t83.5 -175.5t28.5 -211.5v-25h-856q3 -229 113 -362t293 -133
q141 0 233 69.5t127 190.5l68 -4q-41 -143 -154 -230.5t-274 -87.5zM229 590h789q-6 213 -107.5 336t-283.5 123q-172 0 -280 -123t-118 -336z" />
    <glyph glyph-name="Gcircumflex" unicode="&#x11c;" 
d="M397 1618l183 254h45l182 -254h-57l-148 203l-147 -203h-58zM614 -33q-239 0 -377.5 203t-138.5 555q0 224 64.5 397.5t182 269t269.5 95.5q383 0 484 -463l-70 -8q-43 202 -145 303.5t-269 101.5q-130 0 -231.5 -88t-158 -246.5t-56.5 -361.5q0 -318 122 -505t328 -187
q183 0 301.5 163.5t124.5 421.5h-421v58h483v-676h-57v371q-44 -183 -159.5 -293.5t-275.5 -110.5z" />
    <glyph glyph-name="gcircumflex" unicode="&#x11d;" 
d="M391 1249l182 254h45l183 -254h-58l-147 203l-147 -203h-58zM598 -332q-169 0 -282 90.5t-119 229.5l65 4q6 -118 96.5 -190t239.5 -72q177 0 276 101.5t99 285.5v209q-51 -127 -149 -201t-232 -74q-206 0 -327.5 143.5t-121.5 389.5q0 240 122 383t327 143
q136 0 236 -79.5t145 -207.5v262h61v-972q0 -207 -116.5 -326t-319.5 -119zM592 113q173 0 277 127.5t104 343.5q0 202 -105.5 333.5t-275.5 131.5q-175 0 -279 -126.5t-104 -338.5q0 -216 104 -343.5t279 -127.5z" />
    <glyph glyph-name="Gbreve" unicode="&#x11e;" 
d="M602 1634q-105 0 -172 64.5t-82 173.5h53q12 -87 65.5 -133.5t135.5 -46.5t135.5 46.5t65.5 133.5h53q-15 -109 -82 -173.5t-172 -64.5zM614 -33q-239 0 -377.5 203t-138.5 555q0 224 64.5 397.5t182 269t269.5 95.5q383 0 484 -463l-70 -8q-43 202 -145 303.5
t-269 101.5q-130 0 -231.5 -88t-158 -246.5t-56.5 -361.5q0 -318 122 -505t328 -187q183 0 301.5 163.5t124.5 421.5h-421v58h483v-676h-57v371q-44 -183 -159.5 -293.5t-275.5 -110.5z" />
    <glyph glyph-name="gbreve" unicode="&#x11f;" 
d="M596 1266q-106 0 -172.5 64t-81.5 173h53q12 -87 65.5 -133.5t135.5 -46.5t135.5 46.5t65.5 133.5h53q-15 -109 -81.5 -173t-172.5 -64zM598 -332q-169 0 -282 90.5t-119 229.5l65 4q6 -118 96.5 -190t239.5 -72q177 0 276 101.5t99 285.5v209q-51 -127 -149 -201
t-232 -74q-206 0 -327.5 143.5t-121.5 389.5q0 240 122 383t327 143q136 0 236 -79.5t145 -207.5v262h61v-972q0 -207 -116.5 -326t-319.5 -119zM592 113q173 0 277 127.5t104 343.5q0 202 -105.5 333.5t-275.5 131.5q-175 0 -279 -126.5t-104 -338.5q0 -216 104 -343.5
t279 -127.5z" />
    <glyph glyph-name="Gdotaccent" unicode="&#x120;" 
d="M567 1655v143h70v-143h-70zM614 -33q-239 0 -377.5 203t-138.5 555q0 224 64.5 397.5t182 269t269.5 95.5q383 0 484 -463l-70 -8q-43 202 -145 303.5t-269 101.5q-130 0 -231.5 -88t-158 -246.5t-56.5 -361.5q0 -318 122 -505t328 -187q183 0 301.5 163.5t124.5 421.5
h-421v58h483v-676h-57v371q-44 -183 -159.5 -293.5t-275.5 -110.5z" />
    <glyph glyph-name="gdotaccent" unicode="&#x121;" 
d="M561 1286v144h70v-144h-70zM598 -332q-169 0 -282 90.5t-119 229.5l65 4q6 -118 96.5 -190t239.5 -72q177 0 276 101.5t99 285.5v209q-51 -127 -149 -201t-232 -74q-206 0 -327.5 143.5t-121.5 389.5q0 240 122 383t327 143q136 0 236 -79.5t145 -207.5v262h61v-972
q0 -207 -116.5 -326t-319.5 -119zM592 113q173 0 277 127.5t104 343.5q0 202 -105.5 333.5t-275.5 131.5q-175 0 -279 -126.5t-104 -338.5q0 -216 104 -343.5t279 -127.5z" />
    <glyph glyph-name="uni0122" unicode="&#x122;" 
d="M614 -33q-239 0 -377.5 203t-138.5 555q0 224 64.5 397.5t182 269t269.5 95.5q383 0 484 -463l-70 -8q-43 202 -145 303.5t-269 101.5q-130 0 -231.5 -88t-158 -246.5t-56.5 -361.5q0 -318 122 -505t328 -187q183 0 301.5 163.5t124.5 421.5h-421v58h483v-676h-57v371
q-44 -183 -159.5 -293.5t-275.5 -110.5zM553 -346l74 153h-49v99h102v-88l-82 -164h-45z" />
    <glyph glyph-name="uni0123" unicode="&#x123;" 
d="M680 1518l-74 -154h49v-98h-102v88l82 164h45zM598 -332q-169 0 -282 90.5t-119 229.5l65 4q6 -118 96.5 -190t239.5 -72q177 0 276 101.5t99 285.5v209q-51 -127 -149 -201t-232 -74q-206 0 -327.5 143.5t-121.5 389.5q0 240 122 383t327 143q136 0 236 -79.5
t145 -207.5v262h61v-972q0 -207 -116.5 -326t-319.5 -119zM592 113q173 0 277 127.5t104 343.5q0 202 -105.5 333.5t-275.5 131.5q-175 0 -279 -126.5t-104 -338.5q0 -216 104 -343.5t279 -127.5z" />
    <glyph glyph-name="Hcircumflex" unicode="&#x124;" 
d="M410 1618l182 254h45l182 -254h-57l-148 203l-147 -203h-57zM164 0v1454h65v-678h770v678h66v-1454h-66v715h-770v-715h-65z" />
    <glyph glyph-name="hcircumflex" unicode="&#x125;" 
d="M72 1618l182 254h45l182 -254h-57l-148 203l-147 -203h-57zM246 0v1454h61v-610q28 128 131 197t242 69q118 0 200 -56t119 -147t37 -209v-698h-61v649q0 187 -75 293.5t-236 106.5q-166 0 -261.5 -111t-95.5 -289v-649h-61z" />
    <glyph glyph-name="Hbar" unicode="&#x126;" 
d="M164 0v1118h-103v58h103v278h65v-278h770v278h66v-278h102v-58h-102v-1118h-66v715h-770v-715h-65zM229 776h770v342h-770v-342z" />
    <glyph glyph-name="hbar" unicode="&#x127;" 
d="M246 0v1239h-164v53h164v162h61v-162h307v-53h-307v-395q28 128 131 197t242 69q118 0 200 -56t119 -147t37 -209v-698h-61v649q0 187 -75 293.5t-236 106.5q-166 0 -261.5 -111t-95.5 -289v-649h-61z" />
    <glyph glyph-name="Itilde" unicode="&#x128;" 
d="M741 1659q-41 0 -70.5 15.5t-60.5 49.5q-27 30 -51 44t-59 14q-97 0 -103 -133h-53q6 85 48.5 133.5t107.5 48.5q46 0 79 -18.5t68 -55.5q49 -49 94 -49q41 0 62.5 33t27.5 108h54q-6 -90 -43 -140t-101 -50zM184 0v61h398v1332h-398v61h860v-61h-397v-1332h397v-61h-860
z" />
    <glyph glyph-name="itilde" unicode="&#x129;" 
d="M813 1290q-41 0 -70.5 16t-60.5 50q-27 30 -51.5 43.5t-59.5 13.5q-96 0 -102 -133h-53q6 85 48 133.5t107 48.5q46 0 79.5 -18.5t68.5 -54.5q50 -50 94 -50q40 0 62 33.5t28 108.5h53q-6 -91 -42.5 -141t-100.5 -50zM205 0v57h450v971h-430v57h492v-1028h389v-57h-901z
" />
    <glyph glyph-name="Imacron" unicode="&#x12a;" 
d="M360 1688v57h508v-57h-508zM184 0v61h398v1332h-398v61h860v-61h-397v-1332h397v-61h-860z" />
    <glyph glyph-name="imacron" unicode="&#x12b;" 
d="M432 1319v57h508v-57h-508zM205 0v57h450v971h-430v57h492v-1028h389v-57h-901z" />
    <glyph glyph-name="Iogonek" unicode="&#x12e;" 
d="M184 0v61h398v1332h-398v61h860v-61h-397v-1332h397v-61l-49 -74q-73 -105 -73 -176q0 -44 23 -67t59 -23q55 0 98 31l28 -45q-58 -39 -126 -39q-63 0 -103.5 32t-40.5 99q0 85 86 205l41 57h-803z" />
    <glyph glyph-name="iogonek" unicode="&#x12f;" 
d="M651 1286v144h70v-144h-70zM205 0v57h450v971h-430v57h492v-1028h389v-57l-49 -74q-74 -106 -74 -176q0 -44 23 -67t59 -23q55 0 98 31l29 -45q-58 -39 -127 -39q-63 0 -103 32t-40 99q0 85 86 205l41 57h-844z" />
    <glyph glyph-name="Idotaccent" unicode="&#x130;" 
d="M580 1655v143h69v-143h-69zM184 0v61h398v1332h-398v61h860v-61h-397v-1332h397v-61h-860z" />
    <glyph glyph-name="dotlessi" unicode="&#x131;" 
d="M205 0v57h450v971h-430v57h492v-1028h389v-57h-901z" />
    <glyph glyph-name="Jcircumflex" unicode="&#x134;" 
d="M786 1618l183 254h45l182 -254h-57l-148 203l-147 -203h-58zM557 -33q-200 0 -324.5 139t-130.5 369l70 8q6 -215 106.5 -332.5t278.5 -117.5q196 0 298.5 124.5t102.5 362.5v934h66v-934q0 -263 -122.5 -408t-344.5 -145z" />
    <glyph glyph-name="jcircumflex" unicode="&#x135;" 
d="M618 1249l183 254h45l182 -254h-57l-148 203l-147 -203h-58zM266 -307v57h299q119 0 176.5 61.5t57.5 188.5v1028h-533v57h594v-1085q0 -157 -72 -232t-223 -75h-299z" />
    <glyph glyph-name="uni0136" unicode="&#x136;" 
d="M164 0v1454h65v-889l797 889h78l-569 -635l591 -819h-77l-555 774l-265 -295v-479h-65zM526 -346l74 153h-49v99h102v-88l-82 -164h-45z" />
    <glyph glyph-name="uni0137" unicode="&#x137;" 
d="M233 0v1454h62v-1057l709 688h81l-481 -467l522 -618h-73l-490 582l-268 -263v-319h-62zM598 -346l74 153h-49v99h102v-88l-82 -164h-45z" />
    <glyph glyph-name="Lacute" unicode="&#x139;" 
d="M225 1618l148 237h69l-163 -237h-54zM225 0v1454h66v-1393h794v-61h-860z" />
    <glyph glyph-name="lacute" unicode="&#x13a;" 
d="M582 1618l147 237h70l-164 -237h-53zM164 0v57h450v1180q0 77 -41.5 118.5t-117.5 41.5h-250v57h246q104 0 164.5 -60.5t60.5 -164.5v-1172h389v-57h-901z" />
    <glyph glyph-name="uni013B" unicode="&#x13b;" 
d="M225 0v1454h66v-1393h794v-61h-860zM575 -346l74 153h-49v99h102v-88l-81 -164h-46z" />
    <glyph glyph-name="uni013C" unicode="&#x13c;" 
d="M164 0v57h450v1180q0 77 -41.5 118.5t-117.5 41.5h-250v57h246q104 0 164.5 -60.5t60.5 -164.5v-1172h389v-57h-901zM561 -346l74 153h-49v99h102v-88l-82 -164h-45z" />
    <glyph glyph-name="Lcaron" unicode="&#x13d;" 
d="M225 0v1454h66v-1393h794v-61h-860zM717 1028l69 426h78l-94 -426h-53z" />
    <glyph glyph-name="lcaron" unicode="&#x13e;" 
d="M164 0v57h450v1180q0 77 -41.5 118.5t-117.5 41.5h-250v57h246q104 0 164.5 -60.5t60.5 -164.5v-1172h389v-57h-901zM860 1028l70 426h78l-95 -426h-53z" />
    <glyph glyph-name="Lslash" unicode="&#x141;" 
d="M225 0v719l-149 -70v53l149 70v682h66v-653l248 114v-53l-248 -114v-687h794v-61h-860z" />
    <glyph glyph-name="lslash" unicode="&#x142;" 
d="M164 0v57h450v625l-225 -104v57l225 104v498q0 77 -41.5 118.5t-117.5 41.5h-250v57h246q104 0 164.5 -60.5t60.5 -164.5v-461l246 113v-58l-246 -112v-654h389v-57h-901z" />
    <glyph glyph-name="Nacute" unicode="&#x143;" 
d="M598 1618l147 237h70l-164 -237h-53zM164 0v1454h96l739 -1393v1393h66v-1454h-96l-740 1393v-1393h-65z" />
    <glyph glyph-name="nacute" unicode="&#x144;" 
d="M582 1249l147 238h70l-164 -238h-53zM213 0v1085h57l4 -243q31 129 135 198.5t242 69.5q177 0 271 -115.5t94 -296.5v-698h-62v649q0 185 -77 292.5t-238 107.5q-167 0 -266 -111.5t-99 -288.5v-649h-61z" />
    <glyph glyph-name="uni0145" unicode="&#x145;" 
d="M164 0v1454h96l739 -1393v1393h66v-1454h-96l-740 1393v-1393h-65zM561 -346l74 153h-49v99h102v-88l-82 -164h-45z" />
    <glyph glyph-name="uni0146" unicode="&#x146;" 
d="M213 0v1085h57l4 -243q31 129 135 198.5t242 69.5q177 0 271 -115.5t94 -296.5v-698h-62v649q0 185 -77 292.5t-238 107.5q-167 0 -266 -111.5t-99 -288.5v-649h-61zM541 -346l73 153h-49v99h103v-88l-82 -164h-45z" />
    <glyph glyph-name="Ncaron" unicode="&#x147;" 
d="M426 1872h57l148 -203l147 203h58l-183 -254h-45zM164 0v1454h96l739 -1393v1393h66v-1454h-96l-740 1393v-1393h-65z" />
    <glyph glyph-name="ncaron" unicode="&#x148;" 
d="M410 1503h57l147 -203l148 203h57l-182 -254h-45zM213 0v1085h57l4 -243q31 129 135 198.5t242 69.5q177 0 271 -115.5t94 -296.5v-698h-62v649q0 185 -77 292.5t-238 107.5q-167 0 -266 -111.5t-99 -288.5v-649h-61z" />
    <glyph glyph-name="Eng" unicode="&#x14a;" 
d="M164 0v1454h96l739 -1393v1393h66v-1515q0 -109 -68 -177.5t-186 -68.5h-199v61h199q86 0 137 47t51 138v61h-30l-740 1393v-1393h-65z" />
    <glyph glyph-name="eng" unicode="&#x14b;" 
d="M213 0v1085h57l4 -243q31 129 135 198.5t242 69.5q177 0 271 -115.5t94 -296.5v-759q0 -108 -71 -177t-183 -69h-156v61h160q83 0 135.5 51.5t52.5 133.5v710q0 185 -77 292.5t-238 107.5q-167 0 -266 -111.5t-99 -288.5v-649h-61z" />
    <glyph glyph-name="Omacron" unicode="&#x14c;" 
d="M360 1688v57h508v-57h-508zM614 -33q-239 0 -377.5 204.5t-138.5 553.5q0 352 138.5 557t377.5 205t377.5 -205t138.5 -557q0 -349 -138.5 -553.5t-377.5 -204.5zM614 33q213 0 330 184.5t117 507.5q0 324 -117 510t-330 186t-329.5 -185.5t-116.5 -510.5
q0 -323 116.5 -507.5t329.5 -184.5z" />
    <glyph glyph-name="omacron" unicode="&#x14d;" 
d="M360 1319v57h508v-57h-508zM614 -25q-211 0 -332.5 153t-121.5 415t121.5 414.5t332.5 152.5q212 0 333.5 -152.5t121.5 -414.5t-122 -415t-333 -153zM614 37q182 0 286 136t104 370t-104 370t-286 136t-285.5 -136t-103.5 -370t103.5 -370t285.5 -136z" />
    <glyph glyph-name="Ohungarumlaut" unicode="&#x150;" 
d="M430 1618l148 237h69l-164 -237h-53zM705 1618l147 237h70l-164 -237h-53zM614 -33q-239 0 -377.5 204.5t-138.5 553.5q0 352 138.5 557t377.5 205t377.5 -205t138.5 -557q0 -349 -138.5 -553.5t-377.5 -204.5zM614 33q213 0 330 184.5t117 507.5q0 324 -117 510
t-330 186t-329.5 -185.5t-116.5 -510.5q0 -323 116.5 -507.5t329.5 -184.5z" />
    <glyph glyph-name="ohungarumlaut" unicode="&#x151;" 
d="M430 1249l148 238h69l-164 -238h-53zM705 1249l147 238h70l-164 -238h-53zM614 -25q-211 0 -332.5 153t-121.5 415t121.5 414.5t332.5 152.5q212 0 333.5 -152.5t121.5 -414.5t-122 -415t-333 -153zM614 37q182 0 286 136t104 370t-104 370t-286 136t-285.5 -136
t-103.5 -370t103.5 -370t285.5 -136z" />
    <glyph glyph-name="OE" unicode="&#x152;" 
d="M358 -33q-338 0 -338 758q0 762 338 762q194 0 273 -264v231h561v-61h-496v-637h471v-62h-471v-633h512v-61h-577v229q-80 -262 -273 -262zM358 33q269 0 269 692q0 696 -269 696q-268 0 -268 -696q0 -692 268 -692z" />
    <glyph glyph-name="oe" unicode="&#x153;" 
d="M328 -25q-140 0 -215.5 147.5t-75.5 420.5t75.5 420t215.5 147q98 0 163.5 -75.5t94.5 -221.5q69 297 295 297q150 0 230.5 -144t80.5 -409v-25h-576q3 -258 66.5 -376.5t198.5 -118.5q90 0 148 62t95 198l66 -4q-73 -318 -309 -318q-233 0 -297 291q-29 -143 -94 -217
t-162 -74zM328 37q107 0 165 131.5t58 374.5t-58 374.5t-165 131.5q-109 0 -167.5 -131t-58.5 -375t58.5 -375t167.5 -131zM616 590h510q-15 459 -245 459q-119 0 -188.5 -120.5t-76.5 -338.5z" />
    <glyph glyph-name="Racute" unicode="&#x154;" 
d="M569 1618l148 237h69l-163 -237h-54zM176 0v1454h426q209 0 330 -107.5t121 -302.5q0 -147 -73.5 -240.5t-203.5 -129.5q104 -18 168.5 -80t73.5 -170l35 -424h-66l-33 412q-8 110 -80 167.5t-227 57.5h-405v-637h-66zM242 698h356q185 0 285 88t100 258q0 175 -99.5 264
t-285.5 89h-356v-699z" />
    <glyph glyph-name="racute" unicode="&#x155;" 
d="M621 1249l147 238h70l-164 -238h-53zM205 0v57h313v971h-313v57h362l8 -243q39 123 110 183t187 60h193v-61h-205q-120 0 -200 -105t-80 -247v-615h362v-57h-737z" />
    <glyph glyph-name="uni0156" unicode="&#x156;" 
d="M176 0v1454h426q209 0 330 -107.5t121 -302.5q0 -147 -73.5 -240.5t-203.5 -129.5q104 -18 168.5 -80t73.5 -170l35 -424h-66l-33 412q-8 110 -80 167.5t-227 57.5h-405v-637h-66zM242 698h356q185 0 285 88t100 258q0 175 -99.5 264t-285.5 89h-356v-699zM537 -346
l73 153h-49v99h103v-88l-82 -164h-45z" />
    <glyph glyph-name="uni0157" unicode="&#x157;" 
d="M205 0v57h313v971h-313v57h362l8 -243q39 123 110 183t187 60h193v-61h-205q-120 0 -200 -105t-80 -247v-615h362v-57h-737zM475 -346l74 153h-49v99h102v-88l-82 -164h-45z" />
    <glyph glyph-name="Rcaron" unicode="&#x158;" 
d="M397 1872h58l147 -203l148 203h57l-182 -254h-45zM176 0v1454h426q209 0 330 -107.5t121 -302.5q0 -147 -73.5 -240.5t-203.5 -129.5q104 -18 168.5 -80t73.5 -170l35 -424h-66l-33 412q-8 110 -80 167.5t-227 57.5h-405v-637h-66zM242 698h356q185 0 285 88t100 258
q0 175 -99.5 264t-285.5 89h-356v-699z" />
    <glyph glyph-name="rcaron" unicode="&#x159;" 
d="M449 1503h57l147 -203l148 203h57l-182 -254h-45zM205 0v57h313v971h-313v57h362l8 -243q39 123 110 183t187 60h193v-61h-205q-120 0 -200 -105t-80 -247v-615h362v-57h-737z" />
    <glyph glyph-name="Sacute" unicode="&#x15a;" 
d="M580 1618l147 237h70l-164 -237h-53zM633 -33q-140 0 -258.5 64.5t-187 175.5t-68.5 242l67 6q0 -112 58 -208.5t162 -155t231 -58.5q172 0 287.5 86.5t115.5 232.5q0 52 -12 93t-41.5 80t-81 71.5t-130.5 64t-189 60.5q-118 31 -193.5 62t-133.5 75.5t-83.5 105.5
t-25.5 146q0 162 122.5 269.5t327.5 107.5q110 0 201 -38.5t149 -102t89.5 -143t31.5 -163.5l-70 -6q0 106 -46.5 193t-140 140.5t-218.5 53.5q-171 0 -274 -87.5t-103 -227.5q0 -132 81 -198.5t306 -125.5q199 -52 309.5 -114.5t152.5 -136.5t42 -183q0 -113 -66 -201
t-174 -134t-237 -46z" />
    <glyph glyph-name="sacute" unicode="&#x15b;" 
d="M578 1249l147 238h70l-164 -238h-53zM637 -25q-203 0 -323.5 96t-129.5 246l64 9q6 -131 109.5 -210t279.5 -79q342 0 342 225q0 49 -12.5 81.5t-51 63.5t-115 54t-198.5 43q-94 15 -160.5 35t-109.5 44.5t-67.5 58t-34 70t-9.5 87.5q0 141 103.5 226t277.5 85
q175 0 280 -90.5t132 -231.5l-64 -12q-16 117 -105.5 195t-242.5 78q-149 0 -232 -65.5t-83 -184.5q0 -74 28 -117.5t101.5 -72.5t214.5 -50q233 -34 323 -101.5t90 -191.5q0 -141 -104.5 -216t-302.5 -75z" />
    <glyph glyph-name="Scircumflex" unicode="&#x15c;" 
d="M408 1618l182 254h45l182 -254h-57l-148 203l-147 -203h-57zM633 -33q-140 0 -258.5 64.5t-187 175.5t-68.5 242l67 6q0 -112 58 -208.5t162 -155t231 -58.5q172 0 287.5 86.5t115.5 232.5q0 52 -12 93t-41.5 80t-81 71.5t-130.5 64t-189 60.5q-118 31 -193.5 62
t-133.5 75.5t-83.5 105.5t-25.5 146q0 162 122.5 269.5t327.5 107.5q110 0 201 -38.5t149 -102t89.5 -143t31.5 -163.5l-70 -6q0 106 -46.5 193t-140 140.5t-218.5 53.5q-171 0 -274 -87.5t-103 -227.5q0 -132 81 -198.5t306 -125.5q199 -52 309.5 -114.5t152.5 -136.5
t42 -183q0 -113 -66 -201t-174 -134t-237 -46z" />
    <glyph glyph-name="scircumflex" unicode="&#x15d;" 
d="M406 1249l182 254h45l182 -254h-57l-148 203l-147 -203h-57zM637 -25q-203 0 -323.5 96t-129.5 246l64 9q6 -131 109.5 -210t279.5 -79q342 0 342 225q0 49 -12.5 81.5t-51 63.5t-115 54t-198.5 43q-94 15 -160.5 35t-109.5 44.5t-67.5 58t-34 70t-9.5 87.5
q0 141 103.5 226t277.5 85q175 0 280 -90.5t132 -231.5l-64 -12q-16 117 -105.5 195t-242.5 78q-149 0 -232 -65.5t-83 -184.5q0 -74 28 -117.5t101.5 -72.5t214.5 -50q233 -34 323 -101.5t90 -191.5q0 -141 -104.5 -216t-302.5 -75z" />
    <glyph glyph-name="Scedilla" unicode="&#x15e;" 
d="M633 -33h-10l-35 -65q200 -6 200 -160q0 -75 -52 -117.5t-140 -42.5q-76 0 -127 32t-70 91l50 21q27 -91 143 -91q139 0 139 111q0 55 -40.5 81t-135.5 26l-29 36l43 82q-191 22 -320.5 158t-129.5 320l67 6q0 -112 58 -208.5t162 -155t231 -58.5q172 0 287.5 86.5
t115.5 232.5q0 52 -12 93t-41.5 80t-81 71.5t-130.5 64t-189 60.5q-118 31 -193.5 62t-133.5 75.5t-83.5 105.5t-25.5 146q0 162 122.5 269.5t327.5 107.5q110 0 201 -38.5t149 -102t89.5 -143t31.5 -163.5l-70 -6q0 106 -46.5 193t-140 140.5t-218.5 53.5
q-171 0 -274 -87.5t-103 -227.5q0 -132 81 -198.5t306 -125.5q199 -52 309.5 -114.5t152.5 -136.5t42 -183q0 -113 -66 -201t-174 -134t-237 -46z" />
    <glyph glyph-name="scedilla" unicode="&#x15f;" 
d="M614 -418q-76 0 -126.5 32t-69.5 91l49 21q27 -91 143 -91q140 0 140 111q0 55 -41 81t-136 26l-28 36l45 88q-182 10 -289.5 104.5t-116.5 235.5l64 9q6 -131 109.5 -210t279.5 -79q342 0 342 225q0 49 -12.5 81.5t-51 63.5t-115 54t-198.5 43q-94 15 -160.5 35
t-109.5 44.5t-67.5 58t-34 70t-9.5 87.5q0 141 103.5 226t277.5 85q175 0 280 -90.5t132 -231.5l-64 -12q-16 117 -105.5 195t-242.5 78q-149 0 -232 -65.5t-83 -184.5q0 -74 28 -117.5t101.5 -72.5t214.5 -50q233 -34 323 -101.5t90 -191.5q0 -141 -103.5 -216t-295.5 -75
l-39 -73q201 -6 201 -160q0 -75 -52.5 -117.5t-140.5 -42.5z" />
    <glyph glyph-name="Scaron" unicode="&#x160;" 
d="M408 1872h57l147 -203l148 203h57l-182 -254h-45zM633 -33q-140 0 -258.5 64.5t-187 175.5t-68.5 242l67 6q0 -112 58 -208.5t162 -155t231 -58.5q172 0 287.5 86.5t115.5 232.5q0 52 -12 93t-41.5 80t-81 71.5t-130.5 64t-189 60.5q-118 31 -193.5 62t-133.5 75.5
t-83.5 105.5t-25.5 146q0 162 122.5 269.5t327.5 107.5q110 0 201 -38.5t149 -102t89.5 -143t31.5 -163.5l-70 -6q0 106 -46.5 193t-140 140.5t-218.5 53.5q-171 0 -274 -87.5t-103 -227.5q0 -132 81 -198.5t306 -125.5q199 -52 309.5 -114.5t152.5 -136.5t42 -183
q0 -113 -66 -201t-174 -134t-237 -46z" />
    <glyph glyph-name="scaron" unicode="&#x161;" 
d="M406 1503h57l147 -203l148 203h57l-182 -254h-45zM637 -25q-203 0 -323.5 96t-129.5 246l64 9q6 -131 109.5 -210t279.5 -79q342 0 342 225q0 49 -12.5 81.5t-51 63.5t-115 54t-198.5 43q-94 15 -160.5 35t-109.5 44.5t-67.5 58t-34 70t-9.5 87.5q0 141 103.5 226
t277.5 85q175 0 280 -90.5t132 -231.5l-64 -12q-16 117 -105.5 195t-242.5 78q-149 0 -232 -65.5t-83 -184.5q0 -74 28 -117.5t101.5 -72.5t214.5 -50q233 -34 323 -101.5t90 -191.5q0 -141 -104.5 -216t-302.5 -75z" />
    <glyph glyph-name="uni0162" unicode="&#x162;" 
d="M582 0v1393h-500v61h1065v-61h-500v-1393h-4l-53 -98q201 -6 201 -160q0 -75 -52.5 -117.5t-140.5 -42.5q-76 0 -127 32t-70 91l50 21q27 -91 143 -91q139 0 139 111q0 55 -40.5 81t-135.5 26l-29 36l58 111h-4z" />
    <glyph glyph-name="uni0163" unicode="&#x163;" 
d="M733 0q-107 0 -168 61t-61 168v799h-381v57h381v254h61v-254h459v-57h-459v-807q0 -78 42.5 -121t117.5 -43h299v-57h-217l-53 -98q200 -6 200 -160q0 -75 -52 -117.5t-140 -42.5q-76 0 -127 32t-70 91l49 21q27 -91 144 -91q139 0 139 111q0 55 -40.5 81t-135.5 26
l-29 36l58 111h-17z" />
    <glyph glyph-name="Tcaron" unicode="&#x164;" 
d="M410 1872h57l147 -203l148 203h57l-182 -254h-45zM582 0v1393h-500v61h1065v-61h-500v-1393h-65z" />
    <glyph glyph-name="tcaron" unicode="&#x165;" 
d="M745 1184l70 426h78l-94 -426h-54zM733 0q-107 0 -168 61t-61 168v799h-381v57h381v254h61v-254h459v-57h-459v-807q0 -78 42.5 -121t117.5 -43h299v-57h-291z" />
    <glyph glyph-name="Tbar" unicode="&#x166;" 
d="M582 0v684h-316v61h316v648h-500v61h1065v-61h-500v-648h316v-61h-316v-684h-65z" />
    <glyph glyph-name="tbar" unicode="&#x167;" 
d="M233 639v53h271v336h-381v57h381v254h61v-254h459v-57h-459v-336h307v-53h-307v-418q0 -78 42.5 -121t117.5 -43h299v-57h-291q-107 0 -168 61t-61 168v410h-271z" />
    <glyph glyph-name="Utilde" unicode="&#x168;" 
d="M741 1659q-41 0 -70.5 15.5t-60.5 49.5q-27 30 -51 44t-59 14q-97 0 -103 -133h-53q6 85 48.5 133.5t107.5 48.5q46 0 79 -18.5t68 -55.5q49 -49 94 -49q41 0 62.5 33t27.5 108h54q-6 -90 -43 -140t-101 -50zM614 -33q-217 0 -333.5 140.5t-116.5 400.5v946h65v-946
q0 -229 99.5 -352t285.5 -123t285.5 123t99.5 352v946h66v-946q0 -260 -117 -400.5t-334 -140.5z" />
    <glyph glyph-name="utilde" unicode="&#x169;" 
d="M727 1290q-41 0 -70.5 16t-60.5 50q-27 30 -51.5 43.5t-59.5 13.5q-96 0 -102 -133h-53q6 85 48 133.5t107 48.5q46 0 79.5 -18.5t68.5 -54.5q50 -50 94 -50q40 0 62 33.5t28 108.5h53q-6 -91 -42.5 -141t-100.5 -50zM561 -25q-164 0 -260 110t-96 302v698h61v-671
q0 -185 80 -281t232 -96q163 0 259.5 108t96.5 291v649h61v-1085h-53l-4 244q-31 -128 -129.5 -198.5t-247.5 -70.5z" />
    <glyph glyph-name="Umacron" unicode="&#x16a;" 
d="M360 1688v57h508v-57h-508zM614 -33q-217 0 -333.5 140.5t-116.5 400.5v946h65v-946q0 -229 99.5 -352t285.5 -123t285.5 123t99.5 352v946h66v-946q0 -260 -117 -400.5t-334 -140.5z" />
    <glyph glyph-name="umacron" unicode="&#x16b;" 
d="M346 1319v57h508v-57h-508zM561 -25q-164 0 -260 110t-96 302v698h61v-671q0 -185 80 -281t232 -96q163 0 259.5 108t96.5 291v649h61v-1085h-53l-4 244q-31 -128 -129.5 -198.5t-247.5 -70.5z" />
    <glyph glyph-name="Ubreve" unicode="&#x16c;" 
d="M614 1634q-105 0 -172 64.5t-82 173.5h54q12 -87 65.5 -133.5t134.5 -46.5q82 0 135.5 46.5t65.5 133.5h53q-15 -109 -82 -173.5t-172 -64.5zM614 -33q-217 0 -333.5 140.5t-116.5 400.5v946h65v-946q0 -229 99.5 -352t285.5 -123t285.5 123t99.5 352v946h66v-946
q0 -260 -117 -400.5t-334 -140.5z" />
    <glyph glyph-name="ubreve" unicode="&#x16d;" 
d="M600 1266q-106 0 -172.5 64t-81.5 173h53q12 -87 65.5 -133.5t135.5 -46.5t135.5 46.5t65.5 133.5h53q-15 -109 -81.5 -173t-172.5 -64zM561 -25q-164 0 -260 110t-96 302v698h61v-671q0 -185 80 -281t232 -96q163 0 259.5 108t96.5 291v649h61v-1085h-53l-4 244
q-31 -128 -129.5 -198.5t-247.5 -70.5z" />
    <glyph glyph-name="Uring" unicode="&#x16e;" 
d="M612 1581q-65 0 -106 40.5t-41 104.5q0 63 41.5 104.5t105.5 41.5q63 0 105.5 -41.5t42.5 -104.5t-42 -104t-106 -41zM612 1632q43 0 69 25.5t26 68.5t-26 68t-69 25t-68.5 -25t-25.5 -68t25.5 -68.5t68.5 -25.5zM614 -33q-217 0 -333.5 140.5t-116.5 400.5v946h65v-946
q0 -229 99.5 -352t285.5 -123t285.5 123t99.5 352v946h66v-946q0 -260 -117 -400.5t-334 -140.5z" />
    <glyph glyph-name="uring" unicode="&#x16f;" 
d="M598 1212q-65 0 -106 41t-41 105q0 63 41.5 104t105.5 41q63 0 105 -41t42 -104t-41.5 -104.5t-105.5 -41.5zM598 1264q43 0 68.5 25.5t25.5 68.5t-25.5 67.5t-68.5 24.5t-68.5 -24.5t-25.5 -67.5t25.5 -68.5t68.5 -25.5zM561 -25q-164 0 -260 110t-96 302v698h61v-671
q0 -185 80 -281t232 -96q163 0 259.5 108t96.5 291v649h61v-1085h-53l-4 244q-31 -128 -129.5 -198.5t-247.5 -70.5z" />
    <glyph glyph-name="Uhungarumlaut" unicode="&#x170;" 
d="M430 1618l148 237h69l-164 -237h-53zM705 1618l147 237h70l-164 -237h-53zM614 -33q-217 0 -333.5 140.5t-116.5 400.5v946h65v-946q0 -229 99.5 -352t285.5 -123t285.5 123t99.5 352v946h66v-946q0 -260 -117 -400.5t-334 -140.5z" />
    <glyph glyph-name="uhungarumlaut" unicode="&#x171;" 
d="M416 1249l147 238h70l-164 -238h-53zM690 1249l148 238h69l-164 -238h-53zM561 -25q-164 0 -260 110t-96 302v698h61v-671q0 -185 80 -281t232 -96q163 0 259.5 108t96.5 291v649h61v-1085h-53l-4 244q-31 -128 -129.5 -198.5t-247.5 -70.5z" />
    <glyph glyph-name="Uogonek" unicode="&#x172;" 
d="M614 -33q-217 0 -333.5 140.5t-116.5 400.5v946h65v-946q0 -229 99.5 -352t285.5 -123t285.5 123t99.5 352v946h66v-946q0 -200 -71.5 -331t-205.5 -181l-47 -70q-73 -105 -73 -176q0 -44 23 -67t59 -23q55 0 98 31l29 -45q-58 -39 -127 -39q-63 0 -103.5 32t-40.5 99
q0 85 86 205l25 32q-44 -8 -103 -8z" />
    <glyph glyph-name="uogonek" unicode="&#x173;" 
d="M561 -25q-164 0 -260 110t-96 302v698h61v-671q0 -185 80 -281t232 -96q163 0 259.5 108t96.5 291v649h61v-1085l-49 -74q-74 -106 -74 -176q0 -44 23 -67t59 -23q56 0 99 31l28 -45q-58 -39 -127 -39q-63 0 -103 32t-40 99q0 85 86 205l45 63l-4 238
q-31 -128 -129.5 -198.5t-247.5 -70.5z" />
    <glyph glyph-name="Wcircumflex" unicode="&#x174;" 
d="M410 1618l182 254h45l182 -254h-57l-148 203l-147 -203h-57zM295 0l-213 1454h65l199 -1384l232 1220h73l232 -1220l198 1384h66l-213 -1454h-94l-226 1180l-225 -1180h-94z" />
    <glyph glyph-name="wcircumflex" unicode="&#x175;" 
d="M410 1249l182 254h45l182 -254h-57l-148 203l-147 -203h-57zM328 0l-267 1085h66l238 -1024l219 881h61l219 -881l238 1024h65l-266 -1085h-74l-213 848l-213 -848h-73z" />
    <glyph glyph-name="Ycircumflex" unicode="&#x176;" 
d="M410 1618l182 254h45l182 -254h-57l-148 203l-147 -203h-57zM582 0v594l-480 860h78l434 -790l435 790h77l-479 -860v-594h-65z" />
    <glyph glyph-name="ycircumflex" unicode="&#x177;" 
d="M430 1249l182 254h45l183 -254h-58l-147 203l-148 -203h-57zM293 -307v57h82q87 0 128 30t72 114l48 126h-33l-430 1065h65l410 -1024l381 1024h65l-456 -1216q-37 -98 -91.5 -137t-158.5 -39h-82z" />
    <glyph glyph-name="Ydieresis" unicode="&#x178;" 
d="M408 1655v143h69v-143h-69zM748 1655v143h69v-143h-69zM582 0v594l-480 860h78l434 -790l435 790h77l-479 -860v-594h-65z" />
    <glyph glyph-name="Zacute" unicode="&#x179;" 
d="M582 1618l147 237h70l-164 -237h-53zM123 0v61l897 1332h-860v61h930v-61l-897 -1332h913v-61h-983z" />
    <glyph glyph-name="zacute" unicode="&#x17a;" 
d="M584 1249l147 238h70l-164 -238h-53zM184 0v61l774 967h-753v57h823v-61l-774 -967h790v-57h-860z" />
    <glyph glyph-name="Zdotaccent" unicode="&#x17b;" 
d="M580 1655v143h69v-143h-69zM123 0v61l897 1332h-860v61h930v-61l-897 -1332h913v-61h-983z" />
    <glyph glyph-name="zdotaccent" unicode="&#x17c;" 
d="M582 1286v144h69v-144h-69zM184 0v61l774 967h-753v57h823v-61l-774 -967h790v-57h-860z" />
    <glyph glyph-name="Zcaron" unicode="&#x17d;" 
d="M410 1872h57l147 -203l148 203h57l-182 -254h-45zM123 0v61l897 1332h-860v61h930v-61l-897 -1332h913v-61h-983z" />
    <glyph glyph-name="zcaron" unicode="&#x17e;" 
d="M412 1503h57l147 -203l148 203h57l-182 -254h-45zM184 0v61l774 967h-753v57h823v-61l-774 -967h790v-57h-860z" />
    <glyph glyph-name="uni018F" unicode="&#x18f;" 
d="M616 -31q-154 0 -272.5 96.5t-182 269t-63.5 394.5v19h981q-5 298 -132 485.5t-331 187.5q-131 0 -247 -104.5t-176 -280.5l-70 6q60 202 195.5 323.5t297.5 121.5q159 0 280 -96.5t186 -268.5t65 -393q0 -347 -147 -553.5t-384 -206.5zM616 35q195 0 323 176.5
t140 474.5h-911q8 -190 65.5 -338t157 -230.5t225.5 -82.5z" />
    <glyph glyph-name="florin" unicode="&#x192;" 
d="M164 0v61h155q71 0 120 56.5t59 152.5l84 754h-252v61h258l10 95q13 132 78.5 203t171.5 71h217v-61h-225q-75 0 -121 -53.5t-57 -151.5l-13 -103h416v-61h-422l-84 -745q-15 -134 -80.5 -206.5t-171.5 -72.5h-143z" />
    <glyph glyph-name="uni01CD" unicode="&#x1cd;" 
d="M410 1872h57l147 -203l148 203h57l-182 -254h-45zM98 0l477 1454h78l477 -1454h-67l-156 481h-585l-156 -481h-68zM614 1389l-272 -846h545z" />
    <glyph glyph-name="uni01CE" unicode="&#x1ce;" 
d="M365 1503h57l147 -203l148 203h57l-182 -254h-45zM479 -25q-157 0 -252.5 79.5t-95.5 211.5q0 118 89 194t241 105l424 82q0 209 -79 305.5t-241 96.5q-147 0 -236 -75t-112 -216l-67 6q28 166 135 256t280 90q184 0 282.5 -110.5t98.5 -331.5v-459q0 -87 23 -117.5
t75 -30.5h62v-61q-24 -4 -70 -4q-75 0 -112 45t-43 170q-48 -102 -155 -169t-247 -67zM479 37q180 0 293 108t113 273v170l-406 -80q-282 -57 -282 -238q0 -113 73 -173t209 -60z" />
    <glyph glyph-name="uni01E4" unicode="&#x1e4;" 
d="M623 -33q-248 0 -390.5 204t-142.5 554q0 353 142.5 557.5t390.5 204.5q168 0 295.5 -125t171.5 -336l-68 -8q-44 185 -153 294t-246 109q-216 0 -339.5 -187t-123.5 -509q0 -321 123.5 -506.5t339.5 -185.5q135 0 234 81.5t144 233.5h-387v53h400q22 99 22 217h-422v58
h484v-49q0 -124 -21 -226h103v-53h-115q-49 -185 -163.5 -283t-278.5 -98z" />
    <glyph glyph-name="uni01E5" unicode="&#x1e5;" 
d="M578 -332q-170 0 -283 90.5t-119 229.5l66 4q6 -118 96.5 -190t239.5 -72q177 0 275.5 101.5t98.5 285.5v209q-51 -127 -149 -201t-232 -74q-206 0 -327 143.5t-121 389.5q0 240 121.5 383t326.5 143q136 0 236 -79.5t145 -207.5v262h62v-483h153v-57h-153v-432
q0 -207 -116.5 -326t-319.5 -119zM571 113q165 0 268 116.5t113 315.5h-368v57h368q-6 196 -111 321.5t-270 125.5q-175 0 -279 -126.5t-104 -338.5q0 -216 104 -343.5t279 -127.5z" />
    <glyph glyph-name="Gcaron" unicode="&#x1e6;" 
d="M397 1872h58l147 -203l148 203h57l-182 -254h-45zM614 -33q-239 0 -377.5 203t-138.5 555q0 224 64.5 397.5t182 269t269.5 95.5q383 0 484 -463l-70 -8q-43 202 -145 303.5t-269 101.5q-130 0 -231.5 -88t-158 -246.5t-56.5 -361.5q0 -318 122 -505t328 -187
q183 0 301.5 163.5t124.5 421.5h-421v58h483v-676h-57v371q-44 -183 -159.5 -293.5t-275.5 -110.5z" />
    <glyph glyph-name="gcaron" unicode="&#x1e7;" 
d="M391 1503h58l147 -203l147 203h58l-183 -254h-45zM598 -332q-169 0 -282 90.5t-119 229.5l65 4q6 -118 96.5 -190t239.5 -72q177 0 276 101.5t99 285.5v209q-51 -127 -149 -201t-232 -74q-206 0 -327.5 143.5t-121.5 389.5q0 240 122 383t327 143q136 0 236 -79.5
t145 -207.5v262h61v-972q0 -207 -116.5 -326t-319.5 -119zM592 113q173 0 277 127.5t104 343.5q0 202 -105.5 333.5t-275.5 131.5q-175 0 -279 -126.5t-104 -338.5q0 -216 104 -343.5t279 -127.5z" />
    <glyph glyph-name="uni01E8" unicode="&#x1e8;" 
d="M395 1872h58l147 -203l148 203h57l-182 -254h-45zM164 0v1454h65v-889l797 889h78l-569 -635l591 -819h-77l-555 774l-265 -295v-479h-65z" />
    <glyph glyph-name="uni01E9" unicode="&#x1e9;" 
d="M59 1872h58l147 -203l148 203h57l-182 -254h-45zM233 0v1454h62v-1057l709 688h81l-481 -467l522 -618h-73l-490 582l-268 -263v-319h-62z" />
    <glyph glyph-name="uni0218" unicode="&#x218;" 
d="M633 -33q-140 0 -258.5 64.5t-187 175.5t-68.5 242l67 6q0 -112 58 -208.5t162 -155t231 -58.5q172 0 287.5 86.5t115.5 232.5q0 52 -12 93t-41.5 80t-81 71.5t-130.5 64t-189 60.5q-118 31 -193.5 62t-133.5 75.5t-83.5 105.5t-25.5 146q0 162 122.5 269.5t327.5 107.5
q110 0 201 -38.5t149 -102t89.5 -143t31.5 -163.5l-70 -6q0 106 -46.5 193t-140 140.5t-218.5 53.5q-171 0 -274 -87.5t-103 -227.5q0 -132 81 -198.5t306 -125.5q199 -52 309.5 -114.5t152.5 -136.5t42 -183q0 -113 -66 -201t-174 -134t-237 -46zM539 -346l73 153h-49v99
h103v-88l-82 -164h-45z" />
    <glyph glyph-name="uni0219" unicode="&#x219;" 
d="M637 -25q-203 0 -323.5 96t-129.5 246l64 9q6 -131 109.5 -210t279.5 -79q342 0 342 225q0 49 -12.5 81.5t-51 63.5t-115 54t-198.5 43q-94 15 -160.5 35t-109.5 44.5t-67.5 58t-34 70t-9.5 87.5q0 141 103.5 226t277.5 85q175 0 280 -90.5t132 -231.5l-64 -12
q-16 117 -105.5 195t-242.5 78q-149 0 -232 -65.5t-83 -184.5q0 -74 28 -117.5t101.5 -72.5t214.5 -50q233 -34 323 -101.5t90 -191.5q0 -141 -104.5 -216t-302.5 -75zM557 -346l74 153h-49v99h102v-88l-82 -164h-45z" />
    <glyph glyph-name="uni021A" unicode="&#x21a;" 
d="M582 0v1393h-500v61h1065v-61h-500v-1393h-65zM541 -346l73 153h-49v99h103v-88l-82 -164h-45z" />
    <glyph glyph-name="uni021B" unicode="&#x21b;" 
d="M733 0q-107 0 -168 61t-61 168v799h-381v57h381v254h61v-254h459v-57h-459v-807q0 -78 42.5 -121t117.5 -43h299v-57h-291zM705 -346l73 153h-49v99h102v-88l-81 -164h-45z" />
    <glyph glyph-name="uni0237" unicode="&#x237;" 
d="M266 -307v57h299q119 0 176.5 61.5t57.5 188.5v1028h-533v57h594v-1085q0 -157 -72 -232t-223 -75h-299z" />
    <glyph glyph-name="uni0259" unicode="&#x259;" 
d="M594 1110q113 0 204 -45t148.5 -123.5t88 -180t30.5 -218.5q0 -157 -50.5 -283.5t-157.5 -205.5t-255 -79q-91 0 -167 29t-129.5 80.5t-90.5 121.5t-54.5 151t-17.5 171v25h856q-3 229 -113 362.5t-292 133.5q-141 0 -233.5 -70t-127.5 -191l-67 5q41 142 154 229.5
t274 87.5zM999 496h-788q6 -213 107.5 -336t283.5 -123q172 0 279.5 123t117.5 336z" />
    <glyph glyph-name="uni02B9" unicode="&#x2b9;" 
d="M506 1249l147 238h70l-164 -238h-53z" />
    <glyph glyph-name="uni02BC" unicode="&#x2bc;" 
d="M532 1034l82 256h-94v164h164v-147l-100 -273h-52z" />
    <glyph glyph-name="circumflex" unicode="&#x2c6;" 
d="M410 1249l182 254h45l182 -254h-57l-148 203l-147 -203h-57z" />
    <glyph glyph-name="caron" unicode="&#x2c7;" 
d="M410 1503h57l147 -203l148 203h57l-182 -254h-45z" />
    <glyph glyph-name="uni02C8" unicode="&#x2c8;" 
d="M586 874l-13 437v143h82v-143l-12 -437h-57z" />
    <glyph glyph-name="breve" unicode="&#x2d8;" 
d="M614 1266q-106 0 -172.5 64t-81.5 173h54q12 -87 65.5 -133.5t134.5 -46.5q82 0 135.5 46.5t65.5 133.5h53q-15 -109 -81.5 -173t-172.5 -64z" />
    <glyph glyph-name="dotaccent" unicode="&#x2d9;" 
d="M580 1286v144h69v-144h-69z" />
    <glyph glyph-name="ring" unicode="&#x2da;" 
d="M614 1212q-65 0 -106 41t-41 105q0 63 41.5 104t105.5 41q63 0 105.5 -41t42.5 -104t-42 -104.5t-106 -41.5zM614 1264q43 0 69 25.5t26 68.5q0 42 -26 67t-69 25t-68.5 -24.5t-25.5 -67.5t25.5 -68.5t68.5 -25.5z" />
    <glyph glyph-name="ogonek" unicode="&#x2db;" 
d="M623 -393q-63 0 -103.5 32t-40.5 99q0 85 86 205l45 63l54 -6l-50 -74q-73 -105 -73 -176q0 -44 23 -67t59 -23q55 0 98 31l29 -45q-58 -39 -127 -39z" />
    <glyph glyph-name="tilde" unicode="&#x2dc;" 
d="M741 1290q-41 0 -70.5 16t-60.5 50q-27 30 -51 43.5t-59 13.5q-97 0 -103 -133h-53q6 85 48.5 133.5t107.5 48.5q46 0 79 -18.5t68 -54.5q50 -50 94 -50q40 0 62 33.5t28 108.5h54q-6 -90 -43 -140.5t-101 -50.5z" />
    <glyph glyph-name="hungarumlaut" unicode="&#x2dd;" 
d="M369 1249l147 238h70l-164 -238h-53zM643 1249l148 238h69l-164 -238h-53z" />
    <glyph glyph-name="gravecomb" unicode="&#x300;" horiz-adv-x="0" 
d="M684 1249l-164 238h70l147 -238h-53z" />
    <glyph glyph-name="acutecomb" unicode="&#x301;" horiz-adv-x="0" 
d="M506 1249l147 238h70l-164 -238h-53z" />
    <glyph glyph-name="uni0302" unicode="&#x302;" horiz-adv-x="0" 
d="M410 1249l182 254h45l182 -254h-57l-148 203l-147 -203h-57z" />
    <glyph glyph-name="tildecomb" unicode="&#x303;" horiz-adv-x="0" 
d="M741 1290q-41 0 -70.5 16t-60.5 50q-27 30 -51 43.5t-59 13.5q-97 0 -103 -133h-53q6 85 48.5 133.5t107.5 48.5q46 0 79 -18.5t68 -54.5q50 -50 94 -50q40 0 62 33.5t28 108.5h54q-6 -90 -43 -140.5t-101 -50.5z" />
    <glyph glyph-name="uni0304" unicode="&#x304;" horiz-adv-x="0" 
d="M360 1319v57h508v-57h-508z" />
    <glyph glyph-name="uni0306" unicode="&#x306;" horiz-adv-x="0" 
d="M614 1266q-106 0 -172.5 64t-81.5 173h54q12 -87 65.5 -133.5t134.5 -46.5q82 0 135.5 46.5t65.5 133.5h53q-15 -109 -81.5 -173t-172.5 -64z" />
    <glyph glyph-name="uni0307" unicode="&#x307;" horiz-adv-x="0" 
d="M580 1286v144h69v-144h-69z" />
    <glyph glyph-name="uni0308" unicode="&#x308;" horiz-adv-x="0" 
d="M410 1286v144h69v-144h-69zM750 1286v144h69v-144h-69z" />
    <glyph glyph-name="uni030A" unicode="&#x30a;" horiz-adv-x="0" 
d="M614 1212q-65 0 -106 41t-41 105q0 63 41.5 104t105.5 41q63 0 105.5 -41t42.5 -104t-42 -104.5t-106 -41.5zM614 1264q43 0 69 25.5t26 68.5q0 42 -26 67t-69 25t-68.5 -24.5t-25.5 -67.5t25.5 -68.5t68.5 -25.5z" />
    <glyph glyph-name="uni030B" unicode="&#x30b;" horiz-adv-x="0" 
d="M369 1249l147 238h70l-164 -238h-53zM643 1249l148 238h69l-164 -238h-53z" />
    <glyph glyph-name="uni030C" unicode="&#x30c;" horiz-adv-x="0" 
d="M410 1503h57l147 -203l148 203h57l-182 -254h-45z" />
    <glyph glyph-name="uni0312" unicode="&#x312;" horiz-adv-x="0" 
d="M678 1518l-74 -154h49v-98h-102v88l82 164h45z" />
    <glyph glyph-name="uni0326" unicode="&#x326;" horiz-adv-x="0" 
d="M551 -346l74 153h-50v99h103v-88l-82 -164h-45z" />
    <glyph glyph-name="uni0327" unicode="&#x327;" horiz-adv-x="0" 
d="M612 -418q-76 0 -126.5 32t-69.5 91l49 21q27 -91 143 -91q140 0 140 111q0 55 -41 81t-136 26l-28 36l61 119h58l-58 -106q201 -6 201 -160q0 -75 -52.5 -117.5t-140.5 -42.5z" />
    <glyph glyph-name="uni0328" unicode="&#x328;" horiz-adv-x="0" 
d="M623 -393q-63 0 -103.5 32t-40.5 99q0 85 86 205l45 63l54 -6l-50 -74q-73 -105 -73 -176q0 -44 23 -67t59 -23q55 0 98 31l29 -45q-58 -39 -127 -39z" />
    <glyph glyph-name="uni0335" unicode="&#x335;" horiz-adv-x="0" 
d="M348 688v53h533v-53h-533z" />
    <glyph glyph-name="uni0336" unicode="&#x336;" horiz-adv-x="0" 
d="M61 1141v57h1106v-57h-1106z" />
    <glyph glyph-name="uni0337" unicode="&#x337;" horiz-adv-x="0" 
d="M348 655v58l533 245v-57z" />
    <glyph glyph-name="uni0338" unicode="&#x338;" horiz-adv-x="0" 
d="M205 -33l762 1143h57l-762 -1143h-57z" />
    <glyph glyph-name="Lambda" unicode="&#x39b;" 
d="M98 0l477 1454h78l477 -1454h-67l-449 1389l-448 -1389h-68z" />
    <glyph glyph-name="uni03A9" unicode="&#x3a9;" 
d="M43 0v61h371q-157 53 -266 251.5t-109 432.5q0 338 159.5 540t415.5 202t416 -202t160 -540q0 -234 -109 -432.5t-266 -251.5h371v-61h-469v68q77 11 151 70t129.5 149t89 210.5t33.5 247.5q0 308 -141 492t-365 184t-364.5 -184t-140.5 -492q0 -127 33.5 -247.5
t89 -210.5t129.5 -149t151 -70v-68h-469z" />
    <glyph glyph-name="lambda" unicode="&#x3bb;" 
d="M141 0l439 1069l-37 111q-39 120 -82 166.5t-117 46.5h-90v61h90q100 0 157.5 -59.5t108.5 -214.5l299 -914q3 -9 10 -33.5t12 -39.5t13.5 -37.5t17 -37t19.5 -29t24.5 -21.5t28.5 -7h72v-61h-29q-25 0 -45.5 2.5t-37 6t-30 12.5t-23 16.5t-19.5 24t-16 28t-15 36
t-14.5 41.5t-16 50.5t-18.5 56.5l-234 709l-401 -983h-66z" />
    <glyph glyph-name="pi" unicode="&#x3c0;" 
d="M311 0v1024h-223v61h1051v-61h-213v-805q0 -76 42.5 -120t116.5 -44h54v-55h-45q-106 0 -168 61.5t-62 167.5v795h-491v-1024h-62z" />
    <glyph glyph-name="uni0400" unicode="&#x400;" 
d="M604 1618l-164 237h70l147 -237h-53zM205 0v1454h844v-61h-779v-637h754v-62h-754v-633h795v-61h-860z" />
    <glyph glyph-name="uni0401" unicode="&#x401;" 
d="M420 1655v143h69v-143h-69zM760 1655v143h69v-143h-69zM205 0v1454h844v-61h-779v-637h754v-62h-754v-633h795v-61h-860z" />
    <glyph glyph-name="uni0402" unicode="&#x402;" 
d="M287 0v1393h-267v61h660v-61h-328v-697q30 118 140.5 194.5t257.5 76.5q204 0 323 -133t119 -359q0 -221 -139.5 -348t-384.5 -127v61q214 0 334 111t120 303q0 198 -100 312t-272 114q-178 0 -288 -110t-110 -285v-506h-65z" />
    <glyph glyph-name="uni0403" unicode="&#x403;" 
d="M635 1618l147 237h70l-164 -237h-53zM217 0v1454h899v-61h-833v-1393h-66z" />
    <glyph glyph-name="uni0404" unicode="&#x404;" 
d="M614 -33q-239 0 -379.5 204.5t-140.5 553.5q0 351 140.5 556.5t379.5 205.5q191 0 320.5 -132t175.5 -370h-70q-43 207 -154.5 321.5t-271.5 114.5q-202 0 -323 -178.5t-127 -486.5h438v-62h-438q6 -306 127 -483.5t323 -177.5q160 0 270.5 113.5t155.5 318.5h70
q-46 -234 -176 -366t-320 -132z" />
    <glyph glyph-name="uni0405" unicode="&#x405;" 
d="M633 -33q-140 0 -258.5 64.5t-187 175.5t-68.5 242l67 6q0 -112 58 -208.5t162 -155t231 -58.5q172 0 287.5 86.5t115.5 232.5q0 52 -12 93t-41.5 80t-81 71.5t-130.5 64t-189 60.5q-118 31 -193.5 62t-133.5 75.5t-83.5 105.5t-25.5 146q0 162 122.5 269.5t327.5 107.5
q110 0 201 -38.5t149 -102t89.5 -143t31.5 -163.5l-70 -6q0 106 -46.5 193t-140 140.5t-218.5 53.5q-171 0 -274 -87.5t-103 -227.5q0 -132 81 -198.5t306 -125.5q199 -52 309.5 -114.5t152.5 -136.5t42 -183q0 -113 -66 -201t-174 -134t-237 -46z" />
    <glyph glyph-name="uni0406" unicode="&#x406;" 
d="M184 0v61h398v1332h-398v61h860v-61h-397v-1332h397v-61h-860z" />
    <glyph glyph-name="uni0407" unicode="&#x407;" 
d="M408 1655v143h69v-143h-69zM748 1655v143h69v-143h-69zM184 0v61h398v1332h-398v61h860v-61h-397v-1332h397v-61h-860z" />
    <glyph glyph-name="uni0408" unicode="&#x408;" 
d="M557 -33q-200 0 -324.5 139t-130.5 369l70 8q6 -215 106.5 -332.5t278.5 -117.5q196 0 298.5 124.5t102.5 362.5v934h66v-934q0 -263 -122.5 -408t-344.5 -145z" />
    <glyph glyph-name="uni0409" unicode="&#x409;" 
d="M10 0v61h19q79 0 125 61.5t53 182.5l76 1149h383v-625h112q207 0 318.5 -106t111.5 -303q0 -201 -111.5 -310.5t-318.5 -109.5h-178v1393h-256l-72 -1092q-9 -149 -71 -225t-170 -76h-21zM666 61h112q173 0 267 93.5t94 265.5q0 167 -94 257.5t-267 90.5h-112v-707z" />
    <glyph glyph-name="uni040A" unicode="&#x40a;" 
d="M61 0v1454h66v-625h371v625h65v-625h113q226 0 358.5 -110t132.5 -299q0 -193 -132.5 -306.5t-358.5 -113.5h-178v768h-371v-768h-66zM563 61h113q202 0 312 93.5t110 265.5q0 167 -109.5 257.5t-312.5 90.5h-113v-707z" />
    <glyph glyph-name="uni040B" unicode="&#x40b;" 
d="M287 0v1393h-267v61h660v-61h-328v-695q30 117 135 193t242 76q201 0 309.5 -112.5t108.5 -319.5v-535h-66v535q0 178 -91.5 273t-260.5 95q-166 0 -271.5 -111t-105.5 -286v-506h-65z" />
    <glyph glyph-name="uni040C" unicode="&#x40c;" 
d="M578 1618l147 237h70l-164 -237h-53zM166 0v1454h65v-713l756 713h84l-768 -727l827 -727h-86l-813 715v-715h-65z" />
    <glyph glyph-name="uni040D" unicode="&#x40d;" 
d="M575 1618l-163 237h69l148 -237h-54zM1065 0h-66v1393l-739 -1393h-96v1454h65v-1393l740 1393h96v-1454z" />
    <glyph glyph-name="uni040E" unicode="&#x40e;" 
d="M637 1634q-105 0 -172 64.5t-82 173.5h53q12 -87 65.5 -133.5t135.5 -46.5t135.5 46.5t65.5 133.5h53q-15 -109 -82 -173.5t-172 -64.5zM281 0v61h79q75 0 121 38t80 128l60 162h-35l-428 1065h69l410 -1022l379 1022h69l-475 -1268q-68 -186 -250 -186h-79z" />
    <glyph glyph-name="uni040F" unicode="&#x40f;" 
d="M582 -307v307h-402v1454h66v-1393h737v1393h66v-1454h-402v-307h-65z" />
    <glyph glyph-name="uni0410" unicode="&#x410;" 
d="M98 0l477 1454h78l477 -1454h-67l-156 481h-585l-156 -481h-68zM614 1389l-272 -846h545z" />
    <glyph glyph-name="uni0411" unicode="&#x411;" 
d="M199 0v1454h864v-61h-799v-564h332q224 0 353.5 -107.5t129.5 -301.5q0 -196 -130.5 -308t-352.5 -112h-397zM264 61h324q201 0 311.5 92.5t110.5 266.5q0 172 -109.5 260t-312.5 88h-324v-707z" />
    <glyph glyph-name="uni0412" unicode="&#x412;" 
d="M205 0v1454h375q235 0 357 -100t122 -289q0 -128 -77 -218.5t-204 -113.5q159 -20 249.5 -112t90.5 -234q0 -188 -118 -287.5t-345 -99.5h-450zM270 754h344q170 0 272.5 82t102.5 229q0 160 -104 246t-305 86h-310v-643zM270 57h381q198 0 298 84.5t100 245.5
q0 141 -108 225t-292 84h-379v-639z" />
    <glyph glyph-name="uni0413" unicode="&#x413;" 
d="M217 0v1454h899v-61h-833v-1393h-66z" />
    <glyph glyph-name="uni0414" unicode="&#x414;" 
d="M37 -307v368h43q91 0 148.5 86t72.5 244l107 1063h589v-1393h181v-368h-66v307h-1010v-307h-65zM227 61h705v1332h-467l-103 -1022q-11 -103 -47.5 -187.5t-87.5 -122.5z" />
    <glyph glyph-name="uni0415" unicode="&#x415;" 
d="M205 0v1454h844v-61h-779v-637h754v-62h-754v-633h795v-61h-860z" />
    <glyph glyph-name="uni0416" unicode="&#x416;" 
d="M20 0l500 727l-479 727h76l465 -711v711h65v-711l465 711h76l-479 -727l499 -727h-75l-486 713v-713h-65v713l-486 -713h-76z" />
    <glyph glyph-name="uni0417" unicode="&#x417;" 
d="M606 -33q-214 0 -352.5 105t-153.5 284l64 6q15 -151 136 -240t306 -89q198 0 322.5 103t124.5 272q0 151 -121.5 248.5t-304.5 97.5l-135 -2v63l135 -2q161 0 269 83t108 212q0 138 -109 225.5t-283 87.5q-148 0 -252 -73.5t-129 -198.5l-69 6q29 152 152.5 242
t297.5 90q205 0 333 -105.5t128 -273.5q0 -107 -70.5 -194.5t-187.5 -127.5q139 -46 223 -151t84 -236q0 -190 -144.5 -311t-371.5 -121z" />
    <glyph glyph-name="uni0418" unicode="&#x418;" 
d="M1065 0h-66v1393l-739 -1393h-96v1454h65v-1393l740 1393h96v-1454z" />
    <glyph glyph-name="uni0419" unicode="&#x419;" 
d="M598 1634q-105 0 -172 64.5t-82 173.5h53q12 -87 65.5 -133.5t135.5 -46.5t135.5 46.5t65.5 133.5h53q-15 -109 -82 -173.5t-172 -64.5zM1065 0h-66v1393l-739 -1393h-96v1454h65v-1393l740 1393h96v-1454z" />
    <glyph glyph-name="uni041A" unicode="&#x41a;" 
d="M166 0v1454h65v-713l756 713h84l-768 -727l827 -727h-86l-813 715v-715h-65z" />
    <glyph glyph-name="uni041B" unicode="&#x41b;" 
d="M61 0v61h60q157 0 178 244l96 1149h705v-1454h-66v1393h-577l-92 -1092q-24 -301 -242 -301h-62z" />
    <glyph glyph-name="uni041C" unicode="&#x41c;" 
d="M582 164l-394 1210v-1374h-65v1454h102l389 -1212l390 1212h102v-1454h-66v1374l-393 -1210h-65z" />
    <glyph glyph-name="uni041D" unicode="&#x41d;" 
d="M164 0v1454h65v-678h770v678h66v-1454h-66v715h-770v-715h-65z" />
    <glyph glyph-name="uni041E" unicode="&#x41e;" 
d="M614 -33q-239 0 -377.5 204.5t-138.5 553.5q0 352 138.5 557t377.5 205t377.5 -205t138.5 -557q0 -349 -138.5 -553.5t-377.5 -204.5zM614 33q213 0 330 184.5t117 507.5q0 324 -117 510t-330 186t-329.5 -185.5t-116.5 -510.5q0 -323 116.5 -507.5t329.5 -184.5z" />
    <glyph glyph-name="uni041F" unicode="&#x41f;" 
d="M180 0v1454h869v-1454h-66v1393h-737v-1393h-66z" />
    <glyph glyph-name="uni0420" unicode="&#x420;" 
d="M225 0v1454h398q222 0 352.5 -112t130.5 -308q0 -194 -129.5 -301.5t-353.5 -107.5h-332v-625h-66zM291 686h323q203 0 312.5 88t109.5 260q0 174 -110.5 266.5t-311.5 92.5h-323v-707z" />
    <glyph glyph-name="uni0421" unicode="&#x421;" 
d="M623 -33q-234 0 -379.5 206.5t-145.5 551.5q0 348 146 555t379 207q190 0 309 -120.5t166 -346.5l-70 -8q-37 197 -141.5 303t-263.5 106q-197 0 -326 -190.5t-129 -505.5q0 -314 129 -503t326 -189q162 0 271.5 112.5t145.5 325.5l70 -8q-44 -231 -170.5 -363.5
t-316.5 -132.5z" />
    <glyph glyph-name="uni0422" unicode="&#x422;" 
d="M582 0v1393h-500v61h1065v-61h-500v-1393h-65z" />
    <glyph glyph-name="uni0423" unicode="&#x423;" 
d="M281 0v61h79q75 0 121 38t80 128l60 162h-35l-428 1065h69l410 -1022l379 1022h69l-475 -1268q-68 -186 -250 -186h-79z" />
    <glyph glyph-name="uni0424" unicode="&#x424;" 
d="M580 0v150q-239 11 -379 166t-140 411t140 411.5t379 166.5v149h65v-149q241 -10 381.5 -165.5t140.5 -412.5q0 -256 -140 -411t-382 -166v-150h-65zM1098 727q0 227 -121 364.5t-332 147.5v-1024q211 10 332 147.5t121 364.5zM131 727q0 -227 121 -364t328 -148v1024
q-207 -11 -328 -148t-121 -364z" />
    <glyph glyph-name="uni0425" unicode="&#x425;" 
d="M123 0l448 737l-432 717h74l405 -672l398 672h74l-431 -725l447 -729h-74l-420 688l-415 -688h-74z" />
    <glyph glyph-name="uni0426" unicode="&#x426;" 
d="M1112 -307v307h-932v1454h66v-1393h737v1393h66v-1393h129v-368h-66z" />
    <glyph glyph-name="uni0427" unicode="&#x427;" 
d="M979 0v760q-31 -118 -154.5 -195.5t-283.5 -77.5q-201 0 -309.5 113t-108.5 320v534h65v-534q0 -178 92 -273.5t261 -95.5q193 0 315.5 111t122.5 286v506h65v-1454h-65z" />
    <glyph glyph-name="uni0428" unicode="&#x428;" 
d="M158 0v1454h65v-1393h359v1393h65v-1393h359v1393h65v-1454h-913z" />
    <glyph glyph-name="uni0429" unicode="&#x429;" 
d="M158 0v1454h65v-1393h359v1393h65v-1393h359v1393h65v-1393h107v-368h-66v307h-954z" />
    <glyph glyph-name="uni042A" unicode="&#x42a;" 
d="M94 1393v61h285v-625h332q224 0 353.5 -107.5t129.5 -301.5q0 -196 -130.5 -308t-352.5 -112h-398v1393h-219zM379 768v-707h323q201 0 311.5 92.5t110.5 266.5q0 172 -109.5 260t-312.5 88h-323z" />
    <glyph glyph-name="uni042B" unicode="&#x42b;" 
d="M92 0v1454h66v-625h297q226 0 358.5 -110t132.5 -299q0 -193 -132.5 -306.5t-358.5 -113.5h-363zM1075 0v1454h62v-1454h-62zM158 61h297q202 0 312 93.5t110 265.5q0 167 -109.5 257.5t-312.5 90.5h-297v-707z" />
    <glyph glyph-name="uni042C" unicode="&#x42c;" 
d="M225 1454h66v-625h332q224 0 353.5 -107.5t129.5 -301.5q0 -196 -130.5 -308t-352.5 -112h-398v1454zM291 768v-707h323q201 0 311.5 92.5t110.5 266.5q0 172 -109.5 260t-312.5 88h-323z" />
    <glyph glyph-name="uni042D" unicode="&#x42d;" 
d="M614 -33q-189 0 -319 131.5t-176 366.5h69q45 -205 155.5 -318.5t270.5 -113.5q203 0 324 177.5t127 483.5h-438v62h438q-6 307 -127 486t-324 179q-160 0 -271.5 -114.5t-154.5 -321.5h-69q46 238 175 370t320 132q240 0 380.5 -205.5t140.5 -556.5q0 -349 -141 -553.5
t-380 -204.5z" />
    <glyph glyph-name="uni042E" unicode="&#x42e;" 
d="M61 0v1454h66v-696h235q9 729 402 729q403 0 403 -762q0 -758 -403 -758q-393 0 -402 729h-235v-696h-66zM764 33q338 0 338 692q0 696 -338 696q-336 0 -336 -696q0 -692 336 -692z" />
    <glyph glyph-name="uni042F" unicode="&#x42f;" 
d="M1044 0h-65v637h-393l-373 -637h-70l377 645q-174 28 -272 130.5t-98 258.5q0 192 129.5 306t341.5 114h423v-1454zM979 698v699h-358q-188 0 -295 -96t-107 -267q0 -160 106.5 -248t295.5 -88h358z" />
    <glyph glyph-name="uni0430" unicode="&#x430;" 
d="M479 -25q-157 0 -252.5 79.5t-95.5 211.5q0 118 89 194t241 105l424 82q0 209 -79 305.5t-241 96.5q-147 0 -236 -75t-112 -216l-67 6q28 166 135 256t280 90q184 0 282.5 -110.5t98.5 -331.5v-459q0 -87 23 -117.5t75 -30.5h62v-61q-24 -4 -70 -4q-75 0 -112 45t-43 170
q-48 -102 -155 -169t-247 -67zM479 37q180 0 293 108t113 273v170l-406 -80q-282 -57 -282 -238q0 -113 73 -173t209 -60z" />
    <glyph glyph-name="uni0431" unicode="&#x431;" 
d="M623 -33q-107 0 -201 52t-162 149q-103 146 -115 473q-10 245 81 402.5t276 250.5q81 41 126 87.5t57.5 85.5t12.5 89l64 3q0 -94 -49.5 -171t-177.5 -141q-176 -89 -264 -245t-70 -371q31 159 157.5 259.5t294.5 100.5q195 0 319 -142t124 -366q0 -227 -132 -371.5
t-341 -144.5zM631 29q175 0 287 127.5t112 326.5q0 197 -108.5 322t-280.5 125q-181 0 -297.5 -125t-118.5 -322q-5 -200 109 -327t297 -127z" />
    <glyph glyph-name="uni0432" unicode="&#x432;" 
d="M225 0v1085h410q170 0 270.5 -75.5t100.5 -204.5q0 -99 -62.5 -164t-171.5 -82q130 -14 204.5 -80.5t74.5 -171.5q0 -141 -96.5 -224t-260.5 -83h-469zM287 588h350q139 0 221 58.5t82 158.5q0 101 -81.5 160t-221.5 59h-350v-436zM287 61h407q134 0 212.5 66t78.5 180
q0 101 -78.5 160t-212.5 59h-407v-465z" />
    <glyph glyph-name="uni0433" unicode="&#x433;" 
d="M344 0v1085h680v-61h-618v-1024h-62z" />
    <glyph glyph-name="uni0434" unicode="&#x434;" 
d="M61 -307v368h21q86 0 148 77.5t79 209.5l99 737h581v-1024h178l-2 -368h-61l2 307h-983v-307h-62zM369 332q-24 -182 -127 -271h686v963h-463z" />
    <glyph glyph-name="uni0435" unicode="&#x435;" 
d="M635 -25q-113 0 -204 45.5t-148.5 124t-88 180t-30.5 218.5q0 93 18.5 177t56.5 155.5t92 123.5t130 81.5t166 29.5q113 0 202 -44.5t144 -121.5t83.5 -175.5t28.5 -211.5v-25h-856q3 -229 113 -362t293 -133q141 0 233 69.5t127 190.5l68 -4q-41 -143 -154 -230.5
t-274 -87.5zM229 590h789q-6 213 -107.5 336t-283.5 123q-172 0 -280 -123t-118 -336z" />
    <glyph glyph-name="uni0436" unicode="&#x436;" 
d="M31 0l479 543l-459 542h80l453 -534v534h61v-534l453 534h80l-459 -542l479 -543h-80l-473 537v-537h-61v537l-473 -537h-80z" />
    <glyph glyph-name="uni0437" unicode="&#x437;" 
d="M600 -25q-161 0 -265 92.5t-112 239.5l66 4q9 -127 92 -200.5t219 -73.5q150 0 240 70.5t90 189.5q0 123 -86 192.5t-234 65.5l-112 -4v65l112 -4q131 -5 207 48.5t76 150.5q0 107 -79.5 172.5t-207.5 65.5q-119 0 -192.5 -62.5t-85.5 -169.5l-66 6q15 133 106 210
t238 77q159 0 255.5 -81.5t96.5 -217.5q0 -83 -54 -141t-156 -86q119 -30 183 -106t64 -183q0 -147 -107 -233.5t-288 -86.5z" />
    <glyph glyph-name="uni0438" unicode="&#x438;" 
d="M231 0v1085h62v-1009l614 1009h90v-1085h-61v1018l-621 -1018h-84z" />
    <glyph glyph-name="uni0439" unicode="&#x439;" 
d="M614 1266q-106 0 -172.5 64t-81.5 173h54q12 -87 65.5 -133.5t134.5 -46.5q82 0 135.5 46.5t65.5 133.5h53q-15 -109 -81.5 -173t-172.5 -64zM231 0v1085h62v-1009l614 1009h90v-1085h-61v1018l-621 -1018h-84z" />
    <glyph glyph-name="uni043A" unicode="&#x43a;" 
d="M236 0v1085h61v-536l641 536h98l-653 -542l676 -543h-101l-661 539v-539h-61z" />
    <glyph glyph-name="uni043B" unicode="&#x43b;" 
d="M115 0v61h73q58 0 101.5 58.5t50.5 148.5l76 817h639v-1085h-62v1024h-522l-68 -733q-12 -134 -70 -212.5t-145 -78.5h-73z" />
    <glyph glyph-name="uni043C" unicode="&#x43c;" 
d="M94 0v1085h76l446 -1013l445 1013h76v-1085h-62v967l-426 -967h-67l-426 967v-967h-62z" />
    <glyph glyph-name="uni043D" unicode="&#x43d;" 
d="M227 0v1085h62v-514h651v514h61v-1085h-61v510h-651v-510h-62z" />
    <glyph glyph-name="uni043E" unicode="&#x43e;" 
d="M614 -25q-211 0 -332.5 153t-121.5 415t121.5 414.5t332.5 152.5q212 0 333.5 -152.5t121.5 -414.5t-122 -415t-333 -153zM614 37q182 0 286 136t104 370t-104 370t-286 136t-285.5 -136t-103.5 -370t103.5 -370t285.5 -136z" />
    <glyph glyph-name="uni043F" unicode="&#x43f;" 
d="M225 0v1085h779v-1085h-62v1024h-655v-1024h-62z" />
    <glyph glyph-name="uni0440" unicode="&#x440;" 
d="M184 -307v1392h54l4 -284q47 148 149 228.5t240 80.5q205 0 324.5 -153t119.5 -414t-119 -414.5t-321 -153.5q-132 0 -240.5 87t-148.5 210v-579h-62zM635 37q173 0 274 136.5t101 369.5t-102 369.5t-277 136.5q-111 0 -199 -66.5t-137 -182t-49 -257.5
q0 -216 110.5 -361t278.5 -145z" />
    <glyph glyph-name="uni0441" unicode="&#x441;" 
d="M645 -25q-148 0 -254.5 79t-156.5 205.5t-50 283.5q0 117 29.5 218.5t85.5 180t145 123.5t201 45q161 0 267.5 -99.5t148.5 -262.5l-66 -5q-37 146 -127 226t-223 80q-182 0 -288.5 -136.5t-106.5 -369.5t106.5 -369.5t288.5 -136.5q135 0 229 87t125 241l66 -7
q-38 -173 -147.5 -278t-272.5 -105z" />
    <glyph glyph-name="uni0442" unicode="&#x442;" 
d="M584 0v1024h-408v61h877v-61h-408v-1024h-61z" />
    <glyph glyph-name="uni0443" unicode="&#x443;" 
d="M293 -307v57h82q87 0 128 30t72 114l48 126h-33l-430 1065h65l410 -1024l381 1024h65l-456 -1216q-37 -98 -91.5 -137t-158.5 -39h-82z" />
    <glyph glyph-name="uni0444" unicode="&#x444;" 
d="M584 -307v358q-229 9 -362.5 143t-133.5 355t133.5 355t362.5 143v407h65v-407q228 -11 360 -144t132 -354t-132 -354t-360 -144v-358h-65zM154 549q0 -193 116 -310t314 -126v872q-198 -9 -314 -126t-116 -310zM1075 549q0 193 -114.5 309t-311.5 127v-872
q197 11 311.5 127t114.5 309z" />
    <glyph glyph-name="uni0445" unicode="&#x445;" 
d="M168 0l405 545l-391 540h72l360 -503l359 503h74l-392 -540l406 -545h-72l-371 510l-376 -510h-74z" />
    <glyph glyph-name="uni0446" unicode="&#x446;" 
d="M1010 -307v307h-785v1085h62v-1024h655v1024h62v-1024h67v-368h-61z" />
    <glyph glyph-name="uni0447" unicode="&#x447;" 
d="M942 0v614q-23 -122 -141.5 -206t-259.5 -84q-164 0 -260.5 116.5t-96.5 315.5v329h62v-329q0 -170 80.5 -270.5t214.5 -100.5q166 0 283.5 113.5t117.5 285.5v301h62v-1085h-62z" />
    <glyph glyph-name="uni0448" unicode="&#x448;" 
d="M158 0v1085h61v-1024h365v1024h61v-1024h365v1024h61v-1085h-913z" />
    <glyph glyph-name="uni0449" unicode="&#x449;" 
d="M158 0v1085h61v-1024h365v1024h61v-1024h365v1024h61v-1024h76v-368h-62v307h-927z" />
    <glyph glyph-name="uni044A" unicode="&#x44a;" 
d="M309 0v1024h-196v61h258v-419h317q229 0 352 -86t123 -246q0 -161 -123 -247.5t-352 -86.5h-379zM371 66h317q197 0 303.5 69.5t106.5 198.5q0 130 -106.5 200t-303.5 70h-317v-538z" />
    <glyph glyph-name="uni044B" unicode="&#x44b;" 
d="M92 0v1085h62v-419h276q226 0 340.5 -85t114.5 -247q0 -163 -114 -248.5t-341 -85.5h-338zM1075 0v1085h62v-1085h-62zM154 66h276q187 0 288 69.5t101 198.5q0 130 -100.5 200t-288.5 70h-276v-538z" />
    <glyph glyph-name="uni044C" unicode="&#x44c;" 
d="M207 0v1085h61v-419h318q229 0 352 -86t123 -246q0 -161 -123 -247.5t-352 -86.5h-379zM268 66h318q197 0 303 69.5t106 198.5q0 130 -106 200t-303 70h-318v-538z" />
    <glyph glyph-name="uni044D" unicode="&#x44d;" 
d="M606 -25q-169 0 -283.5 99.5t-156.5 275.5h67q38 -149 135.5 -231t237.5 -82q177 0 282 127.5t113 347.5h-403v61h403q-8 220 -113.5 348t-281.5 128q-142 0 -240 -84t-135 -234h-67q40 178 155.5 278.5t286.5 100.5q212 0 336.5 -153t124.5 -414t-124.5 -414.5
t-336.5 -153.5z" />
    <glyph glyph-name="uni044E" unicode="&#x44e;" 
d="M61 0v1085h62v-512h158q5 150 54.5 269.5t149.5 193.5t238 74q108 0 194 -45t140 -123.5t82 -180t28 -218.5t-28 -218.5t-82 -180t-140 -124t-194 -45.5q-104 0 -187.5 42t-137 116t-83.5 170.5t-34 208.5h-158v-512h-62zM723 37q175 0 277 136.5t102 369.5t-102 369.5
t-277 136.5q-173 0 -275 -136.5t-102 -369.5t102 -369.5t275 -136.5z" />
    <glyph glyph-name="uni044F" unicode="&#x44f;" 
d="M184 0l258 438q-117 38 -179 120.5t-62 199.5q0 158 102 242.5t291 84.5h389v-1085h-61v420h-418l-248 -420h-72zM594 481h328v543h-328q-160 0 -246 -70t-86 -200q0 -131 86.5 -202t245.5 -71z" />
    <glyph glyph-name="uni0450" unicode="&#x450;" 
d="M602 1249l-164 238h70l147 -238h-53zM635 -25q-113 0 -204 45.5t-148.5 124t-88 180t-30.5 218.5q0 93 18.5 177t56.5 155.5t92 123.5t130 81.5t166 29.5q113 0 202 -44.5t144 -121.5t83.5 -175.5t28.5 -211.5v-25h-856q3 -229 113 -362t293 -133q141 0 233 69.5
t127 190.5l68 -4q-41 -143 -154 -230.5t-274 -87.5zM229 590h789q-6 213 -107.5 336t-283.5 123q-172 0 -280 -123t-118 -336z" />
    <glyph glyph-name="uni0451" unicode="&#x451;" 
d="M418 1286v144h69v-144h-69zM758 1286v144h69v-144h-69zM635 -25q-113 0 -204 45.5t-148.5 124t-88 180t-30.5 218.5q0 93 18.5 177t56.5 155.5t92 123.5t130 81.5t166 29.5q113 0 202 -44.5t144 -121.5t83.5 -175.5t28.5 -211.5v-25h-856q3 -229 113 -362t293 -133
q141 0 233 69.5t127 190.5l68 -4q-41 -143 -154 -230.5t-274 -87.5zM229 590h789q-6 213 -107.5 336t-283.5 123q-172 0 -280 -123t-118 -336z" />
    <glyph glyph-name="uni0452" unicode="&#x452;" 
d="M256 0v1241h-205v62h205v151h61v-151h234v-62h-234v-393q28 130 129.5 196t243.5 66q170 0 263.5 -116t93.5 -296v-704q0 -163 -58 -232t-196 -69h-54v55h54q117 0 154.5 52t37.5 194v655q0 187 -75.5 293.5t-235.5 106.5q-167 0 -262 -110.5t-95 -289.5v-649h-61z" />
    <glyph glyph-name="uni0453" unicode="&#x453;" 
d="M651 1249l148 238h69l-163 -238h-54zM344 0v1085h680v-61h-618v-1024h-62z" />
    <glyph glyph-name="uni0454" unicode="&#x454;" 
d="M623 -25q-212 0 -336.5 153.5t-124.5 414.5t124.5 414t336.5 153q171 0 286.5 -100.5t155.5 -278.5h-68q-37 150 -134.5 234t-239.5 84q-177 0 -282.5 -128t-113.5 -348h404v-61h-404q8 -220 113.5 -347.5t282.5 -127.5q140 0 236.5 82t135.5 231h68
q-42 -176 -156.5 -275.5t-283.5 -99.5z" />
    <glyph glyph-name="uni0455" unicode="&#x455;" 
d="M637 -25q-203 0 -323.5 96t-129.5 246l64 9q6 -131 109.5 -210t279.5 -79q342 0 342 225q0 49 -12.5 81.5t-51 63.5t-115 54t-198.5 43q-94 15 -160.5 35t-109.5 44.5t-67.5 58t-34 70t-9.5 87.5q0 141 103.5 226t277.5 85q175 0 280 -90.5t132 -231.5l-64 -12
q-16 117 -105.5 195t-242.5 78q-149 0 -232 -65.5t-83 -184.5q0 -74 28 -117.5t101.5 -72.5t214.5 -50q233 -34 323 -101.5t90 -191.5q0 -141 -104.5 -216t-302.5 -75z" />
    <glyph glyph-name="uni0456" unicode="&#x456;" 
d="M651 1286v144h70v-144h-70zM205 0v57h450v971h-430v57h492v-1028h389v-57h-901z" />
    <glyph glyph-name="uni0457" unicode="&#x457;" 
d="M479 1286v144h70v-144h-70zM819 1286v144h70v-144h-70zM205 0v57h450v971h-430v57h492v-1028h389v-57h-901z" />
    <glyph glyph-name="uni0458" unicode="&#x458;" 
d="M788 1286v144h70v-144h-70zM266 -307v57h299q119 0 176.5 61.5t57.5 188.5v1028h-533v57h594v-1085q0 -157 -72 -232t-223 -75h-299z" />
    <glyph glyph-name="uni0459" unicode="&#x459;" 
d="M20 0v61h64q58 0 101.5 58.5t50.5 148.5l75 817h381v-419h103q199 0 306 -86t107 -246q0 -161 -107 -247.5t-306 -86.5h-166v1024h-262l-68 -733q-12 -134 -70 -212.5t-145 -78.5h-64zM692 66h103q167 0 257.5 69.5t90.5 198.5q0 130 -90.5 200t-257.5 70h-103v-538z" />
    <glyph glyph-name="uni045A" unicode="&#x45a;" 
d="M92 0v1085h62v-419h436v419h61v-419h103q199 0 306 -86t107 -246q0 -161 -107 -247.5t-306 -86.5h-164v604h-436v-604h-62zM651 66h103q167 0 257.5 69.5t90.5 198.5q0 130 -90.5 200t-257.5 70h-103v-538z" />
    <glyph glyph-name="uni045B" unicode="&#x45b;" 
d="M246 0v1239h-164v53h164v162h61v-162h307v-53h-307v-395q28 128 131 197t242 69q118 0 200 -56t119 -147t37 -209v-698h-61v649q0 187 -75 293.5t-236 106.5q-166 0 -261.5 -111t-95.5 -289v-649h-61z" />
    <glyph glyph-name="uni045C" unicode="&#x45c;" 
d="M571 1249l148 238h69l-163 -238h-54zM236 0v1085h61v-536l641 536h98l-653 -542l676 -543h-101l-661 539v-539h-61z" />
    <glyph glyph-name="uni045D" unicode="&#x45d;" 
d="M592 1249l-164 238h70l147 -238h-53zM231 0v1085h62v-1009l614 1009h90v-1085h-61v1018l-621 -1018h-84z" />
    <glyph glyph-name="uni045E" unicode="&#x45e;" 
d="M635 1266q-106 0 -172.5 64t-81.5 173h53q12 -87 65.5 -133.5t135.5 -46.5t135.5 46.5t65.5 133.5h53q-15 -109 -81.5 -173t-172.5 -64zM293 -307v57h82q87 0 128 30t72 114l48 126h-33l-430 1065h65l410 -1024l381 1024h65l-456 -1216q-37 -98 -91.5 -137t-158.5 -39
h-82z" />
    <glyph glyph-name="uni045F" unicode="&#x45f;" 
d="M584 -307v307h-359v1085h62v-1024h655v1024h62v-1085h-359v-307h-61z" />
    <glyph glyph-name="uni0462" unicode="&#x462;" 
d="M33 1126v62h213v266h65v-266h326v-62h-326v-297h332q224 0 353.5 -107.5t129.5 -301.5q0 -196 -130.5 -308t-352.5 -112h-397v1126h-213zM311 768v-707h324q201 0 311.5 92.5t110.5 266.5q0 172 -109.5 260t-312.5 88h-324z" />
    <glyph glyph-name="uni0463" unicode="&#x463;" 
d="M311 0v1085h-239v62h239v307h62v-307h241v-62h-241v-358h317q228 0 351.5 -95t123.5 -270t-123 -268.5t-352 -93.5h-379zM373 66h317q197 0 303.5 77t106.5 219q0 146 -106.5 225t-303.5 79h-317v-600z" />
    <glyph glyph-name="uni046A" unicode="&#x46a;" 
d="M10 0l244 590q70 168 233 168h58l-400 635v61h938v-61l-399 -635h57q162 0 232 -168l246 -590h-72l-211 522q-38 95 -83.5 134.5t-113.5 39.5h-92v-696h-65v696h-93q-68 0 -113 -39.5t-83 -134.5l-211 -522h-72zM217 1393l397 -633l398 633h-795z" />
    <glyph glyph-name="uni046B" unicode="&#x46b;" 
d="M29 0l194 410q34 70 101.5 107.5t158.5 37.5h62l-416 469v61h975v-61l-416 -469h60q91 0 158.5 -37.5t101.5 -107.5l194 -410h-67l-168 362q-32 69 -83.5 100.5t-133.5 31.5h-103v-494h-61v494h-103q-83 0 -136 -31.5t-85 -100.5l-166 -362h-67zM207 1024l409 -461
l410 461h-819z" />
    <glyph glyph-name="uni0472" unicode="&#x472;" 
d="M614 -33q-239 0 -377.5 204.5t-138.5 553.5q0 352 138.5 557t377.5 205t377.5 -205t138.5 -557q0 -349 -138.5 -553.5t-377.5 -204.5zM543 786q182 -78 239.5 -94.5t128.5 -11.5q86 7 150 39v6q0 324 -117 510t-330 186q-194 0 -308.5 -156.5t-133.5 -435.5q29 8 78 11
q63 4 144.5 -11t148.5 -43zM614 33q199 0 315 163t130 451q-71 -27 -144 -33q-64 -3 -131.5 15t-236.5 88q-73 31 -152 46.5t-139 10.5q-51 -3 -88 -14v-35q0 -323 116.5 -507.5t329.5 -184.5z" />
    <glyph glyph-name="uni0473" unicode="&#x473;" 
d="M614 -25q-211 0 -332.5 153t-121.5 415t121.5 414.5t332.5 152.5q212 0 333.5 -152.5t121.5 -414.5t-122 -415t-333 -153zM543 592q189 -61 247.5 -73t127.5 -1q45 6 86 21v4q0 234 -104 370t-286 136q-166 0 -268 -115.5t-119 -317.5q15 5 19 5q61 9 144.5 1t152.5 -30z
M614 37q168 0 270 116.5t117 321.5q-39 -13 -73 -18q-64 -8 -134 3.5t-241 65.5q-164 53 -295 33q-18 -3 -33 -6v-10q0 -234 103.5 -370t285.5 -136z" />
    <glyph glyph-name="uni0474" unicode="&#x474;" 
d="M530 0l-489 1454h72l450 -1358l400 1204q53 154 192 154h53v-61h-39q-104 0 -145 -115l-430 -1278h-64z" />
    <glyph glyph-name="uni0475" unicode="&#x475;" 
d="M524 0l-405 1085h65l379 -1022l309 834q67 188 248 188h27v-61h-27q-72 0 -117 -38t-79 -128l-322 -858h-78z" />
    <glyph glyph-name="uni0490" unicode="&#x490;" 
d="M217 0v1454h854v318h66v-379h-854v-1393h-66z" />
    <glyph glyph-name="uni0491" unicode="&#x491;" 
d="M344 0v1085h619v318h61v-379h-618v-1024h-62z" />
    <glyph glyph-name="uni0492" unicode="&#x492;" 
d="M217 0v641h-143v61h143v752h899v-61h-833v-691h561v-61h-561v-641h-66z" />
    <glyph glyph-name="uni0493" unicode="&#x493;" 
d="M434 0v541h-262v61h262v483h680v-61h-618v-422h262v-61h-262v-541h-62z" />
    <glyph glyph-name="uni0496" unicode="&#x496;" 
d="M20 0l500 727l-479 727h76l465 -711v711h65v-711l465 711h76l-479 -727l448 -653h53v-381h-65v307h-12l-486 713v-713h-65v713l-486 -713h-76z" />
    <glyph glyph-name="uni0497" unicode="&#x497;" 
d="M31 0l479 543l-459 542h80l453 -534v534h61v-534l453 534h80l-459 -542l414 -469h71v-381h-61v307h-25l-473 537v-537h-61v537l-473 -537h-80z" />
    <glyph glyph-name="uni049A" unicode="&#x49a;" 
d="M166 0v1454h65v-713l756 713h84l-768 -727l744 -653h83v-381h-65v307h-21l-813 715v-715h-65z" />
    <glyph glyph-name="uni049B" unicode="&#x49b;" 
d="M236 0v1085h61v-536l641 536h98l-653 -542l584 -469h92v-381h-62v307h-39l-661 539v-539h-61z" />
    <glyph glyph-name="uni04A2" unicode="&#x4a2;" 
d="M164 0v1454h65v-678h770v678h66v-1380h47v-381h-65v307h-48v715h-770v-715h-65z" />
    <glyph glyph-name="uni04A3" unicode="&#x4a3;" 
d="M227 0v1085h62v-514h651v514h61v-1011h62v-381h-62v307h-61v510h-651v-510h-62z" />
    <glyph glyph-name="uni04AE" unicode="&#x4ae;" 
d="M582 0v594l-480 860h78l434 -790l435 790h77l-479 -860v-594h-65z" />
    <glyph glyph-name="uni04AF" unicode="&#x4af;" 
d="M584 0l-434 1085h65l399 -1003l400 1003h65l-434 -1085v-307h-61v307z" />
    <glyph glyph-name="uni04B0" unicode="&#x4b0;" 
d="M582 0v580h-361v61h334l-453 813h78l434 -790l435 790h77l-452 -813h334v-61h-361v-580h-65z" />
    <glyph glyph-name="uni04B1" unicode="&#x4b1;" 
d="M307 -31v62h264l-421 1054h65l399 -1003l400 1003h65l-422 -1054h263v-62h-275v-276h-61v276h-277z" />
    <glyph glyph-name="uni04B2" unicode="&#x4b2;" 
d="M123 0l448 737l-432 717h74l405 -672l398 672h74l-431 -725l402 -655h59v-381h-65v307h-23l-420 688l-415 -688h-74z" />
    <glyph glyph-name="uni04B3" unicode="&#x4b3;" 
d="M168 0l405 545l-391 540h72l360 -503l359 503h74l-392 -540l351 -471h61v-381h-61v307h-17l-371 510l-376 -510h-74z" />
    <glyph glyph-name="uni04B6" unicode="&#x4b6;" 
d="M979 0v760q-31 -118 -154.5 -195.5t-283.5 -77.5q-201 0 -309.5 113t-108.5 320v534h65v-534q0 -178 92 -273.5t261 -95.5q193 0 315.5 111t122.5 286v506h65v-1380h64v-381h-66v307h-63z" />
    <glyph glyph-name="uni04B7" unicode="&#x4b7;" 
d="M942 0v614q-23 -122 -141.5 -206t-259.5 -84q-164 0 -260.5 116.5t-96.5 315.5v329h62v-329q0 -170 80.5 -270.5t214.5 -100.5q166 0 283.5 113.5t117.5 285.5v301h62v-1011h61v-381h-61v307h-62z" />
    <glyph glyph-name="uni04BA" unicode="&#x4ba;" 
d="M250 1454v-760q31 118 154.5 195.5t283.5 77.5q201 0 309.5 -112.5t108.5 -319.5v-535h-66v535q0 178 -91.5 273t-260.5 95q-193 0 -315.5 -111t-122.5 -286v-506h-66v1454h66z" />
    <glyph glyph-name="uni04BB" unicode="&#x4bb;" 
d="M246 0v1454h61v-610q28 128 131 197t242 69q118 0 200 -56t119 -147t37 -209v-698h-61v649q0 187 -75 293.5t-236 106.5q-166 0 -261.5 -111t-95.5 -289v-649h-61z" />
    <glyph glyph-name="uni04C0" unicode="&#x4c0;" 
d="M184 0v61h398v1332h-398v61h860v-61h-397v-1332h397v-61h-860z" />
    <glyph glyph-name="uni04CF" unicode="&#x4cf;" 
d="M184 0v61h398v1332h-398v61h860v-61h-397v-1332h397v-61h-860z" />
    <glyph glyph-name="uni04D8" unicode="&#x4d8;" 
d="M616 -31q-154 0 -272.5 96.5t-182 269t-63.5 394.5v19h981q-5 298 -132 485.5t-331 187.5q-131 0 -247 -104.5t-176 -280.5l-70 6q60 202 195.5 323.5t297.5 121.5q159 0 280 -96.5t186 -268.5t65 -393q0 -347 -147 -553.5t-384 -206.5zM616 35q195 0 323 176.5
t140 474.5h-911q8 -190 65.5 -338t157 -230.5t225.5 -82.5z" />
    <glyph glyph-name="uni04D9" unicode="&#x4d9;" 
d="M594 1110q113 0 204 -45t148.5 -123.5t88 -180t30.5 -218.5q0 -157 -50.5 -283.5t-157.5 -205.5t-255 -79q-91 0 -167 29t-129.5 80.5t-90.5 121.5t-54.5 151t-17.5 171v25h856q-3 229 -113 362.5t-292 133.5q-141 0 -233.5 -70t-127.5 -191l-67 5q41 142 154 229.5
t274 87.5zM999 496h-788q6 -213 107.5 -336t283.5 -123q172 0 279.5 123t117.5 336z" />
    <glyph glyph-name="uni04E2" unicode="&#x4e2;" 
d="M344 1688v57h508v-57h-508zM1065 0h-66v1393l-739 -1393h-96v1454h65v-1393l740 1393h96v-1454z" />
    <glyph glyph-name="uni04E3" unicode="&#x4e3;" 
d="M360 1319v57h508v-57h-508zM231 0v1085h62v-1009l614 1009h90v-1085h-61v1018l-621 -1018h-84z" />
    <glyph glyph-name="uni04E8" unicode="&#x4e8;" 
d="M614 -33q-239 0 -377.5 204.5t-138.5 553.5q0 352 138.5 557t377.5 205t377.5 -205t138.5 -557q0 -349 -138.5 -553.5t-377.5 -204.5zM614 1421q-207 0 -323.5 -176t-122.5 -487h893q-6 310 -123 486.5t-324 176.5zM614 33q208 0 324.5 176t122.5 487h-893
q6 -311 122 -487t324 -176z" />
    <glyph glyph-name="uni04E9" unicode="&#x4e9;" 
d="M614 -25q-211 0 -332.5 153t-121.5 415t121.5 414.5t332.5 152.5q212 0 333.5 -152.5t121.5 -414.5t-122 -415t-333 -153zM614 1049q-176 0 -278.5 -127.5t-110.5 -348.5h779q-8 221 -111 348.5t-279 127.5zM614 37q176 0 279 127t111 348h-779q8 -221 110.5 -348
t278.5 -127z" />
    <glyph glyph-name="uni04EE" unicode="&#x4ee;" 
d="M383 1688v57h508v-57h-508zM281 0v61h79q75 0 121 38t80 128l60 162h-35l-428 1065h69l410 -1022l379 1022h69l-475 -1268q-68 -186 -250 -186h-79z" />
    <glyph glyph-name="uni04EF" unicode="&#x4ef;" 
d="M381 1319v57h508v-57h-508zM293 -307v57h82q87 0 128 30t72 114l48 126h-33l-430 1065h65l410 -1024l381 1024h65l-456 -1216q-37 -98 -91.5 -137t-158.5 -39h-82z" />
    <glyph glyph-name="uni0E3F" unicode="&#xe3f;" 
d="M158 0v1454h321v195h62v-195q231 -1 351 -101.5t120 -287.5q0 -128 -77 -218.5t-204 -113.5q159 -20 249.5 -112t90.5 -234q0 -188 -118 -287.5t-345 -99.5h-67v-186h-62v186h-321zM223 754h256v643h-256v-643zM942 1065q0 159 -103 245.5t-298 86.5v-643h26
q170 0 272.5 82t102.5 229zM223 57h256v639h-256v-639zM602 696h-61v-639h63q198 0 297.5 84.5t99.5 245.5q0 141 -107.5 225t-291.5 84z" />
    <glyph glyph-name="uni1E20" unicode="&#x1e20;" 
d="M348 1688v57h508v-57h-508zM614 -33q-239 0 -377.5 203t-138.5 555q0 224 64.5 397.5t182 269t269.5 95.5q383 0 484 -463l-70 -8q-43 202 -145 303.5t-269 101.5q-130 0 -231.5 -88t-158 -246.5t-56.5 -361.5q0 -318 122 -505t328 -187q183 0 301.5 163.5t124.5 421.5
h-421v58h483v-676h-57v371q-44 -183 -159.5 -293.5t-275.5 -110.5z" />
    <glyph glyph-name="uni1E21" unicode="&#x1e21;" 
d="M342 1319v57h508v-57h-508zM598 -332q-169 0 -282 90.5t-119 229.5l65 4q6 -118 96.5 -190t239.5 -72q177 0 276 101.5t99 285.5v209q-51 -127 -149 -201t-232 -74q-206 0 -327.5 143.5t-121.5 389.5q0 240 122 383t327 143q136 0 236 -79.5t145 -207.5v262h61v-972
q0 -207 -116.5 -326t-319.5 -119zM592 113q173 0 277 127.5t104 343.5q0 202 -105.5 333.5t-275.5 131.5q-175 0 -279 -126.5t-104 -338.5q0 -216 104 -343.5t279 -127.5z" />
    <glyph glyph-name="Wgrave" unicode="&#x1e80;" 
d="M592 1618l-164 237h70l147 -237h-53zM295 0l-213 1454h65l199 -1384l232 1220h73l232 -1220l198 1384h66l-213 -1454h-94l-226 1180l-225 -1180h-94z" />
    <glyph glyph-name="wgrave" unicode="&#x1e81;" 
d="M592 1249l-164 238h70l147 -238h-53zM328 0l-267 1085h66l238 -1024l219 881h61l219 -881l238 1024h65l-266 -1085h-74l-213 848l-213 -848h-73z" />
    <glyph glyph-name="Wacute" unicode="&#x1e82;" 
d="M582 1618l147 237h70l-164 -237h-53zM295 0l-213 1454h65l199 -1384l232 1220h73l232 -1220l198 1384h66l-213 -1454h-94l-226 1180l-225 -1180h-94z" />
    <glyph glyph-name="wacute" unicode="&#x1e83;" 
d="M582 1249l147 238h70l-164 -238h-53zM328 0l-267 1085h66l238 -1024l219 881h61l219 -881l238 1024h65l-266 -1085h-74l-213 848l-213 -848h-73z" />
    <glyph glyph-name="Wdieresis" unicode="&#x1e84;" 
d="M408 1655v143h69v-143h-69zM748 1655v143h69v-143h-69zM295 0l-213 1454h65l199 -1384l232 1220h73l232 -1220l198 1384h66l-213 -1454h-94l-226 1180l-225 -1180h-94z" />
    <glyph glyph-name="wdieresis" unicode="&#x1e85;" 
d="M408 1286v144h69v-144h-69zM748 1286v144h69v-144h-69zM328 0l-267 1085h66l238 -1024l219 881h61l219 -881l238 1024h65l-266 -1085h-74l-213 848l-213 -848h-73z" />
    <glyph glyph-name="uni1E9E" unicode="&#x1e9e;" 
d="M115 0v1085q0 193 83.5 281t270.5 88h600v-86l-569 -532q319 0 483 -104t164 -310q0 -186 -139 -304t-357 -118h-274v61h274q187 0 306.5 101.5t119.5 259.5q0 179 -146.5 265.5t-441.5 86.5h-67v68l582 551h-533q-160 0 -225.5 -69.5t-65.5 -236.5v-1087h-65z" />
    <glyph glyph-name="uni1EBC" unicode="&#x1ebc;" 
d="M754 1659q-41 0 -70.5 15.5t-60.5 49.5q-27 30 -51.5 44t-59.5 14q-96 0 -102 -133h-54q6 85 48.5 133.5t107.5 48.5q46 0 79 -18.5t68 -55.5q49 -49 95 -49q41 0 62.5 33t27.5 108h53q-6 -90 -42.5 -140t-100.5 -50zM205 0v1454h844v-61h-779v-637h754v-62h-754v-633
h795v-61h-860z" />
    <glyph glyph-name="uni1EBD" unicode="&#x1ebd;" 
d="M752 1290q-41 0 -70.5 16t-60.5 50q-27 30 -51.5 43.5t-59.5 13.5q-96 0 -102 -133h-54q6 85 48.5 133.5t107.5 48.5q46 0 79 -18.5t68 -54.5q50 -50 95 -50q40 0 62 33.5t28 108.5h53q-6 -91 -42.5 -141t-100.5 -50zM635 -25q-113 0 -204 45.5t-148.5 124t-88 180
t-30.5 218.5q0 93 18.5 177t56.5 155.5t92 123.5t130 81.5t166 29.5q113 0 202 -44.5t144 -121.5t83.5 -175.5t28.5 -211.5v-25h-856q3 -229 113 -362t293 -133q141 0 233 69.5t127 190.5l68 -4q-41 -143 -154 -230.5t-274 -87.5zM229 590h789q-6 213 -107.5 336t-283.5 123
q-172 0 -280 -123t-118 -336z" />
    <glyph glyph-name="Ygrave" unicode="&#x1ef2;" 
d="M592 1618l-164 237h70l147 -237h-53zM582 0v594l-480 860h78l434 -790l435 790h77l-479 -860v-594h-65z" />
    <glyph glyph-name="ygrave" unicode="&#x1ef3;" 
d="M612 1249l-163 238h69l148 -238h-54zM293 -307v57h82q87 0 128 30t72 114l48 126h-33l-430 1065h65l410 -1024l381 1024h65l-456 -1216q-37 -98 -91.5 -137t-158.5 -39h-82z" />
    <glyph glyph-name="uni1EF8" unicode="&#x1ef8;" 
d="M741 1659q-41 0 -70.5 15.5t-60.5 49.5q-27 30 -51 44t-59 14q-97 0 -103 -133h-53q6 85 48.5 133.5t107.5 48.5q46 0 79 -18.5t68 -55.5q49 -49 94 -49q41 0 62.5 33t27.5 108h54q-6 -90 -43 -140t-101 -50zM582 0v594l-480 860h78l434 -790l435 790h77l-479 -860v-594
h-65z" />
    <glyph glyph-name="uni1EF9" unicode="&#x1ef9;" 
d="M762 1290q-41 0 -70.5 16t-60.5 50q-27 30 -51.5 43.5t-59.5 13.5q-96 0 -102 -133h-53q6 85 48 133.5t107 48.5q46 0 79.5 -18.5t68.5 -54.5q50 -50 94 -50q40 0 62 33.5t28 108.5h53q-6 -91 -42.5 -141t-100.5 -50zM293 -307v57h82q87 0 128 30t72 114l48 126h-33
l-430 1065h65l410 -1024l381 1024h65l-456 -1216q-37 -98 -91.5 -137t-158.5 -39h-82z" />
    <glyph glyph-name="endash" unicode="&#x2013;" 
d="M225 547v61h779v-61h-779z" />
    <glyph glyph-name="emdash" unicode="&#x2014;" 
d="M41 547v61h1147v-61h-1147z" />
    <glyph glyph-name="quoteleft" unicode="&#x2018;" 
d="M696 1487l-82 -256h95v-164h-164v147l100 273h51z" />
    <glyph glyph-name="quoteright" unicode="&#x2019;" 
d="M532 1034l82 256h-94v164h164v-147l-100 -273h-52z" />
    <glyph glyph-name="quotesinglbase" unicode="&#x201a;" 
d="M545 -256l82 256h-95v164h164v-148l-100 -272h-51z" />
    <glyph glyph-name="quotedblleft" unicode="&#x201c;" 
d="M848 1487l-82 -256h94v-164h-164v147l101 273h51zM520 1487l-82 -256h94v-164h-163v147l100 273h51z" />
    <glyph glyph-name="quotedblright" unicode="&#x201d;" 
d="M381 1034l82 256h-94v164h163v-147l-100 -273h-51zM709 1034l82 256h-95v164h164v-147l-100 -273h-51z" />
    <glyph glyph-name="quotedblbase" unicode="&#x201e;" 
d="M381 -256l82 256h-94v164h163v-148l-100 -272h-51zM709 -256l82 256h-95v164h164v-148l-100 -272h-51z" />
    <glyph glyph-name="dagger" unicode="&#x2020;" 
d="M582 0v1024h-336v61h336v369h65v-369h336v-61h-336v-1024h-65z" />
    <glyph glyph-name="daggerdbl" unicode="&#x2021;" 
d="M248 362v62h334v600h-334v61h334v369h65v-369h332v-61h-332v-600h332v-62h-332v-362h-65v362h-334z" />
    <glyph glyph-name="bullet" unicode="&#x2022;" 
d="M614 492q-51 0 -84.5 32.5t-33.5 81.5q0 51 33.5 84t84.5 33t85 -33t34 -84q0 -49 -34 -81.5t-85 -32.5z" />
    <glyph glyph-name="ellipsis" unicode="&#x2026;" 
d="M143 0v164h164v-164h-164zM530 0v164h164v-164h-164zM922 0v164h163v-164h-163z" />
    <glyph glyph-name="perthousand" unicode="&#x2030;" 
d="M254 815q-115 0 -184.5 88t-69.5 240t69.5 239.5t184.5 87.5t184.5 -87.5t69.5 -239.5t-69.5 -240t-184.5 -88zM0 0l803 1454h61l-803 -1454h-61zM254 872q91 0 141.5 69t50.5 202t-50.5 201.5t-141.5 68.5t-142 -68.5t-51 -201.5t51 -202t142 -69zM586 -16
q-101 0 -167.5 88.5t-66.5 238.5t66.5 239t167.5 89q68 0 122 -41.5t83 -116.5q29 75 82.5 116.5t121.5 41.5q101 0 167.5 -89t66.5 -239t-66.5 -238.5t-167.5 -88.5q-68 0 -121.5 41t-82.5 116q-29 -75 -83 -116t-122 -41zM586 41q77 0 124.5 70t47.5 200q0 131 -47.5 201
t-124.5 70t-124.5 -70t-47.5 -201q0 -130 47.5 -200t124.5 -70zM995 41q77 0 124.5 70t47.5 200q0 131 -47.5 201t-124.5 70t-124.5 -70t-47.5 -201q0 -130 47.5 -200t124.5 -70z" />
    <glyph glyph-name="minute" unicode="&#x2032;" 
d="M539 971l86 483h65l-94 -483h-57z" />
    <glyph glyph-name="second" unicode="&#x2033;" 
d="M453 971l86 483h65l-94 -483h-57zM625 971l86 483h65l-94 -483h-57z" />
    <glyph glyph-name="guilsinglleft" unicode="&#x2039;" 
d="M815 156h-82l-319 379v61l319 379h82l-346 -410z" />
    <glyph glyph-name="guilsinglright" unicode="&#x203a;" 
d="M414 156l346 409l-346 410h82l319 -379v-61l-319 -379h-82z" />
    <glyph glyph-name="fraction" unicode="&#x2044;" 
d="M768 950l252 504h65l-251 -504h-66zM143 0l252 502h66l-252 -502h-66z" />
    <glyph glyph-name="uni2070" unicode="&#x2070;" 
d="M614 645q-140 0 -220.5 111t-80.5 303q0 193 80 302t221 109t221 -109t80 -302q0 -192 -80.5 -303t-220.5 -111zM375 1059q0 -154 53 -246l338 539q-59 65 -152 65q-112 0 -175.5 -95t-63.5 -263zM614 698q110 0 175 97t65 264q0 156 -53 248l-340 -541q62 -68 153 -68z
" />
    <glyph glyph-name="uni2074" unicode="&#x2074;" 
d="M717 662v194h-391v45l391 553h57v-545h131v-53h-131v-194h-57zM391 909h326v463z" />
    <glyph glyph-name="uni2075" unicode="&#x2075;" 
d="M610 645q-117 0 -185.5 57t-80.5 152l66 6q6 -75 56.5 -116.5t143.5 -41.5q96 0 155.5 60t59.5 156q0 98 -53.5 154t-144.5 56q-145 0 -211 -135h-64l58 461h430v-57h-379l-43 -328q21 50 79 83.5t134 33.5q117 0 186.5 -72.5t69.5 -195.5q0 -120 -76.5 -196.5
t-200.5 -76.5z" />
    <glyph glyph-name="uni2076" unicode="&#x2076;" 
d="M623 645q-137 0 -211 92t-74 277q0 206 81 331t224 125q186 0 244 -192l-58 -8q-20 75 -65 111t-121 36q-109 0 -174.5 -101t-69.5 -280q31 72 91.5 113t138.5 41q116 0 189 -73.5t73 -190.5q0 -126 -73.5 -203.5t-194.5 -77.5zM623 698q91 0 148.5 63t57.5 165
q0 92 -56 151.5t-144 59.5q-89 0 -154 -64t-65 -155q0 -98 60 -159t153 -61z" />
    <glyph glyph-name="uni2077" unicode="&#x2077;" 
d="M539 662q0 176 76 373t196 362h-449v57h504v-57q-116 -162 -189 -358.5t-73 -376.5h-65z" />
    <glyph glyph-name="uni2078" unicode="&#x2078;" 
d="M614 645q-134 0 -211 56t-77 169q0 171 180 224q-141 42 -141 172q0 204 249 204q250 0 250 -204q0 -130 -141 -172q180 -53 180 -224q0 -113 -77.5 -169t-211.5 -56zM614 1122q86 0 137.5 36t51.5 108q0 74 -44.5 110.5t-144.5 36.5t-144 -36.5t-44 -110.5
q0 -72 51 -108t137 -36zM614 702q228 0 228 172q0 87 -64 141t-164 54t-163.5 -54t-63.5 -141q0 -172 227 -172z" />
    <glyph glyph-name="uni2079" unicode="&#x2079;" 
d="M606 1470q137 0 211 -91.5t74 -276.5q0 -206 -81.5 -331.5t-223.5 -125.5q-186 0 -244 193l57 8q20 -76 65.5 -112t121.5 -36q109 0 174 101t69 280q-31 -72 -91 -112.5t-138 -40.5q-116 0 -189 73.5t-73 190.5q0 126 73.5 203t194.5 77zM606 1417q-91 0 -149 -62.5
t-58 -164.5q0 -92 56.5 -151.5t144.5 -59.5q89 0 154 64t65 155q0 97 -60 158t-153 61z" />
    <glyph glyph-name="uni2080" unicode="&#x2080;" 
d="M614 -221q-140 0 -220.5 111t-80.5 303q0 193 80 302t221 109t221 -109t80 -302q0 -192 -80.5 -303t-220.5 -111zM375 193q0 -154 53 -246l338 538q-60 66 -152 66q-112 0 -175.5 -95t-63.5 -263zM614 -168q110 0 175 97t65 264q0 155 -53 247l-340 -540q62 -68 153 -68z
" />
    <glyph glyph-name="uni2081" unicode="&#x2081;" 
d="M686 -205v586h-201v45h27q186 0 186 162h45v-793h-57z" />
    <glyph glyph-name="uni2082" unicode="&#x2082;" 
d="M344 -205q0 127 52.5 201t189.5 149l67 37q103 56 133.5 95.5t30.5 101.5q0 81 -50.5 124.5t-143.5 43.5q-178 0 -215 -207l-62 6q13 123 85.5 190.5t191.5 67.5q120 0 188 -59.5t68 -165.5q0 -82 -42 -133t-151 -109l-61 -33q-115 -61 -164 -119.5t-47 -131.5h456v-58
h-526z" />
    <glyph glyph-name="uni2083" unicode="&#x2083;" 
d="M621 -221q-141 0 -212 59.5t-77 165.5l63 6q6 -88 57 -131t169 -43q217 0 217 180q0 77 -56 127t-155 50h-58v53h58q78 0 129 38t51 124q0 139 -189 139q-176 0 -192 -148l-66 9q12 92 80 144t178 52q122 0 186 -52.5t64 -143.5q0 -70 -39.5 -119.5t-109.5 -69.5
q90 -21 135 -74.5t45 -128.5q0 -107 -74 -172t-204 -65z" />
    <glyph glyph-name="uni2084" unicode="&#x2084;" 
d="M717 -205v195h-391v45l391 553h57v-545h131v-53h-131v-195h-57zM391 43h326v463z" />
    <glyph glyph-name="uni2085" unicode="&#x2085;" 
d="M610 -221q-117 0 -185.5 57t-80.5 152l66 6q6 -75 56.5 -116.5t143.5 -41.5q96 0 155.5 59.5t59.5 155.5q0 98 -53.5 154.5t-144.5 56.5q-145 0 -211 -135h-64l58 461h430v-58h-379l-43 -327q21 50 78.5 83t134.5 33q117 0 186.5 -72.5t69.5 -195.5q0 -119 -76.5 -195.5
t-200.5 -76.5z" />
    <glyph glyph-name="uni2086" unicode="&#x2086;" 
d="M623 -221q-137 0 -211 91.5t-74 276.5q0 206 81.5 331.5t223.5 125.5q186 0 244 -192l-58 -9q-20 76 -65 112t-121 36q-109 0 -174.5 -101t-69.5 -280q31 72 91.5 113t138.5 41q116 0 189 -74t73 -191q0 -126 -73.5 -203t-194.5 -77zM623 -168q91 0 148.5 62.5
t57.5 164.5q0 92 -56 151.5t-144 59.5q-89 0 -154 -64t-65 -155q0 -97 60 -158t153 -61z" />
    <glyph glyph-name="uni2087" unicode="&#x2087;" 
d="M539 -205q0 176 76 373t196 362h-449v58h504v-58q-116 -162 -189 -358.5t-73 -376.5h-65z" />
    <glyph glyph-name="uni2088" unicode="&#x2088;" 
d="M614 -221q-134 0 -211 56t-77 169q0 170 180 223q-141 42 -141 172q0 205 249 205q250 0 250 -205q0 -130 -141 -172q180 -53 180 -223q0 -113 -77.5 -169t-211.5 -56zM614 256q86 0 137.5 35.5t51.5 107.5q0 74 -44.5 111t-144.5 37t-144 -37t-44 -111q0 -72 51 -107.5
t137 -35.5zM614 -164q228 0 228 172q0 87 -64 141t-164 54t-163.5 -54t-63.5 -141q0 -172 227 -172z" />
    <glyph glyph-name="uni2089" unicode="&#x2089;" 
d="M606 604q137 0 211 -91.5t74 -276.5q0 -206 -81.5 -331.5t-223.5 -125.5q-186 0 -244 192l57 9q20 -76 65.5 -112t121.5 -36q109 0 174 101t69 280q-31 -72 -91 -113t-138 -41q-116 0 -189 74t-73 191q0 126 73.5 203t194.5 77zM606 551q-91 0 -149 -62.5t-58 -164.5
q0 -92 56.5 -151.5t144.5 -59.5q89 0 154 64t65 155q0 97 -60 158t-153 61z" />
    <glyph glyph-name="uni20AA" unicode="&#x20aa;" 
d="M430 0v1137h66v-1076h381q82 0 133 66t51 170v1157h65v-1147q0 -135 -71 -221t-183 -86h-442zM102 0v1454h443q112 0 183 -86t71 -221v-830h-66v840q0 104 -51 170t-133 66h-381v-1393h-66z" />
    <glyph glyph-name="Euro" unicode="&#x20ac;" 
d="M41 543v61h139q-4 78 -4 121q0 47 4 133h-139v62h145q34 269 156.5 418t316.5 149q190 0 309.5 -120.5t166.5 -346.5l-70 -8q-37 197 -142 303t-264 106q-161 0 -265.5 -132t-135.5 -369h557l-10 -62h-553q-6 -65 -6 -133q0 -43 4 -121h522l-8 -61h-508q30 -240 135 -375
t268 -135q162 0 272 113t146 325l70 -8q-43 -231 -170.5 -363.5t-317.5 -132.5q-197 0 -319.5 152t-153.5 424h-145z" />
    <glyph glyph-name="uni20B4" unicode="&#x20b4;" 
d="M61 836v61h848q107 90 107 217q0 131 -105.5 219t-281.5 88q-145 0 -246 -86t-150 -258l-63 17q51 190 168 291.5t289 101.5q203 0 328.5 -107t125.5 -266q0 -65 -28 -123.5t-66 -93.5h180v-61h-1106zM600 -25q-202 0 -331.5 107t-129.5 274q0 103 54 181h-132v61h1106
v-61h-903q-59 -75 -59 -181q0 -138 108 -226.5t277 -88.5q353 0 426 309l71 -6q-111 -369 -487 -369z" />
    <glyph glyph-name="uni20B9" unicode="&#x20b9;" 
d="M760 0l-678 604v94h373q178 0 289 83t122 218h-784v62h784q-12 145 -124 238.5t-287 93.5h-373v61h1065v-61h-434q96 -51 153 -138t64 -194h217v-62h-215q-12 -156 -143.5 -259t-333.5 -103h-318l715 -637h-92z" />
    <glyph glyph-name="uni20BD" unicode="&#x20bd;" 
d="M262 0v295h-176v61h176v1098h397q223 0 353.5 -112.5t130.5 -307.5q0 -194 -130 -301.5t-354 -107.5h-331v-269h458v-61h-458v-295h-66zM328 686h323q203 0 312.5 88t109.5 260q0 174 -110.5 266.5t-311.5 92.5h-323v-707z" />
    <glyph glyph-name="uni2107" unicode="&#x2107;" 
d="M631 -33q-214 0 -355 121.5t-141 310.5q0 131 84 236t223 151q-117 40 -187.5 127.5t-70.5 194.5q0 166 125 272.5t316 106.5q117 0 236.5 -62.5t191.5 -162.5l-47 -54q-71 99 -174.5 156t-206.5 57q-161 0 -266 -88t-105 -225q0 -129 108 -212t269 -83l114 2v-63l-114 2
q-183 0 -304.5 -97.5t-121.5 -248.5q0 -168 121 -271.5t305 -103.5q115 0 224.5 59t199.5 168l47 -51q-98 -117 -220.5 -179.5t-250.5 -62.5z" />
    <glyph glyph-name="uni2116" unicode="&#x2116;" 
d="M971 770q-109 0 -173.5 96.5t-64.5 259.5q0 164 64.5 262.5t173.5 98.5q108 0 172.5 -98t64.5 -263q0 -162 -64.5 -259t-172.5 -97zM20 0v1454h97l477 -1364v1364h61v-1454h-96l-477 1364v-1364h-62zM971 821q84 0 132 82.5t48 222.5q0 143 -48.5 226.5t-131.5 83.5
q-84 0 -132 -83.5t-48 -226.5q0 -140 48 -222.5t132 -82.5zM766 471v57h410v-57h-410z" />
    <glyph glyph-name="uni2117" unicode="&#x2117;" 
d="M616 383q-113 0 -216 44t-177 117.5t-118 175.5t-44 214q0 113 44 215.5t118 176.5t177 117.5t216 43.5q112 0 214 -43.5t176 -117.5t117.5 -176.5t43.5 -215.5q0 -149 -73.5 -276t-200.5 -201t-277 -74zM616 432q134 0 249.5 68.5t183 184t67.5 249.5q0 135 -67.5 251
t-182.5 184.5t-250 68.5t-251 -68.5t-184 -184.5t-68 -251q0 -134 68 -249.5t184 -184t251 -68.5zM446 614v637h205q107 0 169.5 -50t62.5 -136t-62 -134t-170 -48h-149v-269h-56zM502 938h166q77 0 120 33t43 98q0 60 -44 95.5t-119 35.5h-166v-262z" />
    <glyph glyph-name="trademark" unicode="&#x2122;" 
d="M547 735v719h74l239 -651l240 651h71v-719h-61v568l-213 -568h-74l-215 572v-572h-61zM244 735v660h-187v59h435v-59h-187v-660h-61z" />
    <glyph glyph-name="uni2153" unicode="&#x2153;" 
d="M344 662v585h-201v45h27q186 0 186 162h45v-792h-57zM748 950l251 504h66l-252 -504h-65zM827 -16q-141 0 -211.5 59.5t-76.5 165.5l63 6q6 -88 56.5 -131t168.5 -43q217 0 217 180q0 77 -55.5 126.5t-154.5 49.5h-58v54h58q78 0 129 38t51 123q0 66 -46.5 103t-142.5 37
q-176 0 -192 -148l-66 8q12 93 80 145t178 52q122 0 186 -53t64 -144q0 -70 -39.5 -118.5t-109.5 -69.5q90 -21 135 -74.5t45 -128.5q0 -107 -74.5 -172t-204.5 -65zM123 0l252 502h65l-252 -502h-65z" />
    <glyph glyph-name="uni2154" unicode="&#x2154;" 
d="M41 662q0 127 52.5 201t189.5 149l67 37q103 56 133.5 95t30.5 101q0 81 -51 124.5t-144 43.5q-178 0 -215 -207l-61 6q14 123 86 190.5t190 67.5q120 0 188 -59.5t68 -165.5q0 -82 -41.5 -132.5t-150.5 -108.5l-61 -33q-114 -61 -163.5 -120t-47.5 -132h456v-57h-526z
M764 950l252 504h65l-252 -504h-65zM909 -16q-141 0 -211.5 59.5t-76.5 165.5l63 6q6 -88 56.5 -131t168.5 -43q217 0 217 180q0 77 -56 126.5t-155 49.5h-57v54h57q78 0 129.5 38t51.5 123q0 66 -46.5 103t-142.5 37q-176 0 -192 -148l-66 8q12 93 80 145t178 52
q122 0 186 -53t64 -144q0 -70 -39.5 -118.5t-109.5 -69.5q90 -21 135 -74.5t45 -128.5q0 -107 -74.5 -172t-204.5 -65zM139 0l252 502h66l-252 -502h-66z" />
    <glyph glyph-name="uni2155" unicode="&#x2155;" 
d="M322 662v585h-201v45h26q187 0 187 162h45v-792h-57zM745 950l252 504h66l-252 -504h-66zM834 -16q-117 0 -186 57t-81 152l66 6q6 -75 57 -116.5t144 -41.5q96 0 155.5 59.5t59.5 155.5q0 98 -54 154.5t-145 56.5q-145 0 -211 -135h-64l58 461h430v-58h-379l-43 -327
q21 50 78.5 83t134.5 33q117 0 186.5 -72.5t69.5 -195.5q0 -120 -76 -196t-200 -76zM121 0l252 502h65l-252 -502h-65z" />
    <glyph glyph-name="oneeighth" unicode="&#x215b;" 
d="M283 662v585h-201v45h27q186 0 186 162h45v-792h-57zM721 950l252 504h65l-252 -504h-65zM858 -16q-134 0 -211.5 56t-77.5 169q0 170 181 223q-142 42 -142 172q0 205 250 205t250 -205q0 -130 -141 -172q180 -53 180 -223q0 -113 -77.5 -169t-211.5 -56zM858 461
q86 0 137.5 35.5t51.5 107.5q0 74 -44.5 111t-144.5 37t-144 -37t-44 -111q0 -72 51 -107.5t137 -35.5zM96 0l252 502h66l-252 -502h-66zM858 41q227 0 227 172q0 87 -63.5 141t-163.5 54t-163.5 -54t-63.5 -141q0 -172 227 -172z" />
    <glyph glyph-name="threeeighths" unicode="&#x215c;" 
d="M307 645q-117 0 -185.5 57t-80.5 152l65 6q6 -75 57 -116.5t144 -41.5q96 0 155.5 60t59.5 156q0 98 -53.5 154t-144.5 56q-145 0 -211 -135h-64l57 461h431v-57h-379l-43 -328q21 50 79 83.5t134 33.5q117 0 186.5 -72.5t69.5 -195.5q0 -120 -77 -196.5t-200 -76.5z
M768 950l252 504h65l-251 -504h-66zM899 -16q-134 0 -211.5 56t-77.5 169q0 170 181 223q-142 42 -142 172q0 205 250 205t250 -205q0 -130 -141 -172q180 -53 180 -223q0 -113 -77.5 -169t-211.5 -56zM899 461q86 0 137 35.5t51 107.5q0 74 -44 111t-144 37t-144 -37
t-44 -111q0 -72 51 -107.5t137 -35.5zM143 0l252 502h66l-252 -502h-66zM899 41q227 0 227 172q0 87 -63.5 141t-163.5 54t-163.5 -54t-63.5 -141q0 -172 227 -172z" />
    <glyph glyph-name="fiveeighths" unicode="&#x215d;" 
d="M330 645q-141 0 -212 59.5t-77 165.5l63 7q6 -88 57 -131.5t169 -43.5q109 0 163 46.5t54 134.5q0 77 -56 126.5t-155 49.5h-57v53h57q78 0 129 38t51 124q0 139 -188 139q-177 0 -193 -147l-65 8q12 92 80 144t178 52q122 0 186 -52.5t64 -143.5q0 -70 -40 -119
t-110 -70q90 -21 135 -74.5t45 -127.5q0 -108 -74 -173t-204 -65zM760 950l252 504h65l-252 -504h-65zM899 -16q-134 0 -211.5 56t-77.5 169q0 170 181 223q-142 42 -142 172q0 205 250 205t250 -205q0 -130 -141 -172q180 -53 180 -223q0 -113 -77.5 -169t-211.5 -56z
M899 461q86 0 137 35.5t51 107.5q0 74 -44 111t-144 37t-144 -37t-44 -111q0 -72 51 -107.5t137 -35.5zM135 0l252 502h66l-252 -502h-66zM899 41q227 0 227 172q0 87 -63.5 141t-163.5 54t-163.5 -54t-63.5 -141q0 -172 227 -172z" />
    <glyph glyph-name="seveneighths" unicode="&#x215e;" 
d="M238 662q0 176 76 373t196 362h-449v57h504v-57q-116 -162 -189 -358.5t-73 -376.5h-65zM719 950l252 504h65l-252 -504h-65zM879 -16q-134 0 -211.5 56t-77.5 169q0 170 180 223q-141 42 -141 172q0 205 250 205q249 0 249 -205q0 -130 -141 -172q180 -53 180 -223
q0 -113 -77 -169t-211 -56zM879 461q86 0 137 35.5t51 107.5q0 74 -44 111t-144 37t-144.5 -37t-44.5 -111q0 -72 51.5 -107.5t137.5 -35.5zM94 0l252 502h66l-252 -502h-66zM879 41q227 0 227 172q0 87 -63.5 141t-163.5 54t-164 -54t-64 -141q0 -172 228 -172z" />
    <glyph glyph-name="arrowleft" unicode="&#x2190;" 
d="M649 90h-88l-541 541l539 540h88l-506 -507h1059v-66h-1059z" />
    <glyph glyph-name="arrowup" unicode="&#x2191;" 
d="M582 37v1266l-529 -529v88l561 559l562 -561v-88l-529 526v-1261h-65z" />
    <glyph glyph-name="arrowright" unicode="&#x2192;" 
d="M580 90l507 508h-1058v66h1058l-505 507h88l538 -540l-540 -541h-88z" />
    <glyph glyph-name="arrowdown" unicode="&#x2193;" 
d="M1176 686v-88l-562 -561l-561 559v88l529 -528v1265h65v-1261z" />
    <glyph glyph-name="arrowboth" unicode="&#x2194;" 
d="M434 272l-430 433l426 423h88l-393 -391h979l-393 393h86l428 -425l-430 -433h-88l397 400h-979l397 -400h-88z" />
    <glyph glyph-name="arrowupdn" unicode="&#x2195;" 
d="M618 -25l-432 431v88l400 -398v1387l-400 -398v86l432 433l424 -426v-88l-391 393v-1387l393 393v-86z" />
    <glyph glyph-name="uni2196" unicode="&#x2196;" 
d="M240 598l-64 61v795h793l61 -61h-747l895 -895l-45 -47l-893 892v-745z" />
    <glyph glyph-name="uni2197" unicode="&#x2197;" 
d="M51 498l895 895h-747l61 61h793v-795l-64 -61v745l-893 -892z" />
    <glyph glyph-name="uni2198" unicode="&#x2198;" 
d="M227 63h746l-893 893l47 45l895 -895v748l61 -61v-793h-794z" />
    <glyph glyph-name="uni2199" unicode="&#x2199;" 
d="M1001 63l-61 -63h-795v793l62 61v-748l895 895l47 -45l-893 -893h745z" />
    <glyph glyph-name="uni219D" unicode="&#x219d;" 
d="M616 467q-43 24 -73 77t-43 118q-29 146 -90 182q-65 35 -131 5t-103 -108h-76q27 65 67.5 109.5t85.5 63.5t93 16.5t92 -27.5q87 -51 115 -194q15 -80 33 -120.5t57 -62.5q66 -34 132 -7t112 99l-156 91l348 163l27 -383l-164 97q-71 -106 -156 -137t-170 18z" />
    <glyph glyph-name="uni21A9" unicode="&#x21a9;" 
d="M551 178h-88l-406 406l404 405h88l-373 -373h567q153 0 259 92t106 224q0 154 -105.5 259t-259.5 105h-604v66h604q182 0 306.5 -124.5t124.5 -305.5q0 -160 -125 -270.5t-306 -110.5h-563z" />
    <glyph glyph-name="uni21AA" unicode="&#x21aa;" 
d="M678 178l371 373h-564q-181 0 -305.5 110.5t-124.5 270.5q0 182 124.5 306t305.5 124h605v-66h-605q-154 0 -259 -105t-105 -259q0 -132 105.5 -224t258.5 -92h568l-373 373h88l403 -405l-405 -406h-88z" />
    <glyph glyph-name="uni21B0" unicode="&#x21b0;" 
d="M377 659l-318 252l316 252v-221h753v-942h-61v881h-690v-222z" />
    <glyph glyph-name="uni21B1" unicode="&#x21b1;" 
d="M162 0h-62v942h754v221l315 -252l-317 -252v222h-690v-881z" />
    <glyph glyph-name="uni21B3" unicode="&#x21b3;" 
d="M852 795l317 -252l-315 -252v221h-754v942h62v-881h690v222z" />
    <glyph glyph-name="uni21B4" unicode="&#x21b4;" 
d="M909 0l-252 315h222v1037h-822v61h883v-1096h221z" />
    <glyph glyph-name="carriagereturn" unicode="&#x21b5;" 
d="M377 795v-222h690v881h61v-942h-753v-221l-316 252z" />
    <glyph glyph-name="uni21E4" unicode="&#x21e4;" 
d="M82 244v798h61v-798h-61zM532 395l-317 252l315 252v-221h617v-66h-615v-217z" />
    <glyph glyph-name="uni21E5" unicode="&#x21e5;" 
d="M1147 244h-62v798h62v-798zM696 395v217h-614v66h616v221l316 -252z" />
    <glyph glyph-name="uni21E7" unicode="&#x21e7;" 
d="M326 0v811h-322l612 641l609 -641h-338v-811h-561zM391 66h430v811h252l-457 489l-458 -489h233v-811z" />
    <glyph glyph-name="partialdiff" unicode="&#x2202;" 
d="M594 -23q-184 0 -297 134t-113 360t116 360t314 134q124 0 215 -54.5t148 -140.5q-96 538 -682 655l16 62q166 -35 293.5 -101t210 -151t134.5 -196t73.5 -228.5t21.5 -255.5q0 -274 -118 -426t-332 -152zM594 35q186 0 287.5 132t101.5 368q0 158 -105 265t-264 107
q-170 0 -269 -117t-99 -319q0 -201 95.5 -318.5t252.5 -117.5z" />
    <glyph glyph-name="uni2206" unicode="&#x2206;" 
d="M20 0v61l545 1393h99l544 -1393v-61h-1188zM86 61h1057l-529 1332z" />
    <glyph glyph-name="product" unicode="&#x220f;" 
d="M319 -307v1700h-278v61h1147v-61h-270v-1700h-66v1700h-467v-1700h-66z" />
    <glyph glyph-name="summation" unicode="&#x2211;" 
d="M152 0v61l413 666l-413 666v61h925v-61h-860l414 -666l-414 -666h860v-61h-925z" />
    <glyph glyph-name="minus" unicode="&#x2212;" 
d="M164 532v62h901v-62h-901z" />
    <glyph glyph-name="radical" unicode="&#x221a;" 
d="M268 -307l-227 995h63l213 -942l328 1708h543v-61h-492l-327 -1700h-101z" />
    <glyph glyph-name="infinity" unicode="&#x221e;" 
d="M293 236q-116 0 -196.5 93t-80.5 226t80.5 226t196.5 93q101 0 185.5 -63.5t135.5 -177.5q63 122 131.5 180.5t178.5 58.5q122 0 205 -91t83 -226q0 -134 -83.5 -226.5t-204.5 -92.5q-90 0 -173.5 65t-136.5 176q-50 -111 -136 -176t-185 -65zM293 297q107 0 177 67
t120 191q-56 124 -123.5 190.5t-173.5 67.5q-89 2 -152 -73.5t-63 -184.5q0 -108 62.5 -183t152.5 -75zM918 297q98 0 165.5 74.5t67.5 183.5t-67.5 184t-165.5 74q-99 -1 -164 -68.5t-117 -189.5q52 -123 117 -190.5t164 -67.5z" />
    <glyph glyph-name="integral" unicode="&#x222b;" 
d="M324 -307h-70l14 61h72q156 0 178 205l133 1221q17 137 84 205.5t172 68.5h68l-14 -61h-68q-72 0 -120 -53.5t-58 -151.5l-135 -1221q-29 -274 -256 -274z" />
    <glyph glyph-name="approxequal" unicode="&#x2248;" 
d="M922 743q-57 0 -102 26t-99 87q-59 67 -93 91t-83 24q-65 0 -108.5 -60t-47.5 -157h-65q7 133 65.5 205.5t155.5 72.5q58 0 104 -28.5t96 -85.5q57 -66 94.5 -89.5t80.5 -23.5q68 0 112 59.5t49 155.5h66q-8 -132 -66.5 -204.5t-158.5 -72.5zM922 334q-57 0 -102 26
t-99 86q-59 67 -93 91t-83 24q-65 0 -108.5 -60t-47.5 -157h-65q7 133 65.5 206t155.5 73q58 0 104 -28.5t96 -86.5q57 -66 94.5 -89.5t80.5 -23.5q68 0 112 59.5t49 155.5h66q-7 -132 -66 -204t-159 -72z" />
    <glyph glyph-name="notequal" unicode="&#x2260;" 
d="M184 350v62h353l110 360h-463v62h482l77 251h64l-78 -251h315v-62h-333l-111 -360h444v-62h-462l-95 -309h-63l94 309h-334z" />
    <glyph glyph-name="lessequal" unicode="&#x2264;" 
d="M991 195l-909 409v70l909 409v-61l-862 -383l862 -383v-61zM991 0h-909v61h909v-61z" />
    <glyph glyph-name="greaterequal" unicode="&#x2265;" 
d="M160 195v61l862 383l-862 383v61l909 -409v-70zM160 0v61h909v-61h-909z" />
    <glyph glyph-name="uni2326" unicode="&#x2326;" 
d="M842 0h-826v1454h826l379 -731zM805 61l346 664l-346 668h-727v-1332h727zM283 446l-41 41l239 240l-239 240l41 41l239 -240l240 240l41 -41l-240 -240l240 -240l-41 -41l-240 240z" />
    <glyph glyph-name="uni2327" unicode="&#x2327;" 
d="M29 0v1454h1171v-1454h-1171zM90 61h1049v1332h-1049v-1332zM375 446l-41 41l239 240l-239 240l41 41l239 -240l240 240l41 -41l-240 -240l240 -240l-41 -41l-240 240z" />
    <glyph glyph-name="uni232B" unicode="&#x232b;" 
d="M387 0l-379 723l379 731h825v-1454h-825zM424 61h727v1332h-727l-346 -668zM467 446l-41 41l240 240l-240 240l41 41l240 -240l239 240l41 -41l-239 -240l239 -240l-41 -41l-239 240z" />
    <glyph glyph-name="uni23CE" unicode="&#x23ce;" 
d="M590 47l-549 571l549 566v-363h180v633h406v-1038h-586v-369zM524 756v260l-385 -400l385 -401v266h586v908h-274v-633h-312z" />
    <glyph glyph-name="uni240B" unicode="&#x240b;" 
d="M313 614l-207 676h70l186 -622h15l184 622h70l-207 -676h-111zM844 145v615h-215v61h493v-61h-215v-615h-63z" />
    <glyph glyph-name="uni240C" unicode="&#x240c;" 
d="M182 614v676h398v-61h-336v-244h317v-61h-317v-310h-62zM680 145v676h397v-61h-336v-244h318v-61h-318v-310h-61z" />
    <glyph glyph-name="uni2423" unicode="&#x2423;" 
d="M98 -389v389h62v-328h909v328h61v-389h-1032z" />
    <glyph glyph-name="uni2460" unicode="&#x2460;" 
d="M614 -33q-270 0 -427.5 205t-157.5 555t157.5 555t427.5 205q269 0 427.5 -205t158.5 -555t-158.5 -555t-427.5 -205zM614 25q243 0 384 189.5t141 512.5t-141.5 513t-383.5 190q-244 0 -384 -189.5t-140 -513.5t140 -513t384 -189zM627 328v585h-201v45h27
q186 0 186 162h45v-792h-57z" />
    <glyph glyph-name="uni2461" unicode="&#x2461;" 
d="M614 -33q-270 0 -427.5 205t-157.5 555t157.5 555t427.5 205q269 0 427.5 -205t158.5 -555t-158.5 -555t-427.5 -205zM614 25q243 0 384 189.5t141 512.5t-141.5 513t-383.5 190q-244 0 -384 -189.5t-140 -513.5t140 -513t384 -189zM348 328q0 127 52.5 201t189.5 149
l67 37q103 56 133.5 95t30.5 101q0 81 -50.5 124.5t-143.5 43.5q-178 0 -215 -207l-62 7q13 123 85.5 190.5t191.5 67.5q120 0 188 -60t68 -166q0 -82 -41.5 -132.5t-151.5 -108.5l-61 -33q-114 -61 -163.5 -120t-47.5 -132h456v-57h-526z" />
    <glyph glyph-name="uni2462" unicode="&#x2462;" 
d="M614 -33q-270 0 -427.5 205t-157.5 555t157.5 555t427.5 205q269 0 427.5 -205t158.5 -555t-158.5 -555t-427.5 -205zM614 25q243 0 384 189.5t141 512.5t-141.5 513t-383.5 190q-244 0 -384 -189.5t-140 -513.5t140 -513t384 -189zM621 311q-141 0 -212 60t-77 166l63 6
q6 -88 57 -131t169 -43q217 0 217 180q0 77 -56 126.5t-155 49.5h-58v53h58q78 0 129 38t51 124q0 139 -189 139q-176 0 -192 -147l-66 8q12 93 80 145t178 52q122 0 186 -53t64 -144q0 -70 -39.5 -118.5t-109.5 -69.5q90 -21 135 -74.5t45 -128.5q0 -108 -74 -173t-204 -65
z" />
    <glyph glyph-name="uni2463" unicode="&#x2463;" 
d="M614 -33q-270 0 -427.5 205t-157.5 555t157.5 555t427.5 205q269 0 427.5 -205t158.5 -555t-158.5 -555t-427.5 -205zM614 25q243 0 384 189.5t141 512.5t-141.5 513t-383.5 190q-244 0 -384 -189.5t-140 -513.5t140 -513t384 -189zM717 328v194h-391v45l391 553h57v-545
h131v-53h-131v-194h-57zM391 575h326v463z" />
    <glyph glyph-name="uni2464" unicode="&#x2464;" 
d="M614 -33q-270 0 -427.5 205t-157.5 555t157.5 555t427.5 205q269 0 427.5 -205t158.5 -555t-158.5 -555t-427.5 -205zM614 25q243 0 384 189.5t141 512.5t-141.5 513t-383.5 190q-244 0 -384 -189.5t-140 -513.5t140 -513t384 -189zM610 311q-117 0 -185.5 57t-80.5 152
l66 6q6 -75 56.5 -116t143.5 -41q96 0 155.5 59.5t59.5 155.5q0 98 -53.5 154.5t-144.5 56.5q-145 0 -211 -136h-64l58 461h430v-57h-379l-43 -328q21 50 79 83.5t134 33.5q117 0 186.5 -72.5t69.5 -195.5q0 -120 -76.5 -196.5t-200.5 -76.5z" />
    <glyph glyph-name="uni2465" unicode="&#x2465;" 
d="M614 -33q-270 0 -427.5 205t-157.5 555t157.5 555t427.5 205q269 0 427.5 -205t158.5 -555t-158.5 -555t-427.5 -205zM614 25q243 0 384 189.5t141 512.5t-141.5 513t-383.5 190q-244 0 -384 -189.5t-140 -513.5t140 -513t384 -189zM625 311q-137 0 -211 92t-74 277
q0 206 81.5 331.5t223.5 125.5q186 0 244 -193l-58 -8q-20 75 -65 111t-121 36q-109 0 -174.5 -101t-69.5 -280q31 72 91.5 113t138.5 41q116 0 189 -73.5t73 -190.5q0 -126 -73.5 -203.5t-194.5 -77.5zM625 365q91 0 148.5 62.5t57.5 164.5q0 92 -56 151.5t-144 59.5
q-89 0 -154 -64t-65 -155q0 -97 60 -158t153 -61z" />
    <glyph glyph-name="uni2466" unicode="&#x2466;" 
d="M614 -33q-270 0 -427.5 205t-157.5 555t157.5 555t427.5 205q269 0 427.5 -205t158.5 -555t-158.5 -555t-427.5 -205zM614 25q243 0 384 189.5t141 512.5t-141.5 513t-383.5 190q-244 0 -384 -189.5t-140 -513.5t140 -513t384 -189zM541 328q0 176 76 373t196 362h-448
v57h503v-57q-116 -162 -189 -358.5t-73 -376.5h-65z" />
    <glyph glyph-name="uni2467" unicode="&#x2467;" 
d="M614 -33q-270 0 -427.5 205t-157.5 555t157.5 555t427.5 205q269 0 427.5 -205t158.5 -555t-158.5 -555t-427.5 -205zM614 25q243 0 384 189.5t141 512.5t-141.5 513t-383.5 190q-244 0 -384 -189.5t-140 -513.5t140 -513t384 -189zM616 311q-134 0 -211 56.5t-77 169.5
q0 170 180 223q-141 42 -141 172q0 205 249 205q250 0 250 -205q0 -130 -141 -172q180 -53 180 -223q0 -113 -77.5 -169.5t-211.5 -56.5zM616 788q86 0 137.5 36t51.5 108q0 74 -44.5 110.5t-144.5 36.5t-144 -36.5t-44 -110.5q0 -72 51 -108t137 -36zM616 369
q228 0 228 172q0 87 -63.5 140.5t-164.5 53.5q-100 0 -163.5 -53.5t-63.5 -140.5q0 -172 227 -172z" />
    <glyph glyph-name="uni2468" unicode="&#x2468;" 
d="M614 -33q-270 0 -427.5 205t-157.5 555t157.5 555t427.5 205q269 0 427.5 -205t158.5 -555t-158.5 -555t-427.5 -205zM614 25q243 0 384 189.5t141 512.5t-141.5 513t-383.5 190q-244 0 -384 -189.5t-140 -513.5t140 -513t384 -189zM608 1137q137 0 211 -92t74 -277
q0 -206 -81.5 -331.5t-223.5 -125.5q-186 0 -244 193l57 8q20 -75 65.5 -111t121.5 -36q109 0 174 100.5t69 279.5q-31 -72 -91 -112.5t-138 -40.5q-116 0 -189 73.5t-73 190.5q0 126 73.5 203.5t194.5 77.5zM608 1083q-91 0 -149 -62.5t-58 -164.5q0 -92 56.5 -151.5
t144.5 -59.5q89 0 154 64t65 155q0 97 -60 158t-153 61z" />
    <glyph glyph-name="uni24EA" unicode="&#x24ea;" 
d="M614 -33q-270 0 -427.5 205t-157.5 555t157.5 555t427.5 205q269 0 427.5 -205t158.5 -555t-158.5 -555t-427.5 -205zM614 25q243 0 384 189.5t141 512.5t-141.5 513t-383.5 190q-244 0 -384 -189.5t-140 -513.5t140 -513t384 -189zM616 313q-140 0 -220.5 111t-80.5 303
q0 193 80 302.5t221 109.5t221.5 -109.5t80.5 -302.5q0 -192 -81 -303t-221 -111zM377 727q0 -154 53 -246l338 539q-59 65 -152 65q-112 0 -175.5 -95t-63.5 -263zM616 367q111 0 175.5 96.5t64.5 263.5q0 156 -53 248l-340 -541q61 -67 153 -67z" />
    <glyph glyph-name="uni24FF" unicode="&#x24ff;" 
d="M614 -33q-270 0 -427.5 205t-157.5 555t157.5 555t427.5 205q269 0 427.5 -205t158.5 -555t-158.5 -555t-427.5 -205zM616 311q140 0 221 111t81 303q0 193 -80.5 302.5t-221.5 109.5t-221 -109.5t-80 -302.5q0 -192 80.5 -303t220.5 -111zM430 479q-53 92 -53 246
q0 168 63.5 263t175.5 95q93 0 152 -65zM616 365q-92 0 -153 67l340 541q53 -92 53 -248q0 -167 -64.5 -263.5t-175.5 -96.5z" />
    <glyph glyph-name="uni2500" unicode="&#x2500;" 
d="M-82 709v65h1311v-65h-1311z" />
    <glyph glyph-name="uni2502" unicode="&#x2502;" 
d="M582 -506v2579h65v-2579h-65z" />
    <glyph glyph-name="uni250C" unicode="&#x250c;" 
d="M582 -506v1280h647v-65h-582v-1215h-65z" />
    <glyph glyph-name="uni2514" unicode="&#x2514;" 
d="M582 709v1364h65v-1299h582v-65h-647z" />
    <glyph glyph-name="uni251C" unicode="&#x251c;" 
d="M582 -506v2579h65v-1299h582v-65h-582v-1215h-65z" />
    <glyph glyph-name="triagup" unicode="&#x25b2;" 
d="M16 0l596 1034l598 -1034h-1194z" />
    <glyph glyph-name="uni25B3" unicode="&#x25b3;" 
d="M16 201l596 1034l598 -1034h-1194zM121 262h983l-492 850z" />
    <glyph glyph-name="uni25B6" unicode="&#x25b6;" 
d="M-111 1329l1035 -596l-1035 -598v1194z" />
    <glyph glyph-name="uni25B7" unicode="&#x25b7;" 
d="M90 1329l1034 -596l-1034 -598v1194zM152 1225v-983l849 491z" />
    <glyph glyph-name="triagdn" unicode="&#x25bc;" 
d="M16 1454h1194l-598 -1034z" />
    <glyph glyph-name="uni25BD" unicode="&#x25bd;" 
d="M16 1270h1194l-598 -1034zM121 1208l491 -850l492 850h-983z" />
    <glyph glyph-name="uni25C0" unicode="&#x25c0;" 
d="M1339 1329v-1194l-1034 598z" />
    <glyph glyph-name="uni25C1" unicode="&#x25c1;" 
d="M1139 1329v-1194l-1035 598zM1077 1225l-850 -492l850 -491v983z" />
    <glyph glyph-name="lozenge" unicode="&#x25ca;" 
d="M578 0l-347 659l347 660h75l346 -660l-346 -659h-75zM301 659l315 -596l314 596l-314 596z" />
    <glyph glyph-name="circle" unicode="&#x25cb;" 
d="M616 162q-163 0 -296.5 72.5t-210 203t-76.5 291.5q0 247 167 409t416 162q162 0 295 -73t210 -204t77 -294q0 -121 -45 -226.5t-122.5 -180t-185.5 -117.5t-229 -43zM616 219q145 0 264 65t188 181.5t69 261.5q0 225 -149.5 370.5t-371.5 145.5q-223 0 -372.5 -145.5
t-149.5 -370.5q0 -145 68.5 -261.5t188 -181.5t265.5 -65z" />
    <glyph glyph-name="uni25CC" unicode="&#x25cc;" 
d="M520 1225l-14 78q54 8 84 8l2 -78q-48 -4 -72 -8zM791 1206q-58 15 -70 17l12 80q35 -7 84 -25zM334 1157l-43 66q37 21 78 39l26 -72q-36 -18 -61 -33zM963 1108q-33 26 -56 41l39 68q30 -20 72 -52zM190 1024l-65 41q23 36 55 68l53 -58q-30 -34 -43 -51zM1079 948
q-21 42 -35 62l66 45q33 -60 41 -78zM115 840l-78 12q10 52 22 84l74 -29q-13 -37 -18 -67zM1124 756q-4 46 -8 69l76 17q6 -29 10 -86h-78zM35 625q-6 28 -10 86h77q3 -34 9 -70zM1167 528l-71 31q15 51 18 68l76 -13q-10 -50 -23 -86zM119 410q-20 31 -43 79l74 29
q16 -37 32 -61zM1047 332l-56 59q24 24 45 51l66 -41q-14 -22 -55 -69zM285 250q-18 10 -72 53l55 55q18 -15 56 -41zM858 205l-29 74q43 17 62 30l43 -65q-45 -25 -76 -39zM496 168q-31 4 -84 20l28 74q21 -9 68 -16zM633 156v80q37 0 72 6l14 -76q-51 -8 -86 -10z" />
    <glyph glyph-name="uni25CF" unicode="&#x25cf;" 
d="M616 162q-163 0 -296.5 72.5t-210 202.5t-76.5 292q0 164 76.5 295t209.5 203.5t297 72.5q163 0 295.5 -72.5t209.5 -203.5t77 -295q0 -162 -77 -292t-210 -202.5t-295 -72.5z" />
    <glyph glyph-name="uni2776" unicode="&#x2776;" 
d="M614 -33q-270 0 -427.5 205t-157.5 555t157.5 555t427.5 205q269 0 427.5 -205t158.5 -555t-158.5 -555t-427.5 -205zM627 328h57v792h-45q0 -162 -186 -162h-27v-45h201v-585z" />
    <glyph glyph-name="uni2777" unicode="&#x2777;" 
d="M614 -33q-270 0 -427.5 205t-157.5 555t157.5 555t427.5 205q269 0 427.5 -205t158.5 -555t-158.5 -555t-427.5 -205zM348 328h526v57h-456q-2 73 47.5 132t163.5 120l61 33q110 58 151.5 108.5t41.5 132.5q0 106 -68 166t-188 60q-119 0 -191.5 -67.5t-85.5 -190.5
l62 -7q37 207 215 207q93 0 143.5 -43.5t50.5 -124.5q0 -62 -30.5 -101t-133.5 -95l-67 -37q-137 -75 -189.5 -149t-52.5 -201z" />
    <glyph glyph-name="uni2778" unicode="&#x2778;" 
d="M614 -33q-270 0 -427.5 205t-157.5 555t157.5 555t427.5 205q269 0 427.5 -205t158.5 -555t-158.5 -555t-427.5 -205zM621 311q130 0 204 65t74 173q0 75 -45 128.5t-135 74.5q70 21 109.5 69.5t39.5 118.5q0 91 -64 144t-186 53q-110 0 -178 -52t-80 -145l66 -8
q16 147 192 147q189 0 189 -139q0 -86 -51 -124t-129 -38h-58v-53h58q99 0 155 -49.5t56 -126.5q0 -180 -217 -180q-118 0 -169 43t-57 131l-63 -6q6 -106 77 -166t212 -60z" />
    <glyph glyph-name="uni2779" unicode="&#x2779;" 
d="M614 -33q-270 0 -427.5 205t-157.5 555t157.5 555t427.5 205q269 0 427.5 -205t158.5 -555t-158.5 -555t-427.5 -205zM717 328h57v194h131v53h-131v545h-57l-391 -553v-45h391v-194zM391 575l326 463v-463h-326z" />
    <glyph glyph-name="uni277A" unicode="&#x277a;" 
d="M614 -33q-270 0 -427.5 205t-157.5 555t157.5 555t427.5 205q269 0 427.5 -205t158.5 -555t-158.5 -555t-427.5 -205zM610 311q124 0 200.5 76.5t76.5 196.5q0 123 -69.5 195.5t-186.5 72.5q-76 0 -134 -33.5t-79 -83.5l43 328h379v57h-430l-58 -461h64q66 136 211 136
q91 0 144.5 -56.5t53.5 -154.5q0 -96 -59.5 -155.5t-155.5 -59.5q-93 0 -143.5 41t-56.5 116l-66 -6q12 -95 80.5 -152t185.5 -57z" />
    <glyph glyph-name="uni277B" unicode="&#x277b;" 
d="M614 -33q-270 0 -427.5 205t-157.5 555t157.5 555t427.5 205q269 0 427.5 -205t158.5 -555t-158.5 -555t-427.5 -205zM625 311q121 0 194.5 77.5t73.5 203.5q0 117 -73 190.5t-189 73.5q-78 0 -138.5 -41t-91.5 -113q4 179 69.5 280t174.5 101q76 0 121 -36t65 -111l58 8
q-58 193 -244 193q-142 0 -223.5 -125.5t-81.5 -331.5q0 -185 74 -277t211 -92zM625 365q-93 0 -153 61t-60 158q0 91 65 155t154 64q88 0 144 -59.5t56 -151.5q0 -102 -57.5 -164.5t-148.5 -62.5z" />
    <glyph glyph-name="uni277C" unicode="&#x277c;" 
d="M614 -33q-270 0 -427.5 205t-157.5 555t157.5 555t427.5 205q269 0 427.5 -205t158.5 -555t-158.5 -555t-427.5 -205zM541 328h65q0 180 73 376.5t189 358.5v57h-503v-57h448q-120 -165 -196 -362t-76 -373z" />
    <glyph glyph-name="uni277D" unicode="&#x277d;" 
d="M614 -33q-270 0 -427.5 205t-157.5 555t157.5 555t427.5 205q269 0 427.5 -205t158.5 -555t-158.5 -555t-427.5 -205zM616 311q134 0 211.5 56.5t77.5 169.5q0 170 -180 223q141 42 141 172q0 205 -250 205q-249 0 -249 -205q0 -130 141 -172q-180 -53 -180 -223
q0 -113 77 -169.5t211 -56.5zM616 788q-86 0 -137 36t-51 108q0 74 44 110.5t144 36.5t144.5 -36.5t44.5 -110.5q0 -72 -51.5 -108t-137.5 -36zM616 369q-227 0 -227 172q0 87 63.5 140.5t163.5 53.5q101 0 164.5 -53.5t63.5 -140.5q0 -172 -228 -172z" />
    <glyph glyph-name="uni277E" unicode="&#x277e;" 
d="M614 -33q-270 0 -427.5 205t-157.5 555t157.5 555t427.5 205q269 0 427.5 -205t158.5 -555t-158.5 -555t-427.5 -205zM588 311q142 0 223.5 125.5t81.5 331.5q0 185 -74 277t-211 92q-121 0 -194.5 -77.5t-73.5 -203.5q0 -117 73 -190.5t189 -73.5q78 0 138 40.5
t91 112.5q-4 -179 -69 -279.5t-174 -100.5q-76 0 -121.5 36t-65.5 111l-57 -8q58 -193 244 -193zM602 645q-88 0 -144.5 59.5t-56.5 151.5q0 102 58 164.5t149 62.5q93 0 153 -61t60 -158q0 -91 -65 -155t-154 -64z" />
    <glyph glyph-name="uni3003" unicode="&#x3003;" 
d="M614 575l115 410h62l-140 -410h-37zM438 575l115 410h61l-139 -410h-37z" />
    <glyph glyph-name="uni3008" unicode="&#x3008;" 
d="M774 -233l-375 958l375 956h70l-375 -956l375 -958h-70z" />
    <glyph glyph-name="uni3009" unicode="&#x3009;" 
d="M455 -233h-70l375 958l-375 956h70l374 -956z" />
    <glyph glyph-name="uni300A" unicode="&#x300a;" 
d="M596 -233l-375 958l375 956h70l-375 -956l375 -958h-70zM938 -233l-375 958l375 956h70l-375 -956l375 -958h-70z" />
    <glyph glyph-name="uni300B" unicode="&#x300b;" 
d="M633 -233h-70l375 958l-375 956h70l375 -956zM291 -233h-70l375 958l-375 956h70l375 -956z" />
    <glyph glyph-name="uni300C" unicode="&#x300c;" 
d="M369 600v1092h575v-62h-510v-1030h-65z" />
    <glyph glyph-name="uni300D" unicode="&#x300d;" 
d="M860 879v-1092h-575v61h510v1031h65z" />
    <glyph glyph-name="uni300E" unicode="&#x300e;" 
d="M369 477v1215h620v-328h-293v-887h-327zM434 539h197v886h293v205h-490v-1091z" />
    <glyph glyph-name="uni300F" unicode="&#x300f;" 
d="M860 1004v-1215h-620v328h292v887h328zM795 942h-197v-887h-293v-205h490v1092z" />
    <glyph glyph-name="uni3010" unicode="&#x3010;" 
d="M901 -129h-502v1819h502q-277 -439 -277 -908.5t277 -910.5z" />
    <glyph glyph-name="uni3011" unicode="&#x3011;" 
d="M328 -129q277 441 277 910.5t-277 908.5h501v-1819h-501z" />
    <glyph glyph-name="uni3014" unicode="&#x3014;" 
d="M899 -307l-471 457v1134l471 457l41 -49l-448 -432l2 -1084l448 -432z" />
    <glyph glyph-name="uni3015" unicode="&#x3015;" 
d="M330 -307l-43 51l448 432l2 1084l-448 432l41 49l471 -457v-1134z" />
    <glyph glyph-name="uni3016" unicode="&#x3016;" 
d="M942 -129h-543v1819h543q-277 -439 -277 -908.5t277 -910.5zM817 -68q-214 413 -214 848.5t214 847.5h-352v-1696h352z" />
    <glyph glyph-name="uni3017" unicode="&#x3017;" 
d="M287 -129q277 441 277 910.5t-277 908.5h542v-1819h-542zM412 -68h352v1696h-352q214 -412 214 -847.5t-214 -848.5z" />
    <glyph glyph-name="uni301C" unicode="&#x301c;" 
d="M879 453q-62 0 -110.5 16.5t-125.5 58.5q-19 10 -64.5 35t-63.5 34t-50.5 22.5t-59 18.5t-55.5 5q-71 0 -133 -31t-123 -112l-49 45q59 78 138.5 121t166.5 43q61 0 108 -17t128 -61q18 -9 55 -29.5t52.5 -28.5t45 -21.5t48 -19t43.5 -10t49 -4.5q137 0 262 141l43 -43
q-57 -75 -139 -119t-166 -44z" />
    <glyph glyph-name="uniA78B" unicode="&#xa78b;" 
d="M586 813l-13 375v266h82v-266l-12 -375h-57z" />
    <glyph glyph-name="uniA78C" unicode="&#xa78c;" 
d="M586 813l-13 375v266h82v-266l-12 -375h-57z" />
    <glyph glyph-name="uniF8FF" unicode="&#xf8ff;" 
d="M215 0q-86 0 -142.5 56.5t-56.5 142.5v798q0 86 56.5 142.5t142.5 56.5h799q86 0 142 -56.5t56 -142.5v-798q0 -86 -56 -142.5t-142 -56.5h-799zM176 254h875l-439 760z" />
    <glyph glyph-name="uni004A0301" 
d="M958 1618l148 237h70l-164 -237h-54zM557 -33q-200 0 -324.5 139t-130.5 369l70 8q6 -215 106.5 -332.5t278.5 -117.5q196 0 298.5 124.5t102.5 362.5v934h66v-934q0 -263 -122.5 -408t-344.5 -145z" />
    <glyph glyph-name="uni013B.loclMAH" 
d="M225 0v1454h66v-1393h794v-61h-860zM586 -346l73 153h-49v99h103v-88l-82 -164h-45z" />
    <glyph glyph-name="uni0145.loclMAH" 
d="M164 0v1454h96l739 -1393v1393h66v-1454h-96l-740 1393v-1393h-65zM571 -346l74 153h-49v99h102v-88l-82 -164h-45z" />
    <glyph glyph-name="R.ss04" 
d="M184 0v1454h424q212 0 341.5 -114t129.5 -306q0 -156 -98 -258.5t-272 -130.5l376 -645h-69l-373 637h-393v-637h-66zM250 698h358q189 0 295.5 88t106.5 248q0 171 -107 267t-295 96h-358v-699z" />
    <glyph glyph-name="Racute.ss04" 
d="M555 1618l147 237h70l-164 -237h-53zM184 0v1454h424q212 0 341.5 -114t129.5 -306q0 -156 -98 -258.5t-272 -130.5l376 -645h-69l-373 637h-393v-637h-66zM250 698h358q189 0 295.5 88t106.5 248q0 171 -107 267t-295 96h-358v-699z" />
    <glyph glyph-name="Rcaron.ss04" 
d="M383 1872h57l148 -203l147 203h58l-183 -254h-45zM184 0v1454h424q212 0 341.5 -114t129.5 -306q0 -156 -98 -258.5t-272 -130.5l376 -645h-69l-373 637h-393v-637h-66zM250 698h358q189 0 295.5 88t106.5 248q0 171 -107 267t-295 96h-358v-699z" />
    <glyph glyph-name="uni0156.ss04" 
d="M184 0v1454h424q212 0 341.5 -114t129.5 -306q0 -156 -98 -258.5t-272 -130.5l376 -645h-69l-373 637h-393v-637h-66zM250 698h358q189 0 295.5 88t106.5 248q0 171 -107 267t-295 96h-358v-699zM514 -346l74 153h-49v99h102v-88l-82 -164h-45z" />
    <glyph glyph-name="G.ss06" 
d="M623 -33q-248 0 -390.5 204t-142.5 554q0 353 142.5 557.5t390.5 204.5q168 0 295.5 -125t171.5 -336l-68 -8q-44 185 -153 294t-246 109q-216 0 -339.5 -187t-123.5 -509q0 -321 123.5 -506.5t339.5 -185.5q188 0 300.5 153t112.5 432h-422v58h484v-49
q0 -315 -128 -487.5t-347 -172.5z" />
    <glyph glyph-name="Gbreve.ss06" 
d="M623 1634q-105 0 -172 64.5t-82 173.5h53q12 -87 65.5 -133.5t135.5 -46.5q81 0 134.5 46.5t65.5 133.5h54q-15 -109 -82 -173.5t-172 -64.5zM623 -33q-248 0 -390.5 204t-142.5 554q0 353 142.5 557.5t390.5 204.5q168 0 295.5 -125t171.5 -336l-68 -8q-44 185 -153 294
t-246 109q-216 0 -339.5 -187t-123.5 -509q0 -321 123.5 -506.5t339.5 -185.5q188 0 300.5 153t112.5 432h-422v58h484v-49q0 -315 -128 -487.5t-347 -172.5z" />
    <glyph glyph-name="Gcircumflex.ss06" 
d="M418 1618l182 254h45l182 -254h-57l-147 203l-148 -203h-57zM623 -33q-248 0 -390.5 204t-142.5 554q0 353 142.5 557.5t390.5 204.5q168 0 295.5 -125t171.5 -336l-68 -8q-44 185 -153 294t-246 109q-216 0 -339.5 -187t-123.5 -509q0 -321 123.5 -506.5t339.5 -185.5
q188 0 300.5 153t112.5 432h-422v58h484v-49q0 -315 -128 -487.5t-347 -172.5z" />
    <glyph glyph-name="uni0122.ss06" 
d="M623 -33q-248 0 -390.5 204t-142.5 554q0 353 142.5 557.5t390.5 204.5q168 0 295.5 -125t171.5 -336l-68 -8q-44 185 -153 294t-246 109q-216 0 -339.5 -187t-123.5 -509q0 -321 123.5 -506.5t339.5 -185.5q188 0 300.5 153t112.5 432h-422v58h484v-49
q0 -315 -128 -487.5t-347 -172.5zM549 -346l74 153h-50v99h103v-88l-82 -164h-45z" />
    <glyph glyph-name="Gdotaccent.ss06" 
d="M588 1655v143h69v-143h-69zM623 -33q-248 0 -390.5 204t-142.5 554q0 353 142.5 557.5t390.5 204.5q168 0 295.5 -125t171.5 -336l-68 -8q-44 185 -153 294t-246 109q-216 0 -339.5 -187t-123.5 -509q0 -321 123.5 -506.5t339.5 -185.5q188 0 300.5 153t112.5 432h-422
v58h484v-49q0 -315 -128 -487.5t-347 -172.5z" />
    <glyph glyph-name="uni1E20.ss06" 
d="M369 1688v57h508v-57h-508zM623 -33q-248 0 -390.5 204t-142.5 554q0 353 142.5 557.5t390.5 204.5q168 0 295.5 -125t171.5 -336l-68 -8q-44 185 -153 294t-246 109q-216 0 -339.5 -187t-123.5 -509q0 -321 123.5 -506.5t339.5 -185.5q188 0 300.5 153t112.5 432h-422
v58h484v-49q0 -315 -128 -487.5t-347 -172.5z" />
    <glyph glyph-name="Adieresis.ss08" 
d="M481 1667q-23 0 -38 15t-15 42t15 42.5t38 15.5t38.5 -15.5t15.5 -42.5t-15.5 -42t-38.5 -15zM743 1667q-23 0 -38 15t-15 42t15 42.5t38 15.5t38.5 -15.5t15.5 -42.5t-15.5 -42t-38.5 -15zM98 0l477 1454h78l477 -1454h-67l-156 481h-585l-156 -481h-68zM614 1389
l-272 -846h545z" />
    <glyph glyph-name="Cdotaccent.ss08" 
d="M623 1667q-23 0 -38.5 15t-15.5 42t15.5 42.5t38.5 15.5t38 -15.5t15 -42.5t-15 -42t-38 -15zM623 -33q-234 0 -379.5 206.5t-145.5 551.5q0 348 146 555t379 207q190 0 309 -120.5t166 -346.5l-70 -8q-37 197 -141.5 303t-263.5 106q-197 0 -326 -190.5t-129 -505.5
q0 -314 129 -503t326 -189q162 0 271.5 112.5t145.5 325.5l70 -8q-44 -231 -170.5 -363.5t-316.5 -132.5z" />
    <glyph glyph-name="Edieresis.ss08" 
d="M494 1667q-23 0 -38.5 15t-15.5 42t15.5 42.5t38.5 15.5t38 -15.5t15 -42.5t-15 -42t-38 -15zM756 1667q-23 0 -38.5 15t-15.5 42t15.5 42.5t38.5 15.5t38 -15.5t15 -42.5t-15 -42t-38 -15zM205 0v1454h844v-61h-779v-637h754v-62h-754v-633h795v-61h-860z" />
    <glyph glyph-name="Edotaccent.ss08" 
d="M627 1667q-23 0 -38.5 15t-15.5 42t15.5 42.5t38.5 15.5t38 -15.5t15 -42.5t-15 -42t-38 -15zM205 0v1454h844v-61h-779v-637h754v-62h-754v-633h795v-61h-860z" />
    <glyph glyph-name="Gdotaccent.ss08" 
d="M602 1667q-23 0 -38 15t-15 42t15 42.5t38 15.5t38 -15.5t15 -42.5t-15 -42t-38 -15zM614 -33q-239 0 -377.5 203t-138.5 555q0 224 64.5 397.5t182 269t269.5 95.5q383 0 484 -463l-70 -8q-43 202 -145 303.5t-269 101.5q-130 0 -231.5 -88t-158 -246.5t-56.5 -361.5
q0 -318 122 -505t328 -187q183 0 301.5 163.5t124.5 421.5h-421v58h483v-676h-57v371q-44 -183 -159.5 -293.5t-275.5 -110.5z" />
    <glyph glyph-name="Idieresis.ss08" 
d="M481 1667q-23 0 -38 15t-15 42t15 42.5t38 15.5t38.5 -15.5t15.5 -42.5t-15.5 -42t-38.5 -15zM743 1667q-23 0 -38 15t-15 42t15 42.5t38 15.5t38.5 -15.5t15.5 -42.5t-15.5 -42t-38.5 -15zM184 0v61h398v1332h-398v61h860v-61h-397v-1332h397v-61h-860z" />
    <glyph glyph-name="Idotaccent.ss08" 
d="M614 1667q-23 0 -38 15t-15 42t15 42.5t38 15.5t38.5 -15.5t15.5 -42.5t-15.5 -42t-38.5 -15zM184 0v61h398v1332h-398v61h860v-61h-397v-1332h397v-61h-860z" />
    <glyph glyph-name="Odieresis.ss08" 
d="M481 1667q-23 0 -38 15t-15 42t15 42.5t38 15.5t38.5 -15.5t15.5 -42.5t-15.5 -42t-38.5 -15zM743 1667q-23 0 -38 15t-15 42t15 42.5t38 15.5t38.5 -15.5t15.5 -42.5t-15.5 -42t-38.5 -15zM614 -33q-239 0 -377.5 204.5t-138.5 553.5q0 352 138.5 557t377.5 205
t377.5 -205t138.5 -557q0 -349 -138.5 -553.5t-377.5 -204.5zM614 33q213 0 330 184.5t117 507.5q0 324 -117 510t-330 186t-329.5 -185.5t-116.5 -510.5q0 -323 116.5 -507.5t329.5 -184.5z" />
    <glyph glyph-name="Udieresis.ss08" 
d="M481 1667q-23 0 -38 15t-15 42t15 42.5t38 15.5t38.5 -15.5t15.5 -42.5t-15.5 -42t-38.5 -15zM743 1667q-23 0 -38 15t-15 42t15 42.5t38 15.5t38.5 -15.5t15.5 -42.5t-15.5 -42t-38.5 -15zM614 -33q-217 0 -333.5 140.5t-116.5 400.5v946h65v-946q0 -229 99.5 -352
t285.5 -123t285.5 123t99.5 352v946h66v-946q0 -260 -117 -400.5t-334 -140.5z" />
    <glyph glyph-name="Wdieresis.ss08" 
d="M481 1667q-23 0 -38 15t-15 42t15 42.5t38 15.5t38.5 -15.5t15.5 -42.5t-15.5 -42t-38.5 -15zM743 1667q-23 0 -38 15t-15 42t15 42.5t38 15.5t38.5 -15.5t15.5 -42.5t-15.5 -42t-38.5 -15zM295 0l-213 1454h65l199 -1384l232 1220h73l232 -1220l198 1384h66l-213 -1454
h-94l-226 1180l-225 -1180h-94z" />
    <glyph glyph-name="Ydieresis.ss08" 
d="M481 1667q-23 0 -38 15t-15 42t15 42.5t38 15.5t38.5 -15.5t15.5 -42.5t-15.5 -42t-38.5 -15zM743 1667q-23 0 -38 15t-15 42t15 42.5t38 15.5t38.5 -15.5t15.5 -42.5t-15.5 -42t-38.5 -15zM582 0v594l-480 860h78l434 -790l435 790h77l-479 -860v-594h-65z" />
    <glyph glyph-name="Zdotaccent.ss08" 
d="M614 1667q-23 0 -38 15t-15 42t15 42.5t38 15.5t38.5 -15.5t15.5 -42.5t-15.5 -42t-38.5 -15zM123 0v61l897 1332h-860v61h930v-61l-897 -1332h913v-61h-983z" />
    <glyph glyph-name="Gdotaccent.ss06.ss08" 
d="M623 1667q-23 0 -38.5 15t-15.5 42t15.5 42.5t38.5 15.5t38 -15.5t15 -42.5t-15 -42t-38 -15zM623 -33q-248 0 -390.5 204t-142.5 554q0 353 142.5 557.5t390.5 204.5q168 0 295.5 -125t171.5 -336l-68 -8q-44 185 -153 294t-246 109q-216 0 -339.5 -187t-123.5 -509
q0 -321 123.5 -506.5t339.5 -185.5q188 0 300.5 153t112.5 432h-422v58h484v-49q0 -315 -128 -487.5t-347 -172.5z" />
    <glyph glyph-name="i.loclTRK" 
d="M651 1286v144h70v-144h-70zM205 0v57h450v971h-430v57h492v-1028h389v-57h-901z" />
    <glyph glyph-name="uni006A0301" 
d="M791 1249l147 238h70l-164 -238h-53zM266 -307v57h299q119 0 176.5 61.5t57.5 188.5v1028h-533v57h594v-1085q0 -157 -72 -232t-223 -75h-299z" />
    <glyph glyph-name="uni013C.loclMAH" 
d="M164 0v57h450v1180q0 77 -41.5 118.5t-117.5 41.5h-250v57h246q104 0 164.5 -60.5t60.5 -164.5v-1172h389v-57h-901zM571 -346l74 153h-49v99h102v-88l-82 -164h-45z" />
    <glyph glyph-name="uni0146.loclMAH" 
d="M213 0v1085h57l4 -243q31 129 135 198.5t242 69.5q177 0 271 -115.5t94 -296.5v-698h-62v649q0 185 -77 292.5t-238 107.5q-167 0 -266 -111.5t-99 -288.5v-649h-61zM551 -346l74 153h-50v99h103v-88l-82 -164h-45z" />
    <glyph glyph-name="a.ss01" 
d="M479 -25q-157 0 -252.5 79.5t-95.5 211.5q0 118 89 194t241 105l424 82q0 209 -79 305.5t-241 96.5q-147 0 -236 -75t-112 -216l-67 6q28 166 135 256t280 90q184 0 282.5 -110.5t98.5 -331.5v-668h-57l-6 223q-46 -108 -154.5 -178t-249.5 -70zM479 37q180 0 293 108
t113 273v170l-406 -80q-282 -57 -282 -238q0 -113 73 -173t209 -60z" />
    <glyph glyph-name="aacute.ss01" 
d="M590 1249l147 238h70l-164 -238h-53zM479 -25q-157 0 -252.5 79.5t-95.5 211.5q0 118 89 194t241 105l424 82q0 209 -79 305.5t-241 96.5q-147 0 -236 -75t-112 -216l-67 6q28 166 135 256t280 90q184 0 282.5 -110.5t98.5 -331.5v-668h-57l-6 223q-46 -108 -154.5 -178
t-249.5 -70zM479 37q180 0 293 108t113 273v170l-406 -80q-282 -57 -282 -238q0 -113 73 -173t209 -60z" />
    <glyph glyph-name="abreve.ss01" 
d="M623 1266q-106 0 -172.5 64t-81.5 173h53q12 -87 65.5 -133.5t135.5 -46.5q81 0 134.5 46.5t65.5 133.5h54q-15 -109 -81.5 -173t-172.5 -64zM479 -25q-157 0 -252.5 79.5t-95.5 211.5q0 118 89 194t241 105l424 82q0 209 -79 305.5t-241 96.5q-147 0 -236 -75t-112 -216
l-67 6q28 166 135 256t280 90q184 0 282.5 -110.5t98.5 -331.5v-668h-57l-6 223q-46 -108 -154.5 -178t-249.5 -70zM479 37q180 0 293 108t113 273v170l-406 -80q-282 -57 -282 -238q0 -113 73 -173t209 -60z" />
    <glyph glyph-name="uni01CE.ss01" 
d="M418 1503h57l148 -203l147 203h57l-182 -254h-45zM479 -25q-157 0 -252.5 79.5t-95.5 211.5q0 118 89 194t241 105l424 82q0 209 -79 305.5t-241 96.5q-147 0 -236 -75t-112 -216l-67 6q28 166 135 256t280 90q184 0 282.5 -110.5t98.5 -331.5v-668h-57l-6 223
q-46 -108 -154.5 -178t-249.5 -70zM479 37q180 0 293 108t113 273v170l-406 -80q-282 -57 -282 -238q0 -113 73 -173t209 -60z" />
    <glyph glyph-name="acircumflex.ss01" 
d="M418 1249l182 254h45l182 -254h-57l-147 203l-148 -203h-57zM479 -25q-157 0 -252.5 79.5t-95.5 211.5q0 118 89 194t241 105l424 82q0 209 -79 305.5t-241 96.5q-147 0 -236 -75t-112 -216l-67 6q28 166 135 256t280 90q184 0 282.5 -110.5t98.5 -331.5v-668h-57l-6 223
q-46 -108 -154.5 -178t-249.5 -70zM479 37q180 0 293 108t113 273v170l-406 -80q-282 -57 -282 -238q0 -113 73 -173t209 -60z" />
    <glyph glyph-name="adieresis.ss01" 
d="M416 1286v144h69v-144h-69zM756 1286v144h69v-144h-69zM479 -25q-157 0 -252.5 79.5t-95.5 211.5q0 118 89 194t241 105l424 82q0 209 -79 305.5t-241 96.5q-147 0 -236 -75t-112 -216l-67 6q28 166 135 256t280 90q184 0 282.5 -110.5t98.5 -331.5v-668h-57l-6 223
q-46 -108 -154.5 -178t-249.5 -70zM479 37q180 0 293 108t113 273v170l-406 -80q-282 -57 -282 -238q0 -113 73 -173t209 -60z" />
    <glyph glyph-name="agrave.ss01" 
d="M600 1249l-164 238h70l147 -238h-53zM479 -25q-157 0 -252.5 79.5t-95.5 211.5q0 118 89 194t241 105l424 82q0 209 -79 305.5t-241 96.5q-147 0 -236 -75t-112 -216l-67 6q28 166 135 256t280 90q184 0 282.5 -110.5t98.5 -331.5v-668h-57l-6 223q-46 -108 -154.5 -178
t-249.5 -70zM479 37q180 0 293 108t113 273v170l-406 -80q-282 -57 -282 -238q0 -113 73 -173t209 -60z" />
    <glyph glyph-name="amacron.ss01" 
d="M369 1319v57h508v-57h-508zM479 -25q-157 0 -252.5 79.5t-95.5 211.5q0 118 89 194t241 105l424 82q0 209 -79 305.5t-241 96.5q-147 0 -236 -75t-112 -216l-67 6q28 166 135 256t280 90q184 0 282.5 -110.5t98.5 -331.5v-668h-57l-6 223q-46 -108 -154.5 -178
t-249.5 -70zM479 37q180 0 293 108t113 273v170l-406 -80q-282 -57 -282 -238q0 -113 73 -173t209 -60z" />
    <glyph glyph-name="aogonek.ss01" 
d="M479 -25q-157 0 -252.5 79.5t-95.5 211.5q0 118 89 194t241 105l424 82q0 209 -79 305.5t-241 96.5q-147 0 -236 -75t-112 -216l-67 6q28 166 135 256t280 90q184 0 282.5 -110.5t98.5 -331.5v-668l-49 -74q-74 -106 -74 -176q0 -44 23 -67t59 -23q56 0 99 31l28 -45
q-58 -39 -127 -39q-63 0 -103 32t-40 99q0 85 86 205l41 57l-6 223q-46 -108 -154.5 -178t-249.5 -70zM479 37q180 0 293 108t113 273v170l-406 -80q-282 -57 -282 -238q0 -113 73 -173t209 -60z" />
    <glyph glyph-name="aring.ss01" 
d="M621 1212q-65 0 -106.5 41t-41.5 105q0 63 42 104t106 41q63 0 105 -41t42 -104t-41.5 -104.5t-105.5 -41.5zM621 1264q43 0 68.5 25.5t25.5 68.5t-25.5 67.5t-68.5 24.5t-69 -25t-26 -67q0 -43 26 -68.5t69 -25.5zM479 -25q-157 0 -252.5 79.5t-95.5 211.5q0 118 89 194
t241 105l424 82q0 209 -79 305.5t-241 96.5q-147 0 -236 -75t-112 -216l-67 6q28 166 135 256t280 90q184 0 282.5 -110.5t98.5 -331.5v-668h-57l-6 223q-46 -108 -154.5 -178t-249.5 -70zM479 37q180 0 293 108t113 273v170l-406 -80q-282 -57 -282 -238q0 -113 73 -173
t209 -60z" />
    <glyph glyph-name="atilde.ss01" 
d="M750 1290q-41 0 -71 16t-61 50q-27 30 -51 43.5t-59 13.5q-96 0 -102 -133h-54q6 85 48.5 133.5t107.5 48.5q46 0 79 -18.5t68 -54.5q50 -50 95 -50q40 0 62 33.5t28 108.5h53q-6 -91 -42.5 -141t-100.5 -50zM479 -25q-157 0 -252.5 79.5t-95.5 211.5q0 118 89 194
t241 105l424 82q0 209 -79 305.5t-241 96.5q-147 0 -236 -75t-112 -216l-67 6q28 166 135 256t280 90q184 0 282.5 -110.5t98.5 -331.5v-668h-57l-6 223q-46 -108 -154.5 -178t-249.5 -70zM479 37q180 0 293 108t113 273v170l-406 -80q-282 -57 -282 -238q0 -113 73 -173
t209 -60z" />
    <glyph glyph-name="a.ss02" 
d="M600 -25q-209 0 -331 153.5t-122 414.5q0 258 122 409.5t331 151.5q123 0 228.5 -79t148.5 -202v262h61v-1085h-45l-6 266q-56 -134 -160 -212.5t-227 -78.5zM600 35q161 0 272 147t111 361q0 211 -111 355t-272 144q-179 0 -283 -134.5t-104 -364.5q0 -234 104.5 -371
t282.5 -137z" />
    <glyph glyph-name="aacute.ss02" 
d="M567 1249l148 238h69l-163 -238h-54zM600 -25q-209 0 -331 153.5t-122 414.5q0 258 122 409.5t331 151.5q123 0 228.5 -79t148.5 -202v262h61v-1085h-45l-6 266q-56 -134 -160 -212.5t-227 -78.5zM600 35q161 0 272 147t111 361q0 211 -111 355t-272 144
q-179 0 -283 -134.5t-104 -364.5q0 -234 104.5 -371t282.5 -137z" />
    <glyph glyph-name="abreve.ss02" 
d="M600 1266q-106 0 -172.5 64t-81.5 173h53q12 -87 65.5 -133.5t135.5 -46.5t135.5 46.5t65.5 133.5h53q-15 -109 -81.5 -173t-172.5 -64zM600 -25q-209 0 -331 153.5t-122 414.5q0 258 122 409.5t331 151.5q123 0 228.5 -79t148.5 -202v262h61v-1085h-45l-6 266
q-56 -134 -160 -212.5t-227 -78.5zM600 35q161 0 272 147t111 361q0 211 -111 355t-272 144q-179 0 -283 -134.5t-104 -364.5q0 -234 104.5 -371t282.5 -137z" />
    <glyph glyph-name="uni01CE.ss02" 
d="M395 1503h58l147 -203l148 203h57l-182 -254h-45zM600 -25q-209 0 -331 153.5t-122 414.5q0 258 122 409.5t331 151.5q123 0 228.5 -79t148.5 -202v262h61v-1085h-45l-6 266q-56 -134 -160 -212.5t-227 -78.5zM600 35q161 0 272 147t111 361q0 211 -111 355t-272 144
q-179 0 -283 -134.5t-104 -364.5q0 -234 104.5 -371t282.5 -137z" />
    <glyph glyph-name="acircumflex.ss02" 
d="M395 1249l183 254h45l182 -254h-57l-148 203l-147 -203h-58zM600 -25q-209 0 -331 153.5t-122 414.5q0 258 122 409.5t331 151.5q123 0 228.5 -79t148.5 -202v262h61v-1085h-45l-6 266q-56 -134 -160 -212.5t-227 -78.5zM600 35q161 0 272 147t111 361q0 211 -111 355
t-272 144q-179 0 -283 -134.5t-104 -364.5q0 -234 104.5 -371t282.5 -137z" />
    <glyph glyph-name="adieresis.ss02" 
d="M393 1286v144h70v-144h-70zM733 1286v144h70v-144h-70zM600 -25q-209 0 -331 153.5t-122 414.5q0 258 122 409.5t331 151.5q123 0 228.5 -79t148.5 -202v262h61v-1085h-45l-6 266q-56 -134 -160 -212.5t-227 -78.5zM600 35q161 0 272 147t111 361q0 211 -111 355
t-272 144q-179 0 -283 -134.5t-104 -364.5q0 -234 104.5 -371t282.5 -137z" />
    <glyph glyph-name="agrave.ss02" 
d="M578 1249l-164 238h69l148 -238h-53zM600 -25q-209 0 -331 153.5t-122 414.5q0 258 122 409.5t331 151.5q123 0 228.5 -79t148.5 -202v262h61v-1085h-45l-6 266q-56 -134 -160 -212.5t-227 -78.5zM600 35q161 0 272 147t111 361q0 211 -111 355t-272 144
q-179 0 -283 -134.5t-104 -364.5q0 -234 104.5 -371t282.5 -137z" />
    <glyph glyph-name="amacron.ss02" 
d="M346 1319v57h508v-57h-508zM600 -25q-209 0 -331 153.5t-122 414.5q0 258 122 409.5t331 151.5q123 0 228.5 -79t148.5 -202v262h61v-1085h-45l-6 266q-56 -134 -160 -212.5t-227 -78.5zM600 35q161 0 272 147t111 361q0 211 -111 355t-272 144q-179 0 -283 -134.5
t-104 -364.5q0 -234 104.5 -371t282.5 -137z" />
    <glyph glyph-name="aogonek.ss02" 
d="M600 -25q-209 0 -331 153.5t-122 414.5q0 258 122 409.5t331 151.5q123 0 228.5 -79t148.5 -202v262h61v-1085l-49 -74q-74 -106 -74 -176q0 -44 23 -67t59 -23q56 0 99 31l28 -45q-58 -39 -127 -39q-63 0 -103 32t-40 99q0 85 86 205l45 63h8l-6 260
q-56 -134 -160 -212.5t-227 -78.5zM600 35q161 0 272 147t111 361q0 211 -111 355t-272 144q-179 0 -283 -134.5t-104 -364.5q0 -234 104.5 -371t282.5 -137z" />
    <glyph glyph-name="aring.ss02" 
d="M598 1212q-65 0 -106 41t-41 105q0 63 41.5 104t105.5 41q63 0 105 -41t42 -104t-41.5 -104.5t-105.5 -41.5zM598 1264q43 0 68.5 25.5t25.5 68.5t-25.5 67.5t-68.5 24.5t-68.5 -24.5t-25.5 -67.5t25.5 -68.5t68.5 -25.5zM600 -25q-209 0 -331 153.5t-122 414.5
q0 258 122 409.5t331 151.5q123 0 228.5 -79t148.5 -202v262h61v-1085h-45l-6 266q-56 -134 -160 -212.5t-227 -78.5zM600 35q161 0 272 147t111 361q0 211 -111 355t-272 144q-179 0 -283 -134.5t-104 -364.5q0 -234 104.5 -371t282.5 -137z" />
    <glyph glyph-name="atilde.ss02" 
d="M727 1290q-41 0 -70.5 16t-60.5 50q-27 30 -51.5 43.5t-59.5 13.5q-96 0 -102 -133h-53q6 85 48 133.5t107 48.5q46 0 79.5 -18.5t68.5 -54.5q50 -50 94 -50q40 0 62 33.5t28 108.5h53q-6 -91 -42.5 -141t-100.5 -50zM600 -25q-209 0 -331 153.5t-122 414.5
q0 258 122 409.5t331 151.5q123 0 228.5 -79t148.5 -202v262h61v-1085h-45l-6 266q-56 -134 -160 -212.5t-227 -78.5zM600 35q161 0 272 147t111 361q0 211 -111 355t-272 144q-179 0 -283 -134.5t-104 -364.5q0 -234 104.5 -371t282.5 -137z" />
    <glyph glyph-name="l.ss03" 
d="M803 0q-104 0 -152.5 48t-48.5 151v1198h-397v57h459v-1255q0 -77 31.5 -109.5t107.5 -32.5h303v-57h-303z" />
    <glyph glyph-name="lacute.ss03" 
d="M582 1618l147 237h70l-164 -237h-53zM803 0q-104 0 -152.5 48t-48.5 151v1198h-397v57h459v-1255q0 -77 31.5 -109.5t107.5 -32.5h303v-57h-303z" />
    <glyph glyph-name="lcaron.ss03" 
d="M803 0q-104 0 -152.5 48t-48.5 151v1198h-397v57h459v-1255q0 -77 31.5 -109.5t107.5 -32.5h303v-57h-303zM860 1028l70 426h78l-95 -426h-53z" />
    <glyph glyph-name="uni013C.ss03" 
d="M803 0q-104 0 -152.5 48t-48.5 151v1198h-397v57h459v-1255q0 -77 31.5 -109.5t107.5 -32.5h303v-57h-303zM541 -346l73 153h-49v99h103v-88l-82 -164h-45z" />
    <glyph glyph-name="lslash.ss03" 
d="M397 662l-26 55l233 106v574h-397v57h459v-602l168 78l26 -56l-194 -90v-585q0 -77 31.5 -109.5t107.5 -32.5h303v-57h-303q-104 0 -152.5 48t-48.5 151v557z" />
    <glyph glyph-name="adieresis.ss08" 
d="M436 1298q-23 0 -38 15.5t-15 42.5t15 42t38 15t38 -15t15 -42t-15 -42.5t-38 -15.5zM698 1298q-23 0 -38 15.5t-15 42.5t15 42t38 15t38.5 -15t15.5 -42t-15.5 -42.5t-38.5 -15.5zM479 -25q-157 0 -252.5 79.5t-95.5 211.5q0 118 89 194t241 105l424 82q0 209 -79 305.5
t-241 96.5q-147 0 -236 -75t-112 -216l-67 6q28 166 135 256t280 90q184 0 282.5 -110.5t98.5 -331.5v-459q0 -87 23 -117.5t75 -30.5h62v-61q-24 -4 -70 -4q-75 0 -112 45t-43 170q-48 -102 -155 -169t-247 -67zM479 37q180 0 293 108t113 273v170l-406 -80
q-282 -57 -282 -238q0 -113 73 -173t209 -60z" />
    <glyph glyph-name="cdotaccent.ss08" 
d="M643 1298q-23 0 -38 15.5t-15 42.5t15 42t38 15t38 -15t15 -42t-15 -42.5t-38 -15.5zM645 -25q-148 0 -254.5 79t-156.5 205.5t-50 283.5q0 117 29.5 218.5t85.5 180t145 123.5t201 45q161 0 267.5 -99.5t148.5 -262.5l-66 -5q-37 146 -127 226t-223 80
q-182 0 -288.5 -136.5t-106.5 -369.5t106.5 -369.5t288.5 -136.5q135 0 229 87t125 241l66 -7q-38 -173 -147.5 -278t-272.5 -105z" />
    <glyph glyph-name="edieresis.ss08" 
d="M492 1298q-23 0 -38.5 15.5t-15.5 42.5t15.5 42t38.5 15t38 -15t15 -42t-15 -42.5t-38 -15.5zM754 1298q-23 0 -38.5 15.5t-15.5 42.5t15.5 42t38.5 15t38 -15t15 -42t-15 -42.5t-38 -15.5zM635 -25q-113 0 -204 45.5t-148.5 124t-88 180t-30.5 218.5q0 93 18.5 177
t56.5 155.5t92 123.5t130 81.5t166 29.5q113 0 202 -44.5t144 -121.5t83.5 -175.5t28.5 -211.5v-25h-856q3 -229 113 -362t293 -133q141 0 233 69.5t127 190.5l68 -4q-41 -143 -154 -230.5t-274 -87.5zM229 590h789q-6 213 -107.5 336t-283.5 123q-172 0 -280 -123
t-118 -336z" />
    <glyph glyph-name="edotaccent.ss08" 
d="M625 1298q-23 0 -38.5 15.5t-15.5 42.5t15.5 42t38.5 15t38 -15t15 -42t-15 -42.5t-38 -15.5zM635 -25q-113 0 -204 45.5t-148.5 124t-88 180t-30.5 218.5q0 93 18.5 177t56.5 155.5t92 123.5t130 81.5t166 29.5q113 0 202 -44.5t144 -121.5t83.5 -175.5t28.5 -211.5v-25
h-856q3 -229 113 -362t293 -133q141 0 233 69.5t127 190.5l68 -4q-41 -143 -154 -230.5t-274 -87.5zM229 590h789q-6 213 -107.5 336t-283.5 123q-172 0 -280 -123t-118 -336z" />
    <glyph glyph-name="gdotaccent.ss08" 
d="M596 1298q-23 0 -38 15.5t-15 42.5t15 42t38 15t38 -15t15 -42t-15 -42.5t-38 -15.5zM598 -332q-169 0 -282 90.5t-119 229.5l65 4q6 -118 96.5 -190t239.5 -72q177 0 276 101.5t99 285.5v209q-51 -127 -149 -201t-232 -74q-206 0 -327.5 143.5t-121.5 389.5
q0 240 122 383t327 143q136 0 236 -79.5t145 -207.5v262h61v-972q0 -207 -116.5 -326t-319.5 -119zM592 113q173 0 277 127.5t104 343.5q0 202 -105.5 333.5t-275.5 131.5q-175 0 -279 -126.5t-104 -338.5q0 -216 104 -343.5t279 -127.5z" />
    <glyph glyph-name="i.ss08" 
d="M686 1298q-23 0 -38 15.5t-15 42.5t15 42t38 15t38 -15t15 -42t-15 -42.5t-38 -15.5zM205 0v57h450v971h-430v57h492v-1028h389v-57h-901z" />
    <glyph glyph-name="idieresis.ss08" 
d="M553 1298q-23 0 -38 15.5t-15 42.5t15 42t38 15t38 -15t15 -42t-15 -42.5t-38 -15.5zM815 1298q-23 0 -38 15.5t-15 42.5t15 42t38 15t38 -15t15 -42t-15 -42.5t-38 -15.5zM205 0v57h450v971h-430v57h492v-1028h389v-57h-901z" />
    <glyph glyph-name="i.loclTRK.ss08" 
d="M686 1298q-23 0 -38 15.5t-15 42.5t15 42t38 15t38 -15t15 -42t-15 -42.5t-38 -15.5zM205 0v57h450v971h-430v57h492v-1028h389v-57h-901z" />
    <glyph glyph-name="iogonek.ss08" 
d="M686 1298q-23 0 -38 15.5t-15 42.5t15 42t38 15t38 -15t15 -42t-15 -42.5t-38 -15.5zM205 0v57h450v971h-430v57h492v-1028h389v-57l-49 -74q-74 -106 -74 -176q0 -44 23 -67t59 -23q55 0 98 31l29 -45q-58 -39 -127 -39q-63 0 -103 32t-40 99q0 85 86 205l41 57h-844z
" />
    <glyph glyph-name="j.ss08" 
d="M823 1298q-23 0 -38 15.5t-15 42.5t15 42t38 15t38.5 -15t15.5 -42t-15.5 -42.5t-38.5 -15.5zM266 -307v57h299q119 0 176.5 61.5t57.5 188.5v1028h-533v57h594v-1085q0 -157 -72 -232t-223 -75h-299z" />
    <glyph glyph-name="odieresis.ss08" 
d="M481 1298q-23 0 -38 15.5t-15 42.5t15 42t38 15t38.5 -15t15.5 -42t-15.5 -42.5t-38.5 -15.5zM743 1298q-23 0 -38 15.5t-15 42.5t15 42t38 15t38.5 -15t15.5 -42t-15.5 -42.5t-38.5 -15.5zM614 -25q-211 0 -332.5 153t-121.5 415t121.5 414.5t332.5 152.5
q212 0 333.5 -152.5t121.5 -414.5t-122 -415t-333 -153zM614 37q182 0 286 136t104 370t-104 370t-286 136t-285.5 -136t-103.5 -370t103.5 -370t285.5 -136z" />
    <glyph glyph-name="udieresis.ss08" 
d="M467 1298q-23 0 -38 15.5t-15 42.5t15 42t38 15t38 -15t15 -42t-15 -42.5t-38 -15.5zM729 1298q-23 0 -38 15.5t-15 42.5t15 42t38 15t38 -15t15 -42t-15 -42.5t-38 -15.5zM561 -25q-164 0 -260 110t-96 302v698h61v-671q0 -185 80 -281t232 -96q163 0 259.5 108
t96.5 291v649h61v-1085h-53l-4 244q-31 -128 -129.5 -198.5t-247.5 -70.5z" />
    <glyph glyph-name="wdieresis.ss08" 
d="M481 1298q-23 0 -38 15.5t-15 42.5t15 42t38 15t38.5 -15t15.5 -42t-15.5 -42.5t-38.5 -15.5zM743 1298q-23 0 -38 15.5t-15 42.5t15 42t38 15t38.5 -15t15.5 -42t-15.5 -42.5t-38.5 -15.5zM328 0l-267 1085h66l238 -1024l219 881h61l219 -881l238 1024h65l-266 -1085
h-74l-213 848l-213 -848h-73z" />
    <glyph glyph-name="ydieresis.ss08" 
d="M502 1298q-23 0 -38 15.5t-15 42.5t15 42t38 15t38 -15t15 -42t-15 -42.5t-38 -15.5zM764 1298q-23 0 -38 15.5t-15 42.5t15 42t38 15t38 -15t15 -42t-15 -42.5t-38 -15.5zM293 -307v57h82q87 0 128 30t72 114l48 126h-33l-430 1065h65l410 -1024l381 1024h65l-456 -1216
q-37 -98 -91.5 -137t-158.5 -39h-82z" />
    <glyph glyph-name="zdotaccent.ss08" 
d="M616 1298q-23 0 -38 15.5t-15 42.5t15 42t38 15t38.5 -15t15.5 -42t-15.5 -42.5t-38.5 -15.5zM184 0v61l774 967h-753v57h823v-61l-774 -967h790v-57h-860z" />
    <glyph glyph-name="adieresis.ss01.ss08" 
d="M489 1298q-23 0 -38 15.5t-15 42.5t15 42t38 15t38.5 -15t15.5 -42t-15.5 -42.5t-38.5 -15.5zM752 1298q-23 0 -38.5 15.5t-15.5 42.5t15.5 42t38.5 15t38 -15t15 -42t-15 -42.5t-38 -15.5zM479 -25q-157 0 -252.5 79.5t-95.5 211.5q0 118 89 194t241 105l424 82
q0 209 -79 305.5t-241 96.5q-147 0 -236 -75t-112 -216l-67 6q28 166 135 256t280 90q184 0 282.5 -110.5t98.5 -331.5v-668h-57l-6 223q-46 -108 -154.5 -178t-249.5 -70zM479 37q180 0 293 108t113 273v170l-406 -80q-282 -57 -282 -238q0 -113 73 -173t209 -60z" />
    <glyph glyph-name="adieresis.ss02.ss08" 
d="M467 1298q-23 0 -38 15.5t-15 42.5t15 42t38 15t38 -15t15 -42t-15 -42.5t-38 -15.5zM729 1298q-23 0 -38 15.5t-15 42.5t15 42t38 15t38 -15t15 -42t-15 -42.5t-38 -15.5zM600 -25q-209 0 -331 153.5t-122 414.5q0 258 122 409.5t331 151.5q123 0 228.5 -79t148.5 -202
v262h61v-1085h-45l-6 266q-56 -134 -160 -212.5t-227 -78.5zM600 35q161 0 272 147t111 361q0 211 -111 355t-272 144q-179 0 -283 -134.5t-104 -364.5q0 -234 104.5 -371t282.5 -137z" />
    <glyph glyph-name="zero.ss09" 
d="M614 -33q-144 0 -256.5 96.5t-173.5 269t-61 392.5q0 221 61 394.5t173.5 270.5t256.5 97t256.5 -97t174 -270.5t61.5 -394.5q0 -220 -61.5 -392.5t-174 -269t-256.5 -96.5zM614 33q124 0 220.5 88t149 245.5t52.5 358.5q0 309 -117 502.5t-305 193.5t-304.5 -193.5
t-116.5 -502.5q0 -201 52.5 -358.5t148.5 -245.5t220 -88z" />
    <glyph glyph-name="zero.dnom" 
d="M614 -16q-140 0 -220.5 110.5t-80.5 302.5q0 193 80 302.5t221 109.5t221 -109.5t80 -302.5q0 -192 -80.5 -302.5t-220.5 -110.5zM375 397q0 -153 53 -245l338 538q-60 66 -152 66q-112 0 -175.5 -95.5t-63.5 -263.5zM614 37q111 0 175.5 96.5t64.5 263.5q0 156 -53 248
l-340 -541q61 -67 153 -67z" />
    <glyph glyph-name="one.dnom" 
d="M686 0v586h-201v45h27q186 0 186 162h45v-793h-57z" />
    <glyph glyph-name="two.dnom" 
d="M344 0q0 127 52.5 201t189.5 149l67 37q103 56 133.5 95.5t30.5 101.5q0 81 -50.5 124.5t-143.5 43.5q-178 0 -215 -207l-62 6q13 123 85.5 190.5t191.5 67.5q120 0 188 -59.5t68 -165.5q0 -82 -42 -133t-151 -109l-61 -33q-114 -61 -163.5 -120t-47.5 -132h456v-57h-526
z" />
    <glyph glyph-name="three.dnom" 
d="M621 -16q-141 0 -212 59.5t-77 165.5l63 6q6 -88 57 -131t169 -43q217 0 217 180q0 77 -56 126.5t-155 49.5h-58v54h58q78 0 129 38t51 123q0 66 -46.5 103t-142.5 37q-176 0 -192 -148l-66 8q12 93 80 145t178 52q122 0 186 -53t64 -144q0 -70 -39.5 -118.5
t-109.5 -69.5q90 -21 135 -74.5t45 -128.5q0 -107 -74 -172t-204 -65z" />
    <glyph glyph-name="four.dnom" 
d="M717 0v195h-391v45l391 553h57v-545h131v-53h-131v-195h-57zM391 248h326v463z" />
    <glyph glyph-name="five.dnom" 
d="M610 -16q-117 0 -185.5 57t-80.5 152l66 6q6 -75 56.5 -116.5t143.5 -41.5q96 0 155.5 59.5t59.5 155.5q0 98 -53.5 154.5t-144.5 56.5q-145 0 -211 -135h-64l58 461h430v-58h-379l-43 -327q21 50 78.5 83t134.5 33q117 0 186.5 -72.5t69.5 -195.5q0 -119 -76.5 -195.5
t-200.5 -76.5z" />
    <glyph glyph-name="six.dnom" 
d="M623 -16q-137 0 -211 91.5t-74 276.5q0 206 81.5 331.5t223.5 125.5q186 0 244 -193l-58 -8q-20 76 -65 112t-121 36q-109 0 -174.5 -101t-69.5 -280q31 71 91.5 112t138.5 41q116 0 189 -73.5t73 -190.5q0 -126 -73.5 -203t-194.5 -77zM623 37q91 0 148.5 62.5
t57.5 164.5q0 92 -56 151.5t-144 59.5q-89 0 -154 -64t-65 -155q0 -97 60 -158t153 -61z" />
    <glyph glyph-name="seven.dnom" 
d="M539 0q0 176 76 373t196 362h-449v58h504v-58q-116 -162 -189 -358.5t-73 -376.5h-65z" />
    <glyph glyph-name="eight.dnom" 
d="M614 -16q-134 0 -211 56t-77 169q0 170 180 223q-141 42 -141 172q0 205 249 205q250 0 250 -205q0 -130 -141 -172q180 -53 180 -223q0 -113 -77.5 -169t-211.5 -56zM614 461q86 0 137.5 35.5t51.5 107.5q0 74 -44.5 111t-144.5 37t-144 -37t-44 -111q0 -72 51 -107.5
t137 -35.5zM614 41q228 0 228 172q0 87 -64 141t-164 54t-163.5 -54t-63.5 -141q0 -172 227 -172z" />
    <glyph glyph-name="nine.dnom" 
d="M606 809q137 0 211 -92t74 -277q0 -206 -81 -331t-224 -125q-186 0 -244 192l57 8q20 -75 65.5 -111t121.5 -36q109 0 174 101t69 280q-31 -72 -91 -113t-138 -41q-116 0 -189 73.5t-73 190.5q0 126 73.5 203.5t194.5 77.5zM606 756q-91 0 -149 -63t-58 -165
q0 -92 56.5 -151.5t144.5 -59.5q89 0 154 64.5t65 155.5q0 97 -60 158t-153 61z" />
    <glyph glyph-name="zero.numr" 
d="M614 645q-140 0 -220.5 111t-80.5 303q0 193 80 302t221 109t221 -109t80 -302q0 -192 -80.5 -303t-220.5 -111zM375 1059q0 -154 53 -246l338 539q-59 65 -152 65q-112 0 -175.5 -95t-63.5 -263zM614 698q110 0 175 97t65 264q0 156 -53 248l-340 -541q62 -68 153 -68z
" />
    <glyph glyph-name="one.numr" 
d="M686 662v585h-201v45h27q186 0 186 162h45v-792h-57z" />
    <glyph glyph-name="two.numr" 
d="M344 662q0 127 52.5 201t189.5 149l67 37q103 56 133.5 95t30.5 101q0 81 -50.5 124.5t-143.5 43.5q-178 0 -215 -207l-62 6q13 123 85.5 190.5t191.5 67.5q120 0 188 -59.5t68 -165.5q0 -82 -41.5 -132.5t-151.5 -108.5l-61 -33q-114 -61 -163.5 -120t-47.5 -132h456
v-57h-526z" />
    <glyph glyph-name="three.numr" 
d="M621 645q-141 0 -212 59.5t-77 165.5l63 7q6 -88 57 -131.5t169 -43.5q109 0 163 46.5t54 134.5q0 77 -56 126.5t-155 49.5h-58v53h58q78 0 129 38t51 124q0 139 -189 139q-176 0 -192 -147l-66 8q12 92 80 144t178 52q122 0 186 -52.5t64 -143.5q0 -70 -39.5 -119.5
t-109.5 -69.5q90 -21 135 -74.5t45 -127.5q0 -108 -74 -173t-204 -65z" />
    <glyph glyph-name="four.numr" 
d="M717 662v194h-391v45l391 553h57v-545h131v-53h-131v-194h-57zM391 909h326v463z" />
    <glyph glyph-name="five.numr" 
d="M610 645q-117 0 -185.5 57t-80.5 152l66 6q6 -75 56.5 -116.5t143.5 -41.5q96 0 155.5 60t59.5 156q0 98 -53.5 154t-144.5 56q-145 0 -211 -135h-64l58 461h430v-57h-379l-43 -328q21 50 79 83.5t134 33.5q117 0 186.5 -72.5t69.5 -195.5q0 -120 -76.5 -196.5
t-200.5 -76.5z" />
    <glyph glyph-name="six.numr" 
d="M623 645q-137 0 -211 92t-74 277q0 206 81 331t224 125q186 0 244 -192l-58 -8q-20 75 -65 111t-121 36q-109 0 -174.5 -101t-69.5 -280q31 72 91.5 113t138.5 41q116 0 189 -73.5t73 -190.5q0 -126 -73.5 -203.5t-194.5 -77.5zM623 698q91 0 148.5 63t57.5 165
q0 92 -56 151.5t-144 59.5q-89 0 -154 -64t-65 -155q0 -98 60 -159t153 -61z" />
    <glyph glyph-name="seven.numr" 
d="M539 662q0 176 76 373t196 362h-449v57h504v-57q-116 -162 -189 -358.5t-73 -376.5h-65z" />
    <glyph glyph-name="eight.numr" 
d="M614 645q-134 0 -211 56t-77 169q0 171 180 224q-141 42 -141 172q0 204 249 204q250 0 250 -204q0 -130 -141 -172q180 -53 180 -224q0 -113 -77.5 -169t-211.5 -56zM614 1122q86 0 137.5 36t51.5 108q0 74 -44.5 110.5t-144.5 36.5t-144 -36.5t-44 -110.5
q0 -72 51 -108t137 -36zM614 702q228 0 228 172q0 87 -64 141t-164 54t-163.5 -54t-63.5 -141q0 -172 227 -172z" />
    <glyph glyph-name="nine.numr" 
d="M606 1470q137 0 211 -91.5t74 -276.5q0 -206 -81.5 -331.5t-223.5 -125.5q-186 0 -244 193l57 8q20 -76 65.5 -112t121.5 -36q109 0 174 101t69 280q-31 -72 -91 -112.5t-138 -40.5q-116 0 -189 73.5t-73 190.5q0 126 73.5 203t194.5 77zM606 1417q-91 0 -149 -62.5
t-58 -164.5q0 -92 56.5 -151.5t144.5 -59.5q89 0 154 64t65 155q0 97 -60 158t-153 61z" />
    <glyph glyph-name="hyphen_hyphen.liga" 
d="M86 598v61h889v-61h-889zM-975 598v61h887v-61h-887z" />
    <glyph glyph-name="hyphen_hyphen_hyphen.liga" 
d="M27 598v61h921v-61h-921zM-2177 598v61h922v-61h-922zM-1075 598v61h921v-61h-921z" />
    <glyph glyph-name="hyphen_hyphen_hyphen_greater.liga" 
d="M473 90l506 508h-4538v66h4542l-508 507h88l539 -540l-541 -541h-88z" />
    <glyph glyph-name="hyphen_hyphen_greater.liga" 
d="M473 90l506 508h-3310v66h3314l-508 507h88l539 -540l-541 -541h-88z" />
    <glyph glyph-name="hyphen_greater.liga" 
d="M473 90l506 508h-2081v66h2085l-508 507h88l539 -540l-541 -541h-88z" />
    <glyph glyph-name="hyphen_greater_greater.liga" 
d="M473 90l541 541l-539 540h88l539 -540l-541 -541h-88zM168 90l506 508h-3005v66h3009l-508 507h88l539 -540l-541 -541h-88z" />
    <glyph glyph-name="hyphen_less.liga" 
d="M1014 90l-508 508h-1608v66h1608l506 507h88l-539 -538l541 -543h-88z" />
    <glyph glyph-name="hyphen_less_less.liga" 
d="M1014 90l-541 541l539 540h88l-539 -538l541 -543h-88zM711 90l-508 508h-2534v66h2534l506 507h88l-539 -538l541 -543h-88z" />
    <glyph glyph-name="hyphen_asciitilde.liga" 
d="M-764 539v61h606q33 0 62 16.5t49 41.5t44 54.5t47.5 54.5t58.5 41.5t77 16.5t77 -16.5t58.5 -41.5t47.5 -54.5t44 -54.5t49 -41.5t62 -16.5q83 0 131.5 60.5t48.5 160.5h66q0 -124 -69 -203t-177 -79q-42 0 -77 16.5t-58.5 41.5t-47.5 54.5t-44 54.5t-49 41.5t-62 16.5
t-62 -16.5t-49 -41.5t-44 -54.5t-47.5 -54.5t-58.5 -41.5t-77 -16.5h-606z" />
    <glyph glyph-name="braceleft_bar.liga" 
d="M-258 -184q-155 0 -245.5 94.5t-90.5 257.5v180q0 164 -79 240t-249 76v63q170 0 249 75.5t79 239.5v183q0 163 90.5 257.5t245.5 94.5h520v-61h-498q-140 0 -216 -77t-76 -210v-187q0 -143 -63.5 -238t-162.5 -106v-2q100 -11 163 -106.5t63 -241.5v-184q0 -133 76 -210
t216 -77h498v-61h-520zM590 -184v1761h65v-1761h-65z" />
    <glyph glyph-name="period_period_period.liga" 
d="M-1628 0v164h164v-164h-164zM-696 0v164h164v-164h-164zM233 0v164h164v-164h-164z" />
    <glyph glyph-name="period_period_equal.liga" 
d="M-262 772v62h860v-62h-860zM-1907 467v213h213v-213h-213zM-1085 467v213h213v-213h-213zM-262 350v62h860v-62h-860z" />
    <glyph glyph-name="period_equal.liga" 
d="M-20 772v62h860v-62h-860zM-844 471v213h213v-213h-213zM-20 350v62h860v-62h-860z" />
    <glyph glyph-name="colon_equal.liga" 
d="M-772 938v164h164v-164h-164zM-152 772v62h861v-62h-861zM-152 350v62h861v-62h-861zM-772 123v164h164v-164h-164z" />
    <glyph glyph-name="exclam_question.liga" 
d="M430 442q0 116 40.5 191t133.5 145q143 108 184 168.5t41 167.5q0 136 -89.5 221.5t-245.5 85.5q-176 0 -274.5 -106t-110.5 -297l-66 4q12 217 130.5 341t320.5 124q186 0 293.5 -107.5t107.5 -265.5q0 -120 -52.5 -194.5t-209.5 -190.5q-74 -55 -105.5 -118t-31.5 -169
h-66zM-575 420q-11 506 -11 522v512h66v-512q0 -62 -10 -522h-45zM381 0v164h164v-164h-164zM-635 0v164h164v-164h-164z" />
    <glyph glyph-name="exclam_equal.liga" 
d="M-266 0l119 330h-955v61h977l129 361h-1106v61h1129l114 317h66l-115 -317h1010v-61h-1032l-131 -361h1163v-61h-1186l-119 -330h-63z" />
    </font>
</defs>
</svg>
