<?xml version="1.0" standalone="no"?>
<!DOCTYPE svg PUBLIC "-//W3C//DTD SVG 1.1//EN" "http://www.w3.org/Graphics/SVG/1.1/DTD/svg11.dtd" >
<svg xmlns="http://www.w3.org/2000/svg" xmlns:xlink="http://www.w3.org/1999/xlink" version="1.1">
<metadata>
Created by FontForge 20201107 at Mon Nov 11 05:26:59 2024
 By 
Copyright 2024 The Geist Project Authors (https://github.com/vercel/geist-font.git)
</metadata>
<defs>
<font id="GeistMono-Black" horiz-adv-x="1228" >
  <font-face 
    font-family="Geist Mono Black"
    font-weight="800"
    font-stretch="normal"
    units-per-em="2048"
    panose-1="0 0 0 0 0 0 0 0 0 0"
    ascent="1638"
    descent="-410"
    x-height="1102"
    cap-height="1454"
    bbox="-3559 -528 1339 2073"
    underline-thickness="102"
    underline-position="-255"
    unicode-range="U+0020-F8FF"
  />
<missing-glyph horiz-adv-x="1024" 
d="M102 -307v1945h820v-1945h-820zM205 -205h614v1741h-614v-1741z" />
    <glyph glyph-name=".notdef" horiz-adv-x="1024" 
d="M102 -307v1945h820v-1945h-820zM205 -205h614v1741h-614v-1741z" />
    <glyph glyph-name=".null" horiz-adv-x="0" 
 />
    <glyph glyph-name="nonmarkingreturn" horiz-adv-x="682" 
 />
    <glyph glyph-name="space" unicode=" " 
 />
    <glyph glyph-name="exclam" unicode="!" 
d="M506 479q-16 99 -29.5 251.5t-13.5 268.5v455h303v-455q0 -114 -13 -265.5t-28 -254.5h-219zM442 0v328h344v-328h-344z" />
    <glyph glyph-name="quotedbl" unicode="&#x22;" 
d="M702 766l-8 688h252v-174l-49 -514h-195zM332 766l-49 514v174h252l-9 -688h-194z" />
    <glyph glyph-name="numbersign" unicode="#" 
d="M152 0l55 340h-154l35 248h160l43 268h-160l35 248h166l57 350h246l-55 -350h186l59 350h254l-57 -350h154l-35 -248h-160l-45 -268h162l-35 -248h-166l-55 -340h-256l55 340h-180l-55 -340h-254zM500 588h182l43 268h-184z" />
    <glyph glyph-name="dollar" unicode="$" 
d="M535 -186v174q-421 46 -451 514l315 14q27 -194 136 -244v340q-204 47 -311 147.5t-107 276.5q0 179 108.5 291.5t309.5 132.5v187h170v-189q195 -22 304.5 -143t123.5 -328l-316 -14q-11 83 -36.5 132t-75.5 71v-324q245 -63 342.5 -166t97.5 -276q0 -187 -114.5 -296
t-325.5 -126v-174h-170zM410 1051q0 -55 26.5 -88t98.5 -62v287q-125 -24 -125 -137zM846 393q0 61 -30.5 100t-110.5 70v-305q141 21 141 135z" />
    <glyph glyph-name="percent" unicode="%" 
d="M309 750q-141 0 -223 90t-82 270q0 179 82.5 269.5t222.5 90.5t222.5 -90.5t82.5 -269.5q0 -180 -82 -270t-223 -90zM104 0l826 1454h194l-825 -1454h-195zM309 915q88 0 88 195t-88 195t-88 -195t88 -195zM920 -16q-141 0 -223.5 90t-82.5 270q0 179 83 270t223 91
t222.5 -91t82.5 -270q0 -180 -82 -270t-223 -90zM920 150q88 0 88 194q0 195 -88 195q-89 0 -89 -195q0 -194 89 -194z" />
    <glyph glyph-name="ampersand" unicode="&#x26;" 
d="M453 -33q-219 0 -332 98t-113 279q0 147 68.5 248t224.5 199q-65 85 -99 156t-34 159q0 173 112.5 277t313.5 104q207 0 308.5 -92t101.5 -252q0 -127 -76.5 -226t-233.5 -194l172 -229q25 31 44.5 82t23.5 104l278 -35q-9 -111 -59.5 -217t-126.5 -188l178 -240h-330
l-57 74q-131 -107 -364 -107zM555 926q141 86 141 182q0 47 -28 75.5t-78 28.5q-53 0 -83 -29.5t-30 -76.5q0 -87 78 -180zM492 258q109 0 163 51l-202 275q-113 -78 -113 -185q0 -64 40.5 -102.5t111.5 -38.5z" />
    <glyph glyph-name="quotesingle" unicode="'" 
d="M508 766l-27 510v178h267v-178l-27 -510h-213z" />
    <glyph glyph-name="parenleft" unicode="(" 
d="M596 -225q-274 435 -274 880q0 446 274 881h313q-243 -440 -243 -881q0 -437 243 -880h-313z" />
    <glyph glyph-name="parenright" unicode=")" 
d="M633 -225h-314q244 444 244 880q0 440 -244 881h314q274 -435 274 -881q0 -445 -274 -880z" />
    <glyph glyph-name="asterisk" unicode="*" 
d="M500 739l-156 95l121 178l-215 -2v198l215 -2l-121 178l156 95l114 -191l117 191l156 -95l-123 -178l215 2v-198l-215 2l123 -178l-156 -95l-117 189z" />
    <glyph glyph-name="plus" unicode="+" 
d="M109 442v279h366v366h279v-366h366v-279h-366v-366h-279v366h-366z" />
    <glyph glyph-name="comma" unicode="," 
d="M481 -324l105 324h-144v328h344v-295l-141 -357h-164z" />
    <glyph glyph-name="hyphen" unicode="-" 
d="M270 457v282h688v-282h-688z" />
    <glyph glyph-name="period" unicode="." 
d="M442 0v328h344v-328h-344z" />
    <glyph glyph-name="slash" unicode="/" 
d="M162 -225l610 1761h295l-610 -1761h-295z" />
    <glyph glyph-name="zero" unicode="0" 
d="M614 -33q-248 0 -388 202.5t-140 555.5q0 355 140 558.5t388 203.5t388.5 -203.5t140.5 -558.5q0 -353 -140.5 -555.5t-388.5 -202.5zM424 725q0 -76 8 -178l303 577q-46 76 -121 76q-190 0 -190 -475zM614 254q191 0 191 471q0 94 -10 182l-301 -577q46 -76 120 -76z
" />
    <glyph glyph-name="one" unicode="1" 
d="M90 0v293h404v620h-349v273h148q128 0 183.5 61t55.5 207h291v-1161h316v-293h-1049z" />
    <glyph glyph-name="two" unicode="2" 
d="M86 0q0 114 15.5 204t51 171t95.5 149.5t146 131.5t206 124q110 57 157.5 109.5t47.5 142.5q0 79 -43 123.5t-125 44.5q-92 0 -139.5 -54.5t-65.5 -164.5l-342 18q22 231 163 359.5t392 128.5q244 0 371 -116.5t127 -317.5q0 -119 -38 -204.5t-117.5 -154.5t-225.5 -149
q-164 -90 -230.5 -147t-72.5 -105h684v-293h-1057z" />
    <glyph glyph-name="three" unicode="3" 
d="M606 -33q-249 0 -378.5 116.5t-141.5 326.5l332 14q16 -170 194 -170q88 0 140.5 46.5t52.5 137.5q0 93 -54.5 142t-158.5 49h-109v250h109q80 0 125 39.5t45 121.5q0 81 -42 122.5t-112 41.5q-153 0 -170 -149l-332 14q21 197 150 307.5t354 110.5q229 0 359.5 -105.5
t130.5 -294.5q0 -235 -232 -311q132 -37 203.5 -131.5t71.5 -232.5q0 -206 -143 -325.5t-394 -119.5z" />
    <glyph glyph-name="four" unicode="4" 
d="M678 0v283h-629v266l580 905h379v-891h172v-280h-172v-283h-330zM354 563h324v486z" />
    <glyph glyph-name="five" unicode="5" 
d="M614 -33q-229 0 -368.5 120t-155.5 306l338 19q14 -80 58.5 -119t127.5 -39q88 0 137.5 56.5t49.5 168.5q0 110 -51 171t-136 61q-59 0 -104.5 -33t-63.5 -82l-337 20l84 838h886v-293h-620l-33 -272q106 82 246 82q214 0 340.5 -137.5t126.5 -354.5q0 -230 -143.5 -371
t-381.5 -141z" />
    <glyph glyph-name="six" unicode="6" 
d="M618 -33q-269 0 -408.5 173t-139.5 493q0 148 21 274.5t67 234.5t115.5 184t170 118.5t226.5 42.5q391 0 481 -371l-332 -22q-29 106 -149 106q-213 0 -256 -307q112 90 274 90q214 0 342.5 -134t128.5 -353q0 -243 -146.5 -386t-394.5 -143zM610 260q211 0 211 223
q0 105 -51 164.5t-152 59.5q-100 0 -157.5 -62.5t-57.5 -165.5q0 -94 55 -156.5t152 -62.5z" />
    <glyph glyph-name="seven" unicode="7" 
d="M324 0q0 610 475 1161h-693v293h1016v-278q-247 -279 -349.5 -542t-102.5 -634h-346z" />
    <glyph glyph-name="eight" unicode="8" 
d="M614 -33q-255 0 -399.5 110.5t-144.5 317.5q0 142 77.5 242t214.5 143q-109 40 -172 118t-63 187q0 179 133 290.5t354 111.5t354.5 -111.5t133.5 -290.5q0 -109 -63 -187t-173 -118q138 -44 215.5 -143.5t77.5 -241.5q0 -207 -145 -317.5t-400 -110.5zM614 911
q69 0 109.5 37.5t40.5 110.5q0 67 -40.5 104t-109.5 37q-68 0 -108.5 -37t-40.5 -104q0 -73 40.5 -110.5t108.5 -37.5zM614 254q91 0 149 43t58 135q0 95 -55.5 149t-151.5 54t-151 -54t-55 -149q0 -92 57.5 -135t148.5 -43z" />
    <glyph glyph-name="nine" unicode="9" 
d="M610 1487q269 0 409 -173t140 -493q0 -148 -21 -274.5t-67 -234.5t-115.5 -184t-170 -118.5t-226.5 -42.5q-391 0 -481 371l332 22q29 -106 149 -106q213 0 256 307q-112 -90 -274 -90q-214 0 -342.5 134t-128.5 353q0 243 146 386t394 143zM618 1194q-210 0 -210 -223
q0 -105 50.5 -164t151.5 -59q100 0 157.5 62t57.5 165q0 94 -55 156.5t-152 62.5z" />
    <glyph glyph-name="colon" unicode=":" 
d="M442 735v328h344v-328h-344zM442 0v328h344v-328h-344z" />
    <glyph glyph-name="semicolon" unicode=";" 
d="M442 735v328h344v-328h-344zM481 -324l105 324h-144v328h344v-295l-141 -357h-164z" />
    <glyph glyph-name="less" unicode="&#x3c;" 
d="M1087 31l-946 399v338l946 399v-280l-681 -287l681 -287v-282z" />
    <glyph glyph-name="equal" unicode="=" 
d="M152 719v252h925v-252h-925zM152 219v252h925v-252h-925z" />
    <glyph glyph-name="greater" unicode="&#x3e;" 
d="M141 31v282l682 287l-682 287v280l946 -399v-338z" />
    <glyph glyph-name="question" unicode="?" 
d="M471 446q0 169 40 264t146 150q95 52 126.5 93t31.5 110q0 66 -43.5 107.5t-138.5 41.5q-102 0 -152.5 -48t-62.5 -152l-326 16q19 205 162 332t379 127q238 0 371 -115.5t133 -302.5q0 -128 -54.5 -207.5t-181.5 -152.5q-91 -53 -121 -107t-30 -156h-279zM444 0v328h344
v-328h-344z" />
    <glyph glyph-name="at" unicode="@" 
d="M891 -172q-192 -70 -334 -70q-115 0 -209.5 41.5t-168 127.5t-114 230t-40.5 337q0 226 51 409.5t140.5 303t210 183.5t261.5 64q243 0 379.5 -184t136.5 -496q0 -139 -17 -248.5t-52 -192t-94.5 -127t-139.5 -44.5q-62 0 -109.5 37t-70.5 104q-30 -64 -86.5 -101.5
t-116.5 -37.5q-108 0 -168.5 88.5t-60.5 259.5q0 229 79 372.5t216 143.5q101 0 147 -76l4 60h191q-45 -387 -45 -578q0 -102 53 -102q22 0 41 24.5t34.5 74.5t25 136.5t9.5 200.5q0 245 -89.5 387.5t-270.5 142.5q-219 0 -359.5 -211.5t-140.5 -586.5q0 -580 375 -580
q131 0 283 60zM582 330q49 0 82.5 103t33.5 282q0 155 -73 155q-48 0 -82.5 -99.5t-34.5 -254.5q0 -89 19.5 -137.5t54.5 -48.5z" />
    <glyph glyph-name="A" unicode="A" 
d="M33 0l385 1454h393l385 -1454h-330l-67 274h-369l-68 -274h-329zM614 1038l-116 -481h233z" />
    <glyph glyph-name="B" unicode="B" 
d="M125 0v1454h459q247 0 378.5 -97.5t131.5 -289.5q0 -263 -289 -315q179 -24 264.5 -117.5t85.5 -239.5q0 -395 -528 -395h-502zM455 874h125q86 0 131 39t45 111q0 68 -45.5 105.5t-130.5 37.5h-125v-293zM455 287l172 2q93 1 141.5 39.5t48.5 109.5q0 77 -49 118.5
t-141 41.5h-172v-311z" />
    <glyph glyph-name="C" unicode="C" 
d="M625 -33q-267 0 -415.5 202t-148.5 556q0 356 148.5 559t415.5 203q219 0 357 -145.5t173 -413.5l-334 -15q-19 138 -70 212.5t-126 74.5q-108 0 -167 -123.5t-59 -351.5q0 -226 59 -348.5t167 -122.5q75 0 128.5 79t71.5 224l334 -14q-35 -276 -174 -426t-360 -150z" />
    <glyph glyph-name="D" unicode="D" 
d="M125 0v1454h383q314 0 486.5 -189t172.5 -538t-172.5 -538t-486.5 -189h-383zM455 293h61q313 0 313 434t-313 434h-61v-868z" />
    <glyph glyph-name="E" unicode="E" 
d="M168 0v1454h917v-293h-587v-289h563v-286h-563v-293h604v-293h-934z" />
    <glyph glyph-name="F" unicode="F" 
d="M188 0v1454h934v-293h-604v-305h567v-287h-567v-569h-330z" />
    <glyph glyph-name="G" unicode="G" 
d="M621 -33q-256 0 -408 202t-152 556t150 558t412 204q219 0 354 -133t182 -393l-336 -19q-39 254 -198 254q-108 0 -167 -122t-59 -349q0 -226 64.5 -346.5t183.5 -120.5q93 0 144.5 66.5t54.5 191.5h-230v248h535v-764h-205l-6 145q-49 -81 -131.5 -129.5t-187.5 -48.5z
" />
    <glyph glyph-name="H" unicode="H" 
d="M90 0v1454h330v-575h389v575h330v-1454h-330v584h-389v-584h-330z" />
    <glyph glyph-name="I" unicode="I" 
d="M147 0v293h302v868h-302v293h934v-293h-301v-868h301v-293h-934z" />
    <glyph glyph-name="J" unicode="J" 
d="M567 -33q-235 0 -366.5 147.5t-134.5 415.5l331 17q4 -157 44 -225t126 -68t125 60.5t39 195.5v944h330v-944q0 -259 -129.5 -401t-364.5 -142z" />
    <glyph glyph-name="K" unicode="K" 
d="M90 0v1454h330v-547l348 547h391l-440 -631l444 -823h-354l-281 553l-108 -156v-397h-330z" />
    <glyph glyph-name="L" unicode="L" 
d="M188 0v1454h330v-1161h604v-293h-934z" />
    <glyph glyph-name="M" unicode="M" 
d="M524 213l-141 600v-813h-297v1454h348l180 -686l181 686h348v-1454h-297v813l-141 -600h-181z" />
    <glyph glyph-name="N" unicode="N" 
d="M127 0v1454h295l366 -836v836h314v-1454h-295l-367 836v-836h-313z" />
    <glyph glyph-name="O" unicode="O" 
d="M614 -33q-266 0 -409.5 196.5t-143.5 561.5t144 563.5t409 198.5t409 -198.5t144 -563.5t-143.5 -561.5t-409.5 -196.5zM614 254q108 0 161.5 112t53.5 359t-53.5 361t-161.5 114t-161.5 -114t-53.5 -361t53.5 -359t161.5 -112z" />
    <glyph glyph-name="P" unicode="P" 
d="M152 0v1454h479q225 0 368.5 -132.5t143.5 -342.5q0 -211 -143 -342t-369 -131h-150v-506h-329zM481 799h115q209 0 209 180q0 182 -209 182h-115v-362z" />
    <glyph glyph-name="Q" unicode="Q" 
d="M614 -33q-266 0 -409.5 196.5t-143.5 561.5t144 563.5t409 198.5t409 -198.5t144 -563.5q0 -490 -252 -670l93 -198h-224l-57 120q-58 -10 -113 -10zM399 725q0 -237 49.5 -350t149.5 -121l-104 225h223l55 -119q57 111 57 365q0 247 -53.5 361t-161.5 114t-161.5 -114
t-53.5 -361z" />
    <glyph glyph-name="R" unicode="R" 
d="M121 0v1454h477q237 0 370.5 -117t133.5 -321q0 -130 -67.5 -222t-180.5 -128q114 -19 171.5 -83.5t68.5 -181.5l32 -401h-333l-23 305q-5 65 -17 104.5t-38 61.5t-61 29.5t-93 7.5h-110v-508h-330zM451 803h135q86 0 131 46t45 134q0 85 -45 131.5t-131 46.5h-135v-358z
" />
    <glyph glyph-name="S" unicode="S" 
d="M623 -33q-250 0 -385.5 138.5t-153.5 396.5l330 14q37 -262 227 -262q80 0 126 36t46 103q0 79 -61 130.5t-213 88.5q-112 27 -188.5 61t-132 83.5t-81.5 118t-26 161.5q0 210 132 330.5t373 120.5q236 0 369 -127t148 -369l-334 -14q-14 108 -64.5 165.5t-134.5 57.5
q-72 0 -115 -39.5t-43 -105.5q0 -73 59.5 -116t217.5 -81q233 -57 329.5 -164.5t96.5 -283.5q0 -206 -137.5 -324.5t-384.5 -118.5z" />
    <glyph glyph-name="T" unicode="T" 
d="M449 0v1161h-367v293h1065v-293h-367v-1161h-331z" />
    <glyph glyph-name="U" unicode="U" 
d="M614 -33q-245 0 -376.5 136.5t-131.5 398.5v954h330v-987q0 -103 46 -159t132 -56t132.5 56t46.5 159v987h329v-954q0 -262 -131.5 -398.5t-376.5 -136.5z" />
    <glyph glyph-name="V" unicode="V" 
d="M455 0l-420 1454h350l229 -893l230 893h350l-420 -1454h-319z" />
    <glyph glyph-name="W" unicode="W" 
d="M193 0l-148 1454h305l66 -913l106 749h185l106 -749l66 913h305l-148 -1454h-321l-101 659l-100 -659h-321z" />
    <glyph glyph-name="X" unicode="X" 
d="M59 0l330 733l-323 721h358l194 -483l195 483h350l-323 -725l329 -729h-358l-201 496l-198 -496h-353z" />
    <glyph glyph-name="Y" unicode="Y" 
d="M451 0v610l-396 844h353l206 -504l207 504h353l-394 -844v-610h-329z" />
    <glyph glyph-name="Z" unicode="Z" 
d="M86 0v291l651 870h-614v293h1003v-291l-641 -870h658v-293h-1057z" />
    <glyph glyph-name="bracketleft" unicode="[" 
d="M946 -225h-663v1761h663v-274h-328v-1213h328v-274z" />
    <glyph glyph-name="backslash" unicode="\" 
d="M1067 -225h-295l-610 1761h295z" />
    <glyph glyph-name="bracketright" unicode="]" 
d="M283 -225v274h327v1213h-327v274h663v-1761h-663z" />
    <glyph glyph-name="asciicircum" unicode="^" 
d="M213 784l246 594h313l246 -594h-240l-164 383l-159 -383h-242z" />
    <glyph glyph-name="underscore" unicode="_" 
d="M131 -279v279h967v-279h-967z" />
    <glyph glyph-name="grave" unicode="`" 
d="M569 1212l-184 316h334l125 -316h-275z" />
    <glyph glyph-name="a" unicode="a" 
d="M455 -25q-157 0 -262 85t-105 231q0 252 330 327l319 70q0 97 -36 147t-119 50q-71 0 -111.5 -37.5t-50.5 -97.5l-322 16q31 164 158.5 262t316.5 98q478 0 478 -458v-365q0 -76 55 -76h37v-227q-40 -10 -103 -10q-106 0 -173 46.5t-91 131.5q-33 -88 -116.5 -140.5
t-204.5 -52.5zM524 203q101 0 157 56t56 161v55l-213 -49q-62 -13 -88 -41.5t-26 -81.5q0 -48 29 -74t85 -26z" />
    <glyph glyph-name="b" unicode="b" 
d="M752 -25q-115 0 -196.5 54.5t-125.5 146.5l-8 -176h-303v1454h313v-508q41 83 124.5 131.5t195.5 48.5q197 0 312.5 -151t115.5 -424t-116 -424.5t-312 -151.5zM649 248q207 0 207 303t-207 303q-99 0 -158 -78.5t-59 -224.5q0 -145 59 -224t158 -79z" />
    <glyph glyph-name="c" unicode="c" 
d="M631 -25q-239 0 -390 160.5t-151 415.5t151 415t390 160q200 0 342 -120t168 -316l-310 -14q-19 86 -70 132t-128 46q-102 0 -159.5 -80.5t-57.5 -222.5t57.5 -222.5t159.5 -80.5q78 0 130 48t71 138l309 -16q-26 -198 -168.5 -320.5t-343.5 -122.5z" />
    <glyph glyph-name="d" unicode="d" 
d="M477 -25q-196 0 -312 151.5t-116 424.5t115.5 424t312.5 151q112 0 195.5 -48.5t124.5 -131.5v508h313v-1454h-303l-8 176q-44 -92 -125.5 -146.5t-196.5 -54.5zM580 248q99 0 158 79t59 224q0 146 -59 224.5t-158 78.5q-207 0 -207 -303t207 -303z" />
    <glyph glyph-name="e" unicode="e" 
d="M618 -25q-234 0 -381 158t-147 418q0 255 146.5 415t379.5 160t380 -160.5t147 -420.5v-76h-733q10 -105 68 -163t149 -58q66 0 114 31.5t68 87.5l309 -23q-122 -369 -500 -369zM416 670h391q-9 90 -60 137t-135 47t-135 -47.5t-61 -136.5z" />
    <glyph glyph-name="f" unicode="f" 
d="M397 0v858h-270v244h270v16q0 173 81.5 254.5t254.5 81.5h369v-244h-283q-57 0 -82.5 -23t-25.5 -71v-14h387v-244h-387v-858h-314z" />
    <glyph glyph-name="g" unicode="g" 
d="M606 -332q-204 0 -328.5 83.5t-160.5 232.5l327 18q29 -88 162 -88q106 0 160.5 50t54.5 145v110q-83 -162 -299 -162q-195 0 -321.5 146.5t-126.5 376.5q0 250 122.5 398t321.5 148q217 0 305 -190l6 166h306v-950q0 -238 -141.5 -361t-387.5 -123zM612 299
q96 0 152.5 73t56.5 216q1 142 -56 217.5t-153 75.5q-104 0 -159.5 -74t-55.5 -219t56 -217t159 -72z" />
    <glyph glyph-name="h" unicode="h" 
d="M145 0v1454h314v-502q85 174 307 174q163 0 244.5 -109t81.5 -306v-711h-314v651q0 213 -141 213q-79 0 -128.5 -61t-49.5 -176v-627h-314z" />
    <glyph glyph-name="i" unicode="i" 
d="M524 1225v256h316v-256h-316zM131 0v244h399v614h-378v244h690v-858h338v-244h-1049z" />
    <glyph glyph-name="j" unicode="j" 
d="M666 1225v256h313v-256h-313zM193 -307v244h294q93 0 137 43t44 137v741h-469v244h780v-993q0 -203 -118 -309.5t-343 -106.5h-325z" />
    <glyph glyph-name="k" unicode="k" 
d="M102 0v1454h314v-797l381 445h362l-411 -473l430 -629h-355l-280 430l-127 -141v-289h-314z" />
    <glyph glyph-name="l" unicode="l" 
d="M90 0v244h395v843q0 60 -31.5 91.5t-91.5 31.5h-231v244h295q373 0 373 -373v-837h340v-244h-1049z" />
    <glyph glyph-name="m" unicode="m" 
d="M49 0v1102h250l6 -166q63 190 209 190q84 0 129.5 -47t67.5 -149q32 97 93.5 146.5t145.5 49.5q117 0 173.5 -86.5t56.5 -263.5v-776h-291v709q0 92 -14 123.5t-48 31.5q-82 0 -82 -155v-709h-262v709q0 87 -15 121t-50 34q-78 0 -78 -155v-709h-291z" />
    <glyph glyph-name="n" unicode="n" 
d="M139 0v1102h285l6 -197q83 221 328 221q167 0 249.5 -109.5t82.5 -301.5v-715h-314v647q0 113 -35.5 165t-109.5 52q-75 0 -126.5 -61t-51.5 -172v-631h-314z" />
    <glyph glyph-name="o" unicode="o" 
d="M614 -25q-237 0 -382.5 157.5t-145.5 418.5t145.5 418t382.5 157q238 0 383.5 -157t145.5 -418t-146 -418.5t-383 -157.5zM614 248q99 0 152 77.5t53 225.5t-53 225.5t-152 77.5t-151.5 -77.5t-52.5 -225.5t52.5 -225.5t151.5 -77.5z" />
    <glyph glyph-name="p" unicode="p" 
d="M98 -307v1409h303l9 -182q94 206 325 206q136 0 233 -75.5t144 -204t47 -295.5t-47 -295.5t-144 -204.5t-233 -76q-222 0 -323 179v-461h-314zM627 248q209 0 209 303t-209 303q-97 0 -156 -75.5t-59 -227.5t59 -227.5t156 -75.5z" />
    <glyph glyph-name="q" unicode="q" 
d="M1130 -307h-313v461q-101 -179 -323 -179q-136 0 -233 76t-144 204.5t-47 295.5t47 295.5t144 204t233 75.5q231 0 325 -206l8 182h303v-1409zM602 248q97 0 156 75.5t59 227.5t-59 227.5t-156 75.5q-209 0 -209 -303t209 -303z" />
    <glyph glyph-name="r" unicode="r" 
d="M135 0v244h256v614h-256v244h481l17 -213q27 108 91.5 160.5t176.5 52.5h254v-250h-227q-115 0 -169 -56.5t-54 -172.5v-379h331v-244h-901z" />
    <glyph glyph-name="s" unicode="s" 
d="M623 -25q-120 0 -214 29t-154 80t-93 117t-41 145l305 10q20 -61 66 -93t133 -32q86 0 123.5 18t37.5 56q0 40 -34.5 61t-153.5 46q-257 56 -356 133.5t-99 230.5q0 151 119.5 250.5t343.5 99.5q101 0 183 -21t136.5 -56t93 -84.5t58.5 -101.5t27 -111l-309 -13
q-11 61 -60.5 96t-126.5 35q-72 0 -108.5 -28t-36.5 -66q0 -50 47.5 -76t194.5 -57q233 -51 318 -121t85 -211q0 -159 -125 -247.5t-360 -88.5z" />
    <glyph glyph-name="t" unicode="t" 
d="M762 0q-194 0 -284.5 87t-90.5 271v500h-301v244h301v258h313v-258h398v-244h-398v-465q0 -149 150 -149h248v-244h-336z" />
    <glyph glyph-name="u" unicode="u" 
d="M469 -25q-156 0 -242 102.5t-86 297.5v727h314v-647q0 -116 35.5 -166.5t107.5 -50.5q74 0 124 59.5t50 169.5v635h313v-1102h-286l-6 195q-40 -106 -123.5 -163t-200.5 -57z" />
    <glyph glyph-name="v" unicode="v" 
d="M426 0l-363 1102h330l221 -756l222 756h329l-362 -1102h-377z" />
    <glyph glyph-name="w" unicode="w" 
d="M221 0l-196 1102h307l86 -653l98 491h197l98 -491l86 653h307l-196 -1102h-287l-107 494l-106 -494h-287z" />
    <glyph glyph-name="x" unicode="x" 
d="M55 0l387 563l-370 539h336l206 -324l205 324h336l-364 -539l383 -563h-334l-226 352l-223 -352h-336z" />
    <glyph glyph-name="y" unicode="y" 
d="M221 -307v244h156q54 0 83 16t44 57l26 76h-96l-379 1016h322l250 -715l225 715h324l-416 -1186q-41 -119 -127 -171t-223 -52h-189z" />
    <glyph glyph-name="z" unicode="z" 
d="M131 0v260l582 598h-561v244h925v-260l-579 -598h600v-244h-967z" />
    <glyph glyph-name="braceleft" unicode="{" 
d="M852 -264q-203 0 -317.5 111t-114.5 290v170q0 122 -39.5 165.5t-136.5 43.5v264q97 0 136.5 43.5t39.5 167.5v170q0 179 114.5 288.5t317.5 109.5h133v-299q-117 4 -173 -36t-56 -128v-127q0 -135 -69.5 -218.5t-168.5 -93.5v-16q102 -9 170 -92t68 -219v-129
q0 -183 229 -174v-291h-133z" />
    <glyph glyph-name="bar" unicode="|" 
d="M467 -225v1761h295v-1761h-295z" />
    <glyph glyph-name="braceright" unicode="}" 
d="M377 -264h-133v291q229 -9 229 174v129q0 136 68 219t170 92v16q-99 10 -168.5 93.5t-69.5 218.5v127q0 88 -56 128t-173 36v299h133q203 0 317.5 -109.5t114.5 -288.5v-170q0 -124 39.5 -167.5t136.5 -43.5v-264q-97 0 -136.5 -43.5t-39.5 -165.5v-170
q0 -179 -114.5 -290t-317.5 -111z" />
    <glyph glyph-name="asciitilde" unicode="~" 
d="M778 494q-114 0 -194 86q-50 50 -67 61.5t-42 11.5q-74 0 -74 -151h-239q0 172 78 270t215 98q60 0 106.5 -22t93.5 -70q38 -41 58 -54t45 -13q73 0 73 151h238q0 -173 -78 -270.5t-213 -97.5z" />
    <glyph glyph-name="uni00A0" unicode="&#xa0;" 
 />
    <glyph glyph-name="exclamdown" unicode="&#xa1;" 
d="M442 1122h344v-327h-344v327zM506 643h219q15 -103 28 -254.5t13 -265.5v-455h-303v455q0 116 13.5 268.5t29.5 251.5z" />
    <glyph glyph-name="cent" unicode="&#xa2;" 
d="M483 -25l15 187q-186 42 -298 193t-112 368q0 247 140.5 405t367.5 170l16 187h160l-18 -199q156 -36 260 -148t125 -274l-310 -16q-23 108 -100 153l-49 -575q121 28 151 180l310 -14q-25 -191 -158.5 -312t-325.5 -130l-14 -175h-160zM414 723q0 -199 108 -272l49 569
q-75 -23 -116 -100t-41 -197z" />
    <glyph glyph-name="sterling" unicode="&#xa3;" 
d="M53 0v250q117 53 178.5 134t61.5 177q0 30 -8 70h-234v172h197q-66 173 -66 266q0 182 131.5 300t345.5 118q227 0 358 -109.5t161 -308.5l-363 -14q-10 67 -51 104t-102 37q-67 0 -110.5 -44.5t-43.5 -111.5q0 -35 11 -72t33 -90t30 -75h297v-172h-279q-6 -117 -55 -204
t-139 -130h747v-293z" />
    <glyph glyph-name="currency" unicode="&#xa4;" 
d="M168 205l-121 119l186 186q-79 115 -79 260q0 143 82 262l-189 187l121 120l186 -188q119 82 260 82t263 -82l186 188l119 -120l-187 -187q80 -116 80 -262q0 -144 -80 -260l187 -186l-119 -119l-186 186q-119 -82 -263 -82t-260 80zM614 545q91 0 159.5 66.5t68.5 158.5
q0 93 -68 160t-160 67q-93 0 -160 -67t-67 -160q0 -92 67.5 -158.5t159.5 -66.5z" />
    <glyph glyph-name="yen" unicode="&#xa5;" 
d="M115 240v186h336v133h-336v184h272l-332 711h353l206 -504l207 504h353l-332 -711h274v-184h-336v-133h336v-186h-336v-240h-329v240h-336z" />
    <glyph glyph-name="brokenbar" unicode="&#xa6;" 
d="M467 809v727h295v-727h-295zM467 -225v727h295v-727h-295z" />
    <glyph glyph-name="section" unicode="&#xa7;" 
d="M643 -135q-240 0 -385 100.5t-160 274.5l336 16q12 -73 62.5 -113.5t134.5 -40.5q72 0 112.5 28.5t40.5 74.5q0 47 -61 80t-213 63q-205 41 -297.5 124t-83.5 220q6 148 156 223q-84 44 -122 99.5t-38 128.5q0 163 134 253.5t368 90.5q206 0 341 -99.5t162 -277.5
l-331 -12q-10 72 -59.5 113.5t-123.5 41.5q-66 0 -105.5 -30t-39.5 -80q0 -49 42 -76t138 -47q114 -20 196.5 -47.5t147 -68.5t97 -100.5t32.5 -137.5q0 -157 -157 -228q85 -42 123 -99t38 -140q0 -158 -131 -246t-354 -88zM641 551q77 0 124.5 33t47.5 88q0 64 -63.5 98.5
t-143.5 34.5q-73 0 -119.5 -33t-46.5 -86q0 -57 51 -94t150 -41z" />
    <glyph glyph-name="dieresis" unicode="&#xa8;" 
d="M242 1219v256h315v-256h-315zM672 1219v256h315v-256h-315z" />
    <glyph glyph-name="copyright" unicode="&#xa9;" 
d="M612 -25q-275 0 -441.5 206.5t-166.5 549.5t166.5 549.5t441.5 206.5q276 0 444.5 -207t168.5 -549t-168.5 -549t-444.5 -207zM612 139q203 0 321 157.5t118 434.5t-118 434.5t-321 157.5t-318.5 -157t-115.5 -435t115.5 -435t318.5 -157zM618 328q-153 0 -252.5 109.5
t-99.5 291.5q0 183 100 295.5t252 112.5q136 0 233 -82.5t112 -216.5l-242 -11q-5 56 -28.5 90.5t-57.5 34.5q-53 0 -81 -60.5t-28 -162.5q0 -101 28 -158t81 -57q36 0 61 38.5t31 100.5l242 -10q-19 -142 -115 -228.5t-236 -86.5z" />
    <glyph glyph-name="ordfeminine" unicode="&#xaa;" 
d="M463 770q-121 0 -191.5 49t-70.5 137q0 90 60.5 139.5t187.5 75.5l208 43q0 55 -24.5 85t-67.5 30q-87 0 -102 -86l-250 8q20 121 107 178.5t245 57.5q175 0 258.5 -72.5t83.5 -218.5v-211q0 -30 10 -40.5t31 -10.5h19v-154q-27 -10 -105 -10q-135 0 -160 121
q-57 -121 -239 -121zM526 920q58 0 94.5 34.5t36.5 98.5v28l-120 -28q-78 -20 -78 -74q0 -59 67 -59z" />
    <glyph glyph-name="guillemotleft" unicode="&#xab;" 
d="M694 156h-301l-315 372v74l315 373h301l-348 -410zM1151 156h-301l-315 372v74l315 373h301l-348 -410z" />
    <glyph glyph-name="logicalnot" unicode="&#xac;" 
d="M834 135v324h-666v227h893v-551h-227z" />
    <glyph glyph-name="registered" unicode="&#xae;" 
d="M614 315q-159 0 -294 78.5t-213 214t-78 295.5q0 158 78 292.5t213 213t294 78.5t294 -78.5t213.5 -213t78.5 -292.5q0 -160 -78.5 -295.5t-213.5 -214t-294 -78.5zM614 446q194 0 319.5 133t125.5 324q0 125 -55.5 228t-158 164t-231.5 61q-192 0 -318 -131.5
t-126 -321.5q0 -124 56 -228.5t158.5 -166.5t229.5 -62zM369 600v612h260q116 0 190 -54.5t74 -143.5q0 -59 -30.5 -106t-86.5 -70l125 -238h-203l-96 211h-47v-211h-186zM553 944h51q96 0 96 64q0 63 -96 63h-51v-127z" />
    <glyph glyph-name="macron" unicode="&#xaf;" 
d="M313 1235v227h602v-227h-602z" />
    <glyph glyph-name="degree" unicode="&#xb0;" 
d="M614 735q-155 0 -265.5 109t-110.5 266t110.5 267t265.5 110t266 -110t111 -267q0 -158 -111 -266.5t-266 -108.5zM614 969q61 0 102.5 39.5t41.5 101.5t-41.5 102.5t-102.5 40.5q-58 0 -100.5 -41.5t-42.5 -101.5t42.5 -100.5t100.5 -40.5z" />
    <glyph glyph-name="plusminus" unicode="&#xb1;" 
d="M475 326v319h-346v264h346v322h279v-322h346v-264h-346v-319h-279zM129 0v240h971v-240h-971z" />
    <glyph glyph-name="uni00B2" unicode="&#xb2;" 
d="M322 662q0 122 19 194t65.5 121t136.5 94l90 45q48 24 65 44.5t17 58.5q0 37 -23 60.5t-67 23.5q-49 0 -76.5 -25t-34.5 -84l-201 12q12 129 92.5 196.5t217.5 67.5q148 0 220 -66t72 -179q0 -91 -43 -147.5t-139 -104.5l-92 -45q-88 -43 -88 -78h340v-188h-571z" />
    <glyph glyph-name="uni00B3" unicode="&#xb3;" 
d="M608 645q-161 0 -229.5 56t-77.5 182l217 8q3 -37 26 -57.5t64 -20.5q44 0 69 22.5t25 65.5q0 40 -28 64t-74 24h-57v148h57q35 0 56.5 21t21.5 56q0 42 -20 65.5t-56 23.5q-71 0 -80 -82l-215 10q24 239 293 239q151 0 224 -56t73 -154q0 -148 -156 -185
q187 -34 187 -188q0 -109 -81.5 -175.5t-238.5 -66.5z" />
    <glyph glyph-name="acute" unicode="&#xb4;" 
d="M385 1212l125 316h334l-185 -316h-274z" />
    <glyph glyph-name="uni00B5" unicode="&#xb5;" 
d="M127 -307v1409h313v-598q0 -258 164 -258q87 0 135.5 68t48.5 190v598h314v-1102h-297v135q-29 -76 -82.5 -118t-118.5 -42q-58 0 -101 30.5t-63 88.5v-401h-313z" />
    <glyph glyph-name="paragraph" unicode="&#xb6;" 
d="M422 0v633q-149 0 -252.5 114.5t-103.5 296.5q0 180 104.5 295t253.5 115h682v-1454h-279v1194h-127v-1194h-278z" />
    <glyph glyph-name="periodcentered" unicode="&#xb7;" 
d="M442 453v329h344v-329h-344z" />
    <glyph glyph-name="cedilla" unicode="&#xb8;" 
d="M629 -483q-102 0 -172 46.5t-99 125.5l146 65q31 -78 117 -78q43 0 68.5 19.5t25.5 54.5q0 37 -27.5 56.5t-97.5 19.5l-92 84l63 110h191l-52 -81q98 -10 147.5 -64t49.5 -133q0 -112 -75.5 -168.5t-192.5 -56.5z" />
    <glyph glyph-name="uni00B9" unicode="&#xb9;" 
d="M610 662v434h-215v168h58q94 0 144 50.5t50 139.5h187v-792h-224z" />
    <glyph glyph-name="ordmasculine" unicode="&#xba;" 
d="M614 770q-178 0 -281.5 97t-103.5 261q0 163 103.5 261t281.5 98t281.5 -98t103.5 -261q0 -164 -103.5 -261t-281.5 -97zM614 944q123 0 123 184q0 185 -123 185q-122 0 -122 -185q0 -184 122 -184z" />
    <glyph glyph-name="guillemotright" unicode="&#xbb;" 
d="M535 156l348 409l-348 410h301l315 -373v-74l-315 -372h-301zM78 156l348 409l-348 410h301l315 -373v-74l-315 -372h-301z" />
    <glyph glyph-name="onequarter" unicode="&#xbc;" 
d="M258 662v434h-217v168h59q94 0 144.5 50.5t50.5 139.5h186v-792h-223zM668 930l262 524h213l-260 -524h-215zM870 0v147h-374v158l348 488h250v-476h98v-170h-98v-147h-224zM700 317h170v220zM45 0l262 522h215l-262 -522h-215z" />
    <glyph glyph-name="onehalf" unicode="&#xbd;" 
d="M270 662v434h-215v168h60q94 0 143 50.5t49 139.5h189v-792h-226zM668 930l262 524h213l-260 -524h-215zM580 0q0 179 44.5 261.5t176.5 148.5l90 45q48 24 65 44t17 58q0 37 -23 60.5t-67 23.5q-49 0 -76.5 -25t-34.5 -84l-201 13q12 129 92.5 196.5t217.5 67.5
q148 0 220.5 -66.5t72.5 -179.5q0 -91 -43.5 -147.5t-139.5 -104.5l-92 -45q-88 -43 -88 -78h340v-188h-571zM45 0l262 522h215l-262 -522h-215z" />
    <glyph glyph-name="threequarters" unicode="&#xbe;" 
d="M324 645q-161 0 -230 56t-78 182l217 8q3 -37 26.5 -57.5t64.5 -20.5q44 0 69 22.5t25 65.5q0 40 -28.5 64t-74.5 24h-57v148h57q35 0 56.5 21t21.5 56q0 42 -20 65.5t-56 23.5q-70 0 -79 -82l-215 10q24 239 292 239q151 0 224 -56t73 -154q0 -148 -155 -185
q186 -34 186 -188q0 -109 -81 -175.5t-238 -66.5zM702 930l261 524h215l-263 -524h-213zM891 0v147h-375v158l348 488h250v-476h98v-170h-98v-147h-223zM721 317h170v220zM80 0l262 522h213l-262 -522h-213z" />
    <glyph glyph-name="questiondown" unicode="&#xbf;" 
d="M784 1126v-327h-344v327h344zM596 -332q-239 0 -371.5 113t-132.5 299q0 130 54.5 209.5t181.5 152.5q89 52 120 97t31 112h279q0 -144 -40 -224.5t-147 -137.5q-95 -50 -126 -91.5t-31 -111.5q0 -65 43.5 -104t138.5 -39q102 0 152.5 48t62.5 152l326 -16
q-19 -205 -162 -332t-379 -127z" />
    <glyph glyph-name="Agrave" unicode="&#xc0;" 
d="M487 1565l-184 315h334l125 -315h-275zM33 0l385 1454h393l385 -1454h-330l-67 274h-369l-68 -274h-329zM614 1038l-116 -481h233z" />
    <glyph glyph-name="Aacute" unicode="&#xc1;" 
d="M475 1565l127 315h332l-184 -315h-275zM33 0l385 1454h393l385 -1454h-330l-67 274h-369l-68 -274h-329zM614 1038l-116 -481h233z" />
    <glyph glyph-name="Acircumflex" unicode="&#xc2;" 
d="M279 1559l200 327h269l202 -327h-223l-113 176l-114 -176h-221zM33 0l385 1454h393l385 -1454h-330l-67 274h-369l-68 -274h-329zM614 1038l-116 -481h233z" />
    <glyph glyph-name="Atilde" unicode="&#xc3;" 
d="M741 1575q-77 0 -157 61q-49 41 -90 41q-69 0 -74 -114h-150q6 301 211 301q83 0 168 -66q48 -37 86 -37q33 0 51.5 27t22.5 92h149q-4 -158 -58.5 -231.5t-158.5 -73.5zM33 0l385 1454h393l385 -1454h-330l-67 274h-369l-68 -274h-329zM614 1038l-116 -481h233z" />
    <glyph glyph-name="Adieresis" unicode="&#xc4;" 
d="M242 1571v256h315v-256h-315zM672 1571v256h315v-256h-315zM33 0l385 1454h393l385 -1454h-330l-67 274h-369l-68 -274h-329zM614 1038l-116 -481h233z" />
    <glyph glyph-name="Aring" unicode="&#xc5;" 
d="M612 1528q-94 0 -157.5 61.5t-63.5 153.5t63.5 153.5t157.5 61.5q95 0 158.5 -61.5t63.5 -153.5t-63.5 -153.5t-158.5 -61.5zM612 1661q37 0 58.5 22.5t21.5 59.5t-22 60.5t-58 23.5t-58 -23.5t-22 -60.5t21.5 -59.5t58.5 -22.5zM33 0l385 1454h393l385 -1454h-330
l-67 274h-369l-68 -274h-329zM614 1038l-116 -481h233z" />
    <glyph glyph-name="AE" unicode="&#xc6;" 
d="M10 0l328 1454h854v-293h-256v-289h240v-286h-240v-293h268v-293h-579v276h-213l-60 -276h-342zM602 1165l-131 -608h154v608h-23z" />
    <glyph glyph-name="Ccedilla" unicode="&#xc7;" 
d="M635 -483q-101 0 -171 46.5t-99 125.5l145 65q31 -78 117 -78q43 0 68.5 19.5t25.5 54.5q0 37 -27.5 56.5t-97.5 19.5l-92 84l35 63q-228 32 -353 230t-125 522q0 356 148.5 559t415.5 203q219 0 357 -145.5t173 -413.5l-334 -15q-19 138 -70 212.5t-126 74.5
q-108 0 -167 -123.5t-59 -351.5q0 -226 59 -348.5t167 -122.5q75 0 128.5 79t71.5 224l334 -14q-31 -240 -141.5 -386t-286.5 -180l-24 -38q98 -10 147 -63.5t49 -133.5q0 -112 -75.5 -168.5t-192.5 -56.5z" />
    <glyph glyph-name="Egrave" unicode="&#xc8;" 
d="M508 1567l-184 315h333l125 -315h-274zM168 0v1454h917v-293h-587v-289h563v-286h-563v-293h604v-293h-934z" />
    <glyph glyph-name="Eacute" unicode="&#xc9;" 
d="M496 1567l127 315h331l-184 -315h-274zM168 0v1454h917v-293h-587v-289h563v-286h-563v-293h604v-293h-934z" />
    <glyph glyph-name="Ecircumflex" unicode="&#xca;" 
d="M299 1561l201 327h268l203 -327h-223l-113 176l-115 -176h-221zM168 0v1454h917v-293h-587v-289h563v-286h-563v-293h604v-293h-934z" />
    <glyph glyph-name="Edieresis" unicode="&#xcb;" 
d="M262 1573v256h316v-256h-316zM692 1573v256h316v-256h-316zM168 0v1454h917v-293h-587v-289h563v-286h-563v-293h604v-293h-934z" />
    <glyph glyph-name="Igrave" unicode="&#xcc;" 
d="M487 1565l-184 315h334l125 -315h-275zM147 0v293h302v868h-302v293h934v-293h-301v-868h301v-293h-934z" />
    <glyph glyph-name="Iacute" unicode="&#xcd;" 
d="M475 1565l127 315h332l-184 -315h-275zM147 0v293h302v868h-302v293h934v-293h-301v-868h301v-293h-934z" />
    <glyph glyph-name="Icircumflex" unicode="&#xce;" 
d="M279 1559l200 327h269l202 -327h-223l-113 176l-114 -176h-221zM147 0v293h302v868h-302v293h934v-293h-301v-868h301v-293h-934z" />
    <glyph glyph-name="Idieresis" unicode="&#xcf;" 
d="M242 1571v256h315v-256h-315zM672 1571v256h315v-256h-315zM147 0v293h302v868h-302v293h934v-293h-301v-868h301v-293h-934z" />
    <glyph glyph-name="Eth" unicode="&#xd0;" 
d="M125 0v596h-117v262h117v596h383q314 0 486.5 -189t172.5 -538t-172.5 -538t-486.5 -189h-383zM455 293h61q313 0 313 434t-313 434h-61v-303h274v-262h-274v-303z" />
    <glyph glyph-name="Ntilde" unicode="&#xd1;" 
d="M741 1575q-77 0 -157 61q-49 41 -90 41q-69 0 -74 -114h-150q6 301 211 301q83 0 168 -66q48 -37 86 -37q33 0 51.5 27t22.5 92h149q-4 -158 -58.5 -231.5t-158.5 -73.5zM127 0v1454h295l366 -836v836h314v-1454h-295l-367 836v-836h-313z" />
    <glyph glyph-name="Ograve" unicode="&#xd2;" 
d="M487 1565l-184 315h334l125 -315h-275zM614 -33q-266 0 -409.5 196.5t-143.5 561.5t144 563.5t409 198.5t409 -198.5t144 -563.5t-143.5 -561.5t-409.5 -196.5zM614 254q108 0 161.5 112t53.5 359t-53.5 361t-161.5 114t-161.5 -114t-53.5 -361t53.5 -359t161.5 -112z
" />
    <glyph glyph-name="Oacute" unicode="&#xd3;" 
d="M475 1565l127 315h332l-184 -315h-275zM614 -33q-266 0 -409.5 196.5t-143.5 561.5t144 563.5t409 198.5t409 -198.5t144 -563.5t-143.5 -561.5t-409.5 -196.5zM614 254q108 0 161.5 112t53.5 359t-53.5 361t-161.5 114t-161.5 -114t-53.5 -361t53.5 -359t161.5 -112z
" />
    <glyph glyph-name="Ocircumflex" unicode="&#xd4;" 
d="M279 1559l200 327h269l202 -327h-223l-113 176l-114 -176h-221zM614 -33q-266 0 -409.5 196.5t-143.5 561.5t144 563.5t409 198.5t409 -198.5t144 -563.5t-143.5 -561.5t-409.5 -196.5zM614 254q108 0 161.5 112t53.5 359t-53.5 361t-161.5 114t-161.5 -114t-53.5 -361
t53.5 -359t161.5 -112z" />
    <glyph glyph-name="Otilde" unicode="&#xd5;" 
d="M741 1575q-77 0 -157 61q-49 41 -90 41q-69 0 -74 -114h-150q6 301 211 301q83 0 168 -66q48 -37 86 -37q33 0 51.5 27t22.5 92h149q-4 -158 -58.5 -231.5t-158.5 -73.5zM614 -33q-266 0 -409.5 196.5t-143.5 561.5t144 563.5t409 198.5t409 -198.5t144 -563.5
t-143.5 -561.5t-409.5 -196.5zM614 254q108 0 161.5 112t53.5 359t-53.5 361t-161.5 114t-161.5 -114t-53.5 -361t53.5 -359t161.5 -112z" />
    <glyph glyph-name="Odieresis" unicode="&#xd6;" 
d="M242 1571v256h315v-256h-315zM672 1571v256h315v-256h-315zM614 -33q-266 0 -409.5 196.5t-143.5 561.5t144 563.5t409 198.5t409 -198.5t144 -563.5t-143.5 -561.5t-409.5 -196.5zM614 254q108 0 161.5 112t53.5 359t-53.5 361t-161.5 114t-161.5 -114t-53.5 -361
t53.5 -359t161.5 -112z" />
    <glyph glyph-name="multiply" unicode="&#xd7;" 
d="M129 293l289 289l-289 288l197 195l288 -287l289 287l197 -195l-289 -288l289 -289l-197 -197l-289 289l-288 -289z" />
    <glyph glyph-name="Oslash" unicode="&#xd8;" 
d="M49 -33l133 230q-121 192 -121 528q0 365 144 563.5t409 198.5q158 0 277 -72l41 72h248l-133 -232q120 -195 120 -530q0 -365 -143.5 -561.5t-409.5 -196.5q-157 0 -276 72l-41 -72h-248zM399 725q0 -70 7 -145l329 569q-48 51 -121 51q-108 0 -161.5 -114t-53.5 -361z
M614 254q108 0 161.5 112t53.5 359q0 82 -6 149l-329 -569q45 -51 120 -51z" />
    <glyph glyph-name="Ugrave" unicode="&#xd9;" 
d="M487 1565l-184 315h334l125 -315h-275zM614 -33q-245 0 -376.5 136.5t-131.5 398.5v954h330v-987q0 -103 46 -159t132 -56t132.5 56t46.5 159v987h329v-954q0 -262 -131.5 -398.5t-376.5 -136.5z" />
    <glyph glyph-name="Uacute" unicode="&#xda;" 
d="M475 1565l127 315h332l-184 -315h-275zM614 -33q-245 0 -376.5 136.5t-131.5 398.5v954h330v-987q0 -103 46 -159t132 -56t132.5 56t46.5 159v987h329v-954q0 -262 -131.5 -398.5t-376.5 -136.5z" />
    <glyph glyph-name="Ucircumflex" unicode="&#xdb;" 
d="M279 1559l200 327h269l202 -327h-223l-113 176l-114 -176h-221zM614 -33q-245 0 -376.5 136.5t-131.5 398.5v954h330v-987q0 -103 46 -159t132 -56t132.5 56t46.5 159v987h329v-954q0 -262 -131.5 -398.5t-376.5 -136.5z" />
    <glyph glyph-name="Udieresis" unicode="&#xdc;" 
d="M242 1571v256h315v-256h-315zM672 1571v256h315v-256h-315zM614 -33q-245 0 -376.5 136.5t-131.5 398.5v954h330v-987q0 -103 46 -159t132 -56t132.5 56t46.5 159v987h329v-954q0 -262 -131.5 -398.5t-376.5 -136.5z" />
    <glyph glyph-name="Yacute" unicode="&#xdd;" 
d="M475 1565l127 315h332l-184 -315h-275zM451 0v610l-396 844h353l206 -504l207 504h353l-394 -844v-610h-329z" />
    <glyph glyph-name="Thorn" unicode="&#xde;" 
d="M152 0v1454h329v-242h162q246 0 383 -125.5t137 -334.5q0 -211 -137 -338t-383 -127h-162v-287h-329zM631 922h-150v-344h150q94 0 144 43.5t50 128.5q0 172 -194 172z" />
    <glyph glyph-name="germandbls" unicode="&#xdf;" 
d="M82 0v924q0 259 137 405t391 146q225 0 350 -106.5t125 -297.5q0 -108 -62.5 -189t-170.5 -118q142 -31 224.5 -128t82.5 -235q0 -188 -139 -294.5t-385 -106.5h-131v287h123q217 0 217 162q0 165 -226 165h-94v277h78q160 0 160 143q0 71 -43 110.5t-125 39.5
q-95 0 -147 -65t-52 -185v-934h-313z" />
    <glyph glyph-name="agrave" unicode="&#xe0;" 
d="M455 1212l-185 316h334l125 -316h-274zM455 -25q-157 0 -262 85t-105 231q0 252 330 327l319 70q0 97 -36 147t-119 50q-71 0 -111.5 -37.5t-50.5 -97.5l-322 16q31 164 158.5 262t316.5 98q478 0 478 -458v-365q0 -76 55 -76h37v-227q-40 -10 -103 -10q-106 0 -173 46.5
t-91 131.5q-33 -88 -116.5 -140.5t-204.5 -52.5zM524 203q101 0 157 56t56 161v55l-213 -49q-62 -13 -88 -41.5t-26 -81.5q0 -48 29 -74t85 -26z" />
    <glyph glyph-name="aacute" unicode="&#xe1;" 
d="M442 1212l127 316h332l-184 -316h-275zM455 -25q-157 0 -262 85t-105 231q0 252 330 327l319 70q0 97 -36 147t-119 50q-71 0 -111.5 -37.5t-50.5 -97.5l-322 16q31 164 158.5 262t316.5 98q478 0 478 -458v-365q0 -76 55 -76h37v-227q-40 -10 -103 -10q-106 0 -173 46.5
t-91 131.5q-33 -88 -116.5 -140.5t-204.5 -52.5zM524 203q101 0 157 56t56 161v55l-213 -49q-62 -13 -88 -41.5t-26 -81.5q0 -48 29 -74t85 -26z" />
    <glyph glyph-name="acircumflex" unicode="&#xe2;" 
d="M246 1206l200 328h269l203 -328h-224l-112 176l-115 -176h-221zM455 -25q-157 0 -262 85t-105 231q0 252 330 327l319 70q0 97 -36 147t-119 50q-71 0 -111.5 -37.5t-50.5 -97.5l-322 16q31 164 158.5 262t316.5 98q478 0 478 -458v-365q0 -76 55 -76h37v-227
q-40 -10 -103 -10q-106 0 -173 46.5t-91 131.5q-33 -88 -116.5 -140.5t-204.5 -52.5zM524 203q101 0 157 56t56 161v55l-213 -49q-62 -13 -88 -41.5t-26 -81.5q0 -48 29 -74t85 -26z" />
    <glyph glyph-name="atilde" unicode="&#xe3;" 
d="M709 1223q-78 0 -158 61q-49 41 -90 41q-69 0 -74 -115h-149q6 301 211 301q83 0 167 -65q48 -37 86 -37q33 0 51.5 27t22.5 92h150q-4 -158 -58.5 -231.5t-158.5 -73.5zM455 -25q-157 0 -262 85t-105 231q0 252 330 327l319 70q0 97 -36 147t-119 50q-71 0 -111.5 -37.5
t-50.5 -97.5l-322 16q31 164 158.5 262t316.5 98q478 0 478 -458v-365q0 -76 55 -76h37v-227q-40 -10 -103 -10q-106 0 -173 46.5t-91 131.5q-33 -88 -116.5 -140.5t-204.5 -52.5zM524 203q101 0 157 56t56 161v55l-213 -49q-62 -13 -88 -41.5t-26 -81.5q0 -48 29 -74
t85 -26z" />
    <glyph glyph-name="adieresis" unicode="&#xe4;" 
d="M209 1219v256h315v-256h-315zM639 1219v256h315v-256h-315zM455 -25q-157 0 -262 85t-105 231q0 252 330 327l319 70q0 97 -36 147t-119 50q-71 0 -111.5 -37.5t-50.5 -97.5l-322 16q31 164 158.5 262t316.5 98q478 0 478 -458v-365q0 -76 55 -76h37v-227
q-40 -10 -103 -10q-106 0 -173 46.5t-91 131.5q-33 -88 -116.5 -140.5t-204.5 -52.5zM524 203q101 0 157 56t56 161v55l-213 -49q-62 -13 -88 -41.5t-26 -81.5q0 -48 29 -74t85 -26z" />
    <glyph glyph-name="aring" unicode="&#xe5;" 
d="M580 1176q-94 0 -158 61.5t-64 153.5t64 153.5t158 61.5q95 0 158 -61.5t63 -153.5t-63 -153.5t-158 -61.5zM580 1309q36 0 57.5 22.5t21.5 59.5t-21.5 60.5t-57.5 23.5t-58 -23.5t-22 -60.5t21.5 -59.5t58.5 -22.5zM455 -25q-157 0 -262 85t-105 231q0 252 330 327
l319 70q0 97 -36 147t-119 50q-71 0 -111.5 -37.5t-50.5 -97.5l-322 16q31 164 158.5 262t316.5 98q478 0 478 -458v-365q0 -76 55 -76h37v-227q-40 -10 -103 -10q-106 0 -173 46.5t-91 131.5q-33 -88 -116.5 -140.5t-204.5 -52.5zM524 203q101 0 157 56t56 161v55l-213 -49
q-62 -13 -88 -41.5t-26 -81.5q0 -48 29 -74t85 -26z" />
    <glyph glyph-name="ae" unicode="&#xe6;" 
d="M287 -25q-119 0 -193 76t-74 242q0 144 74.5 226t224.5 118l132 31q0 119 -20 168t-66 49q-40 0 -59 -33.5t-27 -101.5l-254 10q50 366 340 366q157 0 239 -116q93 116 244 116q161 0 260.5 -137t99.5 -416v-114h-463q6 -217 97 -217q35 0 53.5 27t24.5 98l276 -29
q-65 -363 -348 -363q-191 0 -285 183q-37 -86 -111 -134.5t-165 -48.5zM752 657h172q-11 209 -84 209q-40 0 -60.5 -48t-27.5 -161zM348 203q56 0 79.5 44.5t23.5 153.5v62l-93 -21q-45 -11 -67.5 -41.5t-22.5 -89.5q0 -50 21 -79t59 -29z" />
    <glyph glyph-name="ccedilla" unicode="&#xe7;" 
d="M627 -483q-101 0 -171 46.5t-100 125.5l146 65q31 -78 119 -78q42 0 68 19.5t26 54.5q0 37 -27.5 56.5t-99.5 19.5l-92 84l41 72q-201 33 -324 187t-123 382q0 255 151 415t390 160q200 0 342 -120t168 -316l-310 -14q-19 86 -70 132t-128 46q-102 0 -159.5 -80.5
t-57.5 -222.5t57.5 -222.5t159.5 -80.5q78 0 130 48t71 138l309 -16q-23 -172 -136 -289t-280 -145l-29 -45q99 -10 148 -63.5t49 -133.5q0 -113 -75 -169t-193 -56z" />
    <glyph glyph-name="egrave" unicode="&#xe8;" 
d="M489 1210l-184 314h334l125 -314h-275zM618 -25q-234 0 -381 158t-147 418q0 255 146.5 415t379.5 160t380 -160.5t147 -420.5v-76h-733q10 -105 68 -163t149 -58q66 0 114 31.5t68 87.5l309 -23q-122 -369 -500 -369zM416 670h391q-9 90 -60 137t-135 47t-135 -47.5
t-61 -136.5z" />
    <glyph glyph-name="eacute" unicode="&#xe9;" 
d="M479 1210l125 314h334l-184 -314h-275zM618 -25q-234 0 -381 158t-147 418q0 255 146.5 415t379.5 160t380 -160.5t147 -420.5v-76h-733q10 -105 68 -163t149 -58q66 0 114 31.5t68 87.5l309 -23q-122 -369 -500 -369zM416 670h391q-9 90 -60 137t-135 47t-135 -47.5
t-61 -136.5z" />
    <glyph glyph-name="ecircumflex" unicode="&#xea;" 
d="M281 1204l202 326h267l202 -326h-221l-115 176l-114 -176h-221zM618 -25q-234 0 -381 158t-147 418q0 255 146.5 415t379.5 160t380 -160.5t147 -420.5v-76h-733q10 -105 68 -163t149 -58q66 0 114 31.5t68 87.5l309 -23q-122 -369 -500 -369zM416 670h391q-9 90 -60 137
t-135 47t-135 -47.5t-61 -136.5z" />
    <glyph glyph-name="edieresis" unicode="&#xeb;" 
d="M246 1214v259h313v-259h-313zM674 1214v259h315v-259h-315zM618 -25q-234 0 -381 158t-147 418q0 255 146.5 415t379.5 160t380 -160.5t147 -420.5v-76h-733q10 -105 68 -163t149 -58q66 0 114 31.5t68 87.5l309 -23q-122 -369 -500 -369zM416 670h391q-9 90 -60 137
t-135 47t-135 -47.5t-61 -136.5z" />
    <glyph glyph-name="igrave" unicode="&#xec;" 
d="M555 1212l-184 316h334l124 -316h-274zM131 0v244h399v614h-378v244h690v-858h338v-244h-1049z" />
    <glyph glyph-name="iacute" unicode="&#xed;" 
d="M545 1212l125 316h334l-185 -316h-274zM131 0v244h399v614h-378v244h690v-858h338v-244h-1049z" />
    <glyph glyph-name="icircumflex" unicode="&#xee;" 
d="M346 1206l203 328h266l203 -328h-221l-115 176l-115 -176h-221zM131 0v244h399v614h-378v244h690v-858h338v-244h-1049z" />
    <glyph glyph-name="idieresis" unicode="&#xef;" 
d="M311 1219v256h314v-256h-314zM739 1219v256h316v-256h-316zM131 0v244h399v614h-378v244h690v-858h338v-244h-1049z" />
    <glyph glyph-name="eth" unicode="&#xf0;" 
d="M614 -25q-227 0 -367.5 139t-140.5 371t140 371t368 139q82 0 158 -30q-38 94 -96 153l-211 -96l-51 141l102 49q-79 24 -160 29l84 238q211 -23 361 -136l233 109l53 -143l-167 -78q204 -251 204 -696q0 -260 -139 -410t-371 -150zM614 242q90 0 139.5 64t49.5 190
q0 113 -50 173t-139 60q-88 0 -137 -62.5t-49 -181.5t49 -181t137 -62z" />
    <glyph glyph-name="ntilde" unicode="&#xf1;" 
d="M735 1223q-78 0 -155 61q-52 41 -91 41q-68 0 -73 -115h-150q6 301 209 301q86 0 170 -65q48 -37 86 -37q32 0 50 27t22 92h149q-3 -158 -57.5 -231.5t-159.5 -73.5zM139 0v1102h285l6 -197q83 221 328 221q167 0 249.5 -109.5t82.5 -301.5v-715h-314v647
q0 113 -35.5 165t-109.5 52q-75 0 -126.5 -61t-51.5 -172v-631h-314z" />
    <glyph glyph-name="ograve" unicode="&#xf2;" 
d="M487 1212l-184 316h334l125 -316h-275zM614 -25q-237 0 -382.5 157.5t-145.5 418.5t145.5 418t382.5 157q238 0 383.5 -157t145.5 -418t-146 -418.5t-383 -157.5zM614 248q99 0 152 77.5t53 225.5t-53 225.5t-152 77.5t-151.5 -77.5t-52.5 -225.5t52.5 -225.5
t151.5 -77.5z" />
    <glyph glyph-name="oacute" unicode="&#xf3;" 
d="M475 1212l127 316h332l-184 -316h-275zM614 -25q-237 0 -382.5 157.5t-145.5 418.5t145.5 418t382.5 157q238 0 383.5 -157t145.5 -418t-146 -418.5t-383 -157.5zM614 248q99 0 152 77.5t53 225.5t-53 225.5t-152 77.5t-151.5 -77.5t-52.5 -225.5t52.5 -225.5
t151.5 -77.5z" />
    <glyph glyph-name="ocircumflex" unicode="&#xf4;" 
d="M279 1206l200 328h269l202 -328h-223l-113 176l-114 -176h-221zM614 -25q-237 0 -382.5 157.5t-145.5 418.5t145.5 418t382.5 157q238 0 383.5 -157t145.5 -418t-146 -418.5t-383 -157.5zM614 248q99 0 152 77.5t53 225.5t-53 225.5t-152 77.5t-151.5 -77.5t-52.5 -225.5
t52.5 -225.5t151.5 -77.5z" />
    <glyph glyph-name="otilde" unicode="&#xf5;" 
d="M741 1223q-77 0 -157 61q-49 41 -90 41q-69 0 -74 -115h-150q6 301 211 301q84 0 168 -65q48 -37 86 -37q33 0 51.5 27t22.5 92h149q-4 -158 -58.5 -231.5t-158.5 -73.5zM614 -25q-237 0 -382.5 157.5t-145.5 418.5t145.5 418t382.5 157q238 0 383.5 -157t145.5 -418
t-146 -418.5t-383 -157.5zM614 248q99 0 152 77.5t53 225.5t-53 225.5t-152 77.5t-151.5 -77.5t-52.5 -225.5t52.5 -225.5t151.5 -77.5z" />
    <glyph glyph-name="odieresis" unicode="&#xf6;" 
d="M242 1219v256h315v-256h-315zM672 1219v256h315v-256h-315zM614 -25q-237 0 -382.5 157.5t-145.5 418.5t145.5 418t382.5 157q238 0 383.5 -157t145.5 -418t-146 -418.5t-383 -157.5zM614 248q99 0 152 77.5t53 225.5t-53 225.5t-152 77.5t-151.5 -77.5t-52.5 -225.5
t52.5 -225.5t151.5 -77.5z" />
    <glyph glyph-name="divide" unicode="&#xf7;" 
d="M614 807q-78 0 -128 49.5t-50 124.5q0 77 50 126.5t128 49.5t129.5 -50t51.5 -126q0 -75 -51.5 -124.5t-129.5 -49.5zM111 453v258h1007v-258h-1007zM614 4q-78 0 -128 49.5t-50 124.5q0 76 50 126t128 50t129.5 -50.5t51.5 -125.5t-51.5 -124.5t-129.5 -49.5z" />
    <glyph glyph-name="oslash" unicode="&#xf8;" 
d="M131 -29l102 158q-147 156 -147 422q0 261 145.5 418t382.5 157q130 0 238 -51l37 55h209l-103 -157q148 -157 148 -422q0 -261 -146 -418.5t-383 -157.5q-127 0 -237 52l-37 -56h-209zM410 551q0 -66 14 -131l272 418q-40 16 -82 16q-99 0 -151.5 -77.5t-52.5 -225.5z
M614 248q99 0 152 77.5t53 225.5q0 66 -14 131l-273 -418q40 -16 82 -16z" />
    <glyph glyph-name="ugrave" unicode="&#xf9;" 
d="M479 1212l-184 316h334l125 -316h-275zM469 -25q-156 0 -242 102.5t-86 297.5v727h314v-647q0 -116 35.5 -166.5t107.5 -50.5q74 0 124 59.5t50 169.5v635h313v-1102h-286l-6 195q-40 -106 -123.5 -163t-200.5 -57z" />
    <glyph glyph-name="uacute" unicode="&#xfa;" 
d="M469 1212l125 316h334l-185 -316h-274zM469 -25q-156 0 -242 102.5t-86 297.5v727h314v-647q0 -116 35.5 -166.5t107.5 -50.5q74 0 124 59.5t50 169.5v635h313v-1102h-286l-6 195q-40 -106 -123.5 -163t-200.5 -57z" />
    <glyph glyph-name="ucircumflex" unicode="&#xfb;" 
d="M270 1206l203 328h266l203 -328h-221l-115 176l-114 -176h-222zM469 -25q-156 0 -242 102.5t-86 297.5v727h314v-647q0 -116 35.5 -166.5t107.5 -50.5q74 0 124 59.5t50 169.5v635h313v-1102h-286l-6 195q-40 -106 -123.5 -163t-200.5 -57z" />
    <glyph glyph-name="udieresis" unicode="&#xfc;" 
d="M236 1219v256h313v-256h-313zM664 1219v256h315v-256h-315zM469 -25q-156 0 -242 102.5t-86 297.5v727h314v-647q0 -116 35.5 -166.5t107.5 -50.5q74 0 124 59.5t50 169.5v635h313v-1102h-286l-6 195q-40 -106 -123.5 -163t-200.5 -57z" />
    <glyph glyph-name="yacute" unicode="&#xfd;" 
d="M483 1212l125 316h334l-184 -316h-275zM221 -307v244h156q54 0 83 16t44 57l26 76h-96l-379 1016h322l250 -715l225 715h324l-416 -1186q-41 -119 -127 -171t-223 -52h-189z" />
    <glyph glyph-name="thorn" unicode="&#xfe;" 
d="M104 -307v1761h314v-504q41 72 127 124t184 52q96 0 171 -30.5t124.5 -82t81.5 -126t45.5 -157t13.5 -179.5q0 -126 -25.5 -229.5t-76 -182t-132 -121.5t-188.5 -43q-106 0 -194 48.5t-131 136.5v-467h-314zM631 248q104 0 157.5 77t53.5 226q0 305 -211 305
q-103 0 -159 -82.5t-56 -222.5q0 -146 58.5 -224.5t156.5 -78.5z" />
    <glyph glyph-name="ydieresis" unicode="&#xff;" 
d="M250 1219v256h315v-256h-315zM680 1219v256h313v-256h-313zM221 -307v244h156q54 0 83 16t44 57l26 76h-96l-379 1016h322l250 -715l225 715h324l-416 -1186q-41 -119 -127 -171t-223 -52h-189z" />
    <glyph glyph-name="Amacron" unicode="&#x100;" 
d="M313 1587v228h602v-228h-602zM33 0l385 1454h393l385 -1454h-330l-67 274h-369l-68 -274h-329zM614 1038l-116 -481h233z" />
    <glyph glyph-name="amacron" unicode="&#x101;" 
d="M281 1235v227h602v-227h-602zM455 -25q-157 0 -262 85t-105 231q0 252 330 327l319 70q0 97 -36 147t-119 50q-71 0 -111.5 -37.5t-50.5 -97.5l-322 16q31 164 158.5 262t316.5 98q478 0 478 -458v-365q0 -76 55 -76h37v-227q-40 -10 -103 -10q-106 0 -173 46.5
t-91 131.5q-33 -88 -116.5 -140.5t-204.5 -52.5zM524 203q101 0 157 56t56 161v55l-213 -49q-62 -13 -88 -41.5t-26 -81.5q0 -48 29 -74t85 -26z" />
    <glyph glyph-name="Abreve" unicode="&#x102;" 
d="M614 1556q-139 0 -226 85t-93 229h184q10 -131 135 -131q126 0 136 131h184q-6 -144 -93.5 -229t-226.5 -85zM33 0l385 1454h393l385 -1454h-330l-67 274h-369l-68 -274h-329zM614 1038l-116 -481h233z" />
    <glyph glyph-name="abreve" unicode="&#x103;" 
d="M582 1204q-139 0 -226.5 85t-93.5 229h184q11 -132 136 -132q124 0 135 132h184q-6 -144 -93 -229t-226 -85zM455 -25q-157 0 -262 85t-105 231q0 252 330 327l319 70q0 97 -36 147t-119 50q-71 0 -111.5 -37.5t-50.5 -97.5l-322 16q31 164 158.5 262t316.5 98
q478 0 478 -458v-365q0 -76 55 -76h37v-227q-40 -10 -103 -10q-106 0 -173 46.5t-91 131.5q-33 -88 -116.5 -140.5t-204.5 -52.5zM524 203q101 0 157 56t56 161v55l-213 -49q-62 -13 -88 -41.5t-26 -81.5q0 -48 29 -74t85 -26z" />
    <glyph glyph-name="Aogonek" unicode="&#x104;" 
d="M33 0l385 1454h393l385 -1454l-63 -82q-36 -47 -50 -73t-14 -48q0 -23 15 -36t40 -13q45 0 90 31l54 -166q-34 -26 -99 -45t-137 -19q-100 0 -159.5 52.5t-59.5 136.5q0 101 86 207l43 55h-76l-67 274h-369l-68 -274h-329zM614 1038l-116 -481h233z" />
    <glyph glyph-name="aogonek" unicode="&#x105;" 
d="M455 -25q-157 0 -262 85t-105 231q0 252 330 327l319 70q0 97 -36 147t-119 50q-71 0 -111.5 -37.5t-50.5 -97.5l-322 16q31 164 158.5 262t316.5 98q478 0 478 -458v-365q0 -76 55 -76h37v-227l-64 -82q-61 -80 -61 -121q0 -23 15 -36t40 -13q49 0 88 31l56 -166
q-34 -25 -99.5 -44.5t-136.5 -19.5q-101 0 -161 52.5t-60 136.5q0 97 86 207l55 71q-94 43 -125 152q-33 -88 -116.5 -140.5t-204.5 -52.5zM524 203q101 0 157 56t56 161v55l-213 -49q-62 -13 -88 -41.5t-26 -81.5q0 -48 29 -74t85 -26z" />
    <glyph glyph-name="Cacute" unicode="&#x106;" 
d="M487 1565l125 315h334l-184 -315h-275zM625 -33q-267 0 -415.5 202t-148.5 556q0 356 148.5 559t415.5 203q219 0 357 -145.5t173 -413.5l-334 -15q-19 138 -70 212.5t-126 74.5q-108 0 -167 -123.5t-59 -351.5q0 -226 59 -348.5t167 -122.5q75 0 128.5 79t71.5 224
l334 -14q-35 -276 -174 -426t-360 -150z" />
    <glyph glyph-name="cacute" unicode="&#x107;" 
d="M494 1212l124 316h334l-184 -316h-274zM631 -25q-239 0 -390 160.5t-151 415.5t151 415t390 160q200 0 342 -120t168 -316l-310 -14q-19 86 -70 132t-128 46q-102 0 -159.5 -80.5t-57.5 -222.5t57.5 -222.5t159.5 -80.5q78 0 130 48t71 138l309 -16
q-26 -198 -168.5 -320.5t-343.5 -122.5z" />
    <glyph glyph-name="Ccircumflex" unicode="&#x108;" 
d="M289 1559l203 327h266l203 -327h-222l-114 176l-115 -176h-221zM625 -33q-267 0 -415.5 202t-148.5 556q0 356 148.5 559t415.5 203q219 0 357 -145.5t173 -413.5l-334 -15q-19 138 -70 212.5t-126 74.5q-108 0 -167 -123.5t-59 -351.5q0 -226 59 -348.5t167 -122.5
q75 0 128.5 79t71.5 224l334 -14q-35 -276 -174 -426t-360 -150z" />
    <glyph glyph-name="ccircumflex" unicode="&#x109;" 
d="M295 1206l203 328h266l203 -328h-222l-114 176l-115 -176h-221zM631 -25q-239 0 -390 160.5t-151 415.5t151 415t390 160q200 0 342 -120t168 -316l-310 -14q-19 86 -70 132t-128 46q-102 0 -159.5 -80.5t-57.5 -222.5t57.5 -222.5t159.5 -80.5q78 0 130 48t71 138
l309 -16q-26 -198 -168.5 -320.5t-343.5 -122.5z" />
    <glyph glyph-name="Cdotaccent" unicode="&#x10a;" 
d="M467 1577v256h315v-256h-315zM625 -33q-267 0 -415.5 202t-148.5 556q0 356 148.5 559t415.5 203q219 0 357 -145.5t173 -413.5l-334 -15q-19 138 -70 212.5t-126 74.5q-108 0 -167 -123.5t-59 -351.5q0 -226 59 -348.5t167 -122.5q75 0 128.5 79t71.5 224l334 -14
q-35 -276 -174 -426t-360 -150z" />
    <glyph glyph-name="cdotaccent" unicode="&#x10b;" 
d="M473 1225v256h315v-256h-315zM631 -25q-239 0 -390 160.5t-151 415.5t151 415t390 160q200 0 342 -120t168 -316l-310 -14q-19 86 -70 132t-128 46q-102 0 -159.5 -80.5t-57.5 -222.5t57.5 -222.5t159.5 -80.5q78 0 130 48t71 138l309 -16q-26 -198 -168.5 -320.5
t-343.5 -122.5z" />
    <glyph glyph-name="Ccaron" unicode="&#x10c;" 
d="M289 1886h223l113 -176l114 176h222l-201 -327h-268zM625 -33q-267 0 -415.5 202t-148.5 556q0 356 148.5 559t415.5 203q219 0 357 -145.5t173 -413.5l-334 -15q-19 138 -70 212.5t-126 74.5q-108 0 -167 -123.5t-59 -351.5q0 -226 59 -348.5t167 -122.5q75 0 128.5 79
t71.5 224l334 -14q-35 -276 -174 -426t-360 -150z" />
    <glyph glyph-name="ccaron" unicode="&#x10d;" 
d="M295 1534h223l113 -176l114 176h222l-201 -328h-268zM631 -25q-239 0 -390 160.5t-151 415.5t151 415t390 160q200 0 342 -120t168 -316l-310 -14q-19 86 -70 132t-128 46q-102 0 -159.5 -80.5t-57.5 -222.5t57.5 -222.5t159.5 -80.5q78 0 130 48t71 138l309 -16
q-26 -198 -168.5 -320.5t-343.5 -122.5z" />
    <glyph glyph-name="Dcaron" unicode="&#x10e;" 
d="M279 1886h221l114 -176l115 176h221l-202 -327h-267zM125 0v1454h383q314 0 486.5 -189t172.5 -538t-172.5 -538t-486.5 -189h-383zM455 293h61q313 0 313 434t-313 434h-61v-868z" />
    <glyph glyph-name="dcaron" unicode="&#x10f;" 
d="M365 -25q-159 0 -258 152.5t-99 423.5t100 423t263 152q99 0 168 -48t102 -132v508h313v-1454h-303l-8 176q-35 -91 -107 -146t-171 -55zM981 848l49 606h260l-90 -606h-219zM481 248q69 0 114.5 80t45.5 223q0 144 -45 223.5t-115 79.5q-149 0 -149 -303t149 -303z" />
    <glyph glyph-name="Dcroat" unicode="&#x110;" 
d="M125 0v596h-117v262h117v596h383q314 0 486.5 -189t172.5 -538t-172.5 -538t-486.5 -189h-383zM455 293h61q313 0 313 434t-313 434h-61v-303h274v-262h-274v-303z" />
    <glyph glyph-name="dcroat" unicode="&#x111;" 
d="M477 -25q-196 0 -312 151.5t-116 424.5t115.5 424t312.5 151q112 0 195.5 -48.5t124.5 -131.5v230h-305v192h305v86h313v-86h94v-192h-94v-1176h-303l-8 176q-44 -92 -125.5 -146.5t-196.5 -54.5zM580 248q99 0 158 79t59 224q0 146 -59 224.5t-158 78.5
q-207 0 -207 -303t207 -303z" />
    <glyph glyph-name="Emacron" unicode="&#x112;" 
d="M334 1589v228h602v-228h-602zM168 0v1454h917v-293h-587v-289h563v-286h-563v-293h604v-293h-934z" />
    <glyph glyph-name="emacron" unicode="&#x113;" 
d="M315 1233v227h603v-227h-603zM618 -25q-234 0 -381 158t-147 418q0 255 146.5 415t379.5 160t380 -160.5t147 -420.5v-76h-733q10 -105 68 -163t149 -58q66 0 114 31.5t68 87.5l309 -23q-122 -369 -500 -369zM416 670h391q-9 90 -60 137t-135 47t-135 -47.5t-61 -136.5z
" />
    <glyph glyph-name="Edotaccent" unicode="&#x116;" 
d="M477 1579v256h316v-256h-316zM168 0v1454h917v-293h-587v-289h563v-286h-563v-293h604v-293h-934z" />
    <glyph glyph-name="edotaccent" unicode="&#x117;" 
d="M459 1223v256h315v-256h-315zM618 -25q-234 0 -381 158t-147 418q0 255 146.5 415t379.5 160t380 -160.5t147 -420.5v-76h-733q10 -105 68 -163t149 -58q66 0 114 31.5t68 87.5l309 -23q-122 -369 -500 -369zM416 670h391q-9 90 -60 137t-135 47t-135 -47.5t-61 -136.5z
" />
    <glyph glyph-name="Eogonek" unicode="&#x118;" 
d="M168 0v1454h917v-293h-587v-289h563v-286h-563v-293h604v-293h2l-64 -82q-61 -80 -61 -121q0 -23 14.5 -36t38.5 -13q51 0 90 31l54 -166q-34 -25 -99 -44.5t-135 -19.5q-101 0 -161 52.5t-60 136.5q0 101 86 207l43 55h-682z" />
    <glyph glyph-name="eogonek" unicode="&#x119;" 
d="M715 -410q-100 0 -159.5 52.5t-59.5 136.5q0 101 77 198q-216 15 -349.5 170.5t-133.5 403.5q0 255 146.5 415t379.5 160t380 -160.5t147 -420.5v-76h-733q10 -105 68 -163t149 -58q66 0 114 31.5t68 87.5l309 -23q-74 -227 -250 -313l-55 -72q-61 -80 -61 -121
q0 -23 15 -36t40 -13q45 0 90 31l53 -166q-34 -25 -99 -44.5t-136 -19.5zM416 670h391q-9 90 -60 137t-135 47t-135 -47.5t-61 -136.5z" />
    <glyph glyph-name="Ecaron" unicode="&#x11a;" 
d="M299 1888h221l115 -176l115 176h221l-203 -327h-266zM168 0v1454h917v-293h-587v-289h563v-286h-563v-293h604v-293h-934z" />
    <glyph glyph-name="ecaron" unicode="&#x11b;" 
d="M281 1530h223l112 -174l115 174h221l-200 -326h-269zM618 -25q-234 0 -381 158t-147 418q0 255 146.5 415t379.5 160t380 -160.5t147 -420.5v-76h-733q10 -105 68 -163t149 -58q66 0 114 31.5t68 87.5l309 -23q-122 -369 -500 -369zM416 670h391q-9 90 -60 137t-135 47
t-135 -47.5t-61 -136.5z" />
    <glyph glyph-name="Gcircumflex" unicode="&#x11c;" 
d="M287 1559l202 327h269l200 -327h-221l-114 176l-113 -176h-223zM621 -33q-256 0 -408 202t-152 556t150 558t412 204q219 0 354 -133t182 -393l-336 -19q-39 254 -198 254q-108 0 -167 -122t-59 -349q0 -226 64.5 -346.5t183.5 -120.5q93 0 144.5 66.5t54.5 191.5h-230
v248h535v-764h-205l-6 145q-49 -81 -131.5 -129.5t-187.5 -48.5z" />
    <glyph glyph-name="gcircumflex" unicode="&#x11d;" 
d="M295 1206l203 328h268l201 -328h-222l-114 176l-113 -176h-223zM606 -332q-204 0 -328.5 83.5t-160.5 232.5l327 18q29 -88 162 -88q106 0 160.5 50t54.5 145v110q-83 -162 -299 -162q-195 0 -321.5 146.5t-126.5 376.5q0 250 122.5 398t321.5 148q217 0 305 -190l6 166
h306v-950q0 -238 -141.5 -361t-387.5 -123zM612 299q96 0 152.5 73t56.5 216q1 142 -56 217.5t-153 75.5q-104 0 -159.5 -74t-55.5 -219t56 -217t159 -72z" />
    <glyph glyph-name="Gbreve" unicode="&#x11e;" 
d="M625 1556q-139 0 -226.5 85t-93.5 229h184q10 -131 136 -131q122 0 135 131h184q-6 -144 -93 -229t-226 -85zM621 -33q-256 0 -408 202t-152 556t150 558t412 204q219 0 354 -133t182 -393l-336 -19q-39 254 -198 254q-108 0 -167 -122t-59 -349q0 -226 64.5 -346.5
t183.5 -120.5q93 0 144.5 66.5t54.5 191.5h-230v248h535v-764h-205l-6 145q-49 -81 -131.5 -129.5t-187.5 -48.5z" />
    <glyph glyph-name="gbreve" unicode="&#x11f;" 
d="M631 1204q-139 0 -226.5 85t-93.5 229h185q13 -132 135 -132q124 0 135 132h184q-6 -144 -93 -229t-226 -85zM606 -332q-204 0 -328.5 83.5t-160.5 232.5l327 18q29 -88 162 -88q106 0 160.5 50t54.5 145v110q-83 -162 -299 -162q-195 0 -321.5 146.5t-126.5 376.5
q0 250 122.5 398t321.5 148q217 0 305 -190l6 166h306v-950q0 -238 -141.5 -361t-387.5 -123zM612 299q96 0 152.5 73t56.5 216q1 142 -56 217.5t-153 75.5q-104 0 -159.5 -74t-55.5 -219t56 -217t159 -72z" />
    <glyph glyph-name="Gdotaccent" unicode="&#x120;" 
d="M467 1577v256h313v-256h-313zM621 -33q-256 0 -408 202t-152 556t150 558t412 204q219 0 354 -133t182 -393l-336 -19q-39 254 -198 254q-108 0 -167 -122t-59 -349q0 -226 64.5 -346.5t183.5 -120.5q93 0 144.5 66.5t54.5 191.5h-230v248h535v-764h-205l-6 145
q-49 -81 -131.5 -129.5t-187.5 -48.5z" />
    <glyph glyph-name="gdotaccent" unicode="&#x121;" 
d="M473 1225v256h315v-256h-315zM606 -332q-204 0 -328.5 83.5t-160.5 232.5l327 18q29 -88 162 -88q106 0 160.5 50t54.5 145v110q-83 -162 -299 -162q-195 0 -321.5 146.5t-126.5 376.5q0 250 122.5 398t321.5 148q217 0 305 -190l6 166h306v-950q0 -238 -141.5 -361
t-387.5 -123zM612 299q96 0 152.5 73t56.5 216q1 142 -56 217.5t-153 75.5q-104 0 -159.5 -74t-55.5 -219t56 -217t159 -72z" />
    <glyph glyph-name="uni0122" unicode="&#x122;" 
d="M621 -33q-256 0 -408 202t-152 556t150 558t412 204q219 0 354 -133t182 -393l-336 -19q-39 254 -198 254q-108 0 -167 -122t-59 -349q0 -226 64.5 -346.5t183.5 -120.5q93 0 144.5 66.5t54.5 191.5h-230v248h535v-764h-205l-6 145q-49 -81 -131.5 -129.5t-187.5 -48.5z
M444 -528l131 188h-94v242h281v-217l-154 -213h-164z" />
    <glyph glyph-name="uni0123" unicode="&#x123;" 
d="M844 1634l-129 -186h92v-244h-281v219l154 211h164zM606 -332q-204 0 -328.5 83.5t-160.5 232.5l327 18q29 -88 162 -88q106 0 160.5 50t54.5 145v110q-83 -162 -299 -162q-195 0 -321.5 146.5t-126.5 376.5q0 250 122.5 398t321.5 148q217 0 305 -190l6 166h306v-950
q0 -238 -141.5 -361t-387.5 -123zM612 299q96 0 152.5 73t56.5 216q1 142 -56 217.5t-153 75.5q-104 0 -159.5 -74t-55.5 -219t56 -217t159 -72z" />
    <glyph glyph-name="Hcircumflex" unicode="&#x124;" 
d="M279 1559l200 327h269l202 -327h-223l-113 176l-114 -176h-221zM90 0v1454h330v-575h389v575h330v-1454h-330v584h-389v-584h-330z" />
    <glyph glyph-name="hcircumflex" unicode="&#x125;" 
d="M-16 1559l202 327h269l200 -327h-221l-115 176l-112 -176h-223zM145 0v1454h314v-502q85 174 307 174q163 0 244.5 -109t81.5 -306v-711h-314v651q0 213 -141 213q-79 0 -128.5 -61t-49.5 -176v-627h-314z" />
    <glyph glyph-name="Hbar" unicode="&#x126;" 
d="M90 0v1059h-65v248h65v147h330v-147h389v147h330v-147h65v-248h-65v-1059h-330v584h-389v-584h-330zM420 879h389v180h-389v-180z" />
    <glyph glyph-name="hbar" unicode="&#x127;" 
d="M145 0v1176h-98v192h98v86h314v-86h301v-192h-301v-224q85 174 307 174q163 0 244.5 -109t81.5 -306v-711h-314v651q0 213 -141 213q-79 0 -128.5 -61t-49.5 -176v-627h-314z" />
    <glyph glyph-name="Itilde" unicode="&#x128;" 
d="M741 1575q-77 0 -157 61q-49 41 -90 41q-69 0 -74 -114h-150q6 301 211 301q83 0 168 -66q48 -37 86 -37q33 0 51.5 27t22.5 92h149q-4 -158 -58.5 -231.5t-158.5 -73.5zM147 0v293h302v868h-302v293h934v-293h-301v-868h301v-293h-934z" />
    <glyph glyph-name="itilde" unicode="&#x129;" 
d="M809 1223q-78 0 -158 61q-49 41 -90 41q-69 0 -74 -115h-147q3 157 56 229t153 72q49 0 87 -15.5t81 -49.5q48 -37 86 -37q34 0 52 27t22 92h149q-4 -158 -58.5 -231.5t-158.5 -73.5zM131 0v244h399v614h-378v244h690v-858h338v-244h-1049z" />
    <glyph glyph-name="Imacron" unicode="&#x12a;" 
d="M313 1587v228h602v-228h-602zM147 0v293h302v868h-302v293h934v-293h-301v-868h301v-293h-934z" />
    <glyph glyph-name="imacron" unicode="&#x12b;" 
d="M381 1235v227h602v-227h-602zM131 0v244h399v614h-378v244h690v-858h338v-244h-1049z" />
    <glyph glyph-name="Iogonek" unicode="&#x12e;" 
d="M147 0v293h302v868h-302v293h934v-293h-301v-868h301v-293l-63 -82q-62 -81 -62 -121q0 -23 15.5 -36t40.5 -13q49 0 88 31l55 -166q-34 -25 -99 -44.5t-136 -19.5q-102 0 -162 52.5t-60 136.5q0 97 86 207l43 55h-680z" />
    <glyph glyph-name="iogonek" unicode="&#x12f;" 
d="M524 1225v256h316v-256h-316zM131 0v244h399v614h-378v244h690v-858h338v-244l-64 -82q-61 -80 -61 -121q0 -23 15 -36t40 -13q49 0 88 31l55 -166q-34 -25 -99 -44.5t-136 -19.5q-101 0 -161 52.5t-60 136.5q0 97 86 207l43 55h-795z" />
    <glyph glyph-name="Idotaccent" unicode="&#x130;" 
d="M457 1577v256h315v-256h-315zM147 0v293h302v868h-302v293h934v-293h-301v-868h301v-293h-934z" />
    <glyph glyph-name="dotlessi" unicode="&#x131;" 
d="M131 0v244h399v614h-378v244h690v-858h338v-244h-1049z" />
    <glyph glyph-name="Jcircumflex" unicode="&#x134;" 
d="M584 1559l200 327h269l202 -327h-223l-112 176l-115 -176h-221zM567 -33q-235 0 -366.5 147.5t-134.5 415.5l331 17q4 -157 44 -225t126 -68t125 60.5t39 195.5v944h330v-944q0 -259 -129.5 -401t-364.5 -142z" />
    <glyph glyph-name="jcircumflex" unicode="&#x135;" 
d="M485 1206l203 328h268l201 -328h-221l-115 176l-112 -176h-224zM193 -307v244h294q93 0 137 43t44 137v741h-469v244h780v-993q0 -203 -118 -309.5t-343 -106.5h-325z" />
    <glyph glyph-name="uni0136" unicode="&#x136;" 
d="M90 0v1454h330v-547l348 547h391l-440 -631l444 -823h-354l-281 553l-108 -156v-397h-330zM397 -528l131 188h-94v242h281v-217l-154 -213h-164z" />
    <glyph glyph-name="uni0137" unicode="&#x137;" 
d="M102 0v1454h314v-797l381 445h362l-411 -473l430 -629h-355l-280 430l-127 -141v-289h-314zM436 -528l131 188h-92v242h281v-217l-156 -213h-164z" />
    <glyph glyph-name="Lacute" unicode="&#x139;" 
d="M201 1565l125 315h333l-184 -315h-274zM188 0v1454h330v-1161h604v-293h-934z" />
    <glyph glyph-name="lacute" unicode="&#x13a;" 
d="M434 1565l127 315h332l-184 -315h-275zM90 0v244h395v843q0 60 -31.5 91.5t-91.5 31.5h-231v244h295q373 0 373 -373v-837h340v-244h-1049z" />
    <glyph glyph-name="uni013B" unicode="&#x13b;" 
d="M188 0v1454h330v-1161h604v-293h-934zM477 -528l131 188h-92v242h281v-217l-156 -213h-164z" />
    <glyph glyph-name="uni013C" unicode="&#x13c;" 
d="M90 0v244h395v843q0 60 -31.5 91.5t-91.5 31.5h-231v244h295q373 0 373 -373v-837h340v-244h-1049zM463 -528l129 188h-92v242h280v-217l-153 -213h-164z" />
    <glyph glyph-name="Lcaron" unicode="&#x13d;" 
d="M188 0v1454h330v-1161h604v-293h-934zM768 848l63 606h281l-123 -606h-221z" />
    <glyph glyph-name="lcaron" unicode="&#x13e;" 
d="M90 0v244h395v843q0 60 -31.5 91.5t-91.5 31.5h-231v244h295q373 0 373 -373v-837h340v-244h-1049zM850 848l65 606h281l-125 -606h-221z" />
    <glyph glyph-name="Lslash" unicode="&#x141;" 
d="M188 0v559l-159 -76v228l159 75v668h330v-512l277 131v-229l-277 -129v-422h604v-293h-934z" />
    <glyph glyph-name="lslash" unicode="&#x142;" 
d="M90 0v244h395v348l-235 -74v223l235 74v272q0 60 -31.5 91.5t-91.5 31.5h-231v244h295q373 0 373 -373v-166l229 72v-223l-229 -74v-446h340v-244h-1049z" />
    <glyph glyph-name="Nacute" unicode="&#x143;" 
d="M475 1565l127 315h332l-184 -315h-275zM127 0v1454h295l366 -836v836h314v-1454h-295l-367 836v-836h-313z" />
    <glyph glyph-name="nacute" unicode="&#x144;" 
d="M471 1212l125 316h334l-185 -316h-274zM139 0v1102h285l6 -197q83 221 328 221q167 0 249.5 -109.5t82.5 -301.5v-715h-314v647q0 113 -35.5 165t-109.5 52q-75 0 -126.5 -61t-51.5 -172v-631h-314z" />
    <glyph glyph-name="uni0145" unicode="&#x145;" 
d="M127 0v1454h295l366 -836v836h314v-1454h-295l-367 836v-836h-313zM436 -528l131 188h-92v242h279v-217l-154 -213h-164z" />
    <glyph glyph-name="uni0146" unicode="&#x146;" 
d="M139 0v1102h285l6 -197q83 221 328 221q167 0 249.5 -109.5t82.5 -301.5v-715h-314v647q0 113 -35.5 165t-109.5 52q-75 0 -126.5 -61t-51.5 -172v-631h-314zM432 -528l129 188h-92v242h281v-217l-154 -213h-164z" />
    <glyph glyph-name="Ncaron" unicode="&#x147;" 
d="M279 1886h221l114 -176l115 176h221l-202 -327h-267zM127 0v1454h295l366 -836v836h314v-1454h-295l-367 836v-836h-313z" />
    <glyph glyph-name="ncaron" unicode="&#x148;" 
d="M274 1534h222l114 -176l113 176h223l-203 -328h-268zM139 0v1102h285l6 -197q83 221 328 221q167 0 249.5 -109.5t82.5 -301.5v-715h-314v647q0 113 -35.5 165t-109.5 52q-75 0 -126.5 -61t-51.5 -172v-631h-314z" />
    <glyph glyph-name="Eng" unicode="&#x14a;" 
d="M127 0v1454h295l366 -836v836h314v-1466q0 -132 -84.5 -213.5t-222.5 -81.5h-224v248h185q65 0 65 55v4h-14l-367 836v-836h-313z" />
    <glyph glyph-name="eng" unicode="&#x14b;" 
d="M139 0v1102h285l6 -197q83 221 328 221q167 0 249.5 -109.5t82.5 -301.5v-723q0 -134 -86.5 -216.5t-225.5 -82.5h-198v244h112q40 0 62 20t22 57v633q0 113 -35.5 165t-109.5 52q-75 0 -126.5 -61t-51.5 -172v-631h-314z" />
    <glyph glyph-name="Omacron" unicode="&#x14c;" 
d="M313 1587v228h602v-228h-602zM614 -33q-266 0 -409.5 196.5t-143.5 561.5t144 563.5t409 198.5t409 -198.5t144 -563.5t-143.5 -561.5t-409.5 -196.5zM614 254q108 0 161.5 112t53.5 359t-53.5 361t-161.5 114t-161.5 -114t-53.5 -361t53.5 -359t161.5 -112z" />
    <glyph glyph-name="omacron" unicode="&#x14d;" 
d="M313 1235v227h602v-227h-602zM614 -25q-237 0 -382.5 157.5t-145.5 418.5t145.5 418t382.5 157q238 0 383.5 -157t145.5 -418t-146 -418.5t-383 -157.5zM614 248q99 0 152 77.5t53 225.5t-53 225.5t-152 77.5t-151.5 -77.5t-52.5 -225.5t52.5 -225.5t151.5 -77.5z" />
    <glyph glyph-name="Ohungarumlaut" unicode="&#x150;" 
d="M274 1559l125 315h334l-184 -315h-275zM659 1559l125 315h334l-184 -315h-275zM614 -33q-266 0 -409.5 196.5t-143.5 561.5t144 563.5t409 198.5t409 -198.5t144 -563.5t-143.5 -561.5t-409.5 -196.5zM614 254q108 0 161.5 112t53.5 359t-53.5 361t-161.5 114
t-161.5 -114t-53.5 -361t53.5 -359t161.5 -112z" />
    <glyph glyph-name="ohungarumlaut" unicode="&#x151;" 
d="M274 1206l125 316h334l-184 -316h-275zM659 1206l125 316h334l-184 -316h-275zM614 -25q-237 0 -382.5 157.5t-145.5 418.5t145.5 418t382.5 157q238 0 383.5 -157t145.5 -418t-146 -418.5t-383 -157.5zM614 248q99 0 152 77.5t53 225.5t-53 225.5t-152 77.5
t-151.5 -77.5t-52.5 -225.5t52.5 -225.5t151.5 -77.5z" />
    <glyph glyph-name="OE" unicode="&#x152;" 
d="M430 -33q-198 0 -306 191t-108 569t108 569t306 191q124 0 219 -98v65h547v-293h-285v-289h260v-286h-260v-293h301v-293h-563v66q-93 -99 -219 -99zM455 254q43 0 67.5 45t35.5 147t11 281t-11 281t-35.5 147t-67.5 45q-65 0 -91 -104.5t-26 -368.5t26 -368.5t91 -104.5
z" />
    <glyph glyph-name="oe" unicode="&#x153;" 
d="M381 -25q-365 0 -365 576q0 294 92 434.5t273 140.5q133 0 229 -116q93 116 242 116q162 0 261 -137.5t99 -415.5v-114h-462q6 -217 96 -217q35 0 53.5 27t22.5 98l278 -29q-65 -363 -348 -363q-148 0 -242 117q-97 -117 -229 -117zM387 248q28 0 44.5 23t26 90.5
t9.5 189.5q0 176 -19 245.5t-61 69.5q-41 0 -61.5 -70.5t-20.5 -244.5q0 -121 10.5 -189.5t27 -91t44.5 -22.5zM756 657h172q-14 209 -86 209q-39 0 -59.5 -49t-26.5 -160z" />
    <glyph glyph-name="Racute" unicode="&#x154;" 
d="M453 1565l125 315h333l-184 -315h-274zM121 0v1454h477q237 0 370.5 -117t133.5 -321q0 -130 -67.5 -222t-180.5 -128q114 -19 171.5 -83.5t68.5 -181.5l32 -401h-333l-23 305q-5 65 -17 104.5t-38 61.5t-61 29.5t-93 7.5h-110v-508h-330zM451 803h135q86 0 131 46
t45 134q0 85 -45 131.5t-131 46.5h-135v-358z" />
    <glyph glyph-name="racute" unicode="&#x155;" 
d="M557 1212l125 316h334l-185 -316h-274zM135 0v244h256v614h-256v244h481l17 -213q27 108 91.5 160.5t176.5 52.5h254v-250h-227q-115 0 -169 -56.5t-54 -172.5v-379h331v-244h-901z" />
    <glyph glyph-name="uni0156" unicode="&#x156;" 
d="M121 0v1454h477q237 0 370.5 -117t133.5 -321q0 -130 -67.5 -222t-180.5 -128q114 -19 171.5 -83.5t68.5 -181.5l32 -401h-333l-23 305q-5 65 -17 104.5t-38 61.5t-61 29.5t-93 7.5h-110v-508h-330zM451 803h135q86 0 131 46t45 134q0 85 -45 131.5t-131 46.5h-135v-358z
M432 -528l129 188h-92v242h281v-217l-154 -213h-164z" />
    <glyph glyph-name="uni0157" unicode="&#x157;" 
d="M135 0v244h256v614h-256v244h481l17 -213q27 108 91.5 160.5t176.5 52.5h254v-250h-227q-115 0 -169 -56.5t-54 -172.5v-379h331v-244h-901zM385 -528l129 188h-92v242h280v-217l-153 -213h-164z" />
    <glyph glyph-name="Rcaron" unicode="&#x158;" 
d="M254 1886h223l113 -176l115 176h221l-201 -327h-268zM121 0v1454h477q237 0 370.5 -117t133.5 -321q0 -130 -67.5 -222t-180.5 -128q114 -19 171.5 -83.5t68.5 -181.5l32 -401h-333l-23 305q-5 65 -17 104.5t-38 61.5t-61 29.5t-93 7.5h-110v-508h-330zM451 803h135
q86 0 131 46t45 134q0 85 -45 131.5t-131 46.5h-135v-358z" />
    <glyph glyph-name="rcaron" unicode="&#x159;" 
d="M360 1534h222l114 -176l113 176h223l-203 -328h-268zM135 0v244h256v614h-256v244h481l17 -213q27 108 91.5 160.5t176.5 52.5h254v-250h-227q-115 0 -169 -56.5t-54 -172.5v-379h331v-244h-901z" />
    <glyph glyph-name="Sacute" unicode="&#x15a;" 
d="M483 1565l125 315h334l-184 -315h-275zM623 -33q-250 0 -385.5 138.5t-153.5 396.5l330 14q37 -262 227 -262q80 0 126 36t46 103q0 79 -61 130.5t-213 88.5q-112 27 -188.5 61t-132 83.5t-81.5 118t-26 161.5q0 210 132 330.5t373 120.5q236 0 369 -127t148 -369
l-334 -14q-14 108 -64.5 165.5t-134.5 57.5q-72 0 -115 -39.5t-43 -105.5q0 -73 59.5 -116t217.5 -81q233 -57 329.5 -164.5t96.5 -283.5q0 -206 -137.5 -324.5t-384.5 -118.5z" />
    <glyph glyph-name="sacute" unicode="&#x15b;" 
d="M479 1212l127 316h332l-184 -316h-275zM623 -25q-120 0 -214 29t-154 80t-93 117t-41 145l305 10q20 -61 66 -93t133 -32q86 0 123.5 18t37.5 56q0 40 -34.5 61t-153.5 46q-257 56 -356 133.5t-99 230.5q0 151 119.5 250.5t343.5 99.5q101 0 183 -21t136.5 -56t93 -84.5
t58.5 -101.5t27 -111l-309 -13q-11 61 -60.5 96t-126.5 35q-72 0 -108.5 -28t-36.5 -66q0 -50 47.5 -76t194.5 -57q233 -51 318 -121t85 -211q0 -159 -125 -247.5t-360 -88.5z" />
    <glyph glyph-name="Scircumflex" unicode="&#x15c;" 
d="M287 1559l200 327h269l202 -327h-223l-112 176l-115 -176h-221zM623 -33q-250 0 -385.5 138.5t-153.5 396.5l330 14q37 -262 227 -262q80 0 126 36t46 103q0 79 -61 130.5t-213 88.5q-112 27 -188.5 61t-132 83.5t-81.5 118t-26 161.5q0 210 132 330.5t373 120.5
q236 0 369 -127t148 -369l-334 -14q-14 108 -64.5 165.5t-134.5 57.5q-72 0 -115 -39.5t-43 -105.5q0 -73 59.5 -116t217.5 -81q233 -57 329.5 -164.5t96.5 -283.5q0 -206 -137.5 -324.5t-384.5 -118.5z" />
    <glyph glyph-name="scircumflex" unicode="&#x15d;" 
d="M283 1206l200 328h269l202 -328h-223l-113 176l-114 -176h-221zM623 -25q-120 0 -214 29t-154 80t-93 117t-41 145l305 10q20 -61 66 -93t133 -32q86 0 123.5 18t37.5 56q0 40 -34.5 61t-153.5 46q-257 56 -356 133.5t-99 230.5q0 151 119.5 250.5t343.5 99.5
q101 0 183 -21t136.5 -56t93 -84.5t58.5 -101.5t27 -111l-309 -13q-11 61 -60.5 96t-126.5 35q-72 0 -108.5 -28t-36.5 -66q0 -50 47.5 -76t194.5 -57q233 -51 318 -121t85 -211q0 -159 -125 -247.5t-360 -88.5z" />
    <glyph glyph-name="Scedilla" unicode="&#x15e;" 
d="M623 -483q-101 0 -172 46.5t-101 125.5l146 65q18 -40 45 -59t73 -19q43 0 69 19.5t26 54.5q0 37 -27.5 56.5t-99.5 19.5l-90 84l34 63q-205 26 -316 161.5t-126 367.5l330 14q37 -262 227 -262q80 0 126 36t46 103q0 79 -61 130.5t-213 88.5q-112 27 -188.5 61
t-132 83.5t-81.5 118t-26 161.5q0 210 132 330.5t373 120.5q236 0 369 -127t148 -369l-334 -14q-14 108 -64.5 165.5t-134.5 57.5q-72 0 -115 -39.5t-43 -105.5q0 -73 59.5 -116t217.5 -81q233 -57 329.5 -164.5t96.5 -283.5q0 -185 -112.5 -300.5t-317.5 -138.5l-21 -32
q98 -10 147.5 -64t49.5 -133q0 -112 -75.5 -168.5t-192.5 -56.5z" />
    <glyph glyph-name="scedilla" unicode="&#x15f;" 
d="M614 -483q-101 0 -170.5 46.5t-99.5 125.5l145 65q31 -78 117 -78q43 0 68.5 19.5t25.5 54.5q0 37 -27.5 56.5t-97.5 19.5l-92 84l41 72q-188 21 -288.5 119.5t-114.5 244.5l305 10q20 -61 66 -93t133 -32q86 0 123.5 18t37.5 56q0 40 -34.5 61t-153.5 46
q-257 56 -356 133.5t-99 230.5q0 151 119.5 250.5t343.5 99.5q101 0 183 -21t136.5 -56t93 -84.5t58.5 -101.5t27 -111l-309 -13q-11 61 -60.5 96t-126.5 35q-72 0 -108.5 -28t-36.5 -66q0 -50 47.5 -76t194.5 -57q233 -51 318 -121t85 -211t-101.5 -227.5t-293.5 -103.5
l-27 -41q99 -10 148 -63.5t49 -133.5q0 -112 -76 -168.5t-193 -56.5z" />
    <glyph glyph-name="Scaron" unicode="&#x160;" 
d="M287 1886h221l115 -176l112 176h223l-202 -327h-269zM623 -33q-250 0 -385.5 138.5t-153.5 396.5l330 14q37 -262 227 -262q80 0 126 36t46 103q0 79 -61 130.5t-213 88.5q-112 27 -188.5 61t-132 83.5t-81.5 118t-26 161.5q0 210 132 330.5t373 120.5q236 0 369 -127
t148 -369l-334 -14q-14 108 -64.5 165.5t-134.5 57.5q-72 0 -115 -39.5t-43 -105.5q0 -73 59.5 -116t217.5 -81q233 -57 329.5 -164.5t96.5 -283.5q0 -206 -137.5 -324.5t-384.5 -118.5z" />
    <glyph glyph-name="scaron" unicode="&#x161;" 
d="M283 1534h221l114 -176l115 176h221l-202 -328h-267zM623 -25q-120 0 -214 29t-154 80t-93 117t-41 145l305 10q20 -61 66 -93t133 -32q86 0 123.5 18t37.5 56q0 40 -34.5 61t-153.5 46q-257 56 -356 133.5t-99 230.5q0 151 119.5 250.5t343.5 99.5q101 0 183 -21
t136.5 -56t93 -84.5t58.5 -101.5t27 -111l-309 -13q-11 61 -60.5 96t-126.5 35q-72 0 -108.5 -28t-36.5 -66q0 -50 47.5 -76t194.5 -57q233 -51 318 -121t85 -211q0 -159 -125 -247.5t-360 -88.5z" />
    <glyph glyph-name="uni0162" unicode="&#x162;" 
d="M449 0v1161h-367v293h1065v-293h-367v-1161h-59l-39 -61q99 -10 148 -63.5t49 -133.5q0 -112 -76 -168.5t-193 -56.5q-101 0 -170.5 46.5t-99.5 125.5l145 65q31 -78 117 -78q43 0 68.5 19.5t25.5 54.5q0 37 -27.5 56.5t-97.5 19.5l-92 84l51 90h-81z" />
    <glyph glyph-name="uni0163" unicode="&#x163;" 
d="M700 -483q-101 0 -170.5 46.5t-99.5 125.5l145 65q31 -78 117 -78q43 0 68.5 19.5t25.5 54.5q0 37 -27 56.5t-97 19.5l-93 84l60 102q-124 28 -183 113t-59 233v500h-301v244h301v258h313v-258h398v-244h-398v-465q0 -149 150 -149h248v-244h-287l-39 -61
q99 -10 148 -63.5t49 -133.5q0 -112 -76 -168.5t-193 -56.5z" />
    <glyph glyph-name="Tcaron" unicode="&#x164;" 
d="M279 1886h221l114 -176l115 176h221l-202 -327h-267zM449 0v1161h-367v293h1065v-293h-367v-1161h-331z" />
    <glyph glyph-name="tcaron" unicode="&#x165;" 
d="M780 1163l58 527h270l-115 -527h-213zM762 0q-194 0 -284.5 87t-90.5 271v500h-301v244h301v258h313v-258h398v-244h-398v-465q0 -149 150 -149h248v-244h-336z" />
    <glyph glyph-name="Tbar" unicode="&#x166;" 
d="M449 0v522h-195v262h195v377h-367v293h1065v-293h-367v-377h195v-262h-195v-522h-331z" />
    <glyph glyph-name="tbar" unicode="&#x167;" 
d="M166 479v191h221v188h-301v244h301v258h313v-258h398v-244h-398v-188h320v-191h-320v-86q0 -149 150 -149h248v-244h-336q-194 0 -284.5 87t-90.5 271v121h-221z" />
    <glyph glyph-name="Utilde" unicode="&#x168;" 
d="M741 1575q-77 0 -157 61q-49 41 -90 41q-69 0 -74 -114h-150q6 301 211 301q83 0 168 -66q48 -37 86 -37q33 0 51.5 27t22.5 92h149q-4 -158 -58.5 -231.5t-158.5 -73.5zM614 -33q-245 0 -376.5 136.5t-131.5 398.5v954h330v-987q0 -103 46 -159t132 -56t132.5 56
t46.5 159v987h329v-954q0 -262 -131.5 -398.5t-376.5 -136.5z" />
    <glyph glyph-name="utilde" unicode="&#x169;" 
d="M733 1223q-78 0 -158 61q-49 41 -90 41q-68 0 -73 -115h-148q3 157 56 229t153 72q49 0 87 -15.5t81 -49.5q48 -37 86 -37q34 0 52 27t22 92h149q-4 -158 -58.5 -231.5t-158.5 -73.5zM469 -25q-156 0 -242 102.5t-86 297.5v727h314v-647q0 -116 35.5 -166.5t107.5 -50.5
q74 0 124 59.5t50 169.5v635h313v-1102h-286l-6 195q-40 -106 -123.5 -163t-200.5 -57z" />
    <glyph glyph-name="Umacron" unicode="&#x16a;" 
d="M313 1587v228h602v-228h-602zM614 -33q-245 0 -376.5 136.5t-131.5 398.5v954h330v-987q0 -103 46 -159t132 -56t132.5 56t46.5 159v987h329v-954q0 -262 -131.5 -398.5t-376.5 -136.5z" />
    <glyph glyph-name="umacron" unicode="&#x16b;" 
d="M305 1235v227h602v-227h-602zM469 -25q-156 0 -242 102.5t-86 297.5v727h314v-647q0 -116 35.5 -166.5t107.5 -50.5q74 0 124 59.5t50 169.5v635h313v-1102h-286l-6 195q-40 -106 -123.5 -163t-200.5 -57z" />
    <glyph glyph-name="Ubreve" unicode="&#x16c;" 
d="M614 1556q-139 0 -226 85t-93 229h184q10 -131 135 -131q126 0 136 131h184q-6 -144 -93.5 -229t-226.5 -85zM614 -33q-245 0 -376.5 136.5t-131.5 398.5v954h330v-987q0 -103 46 -159t132 -56t132.5 56t46.5 159v987h329v-954q0 -262 -131.5 -398.5t-376.5 -136.5z" />
    <glyph glyph-name="ubreve" unicode="&#x16d;" 
d="M606 1204q-139 0 -226 85t-93 229h184q13 -132 135 -132q124 0 135 132h185q-6 -144 -93.5 -229t-226.5 -85zM469 -25q-156 0 -242 102.5t-86 297.5v727h314v-647q0 -116 35.5 -166.5t107.5 -50.5q74 0 124 59.5t50 169.5v635h313v-1102h-286l-6 195
q-40 -106 -123.5 -163t-200.5 -57z" />
    <glyph glyph-name="Uring" unicode="&#x16e;" 
d="M612 1528q-94 0 -157.5 61.5t-63.5 153.5t63.5 153.5t157.5 61.5q95 0 158.5 -61.5t63.5 -153.5t-63.5 -153.5t-158.5 -61.5zM612 1661q37 0 58.5 22.5t21.5 59.5t-22 60.5t-58 23.5t-58 -23.5t-22 -60.5t21.5 -59.5t58.5 -22.5zM614 -33q-245 0 -376.5 136.5
t-131.5 398.5v954h330v-987q0 -103 46 -159t132 -56t132.5 56t46.5 159v987h329v-954q0 -262 -131.5 -398.5t-376.5 -136.5z" />
    <glyph glyph-name="uring" unicode="&#x16f;" 
d="M604 1176q-94 0 -157.5 61.5t-63.5 153.5t63.5 153.5t157.5 61.5q95 0 158 -61.5t63 -153.5t-63 -153.5t-158 -61.5zM604 1309q37 0 58.5 22.5t21.5 59.5t-22 60.5t-58 23.5t-57 -23.5t-21 -60.5t21 -59.5t57 -22.5zM469 -25q-156 0 -242 102.5t-86 297.5v727h314v-647
q0 -116 35.5 -166.5t107.5 -50.5q74 0 124 59.5t50 169.5v635h313v-1102h-286l-6 195q-40 -106 -123.5 -163t-200.5 -57z" />
    <glyph glyph-name="Uhungarumlaut" unicode="&#x170;" 
d="M274 1559l125 315h334l-184 -315h-275zM659 1559l125 315h334l-184 -315h-275zM614 -33q-245 0 -376.5 136.5t-131.5 398.5v954h330v-987q0 -103 46 -159t132 -56t132.5 56t46.5 159v987h329v-954q0 -262 -131.5 -398.5t-376.5 -136.5z" />
    <glyph glyph-name="uhungarumlaut" unicode="&#x171;" 
d="M266 1206l125 316h334l-184 -316h-275zM651 1206l125 316h334l-184 -316h-275zM469 -25q-156 0 -242 102.5t-86 297.5v727h314v-647q0 -116 35.5 -166.5t107.5 -50.5q74 0 124 59.5t50 169.5v635h313v-1102h-286l-6 195q-40 -106 -123.5 -163t-200.5 -57z" />
    <glyph glyph-name="Uogonek" unicode="&#x172;" 
d="M647 -451q-100 0 -159.5 52.5t-59.5 136.5q0 101 86 207l21 26q-207 22 -318 157t-111 374v954h330v-987q0 -103 46 -159t132 -56t132.5 56t46.5 159v987h329v-954q0 -205 -81 -333.5t-236 -174.5l-57 -76q-36 -47 -50 -73t-14 -48q0 -23 15 -36t40 -13q45 0 90 31
l54 -166q-34 -26 -99 -45t-137 -19z" />
    <glyph glyph-name="uogonek" unicode="&#x173;" 
d="M469 -25q-156 0 -242 102.5t-86 297.5v727h314v-647q0 -116 35.5 -166.5t107.5 -50.5q74 0 124 59.5t50 169.5v635h313v-1102l-63 -82q-36 -47 -50 -73t-14 -48q0 -23 15.5 -36t40.5 -13q45 0 90 31l53 -166q-34 -26 -98.5 -45t-136.5 -19q-100 0 -160 52.5t-60 136.5
q0 101 86 207l43 55h-32l-6 195q-40 -106 -123.5 -163t-200.5 -57z" />
    <glyph glyph-name="Wcircumflex" unicode="&#x174;" 
d="M279 1559l200 327h269l202 -327h-223l-113 176l-114 -176h-221zM193 0l-148 1454h305l66 -913l106 749h185l106 -749l66 913h305l-148 -1454h-321l-101 659l-100 -659h-321z" />
    <glyph glyph-name="wcircumflex" unicode="&#x175;" 
d="M279 1206l200 328h269l202 -328h-223l-113 176l-114 -176h-221zM221 0l-196 1102h307l86 -653l98 491h197l98 -491l86 653h307l-196 -1102h-287l-107 494l-106 -494h-287z" />
    <glyph glyph-name="Ycircumflex" unicode="&#x176;" 
d="M279 1559l200 327h269l202 -327h-223l-113 176l-114 -176h-221zM451 0v610l-396 844h353l206 -504l207 504h353l-394 -844v-610h-329z" />
    <glyph glyph-name="ycircumflex" unicode="&#x177;" 
d="M287 1206l200 328h269l202 -328h-223l-112 176l-115 -176h-221zM221 -307v244h156q54 0 83 16t44 57l26 76h-96l-379 1016h322l250 -715l225 715h324l-416 -1186q-41 -119 -127 -171t-223 -52h-189z" />
    <glyph glyph-name="Ydieresis" unicode="&#x178;" 
d="M242 1571v256h315v-256h-315zM672 1571v256h315v-256h-315zM451 0v610l-396 844h353l206 -504l207 504h353l-394 -844v-610h-329z" />
    <glyph glyph-name="Zacute" unicode="&#x179;" 
d="M475 1565l127 315h332l-184 -315h-275zM86 0v291l651 870h-614v293h1003v-291l-641 -870h658v-293h-1057z" />
    <glyph glyph-name="zacute" unicode="&#x17a;" 
d="M479 1212l125 316h334l-184 -316h-275zM131 0v260l582 598h-561v244h925v-260l-579 -598h600v-244h-967z" />
    <glyph glyph-name="Zdotaccent" unicode="&#x17b;" 
d="M457 1577v256h315v-256h-315zM86 0v291l651 870h-614v293h1003v-291l-641 -870h658v-293h-1057z" />
    <glyph glyph-name="zdotaccent" unicode="&#x17c;" 
d="M461 1225v256h313v-256h-313zM131 0v260l582 598h-561v244h925v-260l-579 -598h600v-244h-967z" />
    <glyph glyph-name="Zcaron" unicode="&#x17d;" 
d="M279 1886h221l114 -176l115 176h221l-202 -327h-267zM86 0v291l651 870h-614v293h1003v-291l-641 -870h658v-293h-1057z" />
    <glyph glyph-name="zcaron" unicode="&#x17e;" 
d="M283 1534h221l114 -176l113 176h223l-202 -328h-269zM131 0v260l582 598h-561v244h925v-260l-579 -598h600v-244h-967z" />
    <glyph glyph-name="uni018F" unicode="&#x18f;" 
d="M618 -33q-268 0 -410 189.5t-142 535.5v144h770q0 101 -23 181t-75 131.5t-126 51.5q-153 0 -202 -213l-336 39q57 211 195 336t331 125q270 0 423 -201.5t153 -558.5q0 -350 -154.5 -555t-403.5 -205zM621 254q103 0 159 83.5t56 231.5h-424q0 -152 57.5 -233.5
t151.5 -81.5z" />
    <glyph glyph-name="florin" unicode="&#x192;" 
d="M115 0v279h192q49 0 79 29.5t36 82.5l43 385h-250v244h277l14 137q15 134 109.5 216t234.5 81l264 -2v-283h-186q-113 0 -125 -108l-4 -41h315v-244h-342l-55 -481q-15 -139 -106.5 -218.5t-237.5 -78.5z" />
    <glyph glyph-name="uni01CD" unicode="&#x1cd;" 
d="M279 1886h221l114 -176l115 176h221l-202 -327h-267zM33 0l385 1454h393l385 -1454h-330l-67 274h-369l-68 -274h-329zM614 1038l-116 -481h233z" />
    <glyph glyph-name="uni01CE" unicode="&#x1ce;" 
d="M246 1534h221l115 -176l114 176h222l-203 -328h-266zM455 -25q-157 0 -262 85t-105 231q0 252 330 327l319 70q0 97 -36 147t-119 50q-71 0 -111.5 -37.5t-50.5 -97.5l-322 16q31 164 158.5 262t316.5 98q478 0 478 -458v-365q0 -76 55 -76h37v-227q-40 -10 -103 -10
q-106 0 -173 46.5t-91 131.5q-33 -88 -116.5 -140.5t-204.5 -52.5zM524 203q101 0 157 56t56 161v55l-213 -49q-62 -13 -88 -41.5t-26 -81.5q0 -48 29 -74t85 -26z" />
    <glyph glyph-name="uni01E4" unicode="&#x1e4;" 
d="M614 -33q-269 0 -426 199.5t-157 558.5q0 231 64.5 401.5t193.5 265.5t309 95q236 0 369.5 -136t169.5 -390l-336 -19q-20 126 -67.5 192t-133.5 66q-110 0 -170.5 -124t-60.5 -351q0 -232 58.5 -349.5t186.5 -117.5q70 0 115 22.5t70 77.5h-199v152h231q0 11 1.5 37
t1.5 41h-234v176h541v-113q0 -77 -6 -141h71v-152h-96q-92 -391 -496 -391z" />
    <glyph glyph-name="uni01E5" unicode="&#x1e5;" 
d="M590 -332q-204 0 -329 83.5t-161 232.5l328 18q29 -88 162 -88q106 0 160.5 50t54.5 145v110q-83 -162 -299 -162q-195 0 -322 146.5t-127 376.5q0 249 123 397.5t322 148.5q217 0 305 -190l6 166h305v-428h86v-193h-86v-329q0 -238 -141 -361t-387 -123zM596 299
q75 0 127 46t72 136h-189v193h193q-17 101 -71 154t-132 53q-104 0 -159.5 -74t-55.5 -219t56 -217t159 -72z" />
    <glyph glyph-name="Gcaron" unicode="&#x1e6;" 
d="M289 1886h221l115 -176l112 176h224l-203 -327h-269zM621 -33q-256 0 -408 202t-152 556t150 558t412 204q219 0 354 -133t182 -393l-336 -19q-39 254 -198 254q-108 0 -167 -122t-59 -349q0 -226 64.5 -346.5t183.5 -120.5q93 0 144.5 66.5t54.5 191.5h-230v248h535
v-764h-205l-6 145q-49 -81 -131.5 -129.5t-187.5 -48.5z" />
    <glyph glyph-name="gcaron" unicode="&#x1e7;" 
d="M295 1534h223l113 -176l114 176h222l-201 -328h-268zM606 -332q-204 0 -328.5 83.5t-160.5 232.5l327 18q29 -88 162 -88q106 0 160.5 50t54.5 145v110q-83 -162 -299 -162q-195 0 -321.5 146.5t-126.5 376.5q0 250 122.5 398t321.5 148q217 0 305 -190l6 166h306v-950
q0 -238 -141.5 -361t-387.5 -123zM612 299q96 0 152.5 73t56.5 216q1 142 -56 217.5t-153 75.5q-104 0 -159.5 -74t-55.5 -219t56 -217t159 -72z" />
    <glyph glyph-name="uni01E8" unicode="&#x1e8;" 
d="M227 1886h222l114 -176l113 176h223l-203 -327h-268zM90 0v1454h330v-547l348 547h391l-440 -631l444 -823h-354l-281 553l-108 -156v-397h-330z" />
    <glyph glyph-name="uni01E9" unicode="&#x1e9;" 
d="M-59 1886h221l114 -176l113 176h223l-202 -327h-269zM102 0v1454h314v-797l381 445h362l-411 -473l430 -629h-355l-280 430l-127 -141v-289h-314z" />
    <glyph glyph-name="uni0218" unicode="&#x218;" 
d="M623 -33q-250 0 -385.5 138.5t-153.5 396.5l330 14q37 -262 227 -262q80 0 126 36t46 103q0 79 -61 130.5t-213 88.5q-112 27 -188.5 61t-132 83.5t-81.5 118t-26 161.5q0 210 132 330.5t373 120.5q236 0 369 -127t148 -369l-334 -14q-14 108 -64.5 165.5t-134.5 57.5
q-72 0 -115 -39.5t-43 -105.5q0 -73 59.5 -116t217.5 -81q233 -57 329.5 -164.5t96.5 -283.5q0 -206 -137.5 -324.5t-384.5 -118.5zM449 -528l129 188h-93v242h281v-217l-154 -213h-163z" />
    <glyph glyph-name="uni0219" unicode="&#x219;" 
d="M623 -25q-120 0 -214 29t-154 80t-93 117t-41 145l305 10q20 -61 66 -93t133 -32q86 0 123.5 18t37.5 56q0 40 -34.5 61t-153.5 46q-257 56 -356 133.5t-99 230.5q0 151 119.5 250.5t343.5 99.5q101 0 183 -21t136.5 -56t93 -84.5t58.5 -101.5t27 -111l-309 -13
q-11 61 -60.5 96t-126.5 35q-72 0 -108.5 -28t-36.5 -66q0 -50 47.5 -76t194.5 -57q233 -51 318 -121t85 -211q0 -159 -125 -247.5t-360 -88.5zM440 -528l131 188h-92v242h279v-217l-154 -213h-164z" />
    <glyph glyph-name="uni021A" unicode="&#x21a;" 
d="M449 0v1161h-367v293h1065v-293h-367v-1161h-331zM436 -528l131 188h-92v242h279v-217l-154 -213h-164z" />
    <glyph glyph-name="uni021B" unicode="&#x21b;" 
d="M762 0q-194 0 -284.5 87t-90.5 271v500h-301v244h301v258h313v-258h398v-244h-398v-465q0 -149 150 -149h248v-244h-336zM526 -528l131 188h-92v242h279v-217l-154 -213h-164z" />
    <glyph glyph-name="uni0237" unicode="&#x237;" 
d="M193 -307v244h294q93 0 137 43t44 137v741h-469v244h780v-993q0 -203 -118 -309.5t-343 -106.5h-325z" />
    <glyph glyph-name="uni0259" unicode="&#x259;" 
d="M610 1126q234 0 381.5 -157.5t147.5 -417.5q0 -255 -147 -415.5t-380 -160.5t-379.5 161t-146.5 421v76h733q-10 105 -68 163t-149 58q-66 0 -114 -31.5t-68 -87.5l-309 23q122 368 499 368zM813 432h-391q9 -90 59.5 -137t134.5 -47t135.5 47.5t61.5 136.5z" />
    <glyph glyph-name="uni02B9" unicode="&#x2b9;" 
d="M385 1212l125 316h334l-185 -316h-274z" />
    <glyph glyph-name="uni02BC" unicode="&#x2bc;" 
d="M467 803l104 323h-143v328h344v-297l-141 -354h-164z" />
    <glyph glyph-name="circumflex" unicode="&#x2c6;" 
d="M279 1206l202 328h267l202 -328h-221l-115 176l-114 -176h-221z" />
    <glyph glyph-name="caron" unicode="&#x2c7;" 
d="M279 1534h221l114 -176l115 176h221l-202 -328h-267z" />
    <glyph glyph-name="uni02C8" unicode="&#x2c8;" 
d="M524 874l-26 404v176h233v-176l-26 -404h-181z" />
    <glyph glyph-name="breve" unicode="&#x2d8;" 
d="M614 1204q-139 0 -226 85t-93 229h184q11 -132 135 -132q125 0 136 132h184q-6 -144 -93.5 -229t-226.5 -85z" />
    <glyph glyph-name="dotaccent" unicode="&#x2d9;" 
d="M457 1225v256h315v-256h-315z" />
    <glyph glyph-name="ring" unicode="&#x2da;" 
d="M614 1176q-95 0 -158 61.5t-63 153.5t63 153.5t158 61.5t158.5 -61.5t63.5 -153.5t-63.5 -153.5t-158.5 -61.5zM614 1309q37 0 58.5 22.5t21.5 59.5t-22 60.5t-58 23.5t-57.5 -23.5t-21.5 -60.5t21.5 -59.5t57.5 -22.5z" />
    <glyph glyph-name="ogonek" unicode="&#x2db;" 
d="M596 -451q-101 0 -161 52.5t-60 136.5q0 97 86 207l71 92l226 -37l-64 -82q-61 -80 -61 -121q0 -23 15 -36t40 -13q49 0 88 31l55 -166q-34 -25 -99 -44.5t-136 -19.5z" />
    <glyph glyph-name="tilde" unicode="&#x2dc;" 
d="M741 1223q-77 0 -157 61q-49 41 -90 41q-69 0 -74 -115h-150q6 301 211 301q84 0 168 -65q48 -37 86 -37q33 0 51.5 27t22.5 92h149q-4 -158 -58.5 -231.5t-158.5 -73.5z" />
    <glyph glyph-name="hungarumlaut" unicode="&#x2dd;" 
d="M193 1206l124 316h334l-184 -316h-274zM578 1206l124 316h334l-184 -316h-274z" />
    <glyph glyph-name="gravecomb" unicode="&#x300;" horiz-adv-x="0" 
d="M569 1212l-184 316h334l125 -316h-275z" />
    <glyph glyph-name="acutecomb" unicode="&#x301;" horiz-adv-x="0" 
d="M385 1212l125 316h334l-185 -316h-274z" />
    <glyph glyph-name="uni0302" unicode="&#x302;" horiz-adv-x="0" 
d="M279 1206l202 328h267l202 -328h-221l-115 176l-114 -176h-221z" />
    <glyph glyph-name="tildecomb" unicode="&#x303;" horiz-adv-x="0" 
d="M741 1223q-77 0 -157 61q-49 41 -90 41q-69 0 -74 -115h-150q6 301 211 301q84 0 168 -65q48 -37 86 -37q33 0 51.5 27t22.5 92h149q-4 -158 -58.5 -231.5t-158.5 -73.5z" />
    <glyph glyph-name="uni0304" unicode="&#x304;" horiz-adv-x="0" 
d="M313 1235v227h602v-227h-602z" />
    <glyph glyph-name="uni0306" unicode="&#x306;" horiz-adv-x="0" 
d="M614 1204q-139 0 -226 85t-93 229h184q11 -132 135 -132q125 0 136 132h184q-6 -144 -93.5 -229t-226.5 -85z" />
    <glyph glyph-name="uni0307" unicode="&#x307;" horiz-adv-x="0" 
d="M457 1225v256h315v-256h-315z" />
    <glyph glyph-name="uni0308" unicode="&#x308;" horiz-adv-x="0" 
d="M242 1219v256h315v-256h-315zM672 1219v256h315v-256h-315z" />
    <glyph glyph-name="uni030A" unicode="&#x30a;" horiz-adv-x="0" 
d="M614 1176q-95 0 -158 61.5t-63 153.5t63 153.5t158 61.5t158.5 -61.5t63.5 -153.5t-63.5 -153.5t-158.5 -61.5zM614 1309q37 0 58.5 22.5t21.5 59.5t-22 60.5t-58 23.5t-57.5 -23.5t-21.5 -60.5t21.5 -59.5t57.5 -22.5z" />
    <glyph glyph-name="uni030B" unicode="&#x30b;" horiz-adv-x="0" 
d="M193 1206l124 316h334l-184 -316h-274zM578 1206l124 316h334l-184 -316h-274z" />
    <glyph glyph-name="uni030C" unicode="&#x30c;" horiz-adv-x="0" 
d="M279 1534h221l114 -176l115 176h221l-202 -328h-267z" />
    <glyph glyph-name="uni0312" unicode="&#x312;" horiz-adv-x="0" 
d="M793 1634l-131 -186h92v-244h-279v219l154 211h164z" />
    <glyph glyph-name="uni0326" unicode="&#x326;" horiz-adv-x="0" 
d="M436 -528l131 188h-92v242h279v-217l-154 -213h-164z" />
    <glyph glyph-name="uni0327" unicode="&#x327;" horiz-adv-x="0" 
d="M629 -483q-102 0 -172 46.5t-99 125.5l146 65q31 -78 117 -78q43 0 68.5 19.5t25.5 54.5q0 37 -27.5 56.5t-97.5 19.5l-92 84l63 110h191l-52 -81q98 -10 147.5 -64t49.5 -133q0 -112 -75.5 -168.5t-192.5 -56.5z" />
    <glyph glyph-name="uni0328" unicode="&#x328;" horiz-adv-x="0" 
d="M596 -451q-101 0 -161 52.5t-60 136.5q0 97 86 207l71 92l226 -37l-64 -82q-61 -80 -61 -121q0 -23 15 -36t40 -13q49 0 88 31l55 -166q-34 -25 -99 -44.5t-136 -19.5z" />
    <glyph glyph-name="uni0335" unicode="&#x335;" horiz-adv-x="0" 
d="M258 551v190h713v-190h-713z" />
    <glyph glyph-name="uni0336" unicode="&#x336;" horiz-adv-x="0" 
d="M25 985v250h1179v-250h-1179z" />
    <glyph glyph-name="uni0337" unicode="&#x337;" horiz-adv-x="0" 
d="M225 575v224l779 245v-223z" />
    <glyph glyph-name="uni0338" unicode="&#x338;" horiz-adv-x="0" 
d="M131 -33l758 1159h209l-758 -1159h-209z" />
    <glyph glyph-name="Lambda" unicode="&#x39b;" 
d="M35 0l438 1454h283l438 -1454h-287l-293 1028l-292 -1028h-287z" />
    <glyph glyph-name="uni03A9" unicode="&#x3a9;" 
d="M18 0v244h306q-143 89 -225.5 244t-82.5 335q0 188 77.5 340t214.5 238t306 86t306 -86t214.5 -238t77.5 -340q0 -180 -82.5 -335t-226.5 -244h307v-244h-528v252q68 13 123 84.5t86 184.5t31 245q0 212 -85 341.5t-223 129.5t-223.5 -129.5t-85.5 -341.5q0 -200 69 -346
t171 -168v-252h-527z" />
    <glyph glyph-name="lambda" unicode="&#x3bb;" 
d="M74 0l387 1020l-37 115q-21 61 -47.5 88.5t-79.5 27.5h-107v232h166q127 0 198 -63.5t122 -219.5l280 -852q19 -62 47.5 -89.5t77.5 -27.5h80v-231h-104q-264 0 -355 283l-112 346l-232 -629h-284z" />
    <glyph glyph-name="pi" unicode="&#x3c0;" 
d="M223 0v881h-192v239h1163v-239h-186v-512q0 -59 32 -95t88 -36h66v-238h-66q-387 0 -387 387v494h-252v-881h-266z" />
    <glyph glyph-name="uni0400" unicode="&#x400;" 
d="M508 1567l-184 315h333l125 -315h-274zM168 0v1454h917v-293h-587v-289h563v-286h-563v-293h604v-293h-934z" />
    <glyph glyph-name="uni0401" unicode="&#x401;" 
d="M262 1573v256h316v-256h-316zM692 1573v256h316v-256h-316zM168 0v1454h917v-293h-587v-289h563v-286h-563v-293h604v-293h-934z" />
    <glyph glyph-name="uni0402" unicode="&#x402;" 
d="M229 0v1204h-219v250h789v-250h-295v-381q45 69 115.5 106.5t158.5 37.5q195 0 312.5 -127.5t117.5 -339.5q0 -230 -144.5 -365t-391.5 -135v250q115 0 181.5 64t66.5 175q0 102 -55 163t-146 61q-98 0 -156.5 -81t-58.5 -218v-414h-275z" />
    <glyph glyph-name="uni0403" unicode="&#x403;" 
d="M520 1565l127 315h332l-184 -315h-275zM182 0v1454h955v-250h-680v-1204h-275z" />
    <glyph glyph-name="uni0404" unicode="&#x404;" 
d="M614 -33q-263 0 -408 203.5t-145 554.5q0 352 145.5 557t407.5 205q223 0 362.5 -148t176.5 -413h-289q-47 311 -250 311q-114 0 -179.5 -98.5t-80.5 -290.5h332v-248h-330q30 -383 258 -383q200 0 250 303h289q-40 -261 -179 -407t-360 -146z" />
    <glyph glyph-name="uni0405" unicode="&#x405;" 
d="M623 -33q-250 0 -385.5 138.5t-153.5 396.5l330 14q37 -262 227 -262q80 0 126 36t46 103q0 79 -61 130.5t-213 88.5q-112 27 -188.5 61t-132 83.5t-81.5 118t-26 161.5q0 210 132 330.5t373 120.5q236 0 369 -127t148 -369l-334 -14q-14 108 -64.5 165.5t-134.5 57.5
q-72 0 -115 -39.5t-43 -105.5q0 -73 59.5 -116t217.5 -81q233 -57 329.5 -164.5t96.5 -283.5q0 -206 -137.5 -324.5t-384.5 -118.5z" />
    <glyph glyph-name="uni0406" unicode="&#x406;" 
d="M147 0v293h302v868h-302v293h934v-293h-301v-868h301v-293h-934z" />
    <glyph glyph-name="uni0407" unicode="&#x407;" 
d="M242 1571v256h315v-256h-315zM672 1571v256h315v-256h-315zM147 0v293h302v868h-302v293h934v-293h-301v-868h301v-293h-934z" />
    <glyph glyph-name="uni0408" unicode="&#x408;" 
d="M567 -33q-235 0 -366.5 147.5t-134.5 415.5l331 17q4 -157 44 -225t126 -68t125 60.5t39 195.5v944h330v-944q0 -259 -129.5 -401t-364.5 -142z" />
    <glyph glyph-name="uni0409" unicode="&#x409;" 
d="M6 0v291h17q61 0 96 39t37 110l32 1014h631v-506h41q182 0 275.5 -122.5t93.5 -350.5q0 -230 -93 -352.5t-276 -122.5h-315v1214h-103l-18 -843q-3 -168 -102 -269.5t-259 -101.5h-57zM819 250h27q55 0 79.5 53.5t24.5 171.5q0 116 -24.5 169.5t-79.5 53.5h-27v-448z" />
    <glyph glyph-name="uni040A" unicode="&#x40a;" 
d="M25 0v1454h258v-506h174v506h258v-506h53q211 0 323.5 -123t112.5 -350q0 -228 -112.5 -351.5t-323.5 -123.5h-311v698h-174v-698h-258zM715 250h22q97 0 140 53.5t43 171.5q0 117 -43 170t-140 53h-22v-448z" />
    <glyph glyph-name="uni040B" unicode="&#x40b;" 
d="M229 0v1204h-219v250h789v-250h-295v-383q44 69 113.5 107.5t150.5 38.5q179 0 289 -119t110 -318v-530h-274v430q0 129 -52.5 208t-135.5 79q-84 0 -142.5 -80t-58.5 -207v-430h-275z" />
    <glyph glyph-name="uni040C" unicode="&#x40c;" 
d="M475 1565l125 315h334l-184 -315h-275zM90 0v1454h275v-706l479 706h321l-497 -727l518 -727h-324l-497 707v-707h-275z" />
    <glyph glyph-name="uni040D" unicode="&#x40d;" 
d="M487 1565l-184 315h334l125 -315h-275zM1102 0h-314v836l-366 -836h-295v1454h313v-836l367 836h295v-1454z" />
    <glyph glyph-name="uni040E" unicode="&#x40e;" 
d="M625 1556q-139 0 -226.5 85t-93.5 229h184q10 -131 136 -131q122 0 135 131h184q-6 -144 -93 -229t-226 -85zM240 0v250h129q52 0 80.5 17t42.5 61l38 108h-84l-385 1018h301l263 -749l254 749h297l-428 -1239q-38 -112 -116.5 -163.5t-205.5 -51.5h-186z" />
    <glyph glyph-name="uni040F" unicode="&#x40f;" 
d="M479 -307v307h-381v1454h275v-1204h483v1204h274v-1454h-376v-307h-275z" />
    <glyph glyph-name="uni0410" unicode="&#x410;" 
d="M33 0l385 1454h393l385 -1454h-330l-67 274h-369l-68 -274h-329zM614 1038l-116 -481h233z" />
    <glyph glyph-name="uni0411" unicode="&#x411;" 
d="M147 0v1454h936v-250h-606v-256h150q226 0 369 -131t143 -342q0 -210 -143.5 -342.5t-368.5 -132.5h-480zM477 293h115q209 0 209 182q0 180 -209 180h-115v-362z" />
    <glyph glyph-name="uni0412" unicode="&#x412;" 
d="M125 0v1454h459q247 0 378.5 -97.5t131.5 -289.5q0 -263 -289 -315q179 -24 264.5 -117.5t85.5 -239.5q0 -395 -528 -395h-502zM455 874h125q86 0 131 39t45 111q0 68 -45.5 105.5t-130.5 37.5h-125v-293zM455 287l172 2q93 1 141.5 39.5t48.5 109.5q0 77 -49 118.5
t-141 41.5h-172v-311z" />
    <glyph glyph-name="uni0413" unicode="&#x413;" 
d="M182 0v1454h955v-250h-680v-1204h-275z" />
    <glyph glyph-name="uni0414" unicode="&#x414;" 
d="M20 -307v557h21q82 0 135 69.5t68 200.5l106 934h682v-1204h164v-557h-274v307h-627v-307h-275zM436 250h322v954h-168l-72 -704q-14 -157 -82 -250z" />
    <glyph glyph-name="uni0415" unicode="&#x415;" 
d="M168 0v1454h917v-293h-587v-289h563v-286h-563v-293h604v-293h-934z" />
    <glyph glyph-name="uni0416" unicode="&#x416;" 
d="M6 0l213 727l-205 727h281l182 -647v647h275v-647l182 647h280l-204 -727l213 -727h-281l-190 651v-651h-275v651l-190 -651h-281z" />
    <glyph glyph-name="uni0417" unicode="&#x417;" 
d="M631 -33q-244 0 -404.5 118.5t-169.5 324.5l291 12q7 -95 81 -150t185 -55q124 0 195.5 56.5t71.5 152.5q0 107 -74.5 168.5t-190.5 58.5l-129 -2v244l129 -2q90 -2 151.5 44.5t61.5 139.5q0 73 -57 116.5t-160 43.5q-96 0 -155.5 -40t-67.5 -107l-291 12q20 175 163 280
t370 105q220 0 354.5 -107t134.5 -278q0 -117 -70 -198.5t-196 -117.5q149 -37 232 -140t83 -234q0 -196 -150.5 -320.5t-387.5 -124.5z" />
    <glyph glyph-name="uni0418" unicode="&#x418;" 
d="M1102 0h-314v836l-366 -836h-295v1454h313v-836l367 836h295v-1454z" />
    <glyph glyph-name="uni0419" unicode="&#x419;" 
d="M614 1556q-139 0 -226 85t-93 229h184q10 -131 135 -131q126 0 136 131h184q-6 -144 -93.5 -229t-226.5 -85zM1102 0h-314v836l-366 -836h-295v1454h313v-836l367 836h295v-1454z" />
    <glyph glyph-name="uni041A" unicode="&#x41a;" 
d="M90 0v1454h275v-706l479 706h321l-497 -727l518 -727h-324l-497 707v-707h-275z" />
    <glyph glyph-name="uni041B" unicode="&#x41b;" 
d="M33 0v291h92q59 0 93 39t40 110l94 1014h789v-1454h-275v1214h-264l-76 -843q-15 -172 -109 -271.5t-251 -99.5h-133z" />
    <glyph glyph-name="uni041C" unicode="&#x41c;" 
d="M524 213l-141 600v-813h-297v1454h348l180 -686l181 686h348v-1454h-297v813l-141 -600h-181z" />
    <glyph glyph-name="uni041D" unicode="&#x41d;" 
d="M90 0v1454h330v-575h389v575h330v-1454h-330v584h-389v-584h-330z" />
    <glyph glyph-name="uni041E" unicode="&#x41e;" 
d="M614 -33q-266 0 -409.5 196.5t-143.5 561.5t144 563.5t409 198.5t409 -198.5t144 -563.5t-143.5 -561.5t-409.5 -196.5zM614 254q108 0 161.5 112t53.5 359t-53.5 361t-161.5 114t-161.5 -114t-53.5 -361t53.5 -359t161.5 -112z" />
    <glyph glyph-name="uni041F" unicode="&#x41f;" 
d="M98 0v1454h1032v-1454h-274v1204h-483v-1204h-275z" />
    <glyph glyph-name="uni0420" unicode="&#x420;" 
d="M152 0v1454h479q225 0 368.5 -132.5t143.5 -342.5q0 -211 -143 -342t-369 -131h-150v-506h-329zM481 799h115q209 0 209 180q0 182 -209 182h-115v-362z" />
    <glyph glyph-name="uni0421" unicode="&#x421;" 
d="M625 -33q-267 0 -415.5 202t-148.5 556q0 356 148.5 559t415.5 203q219 0 357 -145.5t173 -413.5l-334 -15q-19 138 -70 212.5t-126 74.5q-108 0 -167 -123.5t-59 -351.5q0 -226 59 -348.5t167 -122.5q75 0 128.5 79t71.5 224l334 -14q-35 -276 -174 -426t-360 -150z" />
    <glyph glyph-name="uni0422" unicode="&#x422;" 
d="M449 0v1161h-367v293h1065v-293h-367v-1161h-331z" />
    <glyph glyph-name="uni0423" unicode="&#x423;" 
d="M240 0v250h129q52 0 80.5 17t42.5 61l38 108h-84l-385 1018h301l263 -749l254 749h297l-428 -1239q-38 -112 -116.5 -163.5t-205.5 -51.5h-186z" />
    <glyph glyph-name="uni0424" unicode="&#x424;" 
d="M477 0v162q-203 38 -318.5 187.5t-115.5 377.5t115.5 377.5t318.5 187.5v162h275v-162q203 -38 318.5 -187.5t115.5 -377.5t-115.5 -377.5t-318.5 -187.5v-162h-275zM897 727q0 105 -38 182t-107 115v-592q69 37 107 113.5t38 181.5zM332 727q0 -105 38 -181.5
t107 -113.5v590q-69 -37 -107 -113.5t-38 -181.5z" />
    <glyph glyph-name="uni0425" unicode="&#x425;" 
d="M59 0l330 733l-323 721h358l194 -483l195 483h350l-323 -725l329 -729h-358l-201 496l-198 -496h-353z" />
    <glyph glyph-name="uni0426" unicode="&#x426;" 
d="M932 -307v307h-883v1454h275v-1204h481v1204h274v-1204h127v-557h-274z" />
    <glyph glyph-name="uni0427" unicode="&#x427;" 
d="M811 0v639q-105 -152 -309 -152q-179 0 -289.5 119.5t-110.5 317.5v530h275v-430q0 -130 51.5 -208.5t132.5 -78.5q113 0 181.5 78.5t68.5 208.5v430h274v-1454h-274z" />
    <glyph glyph-name="uni0428" unicode="&#x428;" 
d="M72 0v1454h274v-1204h146v1204h245v-1204h146v1204h274v-1454h-1085z" />
    <glyph glyph-name="uni0429" unicode="&#x429;" 
d="M47 0v1454h264v-1204h142v1204h235v-1204h141v1204h267v-1204h110v-557h-274v307h-885z" />
    <glyph glyph-name="uni042A" unicode="&#x42a;" 
d="M37 1204v250h481v-506h148q227 0 370.5 -131t143.5 -342q0 -210 -144 -342.5t-370 -132.5h-478v1204h-151zM518 655v-362h115q209 0 209 182q0 180 -209 180h-115z" />
    <glyph glyph-name="uni042B" unicode="&#x42b;" 
d="M39 0v1454h274v-506h41q236 0 358 -120t122 -353q0 -236 -121.5 -355.5t-358.5 -119.5h-315zM915 0v1454h275v-1454h-275zM313 250h41q189 0 189 225q0 223 -189 223h-41v-448z" />
    <glyph glyph-name="uni042C" unicode="&#x42c;" 
d="M152 1454h329v-506h150q226 0 369 -131t143 -342q0 -210 -143.5 -342.5t-368.5 -132.5h-479v1454zM481 655v-362h115q209 0 209 182q0 180 -209 180h-115z" />
    <glyph glyph-name="uni042D" unicode="&#x42d;" 
d="M614 -33q-221 0 -359.5 146t-178.5 407h289q50 -303 249 -303q228 0 258 383h-329v248h331q-15 192 -80.5 290.5t-179.5 98.5q-202 0 -249 -311h-289q37 265 176 413t362 148q262 0 407.5 -205t145.5 -557q0 -351 -145 -554.5t-408 -203.5z" />
    <glyph glyph-name="uni042E" unicode="&#x42e;" 
d="M33 0v1454h274v-602h107q13 329 107 482t282 153q205 0 299 -182t94 -580q0 -395 -94 -576.5t-299 -181.5q-188 0 -282 153t-107 484h-107v-604h-274zM803 217q63 0 92 121t29 387q0 269 -29 390.5t-92 121.5t-91 -121t-28 -391q0 -267 28 -387.5t91 -120.5z" />
    <glyph glyph-name="uni042F" unicode="&#x42f;" 
d="M1102 0h-330v508h-131l-221 -508h-352l292 584q-241 125 -241 415q0 221 133 338t381 117h469v-1454zM772 803v358h-133q-182 0 -182 -180q0 -91 45 -134.5t137 -43.5h133z" />
    <glyph glyph-name="uni0430" unicode="&#x430;" 
d="M455 -25q-157 0 -262 85t-105 231q0 252 330 327l319 70q0 97 -36 147t-119 50q-71 0 -111.5 -37.5t-50.5 -97.5l-322 16q31 164 158.5 262t316.5 98q478 0 478 -458v-365q0 -76 55 -76h37v-227q-40 -10 -103 -10q-106 0 -173 46.5t-91 131.5q-33 -88 -116.5 -140.5
t-204.5 -52.5zM524 203q101 0 157 56t56 161v55l-213 -49q-62 -13 -88 -41.5t-26 -81.5q0 -48 29 -74t85 -26z" />
    <glyph glyph-name="uni0431" unicode="&#x431;" 
d="M618 -33q-226 0 -382 187q-146 176 -146 497q0 269 94 448.5t269 260.5q87 42 120 88.5t33 130.5l260 2q0 -164 -57.5 -261t-200.5 -165q-94 -47 -145 -104.5t-72 -153.5q95 109 252 109q224 0 360 -141t136 -376q0 -238 -142.5 -380t-378.5 -142zM616 203
q110 0 176 78.5t66 207.5q0 128 -64.5 204.5t-172.5 76.5t-174.5 -76.5t-67.5 -204.5q-2 -131 62.5 -208.5t174.5 -77.5z" />
    <glyph glyph-name="uni0432" unicode="&#x432;" 
d="M193 0v1102h401q211 0 320.5 -77.5t109.5 -227.5q0 -101 -63.5 -159.5t-186.5 -68.5q295 -21 295 -258q0 -153 -117.5 -232t-345.5 -79h-413zM459 657h149q72 0 111 27.5t39 79.5q0 50 -39.5 77t-110.5 27h-149v-211zM459 233h192q74 0 113 30t39 87q0 55 -39.5 84
t-112.5 29h-192v-230z" />
    <glyph glyph-name="uni0433" unicode="&#x433;" 
d="M268 0v1102h813v-238h-534v-864h-279z" />
    <glyph glyph-name="uni0434" unicode="&#x434;" 
d="M33 -311v549h69q122 0 150 213l90 651h688v-864h166v-549h-266v311h-623l-8 -311h-266zM524 442q-15 -123 -67 -204h307v626h-189z" />
    <glyph glyph-name="uni0435" unicode="&#x435;" 
d="M618 -25q-234 0 -381 158t-147 418q0 255 146.5 415t379.5 160t380 -160.5t147 -420.5v-76h-733q10 -105 68 -163t149 -58q66 0 114 31.5t68 87.5l309 -23q-122 -369 -500 -369zM416 670h391q-9 90 -60 137t-135 47t-135 -47.5t-61 -136.5z" />
    <glyph glyph-name="uni0436" unicode="&#x436;" 
d="M10 0l238 551l-219 551h284l170 -475v475h265v-471l167 471h285l-219 -551l238 -551h-285l-186 477v-477h-265v481l-188 -481h-285z" />
    <glyph glyph-name="uni0437" unicode="&#x437;" 
d="M623 -25q-224 0 -360 102.5t-144 276.5l282 8q3 -70 61.5 -110.5t153.5 -40.5q96 0 152.5 36t56.5 97q0 66 -60 104.5t-161 38.5h-84v191h84q85 0 134.5 33t49.5 90q0 46 -48 73t-128 27q-79 0 -127 -25t-51 -69l-282 10q14 141 141 225t328 84q207 0 327.5 -81.5
t120.5 -219.5q0 -84 -60 -144.5t-167 -88.5q122 -31 190 -104t68 -173q0 -157 -128.5 -248.5t-348.5 -91.5z" />
    <glyph glyph-name="uni0438" unicode="&#x438;" 
d="M160 0v1102h266v-678l369 678h276v-1102h-266v659l-359 -659h-286z" />
    <glyph glyph-name="uni0439" unicode="&#x439;" 
d="M616 1204q-139 0 -226 85t-93 229h184q11 -132 135 -132q125 0 136 132h184q-6 -144 -93.5 -229t-226.5 -85zM160 0v1102h266v-678l369 678h276v-1102h-266v659l-359 -659h-286z" />
    <glyph glyph-name="uni043A" unicode="&#x43a;" 
d="M129 0v1102h266v-529l408 529h340l-436 -551l460 -551h-344l-428 528v-528h-266z" />
    <glyph glyph-name="uni043B" unicode="&#x43b;" 
d="M53 0v242h53q105 0 119 147l74 713h811v-1102h-266v864h-305l-58 -559q-14 -145 -87.5 -225t-203.5 -80h-137z" />
    <glyph glyph-name="uni043C" unicode="&#x43c;" 
d="M53 0l4 1102h301l260 -783l259 783h299v-1102h-267v532l-182 -532h-219l-184 537l-5 -537h-266z" />
    <glyph glyph-name="uni043D" unicode="&#x43d;" 
d="M133 0v1104h279v-438h405v436h279v-1102h-279v430h-405v-430h-279z" />
    <glyph glyph-name="uni043E" unicode="&#x43e;" 
d="M614 -25q-237 0 -382.5 157.5t-145.5 418.5t145.5 418t382.5 157q238 0 383.5 -157t145.5 -418t-146 -418.5t-383 -157.5zM614 248q99 0 152 77.5t53 225.5t-53 225.5t-152 77.5t-151.5 -77.5t-52.5 -225.5t52.5 -225.5t151.5 -77.5z" />
    <glyph glyph-name="uni043F" unicode="&#x43f;" 
d="M129 0v1102h971v-1102h-264v864h-443v-864h-264z" />
    <glyph glyph-name="uni0440" unicode="&#x440;" 
d="M98 -307v1409h303l9 -182q94 206 325 206q136 0 233 -75.5t144 -204t47 -295.5t-47 -295.5t-144 -204.5t-233 -76q-222 0 -323 179v-461h-314zM627 248q209 0 209 303t-209 303q-97 0 -156 -75.5t-59 -227.5t59 -227.5t156 -75.5z" />
    <glyph glyph-name="uni0441" unicode="&#x441;" 
d="M631 -25q-239 0 -390 160.5t-151 415.5t151 415t390 160q200 0 342 -120t168 -316l-310 -14q-19 86 -70 132t-128 46q-102 0 -159.5 -80.5t-57.5 -222.5t57.5 -222.5t159.5 -80.5q78 0 130 48t71 138l309 -16q-26 -198 -168.5 -320.5t-343.5 -122.5z" />
    <glyph glyph-name="uni0442" unicode="&#x442;" 
d="M483 0v848h-364v254h991v-254h-362v-848h-265z" />
    <glyph glyph-name="uni0443" unicode="&#x443;" 
d="M221 -307v244h156q54 0 83 16t44 57l26 76h-96l-379 1016h322l250 -715l225 715h324l-416 -1186q-41 -119 -127 -171t-223 -52h-189z" />
    <glyph glyph-name="uni0444" unicode="&#x444;" 
d="M483 -307v356q-222 31 -343.5 163t-121.5 345t121.5 346t343.5 162v389h265v-389q220 -31 340 -163.5t120 -344.5t-120 -343.5t-340 -162.5v-358h-265zM301 557q0 -203 182 -260v522q-182 -60 -182 -262zM928 557q0 98 -46 165t-134 95v-520q88 28 134 95t46 165z" />
    <glyph glyph-name="uni0445" unicode="&#x445;" 
d="M55 0l387 563l-370 539h336l206 -324l205 324h336l-364 -539l383 -563h-334l-226 352l-223 -352h-336z" />
    <glyph glyph-name="uni0446" unicode="&#x446;" 
d="M940 -307v307h-844v1102h264v-864h443v864h264v-864h139v-545h-266z" />
    <glyph glyph-name="uni0447" unicode="&#x447;" 
d="M803 0v479q-46 -71 -122.5 -111t-172.5 -40q-182 0 -285.5 120.5t-103.5 325.5v328h264v-262q0 -130 52.5 -204.5t146.5 -74.5q99 0 160 75.5t61 203.5v262h266v-1102h-266z" />
    <glyph glyph-name="uni0448" unicode="&#x448;" 
d="M72 0v1102h266v-869h151v869h250v-869h154v869h264v-1102h-1085z" />
    <glyph glyph-name="uni0449" unicode="&#x449;" 
d="M55 0v1102h256v-869h146v869h239v-869h41v3h107v866h254v-864h110v-549h-266v311h-887z" />
    <glyph glyph-name="uni044A" unicode="&#x44a;" 
d="M188 0v864h-168v238h435v-395h282q206 0 323.5 -96t117.5 -265q0 -161 -117.5 -253.5t-323.5 -92.5h-549zM455 236h245q197 0 197 118q0 119 -197 119h-245v-237z" />
    <glyph glyph-name="uni044B" unicode="&#x44b;" 
d="M47 0v1102h266v-395h78q440 0 440 -361q0 -172 -111 -259t-329 -87h-344zM915 0v1102h267v-1102h-267zM313 233h41q104 0 150.5 29t46.5 92q0 64 -47 92.5t-150 28.5h-41v-242z" />
    <glyph glyph-name="uni044C" unicode="&#x44c;" 
d="M139 0v1102h267v-395h282q206 0 323 -96t117 -265q0 -161 -117.5 -253.5t-322.5 -92.5h-549zM406 236h247q197 0 197 118q0 119 -197 119h-247v-237z" />
    <glyph glyph-name="uni044D" unicode="&#x44d;" 
d="M608 -25q-194 0 -331 117.5t-177 315.5h285q25 -93 83 -145t140 -52q87 0 146.5 58t81.5 161h-289v244h289q-22 103 -81.5 160t-146.5 57q-81 0 -140 -52t-85 -149h-283q38 199 176 317.5t332 118.5q228 0 374 -160t146 -415t-146 -415.5t-374 -160.5z" />
    <glyph glyph-name="uni044E" unicode="&#x44e;" 
d="M25 0v1102h266v-432h106q22 221 124 338.5t274 117.5q195 0 300 -149t105 -426t-105 -426.5t-300 -149.5q-172 0 -275 119t-123 340h-106v-434h-266zM795 211q133 0 133 340t-133 340q-65 0 -99 -86.5t-34 -253.5t34 -253.5t99 -86.5z" />
    <glyph glyph-name="uni044F" unicode="&#x44f;" 
d="M145 0l256 440q-99 54 -152.5 134t-53.5 174q0 170 118 262t338 92h393v-1102h-266v391h-121l-213 -391h-299zM629 625h149v243h-149q-72 0 -112 -32.5t-40 -92.5q0 -57 40 -87.5t112 -30.5z" />
    <glyph glyph-name="uni0450" unicode="&#x450;" 
d="M489 1210l-184 314h334l125 -314h-275zM618 -25q-234 0 -381 158t-147 418q0 255 146.5 415t379.5 160t380 -160.5t147 -420.5v-76h-733q10 -105 68 -163t149 -58q66 0 114 31.5t68 87.5l309 -23q-122 -369 -500 -369zM416 670h391q-9 90 -60 137t-135 47t-135 -47.5
t-61 -136.5z" />
    <glyph glyph-name="uni0451" unicode="&#x451;" 
d="M246 1214v259h313v-259h-313zM674 1214v259h315v-259h-315zM618 -25q-234 0 -381 158t-147 418q0 255 146.5 415t379.5 160t380 -160.5t147 -420.5v-76h-733q10 -105 68 -163t149 -58q66 0 114 31.5t68 87.5l309 -23q-122 -369 -500 -369zM416 670h391q-9 90 -60 137
t-135 47t-135 -47.5t-61 -136.5z" />
    <glyph glyph-name="uni0452" unicode="&#x452;" 
d="M215 0v1190h-192v178h192v107h266v-107h244v-178h-244v-262q41 95 119 146.5t178 51.5q139 0 221 -113t82 -304v-635q0 -178 -81.5 -281.5t-225.5 -103.5h-139v235h65q53 0 84 41t31 109v510q0 128 -37.5 196t-109.5 68q-86 0 -136.5 -70.5t-50.5 -193.5v-584h-266z" />
    <glyph glyph-name="uni0453" unicode="&#x453;" 
d="M537 1212l125 316h333l-184 -316h-274zM268 0v1102h813v-238h-534v-864h-279z" />
    <glyph glyph-name="uni0454" unicode="&#x454;" 
d="M621 -25q-228 0 -374.5 160.5t-146.5 415.5t146.5 415t374.5 160q194 0 331.5 -118.5t175.5 -317.5h-282q-26 97 -85 149t-140 52q-87 0 -146.5 -57t-81.5 -160h289v-244h-289q22 -103 81.5 -161t146.5 -58q82 0 140 52t83 145h284q-40 -198 -176.5 -315.5t-330.5 -117.5
z" />
    <glyph glyph-name="uni0455" unicode="&#x455;" 
d="M623 -25q-120 0 -214 29t-154 80t-93 117t-41 145l305 10q20 -61 66 -93t133 -32q86 0 123.5 18t37.5 56q0 40 -34.5 61t-153.5 46q-257 56 -356 133.5t-99 230.5q0 151 119.5 250.5t343.5 99.5q101 0 183 -21t136.5 -56t93 -84.5t58.5 -101.5t27 -111l-309 -13
q-11 61 -60.5 96t-126.5 35q-72 0 -108.5 -28t-36.5 -66q0 -50 47.5 -76t194.5 -57q233 -51 318 -121t85 -211q0 -159 -125 -247.5t-360 -88.5z" />
    <glyph glyph-name="uni0456" unicode="&#x456;" 
d="M524 1225v256h316v-256h-316zM131 0v244h399v614h-378v244h690v-858h338v-244h-1049z" />
    <glyph glyph-name="uni0457" unicode="&#x457;" 
d="M311 1219v256h314v-256h-314zM739 1219v256h316v-256h-316zM131 0v244h399v614h-378v244h690v-858h338v-244h-1049z" />
    <glyph glyph-name="uni0458" unicode="&#x458;" 
d="M666 1225v256h313v-256h-313zM193 -307v244h294q93 0 137 43t44 137v741h-469v244h780v-993q0 -203 -118 -309.5t-343 -106.5h-325z" />
    <glyph glyph-name="uni0459" unicode="&#x459;" 
d="M6 0v242h4q108 0 119 147l59 713h605v-395h51q187 0 287 -93.5t100 -267.5q0 -166 -100.5 -256t-286.5 -90h-318v864h-96l-41 -559q-9 -148 -85 -226.5t-206 -78.5h-92zM858 475h-65v-242h65q52 0 81.5 32t29.5 89t-29.5 89t-81.5 32z" />
    <glyph glyph-name="uni045A" unicode="&#x45a;" 
d="M33 0v1102h266v-393h207v393h264v-395h53q187 0 287 -93.5t100 -267.5q0 -166 -100.5 -256t-286.5 -90h-317v475h-207v-475h-266zM770 233h68q52 0 81 32t29 89t-29 89t-81 32h-68v-242z" />
    <glyph glyph-name="uni045B" unicode="&#x45b;" 
d="M145 0v1176h-98v192h98v86h314v-86h301v-192h-301v-224q85 174 307 174q163 0 244.5 -109t81.5 -306v-711h-314v651q0 213 -141 213q-79 0 -128.5 -61t-49.5 -176v-627h-314z" />
    <glyph glyph-name="uni045C" unicode="&#x45c;" 
d="M461 1212l125 316h334l-185 -316h-274zM129 0v1102h266v-529l408 529h340l-436 -551l460 -551h-344l-428 528v-528h-266z" />
    <glyph glyph-name="uni045D" unicode="&#x45d;" 
d="M489 1212l-184 316h334l125 -316h-275zM160 0v1102h266v-678l369 678h276v-1102h-266v659l-359 -659h-286z" />
    <glyph glyph-name="uni045E" unicode="&#x45e;" 
d="M623 1204q-139 0 -226.5 85t-93.5 229h184q11 -132 136 -132q122 0 135 132h184q-6 -144 -93 -229t-226 -85zM221 -307v244h156q54 0 83 16t44 57l26 76h-96l-379 1016h322l250 -715l225 715h324l-416 -1186q-41 -119 -127 -171t-223 -52h-189z" />
    <glyph glyph-name="uni045F" unicode="&#x45f;" 
d="M483 -307v307h-354v1102h264v-864h443v864h264v-1102h-352v-307h-265z" />
    <glyph glyph-name="uni0462" unicode="&#x462;" 
d="M39 1075v203h158v176h329v-176h283v-203h-283v-127h148q227 0 370.5 -131t143.5 -342q0 -210 -144 -342.5t-370 -132.5h-477v1075h-158zM526 655v-362h115q207 0 207 182q0 180 -207 180h-115z" />
    <glyph glyph-name="uni0463" unicode="&#x463;" 
d="M252 0v1090h-240v188h240v197h266v-197h250v-188h-250v-340h191q227 0 358 -102.5t131 -280.5q0 -170 -131.5 -268.5t-357.5 -98.5h-457zM518 233h205q91 0 143 37.5t52 102.5q0 66 -52 104.5t-143 38.5h-205v-283z" />
    <glyph glyph-name="uni046A" unicode="&#x46a;" 
d="M2 0l131 506q29 122 72 187t108 85l-192 426v250h987v-250l-190 -428q62 -20 103.5 -84.5t72.5 -185.5l133 -506h-283l-90 389q-17 76 -40.5 109.5t-61.5 38.5v-537h-275v537q-38 -5 -61.5 -38.5t-40.5 -109.5l-90 -389h-283zM432 1204l182 -409l185 409h-367z" />
    <glyph glyph-name="uni046B" unicode="&#x46b;" 
d="M25 0l112 395q23 75 78.5 127.5t130.5 69.5l-256 272v238h1049v-238l-256 -274q73 -15 129 -68t78 -127l114 -395h-280l-74 301q-12 54 -35 75t-67 21v-397h-267v397q-47 -1 -69.5 -22t-34.5 -74l-74 -301h-278zM367 864l247 -264l250 264h-497z" />
    <glyph glyph-name="uni0472" unicode="&#x472;" 
d="M614 -33q-266 0 -409.5 196.5t-143.5 561.5t144 563.5t409 198.5t409 -198.5t144 -563.5t-143.5 -561.5t-409.5 -196.5zM600 868q146 -58 227 -61q-9 204 -62 298.5t-151 94.5q-84 0 -135 -69t-69 -216q99 -7 190 -47zM614 254q87 0 137.5 71t69.5 226q-83 8 -221 57
q-107 45 -199 45q7 -208 60 -303.5t153 -95.5z" />
    <glyph glyph-name="uni0473" unicode="&#x473;" 
d="M614 -25q-237 0 -382.5 157.5t-145.5 418.5t145.5 418t382.5 157q238 0 383.5 -157t145.5 -418t-146 -418.5t-383 -157.5zM594 680q88 -39 134 -50.5t87 -4.5q-12 112 -63.5 170.5t-137.5 58.5q-133 0 -180 -137q79 0 160 -37zM614 248q128 0 179 129q-79 10 -185 55
q-121 49 -186 33q-4 0 -6 -2q13 -106 64 -160.5t134 -54.5z" />
    <glyph glyph-name="uni0474" unicode="&#x474;" 
d="M477 0l-454 1454h286l291 -958l186 632q96 326 353 326h80v-250h-23q-52 0 -86.5 -37.5t-60.5 -124.5l-322 -1042h-250z" />
    <glyph glyph-name="uni0475" unicode="&#x475;" 
d="M461 0l-395 1102h288l246 -752l135 424q106 328 424 328h37v-254h-18q-131 0 -181 -141l-258 -707h-278z" />
    <glyph glyph-name="uni0490" unicode="&#x490;" 
d="M182 0v1454h701v318h274v-568h-700v-1204h-275z" />
    <glyph glyph-name="uni0491" unicode="&#x491;" 
d="M268 0v1102h535v321h278v-559h-534v-864h-279z" />
    <glyph glyph-name="uni0492" unicode="&#x492;" 
d="M182 0v549h-141v248h141v657h955v-250h-680v-407h481v-248h-481v-549h-275z" />
    <glyph glyph-name="uni0493" unicode="&#x493;" 
d="M268 0v403h-196v234h196v465h813v-238h-534v-227h201v-234h-201v-403h-279z" />
    <glyph glyph-name="uni0496" unicode="&#x496;" 
d="M6 0l201 727l-193 727h265l172 -647v647h258v-647l172 647h264l-191 -727l142 -518h129v-516h-264v307h-72l-180 651v-651h-258v651l-181 -651h-264z" />
    <glyph glyph-name="uni0497" unicode="&#x497;" 
d="M8 0l232 551l-213 551h276l164 -475v475h258v-471l162 471h274l-211 -551l166 -397h101v-461h-267v307h-45l-180 477v-477h-258v481l-182 -481h-277z" />
    <glyph glyph-name="uni049A" unicode="&#x49a;" 
d="M53 0v1454h275v-706l479 706h321l-497 -727l370 -518h185v-516h-275v307h-86l-497 707v-707h-275z" />
    <glyph glyph-name="uni049B" unicode="&#x49b;" 
d="M129 0v1102h266v-529l408 529h338l-434 -551l331 -397h129v-461h-264v307h-80l-428 528v-528h-266z" />
    <glyph glyph-name="uni04A2" unicode="&#x4a2;" 
d="M47 0v1454h330v-575h387v575h332v-1245h118v-516h-274v307h-176v584h-387v-584h-330z" />
    <glyph glyph-name="uni04A3" unicode="&#x4a3;" 
d="M117 0v1104h278v-438h406v436h278v-948h125v-461h-266v307h-137v430h-406v-430h-278z" />
    <glyph glyph-name="uni04AE" unicode="&#x4ae;" 
d="M451 0v610l-396 844h353l206 -504l207 504h353l-394 -844v-610h-329z" />
    <glyph glyph-name="uni04AF" unicode="&#x4af;" 
d="M483 -307v319l-409 1090h295l245 -744l246 744h295l-407 -1084v-325h-265z" />
    <glyph glyph-name="uni04B0" unicode="&#x4b0;" 
d="M129 391v250h305l-381 813h353l206 -504l207 504h352l-378 -813h303v-250h-318v-391h-329v391h-320z" />
    <glyph glyph-name="uni04B1" unicode="&#x4b1;" 
d="M201 -109v236h239l-366 975h295l245 -744l246 744h295l-367 -975h238v-236h-278v-198h-265v198h-282z" />
    <glyph glyph-name="uni04B2" unicode="&#x4b2;" 
d="M43 0l330 733l-324 721h359l194 -483l195 483h350l-324 -725l236 -520h145v-516h-274v307h-135l-201 496l-199 -496h-352z" />
    <glyph glyph-name="uni04B3" unicode="&#x4b3;" 
d="M55 0l387 563l-370 539h336l206 -324l205 324h336l-364 -539l278 -409h131v-461h-266v307h-94l-226 352l-223 -352h-336z" />
    <glyph glyph-name="uni04B6" unicode="&#x4b6;" 
d="M772 0v639q-50 -73 -129.5 -112.5t-179.5 -39.5q-179 0 -289.5 119.5t-110.5 317.5v530h275v-430q0 -130 51.5 -208.5t132.5 -78.5q113 0 181.5 78.5t68.5 208.5v430h275v-1245h151v-516h-274v307h-152z" />
    <glyph glyph-name="uni04B7" unicode="&#x4b7;" 
d="M778 0v479q-47 -72 -120.5 -111.5t-165.5 -39.5q-177 0 -277 120t-100 326v328h256v-262q0 -130 50.5 -204.5t141.5 -74.5q95 0 155 76t60 203v262h256v-948h170v-465h-264v311h-162z" />
    <glyph glyph-name="uni04BA" unicode="&#x4ba;" 
d="M418 1454v-639q50 73 129.5 112.5t179.5 39.5q179 0 289 -119t110 -318v-530h-274v430q0 130 -51.5 208.5t-132.5 78.5q-113 0 -181.5 -78.5t-68.5 -208.5v-430h-275v1454h275z" />
    <glyph glyph-name="uni04BB" unicode="&#x4bb;" 
d="M145 0v1454h314v-502q85 174 307 174q163 0 244.5 -109t81.5 -306v-711h-314v651q0 213 -141 213q-79 0 -128.5 -61t-49.5 -176v-627h-314z" />
    <glyph glyph-name="uni04C0" unicode="&#x4c0;" 
d="M147 0v293h302v868h-302v293h934v-293h-301v-868h301v-293h-934z" />
    <glyph glyph-name="uni04CF" unicode="&#x4cf;" 
d="M147 0v293h302v868h-302v293h934v-293h-301v-868h301v-293h-934z" />
    <glyph glyph-name="uni04D8" unicode="&#x4d8;" 
d="M618 -33q-268 0 -410 189.5t-142 535.5v144h770q0 101 -23 181t-75 131.5t-126 51.5q-153 0 -202 -213l-336 39q57 211 195 336t331 125q270 0 423 -201.5t153 -558.5q0 -350 -154.5 -555t-403.5 -205zM621 254q103 0 159 83.5t56 231.5h-424q0 -152 57.5 -233.5
t151.5 -81.5z" />
    <glyph glyph-name="uni04D9" unicode="&#x4d9;" 
d="M610 1126q234 0 381.5 -157.5t147.5 -417.5q0 -255 -147 -415.5t-380 -160.5t-379.5 161t-146.5 421v76h733q-10 105 -68 163t-149 58q-66 0 -114 -31.5t-68 -87.5l-309 23q122 368 499 368zM813 432h-391q9 -90 59.5 -137t134.5 -47t135.5 47.5t61.5 136.5z" />
    <glyph glyph-name="uni04E2" unicode="&#x4e2;" 
d="M313 1587v228h602v-228h-602zM1102 0h-314v836l-366 -836h-295v1454h313v-836l367 836h295v-1454z" />
    <glyph glyph-name="uni04E3" unicode="&#x4e3;" 
d="M315 1235v227h603v-227h-603zM160 0v1102h266v-678l369 678h276v-1102h-266v659l-359 -659h-286z" />
    <glyph glyph-name="uni04E8" unicode="&#x4e8;" 
d="M614 -33q-266 0 -409.5 196.5t-143.5 561.5t144 563.5t409 198.5t409 -198.5t144 -563.5t-143.5 -561.5t-409.5 -196.5zM614 1200q-95 0 -148 -89.5t-63 -279.5h422q-10 190 -63 279.5t-148 89.5zM614 254q91 0 143.5 79t65.5 249h-417q13 -170 65 -249t143 -79z" />
    <glyph glyph-name="uni04E9" unicode="&#x4e9;" 
d="M614 -25q-237 0 -382.5 157.5t-145.5 418.5t145.5 418t382.5 157q238 0 383.5 -157t145.5 -418t-146 -418.5t-383 -157.5zM614 854q-154 0 -192 -184h385q-38 184 -193 184zM614 248q157 0 195 186h-389q38 -186 194 -186z" />
    <glyph glyph-name="uni04EE" unicode="&#x4ee;" 
d="M324 1587v228h600v-228h-600zM240 0v250h129q52 0 80.5 17t42.5 61l38 108h-84l-385 1018h301l263 -749l254 749h297l-428 -1239q-38 -112 -116.5 -163.5t-205.5 -51.5h-186z" />
    <glyph glyph-name="uni04EF" unicode="&#x4ef;" 
d="M322 1235v227h600v-227h-600zM221 -307v244h156q54 0 83 16t44 57l26 76h-96l-379 1016h322l250 -715l225 715h324l-416 -1186q-41 -119 -127 -171t-223 -52h-189z" />
    <glyph glyph-name="uni0E3F" unicode="&#xe3f;" 
d="M100 0v1454h396v195h159v-199q205 -15 313.5 -112t108.5 -271q0 -124 -74 -206t-225 -109q179 -24 264.5 -117.5t85.5 -239.5q0 -375 -473 -393v-188h-159v186h-396zM414 874h82v293h-82v-293zM772 1024q0 116 -117 137v-280q117 24 117 143zM414 287h82v311h-82v-311z
M823 438q0 72 -43 113t-125 45v-307q83 6 125.5 44.5t42.5 104.5z" />
    <glyph glyph-name="uni1E20" unicode="&#x1e20;" 
d="M324 1587v228h600v-228h-600zM621 -33q-256 0 -408 202t-152 556t150 558t412 204q219 0 354 -133t182 -393l-336 -19q-39 254 -198 254q-108 0 -167 -122t-59 -349q0 -226 64.5 -346.5t183.5 -120.5q93 0 144.5 66.5t54.5 191.5h-230v248h535v-764h-205l-6 145
q-49 -81 -131.5 -129.5t-187.5 -48.5z" />
    <glyph glyph-name="uni1E21" unicode="&#x1e21;" 
d="M330 1235v227h602v-227h-602zM606 -332q-204 0 -328.5 83.5t-160.5 232.5l327 18q29 -88 162 -88q106 0 160.5 50t54.5 145v110q-83 -162 -299 -162q-195 0 -321.5 146.5t-126.5 376.5q0 250 122.5 398t321.5 148q217 0 305 -190l6 166h306v-950q0 -238 -141.5 -361
t-387.5 -123zM612 299q96 0 152.5 73t56.5 216q1 142 -56 217.5t-153 75.5q-104 0 -159.5 -74t-55.5 -219t56 -217t159 -72z" />
    <glyph glyph-name="Wgrave" unicode="&#x1e80;" 
d="M487 1565l-184 315h334l125 -315h-275zM193 0l-148 1454h305l66 -913l106 749h185l106 -749l66 913h305l-148 -1454h-321l-101 659l-100 -659h-321z" />
    <glyph glyph-name="wgrave" unicode="&#x1e81;" 
d="M487 1212l-184 316h334l125 -316h-275zM221 0l-196 1102h307l86 -653l98 491h197l98 -491l86 653h307l-196 -1102h-287l-107 494l-106 -494h-287z" />
    <glyph glyph-name="Wacute" unicode="&#x1e82;" 
d="M475 1565l127 315h332l-184 -315h-275zM193 0l-148 1454h305l66 -913l106 749h185l106 -749l66 913h305l-148 -1454h-321l-101 659l-100 -659h-321z" />
    <glyph glyph-name="wacute" unicode="&#x1e83;" 
d="M475 1212l127 316h332l-184 -316h-275zM221 0l-196 1102h307l86 -653l98 491h197l98 -491l86 653h307l-196 -1102h-287l-107 494l-106 -494h-287z" />
    <glyph glyph-name="Wdieresis" unicode="&#x1e84;" 
d="M242 1571v256h315v-256h-315zM672 1571v256h315v-256h-315zM193 0l-148 1454h305l66 -913l106 749h185l106 -749l66 913h305l-148 -1454h-321l-101 659l-100 -659h-321z" />
    <glyph glyph-name="wdieresis" unicode="&#x1e85;" 
d="M242 1219v256h315v-256h-315zM672 1219v256h315v-256h-315zM221 0l-196 1102h307l86 -653l98 491h197l98 -491l86 653h307l-196 -1102h-287l-107 494l-106 -494h-287z" />
    <glyph glyph-name="uni1E9E" unicode="&#x1e9e;" 
d="M31 0v950q0 241 128.5 372.5t360.5 131.5h613v-305l-316 -297q182 -17 283.5 -124t101.5 -282q0 -215 -135 -330.5t-387 -115.5h-238v291h209q115 0 164 39t49 127q0 172 -221 172h-125v235l277 299h-242q-193 0 -193 -213v-950h-329z" />
    <glyph glyph-name="uni1EBC" unicode="&#x1ebc;" 
d="M762 1577q-78 0 -158 61q-49 41 -90 41q-69 0 -74 -114h-149q6 301 211 301q83 0 168 -66q48 -37 86 -37q32 0 50.5 27t22.5 92h150q-4 -158 -58.5 -231.5t-158.5 -73.5zM168 0v1454h917v-293h-587v-289h563v-286h-563v-293h604v-293h-934z" />
    <glyph glyph-name="uni1EBD" unicode="&#x1ebd;" 
d="M743 1221q-77 0 -157 61q-53 41 -90 41q-69 0 -74 -115h-148q3 157 56 228t153 71q50 0 88 -15t80 -48q48 -37 86 -37q34 0 52 27t22 92h150q-4 -158 -59 -231.5t-159 -73.5zM618 -25q-234 0 -381 158t-147 418q0 255 146.5 415t379.5 160t380 -160.5t147 -420.5v-76
h-733q10 -105 68 -163t149 -58q66 0 114 31.5t68 87.5l309 -23q-122 -369 -500 -369zM416 670h391q-9 90 -60 137t-135 47t-135 -47.5t-61 -136.5z" />
    <glyph glyph-name="Ygrave" unicode="&#x1ef2;" 
d="M487 1565l-184 315h334l125 -315h-275zM451 0v610l-396 844h353l206 -504l207 504h353l-394 -844v-610h-329z" />
    <glyph glyph-name="ygrave" unicode="&#x1ef3;" 
d="M496 1212l-185 316h334l125 -316h-274zM221 -307v244h156q54 0 83 16t44 57l26 76h-96l-379 1016h322l250 -715l225 715h324l-416 -1186q-41 -119 -127 -171t-223 -52h-189z" />
    <glyph glyph-name="uni1EF8" unicode="&#x1ef8;" 
d="M741 1575q-77 0 -157 61q-49 41 -90 41q-69 0 -74 -114h-150q6 301 211 301q83 0 168 -66q48 -37 86 -37q33 0 51.5 27t22.5 92h149q-4 -158 -58.5 -231.5t-158.5 -73.5zM451 0v610l-396 844h353l206 -504l207 504h353l-394 -844v-610h-329z" />
    <glyph glyph-name="uni1EF9" unicode="&#x1ef9;" 
d="M748 1223q-79 0 -156 61q-49 41 -90 41q-69 0 -74 -115h-149q6 301 210 301q84 0 168 -65q48 -37 86 -37q32 0 50 27t24 92h148q-3 -158 -57.5 -231.5t-159.5 -73.5zM221 -307v244h156q54 0 83 16t44 57l26 76h-96l-379 1016h322l250 -715l225 715h324l-416 -1186
q-41 -119 -127 -171t-223 -52h-189z" />
    <glyph glyph-name="endash" unicode="&#x2013;" 
d="M188 457v282h852v-282h-852z" />
    <glyph glyph-name="emdash" unicode="&#x2014;" 
d="M41 457v282h1147v-282h-1147z" />
    <glyph glyph-name="quoteleft" unicode="&#x2018;" 
d="M760 1487l-105 -324h144v-327h-344v297l141 354h164z" />
    <glyph glyph-name="quoteright" unicode="&#x2019;" 
d="M469 803l104 323h-143v328h344v-297l-141 -354h-164z" />
    <glyph glyph-name="quotesinglbase" unicode="&#x201a;" 
d="M481 -324l105 324h-144v328h344v-295l-141 -357h-164z" />
    <glyph glyph-name="quotedblleft" unicode="&#x201c;" 
d="M985 1487l-104 -324h143v-327h-344v297l141 354h164zM510 1487l-104 -324h143v-327h-344v297l141 354h164z" />
    <glyph glyph-name="quotedblright" unicode="&#x201d;" 
d="M244 803l104 323h-143v328h344v-297l-141 -354h-164zM719 803l104 323h-143v328h344v-297l-141 -354h-164z" />
    <glyph glyph-name="quotedblbase" unicode="&#x201e;" 
d="M244 -324l104 324h-143v328h344v-295l-141 -357h-164zM719 -324l104 324h-143v328h344v-295l-141 -357h-164z" />
    <glyph glyph-name="dagger" unicode="&#x2020;" 
d="M451 0v842h-299v260h299v352h327v-352h299v-260h-299v-842h-327z" />
    <glyph glyph-name="daggerdbl" unicode="&#x2021;" 
d="M152 346v260h299v236h-299v260h299v352h327v-352h299v-260h-299v-236h299v-260h-299v-346h-327v346h-299z" />
    <glyph glyph-name="bullet" unicode="&#x2022;" 
d="M614 313q-128 0 -215.5 87t-87.5 216q0 124 87.5 208.5t215.5 84.5t216 -84.5t88 -208.5q0 -129 -88 -216t-216 -87z" />
    <glyph glyph-name="ellipsis" unicode="&#x2026;" 
d="M20 0v328h347v-328h-347zM440 0v328h346v-328h-346zM862 0v328h346v-328h-346z" />
    <glyph glyph-name="perthousand" unicode="&#x2030;" 
d="M268 750q-127 0 -197.5 89.5t-70.5 270.5q0 180 70.5 270t197.5 90t198 -90t71 -270q0 -181 -71 -270.5t-198 -89.5zM0 0l840 1454h159l-839 -1454h-160zM268 915q32 0 47 43t15 152q0 107 -15 151t-47 44t-46.5 -44t-14.5 -151q0 -109 14.5 -152t46.5 -43zM702 -16
q-107 0 -165 89t-58 271q0 181 58 271t165 90q94 0 152 -58q58 58 152 58q107 0 165 -90t58 -271q0 -182 -58 -271t-165 -89q-95 0 -152 57q-57 -57 -152 -57zM707 150q27 0 40 41t13 153q0 108 -13.5 151.5t-39.5 43.5q-27 0 -40.5 -43.5t-13.5 -151.5q0 -76 7 -120t18 -59
t29 -15zM1001 150q18 0 29 15t18 59t7 120q0 108 -13.5 151.5t-40.5 43.5q-26 0 -39.5 -43.5t-13.5 -151.5q0 -112 13 -153t40 -41z" />
    <glyph glyph-name="minute" unicode="&#x2032;" 
d="M420 967l76 487h313l-104 -487h-285z" />
    <glyph glyph-name="second" unicode="&#x2033;" 
d="M215 967l76 487h313l-104 -487h-285zM627 967l73 487h314l-105 -487h-282z" />
    <glyph glyph-name="guilsinglleft" unicode="&#x2039;" 
d="M922 156h-301l-314 372v74l314 373h301l-349 -410z" />
    <glyph glyph-name="guilsinglright" unicode="&#x203a;" 
d="M307 156l348 409l-348 410h301l314 -373v-74l-314 -372h-301z" />
    <glyph glyph-name="fraction" unicode="&#x2044;" 
d="M688 930l262 524h213l-262 -524h-213zM66 0l262 522h213l-262 -522h-213z" />
    <glyph glyph-name="uni2070" unicode="&#x2070;" 
d="M614 645q-172 0 -269 109.5t-97 304.5t96.5 303t269.5 108t270 -108t97 -303t-97.5 -304.5t-269.5 -109.5zM471 1059q0 -67 12 -113l199 338q-29 19 -68 19q-75 0 -109 -58.5t-34 -185.5zM614 813q144 0 144 246q0 60 -10 112l-199 -337q31 -21 65 -21z" />
    <glyph glyph-name="uni2074" unicode="&#x2074;" 
d="M641 662v147h-375v158l348 487h250v-475h99v-170h-99v-147h-223zM471 979h170v219z" />
    <glyph glyph-name="uni2075" unicode="&#x2075;" 
d="M608 645q-284 0 -303 229l215 11q6 -34 30.5 -53t59.5 -19q46 0 71.5 29.5t25.5 87.5q0 55 -23.5 86t-67.5 31q-62 0 -98 -62h-203l50 469h526v-172h-338l-18 -139q48 45 137 45q123 0 188.5 -69t65.5 -191q0 -133 -84 -208t-234 -75z" />
    <glyph glyph-name="uni2076" unicode="&#x2076;" 
d="M616 645q-166 0 -255 95.5t-89 289.5q0 208 96 324t285 116q126 0 204 -52.5t97 -149.5l-200 -25q-4 29 -35 47.5t-74 18.5q-138 0 -156 -174q55 63 168 63q139 0 216 -70t77 -202q0 -130 -90 -205.5t-244 -75.5zM621 813q57 0 90.5 31.5t33.5 85.5q0 58 -33 88.5
t-91 30.5q-53 0 -86.5 -31t-34.5 -84q-1 -56 32.5 -88.5t88.5 -32.5z" />
    <glyph glyph-name="uni2077" unicode="&#x2077;" 
d="M457 659q0 160 59 318.5t162 288.5h-350v188h573v-172q-119 -140 -170 -283.5t-51 -339.5h-223z" />
    <glyph glyph-name="uni2078" unicode="&#x2078;" 
d="M614 645q-338 0 -338 227q0 166 193 218q-80 23 -120 65t-40 113q0 100 72 151t233 51t233.5 -51t72.5 -151q0 -71 -40 -113t-120 -65q192 -56 192 -218q0 -227 -338 -227zM614 1147q41 0 66 19.5t25 60.5q0 76 -91 76q-90 0 -90 -76q0 -41 24.5 -60.5t65.5 -19.5z
M614 813q57 0 86 22.5t29 73.5q0 45 -30.5 75t-84.5 30q-53 0 -83.5 -30t-30.5 -75q0 -51 28.5 -73.5t85.5 -22.5z" />
    <glyph glyph-name="uni2079" unicode="&#x2079;" 
d="M612 1470q166 0 255 -95.5t89 -289.5q0 -208 -96 -324t-285 -116q-126 0 -204 53t-97 150l201 24q4 -29 35 -47t74 -18q137 0 155 174q-55 -63 -168 -63q-139 0 -215.5 70t-76.5 202q0 130 89.5 205t243.5 75zM608 1303q-57 0 -91 -31.5t-34 -85.5q0 -57 33.5 -88
t91.5 -31q53 0 86.5 31t34.5 84q1 56 -32.5 88.5t-88.5 32.5z" />
    <glyph glyph-name="uni2080" unicode="&#x2080;" 
d="M614 -221q-172 0 -269 109.5t-97 304.5t96.5 303t269.5 108t270 -108t97 -303t-97.5 -304.5t-269.5 -109.5zM471 193q0 -67 12 -113l199 338q-27 18 -68 18q-75 0 -109 -58.5t-34 -184.5zM614 -53q144 0 144 246q0 60 -10 112l-199 -338q30 -20 65 -20z" />
    <glyph glyph-name="uni2081" unicode="&#x2081;" 
d="M610 -205v434h-215v168h58q94 0 144 51t50 140h187v-793h-224z" />
    <glyph glyph-name="uni2082" unicode="&#x2082;" 
d="M322 -205q0 179 44.5 261.5t176.5 148.5l90 45q48 24 65 44t17 58q0 37 -23 60.5t-67 23.5q-50 0 -77 -24.5t-34 -83.5l-201 12q12 129 92.5 196.5t217.5 67.5q148 0 220 -66.5t72 -179.5q0 -91 -43 -147.5t-139 -104.5l-92 -45q-88 -43 -88 -77h340v-189h-571z" />
    <glyph glyph-name="uni2083" unicode="&#x2083;" 
d="M608 -221q-161 0 -229.5 55.5t-77.5 181.5l217 9q3 -37 26 -57.5t64 -20.5q44 0 69 22.5t25 65.5q0 40 -28 64t-74 24h-57v147h57q35 0 56.5 21.5t21.5 56.5q0 42 -20 65t-56 23q-71 0 -80 -82l-215 11q24 239 293 239q151 0 224 -56.5t73 -154.5q0 -147 -156 -184
q187 -34 187 -189q0 -109 -81.5 -175t-238.5 -66z" />
    <glyph glyph-name="uni2084" unicode="&#x2084;" 
d="M641 -205v148h-375v157l348 488h250v-475h99v-170h-99v-148h-223zM471 113h170v219z" />
    <glyph glyph-name="uni2085" unicode="&#x2085;" 
d="M608 -221q-284 0 -303 229l215 10q6 -33 30 -52t60 -19q97 0 97 116q0 55 -23.5 86t-67.5 31q-63 0 -98 -61h-203l50 469h526v-172h-338l-18 -140q49 46 137 46q123 0 188.5 -69.5t65.5 -191.5q0 -132 -84 -207t-234 -75z" />
    <glyph glyph-name="uni2086" unicode="&#x2086;" 
d="M616 -221q-166 0 -255 95.5t-89 289.5q0 208 96 324t285 116q126 0 204 -53t97 -150l-200 -24q-4 29 -35 47t-74 18q-138 0 -156 -174q56 64 168 64q139 0 216 -70.5t77 -202.5q0 -130 -90 -205t-244 -75zM621 -53q57 0 90.5 31t33.5 85q0 58 -33 88.5t-91 30.5
q-53 0 -86.5 -30.5t-34.5 -83.5q-1 -56 32.5 -88.5t88.5 -32.5z" />
    <glyph glyph-name="uni2087" unicode="&#x2087;" 
d="M457 -205q0 160 59 318t162 288h-350v189h573v-172q-119 -140 -170 -283.5t-51 -339.5h-223z" />
    <glyph glyph-name="uni2088" unicode="&#x2088;" 
d="M614 -221q-338 0 -338 227q0 165 193 217q-80 23 -120 65t-40 113q0 100 72 151.5t233 51.5t233.5 -51.5t72.5 -151.5q0 -71 -40 -113t-120 -65q192 -56 192 -217q0 -227 -338 -227zM614 281q41 0 66 19t25 60q0 76 -91 76q-90 0 -90 -76q0 -79 90 -79zM614 -53
q57 0 86 22.5t29 73.5q0 45 -30.5 74.5t-84.5 29.5t-84 -29.5t-30 -74.5q0 -51 28.5 -73.5t85.5 -22.5z" />
    <glyph glyph-name="uni2089" unicode="&#x2089;" 
d="M612 604q166 0 255 -95.5t89 -289.5q0 -208 -96 -324t-285 -116q-126 0 -204 53t-97 150l201 24q4 -29 35 -47t74 -18q137 0 155 174q-56 -64 -168 -64q-139 0 -215.5 70.5t-76.5 202.5q0 130 89.5 205t243.5 75zM608 436q-57 0 -91 -31.5t-34 -85.5q0 -57 33.5 -87.5
t91.5 -30.5q53 0 86.5 30.5t34.5 83.5q1 56 -32.5 88.5t-88.5 32.5z" />
    <glyph glyph-name="uni20AA" unicode="&#x20aa;" 
d="M354 0v1137h201v-940h311q57 0 91 34t34 91v1132h201v-1147q0 -141 -83 -224t-224 -83h-531zM37 0v1454h530q141 0 224 -83t83 -224v-830h-200v816q0 57 -34 90.5t-91 33.5h-311v-1257h-201z" />
    <glyph glyph-name="Euro" unicode="&#x20ac;" 
d="M4 479v170h105q0 12 -1.5 37t-1.5 39q0 10 1.5 30.5t1.5 30.5h-105v170h121q40 253 174 392t352 139q217 0 355.5 -145.5t175.5 -413.5l-334 -15q-19 137 -71 212t-126 75q-148 0 -190 -244h297l-23 -170h-289v-61v-76h271l-23 -170h-229q41 -225 186 -225q74 0 127.5 79
t71.5 224l334 -14q-35 -275 -174 -425.5t-359 -150.5q-215 0 -348.5 133.5t-175.5 378.5h-123z" />
    <glyph glyph-name="uni20B4" unicode="&#x20b4;" 
d="M25 778v172h768q28 54 28 107q0 77 -50.5 121.5t-147.5 44.5q-94 0 -144 -41t-73 -121l-302 16q35 183 168 296.5t334 113.5q240 0 376 -109.5t136 -298.5q0 -75 -28 -129h114v-172h-1179zM588 -25q-230 0 -364 104.5t-134 287.5q0 72 21 112h-86v172h1179v-172h-796
q-23 -41 -23 -86q0 -78 54 -115.5t143 -37.5q99 0 163 44t89 126l303 -21q-28 -183 -176.5 -298.5t-372.5 -115.5z" />
    <glyph glyph-name="uni20B9" unicode="&#x20b9;" 
d="M659 0l-614 541v250h416q185 0 235 120h-651v170h651q-44 123 -235 123h-416v250h1139v-172h-275q71 -84 86 -201h189v-170h-193q-32 -173 -163 -271.5t-328 -98.5h-86l624 -541h-379z" />
    <glyph glyph-name="uni20BD" unicode="&#x20bd;" 
d="M193 0v188h-148v177h148v1089h479q225 0 368.5 -132.5t143.5 -342.5q0 -211 -143 -342t-369 -131h-150v-141h285v-177h-285v-188h-329zM522 799h115q209 0 209 180q0 182 -209 182h-115v-362z" />
    <glyph glyph-name="uni2107" unicode="&#x2107;" 
d="M616 -33q-236 0 -384 124t-148 321q0 140 81 235t230 129q-124 37 -193 122t-69 204q0 171 133 278t350 107q148 0 283 -58t236 -165l-174 -215q-65 87 -153 139.5t-169 52.5q-99 0 -159 -47t-60 -123q0 -92 65 -143t154 -49l86 2v-238l-86 2q-123 3 -195.5 -54
t-72.5 -157t72.5 -160.5t195.5 -60.5q94 0 193 56t180 157l159 -219q-79 -109 -231 -174.5t-324 -65.5z" />
    <glyph glyph-name="uni2116" unicode="&#x2116;" 
d="M973 770q-132 0 -192 89.5t-60 268.5t59.5 269t192.5 90t192.5 -90t59.5 -269t-60 -268.5t-192 -89.5zM4 0v1454h229l173 -692v692h262v-1454h-230l-172 692v-692h-262zM973 944q31 0 45 41.5t14 142.5q0 100 -14 142.5t-45 42.5t-44.5 -42.5t-13.5 -142.5
q0 -101 13.5 -142.5t44.5 -41.5zM762 414v227h424v-227h-424z" />
    <glyph glyph-name="uni2117" unicode="&#x2117;" 
d="M614 315q-159 0 -294 78.5t-213 214t-78 295.5q0 158 78 292.5t213 213t294 78.5t294 -78.5t213.5 -213t78.5 -292.5q0 -160 -78.5 -295.5t-213.5 -214t-294 -78.5zM614 446q194 0 319.5 133t125.5 324q0 125 -55.5 228t-158 164t-231.5 61q-192 0 -318 -131.5
t-126 -321.5q0 -124 56 -228.5t158.5 -166.5t229.5 -62zM385 600v612h268q125 0 190.5 -53t65.5 -145t-66 -147.5t-190 -55.5h-80v-211h-188zM573 944h56q92 0 92 64q0 63 -92 63h-56v-127z" />
    <glyph glyph-name="trademark" unicode="&#x2122;" 
d="M530 735v719h195l143 -477l144 477h192v-719h-172v309l-98 -309h-133l-99 312v-312h-172zM156 735v543h-131v176h452v-176h-133v-543h-188z" />
    <glyph glyph-name="uni2153" unicode="&#x2153;" 
d="M258 662v434h-217v168h59q94 0 144.5 50.5t50.5 139.5h186v-792h-223zM678 930l262 524h213l-262 -524h-213zM854 -16q-162 0 -230 55.5t-77 181.5l215 8q9 -77 92 -77q44 0 69 22.5t25 65.5q0 40 -28 64t-74 24h-58v147h58q35 0 55.5 21.5t20.5 56.5q0 88 -74 88
q-35 0 -56 -21t-24 -61l-215 10q24 240 291 240q152 0 225.5 -56.5t73.5 -154.5q0 -146 -156 -184q187 -34 187 -189q0 -109 -81.5 -175t-238.5 -66zM55 0l262 522h213l-260 -522h-215z" />
    <glyph glyph-name="uni2154" unicode="&#x2154;" 
d="M16 662q0 179 44 261t176 148l90 45q48 24 65 44.5t17 58.5q0 37 -23 60.5t-68 23.5q-49 0 -75 -24.5t-35 -84.5l-199 12q12 129 92 196.5t215 67.5q149 0 221 -66t72 -179q0 -91 -43 -147.5t-139 -104.5l-92 -45q-88 -43 -88 -78h340v-188h-570zM676 930l262 524h213
l-260 -524h-215zM901 -16q-160 0 -228 55.5t-79 181.5l217 8q3 -37 26.5 -57t63.5 -20q44 0 70 22.5t26 65.5q0 40 -28 64t-74 24h-57v147h57q34 0 55 21.5t21 56.5q0 41 -19.5 64.5t-54.5 23.5t-56 -21t-24 -61l-217 10q24 240 293 240q151 0 224 -56.5t73 -154.5
q0 -147 -154 -184q185 -34 185 -189q0 -109 -81 -175t-239 -66zM53 0l262 522h215l-262 -522h-215z" />
    <glyph glyph-name="uni2155" unicode="&#x2155;" 
d="M264 662v434h-217v168h59q94 0 144.5 50.5t50.5 139.5h186v-792h-223zM651 930l262 524h213l-260 -524h-215zM860 -16q-284 0 -303 229l215 10q6 -33 30 -52t60 -19q96 0 96 116q0 55 -23 86t-67 31q-63 0 -96 -61h-205l49 469h527v-172h-336l-19 -140q45 45 136 45
q123 0 188.5 -69t65.5 -191q0 -132 -84 -207t-234 -75zM29 0l262 522h215l-262 -522h-215z" />
    <glyph glyph-name="oneeighth" unicode="&#x215b;" 
d="M250 662v434h-217v168h59q94 0 144.5 50.5t50.5 139.5h186v-792h-223zM651 930l262 524h213l-262 -524h-213zM862 -16q-338 0 -338 227q0 165 193 217q-80 23 -120 65t-40 113q0 100 72 151.5t233 51.5t233 -51.5t72 -151.5q0 -71 -39.5 -113t-119.5 -65
q192 -56 192 -217q0 -227 -338 -227zM862 485q41 0 65.5 19.5t24.5 60.5q0 76 -90 76t-90 -76q0 -41 24.5 -60.5t65.5 -19.5zM29 0l262 522h213l-262 -522h-213zM862 152q57 0 86 22.5t29 73.5q0 45 -30.5 74.5t-84.5 29.5t-84 -29.5t-30 -74.5q0 -51 28.5 -73.5t85.5 -22.5
z" />
    <glyph glyph-name="threeeighths" unicode="&#x215c;" 
d="M311 645q-284 0 -303 229l217 11q6 -34 29.5 -53t58.5 -19q47 0 73 30t26 87q0 54 -24 85.5t-66 31.5q-66 0 -99 -62h-205l50 469h528v-172h-338l-18 -139q45 45 135 45q124 0 189 -69t65 -191q0 -133 -84 -208t-234 -75zM672 930l262 524h213l-262 -524h-213zM883 -16
q-338 0 -338 227q0 165 192 217q-80 23 -119.5 65t-39.5 113q0 100 72 151.5t233 51.5t233 -51.5t72 -151.5q0 -71 -40 -113t-120 -65q193 -56 193 -217q0 -227 -338 -227zM883 485q41 0 65.5 19.5t24.5 60.5q0 76 -90 76t-90 -76q0 -41 24.5 -60.5t65.5 -19.5zM49 0
l262 522h213l-262 -522h-213zM883 152q57 0 85.5 22.5t28.5 73.5q0 45 -30 74.5t-84 29.5t-84.5 -29.5t-30.5 -74.5q0 -51 29 -73.5t86 -22.5z" />
    <glyph glyph-name="fiveeighths" unicode="&#x215d;" 
d="M315 645q-161 0 -229.5 56t-77.5 182l217 8q3 -37 26 -57.5t64 -20.5q44 0 69.5 22.5t25.5 65.5q0 40 -28.5 64t-74.5 24h-57v148h57q35 0 56.5 21t21.5 56q0 42 -20 65.5t-56 23.5q-71 0 -80 -82l-215 10q24 239 293 239q151 0 224 -56t73 -154q0 -148 -155 -185
q186 -34 186 -188q0 -109 -81.5 -175.5t-238.5 -66.5zM670 930l262 524h213l-262 -524h-213zM883 -16q-338 0 -338 227q0 165 192 217q-80 23 -119.5 65t-39.5 113q0 100 72 151.5t233 51.5t233 -51.5t72 -151.5q0 -71 -40 -113t-120 -65q193 -56 193 -217q0 -227 -338 -227
zM883 485q41 0 65.5 19.5t24.5 60.5q0 76 -90 76t-90 -76q0 -41 24.5 -60.5t65.5 -19.5zM47 0l262 522h213l-262 -522h-213zM883 152q57 0 85.5 22.5t28.5 73.5q0 45 -30 74.5t-84 29.5t-84.5 -29.5t-30.5 -74.5q0 -51 29 -73.5t86 -22.5z" />
    <glyph glyph-name="seveneighths" unicode="&#x215e;" 
d="M154 659q0 160 59 318.5t162 288.5h-350v188h575v-172q-120 -140 -171.5 -283.5t-51.5 -339.5h-223zM643 930l262 524h215l-262 -524h-215zM870 -16q-338 0 -338 227q0 165 193 217q-81 23 -121.5 65t-40.5 113q0 100 73 151.5t234 51.5q160 0 233 -51.5t73 -151.5
q0 -71 -40 -113t-120 -65q192 -56 192 -217q0 -227 -338 -227zM870 485q40 0 65.5 20t25.5 60q0 37 -24.5 56.5t-66.5 19.5q-90 0 -90 -76q0 -41 24.5 -60.5t65.5 -19.5zM23 0l260 522h215l-262 -522h-213zM870 152q113 0 113 96q0 44 -30.5 74t-82.5 30q-54 0 -84 -29.5
t-30 -74.5q0 -51 28.5 -73.5t85.5 -22.5z" />
    <glyph glyph-name="arrowleft" unicode="&#x2190;" 
d="M864 113l-323 2l-531 526l527 528h325l-403 -405h743v-244h-743z" />
    <glyph glyph-name="arrowup" unicode="&#x2191;" 
d="M492 37v938l-426 -426v325l548 547l549 -549v-325l-426 426v-936h-245z" />
    <glyph glyph-name="arrowright" unicode="&#x2192;" 
d="M365 113l405 407h-743v244h743l-403 405h325l527 -528l-531 -526z" />
    <glyph glyph-name="arrowdown" unicode="&#x2193;" 
d="M1163 911v-325l-549 -549l-548 547v325l426 -426v938h245v-936z" />
    <glyph glyph-name="arrowboth" unicode="&#x2194;" 
d="M305 377l-303 325l305 324h262l-188 -203h469l-191 203h265l301 -326l-303 -323h-265l191 203h-467l190 -203h-266z" />
    <glyph glyph-name="arrowupdn" unicode="&#x2195;" 
d="M614 -23l-368 371v264l260 -256v875l-260 -256v266l370 369l367 -367v-266l-258 258v-881l258 256v-266z" />
    <glyph glyph-name="uni2196" unicode="&#x2196;" 
d="M340 449l-231 229v776h774l231 -229h-604l666 -664l-175 -174l-661 662v-600z" />
    <glyph glyph-name="uni2197" unicode="&#x2197;" 
d="M53 561l666 664h-604l231 229h774v-776l-231 -229v600l-662 -662z" />
    <glyph glyph-name="uni2198" unicode="&#x2198;" 
d="M121 229l600 2l-660 662l172 172l664 -664v603l231 -230l-2 -774h-776z" />
    <glyph glyph-name="uni2199" unicode="&#x2199;" 
d="M1108 229l-229 -229h-777l-2 774l232 230v-603l663 664l172 -172l-659 -662z" />
    <glyph glyph-name="uni219D" unicode="&#x219d;" 
d="M586 389q-98 54 -125 166l-6 24t-6 22.5t-6 18.5t-7.5 18t-8.5 14t-11.5 13.5t-14.5 10.5q-35 21 -75 -4.5t-58 -87.5h-235q14 77 49.5 141t84 104.5t103 63t110 20t101.5 -29.5q58 -33 82 -71.5t39 -96.5q5 -29 9.5 -45.5t17.5 -37.5t33 -34q72 -40 159 98l-157 92
l479 226l45 -531l-162 95q-58 -92 -131 -149t-152.5 -70.5t-156.5 30.5z" />
    <glyph glyph-name="uni21A9" unicode="&#x21a9;" 
d="M670 238h-303l-347 346l345 346h303l-226 -223h279q100 0 170 65t70 160t-70 160t-170 65h-604v244h604q204 0 344.5 -135.5t140.5 -333.5t-140.5 -334.5t-344.5 -136.5h-275z" />
    <glyph glyph-name="uni21AA" unicode="&#x21aa;" 
d="M559 238l223 223h-274q-204 0 -344.5 136.5t-140.5 334.5t140.5 333.5t344.5 135.5h604v-244h-604q-100 0 -170 -65t-70 -160t70 -160t170 -65h278l-225 223h303l344 -346l-346 -346h-303z" />
    <glyph glyph-name="uni21B0" unicode="&#x21b0;" 
d="M528 502l-491 409l489 410l2 -287h652v-1034h-244v788h-408v-286z" />
    <glyph glyph-name="uni21B1" unicode="&#x21b1;" 
d="M293 0h-244v1034h651l2 287l490 -410l-492 -409v286h-407v-788z" />
    <glyph glyph-name="uni21B3" unicode="&#x21b3;" 
d="M700 952l492 -409l-490 -410l-2 287h-651v1034h244v-788h407v286z" />
    <glyph glyph-name="uni21B4" unicode="&#x21b4;" 
d="M829 0l-378 457h256v751h-680v246h925v-997h256z" />
    <glyph glyph-name="carriagereturn" unicode="&#x21b5;" 
d="M528 952v-286h408v788h244v-1034h-652l-2 -287l-489 410z" />
    <glyph glyph-name="uni21E4" unicode="&#x21e4;" 
d="M39 238v798h186v-798h-186zM729 256l-457 381l455 379l2 -258h461v-244h-461v-258z" />
    <glyph glyph-name="uni21E5" unicode="&#x21e5;" 
d="M1190 238h-186v798h186v-798zM500 256v258h-461v244h461l2 258l454 -379z" />
    <glyph glyph-name="uni21E7" unicode="&#x21e7;" 
d="M219 0v815h-217l612 690l613 -690h-213v-815h-795zM463 244h307v641h86l-240 291l-239 -291h86v-641z" />
    <glyph glyph-name="partialdiff" unicode="&#x2202;" 
d="M610 -23q-234 0 -374 134.5t-140 359.5q0 224 128.5 360t338.5 136q130 0 258 -74q-57 138 -195.5 210t-410.5 114l57 264q196 -21 343.5 -75.5t245.5 -135.5t159 -196t87 -248t26 -302q0 -258 -141.5 -402.5t-381.5 -144.5zM610 219q97 0 152 71t55 210q0 101 -55 163
t-148 62t-146.5 -68.5t-53.5 -185.5q0 -118 51.5 -185t144.5 -67z" />
    <glyph glyph-name="uni2206" unicode="&#x2206;" 
d="M20 0v279l443 1175h307l438 -1175v-279h-1188zM262 279h705l-351 909z" />
    <glyph glyph-name="product" unicode="&#x220f;" 
d="M211 -307v1483h-186v278h1179v-278h-184v-1483h-285v1483h-241v-1483h-283z" />
    <glyph glyph-name="summation" unicode="&#x2211;" 
d="M106 0v274l316 453l-316 453v274h1016v-266h-684l318 -461l-318 -461h684v-266h-1016z" />
    <glyph glyph-name="minus" unicode="&#x2212;" 
d="M131 442v279h967v-279h-967z" />
    <glyph glyph-name="radical" unicode="&#x221a;" 
d="M233 -307l-229 1028h268l123 -561l213 1294h617v-272h-379l-260 -1489h-353z" />
    <glyph glyph-name="infinity" unicode="&#x221e;" 
d="M309 190q-127 0 -210 104.5t-83 260.5t83 260.5t210 104.5q90 0 173 -55t134 -158q46 100 129.5 155.5t178.5 55.5q124 1 206 -103t82 -260t-82 -260.5t-206 -104.5q-95 0 -179.5 56t-130.5 157q-46 -108 -129 -160.5t-176 -52.5zM336 446q90 -3 180 109
q-92 109 -180 109q-41 -2 -67.5 -32t-26.5 -77t26.5 -78t67.5 -31zM893 446q41 1 66.5 31.5t25.5 77.5q0 46 -25.5 76t-66.5 31q-86 3 -182 -107q94 -112 182 -109z" />
    <glyph glyph-name="integral" unicode="&#x222b;" 
d="M371 -307h-211l28 278h107q54 0 81 26t34 89l125 1071q15 137 98.5 217.5t220.5 79.5l215 -2l-29 -278h-90q-115 0 -127 -113l-125 -1071q-15 -136 -101.5 -216.5t-225.5 -80.5z" />
    <glyph glyph-name="approxequal" unicode="&#x2248;" 
d="M858 719q-114 0 -194 86q-50 50 -67.5 62t-41.5 12q-74 0 -74 -152h-239q0 172 78.5 270.5t214.5 98.5q60 0 106.5 -22t93.5 -70q38 -42 58 -55t45 -13q73 0 73 151h238q0 -173 -78 -270.5t-213 -97.5zM858 268q-114 0 -194 86q-50 50 -67.5 62t-41.5 12q-74 0 -74 -152
h-239q0 172 78.5 270.5t214.5 98.5q60 0 106.5 -22t93.5 -70q38 -42 58 -55t45 -13q73 0 73 152h238q0 -173 -78 -271t-213 -98z" />
    <glyph glyph-name="notequal" unicode="&#x2260;" 
d="M152 219v252h290l70 248h-360v252h432l53 188h274l-53 -188h219v-252h-291l-69 -248h360v-252h-432l-53 -184h-275l54 184h-219z" />
    <glyph glyph-name="lessequal" unicode="&#x2264;" 
d="M1049 289l-947 286v351l947 286v-278l-668 -182l668 -183v-280zM1049 0h-967v240h967v-240z" />
    <glyph glyph-name="greaterequal" unicode="&#x2265;" 
d="M131 289v280l668 183l-668 182v278l946 -286v-351zM131 0v240h967v-240h-967z" />
    <glyph glyph-name="uni2326" unicode="&#x2326;" 
d="M907 0h-891v1454h891l314 -731zM791 178l237 547l-240 551h-593v-1098h596zM406 436l-132 131l162 162l-160 160l132 131l159 -162l160 162l131 -131l-160 -160l162 -162l-133 -131l-160 160z" />
    <glyph glyph-name="uni2327" unicode="&#x2327;" 
d="M29 0v1454h1171v-1454h-1171zM207 178h815v1098h-815v-1098zM438 420l-133 131l178 176l-178 178l131 131l178 -178l177 178l133 -131l-179 -178l179 -178l-131 -131l-179 178z" />
    <glyph glyph-name="uni232B" unicode="&#x232b;" 
d="M322 0l-314 723l314 731h890v-1454h-890zM438 178h596v1098h-594l-239 -551zM502 436l-133 131l161 162l-159 160l131 131l160 -162l159 162l131 -131l-159 -160l161 -162l-131 -131l-161 160z" />
    <glyph glyph-name="uni23CE" unicode="&#x23ce;" 
d="M594 -76l-588 660l588 655v-393h102v608h525v-1132h-627v-398zM455 649v146l-193 -211l193 -215v149h569v727h-129v-596h-440z" />
    <glyph glyph-name="uni240B" unicode="&#x240b;" 
d="M313 614l-207 676h121l142 -477l141 477h121l-207 -676h-111zM817 145v564h-188v112h493v-112h-188v-564h-117z" />
    <glyph glyph-name="uni240C" unicode="&#x240c;" 
d="M162 614v676h418v-112h-301v-177h282v-112h-282v-275h-117zM678 145v676h418v-112h-301v-177h282v-112h-282v-275h-117z" />
    <glyph glyph-name="uni2423" unicode="&#x2423;" 
d="M66 -401v401h198v-203h701v203h198v-401h-1097z" />
    <glyph glyph-name="uni2460" unicode="&#x2460;" 
d="M616 -33q-283 0 -439.5 202t-156.5 558t156.5 558t439.5 202q280 0 436 -202.5t156 -557.5t-156 -557.5t-436 -202.5zM616 119q208 0 322.5 156.5t114.5 451.5t-115 452.5t-322 157.5q-209 0 -324.5 -157.5t-115.5 -452.5t115.5 -451.5t324.5 -156.5zM555 328v434h-215
v168h59q94 0 143.5 50.5t49.5 139.5h188v-792h-225z" />
    <glyph glyph-name="uni2461" unicode="&#x2461;" 
d="M616 -33q-283 0 -439.5 202t-156.5 558t156.5 558t439.5 202q280 0 436 -202.5t156 -557.5t-156 -557.5t-436 -202.5zM616 119q208 0 322.5 156.5t114.5 451.5t-115 452.5t-322 157.5q-209 0 -324.5 -157.5t-115.5 -452.5t115.5 -451.5t324.5 -156.5zM324 328
q0 122 19 194t65.5 121t136.5 94l90 45q48 24 65 44.5t17 58.5q0 37 -23 60.5t-67 23.5q-49 0 -76.5 -25t-34.5 -84l-201 12q12 129 93 197t217 68q148 0 220.5 -66.5t72.5 -179.5q0 -91 -43.5 -147.5t-139.5 -104.5l-92 -45q-88 -43 -88 -78h340v-188h-571z" />
    <glyph glyph-name="uni2462" unicode="&#x2462;" 
d="M616 -33q-283 0 -439.5 202t-156.5 558t156.5 558t439.5 202q280 0 436 -202.5t156 -557.5t-156 -557.5t-436 -202.5zM616 119q208 0 322.5 156.5t114.5 451.5t-115 452.5t-322 157.5q-209 0 -324.5 -157.5t-115.5 -452.5t115.5 -451.5t324.5 -156.5zM608 311
q-160 0 -228 55.5t-79 182.5l217 8q3 -37 26 -57.5t64 -20.5q44 0 69 22.5t25 65.5q0 40 -28 64t-72 24h-59v148h59q34 0 55 21.5t21 56.5q0 42 -20 65t-56 23q-33 0 -54 -21t-24 -61l-217 10q24 240 293 240q151 0 224 -56.5t73 -154.5q0 -148 -156 -185q187 -34 187 -188
q0 -109 -81.5 -175.5t-238.5 -66.5z" />
    <glyph glyph-name="uni2463" unicode="&#x2463;" 
d="M616 -33q-283 0 -439.5 202t-156.5 558t156.5 558t439.5 202q280 0 436 -202.5t156 -557.5t-156 -557.5t-436 -202.5zM616 119q208 0 322.5 156.5t114.5 451.5t-115 452.5t-322 157.5q-209 0 -324.5 -157.5t-115.5 -452.5t115.5 -451.5t324.5 -156.5zM641 328v147h-375
v158l348 487h252v-475h97v-170h-97v-147h-225zM473 645h168v219z" />
    <glyph glyph-name="uni2464" unicode="&#x2464;" 
d="M616 -33q-283 0 -439.5 202t-156.5 558t156.5 558t439.5 202q280 0 436 -202.5t156 -557.5t-156 -557.5t-436 -202.5zM616 119q208 0 322.5 156.5t114.5 451.5t-115 452.5t-322 157.5q-209 0 -324.5 -157.5t-115.5 -452.5t115.5 -451.5t324.5 -156.5zM610 311
q-285 0 -305 230l217 10q6 -34 30.5 -53t59.5 -19q46 0 71.5 29.5t25.5 87.5q0 54 -24 85.5t-67 31.5q-65 0 -98 -62h-203l50 469h526v-172h-338l-18 -139q48 45 137 45q123 0 187.5 -69t64.5 -191q0 -133 -83 -208t-233 -75z" />
    <glyph glyph-name="uni2465" unicode="&#x2465;" 
d="M616 -33q-283 0 -439.5 202t-156.5 558t156.5 558t439.5 202q280 0 436 -202.5t156 -557.5t-156 -557.5t-436 -202.5zM616 119q208 0 322.5 156.5t114.5 451.5t-115 452.5t-322 157.5q-209 0 -324.5 -157.5t-115.5 -452.5t115.5 -451.5t324.5 -156.5zM616 311
q-166 0 -254 95.5t-88 289.5q0 208 95.5 324.5t283.5 116.5q127 0 204.5 -53t96.5 -150l-198 -25q-6 29 -37 47.5t-74 18.5q-138 0 -153 -174q55 63 165 63q139 0 216 -70t77 -202q0 -131 -89.5 -206t-244.5 -75zM621 479q57 0 90.5 31.5t33.5 85.5q0 58 -32 88.5t-90 30.5
q-55 0 -88.5 -31t-34.5 -84q-1 -56 33 -88.5t88 -32.5z" />
    <glyph glyph-name="uni2466" unicode="&#x2466;" 
d="M616 -33q-283 0 -439.5 202t-156.5 558t156.5 558t439.5 202q280 0 436 -202.5t156 -557.5t-156 -557.5t-436 -202.5zM616 119q208 0 322.5 156.5t114.5 451.5t-115 452.5t-322 157.5q-209 0 -324.5 -157.5t-115.5 -452.5t115.5 -451.5t324.5 -156.5zM459 328
q0 160 59 318t162 288h-350v188h573v-172q-119 -140 -170 -283t-51 -339h-223z" />
    <glyph glyph-name="uni2467" unicode="&#x2467;" 
d="M616 -33q-283 0 -439.5 202t-156.5 558t156.5 558t439.5 202q280 0 436 -202.5t156 -557.5t-156 -557.5t-436 -202.5zM616 119q208 0 322.5 156.5t114.5 451.5t-115 452.5t-322 157.5q-209 0 -324.5 -157.5t-115.5 -452.5t115.5 -451.5t324.5 -156.5zM616 311
q-337 0 -337 228q0 165 192 217q-80 23 -120 65t-40 113q0 100 72 151.5t233 51.5t233.5 -51.5t72.5 -151.5q0 -71 -40 -113t-120 -65q192 -56 192 -217q0 -228 -338 -228zM616 813q41 0 66 19.5t25 60.5q0 76 -91 76q-90 0 -90 -76q0 -41 24.5 -60.5t65.5 -19.5zM616 479
q57 0 86 22.5t29 73.5q0 45 -30.5 75t-84.5 30q-53 0 -83.5 -30t-30.5 -75q0 -51 28.5 -73.5t85.5 -22.5z" />
    <glyph glyph-name="uni2468" unicode="&#x2468;" 
d="M616 -33q-283 0 -439.5 202t-156.5 558t156.5 558t439.5 202q280 0 436 -202.5t156 -557.5t-156 -557.5t-436 -202.5zM616 119q208 0 322.5 156.5t114.5 451.5t-115 452.5t-322 157.5q-209 0 -324.5 -157.5t-115.5 -452.5t115.5 -451.5t324.5 -156.5zM614 1137
q166 0 255 -95.5t89 -289.5q0 -208 -95.5 -324.5t-284.5 -116.5q-126 0 -204.5 53t-97.5 150l201 25q4 -29 35 -47.5t74 -18.5q137 0 155 174q-55 -63 -168 -63q-139 0 -215.5 70t-76.5 202q0 130 89.5 205.5t243.5 75.5zM610 969q-57 0 -91 -31.5t-34 -85.5q0 -57 33.5 -88
t91.5 -31q53 0 86.5 31t34.5 84q1 56 -32.5 88.5t-88.5 32.5z" />
    <glyph glyph-name="uni24EA" unicode="&#x24ea;" 
d="M616 -33q-283 0 -439.5 202t-156.5 558t156.5 558t439.5 202q280 0 436 -202.5t156 -557.5t-156 -557.5t-436 -202.5zM616 119q208 0 322.5 156.5t114.5 451.5t-115 452.5t-322 157.5q-209 0 -324.5 -157.5t-115.5 -452.5t115.5 -451.5t324.5 -156.5zM614 311
q-172 0 -269 109.5t-97 304.5t97 303.5t269 108.5q173 0 270 -108.5t97 -303.5t-97 -304.5t-270 -109.5zM471 725q0 -67 12 -113l201 338q-32 19 -70 19q-74 0 -108.5 -59t-34.5 -185zM614 479q74 0 109 60.5t35 185.5q0 72 -8 113l-201 -338q31 -21 65 -21z" />
    <glyph glyph-name="uni24FF" unicode="&#x24ff;" 
d="M614 -33q-270 0 -427.5 205t-157.5 555t157.5 555t427.5 205q269 0 427.5 -205t158.5 -555t-158.5 -555t-427.5 -205zM616 311q172 0 269.5 109.5t97.5 304.5t-97 303.5t-270 108.5t-269.5 -108.5t-96.5 -303.5t97 -304.5t269 -109.5zM485 612q-12 50 -12 113
q0 127 34 185.5t109 58.5q40 0 68 -19zM616 479q-34 0 -65 21l199 336q10 -48 10 -111q0 -246 -144 -246z" />
    <glyph glyph-name="uni2500" unicode="&#x2500;" 
d="M-82 616v250h1311v-250h-1311z" />
    <glyph glyph-name="uni2502" unicode="&#x2502;" 
d="M489 -506v2579h250v-2579h-250z" />
    <glyph glyph-name="uni250C" unicode="&#x250c;" 
d="M489 -506v1372h740v-250h-490v-1122h-250z" />
    <glyph glyph-name="uni2514" unicode="&#x2514;" 
d="M489 616v1457h250v-1207h490v-250h-740z" />
    <glyph glyph-name="uni251C" unicode="&#x251c;" 
d="M489 -506v2579h250v-1207h490v-250h-490v-1122h-250z" />
    <glyph glyph-name="triagup" unicode="&#x25b2;" 
d="M16 0l596 1034l598 -1034h-1194z" />
    <glyph glyph-name="uni25B3" unicode="&#x25b3;" 
d="M16 201l596 1034l598 -1034h-1194zM395 418h439l-220 391z" />
    <glyph glyph-name="uni25B6" unicode="&#x25b6;" 
d="M-111 1329l1035 -596l-1035 -598v1194z" />
    <glyph glyph-name="uni25B7" unicode="&#x25b7;" 
d="M90 1329l1034 -596l-1034 -598v1194zM307 950v-438l391 219z" />
    <glyph glyph-name="triagdn" unicode="&#x25bc;" 
d="M16 1454h1194l-598 -1034z" />
    <glyph glyph-name="uni25BD" unicode="&#x25bd;" 
d="M16 1270h1194l-598 -1034zM395 1053l219 -391l220 391h-439z" />
    <glyph glyph-name="uni25C0" unicode="&#x25c0;" 
d="M1339 1329v-1194l-1034 598z" />
    <glyph glyph-name="uni25C1" unicode="&#x25c1;" 
d="M1139 1329v-1194l-1035 598zM922 950l-392 -219l392 -219v438z" />
    <glyph glyph-name="lozenge" unicode="&#x25ca;" 
d="M442 0l-346 659l346 660h344l347 -660l-347 -659h-344zM369 659l245 -462l244 462l-244 463z" />
    <glyph glyph-name="circle" unicode="&#x25cb;" 
d="M616 162q-163 0 -296.5 72.5t-210 203t-76.5 291.5q0 247 167 409t416 162q162 0 295 -73t210 -204t77 -294q0 -121 -45 -226.5t-122.5 -180t-185.5 -117.5t-229 -43zM616 387q149 0 250 97t101 245q0 151 -101 248.5t-250 97.5q-151 0 -251.5 -97.5t-100.5 -248.5
q0 -148 101 -245t251 -97z" />
    <glyph glyph-name="uni25CC" unicode="&#x25cc;" 
d="M500 1184l-27 133q56 12 148 16l2 -137q-56 3 -123 -12zM805 1159q-54 24 -119 33l21 135q54 -6 145 -41zM330 1110l-74 113q60 43 135 67l45 -125q-62 -23 -106 -55zM956 1061q-36 39 -94 72l70 116q73 -44 121 -90zM207 979l-115 72q38 63 94 116l95 -98
q-55 -55 -74 -90zM1057 907q-29 68 -62 105l115 78q49 -67 70 -132zM145 805l-135 20q12 77 41 146l129 -49q-26 -53 -35 -117zM1087 725q3 59 -14 121l133 28q20 -78 17 -149h-136zM20 592q-16 60 -16 149h135q-2 -52 15 -120zM1176 494l-127 51q25 54 34 117l134 -21
q-11 -68 -41 -147zM121 375q-45 56 -74 133l125 51q30 -73 57 -102zM1040 297l-96 100q55 51 76 90l115 -71q-37 -61 -95 -119zM299 217q-69 40 -121 92l94 97q41 -44 97 -70zM836 176l-48 125q75 29 107 57l74 -114q-62 -44 -133 -68zM522 141q-54 7 -145 39l49 125
q72 -25 117 -29zM602 135v137q75 0 123 11l27 -131q-88 -19 -150 -17z" />
    <glyph glyph-name="uni25CF" unicode="&#x25cf;" 
d="M616 162q-163 0 -296.5 72.5t-210 202.5t-76.5 292q0 164 76.5 295t209.5 203.5t297 72.5q163 0 295.5 -72.5t209.5 -203.5t77 -295q0 -162 -77 -292t-210 -202.5t-295 -72.5z" />
    <glyph glyph-name="uni2776" unicode="&#x2776;" 
d="M614 -33q-270 0 -427.5 205t-157.5 555t157.5 555t427.5 205q269 0 427.5 -205t158.5 -555t-158.5 -555t-427.5 -205zM551 328h223v792h-186q0 -89 -50.5 -139.5t-144.5 -50.5h-57v-168h215v-434z" />
    <glyph glyph-name="uni2777" unicode="&#x2777;" 
d="M614 -33q-270 0 -427.5 205t-157.5 555t157.5 555t427.5 205q269 0 427.5 -205t158.5 -555t-158.5 -555t-427.5 -205zM324 328h571v188h-340q0 35 88 78l92 45q96 48 139.5 104.5t43.5 147.5q0 113 -72.5 179.5t-220.5 66.5q-136 0 -217 -68t-93 -197l201 -12
q7 59 34.5 84t76.5 25q44 0 67 -23.5t23 -60.5q0 -38 -17 -58.5t-65 -44.5l-90 -45q-90 -45 -136.5 -94t-65.5 -121t-19 -194z" />
    <glyph glyph-name="uni2778" unicode="&#x2778;" 
d="M614 -33q-270 0 -427.5 205t-157.5 555t157.5 555t427.5 205q269 0 427.5 -205t158.5 -555t-158.5 -555t-427.5 -205zM610 311q157 0 238.5 66.5t81.5 175.5q0 154 -187 188q156 37 156 185q0 98 -73 154.5t-224 56.5q-269 0 -293 -240l215 -10q9 82 80 82q36 0 56 -23
t20 -65q0 -35 -21.5 -56.5t-56.5 -21.5h-57v-148h57q46 0 74.5 -24t28.5 -64q0 -43 -25.5 -65.5t-69.5 -22.5q-41 0 -64 20.5t-26 57.5l-217 -8q9 -126 77.5 -182t229.5 -56z" />
    <glyph glyph-name="uni2779" unicode="&#x2779;" 
d="M614 -33q-270 0 -427.5 205t-157.5 555t157.5 555t427.5 205q269 0 427.5 -205t158.5 -555t-158.5 -555t-427.5 -205zM643 328h223v147h99v170h-99v475h-250l-348 -487v-158h375v-147zM473 645l170 219v-219h-170z" />
    <glyph glyph-name="uni277A" unicode="&#x277a;" 
d="M614 -33q-270 0 -427.5 205t-157.5 555t157.5 555t427.5 205q269 0 427.5 -205t158.5 -555t-158.5 -555t-427.5 -205zM610 311q150 0 233 75t83 208q0 122 -64.5 191t-187.5 69q-89 0 -137 -45l18 139h338v172h-526l-50 -469h203q33 62 98 62q43 0 67 -31.5t24 -85.5
q0 -58 -25.5 -87.5t-71.5 -29.5q-35 0 -59.5 19t-30.5 53l-217 -10q20 -230 305 -230z" />
    <glyph glyph-name="uni277B" unicode="&#x277b;" 
d="M614 -33q-270 0 -427.5 205t-157.5 555t157.5 555t427.5 205q269 0 427.5 -205t158.5 -555t-158.5 -555t-427.5 -205zM618 311q154 0 244 75.5t90 205.5q0 132 -77 202t-216 70q-112 0 -167 -63q18 174 155 174q43 0 74 -18.5t35 -47.5l200 25q-19 97 -97 150t-204 53
q-189 0 -285 -116.5t-96 -324.5q0 -194 89 -289.5t255 -95.5zM623 479q-55 0 -88.5 32.5t-32.5 88.5q1 53 34.5 84t86.5 31q58 0 91.5 -31t33.5 -88q0 -54 -34 -85.5t-91 -31.5z" />
    <glyph glyph-name="uni277C" unicode="&#x277c;" 
d="M614 -33q-270 0 -427.5 205t-157.5 555t157.5 555t427.5 205q269 0 427.5 -205t158.5 -555t-158.5 -555t-427.5 -205zM459 328h223q0 196 51 339t170 283v172h-573v-188h350q-103 -130 -162 -288t-59 -318z" />
    <glyph glyph-name="uni277D" unicode="&#x277d;" 
d="M614 -33q-270 0 -427.5 205t-157.5 555t157.5 555t427.5 205q269 0 427.5 -205t158.5 -555t-158.5 -555t-427.5 -205zM616 311q338 0 338 228q0 161 -192 217q80 23 120 65t40 113q0 100 -72.5 151.5t-233.5 51.5t-233 -51.5t-72 -151.5q0 -71 40 -113t120 -65
q-192 -52 -192 -217q0 -228 337 -228zM616 813q-41 0 -65.5 19.5t-24.5 60.5q0 76 90 76q91 0 91 -76q0 -41 -25 -60.5t-66 -19.5zM616 479q-57 0 -85.5 22.5t-28.5 73.5q0 45 30.5 75t83.5 30q54 0 84.5 -30t30.5 -75q0 -51 -29 -73.5t-86 -22.5z" />
    <glyph glyph-name="uni277E" unicode="&#x277e;" 
d="M614 -33q-270 0 -427.5 205t-157.5 555t157.5 555t427.5 205q269 0 427.5 -205t158.5 -555t-158.5 -555t-427.5 -205zM578 311q189 0 284.5 116.5t95.5 324.5q0 194 -89 289.5t-255 95.5q-154 0 -243.5 -75.5t-89.5 -205.5q0 -132 76.5 -202t215.5 -70q113 0 168 63
q-18 -174 -155 -174q-43 0 -74 18.5t-35 47.5l-201 -25q19 -97 97.5 -150t204.5 -53zM610 733q-58 0 -91.5 31t-33.5 88q0 54 34 85.5t91 31.5q55 0 88.5 -32.5t32.5 -88.5q-1 -53 -34.5 -84t-86.5 -31z" />
    <glyph glyph-name="uni3003" unicode="&#x3003;" 
d="M592 575l123 410h268l-184 -410h-207zM246 575l125 410h266l-184 -410h-207z" />
    <glyph glyph-name="uni3008" unicode="&#x3008;" 
d="M670 -233l-340 958l340 956h250l-340 -956l340 -958h-250z" />
    <glyph glyph-name="uni3009" unicode="&#x3009;" 
d="M559 -233h-250l340 958l-340 956h250l340 -956z" />
    <glyph glyph-name="uni300A" unicode="&#x300a;" 
d="M440 -233l-338 958l338 956h250l-340 -956l340 -958h-250zM881 -233l-338 958l338 956h249l-339 -956l339 -958h-249z" />
    <glyph glyph-name="uni300B" unicode="&#x300b;" 
d="M788 -233h-249l340 958l-340 956h249l338 -956zM348 -233h-250l340 958l-340 956h250l338 -956z" />
    <glyph glyph-name="uni300C" unicode="&#x300c;" 
d="M348 479v1213h633v-209h-420v-1004h-213z" />
    <glyph glyph-name="uni300D" unicode="&#x300d;" 
d="M881 1001v-1212h-633v209h420v1003h213z" />
    <glyph glyph-name="uni300E" unicode="&#x300e;" 
d="M348 477v1215h621v-328h-293v-887h-328zM442 571h142v887h293v139h-435v-1026z" />
    <glyph glyph-name="uni300F" unicode="&#x300f;" 
d="M881 1020v-1215h-621v328h293v887h328zM786 926h-141v-887h-293v-139h434v1026z" />
    <glyph glyph-name="uni3010" unicode="&#x3010;" 
d="M942 -129h-586v1819h586q-260 -440 -260 -909t260 -910z" />
    <glyph glyph-name="uni3011" unicode="&#x3011;" 
d="M287 -129q259 441 259 910t-259 909h585v-1819h-585z" />
    <glyph glyph-name="uni3014" unicode="&#x3014;" 
d="M856 -299l-516 463v1120l512 457l139 -152l-438 -391v-948l440 -397z" />
    <glyph glyph-name="uni3015" unicode="&#x3015;" 
d="M373 -299l-137 152l440 397v948l-438 391l139 152l512 -457v-1120z" />
    <glyph glyph-name="uni3016" unicode="&#x3016;" 
d="M991 -129h-635v1819h635q-258 -440 -258 -909t258 -910zM784 -12q-361 794 0 1585h-301v-1585h301z" />
    <glyph glyph-name="uni3017" unicode="&#x3017;" 
d="M238 -129q258 441 258 910.5t-258 908.5h634v-1819h-634zM444 -12h301v1585h-301q361 -791 0 -1585z" />
    <glyph glyph-name="uni301C" unicode="&#x301c;" 
d="M850 424q-115 0 -252 94q-133 88 -219 88q-125 0 -207 -172l-162 162q43 114 149.5 185t219.5 71q115 0 252 -94q133 -88 219 -88q124 0 207 170l162 -158q-41 -115 -148.5 -186.5t-220.5 -71.5z" />
    <glyph glyph-name="uniA78B" unicode="&#xa78b;" 
d="M475 696l-26 441v317h331v-317l-26 -441h-279z" />
    <glyph glyph-name="uniA78C" unicode="&#xa78c;" 
d="M475 696l-26 441v317h331v-317l-26 -441h-279z" />
    <glyph glyph-name="uniF8FF" unicode="&#xf8ff;" 
d="M215 0q-86 0 -142.5 56.5t-56.5 142.5v798q0 86 56.5 142.5t142.5 56.5h799q86 0 142 -56.5t56 -142.5v-798q0 -86 -56 -142.5t-142 -56.5h-799zM176 254h875l-439 760z" />
    <glyph glyph-name="uni004A0301" 
d="M780 1565l127 315h332l-184 -315h-275zM567 -33q-235 0 -366.5 147.5t-134.5 415.5l331 17q4 -157 44 -225t126 -68t125 60.5t39 195.5v944h330v-944q0 -259 -129.5 -401t-364.5 -142z" />
    <glyph glyph-name="uni013B.loclMAH" 
d="M188 0v1454h330v-1161h604v-293h-934zM477 -528l131 188h-92v242h281v-217l-156 -213h-164z" />
    <glyph glyph-name="uni0145.loclMAH" 
d="M127 0v1454h295l366 -836v836h314v-1454h-295l-367 836v-836h-313zM436 -528l131 188h-92v242h279v-217l-154 -213h-164z" />
    <glyph glyph-name="R.ss04" 
d="M127 0v1454h469q248 0 381 -117t133 -338q0 -290 -242 -415l293 -584h-352l-221 508h-131v-508h-330zM457 803h133q92 0 137 43.5t45 134.5q0 180 -182 180h-133v-358z" />
    <glyph glyph-name="Racute.ss04" 
d="M451 1565l124 315h334l-184 -315h-274zM127 0v1454h469q248 0 381 -117t133 -338q0 -290 -242 -415l293 -584h-352l-221 508h-131v-508h-330zM457 803h133q92 0 137 43.5t45 134.5q0 180 -182 180h-133v-358z" />
    <glyph glyph-name="Rcaron.ss04" 
d="M254 1886h221l115 -176l112 176h224l-203 -327h-268zM127 0v1454h469q248 0 381 -117t133 -338q0 -290 -242 -415l293 -584h-352l-221 508h-131v-508h-330zM457 803h133q92 0 137 43.5t45 134.5q0 180 -182 180h-133v-358z" />
    <glyph glyph-name="uni0156.ss04" 
d="M127 0v1454h469q248 0 381 -117t133 -338q0 -290 -242 -415l293 -584h-352l-221 508h-131v-508h-330zM457 803h133q92 0 137 43.5t45 134.5q0 180 -182 180h-133v-358zM412 -528l129 188h-92v242h280v-217l-154 -213h-163z" />
    <glyph glyph-name="G.ss06" 
d="M641 -33q-269 0 -426.5 199.5t-157.5 558.5q0 231 65 401.5t194 265.5t309 95q236 0 369 -135.5t171 -390.5l-338 -19q-20 127 -66.5 192.5t-131.5 65.5q-110 0 -171 -124t-61 -351q0 -232 58.5 -349.5t185.5 -117.5q219 0 219 256h-233v250h540v-113q0 -350 -131.5 -517
t-394.5 -167z" />
    <glyph glyph-name="Gbreve.ss06" 
d="M618 1556q-139 0 -226 85t-93 229h184q10 -131 135 -131q123 0 136 131h184q-6 -144 -93.5 -229t-226.5 -85zM641 -33q-269 0 -426.5 199.5t-157.5 558.5q0 231 65 401.5t194 265.5t309 95q236 0 369 -135.5t171 -390.5l-338 -19q-20 127 -66.5 192.5t-131.5 65.5
q-110 0 -171 -124t-61 -351q0 -232 58.5 -349.5t185.5 -117.5q219 0 219 256h-233v250h540v-113q0 -350 -131.5 -517t-394.5 -167z" />
    <glyph glyph-name="Gcircumflex.ss06" 
d="M281 1559l202 327h269l200 -327h-221l-115 176l-112 -176h-223zM641 -33q-269 0 -426.5 199.5t-157.5 558.5q0 231 65 401.5t194 265.5t309 95q236 0 369 -135.5t171 -390.5l-338 -19q-20 127 -66.5 192.5t-131.5 65.5q-110 0 -171 -124t-61 -351q0 -232 58.5 -349.5
t185.5 -117.5q219 0 219 256h-233v250h540v-113q0 -350 -131.5 -517t-394.5 -167z" />
    <glyph glyph-name="uni0122.ss06" 
d="M641 -33q-269 0 -426.5 199.5t-157.5 558.5q0 231 65 401.5t194 265.5t309 95q236 0 369 -135.5t171 -390.5l-338 -19q-20 127 -66.5 192.5t-131.5 65.5q-110 0 -171 -124t-61 -351q0 -232 58.5 -349.5t185.5 -117.5q219 0 219 256h-233v250h540v-113q0 -350 -131.5 -517
t-394.5 -167zM442 -528l129 188h-92v242h281v-217l-154 -213h-164z" />
    <glyph glyph-name="Gdotaccent.ss06" 
d="M461 1577v256h313v-256h-313zM641 -33q-269 0 -426.5 199.5t-157.5 558.5q0 231 65 401.5t194 265.5t309 95q236 0 369 -135.5t171 -390.5l-338 -19q-20 127 -66.5 192.5t-131.5 65.5q-110 0 -171 -124t-61 -351q0 -232 58.5 -349.5t185.5 -117.5q219 0 219 256h-233v250
h540v-113q0 -350 -131.5 -517t-394.5 -167z" />
    <glyph glyph-name="uni1E20.ss06" 
d="M317 1587v228h601v-228h-601zM641 -33q-269 0 -426.5 199.5t-157.5 558.5q0 231 65 401.5t194 265.5t309 95q236 0 369 -135.5t171 -390.5l-338 -19q-20 127 -66.5 192.5t-131.5 65.5q-110 0 -171 -124t-61 -351q0 -232 58.5 -349.5t185.5 -117.5q219 0 219 256h-233v250
h540v-113q0 -350 -131.5 -517t-394.5 -167z" />
    <glyph glyph-name="Adieresis.ss08" 
d="M395 1556q-75 0 -118.5 40t-43.5 114t43.5 115t118.5 41q73 0 116.5 -41t43.5 -115t-43.5 -114t-116.5 -40zM834 1556q-73 0 -116.5 40t-43.5 114t43.5 115t116.5 41t116 -41t43 -115t-43 -114t-116 -40zM33 0l385 1454h393l385 -1454h-330l-67 274h-369l-68 -274h-329z
M614 1038l-116 -481h233z" />
    <glyph glyph-name="Cdotaccent.ss08" 
d="M623 1556q-75 0 -118.5 40t-43.5 114t43.5 115t118.5 41q73 0 116 -41t43 -115t-43 -114t-116 -40zM625 -33q-267 0 -415.5 202t-148.5 556q0 356 148.5 559t415.5 203q219 0 357 -145.5t173 -413.5l-334 -15q-19 138 -70 212.5t-126 74.5q-108 0 -167 -123.5t-59 -351.5
q0 -226 59 -348.5t167 -122.5q75 0 128.5 79t71.5 224l334 -14q-35 -276 -174 -426t-360 -150z" />
    <glyph glyph-name="Edieresis.ss08" 
d="M416 1559q-75 0 -118.5 39.5t-43.5 113.5t43.5 115t118.5 41q73 0 116 -41t43 -115t-43 -113.5t-116 -39.5zM854 1559q-74 0 -117 39.5t-43 113.5t43.5 115t116.5 41t116.5 -41t43.5 -115t-43 -113.5t-117 -39.5zM168 0v1454h917v-293h-587v-289h563v-286h-563v-293h604
v-293h-934z" />
    <glyph glyph-name="Edotaccent.ss08" 
d="M631 1559q-74 0 -117 39.5t-43 113.5t43.5 115t116.5 41q75 0 118.5 -41t43.5 -115t-43.5 -113.5t-118.5 -39.5zM168 0v1454h917v-293h-587v-289h563v-286h-563v-293h604v-293h-934z" />
    <glyph glyph-name="Gdotaccent.ss08" 
d="M621 1556q-73 0 -116.5 40t-43.5 114t43.5 115t116.5 41t116 -41t43 -115t-43 -114t-116 -40zM621 -33q-256 0 -408 202t-152 556t150 558t412 204q219 0 354 -133t182 -393l-336 -19q-39 254 -198 254q-108 0 -167 -122t-59 -349q0 -226 64.5 -346.5t183.5 -120.5
q93 0 144.5 66.5t54.5 191.5h-230v248h535v-764h-205l-6 145q-49 -81 -131.5 -129.5t-187.5 -48.5z" />
    <glyph glyph-name="Idieresis.ss08" 
d="M395 1556q-75 0 -118.5 40t-43.5 114t43.5 115t118.5 41q73 0 116.5 -41t43.5 -115t-43.5 -114t-116.5 -40zM834 1556q-73 0 -116.5 40t-43.5 114t43.5 115t116.5 41t116 -41t43 -115t-43 -114t-116 -40zM147 0v293h302v868h-302v293h934v-293h-301v-868h301v-293h-934z
" />
    <glyph glyph-name="Idotaccent.ss08" 
d="M610 1556q-73 0 -116 40t-43 114t43 115t116 41q75 0 118.5 -41t43.5 -115t-43.5 -114t-118.5 -40zM147 0v293h302v868h-302v293h934v-293h-301v-868h301v-293h-934z" />
    <glyph glyph-name="Odieresis.ss08" 
d="M395 1556q-75 0 -118.5 40t-43.5 114t43.5 115t118.5 41q73 0 116.5 -41t43.5 -115t-43.5 -114t-116.5 -40zM834 1556q-73 0 -116.5 40t-43.5 114t43.5 115t116.5 41t116 -41t43 -115t-43 -114t-116 -40zM614 -33q-266 0 -409.5 196.5t-143.5 561.5t144 563.5t409 198.5
t409 -198.5t144 -563.5t-143.5 -561.5t-409.5 -196.5zM614 254q108 0 161.5 112t53.5 359t-53.5 361t-161.5 114t-161.5 -114t-53.5 -361t53.5 -359t161.5 -112z" />
    <glyph glyph-name="Udieresis.ss08" 
d="M395 1556q-75 0 -118.5 40t-43.5 114t43.5 115t118.5 41q73 0 116.5 -41t43.5 -115t-43.5 -114t-116.5 -40zM834 1556q-73 0 -116.5 40t-43.5 114t43.5 115t116.5 41t116 -41t43 -115t-43 -114t-116 -40zM614 -33q-245 0 -376.5 136.5t-131.5 398.5v954h330v-987
q0 -103 46 -159t132 -56t132.5 56t46.5 159v987h329v-954q0 -262 -131.5 -398.5t-376.5 -136.5z" />
    <glyph glyph-name="Wdieresis.ss08" 
d="M395 1556q-75 0 -118.5 40t-43.5 114t43.5 115t118.5 41q73 0 116.5 -41t43.5 -115t-43.5 -114t-116.5 -40zM834 1556q-73 0 -116.5 40t-43.5 114t43.5 115t116.5 41t116 -41t43 -115t-43 -114t-116 -40zM193 0l-148 1454h305l66 -913l106 749h185l106 -749l66 913h305
l-148 -1454h-321l-101 659l-100 -659h-321z" />
    <glyph glyph-name="Ydieresis.ss08" 
d="M395 1556q-75 0 -118.5 40t-43.5 114t43.5 115t118.5 41q73 0 116.5 -41t43.5 -115t-43.5 -114t-116.5 -40zM834 1556q-73 0 -116.5 40t-43.5 114t43.5 115t116.5 41t116 -41t43 -115t-43 -114t-116 -40zM451 0v610l-396 844h353l206 -504l207 504h353l-394 -844v-610
h-329z" />
    <glyph glyph-name="Zdotaccent.ss08" 
d="M610 1556q-73 0 -116 40t-43 114t43 115t116 41q75 0 118.5 -41t43.5 -115t-43.5 -114t-118.5 -40zM86 0v291l651 870h-614v293h1003v-291l-641 -870h658v-293h-1057z" />
    <glyph glyph-name="Gdotaccent.ss06.ss08" 
d="M614 1556q-73 0 -116 40t-43 114t43 115t116 41t116.5 -41t43.5 -115t-43.5 -114t-116.5 -40zM641 -33q-269 0 -426.5 199.5t-157.5 558.5q0 231 65 401.5t194 265.5t309 95q236 0 369 -135.5t171 -390.5l-338 -19q-20 127 -66.5 192.5t-131.5 65.5q-110 0 -171 -124
t-61 -351q0 -232 58.5 -349.5t185.5 -117.5q219 0 219 256h-233v250h540v-113q0 -350 -131.5 -517t-394.5 -167z" />
    <glyph glyph-name="i.loclTRK" 
d="M524 1225v256h316v-256h-316zM131 0v244h399v614h-378v244h690v-858h338v-244h-1049z" />
    <glyph glyph-name="uni006A0301" 
d="M684 1212l125 316h334l-185 -316h-274zM193 -307v244h294q93 0 137 43t44 137v741h-469v244h780v-993q0 -203 -118 -309.5t-343 -106.5h-325z" />
    <glyph glyph-name="uni013C.loclMAH" 
d="M90 0v244h395v843q0 60 -31.5 91.5t-91.5 31.5h-231v244h295q373 0 373 -373v-837h340v-244h-1049zM463 -528l129 188h-92v242h280v-217l-153 -213h-164z" />
    <glyph glyph-name="uni0146.loclMAH" 
d="M139 0v1102h285l6 -197q83 221 328 221q167 0 249.5 -109.5t82.5 -301.5v-715h-314v647q0 113 -35.5 165t-109.5 52q-75 0 -126.5 -61t-51.5 -172v-631h-314zM432 -528l129 188h-92v242h281v-217l-154 -213h-164z" />
    <glyph glyph-name="a.ss01" 
d="M422 -25q-143 0 -238.5 85t-95.5 231q0 252 330 327l319 70q0 97 -36 147t-119 50q-71 0 -111.5 -37.5t-50.5 -97.5l-322 16q31 164 158.5 262t316.5 98q478 0 478 -458v-668h-273l-8 174q-39 -90 -130.5 -144.5t-217.5 -54.5zM524 203q101 0 157 56t56 161v55l-213 -49
q-62 -13 -88 -41.5t-26 -81.5q0 -48 29 -74t85 -26z" />
    <glyph glyph-name="aacute.ss01" 
d="M489 1212l127 316h332l-184 -316h-275zM422 -25q-143 0 -238.5 85t-95.5 231q0 252 330 327l319 70q0 97 -36 147t-119 50q-71 0 -111.5 -37.5t-50.5 -97.5l-322 16q31 164 158.5 262t316.5 98q478 0 478 -458v-668h-273l-8 174q-39 -90 -130.5 -144.5t-217.5 -54.5z
M524 203q101 0 157 56t56 161v55l-213 -49q-62 -13 -88 -41.5t-26 -81.5q0 -48 29 -74t85 -26z" />
    <glyph glyph-name="abreve.ss01" 
d="M629 1204q-139 0 -226.5 85t-93.5 229h185q11 -132 135 -132t135 132h184q-6 -144 -93 -229t-226 -85zM422 -25q-143 0 -238.5 85t-95.5 231q0 252 330 327l319 70q0 97 -36 147t-119 50q-71 0 -111.5 -37.5t-50.5 -97.5l-322 16q31 164 158.5 262t316.5 98
q478 0 478 -458v-668h-273l-8 174q-39 -90 -130.5 -144.5t-217.5 -54.5zM524 203q101 0 157 56t56 161v55l-213 -49q-62 -13 -88 -41.5t-26 -81.5q0 -48 29 -74t85 -26z" />
    <glyph glyph-name="uni01CE.ss01" 
d="M293 1534h221l115 -176l114 176h222l-203 -328h-266zM422 -25q-143 0 -238.5 85t-95.5 231q0 252 330 327l319 70q0 97 -36 147t-119 50q-71 0 -111.5 -37.5t-50.5 -97.5l-322 16q31 164 158.5 262t316.5 98q478 0 478 -458v-668h-273l-8 174q-39 -90 -130.5 -144.5
t-217.5 -54.5zM524 203q101 0 157 56t56 161v55l-213 -49q-62 -13 -88 -41.5t-26 -81.5q0 -48 29 -74t85 -26z" />
    <glyph glyph-name="acircumflex.ss01" 
d="M293 1206l201 328h268l203 -328h-224l-112 176l-115 -176h-221zM422 -25q-143 0 -238.5 85t-95.5 231q0 252 330 327l319 70q0 97 -36 147t-119 50q-71 0 -111.5 -37.5t-50.5 -97.5l-322 16q31 164 158.5 262t316.5 98q478 0 478 -458v-668h-273l-8 174
q-39 -90 -130.5 -144.5t-217.5 -54.5zM524 203q101 0 157 56t56 161v55l-213 -49q-62 -13 -88 -41.5t-26 -81.5q0 -48 29 -74t85 -26z" />
    <glyph glyph-name="adieresis.ss01" 
d="M256 1219v256h315v-256h-315zM686 1219v256h315v-256h-315zM422 -25q-143 0 -238.5 85t-95.5 231q0 252 330 327l319 70q0 97 -36 147t-119 50q-71 0 -111.5 -37.5t-50.5 -97.5l-322 16q31 164 158.5 262t316.5 98q478 0 478 -458v-668h-273l-8 174
q-39 -90 -130.5 -144.5t-217.5 -54.5zM524 203q101 0 157 56t56 161v55l-213 -49q-62 -13 -88 -41.5t-26 -81.5q0 -48 29 -74t85 -26z" />
    <glyph glyph-name="agrave.ss01" 
d="M502 1212l-185 316h334l125 -316h-274zM422 -25q-143 0 -238.5 85t-95.5 231q0 252 330 327l319 70q0 97 -36 147t-119 50q-71 0 -111.5 -37.5t-50.5 -97.5l-322 16q31 164 158.5 262t316.5 98q478 0 478 -458v-668h-273l-8 174q-39 -90 -130.5 -144.5t-217.5 -54.5z
M524 203q101 0 157 56t56 161v55l-213 -49q-62 -13 -88 -41.5t-26 -81.5q0 -48 29 -74t85 -26z" />
    <glyph glyph-name="amacron.ss01" 
d="M328 1235v227h602v-227h-602zM422 -25q-143 0 -238.5 85t-95.5 231q0 252 330 327l319 70q0 97 -36 147t-119 50q-71 0 -111.5 -37.5t-50.5 -97.5l-322 16q31 164 158.5 262t316.5 98q478 0 478 -458v-668h-273l-8 174q-39 -90 -130.5 -144.5t-217.5 -54.5zM524 203
q101 0 157 56t56 161v55l-213 -49q-62 -13 -88 -41.5t-26 -81.5q0 -48 29 -74t85 -26z" />
    <glyph glyph-name="aogonek.ss01" 
d="M422 -25q-143 0 -238.5 85t-95.5 231q0 252 330 327l319 70q0 97 -36 147t-119 50q-71 0 -111.5 -37.5t-50.5 -97.5l-322 16q31 164 158.5 262t316.5 98q478 0 478 -458v-668l-64 -82q-61 -80 -61 -121q0 -23 14.5 -36t38.5 -13q51 0 90 31l53 -166q-34 -26 -98.5 -45
t-134.5 -19q-101 0 -161 52.5t-60 136.5q0 101 86 207l43 55h-19l-8 174q-39 -90 -130.5 -144.5t-217.5 -54.5zM524 203q101 0 157 56t56 161v55l-213 -49q-62 -13 -88 -41.5t-26 -81.5q0 -48 29 -74t85 -26z" />
    <glyph glyph-name="aring.ss01" 
d="M627 1176q-94 0 -157.5 61.5t-63.5 153.5t63.5 153.5t157.5 61.5q95 0 158 -61.5t63 -153.5t-63 -153.5t-158 -61.5zM627 1309q37 0 58.5 22.5t21.5 59.5t-22 60.5t-58 23.5t-58 -23.5t-22 -60.5t21.5 -59.5t58.5 -22.5zM422 -25q-143 0 -238.5 85t-95.5 231
q0 252 330 327l319 70q0 97 -36 147t-119 50q-71 0 -111.5 -37.5t-50.5 -97.5l-322 16q31 164 158.5 262t316.5 98q478 0 478 -458v-668h-273l-8 174q-39 -90 -130.5 -144.5t-217.5 -54.5zM524 203q101 0 157 56t56 161v55l-213 -49q-62 -13 -88 -41.5t-26 -81.5
q0 -48 29 -74t85 -26z" />
    <glyph glyph-name="atilde.ss01" 
d="M756 1223q-78 0 -158 61q-49 41 -90 41q-69 0 -74 -115h-149q6 301 211 301q84 0 168 -65q48 -37 86 -37q32 0 50.5 27t22.5 92h150q-4 -158 -58.5 -231.5t-158.5 -73.5zM422 -25q-143 0 -238.5 85t-95.5 231q0 252 330 327l319 70q0 97 -36 147t-119 50
q-71 0 -111.5 -37.5t-50.5 -97.5l-322 16q31 164 158.5 262t316.5 98q478 0 478 -458v-668h-273l-8 174q-39 -90 -130.5 -144.5t-217.5 -54.5zM524 203q101 0 157 56t56 161v55l-213 -49q-62 -13 -88 -41.5t-26 -81.5q0 -48 29 -74t85 -26z" />
    <glyph glyph-name="a.ss02" 
d="M504 -25q-200 0 -316 149.5t-116 426.5q0 278 116 426.5t312 148.5q120 0 194.5 -52t124.5 -148l6 176h308v-1102h-304l-6 160q-95 -185 -319 -185zM606 248q101 0 159 81t58 222q0 142 -58 223.5t-159 81.5q-110 0 -160.5 -77.5t-50.5 -227.5q0 -303 211 -303z" />
    <glyph glyph-name="aacute.ss02" 
d="M479 1212l125 316h334l-184 -316h-275zM504 -25q-200 0 -316 149.5t-116 426.5q0 278 116 426.5t312 148.5q120 0 194.5 -52t124.5 -148l6 176h308v-1102h-304l-6 160q-95 -185 -319 -185zM606 248q101 0 159 81t58 222q0 142 -58 223.5t-159 81.5q-110 0 -160.5 -77.5
t-50.5 -227.5q0 -303 211 -303z" />
    <glyph glyph-name="abreve.ss02" 
d="M618 1204q-139 0 -226 85t-93 229h184q11 -132 135 -132q123 0 136 132h184q-6 -144 -93.5 -229t-226.5 -85zM504 -25q-200 0 -316 149.5t-116 426.5q0 278 116 426.5t312 148.5q120 0 194.5 -52t124.5 -148l6 176h308v-1102h-304l-6 160q-95 -185 -319 -185zM606 248
q101 0 159 81t58 222q0 142 -58 223.5t-159 81.5q-110 0 -160.5 -77.5t-50.5 -227.5q0 -303 211 -303z" />
    <glyph glyph-name="uni01CE.ss02" 
d="M283 1534h221l114 -176l113 176h223l-202 -328h-269zM504 -25q-200 0 -316 149.5t-116 426.5q0 278 116 426.5t312 148.5q120 0 194.5 -52t124.5 -148l6 176h308v-1102h-304l-6 160q-95 -185 -319 -185zM606 248q101 0 159 81t58 222q0 142 -58 223.5t-159 81.5
q-110 0 -160.5 -77.5t-50.5 -227.5q0 -303 211 -303z" />
    <glyph glyph-name="acircumflex.ss02" 
d="M281 1206l202 328h269l200 -328h-221l-115 176l-112 -176h-223zM504 -25q-200 0 -316 149.5t-116 426.5q0 278 116 426.5t312 148.5q120 0 194.5 -52t124.5 -148l6 176h308v-1102h-304l-6 160q-95 -185 -319 -185zM606 248q101 0 159 81t58 222q0 142 -58 223.5
t-159 81.5q-110 0 -160.5 -77.5t-50.5 -227.5q0 -303 211 -303z" />
    <glyph glyph-name="adieresis.ss02" 
d="M246 1219v256h315v-256h-315zM676 1219v256h313v-256h-313zM504 -25q-200 0 -316 149.5t-116 426.5q0 278 116 426.5t312 148.5q120 0 194.5 -52t124.5 -148l6 176h308v-1102h-304l-6 160q-95 -185 -319 -185zM606 248q101 0 159 81t58 222q0 142 -58 223.5t-159 81.5
q-110 0 -160.5 -77.5t-50.5 -227.5q0 -303 211 -303z" />
    <glyph glyph-name="agrave.ss02" 
d="M492 1212l-185 316h332l127 -316h-274zM504 -25q-200 0 -316 149.5t-116 426.5q0 278 116 426.5t312 148.5q120 0 194.5 -52t124.5 -148l6 176h308v-1102h-304l-6 160q-95 -185 -319 -185zM606 248q101 0 159 81t58 222q0 142 -58 223.5t-159 81.5q-110 0 -160.5 -77.5
t-50.5 -227.5q0 -303 211 -303z" />
    <glyph glyph-name="amacron.ss02" 
d="M317 1235v227h601v-227h-601zM504 -25q-200 0 -316 149.5t-116 426.5q0 278 116 426.5t312 148.5q120 0 194.5 -52t124.5 -148l6 176h308v-1102h-304l-6 160q-95 -185 -319 -185zM606 248q101 0 159 81t58 222q0 142 -58 223.5t-159 81.5q-110 0 -160.5 -77.5
t-50.5 -227.5q0 -303 211 -303z" />
    <glyph glyph-name="aogonek.ss02" 
d="M504 -25q-200 0 -316 149.5t-116 426.5q0 278 116 426.5t312 148.5q120 0 194.5 -52t124.5 -148l6 176h308v-1102l-64 -82q-61 -80 -61 -121q0 -23 14.5 -36t38.5 -13q51 0 90 31l53 -166q-34 -26 -98.5 -45t-134.5 -19q-101 0 -161 52.5t-60 136.5q0 101 86 207l43 55
h-50l-6 160q-95 -185 -319 -185zM606 248q101 0 159 81t58 222q0 142 -58 223.5t-159 81.5q-110 0 -160.5 -77.5t-50.5 -227.5q0 -303 211 -303z" />
    <glyph glyph-name="aring.ss02" 
d="M616 1176q-95 0 -158 61.5t-63 153.5t63 153.5t158 61.5q94 0 158 -61.5t64 -153.5t-64 -153.5t-158 -61.5zM616 1309q37 0 58.5 22.5t21.5 59.5t-22 60.5t-58 23.5t-57.5 -23.5t-21.5 -60.5t21.5 -59.5t57.5 -22.5zM504 -25q-200 0 -316 149.5t-116 426.5
q0 278 116 426.5t312 148.5q120 0 194.5 -52t124.5 -148l6 176h308v-1102h-304l-6 160q-95 -185 -319 -185zM606 248q101 0 159 81t58 222q0 142 -58 223.5t-159 81.5q-110 0 -160.5 -77.5t-50.5 -227.5q0 -303 211 -303z" />
    <glyph glyph-name="atilde.ss02" 
d="M743 1223q-78 0 -155 61q-52 41 -90 41q-69 0 -74 -115h-150q6 301 209 301q86 0 170 -65q48 -37 86 -37q32 0 50 27t22 92h150q-3 -158 -58 -231.5t-160 -73.5zM504 -25q-200 0 -316 149.5t-116 426.5q0 278 116 426.5t312 148.5q120 0 194.5 -52t124.5 -148l6 176h308
v-1102h-304l-6 160q-95 -185 -319 -185zM606 248q101 0 159 81t58 222q0 142 -58 223.5t-159 81.5q-110 0 -160.5 -77.5t-50.5 -227.5q0 -303 211 -303z" />
    <glyph glyph-name="l.ss03" 
d="M823 0q-181 0 -267.5 85.5t-86.5 264.5v860h-338v244h651v-1094q0 -60 28.5 -88t88.5 -28h281v-244h-357z" />
    <glyph glyph-name="lacute.ss03" 
d="M475 1565l127 315h332l-184 -315h-275zM823 0q-181 0 -267.5 85.5t-86.5 264.5v860h-338v244h651v-1094q0 -60 28.5 -88t88.5 -28h281v-244h-357z" />
    <glyph glyph-name="lcaron.ss03" 
d="M823 0q-181 0 -267.5 85.5t-86.5 264.5v860h-338v244h651v-1094q0 -60 28.5 -88t88.5 -28h281v-244h-357zM889 848l65 606h279l-123 -606h-221z" />
    <glyph glyph-name="uni013C.ss03" 
d="M823 0q-181 0 -267.5 85.5t-86.5 264.5v860h-338v244h651v-1094q0 -60 28.5 -88t88.5 -28h281v-244h-357zM436 -528l131 188h-92v242h279v-217l-154 -213h-164z" />
    <glyph glyph-name="lslash.ss03" 
d="M324 618l-58 168l195 64v360h-338v244h651v-502l131 41l58 -166l-189 -61v-406q0 -60 28 -88t87 -28h282v-244h-356q-181 0 -267.5 85.5t-86.5 264.5v314z" />
    <glyph glyph-name="adieresis.ss08" 
d="M362 1204q-75 0 -118 40t-43 114t43 114.5t118 40.5q73 0 116.5 -40.5t43.5 -114.5t-43.5 -114t-116.5 -40zM801 1204q-73 0 -116.5 40t-43.5 114t43.5 114.5t116.5 40.5t116.5 -40.5t43.5 -114.5t-43.5 -114t-116.5 -40zM455 -25q-157 0 -262 85t-105 231q0 252 330 327
l319 70q0 97 -36 147t-119 50q-71 0 -111.5 -37.5t-50.5 -97.5l-322 16q31 164 158.5 262t316.5 98q478 0 478 -458v-365q0 -76 55 -76h37v-227q-40 -10 -103 -10q-106 0 -173 46.5t-91 131.5q-33 -88 -116.5 -140.5t-204.5 -52.5zM524 203q101 0 157 56t56 161v55l-213 -49
q-62 -13 -88 -41.5t-26 -81.5q0 -48 29 -74t85 -26z" />
    <glyph glyph-name="cdotaccent.ss08" 
d="M629 1204q-75 0 -118.5 40t-43.5 114t43.5 114.5t118.5 40.5q73 0 116 -40.5t43 -114.5t-43 -114t-116 -40zM631 -25q-239 0 -390 160.5t-151 415.5t151 415t390 160q200 0 342 -120t168 -316l-310 -14q-19 86 -70 132t-128 46q-102 0 -159.5 -80.5t-57.5 -222.5
t57.5 -222.5t159.5 -80.5q78 0 130 48t71 138l309 -16q-26 -198 -168.5 -320.5t-343.5 -122.5z" />
    <glyph glyph-name="edieresis.ss08" 
d="M397 1200q-73 0 -117 41t-44 115t44 114.5t117 40.5t116.5 -40.5t43.5 -114.5t-43.5 -115t-116.5 -41zM836 1200q-73 0 -116.5 41t-43.5 115t43.5 114.5t116.5 40.5t117 -40.5t44 -114.5t-44 -115t-117 -41zM618 -25q-234 0 -381 158t-147 418q0 255 146.5 415t379.5 160
t380 -160.5t147 -420.5v-76h-733q10 -105 68 -163t149 -58q66 0 114 31.5t68 87.5l309 -23q-122 -369 -500 -369zM416 670h391q-9 90 -60 137t-135 47t-135 -47.5t-61 -136.5z" />
    <glyph glyph-name="edotaccent.ss08" 
d="M614 1200q-74 0 -117.5 41t-43.5 115t43 114.5t118 40.5q73 0 116.5 -40.5t43.5 -114.5t-43.5 -115t-116.5 -41zM618 -25q-234 0 -381 158t-147 418q0 255 146.5 415t379.5 160t380 -160.5t147 -420.5v-76h-733q10 -105 68 -163t149 -58q66 0 114 31.5t68 87.5l309 -23
q-122 -369 -500 -369zM416 670h391q-9 90 -60 137t-135 47t-135 -47.5t-61 -136.5z" />
    <glyph glyph-name="gdotaccent.ss08" 
d="M629 1204q-74 0 -118 40.5t-44 113.5q0 74 44 114.5t118 40.5q73 0 116 -40.5t43 -114.5t-43 -114t-116 -40zM606 -332q-204 0 -328.5 83.5t-160.5 232.5l327 18q29 -88 162 -88q106 0 160.5 50t54.5 145v110q-83 -162 -299 -162q-195 0 -321.5 146.5t-126.5 376.5
q0 250 122.5 398t321.5 148q217 0 305 -190l6 166h306v-950q0 -238 -141.5 -361t-387.5 -123zM612 299q96 0 152.5 73t56.5 216q1 142 -56 217.5t-153 75.5q-104 0 -159.5 -74t-55.5 -219t56 -217t159 -72z" />
    <glyph glyph-name="i.ss08" 
d="M680 1204q-75 0 -118.5 40t-43.5 114t43.5 114.5t118.5 40.5q73 0 116.5 -40.5t43.5 -114.5t-43.5 -114t-116.5 -40zM131 0v244h399v614h-378v244h690v-858h338v-244h-1049z" />
    <glyph glyph-name="idieresis.ss08" 
d="M463 1204q-74 0 -118 40.5t-44 113.5q0 74 44 114.5t118 40.5q73 0 116.5 -40.5t43.5 -114.5t-43.5 -114t-116.5 -40zM901 1204q-73 0 -116.5 40t-43.5 114t43.5 114.5t116.5 40.5q74 0 118 -40.5t44 -114.5q0 -73 -44 -113.5t-118 -40.5zM131 0v244h399v614h-378v244
h690v-858h338v-244h-1049z" />
    <glyph glyph-name="i.loclTRK.ss08" 
d="M680 1204q-75 0 -118.5 40t-43.5 114t43.5 114.5t118.5 40.5q73 0 116.5 -40.5t43.5 -114.5t-43.5 -114t-116.5 -40zM131 0v244h399v614h-378v244h690v-858h338v-244h-1049z" />
    <glyph glyph-name="iogonek.ss08" 
d="M680 1204q-75 0 -118.5 40t-43.5 114t43.5 114.5t118.5 40.5q73 0 116.5 -40.5t43.5 -114.5t-43.5 -114t-116.5 -40zM131 0v244h399v614h-378v244h690v-858h338v-244l-64 -82q-61 -80 -61 -121q0 -23 15 -36t40 -13q49 0 88 31l55 -166q-34 -25 -99 -44.5t-136 -19.5
q-101 0 -161 52.5t-60 136.5q0 97 86 207l43 55h-795z" />
    <glyph glyph-name="j.ss08" 
d="M819 1204q-73 0 -116.5 40t-43.5 114t43.5 114.5t116.5 40.5t116.5 -40.5t43.5 -114.5t-43.5 -114t-116.5 -40zM193 -307v244h294q93 0 137 43t44 137v741h-469v244h780v-993q0 -203 -118 -309.5t-343 -106.5h-325z" />
    <glyph glyph-name="odieresis.ss08" 
d="M395 1204q-75 0 -118.5 40t-43.5 114t43.5 114.5t118.5 40.5q73 0 116.5 -40.5t43.5 -114.5t-43.5 -114t-116.5 -40zM834 1204q-73 0 -116.5 40t-43.5 114t43.5 114.5t116.5 40.5t116 -40.5t43 -114.5t-43 -114t-116 -40zM614 -25q-237 0 -382.5 157.5t-145.5 418.5
t145.5 418t382.5 157q238 0 383.5 -157t145.5 -418t-146 -418.5t-383 -157.5zM614 248q99 0 152 77.5t53 225.5t-53 225.5t-152 77.5t-151.5 -77.5t-52.5 -225.5t52.5 -225.5t151.5 -77.5z" />
    <glyph glyph-name="udieresis.ss08" 
d="M387 1204q-74 0 -118 40.5t-44 113.5q0 74 44 114.5t118 40.5q73 0 116.5 -40.5t43.5 -114.5t-43.5 -114t-116.5 -40zM825 1204q-73 0 -116 40t-43 114t43 114.5t116 40.5q74 0 118 -40.5t44 -114.5q0 -73 -44 -113.5t-118 -40.5zM469 -25q-156 0 -242 102.5t-86 297.5
v727h314v-647q0 -116 35.5 -166.5t107.5 -50.5q74 0 124 59.5t50 169.5v635h313v-1102h-286l-6 195q-40 -106 -123.5 -163t-200.5 -57z" />
    <glyph glyph-name="wdieresis.ss08" 
d="M395 1204q-75 0 -118.5 40t-43.5 114t43.5 114.5t118.5 40.5q73 0 116.5 -40.5t43.5 -114.5t-43.5 -114t-116.5 -40zM834 1204q-73 0 -116.5 40t-43.5 114t43.5 114.5t116.5 40.5t116 -40.5t43 -114.5t-43 -114t-116 -40zM221 0l-196 1102h307l86 -653l98 491h197
l98 -491l86 653h307l-196 -1102h-287l-107 494l-106 -494h-287z" />
    <glyph glyph-name="ydieresis.ss08" 
d="M401 1204q-73 0 -116 40t-43 114t43 114.5t116 40.5q75 0 118.5 -40.5t43.5 -114.5t-43.5 -114t-118.5 -40zM842 1204q-74 0 -118 40.5t-44 113.5q0 74 44 114.5t118 40.5q73 0 116 -40.5t43 -114.5t-43 -114t-116 -40zM221 -307v244h156q54 0 83 16t44 57l26 76h-96
l-379 1016h322l250 -715l225 715h324l-416 -1186q-41 -119 -127 -171t-223 -52h-189z" />
    <glyph glyph-name="zdotaccent.ss08" 
d="M614 1204q-73 0 -116 40t-43 114t43 114.5t116 40.5q74 0 118 -40.5t44 -114.5q0 -73 -44 -113.5t-118 -40.5zM131 0v260l582 598h-561v244h925v-260l-579 -598h600v-244h-967z" />
    <glyph glyph-name="adieresis.ss01.ss08" 
d="M410 1204q-75 0 -118.5 40t-43.5 114t43.5 114.5t118.5 40.5q73 0 116 -40.5t43 -114.5t-43 -114t-116 -40zM848 1204q-73 0 -116.5 40t-43.5 114t43.5 114.5t116.5 40.5t116.5 -40.5t43.5 -114.5t-43.5 -114t-116.5 -40zM422 -25q-143 0 -238.5 85t-95.5 231
q0 252 330 327l319 70q0 97 -36 147t-119 50q-71 0 -111.5 -37.5t-50.5 -97.5l-322 16q31 164 158.5 262t316.5 98q478 0 478 -458v-668h-273l-8 174q-39 -90 -130.5 -144.5t-217.5 -54.5zM524 203q101 0 157 56t56 161v55l-213 -49q-62 -13 -88 -41.5t-26 -81.5
q0 -48 29 -74t85 -26z" />
    <glyph glyph-name="adieresis.ss02.ss08" 
d="M397 1204q-73 0 -116 40t-43 114t43 114.5t116 40.5q74 0 118 -40.5t44 -114.5q0 -73 -44 -113.5t-118 -40.5zM838 1204q-75 0 -118.5 40t-43.5 114t43.5 114.5t118.5 40.5q73 0 116 -40.5t43 -114.5t-43 -114t-116 -40zM504 -25q-200 0 -316 149.5t-116 426.5
q0 278 116 426.5t312 148.5q120 0 194.5 -52t124.5 -148l6 176h308v-1102h-304l-6 160q-95 -185 -319 -185zM606 248q101 0 159 81t58 222q0 142 -58 223.5t-159 81.5q-110 0 -160.5 -77.5t-50.5 -227.5q0 -303 211 -303z" />
    <glyph glyph-name="zero.ss09" 
d="M614 -33q-248 0 -388 202.5t-140 555.5q0 355 140 558.5t388 203.5t388.5 -203.5t140.5 -558.5q0 -353 -140.5 -555.5t-388.5 -202.5zM614 254q191 0 191 471q0 475 -191 475q-190 0 -190 -475q0 -471 190 -471z" />
    <glyph glyph-name="zero.dnom" 
d="M614 -16q-172 0 -269 109t-97 304t96.5 303.5t269.5 108.5t270 -108.5t97 -303.5t-97.5 -304t-269.5 -109zM471 397q0 -65 12 -112l199 338q-27 18 -68 18q-75 0 -109 -58.5t-34 -185.5zM614 152q73 0 108.5 60t35.5 185q0 61 -10 113l-199 -338q30 -20 65 -20z" />
    <glyph glyph-name="one.dnom" 
d="M610 0v434h-215v168h58q94 0 144 51t50 140h187v-793h-224z" />
    <glyph glyph-name="two.dnom" 
d="M322 0q0 179 44.5 261.5t176.5 148.5l90 45q48 24 65 44t17 58q0 37 -23 60.5t-67 23.5q-49 0 -76.5 -25t-34.5 -84l-201 13q12 129 92.5 196.5t217.5 67.5q148 0 220 -66.5t72 -179.5q0 -91 -43 -147.5t-139 -104.5l-92 -45q-88 -43 -88 -78h340v-188h-571z" />
    <glyph glyph-name="three.dnom" 
d="M608 -16q-161 0 -229.5 55.5t-77.5 181.5l217 8q6 -77 90 -77q44 0 69 22.5t25 65.5q0 40 -28 64t-74 24h-57v147h57q35 0 56.5 21.5t21.5 56.5q0 42 -20 65t-56 23q-71 0 -80 -82l-215 10q24 240 293 240q151 0 224 -56.5t73 -154.5q0 -146 -156 -184q187 -34 187 -189
q0 -109 -81.5 -175t-238.5 -66z" />
    <glyph glyph-name="four.dnom" 
d="M641 0v147h-375v158l348 488h250v-476h99v-170h-99v-147h-223zM471 317h170v220z" />
    <glyph glyph-name="five.dnom" 
d="M608 -16q-284 0 -303 229l215 10q6 -33 30 -52t60 -19q97 0 97 116q0 55 -23.5 86t-67.5 31q-63 0 -98 -61h-203l50 469h526v-172h-338l-18 -140q48 45 137 45q123 0 188.5 -69t65.5 -191q0 -132 -84 -207t-234 -75z" />
    <glyph glyph-name="six.dnom" 
d="M616 -16q-166 0 -255 95.5t-89 289.5q0 208 96 324t285 116q126 0 204 -53t97 -150l-200 -24q-4 29 -35 47t-74 18q-138 0 -156 -174q56 64 168 64q139 0 216 -70.5t77 -202.5q0 -130 -90 -205t-244 -75zM621 152q57 0 90.5 31t33.5 85q0 58 -33 88.5t-91 30.5
q-53 0 -86.5 -31t-34.5 -84q-1 -56 32.5 -88t88.5 -32z" />
    <glyph glyph-name="seven.dnom" 
d="M457 0q0 160 59 318t162 288h-350v189h573v-172q-119 -140 -170 -283.5t-51 -339.5h-223z" />
    <glyph glyph-name="eight.dnom" 
d="M614 -16q-338 0 -338 227q0 165 193 217q-80 23 -120 65t-40 113q0 100 72 151.5t233 51.5t233.5 -51.5t72.5 -151.5q0 -71 -40 -113t-120 -65q192 -56 192 -217q0 -227 -338 -227zM614 485q41 0 66 19.5t25 60.5q0 76 -91 76q-90 0 -90 -76q0 -41 24.5 -60.5t65.5 -19.5
zM614 152q57 0 86 22.5t29 73.5q0 45 -30.5 74.5t-84.5 29.5t-84 -29.5t-30 -74.5q0 -51 28.5 -73.5t85.5 -22.5z" />
    <glyph glyph-name="nine.dnom" 
d="M612 809q166 0 255 -95.5t89 -289.5q0 -208 -96 -324t-285 -116q-126 0 -204 52.5t-97 149.5l201 25q4 -29 35 -47.5t74 -18.5q137 0 155 174q-55 -63 -168 -63q-139 0 -215.5 70t-76.5 202q0 130 89.5 205.5t243.5 75.5zM608 641q-57 0 -91 -31.5t-34 -85.5
q0 -57 33.5 -87.5t91.5 -30.5q53 0 86.5 30.5t34.5 83.5q1 56 -32.5 88.5t-88.5 32.5z" />
    <glyph glyph-name="zero.numr" 
d="M614 645q-172 0 -269 109.5t-97 304.5t96.5 303t269.5 108t270 -108t97 -303t-97.5 -304.5t-269.5 -109.5zM471 1059q0 -67 12 -113l199 338q-29 19 -68 19q-75 0 -109 -58.5t-34 -185.5zM614 813q144 0 144 246q0 60 -10 112l-199 -337q31 -21 65 -21z" />
    <glyph glyph-name="one.numr" 
d="M610 662v434h-215v168h58q94 0 144 50.5t50 139.5h187v-792h-224z" />
    <glyph glyph-name="two.numr" 
d="M322 662q0 122 19 194t65.5 121t136.5 94l90 45q48 24 65 44.5t17 58.5q0 37 -23 60.5t-67 23.5q-49 0 -76.5 -25t-34.5 -84l-201 12q12 129 92.5 196.5t217.5 67.5q148 0 220 -66t72 -179q0 -91 -43 -147.5t-139 -104.5l-92 -45q-88 -43 -88 -78h340v-188h-571z" />
    <glyph glyph-name="three.numr" 
d="M608 645q-161 0 -229.5 56t-77.5 182l217 8q3 -37 26 -57.5t64 -20.5q44 0 69 22.5t25 65.5q0 40 -28 64t-74 24h-57v148h57q35 0 56.5 21t21.5 56q0 42 -20 65.5t-56 23.5q-71 0 -80 -82l-215 10q24 239 293 239q151 0 224 -56t73 -154q0 -148 -156 -185
q187 -34 187 -188q0 -109 -81.5 -175.5t-238.5 -66.5z" />
    <glyph glyph-name="four.numr" 
d="M641 662v147h-375v158l348 487h250v-475h99v-170h-99v-147h-223zM471 979h170v219z" />
    <glyph glyph-name="five.numr" 
d="M608 645q-284 0 -303 229l215 11q6 -34 30.5 -53t59.5 -19q46 0 71.5 29.5t25.5 87.5q0 55 -23.5 86t-67.5 31q-62 0 -98 -62h-203l50 469h526v-172h-338l-18 -139q48 45 137 45q123 0 188.5 -69t65.5 -191q0 -133 -84 -208t-234 -75z" />
    <glyph glyph-name="six.numr" 
d="M616 645q-166 0 -255 95.5t-89 289.5q0 208 96 324t285 116q126 0 204 -52.5t97 -149.5l-200 -25q-4 29 -35 47.5t-74 18.5q-138 0 -156 -174q55 63 168 63q139 0 216 -70t77 -202q0 -130 -90 -205.5t-244 -75.5zM621 813q57 0 90.5 31.5t33.5 85.5q0 58 -33 88.5
t-91 30.5q-53 0 -86.5 -31t-34.5 -84q-1 -56 32.5 -88.5t88.5 -32.5z" />
    <glyph glyph-name="seven.numr" 
d="M457 659q0 160 59 318.5t162 288.5h-350v188h573v-172q-119 -140 -170 -283.5t-51 -339.5h-223z" />
    <glyph glyph-name="eight.numr" 
d="M614 645q-338 0 -338 227q0 166 193 218q-80 23 -120 65t-40 113q0 100 72 151t233 51t233.5 -51t72.5 -151q0 -71 -40 -113t-120 -65q192 -56 192 -218q0 -227 -338 -227zM614 1147q41 0 66 19.5t25 60.5q0 76 -91 76q-90 0 -90 -76q0 -41 24.5 -60.5t65.5 -19.5z
M614 813q57 0 86 22.5t29 73.5q0 45 -30.5 75t-84.5 30q-53 0 -83.5 -30t-30.5 -75q0 -51 28.5 -73.5t85.5 -22.5z" />
    <glyph glyph-name="nine.numr" 
d="M612 1470q166 0 255 -95.5t89 -289.5q0 -208 -96 -324t-285 -116q-126 0 -204 53t-97 150l201 24q4 -29 35 -47t74 -18q137 0 155 174q-55 -63 -168 -63q-139 0 -215.5 70t-76.5 202q0 130 89.5 205t243.5 75zM608 1303q-57 0 -91 -31.5t-34 -85.5q0 -57 33.5 -88
t91.5 -31q53 0 86.5 31t34.5 84q1 56 -32.5 88.5t-88.5 32.5z" />
    <glyph glyph-name="hyphen_hyphen.liga" 
d="M86 520v244h889v-244h-889zM-975 520v244h887v-244h-887z" />
    <glyph glyph-name="hyphen_hyphen_hyphen.liga" 
d="M23 520v242h948v-242h-948zM-2200 520v242h947v-242h-947zM-1079 520v242h927v-242h-927z" />
    <glyph glyph-name="hyphen_hyphen_hyphen_greater.liga" 
d="M248 113l405 407h-4212v244h4214l-405 405h325l527 -528l-531 -526z" />
    <glyph glyph-name="hyphen_hyphen_greater.liga" 
d="M248 113l405 407h-2984v244h2986l-405 405h325l527 -528l-531 -526z" />
    <glyph glyph-name="hyphen_greater.liga" 
d="M248 113l405 407h-1755v244h1757l-405 405h325l527 -528l-531 -526z" />
    <glyph glyph-name="hyphen_greater_greater.liga" 
d="M248 113l528 530l-526 526h325l527 -528l-531 -526zM-307 113l405 407h-2429v244h2431l-405 405h323l527 -528l-529 -526z" />
    <glyph glyph-name="hyphen_less.liga" 
d="M778 115l-407 405h-1473v244h1473l403 405h326l-527 -526l529 -528h-324z" />
    <glyph glyph-name="hyphen_less_less.liga" 
d="M778 115l-530 526l526 528h326l-527 -526l529 -528h-324zM225 115l-407 405h-2149v244h2147l405 405h324l-527 -526l529 -528h-322z" />
    <glyph glyph-name="hyphen_asciitilde.liga" 
d="M-840 481v234h711q28 0 52.5 17.5t45.5 42t46.5 49t67.5 42t97 17.5q53 0 94.5 -17.5t67 -42t47 -49t46.5 -42t54 -17.5q46 0 71.5 47.5t25.5 130.5h254q0 -112 -38.5 -204t-120 -150t-192.5 -58q-55 0 -97 17.5t-67.5 42t-46.5 49t-45.5 42t-52.5 17.5q-29 0 -54 -17.5
t-46.5 -42t-47 -49t-67 -42t-94.5 -17.5h-711z" />
    <glyph glyph-name="braceleft_bar.liga" 
d="M-207 -184q-213 0 -340 115t-127 307v116q0 55 -8 91t-25 60.5t-50 37t-75.5 17.5t-109.5 5v264q162 -2 215 37.5t53 171.5v117q0 192 127 307t340 115h363v-244h-318q-244 0 -244 -196v-105q0 -134 -82.5 -223.5t-213.5 -101.5v-19q132 -11 214 -101.5t82 -226.5v-104
q0 -197 244 -197h318v-243h-363zM412 -184v1761h295v-1761h-295z" />
    <glyph glyph-name="period_period_period.liga" 
d="M-1720 0v328h346v-328h-346zM-786 0v328h344v-328h-344zM145 0v328h347v-328h-347z" />
    <glyph glyph-name="period_period_equal.liga" 
d="M-246 719v252h924v-252h-924zM-1976 385v428h450v-428h-450zM-1155 385v428h450v-428h-450zM-246 219v252h924v-252h-924z" />
    <glyph glyph-name="period_equal.liga" 
d="M-53 719v252h925v-252h-925zM-963 385v428h451v-428h-451zM-53 219v252h925v-252h-925z" />
    <glyph glyph-name="colon_equal.liga" 
d="M-823 844v327h346v-327h-346zM-143 719v252h923v-252h-923zM-143 219v252h923v-252h-923zM-823 109v329h346v-329h-346z" />
    <glyph glyph-name="exclam_question.liga" 
d="M332 446q0 169 40 264t146 150q95 52 126.5 93t31.5 110q0 66 -43 107.5t-137 41.5q-103 0 -153 -48t-64 -152l-326 16q19 205 162.5 332t380.5 127t369 -115.5t132 -302.5q0 -128 -54 -207.5t-181 -152.5q-91 -53 -121.5 -107.5t-30.5 -155.5h-278zM-678 479
q-16 99 -29.5 251.5t-13.5 268.5v455h303v-455q0 -114 -13 -265.5t-28 -254.5h-219zM305 0v328h346v-328h-346zM-741 0v328h344v-328h-344z" />
    <glyph glyph-name="exclam_equal.liga" 
d="M-360 0l79 227h-821v244h907l76 217h-983v244h1069l76 215h254l-78 -215h883v-244h-967l-76 -217h1043v-244h-1129l-79 -227h-254z" />
    <glyph glyph-name="exclam_equal_equal.liga" 
d="M-942 0l35 102h-1424v222h1502l47 135h-1549v221h1626l48 135h-1674v221h1751l39 111h254l-39 -111h1428v-221h-1505l-48 -135h1553v-221h-1630l-47 -135h1677v-222h-1755l-37 -102h-252z" />
    <glyph glyph-name="question_question.liga" 
d="M406 446q0 169 40 264t146 150q95 52 126.5 93t31.5 110q0 66 -43.5 107.5t-137.5 41.5q-103 0 -153 -48t-64 -152l-325 16q19 205 162 332t380 127t369.5 -115.5t132.5 -302.5q0 -128 -54 -207.5t-181 -152.5q-91 -53 -121.5 -107.5t-30.5 -155.5h-278zM-692 446
q0 169 40 264t146 150q95 52 126.5 93t31.5 110q0 66 -43 107.5t-137 41.5q-103 0 -153 -48t-64 -152l-326 16q19 205 162.5 332t380.5 127t369 -115.5t132 -302.5q0 -128 -54 -207.5t-181 -152.5q-91 -53 -121.5 -107.5t-30.5 -155.5h-278zM379 0v328h346v-328h-346z
M-719 0v328h346v-328h-346z" />
    <glyph glyph-name="question_question_question.liga" 
d="M-1870 446q0 168 40.5 263.5t146.5 150.5q95 52 126 93t31 110q0 66 -43.5 107.5t-138.5 41.5q-102 0 -152.5 -48t-62.5 -152l-326 16q19 205 162 332t379 127q238 0 371 -115.5t133 -302.5q0 -128 -54.5 -207.5t-181.5 -152.5q-91 -53 -121 -107t-30 -156h-279z
M-743 446q0 169 40 264t146 150q95 52 126.5 93t31.5 110q0 66 -44 107.5t-139 41.5q-102 0 -152.5 -48t-62.5 -152l-325 16q19 205 161.5 332t378.5 127q238 0 371 -115.5t133 -302.5q0 -128 -54 -207.5t-181 -152.5q-91 -53 -121.5 -107.5t-30.5 -155.5h-278zM373 446
q0 169 40 264t146 150q95 52 126.5 93t31.5 110q0 66 -43.5 107.5t-138.5 41.5q-102 0 -153 -48t-63 -152l-325 16q19 205 162 332t379 127q238 0 370.5 -115.5t132.5 -302.5q0 -128 -54 -207.5t-181 -152.5q-91 -53 -121.5 -107.5t-30.5 -155.5h-278zM-1896 0v328h344v-328
h-344zM-770 0v328h344v-328h-344zM346 0v328h344v-328h-344z" />
    <glyph glyph-name="numbersign_numbersign_numbersign.liga" 
d="M-92 0l55 340h-295l-55 -340h-256l55 340h-180l-53 -340h-256l55 340h-295l-55 -340h-256l55 340h-180l-53 -340h-256l55 340h-154l35 248h160l43 268h-158l33 248h166l59 350h246l-55 -350h186l57 350h254l-57 -350h295l59 350h246l-55 -350h186l58 350h253l-57 -350
h295l59 350h246l-55 -350h186l58 350h254l-58 -350h154l-35 -248h-160l-43 -268h160l-35 -248h-166l-55 -340h-256l55 340h-180l-53 -340h-256zM4 588l43 268h-295l-43 -268h295zM256 588h182l45 268h-186zM-1233 856l-43 -268h295l43 268h-295zM-729 588h182l45 268h-186z
M-1714 588h182l45 268h-186z" />
    <glyph glyph-name="slash_equal.liga" 
d="M-1067 -225l610 1761h295l-198 -573h1462v-244h-1546l-76 -217h1622v-244h-1706l-168 -483h-295z" />
    <glyph glyph-name="period.ss08" 
d="M614 -29q-83 0 -136.5 52.5t-53.5 132.5q0 82 53.5 134t136.5 52t137 -52t54 -134q0 -80 -54 -132.5t-137 -52.5z" />
    <glyph glyph-name="colon.ss08" 
d="M614 698q-83 0 -136.5 52.5t-53.5 132.5q0 82 53.5 134t136.5 52t137 -52t54 -134q0 -80 -54 -132.5t-137 -52.5zM614 -29q-83 0 -136.5 52.5t-53.5 132.5q0 82 53.5 134t136.5 52t137 -52t54 -134q0 -80 -54 -132.5t-137 -52.5z" />
    <glyph glyph-name="semicolon.ss08" 
d="M612 698q-83 0 -136.5 52.5t-53.5 132.5q0 82 53.5 134t136.5 52q85 0 138 -52t53 -134q0 -80 -53.5 -132.5t-137.5 -52.5zM481 -324l105 324h-144v328h344v-295l-139 -357h-166z" />
    <glyph glyph-name="ellipsis.ss08" 
d="M217 -29q-79 0 -129.5 52.5t-50.5 132.5q0 82 50.5 134t129.5 52t129.5 -52t50.5 -134q0 -80 -50.5 -132.5t-129.5 -52.5zM621 -29q-79 0 -131 52.5t-52 132.5q0 82 51.5 134t131.5 52q78 0 129 -52.5t51 -133.5q0 -80 -51 -132.5t-129 -52.5zM1022 -29
q-79 0 -130.5 52.5t-51.5 132.5q0 82 51 134t131 52q79 0 129.5 -52t50.5 -134q0 -80 -50.5 -132.5t-129.5 -52.5z" />
    <glyph glyph-name="exclam.ss08" 
d="M498 481q-6 50 -22.5 168t-26 208.5t-9.5 168.5v428h348v-428q0 -78 -9 -167.5t-25.5 -209.5t-22.5 -168h-233zM614 -29q-83 0 -136.5 52.5t-53.5 132.5q0 82 53.5 134t136.5 52t137 -52t54 -134q0 -80 -54 -132.5t-137 -52.5z" />
    <glyph glyph-name="exclamdown.ss08" 
d="M614 1151q83 0 137 -52t54 -132q0 -82 -54 -134.5t-137 -52.5t-136.5 52.5t-53.5 134.5q0 80 53.5 132t136.5 52zM498 641h233q6 -48 22.5 -168t25.5 -209.5t9 -167.5v-428h-348v428q0 78 9.5 168.5t26 208.5t22.5 168z" />
    <glyph glyph-name="question.ss08" 
d="M471 446q0 169 40 264t146 150q95 52 126.5 93t31.5 110q0 66 -43.5 107.5t-138.5 41.5q-102 0 -152.5 -48t-62.5 -152l-326 16q19 205 162 332t379 127q238 0 371 -115.5t133 -302.5q0 -128 -54.5 -207.5t-181.5 -152.5q-91 -53 -121 -107t-30 -156h-279zM608 -29
q-84 0 -137 52.5t-53 132.5q0 82 53 134t137 52q83 0 136 -52t53 -134q0 -80 -53 -132.5t-136 -52.5z" />
    <glyph glyph-name="questiondown.ss08" 
d="M621 1184q84 0 137 -52.5t53 -132.5q0 -82 -53 -134t-137 -52q-83 0 -136 52t-53 134q0 80 53 132.5t136 52.5zM758 709q0 -168 -40.5 -263.5t-146.5 -150.5q-95 -52 -126 -93t-31 -110q0 -66 43.5 -107.5t138.5 -41.5q102 0 152.5 48t62.5 152l326 -16
q-19 -205 -162 -332t-379 -127q-238 0 -371 115.5t-133 302.5q0 128 54.5 207.5t181.5 152.5q91 53 121 107t30 156h279z" />
    <glyph glyph-name="periodcentered.ss08" 
d="M614 428q-83 0 -136.5 53t-53.5 133q0 82 53.5 134.5t136.5 52.5t137 -52.5t54 -134.5q0 -80 -54 -133t-137 -53z" />
    <glyph glyph-name="bar_hyphen_greater.liga" 
d="M248 113l405 407h-2822v-534h-295v1454h295v-676h2824l-405 405h325l527 -528l-531 -526z" />
    <glyph glyph-name="bar_braceright.liga" 
d="M207 -184h-363v243h318q244 0 244 197v104q0 136 82 226.5t214 101.5v19q-131 12 -213.5 101.5t-82.5 223.5v105q0 196 -244 196h-318v244h363q213 0 340 -115t127 -307v-117q0 -132 53 -171.5t215 -37.5v-264q-67 0 -109.5 -5t-75.5 -17.5t-50 -37t-25 -60.5t-8 -91
v-116q0 -192 -127 -307t-340 -115zM-412 -184h-295v1761h295v-1761z" />
    <glyph glyph-name="bar_bar_bar_greater.liga" 
d="M-1985 0v1454h295v-1454h-295zM-3015 0v1454h295v-1454h-295zM-975 0l-2 1454h262l1544 -559v-336l-1544 -559h-260zM-715 1192v-930l1299 465z" />
    <glyph glyph-name="bar_bar_equal.liga" 
d="M-1729 -225v1761h295v-1761h-295zM-809 -225v1761h295v-565h1135v-252h-1135v-248h1135v-252h-1135v-444h-295z" />
    <glyph glyph-name="bar_bar_greater.liga" 
d="M-1786 0v1454h295v-1454h-295zM-975 0l-2 1454h262l1544 -559v-336l-1544 -559h-260zM-715 1192v-930l1299 465z" />
    <glyph glyph-name="bar_equal.liga" 
d="M-684 -225v1761h295v-565h1134v-252h-1134v-248h1134v-252h-1134v-444h-295z" />
    <glyph glyph-name="bar_greater.liga" 
d="M-870 0l-2 1454h262l1544 -559v-336l-1544 -559h-260zM-610 1192v-930l1298 465z" />
    <glyph glyph-name="equal_equal.liga" 
d="M-920 719v252h1840v-252h-1840zM-920 219v252h1840v-252h-1840z" />
    <glyph glyph-name="equal_equal_equal.liga" 
d="M-2331 864v221h3433v-221h-3433zM-2331 508v221h3433v-221h-3433zM-2331 152v221h3433v-221h-3433z" />
    <glyph glyph-name="equal_equal_greater.liga" 
d="M248 113l188 188h-2767v244h3009l98 98l-94 96h-3013v244h2767l-186 186h325l527 -526l-531 -528z" />
    <glyph glyph-name="equal_greater.liga" 
d="M248 113l188 188h-1538v244h1780l98 98l-94 96h-1784v244h1538l-186 186h325l527 -526l-531 -528z" />
    <glyph glyph-name="equal_greater_greater.liga" 
d="M248 115l528 530l-526 526h325l527 -526l-531 -530h-323zM-303 111l190 192h-2218v244h2462l94 94l-100 100h-2456v244h2214l-184 184h326l526 -528l-531 -528z" />
    <glyph glyph-name="equal_less_less.liga" 
d="M778 115l-530 526l526 530h326l-527 -530l529 -526h-324zM-2331 741v244h2368l188 186h324l-432 -430h-2448zM227 115l-186 188h-2372v244h2450l432 -432h-324z" />
    </font>
</defs>
</svg>
