<?xml version="1.0" standalone="no"?>
<!DOCTYPE svg PUBLIC "-//W3C//DTD SVG 1.1//EN" "http://www.w3.org/Graphics/SVG/1.1/DTD/svg11.dtd" >
<svg xmlns="http://www.w3.org/2000/svg" xmlns:xlink="http://www.w3.org/1999/xlink" version="1.1">
<metadata>
Created by FontForge 20201107 at Mon Nov 11 05:27:01 2024
 By 
Copyright 2024 The Geist Project Authors (https://github.com/vercel/geist-font.git)
</metadata>
<defs>
<font id="GeistMono-UltraLight" horiz-adv-x="1228" >
  <font-face 
    font-family="Geist Mono UltraLight"
    font-weight="200"
    font-stretch="normal"
    units-per-em="2048"
    panose-1="0 0 0 0 0 0 0 0 0 0"
    ascent="1638"
    descent="-410"
    x-height="1085"
    cap-height="1454"
    bbox="-3559 -506 1339 2073"
    underline-thickness="102"
    underline-position="-255"
    unicode-range="U+0020-F8FF"
  />
<missing-glyph horiz-adv-x="1024" 
d="M102 -307v1945h820v-1945h-820zM205 -205h614v1741h-614v-1741z" />
    <glyph glyph-name=".notdef" horiz-adv-x="1024" 
d="M102 -307v1945h820v-1945h-820zM205 -205h614v1741h-614v-1741z" />
    <glyph glyph-name=".null" horiz-adv-x="0" 
 />
    <glyph glyph-name="nonmarkingreturn" horiz-adv-x="682" 
 />
    <glyph glyph-name="space" unicode=" " 
 />
    <glyph glyph-name="exclam" unicode="!" 
d="M582 422q-19 408 -19 534v498h103v-498q0 -75 -2.5 -163t-7.5 -205.5t-7 -165.5h-67zM518 0v193h193v-193h-193z" />
    <glyph glyph-name="quotedbl" unicode="&#x22;" 
d="M692 784l-6 670h115v-149l-29 -521h-80zM457 784l-29 521v149h115l-6 -670h-80z" />
    <glyph glyph-name="numbersign" unicode="#" 
d="M231 0l80 430h-209l19 88h207l78 412h-222l19 88h219l80 436h94l-82 -436h309l82 436h92l-82 -436h211l-18 -88h-209l-76 -412h221l-18 -88h-219l-80 -430h-92l80 430h-309l-80 -430h-95zM422 518h309l76 412h-309z" />
    <glyph glyph-name="dollar" unicode="$" 
d="M567 -186v157q-194 22 -323 157.5t-135 326.5l106 8q8 -152 104.5 -259.5t247.5 -129.5v612q-230 61 -328 144.5t-98 240.5q0 161 115 268.5t311 116.5v182h92v-184q192 -18 305 -144t121 -300l-108 -9q-6 140 -89.5 236.5t-228.5 114.5v-588q180 -51 279 -106
t140.5 -127t41.5 -181q0 -165 -131.5 -270t-329.5 -113v-153h-92zM250 1071q0 -114 65.5 -170.5t251.5 -109.5v565q-147 -9 -232 -86t-85 -199zM1012 354q0 75 -28 125t-105.5 94t-219.5 86v-591q158 6 255.5 82t97.5 204z" />
    <glyph glyph-name="percent" unicode="%" 
d="M301 793q-119 0 -192.5 91t-73.5 249q0 157 73.5 247t192.5 90t193.5 -90t74.5 -247q0 -158 -74.5 -249t-193.5 -91zM115 0l907 1454h92l-907 -1454h-92zM301 874q84 0 131 66.5t47 192.5q0 125 -47 191.5t-131 66.5q-83 0 -129.5 -66.5t-46.5 -191.5q0 -126 46.5 -192.5
t129.5 -66.5zM928 -16q-119 0 -194 90.5t-75 247.5q0 158 74.5 249t194.5 91q119 0 192.5 -91t73.5 -249q0 -157 -73.5 -247.5t-192.5 -90.5zM928 63q83 0 129.5 67t46.5 192q0 126 -46.5 192t-129.5 66q-84 0 -131 -66t-47 -192q0 -125 47 -192t131 -67z" />
    <glyph glyph-name="ampersand" unicode="&#x26;" 
d="M516 -33q-200 0 -318 100.5t-118 282.5q0 146 73.5 250t233.5 209q-100 130 -138 206.5t-38 166.5q0 141 85 223t230 82q142 0 227 -79t85 -218q0 -119 -70.5 -212t-239.5 -200l400 -502q79 115 90 277l102 -10q-7 -96 -43 -188.5t-88 -153.5l160 -201h-123l-100 127
q-153 -160 -410 -160zM473 854q147 95 201.5 164t54.5 164t-54 149.5t-149 54.5q-97 0 -153 -54.5t-56 -149.5q0 -72 33.5 -142.5t122.5 -185.5zM528 66q104 0 191 37t141 100l-416 526q-137 -90 -197.5 -179t-60.5 -200q0 -136 91 -210t251 -74z" />
    <glyph glyph-name="quotesingle" unicode="'" 
d="M575 784l-18 523v147h115v-147l-19 -523h-78z" />
    <glyph glyph-name="parenleft" unicode="(" 
d="M698 -225q-252 437 -252 880q0 447 252 881h84q-231 -445 -231 -881q0 -432 231 -880h-84z" />
    <glyph glyph-name="parenright" unicode=")" 
d="M530 -225h-84q232 450 232 880q0 434 -232 881h84q252 -434 252 -881q0 -443 -252 -880z" />
    <glyph glyph-name="asterisk" unicode="*" 
d="M465 805l-72 45l150 240h-277v84h277l-150 241l72 45l149 -254l152 254l70 -45l-150 -241h277v-84h-277l150 -240l-70 -45l-152 252z" />
    <glyph glyph-name="plus" unicode="+" 
d="M125 545v92h444v442h90v-442h445v-92h-445v-445h-90v445h-444z" />
    <glyph glyph-name="comma" unicode="," 
d="M532 -276l86 276h-100v193h193v-173l-111 -296h-68z" />
    <glyph glyph-name="hyphen" unicode="-" 
d="M301 535v96h627v-96h-627z" />
    <glyph glyph-name="period" unicode="." 
d="M518 0v193h193v-193h-193z" />
    <glyph glyph-name="slash" unicode="/" 
d="M260 -225l610 1755h99l-611 -1755h-98z" />
    <glyph glyph-name="zero" unicode="0" 
d="M614 -33q-149 0 -262 95t-174 267t-61 396q0 342 136 552t361 210t361.5 -210t136.5 -552q0 -224 -61.5 -396t-174.5 -267t-262 -95zM223 725q0 -264 90 -442l551 970q-102 133 -250 133q-176 0 -283.5 -182.5t-107.5 -478.5zM614 68q176 0 284 182t108 475
q0 262 -91 446l-550 -972q103 -131 249 -131z" />
    <glyph glyph-name="one" unicode="1" 
d="M150 0v96h450v1032h-346v86h152q119 0 167 50.5t48 189.5h81v-1358h377v-96h-929z" />
    <glyph glyph-name="two" unicode="2" 
d="M117 0q0 215 120 372.5t408 305.5q194 98 272 178.5t78 206.5q0 143 -92 233t-256 90q-175 0 -282.5 -96t-135.5 -280l-108 8q28 219 166.5 344t359.5 125q210 0 332.5 -117.5t122.5 -302.5q0 -111 -44.5 -194t-130 -148.5t-235.5 -140.5q-217 -107 -331.5 -234
t-122.5 -252h874v-98h-995z" />
    <glyph glyph-name="three" unicode="3" 
d="M616 -33q-221 0 -354 107.5t-145 287.5l102 9q13 -144 119 -223.5t278 -79.5q170 0 280 90t110 250q0 148 -110.5 234.5t-285.5 86.5h-129v98h129q156 0 250 73t94 204q0 130 -89 206t-240 76q-145 0 -237 -66.5t-112 -184.5l-108 8q27 159 146.5 251.5t310.5 92.5
q196 0 317 -104.5t121 -276.5q0 -120 -69.5 -203.5t-198.5 -118.5q148 -40 232.5 -141.5t84.5 -241.5q0 -195 -140 -314.5t-356 -119.5z" />
    <glyph glyph-name="four" unicode="4" 
d="M850 0v344h-754v88l750 1022h106v-1012h181v-98h-181v-344h-102zM207 442h643v863z" />
    <glyph glyph-name="five" unicode="5" 
d="M621 -33q-206 0 -336 109t-148 284l105 9q20 -143 119.5 -222t259.5 -79q166 0 265 105t99 294q0 180 -95.5 289.5t-268.5 109.5q-110 0 -206.5 -56.5t-140.5 -150.5h-116l92 795h782v-98h-690l-68 -572q57 83 153 132t202 49q214 0 338.5 -139t124.5 -359
q0 -226 -131.5 -363t-339.5 -137z" />
    <glyph glyph-name="six" unicode="6" 
d="M625 -33q-228 0 -362 162.5t-134 482.5q0 147 19 275.5t60.5 239.5t103 190.5t151.5 124.5t201 45q163 0 267 -89.5t152 -248.5l-106 -10q-32 112 -109.5 179.5t-203.5 67.5q-179 0 -293 -166.5t-135 -490.5q54 110 160.5 176t240.5 66q213 0 338 -134t125 -356
q0 -233 -130 -373.5t-345 -140.5zM627 68q168 0 266 109.5t98 303.5q0 177 -96 284t-262 107q-164 0 -275.5 -105.5t-111.5 -274.5q0 -185 105 -304.5t276 -119.5z" />
    <glyph glyph-name="seven" unicode="7" 
d="M451 0q0 351 142.5 711.5t383.5 644.5h-840v98h955v-92q-252 -293 -392.5 -640t-140.5 -722h-108z" />
    <glyph glyph-name="eight" unicode="8" 
d="M614 -33q-220 0 -358.5 116.5t-138.5 313.5q0 144 83.5 246.5t229.5 144.5q-244 79 -244 314q0 170 117.5 277.5t310.5 107.5t310.5 -107.5t117.5 -277.5q0 -235 -241 -314q144 -42 227.5 -145t83.5 -246q0 -197 -139 -313.5t-359 -116.5zM614 831q143 0 232.5 71
t89.5 202q0 128 -87 205t-235 77t-234.5 -77t-86.5 -205q0 -131 89 -202t232 -71zM614 68q181 0 286.5 87t105.5 246q0 150 -104.5 242t-287.5 92t-287 -92t-104 -242q0 -159 105 -246t286 -87z" />
    <glyph glyph-name="nine" unicode="9" 
d="M604 1487q228 0 362 -162.5t134 -482.5q0 -147 -19 -275.5t-60.5 -239.5t-103 -190.5t-151.5 -124.5t-201 -45q-163 0 -267.5 89.5t-152.5 248.5l107 10q32 -112 109.5 -179.5t203.5 -67.5q179 0 293 166.5t135 490.5q-54 -110 -160.5 -176t-240.5 -66q-213 0 -338 134
t-125 356q0 233 130 373.5t345 140.5zM602 1386q-168 0 -266 -109.5t-98 -303.5q0 -177 96 -284t262 -107q164 0 275.5 105.5t111.5 275.5q0 185 -105 304t-276 119z" />
    <glyph glyph-name="colon" unicode=":" 
d="M518 807v192h193v-192h-193zM518 0v193h193v-193h-193z" />
    <glyph glyph-name="semicolon" unicode=";" 
d="M518 807v192h193v-192h-193zM532 -276l86 276h-100v193h193v-173l-111 -296h-68z" />
    <glyph glyph-name="less" unicode="&#x3c;" 
d="M1073 98l-917 437v122l917 437v-105l-823 -393l823 -393v-105z" />
    <glyph glyph-name="equal" unicode="=" 
d="M178 764v94h873v-94h-873zM178 340v94h873v-94h-873z" />
    <glyph glyph-name="greater" unicode="&#x3e;" 
d="M156 98v105l823 393l-823 393v105l917 -437v-122z" />
    <glyph glyph-name="question" unicode="?" 
d="M557 432q0 126 42 205t140 147q135 97 174 155t39 161q0 126 -83.5 206t-227.5 80q-166 0 -259.5 -97t-105.5 -273l-106 6q15 215 139 340t332 125q190 0 304 -110.5t114 -276.5q0 -122 -54.5 -199t-205.5 -184q-77 -54 -108.5 -116t-31.5 -169h-102zM512 0v193h193v-193
h-193z" />
    <glyph glyph-name="at" unicode="@" 
d="M881 -129q-143 -86 -318 -86q-242 0 -375 190t-133 568q0 271 81.5 479.5t224.5 320t323 111.5q230 0 360 -195t130 -528q0 -270 -69 -419.5t-177 -149.5q-61 0 -104 52.5t-56 145.5q-30 -90 -94 -142t-139 -52q-107 0 -169.5 95t-62.5 269q0 128 36 240t106.5 183
t160.5 71q66 0 115.5 -37t71.5 -98l8 121h90q-6 -65 -15 -155.5t-13.5 -138t-9.5 -104t-7 -93t-2 -64.5q0 -99 25 -152t69 -53q67 0 106 123t39 352q0 298 -106 469.5t-299 171.5q-149 0 -270 -101t-192 -289.5t-71 -430.5q0 -332 110 -501t310 -169q144 0 279 78zM555 246
q55 0 98.5 43.5t68.5 111.5t37.5 141.5t12.5 143.5q0 121 -41.5 186.5t-120.5 65.5q-95 0 -153 -117.5t-58 -275.5q0 -138 39.5 -218.5t116.5 -80.5z" />
    <glyph glyph-name="A" unicode="A" 
d="M84 0l465 1454h131l465 -1454h-107l-143 459h-561l-144 -459h-106zM614 1358l-249 -801h499z" />
    <glyph glyph-name="B" unicode="B" 
d="M199 0v1454h385q236 0 358.5 -101.5t122.5 -289.5q0 -125 -75 -214t-199 -112q157 -19 245 -110t88 -234q0 -188 -122.5 -290.5t-350.5 -102.5h-452zM301 778h309q162 0 254 74.5t92 208.5q0 144 -92.5 220.5t-275.5 76.5h-287v-580zM301 96h348q184 0 276.5 76.5
t92.5 220.5q0 134 -99 211.5t-270 77.5h-348v-586z" />
    <glyph glyph-name="C" unicode="C" 
d="M621 -33q-242 0 -385.5 205t-143.5 553q0 350 144.5 556t384.5 206q191 0 316 -123t171 -348l-111 -8q-35 182 -133 280t-243 98q-189 0 -305.5 -178t-116.5 -483q0 -303 116.5 -480t305.5 -177q151 0 253.5 105t137.5 304l108 -8q-43 -235 -173.5 -368.5t-325.5 -133.5z
" />
    <glyph glyph-name="D" unicode="D" 
d="M199 0v1454h305q298 0 465.5 -191t167.5 -538q0 -346 -167.5 -535.5t-465.5 -189.5h-305zM301 98h195q257 0 395.5 160.5t138.5 466.5t-139 468.5t-395 162.5h-195v-1258z" />
    <glyph glyph-name="E" unicode="E" 
d="M199 0v1454h856v-98h-754v-582h729v-96h-729v-580h770v-98h-872z" />
    <glyph glyph-name="F" unicode="F" 
d="M219 0v1454h873v-96h-770v-590h733v-96h-733v-672h-103z" />
    <glyph glyph-name="G" unicode="G" 
d="M612 -33q-239 0 -379.5 201t-140.5 557q0 228 64 400.5t183 267t277 94.5q192 0 317 -120.5t175 -344.5l-109 -8q-83 372 -383 372q-189 0 -303 -181t-114 -480q0 -305 113.5 -481t308.5 -176q172 0 282.5 149t116.5 385h-397v94h493v-696h-94l-2 303q-49 -156 -154 -246
t-254 -90z" />
    <glyph glyph-name="H" unicode="H" 
d="M150 0v1454h102v-663h725v663h102v-1454h-102v692h-725v-692h-102z" />
    <glyph glyph-name="I" unicode="I" 
d="M178 0v98h385v1258h-385v98h873v-98h-385v-1258h385v-98h-873z" />
    <glyph glyph-name="J" unicode="J" 
d="M559 -33q-204 0 -330.5 138t-132.5 368l103 12q6 -202 98.5 -309.5t261.5 -107.5q181 0 275 112.5t94 329.5v944h102v-944q0 -257 -124 -400t-347 -143z" />
    <glyph glyph-name="K" unicode="K" 
d="M150 0v1454h102v-836l735 836h125l-563 -637l584 -817h-123l-527 743l-231 -262v-481h-102z" />
    <glyph glyph-name="L" unicode="L" 
d="M219 0v1454h103v-1356h770v-98h-873z" />
    <glyph glyph-name="M" unicode="M" 
d="M567 164l-348 1161v-1325h-102v1454h155l342 -1159l342 1159h156v-1454h-102v1325l-348 -1161h-95z" />
    <glyph glyph-name="N" unicode="N" 
d="M158 0v1454h147l664 -1345v1345h102v-1454h-147l-664 1346v-1346h-102z" />
    <glyph glyph-name="O" unicode="O" 
d="M614 -33q-245 0 -383.5 202t-138.5 556q0 357 138 559.5t384 202.5t384.5 -202.5t138.5 -559.5q0 -354 -139 -556t-384 -202zM614 68q199 0 307.5 173.5t108.5 483.5q0 311 -109 486t-307 175t-306.5 -175t-108.5 -486t108.5 -484t306.5 -173z" />
    <glyph glyph-name="P" unicode="P" 
d="M211 0v1454h414q224 0 355.5 -114t131.5 -314q0 -199 -131 -310.5t-356 -111.5h-312v-604h-102zM313 702h299q192 0 293 82t101 242q0 161 -101.5 245.5t-292.5 84.5h-299v-654z" />
    <glyph glyph-name="Q" unicode="Q" 
d="M614 -33q-245 0 -383.5 202t-138.5 556q0 357 138 559.5t384 202.5t384.5 -202.5t138.5 -559.5q0 -242 -65.5 -415t-188.5 -261l131 -190h-111l-102 145q-81 -37 -187 -37zM614 68q66 0 127 22l-233 336h113l202 -293q100 74 153.5 226t53.5 366q0 311 -109 486t-307 175
t-306.5 -175t-108.5 -486t108.5 -484t306.5 -173z" />
    <glyph glyph-name="R" unicode="R" 
d="M166 0v1454h430q216 0 341.5 -110t125.5 -308q0 -138 -73 -232.5t-193 -127.5q216 -41 233 -254l37 -422h-102l-35 406q-8 109 -74.5 162t-216.5 53h-371v-621h-102zM268 719h326q173 0 266.5 81t93.5 236q0 158 -93.5 240t-266.5 82h-326v-639z" />
    <glyph glyph-name="S" unicode="S" 
d="M635 -33q-219 0 -369.5 140t-156.5 348l106 8q8 -169 126.5 -282t297.5 -113q165 0 269 77t104 209q0 84 -34.5 141t-131.5 109.5t-273 100.5q-118 32 -194.5 64t-132.5 77.5t-80.5 106.5t-24.5 145q0 170 125 279.5t336 109.5q110 0 201 -37t150.5 -100.5t93 -144
t38.5 -171.5l-108 -8q-6 156 -106.5 258t-272.5 102q-158 0 -253 -79.5t-95 -208.5q0 -121 77 -182.5t296 -120.5q193 -52 301.5 -114t152 -139.5t43.5 -191.5q0 -170 -140 -276.5t-345 -106.5z" />
    <glyph glyph-name="T" unicode="T" 
d="M563 0v1356h-481v98h1065v-98h-481v-1356h-103z" />
    <glyph glyph-name="U" unicode="U" 
d="M614 -33q-221 0 -342.5 142t-121.5 399v946h102v-946q0 -212 93.5 -326t268.5 -114t269 114t94 326v946h102v-946q0 -257 -122 -399t-343 -142z" />
    <glyph glyph-name="V" unicode="V" 
d="M551 0l-475 1454h106l432 -1345l433 1345h106l-475 -1454h-127z" />
    <glyph glyph-name="W" unicode="W" 
d="M270 0l-194 1454h104l176 -1348l203 1184h111l202 -1184l177 1348h104l-195 -1454h-151l-193 1116l-192 -1116h-152z" />
    <glyph glyph-name="X" unicode="X" 
d="M117 0l432 735l-420 719h119l370 -643l365 643h117l-418 -725l430 -729h-117l-383 655l-381 -655h-114z" />
    <glyph glyph-name="Y" unicode="Y" 
d="M563 0v594l-467 860h119l399 -754l400 754h119l-467 -860v-594h-103z" />
    <glyph glyph-name="Z" unicode="Z" 
d="M117 0v100l868 1256h-831v98h942v-100l-869 -1256h885v-98h-995z" />
    <glyph glyph-name="bracketleft" unicode="[" 
d="M813 -225h-397v1761h397v-86h-299v-1589h299v-86z" />
    <glyph glyph-name="backslash" unicode="\" 
d="M969 -225h-99l-610 1755h98z" />
    <glyph glyph-name="bracketright" unicode="]" 
d="M416 -225v86h299v1589h-299v86h397v-1761h-397z" />
    <glyph glyph-name="asciicircum" unicode="^" 
d="M299 784l246 594h139l246 -594h-103l-213 516l-213 -516h-102z" />
    <glyph glyph-name="underscore" unicode="_" 
d="M190 -94v94h848v-94h-848z" />
    <glyph glyph-name="grave" unicode="`" 
d="M668 1243l-170 246h110l144 -246h-84z" />
    <glyph glyph-name="a" unicode="a" 
d="M477 -25q-157 0 -254.5 80.5t-97.5 212.5q0 124 87 200.5t247 106.5l403 80q0 185 -72.5 272t-220.5 87q-135 0 -215 -66t-104 -192l-107 8q29 164 139.5 255t286.5 91q188 0 290 -113t102 -329v-457q0 -69 20.5 -94t67.5 -25h63v-92q-24 -4 -76 -4q-81 0 -123 42.5
t-51 151.5q-48 -94 -151 -154.5t-234 -60.5zM481 68q174 0 277.5 99t103.5 255v145l-381 -75q-126 -25 -190 -77.5t-64 -138.5q0 -101 66.5 -154.5t187.5 -53.5z" />
    <glyph glyph-name="b" unicode="b" 
d="M670 -25q-128 0 -225.5 73t-145.5 190l-6 -238h-82v1454h98v-596q45 110 141.5 181t219.5 71q210 0 333 -153.5t123 -413.5q0 -261 -123 -414.5t-333 -153.5zM666 72q164 0 260 126.5t96 344.5q0 217 -95.5 344t-258.5 127q-162 0 -260.5 -130.5t-98.5 -340.5
q0 -212 98 -341.5t259 -129.5z" />
    <glyph glyph-name="c" unicode="c" 
d="M645 -25q-112 0 -203 44t-150 120.5t-90.5 180t-31.5 223.5q0 162 53.5 288.5t163 202.5t258.5 76q167 0 277.5 -99.5t150.5 -267.5l-104 -8q-32 133 -116 206t-208 73q-172 0 -271.5 -126.5t-99.5 -344.5t99.5 -344.5t271.5 -126.5q125 0 213 78.5t117 220.5l104 -9
q-38 -175 -152 -281t-282 -106z" />
    <glyph glyph-name="d" unicode="d" 
d="M559 -25q-211 0 -334 153.5t-123 414.5q0 260 123.5 413.5t333.5 153.5q123 0 219.5 -71t141.5 -181v596h98v-1454h-82l-6 238q-48 -117 -145.5 -190t-225.5 -73zM563 72q161 0 259 129.5t98 341.5q0 210 -98.5 340.5t-260.5 130.5q-163 0 -258.5 -127t-95.5 -344
q0 -218 96 -344.5t260 -126.5z" />
    <glyph glyph-name="e" unicode="e" 
d="M635 -25q-151 0 -261.5 76t-165 203t-54.5 289q0 161 53.5 288t162.5 203t257 76q147 0 253.5 -73.5t159 -199t52.5 -286.5v-33h-834q4 -210 105.5 -328t271.5 -118q127 0 212 62t118 171l106 -8q-43 -144 -158 -233t-278 -89zM258 606h727q-9 193 -102.5 300.5
t-255.5 107.5q-158 0 -257 -108t-112 -300z" />
    <glyph glyph-name="f" unicode="f" 
d="M473 0v997h-315v88h315v119q0 119 65 184.5t185 65.5h348v-88h-350q-72 0 -111 -41t-39 -115v-125h480v-88h-480v-997h-98z" />
    <glyph glyph-name="g" unicode="g" 
d="M602 -332q-171 0 -288 89t-132 229l105 8q12 -107 93.5 -168.5t221.5 -61.5q167 0 258.5 87t91.5 249v199q-47 -113 -140.5 -179.5t-217.5 -66.5q-207 0 -332 145t-125 386q0 236 124.5 381t328.5 145q129 0 226.5 -70.5t139.5 -185.5v231h95v-985q0 -202 -119.5 -317
t-329.5 -115zM596 150q162 0 259 117.5t97 316.5q2 190 -97 310t-259 120q-164 0 -260 -116.5t-96 -313.5q0 -199 96.5 -316.5t259.5 -117.5z" />
    <glyph glyph-name="h" unicode="h" 
d="M231 0v1454h99v-584q34 117 131 178.5t227 61.5q116 0 198.5 -55t121.5 -146.5t39 -210.5v-698h-99v649q0 369 -284 369q-154 0 -244 -101t-90 -268v-649h-99z" />
    <glyph glyph-name="i" unicode="i" 
d="M629 1276v162h106v-162h-106zM190 0v88h447v909h-426v88h524v-997h385v-88h-930z" />
    <glyph glyph-name="j" unicode="j" 
d="M766 1276v162h106v-162h-106zM252 -307v88h315q106 0 157.5 53t51.5 170v993h-516v88h614v-1085q0 -155 -73.5 -231t-227.5 -76h-321z" />
    <glyph glyph-name="k" unicode="k" 
d="M217 0v1454h98v-1022l650 653h131l-465 -464l497 -621h-118l-445 557l-250 -250v-307h-98z" />
    <glyph glyph-name="l" unicode="l" 
d="M150 0v88h446v1124q0 74 -40 114t-114 40h-252v88h252q120 0 186 -66t66 -186v-1114h385v-88h-929z" />
    <glyph glyph-name="m" unicode="m" 
d="M96 0v1085h90l4 -200q57 225 228 225q180 0 221 -256q29 125 93 190.5t157 65.5q126 0 185 -92.5t59 -294.5v-723h-99v713q0 162 -40.5 233.5t-127.5 71.5q-85 0 -143.5 -91t-58.5 -233v-694h-99v696q0 322 -172 322q-84 0 -141 -92t-57 -232v-694h-99z" />
    <glyph glyph-name="n" unicode="n" 
d="M199 0v1085h92l2 -225q36 120 137 185t232 65q177 0 272.5 -116t95.5 -296v-698h-98v649q0 174 -71 271.5t-220 97.5q-155 0 -249.5 -101t-94.5 -268v-649h-98z" />
    <glyph glyph-name="o" unicode="o" 
d="M614 -25q-216 0 -342.5 153.5t-126.5 414.5t126 414t343 153t343 -153t126 -414t-126.5 -414.5t-342.5 -153.5zM614 72q171 0 268 126t97 345t-97 345t-268 126t-267.5 -126t-96.5 -345t96.5 -345t267.5 -126z" />
    <glyph glyph-name="p" unicode="p" 
d="M178 -307v1392h88l4 -245q47 129 144.5 199.5t226.5 70.5q213 0 332 -156t119 -411t-118.5 -411.5t-330.5 -156.5q-123 0 -224.5 72.5t-142.5 179.5v-534h-98zM637 72q163 0 257.5 126t94.5 345t-95 345t-259 126q-160 0 -259.5 -130.5t-99.5 -340.5t100.5 -340.5
t260.5 -130.5z" />
    <glyph glyph-name="q" unicode="q" 
d="M1051 -307h-99v534q-41 -107 -142 -179.5t-224 -72.5q-212 0 -330.5 156.5t-118.5 411.5t119 411t332 156q129 0 226 -70t144 -200l5 245h88v-1392zM592 72q160 0 260 130.5t100 340.5q0 211 -99 341t-259 130q-164 0 -259 -126t-95 -345t94.5 -345t257.5 -126z" />
    <glyph glyph-name="r" unicode="r" 
d="M199 0v88h303v909h-303v88h383l8 -231q37 118 106 174.5t181 56.5h202v-92h-211q-119 0 -193.5 -94t-74.5 -233v-578h356v-88h-757z" />
    <glyph glyph-name="s" unicode="s" 
d="M637 -25q-205 0 -327.5 99t-131.5 252l103 10q9 -122 102.5 -193t253.5 -71q311 0 311 196q0 36 -7 61t-28 49.5t-59.5 42.5t-100 34.5t-151.5 31.5q-155 26 -241.5 67.5t-118 97t-31.5 141.5q0 143 105 230t286 87t288 -92.5t134 -237.5l-102 -12q-19 107 -100 176.5
t-220 69.5q-137 0 -213 -59t-76 -162q0 -99 66.5 -144.5t253.5 -73.5q162 -25 253.5 -65t128 -96t36.5 -142q0 -142 -109.5 -219.5t-304.5 -77.5z" />
    <glyph glyph-name="t" unicode="t" 
d="M748 0q-125 0 -192 65.5t-67 186.5v745h-372v88h372v254h99v-254h450v-88h-450v-749q0 -78 39.5 -119t113.5 -41h297v-88h-290z" />
    <glyph glyph-name="u" unicode="u" 
d="M553 -25q-162 0 -258 110t-96 302v698h98v-665q0 -176 72 -264t211 -88q152 0 240.5 99t88.5 269v649h99v-1085h-90l-5 217q-35 -116 -128.5 -179t-231.5 -63z" />
    <glyph glyph-name="v" unicode="v" 
d="M553 0l-410 1085h107l364 -989l365 989h106l-409 -1085h-123z" />
    <glyph glyph-name="w" unicode="w" 
d="M303 0l-248 1085h107l205 -985l198 840h99l198 -840l205 985h107l-248 -1085h-121l-191 793l-190 -793h-121z" />
    <glyph glyph-name="x" unicode="x" 
d="M150 0l403 549l-387 536h115l333 -473l332 473h119l-387 -538l401 -547h-114l-347 485l-352 -485h-116z" />
    <glyph glyph-name="y" unicode="y" 
d="M289 -307v88h96q77 0 114 26t62 95l45 118h-41l-422 1065h107l383 -985l356 985h107l-451 -1218q-36 -95 -92 -134.5t-162 -39.5h-102z" />
    <glyph glyph-name="z" unicode="z" 
d="M178 0v98l746 899h-725v88h835v-98l-745 -899h762v-88h-873z" />
    <glyph glyph-name="braceleft" unicode="{" 
d="M866 -233q-158 0 -249 94.5t-91 255.5v182q0 149 -58.5 226t-162.5 77v98q103 0 162 78t59 226v182q0 162 91 256t249 94h58v-94q-157 1 -228 -62.5t-71 -191.5v-189q0 -153 -60.5 -241.5t-158.5 -102.5v-2q99 -16 159 -106t60 -244v-188q0 -127 71 -191t228 -63v-94h-58
z" />
    <glyph glyph-name="bar" unicode="|" 
d="M565 -225v1761h99v-1761h-99z" />
    <glyph glyph-name="braceright" unicode="}" 
d="M362 -233h-57v94q157 -1 228 63t71 191v188q0 154 60 244t159 106v2q-98 14 -158.5 102.5t-60.5 241.5v189q0 128 -71 191.5t-228 62.5v94h57q158 0 249 -94t91 -256v-182q0 -148 59.5 -226t162.5 -78v-98q-104 0 -163 -77t-59 -226v-182q0 -161 -91 -255.5t-249 -94.5z
" />
    <glyph glyph-name="asciitilde" unicode="~" 
d="M801 520q-61 0 -105.5 26.5t-101.5 92.5q-59 69 -90.5 91t-75.5 22q-62 0 -100 -58.5t-41 -158.5h-99q6 145 70 228t168 83q63 0 109.5 -29t97.5 -92q56 -66 90 -88.5t76 -22.5q63 0 101.5 58.5t41.5 156.5h98q-4 -144 -68.5 -226.5t-170.5 -82.5z" />
    <glyph glyph-name="uni00A0" unicode="&#xa0;" 
 />
    <glyph glyph-name="exclamdown" unicode="&#xa1;" 
d="M518 1122h193v-192h-193v192zM582 700h67q2 -48 7 -165.5t7.5 -205.5t2.5 -163v-498h-103v498q0 126 19 534z" />
    <glyph glyph-name="cent" unicode="&#xa2;" 
d="M504 -31l16 197q-171 40 -265.5 191.5t-94.5 363.5q0 158 51.5 283.5t156 202t248.5 81.5l17 199h88l-16 -203q139 -20 231 -116t127 -246l-105 -7q-28 116 -95 186t-167 87l-80 -938h19q126 0 213.5 79t116.5 222l104 -8q-38 -176 -152 -282.5t-282 -106.5q-19 0 -27 2
l-16 -187h-88zM264 721q0 -182 69.5 -302t194.5 -155l80 928q-160 -9 -252 -134.5t-92 -336.5z" />
    <glyph glyph-name="sterling" unicode="&#xa3;" 
d="M100 0v96q127 86 200 203t73 258q0 48 -11 123h-262v90h242q-5 17 -16.5 55.5t-16.5 55t-13 48t-11 52t-6 48t-3 54.5q0 172 111.5 288t284.5 116q195 0 302.5 -97.5t125.5 -265.5l-113 -10q-21 131 -99 201.5t-214 70.5q-130 0 -210.5 -89.5t-80.5 -225.5
q0 -118 61 -301h396v-90h-379q15 -201 -42.5 -344t-199.5 -236h901v-100h-1020z" />
    <glyph glyph-name="currency" unicode="&#xa4;" 
d="M176 266l-67 68l180 180q-92 113 -92 258q0 144 92 260l-183 180l68 68l182 -182q113 92 258 92q144 0 260 -92l183 182l65 -66l-182 -184q92 -113 92 -258q0 -144 -92 -260l182 -180l-67 -66l-181 180q-116 -92 -260 -92t-260 92zM614 444q132 0 230 97.5t98 230.5
t-98 230.5t-230 97.5q-133 0 -230 -97t-97 -231t97 -231t230 -97z" />
    <glyph glyph-name="yen" unicode="&#xa5;" 
d="M168 326v94h395v160h-395v94h352l-424 780h119l399 -754l400 754h119l-422 -780h352v-94h-397v-160h397v-94h-397v-326h-103v326h-395z" />
    <glyph glyph-name="brokenbar" unicode="&#xa6;" 
d="M565 809v727h99v-727h-99zM565 -225v727h99v-727h-99z" />
    <glyph glyph-name="section" unicode="&#xa7;" 
d="M637 -131q-203 0 -321 102t-136 265l107 10q16 -131 103 -205t247 -74q83 0 151.5 21.5t113 69t44.5 114.5q0 164 -354 225q-186 32 -281.5 96t-95.5 187q0 96 64 165.5t190 96.5q-122 34 -185 96.5t-63 149.5q0 133 109 216t284 83q174 0 281.5 -95.5t128.5 -252.5
l-104 -9q-21 122 -99.5 190.5t-218.5 68.5q-120 0 -200 -56.5t-80 -140.5q0 -80 73.5 -130t239.5 -81q159 -31 249.5 -73.5t127.5 -98t37 -139.5q0 -183 -244 -246q123 -38 182.5 -101t59.5 -157q0 -96 -59 -165t-150 -100.5t-201 -31.5zM688 481q117 0 191.5 55t74.5 140
q0 95 -108.5 152t-278.5 57q-107 0 -181.5 -56t-74.5 -139q0 -96 90.5 -152.5t286.5 -56.5z" />
    <glyph glyph-name="dieresis" unicode="&#xa8;" 
d="M383 1276v162h106v-162h-106zM739 1276v162h107v-162h-107z" />
    <glyph glyph-name="copyright" unicode="&#xa9;" 
d="M612 -25q-170 0 -301.5 96t-203.5 268t-72 392t72 392t203.5 268t301.5 96t302.5 -96t206 -268t73.5 -392t-73.5 -392t-206 -268t-302.5 -96zM612 59q223 0 359.5 186.5t136.5 485.5t-136.5 485.5t-359.5 186.5q-146 0 -258 -85t-172.5 -237.5t-60.5 -349.5t60.5 -349.5
t172.5 -237.5t258 -85zM621 295q-160 0 -258.5 120.5t-98.5 313.5q0 190 98.5 311t258.5 121q133 0 224.5 -84t106.5 -225l-88 -10q-15 112 -78 171.5t-165 59.5q-124 0 -196.5 -95t-72.5 -249q0 -155 72.5 -250.5t196.5 -95.5q104 0 168 64t81 184l88 -10
q-19 -150 -110 -238t-227 -88z" />
    <glyph glyph-name="ordfeminine" unicode="&#xaa;" 
d="M506 770q-102 0 -163.5 49t-61.5 133q0 155 211 197l256 49q0 111 -43 161t-132 50q-158 0 -186 -145l-94 4q17 105 89.5 162t190.5 57q267 0 267 -287v-278q0 -39 12 -54.5t39 -15.5h16v-74q-6 -2 -37 -2q-52 0 -81 29.5t-35 99.5q-30 -59 -97.5 -97t-150.5 -38z
M518 844q99 0 164.5 58t65.5 147v79l-230 -45q-143 -26 -143 -125q0 -55 37 -84.5t106 -29.5z" />
    <glyph glyph-name="guillemotleft" unicode="&#xab;" 
d="M623 156h-125l-308 364v90l308 365h125l-347 -410zM1038 156h-125l-307 364v90l307 365h125l-348 -410z" />
    <glyph glyph-name="logicalnot" unicode="&#xac;" 
d="M956 135v422h-772v88h860v-510h-88z" />
    <glyph glyph-name="registered" unicode="&#xae;" 
d="M616 377q-114 0 -217 44t-177.5 118.5t-118.5 177.5t-44 215q0 113 44 216t118.5 177t177.5 118t217 44q113 0 215.5 -44t176.5 -118t117.5 -177t43.5 -216q0 -112 -43.5 -215t-117.5 -177.5t-176.5 -118.5t-215.5 -44zM616 446q132 0 243 66t174 178t63 242t-63 241.5
t-174 177.5t-243 66q-201 0 -342 -143t-141 -342q0 -130 64 -242t175.5 -178t243.5 -66zM401 616v629h205q110 0 174 -50t64 -136q0 -65 -35 -109t-102 -61l151 -273h-86l-139 258h-156v-258h-76zM477 944h146q69 0 109 32t40 87q0 54 -40 84.5t-109 30.5h-146v-234z" />
    <glyph glyph-name="macron" unicode="&#xaf;" 
d="M354 1307v86h520v-86h-520z" />
    <glyph glyph-name="degree" unicode="&#xb0;" 
d="M614 913q-120 0 -204 81.5t-84 203.5q0 124 84 206.5t204 82.5q121 0 205 -82t84 -207q0 -122 -84.5 -203.5t-204.5 -81.5zM614 1006q82 0 139.5 54t57.5 138q0 86 -58 142.5t-139 56.5q-80 0 -138 -56.5t-58 -142.5q0 -84 58 -138t138 -54z" />
    <glyph glyph-name="plusminus" unicode="&#xb1;" 
d="M569 190v422h-424v93h424v423h90v-423h424v-93h-424v-422h-90zM145 0v92h938v-92h-938z" />
    <glyph glyph-name="uni00B2" unicode="&#xb2;" 
d="M342 662q0 131 48 207.5t181 148.5l80 45q90 48 118 84t28 96q0 71 -46.5 110.5t-125.5 39.5q-165 0 -195 -187l-86 6q14 123 86.5 190.5t194.5 67.5q120 0 189 -61t69 -166q0 -84 -44 -136.5t-151 -109.5l-70 -36q-95 -52 -137.5 -105.5t-40.5 -116.5h434v-77h-532z" />
    <glyph glyph-name="uni00B3" unicode="&#xb3;" 
d="M618 645q-274 0 -288 225l86 7q6 -76 52 -115t150 -39q97 0 147 42t50 120q0 72 -51 117t-146 45h-55v73h55q72 0 118 34.5t46 109.5q0 60 -41.5 94.5t-126.5 34.5q-82 0 -125 -35t-49 -98l-88 8q12 94 81 148t181 54q123 0 187.5 -54.5t64.5 -147.5q0 -140 -145 -183
q180 -44 180 -200q0 -109 -77 -174.5t-206 -65.5z" />
    <glyph glyph-name="acute" unicode="&#xb4;" 
d="M487 1243l144 246h110l-170 -246h-84z" />
    <glyph glyph-name="uni00B5" unicode="&#xb5;" 
d="M209 -307v1392h98v-649q0 -175 69 -271.5t214 -96.5q155 0 243.5 100.5t88.5 267.5v649h98v-1085h-94l-2 215q-33 -116 -126 -178t-218 -62q-94 0 -166 46.5t-107 132.5v-461h-98z" />
    <glyph glyph-name="paragraph" unicode="&#xb6;" 
d="M616 0v627q-199 0 -312.5 109t-113.5 304q0 196 116.5 305t322.5 109h340v-1454h-99v1362h-155v-1362h-99z" />
    <glyph glyph-name="periodcentered" unicode="&#xb7;" 
d="M518 508v192h193v-192h-193z" />
    <glyph glyph-name="cedilla" unicode="&#xb8;" 
d="M614 -428q-83 0 -136.5 36t-74.5 99l68 27q29 -88 139 -88q129 0 129 100q0 52 -37.5 76t-130.5 24l-39 45l68 121h82l-61 -102q97 -3 147.5 -46t50.5 -122q0 -78 -56.5 -124t-148.5 -46z" />
    <glyph glyph-name="uni00B9" unicode="&#xb9;" 
d="M672 662v563h-199v63h35q184 0 184 166h64v-792h-84z" />
    <glyph glyph-name="ordmasculine" unicode="&#xba;" 
d="M614 770q-146 0 -230.5 96.5t-84.5 259.5q0 165 84.5 263t230.5 98q145 0 230.5 -98t85.5 -263q0 -163 -85.5 -259.5t-230.5 -96.5zM614 848q103 0 161.5 74.5t58.5 203.5q0 131 -59 207t-161 76q-104 0 -161.5 -76t-57.5 -207q0 -129 57.5 -203.5t161.5 -74.5z" />
    <glyph glyph-name="guillemotright" unicode="&#xbb;" 
d="M606 156l346 409l-346 410h125l307 -365v-90l-307 -364h-125zM190 156l349 409l-349 410h125l308 -365v-90l-308 -364h-125z" />
    <glyph glyph-name="onequarter" unicode="&#xbc;" 
d="M342 662v563h-199v63h35q184 0 184 166h64v-792h-84zM737 944l264 510h97l-262 -510h-99zM899 0v190h-383v66l387 537h80v-527h125v-76h-125v-190h-84zM608 266h291v406zM115 0l262 508h98l-264 -508h-96z" />
    <glyph glyph-name="onehalf" unicode="&#xbd;" 
d="M338 662v563h-201v63h35q184 0 184 166h64v-792h-82zM733 944l262 510h97l-263 -510h-96zM571 0q0 131 47.5 207.5t180.5 148.5l82 45q88 48 115.5 84.5t27.5 96.5q0 71 -46 110t-124 39q-86 0 -134 -46t-63 -140l-84 6q12 122 85.5 190t195.5 68q118 0 187 -61.5
t69 -165.5q0 -84 -44 -136.5t-151 -109.5l-67 -37q-97 -52 -139.5 -105t-40.5 -116h434v-78h-531zM109 0l264 508h96l-262 -508h-98z" />
    <glyph glyph-name="threequarters" unicode="&#xbe;" 
d="M362 645q-274 0 -288 225l86 7q6 -76 52 -115t150 -39q97 0 147 42t50 120q0 72 -51 117t-146 45h-55v73h55q72 0 118 34.5t46 109.5q0 60 -41.5 94.5t-126.5 34.5q-82 0 -125 -35t-49 -98l-88 8q12 94 81 148t181 54q123 0 187.5 -54.5t64.5 -147.5q0 -140 -145 -183
q180 -44 180 -200q0 -109 -77 -174.5t-206 -65.5zM784 944l263 510h98l-264 -510h-97zM948 0v190h-385v66l387 537h80v-527h125v-76h-125v-190h-82zM655 266h293v406zM162 0l262 508h96l-262 -508h-96z" />
    <glyph glyph-name="questiondown" unicode="&#xbf;" 
d="M717 1114v-192h-193v192h193zM588 -332q-191 0 -304.5 106.5t-113.5 270.5q0 84 26 145.5t79 114.5t155 125q77 55 108 116t31 163h103q0 -122 -42.5 -200t-140.5 -147q-135 -97 -174 -155t-39 -162q0 -124 83.5 -200t228.5 -76q166 0 259 97t105 273l107 -6
q-15 -215 -139 -340t-332 -125z" />
    <glyph glyph-name="Agrave" unicode="&#xc0;" 
d="M580 1612l-172 246h110l144 -246h-82zM84 0l465 1454h131l465 -1454h-107l-143 459h-561l-144 -459h-106zM614 1358l-249 -801h499z" />
    <glyph glyph-name="Aacute" unicode="&#xc1;" 
d="M567 1612l144 246h110l-172 -246h-82zM84 0l465 1454h131l465 -1454h-107l-143 459h-561l-144 -459h-106zM614 1358l-249 -801h499z" />
    <glyph glyph-name="Acircumflex" unicode="&#xc2;" 
d="M381 1610l186 260h95l184 -260h-86l-146 196l-147 -196h-86zM84 0l465 1454h131l465 -1454h-107l-143 459h-561l-144 -459h-106zM614 1358l-249 -801h499z" />
    <glyph glyph-name="Atilde" unicode="&#xc3;" 
d="M739 1645q-70 0 -135 65q-30 30 -52.5 42.5t-55.5 12.5q-93 0 -99 -131h-71q6 95 52 148t118 53q46 0 79.5 -18t69.5 -54q55 -49 98 -49q39 0 60.5 32t27.5 107h72q-6 -98 -49 -153t-115 -55zM84 0l465 1454h131l465 -1454h-107l-143 459h-561l-144 -459h-106zM614 1358
l-249 -801h499z" />
    <glyph glyph-name="Adieresis" unicode="&#xc4;" 
d="M381 1645v161h106v-161h-106zM739 1645v161h107v-161h-107zM84 0l465 1454h131l465 -1454h-107l-143 459h-561l-144 -459h-106zM614 1358l-249 -801h499z" />
    <glyph glyph-name="Aring" unicode="&#xc5;" 
d="M612 1571q-69 0 -114 45t-45 115q0 68 45 113.5t114 45.5t115.5 -45.5t46.5 -113.5q0 -69 -46 -114.5t-116 -45.5zM612 1638q41 0 67 26t26 67q0 40 -26 65t-67 25q-40 0 -65 -25t-25 -65q0 -41 25 -67t65 -26zM84 0l465 1454h131l465 -1454h-107l-143 459h-561
l-144 -459h-106zM614 1358l-249 -801h499z" />
    <glyph glyph-name="AE" unicode="&#xc6;" 
d="M18 0l508 1454h660v-98h-443v-578h418v-98h-418v-582h459v-98h-561v459h-356l-160 -459h-107zM596 1358l-277 -801h322v801h-45z" />
    <glyph glyph-name="Ccedilla" unicode="&#xc7;" 
d="M612 -428q-83 0 -136.5 36t-74.5 99l68 27q29 -88 139 -88q129 0 129 100q0 52 -37.5 76t-130.5 24l-39 45l43 78q-222 22 -351.5 224t-129.5 532q0 350 144.5 556t384.5 206q191 0 316 -123t171 -348l-111 -8q-35 182 -133 280t-243 98q-189 0 -305.5 -178t-116.5 -483
q0 -303 116.5 -480t305.5 -177q151 0 253.5 105t137.5 304l108 -8q-42 -225 -163 -357.5t-304 -144.5l-35 -57q97 -3 148 -46t51 -122q0 -78 -56.5 -124t-148.5 -46z" />
    <glyph glyph-name="Egrave" unicode="&#xc8;" 
d="M600 1612l-172 246h111l143 -246h-82zM199 0v1454h856v-98h-754v-582h729v-96h-729v-580h770v-98h-872z" />
    <glyph glyph-name="Eacute" unicode="&#xc9;" 
d="M588 1612l143 246h111l-172 -246h-82zM199 0v1454h856v-98h-754v-582h729v-96h-729v-580h770v-98h-872z" />
    <glyph glyph-name="Ecircumflex" unicode="&#xca;" 
d="M401 1610l187 260h94l184 -260h-86l-145 196l-148 -196h-86zM199 0v1454h856v-98h-754v-582h729v-96h-729v-580h770v-98h-872z" />
    <glyph glyph-name="Edieresis" unicode="&#xcb;" 
d="M401 1645v163h107v-163h-107zM760 1645v163h106v-163h-106zM199 0v1454h856v-98h-754v-582h729v-96h-729v-580h770v-98h-872z" />
    <glyph glyph-name="Igrave" unicode="&#xcc;" 
d="M580 1612l-172 246h110l144 -246h-82zM178 0v98h385v1258h-385v98h873v-98h-385v-1258h385v-98h-873z" />
    <glyph glyph-name="Iacute" unicode="&#xcd;" 
d="M567 1612l144 246h110l-172 -246h-82zM178 0v98h385v1258h-385v98h873v-98h-385v-1258h385v-98h-873z" />
    <glyph glyph-name="Icircumflex" unicode="&#xce;" 
d="M381 1610l186 260h95l184 -260h-86l-146 196l-147 -196h-86zM178 0v98h385v1258h-385v98h873v-98h-385v-1258h385v-98h-873z" />
    <glyph glyph-name="Idieresis" unicode="&#xcf;" 
d="M381 1645v161h106v-161h-106zM739 1645v161h107v-161h-107zM178 0v98h385v1258h-385v98h873v-98h-385v-1258h385v-98h-873z" />
    <glyph glyph-name="Eth" unicode="&#xd0;" 
d="M199 0v680h-158v94h158v680h305q298 0 465.5 -191t167.5 -538q0 -346 -167.5 -535.5t-465.5 -189.5h-305zM301 98h195q257 0 395.5 160.5t138.5 466.5t-139 468.5t-395 162.5h-195v-582h422v-94h-422v-582z" />
    <glyph glyph-name="Ntilde" unicode="&#xd1;" 
d="M752 1645q-71 0 -136 65q-32 31 -54.5 43t-55.5 12q-92 0 -98 -131h-70q4 95 50 148t118 53q46 0 80.5 -18t70.5 -54q55 -49 97 -49q40 0 61 32t27 107h71q-6 -99 -47.5 -153.5t-113.5 -54.5zM158 0v1454h147l664 -1345v1345h102v-1454h-147l-664 1346v-1346h-102z" />
    <glyph glyph-name="Ograve" unicode="&#xd2;" 
d="M580 1612l-172 246h110l144 -246h-82zM614 -33q-245 0 -383.5 202t-138.5 556q0 357 138 559.5t384 202.5t384.5 -202.5t138.5 -559.5q0 -354 -139 -556t-384 -202zM614 68q199 0 307.5 173.5t108.5 483.5q0 311 -109 486t-307 175t-306.5 -175t-108.5 -486t108.5 -484
t306.5 -173z" />
    <glyph glyph-name="Oacute" unicode="&#xd3;" 
d="M567 1612l144 246h110l-172 -246h-82zM614 -33q-245 0 -383.5 202t-138.5 556q0 357 138 559.5t384 202.5t384.5 -202.5t138.5 -559.5q0 -354 -139 -556t-384 -202zM614 68q199 0 307.5 173.5t108.5 483.5q0 311 -109 486t-307 175t-306.5 -175t-108.5 -486t108.5 -484
t306.5 -173z" />
    <glyph glyph-name="Ocircumflex" unicode="&#xd4;" 
d="M381 1610l186 260h95l184 -260h-86l-146 196l-147 -196h-86zM614 -33q-245 0 -383.5 202t-138.5 556q0 357 138 559.5t384 202.5t384.5 -202.5t138.5 -559.5q0 -354 -139 -556t-384 -202zM614 68q199 0 307.5 173.5t108.5 483.5q0 311 -109 486t-307 175t-306.5 -175
t-108.5 -486t108.5 -484t306.5 -173z" />
    <glyph glyph-name="Otilde" unicode="&#xd5;" 
d="M739 1645q-70 0 -135 65q-30 30 -52.5 42.5t-55.5 12.5q-93 0 -99 -131h-71q6 95 52 148t118 53q46 0 79.5 -18t69.5 -54q55 -49 98 -49q39 0 60.5 32t27.5 107h72q-6 -98 -49 -153t-115 -55zM614 -33q-245 0 -383.5 202t-138.5 556q0 357 138 559.5t384 202.5
t384.5 -202.5t138.5 -559.5q0 -354 -139 -556t-384 -202zM614 68q199 0 307.5 173.5t108.5 483.5q0 311 -109 486t-307 175t-306.5 -175t-108.5 -486t108.5 -484t306.5 -173z" />
    <glyph glyph-name="Odieresis" unicode="&#xd6;" 
d="M381 1645v161h106v-161h-106zM739 1645v161h107v-161h-107zM614 -33q-245 0 -383.5 202t-138.5 556q0 357 138 559.5t384 202.5t384.5 -202.5t138.5 -559.5q0 -354 -139 -556t-384 -202zM614 68q199 0 307.5 173.5t108.5 483.5q0 311 -109 486t-307 175t-306.5 -175
t-108.5 -486t108.5 -484t306.5 -173z" />
    <glyph glyph-name="multiply" unicode="&#xd7;" 
d="M217 258l332 332l-332 334l64 65l333 -334l334 334l64 -65l-332 -334l332 -332l-64 -65l-334 333l-333 -333z" />
    <glyph glyph-name="Oslash" unicode="&#xd8;" 
d="M109 -33l120 203q-137 201 -137 555q0 357 138 559.5t384 202.5q198 0 326 -131l78 131h102l-121 -203q138 -205 138 -559t-139 -556t-384 -202q-197 0 -325 131l-78 -131h-102zM199 725q0 -282 92 -455l594 992q-103 124 -271 124q-198 0 -306.5 -175t-108.5 -486z
M614 68q199 0 307.5 173.5t108.5 483.5q0 284 -92 457l-594 -992q104 -122 270 -122z" />
    <glyph glyph-name="Ugrave" unicode="&#xd9;" 
d="M580 1612l-172 246h110l144 -246h-82zM614 -33q-221 0 -342.5 142t-121.5 399v946h102v-946q0 -212 93.5 -326t268.5 -114t269 114t94 326v946h102v-946q0 -257 -122 -399t-343 -142z" />
    <glyph glyph-name="Uacute" unicode="&#xda;" 
d="M567 1612l144 246h110l-172 -246h-82zM614 -33q-221 0 -342.5 142t-121.5 399v946h102v-946q0 -212 93.5 -326t268.5 -114t269 114t94 326v946h102v-946q0 -257 -122 -399t-343 -142z" />
    <glyph glyph-name="Ucircumflex" unicode="&#xdb;" 
d="M381 1610l186 260h95l184 -260h-86l-146 196l-147 -196h-86zM614 -33q-221 0 -342.5 142t-121.5 399v946h102v-946q0 -212 93.5 -326t268.5 -114t269 114t94 326v946h102v-946q0 -257 -122 -399t-343 -142z" />
    <glyph glyph-name="Udieresis" unicode="&#xdc;" 
d="M381 1645v161h106v-161h-106zM739 1645v161h107v-161h-107zM614 -33q-221 0 -342.5 142t-121.5 399v946h102v-946q0 -212 93.5 -326t268.5 -114t269 114t94 326v946h102v-946q0 -257 -122 -399t-343 -142z" />
    <glyph glyph-name="Yacute" unicode="&#xdd;" 
d="M567 1612l144 246h110l-172 -246h-82zM563 0v594l-467 860h119l399 -754l400 754h119l-467 -860v-594h-103z" />
    <glyph glyph-name="Thorn" unicode="&#xde;" 
d="M199 0v1454h102v-289h315q242 0 379.5 -109.5t137.5 -301.5q0 -197 -138 -309.5t-379 -112.5h-315v-332h-102zM616 1067h-315v-637h315q193 0 301.5 86t108.5 238q0 148 -108 230.5t-302 82.5z" />
    <glyph glyph-name="germandbls" unicode="&#xdf;" 
d="M170 0v1028q0 204 113.5 325.5t304.5 121.5q184 0 294.5 -101.5t110.5 -269.5q0 -122 -67.5 -208.5t-184.5 -119.5q159 -34 248.5 -134.5t89.5 -244.5q0 -192 -124.5 -294.5t-350.5 -102.5h-158v92h158q181 0 277 78.5t96 228.5q0 149 -113 236.5t-301 87.5h-96v92h96
q150 0 239 78t89 211q0 124 -82 199t-221 75q-145 0 -232.5 -96t-87.5 -254v-1028h-98z" />
    <glyph glyph-name="agrave" unicode="&#xe0;" 
d="M539 1243l-172 246h110l144 -246h-82zM477 -25q-157 0 -254.5 80.5t-97.5 212.5q0 124 87 200.5t247 106.5l403 80q0 185 -72.5 272t-220.5 87q-135 0 -215 -66t-104 -192l-107 8q29 164 139.5 255t286.5 91q188 0 290 -113t102 -329v-457q0 -69 20.5 -94t67.5 -25h63
v-92q-24 -4 -76 -4q-81 0 -123 42.5t-51 151.5q-48 -94 -151 -154.5t-234 -60.5zM481 68q174 0 277.5 99t103.5 255v145l-381 -75q-126 -25 -190 -77.5t-64 -138.5q0 -101 66.5 -154.5t187.5 -53.5z" />
    <glyph glyph-name="aacute" unicode="&#xe1;" 
d="M526 1243l144 246h110l-172 -246h-82zM477 -25q-157 0 -254.5 80.5t-97.5 212.5q0 124 87 200.5t247 106.5l403 80q0 185 -72.5 272t-220.5 87q-135 0 -215 -66t-104 -192l-107 8q29 164 139.5 255t286.5 91q188 0 290 -113t102 -329v-457q0 -69 20.5 -94t67.5 -25h63
v-92q-24 -4 -76 -4q-81 0 -123 42.5t-51 151.5q-48 -94 -151 -154.5t-234 -60.5zM481 68q174 0 277.5 99t103.5 255v145l-381 -75q-126 -25 -190 -77.5t-64 -138.5q0 -101 66.5 -154.5t187.5 -53.5z" />
    <glyph glyph-name="acircumflex" unicode="&#xe2;" 
d="M340 1241l186 260h95l184 -260h-86l-146 197l-147 -197h-86zM477 -25q-157 0 -254.5 80.5t-97.5 212.5q0 124 87 200.5t247 106.5l403 80q0 185 -72.5 272t-220.5 87q-135 0 -215 -66t-104 -192l-107 8q29 164 139.5 255t286.5 91q188 0 290 -113t102 -329v-457
q0 -69 20.5 -94t67.5 -25h63v-92q-24 -4 -76 -4q-81 0 -123 42.5t-51 151.5q-48 -94 -151 -154.5t-234 -60.5zM481 68q174 0 277.5 99t103.5 255v145l-381 -75q-126 -25 -190 -77.5t-64 -138.5q0 -101 66.5 -154.5t187.5 -53.5z" />
    <glyph glyph-name="atilde" unicode="&#xe3;" 
d="M698 1276q-70 0 -135 65q-31 31 -53 43.5t-55 12.5q-93 0 -99 -131h-71q6 95 52 147.5t118 52.5q46 0 79.5 -17.5t69.5 -53.5q55 -49 98 -49q39 0 61 32.5t28 106.5h71q-6 -99 -49 -154t-115 -55zM477 -25q-157 0 -254.5 80.5t-97.5 212.5q0 124 87 200.5t247 106.5
l403 80q0 185 -72.5 272t-220.5 87q-135 0 -215 -66t-104 -192l-107 8q29 164 139.5 255t286.5 91q188 0 290 -113t102 -329v-457q0 -69 20.5 -94t67.5 -25h63v-92q-24 -4 -76 -4q-81 0 -123 42.5t-51 151.5q-48 -94 -151 -154.5t-234 -60.5zM481 68q174 0 277.5 99
t103.5 255v145l-381 -75q-126 -25 -190 -77.5t-64 -138.5q0 -101 66.5 -154.5t187.5 -53.5z" />
    <glyph glyph-name="adieresis" unicode="&#xe4;" 
d="M340 1276v162h106v-162h-106zM698 1276v162h107v-162h-107zM477 -25q-157 0 -254.5 80.5t-97.5 212.5q0 124 87 200.5t247 106.5l403 80q0 185 -72.5 272t-220.5 87q-135 0 -215 -66t-104 -192l-107 8q29 164 139.5 255t286.5 91q188 0 290 -113t102 -329v-457
q0 -69 20.5 -94t67.5 -25h63v-92q-24 -4 -76 -4q-81 0 -123 42.5t-51 151.5q-48 -94 -151 -154.5t-234 -60.5zM481 68q174 0 277.5 99t103.5 255v145l-381 -75q-126 -25 -190 -77.5t-64 -138.5q0 -101 66.5 -154.5t187.5 -53.5z" />
    <glyph glyph-name="aring" unicode="&#xe5;" 
d="M571 1202q-69 0 -114 45t-45 115q0 68 45 114t114 46t115.5 -46t46.5 -114q0 -69 -46 -114.5t-116 -45.5zM571 1270q41 0 67 25.5t26 66.5q0 40 -26 65t-67 25q-40 0 -65 -25t-25 -65q0 -41 25 -66.5t65 -25.5zM477 -25q-157 0 -254.5 80.5t-97.5 212.5q0 124 87 200.5
t247 106.5l403 80q0 185 -72.5 272t-220.5 87q-135 0 -215 -66t-104 -192l-107 8q29 164 139.5 255t286.5 91q188 0 290 -113t102 -329v-457q0 -69 20.5 -94t67.5 -25h63v-92q-24 -4 -76 -4q-81 0 -123 42.5t-51 151.5q-48 -94 -151 -154.5t-234 -60.5zM481 68
q174 0 277.5 99t103.5 255v145l-381 -75q-126 -25 -190 -77.5t-64 -138.5q0 -101 66.5 -154.5t187.5 -53.5z" />
    <glyph glyph-name="ae" unicode="&#xe6;" 
d="M285 -25q-114 0 -180 77.5t-66 221.5q0 119 75 201t205 105l211 36q0 192 -46.5 295t-137.5 103q-161 0 -190 -258l-101 8q46 346 291 346q185 0 250 -197q84 197 272 197q155 0 238.5 -138.5t83.5 -412.5v-41h-555q4 -229 60 -337.5t169 -108.5q85 0 135.5 55t81.5 178
l103 -8q-37 -166 -114.5 -244t-205.5 -78q-222 0 -293 258q-29 -124 -103 -191t-183 -67zM635 606h450q-2 191 -59 299.5t-158 108.5q-105 0 -163.5 -105t-69.5 -303zM301 68q110 0 169.5 102t59.5 279v71l-182 -31q-207 -37 -207 -215q0 -101 43 -153.5t117 -52.5z" />
    <glyph glyph-name="ccedilla" unicode="&#xe7;" 
d="M625 -428q-83 0 -136.5 36t-74.5 99l67 27q29 -88 140 -88q129 0 129 100q0 52 -37.5 76t-130.5 24l-39 45l47 86q-132 14 -228 92t-144 200t-48 274q0 162 53.5 288.5t163 202.5t258.5 76q167 0 277.5 -99.5t150.5 -267.5l-104 -8q-32 133 -116 206t-208 73
q-172 0 -271.5 -126.5t-99.5 -344.5t99.5 -344.5t271.5 -126.5q125 0 213 78.5t117 220.5l104 -9q-36 -169 -143 -273.5t-266 -113.5l-39 -65q97 -3 147.5 -46t50.5 -122t-56 -124.5t-148 -45.5z" />
    <glyph glyph-name="egrave" unicode="&#xe8;" 
d="M590 1241l-170 246h110l144 -246h-84zM635 -25q-151 0 -261.5 76t-165 203t-54.5 289q0 161 53.5 288t162.5 203t257 76q147 0 253.5 -73.5t159 -199t52.5 -286.5v-33h-834q4 -210 105.5 -328t271.5 -118q127 0 212 62t118 171l106 -8q-43 -144 -158 -233t-278 -89z
M258 606h727q-9 193 -102.5 300.5t-255.5 107.5q-158 0 -257 -108t-112 -300z" />
    <glyph glyph-name="eacute" unicode="&#xe9;" 
d="M578 1241l143 246h110l-169 -246h-84zM635 -25q-151 0 -261.5 76t-165 203t-54.5 289q0 161 53.5 288t162.5 203t257 76q147 0 253.5 -73.5t159 -199t52.5 -286.5v-33h-834q4 -210 105.5 -328t271.5 -118q127 0 212 62t118 171l106 -8q-43 -144 -158 -233t-278 -89z
M258 606h727q-9 193 -102.5 300.5t-255.5 107.5q-158 0 -257 -108t-112 -300z" />
    <glyph glyph-name="ecircumflex" unicode="&#xea;" 
d="M393 1239l185 260h94l184 -260h-86l-145 197l-146 -197h-86zM635 -25q-151 0 -261.5 76t-165 203t-54.5 289q0 161 53.5 288t162.5 203t257 76q147 0 253.5 -73.5t159 -199t52.5 -286.5v-33h-834q4 -210 105.5 -328t271.5 -118q127 0 212 62t118 171l106 -8
q-43 -144 -158 -233t-278 -89zM258 606h727q-9 193 -102.5 300.5t-255.5 107.5q-158 0 -257 -108t-112 -300z" />
    <glyph glyph-name="edieresis" unicode="&#xeb;" 
d="M391 1274v164h107v-164h-107zM750 1274v164h106v-164h-106zM635 -25q-151 0 -261.5 76t-165 203t-54.5 289q0 161 53.5 288t162.5 203t257 76q147 0 253.5 -73.5t159 -199t52.5 -286.5v-33h-834q4 -210 105.5 -328t271.5 -118q127 0 212 62t118 171l106 -8
q-43 -144 -158 -233t-278 -89zM258 606h727q-9 193 -102.5 300.5t-255.5 107.5q-158 0 -257 -108t-112 -300z" />
    <glyph glyph-name="igrave" unicode="&#xec;" 
d="M647 1243l-170 246h111l143 -246h-84zM190 0v88h447v909h-426v88h524v-997h385v-88h-930z" />
    <glyph glyph-name="iacute" unicode="&#xed;" 
d="M635 1243l143 246h111l-170 -246h-84zM190 0v88h447v909h-426v88h524v-997h385v-88h-930z" />
    <glyph glyph-name="icircumflex" unicode="&#xee;" 
d="M451 1241l184 260h94l184 -260h-86l-145 197l-145 -197h-86zM190 0v88h447v909h-426v88h524v-997h385v-88h-930z" />
    <glyph glyph-name="idieresis" unicode="&#xef;" 
d="M449 1276v162h106v-162h-106zM807 1276v162h106v-162h-106zM190 0v88h447v909h-426v88h524v-997h385v-88h-930z" />
    <glyph glyph-name="eth" unicode="&#xf0;" 
d="M608 -25q-215 0 -343 141.5t-128 385.5t128 385t343 141q208 0 346 -158q-53 223 -186 347l-250 -91l-31 82l197 70q-127 83 -317 113l26 88q241 -45 395 -162l316 110l29 -81l-271 -97q116 -122 167.5 -302t51.5 -425q0 -258 -128 -402.5t-345 -144.5zM608 72
q174 0 271.5 116.5t97.5 333.5q0 188 -99 299t-270 111q-172 0 -270 -114t-98 -316t98 -316t270 -114z" />
    <glyph glyph-name="ntilde" unicode="&#xf1;" 
d="M739 1276q-70 0 -135 65q-31 31 -53 43.5t-55 12.5q-93 0 -99 -131h-71q6 95 52 147.5t118 52.5q46 0 79.5 -17.5t69.5 -53.5q55 -49 98 -49q39 0 60.5 32t27.5 107h72q-6 -99 -49 -154t-115 -55zM199 0v1085h92l2 -225q36 120 137 185t232 65q177 0 272.5 -116
t95.5 -296v-698h-98v649q0 174 -71 271.5t-220 97.5q-155 0 -249.5 -101t-94.5 -268v-649h-98z" />
    <glyph glyph-name="ograve" unicode="&#xf2;" 
d="M580 1243l-172 246h110l144 -246h-82zM614 -25q-216 0 -342.5 153.5t-126.5 414.5t126 414t343 153t343 -153t126 -414t-126.5 -414.5t-342.5 -153.5zM614 72q171 0 268 126t97 345t-97 345t-268 126t-267.5 -126t-96.5 -345t96.5 -345t267.5 -126z" />
    <glyph glyph-name="oacute" unicode="&#xf3;" 
d="M567 1243l144 246h110l-172 -246h-82zM614 -25q-216 0 -342.5 153.5t-126.5 414.5t126 414t343 153t343 -153t126 -414t-126.5 -414.5t-342.5 -153.5zM614 72q171 0 268 126t97 345t-97 345t-268 126t-267.5 -126t-96.5 -345t96.5 -345t267.5 -126z" />
    <glyph glyph-name="ocircumflex" unicode="&#xf4;" 
d="M381 1241l186 260h95l184 -260h-86l-146 197l-147 -197h-86zM614 -25q-216 0 -342.5 153.5t-126.5 414.5t126 414t343 153t343 -153t126 -414t-126.5 -414.5t-342.5 -153.5zM614 72q171 0 268 126t97 345t-97 345t-268 126t-267.5 -126t-96.5 -345t96.5 -345t267.5 -126z
" />
    <glyph glyph-name="otilde" unicode="&#xf5;" 
d="M739 1276q-70 0 -135 65q-31 31 -53 43.5t-55 12.5q-93 0 -99 -131h-71q6 95 52 147.5t118 52.5q46 0 79.5 -17.5t69.5 -53.5q55 -49 98 -49q39 0 60.5 32t27.5 107h72q-6 -99 -49 -154t-115 -55zM614 -25q-216 0 -342.5 153.5t-126.5 414.5t126 414t343 153t343 -153
t126 -414t-126.5 -414.5t-342.5 -153.5zM614 72q171 0 268 126t97 345t-97 345t-268 126t-267.5 -126t-96.5 -345t96.5 -345t267.5 -126z" />
    <glyph glyph-name="odieresis" unicode="&#xf6;" 
d="M381 1276v162h106v-162h-106zM739 1276v162h107v-162h-107zM614 -25q-216 0 -342.5 153.5t-126.5 414.5t126 414t343 153t343 -153t126 -414t-126.5 -414.5t-342.5 -153.5zM614 72q171 0 268 126t97 345t-97 345t-268 126t-267.5 -126t-96.5 -345t96.5 -345t267.5 -126z
" />
    <glyph glyph-name="divide" unicode="&#xf7;" 
d="M614 842q-41 0 -65.5 25.5t-24.5 64.5t24.5 63.5t65.5 24.5t66 -24.5t25 -63.5t-25 -64.5t-66 -25.5zM158 530v95h913v-95h-913zM614 129q-41 0 -65.5 24.5t-24.5 63.5t24.5 63.5t65.5 24.5t66 -24.5t25 -63.5t-25 -63.5t-66 -24.5z" />
    <glyph glyph-name="oslash" unicode="&#xf8;" 
d="M190 -29l95 142q-140 156 -140 430q0 261 126 414t343 153q161 0 275 -88l61 92h88l-94 -141q139 -158 139 -430q0 -261 -126.5 -414.5t-342.5 -153.5q-160 0 -274 88l-61 -92h-89zM250 543q0 -216 94 -342l490 737q-88 76 -220 76q-171 0 -267.5 -126t-96.5 -345z
M614 72q171 0 268 126t97 345q0 216 -94 342l-490 -740q89 -73 219 -73z" />
    <glyph glyph-name="ugrave" unicode="&#xf9;" 
d="M565 1243l-172 246h111l143 -246h-82zM553 -25q-162 0 -258 110t-96 302v698h98v-665q0 -176 72 -264t211 -88q152 0 240.5 99t88.5 269v649h99v-1085h-90l-5 217q-35 -116 -128.5 -179t-231.5 -63z" />
    <glyph glyph-name="uacute" unicode="&#xfa;" 
d="M553 1243l143 246h111l-172 -246h-82zM553 -25q-162 0 -258 110t-96 302v698h98v-665q0 -176 72 -264t211 -88q152 0 240.5 99t88.5 269v649h99v-1085h-90l-5 217q-35 -116 -128.5 -179t-231.5 -63z" />
    <glyph glyph-name="ucircumflex" unicode="&#xfb;" 
d="M367 1241l186 260h94l184 -260h-86l-145 197l-147 -197h-86zM553 -25q-162 0 -258 110t-96 302v698h98v-665q0 -176 72 -264t211 -88q152 0 240.5 99t88.5 269v649h99v-1085h-90l-5 217q-35 -116 -128.5 -179t-231.5 -63z" />
    <glyph glyph-name="udieresis" unicode="&#xfc;" 
d="M367 1276v162h106v-162h-106zM725 1276v162h106v-162h-106zM553 -25q-162 0 -258 110t-96 302v698h98v-665q0 -176 72 -264t211 -88q152 0 240.5 99t88.5 269v649h99v-1085h-90l-5 217q-35 -116 -128.5 -179t-231.5 -63z" />
    <glyph glyph-name="yacute" unicode="&#xfd;" 
d="M582 1243l143 246h111l-170 -246h-84zM289 -307v88h96q77 0 114 26t62 95l45 118h-41l-422 1065h107l383 -985l356 985h107l-451 -1218q-36 -95 -92 -134.5t-162 -39.5h-102z" />
    <glyph glyph-name="thorn" unicode="&#xfe;" 
d="M170 -307v1761h102v-604q45 119 142.5 187.5t218.5 68.5q214 0 334 -155t120 -408q0 -167 -52 -294.5t-156 -200.5t-246 -73q-118 0 -212 63.5t-149 182.5v-528h-102zM627 70q171 0 266.5 130.5t95.5 342.5t-95.5 341.5t-266.5 129.5q-159 0 -260 -136.5t-101 -334.5
t101 -335.5t260 -137.5z" />
    <glyph glyph-name="ydieresis" unicode="&#xff;" 
d="M397 1276v162h107v-162h-107zM754 1276v162h106v-162h-106zM289 -307v88h96q77 0 114 26t62 95l45 118h-41l-422 1065h107l383 -985l356 985h107l-451 -1218q-36 -95 -92 -134.5t-162 -39.5h-102z" />
    <glyph glyph-name="Amacron" unicode="&#x100;" 
d="M352 1675v86h522v-86h-522zM84 0l465 1454h131l465 -1454h-107l-143 459h-561l-144 -459h-106zM614 1358l-249 -801h499z" />
    <glyph glyph-name="amacron" unicode="&#x101;" 
d="M311 1307v86h523v-86h-523zM477 -25q-157 0 -254.5 80.5t-97.5 212.5q0 124 87 200.5t247 106.5l403 80q0 185 -72.5 272t-220.5 87q-135 0 -215 -66t-104 -192l-107 8q29 164 139.5 255t286.5 91q188 0 290 -113t102 -329v-457q0 -69 20.5 -94t67.5 -25h63v-92
q-24 -4 -76 -4q-81 0 -123 42.5t-51 151.5q-48 -94 -151 -154.5t-234 -60.5zM481 68q174 0 277.5 99t103.5 255v145l-381 -75q-126 -25 -190 -77.5t-64 -138.5q0 -101 66.5 -154.5t187.5 -53.5z" />
    <glyph glyph-name="Abreve" unicode="&#x102;" 
d="M614 1624q-113 0 -182.5 66t-81.5 180h74q12 -82 62 -124t128 -42t128.5 42t62.5 124h74q-12 -114 -82 -180t-183 -66zM84 0l465 1454h131l465 -1454h-107l-143 459h-561l-144 -459h-106zM614 1358l-249 -801h499z" />
    <glyph glyph-name="abreve" unicode="&#x103;" 
d="M573 1255q-113 0 -182.5 66t-81.5 180h74q12 -82 62 -124t128 -42t128.5 42t62.5 124h74q-12 -114 -82 -180t-183 -66zM477 -25q-157 0 -254.5 80.5t-97.5 212.5q0 124 87 200.5t247 106.5l403 80q0 185 -72.5 272t-220.5 87q-135 0 -215 -66t-104 -192l-107 8
q29 164 139.5 255t286.5 91q188 0 290 -113t102 -329v-457q0 -69 20.5 -94t67.5 -25h63v-92q-24 -4 -76 -4q-81 0 -123 42.5t-51 151.5q-48 -94 -151 -154.5t-234 -60.5zM481 68q174 0 277.5 99t103.5 255v145l-381 -75q-126 -25 -190 -77.5t-64 -138.5q0 -101 66.5 -154.5
t187.5 -53.5z" />
    <glyph glyph-name="Aogonek" unicode="&#x104;" 
d="M84 0l465 1454h131l465 -1454l-55 -80q-72 -101 -72 -164q0 -38 21 -59t55 -21q57 0 96 31l37 -69q-60 -44 -144 -44q-71 0 -114 36.5t-43 105.5q0 91 86 205l43 59h-17l-143 459h-561l-144 -459h-106zM614 1358l-249 -801h499z" />
    <glyph glyph-name="aogonek" unicode="&#x105;" 
d="M477 -25q-157 0 -254.5 80.5t-97.5 212.5q0 124 87 200.5t247 106.5l403 80q0 185 -72.5 272t-220.5 87q-135 0 -215 -66t-104 -192l-107 8q29 164 139.5 255t286.5 91q188 0 290 -113t102 -329v-457q0 -69 20.5 -94t67.5 -25h63v-92l-55 -80q-72 -101 -72 -164
q0 -38 21 -59t55 -21q57 0 96 31l37 -69q-60 -44 -143 -44q-71 0 -114.5 36.5t-43.5 105.5q0 91 86 205l41 55q-73 5 -112 48.5t-46 145.5q-48 -94 -151 -154.5t-234 -60.5zM481 68q174 0 277.5 99t103.5 255v145l-381 -75q-126 -25 -190 -77.5t-64 -138.5
q0 -101 66.5 -154.5t187.5 -53.5z" />
    <glyph glyph-name="Cacute" unicode="&#x106;" 
d="M573 1612l144 246h110l-170 -246h-84zM621 -33q-242 0 -385.5 205t-143.5 553q0 350 144.5 556t384.5 206q191 0 316 -123t171 -348l-111 -8q-35 182 -133 280t-243 98q-189 0 -305.5 -178t-116.5 -483q0 -303 116.5 -480t305.5 -177q151 0 253.5 105t137.5 304l108 -8
q-43 -235 -173.5 -368.5t-325.5 -133.5z" />
    <glyph glyph-name="cacute" unicode="&#x107;" 
d="M594 1243l143 246h111l-170 -246h-84zM645 -25q-112 0 -203 44t-150 120.5t-90.5 180t-31.5 223.5q0 162 53.5 288.5t163 202.5t258.5 76q167 0 277.5 -99.5t150.5 -267.5l-104 -8q-32 133 -116 206t-208 73q-172 0 -271.5 -126.5t-99.5 -344.5t99.5 -344.5t271.5 -126.5
q125 0 213 78.5t117 220.5l104 -9q-38 -175 -152 -281t-282 -106z" />
    <glyph glyph-name="Ccircumflex" unicode="&#x108;" 
d="M389 1610l184 260h95l184 -260h-86l-145 196l-146 -196h-86zM621 -33q-242 0 -385.5 205t-143.5 553q0 350 144.5 556t384.5 206q191 0 316 -123t171 -348l-111 -8q-35 182 -133 280t-243 98q-189 0 -305.5 -178t-116.5 -483q0 -303 116.5 -480t305.5 -177
q151 0 253.5 105t137.5 304l108 -8q-43 -235 -173.5 -368.5t-325.5 -133.5z" />
    <glyph glyph-name="ccircumflex" unicode="&#x109;" 
d="M410 1241l184 260h94l186 -260h-86l-147 197l-145 -197h-86zM645 -25q-112 0 -203 44t-150 120.5t-90.5 180t-31.5 223.5q0 162 53.5 288.5t163 202.5t258.5 76q167 0 277.5 -99.5t150.5 -267.5l-104 -8q-32 133 -116 206t-208 73q-172 0 -271.5 -126.5t-99.5 -344.5
t99.5 -344.5t271.5 -126.5q125 0 213 78.5t117 220.5l104 -9q-38 -175 -152 -281t-282 -106z" />
    <glyph glyph-name="Cdotaccent" unicode="&#x10a;" 
d="M567 1645v161h107v-161h-107zM621 -33q-242 0 -385.5 205t-143.5 553q0 350 144.5 556t384.5 206q191 0 316 -123t171 -348l-111 -8q-35 182 -133 280t-243 98q-189 0 -305.5 -178t-116.5 -483q0 -303 116.5 -480t305.5 -177q151 0 253.5 105t137.5 304l108 -8
q-43 -235 -173.5 -368.5t-325.5 -133.5z" />
    <glyph glyph-name="cdotaccent" unicode="&#x10b;" 
d="M588 1276v162h106v-162h-106zM645 -25q-112 0 -203 44t-150 120.5t-90.5 180t-31.5 223.5q0 162 53.5 288.5t163 202.5t258.5 76q167 0 277.5 -99.5t150.5 -267.5l-104 -8q-32 133 -116 206t-208 73q-172 0 -271.5 -126.5t-99.5 -344.5t99.5 -344.5t271.5 -126.5
q125 0 213 78.5t117 220.5l104 -9q-38 -175 -152 -281t-282 -106z" />
    <glyph glyph-name="Ccaron" unicode="&#x10c;" 
d="M389 1870h86l146 -197l147 197h86l-186 -260h-95zM621 -33q-242 0 -385.5 205t-143.5 553q0 350 144.5 556t384.5 206q191 0 316 -123t171 -348l-111 -8q-35 182 -133 280t-243 98q-189 0 -305.5 -178t-116.5 -483q0 -303 116.5 -480t305.5 -177q151 0 253.5 105
t137.5 304l108 -8q-43 -235 -173.5 -368.5t-325.5 -133.5z" />
    <glyph glyph-name="ccaron" unicode="&#x10d;" 
d="M410 1501h86l147 -196l145 196h86l-184 -260h-94zM645 -25q-112 0 -203 44t-150 120.5t-90.5 180t-31.5 223.5q0 162 53.5 288.5t163 202.5t258.5 76q167 0 277.5 -99.5t150.5 -267.5l-104 -8q-32 133 -116 206t-208 73q-172 0 -271.5 -126.5t-99.5 -344.5t99.5 -344.5
t271.5 -126.5q125 0 213 78.5t117 220.5l104 -9q-38 -175 -152 -281t-282 -106z" />
    <glyph glyph-name="Dcaron" unicode="&#x10e;" 
d="M383 1870h86l145 -197l146 197h86l-184 -260h-95zM199 0v1454h305q298 0 465.5 -191t167.5 -538q0 -346 -167.5 -535.5t-465.5 -189.5h-305zM301 98h195q257 0 395.5 160.5t138.5 466.5t-139 468.5t-395 162.5h-195v-1258z" />
    <glyph glyph-name="dcaron" unicode="&#x10f;" 
d="M498 -25q-204 0 -317 152t-113 416q0 262 113.5 414.5t316.5 152.5q115 0 205 -70.5t135 -181.5v596h98v-1454h-82l-6 238q-48 -118 -139 -190.5t-211 -72.5zM1018 997l67 457h109l-98 -457h-78zM502 72q149 0 242.5 130t93.5 341q0 209 -94.5 340t-243.5 131
q-154 0 -241 -126.5t-87 -344.5q0 -220 87 -345.5t243 -125.5z" />
    <glyph glyph-name="Dcroat" unicode="&#x110;" 
d="M199 0v680h-158v94h158v680h305q298 0 465.5 -191t167.5 -538q0 -346 -167.5 -535.5t-465.5 -189.5h-305zM301 98h195q257 0 395.5 160.5t138.5 466.5t-139 468.5t-395 162.5h-195v-582h422v-94h-422v-582z" />
    <glyph glyph-name="dcroat" unicode="&#x111;" 
d="M559 -25q-211 0 -334 153.5t-123 414.5q0 260 123.5 413.5t333.5 153.5q123 0 219.5 -71t141.5 -181v365h-304v82h304v149h98v-149h160v-82h-160v-1223h-82l-6 238q-48 -117 -145.5 -190t-225.5 -73zM563 72q161 0 259 129.5t98 341.5q0 210 -98.5 340.5t-260.5 130.5
q-163 0 -258.5 -127t-95.5 -344q0 -218 96 -344.5t260 -126.5z" />
    <glyph glyph-name="Emacron" unicode="&#x112;" 
d="M373 1675v88h522v-88h-522zM199 0v1454h856v-98h-754v-582h729v-96h-729v-580h770v-98h-872z" />
    <glyph glyph-name="emacron" unicode="&#x113;" 
d="M365 1305v88h520v-88h-520zM635 -25q-151 0 -261.5 76t-165 203t-54.5 289q0 161 53.5 288t162.5 203t257 76q147 0 253.5 -73.5t159 -199t52.5 -286.5v-33h-834q4 -210 105.5 -328t271.5 -118q127 0 212 62t118 171l106 -8q-43 -144 -158 -233t-278 -89zM258 606h727
q-9 193 -102.5 300.5t-255.5 107.5q-158 0 -257 -108t-112 -300z" />
    <glyph glyph-name="Edotaccent" unicode="&#x116;" 
d="M582 1645v163h106v-163h-106zM199 0v1454h856v-98h-754v-582h729v-96h-729v-580h770v-98h-872z" />
    <glyph glyph-name="edotaccent" unicode="&#x117;" 
d="M571 1274v164h107v-164h-107zM635 -25q-151 0 -261.5 76t-165 203t-54.5 289q0 161 53.5 288t162.5 203t257 76q147 0 253.5 -73.5t159 -199t52.5 -286.5v-33h-834q4 -210 105.5 -328t271.5 -118q127 0 212 62t118 171l106 -8q-43 -144 -158 -233t-278 -89zM258 606h727
q-9 193 -102.5 300.5t-255.5 107.5q-158 0 -257 -108t-112 -300z" />
    <glyph glyph-name="Eogonek" unicode="&#x118;" 
d="M199 0v1454h856v-98h-754v-582h729v-96h-729v-580h770v-98l-57 -80q-70 -98 -70 -164q0 -39 20.5 -59.5t53.5 -20.5q59 0 98 31l35 -69q-57 -44 -143 -44q-71 0 -114.5 36.5t-43.5 105.5q0 91 86 205l43 59h-780z" />
    <glyph glyph-name="eogonek" unicode="&#x119;" 
d="M635 -25q-151 0 -261.5 76t-165 203t-54.5 289q0 161 53.5 288t162.5 203t257 76q147 0 253.5 -73.5t159 -199t52.5 -286.5v-33h-834q4 -210 105.5 -328t271.5 -118q127 0 212 62t118 171l106 -8q-49 -162 -176 -246l-57 -80q-70 -98 -70 -164q0 -40 20 -59.5t54 -19.5
q59 0 98 28l35 -67q-56 -43 -144 -43q-71 0 -114 36t-43 105q0 92 86 203q-73 -15 -125 -15zM258 606h727q-9 193 -102.5 300.5t-255.5 107.5q-158 0 -257 -108t-112 -300z" />
    <glyph glyph-name="Ecaron" unicode="&#x11a;" 
d="M403 1870h86l146 -197l145 197h86l-184 -260h-94zM199 0v1454h856v-98h-754v-582h729v-96h-729v-580h770v-98h-872z" />
    <glyph glyph-name="ecaron" unicode="&#x11b;" 
d="M393 1499h86l146 -196l147 196h86l-186 -260h-94zM635 -25q-151 0 -261.5 76t-165 203t-54.5 289q0 161 53.5 288t162.5 203t257 76q147 0 253.5 -73.5t159 -199t52.5 -286.5v-33h-834q4 -210 105.5 -328t271.5 -118q127 0 212 62t118 171l106 -8q-43 -144 -158 -233
t-278 -89zM258 606h727q-9 193 -102.5 300.5t-255.5 107.5q-158 0 -257 -108t-112 -300z" />
    <glyph glyph-name="Gcircumflex" unicode="&#x11c;" 
d="M373 1610l184 260h94l187 -260h-86l-148 196l-145 -196h-86zM612 -33q-239 0 -379.5 201t-140.5 557q0 228 64 400.5t183 267t277 94.5q192 0 317 -120.5t175 -344.5l-109 -8q-83 372 -383 372q-189 0 -303 -181t-114 -480q0 -305 113.5 -481t308.5 -176q172 0 282.5 149
t116.5 385h-397v94h493v-696h-94l-2 303q-49 -156 -154 -246t-254 -90z" />
    <glyph glyph-name="gcircumflex" unicode="&#x11d;" 
d="M369 1241l184 260h94l184 -260h-86l-145 197l-145 -197h-86zM602 -332q-171 0 -288 89t-132 229l105 8q12 -107 93.5 -168.5t221.5 -61.5q167 0 258.5 87t91.5 249v199q-47 -113 -140.5 -179.5t-217.5 -66.5q-207 0 -332 145t-125 386q0 236 124.5 381t328.5 145
q129 0 226.5 -70.5t139.5 -185.5v231h95v-985q0 -202 -119.5 -317t-329.5 -115zM596 150q162 0 259 117.5t97 316.5q2 190 -97 310t-259 120q-164 0 -260 -116.5t-96 -313.5q0 -199 96.5 -316.5t259.5 -117.5z" />
    <glyph glyph-name="Gbreve" unicode="&#x11e;" 
d="M606 1624q-113 0 -183.5 66t-82.5 180h76q10 -81 60.5 -123.5t129.5 -42.5q78 0 128.5 42.5t60.5 123.5h75q-12 -114 -81.5 -180t-182.5 -66zM612 -33q-239 0 -379.5 201t-140.5 557q0 228 64 400.5t183 267t277 94.5q192 0 317 -120.5t175 -344.5l-109 -8
q-83 372 -383 372q-189 0 -303 -181t-114 -480q0 -305 113.5 -481t308.5 -176q172 0 282.5 149t116.5 385h-397v94h493v-696h-94l-2 303q-49 -156 -154 -246t-254 -90z" />
    <glyph glyph-name="gbreve" unicode="&#x11f;" 
d="M600 1255q-113 0 -182.5 66t-81.5 180h76q10 -82 60 -124t128 -42q79 0 130 42.5t61 123.5h75q-12 -114 -82.5 -180t-183.5 -66zM602 -332q-171 0 -288 89t-132 229l105 8q12 -107 93.5 -168.5t221.5 -61.5q167 0 258.5 87t91.5 249v199q-47 -113 -140.5 -179.5
t-217.5 -66.5q-207 0 -332 145t-125 386q0 236 124.5 381t328.5 145q129 0 226.5 -70.5t139.5 -185.5v231h95v-985q0 -202 -119.5 -317t-329.5 -115zM596 150q162 0 259 117.5t97 316.5q2 190 -97 310t-259 120q-164 0 -260 -116.5t-96 -313.5q0 -199 96.5 -316.5
t259.5 -117.5z" />
    <glyph glyph-name="Gdotaccent" unicode="&#x120;" 
d="M551 1645v161h106v-161h-106zM612 -33q-239 0 -379.5 201t-140.5 557q0 228 64 400.5t183 267t277 94.5q192 0 317 -120.5t175 -344.5l-109 -8q-83 372 -383 372q-189 0 -303 -181t-114 -480q0 -305 113.5 -481t308.5 -176q172 0 282.5 149t116.5 385h-397v94h493v-696
h-94l-2 303q-49 -156 -154 -246t-254 -90z" />
    <glyph glyph-name="gdotaccent" unicode="&#x121;" 
d="M547 1276v162h106v-162h-106zM602 -332q-171 0 -288 89t-132 229l105 8q12 -107 93.5 -168.5t221.5 -61.5q167 0 258.5 87t91.5 249v199q-47 -113 -140.5 -179.5t-217.5 -66.5q-207 0 -332 145t-125 386q0 236 124.5 381t328.5 145q129 0 226.5 -70.5t139.5 -185.5v231
h95v-985q0 -202 -119.5 -317t-329.5 -115zM596 150q162 0 259 117.5t97 316.5q2 190 -97 310t-259 120q-164 0 -260 -116.5t-96 -313.5q0 -199 96.5 -316.5t259.5 -117.5z" />
    <glyph glyph-name="uni0122" unicode="&#x122;" 
d="M612 -33q-239 0 -379.5 201t-140.5 557q0 228 64 400.5t183 267t277 94.5q192 0 317 -120.5t175 -344.5l-109 -8q-83 372 -383 372q-189 0 -303 -181t-114 -480q0 -305 113.5 -481t308.5 -176q172 0 282.5 149t116.5 385h-397v94h493v-696h-94l-2 303q-49 -156 -154 -246
t-254 -90zM524 -395l86 168h-55v127h137v-117l-98 -178h-70z" />
    <glyph glyph-name="uni0123" unicode="&#x123;" 
d="M713 1550l-86 -168h57v-127h-137v117l98 178h68zM602 -332q-171 0 -288 89t-132 229l105 8q12 -107 93.5 -168.5t221.5 -61.5q167 0 258.5 87t91.5 249v199q-47 -113 -140.5 -179.5t-217.5 -66.5q-207 0 -332 145t-125 386q0 236 124.5 381t328.5 145q129 0 226.5 -70.5
t139.5 -185.5v231h95v-985q0 -202 -119.5 -317t-329.5 -115zM596 150q162 0 259 117.5t97 316.5q2 190 -97 310t-259 120q-164 0 -260 -116.5t-96 -313.5q0 -199 96.5 -316.5t259.5 -117.5z" />
    <glyph glyph-name="Hcircumflex" unicode="&#x124;" 
d="M381 1610l186 260h95l184 -260h-86l-146 196l-147 -196h-86zM150 0v1454h102v-663h725v663h102v-1454h-102v692h-725v-692h-102z" />
    <glyph glyph-name="hcircumflex" unicode="&#x125;" 
d="M49 1610l184 260h95l186 -260h-86l-147 196l-146 -196h-86zM231 0v1454h99v-584q34 117 131 178.5t227 61.5q116 0 198.5 -55t121.5 -146.5t39 -210.5v-698h-99v649q0 369 -284 369q-154 0 -244 -101t-90 -268v-649h-99z" />
    <glyph glyph-name="Hbar" unicode="&#x126;" 
d="M150 0v1106h-95v92h95v256h102v-256h725v256h102v-256h95v-92h-95v-1106h-102v692h-725v-692h-102zM252 791h725v315h-725v-315z" />
    <glyph glyph-name="hbar" unicode="&#x127;" 
d="M231 0v1223h-151v82h151v149h99v-149h309v-82h-309v-353q34 117 131 178.5t227 61.5q116 0 198.5 -55t121.5 -146.5t39 -210.5v-698h-99v649q0 369 -284 369q-154 0 -244 -101t-90 -268v-649h-99z" />
    <glyph glyph-name="Itilde" unicode="&#x128;" 
d="M739 1645q-70 0 -135 65q-30 30 -52.5 42.5t-55.5 12.5q-93 0 -99 -131h-71q6 95 52 148t118 53q46 0 79.5 -18t69.5 -54q55 -49 98 -49q39 0 60.5 32t27.5 107h72q-6 -98 -49 -153t-115 -55zM178 0v98h385v1258h-385v98h873v-98h-385v-1258h385v-98h-873z" />
    <glyph glyph-name="itilde" unicode="&#x129;" 
d="M809 1276q-70 0 -135 65q-33 31 -55.5 43.5t-55.5 12.5q-92 0 -98 -131h-70q4 95 50 147.5t118 52.5q81 0 152 -71q30 -27 51 -38t45 -11q40 0 61 32t27 107h72q-6 -99 -48 -154t-114 -55zM190 0v88h447v909h-426v88h524v-997h385v-88h-930z" />
    <glyph glyph-name="Imacron" unicode="&#x12a;" 
d="M352 1675v86h522v-86h-522zM178 0v98h385v1258h-385v98h873v-98h-385v-1258h385v-98h-873z" />
    <glyph glyph-name="imacron" unicode="&#x12b;" 
d="M422 1307v86h520v-86h-520zM190 0v88h447v909h-426v88h524v-997h385v-88h-930z" />
    <glyph glyph-name="Iogonek" unicode="&#x12e;" 
d="M178 0v98h385v1258h-385v98h873v-98h-385v-1258h385v-98l-56 -80q-71 -99 -71 -164q0 -38 21 -59t54 -21q58 0 97 31l37 -69q-60 -44 -144 -44q-71 0 -114.5 36.5t-43.5 105.5q0 90 87 205l43 59h-783z" />
    <glyph glyph-name="iogonek" unicode="&#x12f;" 
d="M629 1276v162h106v-162h-106zM190 0v88h447v909h-426v88h524v-997h385v-88l-57 -80q-70 -98 -70 -164q0 -39 20.5 -59.5t53.5 -20.5q59 0 98 31l35 -69q-57 -44 -143 -44q-71 0 -114.5 36.5t-43.5 105.5q0 91 86 205l43 59h-838z" />
    <glyph glyph-name="Idotaccent" unicode="&#x130;" 
d="M561 1645v161h107v-161h-107zM178 0v98h385v1258h-385v98h873v-98h-385v-1258h385v-98h-873z" />
    <glyph glyph-name="dotlessi" unicode="&#x131;" 
d="M190 0v88h447v909h-426v88h524v-997h385v-88h-930z" />
    <glyph glyph-name="Jcircumflex" unicode="&#x134;" 
d="M745 1610l185 260h94l186 -260h-86l-147 196l-146 -196h-86zM559 -33q-204 0 -330.5 138t-132.5 368l103 12q6 -202 98.5 -309.5t261.5 -107.5q181 0 275 112.5t94 329.5v944h102v-944q0 -257 -124 -400t-347 -143z" />
    <glyph glyph-name="jcircumflex" unicode="&#x135;" 
d="M586 1241l186 260h94l185 -260h-86l-146 197l-147 -197h-86zM252 -307v88h315q106 0 157.5 53t51.5 170v993h-516v88h614v-1085q0 -155 -73.5 -231t-227.5 -76h-321z" />
    <glyph glyph-name="uni0136" unicode="&#x136;" 
d="M150 0v1454h102v-836l735 836h125l-563 -637l584 -817h-123l-527 743l-231 -262v-481h-102zM498 -395l86 168h-58v127h138v-117l-99 -178h-67z" />
    <glyph glyph-name="uni0137" unicode="&#x137;" 
d="M217 0v1454h98v-1022l650 653h131l-465 -464l497 -621h-118l-445 557l-250 -250v-307h-98zM561 -395l86 168h-55v127h137v-117l-98 -178h-70z" />
    <glyph glyph-name="Lacute" unicode="&#x139;" 
d="M221 1612l144 246h110l-170 -246h-84zM219 0v1454h103v-1356h770v-98h-873z" />
    <glyph glyph-name="lacute" unicode="&#x13a;" 
d="M553 1612l143 246h111l-170 -246h-84zM150 0v88h446v1124q0 74 -40 114t-114 40h-252v88h252q120 0 186 -66t66 -186v-1114h385v-88h-929z" />
    <glyph glyph-name="uni013B" unicode="&#x13b;" 
d="M219 0v1454h103v-1356h770v-98h-873zM555 -395l86 168h-55v127h135v-117l-98 -178h-68z" />
    <glyph glyph-name="uni013C" unicode="&#x13c;" 
d="M150 0v88h446v1124q0 74 -40 114t-114 40h-252v88h252q120 0 186 -66t66 -186v-1114h385v-88h-929zM541 -395l86 168h-56v127h136v-117l-99 -178h-67z" />
    <glyph glyph-name="Lcaron" unicode="&#x13d;" 
d="M219 0v1454h103v-1356h770v-98h-873zM719 997l67 457h109l-98 -457h-78z" />
    <glyph glyph-name="lcaron" unicode="&#x13e;" 
d="M150 0v88h446v1124q0 74 -40 114t-114 40h-252v88h252q120 0 186 -66t66 -186v-1114h385v-88h-929zM860 997l68 457h108l-100 -457h-76z" />
    <glyph glyph-name="Lslash" unicode="&#x141;" 
d="M219 0v684l-147 -72v86l147 72v684h103v-635l268 131v-88l-268 -129v-635h770v-98h-873z" />
    <glyph glyph-name="lslash" unicode="&#x142;" 
d="M150 0v88h446v602l-221 -98v84l221 96v440q0 74 -40 114t-114 40h-252v88h252q120 0 186 -66t66 -186v-387l242 107v-84l-242 -105v-645h385v-88h-929z" />
    <glyph glyph-name="Nacute" unicode="&#x143;" 
d="M578 1612l143 246h110l-169 -246h-84zM158 0v1454h147l664 -1345v1345h102v-1454h-147l-664 1346v-1346h-102z" />
    <glyph glyph-name="nacute" unicode="&#x144;" 
d="M567 1243l144 246h110l-172 -246h-82zM199 0v1085h92l2 -225q36 120 137 185t232 65q177 0 272.5 -116t95.5 -296v-698h-98v649q0 174 -71 271.5t-220 97.5q-155 0 -249.5 -101t-94.5 -268v-649h-98z" />
    <glyph glyph-name="uni0145" unicode="&#x145;" 
d="M158 0v1454h147l664 -1345v1345h102v-1454h-147l-664 1346v-1346h-102zM530 -395l86 168h-55v127h137v-117l-98 -178h-70z" />
    <glyph glyph-name="uni0146" unicode="&#x146;" 
d="M199 0v1085h92l2 -225q36 120 137 185t232 65q177 0 272.5 -116t95.5 -296v-698h-98v649q0 174 -71 271.5t-220 97.5q-155 0 -249.5 -101t-94.5 -268v-649h-98zM518 -395l86 168h-57v127h137v-117l-98 -178h-68z" />
    <glyph glyph-name="Ncaron" unicode="&#x147;" 
d="M393 1870h86l146 -197l147 197h86l-186 -260h-94zM158 0v1454h147l664 -1345v1345h102v-1454h-147l-664 1346v-1346h-102z" />
    <glyph glyph-name="ncaron" unicode="&#x148;" 
d="M383 1501h86l145 -196l146 196h86l-184 -260h-95zM199 0v1085h92l2 -225q36 120 137 185t232 65q177 0 272.5 -116t95.5 -296v-698h-98v649q0 174 -71 271.5t-220 97.5q-155 0 -249.5 -101t-94.5 -268v-649h-98z" />
    <glyph glyph-name="Eng" unicode="&#x14a;" 
d="M158 0v1454h147l664 -1345v1345h102v-1499q0 -118 -72.5 -190t-197.5 -72h-203v98h203q79 0 123.5 41t44.5 121v47h-45l-664 1346v-1346h-102z" />
    <glyph glyph-name="eng" unicode="&#x14b;" 
d="M199 0v1085h92l2 -225q36 120 137 185t232 65q177 0 272.5 -116t95.5 -296v-743q0 -117 -74.5 -189.5t-197.5 -72.5h-160v92h164q75 0 122.5 46.5t47.5 121.5v696q0 174 -71 271.5t-220 97.5q-155 0 -249.5 -101t-94.5 -268v-649h-98z" />
    <glyph glyph-name="Omacron" unicode="&#x14c;" 
d="M352 1675v86h522v-86h-522zM614 -33q-245 0 -383.5 202t-138.5 556q0 357 138 559.5t384 202.5t384.5 -202.5t138.5 -559.5q0 -354 -139 -556t-384 -202zM614 68q199 0 307.5 173.5t108.5 483.5q0 311 -109 486t-307 175t-306.5 -175t-108.5 -486t108.5 -484t306.5 -173z
" />
    <glyph glyph-name="omacron" unicode="&#x14d;" 
d="M352 1307v86h522v-86h-522zM614 -25q-216 0 -342.5 153.5t-126.5 414.5t126 414t343 153t343 -153t126 -414t-126.5 -414.5t-342.5 -153.5zM614 72q171 0 268 126t97 345t-97 345t-268 126t-267.5 -126t-96.5 -345t96.5 -345t267.5 -126z" />
    <glyph glyph-name="Ohungarumlaut" unicode="&#x150;" 
d="M416 1610l143 245h111l-170 -245h-84zM694 1610l144 245h110l-170 -245h-84zM614 -33q-245 0 -383.5 202t-138.5 556q0 357 138 559.5t384 202.5t384.5 -202.5t138.5 -559.5q0 -354 -139 -556t-384 -202zM614 68q199 0 307.5 173.5t108.5 483.5q0 311 -109 486t-307 175
t-306.5 -175t-108.5 -486t108.5 -484t306.5 -173z" />
    <glyph glyph-name="ohungarumlaut" unicode="&#x151;" 
d="M416 1241l143 246h111l-170 -246h-84zM694 1241l144 246h110l-170 -246h-84zM614 -25q-216 0 -342.5 153.5t-126.5 414.5t126 414t343 153t343 -153t126 -414t-126.5 -414.5t-342.5 -153.5zM614 72q171 0 268 126t97 345t-97 345t-268 126t-267.5 -126t-96.5 -345
t96.5 -345t267.5 -126z" />
    <glyph glyph-name="OE" unicode="&#x152;" 
d="M383 -33q-179 0 -271 191t-92 567q0 377 92 569.5t271 192.5q173 0 262 -199v166h547v-98h-444v-582h419v-96h-419v-580h460v-98h-563v164q-90 -197 -262 -197zM383 68q132 0 195 163.5t63 493.5q0 332 -63 496.5t-195 164.5t-194 -163.5t-62 -497.5q0 -331 62 -494
t194 -163z" />
    <glyph glyph-name="oe" unicode="&#x153;" 
d="M338 -25q-145 0 -226 150t-81 418t81 417.5t226 149.5q91 0 156 -59.5t100 -173.5q81 233 285 233q155 0 237 -142t82 -407v-43h-553q4 -229 61 -337.5t173 -108.5q81 0 131 54.5t82 178.5l100 -8q-37 -166 -113 -244t-200 -78q-208 0 -285 232q-37 -113 -102 -172.5
t-154 -59.5zM338 72q97 0 150 123.5t53 347.5t-53 347.5t-150 123.5q-98 0 -151.5 -122.5t-53.5 -348.5t53.5 -348.5t151.5 -122.5zM645 606h451q-18 408 -219 408q-103 0 -163 -105.5t-69 -302.5z" />
    <glyph glyph-name="Racute" unicode="&#x154;" 
d="M549 1612l143 246h111l-170 -246h-84zM166 0v1454h430q216 0 341.5 -110t125.5 -308q0 -138 -73 -232.5t-193 -127.5q216 -41 233 -254l37 -422h-102l-35 406q-8 109 -74.5 162t-216.5 53h-371v-621h-102zM268 719h326q173 0 266.5 81t93.5 236q0 158 -93.5 240
t-266.5 82h-326v-639z" />
    <glyph glyph-name="racute" unicode="&#x155;" 
d="M618 1243l144 246h110l-170 -246h-84zM199 0v88h303v909h-303v88h383l8 -231q37 118 106 174.5t181 56.5h202v-92h-211q-119 0 -193.5 -94t-74.5 -233v-578h356v-88h-757z" />
    <glyph glyph-name="uni0156" unicode="&#x156;" 
d="M166 0v1454h430q216 0 341.5 -110t125.5 -308q0 -138 -73 -232.5t-193 -127.5q216 -41 233 -254l37 -422h-102l-35 406q-8 109 -74.5 162t-216.5 53h-371v-621h-102zM268 719h326q173 0 266.5 81t93.5 236q0 158 -93.5 240t-266.5 82h-326v-639zM518 -395l86 168h-57v127
h137v-117l-98 -178h-68z" />
    <glyph glyph-name="uni0157" unicode="&#x157;" 
d="M199 0v88h303v909h-303v88h383l8 -231q37 118 106 174.5t181 56.5h202v-92h-211q-119 0 -193.5 -94t-74.5 -233v-578h356v-88h-757zM453 -395l86 168h-56v127h135v-117l-98 -178h-67z" />
    <glyph glyph-name="Rcaron" unicode="&#x158;" 
d="M365 1870h86l145 -197l147 197h86l-186 -260h-94zM166 0v1454h430q216 0 341.5 -110t125.5 -308q0 -138 -73 -232.5t-193 -127.5q216 -41 233 -254l37 -422h-102l-35 406q-8 109 -74.5 162t-216.5 53h-371v-621h-102zM268 719h326q173 0 266.5 81t93.5 236
q0 158 -93.5 240t-266.5 82h-326v-639z" />
    <glyph glyph-name="rcaron" unicode="&#x159;" 
d="M434 1501h86l148 -196l145 196h86l-184 -260h-94zM199 0v88h303v909h-303v88h383l8 -231q37 118 106 174.5t181 56.5h202v-92h-211q-119 0 -193.5 -94t-74.5 -233v-578h356v-88h-757z" />
    <glyph glyph-name="Sacute" unicode="&#x15a;" 
d="M565 1612l144 246h110l-172 -246h-82zM635 -33q-219 0 -369.5 140t-156.5 348l106 8q8 -169 126.5 -282t297.5 -113q165 0 269 77t104 209q0 84 -34.5 141t-131.5 109.5t-273 100.5q-118 32 -194.5 64t-132.5 77.5t-80.5 106.5t-24.5 145q0 170 125 279.5t336 109.5
q110 0 201 -37t150.5 -100.5t93 -144t38.5 -171.5l-108 -8q-6 156 -106.5 258t-272.5 102q-158 0 -253 -79.5t-95 -208.5q0 -121 77 -182.5t296 -120.5q193 -52 301.5 -114t152 -139.5t43.5 -191.5q0 -170 -140 -276.5t-345 -106.5z" />
    <glyph glyph-name="sacute" unicode="&#x15b;" 
d="M565 1243l144 246h110l-170 -246h-84zM637 -25q-205 0 -327.5 99t-131.5 252l103 10q9 -122 102.5 -193t253.5 -71q311 0 311 196q0 36 -7 61t-28 49.5t-59.5 42.5t-100 34.5t-151.5 31.5q-155 26 -241.5 67.5t-118 97t-31.5 141.5q0 143 105 230t286 87t288 -92.5
t134 -237.5l-102 -12q-19 107 -100 176.5t-220 69.5q-137 0 -213 -59t-76 -162q0 -99 66.5 -144.5t253.5 -73.5q162 -25 253.5 -65t128 -96t36.5 -142q0 -142 -109.5 -219.5t-304.5 -77.5z" />
    <glyph glyph-name="Scircumflex" unicode="&#x15c;" 
d="M379 1610l186 260h94l185 -260h-86l-146 196l-147 -196h-86zM635 -33q-219 0 -369.5 140t-156.5 348l106 8q8 -169 126.5 -282t297.5 -113q165 0 269 77t104 209q0 84 -34.5 141t-131.5 109.5t-273 100.5q-118 32 -194.5 64t-132.5 77.5t-80.5 106.5t-24.5 145
q0 170 125 279.5t336 109.5q110 0 201 -37t150.5 -100.5t93 -144t38.5 -171.5l-108 -8q-6 156 -106.5 258t-272.5 102q-158 0 -253 -79.5t-95 -208.5q0 -121 77 -182.5t296 -120.5q193 -52 301.5 -114t152 -139.5t43.5 -191.5q0 -170 -140 -276.5t-345 -106.5z" />
    <glyph glyph-name="scircumflex" unicode="&#x15d;" 
d="M381 1241l184 260h94l185 -260h-86l-146 197l-145 -197h-86zM637 -25q-205 0 -327.5 99t-131.5 252l103 10q9 -122 102.5 -193t253.5 -71q311 0 311 196q0 36 -7 61t-28 49.5t-59.5 42.5t-100 34.5t-151.5 31.5q-155 26 -241.5 67.5t-118 97t-31.5 141.5q0 143 105 230
t286 87t288 -92.5t134 -237.5l-102 -12q-19 107 -100 176.5t-220 69.5q-137 0 -213 -59t-76 -162q0 -99 66.5 -144.5t253.5 -73.5q162 -25 253.5 -65t128 -96t36.5 -142q0 -142 -109.5 -219.5t-304.5 -77.5z" />
    <glyph glyph-name="Scedilla" unicode="&#x15e;" 
d="M596 -428q-83 0 -137.5 36t-73.5 99l68 27q29 -88 139 -88q129 0 129 100q0 52 -37.5 76t-132.5 24l-37 45l43 80q-191 26 -316.5 161t-131.5 323l106 8q8 -169 126.5 -282t297.5 -113q165 0 269 77t104 209q0 84 -34.5 141t-131.5 109.5t-273 100.5q-118 32 -194.5 64
t-132.5 77.5t-80.5 106.5t-24.5 145q0 170 125 279.5t336 109.5q110 0 201 -37t150.5 -100.5t93 -144t38.5 -171.5l-108 -8q-6 156 -106.5 258t-272.5 102q-158 0 -253 -79.5t-95 -208.5q0 -121 77 -182.5t296 -120.5q193 -52 301.5 -114t152 -139.5t43.5 -191.5
q0 -170 -140 -276.5t-345 -106.5l-35 -57q97 -3 149 -46t52 -122q0 -78 -56.5 -124t-148.5 -46z" />
    <glyph glyph-name="scedilla" unicode="&#x15f;" 
d="M608 -428q-81 0 -135.5 36t-75.5 99l68 27q32 -88 139 -88q131 0 131 100q0 51 -38 75.5t-132 24.5l-39 45l49 86q-178 15 -283 111.5t-114 237.5l103 10q9 -122 102.5 -193t253.5 -71q311 0 311 196q0 36 -7 61t-28 49.5t-59.5 42.5t-100 34.5t-151.5 31.5
q-155 26 -241.5 67.5t-118 97t-31.5 141.5q0 143 105 230t286 87t288 -92.5t134 -237.5l-102 -12q-19 107 -100 176.5t-220 69.5q-137 0 -213 -59t-76 -162q0 -99 66.5 -144.5t253.5 -73.5q162 -25 253.5 -65t128 -96t36.5 -142q0 -139 -105.5 -216.5t-292.5 -80.5l-39 -65
q97 -3 148 -46t51 -122q0 -78 -56.5 -124t-148.5 -46z" />
    <glyph glyph-name="Scaron" unicode="&#x160;" 
d="M381 1870h86l145 -197l146 197h86l-185 -260h-94zM635 -33q-219 0 -369.5 140t-156.5 348l106 8q8 -169 126.5 -282t297.5 -113q165 0 269 77t104 209q0 84 -34.5 141t-131.5 109.5t-273 100.5q-118 32 -194.5 64t-132.5 77.5t-80.5 106.5t-24.5 145q0 170 125 279.5
t336 109.5q110 0 201 -37t150.5 -100.5t93 -144t38.5 -171.5l-108 -8q-6 156 -106.5 258t-272.5 102q-158 0 -253 -79.5t-95 -208.5q0 -121 77 -182.5t296 -120.5q193 -52 301.5 -114t152 -139.5t43.5 -191.5q0 -170 -140 -276.5t-345 -106.5z" />
    <glyph glyph-name="scaron" unicode="&#x161;" 
d="M381 1501h86l145 -196l148 196h86l-187 -260h-94zM637 -25q-205 0 -327.5 99t-131.5 252l103 10q9 -122 102.5 -193t253.5 -71q311 0 311 196q0 36 -7 61t-28 49.5t-59.5 42.5t-100 34.5t-151.5 31.5q-155 26 -241.5 67.5t-118 97t-31.5 141.5q0 143 105 230t286 87
t288 -92.5t134 -237.5l-102 -12q-19 107 -100 176.5t-220 69.5q-137 0 -213 -59t-76 -162q0 -99 66.5 -144.5t253.5 -73.5q162 -25 253.5 -65t128 -96t36.5 -142q0 -142 -109.5 -219.5t-304.5 -77.5z" />
    <glyph glyph-name="uni0162" unicode="&#x162;" 
d="M563 0v1356h-481v98h1065v-98h-481v-1356h-11l-53 -90q97 -3 148 -46t51 -122q0 -78 -56.5 -124t-148.5 -46q-81 0 -135.5 36t-75.5 99l68 27q32 -88 139 -88q131 0 131 100q0 51 -38 75.5t-132 24.5l-39 45l61 109h-12z" />
    <glyph glyph-name="uni0163" unicode="&#x163;" 
d="M748 -428q-83 0 -137.5 36t-73.5 99l67 27q29 -88 139 -88q129 0 129 100q0 52 -37.5 76t-132.5 24l-36 45l59 109q-114 6 -175 70.5t-61 181.5v745h-372v88h372v254h99v-254h450v-88h-450v-749q0 -78 39.5 -119t113.5 -41h297v-88h-231l-55 -90q97 -3 148.5 -46
t51.5 -122t-56 -124.5t-148 -45.5z" />
    <glyph glyph-name="Tcaron" unicode="&#x164;" 
d="M383 1870h86l145 -197l146 197h86l-184 -260h-95zM563 0v1356h-481v98h1065v-98h-481v-1356h-103z" />
    <glyph glyph-name="tcaron" unicode="&#x165;" 
d="M756 1180l67 458h109l-101 -458h-75zM748 0q-125 0 -192 65.5t-67 186.5v745h-372v88h372v254h99v-254h450v-88h-450v-749q0 -78 39.5 -119t113.5 -41h297v-88h-290z" />
    <glyph glyph-name="Tbar" unicode="&#x166;" 
d="M563 0v668h-291v94h291v594h-481v98h1065v-98h-481v-594h290v-94h-290v-668h-103z" />
    <glyph glyph-name="tbar" unicode="&#x167;" 
d="M229 600v82h260v315h-372v88h372v254h99v-254h450v-88h-450v-315h313v-82h-313v-352q0 -78 39.5 -119t113.5 -41h297v-88h-290q-125 0 -192 65.5t-67 186.5v348h-260z" />
    <glyph glyph-name="Utilde" unicode="&#x168;" 
d="M739 1645q-70 0 -135 65q-30 30 -52.5 42.5t-55.5 12.5q-93 0 -99 -131h-71q6 95 52 148t118 53q46 0 79.5 -18t69.5 -54q55 -49 98 -49q39 0 60.5 32t27.5 107h72q-6 -98 -49 -153t-115 -55zM614 -33q-221 0 -342.5 142t-121.5 399v946h102v-946q0 -212 93.5 -326
t268.5 -114t269 114t94 326v946h102v-946q0 -257 -122 -399t-343 -142z" />
    <glyph glyph-name="utilde" unicode="&#x169;" 
d="M725 1276q-70 0 -135 65q-31 31 -53.5 43.5t-55.5 12.5q-92 0 -98 -131h-72q6 95 52 147.5t118 52.5q46 0 80 -17.5t70 -53.5q55 -49 98 -49q39 0 60.5 32t27.5 107h72q-6 -99 -49 -154t-115 -55zM553 -25q-162 0 -258 110t-96 302v698h98v-665q0 -176 72 -264t211 -88
q152 0 240.5 99t88.5 269v649h99v-1085h-90l-5 217q-35 -116 -128.5 -179t-231.5 -63z" />
    <glyph glyph-name="Umacron" unicode="&#x16a;" 
d="M352 1675v86h522v-86h-522zM614 -33q-221 0 -342.5 142t-121.5 399v946h102v-946q0 -212 93.5 -326t268.5 -114t269 114t94 326v946h102v-946q0 -257 -122 -399t-343 -142z" />
    <glyph glyph-name="umacron" unicode="&#x16b;" 
d="M338 1307v86h522v-86h-522zM553 -25q-162 0 -258 110t-96 302v698h98v-665q0 -176 72 -264t211 -88q152 0 240.5 99t88.5 269v649h99v-1085h-90l-5 217q-35 -116 -128.5 -179t-231.5 -63z" />
    <glyph glyph-name="Ubreve" unicode="&#x16c;" 
d="M614 1624q-113 0 -182.5 66t-81.5 180h74q12 -82 62 -124t128 -42t128.5 42t62.5 124h74q-12 -114 -82 -180t-183 -66zM614 -33q-221 0 -342.5 142t-121.5 399v946h102v-946q0 -212 93.5 -326t268.5 -114t269 114t94 326v946h102v-946q0 -257 -122 -399t-343 -142z" />
    <glyph glyph-name="ubreve" unicode="&#x16d;" 
d="M600 1255q-113 0 -182.5 66t-81.5 180h74q12 -82 62 -124t128 -42t128.5 42t62.5 124h73q-12 -114 -81.5 -180t-182.5 -66zM553 -25q-162 0 -258 110t-96 302v698h98v-665q0 -176 72 -264t211 -88q152 0 240.5 99t88.5 269v649h99v-1085h-90l-5 217q-35 -116 -128.5 -179
t-231.5 -63z" />
    <glyph glyph-name="Uring" unicode="&#x16e;" 
d="M612 1571q-69 0 -114 45t-45 115q0 68 45 113.5t114 45.5t115.5 -45.5t46.5 -113.5q0 -69 -46 -114.5t-116 -45.5zM612 1638q41 0 67 26t26 67q0 40 -26 65t-67 25q-40 0 -65 -25t-25 -65q0 -41 25 -67t65 -26zM614 -33q-221 0 -342.5 142t-121.5 399v946h102v-946
q0 -212 93.5 -326t268.5 -114t269 114t94 326v946h102v-946q0 -257 -122 -399t-343 -142z" />
    <glyph glyph-name="uring" unicode="&#x16f;" 
d="M598 1202q-69 0 -114.5 45t-45.5 115q0 68 45.5 114t114.5 46t115.5 -46t46.5 -114q0 -69 -46 -114.5t-116 -45.5zM598 1270q41 0 66.5 25.5t25.5 66.5q0 40 -25.5 65t-66.5 25q-40 0 -65 -25t-25 -65q0 -41 25 -66.5t65 -25.5zM553 -25q-162 0 -258 110t-96 302v698h98
v-665q0 -176 72 -264t211 -88q152 0 240.5 99t88.5 269v649h99v-1085h-90l-5 217q-35 -116 -128.5 -179t-231.5 -63z" />
    <glyph glyph-name="Uhungarumlaut" unicode="&#x170;" 
d="M416 1610l143 245h111l-170 -245h-84zM694 1610l144 245h110l-170 -245h-84zM614 -33q-221 0 -342.5 142t-121.5 399v946h102v-946q0 -212 93.5 -326t268.5 -114t269 114t94 326v946h102v-946q0 -257 -122 -399t-343 -142z" />
    <glyph glyph-name="uhungarumlaut" unicode="&#x171;" 
d="M401 1241l144 246h110l-170 -246h-84zM680 1241l143 246h111l-170 -246h-84zM553 -25q-162 0 -258 110t-96 302v698h98v-665q0 -176 72 -264t211 -88q152 0 240.5 99t88.5 269v649h99v-1085h-90l-5 217q-35 -116 -128.5 -179t-231.5 -63z" />
    <glyph glyph-name="Uogonek" unicode="&#x172;" 
d="M614 -33q-221 0 -342.5 142t-121.5 399v946h102v-946q0 -212 93.5 -326t268.5 -114t269 114t94 326v946h102v-946q0 -197 -73.5 -329t-210.5 -183l-56 -76q-69 -97 -69 -164q0 -39 20 -59.5t53 -20.5q60 0 99 31l35 -69q-57 -44 -144 -44q-71 0 -114.5 36.5t-43.5 105.5
q0 90 87 205l22 30q-46 -4 -70 -4z" />
    <glyph glyph-name="uogonek" unicode="&#x173;" 
d="M553 -25q-162 0 -258 110t-96 302v698h98v-665q0 -176 72 -264t211 -88q152 0 240.5 99t88.5 269v649h99v-1085l-58 -80q-69 -97 -69 -164q0 -38 20.5 -59t54.5 -21q58 0 97 31l34 -69q-57 -44 -143 -44q-70 0 -113 36t-43 106q0 90 84 205l46 59l-5 217
q-35 -116 -128.5 -179t-231.5 -63z" />
    <glyph glyph-name="Wcircumflex" unicode="&#x174;" 
d="M381 1610l186 260h95l184 -260h-86l-146 196l-147 -196h-86zM270 0l-194 1454h104l176 -1348l203 1184h111l202 -1184l177 1348h104l-195 -1454h-151l-193 1116l-192 -1116h-152z" />
    <glyph glyph-name="wcircumflex" unicode="&#x175;" 
d="M381 1241l186 260h95l184 -260h-86l-146 197l-147 -197h-86zM303 0l-248 1085h107l205 -985l198 840h99l198 -840l205 985h107l-248 -1085h-121l-191 793l-190 -793h-121z" />
    <glyph glyph-name="Ycircumflex" unicode="&#x176;" 
d="M381 1610l186 260h95l184 -260h-86l-146 196l-147 -196h-86zM563 0v594l-467 860h119l399 -754l400 754h119l-467 -860v-594h-103z" />
    <glyph glyph-name="ycircumflex" unicode="&#x177;" 
d="M397 1241l185 260h94l186 -260h-86l-147 197l-146 -197h-86zM289 -307v88h96q77 0 114 26t62 95l45 118h-41l-422 1065h107l383 -985l356 985h107l-451 -1218q-36 -95 -92 -134.5t-162 -39.5h-102z" />
    <glyph glyph-name="Ydieresis" unicode="&#x178;" 
d="M381 1645v161h106v-161h-106zM739 1645v161h107v-161h-107zM563 0v594l-467 860h119l399 -754l400 754h119l-467 -860v-594h-103z" />
    <glyph glyph-name="Zacute" unicode="&#x179;" 
d="M567 1612l144 246h110l-172 -246h-82zM117 0v100l868 1256h-831v98h942v-100l-869 -1256h885v-98h-995z" />
    <glyph glyph-name="zacute" unicode="&#x17a;" 
d="M569 1243l144 246h110l-172 -246h-82zM178 0v98l746 899h-725v88h835v-98l-745 -899h762v-88h-873z" />
    <glyph glyph-name="Zdotaccent" unicode="&#x17b;" 
d="M561 1645v161h107v-161h-107zM117 0v100l868 1256h-831v98h942v-100l-869 -1256h885v-98h-995z" />
    <glyph glyph-name="zdotaccent" unicode="&#x17c;" 
d="M563 1276v162h107v-162h-107zM178 0v98l746 899h-725v88h835v-98l-745 -899h762v-88h-873z" />
    <glyph glyph-name="Zcaron" unicode="&#x17d;" 
d="M383 1870h86l145 -197l146 197h86l-184 -260h-95zM117 0v100l868 1256h-831v98h942v-100l-869 -1256h885v-98h-995z" />
    <glyph glyph-name="zcaron" unicode="&#x17e;" 
d="M385 1501h86l145 -196l146 196h86l-184 -260h-95zM178 0v98l746 899h-725v88h835v-98l-745 -899h762v-88h-873z" />
    <glyph glyph-name="uni018F" unicode="&#x18f;" 
d="M621 -31q-160 0 -280.5 95t-184.5 265.5t-64 391.5v43h957q-3 277 -121.5 449.5t-311.5 172.5q-128 0 -232 -97t-157 -263l-110 8q62 209 195 331t302 122q248 0 394.5 -206.5t146.5 -551.5q0 -347 -147.5 -553.5t-386.5 -206.5zM621 70q185 0 302 161t124 435h-846
q9 -269 123 -432.5t297 -163.5z" />
    <glyph glyph-name="florin" unicode="&#x192;" 
d="M164 0v92h166q66 0 109.5 46.5t52.5 129.5l79 725h-239v92h250l10 95q13 133 82 203.5t186 70.5h205v-92h-215q-68 0 -109.5 -45t-50.5 -129l-12 -103h387v-92h-397l-80 -717q-15 -135 -84.5 -206t-186.5 -70h-153z" />
    <glyph glyph-name="uni01CD" unicode="&#x1cd;" 
d="M383 1870h86l145 -197l146 197h86l-184 -260h-95zM84 0l465 1454h131l465 -1454h-107l-143 459h-561l-144 -459h-106zM614 1358l-249 -801h499z" />
    <glyph glyph-name="uni01CE" unicode="&#x1ce;" 
d="M342 1501h86l145 -196l146 196h86l-184 -260h-95zM477 -25q-157 0 -254.5 80.5t-97.5 212.5q0 124 87 200.5t247 106.5l403 80q0 185 -72.5 272t-220.5 87q-135 0 -215 -66t-104 -192l-107 8q29 164 139.5 255t286.5 91q188 0 290 -113t102 -329v-457q0 -69 20.5 -94
t67.5 -25h63v-92q-24 -4 -76 -4q-81 0 -123 42.5t-51 151.5q-48 -94 -151 -154.5t-234 -60.5zM481 68q174 0 277.5 99t103.5 255v145l-381 -75q-126 -25 -190 -77.5t-64 -138.5q0 -101 66.5 -154.5t187.5 -53.5z" />
    <glyph glyph-name="uni01E4" unicode="&#x1e4;" 
d="M618 -33q-252 0 -398 204.5t-146 553.5q0 351 146 556.5t398 205.5q182 0 311 -125.5t175 -337.5l-107 -10q-42 172 -142 272t-237 100q-204 0 -320 -178t-116 -483q0 -303 116 -480t320 -177q127 0 219.5 68t137.5 198h-357v84h379q17 94 17 184h-396v94h496v-67
q0 -117 -18 -211h90v-84h-109q-52 -180 -170.5 -273.5t-288.5 -93.5z" />
    <glyph glyph-name="uni01E5" unicode="&#x1e5;" 
d="M588 -332q-171 0 -288 89t-132 229l104 8q12 -106 94 -168t222 -62q168 0 260 87t92 249v199q-47 -113 -141 -179.5t-219 -66.5q-206 0 -331.5 145t-125.5 386q0 237 125 381.5t330 144.5q129 0 225.5 -70t138.5 -186v231h96v-469h136v-86h-136v-430q0 -202 -119.5 -317
t-330.5 -115zM582 150q151 0 247 101.5t109 278.5h-348v86h348q-8 178 -105 288t-251 110q-164 0 -259.5 -116.5t-95.5 -313.5q0 -199 96 -316.5t259 -117.5z" />
    <glyph glyph-name="Gcaron" unicode="&#x1e6;" 
d="M373 1870h86l147 -197l146 197h86l-185 -260h-94zM612 -33q-239 0 -379.5 201t-140.5 557q0 228 64 400.5t183 267t277 94.5q192 0 317 -120.5t175 -344.5l-109 -8q-83 372 -383 372q-189 0 -303 -181t-114 -480q0 -305 113.5 -481t308.5 -176q172 0 282.5 149t116.5 385
h-397v94h493v-696h-94l-2 303q-49 -156 -154 -246t-254 -90z" />
    <glyph glyph-name="gcaron" unicode="&#x1e7;" 
d="M369 1501h86l145 -196l148 196h86l-187 -260h-94zM602 -332q-171 0 -288 89t-132 229l105 8q12 -107 93.5 -168.5t221.5 -61.5q167 0 258.5 87t91.5 249v199q-47 -113 -140.5 -179.5t-217.5 -66.5q-207 0 -332 145t-125 386q0 236 124.5 381t328.5 145q129 0 226.5 -70.5
t139.5 -185.5v231h95v-985q0 -202 -119.5 -317t-329.5 -115zM596 150q162 0 259 117.5t97 316.5q2 190 -97 310t-259 120q-164 0 -260 -116.5t-96 -313.5q0 -199 96.5 -316.5t259.5 -117.5z" />
    <glyph glyph-name="uni01E8" unicode="&#x1e8;" 
d="M356 1870h86l148 -197l145 197h86l-184 -260h-94zM150 0v1454h102v-836l735 836h125l-563 -637l584 -817h-123l-527 743l-231 -262v-481h-102z" />
    <glyph glyph-name="uni01E9" unicode="&#x1e9;" 
d="M35 1870h86l145 -197l148 197h86l-187 -260h-94zM217 0v1454h98v-1022l650 653h131l-465 -464l497 -621h-118l-445 557l-250 -250v-307h-98z" />
    <glyph glyph-name="uni0218" unicode="&#x218;" 
d="M635 -33q-219 0 -369.5 140t-156.5 348l106 8q8 -169 126.5 -282t297.5 -113q165 0 269 77t104 209q0 84 -34.5 141t-131.5 109.5t-273 100.5q-118 32 -194.5 64t-132.5 77.5t-80.5 106.5t-24.5 145q0 170 125 279.5t336 109.5q110 0 201 -37t150.5 -100.5t93 -144
t38.5 -171.5l-108 -8q-6 156 -106.5 258t-272.5 102q-158 0 -253 -79.5t-95 -208.5q0 -121 77 -182.5t296 -120.5q193 -52 301.5 -114t152 -139.5t43.5 -191.5q0 -170 -140 -276.5t-345 -106.5zM516 -395l86 168h-55v127h135v-117l-98 -178h-68z" />
    <glyph glyph-name="uni0219" unicode="&#x219;" 
d="M637 -25q-205 0 -327.5 99t-131.5 252l103 10q9 -122 102.5 -193t253.5 -71q311 0 311 196q0 36 -7 61t-28 49.5t-59.5 42.5t-100 34.5t-151.5 31.5q-155 26 -241.5 67.5t-118 97t-31.5 141.5q0 143 105 230t286 87t288 -92.5t134 -237.5l-102 -12q-19 107 -100 176.5
t-220 69.5q-137 0 -213 -59t-76 -162q0 -99 66.5 -144.5t253.5 -73.5q162 -25 253.5 -65t128 -96t36.5 -142q0 -142 -109.5 -219.5t-304.5 -77.5zM530 -395l86 168h-57v127h137v-117l-98 -178h-68z" />
    <glyph glyph-name="uni021A" unicode="&#x21a;" 
d="M563 0v1356h-481v98h1065v-98h-481v-1356h-103zM518 -395l86 168h-57v127h137v-117l-98 -178h-68z" />
    <glyph glyph-name="uni021B" unicode="&#x21b;" 
d="M748 0q-125 0 -192 65.5t-67 186.5v745h-372v88h372v254h99v-254h450v-88h-450v-749q0 -78 39.5 -119t113.5 -41h297v-88h-290zM668 -395l86 168h-56v127h136v-117l-99 -178h-67z" />
    <glyph glyph-name="uni0237" unicode="&#x237;" 
d="M252 -307v88h315q106 0 157.5 53t51.5 170v993h-516v88h614v-1085q0 -155 -73.5 -231t-227.5 -76h-321z" />
    <glyph glyph-name="uni0259" unicode="&#x259;" 
d="M594 1110q151 0 261.5 -76t165 -202.5t54.5 -288.5q0 -161 -53.5 -288.5t-162.5 -203.5t-257 -76q-219 0 -342 156.5t-123 403.5v32h834q-4 211 -105.5 329t-271.5 118q-127 0 -212 -62.5t-118 -171.5l-106 8q43 144 158 233t278 89zM971 479h-727q9 -193 102.5 -300
t255.5 -107q158 0 257 107.5t112 299.5z" />
    <glyph glyph-name="uni02B9" unicode="&#x2b9;" 
d="M487 1243l144 246h110l-170 -246h-84z" />
    <glyph glyph-name="uni02BC" unicode="&#x2bc;" 
d="M516 985l86 277h-98v192h190v-172l-110 -297h-68z" />
    <glyph glyph-name="circumflex" unicode="&#x2c6;" 
d="M383 1241l184 260h95l184 -260h-86l-146 197l-145 -197h-86z" />
    <glyph glyph-name="caron" unicode="&#x2c7;" 
d="M383 1501h86l145 -196l146 196h86l-184 -260h-95z" />
    <glyph glyph-name="uni02C8" unicode="&#x2c8;" 
d="M575 874l-18 433v147h115v-147l-19 -433h-78z" />
    <glyph glyph-name="breve" unicode="&#x2d8;" 
d="M614 1255q-113 0 -182.5 66t-81.5 180h74q12 -82 62 -124t128 -42t128.5 42t62.5 124h74q-12 -114 -82 -180t-183 -66z" />
    <glyph glyph-name="dotaccent" unicode="&#x2d9;" 
d="M561 1276v162h107v-162h-107z" />
    <glyph glyph-name="ring" unicode="&#x2da;" 
d="M614 1202q-69 0 -115 45t-46 115q0 68 46 114t115 46t115.5 -46t46.5 -114q0 -69 -46.5 -114.5t-115.5 -45.5zM614 1270q41 0 67 25.5t26 66.5q0 40 -26 65t-67 25t-66.5 -25t-25.5 -65q0 -41 25.5 -66.5t66.5 -25.5z" />
    <glyph glyph-name="ogonek" unicode="&#x2db;" 
d="M621 -406q-70 0 -113 36t-43 106q0 90 84 205l53 69l82 -10l-57 -80q-70 -98 -70 -164q0 -38 21 -59t55 -21q57 0 96 31l35 -69q-57 -44 -143 -44z" />
    <glyph glyph-name="tilde" unicode="&#x2dc;" 
d="M739 1276q-70 0 -135 65q-31 31 -53 43.5t-55 12.5q-93 0 -99 -131h-71q6 95 52 147.5t118 52.5q46 0 79.5 -17.5t69.5 -53.5q55 -49 98 -49q39 0 60.5 32t27.5 107h72q-6 -99 -49 -154t-115 -55z" />
    <glyph glyph-name="hungarumlaut" unicode="&#x2dd;" 
d="M348 1241l144 246h110l-170 -246h-84zM627 1241l143 246h111l-170 -246h-84z" />
    <glyph glyph-name="gravecomb" unicode="&#x300;" horiz-adv-x="0" 
d="M668 1243l-170 246h110l144 -246h-84z" />
    <glyph glyph-name="acutecomb" unicode="&#x301;" horiz-adv-x="0" 
d="M487 1243l144 246h110l-170 -246h-84z" />
    <glyph glyph-name="uni0302" unicode="&#x302;" horiz-adv-x="0" 
d="M383 1241l184 260h95l184 -260h-86l-146 197l-145 -197h-86z" />
    <glyph glyph-name="tildecomb" unicode="&#x303;" horiz-adv-x="0" 
d="M739 1276q-70 0 -135 65q-31 31 -53 43.5t-55 12.5q-93 0 -99 -131h-71q6 95 52 147.5t118 52.5q46 0 79.5 -17.5t69.5 -53.5q55 -49 98 -49q39 0 60.5 32t27.5 107h72q-6 -99 -49 -154t-115 -55z" />
    <glyph glyph-name="uni0304" unicode="&#x304;" horiz-adv-x="0" 
d="M354 1307v86h520v-86h-520z" />
    <glyph glyph-name="uni0306" unicode="&#x306;" horiz-adv-x="0" 
d="M614 1255q-113 0 -182.5 66t-81.5 180h74q12 -82 62 -124t128 -42t128.5 42t62.5 124h74q-12 -114 -82 -180t-183 -66z" />
    <glyph glyph-name="uni0307" unicode="&#x307;" horiz-adv-x="0" 
d="M561 1276v162h107v-162h-107z" />
    <glyph glyph-name="uni0308" unicode="&#x308;" horiz-adv-x="0" 
d="M383 1276v162h106v-162h-106zM739 1276v162h107v-162h-107z" />
    <glyph glyph-name="uni030A" unicode="&#x30a;" horiz-adv-x="0" 
d="M614 1202q-69 0 -115 45t-46 115q0 68 46 114t115 46t115.5 -46t46.5 -114q0 -69 -46.5 -114.5t-115.5 -45.5zM614 1270q41 0 67 25.5t26 66.5q0 40 -26 65t-67 25t-66.5 -25t-25.5 -65q0 -41 25.5 -66.5t66.5 -25.5z" />
    <glyph glyph-name="uni030B" unicode="&#x30b;" horiz-adv-x="0" 
d="M348 1241l144 246h110l-170 -246h-84zM627 1241l143 246h111l-170 -246h-84z" />
    <glyph glyph-name="uni030C" unicode="&#x30c;" horiz-adv-x="0" 
d="M383 1501h86l145 -196l146 196h86l-184 -260h-95z" />
    <glyph glyph-name="uni0312" unicode="&#x312;" horiz-adv-x="0" 
d="M705 1550l-87 -168h56v-127h-135v117l98 178h68z" />
    <glyph glyph-name="uni0326" unicode="&#x326;" horiz-adv-x="0" 
d="M524 -395l86 168h-55v127h135v-117l-98 -178h-68z" />
    <glyph glyph-name="uni0327" unicode="&#x327;" horiz-adv-x="0" 
d="M614 -428q-83 0 -136.5 36t-74.5 99l68 27q29 -88 139 -88q129 0 129 100q0 52 -37.5 76t-130.5 24l-39 45l68 121h82l-61 -102q97 -3 147.5 -46t50.5 -122q0 -78 -56.5 -124t-148.5 -46z" />
    <glyph glyph-name="uni0328" unicode="&#x328;" horiz-adv-x="0" 
d="M621 -406q-70 0 -113 36t-43 106q0 90 84 205l53 69l82 -10l-57 -80q-70 -98 -70 -164q0 -38 21 -59t55 -21q57 0 96 31l35 -69q-57 -44 -143 -44z" />
    <glyph glyph-name="uni0335" unicode="&#x335;" horiz-adv-x="0" 
d="M334 674v82h561v-82h-561z" />
    <glyph glyph-name="uni0336" unicode="&#x336;" horiz-adv-x="0" 
d="M55 1122v95h1119v-95h-1119z" />
    <glyph glyph-name="uni0337" unicode="&#x337;" horiz-adv-x="0" 
d="M334 639v84l561 246v-84z" />
    <glyph glyph-name="uni0338" unicode="&#x338;" horiz-adv-x="0" 
d="M190 -33l760 1143h88l-759 -1143h-89z" />
    <glyph glyph-name="Lambda" unicode="&#x39b;" 
d="M84 0l465 1454h131l465 -1454h-105l-426 1360l-426 -1360h-104z" />
    <glyph glyph-name="uni03A9" unicode="&#x3a9;" 
d="M37 0v98h336q-95 40 -173 139t-122.5 233.5t-44.5 274.5q0 335 161.5 538.5t419.5 203.5t420 -204t162 -538q0 -140 -44.5 -274.5t-122.5 -233.5t-173 -139h336v-98h-481v102q99 10 186.5 98.5t140 234t52.5 310.5q0 289 -133.5 465t-342.5 176t-342 -176t-133 -465
q0 -165 52.5 -310.5t140 -234t186.5 -98.5v-102h-481z" />
    <glyph glyph-name="lambda" unicode="&#x3bb;" 
d="M135 0l426 1055l-43 127q-31 100 -68.5 140t-105.5 40h-102v92h98q110 0 171.5 -60.5t111.5 -213.5l292 -914q31 -98 53 -130q30 -44 72 -44h72v-92h-41q-28 0 -51 3.5t-41.5 7.5t-34.5 15.5t-27.5 20t-24.5 30t-20.5 35.5t-19.5 46t-19.5 52.5t-21.5 63.5l-207 641
l-366 -915h-103z" />
    <glyph glyph-name="pi" unicode="&#x3c0;" 
d="M291 0v993h-221v92h1087v-92h-213v-747q0 -74 41 -116t113 -42h57v-88h-51q-124 0 -191 67.5t-67 184.5v741h-457v-993h-98z" />
    <glyph glyph-name="uni0400" unicode="&#x400;" 
d="M600 1612l-172 246h111l143 -246h-82zM199 0v1454h856v-98h-754v-582h729v-96h-729v-580h770v-98h-872z" />
    <glyph glyph-name="uni0401" unicode="&#x401;" 
d="M401 1645v163h107v-163h-107zM760 1645v163h106v-163h-106zM199 0v1454h856v-98h-754v-582h729v-96h-729v-580h770v-98h-872z" />
    <glyph glyph-name="uni0402" unicode="&#x402;" 
d="M272 0v1356h-256v98h678v-98h-319v-631q36 107 137 174.5t231 67.5q206 0 330.5 -133.5t124.5 -354.5q0 -222 -146 -350.5t-399 -128.5v98q204 0 320.5 102.5t116.5 278.5q0 180 -93.5 283.5t-253.5 103.5q-164 0 -266 -101t-102 -263v-502h-103z" />
    <glyph glyph-name="uni0403" unicode="&#x403;" 
d="M621 1612l143 246h110l-172 -246h-81zM213 0v1454h907v-98h-805v-1356h-102z" />
    <glyph glyph-name="uni0404" unicode="&#x404;" 
d="M614 -33q-246 0 -386 202t-140 556q0 356 140 559t386 203q199 0 330 -134.5t174 -379.5h-108q-38 197 -141 305t-255 108q-186 0 -297 -163t-120 -449h440v-98h-440q9 -284 120 -446t297 -162q151 0 253.5 107.5t142.5 303.5h108q-43 -244 -174 -378t-330 -134z" />
    <glyph glyph-name="uni0405" unicode="&#x405;" 
d="M635 -33q-219 0 -369.5 140t-156.5 348l106 8q8 -169 126.5 -282t297.5 -113q165 0 269 77t104 209q0 84 -34.5 141t-131.5 109.5t-273 100.5q-118 32 -194.5 64t-132.5 77.5t-80.5 106.5t-24.5 145q0 170 125 279.5t336 109.5q110 0 201 -37t150.5 -100.5t93 -144
t38.5 -171.5l-108 -8q-6 156 -106.5 258t-272.5 102q-158 0 -253 -79.5t-95 -208.5q0 -121 77 -182.5t296 -120.5q193 -52 301.5 -114t152 -139.5t43.5 -191.5q0 -170 -140 -276.5t-345 -106.5z" />
    <glyph glyph-name="uni0406" unicode="&#x406;" 
d="M178 0v98h385v1258h-385v98h873v-98h-385v-1258h385v-98h-873z" />
    <glyph glyph-name="uni0407" unicode="&#x407;" 
d="M381 1645v161h106v-161h-106zM739 1645v161h107v-161h-107zM178 0v98h385v1258h-385v98h873v-98h-385v-1258h385v-98h-873z" />
    <glyph glyph-name="uni0408" unicode="&#x408;" 
d="M559 -33q-204 0 -330.5 138t-132.5 368l103 12q6 -202 98.5 -309.5t261.5 -107.5q181 0 275 112.5t94 329.5v944h102v-944q0 -257 -124 -400t-347 -143z" />
    <glyph glyph-name="uni0409" unicode="&#x409;" 
d="M10 0v98h31q71 0 112.5 54.5t47.5 158.5l67 1143h424l2 -604h94q202 0 313 -111.5t111 -312.5q0 -203 -111 -314.5t-313 -111.5h-198v1356h-225l-62 -1055q-8 -147 -72 -224t-180 -77h-41zM694 98h88q155 0 235.5 84.5t80.5 243.5t-80.5 242.5t-235.5 83.5h-88v-654z" />
    <glyph glyph-name="uni040A" unicode="&#x40a;" 
d="M55 0v1454h103v-604h327v604h103v-604h100q230 0 358 -113t128 -311q0 -199 -128 -312.5t-358 -113.5h-203v752h-327v-752h-103zM588 98h94q189 0 284 84t95 244t-95 243t-284 83h-94v-654z" />
    <glyph glyph-name="uni040B" unicode="&#x40b;" 
d="M272 0v1356h-256v98h678v-98h-319v-629q36 106 135 173t225 67q197 0 307.5 -117.5t110.5 -327.5v-522h-102v522q0 162 -85.5 253t-238.5 91q-155 0 -253.5 -101.5t-98.5 -262.5v-502h-103z" />
    <glyph glyph-name="uni040C" unicode="&#x40c;" 
d="M559 1612l143 246h111l-170 -246h-84zM150 0v1454h102v-713l709 713h133l-723 -727l768 -727h-133l-754 713v-713h-102z" />
    <glyph glyph-name="uni040D" unicode="&#x40d;" 
d="M567 1612l-170 246h111l143 -246h-84zM1071 0h-102v1346l-664 -1346h-147v1454h102v-1345l664 1345h147v-1454z" />
    <glyph glyph-name="uni040E" unicode="&#x40e;" 
d="M633 1624q-113 0 -183.5 66t-82.5 180h75q10 -81 61 -123.5t130 -42.5q78 0 128 42t60 124h76q-12 -114 -81.5 -180t-182.5 -66zM283 0v98h96q63 0 101.5 31t66.5 104l57 156h-47l-416 1065h111l381 -981l358 981h111l-471 -1274q-33 -93 -94 -136.5t-154 -43.5h-100z
" />
    <glyph glyph-name="uni040F" unicode="&#x40f;" 
d="M563 -307v307h-395v1454h102v-1356h688v1356h103v-1454h-395v-307h-103z" />
    <glyph glyph-name="uni0410" unicode="&#x410;" 
d="M84 0l465 1454h131l465 -1454h-107l-143 459h-561l-144 -459h-106zM614 1358l-249 -801h499z" />
    <glyph glyph-name="uni0411" unicode="&#x411;" 
d="M186 0v1454h879v-98h-776v-506h311q225 0 356 -111.5t131 -310.5q0 -200 -131.5 -314t-355.5 -114h-414zM289 98h299q191 0 292 84.5t101 245.5q0 160 -100.5 242t-292.5 82h-299v-654z" />
    <glyph glyph-name="uni0412" unicode="&#x412;" 
d="M199 0v1454h385q236 0 358.5 -101.5t122.5 -289.5q0 -125 -75 -214t-199 -112q157 -19 245 -110t88 -234q0 -188 -122.5 -290.5t-350.5 -102.5h-452zM301 778h309q162 0 254 74.5t92 208.5q0 144 -92.5 220.5t-275.5 76.5h-287v-580zM301 96h348q184 0 276.5 76.5
t92.5 220.5q0 134 -99 211.5t-270 77.5h-348v-586z" />
    <glyph glyph-name="uni0413" unicode="&#x413;" 
d="M213 0v1454h907v-98h-805v-1356h-102z" />
    <glyph glyph-name="uni0414" unicode="&#x414;" 
d="M33 -307v405h57q174 0 205 310l106 1046h600v-1356h181v-405h-103v307h-944v-307h-102zM276 98h623v1258h-405l-99 -969q-10 -95 -42 -172t-77 -117z" />
    <glyph glyph-name="uni0415" unicode="&#x415;" 
d="M199 0v1454h856v-98h-754v-582h729v-96h-729v-580h770v-98h-872z" />
    <glyph glyph-name="uni0416" unicode="&#x416;" 
d="M18 0l447 727l-426 727h115l409 -704v704h103v-704l409 704h115l-426 -727l446 -727h-114l-430 705v-705h-103v705l-430 -705h-115z" />
    <glyph glyph-name="uni0417" unicode="&#x417;" 
d="M608 -33q-218 0 -362 108t-156 287l103 9q13 -138 127.5 -220.5t287.5 -82.5q186 0 302 94t116 248q0 146 -114.5 234.5t-278.5 86.5l-141 -2v100l141 -2q142 0 243 76.5t101 204.5q0 124 -101 201t-264 77q-139 0 -236.5 -66t-119.5 -179l-109 8q26 152 155.5 245
t309.5 93q209 0 341 -106t132 -273q0 -112 -69.5 -198t-190.5 -124q142 -46 226 -149.5t84 -237.5q0 -190 -148 -311t-379 -121z" />
    <glyph glyph-name="uni0418" unicode="&#x418;" 
d="M1071 0h-102v1346l-664 -1346h-147v1454h102v-1345l664 1345h147v-1454z" />
    <glyph glyph-name="uni0419" unicode="&#x419;" 
d="M604 1624q-113 0 -183.5 66t-82.5 180h76q10 -81 60.5 -123.5t129.5 -42.5q78 0 128.5 42.5t60.5 123.5h75q-12 -114 -81.5 -180t-182.5 -66zM1071 0h-102v1346l-664 -1346h-147v1454h102v-1345l664 1345h147v-1454z" />
    <glyph glyph-name="uni041A" unicode="&#x41a;" 
d="M150 0v1454h102v-713l709 713h133l-723 -727l768 -727h-133l-754 713v-713h-102z" />
    <glyph glyph-name="uni041B" unicode="&#x41b;" 
d="M55 0v98h78q142 0 160 213l96 1143h717v-1454h-102v1356h-519l-90 -1055q-22 -301 -252 -301h-88z" />
    <glyph glyph-name="uni041C" unicode="&#x41c;" 
d="M567 164l-348 1161v-1325h-102v1454h155l342 -1159l342 1159h156v-1454h-102v1325l-348 -1161h-95z" />
    <glyph glyph-name="uni041D" unicode="&#x41d;" 
d="M150 0v1454h102v-663h725v663h102v-1454h-102v692h-725v-692h-102z" />
    <glyph glyph-name="uni041E" unicode="&#x41e;" 
d="M614 -33q-245 0 -383.5 202t-138.5 556q0 357 138 559.5t384 202.5t384.5 -202.5t138.5 -559.5q0 -354 -139 -556t-384 -202zM614 68q199 0 307.5 173.5t108.5 483.5q0 311 -109 486t-307 175t-306.5 -175t-108.5 -486t108.5 -484t306.5 -173z" />
    <glyph glyph-name="uni041F" unicode="&#x41f;" 
d="M168 0v1454h893v-1454h-103v1356h-688v-1356h-102z" />
    <glyph glyph-name="uni0420" unicode="&#x420;" 
d="M211 0v1454h414q224 0 355.5 -114t131.5 -314q0 -199 -131 -310.5t-356 -111.5h-312v-604h-102zM313 702h299q192 0 293 82t101 242q0 161 -101.5 245.5t-292.5 84.5h-299v-654z" />
    <glyph glyph-name="uni0421" unicode="&#x421;" 
d="M621 -33q-242 0 -385.5 205t-143.5 553q0 350 144.5 556t384.5 206q191 0 316 -123t171 -348l-111 -8q-35 182 -133 280t-243 98q-189 0 -305.5 -178t-116.5 -483q0 -303 116.5 -480t305.5 -177q151 0 253.5 105t137.5 304l108 -8q-43 -235 -173.5 -368.5t-325.5 -133.5z
" />
    <glyph glyph-name="uni0422" unicode="&#x422;" 
d="M563 0v1356h-481v98h1065v-98h-481v-1356h-103z" />
    <glyph glyph-name="uni0423" unicode="&#x423;" 
d="M283 0v98h96q63 0 101.5 31t66.5 104l57 156h-47l-416 1065h111l381 -981l358 981h111l-471 -1274q-33 -93 -94 -136.5t-154 -43.5h-100z" />
    <glyph glyph-name="uni0424" unicode="&#x424;" 
d="M561 0v152q-232 15 -368 169.5t-136 405.5t136 406t368 170v151h103v-151q235 -15 371 -169.5t136 -406.5t-136 -406t-371 -169v-152h-103zM1063 727q0 205 -106.5 331.5t-292.5 143.5v-950q186 17 292.5 143.5t106.5 331.5zM166 727q0 -205 105.5 -331.5t289.5 -143.5
v950q-184 -17 -289.5 -143.5t-105.5 -331.5z" />
    <glyph glyph-name="uni0425" unicode="&#x425;" 
d="M117 0l432 735l-420 719h119l370 -643l365 643h117l-418 -725l430 -729h-117l-383 655l-381 -655h-114z" />
    <glyph glyph-name="uni0426" unicode="&#x426;" 
d="M1081 -307v307h-919v1454h102v-1356h688v1356h103v-1356h129v-405h-103z" />
    <glyph glyph-name="uni0427" unicode="&#x427;" 
d="M956 0v733q-39 -107 -156 -176.5t-265 -69.5q-197 0 -307.5 117.5t-110.5 327.5v522h102v-522q0 -163 83.5 -253.5t232.5 -90.5q185 0 303 101.5t118 262.5v502h103v-1454h-103z" />
    <glyph glyph-name="uni0428" unicode="&#x428;" 
d="M143 0v1454h103v-1356h317v1356h103v-1356h317v1356h102v-1454h-942z" />
    <glyph glyph-name="uni0429" unicode="&#x429;" 
d="M129 0v1454h102v-1356h318v1356h102v-1356h320v1356h102v-1356h111v-405h-103v307h-952z" />
    <glyph glyph-name="uni042A" unicode="&#x42a;" 
d="M84 1356v98h301v-604h309q225 0 357.5 -111.5t132.5 -310.5t-132.5 -313.5t-357.5 -114.5h-411v1356h-199zM385 752v-654h297q191 0 292 84.5t101 245.5q0 160 -100.5 242t-292.5 82h-297z" />
    <glyph glyph-name="uni042B" unicode="&#x42b;" 
d="M86 0v1454h102v-604h232q230 0 364 -114t134 -310q0 -198 -133.5 -312t-364.5 -114h-334zM1044 0v1454h99v-1454h-99zM188 98h232q190 0 290.5 84.5t100.5 243.5q0 158 -100.5 242t-290.5 84h-232v-654z" />
    <glyph glyph-name="uni042C" unicode="&#x42c;" 
d="M211 1454h102v-604h312q225 0 356 -111.5t131 -310.5q0 -200 -131.5 -314t-355.5 -114h-414v1454zM313 752v-654h299q191 0 292.5 84.5t101.5 245.5q0 160 -101 242t-293 82h-299z" />
    <glyph glyph-name="uni042D" unicode="&#x42d;" 
d="M614 -33q-199 0 -329.5 134t-173.5 378h108q40 -196 142 -303.5t253 -107.5q186 0 297.5 162t120.5 446h-440v98h440q-9 286 -120 449t-298 163q-152 0 -254.5 -108t-140.5 -305h-108q43 245 173.5 379.5t329.5 134.5q246 0 386.5 -203t140.5 -559q0 -353 -140.5 -555.5
t-386.5 -202.5z" />
    <glyph glyph-name="uni042E" unicode="&#x42e;" 
d="M55 0v1454h103v-678h217q6 361 104 536t293 175q204 0 303 -187.5t99 -574.5q0 -384 -99 -571t-303 -187q-197 0 -295 175t-102 536h-217v-678h-103zM772 68q152 0 224.5 159.5t72.5 497.5q0 340 -72.5 500.5t-224.5 160.5q-151 0 -222 -160.5t-71 -500.5
q0 -338 71 -497.5t222 -159.5z" />
    <glyph glyph-name="uni042F" unicode="&#x42f;" 
d="M1059 0h-103v621h-362l-356 -621h-113l369 637q-167 36 -259 136.5t-92 254.5q0 197 130 311.5t348 114.5h438v-1454zM956 719v639h-335q-178 0 -273.5 -86.5t-95.5 -243.5q0 -149 95.5 -229t273.5 -80h335z" />
    <glyph glyph-name="uni0430" unicode="&#x430;" 
d="M477 -25q-157 0 -254.5 80.5t-97.5 212.5q0 124 87 200.5t247 106.5l403 80q0 185 -72.5 272t-220.5 87q-135 0 -215 -66t-104 -192l-107 8q29 164 139.5 255t286.5 91q188 0 290 -113t102 -329v-457q0 -69 20.5 -94t67.5 -25h63v-92q-24 -4 -76 -4q-81 0 -123 42.5
t-51 151.5q-48 -94 -151 -154.5t-234 -60.5zM481 68q174 0 277.5 99t103.5 255v145l-381 -75q-126 -25 -190 -77.5t-64 -138.5q0 -101 66.5 -154.5t187.5 -53.5z" />
    <glyph glyph-name="uni0431" unicode="&#x431;" 
d="M621 -33q-211 0 -357 187q-58 73 -91 199t-36 288q-7 259 81 416.5t274 249.5q113 55 152.5 112t39.5 137l100 3q0 -103 -50.5 -182.5t-176.5 -143.5q-107 -54 -177 -121t-111.5 -174t-37.5 -248q45 138 157.5 219.5t262.5 81.5q197 0 323 -142t126 -366
q0 -229 -134.5 -372.5t-344.5 -143.5zM625 63q163 0 266.5 117.5t103.5 302.5q0 182 -100.5 297t-259.5 115q-166 0 -274 -115.5t-109 -296.5q-3 -185 101.5 -302.5t271.5 -117.5z" />
    <glyph glyph-name="uni0432" unicode="&#x432;" 
d="M211 0v1085h424q177 0 280 -77t103 -209q0 -97 -61.5 -160t-170.5 -78q129 -15 203 -82.5t74 -171.5q0 -141 -99.5 -224t-269.5 -83h-483zM309 600h328q127 0 201.5 54t74.5 145q0 90 -74 142t-202 52h-328v-393zM309 92h385q122 0 193 57.5t71 157.5q0 94 -71 148.5
t-193 54.5h-385v-418z" />
    <glyph glyph-name="uni0433" unicode="&#x433;" 
d="M332 0v1085h706v-92h-608v-993h-98z" />
    <glyph glyph-name="uni0434" unicode="&#x434;" 
d="M55 -307v399h45q78 0 132 67.5t71 188.5l98 737h596v-993h177v-399h-99v307h-921v-307h-99zM397 332q-21 -157 -104 -240h606v901h-407z" />
    <glyph glyph-name="uni0435" unicode="&#x435;" 
d="M635 -25q-151 0 -261.5 76t-165 203t-54.5 289q0 161 53.5 288t162.5 203t257 76q147 0 253.5 -73.5t159 -199t52.5 -286.5v-33h-834q4 -210 105.5 -328t271.5 -118q127 0 212 62t118 171l106 -8q-43 -144 -158 -233t-278 -89zM258 606h727q-9 193 -102.5 300.5
t-255.5 107.5q-158 0 -257 -108t-112 -300z" />
    <glyph glyph-name="uni0436" unicode="&#x436;" 
d="M29 0l426 543l-410 542h119l401 -532v532h99v-532l401 532h119l-410 -542l426 -543h-119l-417 532v-532h-99v532l-418 -532h-118z" />
    <glyph glyph-name="uni0437" unicode="&#x437;" 
d="M604 -25q-173 0 -283 91t-118 239l104 6q8 -110 87.5 -174.5t209.5 -64.5q140 0 223.5 61.5t83.5 165.5q0 112 -80 175.5t-215 60.5l-112 -5v99l112 -2q118 -4 188 45t70 137q0 93 -73 149t-193 56q-112 0 -180.5 -53t-79.5 -144l-106 8q15 131 112.5 208t253.5 77
q168 0 269.5 -82t101.5 -219q0 -79 -56 -138t-157 -87q118 -32 184 -108.5t66 -180.5q0 -147 -112 -233.5t-300 -86.5z" />
    <glyph glyph-name="uni0438" unicode="&#x438;" 
d="M219 0v1085h98v-948l566 948h129v-1085h-99v948l-567 -948h-127z" />
    <glyph glyph-name="uni0439" unicode="&#x439;" 
d="M614 1255q-113 0 -182.5 66t-81.5 180h76q10 -82 60 -124t128 -42q79 0 130 42.5t61 123.5h76q-12 -113 -83 -179.5t-184 -66.5zM219 0v1085h98v-948l566 948h129v-1085h-99v948l-567 -948h-127z" />
    <glyph glyph-name="uni043A" unicode="&#x43a;" 
d="M219 0v1085h100v-534l596 534h148l-614 -542l636 -543h-149l-617 535v-535h-100z" />
    <glyph glyph-name="uni043B" unicode="&#x43b;" 
d="M94 0v98h82q56 0 95 51.5t46 135.5l78 800h670v-1085h-98v993h-484l-67 -698q-12 -140 -73 -217.5t-159 -77.5h-90z" />
    <glyph glyph-name="uni043C" unicode="&#x43c;" 
d="M88 0l6 1085h127l400 -966l397 966h125v-1085h-99v881l-366 -881h-117l-371 883l-4 -883h-98z" />
    <glyph glyph-name="uni043D" unicode="&#x43d;" 
d="M213 0v1085h98v-499h607v499h98v-1085h-98v496h-607v-496h-98z" />
    <glyph glyph-name="uni043E" unicode="&#x43e;" 
d="M614 -25q-216 0 -342.5 153.5t-126.5 414.5t126 414t343 153t343 -153t126 -414t-126.5 -414.5t-342.5 -153.5zM614 72q171 0 268 126t97 345t-97 345t-268 126t-267.5 -126t-96.5 -345t96.5 -345t267.5 -126z" />
    <glyph glyph-name="uni043F" unicode="&#x43f;" 
d="M211 0v1085h807v-1085h-98v993h-611v-993h-98z" />
    <glyph glyph-name="uni0440" unicode="&#x440;" 
d="M178 -307v1392h88l4 -245q47 129 144.5 199.5t226.5 70.5q213 0 332 -156t119 -411t-118.5 -411.5t-330.5 -156.5q-123 0 -224.5 72.5t-142.5 179.5v-534h-98zM637 72q163 0 257.5 126t94.5 345t-95 345t-259 126q-160 0 -259.5 -130.5t-99.5 -340.5t100.5 -340.5
t260.5 -130.5z" />
    <glyph glyph-name="uni0441" unicode="&#x441;" 
d="M645 -25q-112 0 -203 44t-150 120.5t-90.5 180t-31.5 223.5q0 162 53.5 288.5t163 202.5t258.5 76q167 0 277.5 -99.5t150.5 -267.5l-104 -8q-32 133 -116 206t-208 73q-172 0 -271.5 -126.5t-99.5 -344.5t99.5 -344.5t271.5 -126.5q125 0 213 78.5t117 220.5l104 -9
q-38 -175 -152 -281t-282 -106z" />
    <glyph glyph-name="uni0442" unicode="&#x442;" 
d="M565 0v993h-401v92h903v-92h-403v-993h-99z" />
    <glyph glyph-name="uni0443" unicode="&#x443;" 
d="M289 -307v88h96q77 0 114 26t62 95l45 118h-41l-422 1065h107l383 -985l356 985h107l-451 -1218q-36 -95 -92 -134.5t-162 -39.5h-102z" />
    <glyph glyph-name="uni0444" unicode="&#x444;" 
d="M565 -307v360q-225 14 -358 147.5t-133 348.5t133 348t358 147v410h103v-410q223 -15 354 -148.5t131 -346.5q0 -214 -131 -347.5t-354 -148.5v-360h-103zM180 549q0 -171 103 -277t282 -120v794q-179 -14 -282 -120t-103 -277zM1049 549q0 170 -102 277t-279 120v-794
q177 13 279 120t102 277z" />
    <glyph glyph-name="uni0445" unicode="&#x445;" 
d="M150 0l403 549l-387 536h115l333 -473l332 473h119l-387 -538l401 -547h-114l-347 485l-352 -485h-116z" />
    <glyph glyph-name="uni0446" unicode="&#x446;" 
d="M1014 -307v307h-803v1085h98v-993h611v993h98v-993h94v-399h-98z" />
    <glyph glyph-name="uni0447" unicode="&#x447;" 
d="M920 0v580q-32 -110 -139.5 -183t-235.5 -73q-172 0 -273.5 120t-101.5 324v317h98v-317q0 -159 75.5 -253.5t201.5 -94.5q160 0 267.5 103t107.5 265v297h98v-1085h-98z" />
    <glyph glyph-name="uni0448" unicode="&#x448;" 
d="M143 0v1085h99v-993h323v993h99v-993h323v993h98v-1085h-942z" />
    <glyph glyph-name="uni0449" unicode="&#x449;" 
d="M143 0v1085h99v-993h323v993h99v-993h323v993h98v-993h82v-399h-98v307h-926z" />
    <glyph glyph-name="uni044A" unicode="&#x44a;" 
d="M272 0v993h-190v92h289v-413h307q229 0 352 -86.5t123 -249.5q0 -161 -123 -248.5t-352 -87.5h-406zM371 94h307q180 0 275.5 62.5t95.5 179.5q0 120 -95.5 183t-275.5 63h-307v-488z" />
    <glyph glyph-name="uni044B" unicode="&#x44b;" 
d="M86 0v1085h98v-413h238q227 0 344 -86t117 -250q0 -163 -117 -249.5t-344 -86.5h-336zM1044 0v1085h99v-1085h-99zM184 94h238q173 0 265.5 62.5t92.5 179.5q0 120 -92 183t-266 63h-238v-488z" />
    <glyph glyph-name="uni044C" unicode="&#x44c;" 
d="M193 0v1085h98v-413h307q229 0 352 -86.5t123 -249.5q0 -161 -123 -248.5t-352 -87.5h-405zM291 94h307q181 0 277 62.5t96 179.5q0 120 -95.5 183t-277.5 63h-307v-488z" />
    <glyph glyph-name="uni044D" unicode="&#x44d;" 
d="M606 -25q-174 0 -292.5 101t-159.5 282h106q35 -136 125.5 -211t220.5 -75q163 0 260.5 113t108.5 313h-391v90h391q-11 200 -108.5 313t-260.5 113q-131 0 -221.5 -76.5t-126.5 -214.5h-106q40 181 159 284t295 103q217 0 345 -153t128 -414t-128 -414.5t-345 -153.5z
" />
    <glyph glyph-name="uni044E" unicode="&#x44e;" 
d="M55 0v1085h99v-497h145q11 235 123 378.5t309 143.5q141 0 240.5 -74.5t147.5 -200.5t48 -292t-48 -292t-147.5 -201t-240.5 -75q-132 0 -228 68t-146.5 184.5t-57.5 270.5h-145v-498h-99zM731 72q155 0 243.5 125.5t88.5 345.5t-88.5 345.5t-243.5 125.5
q-154 0 -242 -125.5t-88 -345.5t88 -345.5t242 -125.5z" />
    <glyph glyph-name="uni044F" unicode="&#x44f;" 
d="M178 0l260 442q-118 40 -180.5 121.5t-62.5 194.5q0 158 105 242.5t302 84.5h402v-1085h-99v420h-364l-248 -420h-115zM602 512h303v483h-303q-148 0 -226.5 -62t-78.5 -179t78.5 -179.5t226.5 -62.5z" />
    <glyph glyph-name="uni0450" unicode="&#x450;" 
d="M590 1241l-170 246h110l144 -246h-84zM635 -25q-151 0 -261.5 76t-165 203t-54.5 289q0 161 53.5 288t162.5 203t257 76q147 0 253.5 -73.5t159 -199t52.5 -286.5v-33h-834q4 -210 105.5 -328t271.5 -118q127 0 212 62t118 171l106 -8q-43 -144 -158 -233t-278 -89z
M258 606h727q-9 193 -102.5 300.5t-255.5 107.5q-158 0 -257 -108t-112 -300z" />
    <glyph glyph-name="uni0451" unicode="&#x451;" 
d="M391 1274v164h107v-164h-107zM750 1274v164h106v-164h-106zM635 -25q-151 0 -261.5 76t-165 203t-54.5 289q0 161 53.5 288t162.5 203t257 76q147 0 253.5 -73.5t159 -199t52.5 -286.5v-33h-834q4 -210 105.5 -328t271.5 -118q127 0 212 62t118 171l106 -8
q-43 -144 -158 -233t-278 -89zM258 606h727q-9 193 -102.5 300.5t-255.5 107.5q-158 0 -257 -108t-112 -300z" />
    <glyph glyph-name="uni0452" unicode="&#x452;" 
d="M236 0v1227h-185v90h185v137h98v-137h223v-90h-223v-344q35 113 131 170t225 57q169 0 265 -114.5t96 -297.5v-704q0 -156 -63 -228.5t-200 -72.5h-69v88h63q97 0 133.5 47.5t36.5 165.5v651q0 176 -69 272.5t-215 96.5q-155 0 -244.5 -100t-89.5 -269v-645h-98z" />
    <glyph glyph-name="uni0453" unicode="&#x453;" 
d="M637 1243l143 246h111l-170 -246h-84zM332 0v1085h706v-92h-608v-993h-98z" />
    <glyph glyph-name="uni0454" unicode="&#x454;" 
d="M623 -25q-217 0 -345 153.5t-128 414.5t128 414t345 153q176 0 295 -103t159 -284h-106q-36 138 -126.5 214.5t-221.5 76.5q-163 0 -260.5 -113t-108.5 -313h391v-90h-391q11 -200 108.5 -313t260.5 -113q130 0 220.5 75t125.5 211h106q-41 -181 -159.5 -282t-292.5 -101
z" />
    <glyph glyph-name="uni0455" unicode="&#x455;" 
d="M637 -25q-205 0 -327.5 99t-131.5 252l103 10q9 -122 102.5 -193t253.5 -71q311 0 311 196q0 36 -7 61t-28 49.5t-59.5 42.5t-100 34.5t-151.5 31.5q-155 26 -241.5 67.5t-118 97t-31.5 141.5q0 143 105 230t286 87t288 -92.5t134 -237.5l-102 -12q-19 107 -100 176.5
t-220 69.5q-137 0 -213 -59t-76 -162q0 -99 66.5 -144.5t253.5 -73.5q162 -25 253.5 -65t128 -96t36.5 -142q0 -142 -109.5 -219.5t-304.5 -77.5z" />
    <glyph glyph-name="uni0456" unicode="&#x456;" 
d="M629 1276v162h106v-162h-106zM190 0v88h447v909h-426v88h524v-997h385v-88h-930z" />
    <glyph glyph-name="uni0457" unicode="&#x457;" 
d="M449 1276v162h106v-162h-106zM807 1276v162h106v-162h-106zM190 0v88h447v909h-426v88h524v-997h385v-88h-930z" />
    <glyph glyph-name="uni0458" unicode="&#x458;" 
d="M766 1276v162h106v-162h-106zM252 -307v88h315q106 0 157.5 53t51.5 170v993h-516v88h614v-1085q0 -155 -73.5 -231t-227.5 -76h-321z" />
    <glyph glyph-name="uni0459" unicode="&#x459;" 
d="M16 0v98h50q56 0 95 51.5t46 135.5l78 800h420v-413h106q194 0 297.5 -86.5t103.5 -249.5q0 -161 -104 -248.5t-297 -87.5h-205v993h-233l-68 -698q-12 -140 -72.5 -217.5t-158.5 -77.5h-58zM705 94h106q142 0 219.5 63t77.5 179q0 118 -77 182t-220 64h-106v-488z" />
    <glyph glyph-name="uni045A" unicode="&#x45a;" 
d="M76 0v1085h98v-413h397v413h99v-413h108q192 0 296 -87t104 -249q0 -161 -104 -248.5t-296 -87.5h-207v582h-397v-582h-98zM670 94h108q141 0 218 63t77 179q0 118 -77 182t-218 64h-108v-488z" />
    <glyph glyph-name="uni045B" unicode="&#x45b;" 
d="M231 0v1223h-151v82h151v149h99v-149h309v-82h-309v-353q34 117 131 178.5t227 61.5q116 0 198.5 -55t121.5 -146.5t39 -210.5v-698h-99v649q0 369 -284 369q-154 0 -244 -101t-90 -268v-649h-99z" />
    <glyph glyph-name="uni045C" unicode="&#x45c;" 
d="M561 1243l144 246h110l-172 -246h-82zM219 0v1085h100v-534l596 534h148l-614 -542l636 -543h-149l-617 535v-535h-100z" />
    <glyph glyph-name="uni045D" unicode="&#x45d;" 
d="M580 1243l-170 246h110l144 -246h-84zM219 0v1085h98v-948l566 948h129v-1085h-99v948l-567 -948h-127z" />
    <glyph glyph-name="uni045E" unicode="&#x45e;" 
d="M631 1255q-113 0 -183.5 66t-82.5 180h75q10 -81 61 -123.5t130 -42.5q78 0 128 42t60 124h76q-12 -114 -81.5 -180t-182.5 -66zM289 -307v88h96q77 0 114 26t62 95l45 118h-41l-422 1065h107l383 -985l356 985h107l-451 -1218q-36 -95 -92 -134.5t-162 -39.5h-102z" />
    <glyph glyph-name="uni045F" unicode="&#x45f;" 
d="M565 -307v307h-354v1085h98v-993h611v993h98v-1085h-354v-307h-99z" />
    <glyph glyph-name="uni0462" unicode="&#x462;" 
d="M33 1112v98h209v244h102v-244h330v-98h-330v-262h309q226 0 358 -111.5t132 -310.5q0 -200 -132 -314t-358 -114h-411v1112h-209zM344 752v-654h297q191 0 292 84.5t101 245.5q0 160 -100.5 242t-292.5 82h-297z" />
    <glyph glyph-name="uni0463" unicode="&#x463;" 
d="M295 0v1085h-240v99h240v270h98v-270h242v-99h-242v-358h307q229 0 352.5 -95t123.5 -270t-123.5 -268.5t-352.5 -93.5h-405zM393 94h307q179 0 275 69.5t96 198.5q0 131 -96.5 202t-274.5 71h-307v-541z" />
    <glyph glyph-name="uni046A" unicode="&#x46a;" 
d="M8 0l234 590q69 180 229 180h35l-365 586v98h946v-98l-364 -586h35q158 0 227 -180l236 -590h-111l-201 518q-33 85 -71.5 119.5t-96.5 34.5h-75v-672h-103v672h-76q-59 0 -98 -34.5t-72 -119.5l-198 -518h-111zM256 1356l358 -574l359 574h-717z" />
    <glyph glyph-name="uni046B" unicode="&#x46b;" 
d="M29 0l186 420q31 72 99 109.5t155 37.5h31l-385 426v92h1001v-92l-385 -426h29q88 0 155.5 -37.5t100.5 -109.5l186 -420h-110l-154 362q-27 62 -72.5 88.5t-117.5 26.5h-82v-477h-101v477h-82q-72 0 -118.5 -26.5t-73.5 -88.5l-152 -362h-110zM238 993l378 -420l379 420
h-757z" />
    <glyph glyph-name="uni0472" unicode="&#x472;" 
d="M614 -33q-245 0 -383.5 202t-138.5 556q0 357 138 559.5t384 202.5t384.5 -202.5t138.5 -559.5q0 -354 -139 -556t-384 -202zM553 805q185 -77 243 -93t128 -10q46 2 106 23q0 312 -108.5 486.5t-307.5 174.5q-177 0 -283 -141t-126 -397q24 6 55 6q62 6 144 -8t149 -41z
M614 68q180 0 286.5 144t125.5 404q-51 -13 -94 -16q-65 -5 -132.5 12t-238.5 86q-167 66 -291 54q-14 -1 -71 -11v-16q0 -311 108.5 -484t306.5 -173z" />
    <glyph glyph-name="uni0473" unicode="&#x473;" 
d="M614 -25q-216 0 -342.5 153.5t-126.5 414.5t126 414t343 153t343 -153t126 -414t-126.5 -414.5t-342.5 -153.5zM549 604q175 -63 230.5 -75.5t121.5 -4.5q39 5 78 21q-2 219 -98.5 344t-266.5 125q-151 0 -245.5 -99.5t-114.5 -277.5q10 0 16 2q60 6 138 -3t141 -32z
M614 72q152 0 245.5 98t113.5 276q-26 -9 -60 -12q-62 -6 -126.5 6.5t-225.5 69.5q-149 54 -276 37q-20 0 -35 -6q2 -219 97.5 -344t266.5 -125z" />
    <glyph glyph-name="uni0474" unicode="&#x474;" 
d="M512 0l-475 1454h110l420 -1302l359 1112q31 93 87 141.5t132 48.5h67v-98h-36q-57 0 -94 -33t-62 -106l-399 -1217h-109z" />
    <glyph glyph-name="uni0475" unicode="&#x475;" 
d="M506 0l-402 1085h105l360 -983l283 777q74 206 274 206h35v-92h-24q-72 0 -118.5 -37t-78.5 -122l-309 -834h-125z" />
    <glyph glyph-name="uni0490" unicode="&#x490;" 
d="M213 0v1454h825v318h103v-416h-826v-1356h-102z" />
    <glyph glyph-name="uni0491" unicode="&#x491;" 
d="M332 0v1085h606v318h100v-410h-608v-993h-98z" />
    <glyph glyph-name="uni0492" unicode="&#x492;" 
d="M213 0v623h-152v98h152v733h907v-98h-805v-635h537v-98h-537v-623h-102z" />
    <glyph glyph-name="uni0493" unicode="&#x493;" 
d="M391 0v518h-248v92h248v475h707v-92h-609v-383h252v-92h-252v-518h-98z" />
    <glyph glyph-name="uni0496" unicode="&#x496;" 
d="M18 0l441 727l-420 727h113l403 -704v704h102v-704l404 704h113l-420 -727l381 -631h75v-403h-102v307h-27l-424 705v-705h-102v705l-424 -705h-113z" />
    <glyph glyph-name="uni0497" unicode="&#x497;" 
d="M29 0l426 543l-410 542h119l401 -532v532h99v-532l401 532h119l-410 -542l348 -443h84v-407h-98v307h-27l-417 532v-532h-99v532l-418 -532h-118z" />
    <glyph glyph-name="uni049A" unicode="&#x49a;" 
d="M143 0v1454h103v-713l706 713h133l-720 -727l665 -631h117v-403h-103v307h-47l-751 713v-713h-103z" />
    <glyph glyph-name="uni049B" unicode="&#x49b;" 
d="M219 0v1085h98v-534l598 534h146l-612 -542l520 -443h118v-407h-98v307h-53l-619 535v-535h-98z" />
    <glyph glyph-name="uni04A2" unicode="&#x4a2;" 
d="M139 0v1454h103v-663h725v663h102v-1358h72v-403h-103v307h-71v692h-725v-692h-103z" />
    <glyph glyph-name="uni04A3" unicode="&#x4a3;" 
d="M213 0v1085h98v-499h607v499h98v-985h88v-407h-98v307h-88v496h-607v-496h-98z" />
    <glyph glyph-name="uni04AE" unicode="&#x4ae;" 
d="M563 0v594l-467 860h119l399 -754l400 754h119l-467 -860v-594h-103z" />
    <glyph glyph-name="uni04AF" unicode="&#x4af;" 
d="M565 0l-428 1085h105l372 -962l373 962h105l-428 -1085v-307h-99v307z" />
    <glyph glyph-name="uni04B0" unicode="&#x4b0;" 
d="M563 0v543h-356v98h330l-443 813h119l401 -754l400 754h119l-443 -813h330v-98h-354v-543h-103z" />
    <glyph glyph-name="uni04B1" unicode="&#x4b1;" 
d="M301 -45v90h246l-410 1040h105l372 -962l373 962h105l-410 -1040h244v-90h-262v-262h-99v262h-264z" />
    <glyph glyph-name="uni04B2" unicode="&#x4b2;" 
d="M117 0l432 735l-420 719h119l370 -643l365 643h117l-418 -725l373 -633h88v-403h-103v307h-45l-383 655l-381 -655h-114z" />
    <glyph glyph-name="uni04B3" unicode="&#x4b3;" 
d="M150 0l403 549l-387 536h115l333 -473l332 473h119l-387 -538l330 -447h92v-407h-99v307h-36l-347 485l-352 -485h-116z" />
    <glyph glyph-name="uni04B6" unicode="&#x4b6;" 
d="M946 0v733q-39 -107 -156.5 -176.5t-265.5 -69.5q-197 0 -307.5 117.5t-110.5 327.5v522h103v-522q0 -164 83.5 -254t231.5 -90q185 0 303.5 101.5t118.5 262.5v502h103v-1358h90v-403h-103v307h-90z" />
    <glyph glyph-name="uni04B7" unicode="&#x4b7;" 
d="M920 0v580q-32 -110 -139.5 -183t-235.5 -73q-172 0 -273.5 120t-101.5 324v317h98v-317q0 -159 75.5 -253.5t201.5 -94.5q160 0 267.5 103t107.5 265v297h98v-985h88v-407h-98v307h-88z" />
    <glyph glyph-name="uni04BA" unicode="&#x4ba;" 
d="M272 1454v-733q39 107 156.5 176.5t265.5 69.5q197 0 307.5 -117.5t110.5 -327.5v-522h-102v522q0 163 -83.5 253.5t-232.5 90.5q-185 0 -303.5 -101.5t-118.5 -262.5v-502h-102v1454h102z" />
    <glyph glyph-name="uni04BB" unicode="&#x4bb;" 
d="M231 0v1454h99v-584q34 117 131 178.5t227 61.5q116 0 198.5 -55t121.5 -146.5t39 -210.5v-698h-99v649q0 369 -284 369q-154 0 -244 -101t-90 -268v-649h-99z" />
    <glyph glyph-name="uni04C0" unicode="&#x4c0;" 
d="M178 0v98h385v1258h-385v98h873v-98h-385v-1258h385v-98h-873z" />
    <glyph glyph-name="uni04CF" unicode="&#x4cf;" 
d="M178 0v98h385v1258h-385v98h873v-98h-385v-1258h385v-98h-873z" />
    <glyph glyph-name="uni04D8" unicode="&#x4d8;" 
d="M621 -31q-160 0 -280.5 95t-184.5 265.5t-64 391.5v43h957q-3 277 -121.5 449.5t-311.5 172.5q-128 0 -232 -97t-157 -263l-110 8q62 209 195 331t302 122q248 0 394.5 -206.5t146.5 -551.5q0 -347 -147.5 -553.5t-386.5 -206.5zM621 70q185 0 302 161t124 435h-846
q9 -269 123 -432.5t297 -163.5z" />
    <glyph glyph-name="uni04D9" unicode="&#x4d9;" 
d="M594 1110q151 0 261.5 -76t165 -202.5t54.5 -288.5q0 -161 -53.5 -288.5t-162.5 -203.5t-257 -76q-219 0 -342 156.5t-123 403.5v32h834q-4 211 -105.5 329t-271.5 118q-127 0 -212 -62.5t-118 -171.5l-106 8q43 144 158 233t278 89zM971 479h-727q9 -193 102.5 -300
t255.5 -107q158 0 257 107.5t112 299.5z" />
    <glyph glyph-name="uni04E2" unicode="&#x4e2;" 
d="M342 1675v86h522v-86h-522zM1071 0h-102v1346l-664 -1346h-147v1454h102v-1345l664 1345h147v-1454z" />
    <glyph glyph-name="uni04E3" unicode="&#x4e3;" 
d="M354 1307v86h520v-86h-520zM219 0v1085h98v-948l566 948h129v-1085h-99v948l-567 -948h-127z" />
    <glyph glyph-name="uni04E8" unicode="&#x4e8;" 
d="M614 -33q-245 0 -383.5 202t-138.5 556q0 357 138 559.5t384 202.5t384.5 -202.5t138.5 -559.5q0 -354 -139 -556t-384 -202zM614 1386q-189 0 -296.5 -161t-116.5 -449h827q-9 288 -116.5 449t-297.5 161zM614 68q191 0 298.5 160.5t115.5 449.5h-827q8 -289 115 -449.5
t298 -160.5z" />
    <glyph glyph-name="uni04E9" unicode="&#x4e9;" 
d="M614 -25q-216 0 -342.5 153.5t-126.5 414.5t126 414t343 153t343 -153t126 -414t-126.5 -414.5t-342.5 -153.5zM614 1014q-162 0 -257.5 -113t-104.5 -313h725q-9 200 -105 313t-258 113zM614 72q162 0 258 113t105 313h-725q9 -200 104.5 -313t257.5 -113z" />
    <glyph glyph-name="uni04EE" unicode="&#x4ee;" 
d="M371 1675v86h522v-86h-522zM283 0v98h96q63 0 101.5 31t66.5 104l57 156h-47l-416 1065h111l381 -981l358 981h111l-471 -1274q-33 -93 -94 -136.5t-154 -43.5h-100z" />
    <glyph glyph-name="uni04EF" unicode="&#x4ef;" 
d="M369 1307v86h522v-86h-522zM289 -307v88h96q77 0 114 26t62 95l45 118h-41l-422 1065h107l383 -985l356 985h107l-451 -1218q-36 -95 -92 -134.5t-162 -39.5h-102z" />
    <glyph glyph-name="uni0E3F" unicode="&#xe3f;" 
d="M152 0v1454h325v195h88v-195q222 -6 337.5 -107.5t115.5 -283.5q0 -125 -75.5 -214t-199.5 -112q157 -19 245.5 -110t88.5 -234q0 -188 -122.5 -290.5t-350.5 -102.5h-39v-186h-88v186h-325zM254 778h223v580h-223v-580zM909 1061q0 139 -86.5 216t-257.5 81v-580
q162 0 253 74.5t91 208.5zM254 96h223v586h-223v-586zM602 682h-37v-586h37q184 0 276.5 76.5t92.5 220.5q0 134 -99 211.5t-270 77.5z" />
    <glyph glyph-name="uni1E20" unicode="&#x1e20;" 
d="M344 1675v86h522v-86h-522zM612 -33q-239 0 -379.5 201t-140.5 557q0 228 64 400.5t183 267t277 94.5q192 0 317 -120.5t175 -344.5l-109 -8q-83 372 -383 372q-189 0 -303 -181t-114 -480q0 -305 113.5 -481t308.5 -176q172 0 282.5 149t116.5 385h-397v94h493v-696h-94
l-2 303q-49 -156 -154 -246t-254 -90z" />
    <glyph glyph-name="uni1E21" unicode="&#x1e21;" 
d="M340 1307v86h520v-86h-520zM602 -332q-171 0 -288 89t-132 229l105 8q12 -107 93.5 -168.5t221.5 -61.5q167 0 258.5 87t91.5 249v199q-47 -113 -140.5 -179.5t-217.5 -66.5q-207 0 -332 145t-125 386q0 236 124.5 381t328.5 145q129 0 226.5 -70.5t139.5 -185.5v231h95
v-985q0 -202 -119.5 -317t-329.5 -115zM596 150q162 0 259 117.5t97 316.5q2 190 -97 310t-259 120q-164 0 -260 -116.5t-96 -313.5q0 -199 96.5 -316.5t259.5 -117.5z" />
    <glyph glyph-name="Wgrave" unicode="&#x1e80;" 
d="M580 1612l-172 246h110l144 -246h-82zM270 0l-194 1454h104l176 -1348l203 1184h111l202 -1184l177 1348h104l-195 -1454h-151l-193 1116l-192 -1116h-152z" />
    <glyph glyph-name="wgrave" unicode="&#x1e81;" 
d="M580 1243l-172 246h110l144 -246h-82zM303 0l-248 1085h107l205 -985l198 840h99l198 -840l205 985h107l-248 -1085h-121l-191 793l-190 -793h-121z" />
    <glyph glyph-name="Wacute" unicode="&#x1e82;" 
d="M567 1612l144 246h110l-172 -246h-82zM270 0l-194 1454h104l176 -1348l203 1184h111l202 -1184l177 1348h104l-195 -1454h-151l-193 1116l-192 -1116h-152z" />
    <glyph glyph-name="wacute" unicode="&#x1e83;" 
d="M567 1243l144 246h110l-172 -246h-82zM303 0l-248 1085h107l205 -985l198 840h99l198 -840l205 985h107l-248 -1085h-121l-191 793l-190 -793h-121z" />
    <glyph glyph-name="Wdieresis" unicode="&#x1e84;" 
d="M381 1645v161h106v-161h-106zM739 1645v161h107v-161h-107zM270 0l-194 1454h104l176 -1348l203 1184h111l202 -1184l177 1348h104l-195 -1454h-151l-193 1116l-192 -1116h-152z" />
    <glyph glyph-name="wdieresis" unicode="&#x1e85;" 
d="M381 1276v162h106v-162h-106zM739 1276v162h107v-162h-107zM303 0l-248 1085h107l205 -985l198 840h99l198 -840l205 985h107l-248 -1085h-121l-191 793l-190 -793h-121z" />
    <glyph glyph-name="uni1E9E" unicode="&#x1e9e;" 
d="M100 0v1065q0 389 373 389h600v-121l-530 -485q294 2 454 -106.5t160 -309.5q0 -191 -139 -311.5t-363 -120.5h-274v98h274q177 0 286.5 92t109.5 240q0 328 -519 328h-104v98l526 500h-477q-146 0 -210 -69t-64 -222v-1065h-103z" />
    <glyph glyph-name="uni1EBC" unicode="&#x1ebc;" 
d="M760 1647q-72 0 -135 63q-30 30 -53 42.5t-56 12.5q-92 0 -98 -131h-72q6 95 52 148t118 53q46 0 79.5 -17.5t70.5 -52.5q52 -49 98 -49q39 0 60.5 32t27.5 107h72q-6 -98 -49 -153t-115 -55zM199 0v1454h856v-98h-754v-582h729v-96h-729v-580h770v-98h-872z" />
    <glyph glyph-name="uni1EBD" unicode="&#x1ebd;" 
d="M752 1276q-73 0 -136 63q-33 31 -55 43.5t-55 12.5q-92 0 -98 -131h-70q4 95 50 147.5t118 52.5q79 0 151 -69q52 -49 97 -49q40 0 61 32t27 107h71q-6 -99 -48 -154t-113 -55zM635 -25q-151 0 -261.5 76t-165 203t-54.5 289q0 161 53.5 288t162.5 203t257 76
q147 0 253.5 -73.5t159 -199t52.5 -286.5v-33h-834q4 -210 105.5 -328t271.5 -118q127 0 212 62t118 171l106 -8q-43 -144 -158 -233t-278 -89zM258 606h727q-9 193 -102.5 300.5t-255.5 107.5q-158 0 -257 -108t-112 -300z" />
    <glyph glyph-name="Ygrave" unicode="&#x1ef2;" 
d="M580 1612l-172 246h110l144 -246h-82zM563 0v594l-467 860h119l399 -754l400 754h119l-467 -860v-594h-103z" />
    <glyph glyph-name="ygrave" unicode="&#x1ef3;" 
d="M594 1243l-170 246h111l143 -246h-84zM289 -307v88h96q77 0 114 26t62 95l45 118h-41l-422 1065h107l383 -985l356 985h107l-451 -1218q-36 -95 -92 -134.5t-162 -39.5h-102z" />
    <glyph glyph-name="uni1EF8" unicode="&#x1ef8;" 
d="M739 1645q-70 0 -135 65q-30 30 -52.5 42.5t-55.5 12.5q-93 0 -99 -131h-71q6 95 52 148t118 53q46 0 79.5 -18t69.5 -54q55 -49 98 -49q39 0 60.5 32t27.5 107h72q-6 -98 -49 -153t-115 -55zM563 0v594l-467 860h119l399 -754l400 754h119l-467 -860v-594h-103z" />
    <glyph glyph-name="uni1EF9" unicode="&#x1ef9;" 
d="M756 1276q-70 0 -135 65q-30 30 -53.5 43t-55.5 13q-92 0 -98 -131h-72q4 95 51 147.5t119 52.5q46 0 80 -17.5t70 -53.5q30 -27 51 -38t45 -11q41 0 62.5 32t27.5 107h70q-6 -99 -48 -154t-114 -55zM289 -307v88h96q77 0 114 26t62 95l45 118h-41l-422 1065h107
l383 -985l356 985h107l-451 -1218q-36 -95 -92 -134.5t-162 -39.5h-102z" />
    <glyph glyph-name="endash" unicode="&#x2013;" 
d="M219 537v94h791v-94h-791z" />
    <glyph glyph-name="emdash" unicode="&#x2014;" 
d="M41 537v94h1147v-94h-1147z" />
    <glyph glyph-name="quoteleft" unicode="&#x2018;" 
d="M709 1487l-86 -279h100v-192h-193v172l111 299h68z" />
    <glyph glyph-name="quoteright" unicode="&#x2019;" 
d="M520 985l86 277h-100v192h192v-172l-110 -297h-68z" />
    <glyph glyph-name="quotesinglbase" unicode="&#x201a;" 
d="M532 -276l86 276h-100v193h193v-173l-111 -296h-68z" />
    <glyph glyph-name="quotedblleft" unicode="&#x201c;" 
d="M874 1487l-86 -277h99v-192h-191v172l111 297h67zM520 1487l-88 -277h100v-192h-190v172l109 297h69z" />
    <glyph glyph-name="quotedblright" unicode="&#x201d;" 
d="M354 985l86 277h-98v192h190v-172l-110 -297h-68zM709 985l88 277h-101v192h191v-172l-109 -297h-69z" />
    <glyph glyph-name="quotedblbase" unicode="&#x201e;" 
d="M354 -276l86 276h-98v193h190v-173l-110 -296h-68zM709 -276l88 276h-101v193h191v-173l-109 -296h-69z" />
    <glyph glyph-name="dagger" unicode="&#x2020;" 
d="M565 0v993h-334v92h334v369h99v-369h333v-92h-333v-993h-99z" />
    <glyph glyph-name="daggerdbl" unicode="&#x2021;" 
d="M233 358v95h332v540h-332v92h332v369h99v-369h329v-92h-329v-540h329v-95h-329v-358h-99v358h-332z" />
    <glyph glyph-name="bullet" unicode="&#x2022;" 
d="M614 467q-65 0 -109 43t-44 106q0 64 44 108t109 44t109.5 -44t44.5 -108q0 -63 -44.5 -106t-109.5 -43z" />
    <glyph glyph-name="ellipsis" unicode="&#x2026;" 
d="M129 0v193h195v-193h-195zM516 0v193h193v-193h-193zM905 0v193h195v-193h-195z" />
    <glyph glyph-name="perthousand" unicode="&#x2030;" 
d="M260 793q-119 0 -189.5 90.5t-70.5 249.5q0 158 70.5 247.5t189.5 89.5t190.5 -89.5t71.5 -247.5q0 -159 -71.5 -249.5t-190.5 -90.5zM0 0l821 1454h88l-821 -1454h-88zM260 874q84 0 128 66t44 193q0 126 -44.5 192t-127.5 66q-82 0 -126 -66t-44 -192q0 -127 44 -193
t126 -66zM616 -16q-99 0 -163 91t-64 247q0 157 64 248.5t163 91.5q60 0 110.5 -36t82.5 -102q32 66 82 102t110 36q100 0 164 -91.5t64 -248.5q0 -156 -64.5 -247t-163.5 -91q-60 0 -110 35.5t-82 101.5q-32 -66 -82.5 -101.5t-110.5 -35.5zM623 63q65 0 104 64t39 195
q0 127 -39.5 192.5t-103.5 65.5q-65 0 -104.5 -65.5t-39.5 -192.5q0 -130 39.5 -194.5t104.5 -64.5zM995 63q65 0 104.5 64.5t39.5 194.5q0 127 -39.5 192.5t-104.5 65.5q-64 0 -103.5 -65.5t-39.5 -192.5q0 -131 39 -195t104 -64z" />
    <glyph glyph-name="minute" unicode="&#x2032;" 
d="M520 977l88 477h103l-101 -477h-90z" />
    <glyph glyph-name="second" unicode="&#x2033;" 
d="M420 977l90 477h100l-100 -477h-90zM618 977l89 477h102l-100 -477h-91z" />
    <glyph glyph-name="guilsinglleft" unicode="&#x2039;" 
d="M829 156h-124l-306 364v90l306 365h124l-346 -410z" />
    <glyph glyph-name="guilsinglright" unicode="&#x203a;" 
d="M399 156l346 409l-346 410h125l305 -365v-90l-305 -364h-125z" />
    <glyph glyph-name="fraction" unicode="&#x2044;" 
d="M745 944l265 510h96l-262 -510h-99zM123 0l262 508h98l-264 -508h-96z" />
    <glyph glyph-name="uni2070" unicode="&#x2070;" 
d="M614 645q-141 0 -224 111t-83 303q0 193 82 302t225 109t225.5 -109t82.5 -302q0 -191 -83.5 -302.5t-224.5 -111.5zM393 1059q0 -135 43 -217l312 499q-54 54 -134 54q-104 0 -162.5 -88.5t-58.5 -247.5zM614 721q103 0 162.5 89.5t59.5 248.5q0 137 -43 219l-312 -500
q54 -57 133 -57z" />
    <glyph glyph-name="uni2074" unicode="&#x2074;" 
d="M702 662v190h-383v66l388 536h79v-526h125v-76h-125v-190h-84zM412 928h290v405z" />
    <glyph glyph-name="uni2075" unicode="&#x2075;" 
d="M608 645q-116 0 -186 56t-82 153l88 6q16 -137 182 -137q88 0 141.5 53t53.5 142t-47 140.5t-131 51.5q-130 0 -193 -117h-84l56 461h436v-78h-363l-37 -286q22 43 74 69.5t121 26.5q119 0 186.5 -73t67.5 -195t-78 -197.5t-205 -75.5z" />
    <glyph glyph-name="uni2076" unicode="&#x2076;" 
d="M618 645q-135 0 -210.5 93.5t-75.5 275.5q0 205 80 330.5t229 125.5q102 0 163 -47.5t87 -146.5l-80 -8q-17 65 -58 96t-112 31q-100 0 -159.5 -88t-63.5 -244q28 61 83.5 96t129.5 35q117 0 191.5 -72.5t74.5 -195.5q0 -128 -77 -204.5t-202 -76.5zM621 721
q86 0 139 56.5t53 150.5q0 87 -51 139.5t-137 52.5q-84 0 -142.5 -56.5t-58.5 -141.5q0 -90 54.5 -145.5t142.5 -55.5z" />
    <glyph glyph-name="uni2077" unicode="&#x2077;" 
d="M522 662q0 177 71 366t189 348h-424v78h512v-68q-120 -161 -190 -348.5t-70 -375.5h-88z" />
    <glyph glyph-name="uni2078" unicode="&#x2078;" 
d="M614 645q-137 0 -213.5 57t-76.5 170q0 83 46 138.5t126 81.5q-134 45 -134 174q0 99 62.5 151.5t189.5 52.5t189.5 -52.5t62.5 -151.5q0 -129 -133 -174q80 -26 126 -81.5t46 -138.5q0 -113 -77 -170t-214 -57zM614 1130q76 0 121 33.5t45 98.5t-39.5 98t-126.5 33
t-126 -33t-39 -98t44.5 -98.5t120.5 -33.5zM614 723q205 0 205 154q0 78 -56.5 127t-148.5 49t-148 -49t-56 -127q0 -154 204 -154z" />
    <glyph glyph-name="uni2079" unicode="&#x2079;" 
d="M610 1470q135 0 211 -93t76 -275q0 -205 -80 -331t-229 -126q-102 0 -163 48t-87 147l80 8q17 -65 58 -96t112 -31q100 0 159.5 88t63.5 244q-28 -61 -83.5 -96t-129.5 -35q-117 0 -191.5 72.5t-74.5 195.5q0 128 76.5 204t201.5 76zM608 1395q-86 0 -139 -56.5
t-53 -150.5q0 -87 51 -140t137 -53q84 0 142.5 57t58.5 142q0 90 -54.5 145.5t-142.5 55.5z" />
    <glyph glyph-name="uni2080" unicode="&#x2080;" 
d="M614 -221q-141 0 -224 111t-83 303q0 193 82 302t225 109t225.5 -109t82.5 -302q0 -191 -83.5 -302.5t-224.5 -111.5zM393 193q0 -136 43 -218l312 500q-53 53 -134 53q-105 0 -163 -88t-58 -247zM614 -145q103 0 162.5 89.5t59.5 248.5q0 137 -43 219l-312 -500
q54 -57 133 -57z" />
    <glyph glyph-name="uni2081" unicode="&#x2081;" 
d="M672 -205v563h-199v64h35q184 0 184 166h64v-793h-84z" />
    <glyph glyph-name="uni2082" unicode="&#x2082;" 
d="M342 -205q0 131 48 208t181 149l80 45q90 48 118 84t28 96q0 71 -46.5 110t-125.5 39q-84 0 -132 -46t-63 -140l-86 6q14 123 86.5 190.5t194.5 67.5q120 0 189 -61t69 -166q0 -84 -44 -136.5t-151 -109.5l-70 -37q-95 -52 -137.5 -105t-40.5 -116h434v-78h-532z" />
    <glyph glyph-name="uni2083" unicode="&#x2083;" 
d="M618 -221q-274 0 -288 225l86 6q6 -76 52 -114.5t150 -38.5q97 0 147 42t50 119q0 72 -51 117t-146 45h-55v74h55q73 0 118.5 34t45.5 109q0 60 -41.5 94.5t-126.5 34.5q-82 0 -125 -35t-49 -98l-88 8q12 94 81 148.5t181 54.5q123 0 187.5 -55t64.5 -148
q0 -139 -145 -182q180 -44 180 -201q0 -109 -77 -174t-206 -65z" />
    <glyph glyph-name="uni2084" unicode="&#x2084;" 
d="M702 -205v191h-383v65l388 537h79v-527h125v-75h-125v-191h-84zM412 61h290v406z" />
    <glyph glyph-name="uni2085" unicode="&#x2085;" 
d="M608 -221q-116 0 -186 56t-82 153l88 6q16 -137 182 -137q88 0 141.5 52.5t53.5 141.5t-47 141t-131 52q-130 0 -193 -117h-84l56 461h436v-78h-363l-37 -287q22 43 74 69.5t121 26.5q119 0 186.5 -73t67.5 -195t-78 -197t-205 -75z" />
    <glyph glyph-name="uni2086" unicode="&#x2086;" 
d="M618 -221q-135 0 -210.5 93t-75.5 275q0 205 80 331t229 126q102 0 163 -47.5t87 -146.5l-80 -9q-17 65 -58 96t-112 31q-100 0 -159.5 -87.5t-63.5 -243.5q28 61 83.5 96t129.5 35q117 0 191.5 -73t74.5 -196q0 -128 -77 -204t-202 -76zM621 -145q87 0 139.5 56.5
t52.5 149.5q0 87 -51 140t-137 53q-84 0 -142.5 -57t-58.5 -142q0 -90 54.5 -145t142.5 -55z" />
    <glyph glyph-name="uni2087" unicode="&#x2087;" 
d="M522 -205q0 179 71 367t189 348h-424v78h512v-68q-119 -161 -189.5 -349t-70.5 -376h-88z" />
    <glyph glyph-name="uni2088" unicode="&#x2088;" 
d="M614 -221q-137 0 -213.5 57t-76.5 170q0 83 46 138t126 81q-134 45 -134 174q0 99 62.5 152t189.5 53t189.5 -53t62.5 -152q0 -129 -133 -174q80 -26 126 -81t46 -138q0 -113 -77 -170t-214 -57zM614 264q77 0 121.5 33t44.5 98t-39.5 98t-126.5 33t-126 -33t-39 -98
t44.5 -98t120.5 -33zM614 -143q205 0 205 153q0 78 -56.5 127t-148.5 49t-148 -49t-56 -127q0 -153 204 -153z" />
    <glyph glyph-name="uni2089" unicode="&#x2089;" 
d="M610 604q135 0 211 -93t76 -275q0 -205 -80 -331t-229 -126q-102 0 -163 47.5t-87 146.5l80 9q17 -65 58 -96t112 -31q100 0 159.5 87.5t63.5 243.5q-28 -61 -83.5 -96t-129.5 -35q-117 0 -191.5 73t-74.5 196q0 128 76.5 204t201.5 76zM608 528q-87 0 -139.5 -56.5
t-52.5 -149.5q0 -87 51 -140t137 -53q84 0 142.5 57t58.5 142q0 90 -54.5 145t-142.5 55z" />
    <glyph glyph-name="uni20AA" unicode="&#x20aa;" 
d="M408 0v1137h100v-1041h375q73 0 118.5 56t45.5 145v1157h100v-1147q0 -137 -75 -222t-198 -85h-466zM82 0v1454h467q121 0 195.5 -85t74.5 -222v-830h-98v840q0 89 -46 145t-120 56h-373v-1358h-100z" />
    <glyph glyph-name="Euro" unicode="&#x20ac;" 
d="M35 522v92h129q-4 70 -4 111q0 39 4 113h-129v92h137q34 264 158.5 410.5t324.5 146.5q191 0 315.5 -122.5t170.5 -348.5l-109 -8q-37 183 -134.5 280.5t-242.5 97.5q-152 0 -247.5 -119t-126.5 -337h522l-15 -92h-518q-2 -37 -2 -113t2 -111h492l-14 -92h-467
q31 -218 126.5 -336t247.5 -118q151 0 253.5 105.5t135.5 303.5l109 -8q-42 -235 -172 -368.5t-326 -133.5q-201 0 -325 145.5t-158 409.5h-137z" />
    <glyph glyph-name="uni20B4" unicode="&#x20b4;" 
d="M55 823v90h852q86 86 86 195q0 122 -94 200t-262 78q-288 0 -373 -309l-106 17q51 190 169.5 291.5t305.5 101.5q210 0 334.5 -107.5t124.5 -271.5q0 -58 -22.5 -110t-53.5 -85h158v-90h-1119zM600 -25q-209 0 -340 106.5t-131 276.5q0 98 43 160h-117v92h1119v-92h-893
q-50 -65 -50 -156q0 -126 100.5 -206t258.5 -80q159 0 258.5 71.5t136.5 204.5l115 -8q-52 -180 -180.5 -274.5t-319.5 -94.5z" />
    <glyph glyph-name="uni20B9" unicode="&#x20b9;" 
d="M735 0l-659 592v119h385q164 0 265 71t118 195h-768v92h768q-18 131 -119 209t-264 78h-385v98h1077v-92h-373q150 -106 168 -293h205v-92h-205q-18 -163 -149 -264t-338 -101h-271l691 -612h-146z" />
    <glyph glyph-name="uni20BD" unicode="&#x20bd;" 
d="M250 0v281h-172v90h172v1083h412q226 0 357.5 -114t131.5 -314q0 -199 -131.5 -310.5t-357.5 -111.5h-310v-233h424v-90h-424v-281h-102zM352 702h297q192 0 292.5 82t100.5 242q0 161 -101 245.5t-292 84.5h-297v-654z" />
    <glyph glyph-name="uni2107" unicode="&#x2107;" 
d="M631 -33q-221 0 -363.5 121t-142.5 311q0 135 82 238t223 149q-119 38 -187.5 124t-68.5 198q0 167 127.5 273t325.5 106q123 0 246.5 -60t195.5 -155l-70 -84q-68 92 -170.5 146.5t-201.5 54.5q-152 0 -249 -78.5t-97 -202.5q0 -129 101.5 -206t248.5 -77l112 2v-96
l-112 2q-174 2 -287 -88.5t-113 -234.5q0 -154 112.5 -249t287.5 -95q111 0 223.5 57.5t196.5 159.5l67 -84q-92 -109 -222 -170.5t-265 -61.5z" />
    <glyph glyph-name="uni2116" unicode="&#x2116;" 
d="M965 770q-116 0 -181 96t-65 260q0 166 65 263.5t181 97.5q113 0 178 -98t65 -263q0 -164 -65 -260t-178 -96zM20 0v1454h146l387 -1298v1298h96v-1454h-147l-385 1298v-1298h-97zM965 848q72 0 111.5 74.5t39.5 203.5q0 132 -40 207.5t-111 75.5q-74 0 -113 -75.5
t-39 -207.5q0 -130 39 -204t113 -74zM752 457v90h424v-90h-424z" />
    <glyph glyph-name="uni2117" unicode="&#x2117;" 
d="M616 377q-114 0 -217 44t-177.5 118.5t-118.5 177.5t-44 215q0 113 44 216t118.5 177t177.5 118t217 44q113 0 215.5 -44t176.5 -118t117.5 -177t43.5 -216q0 -112 -43.5 -215t-117.5 -177.5t-176.5 -118.5t-215.5 -44zM616 446q132 0 243 66t174 178t63 242t-63 241.5
t-174 177.5t-243 66q-201 0 -342 -143t-141 -342q0 -130 64 -242t175.5 -178t243.5 -66zM440 616v629h205q110 0 174 -50t64 -136q0 -88 -63.5 -136.5t-174.5 -48.5h-129v-258h-76zM516 944h146q71 0 111 30.5t40 88.5q0 54 -40 84.5t-111 30.5h-146v-234z" />
    <glyph glyph-name="trademark" unicode="&#x2122;" 
d="M551 735v719h92l221 -620l221 620h93v-719h-82v512l-187 -512h-90l-186 518v-518h-82zM231 735v641h-180v78h443v-78h-181v-641h-82z" />
    <glyph glyph-name="uni2153" unicode="&#x2153;" 
d="M338 662v563h-201v63h35q184 0 184 166h64v-792h-82zM733 944l262 510h97l-263 -510h-96zM831 -16q-274 0 -288 225l86 6q6 -76 52 -115t150 -39q98 0 147.5 42t49.5 120q0 72 -50.5 117t-143.5 45h-56v74h56q71 0 116 34.5t45 108.5q0 60 -41.5 94.5t-126.5 34.5
q-157 0 -174 -133l-86 8q12 94 80 148.5t180 54.5q123 0 188.5 -55t65.5 -148q0 -138 -145 -182q178 -43 178 -201q0 -109 -77 -174t-206 -65zM109 0l264 508h96l-262 -508h-98z" />
    <glyph glyph-name="uni2154" unicode="&#x2154;" 
d="M39 662q0 131 48 207.5t181 148.5l80 45q90 48 118 84t28 96q0 71 -46.5 110.5t-125.5 39.5q-165 0 -195 -187l-86 6q14 123 86.5 190.5t194.5 67.5q120 0 189 -61t69 -166q0 -84 -44 -136.5t-151 -109.5l-70 -36q-95 -52 -137.5 -105.5t-40.5 -116.5h434v-77h-532z
M741 944l263 510h96l-262 -510h-97zM907 -16q-275 0 -289 225l87 6q6 -76 52 -115t150 -39q97 0 147 42t50 120q0 72 -51 117t-146 45h-55v74h55q73 0 118.5 34.5t45.5 108.5q0 60 -41.5 94.5t-126.5 34.5q-82 0 -125 -35t-49 -98l-88 8q12 94 81 148.5t181 54.5
q123 0 187.5 -55t64.5 -148q0 -139 -145 -182q180 -44 180 -201q0 -109 -77 -174t-206 -65zM117 0l264 508h96l-262 -508h-98z" />
    <glyph glyph-name="uni2155" unicode="&#x2155;" 
d="M315 662v563h-198v63h33q186 0 186 166h63v-792h-84zM731 944l262 510h99l-265 -510h-96zM840 -16q-117 0 -187.5 56t-81.5 153l88 6q16 -138 183 -138q88 0 141 53t53 142q0 88 -47.5 140.5t-130.5 52.5q-132 0 -192 -117h-84l55 461h434v-78h-360l-39 -287
q22 42 74.5 69t119.5 27q119 0 186.5 -73t67.5 -195t-76.5 -197t-203.5 -75zM109 0l262 508h96l-262 -508h-96z" />
    <glyph glyph-name="oneeighth" unicode="&#x215b;" 
d="M283 662v563h-199v63h33q186 0 186 166h64v-792h-84zM709 944l262 510h96l-262 -510h-96zM862 -16q-137 0 -214 57t-77 170q0 83 46 138t126 81q-133 45 -133 174q0 99 62.5 152t189.5 53t189.5 -53t62.5 -152q0 -129 -133 -174q80 -26 126 -81t46 -138q0 -113 -77 -170
t-214 -57zM862 469q77 0 121.5 33t44.5 98t-39.5 98t-126.5 33t-126.5 -33t-39.5 -98t44.5 -98t121.5 -33zM84 0l264 508h96l-262 -508h-98zM862 61q205 0 205 154q0 78 -56.5 127t-148.5 49t-148.5 -49t-56.5 -127q0 -154 205 -154z" />
    <glyph glyph-name="threeeighths" unicode="&#x215c;" 
d="M309 645q-117 0 -187 56t-81 153l88 6q16 -137 182 -137q88 0 141.5 53t53.5 142q0 88 -47.5 140t-130.5 52q-133 0 -193 -117h-84l55 461h435v-78h-361l-39 -286q22 42 75 69t120 27q119 0 186.5 -73t67.5 -195t-77 -197.5t-204 -75.5zM745 944l265 510h96l-262 -510
h-99zM897 -16q-139 0 -216 57t-77 170q0 83 46.5 138t127.5 81q-135 46 -135 174q0 99 63.5 152t190.5 53t189.5 -53t62.5 -152q0 -130 -135 -174q81 -26 127.5 -81t46.5 -138q0 -113 -77 -170t-214 -57zM897 469q77 0 121.5 33t44.5 98q0 131 -166 131q-168 0 -168 -131
q0 -65 45 -98t123 -33zM123 0l262 508h98l-264 -508h-96zM897 61q205 0 205 154q0 78 -56.5 127t-148.5 49t-149.5 -49t-57.5 -127q0 -154 207 -154z" />
    <glyph glyph-name="fiveeighths" unicode="&#x215d;" 
d="M330 645q-275 0 -289 225l86 7q6 -76 52.5 -115t150.5 -39q97 0 146.5 42t49.5 120q0 72 -50.5 117t-145.5 45h-56v73h56q72 0 118 34.5t46 109.5q0 60 -41.5 94.5t-126.5 34.5q-82 0 -125 -35t-49 -98l-89 8q12 93 81 147.5t182 54.5q123 0 187.5 -54.5t64.5 -147.5
q0 -140 -146 -183q180 -44 180 -200q0 -109 -76.5 -174.5t-205.5 -65.5zM737 944l262 510h99l-264 -510h-97zM897 -16q-139 0 -216 57t-77 170q0 83 46.5 138t127.5 81q-135 46 -135 174q0 99 63.5 152t190.5 53t189.5 -53t62.5 -152q0 -130 -135 -174q81 -26 127.5 -81
t46.5 -138q0 -113 -77 -170t-214 -57zM897 469q77 0 121.5 33t44.5 98q0 131 -166 131q-168 0 -168 -131q0 -65 45 -98t123 -33zM115 0l262 508h96l-262 -508h-96zM897 61q205 0 205 154q0 78 -56.5 127t-148.5 49t-149.5 -49t-57.5 -127q0 -154 207 -154z" />
    <glyph glyph-name="seveneighths" unicode="&#x215e;" 
d="M225 662q0 177 71 366t189 348h-426v78h514v-68q-120 -162 -191 -349.5t-71 -374.5h-86zM700 944l263 510h98l-264 -510h-97zM883 -16q-137 0 -214 57t-77 170q0 83 46 138t126 81q-133 45 -133 174q0 99 62.5 152t189.5 53t189.5 -53t62.5 -152q0 -129 -134 -174
q80 -26 126.5 -81t46.5 -138q0 -113 -77 -170t-214 -57zM883 469q77 0 121.5 33t44.5 98t-39.5 98t-126.5 33t-126.5 -33t-39.5 -98t44.5 -98t121.5 -33zM78 0l262 508h96l-262 -508h-96zM883 61q204 0 204 154q0 78 -56 127t-148 49t-148.5 -49t-56.5 -127q0 -154 205 -154
z" />
    <glyph glyph-name="arrowleft" unicode="&#x2190;" 
d="M688 96l-131 2l-539 537l537 539h131l-487 -490h999v-96h-999z" />
    <glyph glyph-name="arrowup" unicode="&#x2191;" 
d="M565 37v1206l-510 -510v131l559 557l560 -559v-131l-510 508v-1202h-99z" />
    <glyph glyph-name="arrowright" unicode="&#x2192;" 
d="M541 96l489 492h-999v96h999l-487 490h131l536 -539l-538 -537z" />
    <glyph glyph-name="arrowdown" unicode="&#x2193;" 
d="M1174 727v-131l-560 -559l-559 557v131l510 -510v1206h99v-1202z" />
    <glyph glyph-name="arrowboth" unicode="&#x2194;" 
d="M401 303l-397 402l395 393h129l-344 -346h860l-344 346h129l396 -393l-398 -402h-131l348 352h-860l348 -352h-131z" />
    <glyph glyph-name="arrowupdn" unicode="&#x2195;" 
d="M618 -23l-407 404v131l358 -354v1269l-358 -356v129l407 406l400 -400v-131l-352 352v-1269l352 352v-131z" />
    <glyph glyph-name="uni2196" unicode="&#x2196;" 
d="M258 569l-92 95v790h788l93 -92h-721l854 -854l-70 -68l-850 850z" />
    <glyph glyph-name="uni2197" unicode="&#x2197;" 
d="M49 508l854 854h-721l92 92h789v-790l-92 -95l-2 721l-850 -850z" />
    <glyph glyph-name="uni2198" unicode="&#x2198;" 
d="M209 92l721 2l-850 850l67 70l854 -854v723l93 -92l-2 -791h-791z" />
    <glyph glyph-name="uni2199" unicode="&#x2199;" 
d="M1020 92l-92 -92h-791l-2 791l92 92v-723l854 854l68 -70l-850 -850z" />
    <glyph glyph-name="uni219D" unicode="&#x219d;" 
d="M608 438q-94 54 -119 195q-10 56 -16.5 82t-23.5 57t-43 47q-60 33 -123 0.5t-97 -112.5h-106q22 69 65 121.5t93.5 76.5t106 27t104.5 -27q54 -31 80 -81t38 -124q12 -75 29 -114.5t55 -61.5q62 -32 123 -2t107 105l-160 92l379 178l33 -418l-168 99
q-76 -118 -170 -155.5t-187 15.5z" />
    <glyph glyph-name="uni21A9" unicode="&#x21a9;" 
d="M565 199h-131l-385 385l383 383h131l-336 -334h516q143 0 241.5 86.5t98.5 212.5q0 140 -99 237t-241 97h-604v96h604q184 0 310.5 -124t126.5 -306q0 -167 -126.5 -282t-310.5 -115h-512z" />
    <glyph glyph-name="uni21AA" unicode="&#x21aa;" 
d="M664 199l333 336h-512q-184 0 -310 115t-126 282q0 182 126 306t310 124h605v-96h-605q-142 0 -241 -97t-99 -237q0 -126 98.5 -212.5t241.5 -86.5h516l-335 334h131l383 -383l-385 -385h-131z" />
    <glyph glyph-name="uni21B0" unicode="&#x21b0;" 
d="M395 633l-344 278l342 279l2 -232h746v-958h-94v864h-652v-231z" />
    <glyph glyph-name="uni21B1" unicode="&#x21b1;" 
d="M182 0h-94v958h746l2 232l342 -279l-344 -278v231h-652v-864z" />
    <glyph glyph-name="uni21B3" unicode="&#x21b3;" 
d="M834 821l344 -278l-342 -279l-2 232h-746v958h94v-864h652v231z" />
    <glyph glyph-name="uni21B4" unicode="&#x21b4;" 
d="M899 0l-276 342h229v989h-805v94h901v-1081h230z" />
    <glyph glyph-name="carriagereturn" unicode="&#x21b5;" 
d="M395 821v-231h652v864h94v-958h-746l-2 -232l-342 279z" />
    <glyph glyph-name="uni21E4" unicode="&#x21e4;" 
d="M68 244v798h94v-798h-94zM571 369l-344 276l342 279l2 -232h590v-96h-590v-227z" />
    <glyph glyph-name="uni21E5" unicode="&#x21e5;" 
d="M1161 244h-94v798h94v-798zM657 369v227h-589v96h589l2 232l342 -279z" />
    <glyph glyph-name="uni21E7" unicode="&#x21e7;" 
d="M313 0v811h-309l612 641l609 -641h-320v-811h-592zM412 96h397v799h205l-398 426l-399 -426h195v-799z" />
    <glyph glyph-name="partialdiff" unicode="&#x2202;" 
d="M594 -23q-189 0 -302.5 133.5t-113.5 358.5q0 224 117.5 358t314.5 134q205 0 336 -160q-49 239 -206.5 388t-446.5 206l24 92q167 -34 294.5 -98t210 -147.5t134.5 -194t73.5 -228.5t21.5 -260q0 -275 -122.5 -428.5t-334.5 -153.5zM594 63q173 0 266.5 118.5
t93.5 350.5q0 151 -94.5 246.5t-245.5 95.5q-158 0 -249 -108t-91 -297t86 -297.5t234 -108.5z" />
    <glyph glyph-name="uni2206" unicode="&#x2206;" 
d="M20 0v96l525 1358h139l524 -1358v-96h-1188zM111 94h1007l-504 1272z" />
    <glyph glyph-name="product" unicode="&#x220f;" 
d="M301 -307v1667h-260v94h1147v-94h-252v-1667h-96v1667h-443v-1667h-96z" />
    <glyph glyph-name="summation" unicode="&#x2211;" 
d="M143 0v98l400 629l-400 629v98h942v-98h-831l399 -629l-399 -629h831v-98h-942z" />
    <glyph glyph-name="minus" unicode="&#x2212;" 
d="M164 530v95h901v-95h-901z" />
    <glyph glyph-name="radical" unicode="&#x221a;" 
d="M266 -307l-231 995h96l201 -862l305 1628h557v-92h-477l-316 -1669h-135z" />
    <glyph glyph-name="infinity" unicode="&#x221e;" 
d="M299 236q-120 0 -201.5 92.5t-81.5 226.5t81.5 226.5t201.5 92.5q96 0 180 -61t135 -168q59 112 133 169.5t177 57.5q123 0 205.5 -91.5t82.5 -225.5t-83 -226.5t-205 -92.5q-89 0 -173.5 61.5t-136.5 167.5q-49 -105 -135 -167t-180 -62zM299 328q173 0 274 227
q-106 224 -274 227q-80 0 -135 -65.5t-55 -161.5t55 -161.5t135 -65.5zM920 328q85 2 142.5 66.5t57.5 160.5t-58 161t-142 64q-159 0 -267 -225q104 -227 267 -227z" />
    <glyph glyph-name="integral" unicode="&#x222b;" 
d="M324 -307h-80l14 92h82q69 0 109.5 40.5t50.5 133.5l133 1221q17 137 87.5 205.5t186.5 68.5h78l-14 -92h-78q-67 0 -110 -45t-52 -129l-135 -1221q-15 -139 -82 -206.5t-190 -67.5z" />
    <glyph glyph-name="approxequal" unicode="&#x2248;" 
d="M907 731q-61 0 -105 26.5t-102 92.5q-60 69 -90.5 91t-74.5 22q-62 0 -100.5 -59t-41.5 -159h-96q4 145 67.5 228.5t167.5 83.5q64 0 109.5 -28.5t99.5 -92.5q56 -66 89.5 -88.5t74.5 -22.5q64 0 103.5 58.5t42.5 158.5h96q-5 -145 -69 -228t-171 -83zM907 309
q-61 0 -105.5 26t-101.5 91q-60 71 -90.5 93t-74.5 22q-62 0 -100.5 -59t-41.5 -160h-96q4 146 67 228.5t168 82.5q63 0 109 -28t100 -91q56 -68 89.5 -90.5t74.5 -22.5q64 0 103.5 58.5t42.5 158.5h96q-4 -145 -68.5 -227t-171.5 -82z" />
    <glyph glyph-name="notequal" unicode="&#x2260;" 
d="M178 340v94h348l101 330h-449v94h475l76 248h90l-76 -248h308v-94h-334l-101 -330h435v-94h-463l-88 -287h-90l88 287h-320z" />
    <glyph glyph-name="lessequal" unicode="&#x2264;" 
d="M997 207l-915 385v119l915 385v-99l-835 -346l835 -346v-98zM997 0h-915v92h915v-92z" />
    <glyph glyph-name="greaterequal" unicode="&#x2265;" 
d="M156 207v98l837 346l-837 346v99l917 -385v-119zM156 0v92h917v-92h-917z" />
    <glyph glyph-name="uni2326" unicode="&#x2326;" 
d="M862 0h-846v1454h846l359 -731zM807 88l315 637l-315 641h-703v-1278h703zM313 438l-65 66l221 223l-221 221l65 66l222 -223l221 223l65 -66l-221 -221l221 -223l-65 -64l-221 222z" />
    <glyph glyph-name="uni2327" unicode="&#x2327;" 
d="M29 0v1454h1171v-1454h-1171zM117 88h995v1278h-995v-1278zM393 440l-65 64l221 223l-221 221l65 66l221 -221l222 221l65 -66l-221 -221l221 -223l-65 -66l-222 224z" />
    <glyph glyph-name="uni232B" unicode="&#x232b;" 
d="M367 0l-359 723l359 731h845v-1454h-845zM422 88h702v1278h-702l-316 -641zM473 440l-65 64l221 223l-221 221l65 66l221 -223l221 223l66 -66l-221 -221l221 -223l-66 -66l-221 224z" />
    <glyph glyph-name="uni23CE" unicode="&#x23ce;" 
d="M600 27l-569 591l569 588v-372h160v620h428v-1051h-588v-376zM512 735v242l-346 -361l346 -360v246h580v856h-236v-623h-344z" />
    <glyph glyph-name="uni240B" unicode="&#x240b;" 
d="M313 614l-207 676h82l181 -606l180 606h82l-207 -676h-111zM838 145v603h-209v73h493v-73h-209v-603h-75z" />
    <glyph glyph-name="uni240C" unicode="&#x240c;" 
d="M176 614v676h404v-73h-328v-228h309v-76h-309v-299h-76zM680 145v676h403v-73h-327v-228h309v-76h-309v-299h-76z" />
    <glyph glyph-name="uni2423" unicode="&#x2423;" 
d="M92 -389v389h94v-295h856v295h95v-389h-1045z" />
    <glyph glyph-name="uni2460" unicode="&#x2460;" 
d="M614 -33q-272 0 -429.5 203t-157.5 557t157.5 557t429.5 203q271 0 429.5 -203.5t158.5 -556.5t-158.5 -556.5t-429.5 -203.5zM614 51q231 0 365.5 181t134.5 495t-134.5 495t-365.5 181q-232 0 -365.5 -180.5t-133.5 -495.5t133.5 -495.5t365.5 -180.5zM612 328v563
h-198v63h32q187 0 187 166h63v-792h-84z" />
    <glyph glyph-name="uni2461" unicode="&#x2461;" 
d="M614 -33q-272 0 -429.5 203t-157.5 557t157.5 557t429.5 203q271 0 429.5 -203.5t158.5 -556.5t-158.5 -556.5t-429.5 -203.5zM614 51q231 0 365.5 181t134.5 495t-134.5 495t-365.5 181q-232 0 -365.5 -180.5t-133.5 -495.5t133.5 -495.5t365.5 -180.5zM346 328
q0 131 48 207.5t181 148.5l80 45q89 48 116.5 84t27.5 96q0 71 -45.5 110.5t-124.5 39.5q-167 0 -197 -187l-84 7q14 123 86.5 190.5t194.5 67.5q119 0 187.5 -61.5t68.5 -166.5q0 -84 -43.5 -136t-149.5 -109l-69 -37q-95 -52 -138 -105t-43 -116h435v-78h-531z" />
    <glyph glyph-name="uni2462" unicode="&#x2462;" 
d="M614 -33q-272 0 -429.5 203t-157.5 557t157.5 557t429.5 203q271 0 429.5 -203.5t158.5 -556.5t-158.5 -556.5t-429.5 -203.5zM614 51q231 0 365.5 181t134.5 495t-134.5 495t-365.5 181q-232 0 -365.5 -180.5t-133.5 -495.5t133.5 -495.5t365.5 -180.5zM618 311
q-274 0 -288 226l86 6q6 -76 52 -115t150 -39q98 0 147.5 42t49.5 120q0 72 -50.5 117t-143.5 45h-56v73h56q71 0 116 34.5t45 109.5q0 60 -41.5 94.5t-126.5 34.5q-157 0 -174 -133l-86 8q12 94 80 148.5t180 54.5q123 0 188.5 -55t65.5 -148q0 -138 -145 -182
q178 -43 178 -201q0 -109 -77 -174.5t-206 -65.5z" />
    <glyph glyph-name="uni2463" unicode="&#x2463;" 
d="M614 -33q-272 0 -429.5 203t-157.5 557t157.5 557t429.5 203q271 0 429.5 -203.5t158.5 -556.5t-158.5 -556.5t-429.5 -203.5zM614 51q231 0 365.5 181t134.5 495t-134.5 495t-365.5 181q-232 0 -365.5 -180.5t-133.5 -495.5t133.5 -495.5t365.5 -180.5zM705 328v190
h-386v66l388 536h79v-526h125v-76h-125v-190h-81zM412 594h293v405z" />
    <glyph glyph-name="uni2464" unicode="&#x2464;" 
d="M614 -33q-272 0 -429.5 203t-157.5 557t157.5 557t429.5 203q271 0 429.5 -203.5t158.5 -556.5t-158.5 -556.5t-429.5 -203.5zM614 51q231 0 365.5 181t134.5 495t-134.5 495t-365.5 181q-232 0 -365.5 -180.5t-133.5 -495.5t133.5 -495.5t365.5 -180.5zM608 311
q-116 0 -186 56t-82 153l88 6q16 -137 182 -137q88 0 141.5 53t53.5 142t-47 140.5t-131 51.5q-130 0 -193 -117h-84l56 461h436v-78h-363l-37 -286q22 43 74 69.5t121 26.5q119 0 186.5 -73t67.5 -195t-78 -197.5t-205 -75.5z" />
    <glyph glyph-name="uni2465" unicode="&#x2465;" 
d="M614 -33q-272 0 -429.5 203t-157.5 557t157.5 557t429.5 203q271 0 429.5 -203.5t158.5 -556.5t-158.5 -556.5t-429.5 -203.5zM614 51q231 0 365.5 181t134.5 495t-134.5 495t-365.5 181q-232 0 -365.5 -180.5t-133.5 -495.5t133.5 -495.5t365.5 -180.5zM621 311
q-135 0 -211 93.5t-76 275.5q0 205 80 331t229 126q102 0 163 -48t87 -147l-80 -8q-17 65 -58 96t-112 31q-100 0 -159.5 -88t-63.5 -244q28 61 83.5 96t129.5 35q117 0 191.5 -72.5t74.5 -195.5q0 -128 -76.5 -204.5t-201.5 -76.5zM623 387q86 0 139 56.5t53 150.5
q0 87 -51 139.5t-137 52.5q-84 0 -142.5 -56.5t-58.5 -141.5q0 -90 54.5 -145.5t142.5 -55.5z" />
    <glyph glyph-name="uni2466" unicode="&#x2466;" 
d="M614 -33q-272 0 -429.5 203t-157.5 557t157.5 557t429.5 203q271 0 429.5 -203.5t158.5 -556.5t-158.5 -556.5t-429.5 -203.5zM614 51q231 0 365.5 181t134.5 495t-134.5 495t-365.5 181q-232 0 -365.5 -180.5t-133.5 -495.5t133.5 -495.5t365.5 -180.5zM524 328
q0 179 70.5 366.5t189.5 347.5h-424v78h512v-67q-119 -161 -189.5 -349t-70.5 -376h-88z" />
    <glyph glyph-name="uni2467" unicode="&#x2467;" 
d="M614 -33q-272 0 -429.5 203t-157.5 557t157.5 557t429.5 203q271 0 429.5 -203.5t158.5 -556.5t-158.5 -556.5t-429.5 -203.5zM614 51q231 0 365.5 181t134.5 495t-134.5 495t-365.5 181q-232 0 -365.5 -180.5t-133.5 -495.5t133.5 -495.5t365.5 -180.5zM616 311
q-137 0 -213.5 57.5t-76.5 170.5q0 83 46 138t126 81q-133 45 -133 174q0 99 62.5 152t188.5 53q127 0 189.5 -53t62.5 -152q0 -129 -133 -174q80 -26 126 -81t46 -138q0 -113 -77 -170.5t-214 -57.5zM616 797q77 0 121.5 33t44.5 98t-39.5 98t-126.5 33t-126 -33t-39 -98
t44.5 -98t120.5 -33zM616 389q205 0 205 154q0 78 -56.5 127t-148.5 49t-148 -49t-56 -127q0 -154 204 -154z" />
    <glyph glyph-name="uni2468" unicode="&#x2468;" 
d="M614 -33q-272 0 -429.5 203t-157.5 557t157.5 557t429.5 203q271 0 429.5 -203.5t158.5 -556.5t-158.5 -556.5t-429.5 -203.5zM614 51q231 0 365.5 181t134.5 495t-134.5 495t-365.5 181q-232 0 -365.5 -180.5t-133.5 -495.5t133.5 -495.5t365.5 -180.5zM612 1137
q135 0 211 -93.5t76 -275.5q0 -205 -80 -331t-229 -126q-102 0 -163 48t-87 147l80 8q17 -65 58 -96t112 -31q100 0 159.5 88t63.5 244q-28 -61 -83.5 -96t-129.5 -35q-117 0 -191.5 72.5t-74.5 195.5q0 128 76.5 204.5t201.5 76.5zM610 1061q-86 0 -139 -56.5t-53 -150.5
q0 -87 51 -139.5t137 -52.5q84 0 142.5 56.5t58.5 141.5q0 90 -54.5 145.5t-142.5 55.5z" />
    <glyph glyph-name="uni24EA" unicode="&#x24ea;" 
d="M614 -33q-272 0 -429.5 203t-157.5 557t157.5 557t429.5 203q271 0 429.5 -203.5t158.5 -556.5t-158.5 -556.5t-429.5 -203.5zM614 51q231 0 365.5 181t134.5 495t-134.5 495t-365.5 181q-232 0 -365.5 -180.5t-133.5 -495.5t133.5 -495.5t365.5 -180.5zM616 313
q-141 0 -224 111t-83 303t82 302t225 110t225.5 -110t82.5 -302q0 -191 -83.5 -302.5t-224.5 -111.5zM395 727q0 -135 43 -217l312 500q-54 51 -134 51q-105 0 -163 -87.5t-58 -246.5zM616 389q103 0 162.5 89.5t59.5 248.5q0 137 -43 219l-312 -502q55 -55 133 -55z" />
    <glyph glyph-name="uni24FF" unicode="&#x24ff;" 
d="M614 -33q-270 0 -427.5 205t-157.5 555t157.5 555t427.5 205q269 0 427.5 -205t158.5 -555t-158.5 -555t-427.5 -205zM616 311q141 0 224.5 111.5t83.5 302.5q0 193 -82.5 302.5t-225.5 109.5t-225 -109.5t-82 -302.5q0 -192 83 -303t224 -111zM438 510q-43 82 -43 215
q0 159 58.5 247.5t162.5 88.5q81 0 134 -53zM616 387q-79 0 -133 57l312 500q43 -82 43 -219q0 -159 -59.5 -248.5t-162.5 -89.5z" />
    <glyph glyph-name="uni2500" unicode="&#x2500;" 
d="M-82 690v103h1311v-103h-1311z" />
    <glyph glyph-name="uni2502" unicode="&#x2502;" 
d="M563 -506v2579h103v-2579h-103z" />
    <glyph glyph-name="uni250C" unicode="&#x250c;" 
d="M563 -506v1299h666v-103h-563v-1196h-103z" />
    <glyph glyph-name="uni2514" unicode="&#x2514;" 
d="M563 690v1383h103v-1280h563v-103h-666z" />
    <glyph glyph-name="uni251C" unicode="&#x251c;" 
d="M563 -506v2579h103v-1280h563v-103h-563v-1196h-103z" />
    <glyph glyph-name="triagup" unicode="&#x25b2;" 
d="M16 0l596 1034l598 -1034h-1194z" />
    <glyph glyph-name="uni25B3" unicode="&#x25b3;" 
d="M16 201l596 1034l598 -1034h-1194zM172 293h881l-441 760z" />
    <glyph glyph-name="uni25B6" unicode="&#x25b6;" 
d="M-111 1329l1035 -596l-1035 -598v1194z" />
    <glyph glyph-name="uni25B7" unicode="&#x25b7;" 
d="M90 1329l1034 -596l-1034 -598v1194zM182 1174v-881l760 440z" />
    <glyph glyph-name="triagdn" unicode="&#x25bc;" 
d="M16 1454h1194l-598 -1034z" />
    <glyph glyph-name="uni25BD" unicode="&#x25bd;" 
d="M16 1270h1194l-598 -1034zM172 1178l440 -760l441 760h-881z" />
    <glyph glyph-name="uni25C0" unicode="&#x25c0;" 
d="M1339 1329v-1194l-1034 598z" />
    <glyph glyph-name="uni25C1" unicode="&#x25c1;" 
d="M1139 1329v-1194l-1035 598zM1047 1174l-760 -441l760 -440v881z" />
    <glyph glyph-name="lozenge" unicode="&#x25ca;" 
d="M555 0l-346 659l346 660h121l346 -660l-346 -659h-121zM313 659l301 -571l301 571l-301 572z" />
    <glyph glyph-name="circle" unicode="&#x25cb;" 
d="M616 162q-163 0 -296.5 72.5t-210 203t-76.5 291.5q0 247 167 409t416 162q162 0 295 -73t210 -204t77 -294q0 -121 -45 -226.5t-122.5 -180t-185.5 -117.5t-229 -43zM616 252q207 0 347.5 135t140.5 340q0 211 -140 347t-348 136q-209 0 -349 -135.5t-140 -347.5
q0 -206 140.5 -340.5t348.5 -134.5z" />
    <glyph glyph-name="uni25CC" unicode="&#x25cc;" 
d="M514 1217l-16 92q59 8 98 10l2 -92q-57 -4 -84 -10zM795 1198q-49 14 -82 19l14 94q40 -6 98 -29zM332 1147l-51 78q45 28 92 45l30 -84q-27 -11 -71 -39zM963 1098q-30 27 -66 49l47 80q41 -26 84 -62zM193 1014l-78 49q33 48 65 80l64 -68q-28 -28 -51 -61zM1075 940
q-14 34 -41 72l78 53q41 -74 47 -92zM121 831l-92 15q9 53 26 98l86 -33q-14 -37 -20 -80zM1118 750q-4 54 -10 81l90 19q10 -55 10 -100h-90zM29 616q-11 57 -11 101h91q4 -54 10 -82zM1171 520l-84 35q18 55 21 80l90 -14q-9 -54 -27 -101zM117 399q-31 50 -49 95l86 32
q12 -32 39 -71zM1047 322l-66 69q26 24 53 62l78 -50q-20 -33 -65 -81zM287 240q-32 18 -84 63l65 66q25 -25 66 -50zM854 197l-33 86q48 19 72 36l51 -77q-44 -27 -90 -45zM502 160q-38 4 -99 24l33 86q38 -12 80 -18zM627 150v92q48 0 84 8l16 -90q-77 -10 -100 -10z" />
    <glyph glyph-name="uni25CF" unicode="&#x25cf;" 
d="M616 162q-163 0 -296.5 72.5t-210 202.5t-76.5 292q0 164 76.5 295t209.5 203.5t297 72.5q163 0 295.5 -72.5t209.5 -203.5t77 -295q0 -162 -77 -292t-210 -202.5t-295 -72.5z" />
    <glyph glyph-name="uni2776" unicode="&#x2776;" 
d="M614 -33q-270 0 -427.5 205t-157.5 555t157.5 555t427.5 205q269 0 427.5 -205t158.5 -555t-158.5 -555t-427.5 -205zM612 328h84v792h-63q0 -166 -184 -166h-35v-63h198v-563z" />
    <glyph glyph-name="uni2777" unicode="&#x2777;" 
d="M614 -33q-270 0 -427.5 205t-157.5 555t157.5 555t427.5 205q269 0 427.5 -205t158.5 -555t-158.5 -555t-427.5 -205zM346 328h531v78h-435q0 63 43 116t138 105l69 37q106 57 149.5 109t43.5 136q0 105 -68.5 166.5t-187.5 61.5q-122 0 -194.5 -67.5t-86.5 -190.5l84 -7
q30 187 197 187q79 0 124.5 -39.5t45.5 -110.5q0 -60 -27.5 -96t-116.5 -84l-80 -45q-133 -72 -181 -148.5t-48 -207.5z" />
    <glyph glyph-name="uni2778" unicode="&#x2778;" 
d="M614 -33q-270 0 -427.5 205t-157.5 555t157.5 555t427.5 205q269 0 427.5 -205t158.5 -555t-158.5 -555t-427.5 -205zM618 311q129 0 206 65.5t77 174.5q0 158 -178 201q145 44 145 182q0 93 -65.5 148t-188.5 55q-112 0 -180 -54.5t-80 -148.5l86 -8q17 133 174 133
q85 0 126.5 -34.5t41.5 -94.5q0 -75 -45 -109.5t-116 -34.5h-56v-73h56q93 0 143.5 -45t50.5 -117q0 -78 -49.5 -120t-147.5 -42q-104 0 -150 39t-52 115l-86 -6q14 -226 288 -226z" />
    <glyph glyph-name="uni2779" unicode="&#x2779;" 
d="M614 -33q-270 0 -427.5 205t-157.5 555t157.5 555t427.5 205q269 0 427.5 -205t158.5 -555t-158.5 -555t-427.5 -205zM705 328h81v190h125v76h-125v526h-79l-388 -536v-66h386v-190zM412 594l293 405v-405h-293z" />
    <glyph glyph-name="uni277A" unicode="&#x277a;" 
d="M614 -33q-270 0 -427.5 205t-157.5 555t157.5 555t427.5 205q269 0 427.5 -205t158.5 -555t-158.5 -555t-427.5 -205zM608 311q127 0 205 75.5t78 197.5t-67.5 195t-186.5 73q-69 0 -121 -26.5t-74 -69.5l37 286h363v78h-436l-56 -461h84q63 117 193 117q84 0 131 -51.5
t47 -140.5t-53.5 -142t-141.5 -53q-166 0 -182 137l-88 -6q12 -97 82 -153t186 -56z" />
    <glyph glyph-name="uni277B" unicode="&#x277b;" 
d="M614 -33q-270 0 -427.5 205t-157.5 555t157.5 555t427.5 205q269 0 427.5 -205t158.5 -555t-158.5 -555t-427.5 -205zM621 311q125 0 201.5 76.5t76.5 204.5q0 123 -74.5 195.5t-191.5 72.5q-74 0 -129.5 -35t-83.5 -96q4 156 63.5 244t159.5 88q71 0 112 -31t58 -96
l80 8q-26 99 -87 147t-163 48q-149 0 -229 -126t-80 -331q0 -182 76 -275.5t211 -93.5zM623 387q-88 0 -142.5 55.5t-54.5 145.5q0 85 58.5 141.5t142.5 56.5q86 0 137 -52.5t51 -139.5q0 -94 -53 -150.5t-139 -56.5z" />
    <glyph glyph-name="uni277C" unicode="&#x277c;" 
d="M614 -33q-270 0 -427.5 205t-157.5 555t157.5 555t427.5 205q269 0 427.5 -205t158.5 -555t-158.5 -555t-427.5 -205zM524 328h88q0 188 70.5 376t189.5 349v67h-512v-78h424q-119 -160 -189.5 -347.5t-70.5 -366.5z" />
    <glyph glyph-name="uni277D" unicode="&#x277d;" 
d="M614 -33q-270 0 -427.5 205t-157.5 555t157.5 555t427.5 205q269 0 427.5 -205t158.5 -555t-158.5 -555t-427.5 -205zM616 311q137 0 214 57.5t77 170.5q0 83 -46 138t-126 81q133 45 133 174q0 99 -62.5 152t-189.5 53q-126 0 -188.5 -53t-62.5 -152q0 -129 133 -174
q-80 -26 -126 -81t-46 -138q0 -113 76.5 -170.5t213.5 -57.5zM616 797q-76 0 -120.5 33t-44.5 98t39 98t126 33t126.5 -33t39.5 -98t-44.5 -98t-121.5 -33zM616 389q-204 0 -204 154q0 78 56 127t148 49t148.5 -49t56.5 -127q0 -154 -205 -154z" />
    <glyph glyph-name="uni277E" unicode="&#x277e;" 
d="M614 -33q-270 0 -427.5 205t-157.5 555t157.5 555t427.5 205q269 0 427.5 -205t158.5 -555t-158.5 -555t-427.5 -205zM590 311q149 0 229 126t80 331q0 182 -76 275.5t-211 93.5q-125 0 -201.5 -76.5t-76.5 -204.5q0 -123 74.5 -195.5t191.5 -72.5q74 0 129.5 35t83.5 96
q-4 -156 -63.5 -244t-159.5 -88q-71 0 -112 31t-58 96l-80 -8q26 -99 87 -147t163 -48zM606 662q-86 0 -137 52.5t-51 139.5q0 94 53 150.5t139 56.5q88 0 142.5 -55.5t54.5 -145.5q0 -85 -58.5 -141.5t-142.5 -56.5z" />
    <glyph glyph-name="uni3003" unicode="&#x3003;" 
d="M604 575l119 410h104l-153 -410h-70zM401 575l119 410h105l-154 -410h-70z" />
    <glyph glyph-name="uni3008" unicode="&#x3008;" 
d="M758 -233l-375 958l375 956h100l-375 -956l375 -958h-100z" />
    <glyph glyph-name="uni3009" unicode="&#x3009;" 
d="M471 -233h-100l374 958l-374 956h100l375 -956z" />
    <glyph glyph-name="uni300A" unicode="&#x300a;" 
d="M580 -233l-375 958l375 956h100l-375 -956l375 -958h-100zM922 -233l-375 958l375 956h100l-375 -956l375 -958h-100z" />
    <glyph glyph-name="uni300B" unicode="&#x300b;" 
d="M649 -233h-100l375 958l-375 956h100l375 -956zM307 -233h-100l375 958l-375 956h100l375 -956z" />
    <glyph glyph-name="uni300C" unicode="&#x300c;" 
d="M362 561v1131h590v-95h-491v-1036h-99z" />
    <glyph glyph-name="uni300D" unicode="&#x300d;" 
d="M866 920v-1133h-590v94h492v1039h98z" />
    <glyph glyph-name="uni300E" unicode="&#x300e;" 
d="M362 477v1215h621v-328h-293v-887h-328zM432 545h186v887h293v192h-479v-1079z" />
    <glyph glyph-name="uni300F" unicode="&#x300f;" 
d="M866 1004v-1215h-620v328h293v887h327zM797 936h-187v-887h-293v-192h480v1079z" />
    <glyph glyph-name="uni3010" unicode="&#x3010;" 
d="M913 -129h-520v1819h520q-277 -439 -277 -908.5t277 -910.5z" />
    <glyph glyph-name="uni3011" unicode="&#x3011;" 
d="M315 -129q277 441 277 910.5t-277 908.5h521v-1819h-521z" />
    <glyph glyph-name="uni3014" unicode="&#x3014;" 
d="M891 -305l-485 459v1130l483 457l63 -72l-450 -424l2 -1050l450 -426z" />
    <glyph glyph-name="uni3015" unicode="&#x3015;" 
d="M338 -305l-64 74l451 426l2 1050l-451 424l64 72l483 -457v-1130z" />
    <glyph glyph-name="uni3016" unicode="&#x3016;" 
d="M936 -129h-543v1819h543q-277 -439 -277 -908.5t277 -910.5zM805 -61q-214 413 -214 842t214 841h-342v-1683h342z" />
    <glyph glyph-name="uni3017" unicode="&#x3017;" 
d="M293 -129q277 441 277 910.5t-277 908.5h543v-1819h-543zM424 -61h342v1683h-342q214 -412 214 -841t-214 -842z" />
    <glyph glyph-name="uni301C" unicode="&#x301c;" 
d="M874 451q-61 0 -114.5 18t-126.5 61q-72 40 -106.5 57.5t-82.5 33.5t-90 16q-137 0 -248 -152l-71 70q58 87 142 135.5t177 48.5q59 0 111.5 -19t130.5 -63q71 -40 106 -57.5t82.5 -33t89.5 -15.5q128 0 252 149l68 -67q-57 -84 -143 -133t-177 -49z" />
    <glyph glyph-name="uniA78B" unicode="&#xa78b;" 
d="M575 801l-18 383v270h115v-270l-19 -383h-78z" />
    <glyph glyph-name="uniA78C" unicode="&#xa78c;" 
d="M575 801l-18 383v270h115v-270l-19 -383h-78z" />
    <glyph glyph-name="uniF8FF" unicode="&#xf8ff;" 
d="M215 0q-86 0 -142.5 56.5t-56.5 142.5v798q0 86 56.5 142.5t142.5 56.5h799q86 0 142 -56.5t56 -142.5v-798q0 -86 -56 -142.5t-142 -56.5h-799zM176 254h875l-439 760z" />
    <glyph glyph-name="uni004A0301" 
d="M930 1612l143 246h111l-170 -246h-84zM559 -33q-204 0 -330.5 138t-132.5 368l103 12q6 -202 98.5 -309.5t261.5 -107.5q181 0 275 112.5t94 329.5v944h102v-944q0 -257 -124 -400t-347 -143z" />
    <glyph glyph-name="uni013B.loclMAH" 
d="M219 0v1454h103v-1356h770v-98h-873zM561 -395l86 168h-55v127h137v-117l-98 -178h-70z" />
    <glyph glyph-name="uni0145.loclMAH" 
d="M158 0v1454h147l664 -1345v1345h102v-1454h-147l-664 1346v-1346h-102zM539 -395l86 168h-58v127h138v-117l-99 -178h-67z" />
    <glyph glyph-name="R.ss04" 
d="M170 0v1454h438q218 0 347.5 -114.5t129.5 -311.5q0 -154 -91.5 -254.5t-258.5 -136.5l369 -637h-113l-356 621h-363v-621h-102zM272 719h336q178 0 273.5 80t95.5 229q0 157 -95.5 243.5t-273.5 86.5h-336v-639z" />
    <glyph glyph-name="Racute.ss04" 
d="M543 1612l143 246h111l-172 -246h-82zM170 0v1454h438q218 0 347.5 -114.5t129.5 -311.5q0 -154 -91.5 -254.5t-258.5 -136.5l369 -637h-113l-356 621h-363v-621h-102zM272 719h336q178 0 273.5 80t95.5 229q0 157 -95.5 243.5t-273.5 86.5h-336v-639z" />
    <glyph glyph-name="Rcaron.ss04" 
d="M358 1870h86l146 -197l145 197h86l-184 -260h-94zM170 0v1454h438q218 0 347.5 -114.5t129.5 -311.5q0 -154 -91.5 -254.5t-258.5 -136.5l369 -637h-113l-356 621h-363v-621h-102zM272 719h336q178 0 273.5 80t95.5 229q0 157 -95.5 243.5t-273.5 86.5h-336v-639z" />
    <glyph glyph-name="uni0156.ss04" 
d="M170 0v1454h438q218 0 347.5 -114.5t129.5 -311.5q0 -154 -91.5 -254.5t-258.5 -136.5l369 -637h-113l-356 621h-363v-621h-102zM272 719h336q178 0 273.5 80t95.5 229q0 157 -95.5 243.5t-273.5 86.5h-336v-639zM494 -395l86 168h-58v127h137v-117l-98 -178h-67z" />
    <glyph glyph-name="G.ss06" 
d="M627 -33q-252 0 -399.5 204.5t-147.5 553.5q0 350 147.5 556t399.5 206q182 0 310 -125.5t173 -337.5l-106 -10q-40 171 -140.5 271.5t-236.5 100.5q-204 0 -321.5 -178.5t-117.5 -482.5q0 -302 117.5 -479.5t321.5 -177.5q182 0 288.5 139.5t106.5 394.5h-397v94h495
v-67q0 -319 -131 -490.5t-362 -171.5z" />
    <glyph glyph-name="Gbreve.ss06" 
d="M621 1624q-113 0 -184 66.5t-83 179.5h76q10 -81 61 -123.5t130 -42.5q78 0 128 42t60 124h76q-12 -114 -81.5 -180t-182.5 -66zM627 -33q-252 0 -399.5 204.5t-147.5 553.5q0 350 147.5 556t399.5 206q182 0 310 -125.5t173 -337.5l-106 -10q-40 171 -140.5 271.5
t-236.5 100.5q-204 0 -321.5 -178.5t-117.5 -482.5q0 -302 117.5 -479.5t321.5 -177.5q182 0 288.5 139.5t106.5 394.5h-397v94h495v-67q0 -319 -131 -490.5t-362 -171.5z" />
    <glyph glyph-name="Gcircumflex.ss06" 
d="M387 1610l184 260h95l186 -260h-86l-148 196l-145 -196h-86zM627 -33q-252 0 -399.5 204.5t-147.5 553.5q0 350 147.5 556t399.5 206q182 0 310 -125.5t173 -337.5l-106 -10q-40 171 -140.5 271.5t-236.5 100.5q-204 0 -321.5 -178.5t-117.5 -482.5q0 -302 117.5 -479.5
t321.5 -177.5q182 0 288.5 139.5t106.5 394.5h-397v94h495v-67q0 -319 -131 -490.5t-362 -171.5z" />
    <glyph glyph-name="uni0122.ss06" 
d="M627 -33q-252 0 -399.5 204.5t-147.5 553.5q0 350 147.5 556t399.5 206q182 0 310 -125.5t173 -337.5l-106 -10q-40 171 -140.5 271.5t-236.5 100.5q-204 0 -321.5 -178.5t-117.5 -482.5q0 -302 117.5 -479.5t321.5 -177.5q182 0 288.5 139.5t106.5 394.5h-397v94h495
v-67q0 -319 -131 -490.5t-362 -171.5zM522 -395l86 168h-55v127h137v-117l-98 -178h-70z" />
    <glyph glyph-name="Gdotaccent.ss06" 
d="M565 1645v161h107v-161h-107zM627 -33q-252 0 -399.5 204.5t-147.5 553.5q0 350 147.5 556t399.5 206q182 0 310 -125.5t173 -337.5l-106 -10q-40 171 -140.5 271.5t-236.5 100.5q-204 0 -321.5 -178.5t-117.5 -482.5q0 -302 117.5 -479.5t321.5 -177.5
q182 0 288.5 139.5t106.5 394.5h-397v94h495v-67q0 -319 -131 -490.5t-362 -171.5z" />
    <glyph glyph-name="uni1E20.ss06" 
d="M358 1675v86h523v-86h-523zM627 -33q-252 0 -399.5 204.5t-147.5 553.5q0 350 147.5 556t399.5 206q182 0 310 -125.5t173 -337.5l-106 -10q-40 171 -140.5 271.5t-236.5 100.5q-204 0 -321.5 -178.5t-117.5 -482.5q0 -302 117.5 -479.5t321.5 -177.5q182 0 288.5 139.5
t106.5 394.5h-397v94h495v-67q0 -319 -131 -490.5t-362 -171.5z" />
    <glyph glyph-name="Adieresis.ss08" 
d="M471 1651q-30 0 -50 19t-20 52t20 53.5t50 20.5q29 0 48.5 -20.5t19.5 -53.5t-19.5 -52t-48.5 -19zM754 1651q-29 0 -48.5 19t-19.5 52t19.5 53.5t48.5 20.5q30 0 49.5 -20.5t19.5 -53.5t-19.5 -52t-49.5 -19zM84 0l465 1454h131l465 -1454h-107l-143 459h-561l-144 -459
h-106zM614 1358l-249 -801h499z" />
    <glyph glyph-name="Cdotaccent.ss08" 
d="M621 1651q-29 0 -48.5 19t-19.5 52t19.5 53.5t48.5 20.5q30 0 49.5 -20.5t19.5 -53.5t-19.5 -52t-49.5 -19zM621 -33q-242 0 -385.5 205t-143.5 553q0 350 144.5 556t384.5 206q191 0 316 -123t171 -348l-111 -8q-35 182 -133 280t-243 98q-189 0 -305.5 -178
t-116.5 -483q0 -303 116.5 -480t305.5 -177q151 0 253.5 105t137.5 304l108 -8q-43 -235 -173.5 -368.5t-325.5 -133.5z" />
    <glyph glyph-name="Edieresis.ss08" 
d="M492 1651q-30 0 -50 19.5t-20 53.5q0 32 20 52t50 20q28 0 47.5 -20t19.5 -52q0 -34 -19 -53.5t-48 -19.5zM774 1651q-29 0 -48 19.5t-19 53.5q0 32 19.5 52t47.5 20q30 0 50 -20t20 -52q0 -34 -20 -53.5t-50 -19.5zM199 0v1454h856v-98h-754v-582h729v-96h-729v-580h770
v-98h-872z" />
    <glyph glyph-name="Edotaccent.ss08" 
d="M635 1651q-30 0 -49 19.5t-19 53.5q0 32 19 52t49 20q29 0 48 -20t19 -52q0 -34 -18.5 -53.5t-48.5 -19.5zM199 0v1454h856v-98h-754v-582h729v-96h-729v-580h770v-98h-872z" />
    <glyph glyph-name="Gdotaccent.ss08" 
d="M606 1651q-30 0 -49.5 19t-19.5 52t19.5 53.5t49.5 20.5q29 0 48.5 -20.5t19.5 -53.5t-19.5 -52t-48.5 -19zM612 -33q-239 0 -379.5 201t-140.5 557q0 228 64 400.5t183 267t277 94.5q192 0 317 -120.5t175 -344.5l-109 -8q-83 372 -383 372q-189 0 -303 -181t-114 -480
q0 -305 113.5 -481t308.5 -176q172 0 282.5 149t116.5 385h-397v94h493v-696h-94l-2 303q-49 -156 -154 -246t-254 -90z" />
    <glyph glyph-name="Idieresis.ss08" 
d="M471 1651q-30 0 -50 19t-20 52t20 53.5t50 20.5q29 0 48.5 -20.5t19.5 -53.5t-19.5 -52t-48.5 -19zM754 1651q-29 0 -48.5 19t-19.5 52t19.5 53.5t48.5 20.5q30 0 49.5 -20.5t19.5 -53.5t-19.5 -52t-49.5 -19zM178 0v98h385v1258h-385v98h873v-98h-385v-1258h385v-98
h-873z" />
    <glyph glyph-name="Idotaccent.ss08" 
d="M614 1651q-30 0 -48.5 19t-18.5 52t18.5 53.5t48.5 20.5t49 -20.5t19 -53.5t-19 -52t-49 -19zM178 0v98h385v1258h-385v98h873v-98h-385v-1258h385v-98h-873z" />
    <glyph glyph-name="Odieresis.ss08" 
d="M471 1651q-30 0 -50 19t-20 52t20 53.5t50 20.5q29 0 48.5 -20.5t19.5 -53.5t-19.5 -52t-48.5 -19zM754 1651q-29 0 -48.5 19t-19.5 52t19.5 53.5t48.5 20.5q30 0 49.5 -20.5t19.5 -53.5t-19.5 -52t-49.5 -19zM614 -33q-245 0 -383.5 202t-138.5 556q0 357 138 559.5
t384 202.5t384.5 -202.5t138.5 -559.5q0 -354 -139 -556t-384 -202zM614 68q199 0 307.5 173.5t108.5 483.5q0 311 -109 486t-307 175t-306.5 -175t-108.5 -486t108.5 -484t306.5 -173z" />
    <glyph glyph-name="Udieresis.ss08" 
d="M471 1651q-30 0 -50 19t-20 52t20 53.5t50 20.5q29 0 48.5 -20.5t19.5 -53.5t-19.5 -52t-48.5 -19zM754 1651q-29 0 -48.5 19t-19.5 52t19.5 53.5t48.5 20.5q30 0 49.5 -20.5t19.5 -53.5t-19.5 -52t-49.5 -19zM614 -33q-221 0 -342.5 142t-121.5 399v946h102v-946
q0 -212 93.5 -326t268.5 -114t269 114t94 326v946h102v-946q0 -257 -122 -399t-343 -142z" />
    <glyph glyph-name="Wdieresis.ss08" 
d="M471 1651q-30 0 -50 19t-20 52t20 53.5t50 20.5q29 0 48.5 -20.5t19.5 -53.5t-19.5 -52t-48.5 -19zM754 1651q-29 0 -48.5 19t-19.5 52t19.5 53.5t48.5 20.5q30 0 49.5 -20.5t19.5 -53.5t-19.5 -52t-49.5 -19zM270 0l-194 1454h104l176 -1348l203 1184h111l202 -1184
l177 1348h104l-195 -1454h-151l-193 1116l-192 -1116h-152z" />
    <glyph glyph-name="Ydieresis.ss08" 
d="M471 1651q-30 0 -50 19t-20 52t20 53.5t50 20.5q29 0 48.5 -20.5t19.5 -53.5t-19.5 -52t-48.5 -19zM754 1651q-29 0 -48.5 19t-19.5 52t19.5 53.5t48.5 20.5q30 0 49.5 -20.5t19.5 -53.5t-19.5 -52t-49.5 -19zM563 0v594l-467 860h119l399 -754l400 754h119l-467 -860
v-594h-103z" />
    <glyph glyph-name="Zdotaccent.ss08" 
d="M614 1651q-30 0 -48.5 19t-18.5 52t18.5 53.5t48.5 20.5t49 -20.5t19 -53.5t-19 -52t-49 -19zM117 0v100l868 1256h-831v98h942v-100l-869 -1256h885v-98h-995z" />
    <glyph glyph-name="Gdotaccent.ss06.ss08" 
d="M621 1651q-30 0 -50 19t-20 52t20 53.5t50 20.5q28 0 47.5 -20.5t19.5 -53.5t-19 -52t-48 -19zM627 -33q-252 0 -399.5 204.5t-147.5 553.5q0 350 147.5 556t399.5 206q182 0 310 -125.5t173 -337.5l-106 -10q-40 171 -140.5 271.5t-236.5 100.5q-204 0 -321.5 -178.5
t-117.5 -482.5q0 -302 117.5 -479.5t321.5 -177.5q182 0 288.5 139.5t106.5 394.5h-397v94h495v-67q0 -319 -131 -490.5t-362 -171.5z" />
    <glyph glyph-name="i.loclTRK" 
d="M629 1276v162h106v-162h-106zM190 0v88h447v909h-426v88h524v-997h385v-88h-930z" />
    <glyph glyph-name="uni006A0301" 
d="M772 1243l143 246h111l-172 -246h-82zM252 -307v88h315q106 0 157.5 53t51.5 170v993h-516v88h614v-1085q0 -155 -73.5 -231t-227.5 -76h-321z" />
    <glyph glyph-name="uni013C.loclMAH" 
d="M150 0v88h446v1124q0 74 -40 114t-114 40h-252v88h252q120 0 186 -66t66 -186v-1114h385v-88h-929zM547 -395l86 168h-55v127h137v-117l-99 -178h-69z" />
    <glyph glyph-name="uni0146.loclMAH" 
d="M199 0v1085h92l2 -225q36 120 137 185t232 65q177 0 272.5 -116t95.5 -296v-698h-98v649q0 174 -71 271.5t-220 97.5q-155 0 -249.5 -101t-94.5 -268v-649h-98zM524 -395l86 168h-55v127h135v-117l-98 -178h-68z" />
    <glyph glyph-name="a.ss01" 
d="M477 -25q-157 0 -254.5 80.5t-97.5 212.5q0 124 87 200.5t247 106.5l403 80q0 185 -72.5 272t-220.5 87q-135 0 -215 -66t-104 -192l-107 8q29 164 139.5 255t286.5 91q188 0 290 -113t102 -329v-668h-91l-8 207q-46 -101 -150.5 -166.5t-234.5 -65.5zM481 68
q174 0 277.5 99t103.5 255v145l-381 -75q-126 -25 -190 -77.5t-64 -138.5q0 -101 66.5 -154.5t187.5 -53.5z" />
    <glyph glyph-name="aacute.ss01" 
d="M573 1243l144 246h110l-170 -246h-84zM477 -25q-157 0 -254.5 80.5t-97.5 212.5q0 124 87 200.5t247 106.5l403 80q0 185 -72.5 272t-220.5 87q-135 0 -215 -66t-104 -192l-107 8q29 164 139.5 255t286.5 91q188 0 290 -113t102 -329v-668h-91l-8 207
q-46 -101 -150.5 -166.5t-234.5 -65.5zM481 68q174 0 277.5 99t103.5 255v145l-381 -75q-126 -25 -190 -77.5t-64 -138.5q0 -101 66.5 -154.5t187.5 -53.5z" />
    <glyph glyph-name="abreve.ss01" 
d="M623 1255q-113 0 -184 66.5t-83 179.5h76q10 -81 61 -123.5t130 -42.5q78 0 128 42t60 124h76q-12 -114 -81.5 -180t-182.5 -66zM477 -25q-157 0 -254.5 80.5t-97.5 212.5q0 124 87 200.5t247 106.5l403 80q0 185 -72.5 272t-220.5 87q-135 0 -215 -66t-104 -192l-107 8
q29 164 139.5 255t286.5 91q188 0 290 -113t102 -329v-668h-91l-8 207q-46 -101 -150.5 -166.5t-234.5 -65.5zM481 68q174 0 277.5 99t103.5 255v145l-381 -75q-126 -25 -190 -77.5t-64 -138.5q0 -101 66.5 -154.5t187.5 -53.5z" />
    <glyph glyph-name="uni01CE.ss01" 
d="M389 1501h86l148 -196l145 196h86l-184 -260h-95zM477 -25q-157 0 -254.5 80.5t-97.5 212.5q0 124 87 200.5t247 106.5l403 80q0 185 -72.5 272t-220.5 87q-135 0 -215 -66t-104 -192l-107 8q29 164 139.5 255t286.5 91q188 0 290 -113t102 -329v-668h-91l-8 207
q-46 -101 -150.5 -166.5t-234.5 -65.5zM481 68q174 0 277.5 99t103.5 255v145l-381 -75q-126 -25 -190 -77.5t-64 -138.5q0 -101 66.5 -154.5t187.5 -53.5z" />
    <glyph glyph-name="acircumflex.ss01" 
d="M389 1241l184 260h95l186 -260h-86l-147 197l-146 -197h-86zM477 -25q-157 0 -254.5 80.5t-97.5 212.5q0 124 87 200.5t247 106.5l403 80q0 185 -72.5 272t-220.5 87q-135 0 -215 -66t-104 -192l-107 8q29 164 139.5 255t286.5 91q188 0 290 -113t102 -329v-668h-91
l-8 207q-46 -101 -150.5 -166.5t-234.5 -65.5zM481 68q174 0 277.5 99t103.5 255v145l-381 -75q-126 -25 -190 -77.5t-64 -138.5q0 -101 66.5 -154.5t187.5 -53.5z" />
    <glyph glyph-name="adieresis.ss01" 
d="M389 1276v162h107v-162h-107zM745 1276v162h107v-162h-107zM477 -25q-157 0 -254.5 80.5t-97.5 212.5q0 124 87 200.5t247 106.5l403 80q0 185 -72.5 272t-220.5 87q-135 0 -215 -66t-104 -192l-107 8q29 164 139.5 255t286.5 91q188 0 290 -113t102 -329v-668h-91
l-8 207q-46 -101 -150.5 -166.5t-234.5 -65.5zM481 68q174 0 277.5 99t103.5 255v145l-381 -75q-126 -25 -190 -77.5t-64 -138.5q0 -101 66.5 -154.5t187.5 -53.5z" />
    <glyph glyph-name="agrave.ss01" 
d="M586 1243l-170 246h110l144 -246h-84zM477 -25q-157 0 -254.5 80.5t-97.5 212.5q0 124 87 200.5t247 106.5l403 80q0 185 -72.5 272t-220.5 87q-135 0 -215 -66t-104 -192l-107 8q29 164 139.5 255t286.5 91q188 0 290 -113t102 -329v-668h-91l-8 207
q-46 -101 -150.5 -166.5t-234.5 -65.5zM481 68q174 0 277.5 99t103.5 255v145l-381 -75q-126 -25 -190 -77.5t-64 -138.5q0 -101 66.5 -154.5t187.5 -53.5z" />
    <glyph glyph-name="amacron.ss01" 
d="M360 1307v86h523v-86h-523zM477 -25q-157 0 -254.5 80.5t-97.5 212.5q0 124 87 200.5t247 106.5l403 80q0 185 -72.5 272t-220.5 87q-135 0 -215 -66t-104 -192l-107 8q29 164 139.5 255t286.5 91q188 0 290 -113t102 -329v-668h-91l-8 207q-46 -101 -150.5 -166.5
t-234.5 -65.5zM481 68q174 0 277.5 99t103.5 255v145l-381 -75q-126 -25 -190 -77.5t-64 -138.5q0 -101 66.5 -154.5t187.5 -53.5z" />
    <glyph glyph-name="aogonek.ss01" 
d="M477 -25q-157 0 -254.5 80.5t-97.5 212.5q0 124 87 200.5t247 106.5l403 80q0 185 -72.5 272t-220.5 87q-135 0 -215 -66t-104 -192l-107 8q29 164 139.5 255t286.5 91q188 0 290 -113t102 -329v-668l-56 -80q-71 -99 -71 -164q0 -38 21 -59t54 -21q58 0 97 31l36 -69
q-60 -44 -143 -44q-71 0 -114.5 36.5t-43.5 105.5q0 91 86 205l43 59l-8 207q-46 -101 -150.5 -166.5t-234.5 -65.5zM481 68q174 0 277.5 99t103.5 255v145l-381 -75q-126 -25 -190 -77.5t-64 -138.5q0 -101 66.5 -154.5t187.5 -53.5z" />
    <glyph glyph-name="aring.ss01" 
d="M621 1202q-70 0 -116 45t-46 115q0 68 46.5 114t115.5 46t115 -46t46 -114q0 -69 -46 -114.5t-115 -45.5zM621 1270q41 0 66.5 25.5t25.5 66.5q0 40 -25.5 65t-66.5 25t-67 -25t-26 -65q0 -41 26 -66.5t67 -25.5zM477 -25q-157 0 -254.5 80.5t-97.5 212.5q0 124 87 200.5
t247 106.5l403 80q0 185 -72.5 272t-220.5 87q-135 0 -215 -66t-104 -192l-107 8q29 164 139.5 255t286.5 91q188 0 290 -113t102 -329v-668h-91l-8 207q-46 -101 -150.5 -166.5t-234.5 -65.5zM481 68q174 0 277.5 99t103.5 255v145l-381 -75q-126 -25 -190 -77.5
t-64 -138.5q0 -101 66.5 -154.5t187.5 -53.5z" />
    <glyph glyph-name="atilde.ss01" 
d="M748 1276q-71 0 -136 65q-30 30 -53 43t-55 13q-92 0 -98 -131h-72q4 95 51 147.5t119 52.5q46 0 79.5 -17.5t69.5 -53.5q55 -49 97 -49q41 0 62.5 32t27.5 107h69q-6 -99 -48 -154t-113 -55zM477 -25q-157 0 -254.5 80.5t-97.5 212.5q0 124 87 200.5t247 106.5l403 80
q0 185 -72.5 272t-220.5 87q-135 0 -215 -66t-104 -192l-107 8q29 164 139.5 255t286.5 91q188 0 290 -113t102 -329v-668h-91l-8 207q-46 -101 -150.5 -166.5t-234.5 -65.5zM481 68q174 0 277.5 99t103.5 255v145l-381 -75q-126 -25 -190 -77.5t-64 -138.5
q0 -101 66.5 -154.5t187.5 -53.5z" />
    <glyph glyph-name="a.ss02" 
d="M590 -25q-142 0 -246 73t-156.5 200.5t-52.5 294.5q0 253 120.5 408t334.5 155q120 0 218.5 -67t143.5 -177v223h99v-1085h-82l-6 229q-53 -118 -152 -186t-221 -68zM602 70q159 0 259 137.5t100 335.5t-100 334.5t-259 136.5q-171 0 -266.5 -129.5t-95.5 -341.5
t95.5 -342.5t266.5 -130.5z" />
    <glyph glyph-name="aacute.ss02" 
d="M549 1243l143 246h111l-170 -246h-84zM590 -25q-142 0 -246 73t-156.5 200.5t-52.5 294.5q0 253 120.5 408t334.5 155q120 0 218.5 -67t143.5 -177v223h99v-1085h-82l-6 229q-53 -118 -152 -186t-221 -68zM602 70q159 0 259 137.5t100 335.5t-100 334.5t-259 136.5
q-171 0 -266.5 -129.5t-95.5 -341.5t95.5 -342.5t266.5 -130.5z" />
    <glyph glyph-name="abreve.ss02" 
d="M596 1255q-113 0 -182.5 66t-81.5 180h76q10 -82 60 -124t128 -42q79 0 129.5 42.5t60.5 123.5h76q-12 -114 -82.5 -180t-183.5 -66zM590 -25q-142 0 -246 73t-156.5 200.5t-52.5 294.5q0 253 120.5 408t334.5 155q120 0 218.5 -67t143.5 -177v223h99v-1085h-82l-6 229
q-53 -118 -152 -186t-221 -68zM602 70q159 0 259 137.5t100 335.5t-100 334.5t-259 136.5q-171 0 -266.5 -129.5t-95.5 -341.5t95.5 -342.5t266.5 -130.5z" />
    <glyph glyph-name="uni01CE.ss02" 
d="M365 1501h86l145 -196l147 196h86l-186 -260h-94zM590 -25q-142 0 -246 73t-156.5 200.5t-52.5 294.5q0 253 120.5 408t334.5 155q120 0 218.5 -67t143.5 -177v223h99v-1085h-82l-6 229q-53 -118 -152 -186t-221 -68zM602 70q159 0 259 137.5t100 335.5t-100 334.5
t-259 136.5q-171 0 -266.5 -129.5t-95.5 -341.5t95.5 -342.5t266.5 -130.5z" />
    <glyph glyph-name="acircumflex.ss02" 
d="M365 1241l184 260h94l184 -260h-86l-145 197l-145 -197h-86zM590 -25q-142 0 -246 73t-156.5 200.5t-52.5 294.5q0 253 120.5 408t334.5 155q120 0 218.5 -67t143.5 -177v223h99v-1085h-82l-6 229q-53 -118 -152 -186t-221 -68zM602 70q159 0 259 137.5t100 335.5
t-100 334.5t-259 136.5q-171 0 -266.5 -129.5t-95.5 -341.5t95.5 -342.5t266.5 -130.5z" />
    <glyph glyph-name="adieresis.ss02" 
d="M362 1276v162h107v-162h-107zM721 1276v162h106v-162h-106zM590 -25q-142 0 -246 73t-156.5 200.5t-52.5 294.5q0 253 120.5 408t334.5 155q120 0 218.5 -67t143.5 -177v223h99v-1085h-82l-6 229q-53 -118 -152 -186t-221 -68zM602 70q159 0 259 137.5t100 335.5
t-100 334.5t-259 136.5q-171 0 -266.5 -129.5t-95.5 -341.5t95.5 -342.5t266.5 -130.5z" />
    <glyph glyph-name="agrave.ss02" 
d="M561 1243l-170 246h111l143 -246h-84zM590 -25q-142 0 -246 73t-156.5 200.5t-52.5 294.5q0 253 120.5 408t334.5 155q120 0 218.5 -67t143.5 -177v223h99v-1085h-82l-6 229q-53 -118 -152 -186t-221 -68zM602 70q159 0 259 137.5t100 335.5t-100 334.5t-259 136.5
q-171 0 -266.5 -129.5t-95.5 -341.5t95.5 -342.5t266.5 -130.5z" />
    <glyph glyph-name="amacron.ss02" 
d="M336 1307v86h520v-86h-520zM590 -25q-142 0 -246 73t-156.5 200.5t-52.5 294.5q0 253 120.5 408t334.5 155q120 0 218.5 -67t143.5 -177v223h99v-1085h-82l-6 229q-53 -118 -152 -186t-221 -68zM602 70q159 0 259 137.5t100 335.5t-100 334.5t-259 136.5
q-171 0 -266.5 -129.5t-95.5 -341.5t95.5 -342.5t266.5 -130.5z" />
    <glyph glyph-name="aogonek.ss02" 
d="M590 -25q-142 0 -246 73t-156.5 200.5t-52.5 294.5q0 253 120.5 408t334.5 155q120 0 218.5 -67t143.5 -177v223h99v-1085l-58 -80q-69 -97 -69 -164q0 -39 20 -59.5t53 -20.5q60 0 99 31l34 -69q-57 -44 -143 -44q-71 0 -114.5 36.5t-43.5 105.5q0 91 86 205l52 69h2
l-6 219q-53 -118 -152 -186t-221 -68zM602 70q159 0 259 137.5t100 335.5t-100 334.5t-259 136.5q-171 0 -266.5 -129.5t-95.5 -341.5t95.5 -342.5t266.5 -130.5z" />
    <glyph glyph-name="aring.ss02" 
d="M596 1202q-71 0 -116.5 45t-45.5 115q0 68 46 114t116 46q68 0 114 -46t46 -114q0 -69 -45.5 -114.5t-114.5 -45.5zM596 1270q40 0 65 25.5t25 66.5q0 40 -25 65t-65 25q-41 0 -66.5 -25t-25.5 -65q0 -41 25.5 -66.5t66.5 -25.5zM590 -25q-142 0 -246 73t-156.5 200.5
t-52.5 294.5q0 253 120.5 408t334.5 155q120 0 218.5 -67t143.5 -177v223h99v-1085h-82l-6 229q-53 -118 -152 -186t-221 -68zM602 70q159 0 259 137.5t100 335.5t-100 334.5t-259 136.5q-171 0 -266.5 -129.5t-95.5 -341.5t95.5 -342.5t266.5 -130.5z" />
    <glyph glyph-name="atilde.ss02" 
d="M723 1276q-70 0 -135 65q-33 31 -55.5 43.5t-55.5 12.5q-92 0 -98 -131h-70q4 95 50 147.5t118 52.5q81 0 152 -71q30 -27 51 -38t45 -11q40 0 61 32t27 107h72q-6 -99 -48 -154t-114 -55zM590 -25q-142 0 -246 73t-156.5 200.5t-52.5 294.5q0 253 120.5 408t334.5 155
q120 0 218.5 -67t143.5 -177v223h99v-1085h-82l-6 229q-53 -118 -152 -186t-221 -68zM602 70q159 0 259 137.5t100 335.5t-100 334.5t-259 136.5q-171 0 -266.5 -129.5t-95.5 -341.5t95.5 -342.5t266.5 -130.5z" />
    <glyph glyph-name="l.ss03" 
d="M809 0q-117 0 -174 55.5t-57 169.5v1141h-388v88h486v-1229q0 -74 30.5 -105.5t102.5 -31.5h311v-88h-311z" />
    <glyph glyph-name="lacute.ss03" 
d="M567 1612l144 246h110l-172 -246h-82zM809 0q-117 0 -174 55.5t-57 169.5v1141h-388v88h486v-1229q0 -74 30.5 -105.5t102.5 -31.5h311v-88h-311z" />
    <glyph glyph-name="lcaron.ss03" 
d="M809 0q-117 0 -174 55.5t-57 169.5v1141h-388v88h486v-1229q0 -74 30.5 -105.5t102.5 -31.5h311v-88h-311zM866 997l68 457h108l-98 -457h-78z" />
    <glyph glyph-name="uni013C.ss03" 
d="M809 0q-117 0 -174 55.5t-57 169.5v1141h-388v88h486v-1229q0 -74 30.5 -105.5t102.5 -31.5h311v-88h-311zM518 -395l86 168h-57v127h137v-117l-98 -178h-68z" />
    <glyph glyph-name="lslash.ss03" 
d="M403 649l-38 82l213 98v537h-385v88h483v-580l151 70l39 -82l-190 -88v-549q0 -74 30.5 -105.5t102.5 -31.5h311v-88h-311q-117 0 -174 55.5t-57 169.5v504z" />
    <glyph glyph-name="adieresis.ss08" 
d="M430 1282q-30 0 -50 19.5t-20 52.5t20 53t50 20q29 0 48.5 -20t19.5 -53t-19.5 -52.5t-48.5 -19.5zM713 1282q-29 0 -48.5 19.5t-19.5 52.5t19.5 53t48.5 20q30 0 49.5 -20t19.5 -53t-19.5 -52.5t-49.5 -19.5zM477 -25q-157 0 -254.5 80.5t-97.5 212.5q0 124 87 200.5
t247 106.5l403 80q0 185 -72.5 272t-220.5 87q-135 0 -215 -66t-104 -192l-107 8q29 164 139.5 255t286.5 91q188 0 290 -113t102 -329v-457q0 -69 20.5 -94t67.5 -25h63v-92q-24 -4 -76 -4q-81 0 -123 42.5t-51 151.5q-48 -94 -151 -154.5t-234 -60.5zM481 68
q174 0 277.5 99t103.5 255v145l-381 -75q-126 -25 -190 -77.5t-64 -138.5q0 -101 66.5 -154.5t187.5 -53.5z" />
    <glyph glyph-name="cdotaccent.ss08" 
d="M643 1282q-30 0 -50 19.5t-20 52.5t20 53t50 20q29 0 48.5 -20t19.5 -53t-19.5 -52.5t-48.5 -19.5zM645 -25q-112 0 -203 44t-150 120.5t-90.5 180t-31.5 223.5q0 162 53.5 288.5t163 202.5t258.5 76q167 0 277.5 -99.5t150.5 -267.5l-104 -8q-32 133 -116 206t-208 73
q-172 0 -271.5 -126.5t-99.5 -344.5t99.5 -344.5t271.5 -126.5q125 0 213 78.5t117 220.5l104 -9q-38 -175 -152 -281t-282 -106z" />
    <glyph glyph-name="edieresis.ss08" 
d="M481 1280q-30 0 -48.5 19.5t-18.5 54.5q0 32 18.5 51.5t48.5 19.5t49 -19.5t19 -51.5q0 -34 -19 -54t-49 -20zM766 1280q-30 0 -50 20t-20 54q0 32 20 51.5t50 19.5q28 0 48 -19.5t20 -51.5q0 -34 -19.5 -54t-48.5 -20zM635 -25q-151 0 -261.5 76t-165 203t-54.5 289
q0 161 53.5 288t162.5 203t257 76q147 0 253.5 -73.5t159 -199t52.5 -286.5v-33h-834q4 -210 105.5 -328t271.5 -118q127 0 212 62t118 171l106 -8q-43 -144 -158 -233t-278 -89zM258 606h727q-9 193 -102.5 300.5t-255.5 107.5q-158 0 -257 -108t-112 -300z" />
    <glyph glyph-name="edotaccent.ss08" 
d="M625 1280q-29 0 -48.5 20t-19.5 54q0 32 19.5 51.5t48.5 19.5q30 0 49.5 -19.5t19.5 -51.5q0 -34 -19.5 -54t-49.5 -20zM635 -25q-151 0 -261.5 76t-165 203t-54.5 289q0 161 53.5 288t162.5 203t257 76q147 0 253.5 -73.5t159 -199t52.5 -286.5v-33h-834
q4 -210 105.5 -328t271.5 -118q127 0 212 62t118 171l106 -8q-43 -144 -158 -233t-278 -89zM258 606h727q-9 193 -102.5 300.5t-255.5 107.5q-158 0 -257 -108t-112 -300z" />
    <glyph glyph-name="gdotaccent.ss08" 
d="M600 1282q-29 0 -48.5 19.5t-19.5 52.5t19.5 53t48.5 20q30 0 50 -20t20 -53t-20 -52.5t-50 -19.5zM602 -332q-171 0 -288 89t-132 229l105 8q12 -107 93.5 -168.5t221.5 -61.5q167 0 258.5 87t91.5 249v199q-47 -113 -140.5 -179.5t-217.5 -66.5q-207 0 -332 145
t-125 386q0 236 124.5 381t328.5 145q129 0 226.5 -70.5t139.5 -185.5v231h95v-985q0 -202 -119.5 -317t-329.5 -115zM596 150q162 0 259 117.5t97 316.5q2 190 -97 310t-259 120q-164 0 -260 -116.5t-96 -313.5q0 -199 96.5 -316.5t259.5 -117.5z" />
    <glyph glyph-name="i.ss08" 
d="M682 1282q-29 0 -48.5 19.5t-19.5 52.5t19.5 53t48.5 20q30 0 50 -20t20 -53t-20 -52.5t-50 -19.5zM190 0v88h447v909h-426v88h524v-997h385v-88h-930z" />
    <glyph glyph-name="idieresis.ss08" 
d="M539 1282q-30 0 -49 19.5t-19 52.5t19 53t49 20t48.5 -20t18.5 -53t-18.5 -52.5t-48.5 -19.5zM823 1282q-30 0 -49.5 19.5t-19.5 52.5t19.5 53t49.5 20q29 0 48.5 -20t19.5 -53t-19.5 -52.5t-48.5 -19.5zM190 0v88h447v909h-426v88h524v-997h385v-88h-930z" />
    <glyph glyph-name="i.loclTRK.ss08" 
d="M682 1282q-29 0 -48.5 19.5t-19.5 52.5t19.5 53t48.5 20q30 0 50 -20t20 -53t-20 -52.5t-50 -19.5zM190 0v88h447v909h-426v88h524v-997h385v-88h-930z" />
    <glyph glyph-name="iogonek.ss08" 
d="M682 1282q-29 0 -48.5 19.5t-19.5 52.5t19.5 53t48.5 20q30 0 50 -20t20 -53t-20 -52.5t-50 -19.5zM190 0v88h447v909h-426v88h524v-997h385v-88l-57 -80q-70 -98 -70 -164q0 -39 20.5 -59.5t53.5 -20.5q59 0 98 31l35 -69q-57 -44 -143 -44q-71 0 -114.5 36.5
t-43.5 105.5q0 91 86 205l43 59h-838z" />
    <glyph glyph-name="j.ss08" 
d="M819 1282q-30 0 -48.5 19.5t-18.5 52.5t18.5 53t48.5 20t49 -20t19 -53t-19 -52.5t-49 -19.5zM252 -307v88h315q106 0 157.5 53t51.5 170v993h-516v88h614v-1085q0 -155 -73.5 -231t-227.5 -76h-321z" />
    <glyph glyph-name="odieresis.ss08" 
d="M471 1282q-30 0 -50 19.5t-20 52.5t20 53t50 20q29 0 48.5 -20t19.5 -53t-19.5 -52.5t-48.5 -19.5zM754 1282q-29 0 -48.5 19.5t-19.5 52.5t19.5 53t48.5 20q30 0 49.5 -20t19.5 -53t-19.5 -52.5t-49.5 -19.5zM614 -25q-216 0 -342.5 153.5t-126.5 414.5t126 414t343 153
t343 -153t126 -414t-126.5 -414.5t-342.5 -153.5zM614 72q171 0 268 126t97 345t-97 345t-268 126t-267.5 -126t-96.5 -345t96.5 -345t267.5 -126z" />
    <glyph glyph-name="udieresis.ss08" 
d="M457 1282q-30 0 -50 19.5t-20 52.5t20 53t50 20q29 0 48 -20t19 -53t-19 -52.5t-48 -19.5zM739 1282q-29 0 -48 19.5t-19 52.5t19 53t48 20q30 0 50 -20t20 -53t-20 -52.5t-50 -19.5zM553 -25q-162 0 -258 110t-96 302v698h98v-665q0 -176 72 -264t211 -88
q152 0 240.5 99t88.5 269v649h99v-1085h-90l-5 217q-35 -116 -128.5 -179t-231.5 -63z" />
    <glyph glyph-name="wdieresis.ss08" 
d="M471 1282q-30 0 -50 19.5t-20 52.5t20 53t50 20q29 0 48.5 -20t19.5 -53t-19.5 -52.5t-48.5 -19.5zM754 1282q-29 0 -48.5 19.5t-19.5 52.5t19.5 53t48.5 20q30 0 49.5 -20t19.5 -53t-19.5 -52.5t-49.5 -19.5zM303 0l-248 1085h107l205 -985l198 840h99l198 -840l205 985
h107l-248 -1085h-121l-191 793l-190 -793h-121z" />
    <glyph glyph-name="ydieresis.ss08" 
d="M485 1282q-29 0 -48 19.5t-19 52.5t19 53t48 20q30 0 50 -20t20 -53t-20 -52.5t-50 -19.5zM770 1282q-30 0 -49 19.5t-19 52.5t19 53t49 20t49 -20t19 -53t-19 -52.5t-49 -19.5zM289 -307v88h96q77 0 114 26t62 95l45 118h-41l-422 1065h107l383 -985l356 985h107
l-451 -1218q-36 -95 -92 -134.5t-162 -39.5h-102z" />
    <glyph glyph-name="zdotaccent.ss08" 
d="M616 1282q-30 0 -48.5 19.5t-18.5 52.5t18.5 53t48.5 20t49 -20t19 -53t-19 -52.5t-49 -19.5zM178 0v98l746 899h-725v88h835v-98l-745 -899h762v-88h-873z" />
    <glyph glyph-name="adieresis.ss01.ss08" 
d="M477 1282q-29 0 -48 19.5t-19 52.5t19 53t48 20q30 0 50 -20t20 -53t-20 -52.5t-50 -19.5zM762 1282q-30 0 -49 19.5t-19 52.5t19 53t49 20t48.5 -20t18.5 -53t-18.5 -52.5t-48.5 -19.5zM477 -25q-157 0 -254.5 80.5t-97.5 212.5q0 124 87 200.5t247 106.5l403 80
q0 185 -72.5 272t-220.5 87q-135 0 -215 -66t-104 -192l-107 8q29 164 139.5 255t286.5 91q188 0 290 -113t102 -329v-668h-91l-8 207q-46 -101 -150.5 -166.5t-234.5 -65.5zM481 68q174 0 277.5 99t103.5 255v145l-381 -75q-126 -25 -190 -77.5t-64 -138.5
q0 -101 66.5 -154.5t187.5 -53.5z" />
    <glyph glyph-name="adieresis.ss02.ss08" 
d="M453 1282q-30 0 -49 19.5t-19 52.5t19 53t49 20t48.5 -20t18.5 -53t-18.5 -52.5t-48.5 -19.5zM737 1282q-30 0 -49.5 19.5t-19.5 52.5t19.5 53t49.5 20q29 0 48.5 -20t19.5 -53t-19.5 -52.5t-48.5 -19.5zM590 -25q-142 0 -246 73t-156.5 200.5t-52.5 294.5
q0 253 120.5 408t334.5 155q120 0 218.5 -67t143.5 -177v223h99v-1085h-82l-6 229q-53 -118 -152 -186t-221 -68zM602 70q159 0 259 137.5t100 335.5t-100 334.5t-259 136.5q-171 0 -266.5 -129.5t-95.5 -341.5t95.5 -342.5t266.5 -130.5z" />
    <glyph glyph-name="zero.ss09" 
d="M614 -33q-149 0 -262 95t-174 267t-61 396q0 342 136 552t361 210t361.5 -210t136.5 -552q0 -224 -61.5 -396t-174.5 -267t-262 -95zM614 68q176 0 284 182t108 475q0 296 -108 478.5t-284 182.5t-283.5 -182.5t-107.5 -478.5q0 -293 107.5 -475t283.5 -182z" />
    <glyph glyph-name="zero.dnom" 
d="M614 -16q-141 0 -224 111t-83 302q0 193 82 302.5t225 109.5t225.5 -109.5t82.5 -302.5q0 -191 -83 -302t-225 -111zM393 397q0 -135 43 -217l312 500q-53 53 -134 53q-104 0 -162.5 -88.5t-58.5 -247.5zM614 59q103 0 162.5 89.5t59.5 248.5q0 137 -43 219l-312 -499
q55 -58 133 -58z" />
    <glyph glyph-name="one.dnom" 
d="M672 0v563h-199v64h35q184 0 184 166h64v-793h-84z" />
    <glyph glyph-name="two.dnom" 
d="M342 0q0 131 48 207.5t181 148.5l80 45q90 48 118 84.5t28 96.5q0 71 -46.5 110t-125.5 39q-84 0 -132 -46t-63 -140l-86 6q14 123 86.5 190.5t194.5 67.5q120 0 189 -61t69 -166q0 -84 -44 -136.5t-151 -109.5l-70 -37q-95 -52 -137.5 -105t-40.5 -116h434v-78h-532z
" />
    <glyph glyph-name="three.dnom" 
d="M618 -16q-274 0 -288 225l86 6q6 -76 52 -115t150 -39q97 0 147 42t50 120q0 72 -51 117t-146 45h-55v74h55q73 0 118.5 34.5t45.5 108.5q0 60 -41.5 94.5t-126.5 34.5q-82 0 -125 -35t-49 -98l-88 8q12 94 81 148.5t181 54.5q123 0 187.5 -55t64.5 -148
q0 -139 -145 -182q180 -44 180 -201q0 -109 -77 -174t-206 -65z" />
    <glyph glyph-name="four.dnom" 
d="M702 0v190h-383v66l388 537h79v-527h125v-76h-125v-190h-84zM412 266h290v406z" />
    <glyph glyph-name="five.dnom" 
d="M608 -16q-116 0 -186 56t-82 153l88 6q16 -138 182 -138q88 0 141.5 53t53.5 142t-47 141t-131 52q-130 0 -193 -117h-84l56 461h436v-78h-363l-37 -287q22 43 74 69.5t121 26.5q119 0 186.5 -73t67.5 -195t-78 -197t-205 -75z" />
    <glyph glyph-name="six.dnom" 
d="M618 -16q-135 0 -210.5 93t-75.5 275q0 205 80 331t229 126q102 0 163 -48t87 -147l-80 -8q-17 65 -58 96t-112 31q-100 0 -159.5 -88t-63.5 -244q28 61 83.5 96t129.5 35q117 0 191.5 -72.5t74.5 -195.5q0 -128 -77 -204t-202 -76zM621 59q86 0 139 56.5t53 150.5
q0 87 -51 140t-137 53q-84 0 -142.5 -57t-58.5 -142q0 -90 54.5 -145.5t142.5 -55.5z" />
    <glyph glyph-name="seven.dnom" 
d="M522 0q0 179 71 367t189 348h-424v78h512v-68q-119 -161 -189.5 -349t-70.5 -376h-88z" />
    <glyph glyph-name="eight.dnom" 
d="M614 -16q-137 0 -213.5 57t-76.5 170q0 83 46 138t126 81q-134 45 -134 174q0 99 62.5 152t189.5 53t189.5 -53t62.5 -152q0 -129 -133 -174q80 -26 126 -81t46 -138q0 -113 -77 -170t-214 -57zM614 469q77 0 121.5 33t44.5 98t-39.5 98t-126.5 33t-126 -33t-39 -98
t44.5 -98t120.5 -33zM614 61q205 0 205 154q0 78 -56.5 127t-148.5 49t-148 -49t-56 -127q0 -154 204 -154z" />
    <glyph glyph-name="nine.dnom" 
d="M610 809q135 0 211 -93.5t76 -275.5q0 -205 -80 -330.5t-229 -125.5q-102 0 -163 47.5t-87 146.5l80 8q17 -65 58 -96t112 -31q100 0 159.5 88t63.5 244q-28 -61 -83.5 -96t-129.5 -35q-117 0 -191.5 72.5t-74.5 195.5q0 128 76.5 204.5t201.5 76.5zM608 733
q-86 0 -139 -56.5t-53 -150.5q0 -87 51 -139.5t137 -52.5q84 0 142.5 56.5t58.5 141.5q0 90 -54.5 145.5t-142.5 55.5z" />
    <glyph glyph-name="zero.numr" 
d="M614 645q-141 0 -224 111t-83 303q0 193 82 302t225 109t225.5 -109t82.5 -302q0 -191 -83.5 -302.5t-224.5 -111.5zM393 1059q0 -135 43 -217l312 499q-54 54 -134 54q-104 0 -162.5 -88.5t-58.5 -247.5zM614 721q103 0 162.5 89.5t59.5 248.5q0 137 -43 219l-312 -500
q54 -57 133 -57z" />
    <glyph glyph-name="one.numr" 
d="M672 662v563h-199v63h35q184 0 184 166h64v-792h-84z" />
    <glyph glyph-name="two.numr" 
d="M342 662q0 131 48 207.5t181 148.5l80 45q90 48 118 84t28 96q0 71 -46.5 110.5t-125.5 39.5q-165 0 -195 -187l-86 6q14 123 86.5 190.5t194.5 67.5q120 0 189 -61t69 -166q0 -84 -44 -136.5t-151 -109.5l-70 -36q-95 -52 -137.5 -105.5t-40.5 -116.5h434v-77h-532z" />
    <glyph glyph-name="three.numr" 
d="M618 645q-274 0 -288 225l86 7q6 -76 52 -115t150 -39q97 0 147 42t50 120q0 72 -51 117t-146 45h-55v73h55q72 0 118 34.5t46 109.5q0 60 -41.5 94.5t-126.5 34.5q-82 0 -125 -35t-49 -98l-88 8q12 94 81 148t181 54q123 0 187.5 -54.5t64.5 -147.5q0 -140 -145 -183
q180 -44 180 -200q0 -109 -77 -174.5t-206 -65.5z" />
    <glyph glyph-name="four.numr" 
d="M702 662v190h-383v66l388 536h79v-526h125v-76h-125v-190h-84zM412 928h290v405z" />
    <glyph glyph-name="five.numr" 
d="M608 645q-116 0 -186 56t-82 153l88 6q16 -137 182 -137q88 0 141.5 53t53.5 142t-47 140.5t-131 51.5q-130 0 -193 -117h-84l56 461h436v-78h-363l-37 -286q22 43 74 69.5t121 26.5q119 0 186.5 -73t67.5 -195t-78 -197.5t-205 -75.5z" />
    <glyph glyph-name="six.numr" 
d="M618 645q-135 0 -210.5 93.5t-75.5 275.5q0 205 80 330.5t229 125.5q102 0 163 -47.5t87 -146.5l-80 -8q-17 65 -58 96t-112 31q-100 0 -159.5 -88t-63.5 -244q28 61 83.5 96t129.5 35q117 0 191.5 -72.5t74.5 -195.5q0 -128 -77 -204.5t-202 -76.5zM621 721
q86 0 139 56.5t53 150.5q0 87 -51 139.5t-137 52.5q-84 0 -142.5 -56.5t-58.5 -141.5q0 -90 54.5 -145.5t142.5 -55.5z" />
    <glyph glyph-name="seven.numr" 
d="M522 662q0 177 71 366t189 348h-424v78h512v-68q-120 -161 -190 -348.5t-70 -375.5h-88z" />
    <glyph glyph-name="eight.numr" 
d="M614 645q-137 0 -213.5 57t-76.5 170q0 83 46 138.5t126 81.5q-134 45 -134 174q0 99 62.5 151.5t189.5 52.5t189.5 -52.5t62.5 -151.5q0 -129 -133 -174q80 -26 126 -81.5t46 -138.5q0 -113 -77 -170t-214 -57zM614 1130q76 0 121 33.5t45 98.5t-39.5 98t-126.5 33
t-126 -33t-39 -98t44.5 -98.5t120.5 -33.5zM614 723q205 0 205 154q0 78 -56.5 127t-148.5 49t-148 -49t-56 -127q0 -154 204 -154z" />
    <glyph glyph-name="nine.numr" 
d="M610 1470q135 0 211 -93t76 -275q0 -205 -80 -331t-229 -126q-102 0 -163 48t-87 147l80 8q17 -65 58 -96t112 -31q100 0 159.5 88t63.5 244q-28 -61 -83.5 -96t-129.5 -35q-117 0 -191.5 72.5t-74.5 195.5q0 128 76.5 204t201.5 76zM608 1395q-86 0 -139 -56.5
t-53 -150.5q0 -87 51 -140t137 -53q84 0 142.5 57t58.5 142q0 90 -54.5 145.5t-142.5 55.5z" />
    <glyph glyph-name="hyphen_hyphen.liga" 
d="M86 588v94h889v-94h-889zM-975 588v94h887v-94h-887z" />
    <glyph glyph-name="hyphen_hyphen_hyphen.liga" 
d="M25 588v94h925v-94h-925zM-2179 588v94h924v-94h-924zM-1077 588v94h923v-94h-923z" />
    <glyph glyph-name="hyphen_hyphen_hyphen_greater.liga" 
d="M432 96l488 492h-4479v96h4483l-490 490h131l537 -539l-539 -537z" />
    <glyph glyph-name="hyphen_hyphen_greater.liga" 
d="M432 96l488 492h-3251v96h3255l-490 490h131l537 -539l-539 -537z" />
    <glyph glyph-name="hyphen_greater.liga" 
d="M432 96l488 492h-2022v96h2026l-490 490h131l537 -539l-539 -537z" />
    <glyph glyph-name="hyphen_greater_greater.liga" 
d="M432 96l539 539l-537 539h131l537 -539l-539 -537zM80 96l487 492h-2898v96h2902l-489 490h131l537 -539l-539 -537z" />
    <glyph glyph-name="hyphen_less.liga" 
d="M971 98l-490 490h-1583v96h1583l488 490h131l-537 -537l539 -539h-131z" />
    <glyph glyph-name="hyphen_less_less.liga" 
d="M971 98l-539 537l537 539h131l-537 -537l539 -539h-131zM621 98l-492 490h-2460v96h2460l489 490h132l-537 -537l539 -539h-131z" />
    <glyph glyph-name="hyphen_asciitilde.liga" 
d="M-778 520v94h628q31 0 58 17t45 42.5t41.5 55.5t46.5 55.5t60 42.5t83 17q53 0 94 -23.5t67.5 -57.5t50.5 -68t54.5 -57.5t67.5 -23.5q73 0 116.5 62.5t43.5 165.5h100q0 -133 -69.5 -227.5t-190.5 -94.5q-46 0 -83 17t-60 42.5t-46.5 55.5t-41.5 55.5t-45 42.5t-58 17
q-37 0 -67.5 -23.5t-54.5 -57.5t-50.5 -68t-67.5 -57.5t-94 -23.5h-628z" />
    <glyph glyph-name="braceleft_bar.liga" 
d="M-258 -184q-158 0 -252 96t-94 256v176q0 158 -78 230.5t-246 72.5v98q168 -2 246 71.5t78 232.5v176q0 160 94 256t252 96h496v-94h-459q-143 0 -215 -65.5t-72 -188.5v-185q0 -141 -64.5 -236t-168.5 -110v-2q105 -14 169 -109t64 -239v-184q0 -123 72 -188.5
t215 -65.5h459v-94h-496zM547 -184v1761h98v-1761h-98z" />
    <glyph glyph-name="period_period_period.liga" 
d="M-1636 0v193h194v-193h-194zM-711 0v193h193v-193h-193zM211 0v193h195v-193h-195z" />
    <glyph glyph-name="period_period_equal.liga" 
d="M-258 764v94h872v-94h-872zM-1917 453v249h254v-249h-254zM-1096 453v249h254v-249h-254zM-258 340v94h872v-94h-872z" />
    <glyph glyph-name="period_equal.liga" 
d="M-27 764v94h873v-94h-873zM-864 455v250h254v-250h-254zM-27 340v94h873v-94h-873z" />
    <glyph glyph-name="colon_equal.liga" 
d="M-778 920v192h192v-192h-192zM-150 764v94h873v-94h-873zM-150 340v94h873v-94h-873zM-778 113v192h192v-192h-192z" />
    <glyph glyph-name="exclam_question.liga" 
d="M412 432q0 126 42 205t140 147q135 97 174 155t39 161q0 126 -83.5 206t-227.5 80q-166 0 -259.5 -97t-105.5 -273l-106 6q15 215 139 340t332 125q190 0 303.5 -110.5t113.5 -276.5q0 -122 -54.5 -199t-205.5 -184q-77 -54 -108 -116t-31 -169h-102zM-586 422
q-18 387 -18 534v498h102v-498q0 -75 -16 -534h-68zM367 0v193h192v-193h-192zM-649 0v193h192v-193h-192z" />
    <glyph glyph-name="exclam_equal.liga" 
d="M-283 0l111 313h-930v95h965l117 327h-1082v94h1114l107 299h100l-106 -299h989v-94h-1024l-117 -327h1141v-95h-1176l-110 -313h-99z" />
    <glyph glyph-name="exclam_equal_equal.liga" 
d="M-864 0l78 217h-1545v94h1577l74 211h-1651v94h1686l74 209h-1760v95h1794l74 208h101l-76 -208h1540v-95h-1573l-76 -209h1649v-94h-1682l-75 -211h1757v-94h-1790l-78 -217h-98z" />
    </font>
</defs>
</svg>
