<?xml version="1.0" standalone="no"?>
<!DOCTYPE svg PUBLIC "-//W3C//DTD SVG 1.1//EN" "http://www.w3.org/Graphics/SVG/1.1/DTD/svg11.dtd" >
<svg xmlns="http://www.w3.org/2000/svg" xmlns:xlink="http://www.w3.org/1999/xlink" version="1.1">
<metadata>
Created by FontForge 20201107 at Fri Jul 12 23:26:05 2024
 By 
Copyright 2020, Kris Sowersby, Klim Type Foundry.
</metadata>
<defs>
<font id="SohneBreit-Halbfett" horiz-adv-x="1638" >
  <font-face 
    font-family="Sohne Breit Halbfett"
    font-weight="600"
    font-stretch="expanded"
    units-per-em="2048"
    panose-1="2 11 7 5 3 2 2 6 2 3"
    ascent="1638"
    descent="-410"
    x-height="1077"
    cap-height="1470"
    bbox="-553 -424 2843 2077"
    underline-thickness="225"
    underline-position="-390"
    unicode-range="U+000D-FB04"
  />
<missing-glyph horiz-adv-x="1228" 
d="M0 0v1470h1229v-1470h-1229zM270 496l105 -105l239 240l242 -240l102 105l-237 241l237 240l-102 104l-242 -239l-239 239l-105 -104l240 -240z" />
    <glyph glyph-name="ff" unicode="ff" horiz-adv-x="1775" 
d="M743 1493q163 0 250 -35l-41 -235q-96 24 -198 24q-116 0 -167.5 -37.5t-51.5 -122.5v-10h526v19q0 195 125 296t364 101q163 0 258 -37l-43 -235q-107 26 -204 26q-116 0 -168 -37.5t-52 -122.5v-10h412v-239h-410v-838h-282v838h-524v-838h-283v838h-258v239h258v19
q0 195 125 296t364 101z" />
    <glyph glyph-name="fi" unicode="fi" horiz-adv-x="1490" 
d="M743 1493q138 0 230 -29l-49 -235q-71 18 -170 18q-116 0 -167.5 -37.5t-51.5 -122.5v-10h387v-239h-385v-838h-283v838h-258v239h258v19q0 195 125 296t364 101zM1350 1204h-293v266h293v-266zM1061 1077h287v-1077h-287v1077z" />
    <glyph glyph-name="fl" unicode="fl" horiz-adv-x="1490" 
d="M743 1493q138 0 230 -29l-49 -235q-71 18 -170 18q-116 0 -167.5 -37.5t-51.5 -122.5v-10h387v-239h-385v-838h-283v838h-258v239h258v19q0 195 125 296t364 101zM1061 1470h287v-1470h-287v1470z" />
    <glyph glyph-name="ffi" unicode="ffi" horiz-adv-x="2263" 
d="M743 1493q163 0 250 -35l-41 -235q-96 24 -198 24q-116 0 -167.5 -37.5t-51.5 -122.5v-10h526v19q0 195 125 296t364 101q138 0 230 -29l-49 -235q-71 18 -170 18q-116 0 -168 -37.5t-52 -122.5v-10h388v-239h-386v-838h-282v838h-524v-838h-283v838h-258v239h258v19
q0 195 125 296t364 101zM2157 1204h-293v266h293v-266zM1868 1077h286v-1077h-286v1077z" />
    <glyph glyph-name="ffl" unicode="ffl" horiz-adv-x="2263" 
d="M743 1493q163 0 250 -35l-41 -235q-96 24 -198 24q-116 0 -167.5 -37.5t-51.5 -122.5v-10h526v19q0 195 125 296t364 101q138 0 230 -29l-49 -235q-71 18 -170 18q-116 0 -168 -37.5t-52 -122.5v-10h388v-239h-386v-838h-282v838h-524v-838h-283v838h-258v239h258v19
q0 195 125 296t364 101zM1868 1470h286v-1470h-286v1470z" />
    <glyph glyph-name="f_b" unicode="fb" horiz-adv-x="2385" 
d="M743 1493q138 0 230 -29l-49 -235q-71 18 -170 18q-116 0 -167.5 -37.5t-51.5 -122.5v-10h387v-239h-385v-838h-283v838h-258v239h258v19q0 195 125 296t364 101zM1751 -23q-126 0 -232.5 41t-170.5 111v-129h-287v1470h287v-524q64 70 170.5 111t232.5 41
q258 0 424 -158q162 -155 162 -401q0 -249 -162 -404q-166 -158 -424 -158zM1700 864q-154 0 -260 -92q-105 -88 -105 -227v-15q0 -136 105 -227q109 -92 260 -92q156 0 260 90q102 88 102 238q0 147 -102 235q-104 90 -260 90z" />
    <glyph glyph-name="f_h" unicode="fh" horiz-adv-x="2314" 
d="M743 1493q138 0 230 -29l-49 -235q-71 18 -170 18q-116 0 -167.5 -37.5t-51.5 -122.5v-10h387v-239h-385v-838h-283v838h-258v239h258v19q0 195 125 296t364 101zM1348 0h-287v1470h287v-528q67 74 169 115t224 41q216 0 342 -135q127 -136 127 -363v-600h-287v532
q0 146 -72.5 227t-203.5 81q-141 0 -220 -82t-79 -230v-528z" />
    <glyph glyph-name="f_idieresis" unicode="f&#xef;" horiz-adv-x="1462" 
d="M743 1493q163 0 258 -37l-43 -235q-107 26 -204 26q-116 0 -167.5 -37.5t-51.5 -122.5v-10h411v-239h-409v-838h-283v838h-258v239h258v19q0 195 125 296t364 101zM1610 1204h-297v266h297v-266zM1067 1077h287v-1077h-287v1077z" />
    <glyph glyph-name="f_j" unicode="fj" horiz-adv-x="1458" 
d="M743 1493q138 0 230 -29l-49 -235q-71 18 -170 18q-116 0 -167.5 -37.5t-51.5 -122.5v-10h387v-239h-385v-838h-283v838h-258v239h258v19q0 195 125 296t364 101zM1350 1204h-293v266h293v-266zM1348 1077v-1040q0 -207 -115.5 -313.5t-341.5 -106.5q-58 0 -124.5 10
t-107.5 27l43 223q108 -27 168 -27q102 0 146.5 43t44.5 138v1046h287z" />
    <glyph glyph-name="f_k" unicode="fk" horiz-adv-x="2312" 
d="M743 1493q138 0 230 -29l-49 -235q-71 18 -170 18q-116 0 -167.5 -37.5t-51.5 -122.5v-10h387v-239h-385v-838h-283v838h-258v239h258v19q0 195 125 296t364 101zM1061 1470h287v-890l581 497h395l-557 -463l574 -614h-361l-417 442l-215 -178v-264h-287v1470z" />
    <glyph glyph-name=".notdef" horiz-adv-x="1228" 
d="M0 0v1470h1229v-1470h-1229zM270 496l105 -105l239 240l242 -240l102 105l-237 241l237 240l-102 104l-242 -239l-239 239l-105 -104l240 -240z" />
    <glyph glyph-name=".null" horiz-adv-x="0" 
 />
    <glyph glyph-name="nonmarkingreturn" horiz-adv-x="682" 
 />
    <glyph glyph-name="NULL" horiz-adv-x="0" 
 />
    <glyph glyph-name="NULL" horiz-adv-x="0" 
 />
    <glyph glyph-name="CR" unicode="&#xd;" horiz-adv-x="548" 
 />
    <glyph glyph-name="space" unicode=" " horiz-adv-x="548" 
 />
    <glyph glyph-name="exclam" unicode="!" horiz-adv-x="626" 
d="M422 457h-219l-74 1013h367zM483 0h-340v326h340v-326z" />
    <glyph glyph-name="quotedbl" unicode="&#x22;" horiz-adv-x="806" 
d="M303 862h-199l-65 608h332zM700 862h-198l-66 608h332z" />
    <glyph glyph-name="numbersign" unicode="#" horiz-adv-x="1536" 
d="M430 0h-250l94 379h-219v217h275l67 278h-280v218h336l94 378h250l-95 -378h342l95 378h250l-95 -378h187v-218h-240l-67 -278h247v-217h-301l-94 -379h-254l94 379h-342zM647 874l-67 -278h342l67 278h-342z" />
    <glyph glyph-name="dollar" unicode="$" horiz-adv-x="1648" 
d="M-20 336l204 196q90 -112 228 -183.5t305 -94.5v379q-376 41 -504 127q-133 89 -133 264q0 187 172 307q176 122 465 137v211h244v-217q207 -23 369.5 -96t248.5 -182l-203 -187q-63 80 -169.5 135t-245.5 78v-346q377 -40 516 -131q135 -89 135 -268q0 -201 -169 -321
t-482 -140v-217h-244v217q-239 21 -443 111q-199 88 -294 221zM367 1047q0 -74 69 -103q73 -31 281 -55v336q-177 -6 -263.5 -49.5t-86.5 -128.5zM1317 438q0 78 -68 113q-64 34 -288 55v-356q171 10 263.5 59t92.5 129z" />
    <glyph glyph-name="percent" unicode="%" horiz-adv-x="1990" 
d="M477 717q-185 0 -307 110q-121 112 -121 279t121 276q123 111 307 111q185 0 305 -111q121 -109 121 -276t-121 -279q-119 -110 -305 -110zM1450 1470h258l-1165 -1470h-258zM477 1300q-88 0 -143 -53.5t-55 -140.5q0 -88 54 -141.5t144 -53.5q88 0 142.5 53.5
t54.5 141.5q0 87 -54.5 140.5t-142.5 53.5zM1516 754q185 0 305 -111q121 -112 121 -278q0 -167 -121 -279q-121 -109 -305 -109t-308 109q-121 112 -121 279q0 166 121 278q123 111 308 111zM1516 559q-88 0 -142.5 -53.5t-54.5 -140.5q0 -88 54.5 -141.5t142.5 -53.5
t142 53.5t54 141.5t-54 141t-142 53z" />
    <glyph glyph-name="ampersand" unicode="&#x26;" horiz-adv-x="1830" 
d="M1466 823l277 -59q-66 -263 -262 -459q76 -43 146.5 -56t178.5 -3v-244q-149 -19 -278 13t-262 122q-274 -160 -590 -160q-292 0 -469 121q-174 119 -174 324q0 146 97 254t269 155q-96 119 -96 256q0 176 139 291q142 115 369 115q234 0 365 -107q135 -105 135 -276
q0 -136 -100.5 -240.5t-274.5 -154.5l328 -254q148 151 202 362zM809 1276q-102 0 -165.5 -49t-63.5 -123q0 -59 31.5 -109t107.5 -112q321 35 321 219q0 80 -61.5 127t-169.5 47zM328 453q0 -104 102.5 -167t274.5 -63q173 0 339 80l-456 361q-123 -13 -191.5 -69
t-68.5 -142z" />
    <glyph glyph-name="quotesingle" unicode="'" horiz-adv-x="407" 
d="M303 862h-199l-65 608h332z" />
    <glyph glyph-name="parenleft" unicode="(" horiz-adv-x="802" 
d="M340 655q0 -486 463 -856h-299q-219 142 -342 367q-123 228 -123 489q0 263 123 488q121 225 342 368h299q-463 -373 -463 -856z" />
    <glyph glyph-name="parenright" unicode=")" horiz-adv-x="802" 
d="M463 655q0 483 -463 856h299q221 -143 342 -368q123 -225 123 -488q0 -261 -123 -489q-123 -225 -342 -367h-299q463 370 463 856z" />
    <glyph glyph-name="asterisk" unicode="*" horiz-adv-x="927" 
d="M799 784l-160 -116l-174 239l-176 -239l-160 116l174 242l-283 90l62 189l283 -91v297h198v-297l285 91l59 -189l-284 -90z" />
    <glyph glyph-name="plus" unicode="+" 
d="M1516 848v-246h-576v-573h-244v573h-573v246h573v573h244v-573h576z" />
    <glyph glyph-name="comma" unicode="," horiz-adv-x="491" 
d="M219 0h-141v332h336v-326q0 -141 -90.5 -224t-245.5 -83v151q141 9 141 136v14z" />
    <glyph glyph-name="hyphen" unicode="-" horiz-adv-x="753" 
d="M672 471h-590v256h590v-256z" />
    <glyph glyph-name="period" unicode="." horiz-adv-x="491" 
d="M414 0h-336v332h336v-332z" />
    <glyph glyph-name="slash" unicode="/" horiz-adv-x="1146" 
d="M330 -201h-305l792 1712h305z" />
    <glyph glyph-name="zero" unicode="0" horiz-adv-x="1777" 
d="M889 -23q-360 0 -602 216q-240 215 -240 542q0 329 240 543q241 215 602 215q363 0 602 -217q240 -215 240 -541q0 -325 -240 -542q-242 -216 -602 -216zM889 1229q-240 0 -389 -137q-148 -136 -148 -357q0 -219 148 -358q150 -135 389 -135q238 0 385 135
q147 138 147 358q0 222 -147 357q-146 137 -385 137z" />
    <glyph glyph-name="one" unicode="1" horiz-adv-x="950" 
d="M592 1479h229v-1479h-301v985h-506v229l285 13q146 8 213.5 65.5t79.5 186.5z" />
    <glyph glyph-name="two" unicode="2" horiz-adv-x="1533" 
d="M59 0v240l705 383l190 106q28 15 58 37q79 54 113 106.5t34 118.5q0 110 -99 178t-259 68q-193 0 -328 -102q-134 -104 -164 -275l-274 70q50 256 258 409q210 154 522 154q285 0 465 -137q180 -134 180 -352q0 -154 -104 -273t-377 -260l-393 -211h909v-260h-1436z" />
    <glyph glyph-name="three" unicode="3" horiz-adv-x="1597" 
d="M1563 422q0 -192 -211 -318q-213 -127 -543 -127q-305 0 -518 119q-216 121 -283 320l273 116q51 -138 192 -219q147 -84 336 -84q197 0 317.5 58.5t120.5 156.5q0 91 -103 139t-298 48h-271v246h265q177 0 268.5 45t91.5 131t-102.5 136t-276.5 50q-183 0 -317 -76
t-180 -200l-267 100q71 194 279 311q207 119 498 119q308 0 495 -117q189 -115 189 -301q0 -112 -70.5 -196.5t-192.5 -116.5q152 -37 230 -123t78 -217z" />
    <glyph glyph-name="four" unicode="4" horiz-adv-x="1685" 
d="M1284 352v-352h-289v352h-975v234l873 884h391v-872h381v-246h-381zM995 1225l-624 -627h624v627z" />
    <glyph glyph-name="five" unicode="5" horiz-adv-x="1576" 
d="M784 756q-258 0 -446 -140l-234 64l97 790h1226v-260h-999l-43 -319q192 108 457 108q313 0 508 -139q196 -138 196 -364q0 -231 -211 -375t-540 -144q-305 0 -519 117q-215 120 -276 322l270 114q60 -148 193.5 -224.5t333.5 -76.5q202 0 324 71t122 192t-124.5 192.5
t-334.5 71.5z" />
    <glyph glyph-name="six" unicode="6" horiz-adv-x="1677" 
d="M907 1493q242 0 434.5 -83.5t286.5 -229.5l-211 -185q-66 116 -204.5 182t-315.5 66q-243 0 -403 -127q-161 -128 -164 -319q91 94 242.5 146t336.5 52q323 0 525 -141q204 -137 204 -356q0 -231 -217 -375q-217 -146 -555 -146q-384 0 -602 197q-217 196 -217 533
q0 355 234 569q236 217 626 217zM858 225q211 0 346 72q135 73 135 192q0 117 -133 191t-344 74q-215 0 -348 -74q-133 -71 -133 -191q0 -119 131 -191.5t346 -72.5z" />
    <glyph glyph-name="seven" unicode="7" horiz-adv-x="1513" 
d="M1171 1214h-892v-288h-259v544h1473v-268q-294 -272 -432 -563q-133 -287 -133 -639h-307q0 701 550 1214z" />
    <glyph glyph-name="eight" unicode="8" horiz-adv-x="1658" 
d="M131 1079q0 187 193 301q192 113 505 113q312 0 504 -113q193 -111 193 -301q0 -103 -64 -179.5t-200 -133.5q178 -44 272 -135.5t94 -220.5q0 -200 -219 -318q-219 -115 -580 -115q-362 0 -581 115q-217 117 -217 318q0 129 94 220.5t272 135.5q-137 60 -201.5 135.5
t-64.5 177.5zM428 1069q0 -90 105 -139t296 -49t296.5 49t105.5 139q0 88 -106.5 137t-295.5 49t-295 -49t-106 -137zM1325 434q0 99 -132 155t-364 56t-363.5 -55.5t-131.5 -155.5q0 -104 130.5 -160.5t364.5 -56.5t365 57t131 160z" />
    <glyph glyph-name="nine" unicode="9" horiz-adv-x="1677" 
d="M770 -23q-242 0 -434.5 84t-286.5 230l211 184q66 -116 204.5 -182t315.5 -66q244 0 404 127q161 128 164 320q-91 -94 -243 -146.5t-337 -52.5q-319 0 -526 139q-203 141 -203 359q0 231 215 375q219 145 557 145q382 0 600 -197q219 -198 219 -532q0 -355 -235 -571
q-236 -216 -625 -216zM819 1245q-212 0 -348 -74q-133 -71 -133 -190q0 -116 133 -190t344 -74q215 0 348 71q133 74 133 193t-131 191.5t-346 72.5z" />
    <glyph glyph-name="colon" unicode=":" horiz-adv-x="491" 
d="M414 0h-336v332h336v-332zM414 694h-336v332h336v-332z" />
    <glyph glyph-name="semicolon" unicode=";" horiz-adv-x="491" 
d="M219 0h-141v332h336v-326q0 -141 -90.5 -224t-245.5 -83v151q141 9 141 136v14zM414 694h-336v332h336v-332z" />
    <glyph glyph-name="less" unicode="&#x3c;" 
d="M1518 39l-1397 500v379l1397 497v-301l-1158 -387l1158 -387v-301z" />
    <glyph glyph-name="equal" unicode="=" 
d="M1516 870h-1393v246h1393v-246zM1516 322h-1393v245h1393v-245z" />
    <glyph glyph-name="greater" unicode="&#x3e;" 
d="M1518 918v-379l-1397 -500v301l1157 387l-1157 387v301z" />
    <glyph glyph-name="question" unicode="?" horiz-adv-x="1447" 
d="M1108 1018q0 219 -373 219q-174 0 -290 -69.5t-136 -186.5l-305 45q37 211 238 338q202 129 510 129t491 -125q184 -126 184 -334q0 -171 -142.5 -285.5t-395.5 -146.5v-145h-291v348q265 0 387.5 51.5t122.5 161.5zM924 0h-338v326h338v-326z" />
    <glyph glyph-name="at" unicode="@" horiz-adv-x="2174" 
d="M1640 932l-102 -520q-12 -62 10 -91.5t82 -29.5q115 0 193 96t78 248q0 241 -199 379q-195 137 -539 137q-398 0 -637 -190q-239 -187 -239 -496q0 -281 214 -436.5t601 -155.5q197 0 386 42t320 114l107 -181q-149 -91 -362.5 -140.5t-452.5 -49.5q-487 0 -770 215
t-283 592q0 207 92 383t264 299q308 215 760 215q434 0 699 -197q266 -193 266 -520q0 -251 -154 -405q-155 -155 -393 -152q-94 0 -169.5 31.5t-113.5 87.5q-49 -55 -139 -86t-196 -31q-196 0 -312 102t-116 273q0 206 147 344q147 141 371 141q206 0 311 -114l20 96h256z
M819 487q0 -86 56.5 -135t154.5 -49q116 0 194.5 72.5t78.5 177.5q0 86 -56.5 135t-154.5 49q-116 0 -194.5 -72.5t-78.5 -177.5z" />
    <glyph glyph-name="A" unicode="A" horiz-adv-x="1794" 
d="M-14 0l741 1470h338l741 -1470h-325l-170 342h-832l-172 -342h-321zM1182 598l-287 576l-289 -576h576z" />
    <glyph glyph-name="B" unicode="B" horiz-adv-x="1669" 
d="M1128 0h-999v1470h965q239 0 368 -101t129 -290q0 -109 -56 -190.5t-159 -124.5q122 -41 191 -134.5t69 -217.5q0 -192 -136.5 -302t-371.5 -110zM418 1221v-349h645q118 0 181 45t63 130q0 84 -63.5 129t-180.5 45h-645zM1108 629h-690v-377h690q110 0 174 51t64 137
t-64.5 137.5t-173.5 51.5z" />
    <glyph glyph-name="C" unicode="C" horiz-adv-x="1710" 
d="M918 1229q-246 0 -406 -139q-158 -140 -158 -355q0 -216 158 -356q158 -137 406 -137q188 0 320 84.5t198 244.5l260 -131q-86 -220 -291.5 -341.5t-489.5 -121.5q-371 0 -622 216q-246 217 -246 542q0 327 246 541q248 217 622 217q284 0 489.5 -121.5t291.5 -341.5
l-260 -131q-66 161 -198 245.5t-320 84.5z" />
    <glyph glyph-name="D" unicode="D" horiz-adv-x="1767" 
d="M881 0h-752v1470h752q388 0 614 -198q227 -199 227 -537q0 -337 -227 -536t-614 -199zM424 1212v-954h457q248 0 391 128t143 349t-143 349t-391 128h-457z" />
    <glyph glyph-name="E" unicode="E" horiz-adv-x="1615" 
d="M129 0v1470h1423v-260h-1126v-327h1010v-258h-1010v-365h1126v-260h-1423z" />
    <glyph glyph-name="F" unicode="F" horiz-adv-x="1576" 
d="M426 584v-584h-297v1470h1401v-260h-1104v-366h987v-260h-987z" />
    <glyph glyph-name="G" unicode="G" horiz-adv-x="1837" 
d="M1743 0h-283v172q-68 -86 -217 -141q-151 -54 -321 -54q-378 0 -629 216q-246 215 -246 546q0 329 250 541q254 213 637 213q287 0 493.5 -119.5t292.5 -335.5l-264 -127q-66 154 -200 236t-324 82q-254 0 -416 -137q-160 -139 -160 -357t158 -358q158 -137 410 -137
q211 0 366 88q157 89 172 223h-661v254h942v-805z" />
    <glyph glyph-name="H" unicode="H" horiz-adv-x="1804" 
d="M1374 885v585h303v-1470h-303v625h-944v-625h-301v1470h301v-585h944z" />
    <glyph glyph-name="I" unicode="I" horiz-adv-x="557" 
d="M129 1470h301v-1470h-301v1470z" />
    <glyph glyph-name="J" unicode="J" horiz-adv-x="1468" 
d="M694 -23q-246 0 -438 119q-192 121 -256 310l274 155q37 -142 153 -230.5t269 -88.5q183 0 283 86.5t100 246.5v895h301v-909q0 -260 -188 -424q-189 -160 -498 -160z" />
    <glyph glyph-name="K" unicode="K" horiz-adv-x="1697" 
d="M129 1470h301v-704l825 704h424l-751 -622l798 -848h-397l-622 664l-277 -230v-434h-301v1470z" />
    <glyph glyph-name="L" unicode="L" horiz-adv-x="1507" 
d="M1464 0h-1335v1470h301v-1210h1034v-260z" />
    <glyph glyph-name="M" unicode="M" horiz-adv-x="2156" 
d="M1733 1184l-533 -1184h-244l-534 1184v-1184h-293v1470h459l493 -1101l494 1101h453v-1470h-295v1184z" />
    <glyph glyph-name="N" unicode="N" horiz-adv-x="1773" 
d="M1354 1470h293v-1470h-267l-960 1087v-1087h-291v1470h307l918 -1038v1038z" />
    <glyph glyph-name="O" unicode="O" horiz-adv-x="1830" 
d="M47 735q0 329 246 543q247 215 622 215q374 0 621 -215q248 -214 248 -543q0 -328 -248 -542q-248 -216 -621 -216q-374 0 -622 216q-246 215 -246 542zM1475 735q0 222 -156 357q-152 137 -404 137q-250 0 -405 -137q-154 -136 -154 -357q0 -219 154 -358
q156 -135 405 -135q251 0 404 135q156 138 156 358z" />
    <glyph glyph-name="P" unicode="P" horiz-adv-x="1640" 
d="M1049 541h-619v-541h-301v1470h920q263 0 410 -121.5t147 -342.5q0 -220 -147 -342.5t-410 -122.5zM430 1214v-417h602q130 0 203.5 55.5t73.5 153.5t-73 153t-204 55h-602z" />
    <glyph glyph-name="Q" unicode="Q" horiz-adv-x="1830" 
d="M915 -23q-374 0 -622 216q-246 215 -246 542q0 329 246 543q247 215 622 215q374 0 621 -215q248 -214 248 -543q0 -178 -77.5 -329.5t-223.5 -255.5q89 -103 268 -144l-166 -217q-107 30 -205 93.5t-153 140.5q-145 -46 -312 -46zM915 242q251 0 404 135
q156 138 156 358q0 222 -156 357q-152 137 -404 137q-250 0 -405 -137q-154 -136 -154 -357q0 -219 154 -358q156 -135 405 -135z" />
    <glyph glyph-name="R" unicode="R" horiz-adv-x="1654" 
d="M954 547h-524v-547h-301v1470h924q263 0 411 -121.5t148 -340.5q0 -163 -89 -276t-251 -157l375 -575h-347zM430 1214v-415h606q131 0 204 54.5t73 152.5q0 100 -72 154t-205 54h-606z" />
    <glyph glyph-name="S" unicode="S" horiz-adv-x="1589" 
d="M817 -23q-267 0 -502 95q-229 92 -340 247l203 211q105 -142 275.5 -218t375.5 -76q190 0 305 52.5t115 139.5q0 69 -48 103t-179 57l-98 12q-76 12 -209 25q-362 40 -502 133q-135 92 -135 266q0 211 188 340q190 129 502 129q242 0 449 -80q203 -79 307 -213l-201 -192
q-85 109 -235 169t-336 60q-178 0 -279.5 -48.5t-101.5 -133.5q0 -73 82 -107q75 -31 389 -67q322 -36 452 -84q134 -47 197 -129t63 -207q0 -226 -200 -355t-537 -129z" />
    <glyph glyph-name="T" unicode="T" horiz-adv-x="1675" 
d="M1638 1470v-260h-649v-1210h-303v1210h-649v260h1601z" />
    <glyph glyph-name="U" unicode="U" horiz-adv-x="1687" 
d="M844 -20q-364 0 -560 185.5t-196 528.5v776h301v-759q0 -467 455 -467q452 0 452 467v759h303v-776q0 -343 -196 -528.5t-559 -185.5z" />
    <glyph glyph-name="V" unicode="V" horiz-adv-x="1804" 
d="M1817 1470l-744 -1470h-344l-743 1470h327l592 -1173l590 1173h322z" />
    <glyph glyph-name="W" unicode="W" horiz-adv-x="2420" 
d="M688 332l369 1138h313l367 -1138l387 1138h309l-514 -1470h-350l-359 1124l-362 -1124h-348l-514 1470h315z" />
    <glyph glyph-name="X" unicode="X" horiz-adv-x="1740" 
d="M1335 1470h369l-647 -704l704 -766h-379l-514 567l-520 -567h-368l702 764l-647 706h377l460 -507z" />
    <glyph glyph-name="Y" unicode="Y" horiz-adv-x="1736" 
d="M346 1470l526 -602l527 602h358l-737 -845v-625h-301v625l-739 845h366z" />
    <glyph glyph-name="Z" unicode="Z" horiz-adv-x="1628" 
d="M502 260h1048v-260h-1476v229l1038 981h-1030v260h1460v-229z" />
    <glyph glyph-name="bracketleft" unicode="[" horiz-adv-x="745" 
d="M725 1286h-367v-1263h367v-224h-643v1712h643v-225z" />
    <glyph glyph-name="backslash" unicode="\" horiz-adv-x="1146" 
d="M1122 -201h-305l-792 1712h305z" />
    <glyph glyph-name="bracketright" unicode="]" horiz-adv-x="745" 
d="M387 23v1263h-367v225h644v-1712h-644v224h367z" />
    <glyph glyph-name="asciicircum" unicode="^" horiz-adv-x="1196" 
d="M29 836l432 634h274l432 -634h-299l-270 405l-272 -405h-297z" />
    <glyph glyph-name="underscore" unicode="_" horiz-adv-x="933" 
d="M848 -340h-762v234h762v-234z" />
    <glyph glyph-name="grave" unicode="`" horiz-adv-x="1228" 
d="M664 1470l213 -296h-242l-340 296h369z" />
    <glyph glyph-name="a" unicode="a" horiz-adv-x="1357" 
d="M950 133q-78 -74 -197 -115t-255 -41q-205 0 -329 90.5t-124 243.5q0 141 112 228.5t316 107.5l449 47v8q0 76 -71.5 120t-197.5 44q-115 0 -204.5 -46t-118.5 -118l-248 84q51 142 211 226q164 86 371 86q258 0 396 -104t138 -296v-424q0 -50 35 -65q17 -7 39 -4
q24 0 76 10v-215q-66 -14 -129 -14q-71 0 -127 18q-101 34 -142 129zM537 197q157 0 270 61q115 65 115 158v73l-406 -45q-104 -12 -148 -40.5t-44 -84.5q0 -60 55 -91t158 -31z" />
    <glyph glyph-name="b" unicode="b" horiz-adv-x="1435" 
d="M1386 539q0 -250 -161 -404q-166 -158 -424 -158q-126 0 -233 41t-171 111v-129h-286v1470h286v-524q64 70 171 111t233 41q258 0 424 -158q161 -154 161 -401zM750 864q-155 0 -261 -92q-104 -88 -104 -227v-15q0 -136 104 -227q109 -92 261 -92q156 0 260 90
q102 88 102 238q0 147 -102 235q-104 90 -260 90z" />
    <glyph glyph-name="c" unicode="c" horiz-adv-x="1265" 
d="M684 860q-161 0 -259.5 -87.5t-98.5 -233.5t99 -235t259 -89q115 0 206.5 62t123.5 161l237 -121q-56 -151 -211 -245q-154 -95 -354 -95q-275 0 -459 158q-180 155 -180 404q0 246 180 401q184 158 459 158q196 0 356 -97q154 -93 211 -247l-239 -117q-32 99 -123.5 161
t-206.5 62z" />
    <glyph glyph-name="d" unicode="d" horiz-adv-x="1435" 
d="M635 -23q-258 0 -424 158q-162 155 -162 404q0 246 162 401q166 158 424 158q126 0 232.5 -41t170.5 -111v524h287v-1470h-287v129q-64 -70 -170.5 -111t-232.5 -41zM1051 530v15q0 139 -105 227q-106 92 -260 92q-156 0 -260 -90q-102 -88 -102 -235q0 -149 102 -238
q104 -90 260 -90q152 0 258 92q107 91 107 227z" />
    <glyph glyph-name="e" unicode="e" horiz-adv-x="1325" 
d="M684 -23q-280 0 -459 156q-178 156 -178 406q0 243 178 399q183 160 457 160q267 0 432 -154q164 -153 164 -395v-90h-954q26 -115 122.5 -181.5t237.5 -66.5q117 0 206 52.5t126 144.5l244 -105q-58 -143 -218 -235q-160 -91 -358 -91zM672 868q-125 0 -215.5 -57.5
t-122.5 -157.5h661q-15 88 -106 152q-89 63 -217 63z" />
    <glyph glyph-name="f" unicode="f" horiz-adv-x="968" 
d="M743 1493q163 0 258 -37l-43 -235q-107 26 -204 26q-116 0 -167.5 -37.5t-51.5 -122.5v-10h411v-239h-409v-838h-283v838h-258v239h258v19q0 195 125 296t364 101z" />
    <glyph glyph-name="g" unicode="g" horiz-adv-x="1425" 
d="M1315 1077v-925q0 -243 -185 -390q-180 -149 -477 -149q-220 0 -380 75t-226 208l227 139q41 -92 141 -144.5t234 -52.5q168 0 273.5 78.5t105.5 208.5v41q-69 -72 -173 -111t-228 -39q-258 0 -424 152q-162 152 -162 391q0 236 162 385q165 154 424 154q124 0 227.5 -38
t173.5 -108v125h287zM1042 555v8q0 134 -104 219q-106 86 -260 86q-155 0 -258 -86q-101 -85 -101 -223q0 -140 101 -225q103 -86 258 -86q157 0 260 86q104 85 104 221z" />
    <glyph glyph-name="h" unicode="h" horiz-adv-x="1361" 
d="M397 0h-286v1470h286v-528q66 74 169 115t225 41q216 0 342 -135q127 -136 127 -363v-600h-287v532q0 146 -73 227t-204 81q-141 0 -220 -82t-79 -230v-528z" />
    <glyph glyph-name="i" unicode="i" horiz-adv-x="505" 
d="M399 1204h-293v266h293v-266zM111 1077h286v-1077h-286v1077z" />
    <glyph glyph-name="j" unicode="j" horiz-adv-x="505" 
d="M399 1204h-293v266h293v-266zM-80 -150q102 0 146.5 43t44.5 138v1046h286v-1040q0 -207 -115.5 -313.5t-340.5 -106.5q-58 0 -124.5 10t-107.5 27l43 223q108 -27 168 -27z" />
    <glyph glyph-name="k" unicode="k" horiz-adv-x="1361" 
d="M111 1470h286v-890l582 497h395l-557 -463l574 -614h-361l-418 442l-215 -178v-264h-286v1470z" />
    <glyph glyph-name="l" unicode="l" horiz-adv-x="505" 
d="M111 1470h286v-1470h-286v1470z" />
    <glyph glyph-name="m" unicode="m" horiz-adv-x="2168" 
d="M684 842q-139 0 -213 -80t-74 -230v-532h-286v1077h286v-133q139 154 373 154q124 0 222.5 -50.5t152.5 -142.5q172 193 434 193q231 0 359 -134t128 -372v-592h-286v537q0 148 -67.5 226.5t-194.5 78.5q-137 0 -211 -80.5t-74 -229.5v-532h-287v537q0 148 -67.5 226.5
t-194.5 78.5z" />
    <glyph glyph-name="n" unicode="n" horiz-adv-x="1361" 
d="M397 0h-286v1077h286v-135q66 74 169 115t225 41q216 0 342 -135q127 -136 127 -363v-600h-287v532q0 146 -73 227t-204 81q-141 0 -220 -82t-79 -230v-528z" />
    <glyph glyph-name="o" unicode="o" horiz-adv-x="1353" 
d="M678 1098q267 0 448 -158q179 -156 179 -401q0 -248 -179 -404q-181 -158 -448 -158q-269 0 -453 158q-178 156 -178 404q0 245 178 401q184 158 453 158zM678 858q-156 0 -254 -88.5t-98 -230.5q0 -146 98 -234t254 -88q155 0 252.5 88.5t97.5 233.5q0 142 -98 230.5
t-252 88.5z" />
    <glyph glyph-name="p" unicode="p" horiz-adv-x="1435" 
d="M1386 539q0 -250 -161 -404q-166 -158 -424 -158q-126 0 -233 41t-171 111v-494h-286v1442h286v-131q64 70 171 111t233 41q258 0 424 -158q161 -154 161 -401zM750 864q-155 0 -261 -92q-104 -88 -104 -227v-15q0 -136 104 -227q109 -92 261 -92q156 0 260 90
q102 88 102 238q0 147 -102 235q-104 90 -260 90z" />
    <glyph glyph-name="q" unicode="q" horiz-adv-x="1435" 
d="M635 -23q-258 0 -424 158q-162 155 -162 404q0 246 162 401q166 158 424 158q126 0 232.5 -41t170.5 -111v131h287v-1442h-287v494q-64 -70 -170.5 -111t-232.5 -41zM1051 530v15q0 139 -105 227q-106 92 -260 92q-156 0 -260 -90q-102 -88 -102 -235q0 -149 102 -238
q104 -90 260 -90q152 0 258 92q107 91 107 227z" />
    <glyph glyph-name="r" unicode="r" horiz-adv-x="944" 
d="M803 1083q70 0 119 -14v-283q-69 17 -129 17q-196 0 -296 -87t-100 -257v-459h-286v1077h286v-190q130 196 406 196z" />
    <glyph glyph-name="s" unicode="s" horiz-adv-x="1198" 
d="M612 -23q-197 0 -363 60.5t-257 165.5l164 188q178 -190 469 -190q128 0 195 29.5t67 84.5q0 37 -32.5 56.5t-119.5 31.5q-39 8 -98 13l-96 12q-287 38 -387 107q-99 71 -99 204q0 160 146 260q144 99 387 99q178 0 326.5 -54.5t230.5 -148.5l-164 -174
q-69 75 -174 115.5t-234 40.5q-113 0 -175 -28t-62 -79q0 -38 43 -59q45 -18 266 -45q244 -32 336 -66q98 -38 144 -100.5t46 -155.5q0 -169 -153 -268q-150 -99 -406 -99z" />
    <glyph glyph-name="t" unicode="t" horiz-adv-x="1071" 
d="M694 -14q-212 0 -325 96t-113 278v478h-258v239h258v307h283v-307h458v-239h-458v-430q0 -91 50.5 -130.5t168.5 -39.5q104 0 235 45l49 -236q-153 -61 -348 -61z" />
    <glyph glyph-name="u" unicode="u" horiz-adv-x="1351" 
d="M956 1077h287v-1077h-287v135q-68 -76 -167.5 -117t-219.5 -41q-212 0 -340 134q-127 133 -127 356v610h287v-561q0 -141 68.5 -214t201.5 -73q141 0 219 80t78 226v542z" />
    <glyph glyph-name="v" unicode="v" horiz-adv-x="1347" 
d="M1352 1077l-531 -1077h-295l-530 1077h319l365 -768l364 768h308z" />
    <glyph glyph-name="w" unicode="w" horiz-adv-x="1886" 
d="M569 348l256 729h250l258 -729l262 729h295l-424 -1077h-258l-264 717l-264 -717h-258l-426 1077h305z" />
    <glyph glyph-name="x" unicode="x" horiz-adv-x="1370" 
d="M1372 0h-362l-324 362l-340 -362h-348l512 539l-496 538h361l311 -346l322 346h348l-494 -522z" />
    <glyph glyph-name="y" unicode="y" horiz-adv-x="1347" 
d="M1352 1077l-564 -1153q-80 -166 -186 -236.5t-278 -70.5q-60 0 -128.5 13t-105.5 32l51 234q75 -41 158 -41q86 0 138.5 33.5t78.5 105.5l10 33l-530 1050h319l369 -768l360 768h308z" />
    <glyph glyph-name="z" unicode="z" horiz-adv-x="1280" 
d="M473 240h739v-240h-1142v213l737 625h-731v239h1130v-215z" />
    <glyph glyph-name="braceleft" unicode="{" horiz-adv-x="864" 
d="M141 541h-100v229h100q113 0 113 154v233q0 168 103.5 261t291.5 93h195v-225h-146q-97 0 -141.5 -45t-44.5 -145v-183q0 -195 -147 -258q147 -63 147 -258v-182q0 -100 44.5 -145t141.5 -45h146v-226h-195q-188 0 -291.5 93.5t-103.5 261.5v233q0 154 -113 154z" />
    <glyph glyph-name="bar" unicode="|" horiz-adv-x="552" 
d="M418 -201h-283v1712h283v-1712z" />
    <glyph glyph-name="braceright" unicode="}" horiz-adv-x="864" 
d="M823 770v-229h-100q-113 0 -113 -154v-233q0 -168 -103.5 -261.5t-291.5 -93.5h-195v226h146q97 0 141.5 45t44.5 145v182q0 194 148 258q-148 64 -148 258v183q0 100 -44.5 145t-141.5 45h-146v225h195q188 0 291.5 -93t103.5 -261v-233q0 -154 113 -154h100z" />
    <glyph glyph-name="asciitilde" unicode="~" horiz-adv-x="1036" 
d="M360 846q37 0 73.5 -14.5t90.5 -55.5q47 -32 69.5 -42.5t43.5 -10.5q42 0 65 28.5t37 96.5h215q-11 -188 -84 -296t-194 -108q-37 0 -71.5 14.5t-94.5 55.5q-43 32 -65.5 42.5t-43.5 10.5q-43 0 -66.5 -28t-35.5 -95h-217q11 185 85.5 293.5t192.5 108.5z" />
    <glyph glyph-name="uni00A0" unicode="&#xa0;" horiz-adv-x="548" 
 />
    <glyph glyph-name="exclamdown" unicode="&#xa1;" horiz-adv-x="626" 
d="M143 1145v325h340v-325h-340zM129 0l74 1014h219l74 -1014h-367z" />
    <glyph glyph-name="cent" unicode="&#xa2;" horiz-adv-x="1343" 
d="M842 -211h-228v195q-249 30 -405 186t-156 383q0 225 156 381q158 158 405 188v219h228v-219q172 -23 303.5 -113.5t185.5 -220.5l-211 -122q-37 87 -108.5 144t-169.5 77v-670q99 23 172.5 82t105.5 143l209 -129q-54 -129 -184 -217.5t-303 -111.5v-195zM315 553
q0 -127 81 -217t218 -119v672q-137 -29 -218 -119t-81 -217z" />
    <glyph glyph-name="sterling" unicode="&#xa3;" horiz-adv-x="1802" 
d="M510 584h-332v202h182q-77 106 -77 224q0 206 196 344q201 139 504 139q315 0 504 -143q190 -144 190 -385q0 -60 -8 -101h-274q6 25 6 68q0 147 -110 227t-312 80q-182 0 -291.5 -72t-109.5 -190q0 -44 16 -85t61 -106h547v-202h-426q19 -56 19 -121q0 -43 -7 -72
q208 -108 285 -129q80 -22 148 -22q128 0 201.5 62t80.5 177h275q3 -221 -144 -362q-146 -140 -377 -140q-120 0 -241 41q-119 43 -305 168q-66 -99 -166.5 -154t-218.5 -55q-146 0 -236 75t-90 198t95.5 198.5t248.5 75.5q111 0 205 -30q-10 46 -39 90zM352 340
q-57 0 -91 -24t-34 -62q0 -37 30 -59.5t79 -22.5q62 0 113 32.5t81 90.5q-98 45 -178 45z" />
    <glyph glyph-name="yen" unicode="&#xa5;" horiz-adv-x="1871" 
d="M793 356h-568v199h568v121h-568v198h377l-604 596h377l565 -569l565 569h369l-602 -596h379v-198h-570v-121h570v-199h-570v-356h-288v356z" />
    <glyph glyph-name="section" unicode="&#xa7;" horiz-adv-x="1642" 
d="M1477 524q73 -76 73 -182q0 -170 -183.5 -267.5t-504.5 -97.5q-274 0 -504 62q-227 65 -340 172l175 203q111 -100 289.5 -154.5t400.5 -54.5q166 0 264 32t98 87q0 47 -46 71.5t-146 28.5l-607 37q-168 11 -262 85.5t-94 198.5q0 120 98 205q-75 72 -75 180
q0 168 179.5 265.5t493.5 97.5q252 0 451 -54.5t309 -152.5l-166 -190q-196 161 -622 161q-166 0 -255 -27.5t-89 -78.5q0 -41 36.5 -61t118.5 -25l564 -29q436 -24 436 -305q0 -121 -92 -207zM512 688l575 -33q126 -9 191 -28q31 40 31 75q0 51 -48.5 76t-160.5 31l-594 33
q-53 3 -125 16q-41 -35 -41 -78q0 -83 172 -92z" />
    <glyph glyph-name="dieresis" unicode="&#xa8;" horiz-adv-x="1228" 
d="M510 1204h-295v266h295v-266zM1014 1204h-295v266h295v-266z" />
    <glyph glyph-name="copyright" unicode="&#xa9;" horiz-adv-x="1835" 
d="M920 1493q356 0 598 -217q241 -213 241 -541q0 -323 -243 -540q-244 -218 -596 -218q-359 0 -603 218q-243 217 -243 540q0 328 241 541q242 217 605 217zM920 123q291 0 491 176q201 177 201 436q0 261 -199 436q-201 177 -493 177q-297 0 -498 -177
q-199 -175 -199 -436q0 -259 201 -436q200 -176 496 -176zM928 305q-216 0 -355 121q-137 119 -137 311q0 193 137 312q138 120 355 120q167 0 284 -65t164 -184l-221 -95q-63 138 -227 138q-117 0 -184.5 -61t-67.5 -165t67.5 -164.5t184.5 -60.5q165 0 227 137l221 -94
q-47 -121 -162.5 -185.5t-285.5 -64.5z" />
    <glyph glyph-name="ordfeminine" unicode="&#xaa;" horiz-adv-x="1044" 
d="M688 786q-114 -102 -319 -102q-148 0 -237 64.5t-89 173.5q0 102 81.5 164.5t231.5 76.5l312 31v4q0 51 -47.5 80t-133.5 29q-78 0 -137 -30t-76 -77l-202 57q35 103 151.5 165.5t274.5 62.5q189 0 289 -74t100 -215v-287q0 -36 22 -45q12 -4 25 -4q18 0 53 6v-166
q-59 -12 -104 -12q-47 0 -84 12q-76 21 -111 86zM410 850q105 0 181.5 42t76.5 103v45l-279 -28q-67 -6 -96 -25.5t-29 -56.5q0 -38 38.5 -59t107.5 -21zM985 385h-922v193h922v-193z" />
    <glyph glyph-name="guillemotleft" unicode="&#xab;" horiz-adv-x="1116" 
d="M532 121l-454 278v267l454 278v-276l-208 -136l208 -135v-276zM1038 121l-454 278v267l454 278v-276l-209 -136l209 -135v-276z" />
    <glyph glyph-name="registered" unicode="&#xae;" horiz-adv-x="1110" 
d="M555 1493q215 0 358 -131q144 -129 144 -326q0 -195 -144 -327q-144 -129 -358 -129t-358 129q-144 132 -144 327q0 197 144 326q143 131 358 131zM555 676q169 0 283 102q114 105 114 258q0 154 -114 256q-114 105 -283 105q-171 0 -285 -105q-112 -100 -112 -256
q0 -155 112 -258q114 -102 285 -102zM711 997l112 -184h-153l-86 150h-119v-150h-137v461h286q88 0 137.5 -39t49.5 -111q0 -84 -90 -127zM659 1112q0 51 -63 51h-131v-102h131q63 0 63 51z" />
    <glyph glyph-name="overscore" unicode="&#xaf;" horiz-adv-x="1228" 
d="M989 1425v-217h-749v217h749z" />
    <glyph glyph-name="degree" unicode="&#xb0;" horiz-adv-x="831" 
d="M37 1178q0 139 104 227q107 88 275 88t272 -88q107 -88 107 -227q0 -140 -107 -228q-110 -90 -272 -90q-168 0 -275 88q-104 88 -104 230zM233 1178q0 -63 50.5 -101.5t132.5 -38.5q85 0 132.5 37t47.5 103t-47.5 102.5t-132.5 36.5q-82 0 -132.5 -38t-50.5 -101z" />
    <glyph glyph-name="twosuperior" unicode="&#xb2;" horiz-adv-x="909" 
d="M55 655v162l346 189q147 75 183 108q39 36 39 80q0 45 -42 73.5t-110 28.5q-90 0 -152.5 -49t-76.5 -129l-205 43q21 143 141 232q122 90 303 90q167 0 270 -74.5t103 -196.5q0 -91 -56.5 -157.5t-183.5 -126.5l-170 -86h428v-187h-817z" />
    <glyph glyph-name="threesuperior" unicode="&#xb3;" horiz-adv-x="950" 
d="M915 889q0 -105 -120 -176q-119 -70 -316 -70q-171 0 -292.5 59t-178.5 170l199 91q31 -63 105.5 -101.5t166.5 -38.5q85 0 137 24t52 62q0 76 -181 76h-151v168h141q174 0 174 72q0 35 -46 55t-126 20q-87 0 -155.5 -34t-94.5 -90l-188 88q50 100 173 159.5t282 59.5
q182 0 291.5 -66t109.5 -172q0 -60 -38.5 -107t-104.5 -67q161 -49 161 -182z" />
    <glyph glyph-name="acute" unicode="&#xb4;" horiz-adv-x="1228" 
d="M594 1174h-242l213 296h369z" />
    <glyph glyph-name="paragraph" unicode="&#xb6;" horiz-adv-x="1742" 
d="M1450 0h-272v1229h-295v-578h-363q-210 0 -342 111q-131 110 -131 293q0 186 139 301q138 114 365 114h1167v-241h-268v-1229z" />
    <glyph glyph-name="middot" unicode="&#xb7;" horiz-adv-x="499" 
d="M418 430h-336v332h336v-332z" />
    <glyph glyph-name="cedilla" unicode="&#xb8;" horiz-adv-x="1228" 
d="M899 -205q0 -81 -80.5 -130.5t-210.5 -49.5q-185 0 -278 74l88 131q73 -58 178 -58q109 0 109 50q0 29 -44.5 42.5t-152.5 14.5l47 156h137l-20 -68q104 -4 165.5 -48.5t61.5 -113.5z" />
    <glyph glyph-name="onesuperior" unicode="&#xb9;" horiz-adv-x="763" 
d="M750 655h-723v189h262v319h-262v168l123 4q91 1 135.5 33t56.5 102h174v-626h234v-189z" />
    <glyph glyph-name="ordmasculine" unicode="&#xba;" horiz-adv-x="999" 
d="M500 1485q202 0 327 -113q129 -111 129 -289q0 -174 -129 -288q-128 -113 -327 -113q-200 0 -328 113q-129 114 -129 288q0 177 127 289q128 113 330 113zM500 1300q-105 0 -170.5 -59.5t-65.5 -157.5q0 -97 65.5 -156t170.5 -59t171 59.5t66 155.5q0 98 -66 157.5
t-171 59.5zM944 385h-889v193h889v-193z" />
    <glyph glyph-name="guillemotright" unicode="&#xbb;" horiz-adv-x="1116" 
d="M532 666v-267l-454 -278v276l209 135l-209 136v276zM1038 666v-267l-454 -278v276l209 135l-209 136v276z" />
    <glyph glyph-name="onequarter" unicode="&#xbc;" horiz-adv-x="2072" 
d="M750 655h-723v189h262v319h-262v168l123 4q91 1 135.5 33t56.5 102h174v-626h234v-189zM354 0l1166 1470h252l-1166 -1470h-252zM1855 178v-178h-217v178h-516v166l445 471h288v-461h187v-176h-187zM1638 635l-266 -281h266v281z" />
    <glyph glyph-name="onehalf" unicode="&#xbd;" horiz-adv-x="2127" 
d="M750 655h-723v189h262v319h-262v168l123 4q91 1 135.5 33t56.5 102h174v-626h234v-189zM354 0l1166 1470h252l-1166 -1470h-252zM1274 0v162l346 188q143 73 182 109t39 80q0 45 -41.5 73.5t-109.5 28.5q-90 0 -153 -49t-77 -129l-205 43q21 141 142 231q122 90 303 90
q167 0 270 -74t103 -196q0 -91 -56.5 -158t-183.5 -127l-170 -86h428v-186h-817z" />
    <glyph glyph-name="threequarters" unicode="&#xbe;" horiz-adv-x="2117" 
d="M915 889q0 -105 -120 -176q-119 -70 -316 -70q-171 0 -292.5 59t-178.5 170l199 91q31 -63 105.5 -101.5t166.5 -38.5q85 0 137 24t52 62q0 76 -181 76h-151v168h141q174 0 174 72q0 35 -46 55t-126 20q-87 0 -155.5 -34t-94.5 -90l-188 88q50 100 173 159.5t282 59.5
q182 0 291.5 -66t109.5 -172q0 -60 -38.5 -107t-104.5 -67q161 -49 161 -182zM397 0l1166 1470h252l-1166 -1470h-252zM1901 178v-178h-218v178h-516v166l445 471h289v-461h186v-176h-186zM1683 635l-266 -281h266v281z" />
    <glyph glyph-name="questiondown" unicode="&#xbf;" horiz-adv-x="1447" 
d="M524 1491h338v-326h-338v326zM340 473q0 -219 373 -219q174 0 290 69.5t136 186.5l305 -45q-37 -211 -240 -340q-201 -127 -508 -127q-308 0 -491 125q-185 126 -185 334q0 171 143 285.5t396 146.5v145h291v-348q-265 0 -387.5 -51.5t-122.5 -161.5z" />
    <glyph glyph-name="Agrave" unicode="&#xc0;" horiz-adv-x="1794" 
d="M-14 0l741 1470h338l741 -1470h-325l-170 342h-832l-172 -342h-321zM1182 598l-287 576l-289 -576h576zM805 1864l239 -310h-258l-389 310h408z" />
    <glyph glyph-name="Aacute" unicode="&#xc1;" horiz-adv-x="1794" 
d="M-14 0l741 1470h338l741 -1470h-325l-170 342h-832l-172 -342h-321zM1182 598l-287 576l-289 -576h576zM1014 1554h-258l239 310h408z" />
    <glyph glyph-name="Acircumflex" unicode="&#xc2;" horiz-adv-x="1794" 
d="M-14 0l741 1470h338l741 -1470h-325l-170 342h-832l-172 -342h-321zM1182 598l-287 576l-289 -576h576zM735 1864h320l295 -310h-238l-217 138l-217 -138h-238z" />
    <glyph glyph-name="Atilde" unicode="&#xc3;" horiz-adv-x="1794" 
d="M-14 0l741 1470h338l741 -1470h-325l-170 342h-832l-172 -342h-321zM1182 598l-287 576l-289 -576h576zM692 1890q58 0 108 -13t128 -52q92 -45 145 -45q35 0 55.5 25t32.5 85h191q-7 -155 -75 -245.5t-177 -90.5q-52 0 -104 14t-132 52q-57 29 -86 38t-57 9
q-37 0 -57 -26.5t-31 -86.5h-191q6 156 73 246t177 90z" />
    <glyph glyph-name="Adieresis" unicode="&#xc4;" horiz-adv-x="1794" 
d="M-14 0l741 1470h338l741 -1470h-325l-170 342h-832l-172 -342h-321zM1182 598l-287 576l-289 -576h576zM782 1554h-295v271h295v-271zM1303 1554h-295v271h295v-271z" />
    <glyph glyph-name="Aring" unicode="&#xc5;" horiz-adv-x="1794" 
d="M604 1616q0 111 82 184q83 74 209 74t209 -74q84 -75 84 -184q0 -121 -96 -197l714 -1419h-325l-170 342h-832l-172 -342h-321l714 1419q-96 80 -96 197zM895 1724q-54 0 -87.5 -30.5t-33.5 -77.5t35 -78t86 -31q54 0 87.5 30.5t33.5 78.5q0 47 -33.5 77.5t-87.5 30.5z
M1182 598l-287 576l-289 -576h576z" />
    <glyph glyph-name="AE" unicode="&#xc6;" horiz-adv-x="2906" 
d="M-25 0l1315 1470h1553v-260h-1127v-327h1010v-258h-1010v-365h1127v-260h-1424v338h-766l-299 -338h-379zM1419 1202l-540 -610h540v610z" />
    <glyph glyph-name="Ccedilla" unicode="&#xc7;" horiz-adv-x="1710" 
d="M47 735q0 327 246 541q248 217 622 217q284 0 489.5 -121.5t291.5 -341.5l-260 -131q-66 161 -198 245.5t-320 84.5q-246 0 -406 -139q-158 -140 -158 -355q0 -216 158 -356q158 -137 406 -137q188 0 320 84.5t198 244.5l260 -131q-86 -220 -289.5 -341.5t-484.5 -121.5
l-7 -20q104 -4 166 -48.5t62 -113.5q0 -81 -80.5 -130.5t-210.5 -49.5q-186 0 -279 74l89 131q73 -58 178 -58q108 0 108 50q0 29 -44 42.5t-152 14.5l34 117q-330 38 -534 245q-205 208 -205 504z" />
    <glyph glyph-name="Egrave" unicode="&#xc8;" horiz-adv-x="1615" 
d="M129 0v1470h1423v-260h-1126v-327h1010v-258h-1010v-365h1126v-260h-1423zM805 1864l239 -310h-258l-389 310h408z" />
    <glyph glyph-name="Eacute" unicode="&#xc9;" horiz-adv-x="1615" 
d="M129 0v1470h1423v-260h-1126v-327h1010v-258h-1010v-365h1126v-260h-1423zM928 1554h-258l239 310h408z" />
    <glyph glyph-name="Ecircumflex" unicode="&#xca;" horiz-adv-x="1615" 
d="M129 0v1470h1423v-260h-1126v-327h1010v-258h-1010v-365h1126v-260h-1423zM676 1864h319l295 -310h-237l-217 138l-218 -138h-237z" />
    <glyph glyph-name="Edieresis" unicode="&#xcb;" horiz-adv-x="1615" 
d="M129 0v1470h1423v-260h-1126v-327h1010v-258h-1010v-365h1126v-260h-1423zM723 1554h-295v271h295v-271zM1243 1554h-295v271h295v-271z" />
    <glyph glyph-name="Igrave" unicode="&#xcc;" horiz-adv-x="557" 
d="M129 1470h301v-1470h-301v1470zM172 1864l240 -310h-258l-390 310h408z" />
    <glyph glyph-name="Iacute" unicode="&#xcd;" horiz-adv-x="557" 
d="M129 1470h301v-1470h-301v1470zM406 1554h-259l240 310h408z" />
    <glyph glyph-name="Icircumflex" unicode="&#xce;" horiz-adv-x="557" 
d="M129 1470h301v-1470h-301v1470zM119 1864h319l295 -310h-237l-217 138l-218 -138h-237z" />
    <glyph glyph-name="Idieresis" unicode="&#xcf;" horiz-adv-x="557" 
d="M129 1470h301v-1470h-301v1470zM166 1554h-295v271h295v-271zM686 1554h-295v271h295v-271z" />
    <glyph glyph-name="Eth" unicode="&#xd0;" horiz-adv-x="1849" 
d="M963 0h-752v625h-201v256h201v589h752q388 0 614 -198q227 -199 227 -537q0 -337 -227 -536t-614 -199zM506 625v-367h457q248 0 391 128t143 349t-143 349t-391 128h-457v-331h336v-256h-336z" />
    <glyph glyph-name="Ntilde" unicode="&#xd1;" horiz-adv-x="1773" 
d="M1354 1470h293v-1470h-267l-960 1087v-1087h-291v1470h307l918 -1038v1038zM674 1890q58 0 107.5 -13t127.5 -52q92 -45 146 -45q35 0 55.5 25t32.5 85h190q-7 -155 -75 -245.5t-177 -90.5q-52 0 -103.5 14t-131.5 52q-92 47 -144 47q-37 0 -57 -26.5t-31 -86.5h-190
q6 156 73 246t177 90z" />
    <glyph glyph-name="Ograve" unicode="&#xd2;" horiz-adv-x="1830" 
d="M47 735q0 329 246 543q247 215 622 215q374 0 621 -215q248 -214 248 -543q0 -328 -248 -542q-248 -216 -621 -216q-374 0 -622 216q-246 215 -246 542zM1475 735q0 222 -156 357q-152 137 -404 137q-250 0 -405 -137q-154 -136 -154 -357q0 -219 154 -358
q156 -135 405 -135q251 0 404 135q156 138 156 358zM840 1864l239 -310h-258l-389 310h408z" />
    <glyph glyph-name="Oacute" unicode="&#xd3;" horiz-adv-x="1830" 
d="M47 735q0 329 246 543q247 215 622 215q374 0 621 -215q248 -214 248 -543q0 -328 -248 -542q-248 -216 -621 -216q-374 0 -622 216q-246 215 -246 542zM1475 735q0 222 -156 357q-152 137 -404 137q-250 0 -405 -137q-154 -136 -154 -357q0 -219 154 -358
q156 -135 405 -135q251 0 404 135q156 138 156 358zM1016 1554h-258l239 310h408z" />
    <glyph glyph-name="Ocircumflex" unicode="&#xd4;" horiz-adv-x="1830" 
d="M47 735q0 329 246 543q247 215 622 215q374 0 621 -215q248 -214 248 -543q0 -328 -248 -542q-248 -216 -621 -216q-374 0 -622 216q-246 215 -246 542zM1475 735q0 222 -156 357q-152 137 -404 137q-250 0 -405 -137q-154 -136 -154 -357q0 -219 154 -358
q156 -135 405 -135q251 0 404 135q156 138 156 358zM756 1864h319l295 -310h-237l-218 138l-217 -138h-237z" />
    <glyph glyph-name="Otilde" unicode="&#xd5;" horiz-adv-x="1830" 
d="M47 735q0 329 246 543q247 215 622 215q374 0 621 -215q248 -214 248 -543q0 -328 -248 -542q-248 -216 -621 -216q-374 0 -622 216q-246 215 -246 542zM1475 735q0 222 -156 357q-152 137 -404 137q-250 0 -405 -137q-154 -136 -154 -357q0 -219 154 -358
q156 -135 405 -135q251 0 404 135q156 138 156 358zM711 1890q58 0 107.5 -13t127.5 -52q92 -45 146 -45q35 0 55.5 25t32.5 85h190q-7 -155 -75 -245.5t-177 -90.5q-52 0 -103.5 14t-131.5 52q-92 47 -144 47q-37 0 -57 -26.5t-31 -86.5h-190q6 156 73 246t177 90z" />
    <glyph glyph-name="Odieresis" unicode="&#xd6;" horiz-adv-x="1830" 
d="M47 735q0 329 246 543q247 215 622 215q374 0 621 -215q248 -214 248 -543q0 -328 -248 -542q-248 -216 -621 -216q-374 0 -622 216q-246 215 -246 542zM1475 735q0 222 -156 357q-152 137 -404 137q-250 0 -405 -137q-154 -136 -154 -357q0 -219 154 -358
q156 -135 405 -135q251 0 404 135q156 138 156 358zM803 1554h-295v271h295v-271zM1323 1554h-295v271h295v-271z" />
    <glyph glyph-name="multiply" unicode="&#xd7;" 
d="M160 238l489 487l-489 487l172 172l489 -487l486 483l170 -168l-486 -487l488 -487l-170 -172l-490 489l-487 -489z" />
    <glyph glyph-name="Oslash" unicode="&#xd8;" horiz-adv-x="1828" 
d="M240 -59l-172 170l155 149q-176 204 -176 475q0 329 246 543q247 215 622 215q294 0 521 -139l155 149l170 -168l-143 -137q166 -200 166 -463q0 -328 -248 -542q-248 -216 -621 -216q-279 0 -505 129zM915 1237q-256 0 -411 -137q-156 -138 -156 -365q0 -172 94 -297
l781 729q-131 70 -308 70zM915 233q254 0 410 138t156 364q0 158 -84 283l-774 -723q133 -62 292 -62z" />
    <glyph glyph-name="Ugrave" unicode="&#xd9;" horiz-adv-x="1687" 
d="M844 -20q-364 0 -560 185.5t-196 528.5v776h301v-759q0 -467 455 -467q452 0 452 467v759h303v-776q0 -343 -196 -528.5t-559 -185.5zM797 1864l239 -310h-258l-389 310h408z" />
    <glyph glyph-name="Uacute" unicode="&#xda;" horiz-adv-x="1687" 
d="M844 -20q-364 0 -560 185.5t-196 528.5v776h301v-759q0 -467 455 -467q452 0 452 467v759h303v-776q0 -343 -196 -528.5t-559 -185.5zM932 1554h-258l239 310h408z" />
    <glyph glyph-name="Ucircumflex" unicode="&#xdb;" horiz-adv-x="1687" 
d="M844 -20q-364 0 -560 185.5t-196 528.5v776h301v-759q0 -467 455 -467q452 0 452 467v759h303v-776q0 -343 -196 -528.5t-559 -185.5zM684 1864h320l294 -310h-237l-217 138l-217 -138h-238z" />
    <glyph glyph-name="Udieresis" unicode="&#xdc;" horiz-adv-x="1687" 
d="M844 -20q-364 0 -560 185.5t-196 528.5v776h301v-759q0 -467 455 -467q452 0 452 467v759h303v-776q0 -343 -196 -528.5t-559 -185.5zM731 1554h-295v271h295v-271zM1251 1554h-295v271h295v-271z" />
    <glyph glyph-name="Yacute" unicode="&#xdd;" horiz-adv-x="1736" 
d="M346 1470l526 -602l527 602h358l-737 -845v-625h-301v625l-739 845h366zM965 1554h-258l239 310h408z" />
    <glyph glyph-name="Thorn" unicode="&#xde;" horiz-adv-x="1640" 
d="M1606 756q0 -220 -147 -342.5t-410 -122.5h-619v-291h-301v1470h301v-249h619q263 0 410 -122t147 -343zM1032 969h-602v-426h602q130 0 203.5 56.5t73.5 156.5t-73.5 156.5t-203.5 56.5z" />
    <glyph glyph-name="germandbls" unicode="&#xdf;" horiz-adv-x="1497" 
d="M766 1493q244 0 387 -104q147 -105 147 -271q0 -100 -53 -175t-151 -112q174 -41 267 -143t93 -254q0 -199 -158 -330q-157 -127 -401 -127q-142 0 -261.5 46.5t-197.5 132.5l144 206q139 -151 313 -151q127 0 206 63.5t79 163.5q0 117 -103.5 177.5t-304.5 60.5h-217
v242h199q129 0 200.5 44t71.5 123q0 84 -70.5 130.5t-195.5 46.5q-167 0 -262 -92t-95 -252v-918h-284v922q0 250 176 409q177 162 471 162z" />
    <glyph glyph-name="agrave" unicode="&#xe0;" horiz-adv-x="1357" 
d="M950 133q-78 -74 -197 -115t-255 -41q-205 0 -329 90.5t-124 243.5q0 141 112 228.5t316 107.5l449 47v8q0 76 -71.5 120t-197.5 44q-115 0 -204.5 -46t-118.5 -118l-248 84q51 142 211 226q164 86 371 86q258 0 396 -104t138 -296v-424q0 -50 35 -65q17 -7 39 -4
q24 0 76 10v-215q-66 -14 -129 -14q-71 0 -127 18q-101 34 -142 129zM537 197q157 0 270 61q115 65 115 158v73l-406 -45q-104 -12 -148 -40.5t-44 -84.5q0 -60 55 -91t158 -31zM623 1470l213 -296h-242l-340 296h369z" />
    <glyph glyph-name="aacute" unicode="&#xe1;" horiz-adv-x="1357" 
d="M950 133q-78 -74 -197 -115t-255 -41q-205 0 -329 90.5t-124 243.5q0 141 112 228.5t316 107.5l449 47v8q0 76 -71.5 120t-197.5 44q-115 0 -204.5 -46t-118.5 -118l-248 84q51 142 211 226q164 86 371 86q258 0 396 -104t138 -296v-424q0 -50 35 -65q17 -7 39 -4
q24 0 76 10v-215q-66 -14 -129 -14q-71 0 -127 18q-101 34 -142 129zM537 197q157 0 270 61q115 65 115 158v73l-406 -45q-104 -12 -148 -40.5t-44 -84.5q0 -60 55 -91t158 -31zM764 1174h-242l213 296h369z" />
    <glyph glyph-name="acircumflex" unicode="&#xe2;" horiz-adv-x="1357" 
d="M950 133q-78 -74 -197 -115t-255 -41q-205 0 -329 90.5t-124 243.5q0 141 112 228.5t316 107.5l449 47v8q0 76 -71.5 120t-197.5 44q-115 0 -204.5 -46t-118.5 -118l-248 84q51 142 211 226q164 86 371 86q258 0 396 -104t138 -296v-424q0 -50 35 -65q17 -7 39 -4
q24 0 76 10v-215q-66 -14 -129 -14q-71 0 -127 18q-101 34 -142 129zM537 197q157 0 270 61q115 65 115 158v73l-406 -45q-104 -12 -148 -40.5t-44 -84.5q0 -60 55 -91t158 -31zM512 1470h291l264 -296h-223l-187 118l-186 -118h-223z" />
    <glyph glyph-name="atilde" unicode="&#xe3;" horiz-adv-x="1357" 
d="M950 133q-78 -74 -197 -115t-255 -41q-205 0 -329 90.5t-124 243.5q0 141 112 228.5t316 107.5l449 47v8q0 76 -71.5 120t-197.5 44q-115 0 -204.5 -46t-118.5 -118l-248 84q51 142 211 226q164 86 371 86q258 0 396 -104t138 -296v-424q0 -50 35 -65q17 -7 39 -4
q24 0 76 10v-215q-66 -14 -129 -14q-71 0 -127 18q-101 34 -142 129zM537 197q157 0 270 61q115 65 115 158v73l-406 -45q-104 -12 -148 -40.5t-44 -84.5q0 -60 55 -91t158 -31zM471 1487q46 0 90 -13.5t109 -50.5q73 -41 113 -41q31 0 48.5 24.5t28.5 80.5h177
q-6 -146 -66 -229.5t-158 -83.5q-47 0 -90 13t-108 50q-74 41 -113 41q-31 0 -49.5 -24.5t-28.5 -79.5h-176q6 146 65.5 229.5t157.5 83.5z" />
    <glyph glyph-name="adieresis" unicode="&#xe4;" horiz-adv-x="1357" 
d="M950 133q-78 -74 -197 -115t-255 -41q-205 0 -329 90.5t-124 243.5q0 141 112 228.5t316 107.5l449 47v8q0 76 -71.5 120t-197.5 44q-115 0 -204.5 -46t-118.5 -118l-248 84q51 142 211 226q164 86 371 86q258 0 396 -104t138 -296v-424q0 -50 35 -65q17 -7 39 -4
q24 0 76 10v-215q-66 -14 -129 -14q-71 0 -127 18q-101 34 -142 129zM537 197q157 0 270 61q115 65 115 158v73l-406 -45q-104 -12 -148 -40.5t-44 -84.5q0 -60 55 -91t158 -31zM559 1204h-295v266h295v-266zM1063 1204h-295v266h295v-266z" />
    <glyph glyph-name="aring" unicode="&#xe5;" horiz-adv-x="1357" 
d="M950 133q-78 -74 -197 -115t-255 -41q-205 0 -329 90.5t-124 243.5q0 141 112 228.5t316 107.5l449 47v8q0 76 -71.5 120t-197.5 44q-115 0 -204.5 -46t-118.5 -118l-248 84q51 142 211 226q164 86 371 86q258 0 396 -104t138 -296v-424q0 -50 35 -65q17 -7 39 -4
q24 0 76 10v-215q-66 -14 -129 -14q-71 0 -127 18q-101 34 -142 129zM537 197q157 0 270 61q115 65 115 158v73l-406 -45q-104 -12 -148 -40.5t-44 -84.5q0 -60 55 -91t158 -31zM657 1149q-99 0 -166 64.5t-67 158.5q0 93 67 157t166 64t166.5 -64t67.5 -157
q0 -94 -67.5 -158.5t-166.5 -64.5zM657 1464q-37 0 -63.5 -27.5t-26.5 -64.5q0 -38 26 -65t64 -27t64.5 27t26.5 65q0 37 -27 64.5t-64 27.5z" />
    <glyph glyph-name="ae" unicode="&#xe6;" horiz-adv-x="2195" 
d="M45 311q0 158 129 248t358 90h390v53q0 76 -71.5 120t-197.5 44q-115 0 -204.5 -46t-118.5 -118l-248 84q51 142 211 226q164 86 371 86q318 0 446 -158q85 76 200 117t244 41q266 0 431 -154q163 -153 163 -395v-90h-952q26 -116 120.5 -182t233.5 -66q119 0 208.5 52.5
t127.5 144.5l244 -105q-58 -144 -217 -235q-160 -91 -359 -91q-165 0 -300 59.5t-222 168.5q-84 -112 -219 -170t-309 -58q-210 0 -334.5 89.5t-124.5 244.5zM1542 870q-125 0 -215.5 -59t-122.5 -162h666q-15 91 -111 156q-95 65 -217 65zM324 324q0 -61 56 -94t157 -33
q157 0 270 61q115 62 115 158v43h-359q-239 0 -239 -135z" />
    <glyph glyph-name="ccedilla" unicode="&#xe7;" horiz-adv-x="1265" 
d="M47 539q0 246 180 401q184 158 459 158q196 0 356 -97q154 -93 211 -247l-239 -117q-32 99 -123.5 161t-206.5 62q-161 0 -259.5 -87.5t-98.5 -233.5t99 -235t259 -89q115 0 206.5 62t123.5 161l237 -121q-53 -145 -202 -239q-148 -95 -342 -101l-7 -20q104 -4 166 -48.5
t62 -113.5q0 -81 -80.5 -130.5t-210.5 -49.5q-186 0 -279 74l88 131q73 -58 179 -58q108 0 108 50q0 29 -44 42.5t-152 14.5l34 117q-235 30 -381 182q-143 152 -143 371z" />
    <glyph glyph-name="egrave" unicode="&#xe8;" horiz-adv-x="1325" 
d="M684 -23q-280 0 -459 156q-178 156 -178 406q0 243 178 399q183 160 457 160q267 0 432 -154q164 -153 164 -395v-90h-954q26 -115 122.5 -181.5t237.5 -66.5q117 0 206 52.5t126 144.5l244 -105q-58 -143 -218 -235q-160 -91 -358 -91zM672 868q-125 0 -215.5 -57.5
t-122.5 -157.5h661q-15 88 -106 152q-89 63 -217 63zM635 1470l213 -296h-242l-340 296h369z" />
    <glyph glyph-name="eacute" unicode="&#xe9;" horiz-adv-x="1325" 
d="M684 -23q-280 0 -459 156q-178 156 -178 406q0 243 178 399q183 160 457 160q267 0 432 -154q164 -153 164 -395v-90h-954q26 -115 122.5 -181.5t237.5 -66.5q117 0 206 52.5t126 144.5l244 -105q-58 -143 -218 -235q-160 -91 -358 -91zM672 868q-125 0 -215.5 -57.5
t-122.5 -157.5h661q-15 88 -106 152q-89 63 -217 63zM784 1174h-242l213 296h369z" />
    <glyph glyph-name="ecircumflex" unicode="&#xea;" horiz-adv-x="1325" 
d="M684 -23q-280 0 -459 156q-178 156 -178 406q0 243 178 399q183 160 457 160q267 0 432 -154q164 -153 164 -395v-90h-954q26 -115 122.5 -181.5t237.5 -66.5q117 0 206 52.5t126 144.5l244 -105q-58 -143 -218 -235q-160 -91 -358 -91zM672 868q-125 0 -215.5 -57.5
t-122.5 -157.5h661q-15 88 -106 152q-89 63 -217 63zM530 1470h291l264 -296h-223l-187 118l-186 -118h-223z" />
    <glyph glyph-name="edieresis" unicode="&#xeb;" horiz-adv-x="1325" 
d="M684 -23q-280 0 -459 156q-178 156 -178 406q0 243 178 399q183 160 457 160q267 0 432 -154q164 -153 164 -395v-90h-954q26 -115 122.5 -181.5t237.5 -66.5q117 0 206 52.5t126 144.5l244 -105q-58 -143 -218 -235q-160 -91 -358 -91zM672 868q-125 0 -215.5 -57.5
t-122.5 -157.5h661q-15 88 -106 152q-89 63 -217 63zM565 1204h-295v266h295v-266zM1069 1204h-295v266h295v-266z" />
    <glyph glyph-name="igrave" unicode="&#xec;" horiz-adv-x="505" 
d="M111 1077h286v-1077h-286v1077zM172 1470l213 -296h-242l-340 296h369z" />
    <glyph glyph-name="iacute" unicode="&#xed;" horiz-adv-x="505" 
d="M111 1077h286v-1077h-286v1077zM367 1174h-242l213 296h369z" />
    <glyph glyph-name="icircumflex" unicode="&#xee;" horiz-adv-x="505" 
d="M111 1077h286v-1077h-286v1077zM109 1470h291l264 -296h-223l-187 118l-186 -118h-223z" />
    <glyph glyph-name="idieresis" unicode="&#xef;" horiz-adv-x="505" 
d="M111 1077h286v-1077h-286v1077zM150 1204h-295v266h295v-266zM653 1204h-295v266h295v-266z" />
    <glyph glyph-name="eth" unicode="&#xf0;" horiz-adv-x="1351" 
d="M639 1081q168 0 260 -53q-59 84 -170 166l-473 -113v197l252 59q-94 52 -201 101l309 53q93 -38 172 -88l371 88v-197l-168 -39q154 -136 234 -307t80 -362q0 -274 -175 -443q-175 -166 -452 -166q-269 0 -453 158q-178 156 -178 402q0 236 170 389q171 155 422 155z
M678 858q-156 0 -254 -88.5t-98 -230.5q0 -146 98 -234t254 -88q155 0 252.5 88.5t97.5 233.5q0 142 -98 230.5t-252 88.5z" />
    <glyph glyph-name="ntilde" unicode="&#xf1;" horiz-adv-x="1361" 
d="M397 0h-286v1077h286v-135q66 74 169 115t225 41q216 0 342 -135q127 -136 127 -363v-600h-287v532q0 146 -73 227t-204 81q-141 0 -220 -82t-79 -230v-528zM514 1487q46 0 90 -13.5t109 -50.5q73 -41 113 -41q31 0 48.5 24.5t28.5 80.5h177q-6 -146 -66 -229.5
t-158 -83.5q-47 0 -90 13t-108 50q-74 41 -113 41q-31 0 -49.5 -24.5t-28.5 -79.5h-176q6 146 65.5 229.5t157.5 83.5z" />
    <glyph glyph-name="ograve" unicode="&#xf2;" horiz-adv-x="1353" 
d="M678 1098q267 0 448 -158q179 -156 179 -401q0 -248 -179 -404q-181 -158 -448 -158q-269 0 -453 158q-178 156 -178 404q0 245 178 401q184 158 453 158zM678 858q-156 0 -254 -88.5t-98 -230.5q0 -146 98 -234t254 -88q155 0 252.5 88.5t97.5 233.5q0 142 -98 230.5
t-252 88.5zM614 1473l213 -297h-241l-340 297h368z" />
    <glyph glyph-name="oacute" unicode="&#xf3;" horiz-adv-x="1353" 
d="M678 1098q267 0 448 -158q179 -156 179 -401q0 -248 -179 -404q-181 -158 -448 -158q-269 0 -453 158q-178 156 -178 404q0 245 178 401q184 158 453 158zM678 858q-156 0 -254 -88.5t-98 -230.5q0 -146 98 -234t254 -88q155 0 252.5 88.5t97.5 233.5q0 142 -98 230.5
t-252 88.5zM780 1174h-242l213 296h369z" />
    <glyph glyph-name="ocircumflex" unicode="&#xf4;" horiz-adv-x="1353" 
d="M678 1098q267 0 448 -158q179 -156 179 -401q0 -248 -179 -404q-181 -158 -448 -158q-269 0 -453 158q-178 156 -178 404q0 245 178 401q184 158 453 158zM678 858q-156 0 -254 -88.5t-98 -230.5q0 -146 98 -234t254 -88q155 0 252.5 88.5t97.5 233.5q0 142 -98 230.5
t-252 88.5zM530 1470h291l264 -296h-223l-187 118l-186 -118h-223z" />
    <glyph glyph-name="otilde" unicode="&#xf5;" horiz-adv-x="1353" 
d="M678 1098q267 0 448 -158q179 -156 179 -401q0 -248 -179 -404q-181 -158 -448 -158q-269 0 -453 158q-178 156 -178 404q0 245 178 401q184 158 453 158zM678 858q-156 0 -254 -88.5t-98 -230.5q0 -146 98 -234t254 -88q155 0 252.5 88.5t97.5 233.5q0 142 -98 230.5
t-252 88.5zM505 1487q46 0 90 -13.5t109 -50.5q73 -41 113 -41q31 0 48.5 24.5t28.5 80.5h177q-6 -146 -66 -229.5t-158 -83.5q-47 0 -90 13t-108 50q-74 41 -113 41q-31 0 -49.5 -24.5t-28.5 -79.5h-176q6 146 65.5 229.5t157.5 83.5z" />
    <glyph glyph-name="odieresis" unicode="&#xf6;" horiz-adv-x="1353" 
d="M678 1098q267 0 448 -158q179 -156 179 -401q0 -248 -179 -404q-181 -158 -448 -158q-269 0 -453 158q-178 156 -178 404q0 245 178 401q184 158 453 158zM678 858q-156 0 -254 -88.5t-98 -230.5q0 -146 98 -234t254 -88q155 0 252.5 88.5t97.5 233.5q0 142 -98 230.5
t-252 88.5zM571 1204h-295v266h295v-266zM1075 1204h-295v266h295v-266z" />
    <glyph glyph-name="divide" unicode="&#xf7;" 
d="M971 1055h-307v297h307v-297zM1516 602h-1393v246h1393v-246zM971 98h-307v297h307v-297z" />
    <glyph glyph-name="oslash" unicode="&#xf8;" horiz-adv-x="1353" 
d="M49 539q0 245 178 401q181 158 451 158q199 0 350 -88l127 127l141 -138l-114 -114q123 -148 123 -346q0 -248 -179 -404q-181 -158 -448 -158q-196 0 -352 89l-125 -125l-144 135l115 117q-123 141 -123 346zM678 872q-159 0 -262 -92q-101 -91 -101 -241
q0 -106 50 -183l481 482q-72 34 -168 34zM678 205q161 0 260.5 91.5t99.5 242.5q0 102 -49 178l-481 -479q70 -33 170 -33z" />
    <glyph glyph-name="ugrave" unicode="&#xf9;" horiz-adv-x="1351" 
d="M956 1077h287v-1077h-287v135q-68 -76 -167.5 -117t-219.5 -41q-212 0 -340 134q-127 133 -127 356v610h287v-561q0 -141 68.5 -214t201.5 -73q141 0 219 80t78 226v542zM614 1470l213 -296h-241l-340 296h368z" />
    <glyph glyph-name="uacute" unicode="&#xfa;" horiz-adv-x="1351" 
d="M956 1077h287v-1077h-287v135q-68 -76 -167.5 -117t-219.5 -41q-212 0 -340 134q-127 133 -127 356v610h287v-561q0 -141 68.5 -214t201.5 -73q141 0 219 80t78 226v542zM772 1174h-242l213 296h369z" />
    <glyph glyph-name="ucircumflex" unicode="&#xfb;" horiz-adv-x="1351" 
d="M956 1077h287v-1077h-287v135q-68 -76 -167.5 -117t-219.5 -41q-212 0 -340 134q-127 133 -127 356v610h287v-561q0 -141 68.5 -214t201.5 -73q141 0 219 80t78 226v542zM526 1470h291l264 -296h-223l-187 118l-186 -118h-223z" />
    <glyph glyph-name="udieresis" unicode="&#xfc;" horiz-adv-x="1351" 
d="M956 1077h287v-1077h-287v135q-68 -76 -167.5 -117t-219.5 -41q-212 0 -340 134q-127 133 -127 356v610h287v-561q0 -141 68.5 -214t201.5 -73q141 0 219 80t78 226v542zM567 1204h-295v266h295v-266zM1071 1204h-295v266h295v-266z" />
    <glyph glyph-name="yacute" unicode="&#xfd;" horiz-adv-x="1347" 
d="M1352 1077l-564 -1153q-80 -166 -186 -236.5t-278 -70.5q-60 0 -128.5 13t-105.5 32l51 234q75 -41 158 -41q86 0 138.5 33.5t78.5 105.5l10 33l-530 1050h319l369 -768l360 768h308zM772 1174h-242l213 296h369z" />
    <glyph glyph-name="thorn" unicode="&#xfe;" horiz-adv-x="1435" 
d="M1386 539q0 -250 -161 -404q-166 -158 -424 -158q-126 0 -233 41t-171 111v-494h-286v1835h286v-524q64 70 171 111t233 41q258 0 424 -158q161 -154 161 -401zM750 864q-155 0 -261 -92q-104 -88 -104 -227v-15q0 -136 104 -227q109 -92 261 -92q156 0 260 90
q102 88 102 238q0 147 -102 235q-104 90 -260 90z" />
    <glyph glyph-name="ydieresis" unicode="&#xff;" horiz-adv-x="1347" 
d="M1352 1077l-564 -1153q-80 -166 -186 -236.5t-278 -70.5q-60 0 -128.5 13t-105.5 32l51 234q75 -41 158 -41q86 0 138.5 33.5t78.5 105.5l10 33l-530 1050h319l369 -768l360 768h308zM569 1204h-295v266h295v-266zM1073 1204h-295v266h295v-266z" />
    <glyph glyph-name="Amacron" unicode="&#x100;" horiz-adv-x="1794" 
d="M-14 0l741 1470h338l741 -1470h-325l-170 342h-832l-172 -342h-321zM1182 598l-287 576l-289 -576h576zM1296 1794v-223h-802v223h802z" />
    <glyph glyph-name="amacron" unicode="&#x101;" horiz-adv-x="1357" 
d="M950 133q-78 -74 -197 -115t-255 -41q-205 0 -329 90.5t-124 243.5q0 141 112 228.5t316 107.5l449 47v8q0 76 -71.5 120t-197.5 44q-115 0 -204.5 -46t-118.5 -118l-248 84q51 142 211 226q164 86 371 86q258 0 396 -104t138 -296v-424q0 -50 35 -65q17 -7 39 -4
q24 0 76 10v-215q-66 -14 -129 -14q-71 0 -127 18q-101 34 -142 129zM537 197q157 0 270 61q115 65 115 158v73l-406 -45q-104 -12 -148 -40.5t-44 -84.5q0 -60 55 -91t158 -31zM1024 1425v-217h-750v217h750z" />
    <glyph glyph-name="Abreve" unicode="&#x102;" horiz-adv-x="1794" 
d="M-14 0l741 1470h338l741 -1470h-325l-170 342h-832l-172 -342h-321zM1182 598l-287 576l-289 -576h576zM895 1739q87 0 143 35t56 90h211q0 -143 -111 -230.5t-299 -87.5t-299 87.5t-111 230.5h211q0 -55 56 -90t143 -35z" />
    <glyph glyph-name="abreve" unicode="&#x103;" horiz-adv-x="1357" 
d="M950 133q-78 -74 -197 -115t-255 -41q-205 0 -329 90.5t-124 243.5q0 141 112 228.5t316 107.5l449 47v8q0 76 -71.5 120t-197.5 44q-115 0 -204.5 -46t-118.5 -118l-248 84q51 142 211 226q164 86 371 86q258 0 396 -104t138 -296v-424q0 -50 35 -65q17 -7 39 -4
q24 0 76 10v-215q-66 -14 -129 -14q-71 0 -127 18q-101 34 -142 129zM537 197q157 0 270 61q115 65 115 158v73l-406 -45q-104 -12 -148 -40.5t-44 -84.5q0 -60 55 -91t158 -31zM677 1356q175 0 187 114h196q-2 -143 -102.5 -223t-280.5 -80t-280.5 80t-102.5 223h197
q12 -114 186 -114z" />
    <glyph glyph-name="Aogonek" unicode="&#x104;" horiz-adv-x="1794" 
d="M1501 -377q-119 0 -193.5 50.5t-74.5 131.5q0 76 57 142t162 110l-141 285h-832l-172 -342h-321l741 1470h338l741 -1470h-151q-120 -37 -174 -70t-54 -71q0 -29 34 -46.5t91 -17.5q54 0 103 12v-167q-107 -17 -154 -17zM1182 598l-287 576l-289 -576h576z" />
    <glyph glyph-name="aogonek" unicode="&#x105;" horiz-adv-x="1357" 
d="M950 133q-78 -74 -197 -115t-255 -41q-205 0 -329 90.5t-124 243.5q0 141 112 228.5t316 107.5l449 47v8q0 76 -71.5 120t-197.5 44q-115 0 -204.5 -46t-118.5 -118l-248 84q51 142 211 226q164 86 371 86q258 0 396 -104t138 -296v-424q0 -50 35 -65q17 -7 39 -4
q24 0 76 10v-215q-120 -37 -174 -70t-54 -71q0 -29 34 -46.5t91 -17.5q53 0 103 12v-167q-107 -17 -154 -17q-119 0 -193.5 50.5t-74.5 131.5q0 123 139 211q-81 37 -115 117zM537 197q157 0 270 61q115 65 115 158v73l-406 -45q-104 -12 -148 -40.5t-44 -84.5q0 -60 55 -91
t158 -31z" />
    <glyph glyph-name="Cacute" unicode="&#x106;" horiz-adv-x="1710" 
d="M918 1229q-246 0 -406 -139q-158 -140 -158 -355q0 -216 158 -356q158 -137 406 -137q188 0 320 84.5t198 244.5l260 -131q-86 -220 -291.5 -341.5t-489.5 -121.5q-371 0 -622 216q-246 217 -246 542q0 327 246 541q248 217 622 217q284 0 489.5 -121.5t291.5 -341.5
l-260 -131q-66 161 -198 245.5t-320 84.5zM1024 1554h-258l240 310h407z" />
    <glyph glyph-name="cacute" unicode="&#x107;" horiz-adv-x="1265" 
d="M684 860q-161 0 -259.5 -87.5t-98.5 -233.5t99 -235t259 -89q115 0 206.5 62t123.5 161l237 -121q-56 -151 -211 -245q-154 -95 -354 -95q-275 0 -459 158q-180 155 -180 404q0 246 180 401q184 158 459 158q196 0 356 -97q154 -93 211 -247l-239 -117q-32 99 -123.5 161
t-206.5 62zM774 1174h-242l213 296h369z" />
    <glyph glyph-name="Ccircumflex" unicode="&#x108;" horiz-adv-x="1710" 
d="M918 1229q-246 0 -406 -139q-158 -140 -158 -355q0 -216 158 -356q158 -137 406 -137q188 0 320 84.5t198 244.5l260 -131q-86 -220 -291.5 -341.5t-489.5 -121.5q-371 0 -622 216q-246 217 -246 542q0 327 246 541q248 217 622 217q284 0 489.5 -121.5t291.5 -341.5
l-260 -131q-66 161 -198 245.5t-320 84.5zM752 1864h319l295 -310h-238l-217 138l-217 -138h-237z" />
    <glyph glyph-name="ccircumflex" unicode="&#x109;" horiz-adv-x="1265" 
d="M684 860q-161 0 -259.5 -87.5t-98.5 -233.5t99 -235t259 -89q115 0 206.5 62t123.5 161l237 -121q-56 -151 -211 -245q-154 -95 -354 -95q-275 0 -459 158q-180 155 -180 404q0 246 180 401q184 158 459 158q196 0 356 -97q154 -93 211 -247l-239 -117q-32 99 -123.5 161
t-206.5 62zM530 1470h291l264 -296h-223l-187 118l-186 -118h-223z" />
    <glyph glyph-name="Cdotaccent" unicode="&#x10a;" horiz-adv-x="1710" 
d="M918 1229q-246 0 -406 -139q-158 -140 -158 -355q0 -216 158 -356q158 -137 406 -137q188 0 320 84.5t198 244.5l260 -131q-86 -220 -291.5 -341.5t-489.5 -121.5q-371 0 -622 216q-246 217 -246 542q0 327 246 541q248 217 622 217q284 0 489.5 -121.5t291.5 -341.5
l-260 -131q-66 161 -198 245.5t-320 84.5zM1055 1554h-307v271h307v-271z" />
    <glyph glyph-name="cdotaccent" unicode="&#x10b;" horiz-adv-x="1265" 
d="M684 860q-161 0 -259.5 -87.5t-98.5 -233.5t99 -235t259 -89q115 0 206.5 62t123.5 161l237 -121q-56 -151 -211 -245q-154 -95 -354 -95q-275 0 -459 158q-180 155 -180 404q0 246 180 401q184 158 459 158q196 0 356 -97q154 -93 211 -247l-239 -117q-32 99 -123.5 161
t-206.5 62zM821 1204h-295v266h295v-266z" />
    <glyph glyph-name="Ccaron" unicode="&#x10c;" horiz-adv-x="1710" 
d="M918 1229q-246 0 -406 -139q-158 -140 -158 -355q0 -216 158 -356q158 -137 406 -137q188 0 320 84.5t198 244.5l260 -131q-86 -220 -291.5 -341.5t-489.5 -121.5q-371 0 -622 216q-246 217 -246 542q0 327 246 541q248 217 622 217q284 0 489.5 -121.5t291.5 -341.5
l-260 -131q-66 161 -198 245.5t-320 84.5zM1368 1864l-295 -310h-319l-295 310h237l217 -138l217 138h238z" />
    <glyph glyph-name="ccaron" unicode="&#x10d;" horiz-adv-x="1265" 
d="M684 860q-161 0 -259.5 -87.5t-98.5 -233.5t99 -235t259 -89q115 0 206.5 62t123.5 161l237 -121q-56 -151 -211 -245q-154 -95 -354 -95q-275 0 -459 158q-180 155 -180 404q0 246 180 401q184 158 459 158q196 0 356 -97q154 -93 211 -247l-239 -117q-32 99 -123.5 161
t-206.5 62zM1090 1470l-265 -296h-290l-265 296h224l186 -118l186 118h224z" />
    <glyph glyph-name="Dcaron" unicode="&#x10e;" horiz-adv-x="1767" 
d="M881 0h-752v1470h752q388 0 614 -198q227 -199 227 -537q0 -337 -227 -536t-614 -199zM424 1212v-954h457q248 0 391 128t143 349t-143 349t-391 128h-457zM1268 1864l-295 -310h-320l-295 310h238l217 -138l217 138h238z" />
    <glyph glyph-name="dcaron" unicode="&#x10f;" horiz-adv-x="1435" 
d="M635 -23q-258 0 -424 158q-162 155 -162 404q0 246 162 401q166 158 424 158q126 0 232.5 -41t170.5 -111v524h287v-1470h-287v129q-64 -70 -170.5 -111t-232.5 -41zM1051 530v15q0 139 -105 227q-106 92 -260 92q-156 0 -260 -90q-102 -88 -102 -235q0 -149 102 -238
q104 -90 260 -90q152 0 258 92q107 91 107 227zM1614 1130h-195l51 340h314z" />
    <glyph glyph-name="Dcroat" unicode="&#x110;" horiz-adv-x="1849" 
d="M963 0h-752v625h-201v256h201v589h752q388 0 614 -198q227 -199 227 -537q0 -337 -227 -536t-614 -199zM506 625v-367h457q248 0 391 128t143 349t-143 349t-391 128h-457v-331h336v-256h-336z" />
    <glyph glyph-name="dslash" unicode="&#x111;" horiz-adv-x="1509" 
d="M635 -23q-258 0 -424 158q-162 155 -162 404q0 246 162 401q166 158 424 158q126 0 232.5 -41t170.5 -111v209h-309v209h309v106h287v-106h148v-209h-148v-1155h-287v129q-64 -70 -170.5 -111t-232.5 -41zM1051 530v15q0 139 -105 227q-106 92 -260 92q-156 0 -260 -90
q-102 -88 -102 -235q0 -149 102 -238q104 -90 260 -90q152 0 258 92q107 91 107 227z" />
    <glyph glyph-name="Emacron" unicode="&#x112;" horiz-adv-x="1615" 
d="M129 0v1470h1423v-260h-1126v-327h1010v-258h-1010v-365h1126v-260h-1423zM1237 1794v-223h-803v223h803z" />
    <glyph glyph-name="emacron" unicode="&#x113;" horiz-adv-x="1325" 
d="M684 -23q-280 0 -459 156q-178 156 -178 406q0 243 178 399q183 160 457 160q267 0 432 -154q164 -153 164 -395v-90h-954q26 -115 122.5 -181.5t237.5 -66.5q117 0 206 52.5t126 144.5l244 -105q-58 -143 -218 -235q-160 -91 -358 -91zM672 868q-125 0 -215.5 -57.5
t-122.5 -157.5h661q-15 88 -106 152q-89 63 -217 63zM1044 1425v-217h-749v217h749z" />
    <glyph glyph-name="Ebreve" unicode="&#x114;" horiz-adv-x="1615" 
d="M129 0v1470h1423v-260h-1126v-327h1010v-258h-1010v-365h1126v-260h-1423zM836 1739q87 0 142.5 35t55.5 90h211q0 -144 -110.5 -231t-298.5 -87t-299 87.5t-111 230.5h211q0 -55 56 -90t143 -35z" />
    <glyph glyph-name="ebreve" unicode="&#x115;" horiz-adv-x="1325" 
d="M684 -23q-280 0 -459 156q-178 156 -178 406q0 243 178 399q183 160 457 160q267 0 432 -154q164 -153 164 -395v-90h-954q26 -115 122.5 -181.5t237.5 -66.5q117 0 206 52.5t126 144.5l244 -105q-58 -143 -218 -235q-160 -91 -358 -91zM672 868q-125 0 -215.5 -57.5
t-122.5 -157.5h661q-15 88 -106 152q-89 63 -217 63zM675 1356q175 0 187 114h196q-2 -143 -102.5 -223t-280.5 -80t-280.5 80t-102.5 223h197q12 -114 186 -114z" />
    <glyph glyph-name="Edotaccent" unicode="&#x116;" horiz-adv-x="1615" 
d="M129 0v1470h1423v-260h-1126v-327h1010v-258h-1010v-365h1126v-260h-1423zM989 1554h-307v271h307v-271z" />
    <glyph glyph-name="edotaccent" unicode="&#x117;" horiz-adv-x="1325" 
d="M684 -23q-280 0 -459 156q-178 156 -178 406q0 243 178 399q183 160 457 160q267 0 432 -154q164 -153 164 -395v-90h-954q26 -115 122.5 -181.5t237.5 -66.5q117 0 206 52.5t126 144.5l244 -105q-58 -143 -218 -235q-160 -91 -358 -91zM672 868q-125 0 -215.5 -57.5
t-122.5 -157.5h661q-15 88 -106 152q-89 63 -217 63zM813 1204h-295v266h295v-266z" />
    <glyph glyph-name="Eogonek" unicode="&#x118;" horiz-adv-x="1615" 
d="M1247 -377q-119 0 -193.5 50.5t-74.5 131.5q0 116 117 195h-967v1470h1423v-260h-1126v-327h1010v-258h-1010v-365h1126v-260h-151q-120 -37 -173.5 -70t-53.5 -71q0 -29 33.5 -46.5t90.5 -17.5q54 0 103 12v-167q-107 -17 -154 -17z" />
    <glyph glyph-name="eogonek" unicode="&#x119;" horiz-adv-x="1325" 
d="M958 27q-165 -63 -165 -146q0 -39 35 -62.5t94 -23.5q54 0 100 12v-167q-107 -17 -152 -17q-119 0 -193.5 55.5t-74.5 147.5q0 85 60 151q-272 6 -445 162q-170 156 -170 400q0 243 178 399q183 160 457 160q267 0 432 -154q164 -153 164 -395v-90h-954
q26 -115 121 -181.5t235 -66.5q119 0 208.5 52.5t127.5 144.5l244 -105q-37 -89 -115.5 -161.5t-186.5 -114.5zM672 868q-123 0 -214.5 -58t-123.5 -157h661q-15 87 -108 150q-92 65 -215 65z" />
    <glyph glyph-name="Ecaron" unicode="&#x11a;" horiz-adv-x="1615" 
d="M129 0v1470h1423v-260h-1126v-327h1010v-258h-1010v-365h1126v-260h-1423zM1290 1864l-295 -310h-319l-295 310h237l218 -138l217 138h237z" />
    <glyph glyph-name="ecaron" unicode="&#x11b;" horiz-adv-x="1325" 
d="M684 -23q-280 0 -459 156q-178 156 -178 406q0 243 178 399q183 160 457 160q267 0 432 -154q164 -153 164 -395v-90h-954q26 -115 122.5 -181.5t237.5 -66.5q117 0 206 52.5t126 144.5l244 -105q-58 -143 -218 -235q-160 -91 -358 -91zM672 868q-125 0 -215.5 -57.5
t-122.5 -157.5h661q-15 88 -106 152q-89 63 -217 63zM1085 1470l-264 -296h-291l-264 296h223l187 -118l186 118h223z" />
    <glyph glyph-name="Gcircumflex" unicode="&#x11c;" horiz-adv-x="1837" 
d="M1743 0h-283v172q-68 -86 -217 -141q-151 -54 -321 -54q-378 0 -629 216q-246 215 -246 546q0 329 250 541q254 213 637 213q287 0 493.5 -119.5t292.5 -335.5l-264 -127q-66 154 -200 236t-324 82q-254 0 -416 -137q-160 -139 -160 -357t158 -358q158 -137 410 -137
q211 0 366 88q157 89 172 223h-661v254h942v-805zM776 1864h320l295 -310h-238l-217 138l-217 -138h-238z" />
    <glyph glyph-name="gcircumflex" unicode="&#x11d;" horiz-adv-x="1425" 
d="M1315 1077v-925q0 -243 -185 -390q-180 -149 -477 -149q-220 0 -380 75t-226 208l227 139q41 -92 141 -144.5t234 -52.5q168 0 273.5 78.5t105.5 208.5v41q-69 -72 -173 -111t-228 -39q-258 0 -424 152q-162 152 -162 391q0 236 162 385q165 154 424 154q124 0 227.5 -38
t173.5 -108v125h287zM1042 555v8q0 134 -104 219q-106 86 -260 86q-155 0 -258 -86q-101 -85 -101 -223q0 -140 101 -225q103 -86 258 -86q157 0 260 86q104 85 104 221zM545 1470h291l264 -296h-223l-187 118l-186 -118h-223z" />
    <glyph glyph-name="Gbreve" unicode="&#x11e;" horiz-adv-x="1837" 
d="M1743 0h-283v172q-68 -86 -217 -141q-151 -54 -321 -54q-378 0 -629 216q-246 215 -246 546q0 329 250 541q254 213 637 213q287 0 493.5 -119.5t292.5 -335.5l-264 -127q-66 154 -200 236t-324 82q-254 0 -416 -137q-160 -139 -160 -357t158 -358q158 -137 410 -137
q211 0 366 88q157 89 172 223h-661v254h942v-805zM936 1739q87 0 143 35t56 90h211q0 -143 -111 -230.5t-299 -87.5t-299 87.5t-111 230.5h211q0 -55 56 -90t143 -35z" />
    <glyph glyph-name="gbreve" unicode="&#x11f;" horiz-adv-x="1425" 
d="M1315 1077v-925q0 -243 -185 -390q-180 -149 -477 -149q-220 0 -380 75t-226 208l227 139q41 -92 141 -144.5t234 -52.5q168 0 273.5 78.5t105.5 208.5v41q-69 -72 -173 -111t-228 -39q-258 0 -424 152q-162 152 -162 391q0 236 162 385q165 154 424 154q124 0 227.5 -38
t173.5 -108v125h287zM1042 555v8q0 134 -104 219q-106 86 -260 86q-155 0 -258 -86q-101 -85 -101 -223q0 -140 101 -225q103 -86 258 -86q157 0 260 86q104 85 104 221zM696 1356q175 0 187 114h196q-2 -143 -102.5 -223t-280.5 -80t-280.5 80t-102.5 223h197
q12 -114 186 -114z" />
    <glyph glyph-name="Gdotaccent" unicode="&#x120;" horiz-adv-x="1837" 
d="M1743 0h-283v172q-68 -86 -217 -141q-151 -54 -321 -54q-378 0 -629 216q-246 215 -246 546q0 329 250 541q254 213 637 213q287 0 493.5 -119.5t292.5 -335.5l-264 -127q-66 154 -200 236t-324 82q-254 0 -416 -137q-160 -139 -160 -357t158 -358q158 -137 410 -137
q211 0 366 88q157 89 172 223h-661v254h942v-805zM1085 1554h-307v271h307v-271z" />
    <glyph glyph-name="gdotaccent" unicode="&#x121;" horiz-adv-x="1425" 
d="M1315 1077v-925q0 -243 -185 -390q-180 -149 -477 -149q-220 0 -380 75t-226 208l227 139q41 -92 141 -144.5t234 -52.5q168 0 273.5 78.5t105.5 208.5v41q-69 -72 -173 -111t-228 -39q-258 0 -424 152q-162 152 -162 391q0 236 162 385q165 154 424 154q124 0 227.5 -38
t173.5 -108v125h287zM1042 555v8q0 134 -104 219q-106 86 -260 86q-155 0 -258 -86q-101 -85 -101 -223q0 -140 101 -225q103 -86 258 -86q157 0 260 86q104 85 104 221zM852 1204h-295v266h295v-266z" />
    <glyph glyph-name="Gcommaaccent" unicode="&#x122;" horiz-adv-x="1837" 
d="M1743 0h-283v172q-68 -86 -217 -141q-151 -54 -321 -54q-378 0 -629 216q-246 215 -246 546q0 329 250 541q254 213 637 213q287 0 493.5 -119.5t292.5 -335.5l-264 -127q-66 154 -200 236t-324 82q-254 0 -416 -137q-160 -139 -160 -357t158 -358q158 -137 410 -137
q211 0 366 88q157 89 172 223h-661v254h942v-805zM862 -244h-106v174h286v-116q0 -115 -75 -176.5t-211 -61.5v115q51 0 75.5 15t30.5 50z" />
    <glyph glyph-name="gcommaaccent" unicode="&#x123;" horiz-adv-x="1425" 
d="M1315 1077v-925q0 -243 -185 -390q-180 -149 -477 -149q-220 0 -380 75t-226 208l227 139q41 -92 141 -144.5t234 -52.5q168 0 273.5 78.5t105.5 208.5v41q-69 -72 -173 -111t-228 -39q-258 0 -424 152q-162 152 -162 391q0 236 162 385q165 154 424 154q124 0 227.5 -38
t173.5 -108v125h287zM1042 555v8q0 134 -104 219q-106 86 -260 86q-155 0 -258 -86q-101 -85 -101 -223q0 -140 101 -225q103 -86 258 -86q157 0 260 86q104 85 104 221zM741 1348h107v-174h-287v116q0 115 75.5 176.5t211.5 61.5v-115q-51 0 -76 -15t-31 -50z" />
    <glyph glyph-name="Hcircumflex" unicode="&#x124;" horiz-adv-x="1804" 
d="M1374 885v585h303v-1470h-303v625h-944v-625h-301v1470h301v-585h944zM727 1864h320l294 -310h-237l-217 138l-217 -138h-238z" />
    <glyph glyph-name="hcircumflex" unicode="&#x125;" horiz-adv-x="1361" 
d="M397 0h-286v1470h286v-528q66 74 169 115t225 41q216 0 342 -135q127 -136 127 -363v-600h-287v532q0 146 -73 227t-204 81q-141 0 -220 -82t-79 -230v-528zM502 1864h319l295 -310h-237l-217 138l-218 -138h-237z" />
    <glyph glyph-name="Hbar" unicode="&#x126;" horiz-adv-x="1902" 
d="M1905 1206v-254h-179v-952h-303v485h-944v-485h-303v952h-168v254h168v264h303v-264h944v264h303v-264h179zM479 952v-213h944v213h-944z" />
    <glyph glyph-name="hbar" unicode="&#x127;" horiz-adv-x="1435" 
d="M471 0h-287v1155h-147v209h147v106h287v-106h328v-209h-328v-213q67 74 169 115t224 41q216 0 342 -135q127 -136 127 -363v-600h-286v532q0 146 -73 227t-204 81q-141 0 -220 -82t-79 -230v-528z" />
    <glyph glyph-name="Itilde" unicode="&#x128;" horiz-adv-x="557" 
d="M129 1470h301v-1470h-301v1470zM74 1890q58 0 107.5 -13t127.5 -52q92 -45 146 -45q35 0 55.5 25t32.5 85h190q-7 -155 -75 -245.5t-177 -90.5q-52 0 -103.5 14t-131.5 52q-92 47 -144 47q-37 0 -57 -26.5t-31 -86.5h-190q6 156 73 246t177 90z" />
    <glyph glyph-name="itilde" unicode="&#x129;" horiz-adv-x="505" 
d="M111 1077h286v-1077h-286v1077zM82 1487q46 0 90 -13.5t109 -50.5q73 -41 113 -41q31 0 48.5 24.5t28.5 80.5h177q-6 -146 -66 -229.5t-158 -83.5q-47 0 -90 13t-108 50q-74 41 -113 41q-31 0 -49.5 -24.5t-28.5 -79.5h-176q6 146 65.5 229.5t157.5 83.5z" />
    <glyph glyph-name="Imacron" unicode="&#x12a;" horiz-adv-x="557" 
d="M129 1470h301v-1470h-301v1470zM680 1794v-223h-803v223h803z" />
    <glyph glyph-name="imacron" unicode="&#x12b;" horiz-adv-x="505" 
d="M111 1077h286v-1077h-286v1077zM629 1425v-217h-750v217h750z" />
    <glyph glyph-name="Ibreve" unicode="&#x12c;" horiz-adv-x="557" 
d="M129 1470h301v-1470h-301v1470zM279 1739q87 0 142.5 35t55.5 90h211q0 -144 -110.5 -231t-298.5 -87t-299 87.5t-111 230.5h211q0 -55 56 -90t143 -35z" />
    <glyph glyph-name="ibreve" unicode="&#x12d;" horiz-adv-x="505" 
d="M111 1077h286v-1077h-286v1077zM254 1356q175 0 187 114h196q-2 -143 -102.5 -223t-280.5 -80t-280.5 80t-102.5 223h197q12 -114 186 -114z" />
    <glyph glyph-name="Iogonek" unicode="&#x12e;" horiz-adv-x="557" 
d="M276 -377q-119 0 -193.5 50.5t-74.5 131.5q0 116 121 199v1466h301v-1470q-120 -37 -173.5 -70t-53.5 -71q0 -29 34 -46.5t91 -17.5q52 0 102 12v-167q-107 -17 -154 -17z" />
    <glyph glyph-name="iogonek" unicode="&#x12f;" horiz-adv-x="505" 
d="M106 1470h293v-266h-293v266zM-23 -195q0 117 134 207v1065h286v-1077q-126 -39 -175.5 -72t-49.5 -69q0 -30 33 -47t92 -17q53 0 102 12v-167q-97 -17 -153 -17q-114 0 -191.5 47.5t-77.5 134.5z" />
    <glyph glyph-name="Idot" unicode="&#x130;" horiz-adv-x="557" 
d="M129 1470h301v-1470h-301v1470zM432 1554h-307v271h307v-271z" />
    <glyph glyph-name="dotlessi" unicode="&#x131;" horiz-adv-x="505" 
d="M111 1077h286v-1077h-286v1077z" />
    <glyph glyph-name="Jcircumflex" unicode="&#x134;" horiz-adv-x="1468" 
d="M694 -23q-246 0 -438 119q-192 121 -256 310l274 155q37 -142 153 -230.5t269 -88.5q183 0 283 86.5t100 246.5v895h301v-909q0 -260 -188 -424q-189 -160 -498 -160zM1065 1864h319l295 -310h-237l-217 138l-217 -138h-238z" />
    <glyph glyph-name="jcircumflex" unicode="&#x135;" horiz-adv-x="505" 
d="M-80 -150q102 0 146.5 43t44.5 138v1046h286v-1040q0 -207 -115.5 -313.5t-340.5 -106.5q-58 0 -124.5 10t-107.5 27l43 223q108 -27 168 -27zM106 1470h291l265 -296h-224l-186 118l-186 -118h-224z" />
    <glyph glyph-name="Kcommaaccent" unicode="&#x136;" horiz-adv-x="1697" 
d="M129 1470h301v-704l825 704h424l-751 -622l798 -848h-397l-622 664l-277 -230v-434h-301v1470zM827 -244h-106v174h287v-116q0 -115 -75.5 -176.5t-211.5 -61.5v115q51 0 75.5 15t30.5 50z" />
    <glyph glyph-name="kcommaaccent" unicode="&#x137;" horiz-adv-x="1361" 
d="M111 1470h286v-890l582 497h395l-557 -463l574 -614h-361l-418 442l-215 -178v-264h-286v1470zM672 -244h-107v174h287v-116q0 -115 -75.5 -176.5t-211.5 -61.5v115q51 0 76 15t31 50z" />
    <glyph glyph-name="kgreenlandic" unicode="&#x138;" horiz-adv-x="1361" 
d="M111 1077h286v-497l582 497h395l-557 -463l574 -614h-361l-418 442l-215 -178v-264h-286v1077z" />
    <glyph glyph-name="Lacute" unicode="&#x139;" horiz-adv-x="1507" 
d="M1464 0h-1335v1470h301v-1210h1034v-260zM408 1554h-258l239 310h408z" />
    <glyph glyph-name="lacute" unicode="&#x13a;" horiz-adv-x="505" 
d="M111 1470h286v-1470h-286v1470zM387 1554h-258l240 310h407z" />
    <glyph glyph-name="Lcommaaccent" unicode="&#x13b;" horiz-adv-x="1507" 
d="M1464 0h-1335v1470h301v-1210h1034v-260zM590 -244h-107v174h287v-116q0 -115 -75.5 -176.5t-211.5 -61.5v115q51 0 76 15t31 50z" />
    <glyph glyph-name="lcommaaccent" unicode="&#x13c;" horiz-adv-x="505" 
d="M111 1470h286v-1470h-286v1470zM217 -244h-106v174h286v-116q0 -115 -75 -176.5t-211 -61.5v115q51 0 75.5 15t30.5 50z" />
    <glyph glyph-name="Lcaron" unicode="&#x13d;" horiz-adv-x="1507" 
d="M1464 0h-1335v1470h301v-1210h1034v-260zM870 1130h-194l51 340h313z" />
    <glyph glyph-name="lcaron" unicode="&#x13e;" horiz-adv-x="505" 
d="M111 1470h286v-1470h-286v1470zM686 1130h-194l51 340h313z" />
    <glyph glyph-name="Ldot" unicode="&#x13f;" horiz-adv-x="1507" 
d="M1464 0h-1335v1470h301v-1210h1034v-260zM1180 623h-295v266h295v-266z" />
    <glyph glyph-name="ldot" unicode="&#x140;" horiz-adv-x="872" 
d="M111 1470h286v-1470h-286v1470zM838 610h-295v267h295v-267z" />
    <glyph glyph-name="Lslash" unicode="&#x141;" horiz-adv-x="1560" 
d="M1520 0h-1336v494l-194 -76v252l194 75v725h301v-624l439 164v-254l-439 -164v-332h1035v-260z" />
    <glyph glyph-name="lslash" unicode="&#x142;" horiz-adv-x="718" 
d="M711 1092v-258l-209 -103v-731h-287v606l-205 -102v258l205 102v606h287v-483z" />
    <glyph glyph-name="Nacute" unicode="&#x143;" horiz-adv-x="1773" 
d="M1354 1470h293v-1470h-267l-960 1087v-1087h-291v1470h307l918 -1038v1038zM971 1554h-258l239 310h408z" />
    <glyph glyph-name="nacute" unicode="&#x144;" horiz-adv-x="1361" 
d="M397 0h-286v1077h286v-135q66 74 169 115t225 41q216 0 342 -135q127 -136 127 -363v-600h-287v532q0 146 -73 227t-204 81q-141 0 -220 -82t-79 -230v-528zM801 1174h-242l213 296h369z" />
    <glyph glyph-name="Ncommaaccent" unicode="&#x145;" horiz-adv-x="1773" 
d="M1354 1470h293v-1470h-267l-960 1087v-1087h-291v1470h307l918 -1038v1038zM842 -244h-107v174h287v-116q0 -115 -75.5 -176.5t-211.5 -61.5v115q51 0 76 15t31 50z" />
    <glyph glyph-name="ncommaaccent" unicode="&#x146;" horiz-adv-x="1361" 
d="M397 0h-286v1077h286v-135q66 74 169 115t225 41q216 0 342 -135q127 -136 127 -363v-600h-287v532q0 146 -73 227t-204 81q-141 0 -220 -82t-79 -230v-528zM647 -244h-106v174h286v-116q0 -115 -75 -176.5t-211 -61.5v115q51 0 75.5 15t30.5 50z" />
    <glyph glyph-name="Ncaron" unicode="&#x147;" horiz-adv-x="1773" 
d="M1354 1470h293v-1470h-267l-960 1087v-1087h-291v1470h307l918 -1038v1038zM1333 1864l-295 -310h-319l-295 310h238l217 -138l217 138h237z" />
    <glyph glyph-name="ncaron" unicode="&#x148;" horiz-adv-x="1361" 
d="M397 0h-286v1077h286v-135q66 74 169 115t225 41q216 0 342 -135q127 -136 127 -363v-600h-287v532q0 146 -73 227t-204 81q-141 0 -220 -82t-79 -230v-528zM1100 1470l-264 -296h-291l-264 296h223l186 -118l187 118h223z" />
    <glyph glyph-name="Eng" unicode="&#x14a;" horiz-adv-x="1773" 
d="M1354 432v1038h293v-1433q0 -207 -115.5 -313.5t-341.5 -106.5q-58 0 -124.5 10t-107.5 27l43 225q98 -26 166 -26q191 0 191 159v13l-938 1052v-1077h-291v1470h307z" />
    <glyph glyph-name="eng" unicode="&#x14b;" horiz-adv-x="1361" 
d="M791 1098q216 0 342 -135q127 -136 127 -363v-563q0 -207 -115 -313.5t-340 -106.5q-58 0 -124.5 10t-107.5 27l41 225q98 -26 168 -26q102 0 146.5 42.5t44.5 137.5v499q0 146 -73 227t-204 81q-141 0 -220 -82t-79 -230v-528h-286v1077h286v-135q66 74 169 115t225 41z
" />
    <glyph glyph-name="Omacron" unicode="&#x14c;" horiz-adv-x="1830" 
d="M47 735q0 329 246 543q247 215 622 215q374 0 621 -215q248 -214 248 -543q0 -328 -248 -542q-248 -216 -621 -216q-374 0 -622 216q-246 215 -246 542zM1475 735q0 222 -156 357q-152 137 -404 137q-250 0 -405 -137q-154 -136 -154 -357q0 -219 154 -358
q156 -135 405 -135q251 0 404 135q156 138 156 358zM1317 1794v-223h-803v223h803z" />
    <glyph glyph-name="omacron" unicode="&#x14d;" horiz-adv-x="1353" 
d="M678 1098q267 0 448 -158q179 -156 179 -401q0 -248 -179 -404q-181 -158 -448 -158q-269 0 -453 158q-178 156 -178 404q0 245 178 401q184 158 453 158zM678 858q-156 0 -254 -88.5t-98 -230.5q0 -146 98 -234t254 -88q155 0 252.5 88.5t97.5 233.5q0 142 -98 230.5
t-252 88.5zM1051 1425v-217h-750v217h750z" />
    <glyph glyph-name="Obreve" unicode="&#x14e;" horiz-adv-x="1830" 
d="M47 735q0 329 246 543q247 215 622 215q374 0 621 -215q248 -214 248 -543q0 -328 -248 -542q-248 -216 -621 -216q-374 0 -622 216q-246 215 -246 542zM1475 735q0 222 -156 357q-152 137 -404 137q-250 0 -405 -137q-154 -136 -154 -357q0 -219 154 -358
q156 -135 405 -135q251 0 404 135q156 138 156 358zM915 1739q87 0 143 35t56 90h211q0 -143 -111 -230.5t-299 -87.5t-298.5 87t-110.5 231h211q0 -55 55.5 -90t142.5 -35z" />
    <glyph glyph-name="obreve" unicode="&#x14f;" horiz-adv-x="1353" 
d="M678 1098q267 0 448 -158q179 -156 179 -401q0 -248 -179 -404q-181 -158 -448 -158q-269 0 -453 158q-178 156 -178 404q0 245 178 401q184 158 453 158zM678 858q-156 0 -254 -88.5t-98 -230.5q0 -146 98 -234t254 -88q155 0 252.5 88.5t97.5 233.5q0 142 -98 230.5
t-252 88.5zM675 1356q175 0 187 114h196q-2 -143 -102.5 -223t-280.5 -80t-280.5 80t-102.5 223h197q12 -114 186 -114z" />
    <glyph glyph-name="Ohungarumlaut" unicode="&#x150;" horiz-adv-x="1830" 
d="M47 735q0 329 246 543q247 215 622 215q374 0 621 -215q248 -214 248 -543q0 -328 -248 -542q-248 -216 -621 -216q-374 0 -622 216q-246 215 -246 542zM1475 735q0 222 -156 357q-152 137 -404 137q-250 0 -405 -137q-154 -136 -154 -357q0 -219 154 -358
q156 -135 405 -135q251 0 404 135q156 138 156 358zM1262 1554h-222l195 310h336zM780 1554h-221l180 310h351z" />
    <glyph glyph-name="ohungarumlaut" unicode="&#x151;" horiz-adv-x="1353" 
d="M678 1098q267 0 448 -158q179 -156 179 -401q0 -248 -179 -404q-181 -158 -448 -158q-269 0 -453 158q-178 156 -178 404q0 245 178 401q184 158 453 158zM678 858q-156 0 -254 -88.5t-98 -230.5q0 -146 98 -234t254 -88q155 0 252.5 88.5t97.5 233.5q0 142 -98 230.5
t-252 88.5zM975 1174h-217l190 296h316zM539 1174h-217l190 296h313z" />
    <glyph glyph-name="OE" unicode="&#x152;" horiz-adv-x="2760" 
d="M55 735q0 337 228 537q226 198 612 198h1800v-260h-1085v-327h968v-258h-968v-365h1085v-260h-1800q-385 0 -612 199q-228 200 -228 536zM1313 258v954h-416q-250 0 -393.5 -127.5t-143.5 -349.5q0 -221 143.5 -349t391.5 -128h418z" />
    <glyph glyph-name="oe" unicode="&#x153;" horiz-adv-x="2301" 
d="M1661 -20q-153 0 -281 55t-215 155q-85 -103 -211 -158t-278 -55q-270 0 -451 158q-178 156 -178 404q0 245 178 401q184 158 451 158q149 0 275.5 -54.5t213.5 -154.5q88 103 217 158t281 55q265 0 428 -156q164 -153 164 -395v-88h-952q26 -115 121 -181.5t235 -66.5
q119 0 208 52.5t126 144.5l243 -105q-59 -146 -217 -237q-159 -90 -358 -90zM1649 872q-122 0 -213 -58.5t-123 -158.5h659q-12 88 -106 152q-95 65 -217 65zM326 539q0 -146 98 -234t254 -88q155 0 252.5 88.5t97.5 233.5q0 142 -98 230.5t-254 88.5t-253 -88.5t-97 -230.5
z" />
    <glyph glyph-name="Racute" unicode="&#x154;" horiz-adv-x="1654" 
d="M954 547h-524v-547h-301v1470h924q263 0 411 -121.5t148 -340.5q0 -163 -89 -276t-251 -157l375 -575h-347zM430 1214v-415h606q131 0 204 54.5t73 152.5q0 100 -72 154t-205 54h-606zM913 1554h-258l240 310h408z" />
    <glyph glyph-name="racute" unicode="&#x155;" horiz-adv-x="944" 
d="M803 1083q70 0 119 -14v-283q-69 17 -129 17q-196 0 -296 -87t-100 -257v-459h-286v1077h286v-190q130 196 406 196zM600 1174h-242l213 296h369z" />
    <glyph glyph-name="Rcommaaccent" unicode="&#x156;" horiz-adv-x="1654" 
d="M954 547h-524v-547h-301v1470h924q263 0 411 -121.5t148 -340.5q0 -163 -89 -276t-251 -157l375 -575h-347zM430 1214v-415h606q131 0 204 54.5t73 152.5q0 100 -72 154t-205 54h-606zM764 -244h-107v174h287v-116q0 -115 -75.5 -176.5t-211.5 -61.5v115q51 0 76 15
t31 50z" />
    <glyph glyph-name="rcommaaccent" unicode="&#x157;" horiz-adv-x="944" 
d="M803 1083q70 0 119 -14v-283q-69 17 -129 17q-196 0 -296 -87t-100 -257v-459h-286v1077h286v-190q130 196 406 196zM217 -244h-106v174h286v-116q0 -115 -75 -176.5t-211 -61.5v115q51 0 75.5 15t30.5 50z" />
    <glyph glyph-name="Rcaron" unicode="&#x158;" horiz-adv-x="1654" 
d="M954 547h-524v-547h-301v1470h924q263 0 411 -121.5t148 -340.5q0 -163 -89 -276t-251 -157l375 -575h-347zM430 1214v-415h606q131 0 204 54.5t73 152.5q0 100 -72 154t-205 54h-606zM1270 1864l-295 -310h-320l-295 310h238l217 -138l217 138h238z" />
    <glyph glyph-name="rcaron" unicode="&#x159;" horiz-adv-x="944" 
d="M803 1083q70 0 119 -14v-283q-69 17 -129 17q-196 0 -296 -87t-100 -257v-459h-286v1077h286v-190q130 196 406 196zM928 1470l-264 -296h-291l-264 296h223l186 -118l187 118h223z" />
    <glyph glyph-name="Sacute" unicode="&#x15a;" horiz-adv-x="1589" 
d="M817 -23q-267 0 -502 95q-229 92 -340 247l203 211q105 -142 275.5 -218t375.5 -76q190 0 305 52.5t115 139.5q0 69 -48 103t-179 57l-98 12q-76 12 -209 25q-362 40 -502 133q-135 92 -135 266q0 211 188 340q190 129 502 129q242 0 449 -80q203 -79 307 -213l-201 -192
q-85 109 -235 169t-336 60q-178 0 -279.5 -48.5t-101.5 -133.5q0 -73 82 -107q75 -31 389 -67q322 -36 452 -84q134 -47 197 -129t63 -207q0 -226 -200 -355t-537 -129zM911 1554h-258l240 310h407z" />
    <glyph glyph-name="sacute" unicode="&#x15b;" horiz-adv-x="1198" 
d="M612 -23q-197 0 -363 60.5t-257 165.5l164 188q178 -190 469 -190q128 0 195 29.5t67 84.5q0 37 -32.5 56.5t-119.5 31.5q-39 8 -98 13l-96 12q-287 38 -387 107q-99 71 -99 204q0 160 146 260q144 99 387 99q178 0 326.5 -54.5t230.5 -148.5l-164 -174
q-69 75 -174 115.5t-234 40.5q-113 0 -175 -28t-62 -79q0 -38 43 -59q45 -18 266 -45q244 -32 336 -66q98 -38 144 -100.5t46 -155.5q0 -169 -153 -268q-150 -99 -406 -99zM719 1174h-242l213 296h369z" />
    <glyph glyph-name="Scircumflex" unicode="&#x15c;" horiz-adv-x="1589" 
d="M817 -23q-267 0 -502 95q-229 92 -340 247l203 211q105 -142 275.5 -218t375.5 -76q190 0 305 52.5t115 139.5q0 69 -48 103t-179 57l-98 12q-76 12 -209 25q-362 40 -502 133q-135 92 -135 266q0 211 188 340q190 129 502 129q242 0 449 -80q203 -79 307 -213l-201 -192
q-85 109 -235 169t-336 60q-178 0 -279.5 -48.5t-101.5 -133.5q0 -73 82 -107q75 -31 389 -67q322 -36 452 -84q134 -47 197 -129t63 -207q0 -226 -200 -355t-537 -129zM623 1864h319l295 -310h-238l-217 138l-217 -138h-237z" />
    <glyph glyph-name="scircumflex" unicode="&#x15d;" horiz-adv-x="1198" 
d="M612 -23q-197 0 -363 60.5t-257 165.5l164 188q178 -190 469 -190q128 0 195 29.5t67 84.5q0 37 -32.5 56.5t-119.5 31.5q-39 8 -98 13l-96 12q-287 38 -387 107q-99 71 -99 204q0 160 146 260q144 99 387 99q178 0 326.5 -54.5t230.5 -148.5l-164 -174
q-69 75 -174 115.5t-234 40.5q-113 0 -175 -28t-62 -79q0 -38 43 -59q45 -18 266 -45q244 -32 336 -66q98 -38 144 -100.5t46 -155.5q0 -169 -153 -268q-150 -99 -406 -99zM446 1470h291l264 -296h-223l-186 118l-186 -118h-224z" />
    <glyph glyph-name="Scedilla" unicode="&#x15e;" horiz-adv-x="1589" 
d="M-25 319l203 211q105 -142 275.5 -218t375.5 -76q190 0 305 52.5t115 139.5q0 69 -48 103t-179 57l-98 12q-76 12 -209 25q-362 40 -502 133q-135 92 -135 266q0 211 188 340q190 129 502 129q242 0 449 -80q203 -79 307 -213l-201 -192q-85 109 -235 169t-336 60
q-178 0 -279.5 -48.5t-101.5 -133.5q0 -73 82 -107q75 -31 389 -67q322 -36 452 -84q134 -47 197 -129t63 -207q0 -224 -198 -355q-196 -129 -527 -129l-6 -20q104 -4 166 -48.5t62 -113.5q0 -81 -80.5 -130.5t-210.5 -49.5q-186 0 -279 74l88 131q73 -58 179 -58
q108 0 108 50q0 29 -44.5 42.5t-152.5 14.5l35 115q-234 21 -432 110q-195 92 -287 225z" />
    <glyph glyph-name="scedilla" unicode="&#x15f;" horiz-adv-x="1198" 
d="M-8 203l164 188q178 -190 469 -190q128 0 195 29.5t67 84.5q0 37 -32.5 56.5t-119.5 31.5q-39 8 -98 13l-96 12q-287 38 -387 107q-99 71 -99 204q0 160 146 260q144 99 387 99q178 0 326.5 -54.5t230.5 -148.5l-164 -174q-69 75 -174 115.5t-234 40.5q-113 0 -175 -28
t-62 -79q0 -38 43 -59q45 -18 266 -45q244 -32 336 -66q98 -38 144 -100.5t46 -155.5q0 -169 -153 -268q-150 -99 -406 -99h-6l-6 -20q104 -4 165.5 -48.5t61.5 -113.5q0 -81 -80 -130.5t-210 -49.5q-186 0 -279 74l88 131q73 -58 178 -58q109 0 109 50q0 29 -44.5 42.5
t-152.5 14.5l35 117q-156 19 -281 75t-198 142z" />
    <glyph glyph-name="Scaron" unicode="&#x160;" horiz-adv-x="1589" 
d="M817 -23q-267 0 -502 95q-229 92 -340 247l203 211q105 -142 275.5 -218t375.5 -76q190 0 305 52.5t115 139.5q0 69 -48 103t-179 57l-98 12q-76 12 -209 25q-362 40 -502 133q-135 92 -135 266q0 211 188 340q190 129 502 129q242 0 449 -80q203 -79 307 -213l-201 -192
q-85 109 -235 169t-336 60q-178 0 -279.5 -48.5t-101.5 -133.5q0 -73 82 -107q75 -31 389 -67q322 -36 452 -84q134 -47 197 -129t63 -207q0 -226 -200 -355t-537 -129zM1241 1864l-295 -310h-319l-295 310h237l217 -138l218 138h237z" />
    <glyph glyph-name="scaron" unicode="&#x161;" horiz-adv-x="1198" 
d="M612 -23q-197 0 -363 60.5t-257 165.5l164 188q178 -190 469 -190q128 0 195 29.5t67 84.5q0 37 -32.5 56.5t-119.5 31.5q-39 8 -98 13l-96 12q-287 38 -387 107q-99 71 -99 204q0 160 146 260q144 99 387 99q178 0 326.5 -54.5t230.5 -148.5l-164 -174
q-69 75 -174 115.5t-234 40.5q-113 0 -175 -28t-62 -79q0 -38 43 -59q45 -18 266 -45q244 -32 336 -66q98 -38 144 -100.5t46 -155.5q0 -169 -153 -268q-150 -99 -406 -99zM1010 1470l-264 -296h-291l-264 296h223l186 -118l187 118h223z" />
    <glyph glyph-name="Tcommaaccent" unicode="&#x162;" horiz-adv-x="1675" 
d="M1112 -205q0 -81 -80.5 -130.5t-210.5 -49.5q-185 0 -278 74l88 131q73 -58 178 -58q109 0 109 50q0 29 -44.5 42.5t-152.5 14.5l39 131h-74v1210h-649v260h1601v-260h-649v-1210h-92l-12 -43q104 -4 165.5 -48.5t61.5 -113.5z" />
    <glyph glyph-name="tcommaaccent" unicode="&#x163;" horiz-adv-x="1071" 
d="M256 360v478h-258v239h258v307h283v-307h458v-239h-458v-430q0 -91 50.5 -130.5t168.5 -39.5q104 0 235 45l49 -236q-153 -61 -348 -61q-37 0 -51 2l-8 -31q104 -4 165.5 -48.5t61.5 -113.5q0 -81 -80.5 -130.5t-210.5 -49.5q-185 0 -278 74l88 131q73 -58 178 -58
q109 0 109 50q0 29 -44.5 42.5t-152.5 14.5l43 139q-127 37 -192.5 126t-65.5 226z" />
    <glyph glyph-name="Tcaron" unicode="&#x164;" horiz-adv-x="1675" 
d="M1638 1470v-260h-649v-1210h-303v1210h-649v260h1601zM1292 1864l-295 -310h-319l-295 310h238l217 -138l217 138h237z" />
    <glyph glyph-name="tcaron" unicode="&#x165;" horiz-adv-x="1071" 
d="M694 -14q-212 0 -325 96t-113 278v478h-258v239h258v307h283v-307h458v-239h-458v-430q0 -91 50.5 -130.5t168.5 -39.5q104 0 235 45l49 -236q-153 -61 -348 -61zM827 1171h-194l51 340h313z" />
    <glyph glyph-name="Tbar" unicode="&#x166;" horiz-adv-x="1675" 
d="M1321 874v-260h-332v-614h-303v614h-332v260h332v336h-649v260h1601v-260h-649v-336h332z" />
    <glyph glyph-name="tbar" unicode="&#x167;" horiz-adv-x="1071" 
d="M694 -14q-212 0 -325 96t-113 278v115h-254v227h254v148h-258v227h258v307h283v-307h458v-227h-458v-148h458v-227h-458v-72q0 -91 50.5 -130.5t168.5 -39.5q101 0 235 46l49 -232q-153 -61 -348 -61z" />
    <glyph glyph-name="Utilde" unicode="&#x168;" horiz-adv-x="1687" 
d="M844 -20q-364 0 -560 185.5t-196 528.5v776h301v-759q0 -467 455 -467q452 0 452 467v759h303v-776q0 -343 -196 -528.5t-559 -185.5zM641 1890q58 0 108 -13t128 -52q92 -45 145 -45q35 0 55.5 25t32.5 85h190q-8 -155 -75 -245.5t-176 -90.5q-52 0 -104 14t-132 52
q-57 29 -86 38t-57 9q-37 0 -57 -26.5t-31 -86.5h-191q6 156 73 246t177 90z" />
    <glyph glyph-name="utilde" unicode="&#x169;" horiz-adv-x="1351" 
d="M956 1077h287v-1077h-287v135q-68 -76 -167.5 -117t-219.5 -41q-212 0 -340 134q-127 133 -127 356v610h287v-561q0 -141 68.5 -214t201.5 -73q141 0 219 80t78 226v542zM501 1487q46 0 90 -13.5t109 -50.5q73 -41 113 -41q31 0 48.5 24.5t28.5 80.5h177
q-6 -146 -66 -229.5t-158 -83.5q-47 0 -90 13t-108 50q-74 41 -113 41q-31 0 -49.5 -24.5t-28.5 -79.5h-176q6 146 65.5 229.5t157.5 83.5z" />
    <glyph glyph-name="Umacron" unicode="&#x16a;" horiz-adv-x="1687" 
d="M844 -20q-364 0 -560 185.5t-196 528.5v776h301v-759q0 -467 455 -467q452 0 452 467v759h303v-776q0 -343 -196 -528.5t-559 -185.5zM1245 1794v-223h-803v223h803z" />
    <glyph glyph-name="umacron" unicode="&#x16b;" horiz-adv-x="1351" 
d="M956 1077h287v-1077h-287v135q-68 -76 -167.5 -117t-219.5 -41q-212 0 -340 134q-127 133 -127 356v610h287v-561q0 -141 68.5 -214t201.5 -73q141 0 219 80t78 226v542zM1047 1425v-217h-750v217h750z" />
    <glyph glyph-name="Ubreve" unicode="&#x16c;" horiz-adv-x="1687" 
d="M844 -20q-364 0 -560 185.5t-196 528.5v776h301v-759q0 -467 455 -467q452 0 452 467v759h303v-776q0 -343 -196 -528.5t-559 -185.5zM844 1739q87 0 142.5 35t55.5 90h211q0 -144 -110.5 -231t-298.5 -87t-299 87.5t-111 230.5h211q0 -55 56 -90t143 -35z" />
    <glyph glyph-name="ubreve" unicode="&#x16d;" horiz-adv-x="1351" 
d="M956 1077h287v-1077h-287v135q-68 -76 -167.5 -117t-219.5 -41q-212 0 -340 134q-127 133 -127 356v610h287v-561q0 -141 68.5 -214t201.5 -73q141 0 219 80t78 226v542zM671 1356q175 0 187 114h196q-2 -143 -102.5 -223t-280.5 -80t-280.5 80t-102.5 223h197
q12 -114 186 -114z" />
    <glyph glyph-name="Uring" unicode="&#x16e;" horiz-adv-x="1687" 
d="M844 -20q-364 0 -560 185.5t-196 528.5v776h301v-759q0 -467 455 -467q452 0 452 467v759h303v-776q0 -343 -196 -528.5t-559 -185.5zM844 1491q-118 0 -197.5 76.5t-79.5 189.5q0 109 78 187q78 75 199 75t196 -75q80 -77 80 -187q0 -113 -79 -189.5t-197 -76.5z
M844 1864q-45 0 -75 -30t-30 -77q0 -49 28.5 -77.5t76.5 -28.5t76 28.5t28 77.5q0 47 -29.5 77t-74.5 30z" />
    <glyph glyph-name="uring" unicode="&#x16f;" horiz-adv-x="1351" 
d="M956 1077h287v-1077h-287v135q-68 -76 -167.5 -117t-219.5 -41q-212 0 -340 134q-127 133 -127 356v610h287v-561q0 -141 68.5 -214t201.5 -73q141 0 219 80t78 226v542zM672 1149q-99 0 -166.5 64.5t-67.5 158.5q0 93 67.5 157t166.5 64t166 -64t67 -157
q0 -94 -67 -158.5t-166 -64.5zM672 1464q-37 0 -63.5 -27.5t-26.5 -64.5q0 -38 26 -65t64 -27t64 27t26 65q0 37 -26.5 64.5t-63.5 27.5z" />
    <glyph glyph-name="Uhungarumlaut" unicode="&#x170;" horiz-adv-x="1687" 
d="M844 -20q-364 0 -560 185.5t-196 528.5v776h301v-759q0 -467 455 -467q452 0 452 467v759h303v-776q0 -343 -196 -528.5t-559 -185.5zM1171 1554h-221l195 310h336zM690 1554h-221l180 310h350z" />
    <glyph glyph-name="uhungarumlaut" unicode="&#x171;" horiz-adv-x="1351" 
d="M956 1077h287v-1077h-287v135q-68 -76 -167.5 -117t-219.5 -41q-212 0 -340 134q-127 133 -127 356v610h287v-561q0 -141 68.5 -214t201.5 -73q141 0 219 80t78 226v542zM952 1174h-217l191 296h315zM516 1174h-217l190 296h314z" />
    <glyph glyph-name="Uogonek" unicode="&#x172;" horiz-adv-x="1687" 
d="M1092 4q-110 -25 -169 -61.5t-59 -79.5q0 -31 34 -49.5t93 -18.5q55 0 101 12v-167q-107 -17 -152 -17q-120 0 -194 50t-74 134q0 97 80 177q-321 23 -492.5 206t-171.5 504v776h303v-759q0 -467 453 -467q229 0 341.5 116t112.5 351v759h301v-776q0 -281 -130 -458
t-377 -232z" />
    <glyph glyph-name="uogonek" unicode="&#x173;" horiz-adv-x="1351" 
d="M1065 -377q-119 0 -193.5 50.5t-74.5 131.5q0 135 159 222v108q-68 -76 -167.5 -117t-219.5 -41q-212 0 -340 134q-127 133 -127 356v610h287v-561q0 -141 68.5 -214t201.5 -73q141 0 219 80t78 226v542h287v-1077h-24q-120 -37 -174 -70t-54 -71q0 -29 34 -46.5
t91 -17.5q54 0 103 12v-167q-107 -17 -154 -17z" />
    <glyph glyph-name="Wcircumflex" unicode="&#x174;" horiz-adv-x="2420" 
d="M688 332l369 1138h313l367 -1138l387 1138h309l-514 -1470h-350l-359 1124l-362 -1124h-348l-514 1470h315zM1055 1864h319l295 -310h-237l-218 138l-217 -138h-237z" />
    <glyph glyph-name="wcircumflex" unicode="&#x175;" horiz-adv-x="1886" 
d="M569 348l256 729h250l258 -729l262 729h295l-424 -1077h-258l-264 717l-264 -717h-258l-426 1077h305zM797 1470h290l265 -296h-224l-186 118l-186 -118h-224z" />
    <glyph glyph-name="Ycircumflex" unicode="&#x176;" horiz-adv-x="1736" 
d="M346 1470l526 -602l527 602h358l-737 -845v-625h-301v625l-739 845h366zM715 1864h319l295 -310h-237l-218 138l-217 -138h-237z" />
    <glyph glyph-name="ycircumflex" unicode="&#x177;" horiz-adv-x="1347" 
d="M1352 1077l-564 -1153q-80 -166 -186 -236.5t-278 -70.5q-60 0 -128.5 13t-105.5 32l51 234q75 -41 158 -41q86 0 138.5 33.5t78.5 105.5l10 33l-530 1050h319l369 -768l360 768h308zM528 1470h291l264 -296h-223l-187 118l-186 -118h-223z" />
    <glyph glyph-name="Ydieresis" unicode="&#x178;" horiz-adv-x="1736" 
d="M346 1470l526 -602l527 602h358l-737 -845v-625h-301v625l-739 845h366zM762 1554h-295v271h295v-271zM1282 1554h-295v271h295v-271z" />
    <glyph glyph-name="Zacute" unicode="&#x179;" horiz-adv-x="1628" 
d="M502 260h1048v-260h-1476v229l1038 981h-1030v260h1460v-229zM903 1554h-258l240 310h407z" />
    <glyph glyph-name="zacute" unicode="&#x17a;" horiz-adv-x="1280" 
d="M473 240h739v-240h-1142v213l737 625h-731v239h1130v-215zM731 1174h-242l213 296h369z" />
    <glyph glyph-name="Zdotaccent" unicode="&#x17b;" horiz-adv-x="1628" 
d="M502 260h1048v-260h-1476v229l1038 981h-1030v260h1460v-229zM965 1554h-308v271h308v-271z" />
    <glyph glyph-name="zdotaccent" unicode="&#x17c;" horiz-adv-x="1280" 
d="M473 240h739v-240h-1142v213l737 625h-731v239h1130v-215zM786 1204h-294v266h294v-266z" />
    <glyph glyph-name="Zcaron" unicode="&#x17d;" horiz-adv-x="1628" 
d="M502 260h1048v-260h-1476v229l1038 981h-1030v260h1460v-229zM1266 1864l-295 -310h-320l-295 310h238l217 -138l217 138h238z" />
    <glyph glyph-name="zcaron" unicode="&#x17e;" horiz-adv-x="1280" 
d="M473 240h739v-240h-1142v213l737 625h-731v239h1130v-215zM1049 1470l-264 -296h-291l-264 296h223l186 -118l187 118h223z" />
    <glyph glyph-name="florin" unicode="&#x192;" horiz-adv-x="1675" 
d="M977 680l-45 -250q-76 -453 -535 -453q-122 0 -226.5 29.5t-170.5 83.5l121 211q50 -38 119.5 -61t136.5 -23q215 0 256 227l43 236h-293v201h330l28 159q41 228 174.5 340.5t362.5 112.5q122 0 226.5 -29.5t170.5 -83.5l-121 -211q-50 38 -119.5 61t-138.5 23
q-209 0 -256 -227l-26 -145h323v-201h-360z" />
    <glyph glyph-name="AEacute" unicode="&#x1fc;" horiz-adv-x="2906" 
d="M-25 0l1315 1470h1553v-260h-1127v-327h1010v-258h-1010v-365h1127v-260h-1424v338h-766l-299 -338h-379zM1419 1202l-540 -610h540v610zM2101 1554h-258l240 310h407z" />
    <glyph glyph-name="aeacute" unicode="&#x1fd;" horiz-adv-x="2195" 
d="M45 311q0 158 129 248t358 90h390v53q0 76 -71.5 120t-197.5 44q-115 0 -204.5 -46t-118.5 -118l-248 84q51 142 211 226q164 86 371 86q318 0 446 -158q85 76 200 117t244 41q266 0 431 -154q163 -153 163 -395v-90h-952q26 -116 120.5 -182t233.5 -66q119 0 208.5 52.5
t127.5 144.5l244 -105q-58 -144 -217 -235q-160 -91 -359 -91q-165 0 -300 59.5t-222 168.5q-84 -112 -219 -170t-309 -58q-210 0 -334.5 89.5t-124.5 244.5zM1542 870q-125 0 -215.5 -59t-122.5 -162h666q-15 91 -111 156q-95 65 -217 65zM324 324q0 -61 56 -94t157 -33
q157 0 270 61q115 62 115 158v43h-359q-239 0 -239 -135zM1237 1174h-242l213 296h369z" />
    <glyph glyph-name="Oslashacute" unicode="&#x1fe;" horiz-adv-x="1828" 
d="M240 -59l-172 170l155 149q-176 204 -176 475q0 329 246 543q247 215 622 215q294 0 521 -139l155 149l170 -168l-143 -137q166 -200 166 -463q0 -328 -248 -542q-248 -216 -621 -216q-279 0 -505 129zM915 1237q-256 0 -411 -137q-156 -138 -156 -365q0 -172 94 -297
l781 729q-131 70 -308 70zM915 233q254 0 410 138t156 364q0 158 -84 283l-774 -723q133 -62 292 -62zM1016 1554h-258l239 310h408z" />
    <glyph glyph-name="oslashacute" unicode="&#x1ff;" horiz-adv-x="1353" 
d="M49 539q0 245 178 401q181 158 451 158q199 0 350 -88l127 127l141 -138l-114 -114q123 -148 123 -346q0 -248 -179 -404q-181 -158 -448 -158q-196 0 -352 89l-125 -125l-144 135l115 117q-123 141 -123 346zM678 872q-159 0 -262 -92q-101 -91 -101 -241
q0 -106 50 -183l481 482q-72 34 -168 34zM678 205q161 0 260.5 91.5t99.5 242.5q0 102 -49 178l-481 -479q70 -33 170 -33zM782 1174h-242l213 296h369z" />
    <glyph glyph-name="Scommaaccent" unicode="&#x218;" horiz-adv-x="1589" 
d="M817 -23q-267 0 -502 95q-229 92 -340 247l203 211q105 -142 275.5 -218t375.5 -76q190 0 305 52.5t115 139.5q0 69 -48 103t-179 57l-98 12q-76 12 -209 25q-362 40 -502 133q-135 92 -135 266q0 211 188 340q190 129 502 129q242 0 449 -80q203 -79 307 -213l-201 -192
q-85 109 -235 169t-336 60q-178 0 -279.5 -48.5t-101.5 -133.5q0 -73 82 -107q75 -31 389 -67q322 -36 452 -84q134 -47 197 -129t63 -207q0 -226 -200 -355t-537 -129zM741 -244h-106v174h287v-116q0 -115 -75.5 -176.5t-211.5 -61.5v115q51 0 75.5 15t30.5 50z" />
    <glyph glyph-name="scommaaccent" unicode="&#x219;" horiz-adv-x="1198" 
d="M612 -23q-197 0 -363 60.5t-257 165.5l164 188q178 -190 469 -190q128 0 195 29.5t67 84.5q0 37 -32.5 56.5t-119.5 31.5q-39 8 -98 13l-96 12q-287 38 -387 107q-99 71 -99 204q0 160 146 260q144 99 387 99q178 0 326.5 -54.5t230.5 -148.5l-164 -174
q-69 75 -174 115.5t-234 40.5q-113 0 -175 -28t-62 -79q0 -38 43 -59q45 -18 266 -45q244 -32 336 -66q98 -38 144 -100.5t46 -155.5q0 -169 -153 -268q-150 -99 -406 -99zM559 -244h-106v174h286v-116q0 -115 -75 -176.5t-211 -61.5v115q51 0 75.5 15t30.5 50z" />
    <glyph glyph-name="uni021A" unicode="&#x21a;" horiz-adv-x="1675" 
d="M1638 1470v-260h-649v-1210h-303v1210h-649v260h1601zM801 -244h-107v174h287v-116q0 -115 -75.5 -176.5t-211.5 -61.5v115q51 0 76 15t31 50z" />
    <glyph glyph-name="uni021B" unicode="&#x21b;" horiz-adv-x="1071" 
d="M694 -14q-212 0 -325 96t-113 278v478h-258v239h258v307h283v-307h458v-239h-458v-430q0 -91 50.5 -130.5t168.5 -39.5q104 0 235 45l49 -236q-153 -61 -348 -61zM573 -244h-106v174h287v-116q0 -115 -75.5 -176.5t-211.5 -61.5v115q51 0 75.5 15t30.5 50z" />
    <glyph glyph-name="uni0237" unicode="&#x237;" horiz-adv-x="505" 
d="M-80 -150q102 0 146.5 43t44.5 138v1046h286v-1040q0 -207 -115.5 -313.5t-340.5 -106.5q-58 0 -124.5 10t-107.5 27l43 223q108 -27 168 -27z" />
    <glyph glyph-name="circumflex" unicode="&#x2c6;" horiz-adv-x="1228" 
d="M469 1470h291l264 -296h-223l-187 118l-186 -118h-223z" />
    <glyph glyph-name="caron" unicode="&#x2c7;" horiz-adv-x="1228" 
d="M1024 1470l-264 -296h-291l-264 296h223l186 -118l187 118h223z" />
    <glyph glyph-name="breve" unicode="&#x2d8;" horiz-adv-x="1228" 
d="M614 1356q175 0 187 114h196q-2 -143 -102.5 -223t-280.5 -80t-280.5 80t-102.5 223h197q12 -114 186 -114z" />
    <glyph glyph-name="dotaccent" unicode="&#x2d9;" horiz-adv-x="1228" 
d="M762 1204h-295v266h295v-266z" />
    <glyph glyph-name="ring" unicode="&#x2da;" horiz-adv-x="1228" 
d="M614 1149q-99 0 -166 64.5t-67 158.5q0 93 67 157t166 64t166.5 -64t67.5 -157q0 -94 -67.5 -158.5t-166.5 -64.5zM614 1464q-37 0 -63.5 -27.5t-26.5 -64.5q0 -38 26 -65t64 -27t64.5 27t26.5 65q0 37 -27 64.5t-64 27.5z" />
    <glyph glyph-name="ogonek" unicode="&#x2db;" horiz-adv-x="1228" 
d="M629 -377q-119 0 -194 50.5t-75 131.5q0 97 87.5 172.5t250.5 118.5l84 -96q-120 -37 -173.5 -70t-53.5 -71q0 -29 34 -46.5t91 -17.5q52 0 102 12v-167q-107 -17 -153 -17z" />
    <glyph glyph-name="tilde" unicode="&#x2dc;" horiz-adv-x="1228" 
d="M442 1487q46 0 90 -13.5t109 -50.5q73 -41 113 -41q31 0 48.5 24.5t28.5 80.5h177q-6 -146 -66 -229.5t-158 -83.5q-47 0 -90 13t-108 50q-74 41 -113 41q-31 0 -49.5 -24.5t-28.5 -79.5h-176q6 146 65.5 229.5t157.5 83.5z" />
    <glyph glyph-name="hungarumlaut" unicode="&#x2dd;" horiz-adv-x="1228" 
d="M797 1174h-217l190 296h315zM360 1174h-217l191 296h313z" />
    <glyph glyph-name="gravecmb" unicode="&#x300;" horiz-adv-x="0" 
d="M78 1470l213 -296h-242l-340 296h369z" />
    <glyph glyph-name="acutecmb" unicode="&#x301;" horiz-adv-x="0" 
d="M-49 1174h-242l213 296h369z" />
    <glyph glyph-name="circumflexcmb" unicode="&#x302;" horiz-adv-x="0" 
d="M-145 1470h290l265 -296h-224l-186 118l-186 -118h-224z" />
    <glyph glyph-name="tildecmb" unicode="&#x303;" horiz-adv-x="0" 
d="M-170 1487q46 0 90 -13.5t109 -50.5q73 -41 112 -41q31 0 49 24.5t29 80.5h176q-6 -146 -65.5 -229.5t-157.5 -83.5q-47 0 -90.5 13t-108.5 50q-74 41 -112 41q-31 0 -49.5 -24.5t-28.5 -79.5h-176q6 146 65.5 229.5t157.5 83.5z" />
    <glyph glyph-name="macroncmb" unicode="&#x304;" horiz-adv-x="0" 
d="M375 1425v-217h-750v217h750z" />
    <glyph glyph-name="brevecmb" unicode="&#x306;" horiz-adv-x="0" 
d="M0 1356q174 0 186 114h197q-2 -143 -102.5 -223t-280.5 -80t-280.5 80t-102.5 223h197q12 -114 186 -114z" />
    <glyph glyph-name="dotaccentcmb" unicode="&#x307;" horiz-adv-x="0" 
d="M147 1204h-294v266h294v-266z" />
    <glyph glyph-name="dieresiscmb" unicode="&#x308;" horiz-adv-x="0" 
d="M-104 1204h-295v266h295v-266zM399 1204h-295v266h295v-266z" />
    <glyph glyph-name="ringcmb" unicode="&#x30a;" horiz-adv-x="0" 
d="M0 1149q-99 0 -166 64.5t-67 158.5q0 93 67 157t166 64t166 -64t67 -157q0 -94 -67 -158.5t-166 -64.5zM0 1464q-37 0 -63.5 -27.5t-26.5 -64.5q0 -38 26 -65t64 -27t64 27t26 65q0 37 -26.5 64.5t-63.5 27.5z" />
    <glyph glyph-name="hungarumlautcmb" unicode="&#x30b;" horiz-adv-x="0" 
d="M182 1174h-217l191 296h315zM-254 1174h-217l190 296h314z" />
    <glyph glyph-name="caroncmb" unicode="&#x30c;" horiz-adv-x="0" 
d="M410 1470l-265 -296h-290l-265 296h224l186 -118l186 118h224z" />
    <glyph glyph-name="commaturncmb" unicode="&#x312;" horiz-adv-x="0" 
d="M37 1348h106v-174h-286v116q0 115 75 176.5t211 61.5v-115q-51 0 -75.5 -15t-30.5 -50z" />
    <glyph glyph-name="commaaccentcmb" unicode="&#x326;" horiz-adv-x="0" 
d="M-37 -244h-106v174h286v-116q0 -115 -75 -176.5t-211 -61.5v115q51 0 75.5 15t30.5 50z" />
    <glyph glyph-name="cedillacmb" unicode="&#x327;" horiz-adv-x="0" 
d="M285 -205q0 -81 -80.5 -130.5t-210.5 -49.5q-186 0 -279 74l88 131q73 -58 179 -58q108 0 108 50q0 29 -44 42.5t-152 14.5l47 156h137l-21 -68q104 -4 166 -48.5t62 -113.5z" />
    <glyph glyph-name="ogonekcmb" unicode="&#x328;" horiz-adv-x="0" 
d="M57 -377q-119 0 -193.5 50.5t-74.5 131.5q0 97 87.5 172.5t250.5 118.5l84 -96q-120 -37 -173.5 -70t-53.5 -71q0 -29 34 -46.5t91 -17.5q53 0 102 12v-167q-107 -17 -154 -17z" />
    <glyph glyph-name="baht" unicode="&#xe3f;" horiz-adv-x="1669" 
d="M735 0h-606v1470h606v209h244v-209h115q239 0 368 -101t129 -290q0 -109 -56 -190.5t-159 -124.5q122 -41 191 -134.5t69 -217.5q0 -192 -136.5 -302t-371.5 -110h-149v-213h-244v213zM408 1223v-353h327v353h-327zM1317 1047q0 86 -62.5 131t-181.5 45h-94v-353h94
q119 0 181.5 45.5t62.5 131.5zM735 631h-327v-383h327v383zM1358 440q0 86 -65.5 138.5t-174.5 52.5h-139v-383h139q110 0 175 52t65 140z" />
    <glyph glyph-name="Wgrave" unicode="&#x1e80;" horiz-adv-x="2420" 
d="M688 332l369 1138h313l367 -1138l387 1138h309l-514 -1470h-350l-359 1124l-362 -1124h-348l-514 1470h315zM1118 1864l240 -310h-258l-389 310h407z" />
    <glyph glyph-name="wgrave" unicode="&#x1e81;" horiz-adv-x="1886" 
d="M569 348l256 729h250l258 -729l262 729h295l-424 -1077h-258l-264 717l-264 -717h-258l-426 1077h305zM871 1470l213 -296h-242l-340 296h369z" />
    <glyph glyph-name="Wacute" unicode="&#x1e82;" horiz-adv-x="2420" 
d="M688 332l369 1138h313l367 -1138l387 1138h309l-514 -1470h-350l-359 1124l-362 -1124h-348l-514 1470h315zM1335 1554h-258l240 310h407z" />
    <glyph glyph-name="wacute" unicode="&#x1e83;" horiz-adv-x="1886" 
d="M569 348l256 729h250l258 -729l262 729h295l-424 -1077h-258l-264 717l-264 -717h-258l-426 1077h305zM1065 1174h-242l213 296h369z" />
    <glyph glyph-name="Wdieresis" unicode="&#x1e84;" horiz-adv-x="2420" 
d="M688 332l369 1138h313l367 -1138l387 1138h309l-514 -1470h-350l-359 1124l-362 -1124h-348l-514 1470h315zM1098 1554h-295v271h295v-271zM1618 1554h-295v271h295v-271z" />
    <glyph glyph-name="wdieresis" unicode="&#x1e85;" horiz-adv-x="1886" 
d="M569 348l256 729h250l258 -729l262 729h295l-424 -1077h-258l-264 717l-264 -717h-258l-426 1077h305zM838 1204h-295v266h295v-266zM1341 1204h-294v266h294v-266z" />
    <glyph glyph-name="Germandbls" unicode="&#x1e9e;" horiz-adv-x="1865" 
d="M1845 471q0 -219 -168 -356q-169 -138 -438 -138q-217 0 -386.5 85t-266.5 243l188 191q184 -269 465 -269q139 0 226 67t87 173q0 221 -374 221h-371v193l420 336h-797v-1217h-301v1470h1497v-239l-401 -320q299 -1 459.5 -115.5t160.5 -324.5z" />
    <glyph glyph-name="Ygrave" unicode="&#x1ef2;" horiz-adv-x="1736" 
d="M346 1470l526 -602l527 602h358l-737 -845v-625h-301v625l-739 845h366zM834 1864l239 -310h-258l-389 310h408z" />
    <glyph glyph-name="ygrave" unicode="&#x1ef3;" horiz-adv-x="1347" 
d="M1352 1077l-564 -1153q-80 -166 -186 -236.5t-278 -70.5q-60 0 -128.5 13t-105.5 32l51 234q75 -41 158 -41q86 0 138.5 33.5t78.5 105.5l10 33l-530 1050h319l369 -768l360 768h308zM631 1470l213 -296h-242l-340 296h369z" />
    <glyph glyph-name="thinspace" unicode="&#x2009;" horiz-adv-x="204" 
 />
    <glyph glyph-name="endash" unicode="&#x2013;" horiz-adv-x="1110" 
d="M1028 481h-946v234h946v-234z" />
    <glyph glyph-name="emdash" unicode="&#x2014;" horiz-adv-x="1998" 
d="M1917 481h-1835v234h1835v-234z" />
    <glyph glyph-name="quoteleft" unicode="&#x2018;" horiz-adv-x="425" 
d="M240 1171h141v-317h-336v322q0 135 91 213.5t245 80.5v-151q-72 -6 -106.5 -36.5t-34.5 -90.5v-21z" />
    <glyph glyph-name="quoteright" unicode="&#x2019;" horiz-adv-x="425" 
d="M186 1153h-141v317h336v-321q0 -135 -91 -214t-245 -81v152q72 6 106.5 36.5t34.5 90.5v20z" />
    <glyph glyph-name="quotesinglbase" unicode="&#x201a;" horiz-adv-x="425" 
d="M186 23h-141v317h336v-322q0 -135 -91 -213.5t-245 -80.5v151q72 6 106.5 36.5t34.5 90.5v21z" />
    <glyph glyph-name="quotedblleft" unicode="&#x201c;" horiz-adv-x="866" 
d="M240 1171h141v-317h-336v322q0 135 91 213.5t245 80.5v-151q-72 -6 -106.5 -36.5t-34.5 -90.5v-21zM682 1171h141v-317h-336v322q0 135 91 213.5t245 80.5v-151q-72 -6 -106.5 -36.5t-34.5 -90.5v-21z" />
    <glyph glyph-name="quotedblright" unicode="&#x201d;" horiz-adv-x="866" 
d="M184 1153h-141v317h336v-321q0 -135 -91 -214t-245 -81v152q72 6 106.5 36.5t34.5 90.5v20zM627 1153h-142v317h336v-321q0 -135 -91 -214t-245 -81v152q73 6 107.5 36.5t34.5 90.5v20z" />
    <glyph glyph-name="quotedblbase" unicode="&#x201e;" horiz-adv-x="866" 
d="M627 23h-142v317h336v-322q0 -135 -91 -213.5t-245 -80.5v151q73 6 107.5 36.5t34.5 90.5v21zM184 23h-141v317h336v-322q0 -135 -91 -213.5t-245 -80.5v151q72 6 106.5 36.5t34.5 90.5v21z" />
    <glyph glyph-name="dagger" unicode="&#x2020;" horiz-adv-x="837" 
d="M528 578h-219v462h-272v217h272v254h219v-254h273v-217h-273v-462z" />
    <glyph glyph-name="daggerdbl" unicode="&#x2021;" horiz-adv-x="829" 
d="M526 578h-223v182h-264v201h264v167h-264v203h264v180h223v-180h267v-203h-267v-167h267v-201h-267v-182z" />
    <glyph glyph-name="bullet" unicode="&#x2022;" horiz-adv-x="888" 
d="M76 596q0 160 104 264q107 107 266 107t263 -107q104 -104 104 -264q0 -159 -106 -262q-105 -105 -261 -105t-264 105q-106 103 -106 262z" />
    <glyph glyph-name="ellipsis" unicode="&#x2026;" horiz-adv-x="1423" 
d="M414 0h-336v332h336v-332zM881 0h-336v332h336v-332zM1346 0h-336v332h336v-332z" />
    <glyph glyph-name="guilsinglleft" unicode="&#x2039;" horiz-adv-x="610" 
d="M532 121l-454 278v267l454 278v-276l-208 -136l208 -135v-276z" />
    <glyph glyph-name="guilsinglright" unicode="&#x203a;" horiz-adv-x="610" 
d="M532 666v-267l-454 -278v276l209 135l-209 136v276z" />
    <glyph glyph-name="fraction" unicode="&#x2044;" horiz-adv-x="311" 
d="M-553 0l1165 1470h252l-1165 -1470h-252z" />
    <glyph glyph-name="uni2070" unicode="&#x2070;" horiz-adv-x="1044" 
d="M522 643q-206 0 -340 119q-133 121 -133 303q0 181 133 299q134 119 340 119q207 0 338 -119q135 -117 135 -299q0 -183 -135 -303q-131 -119 -338 -119zM522 1294q-109 0 -175 -63t-66 -166q0 -105 66.5 -169.5t174.5 -64.5q106 0 173 65t67 169q0 102 -67 165.5
t-173 63.5z" />
    <glyph glyph-name="uni2074" unicode="&#x2074;" horiz-adv-x="964" 
d="M756 834v-179h-217v179h-516v165l444 471h289v-460h186v-176h-186zM539 1290l-267 -280h267v280z" />
    <glyph glyph-name="uni2075" unicode="&#x2075;" horiz-adv-x="907" 
d="M449 1042q-119 0 -201 -53l-197 29l60 452h708v-184h-536l-17 -123q89 47 226 47q177 0 281 -74.5t104 -201.5q0 -128 -121 -211q-121 -80 -305 -80q-166 0 -287 61.5t-164 167.5l205 80q29 -60 95.5 -94.5t152.5 -34.5q88 0 142 30t54 79q0 51 -54 80.5t-146 29.5z" />
    <glyph glyph-name="uni2076" unicode="&#x2076;" horiz-adv-x="1001" 
d="M549 1483q275 0 399 -152l-139 -131q-43 51 -112.5 79t-151.5 28q-119 0 -198 -54.5t-79 -130.5q101 84 287 84q173 0 289 -78q112 -75 112 -194q0 -130 -123 -210.5t-321 -80.5q-213 0 -338 109.5t-125 294.5q0 196 137 315q139 121 363 121zM510 815q97 0 157 31t60 80
q0 51 -59.5 81.5t-159.5 30.5q-98 0 -157.5 -30.5t-59.5 -81.5t60 -81t159 -30z" />
    <glyph glyph-name="uni2077" unicode="&#x2077;" horiz-adv-x="907" 
d="M635 1286h-422v-151h-190v335h862v-196q-158 -129 -232.5 -279.5t-74.5 -339.5h-238q0 374 295 631z" />
    <glyph glyph-name="uni2078" unicode="&#x2078;" horiz-adv-x="970" 
d="M80 1243q0 109 112 174.5t293 65.5q182 0 294 -65.5t112 -174.5q0 -56 -30.5 -95.5t-96.5 -70.5q174 -59 174 -190q0 -115 -122 -179.5t-331 -64.5t-330.5 64.5t-121.5 179.5q0 130 176 190q-129 57 -129 166zM307 1241q0 -38 46 -59t132 -21t133.5 21t47.5 59t-47 59
t-134 21q-178 0 -178 -80zM711 903q0 44 -60 68t-166 24t-164.5 -24t-58.5 -68q0 -45 57.5 -69.5t165.5 -24.5t167 25t59 69z" />
    <glyph glyph-name="uni2079" unicode="&#x2079;" horiz-adv-x="1001" 
d="M455 643q-134 0 -237 40t-163 114l140 129q90 -107 264 -107q117 0 195.5 53.5t78.5 128.5q-105 -79 -284 -79t-291 75q-113 76 -113 195q0 130 123 210.5t321 80.5q215 0 339 -108.5t124 -293.5q0 -200 -137 -319q-134 -119 -360 -119zM494 1311q-98 0 -159 -30.5
t-61 -80.5q0 -51 61 -82t159 -31t158.5 31t60.5 82q0 50 -60.5 80.5t-158.5 30.5z" />
    <glyph glyph-name="uni2080" unicode="&#x2080;" horiz-adv-x="1044" 
d="M522 -258q-206 0 -340 119q-133 121 -133 303q0 181 133 299q134 119 340 119q207 0 338 -119q135 -117 135 -299q0 -183 -135 -303q-131 -119 -338 -119zM522 393q-109 0 -175 -63t-66 -166q0 -105 66.5 -169.5t174.5 -64.5q106 0 173 65t67 169q0 102 -67 165.5
t-173 63.5z" />
    <glyph glyph-name="uni2081" unicode="&#x2081;" horiz-adv-x="763" 
d="M289 -57v319h-262v168l123 4q91 1 135.5 33t56.5 102h174v-626h234v-189h-723v189h262z" />
    <glyph glyph-name="uni2082" unicode="&#x2082;" horiz-adv-x="909" 
d="M55 -246v162l346 188q145 74 183 109q39 36 39 80q0 45 -42 73.5t-110 28.5q-90 0 -152.5 -49t-76.5 -129l-205 43q21 143 141 232q122 90 303 90q167 0 270 -74.5t103 -196.5q0 -91 -56.5 -157.5t-183.5 -126.5l-170 -86h428v-187h-817z" />
    <glyph glyph-name="uni2083" unicode="&#x2083;" horiz-adv-x="950" 
d="M915 -12q0 -106 -120 -176q-119 -70 -316 -70q-171 0 -292.5 59t-178.5 170l199 90q31 -63 105.5 -101t166.5 -38q85 0 137 24t52 62q0 76 -181 76h-151v168h141q174 0 174 72q0 35 -46 55t-126 20q-87 0 -155.5 -34.5t-94.5 -90.5l-188 88q50 100 173 160t282 60
q182 0 291.5 -66t109.5 -172q0 -60 -38.5 -107t-104.5 -67q161 -49 161 -182z" />
    <glyph glyph-name="uni2084" unicode="&#x2084;" horiz-adv-x="964" 
d="M756 -68v-178h-217v178h-516v166l444 471h289v-460h186v-177h-186zM539 389l-267 -280h267v280z" />
    <glyph glyph-name="uni2085" unicode="&#x2085;" horiz-adv-x="907" 
d="M449 141q-119 0 -201 -53l-197 29l60 452h708v-184h-536l-17 -123q89 47 226 47q177 0 281 -74.5t104 -201.5q0 -128 -121 -211q-121 -80 -305 -80q-166 0 -287 61.5t-164 167.5l205 80q29 -60 95.5 -94.5t152.5 -34.5q88 0 142 30t54 79q0 51 -54 80.5t-146 29.5z" />
    <glyph glyph-name="uni2086" unicode="&#x2086;" horiz-adv-x="1001" 
d="M549 582q275 0 399 -152l-139 -131q-43 51 -112.5 79t-151.5 28q-119 0 -198 -54.5t-79 -130.5q101 84 287 84q173 0 289 -78q112 -75 112 -194q0 -130 -123 -210.5t-321 -80.5q-213 0 -338 109t-125 294q0 197 137 316q139 121 363 121zM510 -86q97 0 157 31t60 80
q0 51 -59.5 81.5t-159.5 30.5q-98 0 -157.5 -30.5t-59.5 -81.5t60 -81t159 -30z" />
    <glyph glyph-name="uni2087" unicode="&#x2087;" horiz-adv-x="907" 
d="M635 385h-422v-152h-190v336h862v-196q-158 -129 -232.5 -279.5t-74.5 -339.5h-238q0 374 295 631z" />
    <glyph glyph-name="uni2088" unicode="&#x2088;" horiz-adv-x="970" 
d="M80 342q0 109 112 174.5t293 65.5q182 0 294 -65.5t112 -174.5q0 -56 -30.5 -95.5t-96.5 -70.5q174 -59 174 -190q0 -115 -122 -179.5t-331 -64.5t-330.5 64.5t-121.5 179.5q0 130 176 190q-129 57 -129 166zM307 340q0 -38 46 -59t132 -21t133.5 21t47.5 59t-47 59
t-134 21q-178 0 -178 -80zM711 2q0 44 -60 68t-166 24t-164.5 -24t-58.5 -68q0 -45 57.5 -69.5t165.5 -24.5t167 25t59 69z" />
    <glyph glyph-name="uni2089" unicode="&#x2089;" horiz-adv-x="1001" 
d="M453 -258q-134 0 -237 40t-163 114l140 129q90 -107 264 -107q117 0 195.5 53.5t78.5 128.5q-107 -80 -285 -80q-177 0 -290 76t-113 195q0 130 123 210.5t321 80.5q215 0 339 -108.5t124 -293.5q0 -200 -137 -319q-134 -119 -360 -119zM492 410q-98 0 -159 -30.5
t-61 -80.5q0 -51 61 -82t159 -31t158.5 31t60.5 82q0 50 -60.5 80.5t-158.5 30.5z" />
    <glyph glyph-name="franc" unicode="&#x20a3;" horiz-adv-x="1767" 
d="M317 291h-294v229h294v950h1403v-256h-1106v-317h990v-256h-990v-121h387v-229h-387v-291h-297v291z" />
    <glyph glyph-name="naira" unicode="&#x20a6;" horiz-adv-x="2177" 
d="M334 477h-295v199h295v119h-295v198h295v477h307l911 -1034v1034h291v-477h295v-198h-295v-119h295v-199h-295v-477h-264l-952 1085v-1085h-293v477z" />
    <glyph glyph-name="peseta" unicode="&#x20a7;" horiz-adv-x="2146" 
d="M1188 381h-553v-381h-301v813h-295v225h295v432h854q263 0 422 -111.5t194 -320.5h303v-225h-303q-37 -207 -197.5 -319.5t-418.5 -112.5zM1171 1219h-536v-181h862q-32 88 -115.5 134.5t-210.5 46.5zM635 813v-180h536q127 0 210.5 46t115.5 134h-862z" />
    <glyph glyph-name="won" unicode="&#x20a9;" horiz-adv-x="2291" 
d="M369 477h-330v199h276l-32 119h-244v198h190l-131 477h303l281 -1116l326 1116h284l326 -1112l278 1112h295l-131 -477h193v-198h-246l-33 -119h279v-199h-332l-131 -477h-328l-313 1094l-315 -1094h-334z" />
    <glyph glyph-name="dong" unicode="&#x20ab;" horiz-adv-x="1468" 
d="M981 172v102q-55 -56 -148.5 -88t-207.5 -32q-240 0 -383 125q-146 128 -146 323q0 196 146 324q145 127 383 127q117 0 211 -32t145 -89v201h-330v215h330v122h258v-122h209v-215h-209v-961h-258zM985 598v12q0 101 -92 166q-92 68 -227 68q-136 0 -222 -66.5
t-86 -175.5q0 -108 86 -174t222 -66q135 0 227 68t92 168zM1239 -215h-1126v215h1126v-215z" />
    <glyph glyph-name="Euro" unicode="&#x20ac;" horiz-adv-x="1826" 
d="M270 483h-231v197h190q-2 14 -2 55q0 50 2 64h-190v194h233q84 228 299 365q214 135 494 135q270 0 466.5 -119.5t278.5 -333.5l-249 -131q-62 155 -192 239.5t-310 84.5q-159 0 -283.5 -62.5t-191.5 -177.5h622l-45 -194h-641q-1 -13 -2 -27t-1.5 -22t-0.5 -15
q0 -41 2 -55h617l-43 -197h-510q67 -117 192 -181t285 -64q180 0 310 84t192 239l249 -131q-82 -214 -278.5 -333.5t-466.5 -119.5q-281 0 -496 138q-218 140 -299 368z" />
    <glyph glyph-name="peso" unicode="&#x20b1;" horiz-adv-x="2146" 
d="M334 666h-295v198h295v121h-295v199h295v286h866q210 0 354 -73.5t207 -212.5h346v-199h-297q2 -10 2 -51q0 -7 -0.5 -15.5t-1.5 -23.5t-2 -31h299v-198h-354q-69 -131 -212 -201t-341 -70h-565v-395h-301v666zM635 1219v-570h549q158 0 245 75t87 210t-87 210t-245 75
h-549z" />
    <glyph glyph-name="uni20B9" unicode="&#x20b9;" horiz-adv-x="1687" 
d="M707 506h-666v242h735q196 0 258 120h-993v242h993q-67 119 -258 119h-735v241h1606v-241h-377q47 -50 63 -119h314v-242h-308q-25 -122 -105.5 -206.5t-209.5 -122.5l373 -539h-346z" />
    <glyph glyph-name="uni20BA" unicode="&#x20ba;" horiz-adv-x="1624" 
d="M301 307l-262 -145v223l262 145v125l-258 -143v225l258 144v589h301v-421l426 235v-225l-426 -236v-125l426 236v-225l-426 -236v-213h234q235 0 341.5 114.5t108.5 368.5h303q-3 -743 -753 -743h-535v307z" />
    <glyph glyph-name="uni20BD" unicode="&#x20bd;" horiz-adv-x="1853" 
d="M340 229h-301v248h301v121h-297l2 248h295v624h960q242 0 379.5 -115t137.5 -321q0 -203 -138.5 -319.5t-378.5 -116.5h-659v-121h584v-248h-584v-229h-301v229zM1284 1223h-643v-377h643q110 0 173 50t63 138q0 91 -61.5 140t-174.5 49z" />
    <glyph glyph-name="trademark" unicode="&#x2122;" horiz-adv-x="1902" 
d="M518 1278v-500h-217v500h-260v192h735v-192h-258zM1626 1217l-209 -439h-119l-208 439v-439h-195v692h279l188 -383l186 383h275v-692h-197v439z" />
    <glyph glyph-name="uni2153" unicode="&#x2153;" horiz-adv-x="2170" 
d="M750 655h-723v189h262v319h-262v168l123 4q91 1 135.5 33t56.5 102h174v-626h234v-189zM354 0l1166 1470h252l-1166 -1470h-252zM2134 233q0 -105 -121 -176q-117 -69 -315 -69q-171 0 -292.5 59t-178.5 170l198 90q31 -63 106 -101t167 -38q84 0 136 24t52 62
q0 76 -180 76h-152v168h142q174 0 174 71q0 35 -46 55.5t-126 20.5q-87 0 -155.5 -34.5t-94.5 -90.5l-188 88q50 100 172.5 159.5t281.5 59.5q182 0 292 -65.5t110 -171.5q0 -60 -39 -107t-105 -67q162 -49 162 -183z" />
    <glyph glyph-name="uni2154" unicode="&#x2154;" horiz-adv-x="2283" 
d="M51 655v162l346 189q147 75 183 108q38 35 38 80t-41.5 73.5t-109.5 28.5q-90 0 -152.5 -49t-76.5 -129l-205 43q21 143 141 232q122 90 303 90q167 0 270 -74.5t103 -196.5q0 -91 -56.5 -157.5t-183.5 -126.5l-170 -86h428v-187h-817zM467 0l1165 1470h252l-1165 -1470
h-252zM2249 233q0 -105 -121 -176q-117 -69 -316 -69q-171 0 -292.5 59t-178.5 170l199 90q31 -63 105.5 -101t166.5 -38q85 0 137 24t52 62q0 76 -180 76h-152v168h141q175 0 175 71q0 35 -46.5 55.5t-126.5 20.5q-87 0 -154.5 -34.5t-94.5 -90.5l-189 88q50 100 173 159.5
t282 59.5q182 0 291.5 -65.5t109.5 -171.5q0 -60 -38.5 -107t-104.5 -67q162 -49 162 -183z" />
    <glyph glyph-name="uni215B" unicode="&#x215b;" horiz-adv-x="2189" 
d="M750 655h-723v189h262v319h-262v168l123 4q91 1 135.5 33t56.5 102h174v-626h234v-189zM354 0l1166 1470h252l-1166 -1470h-252zM1298 588q0 109 112 174t294 65t293.5 -65t111.5 -174q0 -56 -30.5 -95.5t-96.5 -70.5q175 -59 175 -191q0 -114 -122 -178.5t-331 -64.5
t-331 64.5t-122 178.5q0 131 176 191q-129 57 -129 166zM1526 586q0 -38 46 -59t132 -21t133 21t47 59t-46.5 59t-133.5 21q-178 0 -178 -80zM1929 248q0 44 -59.5 68t-165.5 24t-164.5 -24t-58.5 -68q0 -45 57.5 -69.5t165.5 -24.5t166.5 24.5t58.5 69.5z" />
    <glyph glyph-name="uni215C" unicode="&#x215c;" horiz-adv-x="2234" 
d="M915 889q0 -105 -120 -176q-119 -70 -316 -70q-171 0 -292.5 59t-178.5 170l199 91q31 -63 105.5 -101.5t166.5 -38.5q85 0 137 24t52 62q0 76 -181 76h-151v168h141q174 0 174 72q0 35 -46 55t-126 20q-87 0 -155.5 -34t-94.5 -90l-188 88q50 100 173 159.5t282 59.5
q182 0 291.5 -66t109.5 -172q0 -60 -38.5 -107t-104.5 -67q161 -49 161 -182zM397 0l1166 1470h252l-1166 -1470h-252zM1343 588q0 109 112 174t294 65t293.5 -65t111.5 -174q0 -56 -30 -95.5t-96 -70.5q174 -59 174 -191q0 -114 -122 -178.5t-331 -64.5t-331 64.5
t-122 178.5q0 131 177 191q-130 58 -130 166zM1571 586q0 -38 46 -59t132 -21t133 21t47 59t-46.5 59t-133.5 21q-178 0 -178 -80zM1974 248q0 44 -59.5 68t-165.5 24t-164.5 -24t-58.5 -68q0 -45 57.5 -69.5t165.5 -24.5t166.5 24.5t58.5 69.5z" />
    <glyph glyph-name="uni215D" unicode="&#x215d;" horiz-adv-x="2191" 
d="M449 1042q-119 0 -201 -53l-197 29l60 452h708v-184h-536l-17 -123q89 47 226 47q177 0 281 -74.5t104 -201.5q0 -128 -121 -211q-121 -80 -305 -80q-166 0 -287 61.5t-164 167.5l205 80q29 -60 95.5 -94.5t152.5 -34.5q88 0 142 30t54 79q0 51 -54 80.5t-146 29.5z
M354 0l1166 1470h252l-1166 -1470h-252zM1300 588q0 109 112 174t294 65t293.5 -65t111.5 -174q0 -56 -30 -95.5t-96 -70.5q174 -59 174 -191q0 -114 -122 -178.5t-331 -64.5t-331 64.5t-122 178.5q0 131 177 191q-130 58 -130 166zM1528 586q0 -38 46 -59t132 -21t133 21
t47 59t-46.5 59t-133.5 21q-178 0 -178 -80zM1931 248q0 44 -59.5 68t-165.5 24t-164.5 -24t-58.5 -68q0 -45 57.5 -69.5t165.5 -24.5t166.5 24.5t58.5 69.5z" />
    <glyph glyph-name="uni215E" unicode="&#x215e;" horiz-adv-x="2121" 
d="M635 1286h-422v-151h-190v335h862v-196q-158 -129 -232.5 -279.5t-74.5 -339.5h-238q0 374 295 631zM285 0l1165 1470h252l-1165 -1470h-252zM1231 588q0 109 111.5 174t293.5 65t294 -65t112 -174q0 -56 -30.5 -95.5t-96.5 -70.5q174 -59 174 -191q0 -114 -122 -178.5
t-331 -64.5t-330.5 64.5t-121.5 178.5q0 131 176 191q-129 57 -129 166zM1458 586q0 -38 46 -59t132 -21t133.5 21t47.5 59t-47 59t-134 21q-178 0 -178 -80zM1862 248q0 44 -60 68t-166 24t-164.5 -24t-58.5 -68q0 -45 57.5 -69.5t165.5 -24.5t167 25t59 69z" />
    <glyph glyph-name="arrowleft" unicode="&#x2190;" 
d="M477 610l359 -401l-195 -182l-631 714l631 715l195 -182l-359 -402h1151v-262h-1151z" />
    <glyph glyph-name="arrowup" unicode="&#x2191;" horiz-adv-x="1527" 
d="M1518 811l-183 -186l-438 403v-1028h-266v1030l-441 -405l-180 186l754 682z" />
    <glyph glyph-name="arrowright" unicode="&#x2192;" 
d="M997 1456l631 -715l-631 -714l-194 182l358 401h-1151v262h1151l-358 402z" />
    <glyph glyph-name="arrowdown" unicode="&#x2193;" horiz-adv-x="1527" 
d="M1335 846l183 -187l-754 -682l-754 682l180 187l441 -406v1030h266v-1028z" />
    <glyph glyph-name="minus" unicode="&#x2212;" 
d="M1516 602h-1393v246h1393v-246z" />
    <glyph glyph-name="commaaccent" unicode="&#xf6c3;" horiz-adv-x="1228" 
d="M575 -244h-106v174h287v-116q0 -115 -75.5 -176.5t-211.5 -61.5v115q51 0 75.5 15t30.5 50z" />
    <glyph glyph-name="idotaccent" horiz-adv-x="505" 
d="M399 1204h-293v266h293v-266zM111 1077h286v-1077h-286v1077z" />
    <glyph glyph-name="a.ord" horiz-adv-x="997" 
d="M688 786q-114 -102 -319 -102q-148 0 -237 64.5t-89 173.5q0 102 81.5 164.5t231.5 76.5l312 31v4q0 51 -47.5 80t-133.5 29q-78 0 -137 -30t-76 -77l-202 57q35 103 151.5 165.5t274.5 62.5q189 0 289 -74t100 -215v-287q0 -36 22 -45q12 -4 27 -4q21 0 51 6v-166
q-55 -12 -100 -12q-47 0 -88 12q-76 21 -111 86zM410 850q105 0 181.5 42t76.5 103v45l-279 -28q-67 -6 -96 -25.5t-29 -56.5q0 -38 38.5 -59t107.5 -21z" />
    <glyph glyph-name="b.ord" horiz-adv-x="1081" 
d="M1034 1083q0 -174 -114 -288q-113 -113 -302 -113q-87 0 -160.5 28t-121.5 78v-88h-227v1051h227v-369q45 48 120 75.5t162 27.5q189 0 302 -113q114 -114 114 -289zM573 1303q-106 0 -175.5 -62t-69.5 -156v-4q0 -94 69.5 -154.5t175.5 -60.5q105 0 173.5 60.5
t68.5 156.5q0 98 -68 159t-174 61z" />
    <glyph glyph-name="c.ord" horiz-adv-x="937" 
d="M508 1300q-106 0 -173 -59.5t-67 -157.5q0 -96 67 -155.5t173 -59.5q78 0 138.5 42.5t84.5 111.5l195 -88q-39 -111 -153.5 -181.5t-262.5 -70.5q-203 0 -334 113q-129 114 -129 288q0 178 129 289q131 113 334 113q150 0 266 -72q115 -71 150 -180l-195 -84
q-23 68 -84 109.5t-139 41.5z" />
    <glyph glyph-name="d.ord" horiz-adv-x="1081" 
d="M463 682q-185 0 -301 113q-115 115 -115 288q0 174 115 289q113 113 301 113q89 0 163 -27.5t119 -75.5v369h228v-1051h-228v88q-45 -50 -118.5 -78t-163.5 -28zM754 1081v4q0 94 -70 156t-174 62q-106 0 -174 -61t-68 -159q0 -97 67.5 -157t174.5 -60q105 0 174.5 61
t69.5 154z" />
    <glyph glyph-name="e.ord" horiz-adv-x="989" 
d="M510 682q-206 0 -334 113q-129 114 -129 290q0 171 129 285q133 115 332 115q193 0 313 -111q121 -112 121 -284v-64h-676q20 -75 84.5 -118.5t157.5 -43.5q79 0 138.5 34.5t84.5 94.5l199 -75q-43 -106 -158 -171t-262 -65zM502 1311q-85 0 -146 -38t-84 -106h445
q-11 60 -72.5 102t-142.5 42z" />
    <glyph glyph-name="f.ord" horiz-adv-x="688" 
d="M532 1767q107 0 189 -28l-29 -178q-55 18 -147 18q-79 0 -114.5 -23.5t-35.5 -76.5v-9h289v-186h-287v-584h-223v584h-178v186h178v13q0 140 90.5 212t267.5 72z" />
    <glyph glyph-name="g.ord" horiz-adv-x="1073" 
d="M965 1470v-657q0 -176 -136 -285q-131 -104 -350 -104q-160 0 -273.5 51.5t-160.5 145.5l182 106q31 -61 96 -94t156 -33q113 0 185.5 52.5t72.5 138.5v26q-44 -49 -117 -75.5t-161 -26.5q-186 0 -303 108q-115 109 -115 277q0 167 115 276q118 109 303 109
q87 0 160.5 -26.5t117.5 -74.5v86h228zM748 1098v6q0 90 -69.5 147.5t-174.5 57.5t-173.5 -58.5t-68.5 -150.5t68.5 -149.5t173.5 -57.5q106 0 175 57.5t69 147.5z" />
    <glyph glyph-name="h.ord" horiz-adv-x="1054" 
d="M336 700h-227v1051h227v-375q106 109 280 109q154 0 246 -95t92 -253v-437h-227v373q0 101 -48 156t-138 55q-97 0 -151 -56.5t-54 -156.5v-371z" />
    <glyph glyph-name="i.ord" horiz-adv-x="442" 
d="M336 1552h-230v199h230v-199zM106 1470h228v-770h-228v770z" />
    <glyph glyph-name="j.ord" horiz-adv-x="442" 
d="M336 1552h-230v199h230v-199zM-23 606q69 0 99 29.5t30 95.5v739h228v-741q0 -301 -334 -301q-99 0 -172 25l33 174q64 -21 116 -21z" />
    <glyph glyph-name="k.ord" horiz-adv-x="1009" 
d="M109 1751h227v-614l387 333h309l-389 -325l399 -445h-282l-279 310l-145 -123v-187h-227v1051z" />
    <glyph glyph-name="l.ord" horiz-adv-x="444" 
d="M109 1751h227v-1051h-227v1051z" />
    <glyph glyph-name="m.ord" horiz-adv-x="1626" 
d="M528 1286q-92 0 -142 -54.5t-50 -154.5v-377h-227v770h227v-92q98 107 266 107q86 0 157 -36t109 -99q123 135 316 135q160 0 250 -94.5t90 -260.5v-430h-228v379q0 100 -44.5 153.5t-129.5 53.5q-92 0 -142 -54.5t-50 -154.5v-377h-228v379q0 100 -44.5 153.5
t-129.5 53.5z" />
    <glyph glyph-name="n.ord" horiz-adv-x="1054" 
d="M336 700h-227v770h227v-94q106 109 280 109q154 0 246 -95t92 -253v-437h-227v373q0 101 -48 156t-138 55q-97 0 -151 -56.5t-54 -156.5v-371z" />
    <glyph glyph-name="o.ord" horiz-adv-x="1007" 
d="M504 1485q202 0 327 -113q130 -112 130 -289q0 -173 -130 -288q-128 -113 -327 -113q-200 0 -328 113q-129 114 -129 288q0 177 127 289q128 113 330 113zM504 1300q-105 0 -170.5 -59.5t-65.5 -157.5q0 -97 65.5 -156t170.5 -59t171 59.5t66 155.5q0 98 -66 157.5
t-171 59.5z" />
    <glyph glyph-name="p.ord" horiz-adv-x="1081" 
d="M1034 1083q0 -174 -114 -288q-113 -113 -302 -113q-87 0 -160.5 28t-121.5 78v-348h-227v1030h227v-88q45 48 120 75.5t162 27.5q189 0 302 -113q114 -114 114 -289zM573 1303q-106 0 -175.5 -62t-69.5 -156v-4q0 -94 69.5 -154.5t175.5 -60.5q105 0 173.5 60.5
t68.5 156.5q0 98 -68 159t-174 61z" />
    <glyph glyph-name="q.ord" horiz-adv-x="1081" 
d="M463 682q-185 0 -301 113q-115 115 -115 288q0 174 115 289q113 113 301 113q89 0 163 -27.5t119 -75.5v88h228v-1030h-228v348q-45 -50 -118.5 -78t-163.5 -28zM754 1081v4q0 94 -70 156t-174 62q-106 0 -174 -61t-68 -159q0 -97 67.5 -157t174.5 -60q105 0 174.5 61
t69.5 154z" />
    <glyph glyph-name="r.ord" horiz-adv-x="729" 
d="M623 1475q27 0 86 -9v-221q-57 10 -95 10q-278 0 -278 -239v-316h-227v770h227v-133q94 138 287 138z" />
    <glyph glyph-name="s.ord" horiz-adv-x="874" 
d="M432 682q-139 0 -256.5 40t-183.5 109l112 152q135 -129 342 -129q175 0 175 72q0 25 -23 37.5t-86 19.5q-56 11 -137 16q-203 27 -271 78q-69 51 -69 148q0 119 105.5 189.5t285.5 70.5q124 0 232 -35.5t171 -97.5l-120 -138q-112 103 -293 103q-158 0 -158 -68
q0 -25 25 -37q24 -9 194 -30q221 -27 295 -80q76 -52 76 -152q0 -124 -112.5 -196t-303.5 -72z" />
    <glyph glyph-name="t.ord" horiz-adv-x="780" 
d="M489 688q-150 0 -232.5 68.5t-82.5 195.5v332h-176v186h176v216h223v-216h322v-186h-322v-285q0 -61 35 -88.5t115 -27.5q74 0 166 32l41 -182q-123 -45 -265 -45z" />
    <glyph glyph-name="u.ord" horiz-adv-x="1046" 
d="M711 1470h225v-770h-225v93q-102 -111 -277 -111q-152 0 -242 94t-90 252v442h226v-397q0 -192 184 -192q94 0 146.5 53t52.5 151v385z" />
    <glyph glyph-name="v.ord" horiz-adv-x="978" 
d="M985 1470l-377 -770h-235l-377 770h250l250 -528l245 528h244z" />
    <glyph glyph-name="w.ord" horiz-adv-x="1374" 
d="M420 973l172 497h201l174 -497l178 497h235l-305 -770h-207l-182 494l-178 -494h-207l-305 770h242z" />
    <glyph glyph-name="x.ord" horiz-adv-x="999" 
d="M1004 700h-285l-219 244l-226 -244h-276l364 387l-352 383h283l207 -231l213 231h276l-350 -374z" />
    <glyph glyph-name="y.ord" horiz-adv-x="978" 
d="M983 1470l-391 -811q-61 -127 -141 -179t-211 -52q-43 0 -93 9.5t-77 21.5l36 180q66 -29 113 -29q107 0 141 88l9 23l-373 749h252l250 -530l245 530h240z" />
    <glyph glyph-name="z.ord" horiz-adv-x="964" 
d="M393 887h504v-187h-829v166l505 418h-499v186h819v-170z" />
    <glyph glyph-name="caron.Slovak" horiz-adv-x="1228" 
d="M625 1130h-195l51 340h314z" />
    <glyph glyph-name="commaturn" horiz-adv-x="1228" 
d="M651 1348h107v-174h-287v116q0 115 75.5 176.5t211.5 61.5v-115q-51 0 -76 -15t-31 -50z" />
    <glyph glyph-name="grave.cap" horiz-adv-x="1228" 
d="M670 1864l239 -310h-258l-389 310h408z" />
    <glyph glyph-name="acute.cap" horiz-adv-x="1228" 
d="M553 1554h-258l240 310h407z" />
    <glyph glyph-name="circumflex.cap" horiz-adv-x="1228" 
d="M455 1864h319l295 -310h-238l-217 138l-217 -138h-237z" />
    <glyph glyph-name="caron.cap" horiz-adv-x="1228" 
d="M1069 1864l-295 -310h-319l-295 310h237l217 -138l217 138h238z" />
    <glyph glyph-name="tilde.cap" horiz-adv-x="1228" 
d="M410 1890q58 0 107.5 -13t127.5 -52q92 -45 146 -45q35 0 55.5 25t32.5 85h190q-7 -155 -75 -245.5t-177 -90.5q-52 0 -103.5 14t-131.5 52q-92 47 -144 47q-37 0 -57 -26.5t-31 -86.5h-190q6 156 73 246t177 90z" />
    <glyph glyph-name="macron.cap" horiz-adv-x="1228" 
d="M1016 1794v-223h-803v223h803z" />
    <glyph glyph-name="breve.cap" horiz-adv-x="1228" 
d="M614 1739q87 0 143 35t56 90h211q0 -143 -111 -230.5t-299 -87.5t-298.5 87t-110.5 231h211q0 -55 55.5 -90t142.5 -35z" />
    <glyph glyph-name="dotaccent.cap" horiz-adv-x="1228" 
d="M768 1554h-307v271h307v-271z" />
    <glyph glyph-name="dieresis.cap" horiz-adv-x="1228" 
d="M502 1554h-295v271h295v-271zM1022 1554h-295v271h295v-271z" />
    <glyph glyph-name="ring.cap" horiz-adv-x="1228" 
d="M614 1548q-118 0 -197 77t-79 190q0 108 78 186q79 76 198 76q121 0 197 -76q80 -77 80 -186q0 -113 -79.5 -190t-197.5 -77zM614 1921q-45 0 -74.5 -29.5t-29.5 -76.5q0 -49 28.5 -78t75.5 -29q48 0 76.5 29t28.5 78q0 47 -30 76.5t-75 29.5z" />
    <glyph glyph-name="hungarumlaut.cap" horiz-adv-x="1228" 
d="M840 1554h-222l195 310h336zM358 1554h-221l180 310h351z" />
    <glyph glyph-name="guilsinglleft.cap" horiz-adv-x="610" 
d="M532 322l-454 278v266l454 279v-277l-208 -135l208 -135v-276z" />
    <glyph glyph-name="guilsinglright.cap" horiz-adv-x="610" 
d="M532 866v-266l-454 -278v276l209 135l-209 135v277z" />
    <glyph glyph-name="guillemotleft.cap" horiz-adv-x="1116" 
d="M532 322l-454 278v266l454 279v-277l-208 -135l208 -135v-276zM1038 322l-454 278v266l454 279v-277l-209 -135l209 -135v-276z" />
    <glyph glyph-name="guillemotright.cap" horiz-adv-x="1116" 
d="M532 866v-266l-454 -278v276l209 135l-209 135v277zM1038 866v-266l-454 -278v276l209 135l-209 135v277z" />
    <glyph glyph-name="slash.cap" horiz-adv-x="1146" 
d="M330 -125h-305l792 1712h305z" />
    <glyph glyph-name="backslash.cap" horiz-adv-x="1146" 
d="M1122 -125h-305l-792 1712h305z" />
    <glyph glyph-name="bar.cap" horiz-adv-x="552" 
d="M418 -125h-283v1712h283v-1712z" />
    <glyph glyph-name="periodcentered.cap" horiz-adv-x="499" 
d="M418 573h-336v332h336v-332z" />
    <glyph glyph-name="bullet.cap" horiz-adv-x="888" 
d="M76 731q0 160 104 264q107 107 266 107t263 -107q104 -104 104 -264q0 -159 -106 -262q-104 -104 -261 -104t-264 104q-106 103 -106 262z" />
    <glyph glyph-name="hyphen.cap" horiz-adv-x="753" 
d="M672 606h-590v256h590v-256z" />
    <glyph glyph-name="endash.cap" horiz-adv-x="1110" 
d="M1028 616h-946v234h946v-234z" />
    <glyph glyph-name="emdash.cap" horiz-adv-x="1998" 
d="M1917 616h-1835v234h1835v-234z" />
    <glyph glyph-name="parenleft.cap" horiz-adv-x="802" 
d="M340 700q0 -486 463 -856h-299q-219 142 -342 367q-123 228 -123 489q0 263 123 488q121 225 342 368h299q-463 -373 -463 -856z" />
    <glyph glyph-name="parenright.cap" horiz-adv-x="802" 
d="M463 700q0 483 -463 856h299q221 -143 342 -368q123 -225 123 -488q0 -261 -123 -489q-123 -225 -342 -367h-299q463 370 463 856z" />
    <glyph glyph-name="bracketleft.cap" horiz-adv-x="745" 
d="M725 1331h-367v-1263h367v-224h-643v1712h643v-225z" />
    <glyph glyph-name="bracketright.cap" horiz-adv-x="745" 
d="M387 68v1263h-367v225h644v-1712h-644v224h367z" />
    <glyph glyph-name="braceleft.cap" horiz-adv-x="864" 
d="M141 586h-100v229h100q113 0 113 154v233q0 168 103.5 261t291.5 93h195v-225h-146q-97 0 -141.5 -45t-44.5 -145v-183q0 -195 -147 -258q147 -63 147 -258v-182q0 -100 44.5 -145t141.5 -45h146v-226h-195q-188 0 -291.5 93.5t-103.5 261.5v233q0 154 -113 154z" />
    <glyph glyph-name="braceright.cap" horiz-adv-x="864" 
d="M823 815v-229h-100q-113 0 -113 -154v-233q0 -168 -103.5 -261.5t-291.5 -93.5h-195v226h146q97 0 141.5 45t44.5 145v182q0 194 148 258q-148 64 -148 258v183q0 100 -44.5 145t-141.5 45h-146v225h195q188 0 291.5 -93t103.5 -261v-233q0 -154 113 -154h100z" />
    <glyph glyph-name="at.cap" horiz-adv-x="2174" 
d="M1640 1112l-102 -520q-12 -62 10 -91.5t82 -29.5q115 0 193 96t78 248q0 241 -199 379q-195 137 -539 137q-398 0 -637 -190q-239 -187 -239 -496q0 -281 214 -436.5t601 -155.5q197 0 386 42t320 114l107 -180q-149 -91 -362.5 -141t-452.5 -50q-487 0 -770 215
t-283 592q0 207 92 383t264 299q308 215 760 215q436 0 699 -196q266 -193 266 -521q0 -251 -154 -405q-155 -155 -393 -152q-94 0 -169.5 31.5t-113.5 87.5q-49 -55 -139 -86t-196 -31q-196 0 -312 102t-116 273q0 206 147 344q147 141 371 141q206 0 311 -114l20 96h256z
M819 668q0 -86 56.5 -135.5t154.5 -49.5q116 0 194.5 72.5t78.5 177.5q0 86 -56.5 135.5t-154.5 49.5q-116 0 -194.5 -72.5t-78.5 -177.5z" />
    <glyph glyph-name="zero.dnom" horiz-adv-x="1044" 
d="M522 -12q-207 0 -340 118q-133 121 -133 304q0 181 133 299t340 118q208 0 338 -118q135 -117 135 -299q0 -184 -135 -304q-130 -118 -338 -118zM522 639q-109 0 -175 -63t-66 -166q0 -105 66.5 -169.5t174.5 -64.5q106 0 173 65t67 169q0 102 -67 165.5t-173 63.5z" />
    <glyph glyph-name="one.dnom" horiz-adv-x="763" 
d="M289 188v320h-262v168l123 4q91 1 135.5 33t56.5 102h174v-627h234v-188h-723v188h262z" />
    <glyph glyph-name="two.dnom" horiz-adv-x="909" 
d="M55 0v162l346 188q145 74 183 109q39 36 39 80q0 45 -42 73.5t-110 28.5q-90 0 -152.5 -49t-76.5 -129l-205 43q21 142 141 231q122 90 303 90q167 0 270 -74t103 -196q0 -91 -56.5 -158t-183.5 -127l-170 -86h428v-186h-817z" />
    <glyph glyph-name="three.dnom" horiz-adv-x="950" 
d="M915 233q0 -106 -120 -176q-117 -69 -316 -69q-171 0 -292.5 59t-178.5 170l199 90q31 -63 105.5 -101t166.5 -38q85 0 137 24t52 62q0 76 -181 76h-151v168h141q174 0 174 71q0 35 -46 55.5t-126 20.5q-87 0 -155.5 -34.5t-94.5 -90.5l-188 88q50 100 173 159.5
t282 59.5q182 0 291.5 -65.5t109.5 -171.5q0 -60 -38.5 -107t-104.5 -67q161 -49 161 -183z" />
    <glyph glyph-name="four.dnom" horiz-adv-x="964" 
d="M756 178v-178h-217v178h-516v166l444 471h289v-461h186v-176h-186zM539 635l-267 -281h267v281z" />
    <glyph glyph-name="five.dnom" horiz-adv-x="907" 
d="M449 387q-119 0 -201 -53l-197 28l60 453h708v-184h-536l-17 -123q89 47 226 47q177 0 281 -74.5t104 -201.5q0 -128 -121 -211q-121 -80 -305 -80q-166 0 -287 61.5t-164 167.5l205 80q29 -60 95.5 -94.5t152.5 -34.5q88 0 142 29.5t54 78.5q0 51 -54 81t-146 30z" />
    <glyph glyph-name="six.dnom" horiz-adv-x="1001" 
d="M549 827q276 0 399 -151l-139 -131q-42 51 -112 78.5t-152 27.5q-120 0 -198.5 -54t-78.5 -130q101 84 287 84q173 0 289 -78q112 -75 112 -194q0 -130 -123 -210.5t-321 -80.5q-213 0 -338 109t-125 294q0 197 137 316q138 120 363 120zM510 160q97 0 157 30.5t60 79.5
q0 51 -59.5 82t-159.5 31q-98 0 -157.5 -31t-59.5 -82t60 -80.5t159 -29.5z" />
    <glyph glyph-name="seven.dnom" horiz-adv-x="907" 
d="M635 631h-422v-152h-190v336h862v-197q-158 -129 -232.5 -279t-74.5 -339h-238q0 374 295 631z" />
    <glyph glyph-name="eight.dnom" horiz-adv-x="970" 
d="M80 588q0 109 111.5 174t293.5 65t294 -65t112 -174q0 -56 -30.5 -95.5t-96.5 -70.5q174 -59 174 -191q0 -114 -122 -178.5t-331 -64.5t-330.5 64.5t-121.5 178.5q0 131 176 191q-129 57 -129 166zM307 586q0 -38 46 -59t132 -21t133.5 21t47.5 59t-47 59t-134 21
q-178 0 -178 -80zM711 248q0 44 -60 68t-166 24t-164.5 -24t-58.5 -68q0 -45 57.5 -69.5t165.5 -24.5t167 25t59 69z" />
    <glyph glyph-name="nine.dnom" horiz-adv-x="1001" 
d="M453 -12q-134 0 -237 39.5t-163 113.5l140 129q89 -106 264 -106q117 0 195.5 53.5t78.5 128.5q-107 -80 -285 -80q-177 0 -290 76t-113 195q0 130 123 210t321 80q215 0 339 -108t124 -293q0 -201 -137 -320q-133 -118 -360 -118zM492 655q-98 0 -159 -30.5t-61 -79.5
q0 -51 61 -82t159 -31t158.5 31t60.5 82q0 49 -60.5 79.5t-158.5 30.5z" />
    <glyph glyph-name="colon.mid" horiz-adv-x="821" 
d="M580 225h-336v332h336v-332zM580 920h-336v331h336v-331z" />
    <glyph glyph-name="commaaboverightcmb" horiz-adv-x="0" 
d="M12 1130h-194l51 340h313z" />
    <glyph glyph-name="space.tab" horiz-adv-x="819" 
 />
    <glyph glyph-name="period.tab" horiz-adv-x="819" 
d="M580 0h-336v332h336v-332z" />
    <glyph glyph-name="comma.tab" horiz-adv-x="819" 
d="M385 0h-141v332h336v-326q0 -141 -90.5 -224t-245.5 -83v151q141 9 141 136v14z" />
    <glyph glyph-name="colon.tab" horiz-adv-x="819" 
d="M580 0h-336v332h336v-332zM580 694h-336v332h336v-332z" />
    <glyph glyph-name="semicolon.tab" horiz-adv-x="819" 
d="M385 0h-141v332h336v-326q0 -141 -90.5 -224t-245.5 -83v151q141 9 141 136v14zM580 694h-336v332h336v-332z" />
    <glyph glyph-name="florin.lt" horiz-adv-x="1636" 
d="M958 680l-45 -250q-82 -453 -532 -453q-118 0 -219 30t-168 85l123 211q113 -86 243 -86q207 0 254 227l43 236h-295v201h332l29 159q82 453 530 453q119 0 220.5 -30t168.5 -85l-124 -211q-106 86 -244 86q-211 0 -252 -227l-27 -145h322v-201h-359z" />
    <glyph glyph-name="Euro.lt" 
d="M188 483h-137v197h101q-2 14 -2 55q0 50 2 64h-101v194h139q76 229 271 365q194 135 450 135q250 0 425 -116.5t255 -336.5l-250 -120q-60 154 -170.5 233.5t-265.5 79.5q-142 0 -250.5 -62.5t-165.5 -177.5h543l-41 -194h-559v-31q-2 -16 -2 -33q0 -41 2 -55h533
l-39 -197h-441q57 -116 167.5 -180.5t252.5 -64.5q155 0 265.5 79.5t170.5 233.5l250 -121q-80 -220 -255 -336.5t-425 -116.5q-259 0 -454 136q-197 140 -269 370z" />
    <glyph glyph-name="dollar.lt" 
d="M-2 336l203 196q90 -112 226.5 -183.5t301.5 -94.5v379q-359 43 -496 133q-135 88 -135 260q0 187 170 307t461 135v211h240v-217q201 -20 364 -94.5t248 -183.5l-201 -187q-61 79 -167.5 134.5t-243.5 78.5v-346q382 -47 512 -137q135 -92 135 -266q0 -199 -168 -318
t-479 -139v-217h-240v217q-234 20 -438 111q-198 88 -293 221zM381 1053q0 -68 72 -103q64 -31 276 -59v334q-177 -6 -262.5 -48t-85.5 -124zM1323 430q0 78 -68 113q-64 35 -286 63v-356q171 10 262.5 57.5t91.5 122.5z" />
    <glyph glyph-name="cent.lt" 
d="M979 -211h-227v195q-250 30 -406 186t-156 383q0 225 156 381q158 158 406 188v219h227v-219q172 -23 303.5 -113.5t185.5 -220.5l-211 -122q-37 87 -108.5 144t-169.5 77v-670q99 23 172.5 82t105.5 143l209 -129q-54 -129 -184 -217.5t-303 -111.5v-195zM453 553
q0 -127 81 -217t218 -119v672q-137 -29 -218 -119t-81 -217z" />
    <glyph glyph-name="sterling.lt" 
d="M541 578h-326v204h186q-79 122 -79 252q0 196 170 328q171 131 434 131q272 0 430 -137q160 -136 160 -369q0 -75 -11 -123h-266q6 69 6 70q0 148 -83.5 226.5t-241.5 78.5q-139 0 -223.5 -67.5t-84.5 -178.5q0 -49 17 -95t63 -116h432v-204h-325q14 -43 14 -107
q0 -75 -18 -135q90 -54 155.5 -76t128.5 -22q113 0 184.5 65t77.5 174h267q3 -216 -138 -360q-140 -140 -354 -140q-105 0 -200.5 37.5t-215.5 128.5q-63 -80 -149 -123t-184 -43q-134 0 -219 74t-85 195q0 115 86 184.5t226 69.5q111 0 203 -43q-3 57 -37 121zM383 324
q-49 0 -78 -21.5t-29 -56.5t27.5 -54.5t77.5 -19.5q103 0 156 96q-85 56 -154 56z" />
    <glyph glyph-name="yen.lt" horiz-adv-x="1636" 
d="M674 360h-441v199h441v107l-12 14h-429v199h273l-467 591h373l411 -567l410 567h364l-467 -591h275v-199h-430l-12 -14v-107h442v-199h-442v-360h-289v360z" />
    <glyph glyph-name="zero.lt" 
d="M819 -23q-319 0 -532 216q-213 219 -213 542q0 325 213 541q211 217 532 217q322 0 533 -217q213 -216 213 -541q0 -323 -213 -542q-213 -216 -533 -216zM819 1229q-195 0 -317 -137q-121 -136 -121 -357q0 -219 121 -358q123 -135 317 -135q196 0 316 135
q120 138 120 358q0 222 -120 357q-119 137 -316 137z" />
    <glyph glyph-name="one.lt" 
d="M807 1479h229v-1227h520v-252h-1409v252h588v733h-579v229l356 13q146 6 214 64t81 188z" />
    <glyph glyph-name="two.lt" 
d="M115 0v240l682 372l166 93q39 22 86 55q82 57 117.5 111.5t35.5 121.5q0 109 -98 175.5t-258 66.5q-190 0 -319.5 -101.5t-161.5 -273.5l-275 70q49 254 258 407q208 156 512 156q286 0 463 -137q180 -134 180 -352q0 -155 -102 -275q-104 -122 -352 -252l-404 -217h895
v-260h-1425z" />
    <glyph glyph-name="three.lt" 
d="M1565 422q0 -191 -207 -318t-529 -127q-295 0 -505 119q-210 121 -277 320l270 116q51 -137 190 -220t322 -83q191 0 306.5 58.5t115.5 156.5q0 90 -101 138.5t-288 48.5h-254v246h248q171 0 260.5 45t89.5 131t-100 136t-268 50q-173 0 -304.5 -75.5t-175.5 -200.5
l-264 100q68 194 273 311q204 119 485 119q304 0 485 -117q183 -115 183 -301q0 -108 -76 -194t-201 -121q158 -38 240 -124t82 -214z" />
    <glyph glyph-name="four.lt" 
d="M1286 352v-352h-289v352h-938v234l834 884h397v-872h305v-246h-309zM993 1225l-585 -627h585v627z" />
    <glyph glyph-name="five.lt" 
d="M834 756q-269 0 -447 -127l-233 59l96 782h1223v-260h-996l-41 -309q80 47 200 73t255 25q300 -3 493 -143q191 -138 191 -360q0 -228 -207 -373q-208 -146 -524 -146q-304 0 -520 119q-216 121 -277 322l272 112q50 -136 193.5 -218.5t333.5 -82.5q184 0 307 72
q119 70 119 191q0 118 -120.5 191t-317.5 73z" />
    <glyph glyph-name="six.lt" 
d="M891 1493q217 0 391.5 -82.5t271.5 -230.5l-211 -183q-63 116 -186.5 182t-275.5 66q-225 0 -369 -129q-145 -130 -145 -319q85 94 220 145t302 51q293 0 481 -141q191 -138 191 -354q0 -227 -201 -375q-202 -146 -512 -146q-358 0 -561 197t-203 533q0 350 219 569
q220 217 588 217zM838 221q186 0 305 72q119 73 119 190t-117 191q-118 74 -303 74q-186 0 -307 -74q-117 -74 -117 -191q0 -118 115.5 -190t304.5 -72z" />
    <glyph glyph-name="seven.lt" 
d="M1260 1214h-926v-288h-258v544h1505v-268q-299 -274 -438 -567q-135 -285 -135 -635h-308q0 688 560 1214z" />
    <glyph glyph-name="eight.lt" 
d="M154 1079q0 190 182 301q180 113 483 113q304 0 484 -113q182 -111 182 -301q0 -109 -62.5 -183t-199.5 -128q163 -45 252.5 -137.5t89.5 -220.5q0 -203 -201 -318t-545 -115t-545 115q-200 114 -200 318q0 128 90 221.5t252 136.5q-137 54 -199.5 128t-62.5 183z
M449 1075q0 -92 95.5 -140t274.5 -48t275 48t96 140q0 91 -97 140t-274 49t-273.5 -49t-96.5 -140zM1260 432q0 104 -115 160.5t-326 56.5t-326.5 -56.5t-115.5 -160.5q0 -106 113.5 -162.5t328.5 -56.5q214 0 327.5 56.5t113.5 162.5z" />
    <glyph glyph-name="nine.lt" 
d="M748 -23q-216 0 -391.5 83t-272.5 231l211 182q63 -115 187 -181.5t276 -66.5q224 0 368 129q146 131 146 320q-85 -94 -220.5 -145.5t-301.5 -51.5q-292 0 -484 139q-188 141 -188 357q0 230 198 373q200 147 515 147q358 0 561 -197q202 -196 202 -532
q0 -351 -221 -569q-218 -218 -585 -218zM801 1249q-188 0 -307 -73q-117 -70 -117 -189q0 -117 117 -190q118 -74 303 -74q187 0 305 74q119 73 119 190q0 118 -115.5 190t-304.5 72z" />
    <glyph glyph-name="percent.lt" 
d="M399 768q-159 0 -264 102q-102 102 -102 260q0 159 102 261q105 102 264 102q158 0 260 -102q105 -102 105 -261q0 -158 -105 -260q-102 -102 -260 -102zM416 0h-250l1057 1470h250zM399 948q69 0 112.5 50.5t43.5 131.5q0 82 -43.5 132.5t-112.5 50.5t-112 -50.5
t-43 -132.5q0 -84 42.5 -133t112.5 -49zM1229 702q158 0 260 -102q104 -101 104 -260t-104 -260q-103 -103 -260 -103q-156 0 -262 103q-105 102 -105 260t105 260t262 102zM1229 522q-69 0 -112.5 -50.5t-43.5 -131.5t43.5 -131.5t112.5 -50.5t112 50t43 132t-43 132
t-112 50z" />
    <glyph glyph-name="baht.lt" 
d="M694 0h-571v1470h571v209h240v-209h96q240 0 369 -101t129 -290q0 -108 -56 -190t-157 -125q119 -42 188.5 -135t69.5 -217q0 -191 -135.5 -301.5t-370.5 -110.5h-133v-213h-240v213zM397 1223v-353h297v353h-297zM1257 1047q0 86 -62 131t-181 45h-80v-353h80
q118 0 180.5 45.5t62.5 131.5zM694 631h-297v-383h297v383zM1298 440q0 86 -65 138.5t-174 52.5h-125v-383h125q110 0 174.5 52t64.5 140z" />
    <glyph glyph-name="dong.lt" 
d="M1053 172v102q-56 -56 -150.5 -88t-206.5 -32q-240 0 -383 125q-145 127 -145 323q0 197 145 324t383 127q115 0 209 -32t148 -89v201h-330v215h330v122h258v-122h209v-215h-209v-961h-258zM1057 598v12q0 101 -92 166q-92 68 -228 68t-221.5 -66.5t-85.5 -175.5
q0 -108 85.5 -174t221.5 -66t228 68t92 168zM1311 -215h-1127v215h1127v-215z" />
    <glyph glyph-name="franc.lt" 
d="M262 291h-196v229h196v950h1288v-256h-991v-317h875v-256h-875v-121h363v-229h-363v-291h-297v291z" />
    <glyph glyph-name="naira.lt" 
d="M211 477h-188v199h188v119h-188v198h188v477h309l615 -960v960h292v-477h189v-198h-189v-119h189v-199h-189v-477h-266l-657 1024v-1024h-293v477z" />
    <glyph glyph-name="peseta.lt" 
d="M850 381h-342v-381h-301v813h-191v225h191v432h643q257 0 413 -111.5t191 -320.5h164v-225h-164q-35 -207 -192.5 -319.5t-411.5 -112.5zM834 1219h-326v-181h639q-31 88 -110.5 134.5t-202.5 46.5zM508 813v-182h326q123 0 203.5 47t109.5 135h-639z" />
    <glyph glyph-name="peso.lt" 
d="M823 395h-319v-395h-301v666h-185v198h185v121h-185v199h185v286h620q208 0 352 -73.5t207 -212.5h236v-199h-186q2 -10 2 -51q0 -7 -0.5 -15.5t-1.5 -23.5t-2 -31h188v-198h-244q-69 -131 -211 -201t-340 -70zM504 1219v-570h303q158 0 244 75t86 210t-86 210t-244 75
h-303z" />
    <glyph glyph-name="uni20BD.lt" 
d="M233 229h-194v248h194v121h-190l2 248h188v624h859q242 0 379 -115t137 -321q0 -204 -138 -320t-378 -116h-557v-121h448v-248h-448v-229h-302v229zM1075 1223h-540v-377h540q110 0 173 50t63 138q0 91 -61.5 140t-174.5 49z" />
    <glyph glyph-name="uni20B9.lt" 
d="M629 506h-570v242h637q196 0 258 120h-895v242h895q-67 119 -258 119h-637v241h1495v-241h-364q47 -50 63 -119h301v-242h-294q-25 -118 -105.5 -203t-208.5 -126l371 -539h-346z" />
    <glyph glyph-name="uni20BA.lt" 
d="M319 295l-258 -145v235l258 145v127l-253 -143v234l253 143v579h304v-407l411 233v-235l-411 -232v-127l411 232v-236l-411 -231v-207h247q220 0 321 115.5t101 367.5h303q-1 -369 -183.5 -556t-539.5 -187h-553v295z" />
    <glyph glyph-name="won.lt" 
d="M279 477h-252v199h209l-25 119h-184v198h141l-100 477h286l189 -938l172 762h213l176 -768l188 944h279l-101 -477h142v-198h-185l-24 -119h209v-199h-252l-100 -477h-240l-199 881l-200 -881h-242z" />
    <glyph glyph-name="zero.slash" horiz-adv-x="1777" 
d="M1731 735q0 -325 -240 -542q-242 -216 -602 -216t-602 216q-240 215 -240 542q0 329 240 543q241 215 602 215q363 0 602 -217q240 -215 240 -541zM891 1241q-244 0 -397 -141q-154 -142 -154 -369q0 -126 45 -225l844 645q-140 90 -338 90zM885 229q243 0 397 142
t154 368q0 127 -45 226l-844 -646q142 -90 338 -90z" />
    <glyph glyph-name="zero.slash.lt" 
d="M1565 735q0 -326 -213 -542t-533 -216q-321 0 -534 216q-211 214 -211 542q0 329 211 543q212 215 534 215q321 0 533 -215q213 -216 213 -543zM819 1245q-201 0 -327 -141q-127 -142 -127 -369q0 -115 34 -213l701 627q-122 96 -281 96zM819 225q199 0 326 142t127 368
q0 113 -35 213l-700 -624q114 -99 282 -99z" />
    <glyph glyph-name="arrowNW" horiz-adv-x="1630" 
d="M573 1214l1047 -1046l-188 -191l-1049 1049v-567h-256v1011h1012v-256h-566z" />
    <glyph glyph-name="arrowNE" horiz-adv-x="1630" 
d="M1503 459h-256v567l-1048 -1049l-189 191l1047 1046h-565v256h1011v-1011z" />
    <glyph glyph-name="arrowSE" horiz-adv-x="1630" 
d="M1247 1012h256v-1012h-1011v256h565l-1047 1047l189 190l1048 -1049v568z" />
    <glyph glyph-name="arrowSW" horiz-adv-x="1630" 
d="M573 256h566v-256h-1012v1012h256v-568l1049 1049l188 -190z" />
    <glyph glyph-name="arrowupdown" horiz-adv-x="1531" 
d="M1352 440l170 -200l-756 -627l-756 627l170 200l453 -379v1022l-449 -381l-170 201l752 631l752 -631l-170 -201l-449 381v-1020z" />
    <glyph glyph-name="arrowleftright" horiz-adv-x="2039" 
d="M1403 1456l627 -715l-627 -714l-195 182l357 401h-1090l356 -401l-194 -182l-627 714l627 715l194 -182l-356 -402h1090l-357 402z" />
    </font>
</defs>
</svg>
