<?xml version="1.0" standalone="no"?>
<!DOCTYPE svg PUBLIC "-//W3C//DTD SVG 1.1//EN" "http://www.w3.org/Graphics/SVG/1.1/DTD/svg11.dtd" >
<svg xmlns="http://www.w3.org/2000/svg" xmlns:xlink="http://www.w3.org/1999/xlink" version="1.1">
<metadata>
Created by FontForge 20201107 at Fri Jul 12 23:26:02 2024
 By 
Copyright 2020, Kris Sowersby, Klim Type Foundry.
</metadata>
<defs>
<font id="SohneBreit-Buch" horiz-adv-x="1638" >
  <font-face 
    font-family="Sohne Breit Buch"
    font-weight="400"
    font-stretch="expanded"
    units-per-em="2048"
    panose-1="2 11 5 5 3 2 2 6 2 3"
    ascent="1638"
    descent="-410"
    x-height="1071"
    cap-height="1470"
    bbox="-537 -403 2761 2017"
    underline-thickness="153"
    underline-position="-384"
    unicode-range="U+000D-FB04"
  />
<missing-glyph horiz-adv-x="1228" 
d="M0 0v1470h1229v-1470h-1229zM270 496l105 -105l239 240l242 -240l102 105l-237 241l237 240l-102 104l-242 -239l-239 239l-105 -104l240 -240z" />
    <glyph glyph-name="ff" unicode="ff" horiz-adv-x="1658" 
d="M248 1071v23q0 192 115.5 295.5t330.5 103.5q144 0 232 -37l-33 -162q-91 29 -199 29q-137 0 -201.5 -56t-64.5 -177v-19h590v21q0 192 117.5 296.5t332.5 104.5q148 0 230 -37l-31 -162q-93 29 -199 29q-139 0 -204.5 -57t-65.5 -179v-16h444v-158h-444v-913h-180v913
h-590v-913h-180v913h-260v158h260z" />
    <glyph glyph-name="fi" unicode="fi" horiz-adv-x="1361" 
d="M248 1071v23q0 192 115.5 295.5t330.5 103.5q104 0 207 -29l-37 -161q-81 20 -170 20q-137 0 -201.5 -56t-64.5 -177v-19h424v-158h-424v-913h-180v913h-260v158h260zM1210 1257h-200v213h200v-213zM1018 1071h184v-1071h-184v1071z" />
    <glyph glyph-name="fl" unicode="fl" horiz-adv-x="1361" 
d="M248 1071v23q0 192 115.5 295.5t330.5 103.5q104 0 207 -29l-37 -161q-81 20 -170 20q-137 0 -201.5 -56t-64.5 -177v-19h424v-158h-424v-913h-180v913h-260v158h260zM1018 1470h184v-1470h-184v1470z" />
    <glyph glyph-name="ffi" unicode="ffi" horiz-adv-x="2105" 
d="M248 1071v23q0 192 115.5 295.5t330.5 103.5q144 0 232 -37l-33 -162q-91 29 -199 29q-137 0 -201.5 -56t-64.5 -177v-19h590v23q0 192 115.5 295.5t330.5 103.5q104 0 207 -29l-37 -161q-81 20 -170 20q-137 0 -201.5 -56t-64.5 -177v-19h424v-158h-424v-913h-180v913
h-590v-913h-180v913h-260v158h260zM1980 1257h-200v213h200v-213zM1788 1071h184v-1071h-184v1071z" />
    <glyph glyph-name="ffl" unicode="ffl" horiz-adv-x="2105" 
d="M248 1071v23q0 192 115.5 295.5t330.5 103.5q144 0 232 -37l-33 -162q-91 29 -199 29q-137 0 -201.5 -56t-64.5 -177v-19h590v23q0 192 115.5 295.5t330.5 103.5q104 0 207 -29l-37 -161q-81 20 -170 20q-137 0 -201.5 -56t-64.5 -177v-19h424v-158h-424v-913h-180v913
h-590v-913h-180v913h-260v158h260zM1788 1470h184v-1470h-184v1470z" />
    <glyph glyph-name="f_b" unicode="fb" horiz-adv-x="2297" 
d="M694 1493q104 0 207 -29l-37 -161q-81 20 -170 20q-137 0 -201.5 -56t-64.5 -177v-19h424v-158h-424v-913h-180v913h-260v158h260v23q0 192 115.5 295.5t330.5 103.5zM1653 -23q-145 0 -264 56t-187 155v-188h-184v1470h184v-587q68 98 187 153.5t264 55.5
q256 0 422 -158q163 -156 163 -399q0 -244 -163 -400q-166 -158 -422 -158zM1630 936q-184 0 -309 -113q-127 -112 -127 -280v-15q0 -167 127 -282q126 -111 309 -111q189 0 309 111q123 111 123 289q0 177 -123 288q-119 113 -309 113z" />
    <glyph glyph-name="f_h" unicode="fh" horiz-adv-x="2209" 
d="M694 1493q104 0 207 -29l-37 -161q-81 20 -170 20q-137 0 -201.5 -56t-64.5 -177v-19h424v-158h-424v-913h-180v913h-260v158h260v23q0 192 115.5 295.5t330.5 103.5zM1202 0h-184v1470h184v-587q66 99 177 154t245 55q215 0 339 -134t124 -362v-596h-186v567
q0 166 -86.5 260.5t-241.5 94.5q-163 0 -268 -105q-103 -103 -103 -270v-547z" />
    <glyph glyph-name="f_idieresis" unicode="f&#xef;" horiz-adv-x="1325" 
d="M698 1493q148 0 230 -37l-31 -162q-93 29 -199 29q-139 0 -204.5 -57t-65.5 -179v-16h444v-158h-444v-913h-180v913h-260v158h260v21q0 192 117.5 296.5t332.5 104.5zM1434 1249h-203v213h203v-213zM1008 1071h184v-1071h-184v1071z" />
    <glyph glyph-name="f_j" unicode="fj" horiz-adv-x="1335" 
d="M694 1493q104 0 207 -29l-37 -161q-81 20 -170 20q-137 0 -201.5 -56t-64.5 -177v-19h424v-158h-424v-913h-180v913h-260v158h260v23q0 192 115.5 295.5t330.5 103.5zM1210 1257h-200v213h200v-213zM1202 1071v-1083q0 -180 -102.5 -275.5t-294.5 -95.5q-106 0 -205 35
l31 155q80 -28 166 -28q117 0 169 48.5t52 154.5v1089h184z" />
    <glyph glyph-name="f_k" unicode="fk" horiz-adv-x="2166" 
d="M694 1493q104 0 207 -29l-37 -161q-81 20 -170 20q-137 0 -201.5 -56t-64.5 -177v-19h424v-158h-424v-913h-180v913h-260v158h260v23q0 192 115.5 295.5t330.5 103.5zM1018 1470h184v-972l699 573h262l-568 -457l598 -614h-237l-494 506l-260 -211v-295h-184v1470z" />
    <glyph glyph-name=".notdef" horiz-adv-x="1228" 
d="M0 0v1470h1229v-1470h-1229zM270 496l105 -105l239 240l242 -240l102 105l-237 241l237 240l-102 104l-242 -239l-239 239l-105 -104l240 -240z" />
    <glyph glyph-name=".null" horiz-adv-x="0" 
 />
    <glyph glyph-name="nonmarkingreturn" horiz-adv-x="682" 
 />
    <glyph glyph-name="NULL" horiz-adv-x="0" 
 />
    <glyph glyph-name="NULL" horiz-adv-x="0" 
 />
    <glyph glyph-name="CR" unicode="&#xd;" horiz-adv-x="509" 
 />
    <glyph glyph-name="space" unicode=" " horiz-adv-x="509" 
 />
    <glyph glyph-name="exclam" unicode="!" horiz-adv-x="561" 
d="M350 436h-139l-45 1034h231zM397 0h-233v242h233v-242z" />
    <glyph glyph-name="quotedbl" unicode="&#x22;" horiz-adv-x="675" 
d="M244 913h-129l-45 557h217zM561 913h-129l-45 557h217z" />
    <glyph glyph-name="numbersign" unicode="#" horiz-adv-x="1538" 
d="M385 0h-168l117 424h-277v149h320l88 324h-326v150h369l117 423h170l-119 -423h385l119 423h168l-117 -423h250v-150h-293l-88 -324h301v-149h-344l-117 -424h-172l119 424h-383zM635 897l-90 -324h383l92 324h-385z" />
    <glyph glyph-name="dollar" unicode="$" horiz-adv-x="1605" 
d="M12 371l148 118q79 -134 231 -217t346 -102v508q-365 37 -499 121q-129 83 -129 252q0 181 172 295q177 115 456 124v207h162v-213q214 -19 376.5 -98.5t240.5 -204.5l-146 -114q-61 102 -183 166t-288 83v-465q296 -32 420 -75q122 -42 178.5 -118.5t56.5 -195.5
q0 -191 -176 -311q-176 -117 -479 -129v-211h-162v211q-245 18 -444 115q-193 99 -281 254zM295 1061q0 -94 86 -141q89 -45 356 -72v457q-211 -5 -326.5 -68.5t-115.5 -175.5zM1362 428q0 110 -88 156q-89 48 -375 78v-494q216 7 339.5 77t123.5 183z" />
    <glyph glyph-name="percent" unicode="%" horiz-adv-x="1865" 
d="M453 752q-178 0 -291 104q-115 106 -115 266q0 161 115 267q113 104 291 104q177 0 290 -104q115 -106 115 -267q0 -160 -115 -266q-113 -104 -290 -104zM1448 1470h184l-1214 -1470h-182zM453 1356q-109 0 -177.5 -65t-68.5 -169t68.5 -169.5t177.5 -65.5t177 65.5
t68 169.5t-68 169t-177 65zM1413 719q175 0 289 -105q115 -106 115 -266t-115 -266q-114 -105 -289 -105q-179 0 -293 105q-112 103 -112 266t112 266q114 105 293 105zM1413 584q-109 0 -178.5 -66t-69.5 -170q0 -103 69.5 -168t178.5 -65t177.5 65t68.5 168
q0 104 -68.5 170t-177.5 66z" />
    <glyph glyph-name="ampersand" unicode="&#x26;" horiz-adv-x="1767" 
d="M1503 799l183 -33q-64 -279 -283 -494q98 -63 178.5 -87.5t175.5 -20.5v-166q-125 -8 -242.5 31t-250.5 133q-275 -185 -621 -185q-280 0 -448 119t-168 316q0 152 108 261t299 152q-121 133 -121 287q0 163 127 272t334 109t329 -100t122 -263q0 -141 -115 -247
t-307 -144l452 -358l5 -2q181 169 243 420zM772 1343q-126 0 -201 -61t-75 -160q0 -73 35 -131.5t122 -130.5q189 17 290 85.5t101 180.5q0 99 -73 158t-199 59zM223 426q0 -128 121 -205q119 -76 315 -76q248 0 457 125q-9 9 -10 9l-535 428q-168 -20 -258 -93t-90 -188z
" />
    <glyph glyph-name="quotesingle" unicode="'" horiz-adv-x="358" 
d="M244 913h-129l-45 557h217z" />
    <glyph glyph-name="parenleft" unicode="(" horiz-adv-x="765" 
d="M281 655q0 -248 119 -465.5t352 -390.5h-199q-220 143 -346 369q-123 225 -123 487q0 263 123 488q125 224 346 368h199q-471 -357 -471 -856z" />
    <glyph glyph-name="parenright" unicode=")" horiz-adv-x="765" 
d="M485 655q0 499 -471 856h199q222 -145 344 -368q125 -223 125 -488q0 -264 -125 -487q-123 -224 -344 -369h-199q233 173 352 390.5t119 465.5z" />
    <glyph glyph-name="asterisk" unicode="*" horiz-adv-x="884" 
d="M737 821l-114 -82l-181 248l-182 -248l-113 82l181 248l-293 96l43 133l293 -94v307h141v-307l295 94l41 -133l-293 -96z" />
    <glyph glyph-name="plus" unicode="+" 
d="M1520 803v-164h-619v-616h-164v616h-618v164h618v618h164v-618h619z" />
    <glyph glyph-name="comma" unicode="," horiz-adv-x="425" 
d="M203 0h-107v242h234v-254q0 -118 -71 -186.5t-196 -73.5v106q140 9 140 150v16z" />
    <glyph glyph-name="hyphen" unicode="-" horiz-adv-x="753" 
d="M657 508h-561v166h561v-166z" />
    <glyph glyph-name="period" unicode="." horiz-adv-x="425" 
d="M330 0h-234v242h234v-242z" />
    <glyph glyph-name="slash" unicode="/" horiz-adv-x="1030" 
d="M215 -201h-195l795 1712h195z" />
    <glyph glyph-name="zero" unicode="0" horiz-adv-x="1765" 
d="M883 -23q-353 0 -592 216q-236 214 -236 542q0 329 236 543q238 215 592 215t592 -215q235 -213 235 -543q0 -329 -235 -542q-239 -216 -592 -216zM883 1317q-281 0 -455 -162t-174 -420t174 -420q173 -161 455 -161q279 0 452 161q174 162 174 420t-174 420t-452 162z
" />
    <glyph glyph-name="one" unicode="1" horiz-adv-x="894" 
d="M586 1479h147v-1479h-196v1077h-519v148l304 12q139 6 196 58.5t68 183.5z" />
    <glyph glyph-name="two" unicode="2" horiz-adv-x="1505" 
d="M57 0v162l674 377q121 65 223 127q19 11 88 55q101 73 144 139.5t43 151.5q0 138 -125 223q-122 88 -313 88q-220 0 -377 -115q-153 -114 -187 -301l-178 54q50 241 252 385q203 147 498 147q273 0 448 -135q176 -132 176 -344q0 -154 -106 -275q-112 -125 -447 -309
l-473 -258h1069v-172h-1409z" />
    <glyph glyph-name="three" unicode="3" horiz-adv-x="1554" 
d="M1516 422q0 -194 -203 -320q-198 -125 -516 -125q-295 0 -510 123q-215 125 -273 324l176 76q47 -157 216 -256q170 -99 389 -99q239 0 380.5 78t141.5 211q0 120 -120 184t-339 64h-297v166h293q196 0 301 57.5t105 165.5q0 117 -123 185.5t-330 68.5q-216 0 -365 -88
q-149 -85 -196 -236l-174 60q56 194 254 313t485 119q297 0 471 -113q178 -111 178 -295q0 -118 -74.5 -200t-209.5 -113q166 -32 253 -121.5t87 -228.5z" />
    <glyph glyph-name="four" unicode="4" horiz-adv-x="1656" 
d="M1221 383v-383h-189v383h-1012v154l943 933h258v-923h415v-164h-415zM1032 1311l-778 -764h778v764z" />
    <glyph glyph-name="five" unicode="5" horiz-adv-x="1554" 
d="M780 823q-145 0 -276 -42t-225 -117l-148 51l92 755h1176v-172h-1028l-58 -442q93 62 225.5 97.5t274.5 35.5q309 0 504 -139q194 -138 194 -363t-204 -368q-204 -142 -523 -142q-292 0 -503 123q-210 125 -269 332l172 76q56 -170 215.5 -266.5t386.5 -96.5
q235 0 381 93t146 247t-148 246q-145 92 -385 92z" />
    <glyph glyph-name="six" unicode="6" horiz-adv-x="1652" 
d="M887 1493q243 0 432 -92q186 -91 270 -252l-147 -117q-59 134 -209 213q-151 80 -352 80q-278 0 -461 -162q-182 -159 -182 -407q0 -39 2 -49q78 134 244 207t393 73q319 0 522 -141q205 -138 205 -359t-213 -366q-211 -144 -535 -144q-382 0 -592 195q-209 197 -209 545
q0 344 232 559q230 217 600 217zM850 145q244 0 401 95q158 96 158 243q0 149 -156 244q-155 94 -401 94t-401 -94q-156 -95 -156 -244q0 -150 154 -245q159 -93 401 -93z" />
    <glyph glyph-name="seven" unicode="7" horiz-adv-x="1480" 
d="M1251 1300h-1058v-313h-173v483h1440v-174q-321 -306 -465 -616q-143 -308 -143 -680h-199q0 741 598 1300z" />
    <glyph glyph-name="eight" unicode="8" horiz-adv-x="1628" 
d="M145 1100q0 177 183 286q180 107 485 107t485 -107q185 -108 185 -286q0 -113 -76.5 -192t-237.5 -130q207 -44 314.5 -138.5t107.5 -233.5q0 -200 -211 -314q-205 -112 -567 -112q-361 0 -569 112q-209 114 -209 314q0 139 107.5 233.5t316.5 138.5q-161 51 -237.5 130
t-76.5 192zM338 1094q0 -115 125.5 -177.5t349.5 -62.5q226 0 350.5 62.5t124.5 177.5q0 112 -126 174.5t-349 62.5q-222 0 -348.5 -62.5t-126.5 -174.5zM1395 420q0 129 -155 201.5t-427 72.5q-271 0 -425.5 -72.5t-154.5 -201.5q0 -133 154 -207t426 -74q276 0 429 74
t153 207z" />
    <glyph glyph-name="nine" unicode="9" horiz-adv-x="1652" 
d="M766 -23q-241 0 -432 93q-188 92 -271 252l148 116q59 -134 209 -213q151 -80 352 -80q276 0 459 160q184 163 184 410q0 39 -2 49q-78 -134 -244 -207.5t-393 -73.5q-316 0 -524 140q-203 141 -203 360q0 221 211 365q213 145 537 145q383 0 592 -197q208 -193 208 -542
q0 -344 -231 -561q-233 -216 -600 -216zM803 1325q-249 0 -404 -94t-155 -244t155 -244t402 -94q246 0 401 94q156 95 156 244q0 153 -156 244q-152 94 -399 94z" />
    <glyph glyph-name="colon" unicode=":" horiz-adv-x="425" 
d="M330 0h-234v242h234v-242zM330 745h-234v242h234v-242z" />
    <glyph glyph-name="semicolon" unicode=";" horiz-adv-x="425" 
d="M203 0h-107v242h234v-254q0 -118 -71 -186.5t-196 -73.5v106q140 9 140 150v16zM330 745h-234v242h234v-242z" />
    <glyph glyph-name="less" unicode="&#x3c;" 
d="M1493 47l-1348 561v230l1348 561v-199l-1184 -477l1184 -477v-199z" />
    <glyph glyph-name="equal" unicode="=" 
d="M1503 881h-1368v161h1368v-161zM1503 397h-1368v164h1368v-164z" />
    <glyph glyph-name="greater" unicode="&#x3e;" 
d="M1493 838v-230l-1348 -561v199l1184 477l-1184 477v199z" />
    <glyph glyph-name="question" unicode="?" horiz-adv-x="1376" 
d="M1141 1044q0 134 -116 207.5t-327 73.5q-202 0 -335 -84t-158 -227l-191 30q35 203 222 326q188 123 471 123t460 -121q174 -119 174 -319q0 -176 -150 -291t-411 -141v-185h-180v326q262 0 401.5 72.5t139.5 209.5zM815 0h-233v242h233v-242z" />
    <glyph glyph-name="at" unicode="@" horiz-adv-x="2166" 
d="M1604 922l-97 -551q-12 -72 19 -110t104 -38q129 0 221 109q93 110 93 274q0 266 -218 422q-217 158 -577 158q-410 0 -664 -205t-254 -522q0 -301 234 -473q236 -172 643 -172q202 0 387 41.5t313 115.5l72 -125q-143 -86 -343 -133t-427 -47q-479 0 -760 213
q-280 212 -280 580q0 196 89 365.5t255 291.5q291 213 731 213q425 0 688 -199q264 -197 264 -518q0 -236 -141 -383q-139 -145 -352 -145q-92 0 -160 39.5t-94 107.5q-50 -71 -149 -112t-216 -41q-196 0 -315 104q-119 107 -119 279q0 201 145 340q148 139 363 139
q115 0 209.5 -46t144.5 -124l25 152h166zM735 473q0 -113 76 -180.5t203 -67.5q150 0 246 90q98 91 98 230q0 110 -77.5 179t-201.5 69q-145 0 -245 -95q-99 -92 -99 -225z" />
    <glyph glyph-name="A" unicode="A" horiz-adv-x="1742" 
d="M-10 0l774 1470h215l772 -1470h-209l-213 408h-915l-215 -408h-209zM1239 580l-367 698l-368 -698h735z" />
    <glyph glyph-name="B" unicode="B" horiz-adv-x="1669" 
d="M1122 0h-972v1470h929q233 0 360.5 -100t127.5 -283q0 -116 -63 -199t-177 -122q134 -37 211.5 -132t77.5 -228q0 -188 -133 -297t-361 -109zM338 1305v-465h725q154 0 235.5 59.5t81.5 171.5q0 113 -82 173.5t-235 60.5h-725zM1114 672h-776v-506h776q143 0 228 68.5
t85 185.5q0 115 -85 183.5t-228 68.5z" />
    <glyph glyph-name="C" unicode="C" horiz-adv-x="1703" 
d="M915 1317q-289 0 -477 -164q-184 -163 -184 -418q0 -257 184 -420q185 -161 477 -161q220 0 375.5 100.5t222.5 286.5l164 -86q-82 -224 -284.5 -351t-479.5 -127q-369 0 -614 216q-244 215 -244 542q0 328 244 543t614 215q277 0 479.5 -127t284.5 -350l-164 -86
q-67 186 -222.5 286.5t-375.5 100.5z" />
    <glyph glyph-name="D" unicode="D" horiz-adv-x="1753" 
d="M877 0h-727v1470h727q370 0 596 -200q225 -200 225 -535t-225 -534q-227 -201 -596 -201zM342 1300v-1130h535q281 0 452 154q170 153 170 411q0 259 -170 412q-169 153 -455 153h-532z" />
    <glyph glyph-name="E" unicode="E" horiz-adv-x="1591" 
d="M150 0v1470h1363v-172h-1171v-452h1055v-172h-1055v-502h1171v-172h-1363z" />
    <glyph glyph-name="F" unicode="F" horiz-adv-x="1540" 
d="M342 653v-653h-192v1470h1343v-172h-1151v-473h1034v-172h-1034z" />
    <glyph glyph-name="G" unicode="G" horiz-adv-x="1810" 
d="M1698 0h-185v256q-69 -123 -235 -201q-160 -75 -369 -78q-367 0 -612 213q-242 214 -242 547q0 331 244 543q245 213 619 213q277 0 481 -127q204 -125 284 -348l-165 -88q-68 186 -223.5 286.5t-376.5 100.5q-295 0 -478 -162q-184 -159 -184 -418q0 -258 182 -422
q179 -161 471 -161q258 0 432 125q177 127 183 313h-721v172h895v-764z" />
    <glyph glyph-name="H" unicode="H" horiz-adv-x="1800" 
d="M1456 846v624h195v-1470h-195v674h-1110v-674h-196v1470h196v-624h1110z" />
    <glyph glyph-name="I" unicode="I" horiz-adv-x="495" 
d="M150 1470h196v-1470h-196v1470z" />
    <glyph glyph-name="J" unicode="J" horiz-adv-x="1423" 
d="M659 -23q-239 0 -428 121q-181 121 -241 318l182 92q40 -158 174 -258q131 -98 313 -98q216 0 340.5 110.5t124.5 304.5v903h197v-909q0 -259 -184 -422q-180 -162 -478 -162z" />
    <glyph glyph-name="K" unicode="K" horiz-adv-x="1642" 
d="M150 1470h196v-788l981 788h283l-805 -632l862 -838h-266l-742 723l-313 -246v-477h-196v1470z" />
    <glyph glyph-name="L" unicode="L" horiz-adv-x="1501" 
d="M1462 0h-1312v1470h196v-1298h1116v-172z" />
    <glyph glyph-name="M" unicode="M" horiz-adv-x="2115" 
d="M1776 1292l-635 -1292h-164l-637 1292v-1292h-190v1470h305l606 -1237l608 1237h297v-1470h-190v1292z" />
    <glyph glyph-name="N" unicode="N" horiz-adv-x="1773" 
d="M1436 1470h188v-1470h-174l-1112 1231v-1231h-188v1470h208l1078 -1189v1189z" />
    <glyph glyph-name="O" unicode="O" horiz-adv-x="1818" 
d="M909 -23q-367 0 -612 213q-242 214 -242 545q0 332 242 543q244 215 612 215q369 0 613 -215q241 -210 241 -543q0 -332 -241 -545q-245 -213 -613 -213zM909 154q292 0 471 161q183 165 183 420t-183 420q-180 162 -471 162q-293 0 -473 -162q-182 -164 -182 -420
t182 -420q179 -161 473 -161z" />
    <glyph glyph-name="P" unicode="P" horiz-adv-x="1599" 
d="M1047 616h-701v-616h-196v1470h897q245 0 382.5 -112.5t137.5 -313.5q0 -200 -139 -314t-381 -114zM346 1300v-514h690q160 0 248 67.5t88 190.5t-88 189.5t-248 66.5h-690z" />
    <glyph glyph-name="Q" unicode="Q" horiz-adv-x="1818" 
d="M909 -23q-367 0 -612 213q-242 214 -242 545q0 332 242 543q244 215 612 215q369 0 613 -215q241 -210 241 -543q0 -215 -111.5 -389.5t-308.5 -271.5q55 -54 136.5 -94.5t169.5 -59.5l-111 -141q-107 25 -209.5 89.5t-157.5 141.5q-115 -33 -262 -33zM909 154
q292 0 471 161q183 165 183 420t-183 420q-180 162 -471 162q-293 0 -473 -162q-182 -164 -182 -420t182 -420q179 -161 473 -161z" />
    <glyph glyph-name="R" unicode="R" horiz-adv-x="1640" 
d="M981 616h-635v-616h-196v1470h919q242 0 381 -113t139 -313q0 -170 -103 -279t-290 -138l424 -627h-225zM346 1300v-514h713q160 0 249 67.5t89 190.5q0 121 -89 188.5t-249 67.5h-713z" />
    <glyph glyph-name="S" unicode="S" horiz-adv-x="1554" 
d="M807 -23q-275 0 -500 105q-224 108 -323 283l143 127q96 -163 276.5 -252.5t407.5 -89.5q226 0 363 73q139 77 139 197q0 88 -52.5 133.5t-185.5 71.5q-110 24 -346 47q-386 41 -516 125q-133 86 -133 254q0 195 180 317q180 125 471 125q252 0 447 -88q198 -88 288 -240
l-143 -114q-79 129 -236 199.5t-364 70.5q-208 0 -332.5 -69.5t-124.5 -182.5q0 -99 94 -145q91 -45 431 -80q326 -35 450 -78q139 -43 201.5 -120.5t62.5 -205.5q0 -210 -194 -336q-195 -127 -504 -127z" />
    <glyph glyph-name="T" unicode="T" horiz-adv-x="1646" 
d="M1616 1470v-172h-694v-1298h-197v1298h-694v172h1585z" />
    <glyph glyph-name="U" unicode="U" horiz-adv-x="1681" 
d="M842 -20q-355 0 -546.5 187t-191.5 531v772h195v-765q0 -268 138.5 -408.5t404.5 -140.5q265 0 402.5 140t137.5 409v765h197v-772q0 -345 -191.5 -531.5t-545.5 -186.5z" />
    <glyph glyph-name="V" unicode="V" horiz-adv-x="1751" 
d="M1761 1470l-774 -1470h-225l-772 1470h211l676 -1286l675 1286h209z" />
    <glyph glyph-name="W" unicode="W" horiz-adv-x="2387" 
d="M657 197l430 1273h218l428 -1273l460 1273h203l-543 -1470h-237l-422 1260l-424 -1260h-238l-540 1470h205z" />
    <glyph glyph-name="X" unicode="X" horiz-adv-x="1681" 
d="M1401 1470h237l-675 -704l735 -766h-250l-610 639l-615 -639h-239l735 762l-678 708h246l557 -579z" />
    <glyph glyph-name="Y" unicode="Y" horiz-adv-x="1679" 
d="M221 1470l621 -675l620 675h242l-766 -829v-641h-195v641l-766 829h244z" />
    <glyph glyph-name="Z" unicode="Z" horiz-adv-x="1597" 
d="M344 172h1178v-172h-1450v154l1167 1144h-1159v172h1433v-153z" />
    <glyph glyph-name="bracketleft" unicode="[" horiz-adv-x="749" 
d="M715 1358h-410v-1407h410v-152h-590v1712h590v-153z" />
    <glyph glyph-name="backslash" unicode="\" horiz-adv-x="1030" 
d="M20 1511h195l795 -1712h-195z" />
    <glyph glyph-name="bracketright" unicode="]" horiz-adv-x="749" 
d="M444 -49v1407h-409v153h590v-1712h-590v152h409z" />
    <glyph glyph-name="asciicircum" unicode="^" horiz-adv-x="1114" 
d="M35 854l432 616h180l432 -616h-200l-322 465l-324 -465h-198z" />
    <glyph glyph-name="underscore" unicode="_" horiz-adv-x="880" 
d="M776 -274h-672v157h672v-157z" />
    <glyph glyph-name="grave" unicode="`" horiz-adv-x="1228" 
d="M614 1470l201 -284h-156l-288 284h243z" />
    <glyph glyph-name="a" unicode="a" horiz-adv-x="1308" 
d="M485 -23q-196 0 -313 87.5t-117 234.5q0 137 109 222t315 108l473 53v27q0 106 -83.5 165.5t-235.5 59.5q-135 0 -241.5 -58.5t-141.5 -150.5l-154 70q50 133 199 215t342 82q235 0 364 -100.5t129 -284.5v-484q0 -60 41 -78q20 -10 50 -10q35 0 82 12v-147
q-65 -10 -107 -10q-75 3 -125 26q-87 43 -102 146l-2 10q-72 -92 -200 -143.5t-282 -51.5zM500 129q188 0 319 82q133 83 133 217v107l-446 -52q-145 -17 -207.5 -59.5t-62.5 -122.5t70.5 -126t193.5 -46z" />
    <glyph glyph-name="b" unicode="b" horiz-adv-x="1415" 
d="M1354 535q0 -244 -164 -400q-166 -158 -422 -158q-145 0 -264 56t-187 155v-188h-184v1470h184v-587q68 98 187 153.5t264 55.5q256 0 422 -158q164 -156 164 -399zM745 936q-184 0 -309 -113q-127 -112 -127 -280v-15q0 -167 127 -282q126 -111 309 -111q190 0 310 111
q123 111 123 289q0 177 -123 288q-119 113 -310 113z" />
    <glyph glyph-name="c" unicode="c" horiz-adv-x="1249" 
d="M668 934q-190 0 -310 -111t-120 -288q0 -176 120 -287t310 -111q146 0 254.5 77.5t144.5 203.5l150 -84q-52 -158 -201 -258q-147 -99 -346 -99q-265 0 -437 156t-172 402q0 243 172 399q175 158 437 158q200 0 346 -101q151 -99 203 -258l-152 -80q-36 126 -144.5 203.5
t-254.5 77.5z" />
    <glyph glyph-name="d" unicode="d" horiz-adv-x="1415" 
d="M647 -23q-258 0 -424 158q-162 155 -162 400q0 244 162 399q166 158 424 158q145 0 264 -55.5t187 -153.5v587h184v-1470h-184v188q-68 -99 -187 -155t-264 -56zM1106 528v15q0 168 -127 280q-125 113 -309 113q-190 0 -312 -113q-120 -111 -120 -288q0 -178 120 -289
q123 -111 312 -111q183 0 309 111q127 115 127 282z" />
    <glyph glyph-name="e" unicode="e" horiz-adv-x="1296" 
d="M670 -23q-266 0 -439 156q-170 156 -170 402q0 243 170 399q175 158 439 158q255 0 411 -150q158 -152 158 -383v-72h-1003q15 -160 135 -254q122 -96 299 -96q147 0 256 69.5t147 186.5l150 -78q-51 -146 -205 -243q-151 -95 -348 -95zM662 936q-160 0 -273.5 -83
t-144.5 -224h815q-9 127 -123 215q-115 92 -274 92z" />
    <glyph glyph-name="f" unicode="f" horiz-adv-x="888" 
d="M698 1493q148 0 230 -37l-31 -162q-93 29 -199 29q-139 0 -204.5 -57t-65.5 -179v-16h444v-158h-444v-913h-180v913h-260v158h260v21q0 192 117.5 296.5t332.5 104.5z" />
    <glyph glyph-name="g" unicode="g" horiz-adv-x="1406" 
d="M1274 1071v-934q0 -240 -174 -383q-174 -145 -449 -145q-213 0 -368 81t-217 224l149 94q44 -115 160 -180.5t272 -65.5q202 0 322.5 98t120.5 263v90q-72 -99 -188.5 -153t-258.5 -54q-259 0 -424 154q-164 153 -164 391q0 237 164 387q165 154 424 154q141 0 258 -54
t189 -151v184h184zM1098 547v8q0 165 -127 274t-307 109q-189 0 -310 -109t-121 -278q0 -172 121 -281q118 -106 310 -106q183 0 307 106q127 109 127 277z" />
    <glyph glyph-name="h" unicode="h" horiz-adv-x="1325" 
d="M317 0h-184v1470h184v-587q66 99 177 154t245 55q215 0 339 -134t124 -362v-596h-186v567q0 166 -86.5 260.5t-241.5 94.5q-163 0 -268 -105q-103 -103 -103 -270v-547z" />
    <glyph glyph-name="i" unicode="i" horiz-adv-x="450" 
d="M326 1257h-201v213h201v-213zM133 1071h184v-1071h-184v1071z" />
    <glyph glyph-name="j" unicode="j" horiz-adv-x="450" 
d="M326 1257h-201v213h201v-213zM-88 -221q117 0 169 48.5t52 154.5v1089h184v-1083q0 -180 -102.5 -275.5t-294.5 -95.5q-106 0 -205 35l31 155q80 -28 166 -28z" />
    <glyph glyph-name="k" unicode="k" horiz-adv-x="1282" 
d="M133 1470h184v-972l699 573h262l-567 -457l598 -614h-238l-493 506l-261 -211v-295h-184v1470z" />
    <glyph glyph-name="l" unicode="l" horiz-adv-x="450" 
d="M133 1470h184v-1470h-184v1470z" />
    <glyph glyph-name="m" unicode="m" horiz-adv-x="2105" 
d="M657 922q-153 0 -246.5 -97t-93.5 -256v-569h-184v1071h184v-172q63 93 163.5 143t224.5 50q133 0 231 -59.5t149 -168.5q74 107 187.5 167.5t245.5 60.5q220 0 341 -128t121 -358v-606h-184v584q0 160 -80 249t-227 89q-152 0 -246 -97.5t-94 -255.5v-569h-184v584
q0 160 -80.5 249t-227.5 89z" />
    <glyph glyph-name="n" unicode="n" horiz-adv-x="1325" 
d="M317 0h-184v1071h184v-188q66 99 177 154t245 55q215 0 339 -134t124 -362v-596h-186v567q0 166 -86.5 260.5t-241.5 94.5q-163 0 -268 -105q-103 -103 -103 -270v-547z" />
    <glyph glyph-name="o" unicode="o" horiz-adv-x="1325" 
d="M664 1092q258 0 430 -158q170 -156 170 -399q0 -244 -172 -400q-172 -158 -428 -158q-263 0 -433 156t-170 402q0 243 170 399q172 158 433 158zM664 932q-188 0 -308 -111q-118 -109 -118 -286q0 -178 118 -287q120 -111 308 -111q183 0 303 111q118 109 118 287
q0 177 -118 286q-120 111 -303 111z" />
    <glyph glyph-name="p" unicode="p" horiz-adv-x="1415" 
d="M1354 535q0 -244 -164 -400q-166 -158 -422 -158q-145 0 -264 56t-187 155v-557h-184v1440h184v-188q68 98 187 153.5t264 55.5q256 0 422 -158q164 -156 164 -399zM745 936q-184 0 -309 -113q-127 -112 -127 -280v-15q0 -167 127 -282q126 -111 309 -111q190 0 310 111
q123 111 123 289q0 177 -123 288q-119 113 -310 113z" />
    <glyph glyph-name="q" unicode="q" horiz-adv-x="1415" 
d="M647 -23q-258 0 -424 158q-162 155 -162 400q0 244 162 399q166 158 424 158q145 0 264 -55.5t187 -153.5v188h184v-1440h-184v557q-68 -99 -187 -155t-264 -56zM1106 528v15q0 168 -127 280q-125 113 -309 113q-190 0 -312 -113q-120 -111 -120 -288q0 -178 120 -289
q123 -111 312 -111q183 0 309 111q127 115 127 282z" />
    <glyph glyph-name="r" unicode="r" horiz-adv-x="872" 
d="M731 1079q63 0 121 -14v-184q-72 16 -125 16q-189 0 -299.5 -105t-110.5 -288v-504h-184v1071h184v-225q133 233 414 233z" />
    <glyph glyph-name="s" unicode="s" horiz-adv-x="1161" 
d="M608 -23q-211 0 -370 72.5t-234 202.5l135 113q139 -232 467 -232q157 0 243.5 45t86.5 129q0 57 -35.5 87.5t-124.5 43.5q-30 7 -229 29q-282 35 -379 98q-98 67 -98 195q0 148 135 239q137 93 350 93q182 0 324.5 -64.5t212.5 -175.5l-125 -109q-60 94 -168 144.5
t-250 50.5q-141 0 -221 -43.5t-80 -118.5q0 -63 53 -90q55 -28 285 -55q149 -17 225 -31q55 -10 113 -29q194 -63 194 -249q0 -155 -145 -250t-365 -95z" />
    <glyph glyph-name="t" unicode="t" horiz-adv-x="1005" 
d="M664 -12q-197 0 -301.5 89t-104.5 259v577h-260v158h260v313h182v-313h496v-158h-496v-561q0 -104 59.5 -151t192.5 -47q116 0 250 49l33 -158q-143 -57 -311 -57z" />
    <glyph glyph-name="u" unicode="u" horiz-adv-x="1314" 
d="M997 1071h185v-1071h-185v184q-143 -207 -411 -207q-215 0 -338 132t-123 358v604h184v-584q0 -165 83 -252.5t241 -87.5q164 0 264 102t100 269v553z" />
    <glyph glyph-name="v" unicode="v" horiz-adv-x="1275" 
d="M1280 1071l-547 -1071h-188l-549 1071h205l440 -870l438 870h201z" />
    <glyph glyph-name="w" unicode="w" horiz-adv-x="1794" 
d="M514 227l307 844h160l307 -844l320 844h190l-426 -1071h-164l-311 829l-309 -829h-164l-428 1071h197z" />
    <glyph glyph-name="x" unicode="x" horiz-adv-x="1267" 
d="M1268 0h-238l-395 432l-410 -432h-225l520 541l-495 530h235l375 -407l385 407h223l-493 -518z" />
    <glyph glyph-name="y" unicode="y" horiz-adv-x="1275" 
d="M1280 1071l-604 -1190q-74 -143 -168 -205.5t-236 -62.5q-53 0 -108.5 10t-85.5 27l37 157q78 -34 149 -34q178 0 250 170l33 71l-551 1057h205l442 -870l436 870h201z" />
    <glyph glyph-name="z" unicode="z" horiz-adv-x="1216" 
d="M317 158h834v-158h-1083v139l827 774h-819v158h1071v-141z" />
    <glyph glyph-name="braceleft" unicode="{" horiz-adv-x="870" 
d="M143 580h-102v151h102q144 0 144 162v274q0 164 96 254t268 90h185v-153h-156q-117 0 -170 -55t-53 -177v-233q0 -179 -142 -238q142 -59 142 -237v-234q0 -121 53 -176t170 -55h156v-154h-185q-172 0 -268 90t-96 254v275q0 162 -144 162z" />
    <glyph glyph-name="bar" unicode="|" horiz-adv-x="512" 
d="M346 -201h-180v1712h180v-1712z" />
    <glyph glyph-name="braceright" unicode="}" horiz-adv-x="870" 
d="M829 731v-151h-102q-143 0 -143 -162v-275q0 -164 -96.5 -254t-268.5 -90h-184v154h155q117 0 170.5 55t53.5 176v234q0 91 34 148.5t107 88.5q-73 31 -107 89t-34 149v233q0 121 -53.5 176.5t-170.5 55.5h-155v153h184q172 0 268.5 -90t96.5 -254v-274q0 -162 143 -162
h102z" />
    <glyph glyph-name="asciitilde" unicode="~" horiz-adv-x="985" 
d="M346 803q37 0 72 -16t90 -62q46 -37 69.5 -49t47.5 -12q47 0 72.5 32.5t39.5 108.5h146q-12 -155 -76.5 -243.5t-167.5 -88.5q-37 0 -71 16t-89 62q-45 39 -68.5 51t-48.5 12q-47 0 -72.5 -32.5t-39.5 -108.5h-146q12 153 77 241.5t165 88.5z" />
    <glyph glyph-name="uni00A0" unicode="&#xa0;" horiz-adv-x="509" 
 />
    <glyph glyph-name="exclamdown" unicode="&#xa1;" horiz-adv-x="561" 
d="M164 1229v241h233v-241h-233zM166 0l45 1034h139l47 -1034h-231z" />
    <glyph glyph-name="cent" unicode="&#xa2;" horiz-adv-x="1310" 
d="M776 -217h-151v199q-251 21 -408 178q-158 158 -158 383q0 227 158 385q157 157 408 178v217h151v-217q176 -15 320 -113q140 -96 186 -233l-147 -80q-32 108 -127.5 179.5t-231.5 90.5v-815q131 19 229 93t130 180l145 -82q-47 -140 -184 -234q-139 -95 -320 -110v-199z
M233 543q0 -162 107 -275q109 -112 285 -133v815q-177 -21 -285 -135q-107 -110 -107 -272z" />
    <glyph glyph-name="sterling" unicode="&#xa3;" horiz-adv-x="1783" 
d="M520 606h-364v150h252q-107 141 -107 264q0 201 193 336q192 137 489 137q301 0 483 -135q185 -135 185 -359q0 -71 -19 -137h-176q19 78 19 117q0 164 -132 255t-366 91q-217 0 -354 -90q-134 -90 -134 -231q0 -57 23 -110t88 -138h578v-150h-478q48 -86 48 -184
q0 -43 -7 -70l101 -57q70 -41 145 -78q140 -67 270 -67q147 0 233 75.5t93 214.5h180q-3 -206 -139 -336q-133 -127 -352 -127q-150 0 -305 70q-47 18 -93 45l-182 111q-56 -105 -156 -165.5t-221 -60.5q-134 0 -219.5 69.5t-85.5 178.5q0 112 91 183t233 71q117 0 256 -53
q-3 83 -70 180zM340 344q-78 0 -125 -31.5t-47 -85.5q0 -49 41.5 -79.5t109.5 -30.5q84 0 149.5 44t96.5 118q-116 65 -225 65z" />
    <glyph glyph-name="yen" unicode="&#xa5;" horiz-adv-x="1794" 
d="M805 387h-557v141h557v168h-557v142h416l-660 632h250l645 -622l643 622h248l-660 -632h418v-142h-559v-168h559v-141h-559v-387h-184v387z" />
    <glyph glyph-name="section" unicode="&#xa7;" 
d="M1452 506q72 -72 72 -174q0 -159 -185 -258q-186 -97 -481 -97q-283 0 -498 72t-313 201l137 127q85 -117 265.5 -181.5t424.5 -64.5q206 0 328 51q127 53 127 133q0 66 -57 100t-176 40l-637 37q-171 11 -263 81t-92 191q0 123 113 207q-76 73 -76 176q0 157 170 252
q172 94 459 94q262 0 460 -68.5t286 -187.5l-132 -117q-78 103 -241.5 158t-390.5 55q-194 0 -307 -46t-113 -124q0 -60 49.5 -90t153.5 -35l606 -34q202 -10 307.5 -84t105.5 -205q0 -127 -102 -209zM506 653l606 -32q117 -3 209 -39q53 50 53 114q0 68 -61.5 103.5
t-194.5 42.5l-629 35q-80 3 -141 24q-69 -46 -69 -115q0 -63 55 -95t172 -38z" />
    <glyph glyph-name="dieresis" unicode="&#xa8;" horiz-adv-x="1228" 
d="M485 1249h-204v213h204v-213zM948 1249h-205v213h205v-213z" />
    <glyph glyph-name="copyright" unicode="&#xa9;" horiz-adv-x="1865" 
d="M932 1493q362 0 604 -217q244 -215 244 -541q0 -323 -246 -540q-244 -218 -602 -218t-602 218t-244 540q0 326 244 541q242 217 602 217zM932 84q314 0 524 186q215 188 215 465q0 276 -213 465q-210 186 -526 186q-314 0 -524 -186q-211 -187 -211 -465t211 -465
q210 -186 524 -186zM944 307q-212 0 -344 117q-131 119 -131 313q0 196 131 312q130 118 344 118q162 0 272.5 -62.5t157.5 -180.5l-151 -72q-65 170 -279 170q-141 0 -225 -77.5t-84 -207.5q0 -131 84 -208.5t225 -77.5q214 0 279 170l151 -70q-47 -119 -156.5 -181.5
t-273.5 -62.5z" />
    <glyph glyph-name="ordfeminine" unicode="&#xaa;" horiz-adv-x="997" 
d="M362 686q-141 0 -226 63t-85 169q0 100 79 162t228 75l332 35v16q0 69 -57.5 109.5t-159.5 40.5q-92 0 -162.5 -37.5t-93.5 -99.5l-137 49q37 98 146.5 157.5t250.5 59.5q173 0 268 -73t95 -206v-329q0 -40 28 -56q12 -6 35 -6q24 0 55 8v-121q-39 -8 -79 -8
q-51 0 -97 17q-67 30 -82 102v2q-55 -61 -144 -95t-194 -34zM383 809q129 0 217 55q90 56 90 144v67l-309 -33q-93 -10 -135.5 -39.5t-42.5 -80.5q0 -54 47.5 -83.5t132.5 -29.5zM950 418h-878v141h878v-141z" />
    <glyph glyph-name="guillemotleft" unicode="&#xab;" horiz-adv-x="962" 
d="M467 166l-385 280v183l385 280v-188l-236 -184l236 -183v-188zM881 166l-385 280v183l385 280v-188l-236 -184l236 -183v-188z" />
    <glyph glyph-name="registered" unicode="&#xae;" horiz-adv-x="1112" 
d="M557 1493q205 0 342 -125q139 -127 139 -315q0 -189 -139 -316q-137 -125 -342 -125q-207 0 -344 125t-137 316q0 190 137 315t344 125zM557 690q170 0 285 103q114 105 114 260q0 158 -114 260t-285 102t-285 -102t-114 -260q0 -155 114 -260q115 -103 285 -103z
M684 1020l123 -182h-117l-104 159h-140v-159h-104v442h274q80 0 125 -35.5t45 -101.5q0 -43 -27.5 -76.5t-74.5 -46.5zM680 1137q0 61 -78 61h-156v-123h156q78 0 78 62z" />
    <glyph glyph-name="overscore" unicode="&#xaf;" horiz-adv-x="1228" 
d="M954 1389v-148h-680v148h680z" />
    <glyph glyph-name="degree" unicode="&#xb0;" horiz-adv-x="782" 
d="M41 1204q0 125 98 207t252 82t252 -82t98 -207q0 -130 -100 -211q-98 -82 -250 -82q-151 0 -252 82q-98 82 -98 211zM182 1204q0 -73 57.5 -117.5t151.5 -44.5t150.5 44.5t56.5 117.5t-56.5 115.5t-150.5 42.5t-151.5 -43t-57.5 -115z" />
    <glyph glyph-name="twosuperior" unicode="&#xb2;" horiz-adv-x="890" 
d="M53 655v121l357 193q167 87 215 135q45 45 45 100q0 63 -56.5 103.5t-146.5 40.5q-109 0 -185.5 -56.5t-95.5 -148.5l-143 33q24 136 141 221q118 86 287 86q158 0 256 -76q100 -72 100 -193q0 -93 -60.5 -162.5t-211.5 -146.5l-223 -117h518v-133h-797z" />
    <glyph glyph-name="threesuperior" unicode="&#xb3;" horiz-adv-x="911" 
d="M872 889q0 -106 -114 -176q-113 -70 -297 -70q-166 0 -287.5 64t-159.5 172l140 63q26 -74 111.5 -121t195.5 -47t178 35t68 92q0 55 -59.5 84t-166.5 29h-159v123h155q99 0 152 25.5t53 74.5q0 51 -60.5 82t-158.5 31q-103 0 -179.5 -42t-101.5 -110l-135 57
q37 103 153 165.5t271 62.5q170 0 273.5 -64.5t103.5 -169.5q0 -61 -42 -107t-114 -65q180 -46 180 -188z" />
    <glyph glyph-name="acute" unicode="&#xb4;" horiz-adv-x="1228" 
d="M569 1186h-155l200 284h244z" />
    <glyph glyph-name="paragraph" unicode="&#xb6;" horiz-adv-x="1640" 
d="M1348 0h-187v1303h-303v-562h-383q-197 0 -315.5 98.5t-118.5 262.5t123 266q126 102 330 102h1126v-167h-272v-1303z" />
    <glyph glyph-name="middot" unicode="&#xb7;" horiz-adv-x="425" 
d="M330 467h-234v242h234v-242z" />
    <glyph glyph-name="cedilla" unicode="&#xb8;" horiz-adv-x="1228" 
d="M868 -217q0 -75 -73.5 -123.5t-190.5 -48.5q-81 0 -150.5 21.5t-107.5 58.5l70 96q72 -66 182 -66q135 0 135 70q0 37 -49 55t-158 23l45 151h101l-23 -75q97 -5 158 -50t61 -112z" />
    <glyph glyph-name="onesuperior" unicode="&#xb9;" horiz-adv-x="735" 
d="M711 655h-678v136h276v423h-276v119l149 4q82 2 119.5 32.5t44.5 103.5h121v-682h244v-136z" />
    <glyph glyph-name="ordmasculine" unicode="&#xba;" horiz-adv-x="989" 
d="M496 1485q191 0 313 -113q125 -110 125 -287q0 -173 -125 -286q-122 -113 -313 -113q-190 0 -316 111q-123 114 -123 288q0 176 123 287q122 113 316 113zM496 1352q-127 0 -207 -74t-80 -193q0 -118 79.5 -192t207.5 -74q125 0 204.5 74t79.5 192t-79.5 192.5
t-204.5 74.5zM924 418h-856v141h856v-141z" />
    <glyph glyph-name="guillemotright" unicode="&#xbb;" horiz-adv-x="962" 
d="M467 629v-183l-385 -280v188l235 183l-235 184v188zM881 629v-183l-385 -280v188l235 183l-235 184v188z" />
    <glyph glyph-name="onequarter" unicode="&#xbc;" horiz-adv-x="1984" 
d="M711 655h-678v136h276v423h-276v119l149 4q82 2 119.5 32.5t44.5 103.5h121v-682h244v-136zM338 0l1223 1470h176l-1221 -1470h-178zM1761 203v-203h-151v203h-541v121l490 491h202v-487h203v-125h-203zM1610 686l-361 -358h361v358z" />
    <glyph glyph-name="onehalf" unicode="&#xbd;" horiz-adv-x="2091" 
d="M711 655h-678v136h276v423h-276v119l149 4q82 2 119.5 32.5t44.5 103.5h121v-682h244v-136zM338 0l1223 1470h176l-1221 -1470h-178zM1255 0v121l357 192q165 86 215 136q45 45 45 100q0 63 -56.5 103t-146.5 40q-108 0 -184.5 -56t-95.5 -149l-144 33q24 136 141 221
q118 86 287 86q159 0 256 -75q101 -73 101 -193q0 -93 -61 -162t-212 -147l-223 -117h518v-133h-797z" />
    <glyph glyph-name="threequarters" unicode="&#xbe;" horiz-adv-x="2021" 
d="M872 889q0 -106 -114 -176q-113 -70 -297 -70q-166 0 -287.5 64t-159.5 172l140 63q26 -74 111.5 -121t195.5 -47t178 35t68 92q0 55 -59.5 84t-166.5 29h-159v123h155q99 0 152 25.5t53 74.5q0 51 -60.5 82t-158.5 31q-103 0 -179.5 -42t-101.5 -110l-135 57
q37 103 153 165.5t271 62.5q170 0 273.5 -64.5t103.5 -169.5q0 -61 -42 -107t-114 -65q180 -46 180 -188zM375 0l1222 1470h177l-1221 -1470h-178zM1798 203v-203h-151v203h-541v121l489 491h203v-487h203v-125h-203zM1647 686l-361 -358h361v358z" />
    <glyph glyph-name="questiondown" unicode="&#xbf;" horiz-adv-x="1376" 
d="M561 1485h234v-242h-234v242zM236 440q0 -134 115.5 -207t326.5 -73q202 0 335 84t158 227l191 -31q-34 -201 -223 -325q-187 -123 -469 -123q-284 0 -461 121q-174 119 -174 319q0 176 150 291t411 141v185h180v-326q-262 0 -401 -73t-139 -210z" />
    <glyph glyph-name="Agrave" unicode="&#xc0;" horiz-adv-x="1742" 
d="M-10 0l774 1470h215l772 -1470h-209l-213 408h-915l-215 -408h-209zM1239 580l-367 698l-368 -698h735zM709 1864l264 -297h-172l-367 297h275z" />
    <glyph glyph-name="Aacute" unicode="&#xc1;" horiz-adv-x="1742" 
d="M-10 0l774 1470h215l772 -1470h-209l-213 408h-915l-215 -408h-209zM1239 580l-367 698l-368 -698h735zM940 1567h-172l264 297h275z" />
    <glyph glyph-name="Acircumflex" unicode="&#xc2;" horiz-adv-x="1742" 
d="M-10 0l774 1470h215l772 -1470h-209l-213 408h-915l-215 -408h-209zM1239 580l-367 698l-368 -698h735zM760 1864h221l293 -297h-162l-242 178l-241 -178h-162z" />
    <glyph glyph-name="Atilde" unicode="&#xc3;" horiz-adv-x="1742" 
d="M-10 0l774 1470h215l772 -1470h-209l-213 408h-915l-215 -408h-209zM1239 580l-367 698l-368 -698h735zM670 1853q58 0 107.5 -15t127.5 -60q59 -34 91 -45t63 -11q43 0 67 32t35 101h131q-11 -135 -69 -210.5t-154 -75.5q-52 0 -102 16t-131 60q-58 35 -90 46t-64 11
q-87 0 -102 -133h-131q11 134 69 209t152 75z" />
    <glyph glyph-name="Adieresis" unicode="&#xc4;" horiz-adv-x="1742" 
d="M-10 0l774 1470h215l772 -1470h-209l-213 408h-915l-215 -408h-209zM1239 580l-367 698l-368 -698h735zM735 1575h-203v213h203v-213zM1208 1575h-202v213h202v-213z" />
    <glyph glyph-name="Aring" unicode="&#xc5;" horiz-adv-x="1742" 
d="M629 1626q0 97 69 160q71 65 172 65t172 -65q72 -66 72 -160q0 -60 -30.5 -112.5t-84.5 -83.5l752 -1430h-209l-213 408h-915l-215 -408h-209l753 1430q-54 31 -84 82.5t-30 113.5zM870 1743q-54 0 -88 -33t-34 -84t34 -85t88 -34t88.5 34t34.5 85t-34.5 84t-88.5 33z
M1239 580l-367 698l-368 -698h735z" />
    <glyph glyph-name="AE" unicode="&#xc6;" horiz-adv-x="2838" 
d="M-18 0l1343 1470h1436v-172h-1172v-452h1055v-172h-1055v-502h1172v-172h-1364v403h-805l-367 -403h-243zM1397 1290l-649 -715h649v715z" />
    <glyph glyph-name="Ccedilla" unicode="&#xc7;" horiz-adv-x="1703" 
d="M55 735q0 328 244 543t614 215q277 0 479.5 -127t284.5 -350l-164 -86q-67 186 -222.5 286.5t-375.5 100.5q-289 0 -477 -164q-184 -163 -184 -418q0 -257 184 -420q185 -161 477 -161q220 0 375.5 100.5t222.5 286.5l164 -86q-82 -224 -284.5 -351t-479.5 -127h-12
l-10 -32q97 -5 158 -50t61 -112q0 -75 -73.5 -123.5t-190.5 -48.5q-81 0 -150.5 21.5t-107.5 58.5l69 96q72 -66 183 -66q135 0 135 70q0 37 -49 55t-158 23l35 115q-333 35 -539 241q-209 209 -209 510z" />
    <glyph glyph-name="Egrave" unicode="&#xc8;" horiz-adv-x="1591" 
d="M150 0v1470h1363v-172h-1171v-452h1055v-172h-1055v-502h1171v-172h-1363zM729 1864l264 -297h-172l-366 297h274z" />
    <glyph glyph-name="Eacute" unicode="&#xc9;" horiz-adv-x="1591" 
d="M150 0v1470h1363v-172h-1171v-452h1055v-172h-1055v-502h1171v-172h-1363zM860 1567h-172l264 297h275z" />
    <glyph glyph-name="Ecircumflex" unicode="&#xca;" horiz-adv-x="1591" 
d="M150 0v1470h1363v-172h-1171v-452h1055v-172h-1055v-502h1171v-172h-1363zM723 1864h221l293 -297h-162l-241 178l-242 -178h-162z" />
    <glyph glyph-name="Edieresis" unicode="&#xcb;" horiz-adv-x="1591" 
d="M150 0v1470h1363v-172h-1171v-452h1055v-172h-1055v-502h1171v-172h-1363zM698 1575h-202v213h202v-213zM1171 1575h-202v213h202v-213z" />
    <glyph glyph-name="Igrave" unicode="&#xcc;" horiz-adv-x="495" 
d="M150 1470h196v-1470h-196v1470zM70 1864l264 -297h-172l-367 297h275z" />
    <glyph glyph-name="Iacute" unicode="&#xcd;" horiz-adv-x="495" 
d="M150 1470h196v-1470h-196v1470zM332 1567h-172l264 297h274z" />
    <glyph glyph-name="Icircumflex" unicode="&#xce;" horiz-adv-x="495" 
d="M150 1470h196v-1470h-196v1470zM137 1864h221l293 -297h-162l-241 178l-242 -178h-162z" />
    <glyph glyph-name="Idieresis" unicode="&#xcf;" horiz-adv-x="495" 
d="M150 1470h196v-1470h-196v1470zM113 1575h-203v213h203v-213zM586 1575h-203v213h203v-213z" />
    <glyph glyph-name="Eth" unicode="&#xd0;" horiz-adv-x="1820" 
d="M944 0h-727v674h-207v170h207v626h727q370 0 596 -200q225 -200 225 -535t-225 -534q-227 -201 -596 -201zM410 674v-504h534q282 0 453 154q170 153 170 411q0 259 -170 412t-455 153h-532v-456h409v-170h-409z" />
    <glyph glyph-name="Ntilde" unicode="&#xd1;" horiz-adv-x="1773" 
d="M1436 1470h188v-1470h-174l-1112 1231v-1231h-188v1470h208l1078 -1189v1189zM680 1853q58 0 107.5 -15t127.5 -60q59 -34 91 -45t63 -11q43 0 67 32t35 101h132q-11 -134 -69.5 -210t-154.5 -76q-52 0 -102 16t-131 60q-58 35 -90 46t-64 11q-87 0 -102 -133h-131
q11 134 69 209t152 75z" />
    <glyph glyph-name="Ograve" unicode="&#xd2;" horiz-adv-x="1818" 
d="M909 -23q-367 0 -612 213q-242 214 -242 545q0 332 242 543q244 215 612 215q369 0 613 -215q241 -210 241 -543q0 -332 -241 -545q-245 -213 -613 -213zM909 154q292 0 471 161q183 165 183 420t-183 420q-180 162 -471 162q-293 0 -473 -162q-182 -164 -182 -420
t182 -420q179 -161 473 -161zM780 1864l264 -297h-172l-366 297h274z" />
    <glyph glyph-name="Oacute" unicode="&#xd3;" horiz-adv-x="1818" 
d="M909 -23q-367 0 -612 213q-242 214 -242 545q0 332 242 543q244 215 612 215q369 0 613 -215q241 -210 241 -543q0 -332 -241 -545q-245 -213 -613 -213zM909 154q292 0 471 161q183 165 183 420t-183 420q-180 162 -471 162q-293 0 -473 -162q-182 -164 -182 -420
t182 -420q179 -161 473 -161zM981 1567h-172l264 297h275z" />
    <glyph glyph-name="Ocircumflex" unicode="&#xd4;" horiz-adv-x="1818" 
d="M909 -23q-367 0 -612 213q-242 214 -242 545q0 332 242 543q244 215 612 215q369 0 613 -215q241 -210 241 -543q0 -332 -241 -545q-245 -213 -613 -213zM909 154q292 0 471 161q183 165 183 420t-183 420q-180 162 -471 162q-293 0 -473 -162q-182 -164 -182 -420
t182 -420q179 -161 473 -161zM799 1864h221l293 -297h-162l-242 178l-241 -178h-162z" />
    <glyph glyph-name="Otilde" unicode="&#xd5;" horiz-adv-x="1818" 
d="M909 -23q-367 0 -612 213q-242 214 -242 545q0 332 242 543q244 215 612 215q369 0 613 -215q241 -210 241 -543q0 -332 -241 -545q-245 -213 -613 -213zM909 154q292 0 471 161q183 165 183 420t-183 420q-180 162 -471 162q-293 0 -473 -162q-182 -164 -182 -420
t182 -420q179 -161 473 -161zM709 1853q58 0 107.5 -15t127.5 -60q59 -34 91 -45t63 -11q43 0 67 32t35 101h131q-11 -135 -69 -210.5t-154 -75.5q-52 0 -103 16t-131 60q-58 35 -89.5 46t-63.5 11q-88 0 -103 -133h-131q10 133 69 208.5t153 75.5z" />
    <glyph glyph-name="Odieresis" unicode="&#xd6;" horiz-adv-x="1818" 
d="M909 -23q-367 0 -612 213q-242 214 -242 545q0 332 242 543q244 215 612 215q369 0 613 -215q241 -210 241 -543q0 -332 -241 -545q-245 -213 -613 -213zM909 154q292 0 471 161q183 165 183 420t-183 420q-180 162 -471 162q-293 0 -473 -162q-182 -164 -182 -420
t182 -420q179 -161 473 -161zM774 1575h-203v213h203v-213zM1247 1575h-203v213h203v-213z" />
    <glyph glyph-name="multiply" unicode="&#xd7;" 
d="M174 195l531 526l-531 530l117 115l528 -526l531 526l114 -113l-528 -530l528 -530l-116 -115l-531 528l-526 -528z" />
    <glyph glyph-name="Oslash" unicode="&#xd8;" horiz-adv-x="1818" 
d="M188 -39l-116 119l174 164q-93 99 -142 225t-49 266q0 332 242 543q244 215 612 215q155 0 297 -42.5t252 -121.5l172 162l117 -119l-164 -153q180 -205 180 -484q0 -332 -241 -545q-245 -213 -613 -213q-307 0 -536 156zM909 1321q-290 0 -475 -164q-182 -164 -182 -422
q0 -225 137 -377l930 850q-176 113 -410 113zM909 150q294 0 473 161q185 164 185 424q0 217 -129 367l-926 -848q167 -104 397 -104z" />
    <glyph glyph-name="Ugrave" unicode="&#xd9;" horiz-adv-x="1681" 
d="M842 -20q-355 0 -546.5 187t-191.5 531v772h195v-765q0 -268 138.5 -408.5t404.5 -140.5q265 0 402.5 140t137.5 409v765h197v-772q0 -345 -191.5 -531.5t-545.5 -186.5zM737 1864l264 -297h-172l-366 297h274z" />
    <glyph glyph-name="Uacute" unicode="&#xda;" horiz-adv-x="1681" 
d="M842 -20q-355 0 -546.5 187t-191.5 531v772h195v-765q0 -268 138.5 -408.5t404.5 -140.5q265 0 402.5 140t137.5 409v765h197v-772q0 -345 -191.5 -531.5t-545.5 -186.5zM872 1567h-172l265 297h274z" />
    <glyph glyph-name="Ucircumflex" unicode="&#xdb;" horiz-adv-x="1681" 
d="M842 -20q-355 0 -546.5 187t-191.5 531v772h195v-765q0 -268 138.5 -408.5t404.5 -140.5q265 0 402.5 140t137.5 409v765h197v-772q0 -345 -191.5 -531.5t-545.5 -186.5zM731 1864h221l293 -297h-162l-241 178l-242 -178h-162z" />
    <glyph glyph-name="Udieresis" unicode="&#xdc;" horiz-adv-x="1681" 
d="M842 -20q-355 0 -546.5 187t-191.5 531v772h195v-765q0 -268 138.5 -408.5t404.5 -140.5q265 0 402.5 140t137.5 409v765h197v-772q0 -345 -191.5 -531.5t-545.5 -186.5zM707 1575h-203v213h203v-213zM1180 1575h-203v213h203v-213z" />
    <glyph glyph-name="Yacute" unicode="&#xdd;" horiz-adv-x="1679" 
d="M221 1470l621 -675l620 675h242l-766 -829v-641h-195v641l-766 829h244zM877 1567h-172l264 297h274z" />
    <glyph glyph-name="Thorn" unicode="&#xde;" horiz-adv-x="1599" 
d="M1567 766q0 -200 -139 -313t-381 -113h-701v-340h-196v1470h196v-276h701q245 0 382.5 -113t137.5 -315zM1036 1028h-690v-522h690q158 0 247 68.5t89 191.5q0 125 -88 193.5t-248 68.5z" />
    <glyph glyph-name="germandbls" unicode="&#xdf;" horiz-adv-x="1462" 
d="M750 1493q227 0 362 -100q139 -100 139 -256q0 -110 -65 -189t-178 -110q190 -32 296.5 -139t106.5 -265q0 -200 -154 -330q-151 -127 -389 -127q-158 0 -285.5 56.5t-199.5 159.5l123 124q60 -88 154.5 -136t207.5 -48q159 0 260 83t101 214q0 146 -129.5 225.5
t-364.5 79.5h-198v162h202q160 0 247 57.5t87 161.5q0 103 -88 161t-242 58q-197 0 -308 -107t-111 -296v-932h-185v940q0 244 170 397q170 156 441 156z" />
    <glyph glyph-name="agrave" unicode="&#xe0;" horiz-adv-x="1308" 
d="M485 -23q-196 0 -313 87.5t-117 234.5q0 137 109 222t315 108l473 53v27q0 106 -83.5 165.5t-235.5 59.5q-135 0 -241.5 -58.5t-141.5 -150.5l-154 70q50 133 199 215t342 82q235 0 364 -100.5t129 -284.5v-484q0 -60 41 -78q20 -10 50 -10q35 0 82 12v-147
q-65 -10 -107 -10q-75 3 -125 26q-87 43 -102 146l-2 10q-72 -92 -200 -143.5t-282 -51.5zM500 129q188 0 319 82q133 83 133 217v107l-446 -52q-145 -17 -207.5 -59.5t-62.5 -122.5t70.5 -126t193.5 -46zM557 1470l201 -284h-156l-289 284h244z" />
    <glyph glyph-name="aacute" unicode="&#xe1;" horiz-adv-x="1308" 
d="M485 -23q-196 0 -313 87.5t-117 234.5q0 137 109 222t315 108l473 53v27q0 106 -83.5 165.5t-235.5 59.5q-135 0 -241.5 -58.5t-141.5 -150.5l-154 70q50 133 199 215t342 82q235 0 364 -100.5t129 -284.5v-484q0 -60 41 -78q20 -10 50 -10q35 0 82 12v-147
q-65 -10 -107 -10q-75 3 -125 26q-87 43 -102 146l-2 10q-72 -92 -200 -143.5t-282 -51.5zM500 129q188 0 319 82q133 83 133 217v107l-446 -52q-145 -17 -207.5 -59.5t-62.5 -122.5t70.5 -126t193.5 -46zM704 1186h-155l200 284h244z" />
    <glyph glyph-name="acircumflex" unicode="&#xe2;" horiz-adv-x="1308" 
d="M485 -23q-196 0 -313 87.5t-117 234.5q0 137 109 222t315 108l473 53v27q0 106 -83.5 165.5t-235.5 59.5q-135 0 -241.5 -58.5t-141.5 -150.5l-154 70q50 133 199 215t342 82q235 0 364 -100.5t129 -284.5v-484q0 -60 41 -78q20 -10 50 -10q35 0 82 12v-147
q-65 -10 -107 -10q-75 3 -125 26q-87 43 -102 146l-2 10q-72 -92 -200 -143.5t-282 -51.5zM500 129q188 0 319 82q133 83 133 217v107l-446 -52q-145 -17 -207.5 -59.5t-62.5 -122.5t70.5 -126t193.5 -46zM530 1470h201l264 -284h-152l-213 160l-213 -160h-151z" />
    <glyph glyph-name="atilde" unicode="&#xe3;" horiz-adv-x="1308" 
d="M485 -23q-196 0 -313 87.5t-117 234.5q0 137 109 222t315 108l473 53v27q0 106 -83.5 165.5t-235.5 59.5q-135 0 -241.5 -58.5t-141.5 -150.5l-154 70q50 133 199 215t342 82q235 0 364 -100.5t129 -284.5v-484q0 -60 41 -78q20 -10 50 -10q35 0 82 12v-147
q-65 -10 -107 -10q-75 3 -125 26q-87 43 -102 146l-2 10q-72 -92 -200 -143.5t-282 -51.5zM500 129q188 0 319 82q133 83 133 217v107l-446 -52q-145 -17 -207.5 -59.5t-62.5 -122.5t70.5 -126t193.5 -46zM450 1473q43 0 86.5 -16t114.5 -62q56 -33 80.5 -43.5t44.5 -10.5
q38 0 59 30t31 102h121q-11 -130 -63 -203.5t-136 -73.5q-44 0 -86.5 15.5t-111.5 60.5q-91 53 -127 53q-38 0 -59.5 -31t-28.5 -98h-121q8 131 59 204t137 73z" />
    <glyph glyph-name="adieresis" unicode="&#xe4;" horiz-adv-x="1308" 
d="M485 -23q-196 0 -313 87.5t-117 234.5q0 137 109 222t315 108l473 53v27q0 106 -83.5 165.5t-235.5 59.5q-135 0 -241.5 -58.5t-141.5 -150.5l-154 70q50 133 199 215t342 82q235 0 364 -100.5t129 -284.5v-484q0 -60 41 -78q20 -10 50 -10q35 0 82 12v-147
q-65 -10 -107 -10q-75 3 -125 26q-87 43 -102 146l-2 10q-72 -92 -200 -143.5t-282 -51.5zM500 129q188 0 319 82q133 83 133 217v107l-446 -52q-145 -17 -207.5 -59.5t-62.5 -122.5t70.5 -126t193.5 -46zM508 1249h-205v213h205v-213zM971 1249h-205v213h205v-213z" />
    <glyph glyph-name="aring" unicode="&#xe5;" horiz-adv-x="1308" 
d="M485 -23q-196 0 -313 87.5t-117 234.5q0 137 109 222t315 108l473 53v27q0 106 -83.5 165.5t-235.5 59.5q-135 0 -241.5 -58.5t-141.5 -150.5l-154 70q50 133 199 215t342 82q235 0 364 -100.5t129 -284.5v-484q0 -60 41 -78q20 -10 50 -10q35 0 82 12v-147
q-65 -10 -107 -10q-75 3 -125 26q-87 43 -102 146l-2 10q-72 -92 -200 -143.5t-282 -51.5zM500 129q188 0 319 82q133 83 133 217v107l-446 -52q-145 -17 -207.5 -59.5t-62.5 -122.5t70.5 -126t193.5 -46zM631 1163q-88 0 -147.5 58.5t-59.5 144.5q0 85 59.5 142t147.5 57
t147.5 -57t59.5 -142q0 -86 -59.5 -144.5t-147.5 -58.5zM631 1468q-41 0 -72 -30.5t-31 -71.5q0 -43 30.5 -74.5t72.5 -31.5t72 31.5t30 74.5q0 41 -30.5 71.5t-71.5 30.5z" />
    <glyph glyph-name="ae" unicode="&#xe6;" horiz-adv-x="2187" 
d="M55 303q0 153 127.5 239.5t354.5 86.5h415v80q0 105 -85 165t-236 60q-135 0 -240.5 -58t-140.5 -151l-154 70q50 133 199 215t342 82q165 0 280 -53.5t166 -153.5q82 99 206.5 153t271.5 54q255 0 411 -150q158 -152 158 -383v-72h-1004q15 -159 136 -254
q122 -96 299 -96q149 0 256.5 68.5t148.5 187.5l150 -78q-51 -146 -205 -243q-151 -95 -350 -95q-176 0 -317 75t-216 206q-74 -135 -212 -208t-324 -73q-197 0 -317 88.5t-120 237.5zM1552 936q-160 0 -273 -83.5t-144 -223.5h815q-9 127 -123 215q-115 92 -275 92z
M236 305q0 -82 71.5 -129t198.5 -47q187 0 315 82q131 82 131 217v59h-403q-313 0 -313 -182z" />
    <glyph glyph-name="ccedilla" unicode="&#xe7;" horiz-adv-x="1249" 
d="M61 535q0 161 79 288.5t218 198t312 70.5q208 0 352 -102t197 -257l-152 -80q-35 121 -141.5 201t-257.5 80q-187 0 -308.5 -109t-121.5 -290q0 -179 122 -288.5t308 -109.5q151 0 258 79.5t141 201.5l150 -84q-53 -153 -195 -255t-344 -102l-10 -32q95 -5 157 -48
t62 -114q0 -78 -75.5 -125t-188.5 -47q-84 0 -152 22t-106 58l69 96q69 -66 182 -66q136 0 136 70q0 39 -52 56t-155 22l35 115q-229 25 -374 177t-145 374z" />
    <glyph glyph-name="egrave" unicode="&#xe8;" horiz-adv-x="1296" 
d="M670 -23q-266 0 -439 156q-170 156 -170 402q0 243 170 399q175 158 439 158q255 0 411 -150q158 -152 158 -383v-72h-1003q15 -160 135 -254q122 -96 299 -96q147 0 256 69.5t147 186.5l150 -78q-51 -146 -205 -243q-151 -95 -348 -95zM662 936q-160 0 -273.5 -83
t-144.5 -224h815q-9 127 -123 215q-115 92 -274 92zM594 1470l201 -284h-156l-289 284h244z" />
    <glyph glyph-name="eacute" unicode="&#xe9;" horiz-adv-x="1296" 
d="M670 -23q-266 0 -439 156q-170 156 -170 402q0 243 170 399q175 158 439 158q255 0 411 -150q158 -152 158 -383v-72h-1003q15 -160 135 -254q122 -96 299 -96q147 0 256 69.5t147 186.5l150 -78q-51 -146 -205 -243q-151 -95 -348 -95zM662 936q-160 0 -273.5 -83
t-144.5 -224h815q-9 127 -123 215q-115 92 -274 92zM733 1186h-155l200 284h244z" />
    <glyph glyph-name="ecircumflex" unicode="&#xea;" horiz-adv-x="1296" 
d="M670 -23q-266 0 -439 156q-170 156 -170 402q0 243 170 399q175 158 439 158q255 0 411 -150q158 -152 158 -383v-72h-1003q15 -160 135 -254q122 -96 299 -96q147 0 256 69.5t147 186.5l150 -78q-51 -146 -205 -243q-151 -95 -348 -95zM662 936q-160 0 -273.5 -83
t-144.5 -224h815q-9 127 -123 215q-115 92 -274 92zM565 1470h201l264 -284h-152l-213 160l-213 -160h-151z" />
    <glyph glyph-name="edieresis" unicode="&#xeb;" horiz-adv-x="1296" 
d="M670 -23q-266 0 -439 156q-170 156 -170 402q0 243 170 399q175 158 439 158q255 0 411 -150q158 -152 158 -383v-72h-1003q15 -160 135 -254q122 -96 299 -96q147 0 256 69.5t147 186.5l150 -78q-51 -146 -205 -243q-151 -95 -348 -95zM662 936q-160 0 -273.5 -83
t-144.5 -224h815q-9 127 -123 215q-115 92 -274 92zM526 1249h-204v213h204v-213zM989 1249h-205v213h205v-213z" />
    <glyph glyph-name="igrave" unicode="&#xec;" horiz-adv-x="450" 
d="M133 1071h184v-1071h-184v1071zM111 1470l200 -284h-155l-289 284h244z" />
    <glyph glyph-name="iacute" unicode="&#xed;" horiz-adv-x="450" 
d="M133 1071h184v-1071h-184v1071zM297 1186h-155l200 284h244z" />
    <glyph glyph-name="icircumflex" unicode="&#xee;" horiz-adv-x="450" 
d="M133 1071h184v-1071h-184v1071zM125 1470h201l264 -284h-152l-213 160l-213 -160h-151z" />
    <glyph glyph-name="idieresis" unicode="&#xef;" horiz-adv-x="450" 
d="M133 1071h184v-1071h-184v1071zM96 1249h-205v213h205v-213zM559 1249h-205v213h205v-213z" />
    <glyph glyph-name="eth" unicode="&#xf0;" horiz-adv-x="1325" 
d="M643 1090q214 0 334 -107q-78 138 -248 252l-434 -115v137l276 74q-136 70 -241 105l182 55q139 -51 244 -113l346 92v-137l-199 -53q177 -140 269 -320t92 -389q0 -268 -168 -430q-167 -164 -432 -164q-263 0 -433 156t-170 402q0 241 166 397q169 158 416 158zM659 932
q-185 0 -305 -111q-116 -110 -116 -286q0 -178 118 -287q120 -111 308 -111q183 0 303 111q118 109 118 287q0 175 -120 286t-306 111z" />
    <glyph glyph-name="ntilde" unicode="&#xf1;" horiz-adv-x="1325" 
d="M317 0h-184v1071h184v-188q66 99 177 154t245 55q215 0 339 -134t124 -362v-596h-186v567q0 166 -86.5 260.5t-241.5 94.5q-163 0 -268 -105q-103 -103 -103 -270v-547zM499 1473q43 0 86.5 -16t114.5 -62q56 -33 80.5 -43.5t44.5 -10.5q38 0 59 30t31 102h121
q-11 -130 -63 -203.5t-136 -73.5q-44 0 -86.5 15.5t-111.5 60.5q-91 53 -127 53q-38 0 -59.5 -31t-28.5 -98h-121q8 131 59 204t137 73z" />
    <glyph glyph-name="ograve" unicode="&#xf2;" horiz-adv-x="1325" 
d="M664 1092q258 0 430 -158q170 -156 170 -399q0 -244 -172 -400q-172 -158 -428 -158q-263 0 -433 156t-170 402q0 243 170 399q172 158 433 158zM664 932q-188 0 -308 -111q-118 -109 -118 -286q0 -178 118 -287q120 -111 308 -111q183 0 303 111q118 109 118 287
q0 177 -118 286q-120 111 -303 111zM565 1473l201 -285h-156l-288 285h243z" />
    <glyph glyph-name="oacute" unicode="&#xf3;" horiz-adv-x="1325" 
d="M664 1092q258 0 430 -158q170 -156 170 -399q0 -244 -172 -400q-172 -158 -428 -158q-263 0 -433 156t-170 402q0 243 170 399q172 158 433 158zM664 932q-188 0 -308 -111q-118 -109 -118 -286q0 -178 118 -287q120 -111 308 -111q183 0 303 111q118 109 118 287
q0 177 -118 286q-120 111 -303 111zM719 1186h-155l200 284h244z" />
    <glyph glyph-name="ocircumflex" unicode="&#xf4;" horiz-adv-x="1325" 
d="M664 1092q258 0 430 -158q170 -156 170 -399q0 -244 -172 -400q-172 -158 -428 -158q-263 0 -433 156t-170 402q0 243 170 399q172 158 433 158zM664 932q-188 0 -308 -111q-118 -109 -118 -286q0 -178 118 -287q120 -111 308 -111q183 0 303 111q118 109 118 287
q0 177 -118 286q-120 111 -303 111zM561 1470h201l264 -284h-152l-213 160l-213 -160h-151z" />
    <glyph glyph-name="otilde" unicode="&#xf5;" horiz-adv-x="1325" 
d="M664 1092q258 0 430 -158q170 -156 170 -399q0 -244 -172 -400q-172 -158 -428 -158q-263 0 -433 156t-170 402q0 243 170 399q172 158 433 158zM664 932q-188 0 -308 -111q-118 -109 -118 -286q0 -178 118 -287q120 -111 308 -111q183 0 303 111q118 109 118 287
q0 177 -118 286q-120 111 -303 111zM493 1473q43 0 86.5 -16t114.5 -62q56 -33 80.5 -43.5t44.5 -10.5q38 0 59 30t31 102h121q-11 -130 -63 -203.5t-136 -73.5q-44 0 -86.5 15.5t-111.5 60.5q-91 53 -127 53q-38 0 -59.5 -31t-28.5 -98h-121q8 131 59 204t137 73z" />
    <glyph glyph-name="odieresis" unicode="&#xf6;" horiz-adv-x="1325" 
d="M664 1092q258 0 430 -158q170 -156 170 -399q0 -244 -172 -400q-172 -158 -428 -158q-263 0 -433 156t-170 402q0 243 170 399q172 158 433 158zM664 932q-188 0 -308 -111q-118 -109 -118 -286q0 -178 118 -287q120 -111 308 -111q183 0 303 111q118 109 118 287
q0 177 -118 286q-120 111 -303 111zM532 1249h-204v213h204v-213zM995 1249h-204v213h204v-213z" />
    <glyph glyph-name="divide" unicode="&#xf7;" 
d="M930 1090h-225v219h225v-219zM1520 639h-1401v164h1401v-164zM930 133h-225v221h225v-221z" />
    <glyph glyph-name="oslash" unicode="&#xf8;" horiz-adv-x="1325" 
d="M61 535q0 243 170 399q175 158 433 158q209 0 366 -109l129 129l101 -96l-125 -125q129 -150 129 -356q0 -244 -172 -400q-172 -158 -428 -158q-205 0 -369 107l-127 -127l-100 96l122 125q-129 150 -129 357zM664 938q-191 0 -310 -113q-118 -109 -118 -290
q0 -141 79 -246l592 585q-106 64 -243 64zM664 133q187 0 307 111q121 115 121 291q0 140 -80 247l-592 -585q106 -64 244 -64z" />
    <glyph glyph-name="ugrave" unicode="&#xf9;" horiz-adv-x="1314" 
d="M997 1071h185v-1071h-185v184q-143 -207 -411 -207q-215 0 -338 132t-123 358v604h184v-584q0 -165 83 -252.5t241 -87.5q164 0 264 102t100 269v553zM563 1470l201 -284h-156l-289 284h244z" />
    <glyph glyph-name="uacute" unicode="&#xfa;" horiz-adv-x="1314" 
d="M997 1071h185v-1071h-185v184q-143 -207 -411 -207q-215 0 -338 132t-123 358v604h184v-584q0 -165 83 -252.5t241 -87.5q164 0 264 102t100 269v553zM700 1186h-155l200 284h244z" />
    <glyph glyph-name="ucircumflex" unicode="&#xfb;" horiz-adv-x="1314" 
d="M997 1071h185v-1071h-185v184q-143 -207 -411 -207q-215 0 -338 132t-123 358v604h184v-584q0 -165 83 -252.5t241 -87.5q164 0 264 102t100 269v553zM553 1470h201l264 -284h-152l-213 160l-213 -160h-151z" />
    <glyph glyph-name="udieresis" unicode="&#xfc;" horiz-adv-x="1314" 
d="M997 1071h185v-1071h-185v184q-143 -207 -411 -207q-215 0 -338 132t-123 358v604h184v-584q0 -165 83 -252.5t241 -87.5q164 0 264 102t100 269v553zM524 1249h-205v213h205v-213zM987 1249h-205v213h205v-213z" />
    <glyph glyph-name="yacute" unicode="&#xfd;" horiz-adv-x="1275" 
d="M1280 1071l-604 -1190q-74 -143 -168 -205.5t-236 -62.5q-53 0 -108.5 10t-85.5 27l37 157q78 -34 149 -34q178 0 250 170l33 71l-551 1057h205l442 -870l436 870h201zM682 1186h-155l200 284h244z" />
    <glyph glyph-name="thorn" unicode="&#xfe;" horiz-adv-x="1415" 
d="M1354 535q0 -244 -164 -400q-166 -158 -422 -158q-145 0 -264 56t-187 155v-557h-184v1839h184v-587q68 98 187 153.5t264 55.5q256 0 422 -158q164 -156 164 -399zM745 936q-184 0 -309 -113q-127 -112 -127 -280v-15q0 -167 127 -282q126 -111 309 -111q190 0 310 111
q123 111 123 289q0 177 -123 288q-119 113 -310 113z" />
    <glyph glyph-name="ydieresis" unicode="&#xff;" horiz-adv-x="1275" 
d="M1280 1071l-604 -1190q-74 -143 -168 -205.5t-236 -62.5q-53 0 -108.5 10t-85.5 27l37 157q78 -34 149 -34q178 0 250 170l33 71l-551 1057h205l442 -870l436 870h201zM508 1249h-204v213h204v-213zM971 1249h-205v213h205v-213z" />
    <glyph glyph-name="Amacron" unicode="&#x100;" horiz-adv-x="1742" 
d="M-10 0l774 1470h215l772 -1470h-209l-213 408h-915l-215 -408h-209zM1239 580l-367 698l-368 -698h735zM1243 1751v-154h-745v154h745z" />
    <glyph glyph-name="amacron" unicode="&#x101;" horiz-adv-x="1308" 
d="M485 -23q-196 0 -313 87.5t-117 234.5q0 137 109 222t315 108l473 53v27q0 106 -83.5 165.5t-235.5 59.5q-135 0 -241.5 -58.5t-141.5 -150.5l-154 70q50 133 199 215t342 82q235 0 364 -100.5t129 -284.5v-484q0 -60 41 -78q20 -10 50 -10q35 0 82 12v-147
q-65 -10 -107 -10q-75 3 -125 26q-87 43 -102 146l-2 10q-72 -92 -200 -143.5t-282 -51.5zM500 129q188 0 319 82q133 83 133 217v107l-446 -52q-145 -17 -207.5 -59.5t-62.5 -122.5t70.5 -126t193.5 -46zM977 1389v-148h-680v148h680z" />
    <glyph glyph-name="Abreve" unicode="&#x102;" horiz-adv-x="1742" 
d="M-10 0l774 1470h215l772 -1470h-209l-213 408h-915l-215 -408h-209zM1239 580l-367 698l-368 -698h735zM870 1696q103 0 166.5 46.5t63.5 121.5h141q0 -136 -102 -218.5t-269 -82.5t-268.5 82.5t-101.5 218.5h141q0 -75 63 -121.5t166 -46.5z" />
    <glyph glyph-name="abreve" unicode="&#x103;" horiz-adv-x="1308" 
d="M485 -23q-196 0 -313 87.5t-117 234.5q0 137 109 222t315 108l473 53v27q0 106 -83.5 165.5t-235.5 59.5q-135 0 -241.5 -58.5t-141.5 -150.5l-154 70q50 133 199 215t342 82q235 0 364 -100.5t129 -284.5v-484q0 -60 41 -78q20 -10 50 -10q35 0 82 12v-147
q-65 -10 -107 -10q-75 3 -125 26q-87 43 -102 146l-2 10q-72 -92 -200 -143.5t-282 -51.5zM500 129q188 0 319 82q133 83 133 217v107l-446 -52q-145 -17 -207.5 -59.5t-62.5 -122.5t70.5 -126t193.5 -46zM647 1311q208 0 220 159h129q0 -135 -94 -213.5t-255 -78.5
t-254.5 78.5t-93.5 213.5h129q12 -159 219 -159z" />
    <glyph glyph-name="Aogonek" unicode="&#x104;" horiz-adv-x="1742" 
d="M1530 -381q-100 0 -163.5 45.5t-63.5 120.5q0 74 57 141.5t160 114.5l-191 367h-915l-215 -408h-209l774 1470h215l772 -1470h-84q-231 -81 -231 -182q0 -37 33.5 -57.5t93.5 -20.5q48 0 104 16v-118q-89 -19 -137 -19zM1239 580l-367 698l-368 -698h735z" />
    <glyph glyph-name="aogonek" unicode="&#x105;" horiz-adv-x="1308" 
d="M485 -23q-196 0 -313 87.5t-117 234.5q0 137 109 222t315 108l473 53v27q0 106 -83.5 165.5t-235.5 59.5q-135 0 -241.5 -58.5t-141.5 -150.5l-154 70q50 133 199 215t342 82q235 0 364 -100.5t129 -284.5v-484q0 -60 41 -78q20 -10 50 -10q36 3 82 12v-147
q-232 -82 -232 -182q0 -37 33.5 -57.5t93.5 -20.5q49 0 105 16v-118q-89 -19 -138 -19q-100 0 -163.5 45.5t-63.5 120.5q0 124 154 223q-51 19 -83.5 59t-39.5 95l-2 10q-72 -92 -200 -143.5t-282 -51.5zM500 129q188 0 319 82q133 83 133 217v107l-446 -52
q-145 -17 -207.5 -59.5t-62.5 -122.5t70.5 -126t193.5 -46z" />
    <glyph glyph-name="Cacute" unicode="&#x106;" horiz-adv-x="1703" 
d="M915 1317q-289 0 -477 -164q-184 -163 -184 -418q0 -257 184 -420q185 -161 477 -161q220 0 375.5 100.5t222.5 286.5l164 -86q-82 -224 -284.5 -351t-479.5 -127q-369 0 -614 216q-244 215 -244 542q0 328 244 543t614 215q277 0 479.5 -127t284.5 -350l-164 -86
q-67 186 -222.5 286.5t-375.5 100.5zM971 1567h-172l264 297h274z" />
    <glyph glyph-name="cacute" unicode="&#x107;" horiz-adv-x="1249" 
d="M668 934q-190 0 -310 -111t-120 -288q0 -176 120 -287t310 -111q146 0 254.5 77.5t144.5 203.5l150 -84q-52 -158 -201 -258q-147 -99 -346 -99q-265 0 -437 156t-172 402q0 243 172 399q175 158 437 158q200 0 346 -101q151 -99 203 -258l-152 -80q-36 126 -144.5 203.5
t-254.5 77.5zM731 1186h-156l201 284h244z" />
    <glyph glyph-name="Ccircumflex" unicode="&#x108;" horiz-adv-x="1703" 
d="M915 1317q-289 0 -477 -164q-184 -163 -184 -418q0 -257 184 -420q185 -161 477 -161q220 0 375.5 100.5t222.5 286.5l164 -86q-82 -224 -284.5 -351t-479.5 -127q-369 0 -614 216q-244 215 -244 542q0 328 244 543t614 215q277 0 479.5 -127t284.5 -350l-164 -86
q-67 186 -222.5 286.5t-375.5 100.5zM797 1864h221l293 -297h-162l-242 178l-241 -178h-162z" />
    <glyph glyph-name="ccircumflex" unicode="&#x109;" horiz-adv-x="1249" 
d="M668 934q-190 0 -310 -111t-120 -288q0 -176 120 -287t310 -111q146 0 254.5 77.5t144.5 203.5l150 -84q-52 -158 -201 -258q-147 -99 -346 -99q-265 0 -437 156t-172 402q0 243 172 399q175 158 437 158q200 0 346 -101q151 -99 203 -258l-152 -80q-36 126 -144.5 203.5
t-254.5 77.5zM563 1470h201l264 -284h-152l-213 160l-213 -160h-151z" />
    <glyph glyph-name="Cdotaccent" unicode="&#x10a;" horiz-adv-x="1703" 
d="M915 1317q-289 0 -477 -164q-184 -163 -184 -418q0 -257 184 -420q185 -161 477 -161q220 0 375.5 100.5t222.5 286.5l164 -86q-82 -224 -284.5 -351t-479.5 -127q-369 0 -614 216q-244 215 -244 542q0 328 244 543t614 215q277 0 479.5 -127t284.5 -350l-164 -86
q-67 186 -222.5 286.5t-375.5 100.5zM1006 1575h-205v213h205v-213z" />
    <glyph glyph-name="cdotaccent" unicode="&#x10b;" horiz-adv-x="1249" 
d="M668 934q-190 0 -310 -111t-120 -288q0 -176 120 -287t310 -111q146 0 254.5 77.5t144.5 203.5l150 -84q-52 -158 -201 -258q-147 -99 -346 -99q-265 0 -437 156t-172 402q0 243 172 399q175 158 437 158q200 0 346 -101q151 -99 203 -258l-152 -80q-36 126 -144.5 203.5
t-254.5 77.5zM764 1257h-201v213h201v-213z" />
    <glyph glyph-name="Ccaron" unicode="&#x10c;" horiz-adv-x="1703" 
d="M915 1317q-289 0 -477 -164q-184 -163 -184 -418q0 -257 184 -420q185 -161 477 -161q220 0 375.5 100.5t222.5 286.5l164 -86q-82 -224 -284.5 -351t-479.5 -127q-369 0 -614 216q-244 215 -244 542q0 328 244 543t614 215q277 0 479.5 -127t284.5 -350l-164 -86
q-67 186 -222.5 286.5t-375.5 100.5zM1315 1866l-293 -297h-221l-293 297h162l241 -178l242 178h162z" />
    <glyph glyph-name="ccaron" unicode="&#x10d;" horiz-adv-x="1249" 
d="M668 934q-190 0 -310 -111t-120 -288q0 -176 120 -287t310 -111q146 0 254.5 77.5t144.5 203.5l150 -84q-52 -158 -201 -258q-147 -99 -346 -99q-265 0 -437 156t-172 402q0 243 172 399q175 158 437 158q200 0 346 -101q151 -99 203 -258l-152 -80q-36 126 -144.5 203.5
t-254.5 77.5zM1038 1470l-264 -284h-201l-264 284h152l213 -159l213 159h151z" />
    <glyph glyph-name="Dcaron" unicode="&#x10e;" horiz-adv-x="1753" 
d="M877 0h-727v1470h727q370 0 596 -200q225 -200 225 -535t-225 -534q-227 -201 -596 -201zM342 1300v-1130h535q281 0 452 154q170 153 170 411q0 259 -170 412q-169 153 -455 153h-532zM1231 1866l-293 -297h-221l-293 297h162l241 -178l242 178h162z" />
    <glyph glyph-name="dcaron" unicode="&#x10f;" horiz-adv-x="1415" 
d="M647 -23q-258 0 -424 158q-162 155 -162 400q0 244 162 399q166 158 424 158q145 0 264 -55.5t187 -153.5v587h184v-1470h-184v188q-68 -99 -187 -155t-264 -56zM1106 528v15q0 168 -127 280q-125 113 -309 113q-190 0 -312 -113q-120 -111 -120 -288q0 -178 120 -289
q123 -111 312 -111q183 0 309 111q127 115 127 282zM1509 1110h-125l76 360h209z" />
    <glyph glyph-name="Dcroat" unicode="&#x110;" horiz-adv-x="1820" 
d="M944 0h-727v674h-207v170h207v626h727q370 0 596 -200q225 -200 225 -535t-225 -534q-227 -201 -596 -201zM410 674v-504h534q282 0 453 154q170 153 170 411q0 259 -170 412t-455 153h-532v-456h409v-170h-409z" />
    <glyph glyph-name="dslash" unicode="&#x111;" horiz-adv-x="1474" 
d="M647 -23q-258 0 -424 158q-162 155 -162 400q0 244 162 399q166 158 424 158q145 0 264 -55.5t187 -153.5v297h-379v147h379v143h184v-143h160v-147h-160v-1180h-184v188q-68 -99 -187 -155t-264 -56zM1106 528v15q0 168 -127 280q-125 113 -309 113q-190 0 -312 -113
q-120 -111 -120 -288q0 -178 120 -289q123 -111 312 -111q183 0 309 111q127 115 127 282z" />
    <glyph glyph-name="Emacron" unicode="&#x112;" horiz-adv-x="1591" 
d="M150 0v1470h1363v-172h-1171v-452h1055v-172h-1055v-502h1171v-172h-1363zM1206 1751v-154h-745v154h745z" />
    <glyph glyph-name="emacron" unicode="&#x113;" horiz-adv-x="1296" 
d="M670 -23q-266 0 -439 156q-170 156 -170 402q0 243 170 399q175 158 439 158q255 0 411 -150q158 -152 158 -383v-72h-1003q15 -160 135 -254q122 -96 299 -96q147 0 256 69.5t147 186.5l150 -78q-51 -146 -205 -243q-151 -95 -348 -95zM662 936q-160 0 -273.5 -83
t-144.5 -224h815q-9 127 -123 215q-115 92 -274 92zM999 1389v-148h-680v148h680z" />
    <glyph glyph-name="Ebreve" unicode="&#x114;" horiz-adv-x="1591" 
d="M150 0v1470h1363v-172h-1171v-452h1055v-172h-1055v-502h1171v-172h-1363zM834 1696q103 0 166 46.5t63 121.5h141q0 -136 -101.5 -218.5t-268.5 -82.5t-269 82.5t-102 218.5h141q0 -75 63.5 -121.5t166.5 -46.5z" />
    <glyph glyph-name="ebreve" unicode="&#x115;" horiz-adv-x="1296" 
d="M670 -23q-266 0 -439 156q-170 156 -170 402q0 243 170 399q175 158 439 158q255 0 411 -150q158 -152 158 -383v-72h-1003q15 -160 135 -254q122 -96 299 -96q147 0 256 69.5t147 186.5l150 -78q-51 -146 -205 -243q-151 -95 -348 -95zM662 936q-160 0 -273.5 -83
t-144.5 -224h815q-9 127 -123 215q-115 92 -274 92zM665 1311q208 0 220 159h129q0 -135 -94 -213.5t-255 -78.5t-254.5 78.5t-93.5 213.5h129q12 -159 219 -159z" />
    <glyph glyph-name="Edotaccent" unicode="&#x116;" horiz-adv-x="1591" 
d="M150 0v1470h1363v-172h-1171v-452h1055v-172h-1055v-502h1171v-172h-1363zM936 1575h-205v213h205v-213z" />
    <glyph glyph-name="edotaccent" unicode="&#x117;" horiz-adv-x="1296" 
d="M670 -23q-266 0 -439 156q-170 156 -170 402q0 243 170 399q175 158 439 158q255 0 411 -150q158 -152 158 -383v-72h-1003q15 -160 135 -254q122 -96 299 -96q147 0 256 69.5t147 186.5l150 -78q-51 -146 -205 -243q-151 -95 -348 -95zM662 936q-160 0 -273.5 -83
t-144.5 -224h815q-9 127 -123 215q-115 92 -274 92zM758 1257h-201v213h201v-213z" />
    <glyph glyph-name="Eogonek" unicode="&#x118;" horiz-adv-x="1591" 
d="M1217 -381q-101 0 -164.5 46t-63.5 120q0 123 141 215h-980v1470h1363v-172h-1171v-452h1055v-172h-1055v-502h1171v-172h-159q-232 -82 -232 -182q0 -37 33.5 -57.5t93.5 -20.5q49 0 105 16v-118q-89 -19 -137 -19z" />
    <glyph glyph-name="eogonek" unicode="&#x119;" horiz-adv-x="1296" 
d="M930 27q-199 -87 -199 -189q0 -47 33.5 -72.5t93.5 -25.5q49 0 105 16v-118q-89 -19 -138 -19q-101 0 -164 51t-63 135q0 92 80 172h-8q-266 0 -439 156q-170 156 -170 402q0 243 170 399q175 158 439 158q255 0 411 -150q158 -152 158 -383v-72h-1003q15 -160 135 -254
q122 -96 299 -96q147 0 256 69.5t147 186.5l150 -78q-30 -91 -106.5 -165.5t-186.5 -122.5zM662 936q-160 0 -273.5 -83.5t-144.5 -223.5h815q-9 125 -125 215q-115 92 -272 92z" />
    <glyph glyph-name="Ecaron" unicode="&#x11a;" horiz-adv-x="1591" 
d="M150 0v1470h1363v-172h-1171v-452h1055v-172h-1055v-502h1171v-172h-1363zM1237 1866l-293 -297h-221l-293 297h162l242 -178l241 178h162z" />
    <glyph glyph-name="ecaron" unicode="&#x11b;" horiz-adv-x="1296" 
d="M670 -23q-266 0 -439 156q-170 156 -170 402q0 243 170 399q175 158 439 158q255 0 411 -150q158 -152 158 -383v-72h-1003q15 -160 135 -254q122 -96 299 -96q147 0 256 69.5t147 186.5l150 -78q-51 -146 -205 -243q-151 -95 -348 -95zM662 936q-160 0 -273.5 -83
t-144.5 -224h815q-9 127 -123 215q-115 92 -274 92zM1034 1470l-264 -284h-201l-264 284h152l213 -159l213 159h151z" />
    <glyph glyph-name="Gcircumflex" unicode="&#x11c;" horiz-adv-x="1810" 
d="M1698 0h-185v256q-69 -123 -235 -201q-160 -75 -369 -78q-367 0 -612 213q-242 214 -242 547q0 331 244 543q245 213 619 213q277 0 481 -127q204 -125 284 -348l-165 -88q-68 186 -223.5 286.5t-376.5 100.5q-295 0 -478 -162q-184 -159 -184 -418q0 -258 182 -422
q179 -161 471 -161q258 0 432 125q177 127 183 313h-721v172h895v-764zM807 1864h221l293 -297h-162l-241 178l-242 -178h-162z" />
    <glyph glyph-name="gcircumflex" unicode="&#x11d;" horiz-adv-x="1406" 
d="M1274 1071v-934q0 -240 -174 -383q-174 -145 -449 -145q-213 0 -368 81t-217 224l149 94q44 -115 160 -180.5t272 -65.5q202 0 322.5 98t120.5 263v90q-72 -99 -188.5 -153t-258.5 -54q-259 0 -424 154q-164 153 -164 391q0 237 164 387q165 154 424 154q141 0 258 -54
t189 -151v184h184zM1098 547v8q0 165 -127 274t-307 109q-189 0 -310 -109t-121 -278q0 -172 121 -281q118 -106 310 -106q183 0 307 106q127 109 127 277zM582 1470h200l265 -284h-152l-213 160l-213 -160h-152z" />
    <glyph glyph-name="Gbreve" unicode="&#x11e;" horiz-adv-x="1810" 
d="M1698 0h-185v256q-69 -123 -235 -201q-160 -75 -369 -78q-367 0 -612 213q-242 214 -242 547q0 331 244 543q245 213 619 213q277 0 481 -127q204 -125 284 -348l-165 -88q-68 186 -223.5 286.5t-376.5 100.5q-295 0 -478 -162q-184 -159 -184 -418q0 -258 182 -422
q179 -161 471 -161q258 0 432 125q177 127 183 313h-721v172h895v-764zM918 1696q103 0 166 46.5t63 121.5h141q0 -136 -101.5 -218.5t-268.5 -82.5t-269 82.5t-102 218.5h141q0 -75 63.5 -121.5t166.5 -46.5z" />
    <glyph glyph-name="gbreve" unicode="&#x11f;" horiz-adv-x="1406" 
d="M1274 1071v-934q0 -240 -174 -383q-174 -145 -449 -145q-213 0 -368 81t-217 224l149 94q44 -115 160 -180.5t272 -65.5q202 0 322.5 98t120.5 263v90q-72 -99 -188.5 -153t-258.5 -54q-259 0 -424 154q-164 153 -164 391q0 237 164 387q165 154 424 154q141 0 258 -54
t189 -151v184h184zM1098 547v8q0 165 -127 274t-307 109q-189 0 -310 -109t-121 -278q0 -172 121 -281q118 -106 310 -106q183 0 307 106q127 109 127 277zM688 1311q208 0 220 159h129q0 -135 -94 -213.5t-255 -78.5t-254.5 78.5t-93.5 213.5h129q12 -159 219 -159z" />
    <glyph glyph-name="Gdotaccent" unicode="&#x120;" horiz-adv-x="1810" 
d="M1698 0h-185v256q-69 -123 -235 -201q-160 -75 -369 -78q-367 0 -612 213q-242 214 -242 547q0 331 244 543q245 213 619 213q277 0 481 -127q204 -125 284 -348l-165 -88q-68 186 -223.5 286.5t-376.5 100.5q-295 0 -478 -162q-184 -159 -184 -418q0 -258 182 -422
q179 -161 471 -161q258 0 432 125q177 127 183 313h-721v172h895v-764zM1020 1575h-205v213h205v-213z" />
    <glyph glyph-name="gdotaccent" unicode="&#x121;" horiz-adv-x="1406" 
d="M1274 1071v-934q0 -240 -174 -383q-174 -145 -449 -145q-213 0 -368 81t-217 224l149 94q44 -115 160 -180.5t272 -65.5q202 0 322.5 98t120.5 263v90q-72 -99 -188.5 -153t-258.5 -54q-259 0 -424 154q-164 153 -164 391q0 237 164 387q165 154 424 154q141 0 258 -54
t189 -151v184h184zM1098 547v8q0 165 -127 274t-307 109q-189 0 -310 -109t-121 -278q0 -172 121 -281q118 -106 310 -106q183 0 307 106q127 109 127 277zM788 1257h-200v213h200v-213z" />
    <glyph glyph-name="Gcommaaccent" unicode="&#x122;" horiz-adv-x="1810" 
d="M1698 0h-185v256q-69 -123 -235 -201q-160 -75 -369 -78q-367 0 -612 213q-242 214 -242 547q0 331 244 543q245 213 619 213q277 0 481 -127q204 -125 284 -348l-165 -88q-68 186 -223.5 286.5t-376.5 100.5q-295 0 -478 -162q-184 -159 -184 -418q0 -258 182 -422
q179 -161 471 -161q258 0 432 125q177 127 183 313h-721v172h895v-764zM874 -236h-79v148h198v-125q0 -86 -60.5 -138t-160.5 -52v84q52 2 76.5 21.5t25.5 61.5z" />
    <glyph glyph-name="gcommaaccent" unicode="&#x123;" horiz-adv-x="1406" 
d="M1274 1071v-934q0 -240 -174 -383q-174 -145 -449 -145q-213 0 -368 81t-217 224l149 94q44 -115 160 -180.5t272 -65.5q202 0 322.5 98t120.5 263v90q-72 -99 -188.5 -153t-258.5 -54q-259 0 -424 154q-164 153 -164 391q0 237 164 387q165 154 424 154q141 0 258 -54
t189 -151v184h184zM1098 547v8q0 165 -127 274t-307 109q-189 0 -310 -109t-121 -278q0 -172 121 -281q118 -106 310 -106q183 0 307 106q127 109 127 277zM711 1333h80v-147h-199v125q0 86 60.5 138t160.5 52v-84q-51 -2 -76 -22t-26 -62z" />
    <glyph glyph-name="Hcircumflex" unicode="&#x124;" horiz-adv-x="1800" 
d="M1456 846v624h195v-1470h-195v674h-1110v-674h-196v1470h196v-624h1110zM776 1864h221l293 -297h-162l-241 178l-242 -178h-162z" />
    <glyph glyph-name="hcircumflex" unicode="&#x125;" horiz-adv-x="1325" 
d="M317 0h-184v1470h184v-587q66 99 177 154t245 55q215 0 339 -134t124 -362v-596h-186v567q0 166 -86.5 260.5t-241.5 94.5q-163 0 -268 -105q-103 -103 -103 -270v-547zM539 1864h221l293 -297h-162l-242 178l-241 -178h-162z" />
    <glyph glyph-name="Hbar" unicode="&#x126;" horiz-adv-x="1882" 
d="M1890 1161v-168h-198v-993h-195v563h-1110v-563h-197v993h-190v168h190v309h197v-309h1110v309h195v-309h198zM387 993v-260h1110v260h-1110z" />
    <glyph glyph-name="hbar" unicode="&#x127;" horiz-adv-x="1386" 
d="M377 0h-184v1180h-160v147h160v143h184v-143h379v-147h-379v-297q66 99 177 154t245 55q215 0 339 -134t124 -362v-596h-187v567q0 166 -86 260.5t-241 94.5q-164 0 -269 -105q-102 -102 -102 -270v-547z" />
    <glyph glyph-name="Itilde" unicode="&#x128;" horiz-adv-x="495" 
d="M150 1470h196v-1470h-196v1470zM47 1853q58 0 108 -15t128 -60q59 -34 90.5 -45t62.5 -11q43 0 68 32t35 101h131q-11 -134 -69.5 -210t-154.5 -76q-52 0 -102 16t-131 60q-58 35 -90 46t-64 11q-87 0 -102 -133h-131q11 134 69 209t152 75z" />
    <glyph glyph-name="itilde" unicode="&#x129;" horiz-adv-x="450" 
d="M133 1071h184v-1071h-184v1071zM55 1473q43 0 86.5 -16t114.5 -62q56 -33 80.5 -43.5t44.5 -10.5q38 0 59 30t31 102h121q-11 -130 -63 -203.5t-136 -73.5q-44 0 -86.5 15.5t-111.5 60.5q-91 53 -127 53q-38 0 -59.5 -31t-28.5 -98h-121q8 131 59 204t137 73z" />
    <glyph glyph-name="Imacron" unicode="&#x12a;" horiz-adv-x="495" 
d="M150 1470h196v-1470h-196v1470zM621 1751v-154h-746v154h746z" />
    <glyph glyph-name="imacron" unicode="&#x12b;" horiz-adv-x="450" 
d="M133 1071h184v-1071h-184v1071zM565 1389v-148h-680v148h680z" />
    <glyph glyph-name="Ibreve" unicode="&#x12c;" horiz-adv-x="495" 
d="M150 1470h196v-1470h-196v1470zM248 1696q103 0 166 46.5t63 121.5h141q0 -136 -101.5 -218.5t-268.5 -82.5t-269 82.5t-102 218.5h141q0 -75 63.5 -121.5t166.5 -46.5z" />
    <glyph glyph-name="ibreve" unicode="&#x12d;" horiz-adv-x="450" 
d="M133 1071h184v-1071h-184v1071zM225 1311q208 0 220 159h129q0 -135 -94 -213.5t-255 -78.5t-254.5 78.5t-93.5 213.5h129q12 -159 219 -159z" />
    <glyph glyph-name="Iogonek" unicode="&#x12e;" horiz-adv-x="495" 
d="M207 -381q-100 0 -163.5 45.5t-63.5 120.5q0 66 44 126.5t126 104.5v1454h196v-1470h-2q-231 -81 -231 -182q0 -37 33.5 -57.5t93.5 -20.5q48 0 104 16v-118q-89 -19 -137 -19z" />
    <glyph glyph-name="iogonek" unicode="&#x12f;" horiz-adv-x="450" 
d="M125 1470h201v-213h-201v213zM-47 -215q0 138 180 238v1048h184v-1071q-231 -82 -231 -182q0 -38 33 -58t94 -20q57 0 104 16v-118q-78 -19 -137 -19q-97 0 -162 44.5t-65 121.5z" />
    <glyph glyph-name="Idot" unicode="&#x130;" horiz-adv-x="495" 
d="M150 1470h196v-1470h-196v1470zM350 1575h-205v213h205v-213z" />
    <glyph glyph-name="dotlessi" unicode="&#x131;" horiz-adv-x="450" 
d="M133 1071h184v-1071h-184v1071z" />
    <glyph glyph-name="Jcircumflex" unicode="&#x134;" horiz-adv-x="1423" 
d="M659 -23q-239 0 -428 121q-181 121 -241 318l182 92q40 -158 174 -258q131 -98 313 -98q216 0 340.5 110.5t124.5 304.5v903h197v-909q0 -259 -184 -422q-180 -162 -478 -162zM1108 1864h221l293 -297h-162l-241 178l-242 -178h-162z" />
    <glyph glyph-name="jcircumflex" unicode="&#x135;" horiz-adv-x="450" 
d="M-88 -221q117 0 169 48.5t52 154.5v1089h184v-1083q0 -180 -102.5 -275.5t-294.5 -95.5q-106 0 -205 35l31 155q80 -28 166 -28zM125 1470h201l264 -284h-152l-213 160l-213 -160h-151z" />
    <glyph glyph-name="Kcommaaccent" unicode="&#x136;" horiz-adv-x="1642" 
d="M150 1470h196v-788l981 788h283l-805 -632l862 -838h-266l-742 723l-313 -246v-477h-196v1470zM846 -236h-80v148h199v-125q0 -86 -61 -138t-161 -52v84q52 2 77 21.5t26 61.5z" />
    <glyph glyph-name="kcommaaccent" unicode="&#x137;" horiz-adv-x="1282" 
d="M133 1470h184v-972l699 573h262l-567 -457l598 -614h-238l-493 506l-261 -211v-295h-184v1470zM670 -236h-80v148h198v-125q0 -86 -60.5 -138t-160.5 -52v84q52 2 77 21.5t26 61.5z" />
    <glyph glyph-name="kgreenlandic" unicode="&#x138;" horiz-adv-x="1282" 
d="M133 1071h184v-573l699 573h262l-567 -457l598 -614h-238l-493 506l-261 -211v-295h-184v1071z" />
    <glyph glyph-name="Lacute" unicode="&#x139;" horiz-adv-x="1501" 
d="M1462 0h-1312v1470h196v-1298h1116v-172zM334 1567h-172l264 297h274z" />
    <glyph glyph-name="lacute" unicode="&#x13a;" horiz-adv-x="450" 
d="M133 1470h184v-1470h-184v1470zM313 1567h-172l265 297h274z" />
    <glyph glyph-name="Lcommaaccent" unicode="&#x13b;" horiz-adv-x="1501" 
d="M1462 0h-1312v1470h196v-1298h1116v-172zM676 -236h-80v148h199v-125q0 -86 -61 -138t-161 -52v84q52 2 77 21.5t26 61.5z" />
    <glyph glyph-name="lcommaaccent" unicode="&#x13c;" horiz-adv-x="450" 
d="M133 1470h184v-1470h-184v1470zM205 -236h-80v148h199v-125q0 -86 -61 -138t-161 -52v84q52 2 77 21.5t26 61.5z" />
    <glyph glyph-name="Lcaron" unicode="&#x13d;" horiz-adv-x="1501" 
d="M1462 0h-1312v1470h196v-1298h1116v-172zM809 1110h-125l76 360h209z" />
    <glyph glyph-name="lcaron" unicode="&#x13e;" horiz-adv-x="450" 
d="M133 1470h184v-1470h-184v1470zM547 1110h-125l76 360h209z" />
    <glyph glyph-name="Ldot" unicode="&#x13f;" horiz-adv-x="1501" 
d="M1462 0h-1312v1470h196v-1298h1116v-172zM1098 639h-201v213h201v-213z" />
    <glyph glyph-name="ldot" unicode="&#x140;" horiz-adv-x="778" 
d="M133 1470h184v-1470h-184v1470zM715 639h-201v213h201v-213z" />
    <glyph glyph-name="Lslash" unicode="&#x141;" horiz-adv-x="1542" 
d="M1503 0h-1313v541l-202 -76v166l202 76v763h197v-702l473 170v-166l-473 -170v-430h1116v-172z" />
    <glyph glyph-name="lslash" unicode="&#x142;" horiz-adv-x="638" 
d="M637 1071v-174l-225 -127v-770h-185v678l-221 -127v174l221 125v620h185v-528z" />
    <glyph glyph-name="Nacute" unicode="&#x143;" horiz-adv-x="1773" 
d="M1436 1470h188v-1470h-174l-1112 1231v-1231h-188v1470h208l1078 -1189v1189zM926 1567h-172l264 297h274z" />
    <glyph glyph-name="nacute" unicode="&#x144;" horiz-adv-x="1325" 
d="M317 0h-184v1071h184v-188q66 99 177 154t245 55q215 0 339 -134t124 -362v-596h-186v567q0 166 -86.5 260.5t-241.5 94.5q-163 0 -268 -105q-103 -103 -103 -270v-547zM735 1186h-155l200 284h244z" />
    <glyph glyph-name="Ncommaaccent" unicode="&#x145;" horiz-adv-x="1773" 
d="M1436 1470h188v-1470h-174l-1112 1231v-1231h-188v1470h208l1078 -1189v1189zM860 -236h-80v148h199v-125q0 -86 -60.5 -138t-160.5 -52v84q52 2 76.5 21.5t25.5 61.5z" />
    <glyph glyph-name="ncommaaccent" unicode="&#x146;" horiz-adv-x="1325" 
d="M317 0h-184v1071h184v-188q66 99 177 154t245 55q215 0 339 -134t124 -362v-596h-186v567q0 166 -86.5 260.5t-241.5 94.5q-163 0 -268 -105q-103 -103 -103 -270v-547zM653 -236h-80v148h199v-125q0 -86 -60.5 -138t-160.5 -52v84q52 2 76.5 21.5t25.5 61.5z" />
    <glyph glyph-name="Ncaron" unicode="&#x147;" horiz-adv-x="1773" 
d="M1436 1470h188v-1470h-174l-1112 1231v-1231h-188v1470h208l1078 -1189v1189zM1303 1866l-293 -297h-222l-292 297h161l242 -178l242 178h162z" />
    <glyph glyph-name="ncaron" unicode="&#x148;" horiz-adv-x="1325" 
d="M317 0h-184v1071h184v-188q66 99 177 154t245 55q215 0 339 -134t124 -362v-596h-186v567q0 166 -86.5 260.5t-241.5 94.5q-163 0 -268 -105q-103 -103 -103 -270v-547zM1040 1470l-264 -284h-201l-264 284h152l213 -159l213 159h151z" />
    <glyph glyph-name="Eng" unicode="&#x14a;" horiz-adv-x="1773" 
d="M1436 287v1183h188v-1482q0 -180 -102.5 -275.5t-294.5 -95.5q-106 0 -205 35l31 155q77 -28 166 -28q113 0 167 46.5t54 143.5v49l-1102 1203v-1221h-188v1470h208z" />
    <glyph glyph-name="eng" unicode="&#x14b;" horiz-adv-x="1325" 
d="M739 1092q215 0 339 -134t124 -362v-608q0 -180 -102.5 -275.5t-294.5 -95.5q-108 0 -207 35l31 155q80 -28 166 -28q117 0 169 48.5t52 154.5v585q0 166 -86.5 260.5t-241.5 94.5q-163 0 -268 -105q-103 -103 -103 -270v-547h-184v1071h184v-188q66 99 177 154t245 55z
" />
    <glyph glyph-name="Omacron" unicode="&#x14c;" horiz-adv-x="1818" 
d="M909 -23q-367 0 -612 213q-242 214 -242 545q0 332 242 543q244 215 612 215q369 0 613 -215q241 -210 241 -543q0 -332 -241 -545q-245 -213 -613 -213zM909 154q292 0 471 161q183 165 183 420t-183 420q-180 162 -471 162q-293 0 -473 -162q-182 -164 -182 -420
t182 -420q179 -161 473 -161zM1282 1751v-154h-745v154h745z" />
    <glyph glyph-name="omacron" unicode="&#x14d;" horiz-adv-x="1325" 
d="M664 1092q258 0 430 -158q170 -156 170 -399q0 -244 -172 -400q-172 -158 -428 -158q-263 0 -433 156t-170 402q0 243 170 399q172 158 433 158zM664 932q-188 0 -308 -111q-118 -109 -118 -286q0 -178 118 -287q120 -111 308 -111q183 0 303 111q118 109 118 287
q0 177 -118 286q-120 111 -303 111zM1001 1389v-148h-679v148h679z" />
    <glyph glyph-name="Obreve" unicode="&#x14e;" horiz-adv-x="1818" 
d="M909 -23q-367 0 -612 213q-242 214 -242 545q0 332 242 543q244 215 612 215q369 0 613 -215q241 -210 241 -543q0 -332 -241 -545q-245 -213 -613 -213zM909 154q292 0 471 161q183 165 183 420t-183 420q-180 162 -471 162q-293 0 -473 -162q-182 -164 -182 -420
t182 -420q179 -161 473 -161zM909 1696q103 0 166.5 46.5t63.5 121.5h141q0 -136 -102 -218.5t-269 -82.5t-268.5 82.5t-101.5 218.5h141q0 -75 63 -121.5t166 -46.5z" />
    <glyph glyph-name="obreve" unicode="&#x14f;" horiz-adv-x="1325" 
d="M664 1092q258 0 430 -158q170 -156 170 -399q0 -244 -172 -400q-172 -158 -428 -158q-263 0 -433 156t-170 402q0 243 170 399q172 158 433 158zM664 932q-188 0 -308 -111q-118 -109 -118 -286q0 -178 118 -287q120 -111 308 -111q183 0 303 111q118 109 118 287
q0 177 -118 286q-120 111 -303 111zM661 1311q208 0 220 159h129q0 -135 -94 -213.5t-255 -78.5t-254.5 78.5t-93.5 213.5h129q12 -159 219 -159z" />
    <glyph glyph-name="Ohungarumlaut" unicode="&#x150;" horiz-adv-x="1818" 
d="M909 -23q-367 0 -612 213q-242 214 -242 545q0 332 242 543q244 215 612 215q369 0 613 -215q241 -210 241 -543q0 -332 -241 -545q-245 -213 -613 -213zM909 154q292 0 471 161q183 165 183 420t-183 420q-180 162 -471 162q-293 0 -473 -162q-182 -164 -182 -420
t182 -420q179 -161 473 -161zM1174 1567h-144l232 297h233zM758 1567h-144l220 297h245z" />
    <glyph glyph-name="ohungarumlaut" unicode="&#x151;" horiz-adv-x="1325" 
d="M664 1092q258 0 430 -158q170 -156 170 -399q0 -244 -172 -400q-172 -158 -428 -158q-263 0 -433 156t-170 402q0 243 170 399q172 158 433 158zM664 932q-188 0 -308 -111q-118 -109 -118 -286q0 -178 118 -287q120 -111 308 -111q183 0 303 111q118 109 118 287
q0 177 -118 286q-120 111 -303 111zM889 1186h-139l200 284h215zM524 1186h-139l201 284h215z" />
    <glyph glyph-name="OE" unicode="&#x152;" horiz-adv-x="2807" 
d="M61 735q0 336 224 535q226 200 598 200h1847v-172h-1145v-452h1028v-172h-1028v-502h1145v-172h-1847q-371 0 -598 201q-224 199 -224 534zM1393 170v1130h-508q-285 0 -455 -153q-168 -152 -168 -412q0 -259 168 -411q171 -154 453 -154h510z" />
    <glyph glyph-name="oe" unicode="&#x153;" horiz-adv-x="2320" 
d="M2099 393l150 -78q-51 -146 -205 -243q-151 -95 -350 -95q-169 0 -306 71t-212 196q-75 -125 -211.5 -196t-300.5 -71q-263 0 -433 156t-170 402q0 243 170 399q172 158 433 158q166 0 301.5 -71t210.5 -198q78 128 214 198.5t306 70.5q253 0 409 -150q158 -152 158 -383
v-72h-1001q15 -160 135 -254q122 -96 297 -96q149 0 256.5 68.5t148.5 187.5zM1688 936q-160 0 -273.5 -83.5t-144.5 -223.5h815q-9 125 -125 215q-115 92 -272 92zM238 535q0 -178 118 -287q120 -111 308 -111q183 0 303 111q118 109 118 287q0 177 -118 286
q-120 111 -303 111q-188 0 -308 -111q-118 -109 -118 -286z" />
    <glyph glyph-name="Racute" unicode="&#x154;" horiz-adv-x="1640" 
d="M981 616h-635v-616h-196v1470h919q242 0 381 -113t139 -313q0 -170 -103 -279t-290 -138l424 -627h-225zM346 1300v-514h713q160 0 249 67.5t89 190.5q0 121 -89 188.5t-249 67.5h-713zM846 1567h-172l264 297h274z" />
    <glyph glyph-name="racute" unicode="&#x155;" horiz-adv-x="872" 
d="M731 1079q63 0 121 -14v-184q-72 16 -125 16q-189 0 -299.5 -105t-110.5 -288v-504h-184v1071h184v-225q133 233 414 233zM545 1186h-156l201 284h244z" />
    <glyph glyph-name="Rcommaaccent" unicode="&#x156;" horiz-adv-x="1640" 
d="M981 616h-635v-616h-196v1470h919q242 0 381 -113t139 -313q0 -170 -103 -279t-290 -138l424 -627h-225zM346 1300v-514h713q160 0 249 67.5t89 190.5q0 121 -89 188.5t-249 67.5h-713zM809 -236h-80v148h199v-125q0 -86 -60.5 -138t-160.5 -52v84q52 2 76.5 21.5
t25.5 61.5z" />
    <glyph glyph-name="rcommaaccent" unicode="&#x157;" horiz-adv-x="872" 
d="M731 1079q63 0 121 -14v-184q-72 16 -125 16q-189 0 -299.5 -105t-110.5 -288v-504h-184v1071h184v-225q133 233 414 233zM205 -236h-80v148h199v-125q0 -86 -61 -138t-161 -52v84q52 2 77 21.5t26 61.5z" />
    <glyph glyph-name="Rcaron" unicode="&#x158;" horiz-adv-x="1640" 
d="M981 616h-635v-616h-196v1470h919q242 0 381 -113t139 -313q0 -170 -103 -279t-290 -138l424 -627h-225zM346 1300v-514h713q160 0 249 67.5t89 190.5q0 121 -89 188.5t-249 67.5h-713zM1214 1866l-292 -297h-222l-292 297h161l242 -178l242 178h161z" />
    <glyph glyph-name="rcaron" unicode="&#x159;" horiz-adv-x="872" 
d="M731 1079q63 0 121 -14v-184q-72 16 -125 16q-189 0 -299.5 -105t-110.5 -288v-504h-184v1071h184v-225q133 233 414 233zM856 1470l-264 -284h-201l-264 284h152l213 -159l213 159h151z" />
    <glyph glyph-name="Sacute" unicode="&#x15a;" horiz-adv-x="1554" 
d="M807 -23q-275 0 -500 105q-224 108 -323 283l143 127q96 -163 276.5 -252.5t407.5 -89.5q226 0 363 73q139 77 139 197q0 88 -52.5 133.5t-185.5 71.5q-110 24 -346 47q-386 41 -516 125q-133 86 -133 254q0 195 180 317q180 125 471 125q252 0 447 -88q198 -88 288 -240
l-143 -114q-79 129 -236 199.5t-364 70.5q-208 0 -332.5 -69.5t-124.5 -182.5q0 -99 94 -145q91 -45 431 -80q326 -35 450 -78q139 -43 201.5 -120.5t62.5 -205.5q0 -210 -194 -336q-195 -127 -504 -127zM840 1567h-172l264 297h274z" />
    <glyph glyph-name="sacute" unicode="&#x15b;" horiz-adv-x="1161" 
d="M608 -23q-211 0 -370 72.5t-234 202.5l135 113q139 -232 467 -232q157 0 243.5 45t86.5 129q0 57 -35.5 87.5t-124.5 43.5q-30 7 -229 29q-282 35 -379 98q-98 67 -98 195q0 148 135 239q137 93 350 93q182 0 324.5 -64.5t212.5 -175.5l-125 -109q-60 94 -168 144.5
t-250 50.5q-141 0 -221 -43.5t-80 -118.5q0 -63 53 -90q55 -28 285 -55q149 -17 225 -31q55 -10 113 -29q194 -63 194 -249q0 -155 -145 -250t-365 -95zM643 1186h-155l200 284h244z" />
    <glyph glyph-name="Scircumflex" unicode="&#x15c;" horiz-adv-x="1554" 
d="M807 -23q-275 0 -500 105q-224 108 -323 283l143 127q96 -163 276.5 -252.5t407.5 -89.5q226 0 363 73q139 77 139 197q0 88 -52.5 133.5t-185.5 71.5q-110 24 -346 47q-386 41 -516 125q-133 86 -133 254q0 195 180 317q180 125 471 125q252 0 447 -88q198 -88 288 -240
l-143 -114q-79 129 -236 199.5t-364 70.5q-208 0 -332.5 -69.5t-124.5 -182.5q0 -99 94 -145q91 -45 431 -80q326 -35 450 -78q139 -43 201.5 -120.5t62.5 -205.5q0 -210 -194 -336q-195 -127 -504 -127zM657 1864h222l292 -297h-161l-242 178l-242 -178h-161z" />
    <glyph glyph-name="scircumflex" unicode="&#x15d;" horiz-adv-x="1161" 
d="M608 -23q-211 0 -370 72.5t-234 202.5l135 113q139 -232 467 -232q157 0 243.5 45t86.5 129q0 57 -35.5 87.5t-124.5 43.5q-30 7 -229 29q-282 35 -379 98q-98 67 -98 195q0 148 135 239q137 93 350 93q182 0 324.5 -64.5t212.5 -175.5l-125 -109q-60 94 -168 144.5
t-250 50.5q-141 0 -221 -43.5t-80 -118.5q0 -63 53 -90q55 -28 285 -55q149 -17 225 -31q55 -10 113 -29q194 -63 194 -249q0 -155 -145 -250t-365 -95zM473 1470h201l264 -284h-152l-213 160l-213 -160h-151z" />
    <glyph glyph-name="Scedilla" unicode="&#x15e;" horiz-adv-x="1554" 
d="M-16 365l143 127q96 -163 276.5 -252.5t407.5 -89.5q226 0 363 73q139 77 139 197q0 88 -52.5 133.5t-185.5 71.5q-110 24 -346 47q-386 41 -516 125q-133 86 -133 254q0 195 180 317q180 125 471 125q252 0 447 -88q198 -88 288 -240l-143 -114q-79 129 -236 199.5
t-364 70.5q-208 0 -332.5 -69.5t-124.5 -182.5q0 -99 94 -145q91 -45 431 -80q326 -35 450 -78q139 -43 201.5 -120.5t62.5 -205.5q0 -210 -194 -336q-195 -127 -504 -127h-6l-10 -32q97 -5 158 -50t61 -112q0 -75 -74 -123.5t-191 -48.5q-81 0 -150.5 21.5t-107.5 58.5
l70 96q72 -66 182 -66q135 0 135 70q0 37 -48.5 55t-157.5 23l32 113q-245 21 -436 122q-188 99 -280 261z" />
    <glyph glyph-name="scedilla" unicode="&#x15f;" horiz-adv-x="1161" 
d="M4 252l135 113q139 -232 467 -232q157 0 243.5 45t86.5 129q0 57 -35.5 87.5t-124.5 43.5q-30 7 -229 29q-282 35 -379 98q-98 67 -98 195q0 148 135 239q137 93 350 93q182 0 324.5 -64.5t212.5 -175.5l-125 -109q-60 94 -168 144.5t-250 50.5q-141 0 -221 -43.5
t-80 -118.5q0 -63 53 -90q55 -28 285 -55q149 -17 225 -31q55 -10 113 -29q194 -63 194 -249q0 -155 -145 -250t-365 -95h-26l-11 -32q97 -5 158.5 -50t61.5 -112q0 -75 -74 -123.5t-191 -48.5q-81 0 -150.5 21.5t-107.5 58.5l70 96q72 -66 182 -66q135 0 135 70
q0 37 -48.5 55t-157.5 23l34 115q-167 20 -291.5 89.5t-187.5 178.5z" />
    <glyph glyph-name="Scaron" unicode="&#x160;" horiz-adv-x="1554" 
d="M807 -23q-275 0 -500 105q-224 108 -323 283l143 127q96 -163 276.5 -252.5t407.5 -89.5q226 0 363 73q139 77 139 197q0 88 -52.5 133.5t-185.5 71.5q-110 24 -346 47q-386 41 -516 125q-133 86 -133 254q0 195 180 317q180 125 471 125q252 0 447 -88q198 -88 288 -240
l-143 -114q-79 129 -236 199.5t-364 70.5q-208 0 -332.5 -69.5t-124.5 -182.5q0 -99 94 -145q91 -45 431 -80q326 -35 450 -78q139 -43 201.5 -120.5t62.5 -205.5q0 -210 -194 -336q-195 -127 -504 -127zM1174 1866l-293 -297h-222l-292 297h161l242 -178l242 178h162z" />
    <glyph glyph-name="scaron" unicode="&#x161;" horiz-adv-x="1161" 
d="M608 -23q-211 0 -370 72.5t-234 202.5l135 113q139 -232 467 -232q157 0 243.5 45t86.5 129q0 57 -35.5 87.5t-124.5 43.5q-30 7 -229 29q-282 35 -379 98q-98 67 -98 195q0 148 135 239q137 93 350 93q182 0 324.5 -64.5t212.5 -175.5l-125 -109q-60 94 -168 144.5
t-250 50.5q-141 0 -221 -43.5t-80 -118.5q0 -63 53 -90q55 -28 285 -55q149 -17 225 -31q55 -10 113 -29q194 -63 194 -249q0 -155 -145 -250t-365 -95zM938 1470l-264 -284h-201l-264 284h151l213 -159l213 159h152z" />
    <glyph glyph-name="Tcommaaccent" unicode="&#x162;" horiz-adv-x="1646" 
d="M1071 -217q0 -75 -73.5 -123.5t-190.5 -48.5q-81 0 -150.5 21.5t-107.5 58.5l69 96q72 -66 183 -66q135 0 135 70q0 37 -49 55t-158 23l39 131h-43v1298h-694v172h1585v-172h-694v-1298h-54l-16 -55q97 -5 158 -50t61 -112z" />
    <glyph glyph-name="tcommaaccent" unicode="&#x163;" horiz-adv-x="1005" 
d="M258 336v577h-260v158h260v313h182v-313h496v-158h-496v-561q0 -104 59.5 -151t192.5 -47q116 0 250 49l33 -158q-143 -57 -311 -57q-46 0 -60 2l-14 -45q97 -5 158 -50t61 -112q0 -75 -73.5 -123.5t-190.5 -48.5q-81 0 -150.5 21.5t-107.5 58.5l69 96q72 -66 183 -66
q135 0 135 70q0 37 -49 55t-158 23l41 137q-250 62 -250 330z" />
    <glyph glyph-name="Tcaron" unicode="&#x164;" horiz-adv-x="1646" 
d="M1616 1470v-172h-694v-1298h-197v1298h-694v172h1585zM1227 1866l-293 -297h-221l-293 297h162l241 -178l242 178h162z" />
    <glyph glyph-name="tcaron" unicode="&#x165;" horiz-adv-x="1005" 
d="M664 -12q-197 0 -301.5 89t-104.5 259v577h-260v158h260v313h182v-313h496v-158h-496v-561q0 -104 59.5 -151t192.5 -47q116 0 250 49l33 -158q-143 -57 -311 -57zM670 1178h-125l76 360h208z" />
    <glyph glyph-name="Tbar" unicode="&#x166;" horiz-adv-x="1646" 
d="M1253 844v-172h-331v-672h-197v672h-332v172h332v454h-694v172h1585v-172h-694v-454h331z" />
    <glyph glyph-name="tbar" unicode="&#x167;" horiz-adv-x="1005" 
d="M664 -12q-197 0 -301.5 89t-104.5 259v190h-258v158h258v229h-260v158h260v313h182v-313h496v-158h-496v-229h496v-158h-496v-174q0 -104 59.5 -151t192.5 -47q116 0 250 49l33 -158q-143 -57 -311 -57z" />
    <glyph glyph-name="Utilde" unicode="&#x168;" horiz-adv-x="1681" 
d="M842 -20q-355 0 -546.5 187t-191.5 531v772h195v-765q0 -268 138.5 -408.5t404.5 -140.5q265 0 402.5 140t137.5 409v765h197v-772q0 -345 -191.5 -531.5t-545.5 -186.5zM641 1853q58 0 108 -15t128 -60q59 -34 90.5 -45t62.5 -11q43 0 68 32t35 101h131
q-11 -134 -69.5 -210t-154.5 -76q-52 0 -102 16t-131 60q-58 35 -90 46t-64 11q-87 0 -102 -133h-131q11 134 69 209t152 75z" />
    <glyph glyph-name="utilde" unicode="&#x169;" horiz-adv-x="1314" 
d="M997 1071h185v-1071h-185v184q-143 -207 -411 -207q-215 0 -338 132t-123 358v604h184v-584q0 -165 83 -252.5t241 -87.5q164 0 264 102t100 269v553zM483 1473q43 0 86.5 -16t114.5 -62q56 -33 80.5 -43.5t44.5 -10.5q38 0 59 30t31 102h121q-11 -130 -63 -203.5
t-136 -73.5q-44 0 -86.5 15.5t-111.5 60.5q-91 53 -127 53q-38 0 -59.5 -31t-28.5 -98h-121q8 131 59 204t137 73z" />
    <glyph glyph-name="Umacron" unicode="&#x16a;" horiz-adv-x="1681" 
d="M842 -20q-355 0 -546.5 187t-191.5 531v772h195v-765q0 -268 138.5 -408.5t404.5 -140.5q265 0 402.5 140t137.5 409v765h197v-772q0 -345 -191.5 -531.5t-545.5 -186.5zM1214 1751v-154h-745v154h745z" />
    <glyph glyph-name="umacron" unicode="&#x16b;" horiz-adv-x="1314" 
d="M997 1071h185v-1071h-185v184q-143 -207 -411 -207q-215 0 -338 132t-123 358v604h184v-584q0 -165 83 -252.5t241 -87.5q164 0 264 102t100 269v553zM993 1389v-148h-680v148h680z" />
    <glyph glyph-name="Ubreve" unicode="&#x16c;" horiz-adv-x="1681" 
d="M842 -20q-355 0 -546.5 187t-191.5 531v772h195v-765q0 -268 138.5 -408.5t404.5 -140.5q265 0 402.5 140t137.5 409v765h197v-772q0 -345 -191.5 -531.5t-545.5 -186.5zM842 1696q103 0 166 46.5t63 121.5h141q0 -136 -101.5 -218.5t-268.5 -82.5t-269 82.5t-102 218.5
h141q0 -75 63.5 -121.5t166.5 -46.5z" />
    <glyph glyph-name="ubreve" unicode="&#x16d;" horiz-adv-x="1314" 
d="M997 1071h185v-1071h-185v184q-143 -207 -411 -207q-215 0 -338 132t-123 358v604h184v-584q0 -165 83 -252.5t241 -87.5q164 0 264 102t100 269v553zM653 1311q208 0 220 159h129q0 -135 -94 -213.5t-255 -78.5t-254.5 78.5t-93.5 213.5h129q12 -159 219 -159z" />
    <glyph glyph-name="Uring" unicode="&#x16e;" horiz-adv-x="1681" 
d="M842 -20q-355 0 -546.5 187t-191.5 531v772h195v-765q0 -268 138.5 -408.5t404.5 -140.5q265 0 402.5 140t137.5 409v765h197v-772q0 -345 -191.5 -531.5t-545.5 -186.5zM842 1491q-99 0 -170 68q-70 70 -70 165q0 97 70 164q71 68 170 68q102 0 170.5 -66.5t68.5 -165.5
q0 -96 -69 -165q-71 -68 -170 -68zM842 1841q-49 0 -82 -33.5t-33 -83.5q0 -51 32.5 -83.5t82.5 -32.5t82 32.5t32 83.5q0 50 -32.5 83.5t-81.5 33.5z" />
    <glyph glyph-name="uring" unicode="&#x16f;" horiz-adv-x="1314" 
d="M997 1071h185v-1071h-185v184q-143 -207 -411 -207q-215 0 -338 132t-123 358v604h184v-584q0 -165 83 -252.5t241 -87.5q164 0 264 102t100 269v553zM653 1163q-88 0 -147.5 58.5t-59.5 144.5q0 85 59.5 142t147.5 57t147.5 -57t59.5 -142q0 -86 -59.5 -144.5
t-147.5 -58.5zM653 1468q-41 0 -71.5 -30.5t-30.5 -71.5q0 -43 30 -74.5t72 -31.5t72.5 31.5t30.5 74.5q0 41 -31 71.5t-72 30.5z" />
    <glyph glyph-name="Uhungarumlaut" unicode="&#x170;" horiz-adv-x="1681" 
d="M842 -20q-355 0 -546.5 187t-191.5 531v772h195v-765q0 -268 138.5 -408.5t404.5 -140.5q265 0 402.5 140t137.5 409v765h197v-772q0 -345 -191.5 -531.5t-545.5 -186.5zM1079 1567h-143l231 297h234zM664 1567h-144l219 297h246z" />
    <glyph glyph-name="uhungarumlaut" unicode="&#x171;" horiz-adv-x="1314" 
d="M997 1071h185v-1071h-185v184q-143 -207 -411 -207q-215 0 -338 132t-123 358v604h184v-584q0 -165 83 -252.5t241 -87.5q164 0 264 102t100 269v553zM854 1186h-139l200 284h215zM489 1186h-139l201 284h215z" />
    <glyph glyph-name="Uogonek" unicode="&#x172;" horiz-adv-x="1681" 
d="M1073 4q-115 -26 -180.5 -75t-65.5 -107q0 -38 34 -60t95 -22q49 0 105 16v-118q-93 -19 -137 -19q-101 0 -165.5 47.5t-64.5 124.5q0 51 27 101t74 88q-333 14 -512 199.5t-179 518.5v772h195v-765q0 -270 138.5 -409.5t404.5 -139.5t403 139.5t137 409.5v765h197v-772
q0 -283 -129 -460t-377 -234z" />
    <glyph glyph-name="uogonek" unicode="&#x173;" horiz-adv-x="1314" 
d="M1042 -381q-100 0 -163.5 45.5t-63.5 120.5q0 68 47.5 130.5t134.5 109.5v159q-143 -207 -411 -207q-215 0 -338 132t-123 358v604h184v-584q0 -165 83 -252.5t241 -87.5q164 0 264 102t100 269v553h185v-1071h-2q-232 -82 -232 -182q0 -37 33.5 -57.5t93.5 -20.5
q49 0 105 16v-118q-89 -19 -138 -19z" />
    <glyph glyph-name="Wcircumflex" unicode="&#x174;" horiz-adv-x="2387" 
d="M657 197l430 1273h218l428 -1273l460 1273h203l-543 -1470h-237l-422 1260l-424 -1260h-238l-540 1470h205zM1083 1864h222l292 -297h-161l-242 178l-242 -178h-161z" />
    <glyph glyph-name="wcircumflex" unicode="&#x175;" horiz-adv-x="1794" 
d="M514 227l307 844h160l307 -844l320 844h190l-426 -1071h-164l-311 829l-309 -829h-164l-428 1071h197zM797 1470h200l265 -284h-152l-213 160l-213 -160h-152z" />
    <glyph glyph-name="Ycircumflex" unicode="&#x176;" horiz-adv-x="1679" 
d="M221 1470l621 -675l620 675h242l-766 -829v-641h-195v641l-766 829h244zM733 1864h221l293 -297h-162l-241 178l-242 -178h-162z" />
    <glyph glyph-name="ycircumflex" unicode="&#x177;" horiz-adv-x="1275" 
d="M1280 1071l-604 -1190q-74 -143 -168 -205.5t-236 -62.5q-53 0 -108.5 10t-85.5 27l37 157q78 -34 149 -34q178 0 250 170l33 71l-551 1057h205l442 -870l436 870h201zM537 1470h201l264 -284h-152l-213 160l-213 -160h-151z" />
    <glyph glyph-name="Ydieresis" unicode="&#x178;" horiz-adv-x="1679" 
d="M221 1470l621 -675l620 675h242l-766 -829v-641h-195v641l-766 829h244zM709 1575h-203v213h203v-213zM1182 1575h-203v213h203v-213z" />
    <glyph glyph-name="Zacute" unicode="&#x179;" horiz-adv-x="1597" 
d="M344 172h1178v-172h-1450v154l1167 1144h-1159v172h1433v-153zM827 1567h-172l265 297h274z" />
    <glyph glyph-name="zacute" unicode="&#x17a;" horiz-adv-x="1216" 
d="M317 158h834v-158h-1083v139l827 774h-819v158h1071v-141zM653 1186h-155l200 284h244z" />
    <glyph glyph-name="Zdotaccent" unicode="&#x17b;" horiz-adv-x="1597" 
d="M344 172h1178v-172h-1450v154l1167 1144h-1159v172h1433v-153zM895 1575h-205v213h205v-213z" />
    <glyph glyph-name="zdotaccent" unicode="&#x17c;" horiz-adv-x="1216" 
d="M317 158h834v-158h-1083v139l827 774h-819v158h1071v-141zM709 1257h-201v213h201v-213z" />
    <glyph glyph-name="Zcaron" unicode="&#x17d;" horiz-adv-x="1597" 
d="M344 172h1178v-172h-1450v154l1167 1144h-1159v172h1433v-153zM1196 1866l-293 -297h-221l-293 297h162l242 -178l241 178h162z" />
    <glyph glyph-name="zcaron" unicode="&#x17e;" horiz-adv-x="1216" 
d="M317 158h834v-158h-1083v139l827 774h-819v158h1071v-141zM973 1470l-264 -284h-201l-264 284h151l213 -159l213 159h152z" />
    <glyph glyph-name="florin" unicode="&#x192;" horiz-adv-x="1683" 
d="M938 735l-68 -346q-77 -412 -491 -412q-118 0 -218 32.5t-161 92.5l86 142q119 -109 287 -109q252 0 305 264l67 336h-327v135h354l43 211q77 412 490 412q116 0 216 -33.5t162 -91.5l-86 -141q-51 51 -126 79.5t-160 28.5q-252 0 -305 -264l-39 -201h356v-135h-385z" />
    <glyph glyph-name="AEacute" unicode="&#x1fc;" horiz-adv-x="2838" 
d="M-18 0l1343 1470h1436v-172h-1172v-452h1055v-172h-1055v-502h1172v-172h-1364v403h-805l-367 -403h-243zM1397 1290l-649 -715h649v715zM2038 1567h-172l264 297h274z" />
    <glyph glyph-name="aeacute" unicode="&#x1fd;" horiz-adv-x="2187" 
d="M55 303q0 153 127.5 239.5t354.5 86.5h415v80q0 105 -85 165t-236 60q-135 0 -240.5 -58t-140.5 -151l-154 70q50 133 199 215t342 82q165 0 280 -53.5t166 -153.5q82 99 206.5 153t271.5 54q255 0 411 -150q158 -152 158 -383v-72h-1004q15 -159 136 -254
q122 -96 299 -96q149 0 256.5 68.5t148.5 187.5l150 -78q-51 -146 -205 -243q-151 -95 -350 -95q-176 0 -317 75t-216 206q-74 -135 -212 -208t-324 -73q-197 0 -317 88.5t-120 237.5zM1552 936q-160 0 -273 -83.5t-144 -223.5h815q-9 127 -123 215q-115 92 -275 92z
M236 305q0 -82 71.5 -129t198.5 -47q187 0 315 82q131 82 131 217v59h-403q-313 0 -313 -182zM1181 1186h-155l200 284h244z" />
    <glyph glyph-name="Oslashacute" unicode="&#x1fe;" horiz-adv-x="1818" 
d="M188 -39l-116 119l174 164q-93 99 -142 225t-49 266q0 332 242 543q244 215 612 215q155 0 297 -42.5t252 -121.5l172 162l117 -119l-164 -153q180 -205 180 -484q0 -332 -241 -545q-245 -213 -613 -213q-307 0 -536 156zM909 1321q-290 0 -475 -164q-182 -164 -182 -422
q0 -225 137 -377l930 850q-176 113 -410 113zM909 150q294 0 473 161q185 164 185 424q0 217 -129 367l-926 -848q167 -104 397 -104zM981 1567h-172l264 297h275z" />
    <glyph glyph-name="oslashacute" unicode="&#x1ff;" horiz-adv-x="1325" 
d="M61 535q0 243 170 399q175 158 433 158q209 0 366 -109l129 129l101 -96l-125 -125q129 -150 129 -356q0 -244 -172 -400q-172 -158 -428 -158q-205 0 -369 107l-127 -127l-100 96l122 125q-129 150 -129 357zM664 938q-191 0 -310 -113q-118 -109 -118 -290
q0 -141 79 -246l592 585q-106 64 -243 64zM664 133q187 0 307 111q121 115 121 291q0 140 -80 247l-592 -585q106 -64 244 -64zM719 1186h-155l200 284h244z" />
    <glyph glyph-name="Scommaaccent" unicode="&#x218;" horiz-adv-x="1554" 
d="M807 -23q-275 0 -500 105q-224 108 -323 283l143 127q96 -163 276.5 -252.5t407.5 -89.5q226 0 363 73q139 77 139 197q0 88 -52.5 133.5t-185.5 71.5q-110 24 -346 47q-386 41 -516 125q-133 86 -133 254q0 195 180 317q180 125 471 125q252 0 447 -88q198 -88 288 -240
l-143 -114q-79 129 -236 199.5t-364 70.5q-208 0 -332.5 -69.5t-124.5 -182.5q0 -99 94 -145q91 -45 431 -80q326 -35 450 -78q139 -43 201.5 -120.5t62.5 -205.5q0 -210 -194 -336q-195 -127 -504 -127zM756 -236h-80v148h198v-125q0 -86 -60.5 -138t-160.5 -52v84
q52 2 77 21.5t26 61.5z" />
    <glyph glyph-name="scommaaccent" unicode="&#x219;" horiz-adv-x="1161" 
d="M608 -23q-211 0 -370 72.5t-234 202.5l135 113q139 -232 467 -232q157 0 243.5 45t86.5 129q0 57 -35.5 87.5t-124.5 43.5q-30 7 -229 29q-282 35 -379 98q-98 67 -98 195q0 148 135 239q137 93 350 93q182 0 324.5 -64.5t212.5 -175.5l-125 -109q-60 94 -168 144.5
t-250 50.5q-141 0 -221 -43.5t-80 -118.5q0 -63 53 -90q55 -28 285 -55q149 -17 225 -31q55 -10 113 -29q194 -63 194 -249q0 -155 -145 -250t-365 -95zM567 -236h-80v148h199v-125q0 -86 -60.5 -138t-160.5 -52v84q52 2 76.5 21.5t25.5 61.5z" />
    <glyph glyph-name="uni021A" unicode="&#x21a;" horiz-adv-x="1646" 
d="M1616 1470v-172h-694v-1298h-197v1298h-694v172h1585zM803 -236h-80v148h199v-125q0 -86 -61 -138t-161 -52v84q52 2 77 21.5t26 61.5z" />
    <glyph glyph-name="uni021B" unicode="&#x21b;" horiz-adv-x="1005" 
d="M664 -12q-197 0 -301.5 89t-104.5 259v577h-260v158h260v313h182v-313h496v-158h-496v-561q0 -104 59.5 -151t192.5 -47q116 0 250 49l33 -158q-143 -57 -311 -57zM565 -236h-80v148h199v-125q0 -86 -60.5 -138t-160.5 -52v84q52 2 76.5 21.5t25.5 61.5z" />
    <glyph glyph-name="uni0237" unicode="&#x237;" horiz-adv-x="450" 
d="M-88 -221q117 0 169 48.5t52 154.5v1089h184v-1083q0 -180 -102.5 -275.5t-294.5 -95.5q-106 0 -205 35l31 155q80 -28 166 -28z" />
    <glyph glyph-name="circumflex" unicode="&#x2c6;" horiz-adv-x="1228" 
d="M514 1470h201l264 -284h-152l-213 160l-213 -160h-151z" />
    <glyph glyph-name="caron" unicode="&#x2c7;" horiz-adv-x="1228" 
d="M979 1470l-264 -284h-201l-264 284h151l213 -159l213 159h152z" />
    <glyph glyph-name="breve" unicode="&#x2d8;" horiz-adv-x="1228" 
d="M614 1311q208 0 220 159h129q0 -135 -94 -213.5t-255 -78.5t-254.5 78.5t-93.5 213.5h129q12 -159 219 -159z" />
    <glyph glyph-name="dotaccent" unicode="&#x2d9;" horiz-adv-x="1228" 
d="M715 1257h-201v213h201v-213z" />
    <glyph glyph-name="ring" unicode="&#x2da;" horiz-adv-x="1228" 
d="M614 1163q-88 0 -147 58.5t-59 144.5q0 85 59 142t147 57t147.5 -57t59.5 -142q0 -86 -59.5 -144.5t-147.5 -58.5zM614 1468q-41 0 -71.5 -30.5t-30.5 -71.5q0 -43 30 -74.5t72 -31.5t72.5 31.5t30.5 74.5q0 41 -31 71.5t-72 30.5z" />
    <glyph glyph-name="ogonek" unicode="&#x2db;" horiz-adv-x="1228" 
d="M610 -381q-100 0 -163.5 45.5t-63.5 120.5q0 88 79.5 165t221.5 124l64 -74q-232 -82 -232 -182q0 -37 33.5 -57.5t93.5 -20.5q49 0 105 16v-118q-89 -19 -138 -19z" />
    <glyph glyph-name="tilde" unicode="&#x2dc;" horiz-adv-x="1228" 
d="M444 1473q43 0 86.5 -16t114.5 -62q56 -33 80.5 -43.5t44.5 -10.5q38 0 59 30t31 102h121q-11 -130 -63 -203.5t-136 -73.5q-44 0 -86.5 15.5t-111.5 60.5q-91 53 -127 53q-38 0 -59.5 -31t-28.5 -98h-121q8 131 59 204t137 73z" />
    <glyph glyph-name="hungarumlaut" unicode="&#x2dd;" horiz-adv-x="1228" 
d="M725 1186h-139l200 284h215zM360 1186h-139l201 284h215z" />
    <glyph glyph-name="gravecmb" unicode="&#x300;" horiz-adv-x="0" 
d="M23 1470l200 -284h-155l-289 284h244z" />
    <glyph glyph-name="acutecmb" unicode="&#x301;" horiz-adv-x="0" 
d="M-66 1186h-155l201 284h243z" />
    <glyph glyph-name="circumflexcmb" unicode="&#x302;" horiz-adv-x="0" 
d="M-100 1470h200l265 -284h-152l-213 160l-213 -160h-152z" />
    <glyph glyph-name="tildecmb" unicode="&#x303;" horiz-adv-x="0" 
d="M-170 1473q43 0 86.5 -16t114.5 -62q56 -33 80.5 -43.5t44.5 -10.5q38 0 59 30t31 102h121q-11 -130 -63 -203.5t-136 -73.5q-44 0 -87.5 15.5t-111.5 60.5q-91 53 -127 53q-38 0 -59.5 -31t-28.5 -98h-121q8 131 59.5 204t137.5 73z" />
    <glyph glyph-name="macroncmb" unicode="&#x304;" horiz-adv-x="0" 
d="M340 1389v-148h-680v148h680z" />
    <glyph glyph-name="brevecmb" unicode="&#x306;" horiz-adv-x="0" 
d="M0 1311q207 0 219 159h129q0 -135 -93.5 -213.5t-254.5 -78.5t-254.5 78.5t-93.5 213.5h129q12 -159 219 -159z" />
    <glyph glyph-name="dotaccentcmb" unicode="&#x307;" horiz-adv-x="0" 
d="M100 1257h-200v213h200v-213z" />
    <glyph glyph-name="dieresiscmb" unicode="&#x308;" horiz-adv-x="0" 
d="M-129 1249h-205v213h205v-213zM334 1249h-205v213h205v-213z" />
    <glyph glyph-name="ringcmb" unicode="&#x30a;" horiz-adv-x="0" 
d="M0 1163q-88 0 -147.5 58.5t-59.5 144.5q0 85 59.5 142t147.5 57t147.5 -57t59.5 -142q0 -86 -59.5 -144.5t-147.5 -58.5zM0 1468q-41 0 -71.5 -30.5t-30.5 -71.5q0 -43 30 -74.5t72 -31.5t72 31.5t30 74.5q0 41 -30.5 71.5t-71.5 30.5z" />
    <glyph glyph-name="hungarumlautcmb" unicode="&#x30b;" horiz-adv-x="0" 
d="M115 1186h-140l201 284h215zM-250 1186h-139l201 284h215z" />
    <glyph glyph-name="caroncmb" unicode="&#x30c;" horiz-adv-x="0" 
d="M365 1470l-265 -284h-200l-265 284h152l213 -159l213 159h152z" />
    <glyph glyph-name="commaturncmb" unicode="&#x312;" horiz-adv-x="0" 
d="M8 1333h80v-147h-199v125q0 86 61 138t161 52v-84q-51 -2 -76.5 -22t-26.5 -62z" />
    <glyph glyph-name="commaaccentcmb" unicode="&#x326;" horiz-adv-x="0" 
d="M-8 -236h-80v148h199v-125q0 -86 -61 -138t-161 -52v84q52 2 77 21.5t26 61.5z" />
    <glyph glyph-name="cedillacmb" unicode="&#x327;" horiz-adv-x="0" 
d="M262 -217q0 -75 -73.5 -123.5t-190.5 -48.5q-81 0 -150.5 21.5t-107.5 58.5l70 96q72 -66 182 -66q135 0 135 70q0 37 -49 55t-158 23l45 151h101l-23 -75q97 -5 158 -50t61 -112z" />
    <glyph glyph-name="ogonekcmb" unicode="&#x328;" horiz-adv-x="0" 
d="M45 -381q-100 0 -163.5 45.5t-63.5 120.5q0 88 79.5 165t221.5 124l63 -74q-231 -81 -231 -182q0 -37 33.5 -57.5t93.5 -20.5q48 0 104 16v-118q-89 -19 -137 -19z" />
    <glyph glyph-name="baht" unicode="&#xe3f;" horiz-adv-x="1669" 
d="M768 0h-618v1470h618v207h160v-207h151q233 0 360.5 -100t127.5 -283q0 -116 -63 -199t-177 -122q134 -37 211.5 -132t77.5 -228q0 -188 -133 -297t-361 -109h-194v-209h-160v209zM338 1305v-465h430v465h-430zM1380 1071q0 113 -82 173.5t-235 60.5h-135v-465h135
q154 0 235.5 59.5t81.5 171.5zM768 672h-430v-506h430v506zM1427 420q0 115 -85 183.5t-228 68.5h-186v-506h186q143 0 228 68.5t85 185.5z" />
    <glyph glyph-name="Wgrave" unicode="&#x1e80;" horiz-adv-x="2387" 
d="M657 197l430 1273h218l428 -1273l460 1273h203l-543 -1470h-237l-422 1260l-424 -1260h-238l-540 1470h205zM1032 1864l264 -297h-172l-366 297h274z" />
    <glyph glyph-name="wgrave" unicode="&#x1e81;" horiz-adv-x="1794" 
d="M514 227l307 844h160l307 -844l320 844h190l-426 -1071h-164l-311 829l-309 -829h-164l-428 1071h197zM782 1470l201 -284h-156l-288 284h243z" />
    <glyph glyph-name="Wacute" unicode="&#x1e82;" horiz-adv-x="2387" 
d="M657 197l430 1273h218l428 -1273l460 1273h203l-543 -1470h-237l-422 1260l-424 -1260h-238l-540 1470h205zM1266 1567h-172l264 297h274z" />
    <glyph glyph-name="wacute" unicode="&#x1e83;" horiz-adv-x="1794" 
d="M514 227l307 844h160l307 -844l320 844h190l-426 -1071h-164l-311 829l-309 -829h-164l-428 1071h197zM979 1186h-155l200 284h244z" />
    <glyph glyph-name="Wdieresis" unicode="&#x1e84;" horiz-adv-x="2387" 
d="M657 197l430 1273h218l428 -1273l460 1273h203l-543 -1470h-237l-422 1260l-424 -1260h-238l-540 1470h205zM1059 1575h-203v213h203v-213zM1532 1575h-203v213h203v-213z" />
    <glyph glyph-name="wdieresis" unicode="&#x1e85;" horiz-adv-x="1794" 
d="M514 227l307 844h160l307 -844l320 844h190l-426 -1071h-164l-311 829l-309 -829h-164l-428 1071h197zM768 1249h-205v213h205v-213zM1231 1249h-205v213h205v-213z" />
    <glyph glyph-name="Germandbls" unicode="&#x1e9e;" horiz-adv-x="1826" 
d="M1788 461q0 -213 -164 -348q-165 -136 -420 -136q-227 0 -402.5 102.5t-260.5 285.5l143 108q80 -160 214.5 -246t305.5 -86q175 0 285 88t110 228q0 288 -452 288h-342v129l506 426h-965v-1300h-196v1470h1431v-157l-487 -412h77q294 0 455.5 -115.5t161.5 -324.5z" />
    <glyph glyph-name="Ygrave" unicode="&#x1ef2;" horiz-adv-x="1679" 
d="M221 1470l621 -675l620 675h242l-766 -829v-641h-195v641l-766 829h244zM739 1864l265 -297h-173l-366 297h274z" />
    <glyph glyph-name="ygrave" unicode="&#x1ef3;" horiz-adv-x="1275" 
d="M1280 1071l-604 -1190q-74 -143 -168 -205.5t-236 -62.5q-53 0 -108.5 10t-85.5 27l37 157q78 -34 149 -34q178 0 250 170l33 71l-551 1057h205l442 -870l436 870h201zM551 1470l201 -284h-156l-289 284h244z" />
    <glyph glyph-name="thinspace" unicode="&#x2009;" horiz-adv-x="204" 
 />
    <glyph glyph-name="endash" unicode="&#x2013;" horiz-adv-x="1138" 
d="M1042 516h-946v150h946v-150z" />
    <glyph glyph-name="emdash" unicode="&#x2014;" horiz-adv-x="2027" 
d="M1931 516h-1835v150h1835v-150z" />
    <glyph glyph-name="quoteleft" unicode="&#x2018;" horiz-adv-x="393" 
d="M205 1196h106v-238h-233v252q0 117 71.5 188t194.5 72v-106q-139 -12 -139 -145v-23z" />
    <glyph glyph-name="quoteright" unicode="&#x2019;" horiz-adv-x="393" 
d="M188 1233h-106v237h233v-251q0 -118 -72 -189t-194 -72v107q139 12 139 145v23z" />
    <glyph glyph-name="quotesinglbase" unicode="&#x201a;" horiz-adv-x="393" 
d="M188 23h-106v237h233v-252q0 -117 -71.5 -188t-194.5 -72v107q139 12 139 145v23z" />
    <glyph glyph-name="quotedblleft" unicode="&#x201c;" horiz-adv-x="749" 
d="M205 1196h106v-238h-233v252q0 117 71.5 188t194.5 72v-106q-139 -12 -139 -145v-23zM561 1196h107v-238h-234v252q0 117 71.5 188t194.5 72v-106q-139 -12 -139 -145v-23z" />
    <glyph glyph-name="quotedblright" unicode="&#x201d;" horiz-adv-x="749" 
d="M188 1233h-106v237h233v-251q0 -118 -72 -189t-194 -72v107q139 12 139 145v23zM545 1233h-107v237h234v-251q0 -118 -72 -189t-194 -72v107q139 12 139 145v23z" />
    <glyph glyph-name="quotedblbase" unicode="&#x201e;" horiz-adv-x="749" 
d="M545 23h-107v237h234v-252q0 -117 -71.5 -188t-194.5 -72v107q139 12 139 145v23zM188 23h-106v237h233v-252q0 -117 -71.5 -188t-194.5 -72v107q139 12 139 145v23z" />
    <glyph glyph-name="dagger" unicode="&#x2020;" horiz-adv-x="790" 
d="M469 604h-147v502h-267v149h267v256h147v-256h266v-149h-266v-502z" />
    <glyph glyph-name="daggerdbl" unicode="&#x2021;" horiz-adv-x="790" 
d="M469 604h-147v215h-267v142h267v196h-267v141h267v213h147v-213h266v-141h-266v-196h266v-142h-266v-215z" />
    <glyph glyph-name="bullet" unicode="&#x2022;" horiz-adv-x="815" 
d="M96 590q0 131 90 221t224 90q131 0 219 -88t88 -223q0 -133 -88 -221t-219 -88q-136 0 -224 88q-90 90 -90 221z" />
    <glyph glyph-name="ellipsis" unicode="&#x2026;" horiz-adv-x="1255" 
d="M330 0h-234v242h234v-242zM743 0h-233v242h233v-242zM1157 0h-233v242h233v-242z" />
    <glyph glyph-name="guilsinglleft" unicode="&#x2039;" horiz-adv-x="548" 
d="M467 166l-385 280v183l385 280v-188l-236 -184l236 -183v-188z" />
    <glyph glyph-name="guilsinglright" unicode="&#x203a;" horiz-adv-x="548" 
d="M467 629v-183l-385 -280v188l235 183l-235 184v188z" />
    <glyph glyph-name="fraction" unicode="&#x2044;" horiz-adv-x="325" 
d="M-537 0l1223 1470h176l-1220 -1470h-179z" />
    <glyph glyph-name="uni2070" unicode="&#x2070;" horiz-adv-x="1038" 
d="M518 643q-201 0 -332 119t-131 301t131 301t332 119t332 -119q133 -121 133 -301t-133 -301q-131 -119 -332 -119zM518 1346q-135 0 -220 -79t-85 -204t86 -205t219 -80q135 0 220 79t85 206t-84.5 205t-220.5 78z" />
    <glyph glyph-name="uni2074" unicode="&#x2074;" horiz-adv-x="935" 
d="M713 858v-203h-152v203h-541v121l490 491h203v-487h202v-125h-202zM561 1341l-360 -358h360v358z" />
    <glyph glyph-name="uni2075" unicode="&#x2075;" horiz-adv-x="903" 
d="M446 1081q-154 0 -245 -69l-129 26l53 432h676v-135h-557l-25 -188q101 62 252 59q174 0 280.5 -76t106.5 -200q0 -127 -117 -207q-115 -80 -292 -80q-162 0 -282 66t-157 176l142 57q26 -75 108.5 -121.5t188.5 -46.5q112 0 182.5 42t70.5 110q0 69 -70.5 112t-185.5 43
z" />
    <glyph glyph-name="uni2076" unicode="&#x2076;" horiz-adv-x="985" 
d="M532 1483q135 0 239 -46t155 -128l-107 -92q-38 65 -116 101t-177 36q-139 0 -231 -74q-90 -75 -90 -186v-13q42 59 127.5 91t197.5 32q171 0 287 -78q115 -77 115 -196q0 -124 -121 -207q-121 -80 -303 -80q-213 0 -333 108t-120 298q0 194 131 313q133 121 346 121z
M504 770q122 0 197 42.5t75 111.5t-75.5 112t-196.5 43q-122 0 -197.5 -43t-75.5 -112t75 -111.5t198 -42.5z" />
    <glyph glyph-name="uni2077" unicode="&#x2077;" horiz-adv-x="868" 
d="M676 1337h-522v-166h-134v299h828v-139q-170 -152 -249 -315t-79 -361h-162q0 396 318 682z" />
    <glyph glyph-name="uni2078" unicode="&#x2078;" horiz-adv-x="950" 
d="M94 1255q0 104 104.5 166t276.5 62q173 0 278 -62t105 -166q0 -119 -151 -172q102 -26 155 -77t53 -121q0 -112 -118 -177t-322 -65q-203 0 -321.5 65t-118.5 177q0 69 54.5 120.5t156.5 77.5q-152 51 -152 172zM248 1255q0 -54 59 -82t168 -28q110 0 170 28t60 82
q0 51 -61 80t-169 29q-106 0 -166.5 -29t-60.5 -80zM758 895q0 61 -73.5 94t-209.5 33q-135 0 -208.5 -33t-73.5 -94q0 -63 73.5 -97t208.5 -34t209 34t74 97z" />
    <glyph glyph-name="uni2079" unicode="&#x2079;" horiz-adv-x="985" 
d="M455 643q-134 0 -238.5 47t-155.5 129l107 90q38 -65 116 -101t177 -36q140 0 229 74q92 74 92 186v15q-44 -60 -129 -92.5t-196 -32.5q-174 0 -289 77t-115 197q0 128 119 207q121 80 307 80q213 0 333 -108t120 -298q0 -194 -133 -315q-131 -119 -344 -119zM483 1356
q-122 0 -197 -42.5t-75 -111.5t75.5 -112t196.5 -43q122 0 197.5 43t75.5 112t-75 111.5t-198 42.5z" />
    <glyph glyph-name="uni2080" unicode="&#x2080;" horiz-adv-x="1038" 
d="M518 -258q-201 0 -332 119t-131 301t131 301t332 119t332 -119q133 -121 133 -301t-133 -301q-131 -119 -332 -119zM518 444q-135 0 -220 -78.5t-85 -203.5t86 -205t219 -80q135 0 220 79t85 206t-84.5 204.5t-220.5 77.5z" />
    <glyph glyph-name="uni2081" unicode="&#x2081;" horiz-adv-x="735" 
d="M309 -111v424h-276v119l149 4q82 2 119.5 32t44.5 103h121v-682h244v-135h-678v135h276z" />
    <glyph glyph-name="uni2082" unicode="&#x2082;" horiz-adv-x="890" 
d="M53 -246v121l357 193q167 87 215 135q45 45 45 100q0 63 -56.5 103t-146.5 40q-109 0 -185.5 -56t-95.5 -148l-143 32q24 137 141 222q118 86 287 86q158 0 256 -76q100 -72 100 -193q0 -93 -60.5 -162.5t-211.5 -146.5l-223 -117h518v-133h-797z" />
    <glyph glyph-name="uni2083" unicode="&#x2083;" horiz-adv-x="911" 
d="M872 -12q0 -106 -114 -176q-113 -70 -297 -70q-166 0 -287.5 63.5t-159.5 171.5l140 64q26 -74 111.5 -121t195.5 -47t178 35t68 92q0 55 -59.5 84t-166.5 29h-159v123h155q99 0 152 25.5t53 74.5q0 51 -60.5 82t-158.5 31q-103 0 -179.5 -42t-101.5 -110l-135 57
q37 103 153 165.5t271 62.5q170 0 273.5 -64.5t103.5 -169.5q0 -61 -42 -107t-114 -65q180 -46 180 -188z" />
    <glyph glyph-name="uni2084" unicode="&#x2084;" horiz-adv-x="935" 
d="M713 -43v-203h-152v203h-541v121l490 491h203v-487h202v-125h-202zM561 440l-360 -358h360v358z" />
    <glyph glyph-name="uni2085" unicode="&#x2085;" horiz-adv-x="903" 
d="M446 180q-154 0 -245 -69l-129 26l53 432h676v-135h-557l-25 -188q101 62 252 59q174 0 280.5 -76t106.5 -200q0 -127 -117 -207q-115 -80 -292 -80q-162 0 -282 66t-157 176l142 57q26 -75 108.5 -121.5t188.5 -46.5q112 0 182.5 42t70.5 110q0 69 -70.5 112t-185.5 43z
" />
    <glyph glyph-name="uni2086" unicode="&#x2086;" horiz-adv-x="985" 
d="M532 582q135 0 239 -46t155 -128l-107 -93q-38 65 -116 101.5t-177 36.5q-139 0 -231 -74q-90 -75 -90 -186v-13q42 59 127.5 91t197.5 32q171 0 287 -78q115 -77 115 -196q0 -124 -121 -207q-121 -80 -303 -80q-213 0 -333 107.5t-120 297.5q0 195 131 314
q133 121 346 121zM504 -131q122 0 197 42.5t75 111.5t-75.5 112t-196.5 43q-122 0 -197.5 -43t-75.5 -112t75 -111.5t198 -42.5z" />
    <glyph glyph-name="uni2087" unicode="&#x2087;" horiz-adv-x="868" 
d="M676 436h-522v-166h-134v299h828v-139q-170 -152 -249 -315t-79 -361h-162q0 396 318 682z" />
    <glyph glyph-name="uni2088" unicode="&#x2088;" horiz-adv-x="950" 
d="M94 354q0 104 104.5 166t276.5 62q173 0 278 -62t105 -166q0 -119 -151 -172q102 -26 155 -77t53 -121q0 -112 -118 -177t-322 -65q-203 0 -321.5 65t-118.5 177q0 69 54.5 120.5t156.5 77.5q-152 51 -152 172zM248 354q0 -54 59 -82t168 -28q110 0 170 28t60 82
q0 51 -61 80t-169 29q-106 0 -166.5 -29t-60.5 -80zM758 -6q0 61 -73.5 94t-209.5 33q-135 0 -208.5 -33t-73.5 -94q0 -63 73.5 -97t208.5 -34t209 34t74 97z" />
    <glyph glyph-name="uni2089" unicode="&#x2089;" horiz-adv-x="985" 
d="M453 -258q-134 0 -238.5 47t-155.5 129l107 90q38 -65 116 -101t177 -36q140 0 229 74q92 74 92 186v14q-44 -60 -129 -92.5t-196 -32.5q-173 0 -289 78q-115 77 -115 197q0 128 119 207q121 80 307 80q213 0 333 -108t120 -298q0 -194 -133 -315q-131 -119 -344 -119z
M481 455q-122 0 -197 -42.5t-75 -111.5t75.5 -112.5t196.5 -43.5t197 43.5t76 112.5t-75 111.5t-198 42.5z" />
    <glyph glyph-name="franc" unicode="&#x20a3;" horiz-adv-x="1730" 
d="M340 356h-311v150h311v964h1343v-172h-1151v-446h1033v-172h-1033v-174h408v-150h-408v-356h-192v356z" />
    <glyph glyph-name="naira" unicode="&#x20a6;" horiz-adv-x="2164" 
d="M352 510h-311v141h311v174h-311v142h311v503h209l1063 -1187v1187h188v-503h312v-142h-312v-174h312v-141h-312v-510h-174l-1097 1229v-1229h-189v510z" />
    <glyph glyph-name="peseta" unicode="&#x20a7;" horiz-adv-x="2115" 
d="M1210 485h-661v-485h-197v895h-311v166h311v409h858q240 0 384 -106.5t169 -302.5h318v-166h-318q-25 -194 -171 -302t-382 -108zM1198 1303h-649v-242h1020q-26 117 -122.5 179.5t-248.5 62.5zM549 895v-242h649q152 0 248.5 63t122.5 179h-1020z" />
    <glyph glyph-name="won" unicode="&#x20a9;" horiz-adv-x="2232" 
d="M377 510h-344v141h305l-51 174h-254v142h215l-144 503h197l342 -1257l377 1257h205l377 -1257l342 1257h192l-143 -503h207v-142h-246l-51 -174h297v-141h-336l-146 -510h-225l-371 1249l-370 -1249h-230z" />
    <glyph glyph-name="dong" unicode="&#x20ab;" horiz-adv-x="1482" 
d="M1038 178v148q-56 -78 -159 -122t-230 -44q-236 0 -379 125t-143 319q0 193 145 320t377 127q128 0 230.5 -44.5t158.5 -123.5v282h-366v148h366v157h170v-157h250v-148h-250v-987h-170zM1042 600v12q0 126 -108 209q-110 84 -268 84q-161 0 -264 -83.5t-103 -217.5
t102 -217q104 -82 265 -82t268 82q108 83 108 213zM1208 -147h-1067v147h1067v-147z" />
    <glyph glyph-name="Euro" unicode="&#x20ac;" horiz-adv-x="1843" 
d="M281 512h-244v141h215q-1 17 -2 35t-1.5 28.5t-0.5 18.5q0 63 6 94h-217v140h246q76 239 292 381q216 143 504 143q258 0 449.5 -117.5t277.5 -328.5l-164 -86q-72 172 -219.5 265t-349.5 93q-211 0 -368 -92.5t-224 -257.5h729l-30 -140h-736q-6 -31 -6 -94
q0 -8 0.5 -18.5t1.5 -28.5t2 -35h701l-31 -141h-635q67 -170 224.5 -265t371.5 -95q202 0 349.5 93t219.5 265l164 -86q-86 -211 -277.5 -329t-449.5 -118q-287 0 -508 146q-215 143 -290 389z" />
    <glyph glyph-name="peso" unicode="&#x20b1;" horiz-adv-x="2115" 
d="M1210 471h-661v-471h-197v741h-311v142h311v176h-311v141h311v270h858q190 0 322 -69.5t192 -200.5h357v-141h-318q6 -31 6 -88t-6 -88h318v-142h-359q-62 -131 -194 -200.5t-318 -69.5zM549 1303v-664h649q178 0 278.5 88t100.5 244q0 158 -99.5 245t-279.5 87h-649z
" />
    <glyph glyph-name="uni20B9" unicode="&#x20b9;" horiz-adv-x="1724" 
d="M739 596h-688v166h778q131 0 216.5 49t111.5 139h-1106v166h1108q-26 92 -112 140.5t-218 48.5h-778v165h1622v-165h-434q93 -77 115 -189h319v-166h-317q-25 -142 -129.5 -231.5t-272.5 -114.5l424 -604h-225z" />
    <glyph glyph-name="uni20BA" unicode="&#x20ba;" horiz-adv-x="1589" 
d="M326 371l-285 -158v160l285 157v179l-281 -156v158l281 155v604h196v-493l482 268v-160l-482 -268v-178l482 266v-160l-482 -266v-307h295q266 0 394 134t128 415h197q0 -358 -182.5 -539.5t-544.5 -181.5h-483v371z" />
    <glyph glyph-name="uni20BD" unicode="&#x20bd;" horiz-adv-x="1810" 
d="M352 301h-309v168h309v174h-307v168h307v659h924q234 0 363.5 -108.5t129.5 -304.5q0 -192 -132 -303t-361 -111h-727v-174h573v-168h-573v-301h-197v301zM1266 1300h-717v-489h717q148 0 229.5 64.5t81.5 181.5t-81.5 180t-229.5 63z" />
    <glyph glyph-name="trademark" unicode="&#x2122;" horiz-adv-x="1765" 
d="M463 1337v-514h-150v514h-272v133h692v-133h-270zM1550 1298l-231 -477h-90l-230 477v-475h-135v647h197l215 -440l217 440h193v-647h-136v475z" />
    <glyph glyph-name="uni2153" unicode="&#x2153;" horiz-adv-x="2113" 
d="M711 655h-678v136h276v423h-276v119l149 4q82 2 119.5 32.5t44.5 103.5h121v-682h244v-136zM338 0l1223 1470h176l-1221 -1470h-178zM2075 233q0 -105 -115 -176q-112 -69 -297 -69q-166 0 -287 63.5t-159 171.5l139 64q26 -74 111.5 -121t195.5 -47t178 35t68 92
q0 55 -59.5 83.5t-166.5 28.5h-159v123h155q99 0 152 26t53 75q0 51 -60 81.5t-159 30.5q-103 0 -179.5 -41.5t-101.5 -109.5l-135 57q37 103 153 165t271 62q170 0 273.5 -64.5t103.5 -168.5q0 -61 -42 -107t-114 -65q181 -46 181 -189z" />
    <glyph glyph-name="uni2154" unicode="&#x2154;" horiz-adv-x="2234" 
d="M53 655v121l357 193q167 87 215 135q45 45 45 100q0 63 -56.5 103.5t-146.5 40.5q-109 0 -185.5 -56.5t-95.5 -148.5l-143 33q24 136 141 221q118 86 287 86q158 0 256 -76q100 -72 100 -193q0 -93 -60.5 -162.5t-211.5 -146.5l-223 -117h518v-133h-797zM461 0l1222 1470
h177l-1221 -1470h-178zM2195 233q0 -105 -114 -176q-112 -69 -297 -69q-166 0 -287.5 63.5t-159.5 171.5l140 64q26 -74 111.5 -121t195.5 -47t178 35t68 92q0 55 -59.5 83.5t-166.5 28.5h-159v123h155q99 0 152 26t53 75q0 51 -60 81.5t-159 30.5q-103 0 -179.5 -41.5
t-101.5 -109.5l-135 57q37 103 153 165t271 62q170 0 273.5 -64.5t103.5 -168.5q0 -61 -42 -107t-114 -65q180 -46 180 -189z" />
    <glyph glyph-name="uni215B" unicode="&#x215b;" horiz-adv-x="2152" 
d="M711 655h-678v136h276v423h-276v119l149 4q82 2 119.5 32.5t44.5 103.5h121v-682h244v-136zM338 0l1223 1470h176l-1221 -1470h-178zM1296 600q0 104 104 165.5t277 61.5t278 -61.5t105 -165.5q0 -119 -151 -172q102 -26 155.5 -77.5t53.5 -121.5q0 -112 -118.5 -176.5
t-322.5 -64.5q-203 0 -321.5 64.5t-118.5 176.5q0 69 54.5 121t156.5 78q-152 51 -152 172zM1450 600q0 -54 59 -82.5t168 -28.5q110 0 170 28.5t60 82.5q0 51 -61 80t-169 29q-106 0 -166.5 -29t-60.5 -80zM1960 240q0 61 -73.5 94t-209.5 33q-135 0 -208.5 -33t-73.5 -94
q0 -63 73.5 -97t208.5 -34t209 34t74 97z" />
    <glyph glyph-name="uni215C" unicode="&#x215c;" horiz-adv-x="2189" 
d="M872 889q0 -106 -114 -176q-113 -70 -297 -70q-166 0 -287.5 64t-159.5 172l140 63q26 -74 111.5 -121t195.5 -47t178 35t68 92q0 55 -59.5 84t-166.5 29h-159v123h155q99 0 152 25.5t53 74.5q0 51 -60.5 82t-158.5 31q-103 0 -179.5 -42t-101.5 -110l-135 57
q37 103 153 165.5t271 62.5q170 0 273.5 -64.5t103.5 -169.5q0 -61 -42 -107t-114 -65q180 -46 180 -188zM375 0l1222 1470h177l-1221 -1470h-178zM1333 600q0 104 104 165.5t277 61.5t278 -61.5t105 -165.5q0 -119 -151 -172q102 -26 155 -77.5t53 -121.5
q0 -112 -118 -176.5t-322 -64.5q-203 0 -321.5 64.5t-118.5 176.5q0 69 54.5 121t156.5 78q-152 51 -152 172zM1487 600q0 -54 59 -82.5t168 -28.5q110 0 170 28.5t60 82.5q0 51 -61 80t-169 29q-106 0 -166.5 -29t-60.5 -80zM1997 240q0 61 -73.5 94t-209.5 33
q-135 0 -208.5 -33t-73.5 -94q0 -63 73.5 -97t208.5 -34t209 34t74 97z" />
    <glyph glyph-name="uni215D" unicode="&#x215d;" horiz-adv-x="2179" 
d="M446 1081q-154 0 -245 -69l-129 26l53 432h676v-135h-557l-25 -188q101 62 252 59q174 0 280.5 -76t106.5 -200q0 -127 -117 -207q-115 -80 -292 -80q-162 0 -282 66t-157 176l142 57q26 -75 108.5 -121.5t188.5 -46.5q112 0 182.5 42t70.5 110q0 69 -70.5 112t-185.5 43
zM367 0l1222 1470h176l-1220 -1470h-178zM1323 600q0 104 104 165.5t277 61.5t278 -61.5t105 -165.5q0 -119 -152 -172q102 -26 155.5 -77.5t53.5 -121.5q0 -112 -118 -176.5t-322 -64.5q-203 0 -321.5 64.5t-118.5 176.5q0 69 54.5 121t156.5 78q-152 51 -152 172z
M1477 600q0 -54 59 -82.5t168 -28.5t169 28.5t60 82.5q0 51 -60.5 80t-168.5 29q-106 0 -166.5 -29t-60.5 -80zM1987 240q0 61 -73.5 94t-209.5 33t-209.5 -33t-73.5 -94q0 -63 74 -97t209 -34t209 34t74 97z" />
    <glyph glyph-name="uni215E" unicode="&#x215e;" horiz-adv-x="2043" 
d="M676 1337h-522v-166h-134v299h828v-139q-170 -152 -249 -315t-79 -361h-162q0 396 318 682zM231 0l1223 1470h176l-1220 -1470h-179zM1188 600q0 104 104 165.5t277 61.5t278 -61.5t105 -165.5q0 -119 -152 -172q102 -26 155.5 -77.5t53.5 -121.5q0 -112 -118 -176.5
t-322 -64.5q-203 0 -322 64.5t-119 176.5q0 69 54.5 121t156.5 78q-151 51 -151 172zM1341 600q0 -54 59.5 -82.5t168.5 -28.5t169 28.5t60 82.5q0 51 -60.5 80t-168.5 29q-106 0 -167 -29t-61 -80zM1851 240q0 61 -73.5 94t-208.5 33q-136 0 -209.5 -33t-73.5 -94
q0 -63 74 -97t209 -34t208.5 34t73.5 97z" />
    <glyph glyph-name="arrowleft" unicode="&#x2190;" horiz-adv-x="1634" 
d="M338 649l430 -481l-135 -127l-623 700l623 701l135 -127l-430 -481h1286v-185h-1286z" />
    <glyph glyph-name="arrowup" unicode="&#x2191;" horiz-adv-x="1509" 
d="M1499 817l-127 -131l-524 481v-1167h-186v1167l-525 -481l-127 131l744 676z" />
    <glyph glyph-name="arrowright" unicode="&#x2192;" horiz-adv-x="1634" 
d="M1001 1442l623 -701l-623 -700l-135 127l430 481h-1286v185h1286l-430 481z" />
    <glyph glyph-name="arrowdown" unicode="&#x2193;" horiz-adv-x="1509" 
d="M1372 784l127 -131l-745 -676l-744 676l127 131l525 -481v1167h186v-1167z" />
    <glyph glyph-name="minus" unicode="&#x2212;" 
d="M1520 639h-1401v164h1401v-164z" />
    <glyph glyph-name="commaaccent" unicode="&#xf6c3;" horiz-adv-x="1228" 
d="M602 -236h-80v148h199v-125q0 -86 -60.5 -138t-160.5 -52v84q52 2 76.5 21.5t25.5 61.5z" />
    <glyph glyph-name="idotaccent" horiz-adv-x="450" 
d="M326 1257h-201v213h201v-213zM133 1071h184v-1071h-184v1071z" />
    <glyph glyph-name="a.ord" horiz-adv-x="958" 
d="M362 686q-141 0 -226 63t-85 169q0 100 79 162t228 75l332 35v16q0 69 -57.5 109.5t-159.5 40.5q-92 0 -162.5 -37.5t-93.5 -99.5l-137 49q37 98 146.5 157.5t250.5 59.5q173 0 268 -73t95 -206v-329q0 -40 28 -56q12 -6 35 -6q24 0 55 8v-121q-41 -8 -81 -8
q-49 0 -95 17q-67 30 -82 102v2q-55 -61 -144 -95t-194 -34zM383 809q129 0 217 55q90 56 90 144v67l-309 -33q-93 -10 -135.5 -39.5t-42.5 -80.5q0 -54 47.5 -83.5t132.5 -29.5z" />
    <glyph glyph-name="b.ord" horiz-adv-x="1073" 
d="M1018 1085q0 -172 -117 -286q-116 -113 -303 -113q-100 0 -183.5 38.5t-127.5 104.5v-127h-158v1053h158v-412q48 66 130 104t181 38q187 0 303 -113q117 -114 117 -287zM573 1356q-123 0 -208 -76q-84 -78 -84 -193v-4q0 -114 84 -192q86 -74 208 -74q129 0 211 75
t82 193q0 121 -82.5 196t-210.5 75z" />
    <glyph glyph-name="c.ord" horiz-adv-x="929" 
d="M498 1354q-128 0 -208.5 -74t-80.5 -195q0 -119 80 -192.5t209 -73.5q99 0 173 51t97 134l133 -66q-39 -114 -147.5 -183t-253.5 -69q-193 0 -318 113t-125 286q0 177 125 287q125 113 318 113q146 0 255.5 -70t145.5 -182l-133 -64q-23 83 -97 134t-173 51z" />
    <glyph glyph-name="d.ord" horiz-adv-x="1073" 
d="M475 686q-185 0 -301 113q-117 114 -117 286t115 287q116 113 303 113q100 0 183.5 -38t127.5 -104v412h158v-1053h-158v127q-43 -66 -127 -104.5t-184 -38.5zM795 1083v4q0 116 -86 193q-82 76 -209 76q-128 0 -209.5 -75t-81.5 -196t81 -194.5t210 -73.5q126 0 209 74
q86 77 86 192z" />
    <glyph glyph-name="e.ord" horiz-adv-x="968" 
d="M500 686q-194 0 -320 111q-123 114 -123 288t125 287t318 113q186 0 301 -109q114 -108 114 -276v-53h-708q14 -104 93.5 -167t197.5 -63q100 0 174 45t100 123l133 -57q-42 -110 -151 -176t-254 -66zM494 1358q-106 0 -183.5 -55.5t-97.5 -147.5h549q-8 85 -85.5 144
t-182.5 59z" />
    <glyph glyph-name="f.ord" horiz-adv-x="612" 
d="M496 1769q105 0 172 -24l-25 -131q-73 20 -143 20q-94 0 -138.5 -36.5t-44.5 -114.5v-13h308v-131h-306v-637h-153v637h-182v131h182v15q0 139 84.5 211.5t245.5 72.5z" />
    <glyph glyph-name="g.ord" horiz-adv-x="1067" 
d="M938 1470v-663q0 -173 -127 -279q-125 -104 -330 -104q-156 0 -266.5 55.5t-157.5 157.5l129 76q31 -75 110 -118.5t183 -43.5q136 0 218.5 66t82.5 176v57q-47 -66 -128.5 -102.5t-180.5 -36.5q-186 0 -303 108q-117 111 -117 279t117 276q117 111 303 111
q100 0 181 -35.5t128 -101.5v122h158zM788 1096v6q0 113 -86 184q-84 72 -206 72q-128 0 -209.5 -72.5t-81.5 -187.5t81.5 -187.5t209.5 -72.5q123 0 206 71q86 71 86 187z" />
    <glyph glyph-name="h.ord" horiz-adv-x="1038" 
d="M287 702h-158v1053h158v-412q47 66 126 104t171 38q154 0 244 -94.5t90 -255.5v-433h-158v398q0 116 -57.5 179.5t-163.5 63.5q-113 0 -182.5 -70.5t-69.5 -185.5v-385z" />
    <glyph glyph-name="i.ord" horiz-adv-x="409" 
d="M287 1591h-166v164h166v-164zM125 1470h158v-768h-158v768z" />
    <glyph glyph-name="j.ord" horiz-adv-x="409" 
d="M287 1591h-166v164h166v-164zM-25 559q78 0 114 34t36 107v770h158v-770q0 -133 -75.5 -201.5t-221.5 -68.5q-84 0 -154 25l27 125q72 -21 116 -21z" />
    <glyph glyph-name="k.ord" horiz-adv-x="962" 
d="M129 1755h158v-672l469 387h217l-398 -325l418 -443h-198l-334 351l-174 -142v-209h-158v1053z" />
    <glyph glyph-name="l.ord" horiz-adv-x="415" 
d="M129 1755h158v-1053h-158v1053z" />
    <glyph glyph-name="m.ord" horiz-adv-x="1593" 
d="M516 1343q-104 0 -166.5 -65t-62.5 -174v-402h-158v768h158v-116q44 63 116 97t160 34q92 0 162 -42t106 -116q54 74 138 116t178 42q154 0 240 -91.5t86 -252.5v-439h-156v410q0 109 -54.5 170t-152.5 61q-104 0 -166.5 -65t-62.5 -174v-402h-158v410q0 109 -54.5 170
t-152.5 61z" />
    <glyph glyph-name="n.ord" horiz-adv-x="1038" 
d="M287 702h-158v768h158v-127q47 66 126 104t171 38q154 0 244 -94.5t90 -255.5v-433h-158v398q0 116 -57.5 179.5t-163.5 63.5q-113 0 -182.5 -70.5t-69.5 -185.5v-385z" />
    <glyph glyph-name="o.ord" horiz-adv-x="989" 
d="M496 1485q191 0 313 -113q125 -110 125 -287q0 -173 -125 -286q-122 -113 -313 -113q-190 0 -316 111q-123 114 -123 288q0 176 123 287q122 113 316 113zM496 1352q-127 0 -207 -74t-80 -193q0 -118 79.5 -192t207.5 -74q125 0 204.5 74t79.5 192t-79.5 192.5
t-204.5 74.5z" />
    <glyph glyph-name="p.ord" horiz-adv-x="1073" 
d="M1018 1085q0 -172 -117 -286q-116 -113 -303 -113q-100 0 -183.5 38.5t-127.5 104.5v-389h-158v1030h158v-127q48 66 130 104t181 38q187 0 303 -113q117 -114 117 -287zM573 1356q-123 0 -208 -76q-84 -78 -84 -193v-4q0 -114 84 -192q86 -74 208 -74q129 0 211 75
t82 193q0 121 -82.5 196t-210.5 75z" />
    <glyph glyph-name="q.ord" horiz-adv-x="1073" 
d="M475 684q-185 0 -301 113q-117 114 -117 286t115 287q116 113 303 113q100 0 183.5 -38t127.5 -104v127h158v-1030h-158v389q-43 -66 -127 -104.5t-184 -38.5zM795 1081v4q0 116 -86 193q-82 76 -209 76q-128 0 -209.5 -75t-81.5 -196t81 -194.5t210 -73.5q126 0 209 74
q86 77 86 192z" />
    <glyph glyph-name="r.ord" horiz-adv-x="681" 
d="M580 1477q44 0 86 -11v-153q-61 10 -93 10q-134 0 -210 -72.5t-76 -199.5v-349h-158v768h158v-155q96 162 293 162z" />
    <glyph glyph-name="s.ord" horiz-adv-x="851" 
d="M432 686q-148 0 -261.5 48t-170.5 134l96 99q108 -156 340 -156q105 0 163 28.5t58 82.5q0 37 -25.5 56.5t-88.5 31.5l-92 12q-55 8 -68 8q-194 23 -268 72q-70 49 -70 141q0 109 100 175.5t261 66.5q128 0 230.5 -43t158.5 -119l-95 -92q-103 131 -301 131
q-94 0 -147 -28t-53 -77q0 -40 32 -57q35 -18 203 -39q160 -18 242 -45q137 -49 137 -178q0 -115 -105 -183.5t-276 -68.5z" />
    <glyph glyph-name="t.ord" horiz-adv-x="735" 
d="M471 692q-143 0 -219 64t-76 186v397h-182v131h182v220h154v-220h346v-131h-346v-372q0 -72 41 -105t131 -33q81 0 176 35l29 -129q-118 -43 -236 -43z" />
    <glyph glyph-name="u.ord" horiz-adv-x="1028" 
d="M741 1470h156v-768h-156v125q-103 -141 -290 -141q-152 0 -241 94t-89 254v436h155v-413q0 -111 57.5 -171.5t162.5 -60.5q111 0 178 69t67 185v391z" />
    <glyph glyph-name="v.ord" horiz-adv-x="923" 
d="M932 1470l-389 -768h-162l-389 768h174l299 -600l297 600h170z" />
    <glyph glyph-name="w.ord" horiz-adv-x="1304" 
d="M379 893l207 577h139l207 -577l217 577h162l-305 -768h-144l-211 572l-211 -572h-141l-307 768h168z" />
    <glyph glyph-name="x.ord" horiz-adv-x="925" 
d="M930 702h-201l-266 293l-275 -293h-192l371 390l-353 378h197l252 -274l258 274h190l-352 -370z" />
    <glyph glyph-name="y.ord" horiz-adv-x="923" 
d="M932 1470l-424 -839q-54 -110 -123.5 -156.5t-181.5 -46.5q-89 0 -148 25l29 131q64 -27 106 -27q62 0 102.5 27.5t67.5 85.5l21 45l-389 755h174l301 -600l297 600h168z" />
    <glyph glyph-name="z.ord" horiz-adv-x="913" 
d="M283 834h571v-132h-791v117l570 520h-563v131h780v-118z" />
    <glyph glyph-name="caron.Slovak" horiz-adv-x="1228" 
d="M608 1110h-125l76 360h209z" />
    <glyph glyph-name="commaturn" horiz-adv-x="1228" 
d="M625 1333h80v-147h-199v125q0 86 60.5 138t160.5 52v-84q-51 -2 -76 -22t-26 -62z" />
    <glyph glyph-name="grave.cap" horiz-adv-x="1228" 
d="M596 1864l264 -297h-172l-366 297h274z" />
    <glyph glyph-name="acute.cap" horiz-adv-x="1228" 
d="M498 1567h-172l264 297h274z" />
    <glyph glyph-name="circumflex.cap" horiz-adv-x="1228" 
d="M504 1864h221l293 -297h-162l-242 178l-241 -178h-162z" />
    <glyph glyph-name="caron.cap" horiz-adv-x="1228" 
d="M1018 1866l-293 -297h-221l-293 297h162l241 -178l242 178h162z" />
    <glyph glyph-name="tilde.cap" horiz-adv-x="1228" 
d="M414 1853q58 0 107.5 -15t127.5 -60q59 -34 91 -45t63 -11q43 0 67 32t35 101h131q-11 -135 -69 -210.5t-154 -75.5q-52 0 -102 16t-131 60q-58 35 -90 46t-64 11q-87 0 -102 -133h-131q11 134 69 209t152 75z" />
    <glyph glyph-name="macron.cap" horiz-adv-x="1228" 
d="M987 1751v-154h-745v154h745z" />
    <glyph glyph-name="breve.cap" horiz-adv-x="1228" 
d="M614 1696q103 0 166.5 46.5t63.5 121.5h141q0 -136 -102 -218.5t-269 -82.5t-268.5 82.5t-101.5 218.5h141q0 -75 63 -121.5t166 -46.5z" />
    <glyph glyph-name="dotaccent.cap" horiz-adv-x="1228" 
d="M717 1575h-205v213h205v-213z" />
    <glyph glyph-name="dieresis.cap" horiz-adv-x="1228" 
d="M479 1575h-203v213h203v-213zM952 1575h-202v213h202v-213z" />
    <glyph glyph-name="ring.cap" horiz-adv-x="1228" 
d="M614 1552q-99 0 -170 68q-69 69 -69 166q0 98 69 164q70 67 170 67q103 0 171.5 -66.5t68.5 -164.5q0 -96 -70 -166q-71 -68 -170 -68zM614 1903q-49 0 -81.5 -33.5t-32.5 -83.5q0 -51 32 -84t82 -33t82.5 33t32.5 84q0 50 -33 83.5t-82 33.5z" />
    <glyph glyph-name="hungarumlaut.cap" horiz-adv-x="1228" 
d="M756 1567h-144l232 297h233zM340 1567h-143l219 297h246z" />
    <glyph glyph-name="guilsinglleft.cap" horiz-adv-x="548" 
d="M467 354l-385 281v182l385 281v-189l-236 -184l236 -182v-189z" />
    <glyph glyph-name="guilsinglright.cap" horiz-adv-x="548" 
d="M82 543l235 182l-235 184v189l385 -281v-182l-385 -281v189z" />
    <glyph glyph-name="guillemotleft.cap" horiz-adv-x="962" 
d="M467 354l-385 281v182l385 281v-189l-236 -184l236 -182v-189zM881 354l-385 281v182l385 281v-189l-236 -184l236 -182v-189z" />
    <glyph glyph-name="guillemotright.cap" horiz-adv-x="962" 
d="M467 817v-182l-385 -281v189l235 182l-235 184v189zM881 817v-182l-385 -281v189l235 182l-235 184v189z" />
    <glyph glyph-name="slash.cap" horiz-adv-x="1030" 
d="M215 -123h-195l795 1712h195z" />
    <glyph glyph-name="backslash.cap" horiz-adv-x="1030" 
d="M20 1589h195l795 -1712h-195z" />
    <glyph glyph-name="bar.cap" horiz-adv-x="512" 
d="M346 -123h-180v1712h180v-1712z" />
    <glyph glyph-name="periodcentered.cap" horiz-adv-x="425" 
d="M330 623h-234v241h234v-241z" />
    <glyph glyph-name="bullet.cap" horiz-adv-x="815" 
d="M96 737q0 131 90 221q91 91 224 91q131 0 219 -88t88 -224q0 -133 -88 -221t-219 -88q-136 0 -224 88q-90 90 -90 221z" />
    <glyph glyph-name="hyphen.cap" horiz-adv-x="753" 
d="M657 655h-561v166h561v-166z" />
    <glyph glyph-name="endash.cap" horiz-adv-x="1138" 
d="M1042 664h-946v149h946v-149z" />
    <glyph glyph-name="emdash.cap" horiz-adv-x="2027" 
d="M1931 664h-1835v149h1835v-149z" />
    <glyph glyph-name="parenleft.cap" horiz-adv-x="765" 
d="M281 705q0 -248 119.5 -466t351.5 -391h-199q-220 143 -346 369q-123 225 -123 488q0 262 123 487q126 226 346 369h199q-471 -357 -471 -856z" />
    <glyph glyph-name="parenright.cap" horiz-adv-x="765" 
d="M485 705q0 499 -471 856h199q221 -145 344 -369q125 -223 125 -487q0 -265 -125 -488q-123 -224 -344 -369h-199q232 173 351.5 391t119.5 466z" />
    <glyph glyph-name="bracketleft.cap" horiz-adv-x="749" 
d="M715 1407h-410v-1407h410v-152h-590v1713h590v-154z" />
    <glyph glyph-name="bracketright.cap" horiz-adv-x="749" 
d="M444 0v1407h-409v154h590v-1713h-590v152h409z" />
    <glyph glyph-name="braceleft.cap" horiz-adv-x="870" 
d="M143 629h-102v151h102q144 0 144 162v275q0 164 96 254t268 90h185v-154h-156q-117 0 -170 -55t-53 -176v-234q0 -178 -142 -237q142 -59 142 -238v-234q0 -121 53 -176t170 -55h156v-154h-185q-172 0 -268 90.5t-96 254.5v274q0 162 -144 162z" />
    <glyph glyph-name="braceright.cap" horiz-adv-x="870" 
d="M829 780v-151h-102q-143 0 -143 -162v-274q0 -164 -96.5 -254.5t-268.5 -90.5h-184v154h155q117 0 170.5 55t53.5 176v234q0 91 34 149t107 89q-73 31 -107 88.5t-34 148.5v234q0 121 -53.5 176t-170.5 55h-155v154h184q172 0 268.5 -90t96.5 -254v-275q0 -162 143 -162
h102z" />
    <glyph glyph-name="at.cap" horiz-adv-x="2166" 
d="M1604 1128l-97 -550q-12 -72 19 -110t104 -38q129 0 221 109q93 110 93 274q0 266 -218 422q-217 158 -577 158q-410 0 -664 -205t-254 -522q0 -300 234 -473q238 -173 643 -173q201 0 386.5 42t313.5 116l72 -125q-143 -86 -343 -133t-427 -47q-479 0 -760 213
q-280 212 -280 580q0 196 89 365.5t255 291.5q291 213 731 213q425 0 688 -199q264 -197 264 -518q0 -236 -141 -383q-139 -145 -352 -145q-92 0 -160 39.5t-94 107.5q-50 -71 -149 -112t-216 -41q-196 0 -315 104q-119 107 -119 279q0 201 145 340q148 139 363 139
q115 0 209.5 -46t144.5 -124l25 151h166zM735 680q0 -113 76 -180.5t203 -67.5q150 0 246 90q98 91 98 230q0 110 -77 178.5t-202 68.5q-147 0 -245 -94q-99 -91 -99 -225z" />
    <glyph glyph-name="zero.dnom" horiz-adv-x="1038" 
d="M518 -12q-202 0 -332 118q-131 119 -131 302q0 182 131 301q130 118 332 118t332 -118q133 -121 133 -301q0 -181 -133 -302q-130 -118 -332 -118zM518 690q-135 0 -220 -78.5t-85 -203.5t86 -205t219 -80q135 0 220 79t85 206t-84.5 204.5t-220.5 77.5z" />
    <glyph glyph-name="one.dnom" horiz-adv-x="735" 
d="M309 135v424h-276v119l149 4q82 2 119.5 32t44.5 103h121v-682h244v-135h-678v135h276z" />
    <glyph glyph-name="two.dnom" horiz-adv-x="890" 
d="M53 0v121l357 192q165 86 215 136q45 45 45 100q0 63 -56.5 103t-146.5 40q-109 0 -185.5 -56.5t-95.5 -148.5l-143 33q24 136 141 221q118 86 287 86q159 0 256 -75q100 -72 100 -193q0 -93 -60.5 -162.5t-211.5 -146.5l-223 -117h518v-133h-797z" />
    <glyph glyph-name="three.dnom" horiz-adv-x="911" 
d="M872 233q0 -105 -114 -176q-112 -69 -297 -69q-166 0 -287.5 63.5t-159.5 171.5l140 64q26 -74 111.5 -121t195.5 -47t178 35t68 92q0 55 -59.5 83.5t-166.5 28.5h-159v123h155q99 0 152 26t53 75q0 51 -60 81.5t-159 30.5q-103 0 -179.5 -41.5t-101.5 -109.5l-135 57
q37 103 153 165t271 62q170 0 273.5 -64.5t103.5 -168.5q0 -61 -42 -107t-114 -65q180 -46 180 -189z" />
    <glyph glyph-name="four.dnom" horiz-adv-x="935" 
d="M713 203v-203h-152v203h-541v121l490 491h203v-487h202v-125h-202zM561 686l-360 -358h360v358z" />
    <glyph glyph-name="five.dnom" horiz-adv-x="903" 
d="M446 426q-152 0 -245 -70l-129 27l53 432h676v-135h-557l-25 -188q101 62 252 59q173 0 280 -76.5t107 -200.5q0 -126 -117 -206q-115 -80 -292 -80q-162 0 -282 65.5t-157 175.5l142 58q26 -75 108.5 -121.5t188.5 -46.5q113 0 183 42t70 109q0 69 -70.5 112.5
t-185.5 43.5z" />
    <glyph glyph-name="six.dnom" horiz-adv-x="985" 
d="M532 827q135 0 239 -46t155 -128l-107 -92q-38 65 -116 101t-177 36q-140 0 -231 -73q-90 -75 -90 -187v-12q42 59 127.5 91t197.5 32q171 0 287 -78q115 -77 115 -197q0 -123 -121 -206q-121 -80 -303 -80q-213 0 -333 107.5t-120 297.5q0 195 131 314q132 120 346 120z
M504 115q122 0 197 42t75 111t-75.5 112.5t-196.5 43.5t-197 -43.5t-76 -112.5t75 -111t198 -42z" />
    <glyph glyph-name="seven.dnom" horiz-adv-x="868" 
d="M676 682h-522v-166h-134v299h828v-139q-170 -152 -249 -315t-79 -361h-162q0 396 318 682z" />
    <glyph glyph-name="eight.dnom" horiz-adv-x="950" 
d="M94 600q0 104 104 165.5t277 61.5t278 -61.5t105 -165.5q0 -119 -151 -172q102 -26 155 -77.5t53 -121.5q0 -112 -118 -176.5t-322 -64.5q-203 0 -321.5 64.5t-118.5 176.5q0 69 54.5 121t156.5 78q-152 51 -152 172zM248 600q0 -54 59 -82.5t168 -28.5q110 0 170 28.5
t60 82.5q0 51 -61 80t-169 29q-106 0 -166.5 -29t-60.5 -80zM758 240q0 61 -73.5 94t-209.5 33q-135 0 -208.5 -33t-73.5 -94q0 -63 73.5 -97t208.5 -34t209 34t74 97z" />
    <glyph glyph-name="nine.dnom" horiz-adv-x="985" 
d="M453 -12q-134 0 -238.5 47t-155.5 129l107 90q38 -65 116 -101t177 -36q141 0 229 73q92 74 92 187v14q-44 -60 -129 -92.5t-196 -32.5q-173 0 -289 78q-115 77 -115 197q0 128 119 207t307 79q213 0 333 -107.5t120 -297.5q0 -195 -133 -316q-130 -118 -344 -118z
M481 700q-122 0 -197 -42t-75 -111t75.5 -112.5t196.5 -43.5t197 43.5t76 112.5t-75 111t-198 42z" />
    <glyph glyph-name="colon.mid" horiz-adv-x="821" 
d="M526 227h-233v242h233v-242zM526 973h-233v241h233v-241z" />
    <glyph glyph-name="commaaboverightcmb" horiz-adv-x="0" 
d="M-16 1110h-125l75 360h209z" />
    <glyph glyph-name="space.tab" horiz-adv-x="819" 
 />
    <glyph glyph-name="period.tab" horiz-adv-x="819" 
d="M526 0h-233v242h233v-242z" />
    <glyph glyph-name="comma.tab" horiz-adv-x="819" 
d="M399 0h-106v242h233v-254q0 -118 -70.5 -186.5t-195.5 -73.5v106q139 9 139 150v16z" />
    <glyph glyph-name="colon.tab" horiz-adv-x="819" 
d="M526 0h-233v242h233v-242zM526 745h-233v242h233v-242z" />
    <glyph glyph-name="semicolon.tab" horiz-adv-x="819" 
d="M399 0h-106v242h233v-254q0 -118 -70.5 -186.5t-195.5 -73.5v106q139 9 139 150v16zM526 745h-233v242h233v-242z" />
    <glyph glyph-name="florin.lt" horiz-adv-x="1636" 
d="M913 735l-67 -346q-76 -412 -481 -412q-226 0 -365 127l90 140q115 -109 268 -109q242 0 295 264l68 336h-328v135h355l43 211q77 412 479 412q111 0 206 -33t158 -94l-88 -139q-114 108 -268 108q-244 0 -297 -264l-39 -201h356v-135h-385z" />
    <glyph glyph-name="Euro.lt" 
d="M188 512h-151v141h127q-1 17 -2 35t-1.5 28.5t-0.5 18.5q0 10 0.5 21.5t1.5 32t2 40.5h-127v140h156q71 241 266 381q195 143 461 143q238 0 413.5 -116.5t253.5 -327.5l-164 -86q-63 170 -195.5 263t-312.5 93q-189 0 -326.5 -92t-199.5 -258h651l-32 -140h-652
q-6 -31 -6 -94q0 -8 0.5 -18.5t1.5 -28.5t2 -35h617l-29 -141h-557q60 -170 199.5 -265t330.5 -95q180 0 312.5 93t195.5 263l164 -86q-78 -211 -253.5 -328t-413.5 -117q-263 0 -465 146q-199 143 -267 389z" />
    <glyph glyph-name="dollar.lt" 
d="M41 371l147 118q81 -134 232.5 -217t347.5 -102v510q-366 40 -498 123q-131 85 -131 252q0 178 174 291q172 115 455 124v207h160v-213q214 -19 377 -99t241 -204l-145 -114q-63 102 -185.5 166t-287.5 83v-465q392 -44 522 -131q135 -86 135 -260q0 -189 -178 -309
q-176 -117 -479 -129v-211h-160v211q-251 18 -444 117q-195 100 -283 252zM324 1067q0 -97 88 -143q87 -46 356 -76v457q-213 -4 -328.5 -66.5t-115.5 -171.5zM1393 422q0 108 -90 158q-84 47 -375 82v-494q219 7 342 75t123 179z" />
    <glyph glyph-name="cent.lt" 
d="M948 -217h-151v199q-251 21 -408 178q-158 158 -158 383q0 227 158 385q157 157 408 178v217h151v-217q176 -15 320 -113q140 -96 186 -233l-147 -80q-32 108 -127.5 179.5t-231.5 90.5v-815q131 19 229 93t130 180l145 -82q-47 -140 -184 -234q-139 -95 -320 -110v-199z
M406 543q0 -163 106 -275q109 -112 285 -133v815q-177 -21 -285 -135q-106 -109 -106 -272z" />
    <glyph glyph-name="sterling.lt" 
d="M522 602h-336v150h240q-53 83 -74.5 149t-21.5 135q0 197 166 326q170 129 428 129q265 0 424 -135q159 -132 159 -355q0 -51 -18 -139h-176q16 62 16 111q0 165 -109 257.5t-302 92.5q-180 0 -290 -85t-110 -224q0 -58 20 -113t78 -149h482v-150h-400q41 -96 41 -188
q0 -26 -8 -99q164 -109 242 -139q85 -29 155 -29q131 0 210 77t89 216h177q-3 -203 -131 -334q-126 -129 -324 -129q-105 0 -203 39q-97 39 -264 164q-51 -97 -137.5 -150t-192.5 -53q-125 0 -203.5 68.5t-78.5 177.5q0 105 81 170.5t211 65.5q107 0 222 -56q-3 92 -62 199z
M367 332q-66 0 -106 -31t-40 -82q0 -47 38 -74.5t101 -27.5q67 0 120 40t79 109q-111 66 -192 66z" />
    <glyph glyph-name="yen.lt" 
d="M782 387h-479v141h479v168h-479v142h354l-585 632h252l553 -622l550 622h246l-581 -632h354v-142h-479v-168h479v-141h-479v-387h-185v387z" />
    <glyph glyph-name="zero.lt" 
d="M80 735q0 162 56.5 303.5t154.5 241t235 156.5t293 57t293 -57t235.5 -156.5t155 -241t56.5 -303.5t-56.5 -303.5t-155 -241t-235.5 -156.5t-293 -57t-293 57t-235 156.5t-154.5 241t-56.5 303.5zM276 735q0 -259 151.5 -420t391.5 -161q238 0 388.5 161t150.5 420
t-150.5 420.5t-388.5 161.5q-240 0 -391.5 -161.5t-151.5 -420.5z" />
    <glyph glyph-name="one.lt" 
d="M838 1479h145v-1315h545v-164h-1348v164h608v913h-589v148l374 12q137 5 195 57t70 185z" />
    <glyph glyph-name="two.lt" 
d="M125 0v162l674 377l198 112q78 49 109 72q96 68 137 136t41 155q0 136 -123 221q-122 88 -309 88q-219 0 -373 -115q-150 -114 -184 -301l-178 54q53 238 252 385q203 147 491 147q272 0 445 -135q174 -131 174 -344q0 -155 -109 -279q-110 -126 -432 -305l-471 -258
h1055v-172h-1397z" />
    <glyph glyph-name="three.lt" 
d="M1552 422q0 -194 -200 -320q-198 -125 -512 -125q-292 0 -504 123q-211 123 -270 324l176 76q47 -156 211 -256q167 -99 385 -99q236 0 376 78t140 211q0 118 -119.5 183t-335.5 65h-293v166h291q190 0 295.5 58.5t105.5 164.5q0 117 -122.5 185.5t-327.5 68.5
q-210 0 -358.5 -87.5t-192.5 -236.5l-174 60q55 196 252 313q198 119 479 119q291 0 465 -113q176 -111 176 -295q0 -115 -79.5 -199.5t-215.5 -115.5q168 -31 260 -121.5t92 -226.5z" />
    <glyph glyph-name="four.lt" 
d="M1225 383v-383h-189v383h-985v154l916 933h260v-923h372v-164h-374zM1032 1311l-747 -764h747v764z" />
    <glyph glyph-name="five.lt" 
d="M840 823q-146 0 -278 -39.5t-224 -109.5l-148 49l93 747h1177v-172h-1030l-55 -432q87 57 219 90t278 33q306 -3 496 -141q191 -138 191 -361q0 -222 -203 -366q-200 -144 -512 -144q-296 0 -506 125t-268 330l176 76q48 -161 213 -260q171 -103 387 -103q225 0 371 93
q143 94 143 247q0 151 -146 244q-143 94 -374 94z" />
    <glyph glyph-name="six.lt" 
d="M883 1493q225 0 400.5 -92t260.5 -252l-145 -115q-59 134 -203 213q-140 82 -322 82q-256 0 -432 -164q-172 -163 -172 -409q0 -37 2 -47q75 131 231 202.5t365 71.5q300 0 494 -141q194 -138 194 -355q0 -220 -202 -364q-202 -146 -504 -146q-365 0 -565 197
q-199 196 -199 543q0 344 221 559q224 217 576 217zM842 141q227 0 372 95q148 95 148 243q0 147 -145 242q-146 96 -371 96q-226 0 -375 -96q-145 -95 -145 -242q0 -149 143 -243q145 -95 373 -95z" />
    <glyph glyph-name="seven.lt" 
d="M1350 1300h-1086v-313h-172v483h1469v-174q-326 -314 -471 -620q-146 -315 -146 -676h-201q0 729 607 1300z" />
    <glyph glyph-name="eight.lt" 
d="M170 1100q0 181 176 286q177 107 473 107q297 0 471 -107q178 -105 178 -286q0 -117 -75 -195t-234 -125q193 -43 297.5 -139t104.5 -235q0 -200 -199 -314q-193 -112 -543 -112q-349 0 -545 112q-196 114 -196 314q0 139 104 235t297 139q-159 47 -234 125t-75 195z
M362 1098q0 -115 119.5 -177.5t337.5 -62.5t337.5 62.5t119.5 177.5t-120 177t-337 62t-337 -62t-120 -177zM1362 418q0 133 -142 205.5t-401 72.5t-401 -72.5t-142 -205.5q0 -135 141.5 -208t401.5 -73t401.5 73t141.5 208z" />
    <glyph glyph-name="nine.lt" 
d="M756 -23q-225 0 -401 92.5t-261 252.5l146 114q59 -132 200 -215q145 -80 324 -80q259 0 430 162q174 162 174 412q0 37 -2 47q-75 -131 -231 -203t-365 -72q-298 0 -494 140q-194 141 -194 356q0 220 201 365q204 145 505 145q364 0 564 -197t200 -542t-223 -561
q-222 -216 -573 -216zM797 1329q-229 0 -375 -94q-146 -96 -146 -244q0 -147 146 -243q145 -95 371 -95q227 0 372 95q148 95 148 243t-146 244q-143 94 -370 94z" />
    <glyph glyph-name="percent.lt" 
d="M401 778q-160 0 -264 101q-102 102 -102 256t102 256q105 102 264 102t261 -102q104 -101 104 -256q0 -154 -102 -256q-101 -101 -263 -101zM336 0h-182l1149 1470h182zM401 907q96 0 155.5 64t59.5 164t-59.5 163.5t-155.5 63.5q-97 0 -157 -62.5t-60 -164.5t60 -165
t157 -63zM1229 692q162 0 262 -100q102 -102 102 -256q0 -157 -104 -258q-101 -101 -260 -101q-160 0 -264 101q-103 103 -103 258q0 153 103 256q103 100 264 100zM1229 563q-97 0 -157 -62.5t-60 -164.5t60 -164.5t157 -62.5q96 0 155.5 63.5t59.5 163.5t-59.5 163.5
t-155.5 63.5z" />
    <glyph glyph-name="baht.lt" 
d="M737 0h-587v1470h587v207h160v-207h135q233 0 360.5 -100t127.5 -283q0 -117 -62 -200t-178 -121q134 -37 211.5 -132t77.5 -228q0 -188 -133 -297t-361 -109h-178v-209h-160v209zM338 1305v-465h399v465h-399zM1333 1071q0 113 -82 173.5t-235 60.5h-119v-465h119
q154 0 235.5 59.5t81.5 171.5zM737 672h-399v-506h399v506zM1380 420q0 115 -85 183.5t-228 68.5h-170v-506h170q143 0 228 68.5t85 185.5z" />
    <glyph glyph-name="dong.lt" 
d="M1106 178v148q-56 -78 -158 -122t-231 -44q-236 0 -379 125t-143 319q0 193 145 320t377 127q129 0 231 -44t158 -124v282h-367v148h367v157h170v-157h252v-148h-252v-987h-170zM1110 600v12q0 126 -109 209q-110 84 -266 84q-159 0 -266 -84q-102 -83 -102 -217
t102 -217q104 -82 266 -82q159 0 266 82q109 83 109 213zM1276 -147h-1067v147h1067v-147z" />
    <glyph glyph-name="franc.lt" 
d="M313 356h-209v150h209v964h1229v-172h-1034v-446h917v-172h-917v-174h405v-150h-405v-356h-195v356z" />
    <glyph glyph-name="naira.lt" 
d="M240 510h-209v141h209v174h-209v142h209v503h209l761 -1134v1134h189v-503h209v-142h-209v-174h209v-141h-209v-510h-174l-797 1186v-1186h-188v510z" />
    <glyph glyph-name="peseta.lt" 
d="M879 485h-443v-485h-196v895h-211v166h211v409h639q240 0 384 -106.5t169 -302.5h188v-166h-188q-25 -194 -171 -302t-382 -108zM866 1303h-430v-242h801q-26 117 -122.5 179.5t-248.5 62.5zM436 895v-242h430q152 0 248.5 63t122.5 179h-801z" />
    <glyph glyph-name="peso.lt" 
d="M854 471h-428v-471h-195v741h-211v142h211v176h-211v141h211v270h623q190 0 322 -69.5t192 -200.5h254v-141h-215q6 -31 6 -88t-6 -88h215v-142h-256q-62 -131 -194 -200.5t-318 -69.5zM426 1303v-664h416q178 0 278.5 88t100.5 244q0 158 -99.5 245t-279.5 87h-416z" />
    <glyph glyph-name="uni20BD.lt" 
d="M283 301h-217v168h217v174h-215v168h215v659h815q232 0 362.5 -108.5t130.5 -304.5q0 -192 -132 -303t-361 -111h-619v-174h482v-168h-482v-301h-196v301zM1085 1300h-606v-489h606q148 0 230 64.5t82 181.5t-82 180t-230 63z" />
    <glyph glyph-name="uni20B9.lt" 
d="M643 596h-565v166h670q131 0 215 48.5t110 139.5h-995v166h997q-26 91 -110 140t-217 49h-670v165h1464v-165h-385q91 -76 115 -189h270v-166h-268q-25 -145 -133 -235t-281 -113l422 -602h-227z" />
    <glyph glyph-name="uni20BA.lt" 
d="M381 371l-295 -164v166l295 164v178l-291 -162v164l291 162v591h197v-483l471 262v-164l-471 -262v-178l471 260v-166l-471 -260v-307h290q258 0 383 135.5t125 413.5h197q0 -358 -180 -539.5t-535 -181.5h-477v371z" />
    <glyph glyph-name="won.lt" 
d="M291 510h-262v141h231l-39 174h-192v142h159l-110 503h186l246 -1130l231 948h156l233 -948l244 1130h185l-111 -503h162v-142h-195l-39 -174h234v-141h-264l-113 -510h-164l-250 1012l-248 -1012h-168z" />
    <glyph glyph-name="zero.slash" horiz-adv-x="1765" 
d="M1710 735q0 -329 -235 -542q-239 -216 -592 -216t-592 216q-236 214 -236 542q0 329 236 543q238 215 592 215t592 -215q235 -213 235 -543zM885 1325q-281 0 -459 -166q-178 -163 -178 -426q0 -168 78 -309l1003 754q-176 147 -444 147zM881 145q277 0 456 164
q179 167 179 428q0 172 -78 307l-1002 -751q177 -148 445 -148z" />
    <glyph glyph-name="zero.slash.lt" 
d="M1559 735q0 -328 -211 -542q-210 -216 -529 -216q-317 0 -530 216q-209 215 -209 542q0 328 209 543q212 215 530 215q320 0 529 -215q211 -214 211 -543zM819 1325q-242 0 -395 -164q-154 -165 -154 -426q0 -164 64 -295l868 731q-151 154 -383 154zM819 145
q243 0 393 164q152 166 152 426q0 158 -64 295l-866 -731q151 -154 385 -154z" />
    <glyph glyph-name="arrowNW" horiz-adv-x="1652" 
d="M463 1290l1179 -1179l-131 -134l-1183 1184v-688h-178v997h999v-180h-686z" />
    <glyph glyph-name="arrowNE" horiz-adv-x="1652" 
d="M1503 473h-178v688l-1184 -1184l-131 134l1180 1179h-686v180h999v-997z" />
    <glyph glyph-name="arrowSE" horiz-adv-x="1652" 
d="M1325 997h178v-997h-999v180h686l-1180 1180l131 133l1184 -1184v688z" />
    <glyph glyph-name="arrowSW" horiz-adv-x="1652" 
d="M463 180h686v-180h-999v997h178v-688l1183 1184l131 -133z" />
    <glyph glyph-name="arrowupdown" horiz-adv-x="1495" 
d="M1364 377l121 -139l-737 -629l-738 629l121 139l524 -449v1286l-524 -448l-121 139l738 629l737 -629l-121 -139l-524 446v-1282z" />
    <glyph glyph-name="arrowleftright" horiz-adv-x="2019" 
d="M1386 1442l623 -701l-623 -700l-135 127l430 481h-1343l430 -481l-135 -127l-623 700l623 701l135 -127l-430 -481h1343l-430 481z" />
    </font>
</defs>
</svg>
