<?xml version="1.0" standalone="no"?>
<!DOCTYPE svg PUBLIC "-//W3C//DTD SVG 1.1//EN" "http://www.w3.org/Graphics/SVG/1.1/DTD/svg11.dtd" >
<svg xmlns="http://www.w3.org/2000/svg" xmlns:xlink="http://www.w3.org/1999/xlink" version="1.1">
<metadata>
Created by FontForge 20201107 at Fri Jul 12 23:26:06 2024
 By 
Copyright 2020, Kris Sowersby, Klim Type Foundry.
</metadata>
<defs>
<font id="SohneBreit-KraftigKursiv" horiz-adv-x="1638" >
  <font-face 
    font-family="Sohne Breit Kraftig"
    font-weight="500"
    font-style="italic"
    font-stretch="expanded"
    units-per-em="2048"
    panose-1="2 11 6 5 3 2 2 13 2 3"
    ascent="1638"
    descent="-410"
    x-height="1075"
    cap-height="1470"
    bbox="-553 -412 3021 2064"
    underline-thickness="204"
    underline-position="-388"
    slope="-12"
    unicode-range="U+000D-FB04"
  />
<missing-glyph horiz-adv-x="1228" 
d="M0 0v1470h1229v-1470h-1229zM270 496l105 -105l239 240l242 -240l102 105l-237 241l237 240l-102 104l-242 -239l-239 239l-105 -104l240 -240z" />
    <glyph glyph-name="ff" unicode="ff" horiz-adv-x="1742" 
d="M418 1075l2 15q29 204 149.5 303.5t341.5 99.5q156 0 277 -37l-68 -215q-132 29 -215 29q-116 0 -175 -43t-71 -137l-2 -15h553l2 15q29 204 150 303.5t342 99.5q155 0 276 -37l-67 -215q-132 29 -215 29q-116 0 -175 -43t-71 -137l-2 -15h424l-31 -209h-424l-121 -866
h-239l121 866h-553l-121 -866h-240l121 866h-270l30 209h271z" />
    <glyph glyph-name="fi" unicode="fi" horiz-adv-x="1423" 
d="M418 1075l2 15q29 204 147.5 303.5t333.5 99.5q145 0 266 -37l-67 -215q-131 29 -205 29q-110 0 -167 -43t-69 -137l-2 -15h404l-31 -209h-403l-121 -866h-240l121 866h-270l30 209h271zM1481 1219h-254l35 251h254zM1210 1075h246l-151 -1075h-246z" />
    <glyph glyph-name="fl" unicode="fl" horiz-adv-x="1423" 
d="M418 1075l2 15q29 204 147.5 303.5t333.5 99.5q145 0 266 -37l-67 -215q-132 29 -205 29q-110 0 -167 -43t-69 -137l-2 -15h404l-31 -209h-403l-121 -866h-240l121 866h-270l30 209h271zM1266 1470h245l-206 -1470h-246z" />
    <glyph glyph-name="ffi" unicode="ffi" horiz-adv-x="2215" 
d="M418 1075l2 15q29 204 149.5 303.5t341.5 99.5q156 0 277 -37l-68 -215q-132 29 -215 29q-116 0 -175 -43t-71 -137l-2 -15h553l2 15q29 204 148 303.5t334 99.5q145 0 266 -37l-68 -215q-131 29 -204 29q-110 0 -167 -43t-69 -137l-2 -15h403l-30 -209h-404l-121 -866
h-239l121 866h-553l-121 -866h-240l121 866h-270l30 209h271zM2273 1219h-254l35 251h254zM2003 1075h246l-152 -1075h-246z" />
    <glyph glyph-name="ffl" unicode="ffl" horiz-adv-x="2215" 
d="M418 1075l2 15q29 204 149.5 303.5t341.5 99.5q156 0 277 -37l-68 -215q-132 29 -215 29q-116 0 -175 -43t-71 -137l-2 -15h553l2 15q29 204 148 303.5t334 99.5q145 0 266 -37l-68 -215q-132 29 -204 29q-110 0 -167 -43t-69 -137l-2 -15h403l-30 -209h-404l-121 -866
h-239l121 866h-553l-121 -866h-240l121 866h-270l30 209h271zM2058 1470h246l-207 -1470h-246z" />
    <glyph glyph-name="f_b" unicode="fb" horiz-adv-x="2365" 
d="M418 1075l2 15q29 204 147.5 303.5t333.5 99.5q145 0 266 -37l-67 -215q-132 29 -205 29q-110 0 -167 -43t-69 -137l-2 -15h404l-31 -209h-403l-121 -866h-240l121 866h-270l30 209h271zM1763 -23q-135 0 -248.5 47.5t-187.5 133.5l-22 -158h-246l207 1470h245l-73 -528
q66 72 171.5 113t229.5 41q240 0 395 -146q154 -145 154 -368q0 -255 -178 -430q-175 -175 -447 -175zM2154 567q0 146 -104 234q-107 90 -268 90q-180 0 -299 -113q-119 -110 -119 -272q0 -146 104 -234q107 -90 269 -90q177 0 297 111q120 114 120 274z" />
    <glyph glyph-name="f_h" unicode="fh" horiz-adv-x="2279" 
d="M418 1075l2 15q29 204 147.5 303.5t333.5 99.5q145 0 266 -37l-67 -215q-132 29 -205 29q-110 0 -167 -43t-69 -137l-2 -15h404l-31 -209h-403l-121 -866h-240l121 866h-270l30 209h271zM1305 0h-246l207 1470h245l-75 -532q146 158 381 158q226 0 346 -144
q122 -143 88 -366l-82 -586h-246l76 545q20 149 -52.5 237t-217.5 88q-143 0 -236 -87.5t-113 -241.5z" />
    <glyph glyph-name="f_idieresis" unicode="f&#xef;" horiz-adv-x="1423" 
d="M911 1493q156 0 277 -37l-68 -215q-132 29 -215 29q-116 0 -175 -43t-71 -137l-2 -15h424l-30 -209h-424l-121 -866h-240l121 866h-270l30 209h271l2 15q29 204 149.5 303.5t341.5 99.5zM1737 1219h-262l34 251h263zM1210 1075h246l-151 -1075h-246z" />
    <glyph glyph-name="f_j" unicode="fj" horiz-adv-x="1423" 
d="M418 1075l2 15q29 204 147.5 303.5t333.5 99.5q145 0 266 -37l-67 -215q-131 29 -205 29q-110 0 -167 -43t-69 -137l-2 -15h404l-31 -209h-403l-121 -866h-240l121 866h-270l30 209h271zM1481 1219h-254l35 251h254zM1456 1075l-149 -1057q-29 -204 -139 -303.5
t-306 -99.5q-139 0 -260 41l64 201q108 -31 180 -31q99 0 150.5 46t64.5 148l149 1055h246z" />
    <glyph glyph-name="f_k" unicode="fk" horiz-adv-x="2273" 
d="M418 1075l2 15q29 204 147.5 303.5t333.5 99.5q145 0 266 -37l-67 -215q-132 29 -205 29q-110 0 -167 -43t-69 -137l-2 -15h404l-31 -209h-403l-121 -866h-240l121 866h-270l30 209h271zM1266 1470h245l-131 -925l703 530h354l-631 -465l502 -610h-307l-387 469
l-273 -201l-36 -268h-246z" />
    <glyph glyph-name=".notdef" horiz-adv-x="1228" 
d="M0 0v1470h1229v-1470h-1229zM270 496l105 -105l239 240l242 -240l102 105l-237 241l237 240l-102 104l-242 -239l-239 239l-105 -104l240 -240z" />
    <glyph glyph-name=".null" horiz-adv-x="0" 
 />
    <glyph glyph-name="nonmarkingreturn" horiz-adv-x="682" 
 />
    <glyph glyph-name="NULL" horiz-adv-x="0" 
 />
    <glyph glyph-name="NULL" horiz-adv-x="0" 
 />
    <glyph glyph-name="CR" unicode="&#xd;" horiz-adv-x="532" 
 />
    <glyph glyph-name="space" unicode=" " horiz-adv-x="532" 
 />
    <glyph glyph-name="exclam" unicode="!" horiz-adv-x="624" 
d="M465 444h-184l81 1026h312zM461 0h-297l41 297h297z" />
    <glyph glyph-name="quotedbl" unicode="&#x22;" horiz-adv-x="727" 
d="M393 889h-168l23 581h287zM752 889h-168l22 581h287z" />
    <glyph glyph-name="numbersign" unicode="#" horiz-adv-x="1490" 
d="M420 0h-230l150 393h-223l26 195h271l110 295h-274l26 194h322l150 393h231l-150 -393h340l150 393h229l-147 -393h180l-27 -194h-227l-113 -295h236l-27 -195h-282l-148 -393h-233l149 393h-340zM756 883l-113 -295h340l113 295h-340z" />
    <glyph glyph-name="dollar" unicode="$" horiz-adv-x="1630" 
d="M37 360l201 166q67 -112 202.5 -188t315.5 -102l59 419q-131 21 -242 43q-63 15 -127 41q-213 84 -213 283q0 198 191 324q190 124 506 124l31 213h210l-32 -225q209 -26 362 -104t219 -191l-198 -151q-108 172 -414 223l-53 -383q336 -49 467 -139q129 -88 129 -246
q0 -212 -193 -338q-194 -126 -524 -129l-31 -217h-211l33 227q-233 26 -430 125q-186 94 -258 225zM489 1051q0 -66 62 -101q60 -32 297 -67l51 366q-192 -1 -301 -54t-109 -144zM1393 434q0 74 -72 115q-74 42 -299 76l-57 -402q207 4 317.5 59t110.5 152z" />
    <glyph glyph-name="percent" unicode="%" horiz-adv-x="1980" 
d="M602 723q-173 0 -283 98q-108 102 -108 254q0 171 127 295q129 123 317 123q174 0 283 -100q111 -99 111 -252q0 -172 -129 -295q-126 -123 -318 -123zM1645 1470h253l-1353 -1470h-254zM649 1319q-98 0 -163.5 -67.5t-65.5 -164.5q0 -85 52.5 -137.5t137.5 -52.5
q98 0 164 67t66 164q0 86 -52.5 138.5t-138.5 52.5zM1583 748q173 0 283 -101q110 -98 110 -252q0 -172 -129 -295q-126 -123 -317 -123q-172 0 -283 99q-108 102 -108 254q0 171 127 295q129 123 317 123zM1577 573q-98 0 -163.5 -67t-65.5 -164q0 -85 52.5 -137.5
t137.5 -52.5q98 0 163.5 67t65.5 164q0 86 -52 138t-138 52z" />
    <glyph glyph-name="ampersand" unicode="&#x26;" horiz-adv-x="1853" 
d="M1606 815l237 -57q-112 -287 -311 -477q74 -44 144.5 -58.5t178.5 -7.5l-30 -217q-148 -15 -256 12q-103 26 -234 121q-265 -154 -600 -154q-290 0 -467 121q-174 119 -174 318q0 164 112 276t314 150q-65 100 -65 223q0 187 147 307q148 121 383 121q214 0 338 -100
q127 -100 127 -258q0 -160 -122 -273.5t-331 -150.5l351 -293q148 136 258 397zM979 1296q-131 0 -206 -56.5t-75 -154.5q0 -112 111 -217q401 37 401 256q0 78 -62.5 125t-168.5 47zM342 430q0 -105 111 -168t292 -63q235 0 406 82l-469 397q-340 -40 -340 -248z" />
    <glyph glyph-name="quotesingle" unicode="'" horiz-adv-x="368" 
d="M393 889h-168l23 581h287z" />
    <glyph glyph-name="parenleft" unicode="(" horiz-adv-x="776" 
d="M406 535q0 -424 342 -736h-267q-172 130 -263 320t-91 416q0 291 152 555q147 256 417 421h293q-284 -204 -433.5 -455t-149.5 -521z" />
    <glyph glyph-name="parenright" unicode=")" horiz-adv-x="776" 
d="M555 776q0 423 -342 735h266q172 -131 263.5 -320t91.5 -415q0 -291 -152 -555q-147 -256 -418 -422h-293q284 204 434 455.5t150 521.5z" />
    <glyph glyph-name="asterisk" unicode="*" horiz-adv-x="909" 
d="M893 788l-160 -102l-141 242l-211 -242l-139 115l209 241l-273 93l78 168l276 -91l43 299h185l-43 -299l293 91l37 -179l-299 -92z" />
    <glyph glyph-name="plus" unicode="+" 
d="M1628 829l-31 -215h-585l-82 -585h-213l82 585h-586l31 215h585l82 586h213l-82 -586h586z" />
    <glyph glyph-name="comma" unicode="," horiz-adv-x="460" 
d="M217 0h-135l41 297h297l-49 -352q-17 -111 -105.5 -175t-224.5 -63l18 137q66 1 106 31.5t46 81.5z" />
    <glyph glyph-name="hyphen" unicode="-" horiz-adv-x="737" 
d="M723 487h-573l30 220h574z" />
    <glyph glyph-name="period" unicode="." horiz-adv-x="460" 
d="M379 0h-297l41 297h297z" />
    <glyph glyph-name="slash" unicode="/" horiz-adv-x="1089" 
d="M258 -201h-266l1024 1712h266z" />
    <glyph glyph-name="zero" unicode="0" horiz-adv-x="1777" 
d="M954 -23q-353 0 -577 199q-223 198 -223 506q0 168 68.5 321.5t195.5 268.5q254 221 612 221q350 0 574 -199q225 -200 225 -506q0 -168 -68.5 -321t-195.5 -268q-120 -107 -277 -164.5t-334 -57.5zM1022 1262q-264 0 -432 -162q-168 -158 -168 -404q0 -219 147 -354
q151 -133 394 -133q259 0 430 160q168 158 168 405q0 219 -148 352q-148 136 -391 136z" />
    <glyph glyph-name="one" unicode="1" horiz-adv-x="929" 
d="M801 1481h198l-208 -1481h-263l144 1014h-518l26 196l309 17q140 8 211.5 66t100.5 188z" />
    <glyph glyph-name="two" unicode="2" horiz-adv-x="1515" 
d="M59 0l31 213l887 446q352 179 352 369q0 108 -103.5 175t-269.5 67q-206 0 -356 -111q-153 -110 -205 -289l-227 68q77 254 293 403q220 152 512 152q279 0 446 -123q168 -119 168 -326q0 -163 -116.5 -297.5t-356.5 -252.5l-545 -265h944l-32 -229h-1422z" />
    <glyph glyph-name="three" unicode="3" horiz-adv-x="1572" 
d="M1595 446q0 -203 -206 -335q-209 -134 -539 -134q-318 0 -533 132q-213 133 -243 344l235 96q32 -161 180 -255.5t369 -94.5q205 0 338 71t133 185q0 92 -102.5 142t-292.5 50h-268l32 221h265q180 0 291.5 58.5t111.5 152.5q0 90 -100.5 141.5t-274.5 51.5
q-200 0 -343.5 -73.5t-209.5 -209.5l-229 82q92 207 296 314.5t501 107.5q282 0 456 -109q174 -107 174 -284q0 -124 -85 -216.5t-232 -127.5q129 -31 202.5 -113t73.5 -197z" />
    <glyph glyph-name="four" unicode="4" horiz-adv-x="1679" 
d="M1315 358l-51 -358h-252l51 358h-991l28 205l1026 907h344l-127 -895h396l-29 -217h-395zM1188 1247l-764 -672h668z" />
    <glyph glyph-name="five" unicode="5" horiz-adv-x="1572" 
d="M885 780q-275 0 -488 -141l-186 63l201 768h1208l-33 -229h-1007l-95 -344q186 100 455 100q305 0 485 -131q183 -133 183 -342q0 -234 -213 -391q-211 -156 -545 -156q-305 0 -535 127q-226 129 -256 324l242 96q27 -139 182 -233q157 -92 369 -92q208 0 348 90
q141 89 141 221q0 123 -124.5 196.5t-331.5 73.5z" />
    <glyph glyph-name="six" unicode="6" horiz-adv-x="1671" 
d="M1081 1493q244 0 435 -90q188 -87 266 -240l-199 -149q-52 119 -197 190q-147 72 -327 72q-248 0 -426 -135q-176 -132 -232 -359q103 100 260.5 154.5t342.5 54.5q303 0 495 -137q195 -136 195 -342q0 -123 -72.5 -234t-202.5 -184q-211 -117 -506 -117q-362 0 -564 169
t-202 470q0 183 72 349.5t205 289.5q259 238 657 238zM922 199q236 0 376 82q142 83 142 215q0 124 -137 200t-363 76q-232 0 -377 -86q-141 -83 -141 -217q0 -124 137 -197t363 -73z" />
    <glyph glyph-name="seven" unicode="7" horiz-adv-x="1484" 
d="M1348 1245h-926l-41 -295h-227l73 520h1444l-33 -233q-346 -295 -522 -588q-172 -287 -225 -649h-262q102 728 719 1245z" />
    <glyph glyph-name="eight" unicode="8" horiz-adv-x="1650" 
d="M311 1092q0 182 187 290q188 111 499 111q297 0 471 -107q177 -106 177 -280q0 -117 -84 -202t-246 -132q165 -41 260.5 -139t95.5 -225q0 -194 -215 -314q-212 -117 -582 -117q-359 0 -569 113q-213 115 -213 305q0 140 120.5 243t340.5 150q-119 47 -180.5 124.5
t-61.5 179.5zM559 1073q0 -93 106.5 -144.5t299.5 -51.5q200 0 313 58.5t113 158.5q0 94 -106.5 145t-301.5 51q-197 0 -310.5 -58.5t-113.5 -158.5zM1411 430q0 109 -140 171.5t-386 62.5q-247 0 -387 -66t-140 -182q0 -109 138.5 -170.5t380.5 -61.5q249 0 391.5 66.5
t142.5 179.5z" />
    <glyph glyph-name="nine" unicode="9" horiz-adv-x="1671" 
d="M797 -23q-241 0 -437 91q-187 88 -264 239l199 150q53 -120 197 -191q145 -71 327 -71q247 0 424 133q179 135 234 360q-103 -100 -260.5 -154.5t-342.5 -54.5q-304 0 -497 135q-193 138 -193 344q0 123 72.5 234t202.5 184q211 117 506 117q362 0 564 -169t202 -470
q0 -183 -72 -349.5t-205 -289.5q-259 -238 -657 -238zM956 1272q-232 0 -376 -84q-142 -83 -142 -213q0 -125 137 -201t363 -76q231 0 375 84q143 85 143 219q0 124 -137 197q-139 74 -363 74z" />
    <glyph glyph-name="colon" unicode=":" horiz-adv-x="460" 
d="M379 0h-297l41 297h297zM479 715h-297l41 297h297z" />
    <glyph glyph-name="semicolon" unicode=";" horiz-adv-x="460" 
d="M217 0h-135l41 297h297l-49 -352q-17 -111 -105.5 -175t-224.5 -63l18 137q66 1 106 31.5t46 81.5zM479 715h-297l41 297h297z" />
    <glyph glyph-name="less" unicode="&#x3c;" 
d="M1518 49l-1311 516l45 324l1456 514l-39 -273l-1235 -411l1120 -414z" />
    <glyph glyph-name="equal" unicode="=" 
d="M1636 883h-1384l29 215h1384zM1559 338h-1385l31 215h1384z" />
    <glyph glyph-name="greater" unicode="&#x3e;" 
d="M336 1403l1311 -516l-45 -324l-1457 -514l39 273l1235 411l-1120 414z" />
    <glyph glyph-name="question" unicode="?" horiz-adv-x="1402" 
d="M1255 1047q0 106 -99 164.5t-279 58.5q-186 0 -308.5 -66.5t-165.5 -191.5l-251 39q62 209 255.5 325.5t481.5 116.5q293 0 465 -117q172 -114 172 -315q0 -195 -161 -316.5t-445 -138.5l-25 -162h-242l49 344q269 0 411 67t142 192zM874 0h-296l40 297h297z" />
    <glyph glyph-name="at" unicode="@" horiz-adv-x="2144" 
d="M1743 926l-178 -533q-20 -57 0 -87t77 -30q124 0 224 121q100 118 100 283q0 215 -186 340q-188 129 -498 129q-380 0 -633 -178q-146 -103 -225.5 -248.5t-79.5 -312.5q0 -254 196.5 -396.5t546.5 -142.5q191 0 373 42t320 116l106 -172q-338 -191 -803 -191
q-453 0 -710 199q-256 197 -256 545q0 204 100 388t283 318q321 234 788 234q396 0 647 -189q248 -187 248 -485q0 -247 -166 -416q-167 -170 -399 -170q-201 0 -270 141q-63 -63 -166 -102t-211 -39q-172 0 -272.5 93t-100.5 253q0 209 166 359q165 149 397 149
q104 0 186 -35.5t132 -101.5l41 119h223zM850 465q0 -82 56.5 -131t152.5 -49q132 0 225 84q94 85 94 200q0 82 -56.5 131.5t-152.5 49.5q-132 0 -227 -86q-92 -83 -92 -199z" />
    <glyph glyph-name="A" unicode="A" horiz-adv-x="1763" 
d="M-12 0l970 1470h289l527 -1470h-269l-131 369h-858l-242 -369h-286zM1292 598l-219 621l-407 -621h626z" />
    <glyph glyph-name="B" unicode="B" horiz-adv-x="1665" 
d="M1147 0h-1008l207 1470h897q226 0 356 -96t130 -262q0 -128 -73 -225.5t-200 -138.5q105 -38 164 -122t59 -196q0 -186 -147 -309q-145 -121 -385 -121zM567 1249l-55 -387h690q122 0 199.5 59t77.5 150q0 82 -70.5 130t-187.5 48h-654zM1169 641h-688l-59 -420h727
q124 0 204.5 64t80.5 161q0 88 -72 141.5t-193 53.5z" />
    <glyph glyph-name="C" unicode="C" horiz-adv-x="1703" 
d="M1044 1262q-269 0 -446 -160q-174 -158 -174 -406q0 -224 156 -356q155 -131 413 -131q191 0 334 83.5t229 244.5l201 -127q-110 -209 -312 -321t-468 -112q-361 0 -594 195q-229 195 -229 508q0 171 73.5 325.5t208.5 270.5q262 217 633 217q288 0 492 -127
q205 -126 258 -338l-232 -113q-44 164 -188 255.5t-355 91.5z" />
    <glyph glyph-name="D" unicode="D" horiz-adv-x="1765" 
d="M915 0h-776l207 1470h701q347 0 557 -192q213 -192 213 -490q0 -171 -72 -323t-205 -260q-250 -205 -625 -205zM571 1245l-143 -1020h498q268 0 446 158q176 156 176 391q0 206 -147 338q-145 133 -383 133h-447z" />
    <glyph glyph-name="E" unicode="E" horiz-adv-x="1630" 
d="M139 0l207 1470h1421l-32 -229h-1164l-51 -369h1047l-33 -229h-1047l-57 -414h1163l-32 -229h-1422z" />
    <glyph glyph-name="F" unicode="F" horiz-adv-x="1595" 
d="M483 612l-86 -612h-258l207 1470h1395l-33 -229h-1137l-55 -399h1020l-33 -230h-1020z" />
    <glyph glyph-name="G" unicode="G" horiz-adv-x="1832" 
d="M1731 0h-246l24 176q-211 -199 -536 -199q-358 0 -590 197q-229 195 -229 506q0 171 75.5 326.5t212.5 271.5q266 215 639 215q295 0 508 -127q211 -126 266 -336l-233 -110q-43 160 -191.5 251t-365.5 91q-283 0 -463 -160q-178 -156 -178 -406q0 -223 154 -356
q155 -131 413 -131q217 0 383 96q161 93 205 258h-702l30 230h934z" />
    <glyph glyph-name="H" unicode="H" horiz-adv-x="1802" 
d="M1524 872l84 598h262l-207 -1470h-262l90 643h-999l-91 -643h-262l207 1470h262l-84 -598h1000z" />
    <glyph glyph-name="I" unicode="I" horiz-adv-x="540" 
d="M346 1470h262l-207 -1470h-262z" />
    <glyph glyph-name="J" unicode="J" horiz-adv-x="1443" 
d="M741 -23q-263 0 -452 125t-230 320l238 121q30 -149 154 -244q122 -94 294 -94q171 0 284 94t136 256l129 915h262l-129 -921q-41 -268 -221 -420q-184 -152 -465 -152z" />
    <glyph glyph-name="K" unicode="K" horiz-adv-x="1675" 
d="M346 1470h262l-102 -727l973 727h385l-858 -620l698 -850h-328l-575 702l-334 -241l-66 -461h-262z" />
    <glyph glyph-name="L" unicode="L" horiz-adv-x="1521" 
d="M1475 0h-1336l207 1470h262l-174 -1241h1073z" />
    <glyph glyph-name="M" unicode="M" horiz-adv-x="2138" 
d="M1917 1233l-741 -1233h-213l-394 1233l-174 -1233h-256l207 1470h395l367 -1151l690 1151h408l-207 -1470h-256z" />
    <glyph glyph-name="N" unicode="N" horiz-adv-x="1763" 
d="M1579 1470h252l-207 -1470h-225l-848 1147l-160 -1147h-252l207 1470h266l813 -1097z" />
    <glyph glyph-name="O" unicode="O" horiz-adv-x="1826" 
d="M981 -23q-363 0 -596 199q-231 200 -231 506q0 171 71.5 325.5t204.5 266.5q123 106 283.5 162.5t339.5 56.5q364 0 594 -199q231 -200 231 -506q0 -170 -71.5 -324t-202.5 -267q-124 -106 -284 -163t-339 -57zM989 209q271 0 445 160q174 158 174 405q0 220 -156 352
q-154 136 -408 136q-272 0 -446 -162q-174 -158 -174 -404q0 -219 156 -354q157 -133 409 -133z" />
    <glyph glyph-name="P" unicode="P" horiz-adv-x="1634" 
d="M1151 569h-670l-80 -569h-262l207 1470h897q229 0 359 -112q135 -114 135 -301q0 -218 -162 -352q-160 -136 -424 -136zM575 1245l-61 -450h637q147 0 238.5 70.5t91.5 181.5q0 93 -71 145.5t-198 52.5h-637z" />
    <glyph glyph-name="Q" unicode="Q" horiz-adv-x="1826" 
d="M1278 18q-146 -41 -297 -41q-363 0 -596 199q-231 200 -231 506q0 171 71.5 325.5t204.5 266.5q123 106 283.5 162.5t339.5 56.5q364 0 594 -199q231 -200 231 -506q0 -204 -101.5 -382.5t-281.5 -288.5q82 -82 238 -125l-146 -189q-92 26 -178.5 86t-130.5 129z
M1608 774q0 220 -156 352q-154 136 -408 136q-272 0 -446 -162q-174 -158 -174 -404q0 -219 156 -354q157 -133 409 -133q271 0 445 160q174 158 174 405z" />
    <glyph glyph-name="R" unicode="R" horiz-adv-x="1642" 
d="M1047 569h-566l-80 -569h-262l207 1470h897q227 0 361.5 -112.5t134.5 -302.5q0 -177 -111 -302.5t-303 -166.5l309 -586h-288zM575 1245l-61 -450h637q147 0 239.5 70t92.5 179q0 94 -72 147.5t-199 53.5h-637z" />
    <glyph glyph-name="S" unicode="S" horiz-adv-x="1572" 
d="M895 -23q-297 0 -539 109q-238 110 -321 274l198 166q79 -149 260 -234t416 -85q198 0 311 59.5t113 163.5q0 64 -48.5 104t-160.5 66q-43 8 -290 49q-161 27 -242 45q-87 23 -139 47q-113 47 -167.5 119t-54.5 174q0 206 187 332q189 127 495 127q265 0 469 -92
q204 -88 289 -242l-198 -151q-69 123 -220.5 190.5t-355.5 67.5q-190 0 -300 -54t-110 -147q0 -60 40.5 -93.5t140.5 -56.5q9 -2 84 -16q52 -9 172 -27q189 -28 266 -47q88 -18 153 -45q250 -97 250 -315q0 -224 -190 -356q-191 -132 -508 -132z" />
    <glyph glyph-name="T" unicode="T" horiz-adv-x="1662" 
d="M1833 1470l-33 -229h-663l-174 -1241h-263l174 1241h-663l33 229h1589z" />
    <glyph glyph-name="U" unicode="U" horiz-adv-x="1679" 
d="M891 -20q-374 0 -559 194q-184 196 -137 537l106 759h262l-106 -751q-37 -250 75.5 -379t366.5 -129q235 0 361 121.5t163 386.5l107 751h262l-106 -759q-54 -376 -247 -553.5t-548 -177.5z" />
    <glyph glyph-name="V" unicode="V" horiz-adv-x="1787" 
d="M2007 1470l-979 -1470h-303l-530 1470h272l438 -1224l811 1224h291z" />
    <glyph glyph-name="W" unicode="W" horiz-adv-x="2422" 
d="M682 264l588 1206h291l192 -1206l614 1206h275l-762 -1470h-317l-187 1188l-583 -1188h-314l-264 1470h266z" />
    <glyph glyph-name="X" unicode="X" horiz-adv-x="1697" 
d="M1540 1470h328l-754 -706l604 -764h-305l-467 598l-637 -598h-329l821 768l-561 702h303l428 -536z" />
    <glyph glyph-name="Y" unicode="Y" horiz-adv-x="1726" 
d="M504 1470l469 -634l647 634h326l-861 -831l-90 -639h-262l90 639l-628 831h309z" />
    <glyph glyph-name="Z" unicode="Z" horiz-adv-x="1611" 
d="M487 229h1078l-33 -229h-1456l28 203l1209 1038h-1055l29 229h1439l-28 -202z" />
    <glyph glyph-name="bracketleft" unicode="[" horiz-adv-x="718" 
d="M883 1311h-369l-184 -1311h368l-28 -201h-617l242 1712h616z" />
    <glyph glyph-name="backslash" unicode="\" horiz-adv-x="1089" 
d="M479 1511l561 -1712h-245l-562 1712h246z" />
    <glyph glyph-name="bracketright" unicode="]" horiz-adv-x="718" 
d="M389 0l184 1311h-368l28 200h617l-242 -1712h-616l28 201h369z" />
    <glyph glyph-name="asciicircum" unicode="^" horiz-adv-x="1167" 
d="M150 840l520 630h241l344 -630h-258l-227 428l-348 -428h-272z" />
    <glyph glyph-name="underscore" unicode="_" horiz-adv-x="888" 
d="M762 -319h-725l29 206h725z" />
    <glyph glyph-name="grave" unicode="`" horiz-adv-x="1228" 
d="M827 1470l183 -288h-197l-297 288h311z" />
    <glyph glyph-name="a" unicode="a" horiz-adv-x="1337" 
d="M985 139q-87 -76 -207.5 -119t-249.5 -43q-196 0 -315 87.5t-119 230.5q0 142 120 232.5t341 115.5l475 55l2 15q11 78 -64.5 126t-211.5 48q-129 0 -224.5 -47t-142.5 -133l-190 90q68 141 218 220t353 79q251 0 385 -107q137 -107 113 -287l-64 -452q-6 -49 29 -64
q15 -6 43 -6q25 0 80 10l-27 -190q-65 -10 -104 -10q-74 0 -127 20q-92 41 -113 129zM557 176q168 0 293 70q126 71 141 170l13 92l-435 -53q-233 -27 -233 -148q0 -62 58.5 -96.5t162.5 -34.5z" />
    <glyph glyph-name="b" unicode="b" horiz-adv-x="1425" 
d="M1448 582q0 -255 -178 -430q-175 -175 -447 -175q-135 0 -248.5 47.5t-187.5 133.5l-22 -158h-246l207 1470h245l-73 -528q66 72 171.5 113t229.5 41q240 0 395 -146q154 -145 154 -368zM842 891q-180 0 -299 -113q-119 -110 -119 -272q0 -146 104 -234q107 -90 269 -90
q177 0 297 111q120 114 120 274q0 146 -104 234q-107 90 -268 90z" />
    <glyph glyph-name="c" unicode="c" horiz-adv-x="1241" 
d="M760 885q-170 0 -285 -109q-113 -107 -113 -270q0 -144 99 -232q103 -86 258 -86q127 0 226 62.5t140 167.5l183 -119q-81 -158 -224.5 -240t-334.5 -82q-257 0 -420 144q-160 145 -160 375q0 255 182 428q181 172 463 172q203 0 354 -97q148 -93 189 -249l-207 -103
q-25 105 -122.5 171.5t-227.5 66.5z" />
    <glyph glyph-name="d" unicode="d" horiz-adv-x="1425" 
d="M678 -20q-241 0 -395 145t-154 369q0 252 176 428q179 176 449 176q135 0 249 -47t187 -133l78 552h245l-206 -1470h-246l18 133q-66 -72 -171.5 -112.5t-229.5 -40.5zM735 184q177 0 297 111q121 115 121 274q0 146 -104 234q-107 90 -269 90q-180 0 -299 -113
q-119 -110 -119 -272q0 -146 105 -234q107 -90 268 -90z" />
    <glyph glyph-name="e" unicode="e" horiz-adv-x="1302" 
d="M727 184q125 0 222.5 56.5t148.5 158.5l186 -116q-78 -146 -227 -226t-344 -80q-250 0 -418 148q-166 147 -166 371q0 251 184 426q186 174 461 174q248 0 404 -138q155 -137 155 -354q0 -59 -14 -139h-959q19 -127 119.5 -204t247.5 -77zM758 891q-129 0 -230.5 -66
t-142.5 -176h717q-8 107 -102.5 174.5t-241.5 67.5z" />
    <glyph glyph-name="f" unicode="f" horiz-adv-x="950" 
d="M911 1493q156 0 277 -37l-68 -215q-132 29 -215 29q-116 0 -175 -43t-71 -137l-2 -15h424l-30 -209h-424l-121 -866h-240l121 866h-270l30 209h271l2 15q29 204 149.5 303.5t341.5 99.5z" />
    <glyph glyph-name="g" unicode="g" horiz-adv-x="1421" 
d="M1456 1075l-139 -971q-34 -231 -209 -362q-177 -133 -453 -133q-235 0 -397 80t-209 221l197 113q41 -100 152 -158t264 -58q359 0 409 308l8 51q-68 -74 -173 -115t-228 -41q-241 0 -395 142q-152 143 -152 360q0 244 176 414q178 172 447 172q135 0 249 -47t187 -133
l20 157h246zM737 215q175 0 291 107q119 107 119 262q0 137 -103 223t-266 86q-174 0 -295 -109q-118 -106 -118 -262q0 -136 104 -221q106 -86 268 -86z" />
    <glyph glyph-name="h" unicode="h" horiz-adv-x="1339" 
d="M365 0h-246l207 1470h245l-75 -532q146 158 381 158q226 0 346 -144q122 -143 88 -366l-82 -586h-246l76 545q20 148 -52.5 236.5t-218.5 88.5q-142 0 -235 -87.5t-113 -241.5z" />
    <glyph glyph-name="i" unicode="i" horiz-adv-x="483" 
d="M541 1219h-254l35 251h253zM270 1075h246l-151 -1075h-246z" />
    <glyph glyph-name="j" unicode="j" horiz-adv-x="483" 
d="M541 1219h-254l35 251h253zM-94 -174q99 0 150.5 46t64.5 148l149 1055h246l-149 -1057q-29 -204 -139 -303.5t-306 -99.5q-139 0 -260 41l64 201q109 -31 180 -31z" />
    <glyph glyph-name="k" unicode="k" horiz-adv-x="1335" 
d="M326 1470h245l-131 -925l703 530h354l-631 -465l502 -610h-307l-387 469l-273 -201l-36 -268h-246z" />
    <glyph glyph-name="l" unicode="l" horiz-adv-x="483" 
d="M326 1470h245l-206 -1470h-246z" />
    <glyph glyph-name="m" unicode="m" horiz-adv-x="2158" 
d="M784 870q-139 0 -231.5 -88.5t-112.5 -240.5l-75 -541h-246l151 1075h246l-20 -137q67 75 163.5 116.5t202.5 41.5q127 0 227.5 -56.5t141.5 -150.5q188 207 457 207q232 0 352 -144q122 -143 88 -377l-80 -575h-246l76 545q20 153 -46.5 239t-205.5 86t-231.5 -88.5
t-112.5 -240.5l-76 -541h-245l75 545q20 153 -46.5 239t-205.5 86z" />
    <glyph glyph-name="n" unicode="n" horiz-adv-x="1339" 
d="M365 0h-246l151 1075h246l-20 -137q146 158 381 158q226 0 346 -144q122 -143 88 -366l-82 -586h-246l76 545q20 148 -52.5 236.5t-218.5 88.5q-142 0 -235 -87.5t-113 -241.5z" />
    <glyph glyph-name="o" unicode="o" horiz-adv-x="1333" 
d="M772 1096q256 0 420 -144q162 -143 162 -377q0 -249 -185 -425q-182 -173 -458 -173q-257 0 -420 144q-162 143 -162 377q0 253 182 426q184 172 461 172zM762 885q-174 0 -289 -109q-111 -108 -111 -268q0 -144 101 -232t258 -88q175 0 287 109q112 106 112 268
q0 145 -100 232q-101 88 -258 88z" />
    <glyph glyph-name="p" unicode="p" horiz-adv-x="1425" 
d="M1448 582q0 -255 -178 -430q-175 -175 -447 -175q-135 0 -248.5 47.5t-187.5 133.5l-74 -527h-245l202 1444h246l-18 -133q66 72 171.5 113t229.5 41q240 0 395 -146q154 -145 154 -368zM842 891q-180 0 -299 -113q-119 -110 -119 -272q0 -146 104 -234q107 -90 269 -90
q177 0 297 111q120 114 120 274q0 146 -104 234q-107 90 -268 90z" />
    <glyph glyph-name="q" unicode="q" horiz-adv-x="1425" 
d="M678 -20q-241 0 -395 145t-154 369q0 252 176 428q179 176 449 176q135 0 249 -47t187 -133l22 157h246l-203 -1444h-245l69 502q-66 -72 -171.5 -112.5t-229.5 -40.5zM735 184q177 0 297 111q121 115 121 274q0 146 -104 234q-107 90 -269 90q-180 0 -299 -113
q-119 -110 -119 -272q0 -146 105 -234q107 -90 268 -90z" />
    <glyph glyph-name="r" unicode="r" horiz-adv-x="919" 
d="M928 1081q57 0 119 -16l-35 -246q-78 19 -125 19q-201 0 -315.5 -91t-139.5 -270l-67 -477h-246l151 1075h246l-29 -194q156 200 441 200z" />
    <glyph glyph-name="s" unicode="s" horiz-adv-x="1175" 
d="M653 -23q-209 0 -376.5 72t-247.5 195l182 145q144 -209 461 -209q130 0 202 35t72 98q0 75 -151 101q-41 9 -117 18q-21 2 -42 5t-29.5 4t-10.5 1q-243 37 -336 107q-92 71 -92 194q0 161 141 257t381 96q181 0 334 -66q155 -66 219 -166l-172 -145q-57 82 -166 128
t-246 46q-121 0 -186 -32t-65 -89q0 -42 51 -65q62 -28 252 -54q278 -40 379 -110q100 -69 100 -197q0 -165 -146 -268q-143 -101 -391 -101z" />
    <glyph glyph-name="t" unicode="t" horiz-adv-x="1060" 
d="M733 -12q-211 0 -325 104t-89 277l70 497h-270l31 209h270l43 316h242l-43 -316h473l-31 -209h-473l-66 -475q-12 -93 36 -137.5t163 -44.5q116 0 250 49l16 -213q-152 -57 -297 -57z" />
    <glyph glyph-name="u" unicode="u" horiz-adv-x="1329" 
d="M1116 1075h246l-152 -1075h-245l20 137q-148 -160 -375 -160q-224 0 -344 144q-122 146 -88 368l82 586h246l-78 -553q-23 -150 47.5 -237.5t216.5 -87.5q140 0 232.5 91t115.5 247z" />
    <glyph glyph-name="v" unicode="v" horiz-adv-x="1314" 
d="M1466 1075l-698 -1075h-248l-368 1075h256l268 -805l508 805h282z" />
    <glyph glyph-name="w" unicode="w" horiz-adv-x="1814" 
d="M547 305l401 770h207l152 -770l401 770h258l-590 -1075h-207l-161 752l-404 -752h-221l-231 1075h254z" />
    <glyph glyph-name="x" unicode="x" horiz-adv-x="1333" 
d="M1333 0h-301l-303 395l-420 -395h-309l586 543l-420 532h297l297 -383l403 383h307l-567 -530z" />
    <glyph glyph-name="y" unicode="y" horiz-adv-x="1314" 
d="M1466 1075l-747 -1175q-106 -168 -197 -226q-89 -59 -235 -59q-134 0 -254 45l71 205q92 -39 179 -39q66 0 110.5 29.5t93.5 107.5l41 66l-376 1046h262l270 -805l506 805h276z" />
    <glyph glyph-name="z" unicode="z" horiz-adv-x="1261" 
d="M449 209h772l-29 -209h-1120l26 184l856 682h-753l30 209h1106l-26 -186z" />
    <glyph glyph-name="braceleft" unicode="{" horiz-adv-x="841" 
d="M227 555h-108l28 201h86q134 0 158 174l33 229q49 352 420 352h190l-28 -200h-134q-103 0 -157.5 -49t-71.5 -156l-27 -188q-17 -110 -63 -174t-133 -99q77 -32 105 -99t14 -177l-23 -164q-13 -115 24 -160t146 -45h135l-28 -201h-160q-181 0 -278 96.5t-74 256.5l32 229
q12 92 -7.5 133t-78.5 41z" />
    <glyph glyph-name="bar" unicode="|" horiz-adv-x="528" 
d="M356 -201h-241l241 1712h242z" />
    <glyph glyph-name="braceright" unicode="}" horiz-adv-x="841" 
d="M907 756l-28 -201h-86q-134 0 -158 -174l-33 -229q-49 -353 -420 -353h-190l28 201h134q103 0 157.5 49t71.5 156l27 188q17 110 63 174t133 99q-77 32 -105 99t-14 177l23 164q13 115 -24 160t-146 45h-135l28 200h160q181 0 278 -96t74 -256l-32 -229q-12 -92 7.5 -133
t78.5 -41h108z" />
    <glyph glyph-name="asciitilde" unicode="~" horiz-adv-x="1009" 
d="M461 840q41 0 75.5 -15.5t86.5 -60.5q40 -34 60 -44.5t44 -10.5q82 0 129 133h191q-37 -180 -122 -285.5t-194 -105.5q-40 0 -75 16t-87 61q-36 33 -58 44.5t-44 11.5q-84 0 -131 -133h-191q35 179 120.5 284t195.5 105z" />
    <glyph glyph-name="uni00A0" unicode="&#xa0;" horiz-adv-x="421" 
 />
    <glyph glyph-name="exclamdown" unicode="&#xa1;" horiz-adv-x="624" 
d="M330 1174l41 296h297l-41 -296h-297zM158 0l209 1026h184l-82 -1026h-311z" />
    <glyph glyph-name="cent" unicode="&#xa2;" horiz-adv-x="1290" 
d="M764 -217h-197l29 205q-217 35 -342 172t-125 342q0 248 176 424t451 194l30 226h197l-33 -234q168 -29 284.5 -120.5t147.5 -219.5l-202 -102q-20 86 -89 149t-169 88l-101 -723q109 19 195.5 82.5t124.5 153.5l178 -119q-74 -140 -212 -224t-316 -97zM358 512
q0 -122 71 -207.5t196 -114.5l102 725q-159 -20 -266 -137q-103 -115 -103 -266z" />
    <glyph glyph-name="sterling" unicode="&#xa3;" horiz-adv-x="1785" 
d="M580 588h-324l29 194h213q-54 126 -54 217q0 109 66.5 209t187.5 172q191 113 461 113q294 0 471 -131q180 -128 180 -344q0 -72 -26 -154h-232q21 61 21 123q0 134 -114.5 208.5t-317.5 74.5q-200 0 -324 -86q-123 -82 -123 -213q0 -72 47 -189h562l-29 -194h-467
q12 -50 12 -105q0 -47 -10 -98l215 -121q127 -59 238 -59q131 0 213.5 65.5t105.5 188.5h242q-29 -226 -176.5 -354t-378.5 -128q-118 0 -234 43q-116 44 -303 170q-138 -213 -393 -213q-140 0 -222.5 67.5t-82.5 182.5q0 127 104 209q107 84 264 84q99 0 203 -35
q-9 55 -24 103zM389 344q-65 0 -105 -28.5t-40 -73.5q0 -37 28.5 -58.5t79.5 -21.5q66 0 122 34.5t91 96.5q-99 51 -176 51z" />
    <glyph glyph-name="yen" unicode="&#xa5;" horiz-adv-x="1832" 
d="M846 369h-574l27 184h573l19 135h-574l27 184h393l-530 598h319l508 -581l670 581h336l-697 -598h396l-27 -184h-575l-19 -135h576l-27 -184h-575l-52 -369h-245z" />
    <glyph glyph-name="section" unicode="&#xa7;" horiz-adv-x="1640" 
d="M1530 500q51 -63 51 -144q0 -177 -175 -278t-486 -101q-286 0 -525 68q-233 69 -342 184l185 174q99 -106 284 -165.5t422 -59.5q182 0 278.5 39t96.5 111q0 47 -49.5 71.5t-155.5 30.5l-604 37q-142 11 -227.5 83.5t-85.5 184.5q0 140 137 236q-58 64 -58 157
q0 171 171 268t477 97q267 0 477.5 -60.5t316.5 -166.5l-172 -162q-91 86 -259.5 132t-391.5 46q-360 0 -360 -133q0 -77 161 -86l574 -31q188 -10 291.5 -84.5t103.5 -197.5q0 -148 -135 -250zM606 676l557 -31q119 -3 203 -37q57 50 57 109q0 50 -50 74t-167 30l-598 33
q-58 3 -108 18q-70 -46 -70 -102q0 -44 42.5 -66.5t133.5 -27.5z" />
    <glyph glyph-name="dieresis" unicode="&#xa8;" horiz-adv-x="1228" 
d="M666 1219h-263l35 251h262zM1169 1219h-262l35 251h262z" />
    <glyph glyph-name="copyright" unicode="&#xa9;" horiz-adv-x="1832" 
d="M1057 1493q347 0 573 -203q228 -200 228 -499q0 -352 -248 -582q-247 -232 -627 -232q-345 0 -575 201q-226 203 -226 502q0 353 246 584q244 229 629 229zM981 109q324 0 532 190q211 190 211 487q0 250 -186 412q-185 164 -479 164q-323 0 -535 -191
q-209 -191 -209 -487q0 -250 185 -414q185 -161 481 -161zM1012 307q-205 0 -334 111q-127 112 -127 287q0 198 143 329q145 133 367 133q170 0 284.5 -69t145.5 -191l-199 -82q-17 70 -80.5 112t-154.5 42q-123 0 -207 -78q-82 -76 -82 -186q0 -99 69.5 -159t182.5 -60
q86 0 151.5 41.5t94.5 113.5l184 -94q-66 -122 -178 -186t-260 -64z" />
    <glyph glyph-name="ordfeminine" unicode="&#xaa;" horiz-adv-x="974" 
d="M813 797q-123 -111 -319 -111q-143 0 -228.5 61.5t-85.5 165.5q0 103 86 168t246 82l332 35l2 14q6 50 -42.5 78.5t-139.5 28.5q-176 0 -240 -115l-170 60q50 105 161.5 163t264.5 58q183 0 281 -77.5t79 -207.5l-43 -301q-3 -36 19 -45l28 -6q23 0 54 8l-21 -154
q-55 -10 -92 -10q-47 3 -84 15q-70 27 -88 90zM528 842q113 0 196.5 44.5t90.5 110.5l8 56l-295 -33q-149 -21 -149 -94q0 -38 40 -61t109 -23zM1028 393h-907l26 185h908z" />
    <glyph glyph-name="guillemotleft" unicode="&#xab;" horiz-adv-x="1017" 
d="M506 141l-367 269l35 245l440 269l-34 -256l-226 -146l185 -145zM956 141l-366 269l35 245l440 269l-35 -256l-225 -146l184 -145z" />
    <glyph glyph-name="registered" unicode="&#xae;" horiz-adv-x="1058" 
d="M707 1493q199 0 329 -121q131 -119 131 -301q0 -206 -153 -344q-151 -139 -373 -139q-199 0 -330 119q-129 120 -129 299q0 210 150 348q151 139 375 139zM645 678q179 0 301 113q125 113 125 276q0 145 -102 240q-104 96 -264 96q-180 0 -306 -117q-123 -114 -123 -280
q0 -142 105 -236q106 -92 264 -92zM819 999l88 -180h-139l-70 152h-127l-22 -152h-129l65 457h275q78 0 123 -36.5t45 -98.5q0 -49 -29.5 -87t-79.5 -55zM795 1122q0 49 -60 49h-137l-14 -106h133q35 0 56.5 15.5t21.5 41.5z" />
    <glyph glyph-name="overscore" unicode="&#xaf;" horiz-adv-x="1228" 
d="M1184 1415l-27 -194h-741l26 194h742z" />
    <glyph glyph-name="degree" unicode="&#xb0;" horiz-adv-x="821" 
d="M207 1157q0 146 110 240q116 96 285 96q157 0 250.5 -77.5t93.5 -203.5q0 -146 -112 -239q-113 -96 -283 -96q-157 0 -250.5 77t-93.5 203zM391 1169q0 -59 45 -93t121 -34q90 0 147.5 44.5t57.5 113.5q0 59 -45 93t-121 34q-90 0 -147.5 -44.5t-57.5 -113.5z" />
    <glyph glyph-name="twosuperior" unicode="&#xb2;" horiz-adv-x="915" 
d="M156 657l22 156l455 221q94 44 138 86t44 86q0 47 -45 76t-119 29q-97 0 -166.5 -49.5t-95.5 -135.5l-178 45q37 142 159.5 227t293.5 85q161 0 258.5 -70.5t97.5 -187.5q0 -90 -61 -161.5t-189 -131.5l-219 -103h436l-24 -172h-807z" />
    <glyph glyph-name="threesuperior" unicode="&#xb3;" horiz-adv-x="950" 
d="M1030 899q0 -113 -116 -183.5t-310 -70.5q-178 0 -303 65.5t-156 174.5l183 80q20 -69 96 -110.5t184 -41.5q94 0 150.5 27.5t56.5 74.5q0 76 -174 76h-168l25 160h161q84 0 132.5 22.5t48.5 61.5q0 37 -45.5 57.5t-124.5 20.5q-98 0 -172 -32.5t-111 -92.5l-160 84
q55 102 172.5 156.5t282.5 54.5q171 0 274 -61.5t103 -161.5q0 -66 -46 -117t-126 -74q68 -20 105.5 -65t37.5 -105z" />
    <glyph glyph-name="acute" unicode="&#xb4;" horiz-adv-x="1228" 
d="M760 1182h-221l264 288h336z" />
    <glyph glyph-name="paragraph" unicode="&#xb6;" horiz-adv-x="1712" 
d="M1415 0h-246l177 1247h-297l-80 -557h-312q-200 0 -327 103q-125 101 -125 266q0 182 143 295q143 116 371 116h1179l-30 -223h-277z" />
    <glyph glyph-name="middot" unicode="&#xb7;" horiz-adv-x="460" 
d="M440 444h-297l41 297h297z" />
    <glyph glyph-name="cedilla" unicode="&#xb8;" horiz-adv-x="1228" 
d="M856 -209q0 -82 -79 -131t-210 -49q-86 0 -159.5 21.5t-118.5 58.5l94 121q63 -60 192 -60q113 0 113 53q0 62 -188 62l69 158h127l-30 -72q87 -7 138.5 -51.5t51.5 -110.5z" />
    <glyph glyph-name="onesuperior" unicode="&#xb9;" horiz-adv-x="755" 
d="M410 834l49 344h-271l23 153l137 6q87 1 133.5 33.5t65.5 102.5h155l-90 -639h250l-24 -177h-725l24 177h273z" />
    <glyph glyph-name="ordmasculine" unicode="&#xba;" horiz-adv-x="989" 
d="M674 1485q189 0 307 -103q119 -101 119 -270q0 -179 -133 -303q-132 -123 -336 -123q-189 0 -309 102q-117 102 -117 271q0 182 133 303q132 123 336 123zM666 1315q-116 0 -190.5 -71.5t-74.5 -176.5q0 -93 66.5 -152t171.5 -59q115 0 189.5 71.5t74.5 178.5
q0 94 -65.5 151.5t-171.5 57.5zM987 393h-874l26 185h875z" />
    <glyph glyph-name="guillemotright" unicode="&#xbb;" horiz-adv-x="1017" 
d="M664 924l366 -269l-35 -245l-440 -269l35 256l225 146l-184 145zM213 924l367 -269l-35 -245l-441 -269l35 256l226 146l-185 145z" />
    <glyph glyph-name="onequarter" unicode="&#xbc;" horiz-adv-x="2031" 
d="M410 834l49 344h-271l23 153l137 6q87 1 133.5 33.5t65.5 102.5h155l-90 -639h250l-24 -177h-725l24 177h273zM346 0l1368 1470h240l-1368 -1470h-240zM1831 188l-27 -188h-192l26 188h-526l23 156l520 469h264l-66 -463h197l-22 -162h-197zM1702 643l-328 -293h287z" />
    <glyph glyph-name="onehalf" unicode="&#xbd;" horiz-adv-x="2109" 
d="M410 834l49 344h-271l23 153l137 6q87 1 133.5 33.5t65.5 102.5h155l-90 -639h250l-24 -177h-725l24 177h273zM346 0l1368 1470h240l-1368 -1470h-240zM1257 0l23 156l455 221q94 44 138 86t44 86q0 47 -45 75.5t-119 28.5q-97 0 -166.5 -49t-95.5 -135l-178 45
q37 142 159 226.5t293 84.5q161 0 259 -70.5t98 -187.5q0 -90 -61 -161.5t-189 -131.5l-219 -102h436l-25 -172h-807z" />
    <glyph glyph-name="threequarters" unicode="&#xbe;" horiz-adv-x="2109" 
d="M1030 899q0 -113 -116 -183.5t-310 -70.5q-178 0 -303 65.5t-156 174.5l183 80q20 -69 96 -110.5t184 -41.5q94 0 150.5 27.5t56.5 74.5q0 76 -174 76h-168l25 160h161q84 0 132.5 22.5t48.5 61.5q0 37 -45.5 57.5t-124.5 20.5q-98 0 -172 -32.5t-111 -92.5l-160 84
q55 102 172.5 156.5t282.5 54.5q171 0 274 -61.5t103 -161.5q0 -66 -46 -117t-126 -74q68 -20 105.5 -65t37.5 -105zM424 0l1368 1470h240l-1368 -1470h-240zM1909 188l-27 -188h-192l26 188h-526l22 156l521 469h264l-66 -463h197l-23 -162h-196zM1780 643l-328 -293h287z
" />
    <glyph glyph-name="questiondown" unicode="&#xbf;" horiz-adv-x="1402" 
d="M737 1493h297l-41 -297h-297zM356 446q0 -106 99.5 -164.5t279.5 -58.5q186 0 308 66.5t165 191.5l252 -39q-62 -209 -255.5 -325.5t-481.5 -116.5q-291 0 -465 115q-172 117 -172 317q0 195 161 316.5t445 138.5l25 162h241l-49 -344q-269 0 -411 -67t-142 -192z" />
    <glyph glyph-name="Agrave" unicode="&#xc0;" horiz-adv-x="1763" 
d="M-12 0l970 1470h289l527 -1470h-269l-131 369h-858l-242 -369h-286zM1292 598l-219 621l-407 -621h626zM1020 1858l211 -302h-209l-348 302h346z" />
    <glyph glyph-name="Aacute" unicode="&#xc1;" horiz-adv-x="1763" 
d="M-12 0l970 1470h289l527 -1470h-269l-131 369h-858l-242 -369h-286zM1292 598l-219 621l-407 -621h626zM1208 1556h-241l293 302h378z" />
    <glyph glyph-name="Acircumflex" unicode="&#xc2;" horiz-adv-x="1763" 
d="M-12 0l970 1470h289l527 -1470h-269l-131 369h-858l-242 -369h-286zM1292 598l-219 621l-407 -621h626zM997 1858h287l258 -302h-205l-207 146l-247 -146h-226z" />
    <glyph glyph-name="Atilde" unicode="&#xc3;" horiz-adv-x="1763" 
d="M-12 0l970 1470h289l527 -1470h-269l-131 369h-858l-242 -369h-286zM1292 598l-219 621l-407 -621h626zM928 1876q55 0 106.5 -14.5t134.5 -55.5q87 -47 138 -47q41 0 69 28.5t47 88.5h166q-26 -148 -99 -232.5t-175 -84.5q-56 0 -108.5 14.5t-131.5 54.5q-87 47 -137 47
q-84 0 -117 -116h-166q25 148 97.5 232.5t175.5 84.5z" />
    <glyph glyph-name="Adieresis" unicode="&#xc4;" horiz-adv-x="1763" 
d="M-12 0l970 1470h289l527 -1470h-269l-131 369h-858l-242 -369h-286zM1292 598l-219 621l-407 -621h626zM971 1556h-262l34 252h263zM1491 1556h-262l35 252h262z" />
    <glyph glyph-name="Aring" unicode="&#xc5;" horiz-adv-x="1763" 
d="M838 1610q0 109 80 186q84 78 204 78q112 0 185 -66.5t73 -169.5q0 -64 -30.5 -121.5t-85.5 -93.5l510 -1423h-273l-131 369h-852l-242 -369h-288l942 1425q-92 67 -92 185zM1114 1735q-54 0 -89.5 -34t-35.5 -85q0 -44 33 -73.5t82 -29.5q54 0 89.5 34t35.5 85
q0 44 -33 73.5t-82 29.5zM1290 598l-217 614l-403 -614h620z" />
    <glyph glyph-name="AE" unicode="&#xc6;" horiz-adv-x="2883" 
d="M-25 0l1502 1470h1544l-33 -229h-1163l-51 -369h1046l-33 -229h-1046l-58 -414h1164l-33 -229h-1421l51 360h-764l-365 -360h-340zM1567 1237l-656 -647h566z" />
    <glyph glyph-name="Ccedilla" unicode="&#xc7;" horiz-adv-x="1703" 
d="M154 680q0 171 73.5 325.5t208.5 270.5q262 217 633 217q288 0 492 -127q205 -126 258 -338l-232 -113q-44 164 -188 255.5t-355 91.5q-269 0 -446 -160q-174 -158 -174 -406q0 -224 156 -356q155 -131 413 -131q191 0 334 83.5t229 244.5l201 -127q-110 -209 -312 -321
t-468 -112q-46 0 -70 3l-12 -27q87 -7 138.5 -51.5t51.5 -110.5q0 -82 -78.5 -131t-209.5 -49q-86 0 -160 21.5t-119 58.5l94 121q63 -60 193 -60q113 0 113 53q0 62 -189 62l55 127q-289 52 -460 235q-170 188 -170 451z" />
    <glyph glyph-name="Egrave" unicode="&#xc8;" horiz-adv-x="1630" 
d="M139 0l207 1470h1421l-32 -229h-1164l-51 -369h1047l-33 -229h-1047l-57 -414h1163l-32 -229h-1422zM1047 1858l210 -302h-208l-349 302h347z" />
    <glyph glyph-name="Eacute" unicode="&#xc9;" horiz-adv-x="1630" 
d="M139 0l207 1470h1421l-32 -229h-1164l-51 -369h1047l-33 -229h-1047l-57 -414h1163l-32 -229h-1422zM1147 1556h-242l293 302h379z" />
    <glyph glyph-name="Ecircumflex" unicode="&#xca;" horiz-adv-x="1630" 
d="M139 0l207 1470h1421l-32 -229h-1164l-51 -369h1047l-33 -229h-1047l-57 -414h1163l-32 -229h-1422zM961 1858h286l258 -302h-205l-206 146l-248 -146h-225z" />
    <glyph glyph-name="Edieresis" unicode="&#xcb;" horiz-adv-x="1630" 
d="M139 0l207 1470h1421l-32 -229h-1164l-51 -369h1047l-33 -229h-1047l-57 -414h1163l-32 -229h-1422zM934 1556h-262l35 252h262zM1454 1556h-262l35 252h262z" />
    <glyph glyph-name="Igrave" unicode="&#xcc;" horiz-adv-x="540" 
d="M346 1470h262l-207 -1470h-262zM381 1858l211 -302h-209l-348 302h346z" />
    <glyph glyph-name="Iacute" unicode="&#xcd;" horiz-adv-x="540" 
d="M346 1470h262l-207 -1470h-262zM610 1556h-241l293 302h378z" />
    <glyph glyph-name="Icircumflex" unicode="&#xce;" horiz-adv-x="540" 
d="M346 1470h262l-207 -1470h-262zM387 1858h287l258 -302h-205l-207 146l-248 -146h-225z" />
    <glyph glyph-name="Idieresis" unicode="&#xcf;" horiz-adv-x="540" 
d="M346 1470h262l-207 -1470h-262zM360 1556h-262l35 252h262zM881 1556h-263l35 252h262z" />
    <glyph glyph-name="Eth" unicode="&#xd0;" horiz-adv-x="1847" 
d="M997 0h-776l90 643h-213l33 225h213l84 602h700q348 0 558 -192q212 -191 212 -490q0 -171 -71.5 -323t-204.5 -260q-250 -205 -625 -205zM569 643l-59 -418h498q268 0 446 158q176 156 176 391q0 206 -147 338q-145 133 -383 133h-447l-53 -377h348l-33 -225h-346z" />
    <glyph glyph-name="Ntilde" unicode="&#xd1;" horiz-adv-x="1763" 
d="M1579 1470h252l-207 -1470h-225l-848 1147l-160 -1147h-252l207 1470h266l813 -1097zM918 1876q55 0 106.5 -14.5t134.5 -55.5q87 -47 137 -47q80 0 117 117h166q-26 -148 -99 -232.5t-175 -84.5q-56 0 -108.5 14.5t-131.5 54.5q-87 47 -137 47q-84 0 -117 -116h-166
q25 148 97.5 232.5t175.5 84.5z" />
    <glyph glyph-name="Ograve" unicode="&#xd2;" horiz-adv-x="1826" 
d="M981 -23q-363 0 -596 199q-231 200 -231 506q0 171 71.5 325.5t204.5 266.5q123 106 283.5 162.5t339.5 56.5q364 0 594 -199q231 -200 231 -506q0 -170 -71.5 -324t-202.5 -267q-124 -106 -284 -163t-339 -57zM989 209q271 0 445 160q174 158 174 405q0 220 -156 352
q-154 136 -408 136q-272 0 -446 -162q-174 -158 -174 -404q0 -219 156 -354q157 -133 409 -133zM1063 1858l211 -302h-209l-348 302h346z" />
    <glyph glyph-name="Oacute" unicode="&#xd3;" horiz-adv-x="1826" 
d="M981 -23q-363 0 -596 199q-231 200 -231 506q0 171 71.5 325.5t204.5 266.5q123 106 283.5 162.5t339.5 56.5q364 0 594 -199q231 -200 231 -506q0 -170 -71.5 -324t-202.5 -267q-124 -106 -284 -163t-339 -57zM989 209q271 0 445 160q174 158 174 405q0 220 -156 352
q-154 136 -408 136q-272 0 -446 -162q-174 -158 -174 -404q0 -219 156 -354q157 -133 409 -133zM1227 1556h-242l293 302h379z" />
    <glyph glyph-name="Ocircumflex" unicode="&#xd4;" horiz-adv-x="1826" 
d="M981 -23q-363 0 -596 199q-231 200 -231 506q0 171 71.5 325.5t204.5 266.5q123 106 283.5 162.5t339.5 56.5q364 0 594 -199q231 -200 231 -506q0 -170 -71.5 -324t-202.5 -267q-124 -106 -284 -163t-339 -57zM989 209q271 0 445 160q174 158 174 405q0 220 -156 352
q-154 136 -408 136q-272 0 -446 -162q-174 -158 -174 -404q0 -219 156 -354q157 -133 409 -133zM1030 1858h287l258 -302h-205l-207 146l-248 -146h-225z" />
    <glyph glyph-name="Otilde" unicode="&#xd5;" horiz-adv-x="1826" 
d="M981 -23q-363 0 -596 199q-231 200 -231 506q0 171 71.5 325.5t204.5 266.5q123 106 283.5 162.5t339.5 56.5q364 0 594 -199q231 -200 231 -506q0 -170 -71.5 -324t-202.5 -267q-124 -106 -284 -163t-339 -57zM989 209q271 0 445 160q174 158 174 405q0 220 -156 352
q-154 136 -408 136q-272 0 -446 -162q-174 -158 -174 -404q0 -219 156 -354q157 -133 409 -133zM961 1876q55 0 106.5 -14.5t134.5 -55.5q87 -47 137 -47q80 0 117 117h166q-26 -148 -99 -232.5t-175 -84.5q-56 0 -108.5 14.5t-131.5 54.5q-87 47 -137 47q-84 0 -117 -116
h-166q25 148 97.5 232.5t175.5 84.5z" />
    <glyph glyph-name="Odieresis" unicode="&#xd6;" horiz-adv-x="1826" 
d="M981 -23q-363 0 -596 199q-231 200 -231 506q0 171 71.5 325.5t204.5 266.5q123 106 283.5 162.5t339.5 56.5q364 0 594 -199q231 -200 231 -506q0 -170 -71.5 -324t-202.5 -267q-124 -106 -284 -163t-339 -57zM989 209q271 0 445 160q174 158 174 405q0 220 -156 352
q-154 136 -408 136q-272 0 -446 -162q-174 -158 -174 -404q0 -219 156 -354q157 -133 409 -133zM1004 1556h-263l35 252h262zM1524 1556h-262l34 252h263z" />
    <glyph glyph-name="multiply" unicode="&#xd7;" 
d="M195 238l571 499l-430 502l166 143l432 -499l571 499l137 -157l-569 -502l428 -502l-166 -143l-432 502l-569 -502z" />
    <glyph glyph-name="Oslash" unicode="&#xd8;" horiz-adv-x="1826" 
d="M229 -57l-139 161l201 172q-137 175 -137 406q0 171 71.5 325.5t204.5 266.5q123 106 283.5 162.5t339.5 56.5q327 0 549 -162l198 168l139 -164l-184 -157q123 -169 123 -390q0 -170 -71.5 -324t-202.5 -267q-124 -106 -284 -163t-339 -57q-313 0 -532 152zM1044 1262
q-272 0 -446 -162q-174 -158 -174 -404q0 -153 78 -266l895 741q-151 91 -353 91zM989 209q271 0 445 160q174 158 174 405q0 136 -66 250l-887 -735q144 -80 334 -80z" />
    <glyph glyph-name="Ugrave" unicode="&#xd9;" horiz-adv-x="1679" 
d="M891 -20q-374 0 -559 194q-184 196 -137 537l106 759h262l-106 -751q-37 -250 75.5 -379t366.5 -129q235 0 361 121.5t163 386.5l107 751h262l-106 -759q-54 -376 -247 -553.5t-548 -177.5zM1028 1858l211 -302h-209l-348 302h346z" />
    <glyph glyph-name="Uacute" unicode="&#xda;" horiz-adv-x="1679" 
d="M891 -20q-374 0 -559 194q-184 196 -137 537l106 759h262l-106 -751q-37 -250 75.5 -379t366.5 -129q235 0 361 121.5t163 386.5l107 751h262l-106 -759q-54 -376 -247 -553.5t-548 -177.5zM1135 1556h-242l293 302h379z" />
    <glyph glyph-name="Ucircumflex" unicode="&#xdb;" horiz-adv-x="1679" 
d="M891 -20q-374 0 -559 194q-184 196 -137 537l106 759h262l-106 -751q-37 -250 75.5 -379t366.5 -129q235 0 361 121.5t163 386.5l107 751h262l-106 -759q-54 -376 -247 -553.5t-548 -177.5zM956 1858h287l258 -302h-205l-206 146l-248 -146h-226z" />
    <glyph glyph-name="Udieresis" unicode="&#xdc;" horiz-adv-x="1679" 
d="M891 -20q-374 0 -559 194q-184 196 -137 537l106 759h262l-106 -751q-37 -250 75.5 -379t366.5 -129q235 0 361 121.5t163 386.5l107 751h262l-106 -759q-54 -376 -247 -553.5t-548 -177.5zM930 1556h-262l34 252h263zM1450 1556h-262l35 252h262z" />
    <glyph glyph-name="Yacute" unicode="&#xdd;" horiz-adv-x="1726" 
d="M504 1470l469 -634l647 634h326l-861 -831l-90 -639h-262l90 639l-628 831h309zM1155 1556h-242l293 302h379z" />
    <glyph glyph-name="Thorn" unicode="&#xde;" horiz-adv-x="1634" 
d="M1702 793q0 -219 -162 -353q-164 -135 -426 -135h-670l-43 -305h-262l207 1470h262l-37 -264h635q228 0 361 -112q135 -114 135 -301zM1176 987h-635l-66 -463h639q147 0 239.5 72.5t92.5 185.5q0 97 -71.5 151t-198.5 54z" />
    <glyph glyph-name="germandbls" unicode="&#xdf;" horiz-adv-x="1480" 
d="M942 1493q227 0 356 -100q132 -99 132 -260q0 -106 -69.5 -189.5t-186.5 -120.5q155 -37 238 -133t83 -239q0 -211 -162 -342q-163 -132 -418 -132q-155 0 -284.5 55.5t-192.5 147.5l156 162q51 -74 139.5 -117t192.5 -43q148 0 239.5 78.5t91.5 202.5q0 115 -107 176
t-308 61h-215l30 215h222q136 0 224.5 57t88.5 144q0 78 -70.5 124t-191.5 46q-178 0 -290.5 -97t-137.5 -271l-129 -918h-244l129 920q38 260 221 415q190 158 463 158z" />
    <glyph glyph-name="agrave" unicode="&#xe0;" horiz-adv-x="1337" 
d="M985 139q-87 -76 -207.5 -119t-249.5 -43q-196 0 -315 87.5t-119 230.5q0 142 120 232.5t341 115.5l475 55l2 15q11 78 -64.5 126t-211.5 48q-129 0 -224.5 -47t-142.5 -133l-190 90q68 141 218 220t353 79q251 0 385 -107q137 -107 113 -287l-64 -452q-6 -49 29 -64
q15 -6 43 -6q25 0 80 10l-27 -190q-65 -10 -104 -10q-74 0 -127 20q-92 41 -113 129zM557 176q168 0 293 70q126 71 141 170l13 92l-435 -53q-233 -27 -233 -148q0 -62 58.5 -96.5t162.5 -34.5zM784 1470l183 -288h-197l-297 288h311z" />
    <glyph glyph-name="aacute" unicode="&#xe1;" horiz-adv-x="1337" 
d="M985 139q-87 -76 -207.5 -119t-249.5 -43q-196 0 -315 87.5t-119 230.5q0 142 120 232.5t341 115.5l475 55l2 15q11 78 -64.5 126t-211.5 48q-129 0 -224.5 -47t-142.5 -133l-190 90q68 141 218 220t353 79q251 0 385 -107q137 -107 113 -287l-64 -452q-6 -49 29 -64
q15 -6 43 -6q25 0 80 10l-27 -190q-65 -10 -104 -10q-74 0 -127 20q-92 41 -113 129zM557 176q168 0 293 70q126 71 141 170l13 92l-435 -53q-233 -27 -233 -148q0 -62 58.5 -96.5t162.5 -34.5zM914 1182h-221l264 288h336z" />
    <glyph glyph-name="acircumflex" unicode="&#xe2;" horiz-adv-x="1337" 
d="M985 139q-87 -76 -207.5 -119t-249.5 -43q-196 0 -315 87.5t-119 230.5q0 142 120 232.5t341 115.5l475 55l2 15q11 78 -64.5 126t-211.5 48q-129 0 -224.5 -47t-142.5 -133l-190 90q68 141 218 220t353 79q251 0 385 -107q137 -107 113 -287l-64 -452q-6 -49 29 -64
q15 -6 43 -6q25 0 80 10l-27 -190q-65 -10 -104 -10q-74 0 -127 20q-92 41 -113 129zM557 176q168 0 293 70q126 71 141 170l13 92l-435 -53q-233 -27 -233 -148q0 -62 58.5 -96.5t162.5 -34.5zM723 1470h258l224 -288h-189l-176 123l-213 -123h-209z" />
    <glyph glyph-name="atilde" unicode="&#xe3;" horiz-adv-x="1337" 
d="M985 139q-87 -76 -207.5 -119t-249.5 -43q-196 0 -315 87.5t-119 230.5q0 142 120 232.5t341 115.5l475 55l2 15q11 78 -64.5 126t-211.5 48q-129 0 -224.5 -47t-142.5 -133l-190 90q68 141 218 220t353 79q251 0 385 -107q137 -107 113 -287l-64 -452q-6 -49 29 -64
q15 -6 43 -6q25 0 80 10l-27 -190q-65 -10 -104 -10q-74 0 -127 20q-92 41 -113 129zM557 176q168 0 293 70q126 71 141 170l13 92l-435 -53q-233 -27 -233 -148q0 -62 58.5 -96.5t162.5 -34.5zM667 1485q40 0 77 -13.5t95 -50.5q71 -49 117 -49q66 0 101 113h155
q-26 -146 -93 -224.5t-165 -78.5q-40 0 -78 13t-96 50q-71 47 -115 47q-66 0 -100 -110h-156q26 146 93 224.5t165 78.5z" />
    <glyph glyph-name="adieresis" unicode="&#xe4;" horiz-adv-x="1337" 
d="M985 139q-87 -76 -207.5 -119t-249.5 -43q-196 0 -315 87.5t-119 230.5q0 142 120 232.5t341 115.5l475 55l2 15q11 78 -64.5 126t-211.5 48q-129 0 -224.5 -47t-142.5 -133l-190 90q68 141 218 220t353 79q251 0 385 -107q137 -107 113 -287l-64 -452q-6 -49 29 -64
q15 -6 43 -6q25 0 80 10l-27 -190q-65 -10 -104 -10q-74 0 -127 20q-92 41 -113 129zM557 176q168 0 293 70q126 71 141 170l13 92l-435 -53q-233 -27 -233 -148q0 -62 58.5 -96.5t162.5 -34.5zM705 1219h-263l35 251h262zM1208 1219h-262l35 251h262z" />
    <glyph glyph-name="aring" unicode="&#xe5;" horiz-adv-x="1337" 
d="M985 139q-87 -76 -207.5 -119t-249.5 -43q-196 0 -315 87.5t-119 230.5q0 142 120 232.5t341 115.5l475 55l2 15q11 78 -64.5 126t-211.5 48q-129 0 -224.5 -47t-142.5 -133l-190 90q68 141 218 220t353 79q251 0 385 -107q137 -107 113 -287l-64 -452q-6 -49 29 -64
q15 -6 43 -6q25 0 80 10l-27 -190q-65 -10 -104 -10q-74 0 -127 20q-92 41 -113 129zM557 176q168 0 293 70q126 71 141 170l13 92l-435 -53q-233 -27 -233 -148q0 -62 58.5 -96.5t162.5 -34.5zM821 1151q-93 0 -155 58t-62 145q0 92 70 159q70 70 172 70q93 0 155 -58
t62 -145q0 -89 -72 -161q-71 -68 -170 -68zM840 1464q-43 0 -73 -30.5t-30 -73.5q0 -38 26 -64t64 -26q43 0 73 30.5t30 73.5q0 38 -26 64t-64 26z" />
    <glyph glyph-name="ae" unicode="&#xe6;" horiz-adv-x="2181" 
d="M1589 -23q-159 0 -290 63.5t-209 176.5q-85 -115 -226.5 -177.5t-318.5 -62.5q-205 0 -328 87t-123 233q0 159 129 254q131 98 348 98h451l10 72q11 75 -63 120.5t-209 45.5q-131 0 -227.5 -47t-143.5 -133l-190 90q68 141 218 220t353 79q312 0 438 -160
q186 160 443 160q247 0 403 -138t156 -354q0 -54 -15 -139h-958q19 -127 119.5 -204t247.5 -77q125 0 222 56.5t148 158.5l187 -116q-78 -146 -227.5 -226t-344.5 -80zM1634 891q-129 0 -230 -66t-142 -176h716q-8 107 -102.5 174.5t-241.5 67.5zM336 313q0 -66 62 -101.5
t175 -35.5q160 0 283 72q120 70 135 174l6 43h-422q-115 0 -177 -40t-62 -112z" />
    <glyph glyph-name="ccedilla" unicode="&#xe7;" horiz-adv-x="1241" 
d="M129 496q0 255 182 428q181 172 463 172q203 0 354 -97q148 -93 189 -249l-207 -103q-25 105 -122.5 171.5t-227.5 66.5q-170 0 -285 -109q-113 -107 -113 -270q0 -144 99 -232q103 -86 258 -86q127 0 226 62.5t140 167.5l183 -119q-81 -158 -224.5 -240t-334.5 -82h-23
l-10 -24q87 -7 138.5 -51.5t51.5 -110.5q0 -82 -78.5 -131t-209.5 -49q-86 0 -160 21.5t-119 58.5l94 121q63 -60 193 -60q112 0 112 53q0 62 -188 62l55 123q-201 41 -319 174q-117 138 -117 332z" />
    <glyph glyph-name="egrave" unicode="&#xe8;" horiz-adv-x="1302" 
d="M727 184q125 0 222.5 56.5t148.5 158.5l186 -116q-78 -146 -227 -226t-344 -80q-250 0 -418 148q-166 147 -166 371q0 251 184 426q186 174 461 174q248 0 404 -138q155 -137 155 -354q0 -59 -14 -139h-959q19 -127 119.5 -204t247.5 -77zM758 891q-129 0 -230.5 -66
t-142.5 -176h717q-8 107 -102.5 174.5t-241.5 67.5zM805 1470l182 -288h-196l-297 288h311z" />
    <glyph glyph-name="eacute" unicode="&#xe9;" horiz-adv-x="1302" 
d="M727 184q125 0 222.5 56.5t148.5 158.5l186 -116q-78 -146 -227 -226t-344 -80q-250 0 -418 148q-166 147 -166 371q0 251 184 426q186 174 461 174q248 0 404 -138q155 -137 155 -354q0 -59 -14 -139h-959q19 -127 119.5 -204t247.5 -77zM758 891q-129 0 -230.5 -66
t-142.5 -176h717q-8 107 -102.5 174.5t-241.5 67.5zM934 1182h-221l264 288h336z" />
    <glyph glyph-name="ecircumflex" unicode="&#xea;" horiz-adv-x="1302" 
d="M727 184q125 0 222.5 56.5t148.5 158.5l186 -116q-78 -146 -227 -226t-344 -80q-250 0 -418 148q-166 147 -166 371q0 251 184 426q186 174 461 174q248 0 404 -138q155 -137 155 -354q0 -59 -14 -139h-959q19 -127 119.5 -204t247.5 -77zM758 891q-129 0 -230.5 -66
t-142.5 -176h717q-8 107 -102.5 174.5t-241.5 67.5zM745 1470h258l224 -288h-189l-176 123l-213 -123h-209z" />
    <glyph glyph-name="edieresis" unicode="&#xeb;" horiz-adv-x="1302" 
d="M727 184q125 0 222.5 56.5t148.5 158.5l186 -116q-78 -146 -227 -226t-344 -80q-250 0 -418 148q-166 147 -166 371q0 251 184 426q186 174 461 174q248 0 404 -138q155 -137 155 -354q0 -59 -14 -139h-959q19 -127 119.5 -204t247.5 -77zM758 891q-129 0 -230.5 -66
t-142.5 -176h717q-8 107 -102.5 174.5t-241.5 67.5zM709 1219h-263l35 251h262zM1212 1219h-262l35 251h262z" />
    <glyph glyph-name="igrave" unicode="&#xec;" horiz-adv-x="483" 
d="M270 1075h246l-151 -1075h-246zM334 1470l182 -288h-197l-296 288h311z" />
    <glyph glyph-name="iacute" unicode="&#xed;" horiz-adv-x="483" 
d="M270 1075h246l-151 -1075h-246zM510 1182h-221l264 288h336z" />
    <glyph glyph-name="icircumflex" unicode="&#xee;" horiz-adv-x="483" 
d="M270 1075h246l-151 -1075h-246zM319 1470h258l224 -288h-189l-176 123l-213 -123h-209z" />
    <glyph glyph-name="idieresis" unicode="&#xef;" horiz-adv-x="483" 
d="M270 1075h246l-151 -1075h-246zM293 1219h-262l35 251h262zM797 1219h-262l34 251h262z" />
    <glyph glyph-name="eth" unicode="&#xf0;" horiz-adv-x="1333" 
d="M760 1092q185 0 303 -76q-49 91 -172 190l-477 -108l24 186l258 59q-83 48 -168 91l265 57q108 -51 159 -90l394 90l-25 -186l-201 -45q117 -129 179.5 -288.5t62.5 -332.5q0 -299 -180 -479q-180 -183 -471 -183q-257 0 -420 144q-162 143 -162 377q0 254 176 424
q179 170 455 170zM762 885q-174 0 -289 -109q-111 -108 -111 -268q0 -144 101 -232t258 -88q175 0 287 109q112 106 112 268q0 145 -100 232q-101 88 -258 88z" />
    <glyph glyph-name="ntilde" unicode="&#xf1;" horiz-adv-x="1339" 
d="M365 0h-246l151 1075h246l-20 -137q146 158 381 158q226 0 346 -144q122 -143 88 -366l-82 -586h-246l76 545q20 148 -52.5 236.5t-218.5 88.5q-142 0 -235 -87.5t-113 -241.5zM718 1485q40 0 77 -13.5t95 -50.5q71 -49 117 -49q66 0 101 113h155q-26 -146 -93 -224.5
t-165 -78.5q-40 0 -78 13t-96 50q-71 47 -115 47q-66 0 -100 -110h-156q26 146 93 224.5t165 78.5z" />
    <glyph glyph-name="ograve" unicode="&#xf2;" horiz-adv-x="1333" 
d="M772 1096q256 0 420 -144q162 -143 162 -377q0 -249 -185 -425q-182 -173 -458 -173q-257 0 -420 144q-162 143 -162 377q0 253 182 426q184 172 461 172zM762 885q-174 0 -289 -109q-111 -108 -111 -268q0 -144 101 -232t258 -88q175 0 287 109q112 106 112 268
q0 145 -100 232q-101 88 -258 88zM780 1473l183 -289h-197l-297 289h311z" />
    <glyph glyph-name="oacute" unicode="&#xf3;" horiz-adv-x="1333" 
d="M772 1096q256 0 420 -144q162 -143 162 -377q0 -249 -185 -425q-182 -173 -458 -173q-257 0 -420 144q-162 143 -162 377q0 253 182 426q184 172 461 172zM762 885q-174 0 -289 -109q-111 -108 -111 -268q0 -144 101 -232t258 -88q175 0 287 109q112 106 112 268
q0 145 -100 232q-101 88 -258 88zM924 1182h-221l264 288h336z" />
    <glyph glyph-name="ocircumflex" unicode="&#xf4;" horiz-adv-x="1333" 
d="M772 1096q256 0 420 -144q162 -143 162 -377q0 -249 -185 -425q-182 -173 -458 -173q-257 0 -420 144q-162 143 -162 377q0 253 182 426q184 172 461 172zM762 885q-174 0 -289 -109q-111 -108 -111 -268q0 -144 101 -232t258 -88q175 0 287 109q112 106 112 268
q0 145 -100 232q-101 88 -258 88zM743 1470h258l224 -288h-189l-176 123l-213 -123h-209z" />
    <glyph glyph-name="otilde" unicode="&#xf5;" horiz-adv-x="1333" 
d="M772 1096q256 0 420 -144q162 -143 162 -377q0 -249 -185 -425q-182 -173 -458 -173q-257 0 -420 144q-162 143 -162 377q0 253 182 426q184 172 461 172zM762 885q-174 0 -289 -109q-111 -108 -111 -268q0 -144 101 -232t258 -88q175 0 287 109q112 106 112 268
q0 145 -100 232q-101 88 -258 88zM710 1485q40 0 77 -13.5t95 -50.5q71 -49 117 -49q66 0 101 113h155q-26 -146 -93 -224.5t-165 -78.5q-40 0 -78 13t-96 50q-71 47 -115 47q-66 0 -100 -110h-156q26 146 93 224.5t165 78.5z" />
    <glyph glyph-name="odieresis" unicode="&#xf6;" horiz-adv-x="1333" 
d="M772 1096q256 0 420 -144q162 -143 162 -377q0 -249 -185 -425q-182 -173 -458 -173q-257 0 -420 144q-162 143 -162 377q0 253 182 426q184 172 461 172zM762 885q-174 0 -289 -109q-111 -108 -111 -268q0 -144 101 -232t258 -88q175 0 287 109q112 106 112 268
q0 145 -100 232q-101 88 -258 88zM717 1219h-262l34 251h263zM1221 1219h-263l35 251h262z" />
    <glyph glyph-name="divide" unicode="&#xf7;" 
d="M1106 1065h-279l39 270h279zM1597 614h-1384l31 215h1384zM971 109h-279l39 270h279z" />
    <glyph glyph-name="oslash" unicode="&#xf8;" horiz-adv-x="1333" 
d="M129 498q0 253 182 426q184 172 461 172q211 0 367 -103l149 135l125 -133l-143 -131q84 -128 84 -289q0 -249 -185 -425q-182 -173 -458 -173q-217 0 -367 101l-147 -133l-123 133l141 129q-86 124 -86 291zM762 885q-174 0 -289 -109q-111 -108 -111 -268
q0 -88 37 -152l555 486q-88 43 -192 43zM721 188q175 0 287 109q112 106 112 268q0 90 -35 150l-555 -484q88 -43 191 -43z" />
    <glyph glyph-name="ugrave" unicode="&#xf9;" horiz-adv-x="1329" 
d="M1116 1075h246l-152 -1075h-245l20 137q-148 -160 -375 -160q-224 0 -344 144q-122 146 -88 368l82 586h246l-78 -553q-23 -150 47.5 -237.5t216.5 -87.5q140 0 232.5 91t115.5 247zM782 1470l183 -288h-197l-297 288h311z" />
    <glyph glyph-name="uacute" unicode="&#xfa;" horiz-adv-x="1329" 
d="M1116 1075h246l-152 -1075h-245l20 137q-148 -160 -375 -160q-224 0 -344 144q-122 146 -88 368l82 586h246l-78 -553q-23 -150 47.5 -237.5t216.5 -87.5q140 0 232.5 91t115.5 247zM916 1182h-221l264 288h336z" />
    <glyph glyph-name="ucircumflex" unicode="&#xfb;" horiz-adv-x="1329" 
d="M1116 1075h246l-152 -1075h-245l20 137q-148 -160 -375 -160q-224 0 -344 144q-122 146 -88 368l82 586h246l-78 -553q-23 -150 47.5 -237.5t216.5 -87.5q140 0 232.5 91t115.5 247zM737 1470h258l224 -288h-189l-176 123l-213 -123h-209z" />
    <glyph glyph-name="udieresis" unicode="&#xfc;" horiz-adv-x="1329" 
d="M1116 1075h246l-152 -1075h-245l20 137q-148 -160 -375 -160q-224 0 -344 144q-122 146 -88 368l82 586h246l-78 -553q-23 -150 47.5 -237.5t216.5 -87.5q140 0 232.5 91t115.5 247zM711 1219h-262l34 251h262zM1214 1219h-262l35 251h262z" />
    <glyph glyph-name="yacute" unicode="&#xfd;" horiz-adv-x="1314" 
d="M1466 1075l-747 -1175q-106 -168 -197 -226q-89 -59 -235 -59q-134 0 -254 45l71 205q92 -39 179 -39q66 0 110.5 29.5t93.5 107.5l41 66l-376 1046h262l270 -805l506 805h276zM910 1182h-221l264 288h336z" />
    <glyph glyph-name="thorn" unicode="&#xfe;" horiz-adv-x="1425" 
d="M823 -23q-135 0 -248.5 47.5t-187.5 133.5l-74 -527h-245l258 1839h245l-73 -528q66 72 171.5 113t229.5 41q240 0 395 -146q154 -145 154 -368q0 -255 -178 -430q-175 -175 -447 -175zM1214 567q0 146 -104 234q-107 90 -268 90q-180 0 -299 -113q-119 -110 -119 -272
q0 -146 104 -234q107 -90 269 -90q177 0 297 111q120 114 120 274z" />
    <glyph glyph-name="ydieresis" unicode="&#xff;" horiz-adv-x="1314" 
d="M1466 1075l-747 -1175q-106 -168 -197 -226q-89 -59 -235 -59q-134 0 -254 45l71 205q92 -39 179 -39q66 0 110.5 29.5t93.5 107.5l41 66l-376 1046h262l270 -805l506 805h276zM709 1219h-263l35 251h262zM1212 1219h-262l35 251h262z" />
    <glyph glyph-name="Amacron" unicode="&#x100;" horiz-adv-x="1763" 
d="M-12 0l970 1470h289l527 -1470h-269l-131 369h-858l-242 -369h-286zM1292 598l-219 621l-407 -621h626zM1524 1780l-29 -203h-786l28 203h787z" />
    <glyph glyph-name="amacron" unicode="&#x101;" horiz-adv-x="1337" 
d="M985 139q-87 -76 -207.5 -119t-249.5 -43q-196 0 -315 87.5t-119 230.5q0 142 120 232.5t341 115.5l475 55l2 15q11 78 -64.5 126t-211.5 48q-129 0 -224.5 -47t-142.5 -133l-190 90q68 141 218 220t353 79q251 0 385 -107q137 -107 113 -287l-64 -452q-6 -49 29 -64
q15 -6 43 -6q25 0 80 10l-27 -190q-65 -10 -104 -10q-74 0 -127 20q-92 41 -113 129zM557 176q168 0 293 70q126 71 141 170l13 92l-435 -53q-233 -27 -233 -148q0 -62 58.5 -96.5t162.5 -34.5zM1208 1415l-26 -194h-742l27 194h741z" />
    <glyph glyph-name="Abreve" unicode="&#x102;" horiz-adv-x="1763" 
d="M-12 0l970 1470h289l527 -1470h-269l-131 369h-858l-242 -369h-286zM1292 598l-219 621l-407 -621h626zM1133 1720q92 0 153.5 38t69.5 100h184q-17 -147 -126 -227.5t-292 -80.5q-184 0 -288.5 85.5t-92.5 222.5h185q-7 -60 51.5 -99t155.5 -39z" />
    <glyph glyph-name="abreve" unicode="&#x103;" horiz-adv-x="1337" 
d="M985 139q-87 -76 -207.5 -119t-249.5 -43q-196 0 -315 87.5t-119 230.5q0 142 120 232.5t341 115.5l475 55l2 15q11 78 -64.5 126t-211.5 48q-129 0 -224.5 -47t-142.5 -133l-190 90q68 141 218 220t353 79q251 0 385 -107q137 -107 113 -287l-64 -452q-6 -49 29 -64
q15 -6 43 -6q25 0 80 10l-27 -190q-65 -10 -104 -10q-74 0 -127 20q-92 41 -113 129zM557 176q168 0 293 70q126 71 141 170l13 92l-435 -53q-233 -27 -233 -148q0 -62 58.5 -96.5t162.5 -34.5zM864 1346q179 0 213 124h168q-20 -141 -122 -218.5t-269 -77.5q-179 0 -274 80
t-76 216h167q-1 -60 49 -92t144 -32z" />
    <glyph glyph-name="Aogonek" unicode="&#x104;" horiz-adv-x="1763" 
d="M1466 -381q-112 0 -180.5 50t-68.5 132t70 154.5t194 114.5l-107 299h-858l-242 -369h-286l970 1470h289l527 -1470h-129q-130 -37 -191 -74t-61 -80q0 -32 31.5 -50.5t86.5 -18.5q49 0 105 16l-23 -158q-69 -16 -127 -16zM1292 598l-219 621l-407 -621h626z" />
    <glyph glyph-name="aogonek" unicode="&#x105;" horiz-adv-x="1337" 
d="M985 139q-87 -76 -207.5 -119t-249.5 -43q-196 0 -315 87.5t-119 230.5q0 142 120 232.5t341 115.5l475 55l2 15q11 78 -64.5 126t-211.5 48q-129 0 -224.5 -47t-142.5 -133l-190 90q68 141 218 220t353 79q251 0 385 -107q137 -107 113 -287l-64 -452q-6 -49 29 -64
q15 -6 43 -6q25 0 80 10l-27 -190q-130 -37 -191 -74t-61 -80q0 -32 31.5 -50.5t87.5 -18.5q48 0 104 16l-22 -158q-69 -16 -127 -16q-112 0 -181 50t-69 132q0 63 43.5 122.5t122.5 103.5q-67 39 -82 112zM557 176q168 0 293 70q126 71 141 170l13 92l-435 -53
q-233 -27 -233 -148q0 -62 58.5 -96.5t162.5 -34.5z" />
    <glyph glyph-name="Cacute" unicode="&#x106;" horiz-adv-x="1703" 
d="M1044 1262q-269 0 -446 -160q-174 -158 -174 -406q0 -224 156 -356q155 -131 413 -131q191 0 334 83.5t229 244.5l201 -127q-110 -209 -312 -321t-468 -112q-361 0 -594 195q-229 195 -229 508q0 171 73.5 325.5t208.5 270.5q262 217 633 217q288 0 492 -127
q205 -126 258 -338l-232 -113q-44 164 -188 255.5t-355 91.5zM1235 1556h-242l293 302h379z" />
    <glyph glyph-name="cacute" unicode="&#x107;" horiz-adv-x="1241" 
d="M760 885q-170 0 -285 -109q-113 -107 -113 -270q0 -144 99 -232q103 -86 258 -86q127 0 226 62.5t140 167.5l183 -119q-81 -158 -224.5 -240t-334.5 -82q-257 0 -420 144q-160 145 -160 375q0 255 182 428q181 172 463 172q203 0 354 -97q148 -93 189 -249l-207 -103
q-25 105 -122.5 171.5t-227.5 66.5zM924 1182h-222l265 288h336z" />
    <glyph glyph-name="Ccircumflex" unicode="&#x108;" horiz-adv-x="1703" 
d="M1044 1262q-269 0 -446 -160q-174 -158 -174 -406q0 -224 156 -356q155 -131 413 -131q191 0 334 83.5t229 244.5l201 -127q-110 -209 -312 -321t-468 -112q-361 0 -594 195q-229 195 -229 508q0 171 73.5 325.5t208.5 270.5q262 217 633 217q288 0 492 -127
q205 -126 258 -338l-232 -113q-44 164 -188 255.5t-355 91.5zM1026 1858h287l258 -302h-205l-207 146l-248 -146h-225z" />
    <glyph glyph-name="ccircumflex" unicode="&#x109;" horiz-adv-x="1241" 
d="M760 885q-170 0 -285 -109q-113 -107 -113 -270q0 -144 99 -232q103 -86 258 -86q127 0 226 62.5t140 167.5l183 -119q-81 -158 -224.5 -240t-334.5 -82q-257 0 -420 144q-160 145 -160 375q0 255 182 428q181 172 463 172q203 0 354 -97q148 -93 189 -249l-207 -103
q-25 105 -122.5 171.5t-227.5 66.5zM745 1470h258l224 -288h-189l-176 123l-213 -123h-209z" />
    <glyph glyph-name="Cdotaccent" unicode="&#x10a;" horiz-adv-x="1703" 
d="M1044 1262q-269 0 -446 -160q-174 -158 -174 -406q0 -224 156 -356q155 -131 413 -131q191 0 334 83.5t229 244.5l201 -127q-110 -209 -312 -321t-468 -112q-361 0 -594 195q-229 195 -229 508q0 171 73.5 325.5t208.5 270.5q262 217 633 217q288 0 492 -127
q205 -126 258 -338l-232 -113q-44 164 -188 255.5t-355 91.5zM1251 1556h-262l35 252h262z" />
    <glyph glyph-name="cdotaccent" unicode="&#x10b;" horiz-adv-x="1241" 
d="M760 885q-170 0 -285 -109q-113 -107 -113 -270q0 -144 99 -232q103 -86 258 -86q127 0 226 62.5t140 167.5l183 -119q-81 -158 -224.5 -240t-334.5 -82q-257 0 -420 144q-160 145 -160 375q0 255 182 428q181 172 463 172q203 0 354 -97q148 -93 189 -249l-207 -103
q-25 105 -122.5 171.5t-227.5 66.5zM967 1219h-254l35 251h253z" />
    <glyph glyph-name="Ccaron" unicode="&#x10c;" horiz-adv-x="1703" 
d="M1044 1262q-269 0 -446 -160q-174 -158 -174 -406q0 -224 156 -356q155 -131 413 -131q191 0 334 83.5t229 244.5l201 -127q-110 -209 -312 -321t-468 -112q-361 0 -594 195q-229 195 -229 508q0 171 73.5 325.5t208.5 270.5q262 217 633 217q288 0 492 -127
q205 -126 258 -338l-232 -113q-44 164 -188 255.5t-355 91.5zM1618 1858l-340 -302h-287l-258 302h205l207 -146l248 146h225z" />
    <glyph glyph-name="ccaron" unicode="&#x10d;" horiz-adv-x="1241" 
d="M760 885q-170 0 -285 -109q-113 -107 -113 -270q0 -144 99 -232q103 -86 258 -86q127 0 226 62.5t140 167.5l183 -119q-81 -158 -224.5 -240t-334.5 -82q-257 0 -420 144q-160 145 -160 375q0 255 182 428q181 172 463 172q203 0 354 -97q148 -93 189 -249l-207 -103
q-25 105 -122.5 171.5t-227.5 66.5zM1276 1470l-305 -288h-258l-224 288h189l176 -122l213 122h209z" />
    <glyph glyph-name="Dcaron" unicode="&#x10e;" horiz-adv-x="1765" 
d="M915 0h-776l207 1470h701q347 0 557 -192q213 -192 213 -490q0 -171 -72 -323t-205 -260q-250 -205 -625 -205zM571 1245l-143 -1020h498q268 0 446 158q176 156 176 391q0 206 -147 338q-145 133 -383 133h-447zM1518 1858l-340 -302h-287l-258 302h205l206 -146
l248 146h226z" />
    <glyph glyph-name="dcaron" unicode="&#x10f;" horiz-adv-x="1423" 
d="M678 -20q-241 0 -395 145t-154 369q0 252 176 428q179 176 449 176q135 0 249 -47t187 -133l78 552h245l-206 -1470h-246l18 133q-66 -72 -171.5 -112.5t-229.5 -40.5zM735 184q177 0 297 111q121 115 121 274q0 146 -104 234q-107 90 -269 90q-180 0 -299 -113
q-119 -110 -119 -272q0 -146 105 -234q107 -90 268 -90zM1737 1137h-168l102 333h279z" />
    <glyph glyph-name="Dcroat" unicode="&#x110;" horiz-adv-x="1847" 
d="M997 0h-776l90 643h-213l33 225h213l84 602h700q348 0 558 -192q212 -191 212 -490q0 -171 -71.5 -323t-204.5 -260q-250 -205 -625 -205zM569 643l-59 -418h498q268 0 446 158q176 156 176 391q0 206 -147 338q-145 133 -383 133h-447l-53 -377h348l-33 -225h-346z" />
    <glyph glyph-name="dslash" unicode="&#x111;" horiz-adv-x="1507" 
d="M754 1098q135 0 249 -47t187 -133l35 241h-338l26 195h338l17 116h245l-16 -116h154l-27 -195h-154l-163 -1159h-246l18 133q-66 -72 -171.5 -112.5t-229.5 -40.5q-241 0 -395 145t-154 369q0 252 176 428q179 176 449 176zM362 508q0 -146 105 -234q107 -90 268 -90
q177 0 297 111q121 115 121 274q0 146 -104 234q-107 90 -269 90q-180 0 -299 -113q-119 -110 -119 -272z" />
    <glyph glyph-name="Emacron" unicode="&#x112;" horiz-adv-x="1630" 
d="M139 0l207 1470h1421l-32 -229h-1164l-51 -369h1047l-33 -229h-1047l-57 -414h1163l-32 -229h-1422zM1487 1780l-29 -203h-786l28 203h787z" />
    <glyph glyph-name="emacron" unicode="&#x113;" horiz-adv-x="1302" 
d="M727 184q125 0 222.5 56.5t148.5 158.5l186 -116q-78 -146 -227 -226t-344 -80q-250 0 -418 148q-166 147 -166 371q0 251 184 426q186 174 461 174q248 0 404 -138q155 -137 155 -354q0 -59 -14 -139h-959q19 -127 119.5 -204t247.5 -77zM758 891q-129 0 -230.5 -66
t-142.5 -176h717q-8 107 -102.5 174.5t-241.5 67.5zM1231 1415l-27 -194h-741l26 194h742z" />
    <glyph glyph-name="Ebreve" unicode="&#x114;" horiz-adv-x="1630" 
d="M139 0l207 1470h1421l-32 -229h-1164l-51 -369h1047l-33 -229h-1047l-57 -414h1163l-32 -229h-1422zM1096 1720q92 0 153.5 38t69.5 100h184q-17 -147 -126 -227.5t-292 -80.5q-184 0 -288 85.5t-92 222.5h184q-7 -60 51.5 -99t155.5 -39z" />
    <glyph glyph-name="ebreve" unicode="&#x115;" horiz-adv-x="1302" 
d="M727 184q125 0 222.5 56.5t148.5 158.5l186 -116q-78 -146 -227 -226t-344 -80q-250 0 -418 148q-166 147 -166 371q0 251 184 426q186 174 461 174q248 0 404 -138q155 -137 155 -354q0 -59 -14 -139h-959q19 -127 119.5 -204t247.5 -77zM758 891q-129 0 -230.5 -66
t-142.5 -176h717q-8 107 -102.5 174.5t-241.5 67.5zM864 1346q179 0 213 124h168q-20 -141 -122 -218.5t-269 -77.5q-179 0 -274 80t-76 216h167q-1 -60 49 -92t144 -32z" />
    <glyph glyph-name="Edotaccent" unicode="&#x116;" horiz-adv-x="1630" 
d="M139 0l207 1470h1421l-32 -229h-1164l-51 -369h1047l-33 -229h-1047l-57 -414h1163l-32 -229h-1422zM1194 1556h-262l35 252h262z" />
    <glyph glyph-name="edotaccent" unicode="&#x117;" horiz-adv-x="1302" 
d="M727 184q125 0 222.5 56.5t148.5 158.5l186 -116q-78 -146 -227 -226t-344 -80q-250 0 -418 148q-166 147 -166 371q0 251 184 426q186 174 461 174q248 0 404 -138q155 -137 155 -354q0 -59 -14 -139h-959q19 -127 119.5 -204t247.5 -77zM758 891q-129 0 -230.5 -66
t-142.5 -176h717q-8 107 -102.5 174.5t-241.5 67.5zM954 1219h-254l35 251h254z" />
    <glyph glyph-name="Eogonek" unicode="&#x118;" horiz-adv-x="1630" 
d="M1231 -381q-112 0 -181 50t-69 132q0 114 123 199h-965l207 1470h1421l-32 -229h-1164l-51 -369h1047l-33 -229h-1047l-57 -414h1163l-32 -229h-152q-130 -37 -191 -74t-61 -80q0 -32 31.5 -50.5t87.5 -18.5q48 0 104 16l-22 -158q-69 -16 -127 -16z" />
    <glyph glyph-name="eogonek" unicode="&#x119;" horiz-adv-x="1302" 
d="M975 -207l-23 -158q-69 -16 -127 -16q-113 0 -181.5 53.5t-68.5 141.5q0 87 76 166q-237 15 -379 157q-143 143 -143 363q0 254 176 424q175 172 453 172q276 0 440 -164q163 -163 129 -408l-8 -59h-959q13 -127 109 -203t242 -76q124 0 221.5 56.5t148.5 156.5l187 -116
q-99 -182 -320 -265q-196 -72 -196 -159q0 -39 30.5 -60.5t87.5 -21.5q49 0 105 16zM752 891q-127 0 -226.5 -65.5t-142.5 -176.5h719q-9 98 -113 170t-237 72z" />
    <glyph glyph-name="Ecaron" unicode="&#x11a;" horiz-adv-x="1630" 
d="M139 0l207 1470h1421l-32 -229h-1164l-51 -369h1047l-33 -229h-1047l-57 -414h1163l-32 -229h-1422zM1546 1858l-340 -302h-286l-258 302h204l207 -146l248 146h225z" />
    <glyph glyph-name="ecaron" unicode="&#x11b;" horiz-adv-x="1302" 
d="M727 184q125 0 222.5 56.5t148.5 158.5l186 -116q-78 -146 -227 -226t-344 -80q-250 0 -418 148q-166 147 -166 371q0 251 184 426q186 174 461 174q248 0 404 -138q155 -137 155 -354q0 -59 -14 -139h-959q19 -127 119.5 -204t247.5 -77zM758 891q-129 0 -230.5 -66
t-142.5 -176h717q-8 107 -102.5 174.5t-241.5 67.5zM1268 1470l-305 -288h-258l-224 288h189l176 -122l213 122h209z" />
    <glyph glyph-name="Gcircumflex" unicode="&#x11c;" horiz-adv-x="1832" 
d="M1731 0h-246l24 176q-211 -199 -536 -199q-358 0 -590 197q-229 195 -229 506q0 171 75.5 326.5t212.5 271.5q266 215 639 215q295 0 508 -127q211 -126 266 -336l-233 -110q-43 160 -191.5 251t-365.5 91q-283 0 -463 -160q-178 -156 -178 -406q0 -223 154 -356
q155 -131 413 -131q217 0 383 96q161 93 205 258h-702l30 230h934zM1049 1858h286l258 -302h-204l-207 146l-248 -146h-225z" />
    <glyph glyph-name="gcircumflex" unicode="&#x11d;" horiz-adv-x="1413" 
d="M1456 1075l-139 -971q-34 -231 -209 -362q-177 -133 -453 -133q-235 0 -397 80t-209 221l197 113q41 -100 152 -158t264 -58q359 0 409 308l8 51q-68 -74 -173 -115t-228 -41q-241 0 -395 142q-152 143 -152 360q0 244 176 414q178 172 447 172q135 0 249 -47t187 -133
l20 157h246zM737 215q175 0 291 107q119 107 119 262q0 137 -103 223t-266 86q-174 0 -295 -109q-118 -106 -118 -262q0 -136 104 -221q106 -86 268 -86zM748 1470h258l223 -288h-189l-176 123l-213 -123h-209z" />
    <glyph glyph-name="Gbreve" unicode="&#x11e;" horiz-adv-x="1832" 
d="M1731 0h-246l24 176q-211 -199 -536 -199q-358 0 -590 197q-229 195 -229 506q0 171 75.5 326.5t212.5 271.5q266 215 639 215q295 0 508 -127q211 -126 266 -336l-233 -110q-43 160 -191.5 251t-365.5 91q-283 0 -463 -160q-178 -156 -178 -406q0 -223 154 -356
q155 -131 413 -131q217 0 383 96q161 93 205 258h-702l30 230h934zM1184 1720q92 0 153.5 38t69.5 100h184q-17 -147 -126 -227.5t-291 -80.5q-184 0 -288.5 85.5t-92.5 222.5h184q-7 -60 51.5 -99t155.5 -39z" />
    <glyph glyph-name="gbreve" unicode="&#x11f;" horiz-adv-x="1413" 
d="M1456 1075l-139 -971q-34 -231 -209 -362q-177 -133 -453 -133q-235 0 -397 80t-209 221l197 113q41 -100 152 -158t264 -58q359 0 409 308l8 51q-68 -74 -173 -115t-228 -41q-241 0 -395 142q-152 143 -152 360q0 244 176 414q178 172 447 172q135 0 249 -47t187 -133
l20 157h246zM737 215q175 0 291 107q119 107 119 262q0 137 -103 223t-266 86q-174 0 -295 -109q-118 -106 -118 -262q0 -136 104 -221q106 -86 268 -86zM881 1346q179 0 213 124h168q-20 -141 -122.5 -218.5t-269.5 -77.5q-179 0 -274 80t-76 216h168q-1 -60 49 -92
t144 -32z" />
    <glyph glyph-name="Gdotaccent" unicode="&#x120;" horiz-adv-x="1832" 
d="M1731 0h-246l24 176q-211 -199 -536 -199q-358 0 -590 197q-229 195 -229 506q0 171 75.5 326.5t212.5 271.5q266 215 639 215q295 0 508 -127q211 -126 266 -336l-233 -110q-43 160 -191.5 251t-365.5 91q-283 0 -463 -160q-178 -156 -178 -406q0 -223 154 -356
q155 -131 413 -131q217 0 383 96q161 93 205 258h-702l30 230h934zM1282 1556h-262l35 252h262z" />
    <glyph glyph-name="gdotaccent" unicode="&#x121;" horiz-adv-x="1413" 
d="M1456 1075l-139 -971q-34 -231 -209 -362q-177 -133 -453 -133q-235 0 -397 80t-209 221l197 113q41 -100 152 -158t264 -58q359 0 409 308l8 51q-68 -74 -173 -115t-228 -41q-241 0 -395 142q-152 143 -152 360q0 244 176 414q178 172 447 172q135 0 249 -47t187 -133
l20 157h246zM737 215q175 0 291 107q119 107 119 262q0 137 -103 223t-266 86q-174 0 -295 -109q-118 -106 -118 -262q0 -136 104 -221q106 -86 268 -86zM989 1219h-254l35 251h254z" />
    <glyph glyph-name="Gcommaaccent" unicode="&#x122;" horiz-adv-x="1832" 
d="M1731 0h-246l24 176q-211 -199 -536 -199q-358 0 -590 197q-229 195 -229 506q0 171 75.5 326.5t212.5 271.5q266 215 639 215q295 0 508 -127q211 -126 266 -336l-233 -110q-43 160 -191.5 251t-365.5 91q-283 0 -463 -160q-178 -156 -178 -406q0 -223 154 -356
q155 -131 413 -131q217 0 383 96q161 93 205 258h-702l30 230h934zM834 -240h-99l23 164h246l-19 -129q-14 -98 -85.5 -152.5t-188.5 -54.5l14 107q45 0 74 17t35 48z" />
    <glyph glyph-name="gcommaaccent" unicode="&#x123;" horiz-adv-x="1413" 
d="M1456 1075l-139 -971q-34 -231 -209 -362q-177 -133 -453 -133q-235 0 -397 80t-209 221l197 113q41 -100 152 -158t264 -58q359 0 409 308l8 51q-68 -74 -173 -115t-228 -41q-241 0 -395 142q-152 143 -152 360q0 244 176 414q178 172 447 172q135 0 249 -47t187 -133
l20 157h246zM737 215q175 0 291 107q119 107 119 262q0 137 -103 223t-266 86q-174 0 -295 -109q-118 -106 -118 -262q0 -136 104 -221q106 -86 268 -86zM903 1346h98l-22 -164h-246l19 129q14 98 85.5 152.5t188.5 54.5l-14 -107q-45 0 -74 -17t-35 -48z" />
    <glyph glyph-name="Hcircumflex" unicode="&#x124;" horiz-adv-x="1802" 
d="M1524 872l84 598h262l-207 -1470h-262l90 643h-999l-91 -643h-262l207 1470h262l-84 -598h1000zM997 1858h287l258 -302h-205l-207 146l-247 -146h-226z" />
    <glyph glyph-name="hcircumflex" unicode="&#x125;" horiz-adv-x="1339" 
d="M365 0h-246l207 1470h245l-75 -532q146 158 381 158q226 0 346 -144q122 -143 88 -366l-82 -586h-246l76 545q20 148 -52.5 236.5t-218.5 88.5q-142 0 -235 -87.5t-113 -241.5zM762 1858h287l258 -302h-205l-207 146l-248 -146h-225z" />
    <glyph glyph-name="Hbar" unicode="&#x126;" horiz-adv-x="1884" 
d="M2060 1194l-32 -225h-187l-137 -969h-262l74 518h-1000l-74 -518h-262l137 969h-178l33 225h176l39 276h262l-39 -276h1000l39 276h262l-39 -276h188zM578 969l-31 -226h999l31 226h-999z" />
    <glyph glyph-name="hbar" unicode="&#x127;" horiz-adv-x="1421" 
d="M446 0h-245l164 1159h-154l27 195h153l17 116h245l-16 -116h338l-27 -195h-340l-30 -221q146 158 380 158q227 0 347 -144q122 -143 88 -366l-82 -586h-246l76 545q20 148 -52.5 236.5t-218.5 88.5q-142 0 -235 -87.5t-113 -241.5z" />
    <glyph glyph-name="Itilde" unicode="&#x128;" horiz-adv-x="540" 
d="M346 1470h262l-207 -1470h-262zM317 1876q55 0 107 -14.5t135 -55.5q87 -47 137 -47q80 0 117 117h166q-26 -148 -99 -232.5t-175 -84.5q-56 0 -108.5 14.5t-131.5 54.5q-87 47 -137 47q-84 0 -117 -116h-166q25 148 97 232.5t175 84.5z" />
    <glyph glyph-name="itilde" unicode="&#x129;" horiz-adv-x="483" 
d="M270 1075h246l-151 -1075h-246zM284 1485q40 0 77 -13.5t95 -50.5q71 -49 117 -49q66 0 101 113h155q-26 -146 -93 -224.5t-165 -78.5q-40 0 -78 13t-96 50q-71 47 -115 47q-66 0 -100 -110h-156q26 146 93 224.5t165 78.5z" />
    <glyph glyph-name="Imacron" unicode="&#x12a;" horiz-adv-x="540" 
d="M346 1470h262l-207 -1470h-262zM913 1780l-28 -203h-787l29 203h786z" />
    <glyph glyph-name="imacron" unicode="&#x12b;" horiz-adv-x="483" 
d="M270 1075h246l-151 -1075h-246zM811 1415l-27 -194h-741l27 194h741z" />
    <glyph glyph-name="Ibreve" unicode="&#x12c;" horiz-adv-x="540" 
d="M346 1470h262l-207 -1470h-262zM522 1720q92 0 153.5 38t69.5 100h185q-17 -147 -126 -227.5t-292 -80.5q-184 0 -288.5 85.5t-92.5 222.5h184q-7 -60 51.5 -99t155.5 -39z" />
    <glyph glyph-name="ibreve" unicode="&#x12d;" horiz-adv-x="483" 
d="M270 1075h246l-151 -1075h-246zM438 1346q179 0 213 124h168q-20 -141 -122 -218.5t-269 -77.5q-179 0 -274 80t-76 216h167q-1 -60 49 -92t144 -32z" />
    <glyph glyph-name="Iogonek" unicode="&#x12e;" horiz-adv-x="540" 
d="M223 -381q-112 0 -181 50t-69 132q0 66 44.5 125.5t125.5 102.5l203 1441h262l-207 -1470q-129 -37 -190 -74t-61 -80q0 -32 31.5 -50.5t86.5 -18.5q49 0 105 16l-23 -158q-69 -16 -127 -16z" />
    <glyph glyph-name="iogonek" unicode="&#x12f;" horiz-adv-x="483" 
d="M541 1219h-254l35 251h253zM186 -381q-112 0 -180.5 50t-68.5 132q0 68 49 131t139 107l145 1036h246l-151 -1075q-130 -37 -191 -74t-61 -80q0 -32 31.5 -50.5t86.5 -18.5q49 0 105 16l-23 -158q-69 -16 -127 -16z" />
    <glyph glyph-name="Idot" unicode="&#x130;" horiz-adv-x="540" 
d="M346 1470h262l-207 -1470h-262zM621 1556h-263l35 252h262z" />
    <glyph glyph-name="dotlessi" unicode="&#x131;" horiz-adv-x="483" 
d="M270 1075h246l-151 -1075h-246z" />
    <glyph glyph-name="Jcircumflex" unicode="&#x134;" horiz-adv-x="1443" 
d="M741 -23q-263 0 -452 125t-230 320l238 121q30 -149 154 -244q122 -94 294 -94q171 0 284 94t136 256l129 915h262l-129 -921q-41 -268 -221 -420q-184 -152 -465 -152zM1329 1858h287l258 -302h-205l-207 146l-248 -146h-225z" />
    <glyph glyph-name="jcircumflex" unicode="&#x135;" horiz-adv-x="483" 
d="M-94 -174q99 0 150.5 46t64.5 148l149 1055h246l-149 -1057q-29 -204 -139 -303.5t-306 -99.5q-139 0 -260 41l64 201q109 -31 180 -31zM319 1470h259l223 -288h-189l-176 123l-213 -123h-209z" />
    <glyph glyph-name="Kcommaaccent" unicode="&#x136;" horiz-adv-x="1675" 
d="M346 1470h262l-102 -727l973 727h385l-858 -620l698 -850h-328l-575 702l-334 -241l-66 -461h-262zM807 -240h-98l22 164h246l-19 -129q-14 -98 -85.5 -152.5t-188.5 -54.5l14 107q45 0 74 17t35 48z" />
    <glyph glyph-name="kcommaaccent" unicode="&#x137;" horiz-adv-x="1335" 
d="M326 1470h245l-131 -925l703 530h354l-631 -465l502 -610h-307l-387 469l-273 -201l-36 -268h-246zM645 -240h-98l22 164h246l-18 -129q-13 -98 -85.5 -152.5t-189.5 -54.5l15 107q44 0 73 17t35 48z" />
    <glyph glyph-name="kgreenlandic" unicode="&#x138;" horiz-adv-x="1335" 
d="M270 1075h246l-74 -530l701 530h354l-631 -465l502 -610h-307l-387 469l-273 -201l-36 -268h-246z" />
    <glyph glyph-name="Lacute" unicode="&#x139;" horiz-adv-x="1521" 
d="M1475 0h-1336l207 1470h262l-174 -1241h1073zM614 1556h-241l293 302h378z" />
    <glyph glyph-name="lacute" unicode="&#x13a;" horiz-adv-x="483" 
d="M326 1470h245l-206 -1470h-246zM592 1556h-242l293 302h379z" />
    <glyph glyph-name="Lcommaaccent" unicode="&#x13b;" horiz-adv-x="1521" 
d="M1475 0h-1336l207 1470h262l-174 -1241h1073zM569 -240h-98l23 164h245l-18 -129q-13 -98 -85.5 -152.5t-189.5 -54.5l15 107q44 0 73 17t35 48z" />
    <glyph glyph-name="lcommaaccent" unicode="&#x13c;" horiz-adv-x="483" 
d="M326 1470h245l-206 -1470h-246zM184 -240h-98l23 164h245l-18 -129q-13 -98 -85.5 -152.5t-189.5 -54.5l15 107q44 0 73 17t35 48z" />
    <glyph glyph-name="Lcaron" unicode="&#x13d;" horiz-adv-x="1521" 
d="M1475 0h-1336l207 1470h262l-174 -1241h1073zM1016 1137h-168l102 333h279z" />
    <glyph glyph-name="lcaron" unicode="&#x13e;" horiz-adv-x="481" 
d="M326 1470h245l-206 -1470h-246zM795 1137h-168l102 333h279z" />
    <glyph glyph-name="Ldot" unicode="&#x13f;" horiz-adv-x="1521" 
d="M1475 0h-1336l207 1470h262l-174 -1241h1073zM1329 618h-254l35 252h254z" />
    <glyph glyph-name="ldot" unicode="&#x140;" horiz-adv-x="800" 
d="M326 1470h245l-206 -1470h-246zM850 618h-254l35 252h254z" />
    <glyph glyph-name="Lslash" unicode="&#x141;" horiz-adv-x="1562" 
d="M1516 0h-1336l70 492l-209 -76l33 237l209 76l104 741h262l-92 -653l465 168l-35 -240l-463 -165l-49 -351h1073z" />
    <glyph glyph-name="lslash" unicode="&#x142;" horiz-adv-x="688" 
d="M838 1087l-35 -237l-232 -107l-104 -743h-246l90 641l-227 -104l33 237l227 105l84 591h246l-70 -489z" />
    <glyph glyph-name="Nacute" unicode="&#x143;" horiz-adv-x="1763" 
d="M1579 1470h252l-207 -1470h-225l-848 1147l-160 -1147h-252l207 1470h266l813 -1097zM1174 1556h-242l293 302h379z" />
    <glyph glyph-name="nacute" unicode="&#x144;" horiz-adv-x="1339" 
d="M365 0h-246l151 1075h246l-20 -137q146 158 381 158q226 0 346 -144q122 -143 88 -366l-82 -586h-246l76 545q20 148 -52.5 236.5t-218.5 88.5q-142 0 -235 -87.5t-113 -241.5zM948 1182h-221l264 288h336z" />
    <glyph glyph-name="Ncommaaccent" unicode="&#x145;" horiz-adv-x="1763" 
d="M1579 1470h252l-207 -1470h-225l-848 1147l-160 -1147h-252l207 1470h266l813 -1097zM813 -240h-98l22 164h246l-18 -129q-13 -98 -85.5 -152.5t-189.5 -54.5l15 107q44 0 73 17t35 48z" />
    <glyph glyph-name="ncommaaccent" unicode="&#x146;" horiz-adv-x="1339" 
d="M365 0h-246l151 1075h246l-20 -137q146 158 381 158q226 0 346 -144q122 -143 88 -366l-82 -586h-246l76 545q20 148 -52.5 236.5t-218.5 88.5q-142 0 -235 -87.5t-113 -241.5zM616 -240h-98l23 164h245l-18 -129q-14 -98 -85.5 -152.5t-188.5 -54.5l14 107q44 0 73 17
t35 48z" />
    <glyph glyph-name="Ncaron" unicode="&#x147;" horiz-adv-x="1763" 
d="M1579 1470h252l-207 -1470h-225l-848 1147l-160 -1147h-252l207 1470h266l813 -1097zM1573 1858l-340 -302h-287l-258 302h205l207 -146l248 146h225z" />
    <glyph glyph-name="ncaron" unicode="&#x148;" horiz-adv-x="1339" 
d="M365 0h-246l151 1075h246l-20 -137q146 158 381 158q226 0 346 -144q122 -143 88 -366l-82 -586h-246l76 545q20 148 -52.5 236.5t-218.5 88.5q-142 0 -235 -87.5t-113 -241.5zM1274 1470l-305 -288h-258l-224 288h189l176 -122l213 122h209z" />
    <glyph glyph-name="Eng" unicode="&#x14a;" horiz-adv-x="1763" 
d="M1425 373l154 1097h252l-205 -1452q-29 -204 -138.5 -303.5t-305.5 -99.5q-139 0 -260 41l63 201q109 -31 180 -31q99 0 148 44t63 144l2 15l-827 1118l-160 -1147h-252l207 1470h266z" />
    <glyph glyph-name="eng" unicode="&#x14b;" horiz-adv-x="1347" 
d="M877 1096q226 0 346 -144q122 -143 88 -366l-80 -568q-29 -204 -139 -303.5t-306 -99.5q-139 0 -260 41l64 201q108 -31 180 -31q99 0 150.5 46t64.5 148l74 525q20 148 -52.5 236.5t-218.5 88.5q-142 0 -235 -87.5t-113 -241.5l-75 -541h-246l151 1075h246l-20 -137
q146 158 381 158z" />
    <glyph glyph-name="Omacron" unicode="&#x14c;" horiz-adv-x="1826" 
d="M981 -23q-363 0 -596 199q-231 200 -231 506q0 171 71.5 325.5t204.5 266.5q123 106 283.5 162.5t339.5 56.5q364 0 594 -199q231 -200 231 -506q0 -170 -71.5 -324t-202.5 -267q-124 -106 -284 -163t-339 -57zM989 209q271 0 445 160q174 158 174 405q0 220 -156 352
q-154 136 -408 136q-272 0 -446 -162q-174 -158 -174 -404q0 -219 156 -354q157 -133 409 -133zM1556 1780l-28 -203h-787l29 203h786z" />
    <glyph glyph-name="omacron" unicode="&#x14d;" horiz-adv-x="1333" 
d="M772 1096q256 0 420 -144q162 -143 162 -377q0 -249 -185 -425q-182 -173 -458 -173q-257 0 -420 144q-162 143 -162 377q0 253 182 426q184 172 461 172zM762 885q-174 0 -289 -109q-111 -108 -111 -268q0 -144 101 -232t258 -88q175 0 287 109q112 106 112 268
q0 145 -100 232q-101 88 -258 88zM1235 1415l-27 -194h-741l27 194h741z" />
    <glyph glyph-name="Obreve" unicode="&#x14e;" horiz-adv-x="1826" 
d="M981 -23q-363 0 -596 199q-231 200 -231 506q0 171 71.5 325.5t204.5 266.5q123 106 283.5 162.5t339.5 56.5q364 0 594 -199q231 -200 231 -506q0 -170 -71.5 -324t-202.5 -267q-124 -106 -284 -163t-339 -57zM989 209q271 0 445 160q174 158 174 405q0 220 -156 352
q-154 136 -408 136q-272 0 -446 -162q-174 -158 -174 -404q0 -219 156 -354q157 -133 409 -133zM1165 1720q92 0 154.5 38.5t69.5 99.5h184q-17 -147 -126 -227.5t-292 -80.5q-184 0 -288.5 85.5t-92.5 222.5h184q-7 -60 51.5 -99t155.5 -39z" />
    <glyph glyph-name="obreve" unicode="&#x14f;" horiz-adv-x="1333" 
d="M772 1096q256 0 420 -144q162 -143 162 -377q0 -249 -185 -425q-182 -173 -458 -173q-257 0 -420 144q-162 143 -162 377q0 253 182 426q184 172 461 172zM762 885q-174 0 -289 -109q-111 -108 -111 -268q0 -144 101 -232t258 -88q175 0 287 109q112 106 112 268
q0 145 -100 232q-101 88 -258 88zM862 1346q179 0 213 124h168q-20 -141 -122 -218.5t-269 -77.5q-179 0 -274 80t-76 216h167q-1 -60 49 -92t144 -32z" />
    <glyph glyph-name="Ohungarumlaut" unicode="&#x150;" horiz-adv-x="1826" 
d="M981 -23q-363 0 -596 199q-231 200 -231 506q0 171 71.5 325.5t204.5 266.5q123 106 283.5 162.5t339.5 56.5q364 0 594 -199q231 -200 231 -506q0 -170 -71.5 -324t-202.5 -267q-124 -106 -284 -163t-339 -57zM989 209q271 0 445 160q174 158 174 405q0 220 -156 352
q-154 136 -408 136q-272 0 -446 -162q-174 -158 -174 -404q0 -219 156 -354q157 -133 409 -133zM1460 1556h-203l238 302h317zM993 1556h-202l219 302h336z" />
    <glyph glyph-name="ohungarumlaut" unicode="&#x151;" horiz-adv-x="1333" 
d="M772 1096q256 0 420 -144q162 -143 162 -377q0 -249 -185 -425q-182 -173 -458 -173q-257 0 -420 144q-162 143 -162 377q0 253 182 426q184 172 461 172zM762 885q-174 0 -289 -109q-111 -108 -111 -268q0 -144 101 -232t258 -88q175 0 287 109q112 106 112 268
q0 145 -100 232q-101 88 -258 88zM1112 1182h-197l234 288h291zM692 1182h-196l233 288h291z" />
    <glyph glyph-name="OE" unicode="&#x152;" horiz-adv-x="2789" 
d="M164 682q0 171 71.5 323.5t204.5 260.5q248 204 625 204h1862l-33 -229h-1122l-52 -369h1006l-33 -229h-1005l-58 -414h1123l-33 -229h-1786q-346 0 -557 190q-213 195 -213 492zM1370 225l146 1020h-461q-271 0 -449 -158q-174 -155 -174 -391q0 -206 146 -340
q146 -131 385 -131h407z" />
    <glyph glyph-name="oe" unicode="&#x153;" horiz-adv-x="2293" 
d="M2087 399l186 -116q-78 -146 -227 -226t-344 -80q-153 0 -279.5 59.5t-205.5 166.5q-88 -109 -219 -167.5t-285 -58.5q-257 0 -420 144q-162 143 -162 377q0 253 182 426q181 172 459 172q155 0 283.5 -58t206.5 -164q91 107 220.5 164.5t280.5 57.5q248 0 404 -138
q155 -137 155 -354q0 -59 -14 -139h-958q17 -127 117.5 -204t248.5 -77q125 0 222.5 56.5t148.5 158.5zM1747 891q-129 0 -230.5 -66t-142.5 -176h717q-8 107 -102.5 174.5t-241.5 67.5zM1122 565q0 145 -100 232q-101 88 -258 88q-174 0 -289 -109q-110 -107 -110 -268
q0 -145 100 -232q101 -88 258 -88q175 0 287 109q112 106 112 268z" />
    <glyph glyph-name="Racute" unicode="&#x154;" horiz-adv-x="1642" 
d="M1047 569h-566l-80 -569h-262l207 1470h897q227 0 361.5 -112.5t134.5 -302.5q0 -177 -111 -302.5t-303 -166.5l309 -586h-288zM575 1245l-61 -450h637q147 0 239.5 70t92.5 179q0 94 -72 147.5t-199 53.5h-637zM1114 1556h-242l293 302h379z" />
    <glyph glyph-name="racute" unicode="&#x155;" horiz-adv-x="919" 
d="M928 1081q57 0 119 -16l-35 -246q-78 19 -125 19q-201 0 -315.5 -91t-139.5 -270l-67 -477h-246l151 1075h246l-29 -194q156 200 441 200zM756 1182h-221l264 288h336z" />
    <glyph glyph-name="Rcommaaccent" unicode="&#x156;" horiz-adv-x="1642" 
d="M1047 569h-566l-80 -569h-262l207 1470h897q227 0 361.5 -112.5t134.5 -302.5q0 -177 -111 -302.5t-303 -166.5l309 -586h-288zM575 1245l-61 -450h637q147 0 239.5 70t92.5 179q0 94 -72 147.5t-199 53.5h-637zM797 -240h-99l23 164h246l-19 -129q-14 -98 -85.5 -152.5
t-188.5 -54.5l14 107q45 0 74 17t35 48z" />
    <glyph glyph-name="rcommaaccent" unicode="&#x157;" horiz-adv-x="919" 
d="M928 1081q57 0 119 -16l-35 -246q-78 19 -125 19q-201 0 -315.5 -91t-139.5 -270l-67 -477h-246l151 1075h246l-29 -194q156 200 441 200zM184 -240h-98l23 164h245l-18 -129q-13 -98 -85.5 -152.5t-189.5 -54.5l15 107q44 0 73 17t35 48z" />
    <glyph glyph-name="Rcaron" unicode="&#x158;" horiz-adv-x="1642" 
d="M1047 569h-566l-80 -569h-262l207 1470h897q227 0 361.5 -112.5t134.5 -302.5q0 -177 -111 -302.5t-303 -166.5l309 -586h-288zM575 1245l-61 -450h637q147 0 239.5 70t92.5 179q0 94 -72 147.5t-199 53.5h-637zM1518 1858l-340 -302h-287l-258 302h205l206 -146l248 146
h226z" />
    <glyph glyph-name="rcaron" unicode="&#x159;" horiz-adv-x="919" 
d="M928 1081q57 0 119 -16l-35 -246q-78 19 -125 19q-201 0 -315.5 -91t-139.5 -270l-67 -477h-246l151 1075h246l-29 -194q156 200 441 200zM1114 1470l-305 -288h-258l-223 288h188l176 -122l213 122h209z" />
    <glyph glyph-name="Sacute" unicode="&#x15a;" horiz-adv-x="1572" 
d="M895 -23q-297 0 -539 109q-238 110 -321 274l198 166q79 -149 260 -234t416 -85q198 0 311 59.5t113 163.5q0 64 -48.5 104t-160.5 66q-43 8 -290 49q-161 27 -242 45q-87 23 -139 47q-113 47 -167.5 119t-54.5 174q0 206 187 332q189 127 495 127q265 0 469 -92
q204 -88 289 -242l-198 -151q-69 123 -220.5 190.5t-355.5 67.5q-190 0 -300 -54t-110 -147q0 -60 40.5 -93.5t140.5 -56.5q9 -2 84 -16q52 -9 172 -27q189 -28 266 -47q88 -18 153 -45q250 -97 250 -315q0 -224 -190 -356q-191 -132 -508 -132zM1114 1556h-242l293 302h379
z" />
    <glyph glyph-name="sacute" unicode="&#x15b;" horiz-adv-x="1175" 
d="M653 -23q-209 0 -376.5 72t-247.5 195l182 145q144 -209 461 -209q130 0 202 35t72 98q0 75 -151 101q-41 9 -117 18q-21 2 -42 5t-29.5 4t-10.5 1q-243 37 -336 107q-92 71 -92 194q0 161 141 257t381 96q181 0 334 -66q155 -66 219 -166l-172 -145q-57 82 -166 128
t-246 46q-121 0 -186 -32t-65 -89q0 -42 51 -65q62 -28 252 -54q278 -40 379 -110q100 -69 100 -197q0 -165 -146 -268q-143 -101 -391 -101zM858 1182h-221l264 288h336z" />
    <glyph glyph-name="Scircumflex" unicode="&#x15c;" horiz-adv-x="1572" 
d="M895 -23q-297 0 -539 109q-238 110 -321 274l198 166q79 -149 260 -234t416 -85q198 0 311 59.5t113 163.5q0 64 -48.5 104t-160.5 66q-43 8 -290 49q-161 27 -242 45q-87 23 -139 47q-113 47 -167.5 119t-54.5 174q0 206 187 332q189 127 495 127q265 0 469 -92
q204 -88 289 -242l-198 -151q-69 123 -220.5 190.5t-355.5 67.5q-190 0 -300 -54t-110 -147q0 -60 40.5 -93.5t140.5 -56.5q9 -2 84 -16q52 -9 172 -27q189 -28 266 -47q88 -18 153 -45q250 -97 250 -315q0 -224 -190 -356q-191 -132 -508 -132zM895 1858h287l258 -302h-205
l-207 146l-248 -146h-225z" />
    <glyph glyph-name="scircumflex" unicode="&#x15d;" horiz-adv-x="1175" 
d="M653 -23q-209 0 -376.5 72t-247.5 195l182 145q144 -209 461 -209q130 0 202 35t72 98q0 75 -151 101q-41 9 -117 18q-21 2 -42 5t-29.5 4t-10.5 1q-243 37 -336 107q-92 71 -92 194q0 161 141 257t381 96q181 0 334 -66q155 -66 219 -166l-172 -145q-57 82 -166 128
t-246 46q-121 0 -186 -32t-65 -89q0 -42 51 -65q62 -28 252 -54q278 -40 379 -110q100 -69 100 -197q0 -165 -146 -268q-143 -101 -391 -101zM653 1470h258l224 -288h-189l-176 123l-213 -123h-209z" />
    <glyph glyph-name="Scedilla" unicode="&#x15e;" horiz-adv-x="1572" 
d="M35 360l198 166q79 -149 260 -234t416 -85q198 0 311 59.5t113 163.5q0 64 -48.5 104t-160.5 66q-43 8 -290 49q-161 27 -242 45q-87 23 -139 47q-113 47 -167.5 119t-54.5 174q0 206 187 332q189 127 495 127q265 0 469 -92q204 -88 289 -242l-198 -151
q-69 123 -220.5 190.5t-355.5 67.5q-190 0 -300 -54t-110 -147q0 -60 40.5 -93.5t140.5 -56.5q9 -2 84 -16q52 -9 172 -27q189 -28 266 -47q88 -18 153 -45q250 -97 250 -315q0 -224 -190 -356q-191 -132 -508 -132q-48 0 -72 3l-10 -27q87 -7 139 -51.5t52 -110.5
q0 -82 -79 -131t-210 -49q-86 0 -160 21.5t-119 58.5l94 121q63 -60 193 -60q113 0 113 53q0 62 -189 62l55 123q-233 29 -417 133q-183 103 -250 237z" />
    <glyph glyph-name="scedilla" unicode="&#x15f;" horiz-adv-x="1175" 
d="M29 244l182 145q144 -209 461 -209q130 0 202 35t72 98q0 75 -151 101q-41 9 -117 18q-21 2 -42 5t-29.5 4t-10.5 1q-243 37 -336 107q-92 71 -92 194q0 161 141 257t381 96q181 0 334 -66q155 -66 219 -166l-172 -145q-57 82 -166 128t-246 46q-121 0 -186 -32t-65 -89
q0 -42 51 -65q62 -28 252 -54q278 -40 379 -110q100 -69 100 -197q0 -165 -146 -268q-143 -101 -391 -101q-40 0 -61 3l-12 -27q87 -7 138.5 -51.5t51.5 -110.5q0 -82 -79 -131t-210 -49q-86 0 -159.5 21.5t-118.5 58.5l94 121q63 -60 192 -60q113 0 113 53q0 62 -188 62
l55 127q-148 26 -262.5 91t-177.5 159z" />
    <glyph glyph-name="Scaron" unicode="&#x160;" horiz-adv-x="1572" 
d="M895 -23q-297 0 -539 109q-238 110 -321 274l198 166q79 -149 260 -234t416 -85q198 0 311 59.5t113 163.5q0 64 -48.5 104t-160.5 66q-43 8 -290 49q-161 27 -242 45q-87 23 -139 47q-113 47 -167.5 119t-54.5 174q0 206 187 332q189 127 495 127q265 0 469 -92
q204 -88 289 -242l-198 -151q-69 123 -220.5 190.5t-355.5 67.5q-190 0 -300 -54t-110 -147q0 -60 40.5 -93.5t140.5 -56.5q9 -2 84 -16q52 -9 172 -27q189 -28 266 -47q88 -18 153 -45q250 -97 250 -315q0 -224 -190 -356q-191 -132 -508 -132zM1481 1858l-340 -302h-287
l-258 302h205l207 -146l247 146h226z" />
    <glyph glyph-name="scaron" unicode="&#x161;" horiz-adv-x="1175" 
d="M653 -23q-209 0 -376.5 72t-247.5 195l182 145q144 -209 461 -209q130 0 202 35t72 98q0 75 -151 101q-41 9 -117 18q-21 2 -42 5t-29.5 4t-10.5 1q-243 37 -336 107q-92 71 -92 194q0 161 141 257t381 96q181 0 334 -66q155 -66 219 -166l-172 -145q-57 82 -166 128
t-246 46q-121 0 -186 -32t-65 -89q0 -42 51 -65q62 -28 252 -54q278 -40 379 -110q100 -69 100 -197q0 -165 -146 -268q-143 -101 -391 -101zM1185 1470l-305 -288h-258l-223 288h188l177 -122l213 122h208z" />
    <glyph glyph-name="Tcommaaccent" unicode="&#x162;" horiz-adv-x="1662" 
d="M1059 -209q0 -82 -79 -131t-210 -49q-86 0 -159.5 21.5t-118.5 58.5l94 121q63 -60 192 -60q113 0 113 53q0 62 -189 62l60 133h-62l174 1241h-663l33 229h1589l-33 -229h-663l-174 -1241h-74l-21 -47q87 -7 139 -51.5t52 -110.5z" />
    <glyph glyph-name="tcommaaccent" unicode="&#x163;" horiz-adv-x="1060" 
d="M319 369l70 497h-270l31 209h270l43 316h242l-43 -316h473l-31 -209h-473l-66 -475q-12 -93 36 -137.5t163 -44.5q116 0 250 49l16 -213q-152 -57 -297 -57q-9 0 -90 6l-16 -41q87 -7 138.5 -51.5t51.5 -110.5q0 -82 -79 -131t-210 -49q-86 0 -159.5 21.5t-118.5 58.5
l94 121q63 -60 193 -60q112 0 112 53q0 62 -188 62l67 153q-117 41 -172.5 133t-36.5 216z" />
    <glyph glyph-name="Tcaron" unicode="&#x164;" horiz-adv-x="1662" 
d="M1833 1470l-33 -229h-663l-174 -1241h-263l174 1241h-663l33 229h1589zM1534 1858l-340 -302h-287l-258 302h205l207 -146l248 146h225z" />
    <glyph glyph-name="tcaron" unicode="&#x165;" horiz-adv-x="1060" 
d="M733 -12q-211 0 -325 104t-89 277l70 497h-270l31 209h270l43 316h242l-43 -316h473l-31 -209h-473l-66 -475q-12 -93 36 -137.5t163 -44.5q116 0 250 49l16 -213q-152 -57 -297 -57zM940 1178h-168l102 333h279z" />
    <glyph glyph-name="Tbar" unicode="&#x166;" horiz-adv-x="1662" 
d="M1413 870l-33 -229h-327l-90 -641h-263l91 641h-328l33 229h327l51 371h-663l33 229h1589l-33 -229h-663l-52 -371h328z" />
    <glyph glyph-name="tbar" unicode="&#x167;" horiz-adv-x="1060" 
d="M733 -12q-211 0 -325 104t-89 277l17 120h-264l28 209h267l22 168h-270l31 209h270l43 316h242l-43 -316h473l-31 -209h-473l-23 -168h473l-28 -209h-473l-15 -98q-12 -93 36 -137.5t163 -44.5q116 0 250 49l16 -213q-152 -57 -297 -57z" />
    <glyph glyph-name="Utilde" unicode="&#x168;" horiz-adv-x="1679" 
d="M891 -20q-374 0 -559 194q-184 196 -137 537l106 759h262l-106 -751q-37 -250 75.5 -379t366.5 -129q235 0 361 121.5t163 386.5l107 751h262l-106 -759q-54 -376 -247 -553.5t-548 -177.5zM887 1876q55 0 106.5 -14.5t134.5 -55.5q87 -47 138 -47q41 0 69 28.5t47 88.5
h166q-26 -148 -99 -232.5t-175 -84.5q-56 0 -108.5 14.5t-131.5 54.5q-87 47 -137 47q-84 0 -117 -116h-166q25 148 97.5 232.5t175.5 84.5z" />
    <glyph glyph-name="utilde" unicode="&#x169;" horiz-adv-x="1329" 
d="M1116 1075h246l-152 -1075h-245l20 137q-148 -160 -375 -160q-224 0 -344 144q-122 146 -88 368l82 586h246l-78 -553q-23 -150 47.5 -237.5t216.5 -87.5q140 0 232.5 91t115.5 247zM704 1485q40 0 77 -13.5t95 -50.5q71 -49 117 -49q66 0 101 113h155
q-26 -146 -93 -224.5t-165 -78.5q-40 0 -78 13t-96 50q-71 47 -115 47q-66 0 -100 -110h-156q26 146 93 224.5t165 78.5z" />
    <glyph glyph-name="Umacron" unicode="&#x16a;" horiz-adv-x="1679" 
d="M891 -20q-374 0 -559 194q-184 196 -137 537l106 759h262l-106 -751q-37 -250 75.5 -379t366.5 -129q235 0 361 121.5t163 386.5l107 751h262l-106 -759q-54 -376 -247 -553.5t-548 -177.5zM1483 1780l-29 -203h-786l28 203h787z" />
    <glyph glyph-name="umacron" unicode="&#x16b;" horiz-adv-x="1329" 
d="M1116 1075h246l-152 -1075h-245l20 137q-148 -160 -375 -160q-224 0 -344 144q-122 146 -88 368l82 586h246l-78 -553q-23 -150 47.5 -237.5t216.5 -87.5q140 0 232.5 91t115.5 247zM1229 1415l-27 -194h-741l26 194h742z" />
    <glyph glyph-name="Ubreve" unicode="&#x16c;" horiz-adv-x="1679" 
d="M891 -20q-374 0 -559 194q-184 196 -137 537l106 759h262l-106 -751q-37 -250 75.5 -379t366.5 -129q235 0 361 121.5t163 386.5l107 751h262l-106 -759q-54 -376 -247 -553.5t-548 -177.5zM1092 1720q92 0 153.5 38t69.5 100h184q-17 -147 -126 -227.5t-292 -80.5
q-184 0 -288.5 85.5t-92.5 222.5h185q-7 -60 51.5 -99t155.5 -39z" />
    <glyph glyph-name="ubreve" unicode="&#x16d;" horiz-adv-x="1329" 
d="M1116 1075h246l-152 -1075h-245l20 137q-148 -160 -375 -160q-224 0 -344 144q-122 146 -88 368l82 586h246l-78 -553q-23 -150 47.5 -237.5t216.5 -87.5q140 0 232.5 91t115.5 247zM856 1346q179 0 213 124h168q-20 -141 -122 -218.5t-269 -77.5q-179 0 -274 80t-76 216
h167q-1 -60 49 -92t144 -32z" />
    <glyph glyph-name="Uring" unicode="&#x16e;" horiz-adv-x="1679" 
d="M891 -20q-374 0 -559 194q-184 196 -137 537l106 759h262l-106 -751q-37 -250 75.5 -379t366.5 -129q235 0 361 121.5t163 386.5l107 751h262l-106 -759q-54 -376 -247 -553.5t-548 -177.5zM1077 1495q-109 0 -179.5 67.5t-70.5 170.5q0 113 80 190q80 80 201 80
q109 0 179.5 -67.5t70.5 -170.5q0 -112 -80 -192q-81 -78 -201 -78zM1102 1860q-50 0 -84.5 -34t-34.5 -85q0 -45 28 -74t72 -29q50 0 84.5 34t34.5 85q0 45 -28 74t-72 29z" />
    <glyph glyph-name="uring" unicode="&#x16f;" horiz-adv-x="1329" 
d="M1116 1075h246l-152 -1075h-245l20 137q-148 -160 -375 -160q-224 0 -344 144q-122 146 -88 368l82 586h246l-78 -553q-23 -150 47.5 -237.5t216.5 -87.5q140 0 232.5 91t115.5 247zM840 1151q-93 0 -155 58t-62 145q0 93 69 159q70 70 172 70q93 0 155 -58t62 -145
q0 -90 -71 -161q-71 -68 -170 -68zM858 1464q-43 0 -72.5 -30.5t-29.5 -73.5q0 -38 26 -64t64 -26q43 0 72.5 30.5t29.5 73.5q0 38 -26 64t-64 26z" />
    <glyph glyph-name="Uhungarumlaut" unicode="&#x170;" horiz-adv-x="1679" 
d="M891 -20q-374 0 -559 194q-184 196 -137 537l106 759h262l-106 -751q-37 -250 75.5 -379t366.5 -129q235 0 361 121.5t163 386.5l107 751h262l-106 -759q-54 -376 -247 -553.5t-548 -177.5zM1368 1556h-203l238 302h317zM901 1556h-203l220 302h335z" />
    <glyph glyph-name="uhungarumlaut" unicode="&#x171;" horiz-adv-x="1329" 
d="M1116 1075h246l-152 -1075h-245l20 137q-148 -160 -375 -160q-224 0 -344 144q-122 146 -88 368l82 586h246l-78 -553q-23 -150 47.5 -237.5t216.5 -87.5q140 0 232.5 91t115.5 247zM1081 1182h-196l233 288h291zM662 1182h-197l233 288h291z" />
    <glyph glyph-name="Uogonek" unicode="&#x172;" horiz-adv-x="1679" 
d="M1143 8q-168 -37 -235.5 -74t-67.5 -92q0 -31 30.5 -48t87.5 -17q49 0 105 16l-23 -158q-69 -16 -127 -16q-112 0 -180.5 50t-68.5 132q0 101 110 185q-320 30 -473 221q-152 196 -106 504l106 759h262l-106 -751q-37 -250 75.5 -379t366.5 -129q235 0 361 121.5
t163 386.5l107 751h262l-106 -759q-43 -307 -176 -479.5t-367 -223.5z" />
    <glyph glyph-name="uogonek" unicode="&#x173;" horiz-adv-x="1329" 
d="M1032 -381q-112 0 -181 50t-69 132q0 68 49.5 131t139.5 107l14 98q-148 -160 -375 -160q-224 0 -344 144q-122 146 -88 368l82 586h246l-78 -553q-23 -150 47.5 -237.5t216.5 -87.5q140 0 232.5 91t115.5 247l76 540h246l-152 -1075q-130 -37 -191 -74t-61 -80
q0 -32 31.5 -50.5t87.5 -18.5q49 0 105 16l-23 -158q-69 -16 -127 -16z" />
    <glyph glyph-name="Wcircumflex" unicode="&#x174;" horiz-adv-x="2422" 
d="M682 264l588 1206h291l192 -1206l614 1206h275l-762 -1470h-317l-187 1188l-583 -1188h-314l-264 1470h266zM1329 1858h287l258 -302h-205l-207 146l-248 -146h-225z" />
    <glyph glyph-name="wcircumflex" unicode="&#x175;" horiz-adv-x="1814" 
d="M547 305l401 770h207l152 -770l401 770h258l-590 -1075h-207l-161 752l-404 -752h-221l-231 1075h254zM995 1470h258l224 -288h-189l-176 123l-213 -123h-209z" />
    <glyph glyph-name="Ycircumflex" unicode="&#x176;" horiz-adv-x="1726" 
d="M504 1470l469 -634l647 634h326l-861 -831l-90 -639h-262l90 639l-628 831h309zM979 1858h287l258 -302h-205l-207 146l-248 -146h-225z" />
    <glyph glyph-name="ycircumflex" unicode="&#x177;" horiz-adv-x="1314" 
d="M1466 1075l-747 -1175q-106 -168 -197 -226q-89 -59 -235 -59q-134 0 -254 45l71 205q92 -39 179 -39q66 0 110.5 29.5t93.5 107.5l41 66l-376 1046h262l270 -805l506 805h276zM735 1470h258l224 -288h-189l-176 123l-213 -123h-209z" />
    <glyph glyph-name="Ydieresis" unicode="&#x178;" horiz-adv-x="1726" 
d="M504 1470l469 -634l647 634h326l-861 -831l-90 -639h-262l90 639l-628 831h309zM952 1556h-262l35 252h262zM1473 1556h-263l35 252h262z" />
    <glyph glyph-name="Zacute" unicode="&#x179;" horiz-adv-x="1611" 
d="M487 229h1078l-33 -229h-1456l28 203l1209 1038h-1055l29 229h1439l-28 -202zM1104 1556h-242l293 302h379z" />
    <glyph glyph-name="zacute" unicode="&#x17a;" horiz-adv-x="1261" 
d="M449 209h772l-29 -209h-1120l26 184l856 682h-753l30 209h1106l-26 -186zM879 1182h-221l264 288h336z" />
    <glyph glyph-name="Zdotaccent" unicode="&#x17b;" horiz-adv-x="1611" 
d="M487 229h1078l-33 -229h-1456l28 203l1209 1038h-1055l29 229h1439l-28 -202zM1153 1556h-262l35 252h262z" />
    <glyph glyph-name="zdotaccent" unicode="&#x17c;" horiz-adv-x="1261" 
d="M449 209h772l-29 -209h-1120l26 184l856 682h-753l30 209h1106l-26 -186zM930 1219h-254l35 251h254z" />
    <glyph glyph-name="Zcaron" unicode="&#x17d;" horiz-adv-x="1611" 
d="M487 229h1078l-33 -229h-1456l28 203l1209 1038h-1055l29 229h1439l-28 -202zM1505 1858l-340 -302h-286l-258 302h204l207 -146l248 146h225z" />
    <glyph glyph-name="zcaron" unicode="&#x17e;" horiz-adv-x="1261" 
d="M449 209h772l-29 -209h-1120l26 184l856 682h-753l30 209h1106l-26 -186zM1230 1470l-305 -288h-258l-223 288h188l177 -122l213 122h208z" />
    <glyph glyph-name="florin" unicode="&#x192;" horiz-adv-x="1675" 
d="M1061 700l-96 -297q-72 -220 -207 -323t-350 -103q-120 0 -226 33.5t-168 89.5l127 179q50 -43 118.5 -68t141.5 -25q232 0 314 252l84 262h-301l24 177h334l62 190q72 220 207 323t350 103q120 0 225.5 -33.5t167.5 -89.5l-127 -178q-107 92 -260 92q-232 0 -314 -252
l-51 -155h322l-25 -177h-352z" />
    <glyph glyph-name="AEacute" unicode="&#x1fc;" horiz-adv-x="2883" 
d="M-25 0l1502 1470h1544l-33 -229h-1163l-51 -369h1046l-33 -229h-1046l-58 -414h1164l-33 -229h-1421l51 360h-764l-365 -360h-340zM1567 1237l-656 -647h566zM2292 1556h-242l293 302h379z" />
    <glyph glyph-name="aeacute" unicode="&#x1fd;" horiz-adv-x="2181" 
d="M1589 -23q-159 0 -290 63.5t-209 176.5q-85 -115 -226.5 -177.5t-318.5 -62.5q-205 0 -328 87t-123 233q0 159 129 254q131 98 348 98h451l10 72q11 75 -63 120.5t-209 45.5q-131 0 -227.5 -47t-143.5 -133l-190 90q68 141 218 220t353 79q312 0 438 -160
q186 160 443 160q247 0 403 -138t156 -354q0 -54 -15 -139h-958q19 -127 119.5 -204t247.5 -77q125 0 222 56.5t148 158.5l187 -116q-78 -146 -227.5 -226t-344.5 -80zM1634 891q-129 0 -230 -66t-142 -176h716q-8 107 -102.5 174.5t-241.5 67.5zM336 313q0 -66 62 -101.5
t175 -35.5q160 0 283 72q120 70 135 174l6 43h-422q-115 0 -177 -40t-62 -112zM1383 1182h-221l264 288h336z" />
    <glyph glyph-name="Oslashacute" unicode="&#x1fe;" horiz-adv-x="1826" 
d="M229 -57l-139 161l201 172q-137 175 -137 406q0 171 71.5 325.5t204.5 266.5q123 106 283.5 162.5t339.5 56.5q327 0 549 -162l198 168l139 -164l-184 -157q123 -169 123 -390q0 -170 -71.5 -324t-202.5 -267q-124 -106 -284 -163t-339 -57q-313 0 -532 152zM1044 1262
q-272 0 -446 -162q-174 -158 -174 -404q0 -153 78 -266l895 741q-151 91 -353 91zM989 209q271 0 445 160q174 158 174 405q0 136 -66 250l-887 -735q144 -80 334 -80zM1227 1556h-242l293 302h379z" />
    <glyph glyph-name="oslashacute" unicode="&#x1ff;" horiz-adv-x="1333" 
d="M129 498q0 253 182 426q184 172 461 172q211 0 367 -103l149 135l125 -133l-143 -131q84 -128 84 -289q0 -249 -185 -425q-182 -173 -458 -173q-217 0 -367 101l-147 -133l-123 133l141 129q-86 124 -86 291zM762 885q-174 0 -289 -109q-111 -108 -111 -268
q0 -88 37 -152l555 486q-88 43 -192 43zM721 188q175 0 287 109q112 106 112 268q0 90 -35 150l-555 -484q88 -43 191 -43zM924 1182h-221l264 288h336z" />
    <glyph glyph-name="Scommaaccent" unicode="&#x218;" horiz-adv-x="1572" 
d="M895 -23q-297 0 -539 109q-238 110 -321 274l198 166q79 -149 260 -234t416 -85q198 0 311 59.5t113 163.5q0 64 -48.5 104t-160.5 66q-43 8 -290 49q-161 27 -242 45q-87 23 -139 47q-113 47 -167.5 119t-54.5 174q0 206 187 332q189 127 495 127q265 0 469 -92
q204 -88 289 -242l-198 -151q-69 123 -220.5 190.5t-355.5 67.5q-190 0 -300 -54t-110 -147q0 -60 40.5 -93.5t140.5 -56.5q9 -2 84 -16q52 -9 172 -27q189 -28 266 -47q88 -18 153 -45q250 -97 250 -315q0 -224 -190 -356q-191 -132 -508 -132zM721 -240h-98l22 164h246
l-19 -129q-14 -98 -85.5 -152.5t-188.5 -54.5l14 107q45 0 74 17t35 48z" />
    <glyph glyph-name="scommaaccent" unicode="&#x219;" horiz-adv-x="1175" 
d="M653 -23q-209 0 -376.5 72t-247.5 195l182 145q144 -209 461 -209q130 0 202 35t72 98q0 75 -151 101q-41 9 -117 18q-21 2 -42 5t-29.5 4t-10.5 1q-243 37 -336 107q-92 71 -92 194q0 161 141 257t381 96q181 0 334 -66q155 -66 219 -166l-172 -145q-57 82 -166 128
t-246 46q-121 0 -186 -32t-65 -89q0 -42 51 -65q62 -28 252 -54q278 -40 379 -110q100 -69 100 -197q0 -165 -146 -268q-143 -101 -391 -101zM535 -240h-99l23 164h246l-19 -129q-14 -98 -85.5 -152.5t-188.5 -54.5l14 107q45 0 74 17t35 48z" />
    <glyph glyph-name="uni021A" unicode="&#x21a;" horiz-adv-x="1662" 
d="M1833 1470l-33 -229h-663l-174 -1241h-263l174 1241h-663l33 229h1589zM774 -240h-98l22 164h246l-18 -129q-13 -98 -85.5 -152.5t-189.5 -54.5l15 107q44 0 73 17t35 48z" />
    <glyph glyph-name="uni021B" unicode="&#x21b;" horiz-adv-x="1060" 
d="M733 -12q-211 0 -325 104t-89 277l70 497h-270l31 209h270l43 316h242l-43 -316h473l-31 -209h-473l-66 -475q-12 -93 36 -137.5t163 -44.5q116 0 250 49l16 -213q-152 -57 -297 -57zM547 -240h-98l22 164h246l-19 -129q-14 -98 -85.5 -152.5t-188.5 -54.5l14 107
q45 0 74 17t35 48z" />
    <glyph glyph-name="uni0237" unicode="&#x237;" horiz-adv-x="483" 
d="M-94 -174q99 0 150.5 46t64.5 148l149 1055h246l-149 -1057q-29 -204 -139 -303.5t-306 -99.5q-139 0 -260 41l64 201q109 -31 180 -31z" />
    <glyph glyph-name="circumflex" unicode="&#x2c6;" horiz-adv-x="1228" 
d="M692 1470h258l224 -288h-189l-176 123l-213 -123h-209z" />
    <glyph glyph-name="caron" unicode="&#x2c7;" horiz-adv-x="1228" 
d="M1214 1470l-305 -288h-258l-223 288h188l177 -122l213 122h208z" />
    <glyph glyph-name="breve" unicode="&#x2d8;" horiz-adv-x="1228" 
d="M811 1346q179 0 213 124h168q-20 -141 -122 -218.5t-269 -77.5q-179 0 -274 80t-76 216h167q-1 -60 49 -92t144 -32z" />
    <glyph glyph-name="dotaccent" unicode="&#x2d9;" horiz-adv-x="1228" 
d="M913 1219h-254l35 251h254z" />
    <glyph glyph-name="ring" unicode="&#x2da;" horiz-adv-x="1228" 
d="M795 1151q-93 0 -155 58t-62 145q0 93 69 159q70 70 172 70q93 0 155 -58t62 -145q0 -90 -71 -161q-71 -68 -170 -68zM813 1464q-43 0 -72.5 -30.5t-29.5 -73.5q0 -38 26 -64t64 -26q43 0 72.5 30.5t29.5 73.5q0 38 -26 64t-64 26z" />
    <glyph glyph-name="ogonek" unicode="&#x2db;" horiz-adv-x="1228" 
d="M600 -381q-112 0 -181 50t-69 132q0 98 92.5 176.5t255.5 116.5l80 -94q-130 -37 -191 -74t-61 -80q0 -32 31.5 -50.5t87.5 -18.5q49 0 105 16l-23 -158q-69 -16 -127 -16z" />
    <glyph glyph-name="tilde" unicode="&#x2dc;" horiz-adv-x="1228" 
d="M657 1485q40 0 77 -13.5t95 -50.5q71 -49 117 -49q66 0 101 113h155q-26 -146 -93 -224.5t-165 -78.5q-40 0 -78 13t-96 50q-71 47 -115 47q-66 0 -100 -110h-156q26 146 93 224.5t165 78.5z" />
    <glyph glyph-name="hungarumlaut" unicode="&#x2dd;" horiz-adv-x="1228" 
d="M942 1182h-197l234 288h291zM522 1182h-196l233 288h291z" />
    <glyph glyph-name="gravecmb" unicode="&#x300;" horiz-adv-x="0" 
d="M66 1470l182 -288h-197l-297 288h312z" />
    <glyph glyph-name="acutecmb" unicode="&#x301;" horiz-adv-x="0" 
d="M-78 1182h-221l264 288h336z" />
    <glyph glyph-name="circumflexcmb" unicode="&#x302;" horiz-adv-x="0" 
d="M-88 1470h258l223 -288h-188l-176 123l-213 -123h-209z" />
    <glyph glyph-name="tildecmb" unicode="&#x303;" horiz-adv-x="0" 
d="M-143 1485q40 0 77 -13.5t95 -50.5q71 -49 116 -49q66 0 101 113h155q-26 -146 -93 -224.5t-165 -78.5q-40 0 -78 13t-96 50q-71 47 -114 47q-67 0 -101 -110h-155q26 146 93 224.5t165 78.5z" />
    <glyph glyph-name="macroncmb" unicode="&#x304;" horiz-adv-x="0" 
d="M385 1415l-27 -194h-741l27 194h741z" />
    <glyph glyph-name="brevecmb" unicode="&#x306;" horiz-adv-x="0" 
d="M-8 1346q179 0 213 124h168q-20 -141 -122 -218.5t-269 -77.5q-179 0 -274.5 80t-76.5 216h168q-1 -60 49 -92t144 -32z" />
    <glyph glyph-name="dotaccentcmb" unicode="&#x307;" horiz-adv-x="0" 
d="M111 1219h-254l34 251h254z" />
    <glyph glyph-name="dieresiscmb" unicode="&#x308;" horiz-adv-x="0" 
d="M-137 1219h-262l34 251h263zM367 1219h-263l35 251h262z" />
    <glyph glyph-name="ringcmb" unicode="&#x30a;" horiz-adv-x="0" 
d="M-12 1151q-93 0 -155 58t-62 145q0 93 69 159q70 70 172 70q93 0 155 -58t62 -145q0 -90 -71 -161q-71 -68 -170 -68zM6 1464q-43 0 -72.5 -30.5t-29.5 -73.5q0 -38 26 -64t64 -26q43 0 72.5 30.5t29.5 73.5q0 38 -26 64t-64 26z" />
    <glyph glyph-name="hungarumlautcmb" unicode="&#x30b;" horiz-adv-x="0" 
d="M145 1182h-196l233 288h291zM-274 1182h-197l233 288h291z" />
    <glyph glyph-name="caroncmb" unicode="&#x30c;" horiz-adv-x="0" 
d="M393 1470l-305 -288h-258l-223 288h188l176 -122l213 122h209z" />
    <glyph glyph-name="commaaboverightcmb" unicode="&#x315;" horiz-adv-x="0" 
d="M-23 1137h-167l102 333h278z" />
    <glyph glyph-name="cedillacmb" unicode="&#x327;" horiz-adv-x="0" 
d="M285 -209q0 -82 -79 -131t-210 -49q-86 0 -160 21.5t-119 58.5l95 121q63 -60 192 -60q113 0 113 53q0 62 -189 62l70 158h127l-31 -72q87 -7 139 -51.5t52 -110.5z" />
    <glyph glyph-name="ogonekcmb" unicode="&#x328;" horiz-adv-x="0" 
d="M37 -381q-112 0 -181 50t-69 132q0 98 92.5 176.5t255.5 116.5l80 -94q-130 -37 -191 -74t-61 -80q0 -32 31.5 -50.5t87.5 -18.5q48 0 104 16l-22 -158q-69 -16 -127 -16z" />
    <glyph glyph-name="baht" unicode="&#xe3f;" horiz-adv-x="1665" 
d="M672 0h-609l207 1470h609l30 213h211l-30 -213h77q226 0 356 -96t130 -262q0 -128 -73 -225.5t-200 -138.5q105 -38 164.5 -122t59.5 -196q0 -185 -148 -309q-145 -121 -385 -121h-188l-31 -217h-211zM492 1249l-56 -387h357l55 387h-356zM1403 1071q0 82 -70.5 130
t-187.5 48h-86l-55 -387h122q122 0 199.5 59t77.5 150zM762 641h-356l-60 -420h356zM1358 446q0 88 -71.5 141.5t-192.5 53.5h-121l-60 -420h160q124 0 204.5 64t80.5 161z" />
    <glyph glyph-name="Wgrave" unicode="&#x1e80;" horiz-adv-x="2422" 
d="M682 264l588 1206h291l192 -1206l614 1206h275l-762 -1470h-317l-187 1188l-583 -1188h-314l-264 1470h266zM1346 1858l210 -302h-208l-349 302h347z" />
    <glyph glyph-name="wgrave" unicode="&#x1e81;" horiz-adv-x="1814" 
d="M547 305l401 770h207l152 -770l401 770h258l-590 -1075h-207l-161 752l-404 -752h-221l-231 1075h254zM1015 1470l183 -288h-197l-297 288h311z" />
    <glyph glyph-name="Wacute" unicode="&#x1e82;" horiz-adv-x="2422" 
d="M682 264l588 1206h291l192 -1206l614 1206h275l-762 -1470h-317l-187 1188l-583 -1188h-314l-264 1470h266zM1548 1556h-241l292 302h379z" />
    <glyph glyph-name="wacute" unicode="&#x1e83;" horiz-adv-x="1814" 
d="M547 305l401 770h207l152 -770l401 770h258l-590 -1075h-207l-161 752l-404 -752h-221l-231 1075h254zM1200 1182h-221l264 288h336z" />
    <glyph glyph-name="Wdieresis" unicode="&#x1e84;" horiz-adv-x="2422" 
d="M682 264l588 1206h291l192 -1206l614 1206h275l-762 -1470h-317l-187 1188l-583 -1188h-314l-264 1470h266zM1303 1556h-263l35 252h262zM1823 1556h-262l34 252h263z" />
    <glyph glyph-name="wdieresis" unicode="&#x1e85;" horiz-adv-x="1814" 
d="M547 305l401 770h207l152 -770l401 770h258l-590 -1075h-207l-161 752l-404 -752h-221l-231 1075h254zM969 1219h-262l34 251h263zM1473 1219h-263l35 251h262z" />
    <glyph glyph-name="Germandbls" unicode="&#x1e9e;" horiz-adv-x="1865" 
d="M1829 481q0 -219 -174 -362q-174 -142 -449 -142q-240 0 -415 101.5t-244 283.5l194 162q78 -161 199.5 -245t276.5 -84q159 0 260 79q102 82 102 205q0 113 -94 172.5t-273 59.5h-393l23 166l497 368h-839l-174 -1245h-263l207 1470h1475l-31 -210l-465 -345h8
q267 0 419.5 -117.5t152.5 -316.5z" />
    <glyph glyph-name="Ygrave" unicode="&#x1ef2;" horiz-adv-x="1726" 
d="M504 1470l469 -634l647 634h326l-861 -831l-90 -639h-262l90 639l-628 831h309zM1055 1858l211 -302h-209l-348 302h346z" />
    <glyph glyph-name="ygrave" unicode="&#x1ef3;" horiz-adv-x="1314" 
d="M1466 1075l-747 -1175q-106 -168 -197 -226q-89 -59 -235 -59q-134 0 -254 45l71 205q92 -39 179 -39q66 0 110.5 29.5t93.5 107.5l41 66l-376 1046h262l270 -805l506 805h276zM795 1470l182 -288h-197l-297 288h312z" />
    <glyph glyph-name="thinspace" unicode="&#x2009;" horiz-adv-x="204" 
 />
    <glyph glyph-name="endash" unicode="&#x2013;" horiz-adv-x="1110" 
d="M1098 498h-946l28 198h946z" />
    <glyph glyph-name="emdash" unicode="&#x2014;" horiz-adv-x="1998" 
d="M1987 498h-1835l28 198h1835z" />
    <glyph glyph-name="quoteleft" unicode="&#x2018;" horiz-adv-x="378" 
d="M369 1180h135l-41 -291h-297l43 307q17 123 109 197.5t227 76.5l-21 -137q-136 -12 -151 -129z" />
    <glyph glyph-name="quoteright" unicode="&#x2019;" horiz-adv-x="378" 
d="M342 1180h-135l41 290h297l-43 -307q-17 -123 -109 -197.5t-227 -76.5l20 137q137 12 152 129z" />
    <glyph glyph-name="quotesinglbase" unicode="&#x201a;" horiz-adv-x="378" 
d="M178 23h-135l41 290h297l-43 -307q-17 -123 -109 -197.5t-227 -76.5l21 137q136 12 151 129z" />
    <glyph glyph-name="quotedblleft" unicode="&#x201c;" horiz-adv-x="786" 
d="M369 1180h135l-41 -291h-297l43 307q17 123 109 197.5t227 76.5l-21 -137q-136 -12 -151 -129zM776 1180h135l-41 -291h-297l43 307q17 123 109 197.5t227 76.5l-20 -137q-137 -12 -152 -129z" />
    <glyph glyph-name="quotedblright" unicode="&#x201d;" horiz-adv-x="786" 
d="M750 1180h-136l41 290h297l-43 -307q-17 -123 -109 -197.5t-227 -76.5l21 137q136 12 151 129zM342 1180h-135l41 290h297l-43 -307q-17 -123 -109 -197.5t-227 -76.5l20 137q137 12 152 129z" />
    <glyph glyph-name="quotedblbase" unicode="&#x201e;" horiz-adv-x="786" 
d="M586 23h-135l41 290h296l-43 -307q-17 -123 -108.5 -198t-226.5 -76l20 137q137 12 152 129zM178 23h-135l41 290h297l-43 -307q-17 -123 -109 -197.5t-227 -76.5l21 137q136 12 151 129z" />
    <glyph glyph-name="dagger" unicode="&#x2020;" horiz-adv-x="813" 
d="M586 584h-195l68 477h-269l27 196h268l37 254h195l-37 -254h268l-26 -196h-269z" />
    <glyph glyph-name="daggerdbl" unicode="&#x2021;" horiz-adv-x="813" 
d="M586 584h-195l27 190h-268l26 184h268l25 181h-268l26 184h269l26 188h195l-27 -188h268l-26 -184h-268l-25 -181h268l-26 -184h-269z" />
    <glyph glyph-name="bullet" unicode="&#x2022;" horiz-adv-x="872" 
d="M166 594q0 152 102 254t254 102q148 0 250 -102t102 -254q0 -150 -102 -252q-100 -100 -250 -100q-154 0 -254 100q-102 102 -102 252z" />
    <glyph glyph-name="ellipsis" unicode="&#x2026;" horiz-adv-x="1320" 
d="M379 0h-297l41 297h297zM809 0h-297l41 297h297zM1239 0h-297l41 297h297z" />
    <glyph glyph-name="guilsinglleft" unicode="&#x2039;" horiz-adv-x="567" 
d="M506 141l-367 269l35 245l440 269l-34 -256l-226 -146l185 -145z" />
    <glyph glyph-name="guilsinglright" unicode="&#x203a;" horiz-adv-x="567" 
d="M213 924l367 -269l-35 -245l-441 -269l35 256l226 146l-185 145z" />
    <glyph glyph-name="fraction" unicode="&#x2044;" horiz-adv-x="294" 
d="M-553 0l1368 1470h240l-1368 -1470h-240z" />
    <glyph glyph-name="uni2070" unicode="&#x2070;" horiz-adv-x="1060" 
d="M657 645q-196 0 -323 109q-125 110 -125 280q0 188 139 318q140 131 354 131q196 0 322 -111q125 -107 125 -278q0 -188 -141 -320q-138 -129 -351 -129zM692 1309q-118 0 -196 -74.5t-78 -187.5q0 -102 68.5 -165t179.5 -63q118 0 196 74.5t78 187.5q0 102 -68.5 165
t-179.5 63z" />
    <glyph glyph-name="uni2074" unicode="&#x2074;" horiz-adv-x="976" 
d="M868 846l-26 -189h-193l27 189h-526l22 155l520 469h264l-65 -462h196l-22 -162h-197zM739 1300l-327 -292h286z" />
    <glyph glyph-name="uni2075" unicode="&#x2075;" horiz-adv-x="917" 
d="M600 1055q-122 0 -231 -62l-164 31l114 446h699l-25 -172h-540l-35 -135q98 49 227 49q164 0 261.5 -70.5t97.5 -189.5q0 -136 -119 -221q-118 -86 -310 -86q-163 0 -288 64q-128 65 -154 165l186 82q19 -62 95.5 -102.5t175.5 -40.5q94 0 152.5 34.5t58.5 90.5
q0 54 -54.5 85.5t-146.5 31.5z" />
    <glyph glyph-name="uni2076" unicode="&#x2076;" horiz-adv-x="1013" 
d="M733 1483q136 0 245 -44t159 -118l-140 -117q-35 54 -111 85.5t-167 31.5q-116 0 -200 -57t-107 -150q118 94 297 94q166 0 272 -75q106 -72 106 -187q0 -132 -122 -217q-125 -84 -324 -84q-209 0 -320.5 92.5t-113.5 266.5q3 207 147 342q143 137 379 137zM641 801
q109 0 177.5 37.5t68.5 95.5q0 54 -64 86.5t-168 32.5q-109 0 -177 -37t-68 -94q0 -55 63 -88t168 -33z" />
    <glyph glyph-name="uni2077" unicode="&#x2077;" horiz-adv-x="903" 
d="M825 1300h-438l-22 -153h-172l45 323h841l-24 -180q-180 -135 -278 -289t-124 -344h-204q58 390 376 643z" />
    <glyph glyph-name="uni2078" unicode="&#x2078;" horiz-adv-x="985" 
d="M276 1247q0 109 108 172.5t292 63.5q176 0 279.5 -62.5t103.5 -165.5q0 -122 -160 -182q80 -26 122 -73.5t42 -110.5q0 -111 -121.5 -177.5t-325.5 -66.5q-202 0 -324 65t-122 171q0 72 57.5 128.5t159.5 82.5q-111 52 -111 155zM471 1241q0 -41 50 -63.5t141 -22.5
q93 0 146.5 25.5t53.5 68.5q0 38 -51.5 61t-138.5 23q-92 0 -146.5 -25.5t-54.5 -66.5zM862 903q0 47 -62 72.5t-177 25.5q-116 0 -181 -27.5t-65 -76.5q0 -45 62.5 -70.5t174.5 -25.5q115 0 181.5 27.5t66.5 74.5z" />
    <glyph glyph-name="uni2079" unicode="&#x2079;" horiz-adv-x="1013" 
d="M582 645q-136 0 -246 44t-160 118l139 117q35 -54 109.5 -85.5t165.5 -31.5q117 0 202.5 57t108.5 150q-118 -94 -297 -94q-165 0 -272 73q-107 76 -107 189q0 132 123 215q124 86 324 86q210 0 321.5 -92t112.5 -269q-3 -206 -148 -342q-144 -135 -376 -135zM672 1327
q-109 0 -177.5 -37.5t-68.5 -95.5q0 -54 63.5 -86.5t167.5 -32.5q109 0 177.5 37t68.5 94q0 55 -63 88t-168 33z" />
    <glyph glyph-name="uni2080" unicode="&#x2080;" horiz-adv-x="1060" 
d="M530 -258q-197 0 -323 108q-125 110 -125 281q0 188 139 318q140 131 354 131q196 0 322 -111q125 -107 125 -279q0 -187 -141 -319q-138 -129 -351 -129zM565 406q-118 0 -196 -75t-78 -188q0 -102 68.5 -164.5t179.5 -62.5q118 0 196 74.5t78 187.5q0 102 -68.5 165
t-179.5 63z" />
    <glyph glyph-name="uni2081" unicode="&#x2081;" horiz-adv-x="755" 
d="M283 -70l49 344h-271l23 154l137 6q87 1 133.5 33t65.5 102h155l-90 -639h250l-24 -176h-725l24 176h273z" />
    <glyph glyph-name="uni2082" unicode="&#x2082;" horiz-adv-x="915" 
d="M29 -246l22 156l455 221q94 44 138 86t44 86q0 47 -45 76t-119 29q-97 0 -166.5 -49.5t-95.5 -135.5l-178 45q37 142 159.5 227t293.5 85q161 0 258.5 -70.5t97.5 -187.5q0 -90 -61 -161.5t-189 -131.5l-219 -103h436l-24 -172h-807z" />
    <glyph glyph-name="uni2083" unicode="&#x2083;" horiz-adv-x="948" 
d="M901 -4q0 -113 -116 -183.5t-310 -70.5q-178 0 -303 65.5t-156 174.5l183 79q20 -69 96 -110t184 -41q94 0 150.5 27.5t56.5 74.5q0 76 -174 76h-168l25 160h161q84 0 132.5 22.5t48.5 61.5q0 37 -45.5 57.5t-124.5 20.5q-98 0 -172 -32.5t-111 -92.5l-160 84
q55 102 172.5 156.5t282.5 54.5q171 0 274 -62t103 -162q0 -66 -46 -116.5t-126 -73.5q68 -20 105.5 -65t37.5 -105z" />
    <glyph glyph-name="uni2084" unicode="&#x2084;" horiz-adv-x="976" 
d="M741 -57l-26 -189h-193l27 189h-526l22 155l520 469h264l-65 -463h197l-23 -161h-197zM612 397l-327 -293h286z" />
    <glyph glyph-name="uni2085" unicode="&#x2085;" horiz-adv-x="917" 
d="M473 152q-122 0 -231 -62l-164 31l115 446h698l-25 -172h-540l-35 -135q98 49 227 49q164 0 261.5 -70.5t97.5 -189.5q0 -136 -119 -221q-118 -86 -309 -86q-166 0 -289 63q-127 65 -154 166l187 82q19 -62 95 -102.5t175 -40.5q94 0 152.5 34.5t58.5 90.5
q0 54 -54.5 85.5t-146.5 31.5z" />
    <glyph glyph-name="uni2086" unicode="&#x2086;" horiz-adv-x="1013" 
d="M606 580q136 0 245 -44t159 -118l-140 -117q-35 54 -111 85.5t-167 31.5q-116 0 -200 -57t-107 -150q118 94 297 94q165 0 272 -76q107 -73 107 -186q0 -131 -123 -217q-125 -84 -324 -84q-209 0 -320.5 92.5t-113.5 265.5q3 207 147 342q144 138 379 138zM514 -102
q109 0 177.5 37.5t68.5 95.5q0 54 -64 86.5t-168 32.5q-109 0 -177 -37t-68 -95q0 -55 63 -87.5t168 -32.5z" />
    <glyph glyph-name="uni2087" unicode="&#x2087;" horiz-adv-x="901" 
d="M698 397h-438l-22 -153h-172l45 323h841l-24 -180q-180 -135 -278 -289t-124 -344h-204q58 390 376 643z" />
    <glyph glyph-name="uni2088" unicode="&#x2088;" horiz-adv-x="985" 
d="M150 344q0 109 107.5 172.5t291.5 63.5q176 0 279.5 -62.5t103.5 -165.5q0 -122 -160 -182q80 -26 122 -73.5t42 -110.5q0 -111 -121.5 -177.5t-325.5 -66.5q-202 0 -324 64.5t-122 170.5q0 72 57.5 128.5t159.5 82.5q-110 52 -110 156zM344 338q0 -41 50 -63.5
t141 -22.5q93 0 146.5 25.5t53.5 68.5q0 38 -51.5 61t-138.5 23q-92 0 -146.5 -25.5t-54.5 -66.5zM735 0q0 47 -62 72.5t-177 25.5q-116 0 -181 -27.5t-65 -76.5q0 -45 62.5 -70.5t174.5 -25.5q115 0 181.5 27.5t66.5 74.5z" />
    <glyph glyph-name="uni2089" unicode="&#x2089;" horiz-adv-x="1013" 
d="M455 -258q-136 0 -246 44t-160 118l139 116q35 -54 109.5 -85t165.5 -31q117 0 202.5 57t108.5 150q-119 -95 -297 -95q-163 0 -272 74q-107 76 -107 189q0 133 123 215q124 86 324 86q210 0 321.5 -92t112.5 -269q-3 -206 -148 -342q-144 -135 -376 -135zM545 424
q-109 0 -177.5 -37.5t-68.5 -95.5q0 -54 63.5 -86.5t167.5 -32.5q109 0 177.5 37t68.5 94q0 55 -63 88t-168 33z" />
    <glyph glyph-name="franc" unicode="&#x20a3;" horiz-adv-x="1773" 
d="M297 324h-307l28 194h308l133 952h1394l-32 -229h-1137l-49 -358h1020l-33 -230h-1020l-18 -135h374l-28 -194h-375l-45 -324h-258z" />
    <glyph glyph-name="naira" unicode="&#x20a6;" horiz-adv-x="2181" 
d="M340 483h-307l26 185h308l18 135h-307l26 184h308l67 483h271l809 -1091l153 1091h252l-68 -483h308l-27 -184h-307l-19 -135h308l-27 -185h-307l-68 -483h-229l-844 1141l-160 -1141h-252z" />
    <glyph glyph-name="peseta" unicode="&#x20a7;" horiz-adv-x="2154" 
d="M1200 410h-608l-57 -410h-263l117 829h-307l33 222h305l59 419h815q234 0 387 -114q156 -114 177 -305h327l-33 -222h-311q-51 -197 -221 -308t-420 -111zM1274 1247h-563l-29 -196h917q-20 94 -105 145t-220 51zM651 829l-28 -196h585q129 0 224 51t139 145h-920z" />
    <glyph glyph-name="won" unicode="&#x20a9;" horiz-adv-x="2308" 
d="M371 483h-338l26 185h287l-18 135h-250l26 184h197l-65 483h253l140 -1187l520 1187h266l184 -1181l472 1181h264l-203 -483h199l-27 -184h-250l-55 -135h287l-27 -185h-338l-203 -483h-291l-174 1180l-508 -1180h-307z" />
    <glyph glyph-name="dong" unicode="&#x20ab;" horiz-adv-x="1486" 
d="M965 176l16 109q-55 -60 -153.5 -93.5t-217.5 -33.5q-221 0 -356 114q-135 117 -135 299q0 209 164 347q168 139 422 139q121 0 215.5 -36.5t148.5 -102.5l31 225h-346l28 194h346l19 133h225l-18 -133h225l-29 -194h-225l-135 -967h-225zM1036 625q0 109 -89.5 176
t-235.5 67q-159 0 -265 -80q-102 -80 -102 -200q0 -109 90 -176.5t236 -67.5q159 0 262 80q104 79 104 201zM1139 -195h-1121l27 195h1120z" />
    <glyph glyph-name="Euro" unicode="&#x20ac;" horiz-adv-x="1832" 
d="M365 487h-256l26 185h205v8q0 68 10 127h-196l26 184h226q103 234 321 367q225 135 506 135q277 0 475 -127t250 -338l-229 -108q-43 161 -180.5 251.5t-340.5 90.5q-176 0 -315 -71t-219 -200h696l-67 -184h-699q-10 -49 -10 -111v-24h659l-65 -185h-551
q62 -131 197 -204.5t317 -73.5q342 0 520 328l201 -127q-110 -209 -300.5 -321t-436.5 -112q-289 0 -498 138q-207 137 -272 372z" />
    <glyph glyph-name="peso" unicode="&#x20b1;" horiz-adv-x="2152" 
d="M369 688h-308l27 184h307l19 136h-308l27 184h307l39 278h815q184 0 323 -73.5t202 -204.5h385l-27 -184h-315v-17q0 -44 -11 -119h308l-27 -184h-350q-79 -133 -231.5 -205.5t-350.5 -72.5h-608l-57 -410h-263zM711 1247l-88 -614h585q183 0 290.5 97t107.5 261
q0 121 -88 188.5t-244 67.5h-563z" />
    <glyph glyph-name="uni20B9" unicode="&#x20b9;" horiz-adv-x="1687" 
d="M733 537h-692l31 221h745q98 0 177 36t122 99h-1026l31 221h1022q-26 66 -91 100.5t-159 34.5h-752l31 221h1606l-31 -221h-408q49 -74 62 -135h325l-30 -221h-310q-38 -119 -139 -207t-241 -125l294 -561h-290z" />
    <glyph glyph-name="uni20BA" unicode="&#x20ba;" horiz-adv-x="1552" 
d="M254 311l-289 -151l31 211l289 151l18 142l-280 -150l30 211l281 147l84 598h262l-64 -448l484 256l-31 -211l-481 -254l-21 -141l482 252l-31 -211l-479 -252l-33 -232h287q223 0 347 124t156 382h263q-53 -393 -238 -563q-184 -172 -547 -172h-563z" />
    <glyph glyph-name="uni20BD" unicode="&#x20bd;" horiz-adv-x="1849" 
d="M313 250h-313l33 225h313l19 135h-308l31 226h307l90 634h932q213 0 337 -109.5t124 -295.5q0 -204 -147 -330q-146 -125 -385 -125h-719l-21 -135h621l-33 -225h-619l-34 -250h-262zM1389 1245h-674l-58 -409h695q124 0 198 63t74 166q0 88 -60 134t-175 46z" />
    <glyph glyph-name="trademark" unicode="&#x2122;" horiz-adv-x="1835" 
d="M662 1294l-72 -506h-197l72 506h-262l24 176h719l-24 -176h-260zM1753 1237l-278 -449h-111l-150 449l-63 -449h-176l96 682h246l139 -399l250 399h258l-96 -682h-178z" />
    <glyph glyph-name="uni2153" unicode="&#x2153;" horiz-adv-x="2144" 
d="M410 834l49 344h-271l23 153l137 6q87 1 133.5 33.5t65.5 102.5h155l-90 -639h250l-24 -177h-725l24 177h273zM346 0l1368 1470h240l-1368 -1470h-240zM2132 242q0 -113 -116 -183.5t-310 -70.5q-178 0 -303 65t-156 174l183 80q20 -69 96 -110t184 -41q94 0 150.5 27.5
t56.5 74.5q0 76 -174 76h-168l24 160h162q84 0 132.5 22.5t48.5 61.5q0 36 -45.5 56.5t-124.5 20.5q-98 0 -172 -32.5t-111 -92.5l-160 84q55 102 172.5 156.5t282.5 54.5q171 0 274 -61.5t103 -161.5q0 -66 -46 -116.5t-126 -73.5q68 -20 105.5 -65t37.5 -105z" />
    <glyph glyph-name="uni2154" unicode="&#x2154;" horiz-adv-x="2263" 
d="M156 657l22 156l455 221q94 44 138 86t44 86q0 47 -45 76t-119 29q-97 0 -166.5 -49.5t-95.5 -135.5l-178 45q37 142 159.5 227t293.5 85q161 0 258.5 -70.5t97.5 -187.5q0 -90 -61 -161.5t-189 -131.5l-219 -103h436l-24 -172h-807zM465 0l1368 1470h240l-1368 -1470
h-240zM2251 242q0 -113 -116 -183.5t-310 -70.5q-178 0 -303 65t-156 174l182 80q20 -69 96 -110t185 -41q94 0 150.5 27.5t56.5 74.5q0 76 -174 76h-168l24 160h162q84 0 132 22.5t48 61.5q0 36 -45.5 56.5t-124.5 20.5q-98 0 -171.5 -32.5t-110.5 -92.5l-160 84
q55 102 172.5 156.5t282.5 54.5q171 0 273.5 -61.5t102.5 -161.5q0 -66 -46 -116.5t-126 -73.5q68 -20 106 -65t38 -105z" />
    <glyph glyph-name="uni215B" unicode="&#x215b;" horiz-adv-x="2179" 
d="M410 834l49 344h-271l23 153l137 6q87 1 133.5 33.5t65.5 102.5h155l-90 -639h250l-24 -177h-725l24 177h273zM346 0l1368 1470h240l-1368 -1470h-240zM1378 590q0 109 107.5 172t292.5 63q176 0 279.5 -62t103.5 -165q0 -122 -160 -182q79 -26 121.5 -74t42.5 -111
q0 -110 -121.5 -176.5t-325.5 -66.5q-202 0 -324 64.5t-122 170.5q0 72 57.5 128.5t159.5 82.5q-111 52 -111 156zM1573 584q0 -41 49.5 -63.5t140.5 -22.5q93 0 147 25.5t54 68.5q0 38 -51.5 61t-138.5 23q-92 0 -146.5 -25.5t-54.5 -66.5zM1964 246q0 47 -62 72.5
t-178 25.5t-180.5 -27.5t-64.5 -76.5q0 -45 63 -71t174 -26q115 0 181.5 28t66.5 75z" />
    <glyph glyph-name="uni215C" unicode="&#x215c;" horiz-adv-x="2256" 
d="M1030 899q0 -113 -116 -183.5t-310 -70.5q-178 0 -303 65.5t-156 174.5l183 80q20 -69 96 -110.5t184 -41.5q94 0 150.5 27.5t56.5 74.5q0 76 -174 76h-168l25 160h161q84 0 132.5 22.5t48.5 61.5q0 37 -45.5 57.5t-124.5 20.5q-98 0 -172 -32.5t-111 -92.5l-160 84
q55 102 172.5 156.5t282.5 54.5q171 0 274 -61.5t103 -161.5q0 -66 -46 -117t-126 -74q68 -20 105.5 -65t37.5 -105zM424 0l1368 1470h240l-1368 -1470h-240zM1456 590q0 109 107 172t292 63q176 0 279.5 -62t103.5 -165q0 -122 -159 -182q79 -26 121.5 -74t42.5 -111
q0 -110 -121.5 -176.5t-325.5 -66.5q-202 0 -324 64.5t-122 170.5q0 72 57.5 128.5t159.5 82.5q-111 52 -111 156zM1651 584q0 -41 49.5 -63.5t140.5 -22.5q93 0 147 25.5t54 68.5q0 38 -51.5 61t-139.5 23q-92 0 -146 -25t-54 -67zM2042 246q0 47 -62 72.5t-178 25.5
t-181 -27.5t-65 -76.5q0 -45 63 -71t175 -26q115 0 181.5 28t66.5 75z" />
    <glyph glyph-name="uni215D" unicode="&#x215d;" horiz-adv-x="2217" 
d="M600 1055q-122 0 -231 -62l-164 31l114 446h699l-25 -172h-540l-35 -135q98 49 227 49q164 0 261.5 -70.5t97.5 -189.5q0 -136 -119 -221q-118 -86 -310 -86q-163 0 -288 64q-128 65 -154 165l186 82q19 -62 95.5 -102.5t175.5 -40.5q94 0 152.5 34.5t58.5 90.5
q0 54 -54.5 85.5t-146.5 31.5zM385 0l1368 1470h240l-1368 -1470h-240zM1417 590q0 109 107.5 172t292.5 63q176 0 279.5 -62t103.5 -165q0 -122 -160 -182q79 -26 121.5 -74t42.5 -111q0 -110 -121.5 -176.5t-325.5 -66.5q-202 0 -324 64.5t-122 170.5q0 72 57.5 128.5
t159.5 82.5q-111 52 -111 156zM1612 584q0 -41 49.5 -63.5t140.5 -22.5q93 0 147 25.5t54 68.5q0 38 -51.5 61t-139.5 23q-92 0 -146 -25t-54 -67zM2003 246q0 47 -62 72.5t-178 25.5t-180.5 -27.5t-64.5 -76.5q0 -45 63 -71t174 -26q115 0 181.5 28t66.5 75z" />
    <glyph glyph-name="uni215E" unicode="&#x215e;" horiz-adv-x="2074" 
d="M825 1300h-438l-22 -153h-172l45 323h841l-24 -180q-180 -135 -278 -289t-124 -344h-204q58 390 376 643zM242 0l1368 1470h239l-1368 -1470h-239zM1274 590q0 109 107 172t292 63q176 0 279.5 -62t103.5 -165q0 -122 -160 -182q79 -26 121.5 -74t42.5 -111
q0 -110 -121 -176.5t-325 -66.5q-202 0 -324.5 64.5t-122.5 170.5q0 72 57.5 128.5t159.5 82.5q-110 52 -110 156zM1468 584q0 -41 50 -63.5t141 -22.5q93 0 147 25.5t54 68.5q0 38 -51.5 61t-139.5 23q-92 0 -146.5 -25.5t-54.5 -66.5zM1860 246q0 47 -62 72.5t-178 25.5
t-181 -27.5t-65 -76.5q0 -45 63 -71t175 -26q115 0 181.5 28t66.5 75z" />
    <glyph glyph-name="arrowleft" unicode="&#x2190;" horiz-adv-x="1654" 
d="M475 618l373 -417l-180 -170l-629 710l629 711l180 -170l-373 -418h1180v-246h-1180z" />
    <glyph glyph-name="arrowup" unicode="&#x2191;" horiz-adv-x="1523" 
d="M1401 813l-170 -174l-459 422v-1061h-246v1061l-458 -422l-170 174l751 680z" />
    <glyph glyph-name="arrowright" unicode="&#x2192;" horiz-adv-x="1652" 
d="M1042 1452l629 -711l-629 -710l-180 170l373 417h-1180v246h1180l-373 418z" />
    <glyph glyph-name="arrowdown" unicode="&#x2193;" horiz-adv-x="1523" 
d="M1360 831l170 -174l-752 -680l-751 680l170 174l458 -421v1060h246v-1060z" />
    <glyph glyph-name="minus" unicode="&#x2212;" 
d="M1597 614h-1384l31 215h1384z" />
    <glyph glyph-name="commaaccent" unicode="&#xf6c3;" horiz-adv-x="1228" 
d="M555 -240h-98l22 164h246l-18 -129q-13 -98 -85.5 -152.5t-189.5 -54.5l14 107q45 0 74 17t35 48z" />
    <glyph glyph-name="idotaccent" horiz-adv-x="483" 
d="M541 1219h-254l35 251h253zM270 1075h246l-151 -1075h-246z" />
    <glyph glyph-name="a.ord" horiz-adv-x="987" 
d="M813 797q-123 -111 -319 -111q-143 0 -228.5 61.5t-85.5 165.5q0 103 86 168t246 82l332 35l2 14q6 50 -42.5 78.5t-139.5 28.5q-176 0 -240 -115l-170 60q50 105 161.5 163t264.5 58q183 0 281 -77.5t79 -207.5l-43 -301q-3 -36 19 -45q12 -6 33 -6l49 8l-21 -154
q-52 -10 -84 -10q-51 0 -92 15q-70 27 -88 90zM528 842q113 0 196.5 44.5t90.5 110.5l8 56l-295 -33q-149 -21 -149 -94q0 -38 40 -61t109 -23z" />
    <glyph glyph-name="b.ord" horiz-adv-x="1083" 
d="M1182 1118q0 -180 -127 -307q-125 -125 -318 -125q-93 0 -171.5 32t-129.5 89l-14 -105h-205l148 1049h204l-51 -371q47 50 120 77.5t157 27.5q170 0 278 -105q109 -103 109 -262zM739 1319q-116 0 -196 -74q-78 -75 -78 -180q0 -94 68.5 -152.5t177.5 -58.5
q116 0 194 72q80 74 80 180q0 94 -68.5 153.5t-177.5 59.5z" />
    <glyph glyph-name="c.ord" horiz-adv-x="927" 
d="M666 1315q-115 0 -189 -71.5t-74 -178.5q0 -93 65.5 -151t170.5 -58q86 0 150.5 41t93.5 113l159 -86q-54 -116 -159.5 -177t-251.5 -61q-187 0 -307 102q-117 105 -117 271q0 182 133 303q132 123 338 123q151 0 260.5 -70.5t138.5 -183.5l-180 -78q-14 72 -77.5 117
t-153.5 45z" />
    <glyph glyph-name="d.ord" horiz-adv-x="1081" 
d="M594 688q-172 0 -281 103q-108 105 -108 264q0 180 127 307q125 125 319 125q92 0 170 -32t129 -89l56 385h202l-147 -1049h-203l12 91q-48 -50 -120 -77.5t-156 -27.5zM647 854q118 0 197.5 74t79.5 180q0 92 -69 151.5t-177 59.5q-118 0 -197.5 -73t-79.5 -179
q0 -94 68.5 -153.5t177.5 -59.5z" />
    <glyph glyph-name="e.ord" horiz-adv-x="980" 
d="M633 686q-185 0 -305 105q-121 109 -121 268q0 179 133 303q135 123 338 123q182 0 295 -101q114 -99 114 -254q0 -51 -10 -100h-674q14 -82 78.5 -130t161.5 -48q82 0 145.5 35.5t98.5 101.5l166 -82q-55 -104 -166 -162.5t-254 -58.5zM666 1323q-84 0 -150.5 -42
t-97.5 -114h473q-5 68 -67 112t-158 44z" />
    <glyph glyph-name="f.ord" horiz-adv-x="679" 
d="M750 1767q108 0 206 -28l-51 -166q-79 20 -151 20q-79 0 -119 -25.5t-47 -82.5l-2 -15h293l-25 -170h-293l-82 -598h-200l81 598h-182l25 170h182l2 15q40 282 363 282z" />
    <glyph glyph-name="g.ord" horiz-adv-x="1079" 
d="M1169 1470l-98 -682q-25 -168 -155 -265t-332 -97q-164 0 -281.5 56.5t-152.5 150.5l151 98q32 -68 108.5 -105.5t180.5 -37.5q241 0 276 200l4 31q-99 -104 -274 -104q-174 0 -281 98q-108 102 -108 258q0 176 125 295q127 121 317 121q93 0 171.5 -32t129.5 -89l15 104
h204zM649 877q118 0 193 69q78 72 78 172q0 91 -67.5 148t-176.5 57q-114 0 -195 -72q-78 -72 -78 -172q0 -90 68.5 -146t177.5 -56z" />
    <glyph glyph-name="h.ord" horiz-adv-x="1050" 
d="M422 702h-205l148 1049h204l-53 -375q103 109 270 109q161 0 246 -101q87 -101 66 -258l-60 -424h-204l53 379q14 103 -33.5 162.5t-144.5 59.5q-96 0 -158 -59.5t-76 -164.5z" />
    <glyph glyph-name="i.ord" horiz-adv-x="438" 
d="M543 1561h-209l26 190h209zM324 1470h204l-108 -768h-205z" />
    <glyph glyph-name="j.ord" horiz-adv-x="438" 
d="M543 1561h-209l26 190h209zM76 596q67 0 99.5 30.5t43.5 100.5l105 743h204l-106 -749q-20 -149 -101 -220t-229 -71q-94 0 -194 29l51 159q68 -22 127 -22z" />
    <glyph glyph-name="k.ord" horiz-adv-x="999" 
d="M365 1751h204l-88 -631l457 350h289l-439 -327l342 -441h-247l-254 322l-180 -135l-27 -187h-205z" />
    <glyph glyph-name="l.ord" horiz-adv-x="442" 
d="M365 1751h204l-147 -1049h-205z" />
    <glyph glyph-name="m.ord" horiz-adv-x="1626" 
d="M700 1303q-92 0 -151.5 -58.5t-73.5 -161.5l-53 -381h-205l109 768h204l-14 -94q95 109 260 109q88 0 158.5 -38t101.5 -104q130 142 322 142q164 0 251 -100t62 -261l-57 -422h-205l53 383q14 103 -30 160.5t-136 57.5t-151.5 -58.5t-73.5 -161.5l-53 -381h-205l53 383
q14 103 -30 160.5t-136 57.5z" />
    <glyph glyph-name="n.ord" horiz-adv-x="1050" 
d="M422 702h-205l109 768h204l-14 -94q100 109 270 109q161 0 246 -101q87 -101 66 -258l-60 -424h-204l53 379q14 103 -33.5 162.5t-144.5 59.5q-96 0 -158 -59.5t-76 -164.5z" />
    <glyph glyph-name="o.ord" horiz-adv-x="1003" 
d="M674 1485q189 0 307 -103q119 -101 119 -270q0 -179 -133 -303q-132 -123 -336 -123q-189 0 -309 102q-117 102 -117 271q0 182 133 303q132 123 336 123zM666 1315q-116 0 -190.5 -71.5t-74.5 -176.5q0 -93 66.5 -152t171.5 -59q115 0 189.5 71.5t74.5 178.5
q0 94 -65.5 151.5t-171.5 57.5z" />
    <glyph glyph-name="p.ord" horiz-adv-x="1083" 
d="M1182 1118q0 -180 -127 -307q-125 -125 -318 -125q-93 0 -171.5 32t-129.5 89l-51 -365h-203l144 1028h204l-12 -90q47 50 120 77.5t157 27.5q170 0 278 -105q109 -103 109 -262zM739 1319q-116 0 -196 -74q-78 -75 -78 -180q0 -94 68.5 -152.5t177.5 -58.5q116 0 194 72
q80 74 80 180q0 94 -68.5 153.5t-177.5 59.5z" />
    <glyph glyph-name="q.ord" horiz-adv-x="1083" 
d="M594 688q-172 0 -281 103q-108 105 -108 264q0 180 127 307q125 125 319 125q92 0 170 -32t129 -89l15 104h204l-143 -1028h-205l49 351q-48 -50 -120 -77.5t-156 -27.5zM647 854q118 0 197.5 74t79.5 180q0 92 -69 151.5t-177 59.5q-118 0 -197.5 -73t-79.5 -179
q0 -94 68.5 -153.5t177.5 -59.5z" />
    <glyph glyph-name="r.ord" horiz-adv-x="720" 
d="M819 1475q42 0 84 -11l-29 -200q-52 12 -90 12q-280 0 -315 -248l-47 -326h-205l109 768h204l-20 -135q113 140 309 140z" />
    <glyph glyph-name="s.ord" horiz-adv-x="864" 
d="M565 686q-145 0 -266 47t-184 127l129 127q110 -141 336 -141q86 0 133 21.5t47 60.5q0 25 -24 40t-81 25l-73 11q-57 7 -60 8q-171 24 -240 73.5t-69 141.5q0 118 104 188t283 70q127 0 237 -42.5t164 -111.5l-127 -121q-47 55 -126 86t-173 31q-161 0 -161 -76
q0 -27 32 -41q28 -12 172 -34q193 -26 270 -76.5t77 -143.5q0 -124 -108.5 -197t-291.5 -73z" />
    <glyph glyph-name="t.ord" horiz-adv-x="780" 
d="M618 692q-156 0 -238 73.5t-63 197.5l48 337h-185l25 170h184l31 220h201l-31 -220h328l-25 -170h-328l-43 -307q-7 -63 25.5 -93t107.5 -30q70 0 176 35l15 -170q-117 -43 -228 -43z" />
    <glyph glyph-name="u.ord" horiz-adv-x="1040" 
d="M926 1470h204l-108 -768h-205l14 95q-100 -109 -268 -109q-159 0 -244 98q-82 101 -61 261l59 423h203l-53 -380q-13 -103 33.5 -162.5t140.5 -59.5t156 60t75 164z" />
    <glyph glyph-name="v.ord" horiz-adv-x="966" 
d="M1174 1470l-496 -768h-209l-262 768h221l176 -546l344 546h226z" />
    <glyph glyph-name="w.ord" horiz-adv-x="1339" 
d="M514 950l270 520h177l98 -520l272 520h215l-426 -768h-178l-106 512l-273 -512h-190l-166 768h213z" />
    <glyph glyph-name="x.ord" horiz-adv-x="980" 
d="M1079 702h-248l-200 265l-275 -265h-258l416 392l-295 376h246l192 -251l263 251h256l-402 -378z" />
    <glyph glyph-name="y.ord" horiz-adv-x="966" 
d="M1174 1470l-523 -821q-82 -130 -149 -174q-65 -45 -178 -45q-112 0 -191 33l55 162q73 -27 125 -27q45 0 76 19.5t60 66.5l24 39l-266 747h223l178 -548l342 548h224z" />
    <glyph glyph-name="z.ord" horiz-adv-x="956" 
d="M487 872h521l-23 -170h-815l23 152l575 446h-510l25 170h807l-23 -153z" />
    <glyph glyph-name="caron.Slovak" horiz-adv-x="1228" 
d="M780 1137h-168l103 333h278z" />
    <glyph glyph-name="commaturn" horiz-adv-x="1228" 
d="M827 1346h99l-23 -164h-246l19 129q14 98 85.5 152.5t188.5 54.5l-14 -107q-45 0 -74 -17t-35 -48z" />
    <glyph glyph-name="grave.cap" horiz-adv-x="1228" 
d="M891 1858l211 -302h-209l-348 302h346z" />
    <glyph glyph-name="acute.cap" horiz-adv-x="1228" 
d="M760 1556h-242l293 302h379z" />
    <glyph glyph-name="circumflex.cap" horiz-adv-x="1228" 
d="M731 1858h287l258 -302h-205l-207 146l-248 -146h-225z" />
    <glyph glyph-name="caron.cap" horiz-adv-x="1228" 
d="M1317 1858l-340 -302h-287l-258 302h205l207 -146l248 146h225z" />
    <glyph glyph-name="tilde.cap" horiz-adv-x="1228" 
d="M662 1876q55 0 106.5 -14.5t134.5 -55.5q87 -47 137 -47q80 0 117 117h166q-26 -148 -99 -232.5t-175 -84.5q-56 0 -108.5 14.5t-131.5 54.5q-87 47 -137 47q-84 0 -117 -116h-166q25 148 97.5 232.5t175.5 84.5z" />
    <glyph glyph-name="macron.cap" horiz-adv-x="1228" 
d="M1257 1780l-28 -203h-787l29 203h786z" />
    <glyph glyph-name="breve.cap" horiz-adv-x="1228" 
d="M866 1720q92 0 154.5 38.5t69.5 99.5h184q-17 -147 -126 -227.5t-292 -80.5q-184 0 -288.5 85.5t-92.5 222.5h184q-7 -60 51.5 -99t155.5 -39z" />
    <glyph glyph-name="dotaccent.cap" horiz-adv-x="1228" 
d="M965 1556h-263l35 252h262z" />
    <glyph glyph-name="dieresis.cap" horiz-adv-x="1228" 
d="M705 1556h-263l35 252h262zM1225 1556h-262l34 252h263z" />
    <glyph glyph-name="ring.cap" horiz-adv-x="1228" 
d="M852 1556q-109 0 -179.5 67.5t-70.5 170.5q0 114 80 191q79 79 201 79q109 0 179.5 -67t70.5 -170q0 -113 -80 -193q-81 -78 -201 -78zM877 1921q-50 0 -84.5 -34t-34.5 -85q0 -44 28 -73t72 -29q50 0 84.5 34t34.5 85q0 44 -28 73t-72 29z" />
    <glyph glyph-name="hungarumlaut.cap" horiz-adv-x="1228" 
d="M1047 1556h-203l237 302h318zM580 1556h-203l219 302h336z" />
    <glyph glyph-name="guilsinglleft.cap" horiz-adv-x="567" 
d="M535 342l-367 268l35 246l440 268l-35 -256l-225 -145l184 -145z" />
    <glyph glyph-name="guilsinglright.cap" horiz-adv-x="567" 
d="M240 1124l366 -268l-35 -246l-440 -268l35 256l225 145l-184 146z" />
    <glyph glyph-name="guillemotleft.cap" horiz-adv-x="1017" 
d="M535 342l-367 268l35 246l440 268l-35 -256l-225 -145l184 -145zM985 342l-367 268l35 246l441 268l-35 -256l-225 -145l184 -145z" />
    <glyph glyph-name="guillemotright.cap" horiz-adv-x="1017" 
d="M690 1124l367 -268l-35 -246l-440 -268l34 256l226 145l-185 146zM240 1124l366 -268l-35 -246l-440 -268l35 256l225 145l-184 146z" />
    <glyph glyph-name="slash.cap" horiz-adv-x="1089" 
d="M268 -123h-266l1024 1712h266z" />
    <glyph glyph-name="backslash.cap" horiz-adv-x="1089" 
d="M489 1589l562 -1712h-246l-561 1712h245z" />
    <glyph glyph-name="bar.cap" horiz-adv-x="528" 
d="M367 -123h-242l242 1712h241z" />
    <glyph glyph-name="periodcentered.cap" horiz-adv-x="460" 
d="M461 584h-297l41 297h297z" />
    <glyph glyph-name="bullet.cap" horiz-adv-x="872" 
d="M186 733q0 151 103 254t254 103q147 0 250 -103q102 -102 102 -254q0 -150 -102 -252q-100 -100 -250 -100q-154 0 -254 100q-103 103 -103 252z" />
    <glyph glyph-name="hyphen.cap" horiz-adv-x="737" 
d="M743 627h-573l31 219h573z" />
    <glyph glyph-name="endash.cap" horiz-adv-x="1110" 
d="M1118 637h-946l29 199h946z" />
    <glyph glyph-name="emdash.cap" horiz-adv-x="1998" 
d="M2007 637h-1835l29 199h1835z" />
    <glyph glyph-name="parenleft.cap" horiz-adv-x="776" 
d="M705 1569h292q-284 -204 -433.5 -455t-149.5 -522q0 -423 342 -735h-267q-172 130 -263 319.5t-91 415.5q0 291 152 555q147 256 418 422z" />
    <glyph glyph-name="parenright.cap" horiz-adv-x="776" 
d="M272 -143h-292q284 204 433.5 455t149.5 522q0 423 -342 735h266q172 -131 263.5 -320t91.5 -415q0 -291 -152 -555q-147 -256 -418 -422z" />
    <glyph glyph-name="bracketleft.cap" horiz-adv-x="718" 
d="M891 1368h-369l-184 -1311h369l-29 -200h-617l242 1712h617z" />
    <glyph glyph-name="bracketright.cap" horiz-adv-x="718" 
d="M29 57h368l185 1311h-369l29 201h616l-242 -1712h-616z" />
    <glyph glyph-name="braceleft.cap" horiz-adv-x="841" 
d="M236 612h-109l29 201h86q133 0 157 174l33 230q49 352 420 352h190l-28 -201h-133q-104 0 -158.5 -49t-71.5 -156l-26 -188q-17 -109 -63.5 -173.5t-133.5 -99.5q77 -32 105 -99t14 -177l-23 -164q-13 -115 24 -160t146 -45h135l-28 -200h-160q-181 0 -278 96t-74 256
l33 229q12 92 -7.5 133t-78.5 41z" />
    <glyph glyph-name="braceright.cap" horiz-adv-x="841" 
d="M807 813h108l-28 -201h-86q-134 0 -158 -174l-33 -229q-49 -352 -420 -352h-190l29 200h133q103 0 157.5 49t71.5 156l27 189q17 109 63 173t133 99q-77 32 -104.5 98.5t-13.5 177.5l22 164q13 115 -24 160t-146 45h-135l29 201h159q181 0 278.5 -96t74.5 -256l-33 -230
q-12 -92 7.5 -133t78.5 -41z" />
    <glyph glyph-name="at.cap" horiz-adv-x="2144" 
d="M1769 1110l-178 -532q-20 -57 0.5 -87t77.5 -30q123 0 223 121q101 119 101 282q0 214 -187 340q-188 129 -497 129q-380 0 -633 -178q-146 -103 -225.5 -248.5t-79.5 -312.5q0 -254 196.5 -396.5t546.5 -142.5q190 0 372 42t320 116l107 -172q-338 -191 -803 -191
q-454 0 -711 199q-256 197 -256 545q0 204 100 388t283 318q321 234 789 234q397 0 647 -188q248 -187 248 -486q0 -247 -166 -416q-167 -170 -399 -170q-201 0 -271 142q-64 -64 -166.5 -103t-210.5 -39q-172 0 -272 93.5t-100 253.5q0 208 166 358q165 149 397 149
q214 0 317 -137l41 119h223zM877 649q0 -82 56 -131t152 -49q133 0 226 84q94 85 94 201q0 82 -56.5 131t-152.5 49q-132 0 -227 -86q-92 -83 -92 -199z" />
    <glyph glyph-name="zero.dnom" horiz-adv-x="1060" 
d="M565 -12q-197 0 -323 108q-125 110 -125 281q0 187 139 317q140 131 354 131q197 0 322 -110q125 -107 125 -279q0 -186 -142 -319q-138 -129 -350 -129zM600 651q-118 0 -196 -74.5t-78 -187.5q0 -102 68 -164.5t179 -62.5q118 0 196.5 74.5t78.5 187.5
q0 102 -68.5 164.5t-179.5 62.5z" />
    <glyph glyph-name="one.dnom" horiz-adv-x="755" 
d="M317 176l50 344h-271l23 154l137 6q87 1 133.5 33t65.5 102h155l-90 -639h250l-25 -176h-725l25 176h272z" />
    <glyph glyph-name="two.dnom" horiz-adv-x="915" 
d="M63 0l23 156l455 221q94 44 138 86t44 86q0 47 -45 75.5t-119 28.5q-97 0 -166.5 -49t-95.5 -135l-178 45q37 142 159 226.5t293 84.5q161 0 259 -70.5t98 -187.5q0 -90 -61 -161.5t-189 -131.5l-219 -102h436l-25 -172h-807z" />
    <glyph glyph-name="three.dnom" horiz-adv-x="950" 
d="M938 242q0 -113 -116 -183.5t-310 -70.5q-178 0 -303 65t-156 174l183 80q20 -69 96 -110t184 -41q94 0 150.5 27.5t56.5 74.5q0 76 -174 76h-168l25 160h161q84 0 132.5 22.5t48.5 61.5q0 36 -45.5 56.5t-124.5 20.5q-98 0 -172 -32.5t-111 -92.5l-160 84
q55 102 172.5 156.5t282.5 54.5q171 0 274 -61.5t103 -161.5q0 -66 -46 -116.5t-126 -73.5q68 -20 105.5 -65t37.5 -105z" />
    <glyph glyph-name="four.dnom" horiz-adv-x="976" 
d="M776 188l-26 -188h-193l27 188h-527l23 156l520 469h264l-65 -463h196l-22 -162h-197zM647 643l-328 -293h287z" />
    <glyph glyph-name="five.dnom" horiz-adv-x="917" 
d="M508 397q-125 0 -232 -61l-163 31l114 446h699l-25 -172h-541l-34 -135q98 49 227 49q164 0 261 -70.5t97 -189.5q0 -137 -118 -221q-118 -86 -310 -86q-165 0 -288 63q-127 65 -154 166l186 82q19 -62 95.5 -102.5t175.5 -40.5q94 0 152.5 34.5t58.5 90.5q0 54 -54 85
t-147 31z" />
    <glyph glyph-name="six.dnom" horiz-adv-x="1013" 
d="M641 825q136 0 244.5 -43.5t158.5 -117.5l-139 -117q-35 54 -111 85.5t-167 31.5q-116 0 -200.5 -57t-107.5 -150q118 94 297 94q166 0 273 -76q106 -72 106 -186q0 -131 -123 -217q-125 -84 -323 -84q-209 0 -320.5 92.5t-113.5 265.5q3 207 147 342q143 137 379 137z
M549 143q109 0 177.5 37.5t68.5 95.5q0 54 -64 86.5t-168 32.5q-109 0 -177.5 -37t-68.5 -94q0 -55 63.5 -88t168.5 -33z" />
    <glyph glyph-name="seven.dnom" horiz-adv-x="903" 
d="M733 643h-438l-23 -154h-172l45 324h842l-24 -180q-180 -135 -278 -289t-124 -344h-205q58 389 377 643z" />
    <glyph glyph-name="eight.dnom" horiz-adv-x="985" 
d="M184 590q0 109 107.5 172t292.5 63q176 0 279.5 -62t103.5 -165q0 -122 -160 -182q79 -26 121.5 -74t42.5 -111q0 -110 -121.5 -176.5t-325.5 -66.5q-202 0 -324 64.5t-122 170.5q0 72 57.5 128.5t159.5 82.5q-111 52 -111 156zM379 584q0 -41 49.5 -63.5t140.5 -22.5
q93 0 147 25.5t54 68.5q0 38 -51.5 61t-138.5 23q-92 0 -146.5 -25.5t-54.5 -66.5zM770 246q0 47 -62 72.5t-178 25.5t-180.5 -27.5t-64.5 -76.5q0 -45 63 -71t174 -26q115 0 181.5 28t66.5 75z" />
    <glyph glyph-name="nine.dnom" horiz-adv-x="1013" 
d="M489 -12q-136 0 -245.5 44t-159.5 118l139 116q35 -54 109.5 -85t165.5 -31q117 0 202.5 57t108.5 149q-118 -94 -297 -94q-163 0 -272 74q-107 76 -107 188q0 132 123 215q124 86 324 86q210 0 321.5 -92t112.5 -268q-3 -206 -148 -342q-144 -135 -377 -135zM580 670
q-109 0 -177.5 -37.5t-68.5 -95.5q0 -54 63.5 -86.5t167.5 -32.5q109 0 177.5 37t68.5 94q0 55 -63 88t-168 33z" />
    <glyph glyph-name="colon.mid" horiz-adv-x="622" 
d="M492 229h-297l41 297h296zM592 944h-297l41 297h297z" />
    <glyph glyph-name="commaturncmb" horiz-adv-x="0" 
d="M25 1346h98l-23 -164h-245l18 129q14 98 85.5 152.5t188.5 54.5l-14 -107q-44 0 -73 -17t-35 -48z" />
    <glyph glyph-name="commaaccentcmb" horiz-adv-x="0" 
d="M-23 -240h-98l23 164h245l-18 -129q-14 -98 -85.5 -152.5t-188.5 -54.5l14 107q44 0 73 17t35 48z" />
    <glyph glyph-name="space.tab" horiz-adv-x="819" 
 />
    <glyph glyph-name="period.tab" horiz-adv-x="819" 
d="M559 0h-297l41 297h297z" />
    <glyph glyph-name="comma.tab" horiz-adv-x="819" 
d="M397 0h-135l41 297h297l-49 -352q-17 -111 -105.5 -175t-224.5 -63l19 137q66 1 105.5 31.5t45.5 81.5z" />
    <glyph glyph-name="colon.tab" horiz-adv-x="819" 
d="M559 0h-297l41 297h297zM659 715h-297l41 297h297z" />
    <glyph glyph-name="semicolon.tab" horiz-adv-x="819" 
d="M397 0h-135l41 297h297l-49 -352q-17 -111 -105.5 -175t-224.5 -63l19 137q66 1 105.5 31.5t45.5 81.5zM659 715h-297l41 297h297z" />
    <glyph glyph-name="florin.lt" 
d="M1042 700l-96 -297q-72 -220 -204 -323t-343 -103q-117 0 -219.5 33.5t-163.5 89.5l127 179q50 -43 116.5 -68t133.5 -25q112 0 187 62t116 190l84 262h-301l25 177h334l61 190q72 220 204 323t343 103q117 0 219.5 -33.5t163.5 -89.5l-127 -178q-50 43 -116.5 67.5
t-133.5 24.5q-112 0 -187 -62t-116 -190l-51 -155h321l-24 -177h-353z" />
    <glyph glyph-name="Euro.lt" 
d="M266 487h-157l26 185h111q0 74 10 135h-102l26 184h127q95 232 297 367q206 135 467 135q249 0 432 -127q181 -126 234 -338l-228 -106q-44 161 -164 250.5t-292 89.5q-158 0 -283 -71t-197 -200h617l-68 -184h-612q-10 -54 -10 -123v-12h573l-65 -185h-473
q51 -130 169.5 -204t274.5 -74q152 0 266.5 80t206.5 250l199 -129q-109 -210 -287.5 -321.5t-405.5 -111.5q-262 0 -450 138q-187 138 -242 372z" />
    <glyph glyph-name="dollar.lt" 
d="M45 360l201 166q67 -112 202.5 -188t315.5 -102l59 419q-125 20 -241 43q-63 15 -127 41q-213 84 -213 283q0 198 190 324q190 124 506 124l31 213h211l-33 -225q209 -26 362.5 -104t219.5 -191l-199 -151q-108 172 -414 223l-53 -383q336 -49 467 -139q129 -88 129 -246
q0 -212 -193 -338q-194 -126 -524 -129l-31 -217h-211l33 227q-233 26 -430 125q-186 94 -258 225zM498 1051q0 -67 61 -101q60 -32 297 -67l51 366q-192 -1 -300.5 -54t-108.5 -144zM1401 434q0 74 -72 115q-74 42 -299 76l-57 -402q207 4 317.5 59t110.5 152z" />
    <glyph glyph-name="cent.lt" 
d="M932 -217h-197l29 205q-217 35 -342 172t-125 342q0 248 176 424t451 194l30 226h197l-33 -234q168 -29 284.5 -120.5t147.5 -219.5l-202 -102q-20 86 -89 149t-169 88l-101 -723q109 19 195.5 82.5t124.5 153.5l178 -119q-73 -139 -211.5 -223t-317.5 -98zM526 512
q0 -122 71 -207.5t196 -114.5l102 725q-159 -20 -266 -137q-103 -115 -103 -266z" />
    <glyph glyph-name="sterling.lt" 
d="M635 582h-336l29 194h217q-60 126 -60 228q0 205 172 346q171 143 435 143q250 0 401 -127q149 -125 149 -344q0 -79 -26 -158h-232q21 61 21 127q0 133 -87.5 206t-242.5 73t-247.5 -78.5t-92.5 -206.5q0 -79 56 -209h452l-29 -194h-356q8 -33 8 -86q0 -78 -26 -158
q143 -89 196 -109q64 -24 131 -24q105 0 174.5 66t92.5 190h241q-30 -219 -172 -352q-138 -132 -344 -132q-101 0 -195.5 40t-220.5 139q-68 -86 -156 -132.5t-186 -46.5q-133 0 -211.5 66.5t-78.5 179.5q0 116 92.5 191t234.5 75q114 0 217 -47v13q0 66 -20 127zM434 324
q-55 0 -90 -24.5t-35 -61.5q0 -35 29 -54.5t80 -19.5q107 0 180 102q-85 58 -164 58z" />
    <glyph glyph-name="yen.lt" 
d="M748 369h-451l27 184h450l19 135h-451l27 184h303l-420 598h315l371 -581l532 581h328l-586 -598h306l-27 -184h-453l-18 -135h453l-27 -184h-453l-51 -369h-246z" />
    <glyph glyph-name="zero.lt" 
d="M883 -23q-313 0 -512 193q-197 194 -197 498q0 160 58.5 310.5t164.5 268.5q109 119 255 182.5t311 63.5q314 0 510 -193t196 -497q0 -161 -57.5 -312t-163.5 -268q-111 -119 -255.5 -182.5t-309.5 -63.5zM956 1262q-225 0 -368 -168q-146 -169 -146 -412
q0 -217 121.5 -345t325.5 -128q222 0 366 166q146 172 146 413q0 218 -121 345q-120 129 -324 129z" />
    <glyph glyph-name="one.lt" 
d="M1024 1481h199l-179 -1262h535l-31 -219h-1390l30 219h594l113 795h-594l27 196l385 17q139 6 210.5 64.5t100.5 189.5z" />
    <glyph glyph-name="two.lt" 
d="M125 0l31 213l878 446q174 91 257 180t83 187q0 110 -99 177t-261 67q-202 0 -352 -111q-149 -110 -201 -289l-228 68q77 252 289 403q217 152 508 152q274 0 438 -123q164 -120 164 -326q0 -164 -113.5 -299t-347.5 -251l-536 -265h924l-33 -229h-1401z" />
    <glyph glyph-name="three.lt" 
d="M1614 446q0 -203 -203 -335q-206 -134 -526 -134q-313 0 -525 132q-209 132 -239 344l235 96q32 -161 177 -255.5t360 -94.5q199 0 326 71q129 70 129 185q0 92 -98 142t-281 50h-269l33 221h268q171 0 277 58.5t106 152.5q0 90 -96 141.5t-262 51.5q-194 0 -334.5 -73.5
t-206.5 -209.5l-229 82q93 205 294 313.5t490 108.5q274 0 445 -109q170 -108 170 -284q0 -123 -85.5 -216t-232.5 -128q130 -31 203.5 -113t73.5 -197z" />
    <glyph glyph-name="four.lt" 
d="M1311 358l-51 -358h-254l51 358h-944l28 205l985 907h340l-125 -895h336l-28 -217h-338zM1182 1245l-723 -670h628z" />
    <glyph glyph-name="five.lt" 
d="M924 780q-265 0 -478 -141l-186 63l201 768h1198l-33 -229h-997l-94 -344q189 100 444 100q303 0 477 -131q178 -132 178 -342q0 -235 -209 -391q-205 -156 -536 -156q-300 0 -527 127q-223 128 -253 324l241 96q27 -139 180 -233q157 -92 361 -92q203 0 340 90
q137 88 137 221q0 123 -121.5 196.5t-322.5 73.5z" />
    <glyph glyph-name="six.lt" 
d="M1073 1493q216 0 384 -88.5t243 -241.5l-199 -149q-57 122 -176.5 192t-273.5 70q-225 0 -392 -135q-167 -132 -219 -357q98 100 238.5 153.5t304.5 53.5q279 0 453 -137q176 -135 176 -342q0 -227 -201 -381t-518 -154q-337 0 -521 166.5t-184 472.5q0 178 66 342
t188 287q248 248 631 248zM897 193q207 0 334 83q127 86 127 220q0 124 -122.5 200t-320.5 76q-206 0 -333 -86q-127 -83 -127 -217q0 -124 122 -200t320 -76z" />
    <glyph glyph-name="seven.lt" 
d="M1456 1245h-964l-41 -295h-228l74 520h1483l-33 -233q-347 -295 -522 -588q-174 -289 -226 -649h-262q102 728 719 1245z" />
    <glyph glyph-name="eight.lt" 
d="M334 1092q0 182 178 290q182 111 479 111q283 0 451 -107q168 -104 168 -280q0 -117 -84 -202t-246 -132q165 -41 260.5 -139t95.5 -225q0 -194 -206 -314q-206 -117 -562 -117q-345 0 -549 113t-204 305q0 140 120.5 243t339.5 150q-241 96 -241 304zM582 1073
q0 -94 98 -145t278 -51q185 0 291.5 58.5t106.5 158.5q0 94 -99.5 145t-279.5 51q-185 0 -290 -58.5t-105 -158.5zM1376 430q0 109 -132.5 171.5t-364.5 62.5q-231 0 -364.5 -67.5t-133.5 -180.5q0 -109 130.5 -170.5t358.5 -61.5q236 0 371 66.5t135 179.5z" />
    <glyph glyph-name="nine.lt" 
d="M772 -23q-216 0 -384 88.5t-243 241.5l199 150q57 -122 176.5 -192t274.5 -70q223 0 391 133q167 135 219 358q-98 -100 -238.5 -153.5t-304.5 -53.5q-276 0 -452 135q-177 139 -177 344q0 228 199 381q201 154 520 154q337 0 521 -166.5t184 -472.5q0 -178 -66 -342
t-188 -287q-248 -248 -631 -248zM948 1278q-207 0 -334 -86q-127 -83 -127 -217q0 -124 122.5 -200.5t320.5 -76.5q206 0 334 84q127 86 127 219q0 124 -122.5 200.5t-320.5 76.5z" />
    <glyph glyph-name="percent.lt" 
d="M535 764q-144 0 -238 94t-94 238q0 163 108 280q111 117 273 117q145 0 239 -94q95 -92 95 -238q0 -163 -111 -280q-108 -117 -272 -117zM412 0h-244l1266 1470h243zM543 930q75 0 127.5 64.5t52.5 158.5q0 78 -39.5 126t-105.5 48q-75 0 -128 -65t-53 -158
q0 -78 40 -126t106 -48zM1309 707q144 0 239 -95q94 -91 94 -237q0 -165 -110 -281q-108 -117 -272 -117q-143 0 -238 95q-94 94 -94 237q0 164 108 281q111 117 273 117zM1303 541q-75 0 -128 -65t-53 -159q0 -78 40 -126t106 -48q75 0 127.5 65t52.5 159q0 78 -39.5 126
t-105.5 48z" />
    <glyph glyph-name="baht.lt" 
d="M631 0h-568l207 1470h568l30 213h211l-30 -213h57q225 0 355 -96t130 -262q0 -128 -72.5 -225.5t-199.5 -138.5q105 -38 164 -122t59 -196q0 -186 -147 -309q-145 -121 -385 -121h-168l-31 -217h-211zM492 1249l-56 -387h316l55 387h-315zM1341 1071q0 82 -70.5 130
t-187.5 48h-65l-55 -387h102q122 0 199 59t77 150zM721 641h-315l-60 -420h316zM1296 446q0 88 -71.5 141.5t-192.5 53.5h-100l-60 -420h140q124 0 204 64t80 161z" />
    <glyph glyph-name="dong.lt" 
d="M1026 176l16 109q-55 -60 -153 -93.5t-217 -33.5q-222 0 -357 114q-135 117 -135 299q0 209 164 347q168 139 422 139q121 0 215.5 -36.5t148.5 -102.5l31 225h-346l29 194h346l18 133h226l-19 -133h225l-28 -194h-226l-135 -967h-225zM1098 625q0 109 -90 176t-236 67
q-158 0 -264 -80q-102 -80 -102 -200q0 -109 89.5 -176.5t235.5 -67.5q159 0 262 80q105 80 105 201zM1200 -195h-1120l26 195h1121z" />
    <glyph glyph-name="franc.lt" 
d="M248 324h-205l29 194h204l134 952h1271l-32 -229h-1014l-49 -358h897l-33 -230h-897l-18 -135h374l-28 -194h-375l-45 -324h-258z" />
    <glyph glyph-name="naira.lt" 
d="M213 483h-205l27 185h205l18 135h-205l27 184h205l67 483h271l528 -1032l145 1032h252l-67 -483h205l-27 -184h-205l-18 -135h204l-26 -185h-205l-68 -483h-229l-561 1094l-154 -1094h-252z" />
    <glyph glyph-name="peseta.lt" 
d="M877 410h-410l-57 -410h-263l117 829h-207l31 222h207l59 419h584q251 0 397.5 -109t165.5 -310h187l-31 -222h-172q-49 -193 -213 -307q-161 -112 -395 -112zM920 1247h-334l-29 -196h688q-23 94 -107.5 145t-217.5 51zM526 829l-28 -196h368q121 0 213 51.5t140 144.5
h-693z" />
    <glyph glyph-name="peso.lt" 
d="M840 410h-373l-57 -410h-263l97 688h-207l26 184h207l19 136h-207l27 184h206l39 278h547q201 0 336.5 -71.5t192.5 -206.5h282l-26 -184h-218v-21q0 -64 -10 -115h209l-27 -184h-249q-79 -133 -222.5 -205.5t-328.5 -72.5zM586 1247l-88 -614h331q172 0 279 98
q109 103 109 250q0 124 -89 195t-245 71h-297z" />
    <glyph glyph-name="uni20BD.lt" 
d="M211 250h-211l33 225h211l18 135h-205l31 226h205l90 634h823q213 0 337 -109.5t124 -295.5q0 -204 -147 -330q-146 -125 -385 -125h-611l-20 -135h479l-33 -225h-477l-35 -250h-262zM1178 1245h-566l-57 -409h586q124 0 198 63t74 166q0 88 -60 134t-175 46z" />
    <glyph glyph-name="uni20B9.lt" 
d="M647 537h-584l31 221h637q98 0 177 36t122 99h-917l30 221h914q-26 66 -91 100.5t-159 34.5h-643l31 221h1482l-30 -221h-394q49 -74 62 -135h311l-31 -221h-295q-38 -119 -139 -207t-241 -125l294 -561h-290z" />
    <glyph glyph-name="uni20BA.lt" 
d="M319 307l-305 -160l31 224l305 161l21 140l-299 -158l32 223l297 158l82 575h262l-59 -426l465 246l-33 -223l-463 -246l-20 -141l463 244l-31 -224l-463 -243l-33 -228h306q228 0 340 115q111 114 149 391h262q-56 -399 -235 -567q-177 -168 -539 -168h-578z" />
    <glyph glyph-name="won.lt" 
d="M287 483h-267l27 185h225l-12 135h-194l26 184h154l-37 483h242l69 -989l299 815h197l71 -829l353 1003h252l-174 -483h155l-26 -184h-195l-49 -135h225l-26 -185h-265l-174 -483h-209l-80 920l-337 -920h-213z" />
    <glyph glyph-name="zero.slash" horiz-adv-x="1777" 
d="M1489 199q-120 -107 -276.5 -164.5t-333.5 -57.5q-354 0 -578 199q-223 198 -223 506q0 168 68.5 321.5t195.5 268.5q254 221 612 221q350 0 574 -199q225 -200 225 -506q0 -168 -68.5 -321t-195.5 -268zM961 1266q-272 0 -447 -166q-174 -162 -174 -414q0 -107 33 -192
l954 661q-135 111 -366 111zM870 205q271 0 447 164q174 165 174 415q0 108 -33 193l-954 -660q136 -112 366 -112z" />
    <glyph glyph-name="zero.slash.lt" 
d="M1372 223q-111 -119 -255.5 -182.5t-309.5 -63.5q-313 0 -512 193q-197 194 -197 498q0 160 58.5 310.5t165.5 268.5q109 119 254.5 182.5t310.5 63.5q314 0 510 -193t196 -497q0 -161 -57.5 -312t-163.5 -268zM881 1262q-226 0 -369 -168q-145 -168 -145 -412
q0 -96 24 -172l797 639q-116 113 -307 113zM813 209q223 0 367 166q145 171 145 413q0 93 -25 173l-796 -639q116 -113 309 -113z" />
    <glyph glyph-name="arrowNW" horiz-adv-x="1826" 
d="M686 1231l1077 -1077l-176 -177l-1077 1078v-592h-240v1007h1008v-239h-592z" />
    <glyph glyph-name="arrowNE" horiz-adv-x="1599" 
d="M1450 463h-240v592l-1077 -1078l-176 177l1077 1077h-592v239h1008v-1007z" />
    <glyph glyph-name="arrowSE" horiz-adv-x="1826" 
d="M1221 1008h239v-1008h-1007v240h591l-1077 1077l176 176l1078 -1077v592z" />
    <glyph glyph-name="arrowSW" horiz-adv-x="1599" 
d="M621 240h591v-240h-1007v1008h239v-592l1078 1077l176 -176z" />
    <glyph glyph-name="arrowupdown" horiz-adv-x="1613" 
d="M1403 432l160 -184l-752 -639l-752 639l160 184l469 -399v1077l-469 -399l-160 184l752 639l752 -639l-160 -184l-469 399v-1077z" />
    <glyph glyph-name="arrowleftright" horiz-adv-x="2019" 
d="M1409 1452l629 -711l-629 -710l-180 170l373 417h-1127l373 -417l-180 -170l-629 710l629 711l180 -170l-373 -418h1127l-373 418z" />
    </font>
</defs>
</svg>
