<?xml version="1.0" standalone="no"?>
<!DOCTYPE svg PUBLIC "-//W3C//DTD SVG 1.1//EN" "http://www.w3.org/Graphics/SVG/1.1/DTD/svg11.dtd" >
<svg xmlns="http://www.w3.org/2000/svg" xmlns:xlink="http://www.w3.org/1999/xlink" version="1.1">
<metadata>
Created by FontForge 20201107 at Fri Jul 12 23:26:06 2024
 By 
Copyright 2020, Kris Sowersby, Klim Type Foundry.
</metadata>
<defs>
<font id="SohneBreit-HalbfettKursiv" horiz-adv-x="1638" >
  <font-face 
    font-family="Sohne Breit Halbfett"
    font-weight="600"
    font-style="italic"
    font-stretch="expanded"
    units-per-em="2048"
    panose-1="2 11 7 5 3 2 2 13 2 3"
    ascent="1638"
    descent="-410"
    x-height="1077"
    cap-height="1470"
    bbox="-553 -424 3054 2077"
    underline-thickness="225"
    underline-position="-390"
    slope="-12"
    unicode-range="U+000D-FB04"
  />
<missing-glyph horiz-adv-x="1228" 
d="M0 0v1470h1229v-1470h-1229zM270 496l105 -105l239 240l242 -240l102 105l-237 241l237 240l-102 104l-242 -239l-239 239l-105 -104l240 -240z" />
    <glyph glyph-name="ff" unicode="ff" horiz-adv-x="1775" 
d="M406 1077l2 15q31 203 157 302t353 99q159 0 280 -37l-72 -233q-121 26 -206 26q-109 0 -165.5 -38t-66.5 -119l-2 -15h526l2 15q31 203 157 302t353 99q152 0 289 -39l-71 -233q-124 28 -213 28q-109 0 -166.5 -38t-67.5 -119l-2 -15h412l-35 -239h-410l-117 -838h-282
l117 838h-525l-116 -838h-283l117 838h-258l34 239h259z" />
    <glyph glyph-name="fi" unicode="fi" horiz-adv-x="1458" 
d="M406 1077l2 15q31 203 154.5 302t346.5 99q148 0 269 -37l-74 -233q-96 20 -127 22q-46 4 -68 4q-103 0 -157 -38t-64 -119l-2 -15h387l-35 -239h-385l-116 -838h-283l117 838h-258l34 239h259zM1520 1204h-293l37 266h292zM1212 1077h287l-151 -1077h-287z" />
    <glyph glyph-name="fl" unicode="fl" horiz-adv-x="1458" 
d="M406 1077l2 15q31 203 154.5 302t346.5 99q148 0 269 -37l-74 -233q-118 26 -195 26q-103 0 -157 -38t-64 -119l-2 -15h387l-35 -239h-385l-116 -838h-283l117 838h-258l34 239h259zM1268 1470h286l-206 -1470h-287z" />
    <glyph glyph-name="ffi" unicode="ffi" horiz-adv-x="2263" 
d="M406 1077l2 15q31 203 157 302t353 99q159 0 280 -37l-72 -233q-121 26 -206 26q-109 0 -165.5 -38t-66.5 -119l-2 -15h526l2 15q31 202 155 301.5t347 99.5q148 0 269 -37l-74 -233q-96 20 -127 22q-46 4 -68 4q-103 0 -157 -38t-64 -119l-2 -15h387l-35 -239h-385
l-117 -838h-282l117 838h-525l-116 -838h-283l117 838h-258l34 239h259zM2327 1204h-293l37 266h292zM2019 1077h287l-152 -1077h-286z" />
    <glyph glyph-name="ffl" unicode="ffl" horiz-adv-x="2263" 
d="M406 1077l2 15q31 203 157 302t353 99q159 0 280 -37l-72 -233q-121 26 -206 26q-109 0 -165.5 -38t-66.5 -119l-2 -15h526l2 15q31 202 155 301.5t347 99.5q148 0 269 -37l-74 -233q-118 26 -195 26q-103 0 -157 -38t-64 -119l-2 -15h387l-35 -239h-385l-117 -838h-282
l117 838h-525l-116 -838h-283l117 838h-258l34 239h259zM2075 1470h286l-207 -1470h-286z" />
    <glyph glyph-name="f_b" unicode="fb" horiz-adv-x="2385" 
d="M406 1077l2 15q31 203 154.5 302t346.5 99q148 0 269 -37l-74 -233q-118 26 -195 26q-103 0 -157 -38t-64 -119l-2 -15h387l-35 -239h-385l-116 -838h-283l117 838h-258l34 239h259zM1788 -23q-127 0 -236.5 44t-183.5 124l-20 -145h-289l207 1470h286l-71 -520
q67 70 168 109t221 39q239 0 391 -146t152 -368q0 -256 -179 -432q-175 -175 -446 -175zM2138 565q0 133 -96 216t-250 83q-163 0 -274 -102t-111 -252q0 -133 95.5 -216t248.5 -83q163 0 274 102q113 101 113 252z" />
    <glyph glyph-name="f_h" unicode="fh" horiz-adv-x="2314" 
d="M406 1077l2 15q31 203 154.5 302t346.5 99q148 0 269 -37l-74 -233q-118 26 -195 26q-103 0 -157 -38t-64 -119l-2 -15h387l-35 -239h-385l-116 -838h-283l117 838h-258l34 239h259zM1348 0h-287l207 1470h286l-75 -526q148 154 381 154q223 0 344 -142q124 -139 90 -362
l-84 -594h-287l76 532q19 141 -49 224.5t-203 83.5t-221 -83t-105 -229z" />
    <glyph glyph-name="f_idieresis" unicode="f&#xef;" horiz-adv-x="1458" 
d="M918 1493q151 0 288 -39l-71 -233q-124 28 -213 28q-109 0 -166.5 -38t-67.5 -119l-2 -15h412l-35 -239h-410l-116 -838h-283l117 838h-258l34 239h259l2 15q31 203 157 302t353 99zM1774 1204h-295l37 266h294zM1212 1077h287l-151 -1077h-287z" />
    <glyph glyph-name="f_j" unicode="fj" horiz-adv-x="1458" 
d="M406 1077l2 15q31 203 154.5 302t346.5 99q148 0 269 -37l-74 -233q-96 20 -127 22q-46 4 -68 4q-103 0 -157 -38t-64 -119l-2 -15h387l-35 -239h-385l-116 -838h-283l117 838h-258l34 239h259zM1520 1204h-293l37 266h292zM1499 1077l-149 -1050q-31 -210 -143.5 -310
t-319.5 -100q-152 0 -273 43l70 219q95 -29 176 -29q94 0 142.5 43.5t60.5 137.5l149 1046h287z" />
    <glyph glyph-name="f_k" unicode="fk" horiz-adv-x="2310" 
d="M406 1077l2 15q31 203 154.5 302t346.5 99q148 0 269 -37l-74 -233q-118 26 -195 26q-103 0 -157 -38t-64 -119l-2 -15h387l-35 -239h-385l-116 -838h-283l117 838h-258l34 239h259zM1268 1470h286l-124 -882l643 489h403l-616 -459l481 -618h-348l-357 453l-252 -189
l-36 -264h-287z" />
    <glyph glyph-name=".notdef" horiz-adv-x="1228" 
d="M0 0v1470h1229v-1470h-1229zM270 496l105 -105l239 240l242 -240l102 105l-237 241l237 240l-102 104l-242 -239l-239 239l-105 -104l240 -240z" />
    <glyph glyph-name=".null" horiz-adv-x="0" 
 />
    <glyph glyph-name="nonmarkingreturn" horiz-adv-x="682" 
 />
    <glyph glyph-name="NULL" horiz-adv-x="0" 
 />
    <glyph glyph-name="NULL" horiz-adv-x="0" 
 />
    <glyph glyph-name="CR" unicode="&#xd;" horiz-adv-x="548" 
 />
    <glyph glyph-name="space" unicode=" " horiz-adv-x="548" 
 />
    <glyph glyph-name="exclam" unicode="!" horiz-adv-x="626" 
d="M485 457h-219l70 1013h366zM483 0h-340l45 326h340z" />
    <glyph glyph-name="quotedbl" unicode="&#x22;" horiz-adv-x="806" 
d="M424 862h-197l19 608h332zM821 862h-196l18 608h332z" />
    <glyph glyph-name="numbersign" unicode="#" horiz-adv-x="1536" 
d="M434 0h-258l148 379h-215l30 217h269l110 278h-276l28 218h332l148 378h260l-148 -378h332l147 378h258l-147 -378h182l-28 -218h-238l-106 -278h241l-28 -217h-297l-148 -379h-262l147 379h-333zM776 874l-108 -278h331l111 278h-334z" />
    <glyph glyph-name="dollar" unicode="$" horiz-adv-x="1648" 
d="M31 344l213 199q69 -104 202.5 -177t307.5 -102l53 379q-251 35 -371 86q-209 84 -209 285q0 198 189 325q194 128 508 131l28 209h246l-31 -223q200 -26 352 -99.5t224 -178.5l-211 -183q-60 80 -163 134t-239 77l-47 -342q330 -50 459 -141q131 -88 131 -248
q0 -214 -192 -342q-192 -127 -520 -133l-31 -213h-244l33 225q-231 29 -426 121q-182 86 -262 211zM520 1049q0 -58 60 -93q63 -33 262 -59l47 328q-172 -1 -270.5 -48.5t-98.5 -127.5zM1376 438q0 65 -65 103q-63 37 -264 67l-52 -360q184 4 282.5 53.5t98.5 136.5z" />
    <glyph glyph-name="percent" unicode="%" horiz-adv-x="1990" 
d="M602 717q-176 0 -285 100q-108 102 -108 256q0 174 129 297t319 123q176 0 285 -100q111 -102 111 -256q0 -174 -129 -297t-322 -123zM1638 1470h277l-1354 -1470h-276zM649 1300q-92 0 -151.5 -61t-59.5 -154q0 -79 48 -127.5t126 -48.5q92 0 151.5 61t59.5 154
q0 79 -48 127.5t-126 48.5zM1593 752q175 0 285 -101q111 -99 111 -254q0 -174 -129 -297q-126 -123 -320 -123q-174 0 -285 99q-108 102 -108 256q0 173 127 297q129 123 319 123zM1585 561q-90 0 -150.5 -62t-60.5 -153q0 -80 48 -128t128 -48q92 0 151.5 61t59.5 154
q0 79 -48.5 127.5t-127.5 48.5z" />
    <glyph glyph-name="ampersand" unicode="&#x26;" horiz-adv-x="1869" 
d="M1599 829l269 -65q-114 -287 -305 -469q66 -35 136 -46t181 -3l-35 -244q-157 -21 -272 6q-108 26 -240 115q-265 -146 -598 -146q-290 0 -467 121q-176 120 -176 318q0 164 114.5 280t315.5 154q-59 95 -59 209q0 192 149 311q150 123 394 123q220 0 346 -100
q129 -99 129 -263q0 -153 -118 -266.5t-319 -154.5l310 -263q143 137 245 383zM997 1276q-121 0 -188.5 -53t-67.5 -144q0 -98 101 -196q186 20 276 77.5t90 157.5q0 72 -57 115t-154 43zM379 438q0 -99 103 -157t274 -58q212 0 370 70l-434 377q-313 -41 -313 -232z" />
    <glyph glyph-name="quotesingle" unicode="'" horiz-adv-x="407" 
d="M424 862h-197l19 608h332z" />
    <glyph glyph-name="parenleft" unicode="(" horiz-adv-x="802" 
d="M440 530q0 -418 334 -731h-299q-167 129 -258.5 322t-91.5 418q0 295 151 555q149 256 416 417h324q-283 -207 -429.5 -456.5t-146.5 -524.5z" />
    <glyph glyph-name="parenright" unicode=")" horiz-adv-x="802" 
d="M547 780q0 418 -334 731h299q168 -129 259 -321.5t91 -417.5q0 -295 -151 -555q-150 -258 -416 -418h-324q283 207 429.5 456.5t146.5 524.5z" />
    <glyph glyph-name="asterisk" unicode="*" horiz-adv-x="927" 
d="M911 778l-172 -110l-139 239l-209 -239l-151 125l206 239l-268 90l84 183l273 -91l43 297h198l-43 -297l291 91l39 -193l-297 -92z" />
    <glyph glyph-name="plus" unicode="+" 
d="M1634 848l-35 -246h-573l-82 -573h-244l82 573h-575l35 246h575l80 573h244l-80 -573h573z" />
    <glyph glyph-name="comma" unicode="," horiz-adv-x="491" 
d="M219 0h-141l45 332h336l-49 -365q-20 -129 -118 -199t-257 -69l20 151q69 1 111.5 31.5t48.5 81.5z" />
    <glyph glyph-name="hyphen" unicode="-" horiz-adv-x="753" 
d="M737 475h-590l37 256h590z" />
    <glyph glyph-name="period" unicode="." horiz-adv-x="491" 
d="M414 0h-336l45 332h336z" />
    <glyph glyph-name="slash" unicode="/" horiz-adv-x="1146" 
d="M307 -201h-311l1026 1712h313z" />
    <glyph glyph-name="zero" unicode="0" horiz-adv-x="1777" 
d="M952 -23q-353 0 -577 199q-225 200 -225 506q0 167 69.5 321t196.5 269q247 221 614 221q354 0 578 -199q225 -200 225 -506q0 -168 -69.5 -322.5t-196.5 -266.5q-121 -109 -278.5 -165.5t-336.5 -56.5zM1020 1229q-246 0 -404 -152q-157 -151 -157 -379q0 -204 139 -331
q137 -125 367 -125q246 0 401 149q158 152 158 381q0 204 -140 332q-137 125 -364 125z" />
    <glyph glyph-name="one" unicode="1" horiz-adv-x="950" 
d="M801 1479h229l-209 -1479h-301l139 985h-505l30 229l287 13q148 8 223.5 65.5t106.5 186.5z" />
    <glyph glyph-name="two" unicode="2" horiz-adv-x="1533" 
d="M59 0l35 240l862 428q177 88 260.5 172t83.5 176q0 100 -95 160.5t-249 60.5q-191 0 -334 -102t-194 -273l-264 74q70 251 291 403q219 154 520 154q289 0 457 -125q170 -123 170 -330q0 -165 -115 -298.5t-352 -243.5l-488 -236h885l-37 -260h-1436z" />
    <glyph glyph-name="three" unicode="3" horiz-adv-x="1597" 
d="M1622 442q0 -201 -209 -333q-205 -132 -545 -132q-321 0 -540 127q-217 126 -258 332l272 115q35 -148 178.5 -235t353.5 -87q195 0 314 64q123 65 123 166q0 84 -94 128t-273 44h-280l36 246h275q170 0 272.5 52t102.5 138q0 79 -95 125.5t-256 46.5
q-191 0 -330.5 -68.5t-205.5 -193.5l-252 108q97 198 304 303t503 105q292 0 471 -111q178 -108 178 -286q0 -123 -83.5 -215t-229.5 -129q128 -35 198 -116.5t70 -193.5z" />
    <glyph glyph-name="four" unicode="4" horiz-adv-x="1685" 
d="M1335 352l-51 -352h-289l52 352h-977l34 234l994 884h393l-123 -872h379l-33 -246h-379zM1167 1217l-698 -619h610z" />
    <glyph glyph-name="five" unicode="5" horiz-adv-x="1576" 
d="M889 756q-258 0 -459 -129l-229 61l202 782h1229l-37 -260h-995l-82 -305q181 94 438 94q303 0 480 -131q180 -128 180 -340q0 -238 -213 -395q-211 -156 -551 -156q-300 0 -528 123q-227 124 -267 314l279 116q30 -129 178 -215q151 -86 348 -86q195 0 322 80
q129 83 129 201q0 112 -116 179t-308 67z" />
    <glyph glyph-name="six" unicode="6" horiz-adv-x="1677" 
d="M1083 1493q244 0 439 -86q193 -85 272 -229l-219 -174q-56 109 -199 176q-140 67 -317 67q-233 0 -402 -123q-168 -122 -217 -327q100 94 250 145t328 51q300 0 493 -135q195 -136 195 -342q0 -231 -219 -385t-572 -154q-369 0 -570.5 167.5t-201.5 473.5
q0 184 72.5 350.5t206.5 288.5q261 236 661 236zM922 225q223 0 354 76q135 77 135 197q0 112 -129 181t-340 69q-218 0 -356 -78q-133 -77 -133 -199q0 -110 129 -178t340 -68z" />
    <glyph glyph-name="seven" unicode="7" horiz-adv-x="1513" 
d="M1325 1214h-874l-41 -288h-260l77 544h1473l-37 -268q-337 -276 -514 -563q-175 -285 -225 -639h-303q102 719 704 1214z" />
    <glyph glyph-name="eight" unicode="8" horiz-adv-x="1658" 
d="M299 1083q0 186 190 297q189 113 510 113q304 0 484 -109q180 -107 180 -286q0 -231 -315 -334q156 -43 244.5 -136t88.5 -216q0 -196 -215 -316q-213 -119 -583 -119q-362 0 -578 115q-215 114 -215 307q0 137 115 240t319 147q-225 96 -225 297zM586 1067
q0 -86 100 -133t283 -47q188 0 294.5 52.5t106.5 143.5q0 86 -100 133.5t-283 47.5q-188 0 -294.5 -53t-106.5 -144zM1382 436q0 100 -130.5 156.5t-358.5 56.5q-232 0 -365 -61t-133 -164q0 -98 129.5 -154.5t356.5 -56.5q233 0 367 60t134 163z" />
    <glyph glyph-name="nine" unicode="9" horiz-adv-x="1677" 
d="M801 -23q-244 0 -439 86q-192 85 -272 230l219 174q56 -108 197 -176q145 -68 319 -68q233 0 402 123q167 121 217 328q-100 -94 -250 -145.5t-328 -51.5q-302 0 -495 135t-193 342q0 231 219 385t572 154q369 0 570.5 -167.5t201.5 -473.5q0 -184 -72.5 -350.5
t-206.5 -288.5q-261 -236 -661 -236zM963 1245q-223 0 -357 -76q-133 -77 -133 -196q0 -112 129 -181t340 -69q219 0 354 78q136 77 136 198q0 110 -129 178t-340 68z" />
    <glyph glyph-name="colon" unicode=":" horiz-adv-x="491" 
d="M414 0h-336l45 332h336zM512 694h-336l45 332h336z" />
    <glyph glyph-name="semicolon" unicode=";" horiz-adv-x="491" 
d="M219 0h-141l45 332h336l-49 -365q-20 -129 -118 -199t-257 -69l20 151q69 1 111.5 31.5t48.5 81.5zM512 694h-336l45 332h336z" />
    <glyph glyph-name="less" unicode="&#x3c;" 
d="M1524 39l-1327 500l53 379l1466 497l-43 -307l-1212 -387l1104 -389z" />
    <glyph glyph-name="equal" unicode="=" 
d="M1638 870h-1392l33 246h1392zM1561 322h-1393l35 245h1392z" />
    <glyph glyph-name="greater" unicode="&#x3e;" 
d="M328 1415l1327 -500l-53 -378l-1467 -498l43 307l1213 387l-1104 389z" />
    <glyph glyph-name="question" unicode="?" horiz-adv-x="1447" 
d="M1251 1038q0 94 -93 146.5t-259 52.5q-177 0 -291.5 -62.5t-152.5 -179.5l-301 47q62 214 263 332.5t503 118.5q300 0 475 -117q176 -114 176 -315q0 -193 -157.5 -316t-438.5 -143l-23 -145h-290l49 348q266 0 403 59t137 174zM924 0h-338l43 326h340z" />
    <glyph glyph-name="at" unicode="@" horiz-adv-x="2174" 
d="M1772 932l-175 -520q-21 -57 -2 -88t76 -31q118 0 213 117q94 116 94 274q0 211 -184 334q-182 123 -498 123q-376 0 -626 -172q-147 -99 -226 -243.5t-79 -309.5q0 -252 196.5 -392.5t548.5 -140.5q189 0 370 40.5t322 113.5l109 -193q-334 -186 -807 -186
q-463 0 -729 201q-262 200 -262 553q0 209 102.5 395.5t288.5 320.5q324 234 803 234q408 0 661 -188q252 -188 252 -488q0 -251 -172 -426q-172 -172 -416 -172q-209 0 -286 139q-63 -63 -162 -100t-207 -37q-173 0 -275 94.5t-102 255.5q0 209 164 359q168 151 397 151
q208 0 316 -133l39 115h256zM887 473q0 -78 52.5 -124t143.5 -46q123 0 209 80q88 79 88 184q0 78 -52.5 124t-143.5 46q-122 0 -211 -80q-86 -80 -86 -184z" />
    <glyph glyph-name="A" unicode="A" horiz-adv-x="1794" 
d="M-14 0l962 1470h338l520 -1470h-313l-119 342h-835l-222 -342h-331zM1286 598l-203 582l-376 -582h579z" />
    <glyph glyph-name="B" unicode="B" horiz-adv-x="1669" 
d="M1155 0h-1026l207 1470h917q227 0 358.5 -97t131.5 -263q0 -124 -72 -223.5t-196 -141.5q100 -38 158.5 -122.5t58.5 -194.5q0 -188 -148 -309q-146 -119 -389 -119zM590 1221l-49 -349h665q110 0 179 53.5t69 135.5q0 73 -63 116.5t-168 43.5h-633zM1174 629h-668
l-53 -377h700q112 0 184 57.5t72 145.5q0 80 -63.5 127t-171.5 47z" />
    <glyph glyph-name="C" unicode="C" horiz-adv-x="1710" 
d="M1044 1229q-256 0 -419 -150q-164 -150 -164 -381q0 -207 147 -333q147 -123 385 -123q179 0 315.5 80.5t215.5 234.5l241 -141q-109 -210 -314.5 -324.5t-473.5 -114.5q-364 0 -596 197q-231 196 -231 508q0 171 74.5 325.5t211.5 270.5q125 104 287.5 159.5t345.5 55.5
q289 0 496 -127q206 -126 262 -340l-275 -129q-41 158 -175 245t-333 87z" />
    <glyph glyph-name="D" unicode="D" horiz-adv-x="1767" 
d="M915 0h-786l207 1470h711q350 0 563 -192q215 -191 215 -492q0 -172 -73 -323.5t-208 -261.5q-252 -201 -629 -201zM594 1212l-133 -954h467q259 0 424 145q166 147 166 367q0 197 -138 320q-137 122 -362 122h-424z" />
    <glyph glyph-name="E" unicode="E" horiz-adv-x="1615" 
d="M129 0l207 1470h1423l-37 -260h-1128l-45 -327h1010l-35 -258h-1012l-49 -365h1126l-37 -260h-1423z" />
    <glyph glyph-name="F" unicode="F" horiz-adv-x="1585" 
d="M508 584l-82 -584h-297l207 1470h1401l-37 -260h-1106l-49 -366h987l-37 -260h-987z" />
    <glyph glyph-name="G" unicode="G" horiz-adv-x="1837" 
d="M1743 0h-283l23 162q-197 -185 -512 -185q-358 0 -590 197q-231 200 -231 508q0 172 75.5 327.5t214.5 270.5q130 103 294 158t347 55q299 0 512 -127q214 -126 273 -336l-279 -119q-41 148 -181.5 233t-342.5 85q-265 0 -434 -150q-168 -146 -168 -379q0 -211 145 -338
q146 -122 391 -122q199 0 349 84q147 81 194 227h-661l34 254h942z" />
    <glyph glyph-name="H" unicode="H" horiz-adv-x="1804" 
d="M1499 885l82 585h303l-207 -1470h-303l88 625h-944l-88 -625h-301l207 1470h301l-82 -585h944z" />
    <glyph glyph-name="I" unicode="I" horiz-adv-x="557" 
d="M336 1470h301l-207 -1470h-301z" />
    <glyph glyph-name="J" unicode="J" horiz-adv-x="1470" 
d="M752 -23q-262 0 -457 121q-191 121 -238 314l277 147q29 -142 146 -229.5t280 -87.5q165 0 272 89t127 244l127 895h301l-127 -909q-41 -275 -227 -430q-189 -154 -481 -154z" />
    <glyph glyph-name="K" unicode="K" horiz-adv-x="1697" 
d="M336 1470h301l-98 -692l911 692h436l-831 -618l671 -852h-374l-535 676l-325 -242l-62 -434h-301z" />
    <glyph glyph-name="L" unicode="L" horiz-adv-x="1507" 
d="M1464 0h-1335l207 1470h301l-170 -1210h1034z" />
    <glyph glyph-name="M" unicode="M" horiz-adv-x="2156" 
d="M1901 1184l-701 -1184h-244l-366 1184l-168 -1184h-293l207 1470h448l338 -1101l650 1101h462l-206 -1470h-295z" />
    <glyph glyph-name="N" unicode="N" horiz-adv-x="1773" 
d="M1561 1470h292l-206 -1470h-263l-811 1096l-153 -1096h-291l207 1470h303l776 -1044z" />
    <glyph glyph-name="O" unicode="O" horiz-adv-x="1830" 
d="M981 -23q-365 0 -598 199t-233 508q0 170 72.5 324.5t207.5 269.5q123 105 283.5 160t343.5 55q366 0 596 -199q233 -199 233 -508q0 -171 -72.5 -325t-205.5 -266q-257 -218 -627 -218zM991 242q258 0 420 149q164 150 164 379q0 205 -145 332t-386 127
q-250 0 -419 -152q-164 -150 -164 -377q0 -206 145 -333q146 -125 385 -125z" />
    <glyph glyph-name="P" unicode="P" horiz-adv-x="1640" 
d="M1147 541h-641l-76 -541h-301l207 1470h897q236 0 373 -116q139 -115 139 -312q0 -226 -164 -364q-162 -137 -434 -137zM600 1214l-57 -417h602q135 0 220 65t85 168q0 86 -66.5 135t-183.5 49h-600z" />
    <glyph glyph-name="Q" unicode="Q" horiz-adv-x="1830" 
d="M1241 8q-138 -31 -260 -31q-365 0 -598 199t-233 508q0 170 72.5 324.5t207.5 269.5q123 105 283.5 160t343.5 55q366 0 596 -199q233 -199 233 -508q0 -202 -101 -378t-280 -289q81 -75 246 -115l-170 -215q-102 26 -195.5 86.5t-144.5 132.5zM1575 770q0 205 -145 332
t-386 127q-250 0 -419 -152q-164 -150 -164 -377q0 -206 145 -333q146 -125 385 -125q258 0 420 149q164 150 164 379z" />
    <glyph glyph-name="R" unicode="R" horiz-adv-x="1652" 
d="M1026 547h-520l-76 -547h-301l207 1470h897q240 0 377 -116q141 -114 141 -310q0 -177 -109 -304t-301 -171l306 -569h-334zM600 1214l-57 -415h606q136 0 220.5 64.5t84.5 164.5q0 88 -66.5 137t-185.5 49h-602z" />
    <glyph glyph-name="S" unicode="S" horiz-adv-x="1587" 
d="M901 -23q-296 0 -539 105q-241 104 -333 264l215 197q87 -144 268 -226q180 -82 408 -79q184 0 284.5 51t100.5 145q0 58 -47.5 93.5t-159.5 60.5q-68 15 -158 28l-119 19q-272 43 -379 94q-217 97 -217 297q0 209 191 338t506 129q265 0 469 -88q209 -86 303 -229
l-215 -185q-85 119 -236.5 182.5t-349.5 63.5q-172 0 -270.5 -47t-98.5 -129q0 -65 66 -100q59 -32 360 -76q182 -28 262 -47q100 -24 158 -47q246 -101 246 -320q0 -222 -195 -358t-520 -136z" />
    <glyph glyph-name="T" unicode="T" horiz-adv-x="1675" 
d="M1845 1470l-37 -260h-649l-170 -1210h-303l170 1210h-651l39 260h1601z" />
    <glyph glyph-name="U" unicode="U" horiz-adv-x="1689" 
d="M895 -20q-378 0 -565 190q-190 196 -144 524l109 776h303l-109 -759q-32 -228 74.5 -347.5t343.5 -119.5q220 0 337.5 111.5t152.5 355.5l108 759h301l-108 -776q-51 -364 -248 -539t-555 -175z" />
    <glyph glyph-name="V" unicode="V" horiz-adv-x="1804" 
d="M2023 1470l-968 -1470h-344l-518 1470h317l408 -1173l770 1173h335z" />
    <glyph glyph-name="W" unicode="W" horiz-adv-x="2420" 
d="M700 332l555 1138h318l172 -1138l582 1138h313l-758 -1470h-350l-170 1124l-551 -1124h-348l-254 1470h307z" />
    <glyph glyph-name="X" unicode="X" horiz-adv-x="1730" 
d="M1520 1470h381l-742 -706l592 -764h-354l-439 571l-596 -571h-382l808 770l-546 700h352l397 -507z" />
    <glyph glyph-name="Y" unicode="Y" horiz-adv-x="1751" 
d="M545 1470l442 -610l615 610h370l-858 -845l-88 -625h-301l88 625l-620 845h352z" />
    <glyph glyph-name="Z" unicode="Z" horiz-adv-x="1628" 
d="M553 260h1036l-39 -260h-1476l30 229l1160 981h-1014l35 260h1460l-31 -229z" />
    <glyph glyph-name="bracketleft" unicode="[" horiz-adv-x="745" 
d="M905 1286h-360l-176 -1261h360l-33 -226h-643l242 1712h643z" />
    <glyph glyph-name="backslash" unicode="\" horiz-adv-x="1146" 
d="M526 1511l568 -1712h-289l-567 1712h288z" />
    <glyph glyph-name="bracketright" unicode="]" horiz-adv-x="745" 
d="M385 25l176 1261h-360l32 225h644l-242 -1712h-643l33 226h360z" />
    <glyph glyph-name="asciicircum" unicode="^" horiz-adv-x="1196" 
d="M147 836l521 634h274l342 -634h-289l-213 405l-329 -405h-306z" />
    <glyph glyph-name="underscore" unicode="_" horiz-adv-x="933" 
d="M801 -340h-762l33 234h762z" />
    <glyph glyph-name="grave" unicode="`" horiz-adv-x="1228" 
d="M864 1470l172 -296h-229l-297 296h354z" />
    <glyph glyph-name="a" unicode="a" horiz-adv-x="1357" 
d="M977 131q-85 -74 -202 -114t-247 -40q-201 0 -320.5 86t-119.5 232t121 237.5t344 114.5l467 47l2 15q10 72 -59 114.5t-197 42.5q-119 0 -207 -43t-129 -121l-237 84q69 148 223.5 230t367.5 82q260 0 398.5 -108t113.5 -292l-59 -424q-6 -49 27 -63q15 -6 39 -6
q23 0 75 10l-30 -215q-64 -12 -119 -12q-69 0 -125 18q-100 38 -127 125zM578 197q159 0 272 61q116 64 131 156l10 75l-413 -45q-209 -24 -209 -131q0 -55 54.5 -85.5t154.5 -30.5z" />
    <glyph glyph-name="b" unicode="b" horiz-adv-x="1435" 
d="M1462 584q0 -257 -178 -432q-175 -175 -446 -175q-127 0 -236.5 44t-183.5 124l-21 -145h-288l206 1470h287l-72 -520q67 70 168.5 109t221.5 39q239 0 391 -146q151 -145 151 -368zM842 864q-164 0 -275 -102q-110 -101 -110 -252q0 -133 95.5 -216t248.5 -83
q163 0 274 102q113 101 113 252q0 133 -96 216t-250 83z" />
    <glyph glyph-name="c" unicode="c" horiz-adv-x="1265" 
d="M768 858q-161 0 -264 -100q-105 -99 -105 -248q0 -133 91.5 -213t240.5 -80q121 0 212 58t128 157l225 -123q-75 -160 -224.5 -246t-352.5 -86q-261 0 -430 146q-164 144 -164 377q0 257 184 426q187 172 473 172q217 0 369 -101q151 -98 192 -256l-249 -108
q-20 99 -111 162t-215 63z" />
    <glyph glyph-name="d" unicode="d" horiz-adv-x="1435" 
d="M668 -20q-243 0 -392 143q-151 145 -151 371q0 254 176 430q179 176 449 176q127 0 236 -44t183 -124l76 538h287l-207 -1470h-287l19 127q-66 -69 -168.5 -108t-220.5 -39zM745 213q164 0 275 102q110 101 110 252q0 133 -95.5 216t-248.5 83q-162 0 -276 -102
q-111 -102 -111 -252q0 -133 96 -216t250 -83z" />
    <glyph glyph-name="e" unicode="e" horiz-adv-x="1325" 
d="M737 211q116 0 206 50t134 140l234 -114q-80 -146 -235 -228t-353 -82q-259 0 -430 148q-168 149 -168 375q0 251 188 424q186 174 471 174q255 0 416 -140q160 -139 160 -358q0 -48 -17 -141h-946q19 -112 112.5 -180t227.5 -68zM768 868q-117 0 -210 -58t-136 -157h661
q-8 95 -94.5 155t-220.5 60z" />
    <glyph glyph-name="f" unicode="f" horiz-adv-x="968" 
d="M918 1493q151 0 288 -39l-71 -233q-124 28 -213 28q-109 0 -166.5 -38t-67.5 -119l-2 -15h412l-35 -239h-410l-116 -838h-283l117 838h-258l34 239h259l2 15q31 203 157 302t353 99z" />
    <glyph glyph-name="g" unicode="g" horiz-adv-x="1431" 
d="M1475 1077l-136 -956q-34 -235 -217 -371q-180 -137 -469 -137q-229 0 -393 78t-215 211l213 137q44 -94 152 -147.5t254 -53.5q340 0 387 283l8 45q-66 -72 -167 -111t-220 -39q-238 0 -393 140q-152 143 -152 360q0 244 176 414t442 170q130 0 240 -44t184 -126l19 147
h287zM748 246q158 0 268 96q110 98 110 242q0 123 -96 204q-95 80 -246 80q-162 0 -272 -98q-111 -99 -111 -240q0 -122 97 -204q100 -80 250 -80z" />
    <glyph glyph-name="h" unicode="h" horiz-adv-x="1361" 
d="M397 0h-286l206 1470h287l-76 -526q148 154 381 154q223 0 344 -142q124 -139 90 -362l-83 -594h-287l76 532q19 141 -49 224.5t-203 83.5t-221 -83t-105 -229z" />
    <glyph glyph-name="i" unicode="i" horiz-adv-x="505" 
d="M569 1204h-293l37 266h293zM262 1077h287l-152 -1077h-286z" />
    <glyph glyph-name="j" unicode="j" horiz-adv-x="505" 
d="M569 1204h-293l37 266h293zM-90 -150q94 0 142.5 43.5t60.5 137.5l149 1046h287l-150 -1050q-31 -210 -143 -310t-319 -100q-152 0 -273 43l70 219q95 -29 176 -29z" />
    <glyph glyph-name="k" unicode="k" horiz-adv-x="1361" 
d="M317 1470h287l-125 -882l643 489h404l-617 -459l482 -618h-349l-356 453l-252 -189l-37 -264h-286z" />
    <glyph glyph-name="l" unicode="l" horiz-adv-x="505" 
d="M317 1470h287l-207 -1470h-286z" />
    <glyph glyph-name="m" unicode="m" horiz-adv-x="2168" 
d="M788 842q-129 0 -213 -82t-104 -228l-74 -532h-286l151 1077h287l-21 -133q67 73 163 113.5t202 40.5q124 0 222.5 -54t141.5 -145q187 199 453 199q228 0 350 -140q124 -139 90 -366l-84 -592h-286l75 537q19 142 -43 223.5t-190 81.5t-211.5 -82t-103.5 -228l-74 -532
h-287l74 537q20 141 -41.5 223t-190.5 82z" />
    <glyph glyph-name="n" unicode="n" horiz-adv-x="1361" 
d="M397 0h-286l151 1077h287l-21 -133q148 154 381 154q223 0 344 -142q124 -139 90 -362l-83 -594h-287l76 532q19 141 -49 224.5t-203 83.5t-221 -83t-105 -229z" />
    <glyph glyph-name="o" unicode="o" horiz-adv-x="1353" 
d="M782 1098q264 0 430 -146q166 -144 166 -379q0 -255 -186 -426q-188 -170 -471 -170q-266 0 -432 144q-164 144 -164 381q0 256 186 424q187 172 471 172zM770 858q-165 0 -268 -100t-103 -246q0 -133 92 -214t242 -81q163 0 266 100q105 102 105 248q0 133 -92.5 213
t-241.5 80z" />
    <glyph glyph-name="p" unicode="p" horiz-adv-x="1435" 
d="M1462 584q0 -257 -178 -432q-175 -175 -446 -175q-127 0 -236.5 44t-183.5 124l-72 -510h-287l203 1442h287l-19 -127q67 70 168.5 109t221.5 39q239 0 391 -146q151 -145 151 -368zM842 864q-164 0 -275 -102q-110 -101 -110 -252q0 -133 95.5 -216t248.5 -83
q163 0 274 102q113 101 113 252q0 133 -96 216t-250 83z" />
    <glyph glyph-name="q" unicode="q" horiz-adv-x="1435" 
d="M668 -20q-243 0 -392 143q-151 145 -151 371q0 254 176 430q179 176 449 176q127 0 236 -44t183 -124l21 145h287l-203 -1442h-287l70 492q-66 -69 -168.5 -108t-220.5 -39zM745 213q164 0 275 102q110 101 110 252q0 133 -95.5 216t-248.5 83q-162 0 -276 -102
q-111 -102 -111 -252q0 -133 96 -216t250 -83z" />
    <glyph glyph-name="r" unicode="r" horiz-adv-x="944" 
d="M952 1083q61 0 119 -14l-39 -283q-70 19 -127 19q-195 0 -307 -87.5t-137 -258.5l-64 -459h-286l151 1077h287l-29 -190q150 196 432 196z" />
    <glyph glyph-name="s" unicode="s" horiz-adv-x="1196" 
d="M657 -23q-204 0 -374 65.5t-258 178.5l180 178q73 -96 195 -147t278 -51q121 0 186.5 30t65.5 86q0 66 -146 91l-106 14l-80 10q-246 38 -342 109q-94 70 -94 194q0 166 147 264.5t398 98.5q180 0 334 -59t229 -156l-180 -170q-63 75 -174.5 119.5t-241.5 44.5
q-108 0 -168 -28.5t-60 -78.5q0 -37 48 -59q44 -20 239 -47q275 -37 379 -109q105 -70 105 -199q0 -173 -152 -276q-151 -103 -408 -103z" />
    <glyph glyph-name="t" unicode="t" horiz-adv-x="1071" 
d="M729 -14q-217 0 -332 101.5t-90 274.5l66 476h-258l35 239h258l43 307h280l-41 -307h459l-35 -239h-459l-59 -430q-12 -87 32 -128.5t152 -41.5q117 0 248 49l21 -240q-163 -61 -320 -61z" />
    <glyph glyph-name="u" unicode="u" horiz-adv-x="1351" 
d="M1108 1077h287l-152 -1077h-287l19 133q-153 -156 -373 -156t-344 142q-122 143 -88 364l82 594h287l-76 -542q-20 -143 44.5 -225.5t199.5 -82.5q133 0 219.5 85t105.5 233z" />
    <glyph glyph-name="v" unicode="v" horiz-adv-x="1347" 
d="M1503 1077l-696 -1077h-295l-365 1077h304l249 -768l480 768h323z" />
    <glyph glyph-name="w" unicode="w" horiz-adv-x="1869" 
d="M575 348l381 729h248l135 -729l383 729h303l-598 -1077h-249l-150 717l-383 -717h-264l-234 1077h299z" />
    <glyph glyph-name="x" unicode="x" horiz-adv-x="1370" 
d="M1372 0h-348l-281 369l-385 -369h-360l582 547l-414 530h346l270 -352l367 352h358l-561 -530z" />
    <glyph glyph-name="y" unicode="y" horiz-adv-x="1347" 
d="M1503 1077l-731 -1153q-113 -177 -211 -241q-101 -66 -252 -66q-154 0 -266 47l78 227q85 -36 174 -36q62 0 103.5 26.5t82.5 93.5l37 56l-371 1046h308l252 -768l477 768h319z" />
    <glyph glyph-name="z" unicode="z" horiz-adv-x="1280" 
d="M516 240h729l-33 -240h-1142l30 213l807 625h-714l34 239h1131l-31 -215z" />
    <glyph glyph-name="braceleft" unicode="{" horiz-adv-x="864" 
d="M227 541h-110l33 229h92q120 0 141 154l35 233q49 354 428 354h211l-33 -225h-143q-94 0 -146 -46t-65 -144l-27 -193q-14 -100 -58 -161.5t-128 -96.5q139 -59 112 -258l-24 -172q-12 -104 25 -147t137 -43h141l-33 -226h-176q-189 0 -288.5 97t-76.5 258l33 233
q12 80 -7 117t-73 37z" />
    <glyph glyph-name="bar" unicode="|" horiz-adv-x="552" 
d="M387 -201h-278l241 1712h279z" />
    <glyph glyph-name="braceright" unicode="}" horiz-adv-x="864" 
d="M932 770l-33 -229h-92q-120 0 -141 -154l-35 -233q-49 -355 -428 -355h-211l33 226h143q94 0 146 46t65 144l27 193q14 100 58 161.5t128 96.5q-140 60 -113 258l25 172q12 104 -25 147t-137 43h-141l32 225h177q189 0 288 -96.5t76 -257.5l-33 -233q-12 -80 7 -117
t73 -37h111z" />
    <glyph glyph-name="asciitilde" unicode="~" horiz-adv-x="1036" 
d="M467 846q39 0 74.5 -15t89.5 -57q41 -31 63 -41t43 -10q80 0 121 125h217q-37 -187 -122.5 -295.5t-200.5 -108.5q-40 0 -76 15t-90 57q-40 31 -61 41t-42 10q-83 0 -123 -123h-215q32 183 119.5 292.5t202.5 109.5z" />
    <glyph glyph-name="uni00A0" unicode="&#xa0;" horiz-adv-x="413" 
 />
    <glyph glyph-name="exclamdown" unicode="&#xa1;" horiz-adv-x="626" 
d="M305 1145l45 325h340l-45 -325h-340zM131 0l217 1014h219l-69 -1014h-367z" />
    <glyph glyph-name="cent" unicode="&#xa2;" horiz-adv-x="1343" 
d="M811 -211h-229l28 201q-222 37 -350.5 174.5t-128.5 339.5q0 249 178 424q183 177 461 198l31 215h227l-31 -223q172 -29 289.5 -119.5t149.5 -218.5l-228 -114q-20 78 -84.5 136t-158.5 83l-95 -670q103 20 182.5 78.5t116.5 140.5l203 -131q-74 -140 -213 -224
t-321 -97zM393 520q0 -112 66.5 -192t183.5 -109l94 674q-157 -28 -250 -131q-94 -101 -94 -242z" />
    <glyph glyph-name="sterling" unicode="&#xa3;" horiz-adv-x="1796" 
d="M588 584h-328l29 202h205q-54 111 -54 209q0 113 68.5 214.5t191.5 170.5q197 113 471 113q302 0 482 -131q180 -128 180 -346q0 -76 -27 -152h-274q18 74 18 113q0 124 -105 193t-294 69q-190 0 -305 -80q-115 -77 -115 -198q0 -72 47 -175h535l-29 -202h-432
q8 -63 8 -90q0 -48 -12 -107q179 -96 264 -125q80 -24 154 -24q125 0 203.5 61t101.5 176h272q-29 -238 -175 -368t-384 -130q-121 0 -240 43q-115 43 -288 160q-149 -203 -406 -203q-143 0 -229 68t-86 184q0 130 106 211q110 84 273 84q107 0 196 -30q-2 28 -22 90z
M401 340q-61 0 -99 -25.5t-38 -66.5q0 -35 28.5 -55.5t76.5 -20.5q61 0 114 32t88 89q-90 47 -170 47z" />
    <glyph glyph-name="yen" unicode="&#xa5;" horiz-adv-x="1871" 
d="M842 356h-568l29 199h567l17 121h-568l29 198h377l-520 596h364l486 -569l645 569h381l-686 -596h379l-29 -198h-569l-17 -121h570l-29 -199h-570l-49 -356h-288z" />
    <glyph glyph-name="section" unicode="&#xa7;" horiz-adv-x="1642" 
d="M1544 508q51 -66 51 -148q0 -181 -177.5 -282t-497.5 -101q-286 0 -521 64q-236 64 -350 172l187 203q103 -99 289.5 -155t418.5 -56q346 0 346 133q0 41 -42 62.5t-136 27.5l-596 35q-148 10 -234.5 82.5t-86.5 185.5q0 142 131 236q-54 66 -54 153q0 174 175.5 273.5
t488.5 99.5q259 0 468 -55.5t322 -153.5l-174 -190q-205 163 -645 163q-171 0 -252.5 -28t-81.5 -88q0 -69 146 -78l553 -29q192 -12 295.5 -84.5t103.5 -195.5q0 -143 -127 -246zM610 684l561 -31q91 -3 189 -30q49 40 49 94q0 44 -45.5 66t-151.5 28l-583 33
q-70 3 -119 18q-61 -37 -61 -90q0 -79 161 -88z" />
    <glyph glyph-name="dieresis" unicode="&#xa8;" horiz-adv-x="1228" 
d="M680 1204h-295l37 266h295zM1184 1204h-295l37 266h295z" />
    <glyph glyph-name="copyright" unicode="&#xa9;" horiz-adv-x="1835" 
d="M1057 1493q348 0 577 -203q228 -200 228 -504q0 -171 -69 -324.5t-194 -266.5q-123 -105 -280.5 -161.5t-335.5 -56.5q-345 0 -575 201q-228 202 -228 506q0 349 246 580q247 229 631 229zM983 123q317 0 522 184q207 189 207 475q0 250 -182 406q-183 160 -473 160
q-320 0 -525 -187q-204 -186 -204 -473q0 -246 182 -405q186 -160 473 -160zM1010 305q-208 0 -340 111q-129 114 -129 291q0 197 147 329q148 133 373 133q172 0 290.5 -72t147.5 -194l-223 -84q-13 66 -74 105t-149 39q-117 0 -195 -70.5t-78 -175.5q0 -92 66 -148.5
t172 -56.5q82 0 145 38.5t92 106.5l207 -96q-63 -123 -180 -189.5t-272 -66.5z" />
    <glyph glyph-name="ordfeminine" unicode="&#xaa;" horiz-adv-x="997" 
d="M813 791q-126 -107 -317 -107q-146 0 -232 61.5t-86 165.5q0 105 87.5 172t246.5 80l328 31l2 14q5 45 -40.5 72t-129.5 27q-81 0 -139 -28t-84 -79l-197 57q50 109 163.5 168.5t274.5 59.5q189 0 288.5 -78t80.5 -211l-41 -287q-3 -33 18 -45q12 -4 29 -4q20 0 47 6
l-22 -166q-58 -10 -95 -10q-48 0 -88 12q-73 27 -94 89zM541 850q109 0 185.5 40.5t84.5 102.5l8 47l-284 -28q-136 -15 -136 -84q0 -37 38 -57.5t104 -20.5zM1038 385h-921l28 193h922z" />
    <glyph glyph-name="guillemotleft" unicode="&#xab;" horiz-adv-x="1116" 
d="M549 121l-416 278l39 267l492 278l-39 -285l-228 -137l189 -137zM1055 121l-416 278l39 267l491 278l-39 -285l-227 -137l189 -137z" />
    <glyph glyph-name="registered" unicode="&#xae;" horiz-adv-x="1069" 
d="M711 1493q205 0 338 -121q131 -119 131 -305q0 -206 -154 -348q-151 -139 -377 -139q-210 0 -340 118q-131 119 -131 303q0 213 152 353q151 139 381 139zM653 676q180 0 301 112q123 114 123 275q0 146 -104 240q-101 94 -266 94q-180 0 -304 -115q-120 -114 -120 -278
q0 -141 102 -236q106 -92 268 -92zM829 995l89 -182h-150l-66 150h-122l-23 -150h-137l65 461h279q79 0 126.5 -37.5t47.5 -99.5q0 -49 -29.5 -87t-79.5 -55zM795 1116q0 47 -58 47h-131l-14 -102h129q33 0 53.5 15t20.5 40z" />
    <glyph glyph-name="overscore" unicode="&#xaf;" horiz-adv-x="1228" 
d="M1190 1425l-31 -217h-749l30 217h750z" />
    <glyph glyph-name="degree" unicode="&#xb0;" horiz-adv-x="831" 
d="M203 1151q0 151 112 244q113 98 289 98q161 0 257.5 -80t96.5 -211q0 -147 -112 -244q-113 -98 -289 -98q-161 0 -257.5 80t-96.5 211zM401 1163q0 -60 44 -93.5t120 -33.5q86 0 141.5 43.5t55.5 110.5q0 59 -45 93t-121 34q-86 0 -140.5 -43t-54.5 -111z" />
    <glyph glyph-name="twosuperior" unicode="&#xb2;" horiz-adv-x="923" 
d="M154 657l24 166l443 215q93 44 135.5 83.5t42.5 80.5q0 43 -41.5 69.5t-108.5 26.5q-88 0 -151.5 -46t-89.5 -130l-199 47q36 144 157.5 229t297.5 85q164 0 263 -71t99 -189q0 -178 -246 -291l-192 -90h407l-26 -185h-815z" />
    <glyph glyph-name="threesuperior" unicode="&#xb3;" horiz-adv-x="960" 
d="M1042 897q0 -113 -116.5 -182.5t-313.5 -69.5q-179 0 -307.5 64t-163.5 170l203 88q20 -66 93.5 -104t178.5 -38q88 0 138.5 25t50.5 68q0 67 -156 67h-176l27 168h168q75 0 118 20.5t43 55.5q0 32 -41.5 51.5t-113.5 19.5q-94 0 -166 -30.5t-109 -85.5l-174 94
q60 98 180 151.5t281 53.5q177 0 281 -61.5t104 -164.5q0 -66 -44 -115.5t-122 -74.5q66 -20 101.5 -65t35.5 -105z" />
    <glyph glyph-name="acute" unicode="&#xb4;" horiz-adv-x="1228" 
d="M764 1174h-252l254 296h381z" />
    <glyph glyph-name="paragraph" unicode="&#xb6;" horiz-adv-x="1742" 
d="M1450 0h-272l174 1229h-295l-82 -578h-307q-214 0 -342 107q-129 108 -129 278q0 189 147 312q149 122 385 122h1196l-33 -241h-268z" />
    <glyph glyph-name="middot" unicode="&#xb7;" horiz-adv-x="499" 
d="M479 434h-336l45 332h336z" />
    <glyph glyph-name="cedilla" unicode="&#xb8;" horiz-adv-x="1228" 
d="M870 -207q0 -80 -79.5 -129t-212.5 -49q-185 0 -291 82l100 125q66 -60 186 -60q105 0 105 52q0 58 -189 55l70 156h137l-30 -70q94 -8 149 -51.5t55 -110.5z" />
    <glyph glyph-name="onesuperior" unicode="&#xb9;" horiz-adv-x="763" 
d="M408 846l45 321h-260l24 166l121 4q92 2 140.5 33t68.5 103h174l-88 -627h235l-26 -189h-723l26 189h263z" />
    <glyph glyph-name="ordmasculine" unicode="&#xba;" horiz-adv-x="1007" 
d="M682 1485q193 0 313 -105q121 -103 121 -270q0 -182 -135 -305t-342 -123q-193 0 -315 104q-121 106 -121 273q0 183 135 303q135 123 344 123zM674 1300q-109 0 -179.5 -67t-70.5 -166q0 -88 62.5 -143.5t160.5 -55.5q108 0 179 68t71 168q0 87 -62 141.5t-161 54.5z
M1001 385h-886l26 193h889z" />
    <glyph glyph-name="guillemotright" unicode="&#xbb;" horiz-adv-x="1116" 
d="M719 944l416 -278l-39 -267l-492 -278l39 285l227 137l-188 137zM213 944l416 -278l-39 -267l-492 -278l39 285l228 137l-189 137z" />
    <glyph glyph-name="onequarter" unicode="&#xbc;" horiz-adv-x="2062" 
d="M408 846l45 321h-260l24 166l121 4q92 2 140.5 33t68.5 103h174l-88 -627h235l-26 -189h-723l26 189h263zM350 0l1360 1470h264l-1358 -1470h-266zM1870 186l-27 -186h-215l27 186h-518l24 168l504 459h293l-64 -455h187l-25 -172h-186zM1718 631l-303 -273h264z" />
    <glyph glyph-name="onehalf" unicode="&#xbd;" horiz-adv-x="2138" 
d="M408 846l45 321h-260l24 166l121 4q92 2 140.5 33t68.5 103h174l-88 -627h235l-26 -189h-723l26 189h263zM350 0l1360 1470h264l-1358 -1470h-266zM1276 0l24 166l443 215q93 44 135.5 83.5t42.5 80.5q0 43 -41 69.5t-108 26.5q-88 0 -152 -46t-90 -130l-199 47
q36 144 157.5 228.5t297.5 84.5q164 0 263 -71t99 -189q0 -179 -245 -291l-193 -90h408l-27 -184h-815z" />
    <glyph glyph-name="threequarters" unicode="&#xbe;" horiz-adv-x="2146" 
d="M1042 897q0 -113 -116.5 -182.5t-313.5 -69.5q-179 0 -307.5 64t-163.5 170l203 88q20 -66 93.5 -104t178.5 -38q88 0 138.5 25t50.5 68q0 67 -156 67h-176l27 168h168q75 0 118 20.5t43 55.5q0 32 -41.5 51.5t-113.5 19.5q-94 0 -166 -30.5t-109 -85.5l-174 94
q60 98 180 151.5t281 53.5q177 0 281 -61.5t104 -164.5q0 -66 -44 -115.5t-122 -74.5q66 -20 101.5 -65t35.5 -105zM434 0l1360 1470h264l-1358 -1470h-266zM1954 186l-27 -186h-215l27 186h-518l24 168l504 459h293l-64 -455h187l-25 -172h-186zM1802 631l-303 -273h264z
" />
    <glyph glyph-name="questiondown" unicode="&#xbf;" horiz-adv-x="1447" 
d="M733 1491h338l-43 -326h-340zM406 453q0 -94 93 -146.5t259 -52.5q177 0 291.5 62.5t152.5 179.5l301 -47q-62 -214 -263 -332.5t-503 -118.5q-298 0 -475 115q-176 117 -176 317q0 193 157.5 316t438.5 143l23 145h290l-49 -348q-266 0 -403 -59t-137 -174z" />
    <glyph glyph-name="Agrave" unicode="&#xc0;" horiz-adv-x="1794" 
d="M-14 0l962 1470h338l520 -1470h-313l-119 342h-835l-222 -342h-331zM1286 598l-203 582l-376 -582h579zM1057 1864l196 -310h-239l-346 310h389z" />
    <glyph glyph-name="Aacute" unicode="&#xc1;" horiz-adv-x="1794" 
d="M-14 0l962 1470h338l520 -1470h-313l-119 342h-835l-222 -342h-331zM1286 598l-203 582l-376 -582h579zM1241 1554h-274l282 310h424z" />
    <glyph glyph-name="Acircumflex" unicode="&#xc2;" horiz-adv-x="1794" 
d="M-14 0l962 1470h338l520 -1470h-313l-119 342h-835l-222 -342h-331zM1286 598l-203 582l-376 -582h579zM997 1864h318l254 -310h-228l-198 138l-236 -138h-248z" />
    <glyph glyph-name="Atilde" unicode="&#xc3;" horiz-adv-x="1794" 
d="M-14 0l962 1470h338l520 -1470h-313l-119 342h-835l-222 -342h-331zM1286 598l-203 582l-376 -582h579zM946 1890q55 0 106.5 -14t129.5 -53q93 -43 133 -43q41 0 67 26t45 84h191q-26 -158 -103 -247t-186 -89q-53 0 -102.5 14t-128.5 54q-88 45 -135 45
q-41 0 -67 -27.5t-44 -85.5h-190q25 158 100 247t184 89z" />
    <glyph glyph-name="Adieresis" unicode="&#xc4;" horiz-adv-x="1794" 
d="M-14 0l962 1470h338l520 -1470h-313l-119 342h-835l-222 -342h-331zM1286 598l-203 582l-376 -582h579zM1001 1554h-294l36 271h295zM1522 1554h-295l37 271h295z" />
    <glyph glyph-name="Aring" unicode="&#xc5;" horiz-adv-x="1794" 
d="M831 1599q0 114 87 195q89 80 219 80q121 0 199.5 -70t78.5 -176q0 -62 -28.5 -119.5t-79.5 -95.5l499 -1413h-317l-119 342h-829l-224 -342h-331l927 1419q-82 69 -82 180zM1128 1722q-55 0 -91 -33t-36 -83q0 -43 33 -72t84 -29q54 0 89.5 32.5t35.5 82.5
q0 44 -32.5 73t-82.5 29zM1282 598l-199 576l-374 -576h573z" />
    <glyph glyph-name="AE" unicode="&#xc6;" horiz-adv-x="2910" 
d="M-20 0l1497 1470h1577l-37 -260h-1129l-45 -327h1010l-35 -258h-1012l-49 -365h1127l-37 -260h-1424l47 338h-761l-342 -338h-387zM1593 1214l-628 -622h542z" />
    <glyph glyph-name="Ccedilla" unicode="&#xc7;" horiz-adv-x="1710" 
d="M150 682q0 171 74.5 325.5t211.5 270.5q125 104 287.5 159.5t345.5 55.5q289 0 496 -127q206 -126 262 -340l-275 -129q-41 158 -175 245t-333 87q-256 0 -419 -150q-164 -150 -164 -381q0 -207 147 -333q147 -123 385 -123q179 0 315.5 80.5t215.5 234.5l241 -141
q-109 -210 -314.5 -324.5t-473.5 -114.5q-36 0 -57 3l-11 -25q94 -8 149.5 -51.5t55.5 -110.5q0 -80 -80 -129t-213 -49q-185 0 -291 82l101 125q66 -60 186 -60q105 0 105 52q0 58 -189 55l55 125q-290 49 -464 235t-174 453z" />
    <glyph glyph-name="Egrave" unicode="&#xc8;" horiz-adv-x="1615" 
d="M129 0l207 1470h1423l-37 -260h-1128l-45 -327h1010l-35 -258h-1012l-49 -365h1126l-37 -260h-1423zM1057 1864l196 -310h-239l-346 310h389z" />
    <glyph glyph-name="Eacute" unicode="&#xc9;" horiz-adv-x="1615" 
d="M129 0l207 1470h1423l-37 -260h-1128l-45 -327h1010l-35 -258h-1012l-49 -365h1126l-37 -260h-1423zM1155 1554h-274l282 310h424z" />
    <glyph glyph-name="Ecircumflex" unicode="&#xca;" horiz-adv-x="1615" 
d="M129 0l207 1470h1423l-37 -260h-1128l-45 -327h1010l-35 -258h-1012l-49 -365h1126l-37 -260h-1423zM938 1864h317l254 -310h-227l-199 138l-235 -138h-248z" />
    <glyph glyph-name="Edieresis" unicode="&#xcb;" horiz-adv-x="1615" 
d="M129 0l207 1470h1423l-37 -260h-1128l-45 -327h1010l-35 -258h-1012l-49 -365h1126l-37 -260h-1423zM942 1554h-295l37 271h295zM1462 1554h-295l37 271h295z" />
    <glyph glyph-name="Igrave" unicode="&#xcc;" horiz-adv-x="557" 
d="M336 1470h301l-207 -1470h-301zM424 1864l197 -310h-240l-346 310h389z" />
    <glyph glyph-name="Iacute" unicode="&#xcd;" horiz-adv-x="557" 
d="M336 1470h301l-207 -1470h-301zM633 1554h-275l283 310h424z" />
    <glyph glyph-name="Icircumflex" unicode="&#xce;" horiz-adv-x="557" 
d="M336 1470h301l-207 -1470h-301zM381 1864h317l254 -310h-227l-199 138l-235 -138h-248z" />
    <glyph glyph-name="Idieresis" unicode="&#xcf;" horiz-adv-x="557" 
d="M336 1470h301l-207 -1470h-301zM385 1554h-295l37 271h295zM905 1554h-295l37 271h295z" />
    <glyph glyph-name="Eth" unicode="&#xd0;" horiz-adv-x="1849" 
d="M997 0h-786l88 625h-201l37 256h199l84 589h710q351 0 564 -192q215 -191 215 -492q0 -172 -73 -323.5t-208 -261.5q-252 -201 -629 -201zM594 625l-51 -367h467q259 0 424 145q165 146 165 367q0 198 -137 320t-362 122h-424l-47 -331h336l-37 -256h-334z" />
    <glyph glyph-name="Ntilde" unicode="&#xd1;" horiz-adv-x="1773" 
d="M1561 1470h292l-206 -1470h-263l-811 1096l-153 -1096h-291l207 1470h303l776 -1044zM928 1890q54 0 105.5 -14t129.5 -53q93 -43 133 -43q41 0 67.5 26t45.5 84h190q-26 -158 -102.5 -247t-185.5 -89q-53 0 -103 14t-129 54q-88 45 -135 45q-40 0 -66 -27.5t-44 -85.5
h-191q25 158 100.5 247t184.5 89z" />
    <glyph glyph-name="Ograve" unicode="&#xd2;" horiz-adv-x="1830" 
d="M981 -23q-365 0 -598 199t-233 508q0 170 72.5 324.5t207.5 269.5q123 105 283.5 160t343.5 55q366 0 596 -199q233 -199 233 -508q0 -171 -72.5 -325t-205.5 -266q-257 -218 -627 -218zM991 242q258 0 420 149q164 150 164 379q0 205 -145 332t-386 127
q-250 0 -419 -152q-164 -150 -164 -377q0 -206 145 -333q146 -125 385 -125zM1092 1864l196 -310h-239l-347 310h390z" />
    <glyph glyph-name="Oacute" unicode="&#xd3;" horiz-adv-x="1830" 
d="M981 -23q-365 0 -598 199t-233 508q0 170 72.5 324.5t207.5 269.5q123 105 283.5 160t343.5 55q366 0 596 -199q233 -199 233 -508q0 -171 -72.5 -325t-205.5 -266q-257 -218 -627 -218zM991 242q258 0 420 149q164 150 164 379q0 205 -145 332t-386 127
q-250 0 -419 -152q-164 -150 -164 -377q0 -206 145 -333q146 -125 385 -125zM1243 1554h-274l282 310h424z" />
    <glyph glyph-name="Ocircumflex" unicode="&#xd4;" horiz-adv-x="1830" 
d="M981 -23q-365 0 -598 199t-233 508q0 170 72.5 324.5t207.5 269.5q123 105 283.5 160t343.5 55q366 0 596 -199q233 -199 233 -508q0 -171 -72.5 -325t-205.5 -266q-257 -218 -627 -218zM991 242q258 0 420 149q164 150 164 379q0 205 -145 332t-386 127
q-250 0 -419 -152q-164 -150 -164 -377q0 -206 145 -333q146 -125 385 -125zM1018 1864h317l254 -310h-227l-199 138l-235 -138h-248z" />
    <glyph glyph-name="Otilde" unicode="&#xd5;" horiz-adv-x="1830" 
d="M981 -23q-365 0 -598 199t-233 508q0 170 72.5 324.5t207.5 269.5q123 105 283.5 160t343.5 55q366 0 596 -199q233 -199 233 -508q0 -171 -72.5 -325t-205.5 -266q-257 -218 -627 -218zM991 242q258 0 420 149q164 150 164 379q0 205 -145 332t-386 127
q-250 0 -419 -152q-164 -150 -164 -377q0 -206 145 -333q146 -125 385 -125zM965 1890q54 0 105.5 -14t129.5 -53q93 -43 133 -43q41 0 67.5 26t45.5 84h190q-26 -158 -102.5 -247t-185.5 -89q-53 0 -103 14t-129 54q-88 45 -135 45q-41 0 -67 -27.5t-44 -85.5h-190
q25 158 100.5 247t184.5 89z" />
    <glyph glyph-name="Odieresis" unicode="&#xd6;" horiz-adv-x="1830" 
d="M981 -23q-365 0 -598 199t-233 508q0 170 72.5 324.5t207.5 269.5q123 105 283.5 160t343.5 55q366 0 596 -199q233 -199 233 -508q0 -171 -72.5 -325t-205.5 -266q-257 -218 -627 -218zM991 242q258 0 420 149q164 150 164 379q0 205 -145 332t-386 127
q-250 0 -419 -152q-164 -150 -164 -377q0 -206 145 -333q146 -125 385 -125zM1022 1554h-295l37 271h295zM1542 1554h-295l37 271h295z" />
    <glyph glyph-name="multiply" unicode="&#xd7;" 
d="M190 252l558 487l-420 488l188 166l422 -488l553 484l156 -177l-553 -487l417 -487l-188 -166l-422 489l-555 -489z" />
    <glyph glyph-name="Oslash" unicode="&#xd8;" horiz-adv-x="1828" 
d="M238 -59l-154 176l197 168q-131 171 -131 399q0 170 72.5 324.5t207.5 269.5q123 105 283.5 160t343.5 55q314 0 540 -156l197 166l154 -178l-181 -154q119 -171 119 -385q0 -171 -72.5 -325t-205.5 -266q-257 -218 -627 -218q-311 0 -528 148zM1044 1233
q-252 0 -421 -152q-166 -150 -166 -381q0 -136 65 -239l840 694q-135 78 -318 78zM991 238q255 0 420 151q166 150 166 381q0 124 -55 223l-834 -686q123 -69 303 -69z" />
    <glyph glyph-name="Ugrave" unicode="&#xd9;" horiz-adv-x="1689" 
d="M895 -20q-378 0 -565 190q-190 196 -144 524l109 776h303l-109 -759q-32 -228 74.5 -347.5t343.5 -119.5q220 0 337.5 111.5t152.5 355.5l108 759h301l-108 -776q-51 -364 -248 -539t-555 -175zM1049 1864l196 -310h-239l-347 310h390z" />
    <glyph glyph-name="Uacute" unicode="&#xda;" horiz-adv-x="1689" 
d="M895 -20q-378 0 -565 190q-190 196 -144 524l109 776h303l-109 -759q-32 -228 74.5 -347.5t343.5 -119.5q220 0 337.5 111.5t152.5 355.5l108 759h301l-108 -776q-51 -364 -248 -539t-555 -175zM1159 1554h-274l282 310h424z" />
    <glyph glyph-name="Ucircumflex" unicode="&#xdb;" horiz-adv-x="1689" 
d="M895 -20q-378 0 -565 190q-190 196 -144 524l109 776h303l-109 -759q-32 -228 74.5 -347.5t343.5 -119.5q220 0 337.5 111.5t152.5 355.5l108 759h301l-108 -776q-51 -364 -248 -539t-555 -175zM946 1864h318l254 -310h-228l-198 138l-236 -138h-248z" />
    <glyph glyph-name="Udieresis" unicode="&#xdc;" horiz-adv-x="1689" 
d="M895 -20q-378 0 -565 190q-190 196 -144 524l109 776h303l-109 -759q-32 -228 74.5 -347.5t343.5 -119.5q220 0 337.5 111.5t152.5 355.5l108 759h301l-108 -776q-51 -364 -248 -539t-555 -175zM950 1554h-295l37 271h295zM1470 1554h-294l36 271h295z" />
    <glyph glyph-name="Yacute" unicode="&#xdd;" horiz-adv-x="1751" 
d="M545 1470l442 -610l615 610h370l-858 -845l-88 -625h-301l88 625l-620 845h352zM1192 1554h-274l282 310h424z" />
    <glyph glyph-name="Thorn" unicode="&#xde;" horiz-adv-x="1640" 
d="M1712 791q0 -225 -166 -363q-162 -137 -434 -137h-641l-41 -291h-301l207 1470h301l-35 -249h596q237 0 375 -117q139 -118 139 -313zM1165 969h-598l-61 -426h604q136 0 221.5 66t85.5 171q0 88 -67.5 138.5t-184.5 50.5z" />
    <glyph glyph-name="germandbls" unicode="&#xdf;" horiz-adv-x="1495" 
d="M952 1493q238 0 374 -101.5t130 -269.5q-1 -102 -68 -184.5t-178 -120.5q152 -38 232.5 -134.5t75.5 -236.5q-6 -208 -172 -340q-166 -129 -422 -129q-148 0 -273 49.5t-188 133.5l153 196q54 -68 139 -106.5t181 -38.5q136 0 220.5 69.5t86.5 180.5q2 104 -94.5 159.5
t-280.5 55.5h-219l35 242h199q130 0 212.5 51t84.5 133q2 74 -64.5 117t-181.5 43q-167 0 -273 -91t-129 -253l-129 -918h-284l127 915q41 266 229 420q193 158 477 158z" />
    <glyph glyph-name="agrave" unicode="&#xe0;" horiz-adv-x="1357" 
d="M977 131q-85 -74 -202 -114t-247 -40q-201 0 -320.5 86t-119.5 232t121 237.5t344 114.5l467 47l2 15q10 72 -59 114.5t-197 42.5q-119 0 -207 -43t-129 -121l-237 84q69 148 223.5 230t367.5 82q260 0 398.5 -108t113.5 -292l-59 -424q-6 -49 27 -63q15 -6 39 -6
q23 0 75 10l-30 -215q-64 -12 -119 -12q-69 0 -125 18q-100 38 -127 125zM578 197q159 0 272 61q116 64 131 156l10 75l-413 -45q-209 -24 -209 -131q0 -55 54.5 -85.5t154.5 -30.5zM823 1470l172 -296h-229l-297 296h354z" />
    <glyph glyph-name="aacute" unicode="&#xe1;" horiz-adv-x="1357" 
d="M977 131q-85 -74 -202 -114t-247 -40q-201 0 -320.5 86t-119.5 232t121 237.5t344 114.5l467 47l2 15q10 72 -59 114.5t-197 42.5q-119 0 -207 -43t-129 -121l-237 84q69 148 223.5 230t367.5 82q260 0 398.5 -108t113.5 -292l-59 -424q-6 -49 27 -63q15 -6 39 -6
q23 0 75 10l-30 -215q-64 -12 -119 -12q-69 0 -125 18q-100 38 -127 125zM578 197q159 0 272 61q116 64 131 156l10 75l-413 -45q-209 -24 -209 -131q0 -55 54.5 -85.5t154.5 -30.5zM934 1174h-252l254 296h381z" />
    <glyph glyph-name="acircumflex" unicode="&#xe2;" horiz-adv-x="1357" 
d="M977 131q-85 -74 -202 -114t-247 -40q-201 0 -320.5 86t-119.5 232t121 237.5t344 114.5l467 47l2 15q10 72 -59 114.5t-197 42.5q-119 0 -207 -43t-129 -121l-237 84q69 148 223.5 230t367.5 82q260 0 398.5 -108t113.5 -292l-59 -424q-6 -49 27 -63q15 -6 39 -6
q23 0 75 10l-30 -215q-64 -12 -119 -12q-69 0 -125 18q-100 38 -127 125zM578 197q159 0 272 61q116 64 131 156l10 75l-413 -45q-209 -24 -209 -131q0 -55 54.5 -85.5t154.5 -30.5zM719 1470h291l223 -296h-213l-170 118l-203 -118h-235z" />
    <glyph glyph-name="atilde" unicode="&#xe3;" horiz-adv-x="1357" 
d="M977 131q-85 -74 -202 -114t-247 -40q-201 0 -320.5 86t-119.5 232t121 237.5t344 114.5l467 47l2 15q10 72 -59 114.5t-197 42.5q-119 0 -207 -43t-129 -121l-237 84q69 148 223.5 230t367.5 82q260 0 398.5 -108t113.5 -292l-59 -424q-6 -49 27 -63q15 -6 39 -6
q23 0 75 10l-30 -215q-64 -12 -119 -12q-69 0 -125 18q-100 38 -127 125zM578 197q159 0 272 61q116 64 131 156l10 75l-413 -45q-209 -24 -209 -131q0 -55 54.5 -85.5t154.5 -30.5zM682 1487q41 0 79 -12.5t95 -47.5q45 -28 68.5 -36.5t48.5 -8.5q62 0 96 105h177
q-26 -150 -96 -231.5t-173 -81.5q-42 0 -79.5 12.5t-96.5 46.5q-45 28 -67.5 36.5t-47.5 8.5q-68 0 -96 -104h-176q25 148 95 230.5t173 82.5z" />
    <glyph glyph-name="adieresis" unicode="&#xe4;" horiz-adv-x="1357" 
d="M977 131q-85 -74 -202 -114t-247 -40q-201 0 -320.5 86t-119.5 232t121 237.5t344 114.5l467 47l2 15q10 72 -59 114.5t-197 42.5q-119 0 -207 -43t-129 -121l-237 84q69 148 223.5 230t367.5 82q260 0 398.5 -108t113.5 -292l-59 -424q-6 -49 27 -63q15 -6 39 -6
q23 0 75 10l-30 -215q-64 -12 -119 -12q-69 0 -125 18q-100 38 -127 125zM578 197q159 0 272 61q116 64 131 156l10 75l-413 -45q-209 -24 -209 -131q0 -55 54.5 -85.5t154.5 -30.5zM729 1204h-295l37 266h295zM1233 1204h-295l37 266h295z" />
    <glyph glyph-name="aring" unicode="&#xe5;" horiz-adv-x="1357" 
d="M977 131q-85 -74 -202 -114t-247 -40q-201 0 -320.5 86t-119.5 232t121 237.5t344 114.5l467 47l2 15q10 72 -59 114.5t-197 42.5q-119 0 -207 -43t-129 -121l-237 84q69 148 223.5 230t367.5 82q260 0 398.5 -108t113.5 -292l-59 -424q-6 -49 27 -63q15 -6 39 -6
q23 0 75 10l-30 -215q-64 -12 -119 -12q-69 0 -125 18q-100 38 -127 125zM578 197q159 0 272 61q116 64 131 156l10 75l-413 -45q-209 -24 -209 -131q0 -55 54.5 -85.5t154.5 -30.5zM838 1149q-94 0 -159 60.5t-65 148.5q0 92 72 164q72 69 176 69q97 0 160 -59t63 -150
q0 -92 -71 -163q-70 -70 -176 -70zM856 1462q-41 0 -68.5 -28.5t-27.5 -69.5q0 -37 23.5 -60.5t60.5 -23.5q41 0 68.5 28.5t27.5 69.5q0 37 -23.5 60.5t-60.5 23.5z" />
    <glyph glyph-name="ae" unicode="&#xe6;" horiz-adv-x="2195" 
d="M1591 -23q-157 0 -287 59t-212 165q-91 -109 -232 -166.5t-315 -57.5q-210 0 -333.5 86.5t-123.5 233.5q0 159 129 254q131 98 350 98h445l10 66q11 68 -58.5 109.5t-193.5 41.5q-121 0 -210 -43t-130 -121l-237 84q69 148 223.5 230t367.5 82q305 0 435 -142
q181 142 434 142q254 0 415 -140q160 -139 160 -358q0 -61 -14 -141h-948q19 -112 112.5 -180t227.5 -68q116 0 206 50t134 140l233 -114q-80 -148 -233.5 -229t-354.5 -81zM1636 870q-119 0 -213 -59.5t-135 -161.5h666q-8 98 -95.5 159.5t-222.5 61.5zM371 322
q0 -60 58.5 -92.5t164.5 -32.5q152 0 260 63q111 63 127 158l6 41h-403q-102 0 -157.5 -36.5t-55.5 -100.5z" />
    <glyph glyph-name="ccedilla" unicode="&#xe7;" horiz-adv-x="1265" 
d="M125 500q0 257 184 426q187 172 473 172q217 0 369 -101q151 -98 192 -256l-249 -108q-20 99 -111 162t-215 63q-161 0 -264 -100q-105 -99 -105 -248q0 -133 91.5 -213t240.5 -80q121 0 212 58t128 157l225 -123q-75 -160 -224.5 -246t-352.5 -86h-14l-11 -22
q94 -8 149.5 -51.5t55.5 -110.5q0 -80 -80 -129t-213 -49q-185 0 -291 82l101 125q66 -60 186 -60q105 0 105 52q0 58 -189 55l55 121q-206 41 -327 176q-121 139 -121 334z" />
    <glyph glyph-name="egrave" unicode="&#xe8;" horiz-adv-x="1325" 
d="M737 211q116 0 206 50t134 140l234 -114q-80 -146 -235 -228t-353 -82q-259 0 -430 148q-168 149 -168 375q0 251 188 424q186 174 471 174q255 0 416 -140q160 -139 160 -358q0 -48 -17 -141h-946q19 -112 112.5 -180t227.5 -68zM768 868q-117 0 -210 -58t-136 -157h661
q-8 95 -94.5 155t-220.5 60zM836 1470l172 -296h-230l-297 296h355z" />
    <glyph glyph-name="eacute" unicode="&#xe9;" horiz-adv-x="1325" 
d="M737 211q116 0 206 50t134 140l234 -114q-80 -146 -235 -228t-353 -82q-259 0 -430 148q-168 149 -168 375q0 251 188 424q186 174 471 174q255 0 416 -140q160 -139 160 -358q0 -48 -17 -141h-946q19 -112 112.5 -180t227.5 -68zM768 868q-117 0 -210 -58t-136 -157h661
q-8 95 -94.5 155t-220.5 60zM954 1174h-252l254 296h381z" />
    <glyph glyph-name="ecircumflex" unicode="&#xea;" horiz-adv-x="1325" 
d="M737 211q116 0 206 50t134 140l234 -114q-80 -146 -235 -228t-353 -82q-259 0 -430 148q-168 149 -168 375q0 251 188 424q186 174 471 174q255 0 416 -140q160 -139 160 -358q0 -48 -17 -141h-946q19 -112 112.5 -180t227.5 -68zM768 868q-117 0 -210 -58t-136 -157h661
q-8 95 -94.5 155t-220.5 60zM737 1470h291l223 -296h-213l-170 118l-203 -118h-235z" />
    <glyph glyph-name="edieresis" unicode="&#xeb;" horiz-adv-x="1325" 
d="M737 211q116 0 206 50t134 140l234 -114q-80 -146 -235 -228t-353 -82q-259 0 -430 148q-168 149 -168 375q0 251 188 424q186 174 471 174q255 0 416 -140q160 -139 160 -358q0 -48 -17 -141h-946q19 -112 112.5 -180t227.5 -68zM768 868q-117 0 -210 -58t-136 -157h661
q-8 95 -94.5 155t-220.5 60zM735 1204h-295l37 266h295zM1239 1204h-295l37 266h295z" />
    <glyph glyph-name="igrave" unicode="&#xec;" horiz-adv-x="505" 
d="M262 1077h287l-152 -1077h-286zM373 1470l172 -296h-230l-297 296h355z" />
    <glyph glyph-name="iacute" unicode="&#xed;" horiz-adv-x="505" 
d="M262 1077h287l-152 -1077h-286zM537 1174h-252l254 296h381z" />
    <glyph glyph-name="icircumflex" unicode="&#xee;" horiz-adv-x="505" 
d="M262 1077h287l-152 -1077h-286zM316 1470h291l223 -296h-213l-170 118l-203 -118h-235z" />
    <glyph glyph-name="idieresis" unicode="&#xef;" horiz-adv-x="505" 
d="M262 1077h287l-152 -1077h-286zM319 1204h-294l36 266h295zM823 1204h-295l37 266h295z" />
    <glyph glyph-name="eth" unicode="&#xf0;" horiz-adv-x="1351" 
d="M762 1085q172 0 287 -65q-43 88 -148 174l-493 -107l28 205l254 56q-96 57 -170 90l301 53q100 -47 148 -82l399 86l-27 -205l-188 -41q113 -125 173 -280.5t60 -325.5q0 -299 -184 -483q-186 -183 -481 -183q-266 0 -432 144q-164 144 -164 381q0 251 180 416
q179 167 457 167zM770 858q-165 0 -268 -100t-103 -246q0 -133 92 -214t242 -81q163 0 266 100q105 102 105 248q0 133 -92.5 213t-241.5 80z" />
    <glyph glyph-name="ntilde" unicode="&#xf1;" horiz-adv-x="1361" 
d="M397 0h-286l151 1077h287l-21 -133q148 154 381 154q223 0 344 -142q124 -139 90 -362l-83 -594h-287l76 532q19 141 -49 224.5t-203 83.5t-221 -83t-105 -229zM725 1487q41 0 79 -12.5t95 -47.5q45 -28 68.5 -36.5t48.5 -8.5q62 0 96 105h177q-26 -150 -96 -231.5
t-173 -81.5q-42 0 -79.5 12.5t-96.5 46.5q-45 28 -67.5 36.5t-47.5 8.5q-68 0 -96 -104h-176q25 148 95 230.5t173 82.5z" />
    <glyph glyph-name="ograve" unicode="&#xf2;" horiz-adv-x="1353" 
d="M782 1098q264 0 430 -146q166 -144 166 -379q0 -255 -186 -426q-188 -170 -471 -170q-266 0 -432 144q-164 144 -164 381q0 256 186 424q187 172 471 172zM770 858q-165 0 -268 -100t-103 -246q0 -133 92 -214t242 -81q163 0 266 100q105 102 105 248q0 133 -92.5 213
t-241.5 80zM815 1473l172 -297h-229l-297 297h354z" />
    <glyph glyph-name="oacute" unicode="&#xf3;" horiz-adv-x="1353" 
d="M782 1098q264 0 430 -146q166 -144 166 -379q0 -255 -186 -426q-188 -170 -471 -170q-266 0 -432 144q-164 144 -164 381q0 256 186 424q187 172 471 172zM770 858q-165 0 -268 -100t-103 -246q0 -133 92 -214t242 -81q163 0 266 100q105 102 105 248q0 133 -92.5 213
t-241.5 80zM950 1174h-252l254 296h381z" />
    <glyph glyph-name="ocircumflex" unicode="&#xf4;" horiz-adv-x="1353" 
d="M782 1098q264 0 430 -146q166 -144 166 -379q0 -255 -186 -426q-188 -170 -471 -170q-266 0 -432 144q-164 144 -164 381q0 256 186 424q187 172 471 172zM770 858q-165 0 -268 -100t-103 -246q0 -133 92 -214t242 -81q163 0 266 100q105 102 105 248q0 133 -92.5 213
t-241.5 80zM737 1470h291l223 -296h-213l-170 118l-203 -118h-235z" />
    <glyph glyph-name="otilde" unicode="&#xf5;" horiz-adv-x="1353" 
d="M782 1098q264 0 430 -146q166 -144 166 -379q0 -255 -186 -426q-188 -170 -471 -170q-266 0 -432 144q-164 144 -164 381q0 256 186 424q187 172 471 172zM770 858q-165 0 -268 -100t-103 -246q0 -133 92 -214t242 -81q163 0 266 100q105 102 105 248q0 133 -92.5 213
t-241.5 80zM716 1487q41 0 79 -12.5t95 -47.5q45 -28 68.5 -36.5t48.5 -8.5q62 0 96 105h177q-26 -150 -96 -231.5t-173 -81.5q-42 0 -79.5 12.5t-96.5 46.5q-45 28 -67.5 36.5t-47.5 8.5q-68 0 -96 -104h-176q25 148 95 230.5t173 82.5z" />
    <glyph glyph-name="odieresis" unicode="&#xf6;" horiz-adv-x="1353" 
d="M782 1098q264 0 430 -146q166 -144 166 -379q0 -255 -186 -426q-188 -170 -471 -170q-266 0 -432 144q-164 144 -164 381q0 256 186 424q187 172 471 172zM770 858q-165 0 -268 -100t-103 -246q0 -133 92 -214t242 -81q163 0 266 100q105 102 105 248q0 133 -92.5 213
t-241.5 80zM741 1204h-295l37 266h295zM1245 1204h-295l37 266h295z" />
    <glyph glyph-name="divide" unicode="&#xf7;" 
d="M1118 1055h-305l41 297h307zM1599 602h-1392l35 246h1392zM983 98h-305l41 297h307z" />
    <glyph glyph-name="oslash" unicode="&#xf8;" horiz-adv-x="1353" 
d="M125 502q0 256 186 424q187 172 471 172q213 0 367 -97l154 136l135 -148l-144 -127q84 -122 84 -289q0 -255 -186 -426q-188 -170 -471 -170q-207 0 -367 97l-151 -133l-133 145l139 125q-84 125 -84 291zM770 864q-162 0 -270 -102q-105 -102 -105 -250q0 -70 29 -133
l520 448q-75 37 -174 37zM733 211q163 0 268 102q107 101 107 252q0 65 -29 131l-516 -450q75 -35 170 -35z" />
    <glyph glyph-name="ugrave" unicode="&#xf9;" horiz-adv-x="1351" 
d="M1108 1077h287l-152 -1077h-287l19 133q-153 -156 -373 -156t-344 142q-122 143 -88 364l82 594h287l-76 -542q-20 -143 44.5 -225.5t199.5 -82.5q133 0 219.5 85t105.5 233zM815 1470l172 -296h-229l-297 296h354z" />
    <glyph glyph-name="uacute" unicode="&#xfa;" horiz-adv-x="1351" 
d="M1108 1077h287l-152 -1077h-287l19 133q-153 -156 -373 -156t-344 142q-122 143 -88 364l82 594h287l-76 -542q-20 -143 44.5 -225.5t199.5 -82.5q133 0 219.5 85t105.5 233zM942 1174h-252l254 296h381z" />
    <glyph glyph-name="ucircumflex" unicode="&#xfb;" horiz-adv-x="1351" 
d="M1108 1077h287l-152 -1077h-287l19 133q-153 -156 -373 -156t-344 142q-122 143 -88 364l82 594h287l-76 -542q-20 -143 44.5 -225.5t199.5 -82.5q133 0 219.5 85t105.5 233zM733 1470h291l223 -296h-213l-170 118l-203 -118h-235z" />
    <glyph glyph-name="udieresis" unicode="&#xfc;" horiz-adv-x="1351" 
d="M1108 1077h287l-152 -1077h-287l19 133q-153 -156 -373 -156t-344 142q-122 143 -88 364l82 594h287l-76 -542q-20 -143 44.5 -225.5t199.5 -82.5q133 0 219.5 85t105.5 233zM737 1204h-295l37 266h295zM1241 1204h-295l37 266h295z" />
    <glyph glyph-name="yacute" unicode="&#xfd;" horiz-adv-x="1347" 
d="M1503 1077l-731 -1153q-113 -177 -211 -241q-101 -66 -252 -66q-154 0 -266 47l78 227q85 -36 174 -36q62 0 103.5 26.5t82.5 93.5l37 56l-371 1046h308l252 -768l477 768h319zM942 1174h-252l254 296h381z" />
    <glyph glyph-name="thorn" unicode="&#xfe;" horiz-adv-x="1435" 
d="M838 -23q-127 0 -236.5 44t-183.5 124l-72 -510h-287l258 1835h287l-74 -520q67 70 168.5 109t221.5 39q239 0 391 -146q151 -145 151 -368q0 -257 -178 -432q-175 -175 -446 -175zM1188 565q0 133 -96 216t-250 83q-164 0 -275 -102q-110 -101 -110 -252
q0 -133 95.5 -216t248.5 -83q163 0 274 102q113 101 113 252z" />
    <glyph glyph-name="ydieresis" unicode="&#xff;" horiz-adv-x="1347" 
d="M1503 1077l-731 -1153q-113 -177 -211 -241q-101 -66 -252 -66q-154 0 -266 47l78 227q85 -36 174 -36q62 0 103.5 26.5t82.5 93.5l37 56l-371 1046h308l252 -768l477 768h319zM739 1204h-295l37 266h295zM1243 1204h-295l37 266h295z" />
    <glyph glyph-name="Amacron" unicode="&#x100;" horiz-adv-x="1794" 
d="M-14 0l962 1470h338l520 -1470h-313l-119 342h-835l-222 -342h-331zM1286 598l-203 582l-376 -582h579zM1548 1794l-32 -223h-801l30 223h803z" />
    <glyph glyph-name="amacron" unicode="&#x101;" horiz-adv-x="1357" 
d="M977 131q-85 -74 -202 -114t-247 -40q-201 0 -320.5 86t-119.5 232t121 237.5t344 114.5l467 47l2 15q10 72 -59 114.5t-197 42.5q-119 0 -207 -43t-129 -121l-237 84q69 148 223.5 230t367.5 82q260 0 398.5 -108t113.5 -292l-59 -424q-6 -49 27 -63q15 -6 39 -6
q23 0 75 10l-30 -215q-64 -12 -119 -12q-69 0 -125 18q-100 38 -127 125zM578 197q159 0 272 61q116 64 131 156l10 75l-413 -45q-209 -24 -209 -131q0 -55 54.5 -85.5t154.5 -30.5zM1225 1425l-31 -217h-750l31 217h750z" />
    <glyph glyph-name="Abreve" unicode="&#x102;" horiz-adv-x="1794" 
d="M-14 0l962 1470h338l520 -1470h-313l-119 342h-835l-222 -342h-331zM1286 598l-203 582l-376 -582h579zM1149 1739q86 0 142.5 34.5t64.5 90.5h209q-17 -150 -128.5 -234t-299.5 -84q-190 0 -296.5 87.5t-92.5 230.5h208q-6 -54 49.5 -89.5t143.5 -35.5z" />
    <glyph glyph-name="abreve" unicode="&#x103;" horiz-adv-x="1357" 
d="M977 131q-85 -74 -202 -114t-247 -40q-201 0 -320.5 86t-119.5 232t121 237.5t344 114.5l467 47l2 15q10 72 -59 114.5t-197 42.5q-119 0 -207 -43t-129 -121l-237 84q69 148 223.5 230t367.5 82q260 0 398.5 -108t113.5 -292l-59 -424q-6 -49 27 -63q15 -6 39 -6
q23 0 75 10l-30 -215q-64 -12 -119 -12q-69 0 -125 18q-100 38 -127 125zM578 197q159 0 272 61q116 64 131 156l10 75l-413 -45q-209 -24 -209 -131q0 -55 54.5 -85.5t154.5 -30.5zM876 1356q161 0 195 114h196q-23 -148 -127.5 -225.5t-277.5 -77.5q-185 0 -282.5 81
t-78.5 222h197q-1 -55 44.5 -84.5t133.5 -29.5z" />
    <glyph glyph-name="Aogonek" unicode="&#x104;" horiz-adv-x="1794" 
d="M1468 -377q-117 0 -188.5 50t-71.5 132q0 83 68 152t194 111l-96 274h-835l-222 -342h-331l962 1470h338l520 -1470h-151q-248 -62 -248 -139q0 -31 30 -48.5t85 -17.5q46 0 106 17l-24 -172q-83 -17 -136 -17zM1286 598l-203 582l-376 -582h579z" />
    <glyph glyph-name="aogonek" unicode="&#x105;" horiz-adv-x="1357" 
d="M977 131q-85 -74 -202 -114t-247 -40q-201 0 -320.5 86t-119.5 232t121 237.5t344 114.5l467 47l2 15q10 72 -59 114.5t-197 42.5q-119 0 -207 -43t-129 -121l-237 84q69 148 223.5 230t367.5 82q260 0 398.5 -108t113.5 -292l-59 -424q-6 -49 27 -63q15 -6 41 -6
q21 0 73 10l-30 -215q-248 -62 -248 -139q0 -31 29.5 -48.5t84.5 -17.5q48 0 107 17l-25 -172q-83 -17 -135 -17q-117 0 -188.5 50t-71.5 132q0 63 42.5 120t121.5 100q-66 38 -88 106zM578 197q159 0 272 61q116 64 131 156l10 75l-413 -45q-209 -24 -209 -131
q0 -55 54.5 -85.5t154.5 -30.5z" />
    <glyph glyph-name="Cacute" unicode="&#x106;" horiz-adv-x="1710" 
d="M1044 1229q-256 0 -419 -150q-164 -150 -164 -381q0 -207 147 -333q147 -123 385 -123q179 0 315.5 80.5t215.5 234.5l241 -141q-109 -210 -314.5 -324.5t-473.5 -114.5q-364 0 -596 197q-231 196 -231 508q0 171 74.5 325.5t211.5 270.5q125 104 287.5 159.5t345.5 55.5
q289 0 496 -127q206 -126 262 -340l-275 -129q-41 158 -175 245t-333 87zM1251 1554h-274l283 310h423z" />
    <glyph glyph-name="cacute" unicode="&#x107;" horiz-adv-x="1265" 
d="M768 858q-161 0 -264 -100q-105 -99 -105 -248q0 -133 91.5 -213t240.5 -80q121 0 212 58t128 157l225 -123q-75 -160 -224.5 -246t-352.5 -86q-261 0 -430 146q-164 144 -164 377q0 257 184 426q187 172 473 172q217 0 369 -101q151 -98 192 -256l-249 -108
q-20 99 -111 162t-215 63zM944 1174h-252l254 296h381z" />
    <glyph glyph-name="Ccircumflex" unicode="&#x108;" horiz-adv-x="1710" 
d="M1044 1229q-256 0 -419 -150q-164 -150 -164 -381q0 -207 147 -333q147 -123 385 -123q179 0 315.5 80.5t215.5 234.5l241 -141q-109 -210 -314.5 -324.5t-473.5 -114.5q-364 0 -596 197q-231 196 -231 508q0 171 74.5 325.5t211.5 270.5q125 104 287.5 159.5t345.5 55.5
q289 0 496 -127q206 -126 262 -340l-275 -129q-41 158 -175 245t-333 87zM1014 1864h317l254 -310h-227l-199 138l-235 -138h-248z" />
    <glyph glyph-name="ccircumflex" unicode="&#x109;" horiz-adv-x="1265" 
d="M768 858q-161 0 -264 -100q-105 -99 -105 -248q0 -133 91.5 -213t240.5 -80q121 0 212 58t128 157l225 -123q-75 -160 -224.5 -246t-352.5 -86q-261 0 -430 146q-164 144 -164 377q0 257 184 426q187 172 473 172q217 0 369 -101q151 -98 192 -256l-249 -108
q-20 99 -111 162t-215 63zM737 1470h291l223 -296h-213l-170 118l-203 -118h-235z" />
    <glyph glyph-name="Cdotaccent" unicode="&#x10a;" horiz-adv-x="1710" 
d="M1044 1229q-256 0 -419 -150q-164 -150 -164 -381q0 -207 147 -333q147 -123 385 -123q179 0 315.5 80.5t215.5 234.5l241 -141q-109 -210 -314.5 -324.5t-473.5 -114.5q-364 0 -596 197q-231 196 -231 508q0 171 74.5 325.5t211.5 270.5q125 104 287.5 159.5t345.5 55.5
q289 0 496 -127q206 -126 262 -340l-275 -129q-41 158 -175 245t-333 87zM1274 1554h-307l37 271h307z" />
    <glyph glyph-name="cdotaccent" unicode="&#x10b;" horiz-adv-x="1265" 
d="M768 858q-161 0 -264 -100q-105 -99 -105 -248q0 -133 91.5 -213t240.5 -80q121 0 212 58t128 157l225 -123q-75 -160 -224.5 -246t-352.5 -86q-261 0 -430 146q-164 144 -164 377q0 257 184 426q187 172 473 172q217 0 369 -101q151 -98 192 -256l-249 -108
q-20 99 -111 162t-215 63zM991 1204h-295l37 266h295z" />
    <glyph glyph-name="Ccaron" unicode="&#x10c;" horiz-adv-x="1710" 
d="M1044 1229q-256 0 -419 -150q-164 -150 -164 -381q0 -207 147 -333q147 -123 385 -123q179 0 315.5 80.5t215.5 234.5l241 -141q-109 -210 -314.5 -324.5t-473.5 -114.5q-364 0 -596 197q-231 196 -231 508q0 171 74.5 325.5t211.5 270.5q125 104 287.5 159.5t345.5 55.5
q289 0 496 -127q206 -126 262 -340l-275 -129q-41 158 -175 245t-333 87zM1630 1864l-340 -310h-317l-252 310h225l199 -138l237 138h248z" />
    <glyph glyph-name="ccaron" unicode="&#x10d;" horiz-adv-x="1265" 
d="M768 858q-161 0 -264 -100q-105 -99 -105 -248q0 -133 91.5 -213t240.5 -80q121 0 212 58t128 157l225 -123q-75 -160 -224.5 -246t-352.5 -86q-261 0 -430 146q-164 144 -164 377q0 257 184 426q187 172 473 172q217 0 369 -101q151 -98 192 -256l-249 -108
q-20 99 -111 162t-215 63zM1296 1470l-307 -296h-289l-223 296h211l170 -116l205 116h233z" />
    <glyph glyph-name="Dcaron" unicode="&#x10e;" horiz-adv-x="1767" 
d="M915 0h-786l207 1470h711q350 0 563 -192q215 -191 215 -492q0 -172 -73 -323.5t-208 -261.5q-252 -201 -629 -201zM594 1212l-133 -954h467q259 0 424 145q166 147 166 367q0 197 -138 320q-137 122 -362 122h-424zM1530 1864l-340 -310h-318l-251 310h225l198 -138
l238 138h248z" />
    <glyph glyph-name="dcaron" unicode="&#x10f;" horiz-adv-x="1433" 
d="M668 -20q-243 0 -392 143q-151 145 -151 371q0 254 176 430q179 176 449 176q127 0 236 -44t183 -124l76 538h287l-207 -1470h-287l19 127q-66 -69 -168.5 -108t-220.5 -39zM745 213q164 0 275 102q110 101 110 252q0 133 -95.5 216t-248.5 83q-162 0 -276 -102
q-111 -102 -111 -252q0 -133 96 -216t250 -83zM1774 1130h-197l100 340h314z" />
    <glyph glyph-name="Dcroat" unicode="&#x110;" horiz-adv-x="1849" 
d="M997 0h-786l88 625h-201l37 256h199l84 589h710q351 0 564 -192q215 -191 215 -492q0 -172 -73 -323.5t-208 -261.5q-252 -201 -629 -201zM594 625l-51 -367h467q259 0 424 145q165 146 165 367q0 198 -137 320t-362 122h-424l-47 -331h336l-37 -256h-334z" />
    <glyph glyph-name="dslash" unicode="&#x111;" horiz-adv-x="1509" 
d="M750 1100q127 0 236 -44t183 -124l31 223h-307l29 209h309l14 106h287l-14 -106h147l-29 -209h-149l-162 -1155h-287l19 127q-66 -69 -168.5 -108t-220.5 -39q-243 0 -392 143q-151 145 -151 371q0 254 176 430q179 176 449 176zM399 512q0 -133 96 -216t250 -83
q164 0 275 102q110 101 110 252q0 133 -95.5 216t-248.5 83q-162 0 -276 -102q-111 -102 -111 -252z" />
    <glyph glyph-name="Emacron" unicode="&#x112;" horiz-adv-x="1615" 
d="M129 0l207 1470h1423l-37 -260h-1128l-45 -327h1010l-35 -258h-1012l-49 -365h1126l-37 -260h-1423zM1489 1794l-33 -223h-801l31 223h803z" />
    <glyph glyph-name="emacron" unicode="&#x113;" horiz-adv-x="1325" 
d="M737 211q116 0 206 50t134 140l234 -114q-80 -146 -235 -228t-353 -82q-259 0 -430 148q-168 149 -168 375q0 251 188 424q186 174 471 174q255 0 416 -140q160 -139 160 -358q0 -48 -17 -141h-946q19 -112 112.5 -180t227.5 -68zM768 868q-117 0 -210 -58t-136 -157h661
q-8 95 -94.5 155t-220.5 60zM1245 1425l-31 -217h-749l31 217h749z" />
    <glyph glyph-name="Ebreve" unicode="&#x114;" horiz-adv-x="1615" 
d="M129 0l207 1470h1423l-37 -260h-1128l-45 -327h1010l-35 -258h-1012l-49 -365h1126l-37 -260h-1423zM1090 1739q86 0 142 34.5t64 90.5h209q-17 -150 -128.5 -234t-299.5 -84q-190 0 -296.5 87.5t-92.5 230.5h209q-6 -54 49.5 -89.5t143.5 -35.5z" />
    <glyph glyph-name="ebreve" unicode="&#x115;" horiz-adv-x="1325" 
d="M737 211q116 0 206 50t134 140l234 -114q-80 -146 -235 -228t-353 -82q-259 0 -430 148q-168 149 -168 375q0 251 188 424q186 174 471 174q255 0 416 -140q160 -139 160 -358q0 -48 -17 -141h-946q19 -112 112.5 -180t227.5 -68zM768 868q-117 0 -210 -58t-136 -157h661
q-8 95 -94.5 155t-220.5 60zM874 1356q161 0 195 114h196q-23 -148 -127.5 -225.5t-277.5 -77.5q-185 0 -282.5 81t-78.5 222h197q-1 -55 44.5 -84.5t133.5 -29.5z" />
    <glyph glyph-name="Edotaccent" unicode="&#x116;" horiz-adv-x="1615" 
d="M129 0l207 1470h1423l-37 -260h-1128l-45 -327h1010l-35 -258h-1012l-49 -365h1126l-37 -260h-1423zM1208 1554h-307l37 271h307z" />
    <glyph glyph-name="edotaccent" unicode="&#x117;" horiz-adv-x="1325" 
d="M737 211q116 0 206 50t134 140l234 -114q-80 -146 -235 -228t-353 -82q-259 0 -430 148q-168 149 -168 375q0 251 188 424q186 174 471 174q255 0 416 -140q160 -139 160 -358q0 -48 -17 -141h-946q19 -112 112.5 -180t227.5 -68zM768 868q-117 0 -210 -58t-136 -157h661
q-8 95 -94.5 155t-220.5 60zM983 1204h-295l37 266h295z" />
    <glyph glyph-name="Eogonek" unicode="&#x118;" horiz-adv-x="1615" 
d="M1214 -377q-117 0 -188.5 50t-71.5 132q0 110 123 195h-948l207 1470h1423l-37 -260h-1128l-45 -327h1010l-35 -258h-1012l-49 -365h1126l-37 -260h-151q-248 -62 -248 -139q0 -31 30 -48.5t85 -17.5q46 0 106 17l-24 -172q-83 -17 -136 -17z" />
    <glyph glyph-name="eogonek" unicode="&#x119;" horiz-adv-x="1325" 
d="M1014 -188l-25 -172q-80 -17 -133 -17q-118 0 -190 53.5t-72 141.5q0 87 72 162q-245 12 -394 155q-147 144 -147 369q0 256 180 424q182 170 465 170q279 0 447 -160q164 -157 137 -401q0 -23 -11 -78h-946q19 -115 107 -181.5t219 -66.5q116 0 205.5 49.5t136.5 140.5
l231 -114q-103 -186 -323 -267q-93 -36 -136.5 -71t-43.5 -76q0 -37 30.5 -57.5t85.5 -20.5q46 0 105 17zM762 868q-116 0 -207.5 -58t-134.5 -157h663q-9 90 -104 152q-89 63 -217 63z" />
    <glyph glyph-name="Ecaron" unicode="&#x11a;" horiz-adv-x="1615" 
d="M129 0l207 1470h1423l-37 -260h-1128l-45 -327h1010l-35 -258h-1012l-49 -365h1126l-37 -260h-1423zM1552 1864l-340 -310h-317l-252 310h225l199 -138l238 138h247z" />
    <glyph glyph-name="ecaron" unicode="&#x11b;" horiz-adv-x="1325" 
d="M737 211q116 0 206 50t134 140l234 -114q-80 -146 -235 -228t-353 -82q-259 0 -430 148q-168 149 -168 375q0 251 188 424q186 174 471 174q255 0 416 -140q160 -139 160 -358q0 -48 -17 -141h-946q19 -112 112.5 -180t227.5 -68zM768 868q-117 0 -210 -58t-136 -157h661
q-8 95 -94.5 155t-220.5 60zM1292 1470l-307 -296h-289l-223 296h211l170 -116l205 116h233z" />
    <glyph glyph-name="Gcircumflex" unicode="&#x11c;" horiz-adv-x="1837" 
d="M1743 0h-283l23 162q-197 -185 -512 -185q-358 0 -590 197q-231 200 -231 508q0 172 75.5 327.5t214.5 270.5q130 103 294 158t347 55q299 0 512 -127q214 -126 273 -336l-279 -119q-41 148 -181.5 233t-342.5 85q-265 0 -434 -150q-168 -146 -168 -379q0 -211 145 -338
q146 -122 391 -122q199 0 349 84q147 81 194 227h-661l34 254h942zM1038 1864h318l254 -310h-228l-198 138l-236 -138h-248z" />
    <glyph glyph-name="gcircumflex" unicode="&#x11d;" horiz-adv-x="1425" 
d="M1475 1077l-136 -956q-34 -235 -217 -371q-180 -137 -469 -137q-229 0 -393 78t-215 211l213 137q44 -94 152 -147.5t254 -53.5q340 0 387 283l8 45q-66 -72 -167 -111t-220 -39q-238 0 -393 140q-152 143 -152 360q0 244 176 414t442 170q130 0 240 -44t184 -126l19 147
h287zM748 246q158 0 268 96q110 98 110 242q0 123 -96 204q-95 80 -246 80q-162 0 -272 -98q-111 -99 -111 -240q0 -122 97 -204q100 -80 250 -80zM752 1470h290l224 -296h-213l-170 118l-203 -118h-236z" />
    <glyph glyph-name="Gbreve" unicode="&#x11e;" horiz-adv-x="1837" 
d="M1743 0h-283l23 162q-197 -185 -512 -185q-358 0 -590 197q-231 200 -231 508q0 172 75.5 327.5t214.5 270.5q130 103 294 158t347 55q299 0 512 -127q214 -126 273 -336l-279 -119q-41 148 -181.5 233t-342.5 85q-265 0 -434 -150q-168 -146 -168 -379q0 -211 145 -338
q146 -122 391 -122q199 0 349 84q147 81 194 227h-661l34 254h942zM1190 1739q86 0 142.5 34.5t64.5 90.5h209q-17 -150 -128.5 -234t-299.5 -84q-190 0 -297 87.5t-93 230.5h209q-6 -54 49.5 -89.5t143.5 -35.5z" />
    <glyph glyph-name="gbreve" unicode="&#x11f;" horiz-adv-x="1425" 
d="M1475 1077l-136 -956q-34 -235 -217 -371q-180 -137 -469 -137q-229 0 -393 78t-215 211l213 137q44 -94 152 -147.5t254 -53.5q340 0 387 283l8 45q-66 -72 -167 -111t-220 -39q-238 0 -393 140q-152 143 -152 360q0 244 176 414t442 170q130 0 240 -44t184 -126l19 147
h287zM748 246q158 0 268 96q110 98 110 242q0 123 -96 204q-95 80 -246 80q-162 0 -272 -98q-111 -99 -111 -240q0 -122 97 -204q100 -80 250 -80zM895 1356q161 0 195 114h196q-23 -148 -127.5 -225.5t-277.5 -77.5q-185 0 -282.5 81t-78.5 222h197q-1 -55 44.5 -84.5
t133.5 -29.5z" />
    <glyph glyph-name="Gdotaccent" unicode="&#x120;" horiz-adv-x="1837" 
d="M1743 0h-283l23 162q-197 -185 -512 -185q-358 0 -590 197q-231 200 -231 508q0 172 75.5 327.5t214.5 270.5q130 103 294 158t347 55q299 0 512 -127q214 -126 273 -336l-279 -119q-41 148 -181.5 233t-342.5 85q-265 0 -434 -150q-168 -146 -168 -379q0 -211 145 -338
q146 -122 391 -122q199 0 349 84q147 81 194 227h-661l34 254h942zM1305 1554h-308l37 271h307z" />
    <glyph glyph-name="gdotaccent" unicode="&#x121;" horiz-adv-x="1425" 
d="M1475 1077l-136 -956q-34 -235 -217 -371q-180 -137 -469 -137q-229 0 -393 78t-215 211l213 137q44 -94 152 -147.5t254 -53.5q340 0 387 283l8 45q-66 -72 -167 -111t-220 -39q-238 0 -393 140q-152 143 -152 360q0 244 176 414t442 170q130 0 240 -44t184 -126l19 147
h287zM748 246q158 0 268 96q110 98 110 242q0 123 -96 204q-95 80 -246 80q-162 0 -272 -98q-111 -99 -111 -240q0 -122 97 -204q100 -80 250 -80zM1022 1204h-295l37 266h295z" />
    <glyph glyph-name="Gcommaaccent" unicode="&#x122;" horiz-adv-x="1837" 
d="M1743 0h-283l23 162q-197 -185 -512 -185q-358 0 -590 197q-231 200 -231 508q0 172 75.5 327.5t214.5 270.5q130 103 294 158t347 55q299 0 512 -127q214 -126 273 -336l-279 -119q-41 148 -181.5 233t-342.5 85q-265 0 -434 -150q-168 -146 -168 -379q0 -211 145 -338
q146 -122 391 -122q199 0 349 84q147 81 194 227h-661l34 254h942zM829 -244h-106l22 174h287l-16 -123q-13 -112 -96 -171.5t-224 -59.5l17 115q103 0 116 65z" />
    <glyph glyph-name="gcommaaccent" unicode="&#x123;" horiz-adv-x="1425" 
d="M1475 1077l-136 -956q-34 -235 -217 -371q-180 -137 -469 -137q-229 0 -393 78t-215 211l213 137q44 -94 152 -147.5t254 -53.5q340 0 387 283l8 45q-66 -72 -167 -111t-220 -39q-238 0 -393 140q-152 143 -152 360q0 244 176 414t442 170q130 0 240 -44t184 -126l19 147
h287zM748 246q158 0 268 96q110 98 110 242q0 123 -96 204q-95 80 -246 80q-162 0 -272 -98q-111 -99 -111 -240q0 -122 97 -204q100 -80 250 -80zM930 1348h106l-22 -174h-287l16 122q13 112 96 172t224 60l-16 -115q-49 0 -80 -17t-37 -48z" />
    <glyph glyph-name="Hcircumflex" unicode="&#x124;" horiz-adv-x="1804" 
d="M1499 885l82 585h303l-207 -1470h-303l88 625h-944l-88 -625h-301l207 1470h301l-82 -585h944zM989 1864h318l254 -310h-228l-198 138l-236 -138h-248z" />
    <glyph glyph-name="hcircumflex" unicode="&#x125;" horiz-adv-x="1361" 
d="M397 0h-286l206 1470h287l-76 -526q148 154 381 154q223 0 344 -142q124 -139 90 -362l-83 -594h-287l76 532q19 141 -49 224.5t-203 83.5t-221 -83t-105 -229zM764 1864h317l254 -310h-227l-199 138l-235 -138h-248z" />
    <glyph glyph-name="Hbar" unicode="&#x126;" horiz-adv-x="1902" 
d="M2075 1206l-37 -254h-178l-134 -952h-303l70 485h-946l-68 -485h-303l133 952h-168l37 254h168l37 264h303l-37 -264h944l37 264h303l-37 -264h179zM614 952l-30 -213h944l31 213h-945z" />
    <glyph glyph-name="hbar" unicode="&#x127;" horiz-adv-x="1435" 
d="M471 0h-287l162 1155h-147l28 209h150l14 106h287l-14 -106h327l-30 -209h-328l-31 -211q148 154 381 154q223 0 344 -142q124 -139 90 -362l-84 -594h-286l75 532q19 141 -49 224.5t-203 83.5t-220.5 -82.5t-104.5 -229.5z" />
    <glyph glyph-name="Itilde" unicode="&#x128;" horiz-adv-x="557" 
d="M336 1470h301l-207 -1470h-301zM328 1890q54 0 105.5 -14t129.5 -53q93 -43 133 -43q41 0 67.5 26t45.5 84h190q-26 -158 -102.5 -247t-185.5 -89q-53 0 -103 14t-129 54q-88 45 -135 45q-41 0 -67 -27.5t-44 -85.5h-190q25 158 100.5 247t184.5 89z" />
    <glyph glyph-name="itilde" unicode="&#x129;" horiz-adv-x="505" 
d="M262 1077h287l-152 -1077h-286zM293 1487q41 0 79 -12.5t95 -47.5q45 -28 68.5 -36.5t48.5 -8.5q62 0 96 105h177q-26 -150 -96 -231.5t-173 -81.5q-42 0 -79.5 12.5t-96.5 46.5q-45 28 -67.5 36.5t-47.5 8.5q-68 0 -96 -104h-176q25 148 95 230.5t173 82.5z" />
    <glyph glyph-name="Imacron" unicode="&#x12a;" horiz-adv-x="557" 
d="M336 1470h301l-207 -1470h-301zM932 1794l-33 -223h-801l31 223h803z" />
    <glyph glyph-name="imacron" unicode="&#x12b;" horiz-adv-x="505" 
d="M262 1077h287l-152 -1077h-286zM829 1425l-30 -217h-750l31 217h749z" />
    <glyph glyph-name="Ibreve" unicode="&#x12c;" horiz-adv-x="557" 
d="M336 1470h301l-207 -1470h-301zM532 1739q86 0 142.5 34.5t64.5 90.5h209q-17 -150 -128.5 -234t-299.5 -84q-190 0 -296.5 87.5t-92.5 230.5h209q-6 -54 49 -89.5t143 -35.5z" />
    <glyph glyph-name="ibreve" unicode="&#x12d;" horiz-adv-x="505" 
d="M262 1077h287l-152 -1077h-286zM453 1356q161 0 195 114h196q-23 -148 -127.5 -225.5t-277.5 -77.5q-185 0 -282.5 81t-78.5 222h197q-1 -55 44.5 -84.5t133.5 -29.5z" />
    <glyph glyph-name="Iogonek" unicode="&#x12e;" horiz-adv-x="557" 
d="M244 -377q-117 0 -188.5 50t-71.5 132q0 124 147 211l205 1454h301l-207 -1470q-248 -62 -248 -139q0 -31 30 -48.5t85 -17.5q47 0 106 17l-24 -172q-83 -17 -135 -17z" />
    <glyph glyph-name="iogonek" unicode="&#x12f;" horiz-adv-x="505" 
d="M569 1204h-293l37 266h293zM211 -377q-117 0 -188.5 50t-71.5 132q0 63 42.5 120t121.5 100l147 1052h287l-152 -1077q-247 -62 -247 -139q0 -31 29.5 -48.5t84.5 -17.5q48 0 107 17l-25 -172q-83 -17 -135 -17z" />
    <glyph glyph-name="Idot" unicode="&#x130;" horiz-adv-x="557" 
d="M336 1470h301l-207 -1470h-301zM651 1554h-307l37 271h307z" />
    <glyph glyph-name="dotlessi" unicode="&#x131;" horiz-adv-x="505" 
d="M262 1077h287l-152 -1077h-286z" />
    <glyph glyph-name="Jcircumflex" unicode="&#x134;" horiz-adv-x="1470" 
d="M752 -23q-262 0 -457 121q-191 121 -238 314l277 147q29 -142 146 -229.5t280 -87.5q165 0 272 89t127 244l127 895h301l-127 -909q-41 -275 -227 -430q-189 -154 -481 -154zM1327 1864h318l253 -310h-227l-198 138l-236 -138h-248z" />
    <glyph glyph-name="jcircumflex" unicode="&#x135;" horiz-adv-x="505" 
d="M-90 -150q94 0 142.5 43.5t60.5 137.5l149 1046h287l-150 -1050q-31 -210 -143 -310t-319 -100q-152 0 -273 43l70 219q95 -29 176 -29zM313 1470h291l223 -296h-213l-170 118l-202 -118h-236z" />
    <glyph glyph-name="Kcommaaccent" unicode="&#x136;" horiz-adv-x="1697" 
d="M336 1470h301l-98 -692l911 692h436l-831 -618l671 -852h-374l-535 676l-325 -242l-62 -434h-301zM795 -244h-107l23 174h286l-16 -123q-13 -112 -95.5 -171.5t-223.5 -59.5l16 115q49 0 80 17t37 48z" />
    <glyph glyph-name="kcommaaccent" unicode="&#x137;" horiz-adv-x="1361" 
d="M317 1470h287l-125 -882l643 489h404l-617 -459l482 -618h-349l-356 453l-252 -189l-37 -264h-286zM639 -244h-107l23 174h287l-17 -123q-13 -112 -95.5 -171.5t-223.5 -59.5l16 115q49 0 80 17t37 48z" />
    <glyph glyph-name="kgreenlandic" unicode="&#x138;" horiz-adv-x="1361" 
d="M262 1077h287l-70 -489l641 489h406l-617 -459l482 -618h-349l-356 451l-252 -189l-37 -262h-286z" />
    <glyph glyph-name="Lacute" unicode="&#x139;" horiz-adv-x="1507" 
d="M1464 0h-1335l207 1470h301l-170 -1210h1034zM635 1554h-275l283 310h424z" />
    <glyph glyph-name="lacute" unicode="&#x13a;" horiz-adv-x="505" 
d="M317 1470h287l-207 -1470h-286zM614 1554h-274l283 310h424z" />
    <glyph glyph-name="Lcommaaccent" unicode="&#x13b;" horiz-adv-x="1507" 
d="M1464 0h-1335l207 1470h301l-170 -1210h1034zM557 -244h-106l22 174h287l-17 -123q-13 -112 -95.5 -171.5t-223.5 -59.5l16 115q49 0 80 17t37 48z" />
    <glyph glyph-name="lcommaaccent" unicode="&#x13c;" horiz-adv-x="505" 
d="M317 1470h287l-207 -1470h-286zM184 -244h-106l22 174h287l-16 -123q-13 -112 -96 -171.5t-224 -59.5l17 115q103 0 116 65z" />
    <glyph glyph-name="Lcaron" unicode="&#x13d;" horiz-adv-x="1507" 
d="M1464 0h-1335l207 1470h301l-170 -1210h1034zM1030 1130h-196l100 340h313z" />
    <glyph glyph-name="lcaron" unicode="&#x13e;" horiz-adv-x="503" 
d="M317 1470h287l-207 -1470h-286zM846 1130h-197l101 340h313z" />
    <glyph glyph-name="Ldot" unicode="&#x13f;" horiz-adv-x="1507" 
d="M1464 0h-1335l207 1470h301l-170 -1210h1034zM1335 623h-295l37 266h295z" />
    <glyph glyph-name="ldot" unicode="&#x140;" horiz-adv-x="849" 
d="M317 1470h287l-207 -1470h-286zM905 610h-295l37 267h295z" />
    <glyph glyph-name="Lslash" unicode="&#x141;" horiz-adv-x="1560" 
d="M1520 0h-1336l68 477l-205 -76l37 269l205 75l102 725h301l-88 -624l463 164l-39 -271l-461 -164l-45 -315h1034z" />
    <glyph glyph-name="lslash" unicode="&#x142;" horiz-adv-x="718" 
d="M866 1094l-41 -271l-223 -104l-100 -719h-287l84 594l-219 -102l37 270l219 102l86 606h287l-68 -481z" />
    <glyph glyph-name="Nacute" unicode="&#x143;" horiz-adv-x="1773" 
d="M1561 1470h292l-206 -1470h-263l-811 1096l-153 -1096h-291l207 1470h303l776 -1044zM1198 1554h-274l282 310h424z" />
    <glyph glyph-name="nacute" unicode="&#x144;" horiz-adv-x="1361" 
d="M397 0h-286l151 1077h287l-21 -133q148 154 381 154q223 0 344 -142q124 -139 90 -362l-83 -594h-287l76 532q19 141 -49 224.5t-203 83.5t-221 -83t-105 -229zM971 1174h-252l254 296h381z" />
    <glyph glyph-name="Ncommaaccent" unicode="&#x145;" horiz-adv-x="1773" 
d="M1561 1470h292l-206 -1470h-263l-811 1096l-153 -1096h-291l207 1470h303l776 -1044zM809 -244h-107l23 174h287l-17 -123q-13 -112 -95.5 -171.5t-223.5 -59.5l16 115q49 0 80 17t37 48z" />
    <glyph glyph-name="ncommaaccent" unicode="&#x146;" horiz-adv-x="1361" 
d="M397 0h-286l151 1077h287l-21 -133q148 154 381 154q223 0 344 -142q124 -139 90 -362l-83 -594h-287l76 532q19 141 -49 224.5t-203 83.5t-221 -83t-105 -229zM614 -244h-106l22 174h287l-16 -123q-13 -112 -96 -171.5t-224 -59.5l17 115q103 0 116 65z" />
    <glyph glyph-name="Ncaron" unicode="&#x147;" horiz-adv-x="1773" 
d="M1561 1470h292l-206 -1470h-263l-811 1096l-153 -1096h-291l207 1470h303l776 -1044zM1595 1864l-340 -310h-317l-252 310h225l199 -138l238 138h247z" />
    <glyph glyph-name="ncaron" unicode="&#x148;" horiz-adv-x="1361" 
d="M397 0h-286l151 1077h287l-21 -133q148 154 381 154q223 0 344 -142q124 -139 90 -362l-83 -594h-287l76 532q19 141 -49 224.5t-203 83.5t-221 -83t-105 -229zM1307 1470l-308 -296h-288l-224 296h211l170 -116l205 116h234z" />
    <glyph glyph-name="Eng" unicode="&#x14a;" horiz-adv-x="1773" 
d="M1415 426l146 1044h292l-204 -1443q-31 -210 -143.5 -310t-319.5 -100q-141 0 -275 41l72 223q103 -28 178 -28q94 0 139.5 39.5t57.5 130.5l2 14l-787 1059l-153 -1096h-291l207 1470h303z" />
    <glyph glyph-name="eng" unicode="&#x14b;" horiz-adv-x="1370" 
d="M909 1098q223 0 344 -142q124 -139 90 -362l-79 -567q-31 -210 -143.5 -310t-319.5 -100q-141 0 -275 41l72 223q103 -28 178 -28q94 0 141.5 42t59.5 138l72 499q19 141 -49 224.5t-203 83.5t-221 -83t-105 -229l-74 -528h-286l151 1077h287l-21 -133q148 154 381 154z
" />
    <glyph glyph-name="Omacron" unicode="&#x14c;" horiz-adv-x="1830" 
d="M981 -23q-365 0 -598 199t-233 508q0 170 72.5 324.5t207.5 269.5q123 105 283.5 160t343.5 55q366 0 596 -199q233 -199 233 -508q0 -171 -72.5 -325t-205.5 -266q-257 -218 -627 -218zM991 242q258 0 420 149q164 150 164 379q0 205 -145 332t-386 127
q-250 0 -419 -152q-164 -150 -164 -377q0 -206 145 -333q146 -125 385 -125zM1569 1794l-33 -223h-801l31 223h803z" />
    <glyph glyph-name="omacron" unicode="&#x14d;" horiz-adv-x="1353" 
d="M782 1098q264 0 430 -146q166 -144 166 -379q0 -255 -186 -426q-188 -170 -471 -170q-266 0 -432 144q-164 144 -164 381q0 256 186 424q187 172 471 172zM770 858q-165 0 -268 -100t-103 -246q0 -133 92 -214t242 -81q163 0 266 100q105 102 105 248q0 133 -92.5 213
t-241.5 80zM1251 1425l-30 -217h-750l31 217h749z" />
    <glyph glyph-name="Obreve" unicode="&#x14e;" horiz-adv-x="1830" 
d="M981 -23q-365 0 -598 199t-233 508q0 170 72.5 324.5t207.5 269.5q123 105 283.5 160t343.5 55q366 0 596 -199q233 -199 233 -508q0 -171 -72.5 -325t-205.5 -266q-257 -218 -627 -218zM991 242q258 0 420 149q164 150 164 379q0 205 -145 332t-386 127
q-250 0 -419 -152q-164 -150 -164 -377q0 -206 145 -333q146 -125 385 -125zM1169 1739q86 0 142.5 34.5t64.5 90.5h209q-17 -150 -128.5 -234t-299.5 -84q-190 0 -296.5 87.5t-92.5 230.5h209q-6 -54 49 -89.5t143 -35.5z" />
    <glyph glyph-name="obreve" unicode="&#x14f;" horiz-adv-x="1353" 
d="M782 1098q264 0 430 -146q166 -144 166 -379q0 -255 -186 -426q-188 -170 -471 -170q-266 0 -432 144q-164 144 -164 381q0 256 186 424q187 172 471 172zM770 858q-165 0 -268 -100t-103 -246q0 -133 92 -214t242 -81q163 0 266 100q105 102 105 248q0 133 -92.5 213
t-241.5 80zM874 1356q161 0 195 114h196q-23 -148 -127.5 -225.5t-277.5 -77.5q-185 0 -282.5 81t-78.5 222h197q-1 -55 44.5 -84.5t133.5 -29.5z" />
    <glyph glyph-name="Ohungarumlaut" unicode="&#x150;" horiz-adv-x="1830" 
d="M981 -23q-365 0 -598 199t-233 508q0 170 72.5 324.5t207.5 269.5q123 105 283.5 160t343.5 55q366 0 596 -199q233 -199 233 -508q0 -171 -72.5 -325t-205.5 -266q-257 -218 -627 -218zM991 242q258 0 420 149q164 150 164 379q0 205 -145 332t-386 127
q-250 0 -419 -152q-164 -150 -164 -377q0 -206 145 -333q146 -125 385 -125zM1487 1554h-234l238 310h348zM1004 1554h-234l223 310h363z" />
    <glyph glyph-name="ohungarumlaut" unicode="&#x151;" horiz-adv-x="1353" 
d="M782 1098q264 0 430 -146q166 -144 166 -379q0 -255 -186 -426q-188 -170 -471 -170q-266 0 -432 144q-164 144 -164 381q0 256 186 424q187 172 471 172zM770 858q-165 0 -268 -100t-103 -246q0 -133 92 -214t242 -81q163 0 266 100q105 102 105 248q0 133 -92.5 213
t-241.5 80zM1147 1174h-227l231 296h326zM709 1174h-230l232 296h327z" />
    <glyph glyph-name="OE" unicode="&#x152;" horiz-adv-x="2760" 
d="M158 684q0 172 72.5 324t207.5 262q250 200 629 200h1835l-37 -260h-1085l-45 -327h968l-37 -258h-968l-51 -365h1085l-37 -260h-1759q-349 0 -563 190q-215 194 -215 494zM1348 258l137 954h-430q-259 0 -426 -147q-166 -144 -166 -365q0 -194 137 -319
q138 -123 365 -123h383z" />
    <glyph glyph-name="oe" unicode="&#x153;" horiz-adv-x="2301" 
d="M2054 401l232 -114q-78 -147 -232.5 -228.5t-355.5 -81.5q-149 0 -272 53t-205 152q-91 -98 -220 -151.5t-278 -53.5q-265 0 -432 144q-166 144 -166 381q0 256 186 424q187 172 471 172q153 0 278.5 -52.5t203.5 -148.5q189 201 495 201q255 0 416 -140
q160 -139 160 -358q0 -56 -15 -141h-948q19 -112 112.5 -180t227.5 -68q116 0 205.5 49.5t136.5 140.5zM1745 868q-117 0 -211 -58.5t-137 -156.5h663q-8 95 -94.5 155t-220.5 60zM1106 565q0 130 -93 211.5t-241 81.5q-165 0 -268 -100t-103 -246q0 -133 92 -214t240 -81
q165 0 268 100q105 102 105 248z" />
    <glyph glyph-name="Racute" unicode="&#x154;" horiz-adv-x="1652" 
d="M1026 547h-520l-76 -547h-301l207 1470h897q240 0 377 -116q141 -114 141 -310q0 -177 -109 -304t-301 -171l306 -569h-334zM600 1214l-57 -415h606q136 0 220.5 64.5t84.5 164.5q0 88 -66.5 137t-185.5 49h-602zM1141 1554h-275l283 310h424z" />
    <glyph glyph-name="racute" unicode="&#x155;" horiz-adv-x="944" 
d="M952 1083q61 0 119 -14l-39 -283q-70 19 -127 19q-195 0 -307 -87.5t-137 -258.5l-64 -459h-286l151 1077h287l-29 -190q150 196 432 196zM770 1174h-252l254 296h381z" />
    <glyph glyph-name="Rcommaaccent" unicode="&#x156;" horiz-adv-x="1652" 
d="M1026 547h-520l-76 -547h-301l207 1470h897q240 0 377 -116q141 -114 141 -310q0 -177 -109 -304t-301 -171l306 -569h-334zM600 1214l-57 -415h606q136 0 220.5 64.5t84.5 164.5q0 88 -66.5 137t-185.5 49h-602zM782 -244h-106l22 174h287l-16 -123q-13 -112 -96 -171.5
t-224 -59.5l17 115q103 0 116 65z" />
    <glyph glyph-name="rcommaaccent" unicode="&#x157;" horiz-adv-x="944" 
d="M952 1083q61 0 119 -14l-39 -283q-70 19 -127 19q-195 0 -307 -87.5t-137 -258.5l-64 -459h-286l151 1077h287l-29 -190q150 196 432 196zM184 -244h-106l22 174h287l-16 -123q-13 -112 -96 -171.5t-224 -59.5l17 115q103 0 116 65z" />
    <glyph glyph-name="Rcaron" unicode="&#x158;" horiz-adv-x="1652" 
d="M1026 547h-520l-76 -547h-301l207 1470h897q240 0 377 -116q141 -114 141 -310q0 -177 -109 -304t-301 -171l306 -569h-334zM600 1214l-57 -415h606q136 0 220.5 64.5t84.5 164.5q0 88 -66.5 137t-185.5 49h-602zM1532 1864l-340 -310h-318l-251 310h225l199 -138
l237 138h248z" />
    <glyph glyph-name="rcaron" unicode="&#x159;" horiz-adv-x="944" 
d="M952 1083q61 0 119 -14l-39 -283q-70 19 -127 19q-195 0 -307 -87.5t-137 -258.5l-64 -459h-286l151 1077h287l-29 -190q150 196 432 196zM1135 1470l-308 -296h-288l-224 296h211l170 -116l205 116h234z" />
    <glyph glyph-name="Sacute" unicode="&#x15a;" horiz-adv-x="1587" 
d="M901 -23q-296 0 -539 105q-241 104 -333 264l215 197q87 -144 268 -226q180 -82 408 -79q184 0 284.5 51t100.5 145q0 58 -47.5 93.5t-159.5 60.5q-68 15 -158 28l-119 19q-272 43 -379 94q-217 97 -217 297q0 209 191 338t506 129q265 0 469 -88q209 -86 303 -229
l-215 -185q-85 119 -236.5 182.5t-349.5 63.5q-172 0 -270.5 -47t-98.5 -129q0 -65 66 -100q59 -32 360 -76q182 -28 262 -47q100 -24 158 -47q246 -101 246 -320q0 -222 -195 -358t-520 -136zM1139 1554h-275l283 310h424z" />
    <glyph glyph-name="sacute" unicode="&#x15b;" horiz-adv-x="1198" 
d="M657 -23q-204 0 -374 65.5t-258 178.5l180 178q73 -96 195 -147t278 -51q121 0 186.5 30t65.5 86q0 66 -146 91l-106 14l-80 10q-246 38 -342 109q-94 70 -94 194q0 166 147 264.5t398 98.5q180 0 334 -59t229 -156l-180 -170q-63 75 -174.5 119.5t-241.5 44.5
q-108 0 -168 -28.5t-60 -78.5q0 -37 48 -59q44 -20 239 -47q275 -37 379 -109q105 -70 105 -199q0 -173 -152 -276q-151 -103 -408 -103zM889 1174h-252l254 296h381z" />
    <glyph glyph-name="Scircumflex" unicode="&#x15c;" horiz-adv-x="1587" 
d="M901 -23q-296 0 -539 105q-241 104 -333 264l215 197q87 -144 268 -226q180 -82 408 -79q184 0 284.5 51t100.5 145q0 58 -47.5 93.5t-159.5 60.5q-68 15 -158 28l-119 19q-272 43 -379 94q-217 97 -217 297q0 209 191 338t506 129q265 0 469 -88q209 -86 303 -229
l-215 -185q-85 119 -236.5 182.5t-349.5 63.5q-172 0 -270.5 -47t-98.5 -129q0 -65 66 -100q59 -32 360 -76q182 -28 262 -47q100 -24 158 -47q246 -101 246 -320q0 -222 -195 -358t-520 -136zM885 1864h317l254 -310h-227l-199 138l-235 -138h-248z" />
    <glyph glyph-name="scircumflex" unicode="&#x15d;" horiz-adv-x="1198" 
d="M657 -23q-204 0 -374 65.5t-258 178.5l180 178q73 -96 195 -147t278 -51q121 0 186.5 30t65.5 86q0 66 -146 91l-106 14l-80 10q-246 38 -342 109q-94 70 -94 194q0 166 147 264.5t398 98.5q180 0 334 -59t229 -156l-180 -170q-63 75 -174.5 119.5t-241.5 44.5
q-108 0 -168 -28.5t-60 -78.5q0 -37 48 -59q44 -20 239 -47q275 -37 379 -109q105 -70 105 -199q0 -173 -152 -276q-151 -103 -408 -103zM653 1470h291l223 -296h-213l-170 118l-202 -118h-236z" />
    <glyph glyph-name="Scedilla" unicode="&#x15e;" horiz-adv-x="1587" 
d="M29 346l215 197q87 -144 268 -226q180 -82 408 -79q184 0 284.5 51t100.5 145q0 58 -47.5 93.5t-159.5 60.5q-68 15 -158 28l-119 19q-272 43 -379 94q-217 97 -217 297q0 209 191 338t506 129q265 0 469 -88q209 -86 303 -229l-215 -185q-85 119 -236.5 182.5
t-349.5 63.5q-172 0 -270.5 -47t-98.5 -129q0 -65 66 -100q59 -32 360 -76q182 -28 262 -47q100 -24 158 -47q246 -101 246 -320q0 -222 -195 -358t-520 -136q-50 0 -74 3l-10 -25q94 -8 149.5 -51.5t55.5 -110.5q0 -80 -80 -129t-213 -49q-185 0 -291 82l101 125
q66 -60 186 -60q104 0 104 52q0 58 -188 55l55 123q-229 34 -411 129q-177 92 -256 225z" />
    <glyph glyph-name="scedilla" unicode="&#x15f;" horiz-adv-x="1198" 
d="M25 221l180 178q73 -96 195 -147t278 -51q121 0 186.5 30t65.5 86q0 66 -146 91l-106 14l-80 10q-246 38 -342 109q-94 70 -94 194q0 166 147 264.5t398 98.5q180 0 334 -59t229 -156l-180 -170q-63 75 -174.5 119.5t-241.5 44.5q-108 0 -168 -28.5t-60 -78.5
q0 -37 48 -59q44 -20 239 -47q275 -37 379 -109q105 -70 105 -199q0 -173 -152 -276q-151 -103 -408 -103q-32 0 -53 3l-10 -25q94 -8 149.5 -51.5t55.5 -110.5q0 -80 -80 -129t-213 -49q-185 0 -291 82l100 125q66 -60 187 -60q104 0 104 52q0 58 -188 55l55 123
q-148 25 -265 84.5t-183 144.5z" />
    <glyph glyph-name="Scaron" unicode="&#x160;" horiz-adv-x="1587" 
d="M901 -23q-296 0 -539 105q-241 104 -333 264l215 197q87 -144 268 -226q180 -82 408 -79q184 0 284.5 51t100.5 145q0 58 -47.5 93.5t-159.5 60.5q-68 15 -158 28l-119 19q-272 43 -379 94q-217 97 -217 297q0 209 191 338t506 129q265 0 469 -88q209 -86 303 -229
l-215 -185q-85 119 -236.5 182.5t-349.5 63.5q-172 0 -270.5 -47t-98.5 -129q0 -65 66 -100q59 -32 360 -76q182 -28 262 -47q100 -24 158 -47q246 -101 246 -320q0 -222 -195 -358t-520 -136zM1503 1864l-340 -310h-317l-252 310h225l199 -138l237 138h248z" />
    <glyph glyph-name="scaron" unicode="&#x161;" horiz-adv-x="1198" 
d="M657 -23q-204 0 -374 65.5t-258 178.5l180 178q73 -96 195 -147t278 -51q121 0 186.5 30t65.5 86q0 66 -146 91l-106 14l-80 10q-246 38 -342 109q-94 70 -94 194q0 166 147 264.5t398 98.5q180 0 334 -59t229 -156l-180 -170q-63 75 -174.5 119.5t-241.5 44.5
q-108 0 -168 -28.5t-60 -78.5q0 -37 48 -59q44 -20 239 -47q275 -37 379 -109q105 -70 105 -199q0 -173 -152 -276q-151 -103 -408 -103zM1217 1470l-308 -296h-288l-224 296h211l170 -116l205 116h234z" />
    <glyph glyph-name="Tcommaaccent" unicode="&#x162;" horiz-adv-x="1675" 
d="M1083 -207q0 -80 -79.5 -129t-212.5 -49q-185 0 -291 82l100 125q66 -60 186 -60q105 0 105 52q0 58 -189 55l60 131h-76l170 1210h-651l39 260h1601l-37 -260h-649l-170 -1210h-90l-20 -45q94 -8 149 -51.5t55 -110.5z" />
    <glyph glyph-name="tcommaaccent" unicode="&#x163;" horiz-adv-x="1071" 
d="M307 362l66 476h-258l35 239h258l43 307h280l-41 -307h459l-35 -239h-459l-59 -430q-12 -87 32 -128.5t152 -41.5q117 0 248 49l21 -240q-163 -61 -320 -61q-2 0 -84 4l-16 -35q94 -8 149.5 -51.5t55.5 -110.5q0 -80 -80 -129t-213 -49q-185 0 -291 82l100 125
q66 -60 187 -60q104 0 104 52q0 58 -188 55l65 149q-119 41 -174.5 130.5t-36.5 213.5z" />
    <glyph glyph-name="Tcaron" unicode="&#x164;" horiz-adv-x="1675" 
d="M1845 1470l-37 -260h-649l-170 -1210h-303l170 1210h-651l39 260h1601zM1554 1864l-340 -310h-317l-252 310h225l199 -138l238 138h247z" />
    <glyph glyph-name="tcaron" unicode="&#x165;" horiz-adv-x="1071" 
d="M729 -14q-217 0 -332 101.5t-90 274.5l66 476h-258l35 239h258l43 307h280l-41 -307h459l-35 -239h-459l-59 -430q-12 -87 32 -128.5t152 -41.5q117 0 248 49l21 -240q-163 -61 -320 -61zM989 1171h-196l100 340h313z" />
    <glyph glyph-name="Tbar" unicode="&#x166;" horiz-adv-x="1675" 
d="M1444 874l-37 -260h-332l-86 -614h-303l86 614h-330l37 260h330l47 336h-651l39 260h1601l-37 -260h-649l-47 -336h332z" />
    <glyph glyph-name="tbar" unicode="&#x167;" horiz-adv-x="1071" 
d="M729 -14q-217 0 -332 101.5t-90 274.5l17 117h-254l30 228h254l21 143h-258l33 227h258l43 307h280l-41 -307h459l-33 -227h-459l-20 -143h461l-33 -228h-459l-10 -71q-12 -87 32 -128.5t152 -41.5q117 0 248 49l21 -240q-163 -61 -320 -61z" />
    <glyph glyph-name="Utilde" unicode="&#x168;" horiz-adv-x="1689" 
d="M895 -20q-378 0 -565 190q-190 196 -144 524l109 776h303l-109 -759q-32 -228 74.5 -347.5t343.5 -119.5q220 0 337.5 111.5t152.5 355.5l108 759h301l-108 -776q-51 -364 -248 -539t-555 -175zM895 1890q54 0 105.5 -14t129.5 -53q93 -43 134 -43t67 26t45 84h191
q-26 -158 -103 -247t-186 -89q-53 0 -102.5 14t-128.5 54q-88 45 -136 45q-40 0 -66 -27.5t-44 -85.5h-191q25 158 100.5 247t184.5 89z" />
    <glyph glyph-name="utilde" unicode="&#x169;" horiz-adv-x="1351" 
d="M1108 1077h287l-152 -1077h-287l19 133q-153 -156 -373 -156t-344 142q-122 143 -88 364l82 594h287l-76 -542q-20 -143 44.5 -225.5t199.5 -82.5q133 0 219.5 85t105.5 233zM713 1487q41 0 79 -12.5t95 -47.5q45 -28 68.5 -36.5t48.5 -8.5q62 0 96 105h176
q-26 -150 -96 -231.5t-172 -81.5q-42 0 -80.5 12.5t-96.5 46.5q-46 28 -68 36.5t-46 8.5q-68 0 -96 -104h-177q25 148 95.5 230.5t173.5 82.5z" />
    <glyph glyph-name="Umacron" unicode="&#x16a;" horiz-adv-x="1689" 
d="M895 -20q-378 0 -565 190q-190 196 -144 524l109 776h303l-109 -759q-32 -228 74.5 -347.5t343.5 -119.5q220 0 337.5 111.5t152.5 355.5l108 759h301l-108 -776q-51 -364 -248 -539t-555 -175zM1497 1794l-33 -223h-800l30 223h803z" />
    <glyph glyph-name="umacron" unicode="&#x16b;" horiz-adv-x="1351" 
d="M1108 1077h287l-152 -1077h-287l19 133q-153 -156 -373 -156t-344 142q-122 143 -88 364l82 594h287l-76 -542q-20 -143 44.5 -225.5t199.5 -82.5q133 0 219.5 85t105.5 233zM1247 1425l-30 -217h-750l31 217h749z" />
    <glyph glyph-name="Ubreve" unicode="&#x16c;" horiz-adv-x="1689" 
d="M895 -20q-378 0 -565 190q-190 196 -144 524l109 776h303l-109 -759q-32 -228 74.5 -347.5t343.5 -119.5q220 0 337.5 111.5t152.5 355.5l108 759h301l-108 -776q-51 -364 -248 -539t-555 -175zM1098 1739q86 0 142.5 34.5t64.5 90.5h208q-17 -150 -128.5 -234
t-299.5 -84q-190 0 -296.5 87.5t-92.5 230.5h209q-6 -54 49.5 -89.5t143.5 -35.5z" />
    <glyph glyph-name="ubreve" unicode="&#x16d;" horiz-adv-x="1351" 
d="M1108 1077h287l-152 -1077h-287l19 133q-153 -156 -373 -156t-344 142q-122 143 -88 364l82 594h287l-76 -542q-20 -143 44.5 -225.5t199.5 -82.5q133 0 219.5 85t105.5 233zM870 1356q161 0 195 114h196q-23 -148 -127.5 -225.5t-277.5 -77.5q-185 0 -282.5 81
t-78.5 222h197q-1 -55 44.5 -84.5t133.5 -29.5z" />
    <glyph glyph-name="Uring" unicode="&#x16e;" horiz-adv-x="1689" 
d="M895 -20q-378 0 -565 190q-190 196 -144 524l109 776h303l-109 -759q-32 -228 74.5 -347.5t343.5 -119.5q220 0 337.5 111.5t152.5 355.5l108 759h301l-108 -776q-51 -364 -248 -539t-555 -175zM1083 1491q-115 0 -189.5 71t-74.5 177q0 114 84 198q82 82 209 82
q115 0 189.5 -70.5t74.5 -176.5q0 -115 -84 -199q-82 -82 -209 -82zM1106 1864q-49 0 -82 -33.5t-33 -83.5q0 -44 28 -72t71 -28q49 0 81.5 33t32.5 83q0 43 -28 72t-70 29z" />
    <glyph glyph-name="uring" unicode="&#x16f;" horiz-adv-x="1351" 
d="M1108 1077h287l-152 -1077h-287l19 133q-153 -156 -373 -156t-344 142q-122 143 -88 364l82 594h287l-76 -542q-20 -143 44.5 -225.5t199.5 -82.5q133 0 219.5 85t105.5 233zM852 1149q-94 0 -159 60.5t-65 148.5q0 92 72 164q72 69 176 69q97 0 160 -59t63 -150
q0 -92 -71 -163q-70 -70 -176 -70zM870 1462q-41 0 -68.5 -28.5t-27.5 -69.5q0 -37 23.5 -60.5t60.5 -23.5q41 0 68.5 28.5t27.5 69.5q0 37 -23.5 60.5t-60.5 23.5z" />
    <glyph glyph-name="Uhungarumlaut" unicode="&#x170;" horiz-adv-x="1689" 
d="M895 -20q-378 0 -565 190q-190 196 -144 524l109 776h303l-109 -759q-32 -228 74.5 -347.5t343.5 -119.5q220 0 337.5 111.5t152.5 355.5l108 759h301l-108 -776q-51 -364 -248 -539t-555 -175zM1397 1554h-234l238 310h348zM913 1554h-233l223 310h363z" />
    <glyph glyph-name="uhungarumlaut" unicode="&#x171;" horiz-adv-x="1351" 
d="M1108 1077h287l-152 -1077h-287l19 133q-153 -156 -373 -156t-344 142q-122 143 -88 364l82 594h287l-76 -542q-20 -143 44.5 -225.5t199.5 -82.5q133 0 219.5 85t105.5 233zM1124 1174h-227l231 296h326zM686 1174h-229l231 296h328z" />
    <glyph glyph-name="Uogonek" unicode="&#x172;" horiz-adv-x="1689" 
d="M1147 6q-162 -36 -225.5 -68t-63.5 -81q0 -29 30 -45.5t85 -16.5q47 0 106 17l-24 -172q-83 -17 -133 -17q-118 0 -190.5 50t-72.5 132q0 104 109 181q-318 35 -471 219q-154 189 -111 489l109 776h303l-109 -759q-32 -228 74.5 -347.5t343.5 -119.5q220 0 337.5 111.5
t152.5 355.5l108 759h301l-108 -776q-82 -589 -551 -688z" />
    <glyph glyph-name="uogonek" unicode="&#x173;" horiz-adv-x="1351" 
d="M1040 -377q-117 0 -188.5 50t-71.5 132q0 67 47 126t134 102l14 100q-153 -156 -373 -156t-344 142q-122 143 -88 364l82 594h287l-76 -542q-20 -143 44.5 -225.5t199.5 -82.5q133 0 219.5 85t105.5 233l76 532h287l-152 -1077h-16q-248 -62 -248 -139q0 -31 30 -48.5
t85 -17.5q46 0 106 17l-24 -172q-83 -17 -136 -17z" />
    <glyph glyph-name="Wcircumflex" unicode="&#x174;" horiz-adv-x="2420" 
d="M700 332l555 1138h318l172 -1138l582 1138h313l-758 -1470h-350l-170 1124l-551 -1124h-348l-254 1470h307zM1317 1864h317l254 -310h-227l-199 138l-235 -138h-248z" />
    <glyph glyph-name="wcircumflex" unicode="&#x175;" horiz-adv-x="1869" 
d="M575 348l381 729h248l135 -729l383 729h303l-598 -1077h-249l-150 717l-383 -717h-264l-234 1077h299zM1004 1470h290l224 -296h-213l-170 118l-203 -118h-236z" />
    <glyph glyph-name="Ycircumflex" unicode="&#x176;" horiz-adv-x="1751" 
d="M545 1470l442 -610l615 610h370l-858 -845l-88 -625h-301l88 625l-620 845h352zM977 1864h317l254 -310h-227l-199 138l-235 -138h-248z" />
    <glyph glyph-name="ycircumflex" unicode="&#x177;" horiz-adv-x="1347" 
d="M1503 1077l-731 -1153q-113 -177 -211 -241q-101 -66 -252 -66q-154 0 -266 47l78 227q85 -36 174 -36q62 0 103.5 26.5t82.5 93.5l37 56l-371 1046h308l252 -768l477 768h319zM735 1470h291l223 -296h-213l-170 118l-203 -118h-235z" />
    <glyph glyph-name="Ydieresis" unicode="&#x178;" horiz-adv-x="1751" 
d="M545 1470l442 -610l615 610h370l-858 -845l-88 -625h-301l88 625l-620 845h352zM981 1554h-295l37 271h295zM1501 1554h-295l37 271h295z" />
    <glyph glyph-name="Zacute" unicode="&#x179;" horiz-adv-x="1628" 
d="M553 260h1036l-39 -260h-1476l30 229l1160 981h-1014l35 260h1460l-31 -229zM1130 1554h-274l283 310h424z" />
    <glyph glyph-name="zacute" unicode="&#x17a;" horiz-adv-x="1280" 
d="M516 240h729l-33 -240h-1142l30 213l807 625h-714l34 239h1131l-31 -215zM901 1174h-252l254 296h381z" />
    <glyph glyph-name="Zdotaccent" unicode="&#x17b;" horiz-adv-x="1628" 
d="M553 260h1036l-39 -260h-1476l30 229l1160 981h-1014l35 260h1460l-31 -229zM1184 1554h-307l36 271h308z" />
    <glyph glyph-name="zdotaccent" unicode="&#x17c;" horiz-adv-x="1280" 
d="M516 240h729l-33 -240h-1142l30 213l807 625h-714l34 239h1131l-31 -215zM956 1204h-294l36 266h295z" />
    <glyph glyph-name="Zcaron" unicode="&#x17d;" horiz-adv-x="1628" 
d="M553 260h1036l-39 -260h-1476l30 229l1160 981h-1014l35 260h1460l-31 -229zM1528 1864l-340 -310h-318l-252 310h226l198 -138l238 138h248z" />
    <glyph glyph-name="zcaron" unicode="&#x17e;" horiz-adv-x="1280" 
d="M516 240h729l-33 -240h-1142l30 213l807 625h-714l34 239h1131l-31 -215zM1256 1470l-307 -296h-289l-223 296h211l170 -116l204 116h234z" />
    <glyph glyph-name="florin" unicode="&#x192;" horiz-adv-x="1675" 
d="M1075 680l-86 -266q-73 -227 -211.5 -332t-361.5 -105q-123 0 -229 32.5t-173 88.5l142 203q104 -84 250 -84q214 0 288 227l76 236h-293l29 201h330l57 176q73 227 210.5 331.5t360.5 104.5q124 0 232.5 -32.5t171.5 -88.5l-142 -203q-109 84 -249 84q-219 0 -291 -227
l-47 -145h321l-28 -201h-357z" />
    <glyph glyph-name="AEacute" unicode="&#x1fc;" horiz-adv-x="2910" 
d="M-20 0l1497 1470h1577l-37 -260h-1129l-45 -327h1010l-35 -258h-1012l-49 -365h1127l-37 -260h-1424l47 338h-761l-342 -338h-387zM1593 1214l-628 -622h542zM2329 1554h-275l283 310h424z" />
    <glyph glyph-name="aeacute" unicode="&#x1fd;" horiz-adv-x="2195" 
d="M1591 -23q-157 0 -287 59t-212 165q-91 -109 -232 -166.5t-315 -57.5q-210 0 -333.5 86.5t-123.5 233.5q0 159 129 254q131 98 350 98h445l10 66q11 68 -58.5 109.5t-193.5 41.5q-121 0 -210 -43t-130 -121l-237 84q69 148 223.5 230t367.5 82q305 0 435 -142
q181 142 434 142q254 0 415 -140q160 -139 160 -358q0 -61 -14 -141h-948q19 -112 112.5 -180t227.5 -68q116 0 206 50t134 140l233 -114q-80 -148 -233.5 -229t-354.5 -81zM1636 870q-119 0 -213 -59.5t-135 -161.5h666q-8 98 -95.5 159.5t-222.5 61.5zM371 322
q0 -60 58.5 -92.5t164.5 -32.5q152 0 260 63q111 63 127 158l6 41h-403q-102 0 -157.5 -36.5t-55.5 -100.5zM1407 1174h-252l254 296h381z" />
    <glyph glyph-name="Oslashacute" unicode="&#x1fe;" horiz-adv-x="1828" 
d="M238 -59l-154 176l197 168q-131 171 -131 399q0 170 72.5 324.5t207.5 269.5q123 105 283.5 160t343.5 55q314 0 540 -156l197 166l154 -178l-181 -154q119 -171 119 -385q0 -171 -72.5 -325t-205.5 -266q-257 -218 -627 -218q-311 0 -528 148zM1044 1233
q-252 0 -421 -152q-166 -150 -166 -381q0 -136 65 -239l840 694q-135 78 -318 78zM991 238q255 0 420 151q166 150 166 381q0 124 -55 223l-834 -686q123 -69 303 -69zM1243 1554h-274l282 310h424z" />
    <glyph glyph-name="oslashacute" unicode="&#x1ff;" horiz-adv-x="1353" 
d="M125 502q0 256 186 424q187 172 471 172q213 0 367 -97l154 136l135 -148l-144 -127q84 -122 84 -289q0 -255 -186 -426q-188 -170 -471 -170q-207 0 -367 97l-151 -133l-133 145l139 125q-84 125 -84 291zM770 864q-162 0 -270 -102q-105 -102 -105 -250q0 -70 29 -133
l520 448q-75 37 -174 37zM733 211q163 0 268 102q107 101 107 252q0 65 -29 131l-516 -450q75 -35 170 -35zM952 1174h-252l254 296h381z" />
    <glyph glyph-name="Scommaaccent" unicode="&#x218;" horiz-adv-x="1587" 
d="M901 -23q-296 0 -539 105q-241 104 -333 264l215 197q87 -144 268 -226q180 -82 408 -79q184 0 284.5 51t100.5 145q0 58 -47.5 93.5t-159.5 60.5q-68 15 -158 28l-119 19q-272 43 -379 94q-217 97 -217 297q0 209 191 338t506 129q265 0 469 -88q209 -86 303 -229
l-215 -185q-85 119 -236.5 182.5t-349.5 63.5q-172 0 -270.5 -47t-98.5 -129q0 -65 66 -100q59 -32 360 -76q182 -28 262 -47q100 -24 158 -47q246 -101 246 -320q0 -222 -195 -358t-520 -136zM709 -244h-107l23 174h286l-16 -123q-13 -112 -96 -171.5t-224 -59.5l17 115
q49 0 80 17t37 48z" />
    <glyph glyph-name="scommaaccent" unicode="&#x219;" horiz-adv-x="1198" 
d="M657 -23q-204 0 -374 65.5t-258 178.5l180 178q73 -96 195 -147t278 -51q121 0 186.5 30t65.5 86q0 66 -146 91l-106 14l-80 10q-246 38 -342 109q-94 70 -94 194q0 166 147 264.5t398 98.5q180 0 334 -59t229 -156l-180 -170q-63 75 -174.5 119.5t-241.5 44.5
q-108 0 -168 -28.5t-60 -78.5q0 -37 48 -59q44 -20 239 -47q275 -37 379 -109q105 -70 105 -199q0 -173 -152 -276q-151 -103 -408 -103zM526 -244h-106l22 174h287l-16 -123q-13 -112 -96 -171.5t-224 -59.5l17 115q103 0 116 65z" />
    <glyph glyph-name="uni021A" unicode="&#x21a;" horiz-adv-x="1675" 
d="M1845 1470l-37 -260h-649l-170 -1210h-303l170 1210h-651l39 260h1601zM768 -244h-106l22 174h287l-17 -123q-13 -112 -95.5 -171.5t-223.5 -59.5l16 115q49 0 80 17t37 48z" />
    <glyph glyph-name="uni021B" unicode="&#x21b;" horiz-adv-x="1071" 
d="M729 -14q-217 0 -332 101.5t-90 274.5l66 476h-258l35 239h258l43 307h280l-41 -307h459l-35 -239h-459l-59 -430q-12 -87 32 -128.5t152 -41.5q117 0 248 49l21 -240q-163 -61 -320 -61zM541 -244h-107l23 174h286l-16 -123q-13 -112 -95.5 -171.5t-223.5 -59.5l16 115
q49 0 80 17t37 48z" />
    <glyph glyph-name="uni0237" unicode="&#x237;" horiz-adv-x="505" 
d="M-90 -150q94 0 142.5 43.5t60.5 137.5l149 1046h287l-150 -1050q-31 -210 -143 -310t-319 -100q-152 0 -273 43l70 219q95 -29 176 -29z" />
    <glyph glyph-name="circumflex" unicode="&#x2c6;" horiz-adv-x="1228" 
d="M676 1470h291l223 -296h-213l-170 118l-203 -118h-235z" />
    <glyph glyph-name="caron" unicode="&#x2c7;" horiz-adv-x="1228" 
d="M1231 1470l-307 -296h-289l-223 296h211l170 -116l204 116h234z" />
    <glyph glyph-name="breve" unicode="&#x2d8;" horiz-adv-x="1228" 
d="M813 1356q161 0 195 114h196q-23 -148 -127.5 -225.5t-277.5 -77.5q-185 0 -282.5 81t-78.5 222h197q-1 -55 44.5 -84.5t133.5 -29.5z" />
    <glyph glyph-name="dotaccent" unicode="&#x2d9;" horiz-adv-x="1228" 
d="M932 1204h-295l37 266h295z" />
    <glyph glyph-name="ring" unicode="&#x2da;" horiz-adv-x="1228" 
d="M795 1149q-94 0 -159 60.5t-65 148.5q0 92 72 164q72 69 176 69q97 0 160 -59t63 -150q0 -92 -71 -163q-70 -70 -176 -70zM813 1462q-41 0 -68.5 -28.5t-27.5 -69.5q0 -37 23.5 -60.5t60.5 -23.5q41 0 68.5 28.5t27.5 69.5q0 37 -23.5 60.5t-60.5 23.5z" />
    <glyph glyph-name="ogonek" unicode="&#x2db;" horiz-adv-x="1228" 
d="M596 -377q-117 0 -188.5 50t-71.5 132q0 99 96.5 176t272.5 115l77 -96q-247 -62 -247 -139q0 -31 29.5 -48.5t84.5 -17.5q47 0 107 17l-25 -172q-83 -17 -135 -17z" />
    <glyph glyph-name="tilde" unicode="&#x2dc;" horiz-adv-x="1228" 
d="M653 1487q41 0 79 -12.5t95 -47.5q45 -28 68.5 -36.5t48.5 -8.5q62 0 96 105h177q-26 -150 -96 -231.5t-173 -81.5q-42 0 -79.5 12.5t-96.5 46.5q-45 28 -67.5 36.5t-47.5 8.5q-68 0 -96 -104h-176q25 148 95 230.5t173 82.5z" />
    <glyph glyph-name="hungarumlaut" unicode="&#x2dd;" horiz-adv-x="1228" 
d="M969 1174h-228l232 296h325zM530 1174h-229l231 296h328z" />
    <glyph glyph-name="gravecmb" unicode="&#x300;" horiz-adv-x="0" 
d="M92 1470l172 -296h-229l-297 296h354z" />
    <glyph glyph-name="acutecmb" unicode="&#x301;" horiz-adv-x="0" 
d="M-66 1174h-251l254 296h380z" />
    <glyph glyph-name="circumflexcmb" unicode="&#x302;" horiz-adv-x="0" 
d="M-102 1470h290l224 -296h-213l-170 118l-203 -118h-236z" />
    <glyph glyph-name="tildecmb" unicode="&#x303;" horiz-adv-x="0" 
d="M-147 1487q41 0 79 -12.5t95 -47.5q45 -28 68 -36.5t48 -8.5q63 0 97 105h176q-26 -150 -96 -231.5t-173 -81.5q-42 0 -79.5 12.5t-96.5 46.5q-46 28 -68 36.5t-46 8.5q-33 0 -58.5 -27t-38.5 -77h-176q25 148 95.5 230.5t173.5 82.5z" />
    <glyph glyph-name="macroncmb" unicode="&#x304;" horiz-adv-x="0" 
d="M391 1425l-31 -217h-749l31 217h749z" />
    <glyph glyph-name="brevecmb" unicode="&#x306;" horiz-adv-x="0" 
d="M-6 1356q160 0 194 114h197q-23 -148 -127.5 -225.5t-277.5 -77.5q-185 0 -282.5 81t-78.5 222h197q-1 -55 44.5 -84.5t133.5 -29.5z" />
    <glyph glyph-name="dotaccentcmb" unicode="&#x307;" horiz-adv-x="0" 
d="M129 1204h-295l37 266h295z" />
    <glyph glyph-name="dieresiscmb" unicode="&#x308;" horiz-adv-x="0" 
d="M-123 1204h-295l37 266h295zM381 1204h-295l37 266h295z" />
    <glyph glyph-name="ringcmb" unicode="&#x30a;" horiz-adv-x="0" 
d="M-12 1149q-94 0 -159 60.5t-65 148.5q0 92 72 164q72 69 176 69q97 0 160.5 -59t63.5 -150t-72 -163q-70 -70 -176 -70zM6 1462q-41 0 -68.5 -28.5t-27.5 -69.5q0 -37 23.5 -60.5t60.5 -23.5q41 0 68.5 28.5t27.5 69.5q0 37 -23.5 60.5t-60.5 23.5z" />
    <glyph glyph-name="hungarumlautcmb" unicode="&#x30b;" horiz-adv-x="0" 
d="M170 1174h-227l231 296h326zM-268 1174h-230l232 296h327z" />
    <glyph glyph-name="caroncmb" unicode="&#x30c;" horiz-adv-x="0" 
d="M410 1470l-308 -296h-288l-224 296h211l170 -116l205 116h234z" />
    <glyph glyph-name="commaaboverightcmb" unicode="&#x315;" horiz-adv-x="0" 
d="M-10 1130h-197l101 340h313z" />
    <glyph glyph-name="cedillacmb" unicode="&#x327;" horiz-adv-x="0" 
d="M293 -207q0 -80 -80 -129t-213 -49q-185 0 -291 82l101 125q66 -60 186 -60q104 0 104 52q0 58 -188 55l70 156h137l-31 -70q94 -8 149.5 -51.5t55.5 -110.5z" />
    <glyph glyph-name="ogonekcmb" unicode="&#x328;" horiz-adv-x="0" 
d="M37 -377q-117 0 -188.5 50t-71.5 132q0 99 96 176t272 115l78 -96q-248 -62 -248 -139q0 -31 30 -48.5t85 -17.5q48 0 107 17l-25 -172q-83 -17 -135 -17z" />
    <glyph glyph-name="baht" unicode="&#xe3f;" horiz-adv-x="1669" 
d="M657 0h-606l207 1470h606l29 209h244l-29 -209h68q227 0 358 -97t131 -263q0 -124 -72 -223.5t-196 -141.5q100 -38 158.5 -122.5t58.5 -194.5q0 -188 -148 -309q-146 -119 -389 -119h-176l-31 -213h-243zM502 1223l-51 -353h329l49 353h-327zM1389 1061q0 74 -63 118
t-169 44h-84l-49 -353h115q109 0 179.5 54.5t70.5 136.5zM745 631h-327l-56 -383h330zM1343 455q0 80 -64.5 128t-172.5 48h-117l-53 -383h151q112 0 184 59t72 148z" />
    <glyph glyph-name="Wgrave" unicode="&#x1e80;" horiz-adv-x="2420" 
d="M700 332l555 1138h318l172 -1138l582 1138h313l-758 -1470h-350l-170 1124l-551 -1124h-348l-254 1470h307zM1370 1864l197 -310h-240l-346 310h389z" />
    <glyph glyph-name="wgrave" unicode="&#x1e81;" horiz-adv-x="1869" 
d="M575 348l381 729h248l135 -729l383 729h303l-598 -1077h-249l-150 717l-383 -717h-264l-234 1077h299zM1071 1470l172 -296h-229l-297 296h354z" />
    <glyph glyph-name="Wacute" unicode="&#x1e82;" horiz-adv-x="2420" 
d="M700 332l555 1138h318l172 -1138l582 1138h313l-758 -1470h-350l-170 1124l-551 -1124h-348l-254 1470h307zM1563 1554h-275l283 310h424z" />
    <glyph glyph-name="wacute" unicode="&#x1e83;" horiz-adv-x="1869" 
d="M575 348l381 729h248l135 -729l383 729h303l-598 -1077h-249l-150 717l-383 -717h-264l-234 1077h299zM1235 1174h-252l254 296h381z" />
    <glyph glyph-name="Wdieresis" unicode="&#x1e84;" horiz-adv-x="2420" 
d="M700 332l555 1138h318l172 -1138l582 1138h313l-758 -1470h-350l-170 1124l-551 -1124h-348l-254 1470h307zM1317 1554h-295l37 271h295zM1837 1554h-295l37 271h295z" />
    <glyph glyph-name="wdieresis" unicode="&#x1e85;" horiz-adv-x="1869" 
d="M575 348l381 729h248l135 -729l383 729h303l-598 -1077h-249l-150 717l-383 -717h-264l-234 1077h299zM1008 1204h-295l37 266h295zM1512 1204h-295l37 266h295z" />
    <glyph glyph-name="Germandbls" unicode="&#x1e9e;" horiz-adv-x="1863" 
d="M1829 485q0 -222 -176 -366q-177 -142 -459 -142q-229 0 -397.5 90.5t-243.5 254.5l207 196q75 -142 189 -216.5t257 -74.5t236.5 72t93.5 182q0 207 -332 207h-377l25 193l453 336h-783l-170 -1217h-301l207 1470h1497l-35 -239l-432 -320q252 -6 396.5 -121t144.5 -305
z" />
    <glyph glyph-name="Ygrave" unicode="&#x1ef2;" horiz-adv-x="1751" 
d="M545 1470l442 -610l615 610h370l-858 -845l-88 -625h-301l88 625l-620 845h352zM1085 1864l197 -310h-240l-346 310h389z" />
    <glyph glyph-name="ygrave" unicode="&#x1ef3;" horiz-adv-x="1347" 
d="M1503 1077l-731 -1153q-113 -177 -211 -241q-101 -66 -252 -66q-154 0 -266 47l78 227q85 -36 174 -36q62 0 103.5 26.5t82.5 93.5l37 56l-371 1046h308l252 -768l477 768h319zM831 1470l173 -296h-230l-297 296h354z" />
    <glyph glyph-name="thinspace" unicode="&#x2009;" horiz-adv-x="204" 
 />
    <glyph glyph-name="endash" unicode="&#x2013;" horiz-adv-x="1110" 
d="M1096 485h-946l34 234h946z" />
    <glyph glyph-name="emdash" unicode="&#x2014;" horiz-adv-x="1998" 
d="M1985 485h-1835l34 234h1835z" />
    <glyph glyph-name="quoteleft" unicode="&#x2018;" horiz-adv-x="425" 
d="M406 1171h139l-43 -317h-338l45 322q20 135 122 213.5t257 80.5l-23 -151q-74 -6 -112 -36.5t-45 -90.5z" />
    <glyph glyph-name="quoteright" unicode="&#x2019;" horiz-adv-x="425" 
d="M346 1153h-139l43 317h338l-45 -321q-20 -135 -122 -214.5t-257 -80.5l22 152q74 6 112.5 36.5t45.5 90.5z" />
    <glyph glyph-name="quotesinglbase" unicode="&#x201a;" horiz-adv-x="425" 
d="M186 23h-139l43 317h338l-45 -322q-20 -135 -122 -213.5t-257 -80.5l23 151q74 6 112 36.5t45 90.5z" />
    <glyph glyph-name="quotedblleft" unicode="&#x201c;" horiz-adv-x="866" 
d="M406 1171h139l-43 -317h-338l45 322q20 135 122 213.5t257 80.5l-23 -151q-74 -6 -112 -36.5t-45 -90.5zM848 1171h139l-43 -317h-338l45 322q20 135 122 213.5t257 80.5l-22 -151q-74 -6 -112.5 -36.5t-45.5 -90.5z" />
    <glyph glyph-name="quotedblright" unicode="&#x201d;" horiz-adv-x="866" 
d="M788 1153h-139l43 317h338l-45 -321q-20 -135 -122 -214.5t-257 -80.5l23 152q74 6 112 36.5t45 90.5zM346 1153h-139l43 317h338l-45 -321q-20 -135 -122 -214.5t-257 -80.5l22 152q74 6 112.5 36.5t45.5 90.5z" />
    <glyph glyph-name="quotedblbase" unicode="&#x201e;" horiz-adv-x="866" 
d="M629 23h-140l43 317h338l-45 -322q-20 -135 -122 -213.5t-257 -80.5l23 151q74 6 112.5 36.5t45.5 90.5zM186 23h-139l43 317h338l-45 -322q-20 -135 -122 -213.5t-257 -80.5l23 151q74 6 112 36.5t45 90.5z" />
    <glyph glyph-name="dagger" unicode="&#x2020;" horiz-adv-x="837" 
d="M608 578h-217l66 462h-273l29 217h274l35 254h219l-36 -254h272l-31 -217h-272z" />
    <glyph glyph-name="daggerdbl" unicode="&#x2021;" horiz-adv-x="829" 
d="M608 578h-223l25 182h-265l29 201h264l25 167h-266l28 203h267l24 180h223l-24 -180h264l-29 -203h-264l-24 -167h266l-29 -201h-266z" />
    <glyph glyph-name="bullet" unicode="&#x2022;" horiz-adv-x="888" 
d="M160 600q0 160 104 264q107 107 266 107t263 -107q104 -104 104 -264q0 -159 -106 -262q-105 -105 -261 -105t-264 105q-106 103 -106 262z" />
    <glyph glyph-name="ellipsis" unicode="&#x2026;" horiz-adv-x="1423" 
d="M414 0h-336l45 332h336zM881 0h-336l45 332h336zM1346 0h-336l45 332h336z" />
    <glyph glyph-name="guilsinglleft" unicode="&#x2039;" horiz-adv-x="610" 
d="M549 121l-416 278l39 267l492 278l-39 -285l-228 -137l189 -137z" />
    <glyph glyph-name="guilsinglright" unicode="&#x203a;" horiz-adv-x="610" 
d="M213 944l416 -278l-39 -267l-492 -278l39 285l228 137l-189 137z" />
    <glyph glyph-name="fraction" unicode="&#x2044;" horiz-adv-x="311" 
d="M-553 0l1360 1470h264l-1358 -1470h-266z" />
    <glyph glyph-name="uni2070" unicode="&#x2070;" horiz-adv-x="1056" 
d="M655 645q-196 0 -323 109q-127 112 -127 280q0 189 141 318q140 131 354 131q196 0 322 -111q127 -109 127 -278q0 -188 -141 -320q-138 -129 -353 -129zM690 1296q-109 0 -181 -70t-73 -179q0 -96 64 -156t164 -60q110 0 182 72t72 178q0 97 -62.5 156t-165.5 59z" />
    <glyph glyph-name="uni2074" unicode="&#x2074;" horiz-adv-x="980" 
d="M881 844l-27 -187h-215l27 187h-519l25 168l504 458h293l-64 -454h187l-25 -172h-186zM729 1288l-303 -272h264z" />
    <glyph glyph-name="uni2075" unicode="&#x2075;" horiz-adv-x="921" 
d="M604 1044q-122 0 -215 -55l-188 29l116 452h711l-27 -184h-536l-31 -121q91 45 221 45q161 0 258 -69.5t97 -186.5q0 -138 -119 -223q-118 -86 -311 -86q-160 0 -287 62q-126 62 -160 159l205 90q23 -57 94.5 -94t161.5 -37q87 0 139.5 32t52.5 83q0 48 -49 76t-133 28z
" />
    <glyph glyph-name="uni2076" unicode="&#x2076;" horiz-adv-x="1013" 
d="M733 1483q136 0 246.5 -42t161.5 -114l-150 -125q-37 50 -110.5 79.5t-159.5 29.5q-110 0 -189.5 -53t-99.5 -138q105 88 283 88q163 0 270 -73t107 -189q0 -132 -125 -217q-125 -84 -326 -84q-211 0 -324 92.5t-114 268.5q3 207 147 342t383 135zM641 813
q102 0 164.5 33.5t62.5 87.5q0 50 -57 79t-154 29q-104 0 -166.5 -33t-62.5 -87q0 -50 58 -79.5t155 -29.5z" />
    <glyph glyph-name="uni2077" unicode="&#x2077;" horiz-adv-x="921" 
d="M813 1288h-410l-22 -151h-191l48 333h858l-27 -194q-176 -130 -272.5 -281t-122.5 -338h-232q60 392 371 631z" />
    <glyph glyph-name="uni2078" unicode="&#x2078;" horiz-adv-x="987" 
d="M268 1243q-2 110 108.5 175t299.5 65q179 0 286 -63.5t107 -166.5q0 -122 -154 -182q74 -26 113 -72.5t39 -107.5q0 -113 -122 -179.5t-329 -66.5q-202 0 -325 65t-123 171q0 72 54 127.5t151 81.5q-108 58 -105 153zM485 1239q0 -37 47.5 -58.5t129.5 -21.5
q87 0 137.5 23.5t50.5 62.5q0 37 -48 57.5t-130 20.5q-85 0 -136 -23.5t-51 -60.5zM846 905q0 43 -58.5 66.5t-162.5 23.5q-108 0 -169 -25.5t-61 -70.5q0 -41 59 -64.5t162 -23.5q105 0 167.5 25.5t62.5 68.5z" />
    <glyph glyph-name="uni2079" unicode="&#x2079;" horiz-adv-x="1013" 
d="M582 645q-137 0 -248 42t-162 114l147 125q38 -49 111 -78t158 -29q112 0 192.5 52t100.5 137q-111 -88 -285 -88q-163 0 -270 73t-107 189q0 133 125 215q127 86 328 86q213 0 324.5 -93t113.5 -270q-3 -207 -147 -342q-145 -133 -381 -133zM672 1315
q-103 0 -165.5 -33.5t-62.5 -87.5q0 -50 57 -79.5t154 -29.5q104 0 167 33.5t63 87.5q0 50 -58 79.5t-155 29.5z" />
    <glyph glyph-name="uni2080" unicode="&#x2080;" horiz-adv-x="1056" 
d="M528 -258q-197 0 -323 108q-127 112 -127 281q0 189 141 318q140 131 354 131q196 0 322 -111q127 -109 127 -279q0 -187 -141 -319q-138 -129 -353 -129zM563 393q-109 0 -181 -70.5t-73 -179.5q0 -96 64 -155.5t164 -59.5q110 0 182 72t72 178q0 97 -62.5 156
t-165.5 59z" />
    <glyph glyph-name="uni2081" unicode="&#x2081;" horiz-adv-x="763" 
d="M281 -57l45 321h-260l24 166l121 4q93 2 141 32.5t68 102.5h174l-88 -626h235l-26 -189h-723l26 189h263z" />
    <glyph glyph-name="uni2082" unicode="&#x2082;" horiz-adv-x="925" 
d="M27 -246l24 166l443 215q93 44 135.5 83.5t42.5 80.5q0 43 -41.5 69.5t-108.5 26.5q-88 0 -151.5 -46t-89.5 -130l-199 47q36 144 157.5 229t297.5 85q164 0 263 -71.5t99 -189.5q0 -91 -60.5 -162t-185.5 -128l-192 -90h407l-26 -185h-815z" />
    <glyph glyph-name="uni2083" unicode="&#x2083;" horiz-adv-x="958" 
d="M913 -6q0 -113 -116.5 -182.5t-313.5 -69.5q-180 0 -308 63.5t-163 169.5l203 88q20 -66 93.5 -103.5t178.5 -37.5q88 0 138.5 24.5t50.5 67.5q0 68 -156 68h-176l27 168h168q75 0 118 20.5t43 55.5q0 32 -41.5 51.5t-113.5 19.5q-94 0 -166 -30.5t-109 -85.5l-174 94
q60 98 180 151.5t281 53.5q177 0 281 -61.5t104 -164.5q0 -66 -44 -115.5t-122 -74.5q66 -20 101.5 -65t35.5 -105z" />
    <glyph glyph-name="uni2084" unicode="&#x2084;" horiz-adv-x="980" 
d="M754 -59l-27 -187h-215l27 187h-519l25 168l504 458h293l-64 -454h187l-25 -172h-186zM602 385l-303 -272h264z" />
    <glyph glyph-name="uni2085" unicode="&#x2085;" horiz-adv-x="921" 
d="M477 141q-122 0 -215 -55l-188 29l116 452h711l-27 -184h-536l-31 -121q91 45 221 45q161 0 258 -69.5t97 -186.5q0 -138 -119 -223q-118 -86 -311 -86q-162 0 -287 61q-126 61 -160 160l205 90q23 -57 94.5 -94t161.5 -37q87 0 139.5 32t52.5 83q0 48 -49 76t-133 28z
" />
    <glyph glyph-name="uni2086" unicode="&#x2086;" horiz-adv-x="1013" 
d="M606 580q136 0 246.5 -42t161.5 -114l-150 -125q-37 50 -110.5 79.5t-159.5 29.5q-110 0 -189.5 -53t-99.5 -138q105 88 283 88q161 0 270 -74q107 -73 107 -188q0 -132 -125 -217q-125 -84 -326 -84q-212 0 -324.5 92t-113.5 268q3 207 147 342q145 136 383 136z
M514 -90q102 0 164.5 33.5t62.5 87.5q0 50 -57 79t-154 29q-104 0 -166.5 -33.5t-62.5 -87.5q0 -49 58 -78.5t155 -29.5z" />
    <glyph glyph-name="uni2087" unicode="&#x2087;" horiz-adv-x="919" 
d="M686 385h-410l-22 -152h-191l48 334h858l-27 -194q-176 -130 -272.5 -281t-122.5 -338h-232q60 392 371 631z" />
    <glyph glyph-name="uni2088" unicode="&#x2088;" horiz-adv-x="987" 
d="M141 340q-2 110 108.5 175t299.5 65q179 0 286 -63.5t107 -166.5q0 -122 -154 -182q74 -26 113 -72.5t39 -107.5q0 -113 -122 -179.5t-329 -66.5q-202 0 -325 64.5t-123 170.5q0 72 54 127.5t151 81.5q-108 59 -105 154zM358 336q0 -37 47.5 -58.5t129.5 -21.5
q87 0 137.5 23.5t50.5 62.5q0 37 -48 57.5t-130 20.5q-85 0 -136 -23.5t-51 -60.5zM719 2q0 43 -58.5 66.5t-162.5 23.5q-108 0 -169 -25.5t-61 -70.5q0 -41 59 -64.5t162 -23.5q105 0 167.5 25.5t62.5 68.5z" />
    <glyph glyph-name="uni2089" unicode="&#x2089;" horiz-adv-x="1013" 
d="M455 -258q-137 0 -248 42t-162 114l148 125q38 -49 110.5 -78t157.5 -29q112 0 192.5 51.5t100.5 136.5q-111 -88 -285 -88q-161 0 -270 74q-107 73 -107 189q0 133 125 215q127 86 328 86q213 0 324.5 -93t113.5 -270q-3 -207 -147 -342q-145 -133 -381 -133zM545 412
q-103 0 -165.5 -33.5t-62.5 -87.5q0 -50 57 -79.5t154 -29.5q104 0 167 33.5t63 87.5q0 50 -58 79.5t-155 29.5z" />
    <glyph glyph-name="franc" unicode="&#x20a3;" horiz-adv-x="1767" 
d="M281 291h-295l32 229h295l133 950h1403l-37 -256h-1105l-43 -317h989l-37 -256h-989l-17 -121h387l-32 -229h-387l-41 -291h-297z" />
    <glyph glyph-name="naira" unicode="&#x20a6;" horiz-adv-x="2177" 
d="M324 477h-295l26 199h297l17 119h-297l28 198h297l66 477h307l766 -1040l145 1040h291l-65 -477h295l-29 -198h-295l-16 -119h295l-29 -199h-295l-68 -477h-264l-801 1090l-151 -1090h-293z" />
    <glyph glyph-name="peseta" unicode="&#x20a7;" horiz-adv-x="2146" 
d="M1188 381h-578l-53 -381h-301l115 813h-295l33 225h294l60 432h817q246 0 399 -118q159 -119 183 -314h315l-35 -225h-297q-51 -203 -225 -317.5t-432 -114.5zM1253 1219h-524l-24 -181h858q-20 86 -101.5 133.5t-208.5 47.5zM672 813l-27 -180h549q121 0 210 47t132 133
h-864z" />
    <glyph glyph-name="won" unicode="&#x20a9;" horiz-adv-x="2291" 
d="M360 477h-331l26 199h279l-17 119h-245l28 198h191l-64 477h293l125 -1118l483 1118h285l170 -1112l434 1112h303l-196 -477h190l-28 -198h-244l-49 -119h276l-28 -199h-330l-199 -477h-319l-158 1098l-473 -1098h-340z" />
    <glyph glyph-name="dong" unicode="&#x20ab;" horiz-adv-x="1468" 
d="M928 172l14 102q-55 -57 -149 -88.5t-207 -31.5q-218 0 -350 114q-134 116 -134 297q0 211 162 348q166 140 416 140q116 0 209 -36t143 -99l31 215h-330l31 215h330l16 122h258l-16 -122h209l-31 -215h-209l-135 -961h-258zM995 621q0 100 -82 161.5t-215 61.5
q-144 0 -239 -74q-94 -73 -94 -184q0 -99 81 -161.5t213 -62.5q145 0 240 74q96 75 96 185zM1133 -215h-1127l29 215h1126z" />
    <glyph glyph-name="Euro" unicode="&#x20ac;" horiz-adv-x="1826" 
d="M356 483h-250l29 197h195q0 65 10 119h-188l26 194h219q101 228 324 365q225 135 506 135t479 -127q198 -125 248 -338l-262 -121q-41 154 -170.5 240t-319.5 86q-160 0 -288.5 -62.5t-206.5 -177.5h639l-72 -194h-647q-9 -47 -9 -101v-18h613l-72 -197h-491
q60 -117 185 -181t290 -64q327 0 491 309l234 -137q-109 -208 -301 -320.5t-439 -112.5q-289 0 -499 136q-210 141 -273 370z" />
    <glyph glyph-name="peso" unicode="&#x20b1;" horiz-adv-x="2146" 
d="M350 666h-297l29 198h297l16 121h-297l29 199h297l39 286h829q190 0 330.5 -75.5t202.5 -210.5h370l-28 -199h-301v-4q0 -73 -8 -117h292l-28 -198h-340q-85 -131 -234.5 -201t-345.5 -70h-590l-55 -395h-301zM729 1219l-82 -570h557q167 0 267 90t100 240
q0 113 -80.5 176.5t-222.5 63.5h-539z" />
    <glyph glyph-name="uni20B9" unicode="&#x20b9;" horiz-adv-x="1687" 
d="M700 506h-665l33 242h741q92 0 164.5 31.5t113.5 88.5h-1003l35 242h995q-26 57 -87 88t-148 31h-742l33 241h1606l-33 -241h-395q32 -41 57 -119h319l-34 -242h-297q-42 -120 -141.5 -209t-237.5 -127l305 -532h-336z" />
    <glyph glyph-name="uni20BA" unicode="&#x20ba;" horiz-adv-x="1591" 
d="M250 299l-285 -145l33 231l285 145l16 125l-279 -143l35 231l277 144l82 583h301l-58 -415l459 237l-35 -233l-454 -236l-19 -125l455 236l-33 -232l-452 -233l-31 -209h258q217 0 338.5 119.5t152.5 363.5h301q-53 -393 -245 -567q-191 -176 -559 -176h-586z" />
    <glyph glyph-name="uni20BD" unicode="&#x20bd;" horiz-adv-x="1851" 
d="M295 229h-301l35 248h301l18 121h-299l37 248h297l86 624h936q222 0 349.5 -110t127.5 -301q0 -209 -149 -334q-151 -127 -398 -127h-686l-18 -121h583l-34 -248h-584l-33 -229h-301zM1372 1223h-637l-51 -377h655q112 0 180 58.5t68 152.5q0 80 -55.5 123t-159.5 43z
" />
    <glyph glyph-name="trademark" unicode="&#x2122;" horiz-adv-x="1884" 
d="M680 1278l-70 -500h-215l70 500h-260l26 192h736l-27 -192h-260zM1782 1217l-273 -439h-118l-146 439l-63 -439h-195l98 692h271l135 -383l240 383h282l-98 -692h-197z" />
    <glyph glyph-name="uni2153" unicode="&#x2153;" horiz-adv-x="2174" 
d="M408 846l45 321h-260l24 166l121 4q92 2 140.5 33t68.5 103h174l-88 -627h235l-26 -189h-723l26 189h263zM350 0l1360 1470h264l-1358 -1470h-266zM2165 240q0 -113 -116.5 -182.5t-313.5 -69.5q-180 0 -308 63.5t-163 169.5l202 88q20 -66 94 -103.5t179 -37.5
q88 0 138 24.5t50 67.5q0 68 -155 68h-177l27 168h168q75 0 118.5 20t43.5 55q0 32 -42.5 52t-113.5 20q-94 0 -165.5 -30.5t-108.5 -86.5l-174 95q60 98 179.5 151t280.5 53q177 0 281 -61t104 -164q0 -66 -43.5 -115.5t-121.5 -74.5q66 -20 101.5 -65t35.5 -105z" />
    <glyph glyph-name="uni2154" unicode="&#x2154;" horiz-adv-x="2295" 
d="M154 657l24 166l443 215q93 44 135.5 83.5t42.5 80.5q0 43 -41.5 69.5t-108.5 26.5q-88 0 -151.5 -46t-89.5 -130l-199 47q36 144 157.5 229t297.5 85q164 0 263 -71t99 -189q0 -178 -246 -291l-192 -90h407l-26 -185h-815zM469 0l1360 1470h264l-1358 -1470h-266z
M2286 240q0 -113 -117 -182.5t-314 -69.5q-180 0 -308 63.5t-163 169.5l203 88q20 -66 94 -103.5t179 -37.5q88 0 138 24.5t50 67.5q0 68 -156 68h-176l27 168h168q75 0 118.5 20t43.5 55q0 32 -42.5 52t-113.5 20q-94 0 -166 -30.5t-109 -86.5l-174 95q60 98 180 151
t281 53q177 0 281 -61t104 -164q0 -66 -44 -115.5t-122 -74.5q66 -20 102 -65t36 -105z" />
    <glyph glyph-name="uni215B" unicode="&#x215b;" horiz-adv-x="2201" 
d="M408 846l45 321h-260l24 166l121 4q92 2 140.5 33t68.5 103h174l-88 -627h235l-26 -189h-723l26 189h263zM350 0l1360 1470h264l-1358 -1470h-266zM1391 586q-1 110 108.5 174.5t298.5 64.5q179 0 286 -63t107 -166q0 -122 -153 -182q73 -26 112 -72.5t39 -108.5
q0 -113 -121.5 -179t-328.5 -66q-202 0 -325.5 64.5t-123.5 170.5q0 72 54 127.5t151 81.5q-107 58 -104 154zM1608 582q0 -37 47 -58.5t129 -21.5q87 0 137.5 23.5t50.5 62.5q0 37 -48 57.5t-130 20.5q-85 0 -135.5 -23.5t-50.5 -60.5zM1968 248q0 43 -58.5 66.5
t-162.5 23.5q-108 0 -168.5 -25.5t-60.5 -70.5q0 -41 59 -64.5t162 -23.5q105 0 167 25.5t62 68.5z" />
    <glyph glyph-name="uni215C" unicode="&#x215c;" horiz-adv-x="2285" 
d="M1042 897q0 -113 -116.5 -182.5t-313.5 -69.5q-179 0 -307.5 64t-163.5 170l203 88q20 -66 93.5 -104t178.5 -38q88 0 138.5 25t50.5 68q0 67 -156 67h-176l27 168h168q75 0 118 20.5t43 55.5q0 32 -41.5 51.5t-113.5 19.5q-94 0 -166 -30.5t-109 -85.5l-174 94
q60 98 180 151.5t281 53.5q177 0 281 -61.5t104 -164.5q0 -66 -44 -115.5t-122 -74.5q66 -20 101.5 -65t35.5 -105zM434 0l1360 1470h264l-1358 -1470h-266zM1475 586q-1 110 108.5 174.5t298.5 64.5q179 0 286 -63t107 -166q0 -122 -153 -182q73 -26 112 -72.5t39 -108.5
q0 -113 -121.5 -179t-328.5 -66q-202 0 -325.5 64.5t-123.5 170.5q0 72 54 127.5t151 81.5q-107 58 -104 154zM1692 582q0 -37 47 -58.5t129 -21.5q87 0 137.5 23.5t50.5 62.5q0 37 -48 57.5t-130 20.5q-85 0 -135.5 -23.5t-50.5 -60.5zM2052 248q0 43 -58.5 66.5
t-162.5 23.5q-108 0 -168.5 -25.5t-60.5 -70.5q0 -41 59 -64.5t162 -23.5q105 0 167 25.5t62 68.5z" />
    <glyph glyph-name="uni215D" unicode="&#x215d;" horiz-adv-x="2236" 
d="M604 1044q-122 0 -215 -55l-188 29l116 452h711l-27 -184h-536l-31 -121q91 45 221 45q161 0 258 -69.5t97 -186.5q0 -138 -119 -223q-118 -86 -311 -86q-160 0 -287 62q-126 62 -160 159l205 90q23 -57 94.5 -94t161.5 -37q87 0 139.5 32t52.5 83q0 48 -49 76t-133 28z
M385 0l1360 1470h264l-1358 -1470h-266zM1425 586q-1 110 109 174.5t299 64.5q179 0 286 -63t107 -166q0 -122 -153 -182q73 -26 112 -72.5t39 -108.5q0 -113 -121.5 -179t-328.5 -66q-202 0 -325.5 64.5t-123.5 170.5q0 72 54 127.5t151 81.5q-108 59 -105 154zM1642 582
q0 -37 47.5 -58.5t129.5 -21.5q87 0 137.5 23.5t50.5 62.5q0 37 -48 57.5t-130 20.5q-85 0 -136 -23.5t-51 -60.5zM2003 248q0 43 -58.5 66.5t-162.5 23.5q-108 0 -169 -25.5t-61 -70.5q0 -41 59.5 -64.5t162.5 -23.5q105 0 167 25.5t62 68.5z" />
    <glyph glyph-name="uni215E" unicode="&#x215e;" horiz-adv-x="2107" 
d="M813 1288h-410l-22 -151h-191l48 333h858l-27 -194q-176 -130 -272.5 -281t-122.5 -338h-232q60 392 371 631zM256 0l1360 1470h264l-1358 -1470h-266zM1298 586q-1 110 109 174.5t299 64.5q179 0 286 -63t107 -166q0 -122 -153 -182q73 -26 112 -72.5t39 -108.5
q0 -113 -121.5 -179t-328.5 -66q-202 0 -325.5 64.5t-123.5 170.5q0 72 54 127.5t151 81.5q-108 59 -105 154zM1516 582q0 -37 47 -58.5t129 -21.5q87 0 137.5 23.5t50.5 62.5q0 37 -48 57.5t-130 20.5q-85 0 -135.5 -23.5t-50.5 -60.5zM1876 248q0 43 -58.5 66.5
t-162.5 23.5q-108 0 -169 -25.5t-61 -70.5q0 -41 59.5 -64.5t162.5 -23.5q105 0 167 25.5t62 68.5z" />
    <glyph glyph-name="arrowleft" unicode="&#x2190;" horiz-adv-x="1656" 
d="M504 610l358 -401l-194 -182l-631 714l631 715l194 -182l-358 -402h1151v-262h-1151z" />
    <glyph glyph-name="arrowup" unicode="&#x2191;" horiz-adv-x="1527" 
d="M1401 811l-180 -186l-441 405v-1030h-266v1028l-438 -403l-182 186l753 682z" />
    <glyph glyph-name="arrowright" unicode="&#x2192;" horiz-adv-x="1654" 
d="M1040 1456l631 -715l-631 -714l-194 182l360 401h-1153v262h1153l-360 402z" />
    <glyph glyph-name="arrowdown" unicode="&#x2193;" horiz-adv-x="1527" 
d="M1352 846l180 -187l-754 -682l-753 682l182 187l438 -404v1028h266v-1030z" />
    <glyph glyph-name="minus" unicode="&#x2212;" 
d="M1599 602h-1392l35 246h1392z" />
    <glyph glyph-name="commaaccent" unicode="&#xf6c3;" horiz-adv-x="1228" 
d="M543 -244h-107l23 174h286l-16 -123q-13 -112 -95.5 -171.5t-223.5 -59.5l16 115q49 0 80 17t37 48z" />
    <glyph glyph-name="Euro.lt" 
d="M272 483h-155l26 197h111q3 86 10 119h-104l28 194h129q96 234 297 365q202 135 463 135q252 0 432 -127q179 -126 226 -340l-260 -108q-38 152 -147 233.5t-271 81.5q-143 0 -257.5 -62.5t-181.5 -177.5h553l-67 -194h-559q-10 -72 -10 -119h526l-68 -197h-422
q49 -116 156.5 -180.5t249.5 -64.5q146 0 253 75.5t189 235.5l232 -131q-103 -214 -282.5 -327.5t-414.5 -113.5q-260 0 -446 136q-184 140 -236 370z" />
    <glyph glyph-name="a.ord" horiz-adv-x="1005" 
d="M813 791q-126 -107 -317 -107q-146 0 -232 61.5t-86 165.5q0 105 87.5 172t246.5 80l328 31l2 14q5 45 -40.5 72t-129.5 27q-81 0 -139 -28t-84 -79l-197 57q50 109 163.5 168.5t274.5 59.5q189 0 288.5 -78t80.5 -211l-41 -287q-3 -33 18 -45q12 -4 29 -4q20 0 47 6
l-22 -166q-55 -10 -93 -10q-49 0 -90 12q-73 27 -94 89zM541 850q109 0 185.5 40.5t84.5 102.5l8 47l-284 -28q-136 -15 -136 -84q0 -37 38 -57.5t104 -20.5z" />
    <glyph glyph-name="acute.cap" horiz-adv-x="1228" 
d="M780 1554h-274l282 310h424z" />
    <glyph glyph-name="at.cap" horiz-adv-x="2174" 
d="M1798 1112l-174 -520q-21 -57 -2 -88t76 -31q118 0 213 117q94 116 94 274q0 211 -184 334q-181 123 -498 123q-377 0 -627 -172q-147 -99 -226 -243.5t-79 -309.5q0 -252 197 -392.5t549 -140.5q189 0 370 40.5t322 113.5l108 -192q-336 -187 -807 -187q-463 0 -729 201
q-262 200 -262 553q0 209 102.5 396t288.5 321q322 233 803 233q409 0 662 -188q252 -188 252 -488q0 -251 -172 -426q-172 -172 -416 -172q-209 0 -287 140q-64 -64 -162 -101t-206 -37q-173 0 -275 95t-102 256q0 208 164 358q168 151 397 151q207 0 315 -133l39 115h256z
M913 653q0 -78 53 -124t144 -46q123 0 209 80q88 79 88 185q0 78 -53 124t-144 46q-122 0 -211 -80q-86 -80 -86 -185z" />
    <glyph glyph-name="b.ord" horiz-adv-x="1091" 
d="M1192 1116q0 -182 -127 -309q-125 -125 -320 -125q-187 0 -292 117l-15 -99h-227l147 1051h228l-49 -367q44 47 115 74t153 27q170 0 278 -105q109 -103 109 -264zM741 1303q-110 0 -184 -69t-74 -169q0 -88 64 -143.5t166 -55.5q110 0 184 69t74 169q0 87 -65 143
t-165 56z" />
    <glyph glyph-name="backslash.cap" horiz-adv-x="1146" 
d="M537 1587l567 -1712h-289l-567 1712h289z" />
    <glyph glyph-name="bar.cap" horiz-adv-x="552" 
d="M397 -125h-278l241 1712h279z" />
    <glyph glyph-name="braceleft.cap" horiz-adv-x="864" 
d="M236 598h-111l33 229h92q120 0 141 154l35 233q49 355 428 355h211l-33 -226h-143q-94 0 -146 -46t-65 -144l-27 -192q-14 -100 -58 -162t-128 -97q140 -60 113 -258l-25 -172q-12 -104 25 -147t137 -43h141l-33 -225h-176q-189 0 -288 96.5t-76 257.5l32 233
q12 80 -6.5 117t-72.5 37z" />
    <glyph glyph-name="braceright.cap" horiz-adv-x="864" 
d="M829 827h111l-33 -229h-92q-120 0 -141 -154l-35 -233q-49 -354 -428 -354h-211l33 225h143q94 0 146 46t65 144l27 193q14 100 58 161.5t128 96.5q-140 60 -113 258l25 172q12 104 -25 147t-137 43h-141l33 226h176q189 0 288 -97t76 -258l-32 -233q-12 -80 6.5 -117
t72.5 -37z" />
    <glyph glyph-name="bracketleft.cap" horiz-adv-x="745" 
d="M913 1343h-360l-176 -1261h360l-32 -225h-644l242 1712h643z" />
    <glyph glyph-name="bracketright.cap" horiz-adv-x="745" 
d="M33 82h360l176 1261h-360l33 226h643l-242 -1712h-643z" />
    <glyph glyph-name="breve.cap" horiz-adv-x="1228" 
d="M868 1739q86 0 142.5 34.5t64.5 90.5h209q-17 -150 -128.5 -234t-299.5 -84q-190 0 -296.5 87.5t-92.5 230.5h209q-6 -54 49 -89.5t143 -35.5z" />
    <glyph glyph-name="bullet.cap" horiz-adv-x="888" 
d="M178 731q0 159 105 264q107 107 266 107q158 0 262 -107q104 -104 104 -264q0 -159 -106 -262q-104 -104 -260 -104q-157 0 -264 104t-107 262z" />
    <glyph glyph-name="c.ord" horiz-adv-x="946" 
d="M672 1298q-106 0 -176 -66.5t-70 -166.5q0 -88 61.5 -142.5t159.5 -54.5q79 0 141.5 40t88.5 108l184 -88q-50 -117 -160 -181.5t-262 -64.5q-194 0 -313 104q-121 109 -121 273q0 183 135 303q135 123 344 123q157 0 269 -72t141 -188l-203 -82q-12 69 -72.5 112
t-146.5 43z" />
    <glyph glyph-name="caron.Slovak" horiz-adv-x="1228" 
d="M784 1130h-196l100 340h313z" />
    <glyph glyph-name="caron.cap" horiz-adv-x="1228" 
d="M1331 1864l-340 -310h-317l-252 310h225l199 -138l237 138h248z" />
    <glyph glyph-name="cent.lt" 
d="M950 -211h-229l29 201q-222 37 -351 174.5t-129 339.5q0 248 179 424q183 177 460 198l31 215h227l-30 -223q171 -29 288.5 -119.5t149.5 -218.5l-227 -114q-20 78 -85 136t-159 83l-94 -670q103 20 182.5 78.5t116.5 140.5l202 -131q-74 -140 -213 -224t-321 -97z
M532 520q0 -112 66.5 -192t183.5 -109l95 674q-157 -28 -250 -131q-95 -103 -95 -242z" />
    <glyph glyph-name="circumflex.cap" horiz-adv-x="1228" 
d="M717 1864h317l254 -310h-227l-199 138l-235 -138h-248z" />
    <glyph glyph-name="colon.mid" horiz-adv-x="622" 
d="M510 223h-336l45 332h336zM608 918h-336l45 331h336z" />
    <glyph glyph-name="colon.tab" horiz-adv-x="819" 
d="M580 0h-336l45 332h336zM678 694h-336l45 332h336z" />
    <glyph glyph-name="comma.tab" horiz-adv-x="819" 
d="M385 0h-141l45 332h336l-50 -365q-20 -129 -117.5 -199t-256.5 -69l20 151q69 1 111.5 31.5t48.5 81.5z" />
    <glyph glyph-name="commaturn" horiz-adv-x="1228" 
d="M840 1348h106l-22 -174h-287l16 122q13 112 96 172t224 60l-17 -115q-103 0 -116 -65z" />
    <glyph glyph-name="d.ord" horiz-adv-x="1091" 
d="M592 684q-173 0 -281 102q-106 103 -106 267q0 180 127 307t319 127q88 0 164 -30t127 -85l55 379h226l-148 -1051h-225l10 86q-48 -48 -118.5 -75t-149.5 -27zM655 866q112 0 186 68.5t74 171.5q0 86 -65.5 141.5t-165.5 55.5q-110 0 -185 -68.5t-75 -167.5
q0 -90 64 -145.5t167 -55.5z" />
    <glyph glyph-name="dieresis.cap" horiz-adv-x="1228" 
d="M721 1554h-295l37 271h295zM1241 1554h-295l37 271h295z" />
    <glyph glyph-name="dollar.lt" 
d="M37 342l215 197q67 -102 198.5 -174t303.5 -101l53 377q-243 35 -367 86q-207 87 -207 287q0 198 189 325q191 128 504 131l28 209h240l-31 -223q198 -26 349.5 -99.5t220.5 -176.5l-211 -183q-121 160 -394 211l-49 -344q330 -50 459 -141q129 -89 129 -248
q0 -213 -190 -342q-192 -127 -519 -133l-30 -213h-242l33 227q-231 26 -420 117q-184 88 -262 211zM522 1049q0 -63 58 -93q64 -33 264 -59l47 328q-172 -1 -270.5 -48.5t-98.5 -127.5zM1372 438q0 68 -65 103q-65 38 -265 65l-49 -358q183 5 281 53.5t98 136.5z" />
    <glyph glyph-name="dotaccent.cap" horiz-adv-x="1228" 
d="M987 1554h-307l37 271h307z" />
    <glyph glyph-name="e.ord" horiz-adv-x="997" 
d="M641 682q-189 0 -313 106q-123 108 -123 271q0 180 135 303q138 123 344 123q187 0 303 -101q117 -102 117 -258q0 -56 -10 -100h-670q13 -73 76 -117.5t151 -44.5q75 0 135.5 33t92.5 90l190 -80q-57 -106 -169.5 -165.5t-258.5 -59.5zM674 1311q-79 0 -141 -38
t-93 -106h445q-6 63 -65 103.5t-146 40.5z" />
    <glyph glyph-name="eight.dnom" horiz-adv-x="987" 
d="M176 586q-1 110 109 174.5t299 64.5q179 0 286 -63t107 -166q0 -122 -154 -182q74 -26 113 -73t39 -108q0 -112 -122 -178.5t-329 -66.5q-202 0 -325 64.5t-123 170.5q0 72 54 127.5t151 81.5q-108 59 -105 154zM393 582q0 -37 47 -58.5t129 -21.5q87 0 138 23.5t51 62.5
q0 37 -48 57.5t-130 20.5q-85 0 -136 -23.5t-51 -60.5zM754 248q0 43 -58.5 66.5t-163.5 23.5q-108 0 -168.5 -25.5t-60.5 -70.5q0 -41 59 -64.5t162 -23.5q105 0 167.5 25.5t62.5 68.5z" />
    <glyph glyph-name="eight.lt" 
d="M317 1083q0 185 183 297q183 113 491 113q290 0 461 -109q172 -108 172 -286q0 -231 -315 -334q156 -43 244.5 -136t88.5 -216q0 -196 -208 -316q-204 -119 -564 -119q-348 0 -555 115q-206 114 -206 307q0 136 114.5 238t319.5 149q-226 97 -226 297zM606 1067
q0 -86 92 -133t260 -47q173 0 273 52.5t100 143.5q0 86 -93 133.5t-261 47.5q-173 0 -272 -53t-99 -144zM1343 436q0 100 -122.5 156.5t-337.5 56.5q-218 0 -342.5 -60.5t-124.5 -164.5q0 -99 120.5 -155t333.5 -56q220 0 346.5 60t126.5 163z" />
    <glyph glyph-name="emdash.cap" horiz-adv-x="1998" 
d="M2003 616h-1835l35 234h1835z" />
    <glyph glyph-name="endash.cap" horiz-adv-x="1110" 
d="M1114 616h-946l35 234h946z" />
    <glyph glyph-name="f.ord" horiz-adv-x="700" 
d="M760 1767q106 0 211 -30l-53 -176q-73 20 -150 20q-145 0 -160 -96l-2 -15h287l-27 -186h-286l-80 -584h-224l80 584h-176l27 186h176l2 15q41 282 375 282z" />
    <glyph glyph-name="five.dnom" horiz-adv-x="921" 
d="M512 387q-122 0 -215 -55l-188 28l116 453h711l-27 -184h-536l-31 -121q91 45 221 45q161 0 258 -69.5t97 -186.5q0 -138 -119 -223q-118 -86 -312 -86q-161 0 -286 61q-126 61 -160 160l205 90q23 -57 94.5 -94t161.5 -37q87 0 139.5 32t52.5 83q0 48 -49 76t-133 28z
" />
    <glyph glyph-name="five.lt" 
d="M926 756q-248 0 -449 -129l-227 61l203 782h1216l-37 -260h-985l-82 -305q184 94 430 94q297 0 471 -131q176 -129 176 -340q0 -240 -210 -395q-208 -156 -543 -156q-297 0 -522 123q-224 123 -265 314l279 116q27 -128 176 -215q148 -86 342 -86q186 0 313 80
q125 82 125 201q0 111 -112.5 178.5t-298.5 67.5z" />
    <glyph glyph-name="florin.lt" 
d="M1057 680l-86 -266q-73 -227 -209 -332t-356 -105q-121 0 -224.5 32t-169.5 89l142 203q109 -84 241 -84q211 0 283 227l76 236h-295l28 201h330l57 176q73 227 209.5 331.5t356.5 104.5q121 0 224 -32t169 -89l-141 -203q-109 84 -242 84q-211 0 -283 -227l-47 -145h322
l-27 -201h-358z" />
    <glyph glyph-name="four.dnom" horiz-adv-x="980" 
d="M788 186l-26 -186h-215l26 186h-518l25 168l504 459h293l-64 -455h186l-24 -172h-187zM637 631l-303 -273h264z" />
    <glyph glyph-name="four.lt" 
d="M1333 352l-51 -352h-289l49 352h-933l32 234l959 884h389l-121 -872h311l-32 -246h-314zM1163 1212l-661 -614h575z" />
    <glyph glyph-name="g.ord" horiz-adv-x="1089" 
d="M1184 1470l-99 -675q-25 -171 -158 -271t-341 -100q-159 0 -278.5 55t-157.5 146l159 112q35 -65 110.5 -101t174.5 -36q236 0 264 188l4 29q-44 -49 -113.5 -75.5t-152.5 -26.5q-173 0 -283 98q-108 102 -108 258q0 176 125 295q127 121 317 121q189 0 295 -115l14 98
h228zM657 891q106 0 180 65.5t74 159.5q0 86 -64.5 139.5t-164.5 53.5q-109 0 -182.5 -65.5t-73.5 -162.5q0 -85 64 -137.5t167 -52.5z" />
    <glyph glyph-name="grave.cap" horiz-adv-x="1228" 
d="M922 1864l196 -310h-239l-347 310h390z" />
    <glyph glyph-name="guillemotleft.cap" horiz-adv-x="1116" 
d="M578 322l-416 278l39 266l491 279l-39 -285l-227 -137l188 -137zM1083 322l-415 278l39 266l491 279l-39 -285l-227 -137l188 -137z" />
    <glyph glyph-name="guillemotright.cap" horiz-adv-x="1116" 
d="M745 1145l416 -279l-39 -266l-491 -278l39 284l227 137l-188 138zM240 1145l415 -279l-39 -266l-491 -278l39 284l227 137l-188 138z" />
    <glyph glyph-name="guilsinglleft.cap" horiz-adv-x="610" 
d="M578 322l-416 278l39 266l491 279l-39 -285l-227 -137l188 -137z" />
    <glyph glyph-name="guilsinglright.cap" horiz-adv-x="610" 
d="M240 1145l415 -279l-39 -266l-491 -278l39 284l227 137l-188 138z" />
    <glyph glyph-name="h.ord" horiz-adv-x="1064" 
d="M438 700h-227l149 1051h228l-53 -373q101 107 270 107q160 0 247 -99.5t64 -257.5l-59 -428h-228l52 373q14 99 -30 155t-136 56q-93 0 -151.5 -55.5t-71.5 -157.5z" />
    <glyph glyph-name="hungarumlaut.cap" horiz-adv-x="1228" 
d="M1065 1554h-234l238 310h348zM582 1554h-234l223 310h363z" />
    <glyph glyph-name="hyphen.cap" horiz-adv-x="753" 
d="M756 606h-590l37 256h590z" />
    <glyph glyph-name="i.ord" horiz-adv-x="452" 
d="M559 1552h-231l28 199h232zM319 1470h228l-109 -770h-227z" />
    <glyph glyph-name="idotaccent" horiz-adv-x="505" 
d="M569 1204h-293l37 266h293zM262 1077h287l-152 -1077h-286z" />
    <glyph glyph-name="j.ord" horiz-adv-x="452" 
d="M559 1552h-229l26 199h232zM80 606q64 0 96 29t39 96l104 739h228l-107 -747q-20 -152 -103 -223.5t-237 -71.5q-107 0 -202 29l55 172q71 -23 127 -23z" />
    <glyph glyph-name="k.ord" horiz-adv-x="1019" 
d="M360 1751h228l-86 -608l424 327h317l-430 -323l332 -447h-273l-235 314l-172 -131l-27 -183h-227z" />
    <glyph glyph-name="l.ord" horiz-adv-x="454" 
d="M360 1751h228l-150 -1051h-227z" />
    <glyph glyph-name="m.ord" horiz-adv-x="1636" 
d="M702 1286q-86 0 -141 -55t-69 -154l-54 -377h-227l111 770h225l-12 -92q99 107 258 107q88 0 158 -37t102 -100q128 137 319 137q165 0 252 -97t62 -255l-60 -433h-227l53 379q13 97 -28.5 152t-127.5 55t-141.5 -55.5t-69.5 -153.5l-53 -377h-227l53 379
q14 97 -27.5 152t-128.5 55z" />
    <glyph glyph-name="macron.cap" horiz-adv-x="1228" 
d="M1268 1794l-33 -223h-801l31 223h803z" />
    <glyph glyph-name="n.ord" horiz-adv-x="1064" 
d="M438 700h-227l111 770h225l-12 -92q104 107 270 107q160 0 247 -99.5t64 -257.5l-59 -428h-228l52 373q14 99 -30 155t-136 56q-93 0 -151.5 -55.5t-71.5 -157.5z" />
    <glyph glyph-name="nine.dnom" horiz-adv-x="1013" 
d="M489 -12q-137 0 -247.5 41.5t-161.5 113.5l147 125q38 -49 111 -77.5t158 -28.5q112 0 192 51.5t100 136.5q-111 -88 -284 -88q-162 0 -271 74q-106 72 -106 188q0 133 125 215q127 86 328 86q213 0 324.5 -92.5t113.5 -269.5q-3 -206 -148 -342q-145 -133 -381 -133z
M580 657q-103 0 -165.5 -33t-62.5 -87q0 -50 57 -79.5t154 -29.5q104 0 167 33.5t63 87.5q0 49 -58 78.5t-155 29.5z" />
    <glyph glyph-name="nine.lt" 
d="M772 -23q-217 0 -387 84t-252 232l219 172q62 -113 178.5 -177.5t264.5 -64.5q213 0 370 121q159 125 205 326q-97 -93 -231.5 -143t-288.5 -50q-278 0 -453 135q-176 135 -176 344q0 230 203 383q204 154 528 154q344 0 529.5 -166.5t187.5 -474.5q0 -180 -68 -345
t-192 -286q-122 -119 -284.5 -181.5t-352.5 -62.5zM950 1249q-193 0 -315 -78q-119 -76 -119 -198q0 -112 114 -181t300 -69q191 0 313 78q121 77 121 198q0 112 -114 181t-300 69z" />
    <glyph glyph-name="o.ord" horiz-adv-x="1019" 
d="M682 1485q193 0 313 -105q121 -103 121 -270q0 -182 -135 -305t-342 -123q-193 0 -315 104q-121 106 -121 273q0 183 135 303q135 123 344 123zM674 1300q-109 0 -179.5 -67t-70.5 -166q0 -88 62.5 -143.5t160.5 -55.5q108 0 179 68t71 168q0 87 -62 141.5t-161 54.5z
" />
    <glyph glyph-name="one.dnom" horiz-adv-x="763" 
d="M315 188l45 322h-260l25 166l121 4q93 2 141 32.5t68 102.5h174l-88 -627h235l-26 -188h-723l26 188h262z" />
    <glyph glyph-name="one.lt" 
d="M1014 1479h231l-174 -1227h522l-37 -252h-1409l37 252h586l104 733h-579l31 229l358 13q148 6 223.5 64t106.5 188z" />
    <glyph glyph-name="p.ord" horiz-adv-x="1091" 
d="M1192 1116q0 -182 -127 -309q-125 -125 -320 -125q-187 0 -292 117l-50 -359h-227l143 1030h228l-10 -86q44 47 115 74t153 27q170 0 278 -105q109 -103 109 -264zM741 1303q-110 0 -184 -69t-74 -169q0 -88 64 -143.5t166 -55.5q110 0 184 69t74 169q0 87 -65 143
t-165 56z" />
    <glyph glyph-name="parenleft.cap" horiz-adv-x="802" 
d="M700 1569h324q-283 -207 -429 -456.5t-146 -524.5q0 -419 333 -731h-299q-168 129 -259 321.5t-91 417.5q0 294 152 555q150 259 415 418z" />
    <glyph glyph-name="parenright.cap" horiz-adv-x="802" 
d="M303 -143h-323q283 207 429 456.5t146 524.5q0 418 -334 731h299q167 -129 258.5 -322t91.5 -418q0 -295 -151 -555q-149 -256 -416 -417z" />
    <glyph glyph-name="percent.lt" 
d="M532 768q-145 0 -241 90q-92 92 -92 238q0 167 110 280q111 117 277 117q144 0 239 -92t95 -236q0 -165 -111 -282q-112 -115 -277 -115zM424 0h-258l1253 1470h260zM543 948q72 0 120 59t48 146q0 72 -37.5 116t-98.5 44q-71 0 -119 -59.5t-48 -145.5q0 -72 37 -116
t98 -44zM1311 702q146 0 241 -92q95 -89 95 -235q0 -167 -113 -283q-112 -115 -277 -115q-143 0 -239 93q-92 92 -92 235q0 168 110 281q110 116 275 116zM1303 522q-72 0 -120 -59t-48 -146q0 -72 37 -115.5t98 -43.5q71 0 119.5 59.5t48.5 144.5q0 72 -37 116t-98 44z" />
    <glyph glyph-name="period.tab" horiz-adv-x="819" 
d="M580 0h-336l45 332h336z" />
    <glyph glyph-name="periodcentered.cap" horiz-adv-x="499" 
d="M498 569h-336l45 332h336z" />
    <glyph glyph-name="q.ord" horiz-adv-x="1093" 
d="M592 684q-173 0 -281 102q-106 103 -106 267q0 180 127 307t319 127q88 0 164 -30t127 -85l14 98h228l-144 -1030h-227l47 346q-48 -48 -118.5 -75t-149.5 -27zM655 866q112 0 186 68.5t74 171.5q0 86 -65.5 141.5t-165.5 55.5q-110 0 -185 -68.5t-75 -167.5
q0 -90 64 -145.5t167 -55.5z" />
    <glyph glyph-name="r.ord" horiz-adv-x="739" 
d="M834 1475q44 0 84 -9l-31 -221q-61 10 -92 10q-137 0 -217 -61t-93 -178l-47 -316h-227l108 770h228l-19 -133q108 138 306 138z" />
    <glyph glyph-name="ring.cap" horiz-adv-x="1228" 
d="M854 1548q-115 0 -189.5 71t-74.5 177q0 115 84 199q82 82 209 82q115 0 189.5 -71t74.5 -177q0 -115 -84 -199q-82 -82 -209 -82zM877 1921q-49 0 -82 -33.5t-33 -83.5q0 -44 27.5 -72t70.5 -28q49 0 82 33.5t33 83.5q0 43 -27.5 71.5t-70.5 28.5z" />
    <glyph glyph-name="s.ord" horiz-adv-x="882" 
d="M573 682q-142 0 -265 44.5t-191 119.5l127 145q54 -66 143.5 -101.5t200.5 -35.5q81 0 124.5 19.5t43.5 54.5q0 23 -23 36.5t-78 20.5q-75 14 -127 19q-174 24 -244.5 74.5t-70.5 142.5q0 122 107.5 193t291.5 71q129 0 241 -40t169 -106l-131 -133q-52 52 -132 81.5
t-171 29.5q-72 0 -110 -18t-38 -50q0 -21 29 -37q23 -10 166 -32q189 -23 269.5 -75.5t80.5 -146.5q0 -127 -111.5 -201.5t-300.5 -74.5z" />
    <glyph glyph-name="semicolon.tab" horiz-adv-x="819" 
d="M385 0h-141l45 332h336l-50 -365q-20 -129 -117.5 -199t-256.5 -69l20 151q69 1 111.5 31.5t48.5 81.5zM678 694h-336l45 332h336z" />
    <glyph glyph-name="seven.dnom" horiz-adv-x="919" 
d="M721 631h-410l-22 -152h-191l47 334h859l-27 -195q-177 -130 -273 -281t-122 -337h-232q60 392 371 631z" />
    <glyph glyph-name="seven.lt" 
d="M1411 1214h-905l-41 -288h-258l76 544h1505l-37 -268q-337 -276 -514 -563q-175 -285 -225 -639h-303q102 718 702 1214z" />
    <glyph glyph-name="six.dnom" horiz-adv-x="1013" 
d="M641 825q136 0 246.5 -41.5t161.5 -113.5l-150 -125q-37 49 -110.5 78.5t-159.5 29.5q-110 0 -189.5 -52.5t-99.5 -137.5q105 88 283 88q161 0 270 -74q106 -72 106 -188q0 -132 -125 -217q-125 -84 -325 -84q-212 0 -324.5 92t-113.5 268q3 207 147 342t383 135z
M549 156q103 0 165 33t62 87q0 50 -57 79.5t-154 29.5q-104 0 -166.5 -33.5t-62.5 -87.5q0 -49 58 -78.5t155 -29.5z" />
    <glyph glyph-name="six.lt" 
d="M1073 1493q217 0 387 -83.5t252 -231.5l-219 -172q-62 113 -178 177t-264 64q-217 0 -373 -123q-156 -120 -203 -323q97 93 231 142.5t289 49.5q277 0 453 -135t176 -344q0 -230 -203 -383q-204 -154 -528 -154q-344 0 -529.5 166.5t-187.5 474.5q0 180 68 345t192 286
q122 119 284.5 181.5t352.5 62.5zM895 221q191 0 313 78q121 77 121 199q0 112 -114 181t-300 69q-193 0 -315 -78q-119 -76 -119 -199q0 -112 114 -181t300 -69z" />
    <glyph glyph-name="slash.cap" horiz-adv-x="1146" 
d="M317 -125h-311l1026 1712h314z" />
    <glyph glyph-name="space.tab" horiz-adv-x="819" 
 />
    <glyph glyph-name="sterling.lt" 
d="M623 578h-326l29 204h200q-59 127 -59 224q0 205 176 346q179 141 449 141q262 0 411 -125q154 -127 154 -338q0 -71 -29 -166h-264q18 70 18 117q0 122 -82.5 190t-226.5 68q-146 0 -233.5 -72.5t-87.5 -189.5q0 -40 11 -80.5t44 -114.5h428l-29 -204h-329q6 -23 6 -70
q0 -74 -29 -166q97 -58 163.5 -81t131.5 -23q104 0 170.5 61t89.5 178h268q-31 -233 -171 -366.5t-355 -133.5q-105 0 -199 38t-209 130q-142 -168 -346 -168q-137 0 -217 66.5t-80 181.5q0 121 93.5 198t240.5 77q104 0 209 -43q0 62 -20 121zM430 324q-54 0 -86.5 -22
t-32.5 -58q0 -32 28.5 -51t76.5 -19q49 0 94 25t76 69q-82 56 -156 56z" />
    <glyph glyph-name="t.ord" horiz-adv-x="790" 
d="M623 688q-160 0 -244.5 72t-65.5 196l47 328h-178l27 186h178l29 216h225l-31 -216h322l-29 -186h-319l-41 -285q-7 -60 24 -88t103 -28q70 0 174 35l16 -185q-122 -45 -237 -45z" />
    <glyph glyph-name="three.dnom" horiz-adv-x="960" 
d="M950 240q0 -113 -116.5 -182.5t-313.5 -69.5q-180 0 -308 63.5t-163 169.5l203 88q20 -66 93.5 -103.5t178.5 -37.5q88 0 138.5 24.5t50.5 67.5q0 68 -156 68h-176l27 168h167q75 0 118.5 20t43.5 55q0 33 -42 52.5t-113 19.5q-94 0 -166 -30.5t-109 -86.5l-174 95
q60 98 180 151t281 53q177 0 281 -61t104 -164q0 -66 -44 -115.5t-122 -74.5q66 -20 101.5 -65t35.5 -105z" />
    <glyph glyph-name="three.lt" 
d="M1624 442q0 -201 -203 -333q-199 -132 -530 -132q-313 0 -526 127q-214 127 -254 332l274 115q35 -148 173 -235t341 -87q184 0 297 64q117 65 117 166q0 84 -88 128t-256 44h-275l37 246h270q160 0 255.5 52t95.5 138q0 80 -88.5 126t-241.5 46q-182 0 -317 -68.5
t-201 -193.5l-252 108q94 197 297.5 302.5t490.5 105.5q284 0 457 -111q172 -108 172 -286q0 -123 -83.5 -215t-229.5 -129q128 -35 198 -116.5t70 -193.5z" />
    <glyph glyph-name="tilde.cap" horiz-adv-x="1228" 
d="M664 1890q54 0 105.5 -14t129.5 -53q93 -43 133 -43q41 0 67.5 26t45.5 84h190q-26 -158 -102.5 -247t-185.5 -89q-53 0 -103 14t-129 54q-88 45 -135 45q-41 0 -67 -27.5t-44 -85.5h-190q25 158 100.5 247t184.5 89z" />
    <glyph glyph-name="two.dnom" horiz-adv-x="923" 
d="M61 0l25 166l442 215q93 45 136 84t43 80q0 43 -41.5 69.5t-108.5 26.5q-88 0 -152 -46t-90 -130l-198 47q36 144 157 228.5t297 84.5q165 0 264 -71t99 -189q0 -178 -246 -291l-192 -90h407l-26 -184h-816z" />
    <glyph glyph-name="two.lt" 
d="M111 0l32 240l861 428q172 87 253.5 170.5t81.5 175.5q0 102 -92.5 162.5t-245.5 60.5q-189 0 -330 -102t-192 -273l-264 74q73 254 289 405q220 152 516 152q282 0 450 -125q170 -123 170 -330q0 -165 -112.5 -298.5t-345.5 -243.5l-482 -236h871l-37 -260h-1423z" />
    <glyph glyph-name="u.ord" horiz-adv-x="1054" 
d="M922 1470h227l-109 -770h-227l14 93q-100 -109 -268 -109q-157 0 -242 98q-84 100 -63 258l59 430h226l-52 -376q-14 -100 29.5 -156.5t134.5 -56.5q90 0 147.5 57.5t71.5 157.5z" />
    <glyph glyph-name="v.ord" horiz-adv-x="991" 
d="M1198 1470l-496 -770h-235l-260 770h246l165 -528l330 528h250z" />
    <glyph glyph-name="w.ord" horiz-adv-x="1376" 
d="M532 973l259 497h200l90 -497l262 497h240l-432 -770h-203l-98 494l-262 -494h-215l-166 770h237z" />
    <glyph glyph-name="x.ord" horiz-adv-x="1009" 
d="M1106 700h-275l-188 250l-258 -250h-285l414 394l-291 376h271l180 -235l241 235h285l-397 -378z" />
    <glyph glyph-name="y.ord" horiz-adv-x="991" 
d="M1196 1470l-514 -811q-81 -132 -158 -184q-71 -47 -186 -47q-113 0 -197 35l58 174q73 -27 123 -27q43 0 71 17.5t53 60.5l23 33l-262 749h248l168 -530l327 530h246z" />
    <glyph glyph-name="yen.lt" 
d="M725 360h-440l28 199h441l14 107l-10 14h-428l28 199h273l-385 591h358l336 -567l496 567h368l-549 -591h273l-29 -199h-428l-14 -14l-15 -107h441l-29 -199h-440l-51 -360h-289z" />
    <glyph glyph-name="z.ord" horiz-adv-x="972" 
d="M528 887h498l-27 -187h-829l27 166l548 418h-489l29 186h821l-25 -170z" />
    <glyph glyph-name="zero.dnom" horiz-adv-x="1056" 
d="M563 -12q-197 0 -323 108q-127 112 -127 281q0 188 141 317q140 131 354 131q197 0 322 -110q127 -109 127 -279q0 -186 -142 -319q-138 -129 -352 -129zM598 639q-109 0 -181 -70.5t-73 -179.5q0 -96 63.5 -155.5t163.5 -59.5q110 0 182 72t72 178q0 97 -62 156t-165 59
z" />
    <glyph glyph-name="zero.lt" 
d="M883 -23q-317 0 -516 193t-199 498q0 163 58.5 314t164.5 267q110 118 257.5 181t314.5 63q317 0 516 -193q198 -192 198 -497q0 -163 -58.5 -314.5t-164.5 -267.5q-110 -119 -257 -181.5t-314 -62.5zM956 1229q-206 0 -346 -158q-135 -156 -135 -387q0 -202 112.5 -322
t301.5 -120q208 0 342 155q137 155 137 389q0 203 -111.5 323t-300.5 120z" />
    <glyph glyph-name="commaturncmb" horiz-adv-x="0" 
d="M35 1348h106l-22 -174h-287l16 122q13 112 96 172t224 60l-16 -115q-49 0 -80 -17t-37 -48z" />
    <glyph glyph-name="commaaccentcmb" horiz-adv-x="0" 
d="M-35 -244h-106l22 174h287l-16 -123q-13 -112 -96 -171.5t-224 -59.5l16 115q49 0 80 17t37 48z" />
    <glyph glyph-name="baht.lt" 
d="M618 0h-573l207 1470h573l29 209h238l-29 -209h49q227 0 358.5 -97t131.5 -263q0 -124 -72.5 -223.5t-196.5 -141.5q100 -38 158.5 -122.5t58.5 -194.5q0 -189 -147 -309q-146 -119 -389 -119h-158l-31 -213h-237zM492 1223l-52 -353h301l50 353h-299zM1327 1061
q0 75 -61.5 118.5t-167.5 43.5h-70l-49 -353h100q109 0 178.5 54.5t69.5 136.5zM707 631h-299l-54 -383h299zM1282 455q0 80 -63.5 128t-171.5 48h-103l-53 -383h135q112 0 184 59t72 148z" />
    <glyph glyph-name="dong.lt" 
d="M999 172l15 102q-56 -56 -150.5 -88t-206.5 -32q-220 0 -352 114q-133 115 -133 297q0 211 162 348q166 140 418 140q116 0 209 -36t143 -99l31 215h-332l33 215h329l17 122h258l-17 -122h209l-33 -215h-206l-136 -961h-258zM1067 621q0 99 -82 161t-215 62
q-147 0 -242 -74q-94 -73 -94 -184q0 -99 82 -161.5t215 -62.5q145 0 240 74q96 75 96 185zM1204 -215h-1126l28 215h1127z" />
    <glyph glyph-name="franc.lt" 
d="M225 291h-196l32 229h197l133 950h1288l-37 -256h-991l-43 -317h873l-35 -256h-875l-16 -121h363l-35 -229h-361l-41 -291h-297z" />
    <glyph glyph-name="naira.lt" 
d="M201 477h-189l29 199h188l17 119h-189l29 198h188l66 477h309l477 -972l138 972h292l-65 -477h186l-28 -198h-187l-16 -119h186l-28 -199h-187l-67 -477h-267l-512 1036l-145 -1036h-293z" />
    <glyph glyph-name="peseta.lt" 
d="M868 381h-385l-53 -381h-301l115 813h-191l31 225h192l60 432h604q253 0 401 -112.5t168 -319.5h177l-33 -225h-160q-51 -201 -218.5 -316.5t-406.5 -115.5zM918 1219h-316l-24 -181h634q-23 87 -99.5 134t-194.5 47zM545 813l-27 -182h346q109 0 194 48t128 134h-641z
" />
    <glyph glyph-name="peso.lt" 
d="M848 395h-365l-55 -395h-301l94 666h-188l28 198h189l16 121h-188l28 199h189l39 286h577q202 0 339.5 -73t197.5 -213h260l-29 -199h-194v-8q0 -69 -8 -113h186l-29 -198h-233q-82 -130 -225.5 -200.5t-327.5 -70.5zM600 1219l-82 -570h318q154 0 258 90q100 90 100 232
q0 117 -81 182.5t-224 65.5h-289z" />
    <glyph glyph-name="uni20BD.lt" 
d="M188 229h-194l35 248h194l19 121h-193l37 248h190l86 624h830q221 0 348 -110t127 -301q0 -209 -149 -334q-151 -127 -398 -127h-577l-19 -121h451l-37 -248h-449l-32 -229h-301zM1159 1223h-530l-51 -377h546q114 0 182 58t68 153q0 80 -55.5 123t-159.5 43z" />
    <glyph glyph-name="uni20B9.lt" 
d="M614 506h-561l35 242h637q92 0 165 31.5t114 88.5h-900l33 242h893q-26 57 -87 88t-148 31h-639l34 241h1493l-32 -241h-387q43 -66 57 -119h311l-33 -242h-290q-42 -120 -141.5 -209t-237.5 -127l305 -532h-338z" />
    <glyph glyph-name="uni20BA.lt" 
d="M289 289l-281 -148l33 244l283 147l18 125l-276 -143l34 244l275 143l80 569h301l-56 -399l445 234l-35 -244l-444 -234l-17 -125l443 232l-35 -244l-443 -231l-28 -199h270q214 0 323 112.5t144 370.5h303q-56 -395 -242 -569t-544 -174h-592z" />
    <glyph glyph-name="won.lt" 
d="M268 477h-252l29 199h209l-8 119h-185l29 198h141l-34 477h276l57 -938l279 762h213l70 -776l321 952h287l-168 -477h141l-28 -198h-183l-41 -119h207l-29 -199h-247l-170 -477h-238l-76 881l-323 -881h-244z" />
    <glyph glyph-name="zero.slash" horiz-adv-x="1777" 
d="M1489 199q-121 -109 -278.5 -165.5t-336.5 -56.5q-353 0 -577 199q-225 200 -225 506q0 167 69.5 321t196.5 269q247 221 614 221q354 0 578 -199q225 -200 225 -506q0 -168 -69.5 -322.5t-196.5 -266.5zM954 1237q-253 0 -422 -158q-163 -156 -163 -389q0 -83 26 -166
l895 617q-134 96 -336 96zM872 233q256 0 420 156q166 156 166 391q0 97 -26 168l-893 -616q126 -99 333 -99z" />
    <glyph glyph-name="zero.slash.lt" 
d="M1376 221q-110 -119 -257 -181.5t-314 -62.5q-317 0 -516 193t-199 498q0 163 58.5 314t164.5 267q110 118 257.5 181t314.5 63q317 0 516 -193q198 -192 198 -497q0 -163 -58.5 -314.5t-164.5 -267.5zM879 1239q-213 0 -353 -162q-139 -160 -139 -395q0 -58 19 -147
l759 604q-109 100 -286 100zM811 231q211 0 350 160q139 165 139 397q0 82 -16 148l-760 -604q113 -101 287 -101z" />
    <glyph glyph-name="arrowNW" horiz-adv-x="1812" 
d="M702 1214l1047 -1046l-188 -191l-1049 1049v-567h-254v1011h1012v-256h-568z" />
    <glyph glyph-name="arrowNE" horiz-adv-x="1589" 
d="M1448 459h-254v567l-1049 -1049l-188 191l1047 1046h-568v256h1012v-1011z" />
    <glyph glyph-name="arrowSE" horiz-adv-x="1812" 
d="M1198 1012h254v-1012h-1012v256h568l-1047 1047l189 190l1048 -1049v568z" />
    <glyph glyph-name="arrowSW" horiz-adv-x="1589" 
d="M637 256h567v-256h-1011v1012h253v-568l1049 1049l188 -190z" />
    <glyph glyph-name="arrowupdown" horiz-adv-x="1619" 
d="M1395 440l170 -200l-756 -627l-754 627l168 200l453 -377v1020l-449 -381l-168 201l750 631l752 -631l-170 -201l-449 381v-1022z" />
    <glyph glyph-name="arrowleftright" horiz-adv-x="2039" 
d="M1430 1456l626 -715l-626 -714l-195 182l356 401h-1087l354 -401l-194 -182l-627 714l627 715l194 -182l-354 -402h1087l-356 402z" />
    </font>
</defs>
</svg>
