<?xml version="1.0" standalone="no"?>
<!DOCTYPE svg PUBLIC "-//W3C//DTD SVG 1.1//EN" "http://www.w3.org/Graphics/SVG/1.1/DTD/svg11.dtd" >
<svg xmlns="http://www.w3.org/2000/svg" xmlns:xlink="http://www.w3.org/1999/xlink" version="1.1">
<metadata>
Created by FontForge 20201107 at Fri Jul 12 23:26:02 2024
 By 
Copyright 2020, Kris Sowersby, Klim Type Foundry.
</metadata>
<defs>
<font id="SohneBreit-DreiviertelfettKurs" horiz-adv-x="1638" >
  <font-face 
    font-family="Sohne Breit Dreiviertelfett"
    font-weight="700"
    font-style="italic"
    font-stretch="expanded"
    units-per-em="2048"
    panose-1="2 11 8 5 3 2 2 13 2 3"
    ascent="1638"
    descent="-410"
    x-height="1079"
    cap-height="1470"
    bbox="-553 -438 3084 2087"
    underline-thickness="245"
    underline-position="-392"
    slope="-12"
    unicode-range="U+000D-FB04"
  />
<missing-glyph horiz-adv-x="1228" 
d="M0 0v1470h1229v-1470h-1229zM270 496l105 -105l239 240l242 -240l102 105l-237 241l237 240l-102 104l-242 -239l-239 239l-105 -104l240 -240z" />
    <glyph glyph-name="ff" unicode="ff" horiz-adv-x="1808" 
d="M393 1079l2 15q58 399 529 399q168 0 286 -37l-75 -254q-120 27 -201 27q-194 0 -215 -135l-2 -15h497l3 15q58 399 528 399q162 0 299 -41l-74 -252q-132 29 -213 29q-196 0 -217 -135l-2 -15h397l-37 -270h-397l-115 -809h-323l113 809h-496l-115 -809h-323l112 809
h-243l39 270h243z" />
    <glyph glyph-name="fi" unicode="fi" horiz-adv-x="1490" 
d="M393 1079l2 15q58 399 523 399q146 0 268 -35l-78 -256q-114 27 -184 27q-94 0 -144.5 -33t-60.5 -102l-2 -15h370l-38 -270h-369l-115 -809h-323l112 809h-243l39 270h243zM1561 1190h-332l39 280h331zM1214 1079h328l-151 -1079h-328z" />
    <glyph glyph-name="fl" unicode="fl" horiz-adv-x="1490" 
d="M393 1079l2 15q58 399 523 399q146 0 268 -35l-78 -256q-114 27 -184 27q-94 0 -144.5 -33t-60.5 -102l-2 -15h370l-38 -270h-369l-115 -809h-323l112 809h-243l39 270h243zM1270 1470h327l-206 -1470h-328z" />
    <glyph glyph-name="ffi" unicode="ffi" horiz-adv-x="2312" 
d="M393 1079l2 15q58 399 529 399q168 0 286 -37l-75 -254q-120 27 -201 27q-194 0 -215 -135l-2 -15h497l3 15q58 399 522 399q146 0 268 -35l-78 -256q-114 27 -184 27q-94 0 -144.5 -33t-60.5 -102l-2 -15h371l-39 -270h-369l-115 -809h-323l113 809h-496l-115 -809h-323
l112 809h-243l39 270h243zM2382 1190h-332l39 280h332zM2036 1079h327l-151 -1079h-328z" />
    <glyph glyph-name="ffl" unicode="ffl" horiz-adv-x="2312" 
d="M393 1079l2 15q58 399 529 399q168 0 286 -37l-75 -254q-120 27 -201 27q-194 0 -215 -135l-2 -15h497l3 15q58 399 522 399q146 0 268 -35l-78 -256q-114 27 -184 27q-94 0 -144.5 -33t-60.5 -102l-2 -15h371l-39 -270h-369l-115 -809h-323l113 809h-496l-115 -809h-323
l112 809h-243l39 270h243zM2091 1470h328l-207 -1470h-328z" />
    <glyph glyph-name="f_b" unicode="fb" horiz-adv-x="2408" 
d="M393 1079l2 15q58 399 523 399q146 0 268 -35l-78 -256q-114 27 -184 27q-94 0 -144.5 -33t-60.5 -102l-2 -15h370l-38 -270h-369l-115 -809h-323l112 809h-243l39 270h243zM1815 -23q-122 0 -227 41.5t-177 116.5l-20 -135h-328l207 1470h327l-71 -509
q66 66 164.5 103.5t210.5 37.5q237 0 389 -146q151 -145 151 -372q0 -255 -178 -430q-180 -177 -448 -177zM2122 565q0 121 -88 197t-228 76q-151 0 -254 -95q-100 -90 -100 -229q0 -121 87.5 -196.5t227.5 -75.5q151 0 254 92q101 94 101 231z" />
    <glyph glyph-name="f_h" unicode="fh" horiz-adv-x="2347" 
d="M393 1079l2 15q58 399 523 399q146 0 268 -35l-78 -256q-114 27 -184 27q-94 0 -144.5 -33t-60.5 -102l-2 -15h370l-38 -270h-369l-115 -809h-323l112 809h-243l39 270h243zM1391 0h-328l207 1470h327l-71 -520q149 152 377 152q223 0 344 -139q122 -137 92 -359
l-84 -604h-328l72 518q19 137 -42 215t-188 78t-206.5 -77.5t-98.5 -217.5z" />
    <glyph glyph-name="f_idieresis" unicode="f&#xef;" horiz-adv-x="1490" 
d="M924 1493q162 0 299 -41l-74 -252q-132 29 -213 29q-196 0 -217 -135l-2 -15h397l-37 -270h-397l-115 -809h-323l112 809h-243l39 270h243l2 15q58 399 529 399zM1810 1190h-327l37 280h329zM1214 1079h328l-151 -1079h-328z" />
    <glyph glyph-name="f_j" unicode="fj" horiz-adv-x="1490" 
d="M393 1079l2 15q58 399 523 399q146 0 268 -35l-78 -256q-114 27 -184 27q-94 0 -144.5 -33t-60.5 -102l-2 -15h370l-38 -270h-369l-115 -809h-323l112 809h-243l39 270h243zM1561 1190h-332l39 280h331zM1542 1079l-145 -1046q-31 -213 -148 -313.5t-334 -100.5
q-153 0 -286 45l78 238q85 -27 170 -27q90 0 135 40t57 128l145 1036h328z" />
    <glyph glyph-name="f_k" unicode="fk" horiz-adv-x="2347" 
d="M393 1079l2 15q58 399 523 399q146 0 268 -35l-78 -256q-114 27 -184 27q-94 0 -144.5 -33t-60.5 -102l-2 -15h370l-38 -270h-369l-115 -809h-323l112 809h-243l39 270h243zM1270 1470h327l-118 -841l583 450h453l-598 -450l461 -629h-393l-324 436l-234 -176l-36 -260
h-328z" />
    <glyph glyph-name=".notdef" horiz-adv-x="1228" 
d="M0 0v1470h1229v-1470h-1229zM270 496l105 -105l239 240l242 -240l102 105l-237 241l237 240l-102 104l-242 -239l-239 239l-105 -104l240 -240z" />
    <glyph glyph-name=".null" horiz-adv-x="0" 
 />
    <glyph glyph-name="nonmarkingreturn" horiz-adv-x="682" 
 />
    <glyph glyph-name="NULL" horiz-adv-x="0" 
 />
    <glyph glyph-name="NULL" horiz-adv-x="0" 
 />
    <glyph glyph-name="CR" unicode="&#xd;" horiz-adv-x="565" 
 />
    <glyph glyph-name="space" unicode=" " horiz-adv-x="565" 
 />
    <glyph glyph-name="exclam" unicode="!" horiz-adv-x="628" 
d="M506 471h-252l55 999h424zM506 0h-383l49 354h383z" />
    <glyph glyph-name="quotedbl" unicode="&#x22;" horiz-adv-x="884" 
d="M457 836h-230l17 634h374zM893 836h-229l16 634h375z" />
    <glyph glyph-name="numbersign" unicode="#" horiz-adv-x="1583" 
d="M451 0h-287l145 365h-209l33 239h273l102 262h-277l35 240h338l146 364h288l-145 -364h326l145 364h287l-146 -364h185l-35 -240h-246l-102 -262h252l-33 -239h-316l-145 -365h-291l146 365h-324zM797 866l-105 -262h324l106 262h-325z" />
    <glyph glyph-name="dollar" unicode="$" horiz-adv-x="1667" 
d="M25 330l223 227q72 -97 202.5 -165t301.5 -99l47 334q-332 50 -453 137q-123 88 -123 244q0 202 189 329t506 136l28 202h277l-31 -219q195 -26 346.5 -95.5t226.5 -166.5l-223 -215q-127 148 -389 201l-43 -303q321 -46 455 -142q133 -92 133 -254q0 -212 -191 -344
q-189 -128 -520 -137l-29 -209h-276l31 223q-224 29 -420 115q-184 85 -268 201zM551 1047q0 -57 55 -84q62 -28 234 -52l41 291q-156 -5 -243 -45.5t-87 -109.5zM1362 440q0 61 -61.5 94.5t-229.5 57.5l-45 -320q161 6 248.5 49.5t87.5 118.5z" />
    <glyph glyph-name="percent" unicode="%" horiz-adv-x="2002" 
d="M602 713q-176 0 -285 100q-110 101 -110 256q0 176 129 299t321 123q178 0 287 -100q113 -101 113 -258q0 -175 -131 -297q-132 -123 -324 -123zM1634 1470h297l-1356 -1470h-296zM647 1282q-84 0 -138 -56t-54 -143q0 -73 43.5 -117t115.5 -44q85 0 139 56t54 142
q0 73 -44 117.5t-116 44.5zM1606 758q172 0 284 -103q113 -101 113 -256q0 -177 -131 -299q-129 -123 -322 -123q-176 0 -286 101q-111 102 -111 258q0 176 129 299q132 123 324 123zM1595 547q-84 0 -138 -56t-54 -141q0 -74 43 -119t115 -45q84 0 138 56t54 143
q0 74 -43 118t-115 44z" />
    <glyph glyph-name="ampersand" unicode="&#x26;" horiz-adv-x="1886" 
d="M1591 844l299 -72q-112 -275 -297 -463q61 -29 131.5 -36.5t178.5 3.5l-37 -268q-166 -26 -289 -1t-246 110q-265 -140 -596 -140q-292 0 -469 121q-176 120 -176 320q0 164 117 282t319 156q-55 89 -55 197q0 193 154 317q153 123 403 123q221 0 350 -100
q131 -101 131 -265q0 -151 -113.5 -264.5t-305.5 -156.5l270 -232q145 145 231 369zM1016 1255q-109 0 -171.5 -48.5t-62.5 -133.5q0 -97 90 -178q170 20 252 73t82 144q0 66 -51 104.5t-139 38.5zM414 446q0 -92 94.5 -145t255.5 -53q187 0 338 59l-397 352
q-142 -17 -216.5 -72t-74.5 -141z" />
    <glyph glyph-name="quotesingle" unicode="'" horiz-adv-x="448" 
d="M457 836h-230l17 634h374z" />
    <glyph glyph-name="parenleft" unicode="(" horiz-adv-x="831" 
d="M477 528q0 -424 326 -729h-334q-165 124 -255.5 319t-90.5 425q0 300 149 553q151 260 414 415h358q-567 -422 -567 -983z" />
    <glyph glyph-name="parenright" unicode=")" horiz-adv-x="831" 
d="M539 782q0 424 -326 729h334q165 -124 255.5 -319t90.5 -424q0 -297 -150 -555q-153 -261 -413 -414h-359q568 423 568 983z" />
    <glyph glyph-name="asterisk" unicode="*" horiz-adv-x="946" 
d="M930 768l-182 -117l-142 238l-207 -238l-161 133l206 236l-268 92l92 195l269 -88l43 292h213l-41 -292l286 88l41 -209l-293 -90z" />
    <glyph glyph-name="plus" unicode="+" 
d="M1640 866l-38 -276h-564l-77 -561h-275l78 561h-561l37 276h563l80 564h274l-80 -564h563z" />
    <glyph glyph-name="comma" unicode="," horiz-adv-x="520" 
d="M223 0h-151l51 367h377l-54 -377q-20 -148 -125.5 -224.5t-291.5 -76.5l22 168q153 3 168 110z" />
    <glyph glyph-name="hyphen" unicode="-" horiz-adv-x="770" 
d="M754 461h-609l43 295h607z" />
    <glyph glyph-name="period" unicode="." horiz-adv-x="520" 
d="M449 0h-377l51 367h377z" />
    <glyph glyph-name="slash" unicode="/" horiz-adv-x="1202" 
d="M358 -201h-358l1028 1712h358z" />
    <glyph glyph-name="zero" unicode="0" horiz-adv-x="1775" 
d="M950 -23q-352 0 -579 199q-226 200 -226 506q0 169 70.5 322.5t200.5 269.5q252 219 616 219q354 0 578 -199q227 -199 227 -506q0 -169 -70 -322t-200 -269q-122 -106 -280 -163t-337 -57zM1018 1196q-230 0 -377 -141t-147 -355q0 -189 129 -309q132 -117 342 -117
q226 0 374 142t148 354q0 191 -131 307q-128 119 -338 119z" />
    <glyph glyph-name="one" unicode="1" horiz-adv-x="970" 
d="M801 1477h262l-209 -1477h-342l135 958h-493l34 259l265 12q154 6 233.5 62.5t114.5 185.5z" />
    <glyph glyph-name="two" unicode="2" horiz-adv-x="1550" 
d="M59 0l39 264l838 412q174 86 255 163.5t81 161.5q0 91 -87.5 146t-230.5 55q-179 0 -310 -94t-181 -256l-301 80q71 257 289 407q219 154 526 154q288 0 465 -127q174 -125 174 -336q0 -325 -459 -534l-432 -203h825l-41 -293h-1450z" />
    <glyph glyph-name="three" unicode="3" horiz-adv-x="1622" 
d="M1649 438q0 -203 -209 -332q-208 -129 -555 -129q-318 0 -545 121q-222 121 -272 322l309 133q37 -135 174.5 -213t339.5 -78q180 0 289.5 55t109.5 146q0 151 -334 151h-294l40 273h287q160 0 251 44t91 122q0 72 -85.5 112.5t-237.5 40.5q-183 0 -318 -62.5
t-203 -178.5l-274 137q98 189 309 290t506 101q304 0 488 -111t184 -290q0 -122 -84 -214t-230 -130q125 -37 194 -117.5t69 -192.5z" />
    <glyph glyph-name="four" unicode="4" horiz-adv-x="1689" 
d="M1356 344l-49 -344h-326l49 344h-960l36 264l961 862h446l-120 -852h364l-39 -274h-362zM1147 1184l-635 -566h555z" />
    <glyph glyph-name="five" unicode="5" horiz-adv-x="1581" 
d="M891 729q-239 0 -428 -115l-270 58l204 798h1250l-41 -292h-985l-70 -267q178 90 422 90q297 0 475 -129t178 -340q0 -242 -213 -399q-212 -156 -557 -156q-300 0 -526 119q-229 121 -275 303l316 138q30 -119 174 -199q147 -78 329 -78q180 0 293 70q115 71 115 180
q0 100 -106.5 159.5t-284.5 59.5z" />
    <glyph glyph-name="six" unicode="6" horiz-adv-x="1685" 
d="M1085 1493q249 0 441 -82q199 -84 280 -219l-239 -199q-60 100 -198.5 162t-307.5 62q-221 0 -377 -111q-156 -108 -203 -291q99 87 241 133.5t308 46.5q300 0 494 -135t194 -342q0 -128 -74 -239.5t-208 -184.5q-214 -117 -518 -117q-375 0 -577 166.5t-204 474.5
q0 188 73.5 355.5t207.5 286.5q257 233 667 233zM922 252q208 0 333 68t125 178q0 103 -118.5 164t-315.5 61q-208 0 -334.5 -69t-126.5 -179q0 -102 119.5 -162.5t317.5 -60.5z" />
    <glyph glyph-name="seven" unicode="7" horiz-adv-x="1544" 
d="M1303 1184h-826l-41 -283h-291l82 569h1504l-43 -305q-330 -256 -505 -536t-225 -629h-346q102 709 691 1184z" />
    <glyph glyph-name="eight" unicode="8" horiz-adv-x="1665" 
d="M285 1073q0 192 192 305q195 115 522 115q313 0 498 -111q184 -111 184 -295q0 -111 -76 -194.5t-223 -134.5q148 -47 230 -136.5t82 -205.5q0 -200 -217 -320q-216 -119 -588 -119q-365 0 -584 115q-217 117 -217 311q0 134 109 235.5t299 145.5q-211 102 -211 289z
M614 1059q0 -75 96 -119.5t263 -44.5q176 0 276.5 49t100.5 131q0 78 -94.5 121t-264.5 43q-176 0 -276.5 -49t-100.5 -131zM1356 442q0 91 -120.5 141t-336.5 50q-215 0 -340 -55t-125 -148q0 -88 120.5 -139t330.5 -51q219 0 345 54.5t126 147.5z" />
    <glyph glyph-name="nine" unicode="9" horiz-adv-x="1685" 
d="M807 -23q-247 0 -442 82q-198 84 -279 220l240 198q60 -100 198 -161.5t307 -61.5q221 0 377 108q156 111 203 293q-99 -87 -241 -133.5t-308 -46.5q-302 0 -495 135t-193 342q0 128 74 239.5t209 184.5q214 117 518 117q374 0 576 -166.5t204 -474.5q0 -189 -73 -355.5
t-207 -285.5q-258 -234 -668 -234zM971 1219q-208 0 -333.5 -68t-125.5 -178q0 -103 118.5 -164t315.5 -61q208 0 334.5 68.5t126.5 178.5q0 102 -119.5 163t-316.5 61z" />
    <glyph glyph-name="colon" unicode=":" horiz-adv-x="520" 
d="M449 0h-377l51 367h377zM543 674h-377l51 367h377z" />
    <glyph glyph-name="semicolon" unicode=";" horiz-adv-x="520" 
d="M223 0h-151l51 367h377l-54 -377q-20 -148 -125.5 -224.5t-291.5 -76.5l22 168q153 3 168 110zM543 674h-377l51 366h377z" />
    <glyph glyph-name="less" unicode="&#x3c;" 
d="M1528 31l-1342 481l62 434l1476 479l-49 -342l-1188 -362l1088 -363z" />
    <glyph glyph-name="equal" unicode="=" 
d="M1640 858h-1400l39 277h1400zM1563 305h-1401l39 277h1401z" />
    <glyph glyph-name="greater" unicode="&#x3e;" 
d="M322 1425l1341 -481l-61 -434l-1477 -479l49 342l1188 362l-1088 363z" />
    <glyph glyph-name="question" unicode="?" horiz-adv-x="1492" 
d="M1247 1030q0 82 -85 127t-240 45q-165 0 -273 -58.5t-143 -164.5l-350 53q62 217 270 339t522 122q310 0 488 -117q180 -113 180 -317q0 -191 -155 -312.5t-431 -146.5l-18 -129h-342l49 350q528 0 528 209zM975 0h-383l49 354h383z" />
    <glyph glyph-name="at" unicode="@" horiz-adv-x="2207" 
d="M1800 938l-172 -508q-20 -57 -1.5 -88t73.5 -31q115 0 203 111q90 116 90 264q0 207 -183 328t-497 121q-373 0 -623 -168q-146 -98 -224.5 -240t-78.5 -307q0 -250 195.5 -386t552.5 -136q383 0 690 145l110 -211q-340 -180 -811 -180q-474 0 -745 203
q-270 200 -270 557q0 214 103.5 404t293.5 325q328 235 817 235q423 0 676 -186q258 -188 258 -492q0 -261 -178 -436q-176 -176 -432 -176q-220 0 -304 137q-67 -63 -161 -99t-197 -36q-178 0 -281.5 96t-103.5 258q0 214 162 363q165 151 397 151q106 0 188 -34t126 -97
l38 113h289zM926 479q0 -72 49 -113.5t135 -41.5q116 0 193 71q79 73 79 172q0 72 -49.5 114t-134.5 42q-114 0 -194 -74q-78 -72 -78 -170z" />
    <glyph glyph-name="A" unicode="A" horiz-adv-x="1822" 
d="M-16 0l956 1470h387l510 -1470h-356l-107 315h-813l-203 -315h-374zM1278 598l-184 541l-349 -541h533z" />
    <glyph glyph-name="B" unicode="B" horiz-adv-x="1675" 
d="M1163 0h-1046l207 1470h942q226 0 357.5 -97.5t131.5 -264.5q0 -124 -70 -221.5t-192 -141.5q99 -41 155 -125t56 -192q0 -189 -150 -309q-146 -119 -391 -119zM612 1190l-45 -309h641q98 0 160 47.5t62 120.5q0 66 -55.5 103.5t-149.5 37.5h-613zM1176 614h-646
l-45 -331h674q97 0 161 51t64 127q0 70 -56 111.5t-152 41.5z" />
    <glyph glyph-name="C" unicode="C" horiz-adv-x="1714" 
d="M1044 1196q-239 0 -395 -141q-153 -138 -153 -353q0 -190 139 -311q138 -117 358 -117q168 0 297.5 79t198.5 225l285 -158q-106 -209 -316.5 -326t-480.5 -117q-365 0 -600 197q-232 200 -232 510q0 172 75 326.5t214 269.5q125 103 288 158t347 55q293 0 502 -129
q212 -129 264 -340l-315 -145q-41 152 -165.5 234.5t-310.5 82.5z" />
    <glyph glyph-name="D" unicode="D" horiz-adv-x="1771" 
d="M915 0h-798l207 1470h723q351 0 567 -192q217 -190 217 -492q0 -171 -74 -323.5t-209 -261.5q-252 -201 -633 -201zM616 1182l-124 -893h438q245 0 401 135q156 138 156 344q0 185 -129 299q-127 115 -342 115h-400z" />
    <glyph glyph-name="E" unicode="E" horiz-adv-x="1601" 
d="M117 0l207 1470h1425l-41 -292h-1090l-38 -283h972l-41 -289h-972l-45 -313h1091l-43 -293h-1425z" />
    <glyph glyph-name="F" unicode="F" horiz-adv-x="1576" 
d="M530 557l-77 -557h-336l207 1470h1409l-41 -292h-1074l-47 -334h957l-39 -287h-959z" />
    <glyph glyph-name="G" unicode="G" horiz-adv-x="1841" 
d="M1755 0h-317l20 145q-183 -168 -489 -168q-362 0 -592 199q-232 200 -232 508q0 171 77 326.5t218 271.5q262 211 641 211q297 0 516 -127q221 -128 279 -336l-322 -125q-41 135 -174 214t-319 79q-249 0 -406 -139t-157 -354q0 -200 137 -316q138 -117 369 -117
q180 0 315 72t182 195h-620l37 278h950z" />
    <glyph glyph-name="H" unicode="H" horiz-adv-x="1806" 
d="M1475 897l79 573h342l-206 -1470h-342l86 606h-889l-86 -606h-342l207 1470h342l-82 -573h891z" />
    <glyph glyph-name="I" unicode="I" horiz-adv-x="575" 
d="M324 1470h342l-207 -1470h-342z" />
    <glyph glyph-name="J" unicode="J" horiz-adv-x="1495" 
d="M764 -23q-268 0 -461 117q-194 120 -246 309l312 172q27 -134 139 -217q113 -82 268 -82q154 0 256.5 86.5t122.5 235.5l121 872h342l-125 -897q-41 -282 -232 -439t-497 -157z" />
    <glyph glyph-name="K" unicode="K" horiz-adv-x="1720" 
d="M324 1470h342l-93 -659l848 659h486l-803 -614l645 -856h-420l-493 651l-320 -245l-57 -406h-342z" />
    <glyph glyph-name="L" unicode="L" horiz-adv-x="1495" 
d="M1452 0h-1335l207 1470h342l-166 -1177h995z" />
    <glyph glyph-name="M" unicode="M" horiz-adv-x="2172" 
d="M1884 1133l-659 -1133h-277l-338 1133l-159 -1133h-334l207 1470h503l312 -1052l606 1052h518l-207 -1470h-332z" />
    <glyph glyph-name="N" unicode="N" horiz-adv-x="1783" 
d="M1542 1470h332l-207 -1470h-299l-774 1044l-145 -1044h-332l207 1470h342l737 -993z" />
    <glyph glyph-name="O" unicode="O" horiz-adv-x="1832" 
d="M979 -23q-364 0 -600 199q-234 200 -234 508q0 171 74.5 326.5t210.5 267.5q125 104 286.5 159.5t344.5 55.5q365 0 598 -199t233 -508q0 -171 -73.5 -326t-208.5 -267q-125 -105 -287 -160.5t-344 -55.5zM993 274q238 0 393 140q156 141 156 354q0 193 -137 309
q-137 119 -358 119q-240 0 -396 -141q-153 -138 -153 -353q0 -192 137 -311q138 -117 358 -117z" />
    <glyph glyph-name="P" unicode="P" horiz-adv-x="1646" 
d="M1143 512h-613l-71 -512h-342l207 1470h901q242 0 385 -120t143 -324q0 -230 -168 -373q-167 -141 -442 -141zM625 1182l-54 -383h568q124 0 201 60.5t77 154.5q0 78 -60.5 123t-168.5 45h-563z" />
    <glyph glyph-name="Q" unicode="Q" horiz-adv-x="1832" 
d="M1202 0q-118 -23 -223 -23q-364 0 -600 199q-234 200 -234 508q0 171 74.5 326.5t210.5 267.5q125 104 286.5 159.5t344.5 55.5q365 0 598 -199t233 -508q0 -201 -100.5 -377t-278.5 -286q88 -72 256 -109l-192 -237q-116 29 -218.5 90t-156.5 133zM1542 768
q0 193 -137 309q-137 119 -358 119q-240 0 -396 -141q-153 -138 -153 -353q0 -192 137 -311q138 -117 358 -117q238 0 393 140q156 141 156 354z" />
    <glyph glyph-name="R" unicode="R" horiz-adv-x="1665" 
d="M1006 522h-474l-73 -522h-342l207 1470h897q252 0 397 -117.5t145 -320.5q0 -174 -106.5 -303t-294.5 -180l297 -549h-377zM625 1182l-54 -381h578q124 0 201 59t77 152q0 80 -61.5 125t-171.5 45h-569z" />
    <glyph glyph-name="S" unicode="S" horiz-adv-x="1603" 
d="M905 -23q-288 0 -534 99q-247 102 -351 254l234 231q92 -135 274 -215q186 -80 402 -80q166 2 257 46.5t91 123.5q0 52 -47 84t-158 55l-153 25l-113 18q-337 55 -463 150q-125 94 -125 252q0 210 193 342q192 131 518 131q256 0 471 -84t315 -219l-233 -215
q-92 112 -244.5 171.5t-349.5 59.5q-154 0 -240 -39.5t-86 -111.5q0 -58 60 -86q63 -28 354 -74q293 -44 418 -98q241 -100 241 -320q0 -224 -200 -362t-531 -138z" />
    <glyph glyph-name="T" unicode="T" horiz-adv-x="1687" 
d="M1860 1470l-41 -292h-639l-164 -1178h-342l164 1178h-637l41 292h1618z" />
    <glyph glyph-name="U" unicode="U" horiz-adv-x="1697" 
d="M901 -23q-375 0 -573 189q-194 191 -148 512l111 792h342l-109 -765q-31 -207 69.5 -318t321.5 -111q204 0 314.5 104t142.5 325l109 765h342l-113 -792q-50 -352 -251 -526.5t-558 -174.5z" />
    <glyph glyph-name="V" unicode="V" horiz-adv-x="1818" 
d="M2042 1470l-959 -1470h-387l-506 1470h363l379 -1120l729 1120h381z" />
    <glyph glyph-name="W" unicode="W" horiz-adv-x="2416" 
d="M719 399l520 1071h346l154 -1071l547 1071h354l-758 -1470h-383l-151 1059l-521 -1059h-378l-244 1470h346z" />
    <glyph glyph-name="X" unicode="X" horiz-adv-x="1765" 
d="M1499 1470h434l-729 -706l582 -764h-406l-409 547l-557 -547h-434l798 774l-536 696h405l365 -481z" />
    <glyph glyph-name="Y" unicode="Y" horiz-adv-x="1775" 
d="M586 1470l418 -587l579 587h414l-852 -860l-86 -610h-342l86 610l-613 860h396z" />
    <glyph glyph-name="Z" unicode="Z" horiz-adv-x="1642" 
d="M621 293h991l-41 -293h-1501l36 258l1106 920h-968l39 292h1482l-36 -256z" />
    <glyph glyph-name="bracketleft" unicode="[" horiz-adv-x="772" 
d="M928 1262h-353l-169 -1213h352l-35 -250h-670l242 1712h670z" />
    <glyph glyph-name="backslash" unicode="\" horiz-adv-x="1202" 
d="M571 1511l574 -1712h-330l-573 1712h329z" />
    <glyph glyph-name="bracketright" unicode="]" horiz-adv-x="772" 
d="M381 49l170 1213h-352l34 249h670l-241 -1712h-670l37 250h352z" />
    <glyph glyph-name="asciicircum" unicode="^" horiz-adv-x="1222" 
d="M143 829l521 641h309l342 -641h-322l-200 385l-310 -385h-340z" />
    <glyph glyph-name="underscore" unicode="_" horiz-adv-x="980" 
d="M840 -362h-801l37 262h801z" />
    <glyph glyph-name="grave" unicode="`" horiz-adv-x="1228" 
d="M899 1470l162 -303h-258l-301 303h397z" />
    <glyph glyph-name="a" unicode="a" horiz-adv-x="1378" 
d="M971 123q-183 -146 -443 -146q-203 0 -324.5 86t-121.5 232q0 148 123 241t346 113l457 41l2 15q8 63 -54.5 101t-177.5 38q-111 0 -190.5 -38t-116.5 -108l-283 80q69 154 229.5 239t383.5 85q266 0 407 -111q142 -109 115 -297l-55 -393q-6 -46 24 -61q15 -9 39 -9
q37 4 68 11l-33 -242q-68 -12 -127 -12q-67 0 -129 16q-103 33 -139 119zM598 217q147 0 254 55q108 59 117 140l8 61l-391 -41q-183 -21 -183 -113q0 -49 51 -75.5t144 -26.5z" />
    <glyph glyph-name="b" unicode="b" horiz-adv-x="1445" 
d="M1479 584q0 -254 -179 -430q-180 -177 -448 -177q-122 0 -226 41t-177 117l-21 -135h-328l207 1470h328l-72 -509q66 66 164.5 103.5t210.5 37.5q237 0 389 -146t152 -372zM844 838q-151 0 -254 -95q-101 -91 -101 -229q0 -121 88 -196.5t228 -75.5q151 0 254 92
q100 93 100 231q0 121 -87.5 197t-227.5 76z" />
    <glyph glyph-name="c" unicode="c" horiz-adv-x="1290" 
d="M776 831q-149 0 -244 -92q-96 -90 -96 -225q0 -121 84.5 -195.5t220.5 -74.5q110 0 194.5 54t121.5 148l268 -124q-69 -165 -224.5 -255t-371.5 -90q-268 0 -440 146q-170 147 -170 381q0 257 190 426q190 172 484 172q220 0 378 -103q159 -104 199 -264l-295 -117
q-19 95 -101 154t-198 59z" />
    <glyph glyph-name="d" unicode="d" horiz-adv-x="1445" 
d="M659 -23q-239 0 -391 146q-149 143 -149 373q0 255 178 430q179 176 448 176q122 0 226 -41t178 -117l74 526h327l-207 -1470h-327l18 119q-67 -67 -165.5 -104.5t-209.5 -37.5zM754 242q149 0 252 92q102 94 102 231q0 121 -88 197t-229 76q-151 0 -254 -95
q-101 -91 -101 -229q0 -121 89 -196.5t229 -75.5z" />
    <glyph glyph-name="e" unicode="e" horiz-adv-x="1347" 
d="M745 236q105 0 187 44t125 123l278 -112q-80 -148 -239 -231t-365 -83q-263 0 -440 148q-172 150 -172 379q0 254 190 426q193 172 484 172q264 0 428 -141q163 -141 163 -365q0 -75 -14 -141h-936q20 -100 105 -159.5t206 -59.5zM776 848q-106 0 -191 -51.5t-126 -141.5
h608q-11 85 -90.5 139t-200.5 54z" />
    <glyph glyph-name="f" unicode="f" horiz-adv-x="987" 
d="M924 1493q162 0 299 -41l-74 -252q-132 29 -213 29q-196 0 -217 -135l-2 -15h397l-37 -270h-397l-115 -809h-323l112 809h-243l39 270h243l2 15q58 399 529 399z" />
    <glyph glyph-name="g" unicode="g" horiz-adv-x="1443" 
d="M1495 1079l-133 -940q-35 -244 -223 -383q-189 -139 -488 -139q-223 0 -388 75t-222 202l227 161q51 -88 156 -137t242 -49q160 0 252.5 65.5t111.5 192.5l6 37q-62 -68 -157.5 -104.5t-210.5 -36.5q-244 0 -396 137q-151 139 -151 360q0 244 176 414q174 168 442 168
q128 0 234.5 -41t175.5 -119l18 137h328zM756 276q145 0 248 89q100 87 100 219q0 117 -86.5 189.5t-226.5 72.5q-146 0 -250 -90q-101 -88 -101 -219q0 -115 88 -188t228 -73z" />
    <glyph glyph-name="h" unicode="h" horiz-adv-x="1386" 
d="M428 0h-328l207 1470h328l-72 -520q149 152 377 152q223 0 344 -139q122 -137 92 -359l-84 -604h-327l71 518q19 137 -41.5 215t-187.5 78t-206.5 -77.5t-98.5 -217.5z" />
    <glyph glyph-name="i" unicode="i" horiz-adv-x="530" 
d="M598 1190h-332l39 280h332zM252 1079h328l-152 -1079h-328z" />
    <glyph glyph-name="j" unicode="j" horiz-adv-x="530" 
d="M598 1190h-332l39 280h332zM-86 -125q90 0 135 40t57 128l146 1036h328l-146 -1046q-31 -214 -147.5 -314t-333.5 -100q-154 0 -287 45l78 238q86 -27 170 -27z" />
    <glyph glyph-name="k" unicode="k" horiz-adv-x="1386" 
d="M307 1470h328l-119 -841l584 450h452l-598 -450l461 -629h-393l-324 436l-233 -176l-37 -260h-328z" />
    <glyph glyph-name="l" unicode="l" horiz-adv-x="530" 
d="M307 1470h328l-207 -1470h-328z" />
    <glyph glyph-name="m" unicode="m" horiz-adv-x="2181" 
d="M791 811q-118 0 -194 -75.5t-93 -209.5l-76 -526h-328l152 1079h328l-17 -129q66 72 160.5 112t200.5 40q123 0 220 -51.5t140 -139.5q188 191 447 191q228 0 350 -137q124 -140 90 -357l-84 -608h-328l74 528q19 133 -37.5 208t-175.5 75q-117 0 -193.5 -75t-95.5 -210
l-74 -526h-327l74 528q19 133 -37.5 208t-175.5 75z" />
    <glyph glyph-name="n" unicode="n" horiz-adv-x="1386" 
d="M428 0h-328l152 1079h328l-19 -129q149 152 379 152q223 0 344 -139q122 -137 92 -359l-84 -604h-327l71 518q19 137 -41.5 215t-187.5 78t-206.5 -77.5t-98.5 -217.5z" />
    <glyph glyph-name="o" unicode="o" horiz-adv-x="1374" 
d="M791 1102q272 0 444 -146q170 -144 170 -383q0 -253 -191 -426q-191 -170 -481 -170q-272 0 -444 146q-170 144 -170 383q0 255 190 424q190 172 482 172zM780 834q-152 0 -248 -93t-96 -227q0 -122 85.5 -196t221.5 -74q153 0 248 92q96 93 96 227q0 122 -85.5 196.5
t-221.5 74.5z" />
    <glyph glyph-name="p" unicode="p" horiz-adv-x="1445" 
d="M1479 584q0 -254 -179 -430q-180 -177 -448 -177q-122 0 -226 41t-177 117l-70 -495h-328l201 1439h328l-17 -118q66 66 164.5 103.5t210.5 37.5q237 0 389 -146t152 -372zM844 838q-151 0 -254 -95q-101 -91 -101 -229q0 -121 88 -196.5t228 -75.5q151 0 254 92
q100 93 100 231q0 121 -87.5 197t-227.5 76z" />
    <glyph glyph-name="q" unicode="q" horiz-adv-x="1445" 
d="M659 -23q-239 0 -391 146q-149 143 -149 373q0 255 178 430q179 176 448 176q122 0 226 -41t178 -117l18 135h328l-201 -1439h-327l67 479q-67 -67 -165.5 -104.5t-209.5 -37.5zM754 242q149 0 252 92q102 94 102 231q0 121 -88 197t-229 76q-151 0 -254 -95
q-101 -91 -101 -229q0 -121 89 -196.5t229 -75.5z" />
    <glyph glyph-name="r" unicode="r" horiz-adv-x="968" 
d="M979 1085q57 0 119 -12l-45 -317q-68 14 -129 14q-190 0 -299.5 -85t-132.5 -247l-64 -438h-328l152 1079h328l-27 -186q149 192 426 192z" />
    <glyph glyph-name="s" unicode="s" horiz-adv-x="1218" 
d="M664 -23q-195 0 -375 60q-173 61 -269 164l181 209q75 -90 202 -139.5t283 -49.5q108 0 167.5 26.5t59.5 74.5q0 31 -30.5 48t-108.5 29l-90 13l-86 12q-242 35 -341 105t-99 200q0 167 151 270t412 103q179 0 334 -55q157 -56 241 -146l-186 -192q-73 70 -185.5 110.5
t-236.5 40.5q-98 0 -150.5 -23.5t-52.5 -66.5q0 -32 43 -53q54 -21 228 -41q264 -32 376.5 -105.5t112.5 -205.5q0 -174 -158 -283q-156 -105 -423 -105z" />
    <glyph glyph-name="t" unicode="t" horiz-adv-x="1079" 
d="M727 -16q-227 0 -343 99t-91 275l63 451h-245l39 270h245l41 299h324l-43 -299h448l-39 -270h-446l-55 -385q-11 -82 31.5 -121t142.5 -39q116 0 241 49l27 -264q-171 -65 -340 -65z" />
    <glyph glyph-name="u" unicode="u" horiz-adv-x="1376" 
d="M1098 1079h327l-151 -1079h-328l21 129q-149 -152 -375 -152q-222 0 -342 138q-118 136 -88 360l84 604h327l-73 -530q-20 -137 38 -214t185 -77q123 0 203 79t100 220z" />
    <glyph glyph-name="v" unicode="v" horiz-adv-x="1380" 
d="M1540 1079l-694 -1079h-340l-363 1079h351l231 -731l451 731h364z" />
    <glyph glyph-name="w" unicode="w" horiz-adv-x="1925" 
d="M606 393l357 686h290l121 -686l363 686h348l-608 -1079h-293l-135 684l-363 -684h-307l-236 1079h342z" />
    <glyph glyph-name="x" unicode="x" horiz-adv-x="1409" 
d="M1413 0h-395l-258 342l-352 -342h-412l579 553l-407 526h391l246 -323l330 323h409l-555 -530z" />
    <glyph glyph-name="y" unicode="y" horiz-adv-x="1378" 
d="M1538 1079l-715 -1130q-120 -191 -223 -260q-101 -70 -266 -70q-155 0 -279 51l84 250q86 -39 170 -39q55 0 93 24t75 81l29 47l-363 1046h355l231 -733l451 733h358z" />
    <glyph glyph-name="z" unicode="z" horiz-adv-x="1296" 
d="M584 270h686l-37 -270h-1167l34 242l758 567h-672l39 270h1153l-35 -243z" />
    <glyph glyph-name="braceleft" unicode="{" horiz-adv-x="886" 
d="M227 524h-112l37 262h96q108 0 129 132l33 235q50 358 438 358h231l-37 -249h-151q-87 0 -134 -42.5t-59 -132.5l-28 -196q-26 -181 -174 -244q67 -35 92.5 -92.5t13.5 -148.5l-27 -183q-12 -92 24.5 -133t129.5 -41h145l-36 -250h-193q-192 0 -296 99t-81 260l35 235
q8 69 -9.5 100t-66.5 31z" />
    <glyph glyph-name="bar" unicode="|" horiz-adv-x="577" 
d="M420 -201h-318l242 1712h318z" />
    <glyph glyph-name="braceright" unicode="}" horiz-adv-x="886" 
d="M956 786l-36 -262h-97q-108 0 -129 -131l-32 -235q-25 -178 -136 -268.5t-303 -90.5h-231l37 250h151q87 0 134 42t59 132l28 197q26 181 174 244q-67 35 -92.5 92.5t-13.5 148.5l27 182q12 92 -25 133.5t-129 41.5h-145l36 249h193q192 0 296 -98.5t81 -259.5l-35 -235
q-8 -69 9.5 -100.5t66.5 -31.5h112z" />
    <glyph glyph-name="asciitilde" unicode="~" horiz-adv-x="1062" 
d="M473 850q40 0 76.5 -13.5t91.5 -50.5q65 -47 107 -47q74 0 112 113h242q-35 -193 -123.5 -304.5t-206.5 -111.5q-40 0 -76.5 14t-91.5 54q-69 47 -104 47q-77 0 -115 -115h-242q32 189 122 301.5t208 112.5z" />
    <glyph glyph-name="uni00A0" unicode="&#xa0;" horiz-adv-x="407" 
 />
    <glyph glyph-name="exclamdown" unicode="&#xa1;" horiz-adv-x="628" 
d="M281 1116l49 354h383l-49 -354h-383zM102 0l228 999h252l-56 -999h-424z" />
    <glyph glyph-name="cent" unicode="&#xa2;" horiz-adv-x="1398" 
d="M858 -207h-260l27 197q-227 37 -359.5 175.5t-132.5 340.5q0 250 180 424q182 176 471 203l29 204h260l-31 -213q174 -29 294 -119t155 -217l-254 -126q-23 72 -82 122.5t-147 75.5l-86 -614q98 23 170.5 76t107.5 127l223 -144q-72 -137 -211 -220.5t-327 -102.5z
M430 528q0 -102 61.5 -174.5t170.5 -101.5l86 616q-143 -29 -230.5 -122.5t-87.5 -217.5z" />
    <glyph glyph-name="sterling" unicode="&#xa3;" horiz-adv-x="1804" 
d="M594 578h-330l29 215h196q-51 111 -51 200q0 115 71 217.5t196 171.5q196 111 479 111q309 0 489 -131q182 -129 182 -348q0 -58 -24 -152h-320q17 56 17 105q0 116 -95.5 178.5t-269.5 62.5q-176 0 -284.5 -72t-108.5 -184q0 -61 45 -159h510l-31 -215h-399q6 -69 6 -72
q0 -56 -14 -117q169 -77 233 -94q87 -23 152 -23q240 0 287 220h305q-29 -248 -174.5 -381.5t-389.5 -133.5q-126 0 -239 39q-115 41 -283 154q-75 -93 -182 -143t-231 -50q-152 0 -240 68t-88 186q0 131 109 213t282 82q86 0 188 -26q-2 24 -22 78zM416 336
q-61 0 -97 -23.5t-36 -60.5q0 -31 27.5 -49.5t74.5 -18.5q62 0 112 28.5t81 82.5q-87 41 -162 41z" />
    <glyph glyph-name="yen" unicode="&#xa5;" horiz-adv-x="1910" 
d="M838 346h-562l31 213h561l15 105h-561l30 213h363l-512 593h409l465 -555l619 555h426l-678 -593h364l-30 -213h-564l-14 -105h563l-30 -213h-564l-47 -346h-331z" />
    <glyph glyph-name="section" unicode="&#xa7;" horiz-adv-x="1644" 
d="M1559 518q53 -65 53 -156q0 -183 -181.5 -285t-512.5 -102q-276 0 -519 60q-233 61 -352 164l189 231q105 -94 291 -146.5t417 -52.5q157 0 238.5 29.5t81.5 85.5q0 71 -156 80l-586 35q-156 11 -242.5 80t-86.5 186q0 141 124 236q-49 61 -49 151q0 179 178 279t502 100
q254 0 457 -51q213 -50 330 -137l-179 -220q-224 146 -634 146q-161 0 -235.5 -23.5t-74.5 -77.5q0 -58 129 -67l533 -29q196 -10 298.5 -80.5t102.5 -195.5q0 -139 -116 -240zM614 694l566 -32q118 -10 174 -27q41 35 41 82q0 41 -39.5 59.5t-138.5 24.5l-566 30
q-70 3 -133 19q-49 -34 -49 -76q0 -38 34.5 -56.5t110.5 -23.5z" />
    <glyph glyph-name="dieresis" unicode="&#xa8;" horiz-adv-x="1228" 
d="M696 1190h-329l39 280h327zM1198 1190h-328l39 280h328z" />
    <glyph glyph-name="copyright" unicode="&#xa9;" horiz-adv-x="1835" 
d="M1057 1493q347 0 579 -203q230 -202 230 -506q0 -172 -68.5 -324.5t-195.5 -264.5q-122 -106 -280 -162t-337 -56q-347 0 -579 203q-230 202 -230 506q0 346 248 576q249 231 633 231zM985 139q316 0 514 180q203 182 203 459q0 243 -180 398t-465 155q-313 0 -514 -180
q-201 -183 -201 -459q0 -243 178 -399q183 -154 465 -154zM1008 303q-213 0 -344 113q-132 114 -132 293q0 196 148 329q151 133 379 133q176 0 297.5 -74t150.5 -198l-245 -88q-17 63 -74 99t-141 36q-110 0 -183 -65t-73 -162q0 -86 62 -138.5t165 -52.5q79 0 139.5 36
t85.5 98l230 -95q-62 -128 -181.5 -196t-283.5 -68z" />
    <glyph glyph-name="ordfeminine" unicode="&#xaa;" horiz-adv-x="1017" 
d="M809 782q-117 -102 -313 -102q-147 0 -234.5 61.5t-87.5 165.5q0 108 89 175t249 81l324 27l2 12q4 43 -37 66.5t-121 23.5q-159 0 -209 -96l-221 53q51 113 168 175.5t280 62.5q195 0 296.5 -79t82.5 -216l-39 -270q-3 -36 17 -45q11 -7 28 -7l45 9l-24 -183
q-54 -9 -96 -12q-52 0 -95 12q-77 24 -104 86zM555 858q100 0 172 37.5t80 93.5l6 41l-272 -26q-123 -12 -123 -76q0 -33 36 -51.5t101 -18.5zM1051 377h-938l28 201h938z" />
    <glyph glyph-name="guillemotleft" unicode="&#xab;" horiz-adv-x="1216" 
d="M592 100l-463 289l41 287l545 289l-45 -316l-230 -127l193 -129zM1155 100l-463 289l41 287l545 289l-45 -316l-229 -127l192 -129z" />
    <glyph glyph-name="registered" unicode="&#xae;" horiz-adv-x="1081" 
d="M715 1493q213 0 346 -121t133 -309q0 -210 -154 -352q-155 -140 -385 -140q-210 0 -346 121q-133 121 -133 307q0 213 152 353q153 141 387 141zM659 674q183 0 302 110q120 114 120 275q0 145 -102 237q-103 95 -268 95q-184 0 -303 -113q-121 -115 -121 -277
q0 -143 102 -235q106 -92 270 -92zM842 991l84 -184h-160l-59 147h-121l-21 -147h-145l65 465h283q84 0 131 -38t47 -104q0 -49 -27 -85.5t-77 -53.5zM795 1112q0 20 -14.5 31.5t-39.5 11.5h-129l-12 -96h125q31 0 50.5 14.5t19.5 38.5z" />
    <glyph glyph-name="overscore" unicode="&#xaf;" horiz-adv-x="1228" 
d="M1194 1438l-33 -244h-758l35 244h756z" />
    <glyph glyph-name="degree" unicode="&#xb0;" horiz-adv-x="841" 
d="M199 1145q0 149 114 248q112 100 293 100q165 0 266 -83t101 -218q0 -148 -117 -250q-113 -98 -293 -98q-165 0 -264.5 83t-99.5 218zM410 1157q0 -57 44 -91t119 -34q82 0 134.5 42t52.5 108q0 57 -44.5 91t-119.5 34q-82 0 -134 -42t-52 -108z" />
    <glyph glyph-name="twosuperior" unicode="&#xb2;" horiz-adv-x="933" 
d="M154 657l24 177l428 206q92 44 134 82t42 76q0 41 -36.5 63.5t-98.5 22.5q-81 0 -138.5 -43.5t-80.5 -122.5l-221 51q32 143 155.5 228.5t299.5 85.5q167 0 269.5 -72t102.5 -190q0 -87 -60.5 -158t-185.5 -131l-163 -78h379l-27 -197h-823z" />
    <glyph glyph-name="threesuperior" unicode="&#xb3;" horiz-adv-x="972" 
d="M1057 895q0 -113 -117.5 -181.5t-318.5 -68.5q-183 0 -313 61t-171 166l223 97q23 -62 93.5 -96.5t173.5 -34.5q79 0 122.5 22t43.5 60q0 61 -138 61h-180l27 176h172q69 0 107 18t38 50q0 63 -139 63q-190 0 -268 -110l-189 104q62 97 182.5 149t284.5 52
q179 0 286 -62.5t107 -165.5q0 -67 -42.5 -117t-118.5 -73q135 -48 135 -170z" />
    <glyph glyph-name="acute" unicode="&#xb4;" horiz-adv-x="1228" 
d="M770 1167h-287l246 303h426z" />
    <glyph glyph-name="paragraph" unicode="&#xb6;" horiz-adv-x="1773" 
d="M1485 0h-297l170 1210h-293l-86 -598h-303q-221 0 -354 109q-132 108 -132 291q0 198 152 329q153 129 399 129h1211l-35 -260h-262z" />
    <glyph glyph-name="middot" unicode="&#xb7;" horiz-adv-x="540" 
d="M518 424h-377l52 367h376z" />
    <glyph glyph-name="cedilla" unicode="&#xb8;" horiz-adv-x="1228" 
d="M885 -205q0 -80 -82 -129t-217 -49q-91 0 -170 22.5t-129 61.5l104 131q70 -57 180 -57q99 0 99 45q0 56 -189 53l68 152h145l-28 -68q103 -11 161 -53.5t58 -108.5z" />
    <glyph glyph-name="onesuperior" unicode="&#xb9;" horiz-adv-x="770" 
d="M406 860l43 295h-252l24 178l107 4q95 2 145.5 32t75.5 101h192l-86 -610h217l-26 -203h-723l29 203h254z" />
    <glyph glyph-name="ordmasculine" unicode="&#xba;" horiz-adv-x="1026" 
d="M688 1487q199 0 322 -105q125 -104 125 -274q0 -182 -140 -307q-139 -121 -348 -121q-199 0 -321 104q-123 105 -123 275q0 186 137 305q138 123 348 123zM680 1284q-102 0 -168 -62t-66 -155q0 -84 58 -134t153 -50q102 0 168 62.5t66 156.5q0 82 -58.5 132t-152.5 50z
M1018 377h-901l28 201h902z" />
    <glyph glyph-name="guillemotright" unicode="&#xbb;" horiz-adv-x="1216" 
d="M774 965l463 -289l-41 -287l-545 -289l45 316l230 127l-193 129zM211 965l463 -289l-41 -287l-545 -289l45 316l229 127l-192 129z" />
    <glyph glyph-name="onequarter" unicode="&#xbc;" horiz-adv-x="2093" 
d="M406 860l43 295h-252l24 178l107 4q95 2 145.5 32t75.5 101h192l-86 -610h217l-26 -203h-723l29 203h254zM354 0l1350 1470h293l-1350 -1470h-293zM1911 182l-27 -182h-235l26 182h-512l27 180l485 451h324l-64 -446h179l-25 -185h-178zM1735 618l-275 -251h240z" />
    <glyph glyph-name="onehalf" unicode="&#xbd;" horiz-adv-x="2168" 
d="M406 860l43 295h-252l24 178l107 4q95 2 145.5 32t75.5 101h192l-86 -610h217l-26 -203h-723l29 203h254zM354 0l1350 1470h293l-1350 -1470h-293zM1296 0l25 176l428 207q92 44 134 82t42 76q0 41 -36.5 63.5t-98.5 22.5q-81 0 -138.5 -43.5t-80.5 -122.5l-221 51
q32 143 155 228t299 85q168 0 270.5 -72t102.5 -190q0 -87 -60.5 -158t-185.5 -131l-164 -77h379l-26 -197h-824z" />
    <glyph glyph-name="threequarters" unicode="&#xbe;" horiz-adv-x="2183" 
d="M1057 895q0 -113 -117.5 -181.5t-318.5 -68.5q-183 0 -313 61t-171 166l223 97q23 -62 93.5 -96.5t173.5 -34.5q79 0 122.5 22t43.5 60q0 61 -138 61h-180l27 176h172q69 0 107 18t38 50q0 63 -139 63q-190 0 -268 -110l-189 104q62 97 182.5 149t284.5 52
q179 0 286 -62.5t107 -165.5q0 -67 -42.5 -117t-118.5 -73q135 -48 135 -170zM442 0l1350 1470h293l-1350 -1470h-293zM2001 182l-27 -182h-235l26 182h-512l27 180l485 451h324l-64 -446h179l-25 -185h-178zM1825 618l-275 -251h240z" />
    <glyph glyph-name="questiondown" unicode="&#xbf;" horiz-adv-x="1492" 
d="M725 1487h383l-49 -354h-383zM453 457q0 -82 85 -127t240 -45q165 0 273 58.5t143 164.5l350 -53q-62 -217 -270 -339t-522 -122q-307 0 -490 115q-178 117 -178 319q0 191 155 312.5t431 146.5l18 129h342l-49 -350q-528 0 -528 -209z" />
    <glyph glyph-name="Agrave" unicode="&#xc0;" horiz-adv-x="1822" 
d="M-16 0l956 1470h387l510 -1470h-356l-107 315h-813l-203 -315h-374zM1278 598l-184 541l-349 -541h533zM1094 1870l182 -320h-272l-342 320h432z" />
    <glyph glyph-name="Aacute" unicode="&#xc1;" horiz-adv-x="1822" 
d="M-16 0l956 1470h387l510 -1470h-356l-107 315h-813l-203 -315h-374zM1278 598l-184 541l-349 -541h533zM1270 1550h-307l272 320h469z" />
    <glyph glyph-name="Acircumflex" unicode="&#xc2;" horiz-adv-x="1822" 
d="M-16 0l956 1470h387l510 -1470h-356l-107 315h-813l-203 -315h-374zM1278 598l-184 541l-349 -541h533zM999 1870h349l249 -320h-247l-191 131l-227 -131h-270z" />
    <glyph glyph-name="Atilde" unicode="&#xc3;" horiz-adv-x="1822" 
d="M-16 0l956 1470h387l510 -1470h-356l-107 315h-813l-203 -315h-374zM1278 598l-184 541l-349 -541h533zM965 1905q51 0 99 -13t126 -49q93 -43 133 -43q38 0 62.5 24.5t41.5 80.5h218q-26 -166 -106 -259.5t-196 -93.5q-51 0 -99 13t-126 49q-93 43 -133 43
q-78 0 -104 -105h-217q26 165 106 259t195 94z" />
    <glyph glyph-name="Adieresis" unicode="&#xc4;" horiz-adv-x="1822" 
d="M-16 0l956 1470h387l510 -1470h-356l-107 315h-813l-203 -315h-374zM1278 598l-184 541l-349 -541h533zM1032 1550h-327l40 289h328zM1554 1550h-327l41 289h327z" />
    <glyph glyph-name="Aring" unicode="&#xc5;" horiz-adv-x="1822" 
d="M823 1587q0 120 92 203q96 84 234 84q133 0 216 -72.5t83 -185.5q0 -123 -98 -209l487 -1407h-358l-107 315h-807l-205 -315h-376l917 1409q-78 75 -78 178zM1141 1708q-54 0 -89.5 -32.5t-35.5 -80.5q0 -43 31.5 -70.5t82.5 -27.5q56 0 91.5 32t35.5 81q0 43 -32.5 70.5
t-83.5 27.5zM1276 598l-182 537l-346 -537h528z" />
    <glyph glyph-name="AE" unicode="&#xc6;" horiz-adv-x="2938" 
d="M-14 0l1491 1470h1607l-41 -292h-1089l-39 -283h973l-41 -289h-973l-45 -313h1091l-43 -293h-1425l45 315h-760l-319 -315h-432zM1620 1188l-600 -592h516z" />
    <glyph glyph-name="Ccedilla" unicode="&#xc7;" horiz-adv-x="1714" 
d="M145 684q0 172 75 326.5t214 269.5q125 103 288 158t347 55q293 0 502 -129q212 -129 264 -340l-315 -145q-41 152 -165.5 234.5t-310.5 82.5q-239 0 -395 -141q-153 -138 -153 -353q0 -190 139 -311q138 -117 358 -117q168 0 297.5 79t198.5 225l285 -158
q-106 -209 -316.5 -326t-480.5 -117h-45l-8 -20q103 -11 161 -53.5t58 -108.5q0 -80 -82 -129t-217 -49q-91 0 -170 22.5t-129 61.5l104 131q70 -57 180 -57q99 0 99 45q0 56 -189 53l54 119q-298 50 -471 235q-177 189 -177 457z" />
    <glyph glyph-name="Egrave" unicode="&#xc8;" horiz-adv-x="1601" 
d="M117 0l207 1470h1425l-41 -292h-1090l-38 -283h972l-41 -289h-972l-45 -313h1091l-43 -293h-1425zM1067 1870l182 -320h-272l-342 320h432z" />
    <glyph glyph-name="Eacute" unicode="&#xc9;" horiz-adv-x="1601" 
d="M117 0l207 1470h1425l-41 -292h-1090l-38 -283h972l-41 -289h-972l-45 -313h1091l-43 -293h-1425zM1163 1550h-307l272 320h469z" />
    <glyph glyph-name="Ecircumflex" unicode="&#xca;" horiz-adv-x="1601" 
d="M117 0l207 1470h1425l-41 -292h-1090l-38 -283h972l-41 -289h-972l-45 -313h1091l-43 -293h-1425zM913 1870h349l249 -320h-247l-191 131l-227 -131h-271z" />
    <glyph glyph-name="Edieresis" unicode="&#xcb;" horiz-adv-x="1601" 
d="M117 0l207 1470h1425l-41 -292h-1090l-38 -283h972l-41 -289h-972l-45 -313h1091l-43 -293h-1425zM946 1550h-328l41 289h328zM1468 1550h-327l41 289h327z" />
    <glyph glyph-name="Igrave" unicode="&#xcc;" horiz-adv-x="575" 
d="M324 1470h342l-207 -1470h-342zM467 1870l182 -320h-272l-342 320h432z" />
    <glyph glyph-name="Iacute" unicode="&#xcd;" horiz-adv-x="575" 
d="M324 1470h342l-207 -1470h-342zM653 1550h-307l272 320h469z" />
    <glyph glyph-name="Icircumflex" unicode="&#xce;" horiz-adv-x="575" 
d="M324 1470h342l-207 -1470h-342zM375 1870h348l250 -320h-248l-190 131l-228 -131h-270z" />
    <glyph glyph-name="Idieresis" unicode="&#xcf;" horiz-adv-x="575" 
d="M324 1470h342l-207 -1470h-342zM408 1550h-328l41 289h328zM930 1550h-328l41 289h328z" />
    <glyph glyph-name="Eth" unicode="&#xd0;" horiz-adv-x="1853" 
d="M997 0h-798l86 606h-187l41 289h185l82 575h722q352 0 568 -192q217 -190 217 -492q0 -171 -74 -323.5t-209 -261.5q-252 -201 -633 -201zM618 606l-45 -317h439q245 0 401 135q156 138 156 344q0 185 -129 299q-127 115 -342 115h-400l-41 -287h326l-41 -289h-324z" />
    <glyph glyph-name="Ntilde" unicode="&#xd1;" horiz-adv-x="1783" 
d="M1542 1470h332l-207 -1470h-299l-774 1044l-145 -1044h-332l207 1470h342l737 -993zM938 1905q51 0 99 -13t126 -49q93 -43 133 -43q38 0 63 24.5t42 80.5h217q-26 -166 -106 -259.5t-195 -93.5q-51 0 -99 13t-126 49q-93 43 -134 43q-78 0 -104 -105h-217
q26 165 106 259t195 94z" />
    <glyph glyph-name="Ograve" unicode="&#xd2;" horiz-adv-x="1832" 
d="M979 -23q-364 0 -600 199q-234 200 -234 508q0 171 74.5 326.5t210.5 267.5q125 104 286.5 159.5t344.5 55.5q365 0 598 -199t233 -508q0 -171 -73.5 -326t-208.5 -267q-125 -105 -287 -160.5t-344 -55.5zM993 274q238 0 393 140q156 141 156 354q0 193 -137 309
q-137 119 -358 119q-240 0 -396 -141q-153 -138 -153 -353q0 -192 137 -311q138 -117 358 -117zM1120 1870l183 -320h-273l-342 320h432z" />
    <glyph glyph-name="Oacute" unicode="&#xd3;" horiz-adv-x="1832" 
d="M979 -23q-364 0 -600 199q-234 200 -234 508q0 171 74.5 326.5t210.5 267.5q125 104 286.5 159.5t344.5 55.5q365 0 598 -199t233 -508q0 -171 -73.5 -326t-208.5 -267q-125 -105 -287 -160.5t-344 -55.5zM993 274q238 0 393 140q156 141 156 354q0 193 -137 309
q-137 119 -358 119q-240 0 -396 -141q-153 -138 -153 -353q0 -192 137 -311q138 -117 358 -117zM1260 1550h-308l273 320h469z" />
    <glyph glyph-name="Ocircumflex" unicode="&#xd4;" horiz-adv-x="1832" 
d="M979 -23q-364 0 -600 199q-234 200 -234 508q0 171 74.5 326.5t210.5 267.5q125 104 286.5 159.5t344.5 55.5q365 0 598 -199t233 -508q0 -171 -73.5 -326t-208.5 -267q-125 -105 -287 -160.5t-344 -55.5zM993 274q238 0 393 140q156 141 156 354q0 193 -137 309
q-137 119 -358 119q-240 0 -396 -141q-153 -138 -153 -353q0 -192 137 -311q138 -117 358 -117zM1006 1870h348l250 -320h-248l-191 131l-227 -131h-270z" />
    <glyph glyph-name="Otilde" unicode="&#xd5;" horiz-adv-x="1832" 
d="M979 -23q-364 0 -600 199q-234 200 -234 508q0 171 74.5 326.5t210.5 267.5q125 104 286.5 159.5t344.5 55.5q365 0 598 -199t233 -508q0 -171 -73.5 -326t-208.5 -267q-125 -105 -287 -160.5t-344 -55.5zM993 274q238 0 393 140q156 141 156 354q0 193 -137 309
q-137 119 -358 119q-240 0 -396 -141q-153 -138 -153 -353q0 -192 137 -311q138 -117 358 -117zM971 1905q51 0 99 -13t126 -49q93 -43 133 -43q38 0 63 24.5t42 80.5h217q-26 -166 -106 -259.5t-195 -93.5q-51 0 -99.5 13t-126.5 49q-93 43 -133 43q-78 0 -104 -105h-217
q26 165 106 259t195 94z" />
    <glyph glyph-name="Odieresis" unicode="&#xd6;" horiz-adv-x="1832" 
d="M979 -23q-364 0 -600 199q-234 200 -234 508q0 171 74.5 326.5t210.5 267.5q125 104 286.5 159.5t344.5 55.5q365 0 598 -199t233 -508q0 -171 -73.5 -326t-208.5 -267q-125 -105 -287 -160.5t-344 -55.5zM993 274q238 0 393 140q156 141 156 354q0 193 -137 309
q-137 119 -358 119q-240 0 -396 -141q-153 -138 -153 -353q0 -192 137 -311q138 -117 358 -117zM1038 1550h-327l41 289h327zM1561 1550h-328l41 289h328z" />
    <glyph glyph-name="multiply" unicode="&#xd7;" 
d="M186 266l541 475l-408 476l213 184l410 -473l537 469l170 -199l-535 -469l408 -477l-213 -184l-410 475l-541 -475z" />
    <glyph glyph-name="Oslash" unicode="&#xd8;" horiz-adv-x="1832" 
d="M246 -59l-168 190l192 162q-125 175 -125 391q0 171 74.5 326.5t210.5 267.5q125 104 286.5 159.5t344.5 55.5q310 0 532 -150l197 166l168 -192l-180 -154q114 -163 114 -377q0 -171 -73.5 -326t-208.5 -267q-125 -105 -287 -160.5t-344 -55.5q-302 0 -520 142z
M1047 1204q-245 0 -400 -143t-155 -359q0 -111 51 -208l786 645q-121 65 -282 65zM993 266q241 0 398 142q157 145 157 360q0 111 -45 197l-780 -639q117 -60 270 -60z" />
    <glyph glyph-name="Ugrave" unicode="&#xd9;" horiz-adv-x="1697" 
d="M901 -23q-375 0 -573 189q-194 191 -148 512l111 792h342l-109 -765q-31 -207 69.5 -318t321.5 -111q204 0 314.5 104t142.5 325l109 765h342l-113 -792q-50 -352 -251 -526.5t-558 -174.5zM1069 1870l182 -320h-272l-342 320h432z" />
    <glyph glyph-name="Uacute" unicode="&#xda;" horiz-adv-x="1697" 
d="M901 -23q-375 0 -573 189q-194 191 -148 512l111 792h342l-109 -765q-31 -207 69.5 -318t321.5 -111q204 0 314.5 104t142.5 325l109 765h342l-113 -792q-50 -352 -251 -526.5t-558 -174.5zM1184 1550h-307l272 320h469z" />
    <glyph glyph-name="Ucircumflex" unicode="&#xdb;" horiz-adv-x="1697" 
d="M901 -23q-375 0 -573 189q-194 191 -148 512l111 792h342l-109 -765q-31 -207 69.5 -318t321.5 -111q204 0 314.5 104t142.5 325l109 765h342l-113 -792q-50 -352 -251 -526.5t-558 -174.5zM938 1870h348l250 -320h-248l-190 131l-228 -131h-270z" />
    <glyph glyph-name="Udieresis" unicode="&#xdc;" horiz-adv-x="1697" 
d="M901 -23q-375 0 -573 189q-194 191 -148 512l111 792h342l-109 -765q-31 -207 69.5 -318t321.5 -111q204 0 314.5 104t142.5 325l109 765h342l-113 -792q-50 -352 -251 -526.5t-558 -174.5zM971 1550h-328l41 289h328zM1493 1550h-328l41 289h328z" />
    <glyph glyph-name="Yacute" unicode="&#xdd;" horiz-adv-x="1775" 
d="M586 1470l418 -587l579 587h414l-852 -860l-86 -610h-342l86 610l-613 860h396zM1229 1550h-307l272 320h469z" />
    <glyph glyph-name="Thorn" unicode="&#xde;" horiz-adv-x="1646" 
d="M1720 791q0 -230 -168 -373q-166 -144 -442 -144h-612l-39 -274h-342l207 1470h342l-33 -235h559q242 0 385 -120t143 -324zM1155 950h-563l-55 -391h569q124 0 202 61.5t78 155.5q0 82 -61 128t-170 46z" />
    <glyph glyph-name="germandbls" unicode="&#xdf;" horiz-adv-x="1509" 
d="M965 1493q252 0 390.5 -103t127.5 -278q-6 -100 -68 -178t-168 -121q149 -43 224 -138.5t67 -232.5q-12 -207 -182 -336t-426 -129q-137 0 -257.5 44.5t-183.5 117.5l152 232q56 -62 136.5 -96.5t170.5 -34.5q122 0 199 61t82 158q4 94 -81.5 143t-252.5 49h-223l37 267
h180q122 0 196.5 45.5t79.5 121.5q2 70 -59 110t-170 40q-153 0 -250.5 -83.5t-120.5 -231.5l-129 -920h-330l130 909q38 268 231 424q198 160 498 160z" />
    <glyph glyph-name="agrave" unicode="&#xe0;" horiz-adv-x="1378" 
d="M971 123q-183 -146 -443 -146q-203 0 -324.5 86t-121.5 232q0 148 123 241t346 113l457 41l2 15q8 63 -54.5 101t-177.5 38q-111 0 -190.5 -38t-116.5 -108l-283 80q69 154 229.5 239t383.5 85q266 0 407 -111q142 -109 115 -297l-55 -393q-6 -46 24 -61q15 -9 39 -9
q37 4 68 11l-33 -242q-68 -12 -127 -12q-67 0 -129 16q-103 33 -139 119zM598 217q147 0 254 55q108 59 117 140l8 61l-391 -41q-183 -21 -183 -113q0 -49 51 -75.5t144 -26.5zM860 1470l162 -303h-258l-301 303h397z" />
    <glyph glyph-name="aacute" unicode="&#xe1;" horiz-adv-x="1378" 
d="M971 123q-183 -146 -443 -146q-203 0 -324.5 86t-121.5 232q0 148 123 241t346 113l457 41l2 15q8 63 -54.5 101t-177.5 38q-111 0 -190.5 -38t-116.5 -108l-283 80q69 154 229.5 239t383.5 85q266 0 407 -111q142 -109 115 -297l-55 -393q-6 -46 24 -61q15 -9 39 -9
q37 4 68 11l-33 -242q-68 -12 -127 -12q-67 0 -129 16q-103 33 -139 119zM598 217q147 0 254 55q108 59 117 140l8 61l-391 -41q-183 -21 -183 -113q0 -49 51 -75.5t144 -26.5zM956 1167h-287l246 303h426z" />
    <glyph glyph-name="acircumflex" unicode="&#xe2;" horiz-adv-x="1378" 
d="M971 123q-183 -146 -443 -146q-203 0 -324.5 86t-121.5 232q0 148 123 241t346 113l457 41l2 15q8 63 -54.5 101t-177.5 38q-111 0 -190.5 -38t-116.5 -108l-283 80q69 154 229.5 239t383.5 85q266 0 407 -111q142 -109 115 -297l-55 -393q-6 -46 24 -61q15 -9 39 -9
q37 4 68 11l-33 -242q-68 -12 -127 -12q-67 0 -129 16q-103 33 -139 119zM598 217q147 0 254 55q108 59 117 140l8 61l-391 -41q-183 -21 -183 -113q0 -49 51 -75.5t144 -26.5zM715 1470h319l225 -303h-235l-164 111l-197 -111h-260z" />
    <glyph glyph-name="atilde" unicode="&#xe3;" horiz-adv-x="1378" 
d="M971 123q-183 -146 -443 -146q-203 0 -324.5 86t-121.5 232q0 148 123 241t346 113l457 41l2 15q8 63 -54.5 101t-177.5 38q-111 0 -190.5 -38t-116.5 -108l-283 80q69 154 229.5 239t383.5 85q266 0 407 -111q142 -109 115 -297l-55 -393q-6 -46 24 -61q15 -9 39 -9
q37 4 68 11l-33 -242q-68 -12 -127 -12q-67 0 -129 16q-103 33 -139 119zM598 217q147 0 254 55q108 59 117 140l8 61l-391 -41q-183 -21 -183 -113q0 -49 51 -75.5t144 -26.5zM696 1489q72 0 174 -55q77 -43 119 -43q65 0 92 98h199q-26 -154 -99 -238t-182 -84
q-41 0 -78.5 12t-99.5 44q-69 41 -115 41q-68 0 -94 -97h-196q25 153 98.5 237.5t181.5 84.5z" />
    <glyph glyph-name="adieresis" unicode="&#xe4;" horiz-adv-x="1378" 
d="M971 123q-183 -146 -443 -146q-203 0 -324.5 86t-121.5 232q0 148 123 241t346 113l457 41l2 15q8 63 -54.5 101t-177.5 38q-111 0 -190.5 -38t-116.5 -108l-283 80q69 154 229.5 239t383.5 85q266 0 407 -111q142 -109 115 -297l-55 -393q-6 -46 24 -61q15 -9 39 -9
q37 4 68 11l-33 -242q-68 -12 -127 -12q-67 0 -129 16q-103 33 -139 119zM598 217q147 0 254 55q108 59 117 140l8 61l-391 -41q-183 -21 -183 -113q0 -49 51 -75.5t144 -26.5zM758 1190h-330l39 280h328zM1260 1190h-328l39 280h327z" />
    <glyph glyph-name="aring" unicode="&#xe5;" horiz-adv-x="1378" 
d="M971 123q-183 -146 -443 -146q-203 0 -324.5 86t-121.5 232q0 148 123 241t346 113l457 41l2 15q8 63 -54.5 101t-177.5 38q-111 0 -190.5 -38t-116.5 -108l-283 80q69 154 229.5 239t383.5 85q266 0 407 -111q142 -109 115 -297l-55 -393q-6 -46 24 -61q15 -9 39 -9
q37 4 68 11l-33 -242q-68 -12 -127 -12q-67 0 -129 16q-103 33 -139 119zM598 217q147 0 254 55q108 59 117 140l8 61l-391 -41q-183 -21 -183 -113q0 -49 51 -75.5t144 -26.5zM856 1149q-99 0 -164 61t-65 152q0 96 73 166q74 71 179 71q98 0 163.5 -61t65.5 -152
q0 -96 -74 -167q-73 -70 -178 -70zM872 1460q-37 0 -63.5 -27.5t-26.5 -64.5q0 -35 21.5 -57.5t56.5 -22.5q38 0 65 27t27 65q0 35 -22.5 57.5t-57.5 22.5z" />
    <glyph glyph-name="ae" unicode="&#xe6;" horiz-adv-x="2209" 
d="M1593 -23q-155 0 -285.5 54.5t-215.5 154.5q-92 -102 -232 -155.5t-313 -53.5q-214 0 -339.5 86t-125.5 232q0 161 131.5 258.5t351.5 97.5h436l9 60q10 61 -52 97t-178 36q-110 0 -190.5 -38.5t-118.5 -107.5l-283 80q69 154 229.5 239t383.5 85q290 0 428 -129
q180 129 426 129q265 0 428 -141q164 -141 164 -365q0 -48 -17 -145h-936q23 -98 108 -156.5t206 -58.5q105 0 186.5 44t124.5 123l279 -112q-79 -148 -240 -231t-365 -83zM1638 850q-109 0 -196 -54t-125 -145h610q-8 88 -87.5 143.5t-201.5 55.5zM403 330
q0 -54 55.5 -83.5t155.5 -29.5q141 0 242 55q103 59 115 142l4 37h-381q-90 0 -140.5 -32.5t-50.5 -88.5z" />
    <glyph glyph-name="ccedilla" unicode="&#xe7;" horiz-adv-x="1290" 
d="M119 504q0 257 190 426q190 172 484 172q220 0 378 -103q159 -104 199 -264l-295 -117q-19 95 -101 154t-198 59q-149 0 -244 -92q-96 -90 -96 -225q0 -121 84.5 -195.5t220.5 -74.5q110 0 194.5 54t121.5 148l268 -124q-69 -165 -224.5 -255t-371.5 -90h-10l-8 -20
q103 -11 161 -53.5t58 -108.5q0 -80 -82 -129t-217 -49q-91 0 -170 22.5t-129 61.5l104 131q70 -57 180 -57q99 0 99 45q0 56 -189 53l54 119q-212 41 -336 176q-125 137 -125 336z" />
    <glyph glyph-name="egrave" unicode="&#xe8;" horiz-adv-x="1347" 
d="M745 236q105 0 187 44t125 123l278 -112q-80 -148 -239 -231t-365 -83q-263 0 -440 148q-172 150 -172 379q0 254 190 426q193 172 484 172q264 0 428 -141q163 -141 163 -365q0 -75 -14 -141h-936q20 -100 105 -159.5t206 -59.5zM776 848q-106 0 -191 -51.5t-126 -141.5
h608q-11 85 -90.5 139t-200.5 54zM866 1470l162 -303h-258l-301 303h397z" />
    <glyph glyph-name="eacute" unicode="&#xe9;" horiz-adv-x="1347" 
d="M745 236q105 0 187 44t125 123l278 -112q-80 -148 -239 -231t-365 -83q-263 0 -440 148q-172 150 -172 379q0 254 190 426q193 172 484 172q264 0 428 -141q163 -141 163 -365q0 -75 -14 -141h-936q20 -100 105 -159.5t206 -59.5zM776 848q-106 0 -191 -51.5t-126 -141.5
h608q-11 85 -90.5 139t-200.5 54zM977 1167h-287l246 303h426z" />
    <glyph glyph-name="ecircumflex" unicode="&#xea;" horiz-adv-x="1347" 
d="M745 236q105 0 187 44t125 123l278 -112q-80 -148 -239 -231t-365 -83q-263 0 -440 148q-172 150 -172 379q0 254 190 426q193 172 484 172q264 0 428 -141q163 -141 163 -365q0 -75 -14 -141h-936q20 -100 105 -159.5t206 -59.5zM776 848q-106 0 -191 -51.5t-126 -141.5
h608q-11 85 -90.5 139t-200.5 54zM732 1470h319l225 -303h-235l-164 111l-197 -111h-260z" />
    <glyph glyph-name="edieresis" unicode="&#xeb;" horiz-adv-x="1347" 
d="M745 236q105 0 187 44t125 123l278 -112q-80 -148 -239 -231t-365 -83q-263 0 -440 148q-172 150 -172 379q0 254 190 426q193 172 484 172q264 0 428 -141q163 -141 163 -365q0 -75 -14 -141h-936q20 -100 105 -159.5t206 -59.5zM776 848q-106 0 -191 -51.5t-126 -141.5
h608q-11 85 -90.5 139t-200.5 54zM762 1190h-330l39 280h328zM1264 1190h-328l39 280h328z" />
    <glyph glyph-name="igrave" unicode="&#xec;" horiz-adv-x="530" 
d="M252 1079h328l-152 -1079h-328zM410 1470l161 -303h-258l-301 303h398z" />
    <glyph glyph-name="iacute" unicode="&#xed;" horiz-adv-x="530" 
d="M252 1079h328l-152 -1079h-328zM565 1167h-287l246 303h426z" />
    <glyph glyph-name="icircumflex" unicode="&#xee;" horiz-adv-x="530" 
d="M252 1079h328l-152 -1079h-328zM312 1470h319l225 -303h-235l-164 111l-197 -111h-260z" />
    <glyph glyph-name="idieresis" unicode="&#xef;" horiz-adv-x="530" 
d="M252 1079h328l-152 -1079h-328zM346 1190h-330l39 280h328zM848 1190h-328l39 280h328z" />
    <glyph glyph-name="eth" unicode="&#xf0;" horiz-adv-x="1370" 
d="M764 1081q147 0 268 -59q-41 77 -127 160l-502 -103l31 224l246 51q-80 51 -166 90l336 47q80 -36 135 -76l408 84l-31 -223l-174 -37q108 -124 165.5 -277t57.5 -315q0 -297 -188 -485q-188 -185 -490 -185q-272 0 -444 146q-170 144 -170 383q0 245 182 409
q184 166 463 166zM780 834q-152 0 -248 -93t-96 -227q0 -122 85.5 -196t221.5 -74q153 0 248 92q96 93 96 227q0 122 -85.5 196.5t-221.5 74.5z" />
    <glyph glyph-name="ntilde" unicode="&#xf1;" horiz-adv-x="1386" 
d="M428 0h-328l152 1079h328l-19 -129q149 152 379 152q223 0 344 -139q122 -137 92 -359l-84 -604h-327l71 518q19 137 -41.5 215t-187.5 78t-206.5 -77.5t-98.5 -217.5zM733 1489q72 0 174 -55q77 -43 119 -43q65 0 92 98h199q-26 -154 -99 -238t-182 -84q-41 0 -78.5 12
t-99.5 44q-69 41 -115 41q-68 0 -94 -97h-196q25 153 98.5 237.5t181.5 84.5z" />
    <glyph glyph-name="ograve" unicode="&#xf2;" horiz-adv-x="1374" 
d="M791 1102q272 0 444 -146q170 -144 170 -383q0 -253 -191 -426q-191 -170 -481 -170q-272 0 -444 146q-170 144 -170 383q0 255 190 424q190 172 482 172zM780 834q-152 0 -248 -93t-96 -227q0 -122 85.5 -196t221.5 -74q153 0 248 92q96 93 96 227q0 122 -85.5 196.5
t-221.5 74.5zM848 1473l162 -304h-258l-301 304h397z" />
    <glyph glyph-name="oacute" unicode="&#xf3;" horiz-adv-x="1374" 
d="M791 1102q272 0 444 -146q170 -144 170 -383q0 -253 -191 -426q-191 -170 -481 -170q-272 0 -444 146q-170 144 -170 383q0 255 190 424q190 172 482 172zM780 834q-152 0 -248 -93t-96 -227q0 -122 85.5 -196t221.5 -74q153 0 248 92q96 93 96 227q0 122 -85.5 196.5
t-221.5 74.5zM977 1167h-287l246 303h426z" />
    <glyph glyph-name="ocircumflex" unicode="&#xf4;" horiz-adv-x="1374" 
d="M791 1102q272 0 444 -146q170 -144 170 -383q0 -253 -191 -426q-191 -170 -481 -170q-272 0 -444 146q-170 144 -170 383q0 255 190 424q190 172 482 172zM780 834q-152 0 -248 -93t-96 -227q0 -122 85.5 -196t221.5 -74q153 0 248 92q96 93 96 227q0 122 -85.5 196.5
t-221.5 74.5zM734 1470h319l225 -303h-235l-164 111l-197 -111h-260z" />
    <glyph glyph-name="otilde" unicode="&#xf5;" horiz-adv-x="1374" 
d="M791 1102q272 0 444 -146q170 -144 170 -383q0 -253 -191 -426q-191 -170 -481 -170q-272 0 -444 146q-170 144 -170 383q0 255 190 424q190 172 482 172zM780 834q-152 0 -248 -93t-96 -227q0 -122 85.5 -196t221.5 -74q153 0 248 92q96 93 96 227q0 122 -85.5 196.5
t-221.5 74.5zM723 1489q72 0 174 -55q77 -43 119 -43q65 0 92 98h199q-26 -154 -99 -238t-182 -84q-41 0 -78.5 12t-99.5 44q-69 41 -115 41q-68 0 -94 -97h-196q25 153 98.5 237.5t181.5 84.5z" />
    <glyph glyph-name="odieresis" unicode="&#xf6;" horiz-adv-x="1374" 
d="M791 1102q272 0 444 -146q170 -144 170 -383q0 -253 -191 -426q-191 -170 -481 -170q-272 0 -444 146q-170 144 -170 383q0 255 190 424q190 172 482 172zM780 834q-152 0 -248 -93t-96 -227q0 -122 85.5 -196t221.5 -74q153 0 248 92q96 93 96 227q0 122 -85.5 196.5
t-221.5 74.5zM768 1190h-330l39 280h328zM1270 1190h-328l39 280h328z" />
    <glyph glyph-name="divide" unicode="&#xf7;" 
d="M1133 1047h-336l45 321h336zM1602 590h-1399l37 276h1400zM997 88h-335l47 324h333z" />
    <glyph glyph-name="oslash" unicode="&#xf8;" horiz-adv-x="1372" 
d="M119 506q0 255 190 424q190 172 482 172q212 0 368 -92l156 135l145 -160l-141 -123q86 -124 86 -289q0 -253 -191 -426q-191 -170 -481 -170q-207 0 -371 93l-153 -136l-143 162l139 121q-86 124 -86 289zM780 846q-153 0 -254 -96q-98 -94 -98 -236q0 -63 23 -113
l481 416q-76 29 -152 29zM743 233q154 0 254 95q99 95 99 235q0 59 -21 111l-481 -412q69 -29 149 -29z" />
    <glyph glyph-name="ugrave" unicode="&#xf9;" horiz-adv-x="1376" 
d="M1098 1079h327l-151 -1079h-328l21 129q-149 -152 -375 -152q-222 0 -342 138q-118 136 -88 360l84 604h327l-73 -530q-20 -137 38 -214t185 -77q123 0 203 79t100 220zM848 1470l162 -303h-258l-301 303h397z" />
    <glyph glyph-name="uacute" unicode="&#xfa;" horiz-adv-x="1376" 
d="M1098 1079h327l-151 -1079h-328l21 129q-149 -152 -375 -152q-222 0 -342 138q-118 136 -88 360l84 604h327l-73 -530q-20 -137 38 -214t185 -77q123 0 203 79t100 220zM971 1167h-287l246 303h426z" />
    <glyph glyph-name="ucircumflex" unicode="&#xfb;" horiz-adv-x="1376" 
d="M1098 1079h327l-151 -1079h-328l21 129q-149 -152 -375 -152q-222 0 -342 138q-118 136 -88 360l84 604h327l-73 -530q-20 -137 38 -214t185 -77q123 0 203 79t100 220zM734 1470h319l225 -303h-235l-164 111l-197 -111h-260z" />
    <glyph glyph-name="udieresis" unicode="&#xfc;" horiz-adv-x="1376" 
d="M1098 1079h327l-151 -1079h-328l21 129q-149 -152 -375 -152q-222 0 -342 138q-118 136 -88 360l84 604h327l-73 -530q-20 -137 38 -214t185 -77q123 0 203 79t100 220zM768 1190h-330l39 280h328zM1270 1190h-328l39 280h328z" />
    <glyph glyph-name="yacute" unicode="&#xfd;" horiz-adv-x="1378" 
d="M1538 1079l-715 -1130q-120 -191 -223 -260q-101 -70 -266 -70q-155 0 -279 51l84 250q86 -39 170 -39q55 0 93 24t75 81l29 47l-363 1046h355l231 -733l451 733h358zM979 1167h-287l246 303h426z" />
    <glyph glyph-name="thorn" unicode="&#xfe;" horiz-adv-x="1445" 
d="M852 -23q-122 0 -226 41t-177 117l-70 -495h-328l256 1830h328l-72 -509q66 66 164.5 103.5t210.5 37.5q237 0 389 -146t152 -372q0 -254 -179 -430q-180 -177 -448 -177zM1159 565q0 121 -87.5 197t-227.5 76q-151 0 -254 -95q-101 -91 -101 -229q0 -121 88 -196.5
t228 -75.5q151 0 254 92q100 93 100 231z" />
    <glyph glyph-name="ydieresis" unicode="&#xff;" horiz-adv-x="1378" 
d="M1538 1079l-715 -1130q-120 -191 -223 -260q-101 -70 -266 -70q-155 0 -279 51l84 250q86 -39 170 -39q55 0 93 24t75 81l29 47l-363 1046h355l231 -733l451 733h358zM772 1190h-329l39 280h327zM1274 1190h-328l39 280h328z" />
    <glyph glyph-name="Amacron" unicode="&#x100;" horiz-adv-x="1822" 
d="M-16 0l956 1470h387l510 -1470h-356l-107 315h-813l-203 -315h-374zM1278 598l-184 541l-349 -541h533zM1573 1810l-33 -247h-817l35 247h815z" />
    <glyph glyph-name="amacron" unicode="&#x101;" horiz-adv-x="1378" 
d="M971 123q-183 -146 -443 -146q-203 0 -324.5 86t-121.5 232q0 148 123 241t346 113l457 41l2 15q8 63 -54.5 101t-177.5 38q-111 0 -190.5 -38t-116.5 -108l-283 80q69 154 229.5 239t383.5 85q266 0 407 -111q142 -109 115 -297l-55 -393q-6 -46 24 -61q15 -9 39 -9
q37 4 68 11l-33 -242q-68 -12 -127 -12q-67 0 -129 16q-103 33 -139 119zM598 217q147 0 254 55q108 59 117 140l8 61l-391 -41q-183 -21 -183 -113q0 -49 51 -75.5t144 -26.5zM1241 1438l-33 -244h-757l34 244h756z" />
    <glyph glyph-name="Abreve" unicode="&#x102;" horiz-adv-x="1822" 
d="M-16 0l956 1470h387l510 -1470h-356l-107 315h-813l-203 -315h-374zM1278 598l-184 541l-349 -541h533zM1167 1757q79 0 131 31t58 82h237q-20 -156 -135 -243t-305 -87q-194 0 -302.5 91t-94.5 239h235q-6 -49 44 -81t132 -32z" />
    <glyph glyph-name="abreve" unicode="&#x103;" horiz-adv-x="1378" 
d="M971 123q-183 -146 -443 -146q-203 0 -324.5 86t-121.5 232q0 148 123 241t346 113l457 41l2 15q8 63 -54.5 101t-177.5 38q-111 0 -190.5 -38t-116.5 -108l-283 80q69 154 229.5 239t383.5 85q266 0 407 -111q142 -109 115 -297l-55 -393q-6 -46 24 -61q15 -9 39 -9
q37 4 68 11l-33 -242q-68 -12 -127 -12q-67 0 -129 16q-103 33 -139 119zM598 217q147 0 254 55q108 59 117 140l8 61l-391 -41q-183 -21 -183 -113q0 -49 51 -75.5t144 -26.5zM889 1368q155 0 180 102h221q-20 -152 -127 -230.5t-290 -76.5q-192 0 -290 82t-79 225h221
q0 -49 42 -75.5t122 -26.5z" />
    <glyph glyph-name="Aogonek" unicode="&#x104;" horiz-adv-x="1822" 
d="M1470 -375q-124 0 -199 50t-75 132t67.5 148.5t194.5 107.5l-84 252h-813l-203 -315h-374l956 1470h387l510 -1470h-174q-130 -31 -188 -60.5t-58 -66.5q0 -59 113 -59q46 0 108 16l-26 -186q-66 -19 -142 -19zM1278 598l-184 541l-349 -541h533z" />
    <glyph glyph-name="aogonek" unicode="&#x105;" horiz-adv-x="1378" 
d="M971 123q-183 -146 -443 -146q-203 0 -324.5 86t-121.5 232q0 148 123 241t346 113l457 41l2 15q8 63 -54.5 101t-177.5 38q-111 0 -190.5 -38t-116.5 -108l-283 80q69 154 229.5 239t383.5 85q266 0 407 -111q142 -109 115 -297l-55 -393q-6 -46 24 -61q15 -9 39 -9
q37 4 68 11l-33 -242q-130 -31 -188 -60.5t-58 -66.5q0 -59 113 -59q46 0 108 16l-26 -186q-67 -19 -141 -19q-124 0 -199.5 50t-75.5 132q0 63 42.5 119t121.5 97q-69 40 -92 100zM598 217q147 0 254 55q108 59 117 140l8 61l-391 -41q-183 -21 -183 -113q0 -49 51 -75.5
t144 -26.5z" />
    <glyph glyph-name="Cacute" unicode="&#x106;" horiz-adv-x="1714" 
d="M1044 1196q-239 0 -395 -141q-153 -138 -153 -353q0 -190 139 -311q138 -117 358 -117q168 0 297.5 79t198.5 225l285 -158q-106 -209 -316.5 -326t-480.5 -117q-365 0 -600 197q-232 200 -232 510q0 172 75 326.5t214 269.5q125 103 288 158t347 55q293 0 502 -129
q212 -129 264 -340l-315 -145q-41 152 -165.5 234.5t-310.5 82.5zM1266 1550h-308l273 320h469z" />
    <glyph glyph-name="cacute" unicode="&#x107;" horiz-adv-x="1290" 
d="M776 831q-149 0 -244 -92q-96 -90 -96 -225q0 -121 84.5 -195.5t220.5 -74.5q110 0 194.5 54t121.5 148l268 -124q-69 -165 -224.5 -255t-371.5 -90q-268 0 -440 146q-170 147 -170 381q0 257 190 426q190 172 484 172q220 0 378 -103q159 -104 199 -264l-295 -117
q-19 95 -101 154t-198 59zM967 1167h-287l246 303h426z" />
    <glyph glyph-name="Ccircumflex" unicode="&#x108;" horiz-adv-x="1714" 
d="M1044 1196q-239 0 -395 -141q-153 -138 -153 -353q0 -190 139 -311q138 -117 358 -117q168 0 297.5 79t198.5 225l285 -158q-106 -209 -316.5 -326t-480.5 -117q-365 0 -600 197q-232 200 -232 510q0 172 75 326.5t214 269.5q125 103 288 158t347 55q293 0 502 -129
q212 -129 264 -340l-315 -145q-41 152 -165.5 234.5t-310.5 82.5zM999 1870h349l249 -320h-247l-191 131l-227 -131h-270z" />
    <glyph glyph-name="ccircumflex" unicode="&#x109;" horiz-adv-x="1290" 
d="M776 831q-149 0 -244 -92q-96 -90 -96 -225q0 -121 84.5 -195.5t220.5 -74.5q110 0 194.5 54t121.5 148l268 -124q-69 -165 -224.5 -255t-371.5 -90q-268 0 -440 146q-170 147 -170 381q0 257 190 426q190 172 484 172q220 0 378 -103q159 -104 199 -264l-295 -117
q-19 95 -101 154t-198 59zM730 1470h319l225 -303h-235l-164 111l-197 -111h-260z" />
    <glyph glyph-name="Cdotaccent" unicode="&#x10a;" horiz-adv-x="1714" 
d="M1044 1196q-239 0 -395 -141q-153 -138 -153 -353q0 -190 139 -311q138 -117 358 -117q168 0 297.5 79t198.5 225l285 -158q-106 -209 -316.5 -326t-480.5 -117q-365 0 -600 197q-232 200 -232 510q0 172 75 326.5t214 269.5q125 103 288 158t347 55q293 0 502 -129
q212 -129 264 -340l-315 -145q-41 152 -165.5 234.5t-310.5 82.5zM1294 1550h-350l41 289h350z" />
    <glyph glyph-name="cdotaccent" unicode="&#x10b;" horiz-adv-x="1290" 
d="M776 831q-149 0 -244 -92q-96 -90 -96 -225q0 -121 84.5 -195.5t220.5 -74.5q110 0 194.5 54t121.5 148l268 -124q-69 -165 -224.5 -255t-371.5 -90q-268 0 -440 146q-170 147 -170 381q0 257 190 426q190 172 484 172q220 0 378 -103q159 -104 199 -264l-295 -117
q-19 95 -101 154t-198 59zM1016 1190h-332l39 280h332z" />
    <glyph glyph-name="Ccaron" unicode="&#x10c;" horiz-adv-x="1714" 
d="M1044 1196q-239 0 -395 -141q-153 -138 -153 -353q0 -190 139 -311q138 -117 358 -117q168 0 297.5 79t198.5 225l285 -158q-106 -209 -316.5 -326t-480.5 -117q-365 0 -600 197q-232 200 -232 510q0 172 75 326.5t214 269.5q125 103 288 158t347 55q293 0 502 -129
q212 -129 264 -340l-315 -145q-41 152 -165.5 234.5t-310.5 82.5zM1640 1870l-335 -318h-351l-247 318h247l191 -131l227 131h268z" />
    <glyph glyph-name="ccaron" unicode="&#x10d;" horiz-adv-x="1290" 
d="M776 831q-149 0 -244 -92q-96 -90 -96 -225q0 -121 84.5 -195.5t220.5 -74.5q110 0 194.5 54t121.5 148l268 -124q-69 -165 -224.5 -255t-371.5 -90q-268 0 -440 146q-170 147 -170 381q0 257 190 426q190 172 484 172q220 0 378 -103q159 -104 199 -264l-295 -117
q-19 95 -101 154t-198 59zM1319 1470l-309 -303h-322l-225 303h237l162 -110l197 110h260z" />
    <glyph glyph-name="Dcaron" unicode="&#x10e;" horiz-adv-x="1771" 
d="M915 0h-798l207 1470h723q351 0 567 -192q217 -190 217 -492q0 -171 -74 -323.5t-209 -261.5q-252 -201 -633 -201zM616 1182l-124 -893h438q245 0 401 135q156 138 156 344q0 185 -129 299q-127 115 -342 115h-400zM1540 1870l-336 -318h-350l-248 318h248l190 -131
l228 131h268z" />
    <glyph glyph-name="dcaron" unicode="&#x10f;" horiz-adv-x="1443" 
d="M659 -23q-239 0 -391 146q-149 143 -149 373q0 255 178 430q179 176 448 176q122 0 226 -41t178 -117l74 526h327l-207 -1470h-327l18 119q-67 -67 -165.5 -104.5t-209.5 -37.5zM754 242q149 0 252 92q102 94 102 231q0 121 -88 197t-229 76q-151 0 -254 -95
q-101 -91 -101 -229q0 -121 89 -196.5t229 -75.5zM1810 1126h-221l97 344h350z" />
    <glyph glyph-name="Dcroat" unicode="&#x110;" horiz-adv-x="1853" 
d="M997 0h-798l86 606h-187l41 289h185l82 575h722q352 0 568 -192q217 -190 217 -492q0 -171 -74 -323.5t-209 -261.5q-252 -201 -633 -201zM618 606l-45 -317h439q245 0 401 135q156 138 156 344q0 185 -129 299q-127 115 -342 115h-400l-41 -287h326l-41 -289h-324z" />
    <glyph glyph-name="dslash" unicode="&#x111;" horiz-adv-x="1511" 
d="M745 1102q122 0 226 -41t178 -117l29 209h-279l31 219h278l15 98h327l-14 -98h143l-30 -219h-144l-162 -1153h-327l18 119q-67 -67 -165.5 -104.5t-209.5 -37.5q-239 0 -391 146q-149 143 -149 373q0 255 178 430q179 176 448 176zM436 514q0 -121 89 -196.5t229 -75.5
q149 0 252 92q102 94 102 231q0 121 -88 197t-229 76q-151 0 -254 -95q-101 -91 -101 -229z" />
    <glyph glyph-name="Emacron" unicode="&#x112;" horiz-adv-x="1601" 
d="M117 0l207 1470h1425l-41 -292h-1090l-38 -283h972l-41 -289h-972l-45 -313h1091l-43 -293h-1425zM1487 1810l-33 -247h-817l35 247h815z" />
    <glyph glyph-name="emacron" unicode="&#x113;" horiz-adv-x="1347" 
d="M745 236q105 0 187 44t125 123l278 -112q-80 -148 -239 -231t-365 -83q-263 0 -440 148q-172 150 -172 379q0 254 190 426q193 172 484 172q264 0 428 -141q163 -141 163 -365q0 -75 -14 -141h-936q20 -100 105 -159.5t206 -59.5zM776 848q-106 0 -191 -51.5t-126 -141.5
h608q-11 85 -90.5 139t-200.5 54zM1260 1438l-33 -244h-758l35 244h756z" />
    <glyph glyph-name="Ebreve" unicode="&#x114;" horiz-adv-x="1601" 
d="M117 0l207 1470h1425l-41 -292h-1090l-38 -283h972l-41 -289h-972l-45 -313h1091l-43 -293h-1425zM1081 1757q79 0 131 31t58 82h237q-20 -156 -135 -243t-305 -87q-194 0 -302.5 91t-94.5 239h235q-6 -49 44 -81t132 -32z" />
    <glyph glyph-name="ebreve" unicode="&#x115;" horiz-adv-x="1347" 
d="M745 236q105 0 187 44t125 123l278 -112q-80 -148 -239 -231t-365 -83q-263 0 -440 148q-172 150 -172 379q0 254 190 426q193 172 484 172q264 0 428 -141q163 -141 163 -365q0 -75 -14 -141h-936q20 -100 105 -159.5t206 -59.5zM776 848q-106 0 -191 -51.5t-126 -141.5
h608q-11 85 -90.5 139t-200.5 54zM881 1368q155 0 180 102h221q-20 -152 -127 -230.5t-290 -76.5q-192 0 -290 82t-79 225h221q0 -49 42 -75.5t122 -26.5z" />
    <glyph glyph-name="Edotaccent" unicode="&#x116;" horiz-adv-x="1601" 
d="M117 0l207 1470h1425l-41 -292h-1090l-38 -283h972l-41 -289h-972l-45 -313h1091l-43 -293h-1425zM1219 1550h-351l41 289h351z" />
    <glyph glyph-name="edotaccent" unicode="&#x117;" horiz-adv-x="1347" 
d="M745 236q105 0 187 44t125 123l278 -112q-80 -148 -239 -231t-365 -83q-263 0 -440 148q-172 150 -172 379q0 254 190 426q193 172 484 172q264 0 428 -141q163 -141 163 -365q0 -75 -14 -141h-936q20 -100 105 -159.5t206 -59.5zM776 848q-106 0 -191 -51.5t-126 -141.5
h608q-11 85 -90.5 139t-200.5 54zM1009 1190h-332l39 280h332z" />
    <glyph glyph-name="Eogonek" unicode="&#x118;" horiz-adv-x="1601" 
d="M1198 -375q-124 0 -199 50t-75 132q0 115 125 193h-932l207 1470h1425l-41 -292h-1090l-38 -283h972l-41 -289h-972l-45 -313h1091l-43 -293h-151q-130 -31 -188 -60.5t-58 -66.5q0 -59 112 -59q47 0 109 16l-27 -186q-67 -19 -141 -19z" />
    <glyph glyph-name="eogonek" unicode="&#x119;" horiz-adv-x="1347" 
d="M1055 -170l-27 -186q-66 -19 -141 -19q-125 0 -200 54t-75 145q0 83 70 153q-252 12 -410 158q-153 144 -153 371q0 258 186 426q188 170 477 170q279 0 451 -158q168 -155 147 -397q0 -3 -2 -21t-4.5 -40t-3.5 -31h-936q20 -100 101.5 -158.5t199.5 -58.5
q104 0 186.5 43.5t125.5 121.5l278 -112q-100 -185 -328 -268q-163 -59 -163 -136q0 -73 112 -73q47 0 109 16zM772 848q-106 0 -190 -51t-125 -142h610q-12 81 -96.5 137t-198.5 56z" />
    <glyph glyph-name="Ecaron" unicode="&#x11a;" horiz-adv-x="1601" 
d="M117 0l207 1470h1425l-41 -292h-1090l-38 -283h972l-41 -289h-972l-45 -313h1091l-43 -293h-1425zM1554 1870l-335 -318h-351l-247 318h247l191 -131l227 131h268z" />
    <glyph glyph-name="ecaron" unicode="&#x11b;" horiz-adv-x="1347" 
d="M745 236q105 0 187 44t125 123l278 -112q-80 -148 -239 -231t-365 -83q-263 0 -440 148q-172 150 -172 379q0 254 190 426q193 172 484 172q264 0 428 -141q163 -141 163 -365q0 -75 -14 -141h-936q20 -100 105 -159.5t206 -59.5zM776 848q-106 0 -191 -51.5t-126 -141.5
h608q-11 85 -90.5 139t-200.5 54zM1317 1470l-309 -303h-322l-225 303h237l162 -110l197 110h260z" />
    <glyph glyph-name="Gcircumflex" unicode="&#x11c;" horiz-adv-x="1841" 
d="M1755 0h-317l20 145q-183 -168 -489 -168q-362 0 -592 199q-232 200 -232 508q0 171 77 326.5t218 271.5q262 211 641 211q297 0 516 -127q221 -128 279 -336l-322 -125q-41 135 -174 214t-319 79q-249 0 -406 -139t-157 -354q0 -200 137 -316q138 -117 369 -117
q180 0 315 72t182 195h-620l37 278h950zM1028 1870h348l250 -320h-248l-190 131l-227 -131h-271z" />
    <glyph glyph-name="gcircumflex" unicode="&#x11d;" horiz-adv-x="1437" 
d="M1495 1079l-133 -940q-35 -244 -223 -383q-189 -139 -488 -139q-223 0 -388 75t-222 202l227 161q51 -88 156 -137t242 -49q160 0 252.5 65.5t111.5 192.5l6 37q-62 -68 -157.5 -104.5t-210.5 -36.5q-244 0 -396 137q-151 139 -151 360q0 244 176 414q174 168 442 168
q128 0 234.5 -41t175.5 -119l18 137h328zM756 276q145 0 248 89q100 87 100 219q0 117 -86.5 189.5t-226.5 72.5q-146 0 -250 -90q-101 -88 -101 -219q0 -115 88 -188t228 -73zM756 1470h319l225 -303h-235l-164 111l-196 -111h-261z" />
    <glyph glyph-name="Gbreve" unicode="&#x11e;" horiz-adv-x="1841" 
d="M1755 0h-317l20 145q-183 -168 -489 -168q-362 0 -592 199q-232 200 -232 508q0 171 77 326.5t218 271.5q262 211 641 211q297 0 516 -127q221 -128 279 -336l-322 -125q-41 135 -174 214t-319 79q-249 0 -406 -139t-157 -354q0 -200 137 -316q138 -117 369 -117
q180 0 315 72t182 195h-620l37 278h950zM1196 1757q79 0 130.5 31t57.5 82h238q-20 -156 -135 -243t-305 -87q-194 0 -303 91t-95 239h236q-6 -49 44 -81t132 -32z" />
    <glyph glyph-name="gbreve" unicode="&#x11f;" horiz-adv-x="1437" 
d="M1495 1079l-133 -940q-35 -244 -223 -383q-189 -139 -488 -139q-223 0 -388 75t-222 202l227 161q51 -88 156 -137t242 -49q160 0 252.5 65.5t111.5 192.5l6 37q-62 -68 -157.5 -104.5t-210.5 -36.5q-244 0 -396 137q-151 139 -151 360q0 244 176 414q174 168 442 168
q128 0 234.5 -41t175.5 -119l18 137h328zM756 276q145 0 248 89q100 87 100 219q0 117 -86.5 189.5t-226.5 72.5q-146 0 -250 -90q-101 -88 -101 -219q0 -115 88 -188t228 -73zM909 1368q79 0 123.5 24.5t57.5 77.5h221q-20 -152 -127.5 -230.5t-290.5 -76.5q-192 0 -290 82
t-79 225h221q0 -49 42 -75.5t122 -26.5z" />
    <glyph glyph-name="Gdotaccent" unicode="&#x120;" horiz-adv-x="1841" 
d="M1755 0h-317l20 145q-183 -168 -489 -168q-362 0 -592 199q-232 200 -232 508q0 171 77 326.5t218 271.5q262 211 641 211q297 0 516 -127q221 -128 279 -336l-322 -125q-41 135 -174 214t-319 79q-249 0 -406 -139t-157 -354q0 -200 137 -316q138 -117 369 -117
q180 0 315 72t182 195h-620l37 278h950zM1325 1550h-350l41 289h350z" />
    <glyph glyph-name="gdotaccent" unicode="&#x121;" horiz-adv-x="1437" 
d="M1495 1079l-133 -940q-35 -244 -223 -383q-189 -139 -488 -139q-223 0 -388 75t-222 202l227 161q51 -88 156 -137t242 -49q160 0 252.5 65.5t111.5 192.5l6 37q-62 -68 -157.5 -104.5t-210.5 -36.5q-244 0 -396 137q-151 139 -151 360q0 244 176 414q174 168 442 168
q128 0 234.5 -41t175.5 -119l18 137h328zM756 276q145 0 248 89q100 87 100 219q0 117 -86.5 189.5t-226.5 72.5q-146 0 -250 -90q-101 -88 -101 -219q0 -115 88 -188t228 -73zM1055 1190h-332l39 280h332z" />
    <glyph glyph-name="Gcommaaccent" unicode="&#x122;" horiz-adv-x="1841" 
d="M1755 0h-317l20 145q-183 -168 -489 -168q-362 0 -592 199q-232 200 -232 508q0 171 77 326.5t218 271.5q262 211 641 211q297 0 516 -127q221 -128 279 -336l-322 -125q-41 135 -174 214t-319 79q-249 0 -406 -139t-157 -354q0 -200 137 -316q138 -117 369 -117
q180 0 315 72t182 195h-620l37 278h950zM823 -252h-114l24 184h328l-17 -112q-38 -258 -364 -258l18 121q112 0 125 65z" />
    <glyph glyph-name="gcommaaccent" unicode="&#x123;" horiz-adv-x="1437" 
d="M1495 1079l-133 -940q-35 -244 -223 -383q-189 -139 -488 -139q-223 0 -388 75t-222 202l227 161q51 -88 156 -137t242 -49q160 0 252.5 65.5t111.5 192.5l6 37q-62 -68 -157.5 -104.5t-210.5 -36.5q-244 0 -396 137q-151 139 -151 360q0 244 176 414q174 168 442 168
q128 0 234.5 -41t175.5 -119l18 137h328zM756 276q145 0 248 89q100 87 100 219q0 117 -86.5 189.5t-226.5 72.5q-146 0 -250 -90q-101 -88 -101 -219q0 -115 88 -188t228 -73zM954 1352h115l-25 -185h-327l16 113q37 258 365 258l-19 -121q-112 0 -125 -65z" />
    <glyph glyph-name="Hcircumflex" unicode="&#x124;" horiz-adv-x="1806" 
d="M1475 897l79 573h342l-206 -1470h-342l86 606h-889l-86 -606h-342l207 1470h342l-82 -573h891zM979 1870h348l250 -320h-248l-190 131l-228 -131h-270z" />
    <glyph glyph-name="hcircumflex" unicode="&#x125;" horiz-adv-x="1386" 
d="M428 0h-328l207 1470h328l-72 -520q149 152 377 152q223 0 344 -139q122 -137 92 -359l-84 -604h-327l71 518q19 137 -41.5 215t-187.5 78t-206.5 -77.5t-98.5 -217.5zM766 1870h348l250 -320h-248l-190 131l-228 -131h-270z" />
    <glyph glyph-name="Hbar" unicode="&#x126;" horiz-adv-x="1921" 
d="M2091 1221l-41 -285h-172l-131 -936h-342l65 453h-890l-64 -453h-342l131 936h-164l41 285h164l35 249h342l-35 -249h889l35 249h342l-35 -249h172zM647 936l-29 -199h891l29 199h-891z" />
    <glyph glyph-name="hbar" unicode="&#x127;" horiz-adv-x="1452" 
d="M494 0h-328l162 1153h-140l31 221h139l15 96h327l-12 -96h318l-31 -221h-318l-28 -203q149 152 377 152q223 0 344 -139q122 -137 92 -359l-84 -604h-328l72 518q19 137 -42 215t-188 78t-206.5 -77.5t-98.5 -217.5z" />
    <glyph glyph-name="Itilde" unicode="&#x128;" horiz-adv-x="575" 
d="M324 1470h342l-207 -1470h-342zM340 1905q51 0 99 -13t126 -49q93 -43 133 -43q38 0 63 24.5t42 80.5h217q-26 -166 -106 -259.5t-195 -93.5q-51 0 -99 13t-126 49q-93 43 -134 43q-78 0 -104 -105h-217q26 165 106 259t195 94z" />
    <glyph glyph-name="itilde" unicode="&#x129;" horiz-adv-x="530" 
d="M252 1079h328l-152 -1079h-328zM299 1489q72 0 174 -55q77 -43 119 -43q65 0 92 98h199q-26 -154 -99 -238t-182 -84q-41 0 -78.5 12t-99.5 44q-69 41 -115 41q-68 0 -94 -97h-196q25 153 98.5 237.5t181.5 84.5z" />
    <glyph glyph-name="Imacron" unicode="&#x12a;" horiz-adv-x="575" 
d="M324 1470h342l-207 -1470h-342zM948 1810l-33 -247h-817l35 247h815z" />
    <glyph glyph-name="imacron" unicode="&#x12b;" horiz-adv-x="530" 
d="M252 1079h328l-152 -1079h-328zM844 1438l-33 -244h-758l35 244h756z" />
    <glyph glyph-name="Ibreve" unicode="&#x12c;" horiz-adv-x="575" 
d="M324 1470h342l-207 -1470h-342zM543 1757q79 0 130.5 31t57.5 82h238q-20 -156 -135.5 -243t-305.5 -87q-194 0 -302.5 91t-94.5 239h236q-6 -49 44 -81t132 -32z" />
    <glyph glyph-name="ibreve" unicode="&#x12d;" horiz-adv-x="530" 
d="M252 1079h328l-152 -1079h-328zM463 1368q155 0 180 102h221q-20 -152 -127 -230.5t-290 -76.5q-192 0 -290 82t-79 225h221q0 -49 42 -75.5t122 -26.5z" />
    <glyph glyph-name="Iogonek" unicode="&#x12e;" horiz-adv-x="575" 
d="M266 -375q-124 0 -199 50t-75 132q0 115 125 193l207 1470h342l-207 -1470q-130 -31 -188 -60.5t-58 -66.5q0 -59 113 -59q46 0 108 16l-26 -186q-67 -19 -142 -19z" />
    <glyph glyph-name="iogonek" unicode="&#x12f;" horiz-adv-x="530" 
d="M598 1190h-332l39 280h332zM238 -375q-124 0 -199.5 50t-75.5 132q0 116 139 201l150 1071h328l-152 -1077l2 -2q-130 -31 -188 -60.5t-58 -66.5q0 -59 113 -59q47 0 109 16l-27 -186q-67 -19 -141 -19z" />
    <glyph glyph-name="Idot" unicode="&#x130;" horiz-adv-x="575" 
d="M324 1470h342l-207 -1470h-342zM680 1550h-350l41 289h350z" />
    <glyph glyph-name="dotlessi" unicode="&#x131;" horiz-adv-x="530" 
d="M252 1079h328l-152 -1079h-328z" />
    <glyph glyph-name="Jcircumflex" unicode="&#x134;" horiz-adv-x="1495" 
d="M764 -23q-268 0 -461 117q-194 120 -246 309l312 172q27 -134 139 -217q113 -82 268 -82q154 0 256.5 86.5t122.5 235.5l121 872h342l-125 -897q-41 -282 -232 -439t-497 -157zM1325 1870h348l250 -320h-248l-190 131l-228 -131h-270z" />
    <glyph glyph-name="jcircumflex" unicode="&#x135;" horiz-adv-x="530" 
d="M-86 -125q90 0 135 40t57 128l146 1036h328l-146 -1046q-31 -214 -147.5 -314t-333.5 -100q-154 0 -287 45l78 238q86 -27 170 -27zM311 1470h320l225 -303h-235l-164 111l-197 -111h-260z" />
    <glyph glyph-name="Kcommaaccent" unicode="&#x136;" horiz-adv-x="1720" 
d="M324 1470h342l-93 -659l848 659h486l-803 -614l645 -856h-420l-493 651l-320 -245l-57 -406h-342zM780 -252h-114l24 184h328l-17 -112q-37 -258 -364 -258l18 121q112 0 125 65z" />
    <glyph glyph-name="kcommaaccent" unicode="&#x137;" horiz-adv-x="1386" 
d="M307 1470h328l-119 -841l584 450h452l-598 -450l461 -629h-393l-324 436l-233 -176l-37 -260h-328zM633 -252h-115l25 184h327l-16 -112q-38 -258 -365 -258l19 121q112 0 125 65z" />
    <glyph glyph-name="kgreenlandic" unicode="&#x138;" horiz-adv-x="1386" 
d="M254 1079h328l-64 -448l580 448h454l-598 -450l461 -629h-393l-324 434l-233 -176l-37 -258h-328z" />
    <glyph glyph-name="Lacute" unicode="&#x139;" horiz-adv-x="1495" 
d="M1452 0h-1335l207 1470h342l-166 -1177h995zM655 1550h-307l273 320h469z" />
    <glyph glyph-name="lacute" unicode="&#x13a;" horiz-adv-x="530" 
d="M307 1470h328l-207 -1470h-328zM635 1550h-307l272 320h469z" />
    <glyph glyph-name="Lcommaaccent" unicode="&#x13b;" horiz-adv-x="1495" 
d="M1452 0h-1335l207 1470h342l-166 -1177h995zM545 -252h-115l25 184h327l-16 -112q-38 -258 -365 -258l19 121q112 0 125 65z" />
    <glyph glyph-name="lcommaaccent" unicode="&#x13c;" horiz-adv-x="530" 
d="M307 1470h328l-207 -1470h-328zM182 -252h-114l24 184h328l-17 -112q-37 -258 -364 -258l18 121q112 0 125 65z" />
    <glyph glyph-name="Lcaron" unicode="&#x13d;" horiz-adv-x="1495" 
d="M1452 0h-1335l207 1470h342l-166 -1177h995zM1044 1126h-221l97 344h350z" />
    <glyph glyph-name="lcaron" unicode="&#x13e;" horiz-adv-x="528" 
d="M307 1470h328l-207 -1470h-328zM895 1126h-221l96 344h350z" />
    <glyph glyph-name="Ldot" unicode="&#x13f;" horiz-adv-x="1495" 
d="M1452 0h-1335l207 1470h342l-166 -1177h995zM1339 627h-331l39 280h331z" />
    <glyph glyph-name="ldot" unicode="&#x140;" horiz-adv-x="899" 
d="M307 1470h328l-207 -1470h-328zM961 602h-332l39 281h331z" />
    <glyph glyph-name="Lslash" unicode="&#x141;" horiz-adv-x="1558" 
d="M1522 0h-1336l66 461l-201 -74l43 301l199 74l100 708h342l-84 -598l459 164l-43 -303l-459 -162l-39 -278h996z" />
    <glyph glyph-name="lslash" unicode="&#x142;" horiz-adv-x="747" 
d="M893 1098l-43 -303l-215 -101l-98 -694h-328l78 547l-211 -101l43 304l209 98l88 622h327l-67 -477z" />
    <glyph glyph-name="Nacute" unicode="&#x143;" horiz-adv-x="1783" 
d="M1542 1470h332l-207 -1470h-299l-774 1044l-145 -1044h-332l207 1470h342l737 -993zM1221 1550h-308l273 320h469z" />
    <glyph glyph-name="nacute" unicode="&#x144;" horiz-adv-x="1386" 
d="M428 0h-328l152 1079h328l-19 -129q149 152 379 152q223 0 344 -139q122 -137 92 -359l-84 -604h-327l71 518q19 137 -41.5 215t-187.5 78t-206.5 -77.5t-98.5 -217.5zM995 1167h-287l246 303h426z" />
    <glyph glyph-name="Ncommaaccent" unicode="&#x145;" horiz-adv-x="1783" 
d="M1542 1470h332l-207 -1470h-299l-774 1044l-145 -1044h-332l207 1470h342l737 -993zM803 -252h-115l25 184h327l-16 -112q-38 -258 -365 -258l19 121q112 0 125 65z" />
    <glyph glyph-name="ncommaaccent" unicode="&#x146;" horiz-adv-x="1386" 
d="M428 0h-328l152 1079h328l-19 -129q149 152 379 152q223 0 344 -139q122 -137 92 -359l-84 -604h-327l71 518q19 137 -41.5 215t-187.5 78t-206.5 -77.5t-98.5 -217.5zM614 -252h-114l24 184h328l-16 -112q-38 -258 -365 -258l18 121q112 0 125 65z" />
    <glyph glyph-name="Ncaron" unicode="&#x147;" horiz-adv-x="1783" 
d="M1542 1470h332l-207 -1470h-299l-774 1044l-145 -1044h-332l207 1470h342l737 -993zM1614 1870l-336 -318h-350l-248 318h248l190 -131l228 131h268z" />
    <glyph glyph-name="ncaron" unicode="&#x148;" horiz-adv-x="1386" 
d="M428 0h-328l152 1079h328l-19 -129q149 152 379 152q223 0 344 -139q122 -137 92 -359l-84 -604h-327l71 518q19 137 -41.5 215t-187.5 78t-206.5 -77.5t-98.5 -217.5zM1339 1470l-309 -303h-321l-226 303h238l162 -110l196 110h260z" />
    <glyph glyph-name="Eng" unicode="&#x14a;" horiz-adv-x="1783" 
d="M1405 481l137 989h332l-203 -1437q-31 -214 -146.5 -314t-334.5 -100q-149 0 -287 41l80 246q100 -27 176 -27q86 0 128 35t54 115l2 14l-749 1001l-145 -1044h-332l207 1470h340z" />
    <glyph glyph-name="eng" unicode="&#x14b;" horiz-adv-x="1390" 
d="M940 1102q223 0 344 -139q122 -137 92 -359l-80 -571q-31 -214 -147.5 -314t-333.5 -100q-151 0 -289 41l80 246q96 -27 176 -27q91 0 133 38t56 130l65 471q19 137 -41.5 215t-187.5 78t-206.5 -77.5t-98.5 -217.5l-74 -516h-328l152 1079h328l-19 -129q149 152 379 152
z" />
    <glyph glyph-name="Omacron" unicode="&#x14c;" horiz-adv-x="1832" 
d="M979 -23q-364 0 -600 199q-234 200 -234 508q0 171 74.5 326.5t210.5 267.5q125 104 286.5 159.5t344.5 55.5q365 0 598 -199t233 -508q0 -171 -73.5 -326t-208.5 -267q-125 -105 -287 -160.5t-344 -55.5zM993 274q238 0 393 140q156 141 156 354q0 193 -137 309
q-137 119 -358 119q-240 0 -396 -141q-153 -138 -153 -353q0 -192 137 -311q138 -117 358 -117zM1579 1810l-33 -247h-817l35 247h815z" />
    <glyph glyph-name="omacron" unicode="&#x14d;" horiz-adv-x="1374" 
d="M791 1102q272 0 444 -146q170 -144 170 -383q0 -253 -191 -426q-191 -170 -481 -170q-272 0 -444 146q-170 144 -170 383q0 255 190 424q190 172 482 172zM780 834q-152 0 -248 -93t-96 -227q0 -122 85.5 -196t221.5 -74q153 0 248 92q96 93 96 227q0 122 -85.5 196.5
t-221.5 74.5zM1266 1438l-33 -244h-758l35 244h756z" />
    <glyph glyph-name="Obreve" unicode="&#x14e;" horiz-adv-x="1832" 
d="M979 -23q-364 0 -600 199q-234 200 -234 508q0 171 74.5 326.5t210.5 267.5q125 104 286.5 159.5t344.5 55.5q365 0 598 -199t233 -508q0 -171 -73.5 -326t-208.5 -267q-125 -105 -287 -160.5t-344 -55.5zM993 274q238 0 393 140q156 141 156 354q0 193 -137 309
q-137 119 -358 119q-240 0 -396 -141q-153 -138 -153 -353q0 -192 137 -311q138 -117 358 -117zM1174 1757q79 0 130.5 31t57.5 82h237q-20 -156 -135 -243t-305 -87q-194 0 -302.5 91t-94.5 239h235q-6 -49 44.5 -81t132.5 -32z" />
    <glyph glyph-name="obreve" unicode="&#x14f;" horiz-adv-x="1374" 
d="M791 1102q272 0 444 -146q170 -144 170 -383q0 -253 -191 -426q-191 -170 -481 -170q-272 0 -444 146q-170 144 -170 383q0 255 190 424q190 172 482 172zM780 834q-152 0 -248 -93t-96 -227q0 -122 85.5 -196t221.5 -74q153 0 248 92q96 93 96 227q0 122 -85.5 196.5
t-221.5 74.5zM885 1368q155 0 180 102h221q-20 -152 -127 -230.5t-290 -76.5q-192 0 -290 82t-79 225h221q0 -49 42 -75.5t122 -26.5z" />
    <glyph glyph-name="Ohungarumlaut" unicode="&#x150;" horiz-adv-x="1832" 
d="M979 -23q-364 0 -600 199q-234 200 -234 508q0 171 74.5 326.5t210.5 267.5q125 104 286.5 159.5t344.5 55.5q365 0 598 -199t233 -508q0 -171 -73.5 -326t-208.5 -267q-125 -105 -287 -160.5t-344 -55.5zM993 274q238 0 393 140q156 141 156 354q0 193 -137 309
q-137 119 -358 119q-240 0 -396 -141q-153 -138 -153 -353q0 -192 137 -311q138 -117 358 -117zM1511 1550h-264l236 320h381zM1012 1550h-262l225 320h389z" />
    <glyph glyph-name="ohungarumlaut" unicode="&#x151;" horiz-adv-x="1374" 
d="M791 1102q272 0 444 -146q170 -144 170 -383q0 -253 -191 -426q-191 -170 -481 -170q-272 0 -444 146q-170 144 -170 383q0 255 190 424q190 172 482 172zM780 834q-152 0 -248 -93t-96 -227q0 -122 85.5 -196t221.5 -74q153 0 248 92q96 93 96 227q0 122 -85.5 196.5
t-221.5 74.5zM1182 1167h-260l229 303h362zM725 1167h-260l229 303h361z" />
    <glyph glyph-name="OE" unicode="&#x152;" horiz-adv-x="2729" 
d="M152 684q0 172 73.5 324.5t208.5 261.5q250 200 633 200h1810l-41 -292h-1050l-39 -283h934l-41 -289h-934l-43 -313h1049l-41 -293h-1733q-352 0 -569 190q-217 193 -217 494zM1325 289l127 893h-397q-248 0 -404 -138q-155 -134 -155 -342q0 -184 127 -299
q129 -114 344 -114h358z" />
    <glyph glyph-name="oe" unicode="&#x153;" horiz-adv-x="2312" 
d="M2019 403l279 -112q-80 -148 -239 -231t-365 -83q-146 0 -267.5 48t-203.5 139q-92 -91 -218 -139t-272 -48q-270 0 -442 146q-170 144 -170 383q0 255 190 424q190 172 480 172q149 0 272 -47t205 -135q92 88 218 135t269 47q265 0 428 -141q164 -141 164 -365
q0 -75 -14 -141h-936q20 -100 105 -159.5t206 -59.5q105 0 186.5 44t124.5 123zM1743 848q-109 0 -195 -51.5t-127 -141.5h609q-11 87 -88.5 140t-198.5 53zM1087 563q0 122 -85 196.5t-222 74.5q-149 0 -245 -93q-97 -94 -97 -227q0 -122 85 -196t222 -74q151 0 246 92
q96 93 96 227z" />
    <glyph glyph-name="Racute" unicode="&#x154;" horiz-adv-x="1665" 
d="M1006 522h-474l-73 -522h-342l207 1470h897q252 0 397 -117.5t145 -320.5q0 -174 -106.5 -303t-294.5 -180l297 -549h-377zM625 1182l-54 -381h578q124 0 201 59t77 152q0 80 -61.5 125t-171.5 45h-569zM1165 1550h-307l272 320h469z" />
    <glyph glyph-name="racute" unicode="&#x155;" horiz-adv-x="968" 
d="M979 1085q57 0 119 -12l-45 -317q-68 14 -129 14q-190 0 -299.5 -85t-132.5 -247l-64 -438h-328l152 1079h328l-27 -186q149 192 426 192zM786 1167h-286l245 303h426z" />
    <glyph glyph-name="Rcommaaccent" unicode="&#x156;" horiz-adv-x="1665" 
d="M1006 522h-474l-73 -522h-342l207 1470h897q252 0 397 -117.5t145 -320.5q0 -174 -106.5 -303t-294.5 -180l297 -549h-377zM625 1182l-54 -381h578q124 0 201 59t77 152q0 80 -61.5 125t-171.5 45h-569zM770 -252h-115l25 184h328l-17 -112q-37 -258 -364 -258l18 121
q112 0 125 65z" />
    <glyph glyph-name="rcommaaccent" unicode="&#x157;" horiz-adv-x="968" 
d="M979 1085q57 0 119 -12l-45 -317q-68 14 -129 14q-190 0 -299.5 -85t-132.5 -247l-64 -438h-328l152 1079h328l-27 -186q149 192 426 192zM182 -252h-114l24 184h328l-17 -112q-37 -258 -364 -258l18 121q112 0 125 65z" />
    <glyph glyph-name="Rcaron" unicode="&#x158;" horiz-adv-x="1665" 
d="M1006 522h-474l-73 -522h-342l207 1470h897q252 0 397 -117.5t145 -320.5q0 -174 -106.5 -303t-294.5 -180l297 -549h-377zM625 1182l-54 -381h578q124 0 201 59t77 152q0 80 -61.5 125t-171.5 45h-569zM1544 1870l-336 -318h-350l-248 318h248l191 -131l227 131h268z
" />
    <glyph glyph-name="rcaron" unicode="&#x159;" horiz-adv-x="968" 
d="M979 1085q57 0 119 -12l-45 -317q-68 14 -129 14q-190 0 -299.5 -85t-132.5 -247l-64 -438h-328l152 1079h328l-27 -186q149 192 426 192zM1155 1470l-309 -303h-322l-225 303h238l161 -110l197 110h260z" />
    <glyph glyph-name="Sacute" unicode="&#x15a;" horiz-adv-x="1603" 
d="M905 -23q-288 0 -534 99q-247 102 -351 254l234 231q92 -135 274 -215q186 -80 402 -80q166 2 257 46.5t91 123.5q0 52 -47 84t-158 55l-153 25l-113 18q-337 55 -463 150q-125 94 -125 252q0 210 193 342q192 131 518 131q256 0 471 -84t315 -219l-233 -215
q-92 112 -244.5 171.5t-349.5 59.5q-154 0 -240 -39.5t-86 -111.5q0 -58 60 -86q63 -28 354 -74q293 -44 418 -98q241 -100 241 -320q0 -224 -200 -362t-531 -138zM1161 1550h-307l272 320h469z" />
    <glyph glyph-name="sacute" unicode="&#x15b;" horiz-adv-x="1218" 
d="M664 -23q-195 0 -375 60q-173 61 -269 164l181 209q75 -90 202 -139.5t283 -49.5q108 0 167.5 26.5t59.5 74.5q0 31 -30.5 48t-108.5 29l-90 13l-86 12q-242 35 -341 105t-99 200q0 167 151 270t412 103q179 0 334 -55q157 -56 241 -146l-186 -192q-73 70 -185.5 110.5
t-236.5 40.5q-98 0 -150.5 -23.5t-52.5 -66.5q0 -32 43 -53q54 -21 228 -41q264 -32 376.5 -105.5t112.5 -205.5q0 -174 -158 -283q-156 -105 -423 -105zM922 1167h-287l246 303h426z" />
    <glyph glyph-name="Scircumflex" unicode="&#x15c;" horiz-adv-x="1603" 
d="M905 -23q-288 0 -534 99q-247 102 -351 254l234 231q92 -135 274 -215q186 -80 402 -80q166 2 257 46.5t91 123.5q0 52 -47 84t-158 55l-153 25l-113 18q-337 55 -463 150q-125 94 -125 252q0 210 193 342q192 131 518 131q256 0 471 -84t315 -219l-233 -215
q-92 112 -244.5 171.5t-349.5 59.5q-154 0 -240 -39.5t-86 -111.5q0 -58 60 -86q63 -28 354 -74q293 -44 418 -98q241 -100 241 -320q0 -224 -200 -362t-531 -138zM874 1870h349l250 -320h-248l-191 131l-227 -131h-270z" />
    <glyph glyph-name="scircumflex" unicode="&#x15d;" horiz-adv-x="1218" 
d="M664 -23q-195 0 -375 60q-173 61 -269 164l181 209q75 -90 202 -139.5t283 -49.5q108 0 167.5 26.5t59.5 74.5q0 31 -30.5 48t-108.5 29l-90 13l-86 12q-242 35 -341 105t-99 200q0 167 151 270t412 103q179 0 334 -55q157 -56 241 -146l-186 -192q-73 70 -185.5 110.5
t-236.5 40.5q-98 0 -150.5 -23.5t-52.5 -66.5q0 -32 43 -53q54 -21 228 -41q264 -32 376.5 -105.5t112.5 -205.5q0 -174 -158 -283q-156 -105 -423 -105zM655 1470h320l225 -303h-235l-164 111l-197 -111h-260z" />
    <glyph glyph-name="Scedilla" unicode="&#x15e;" horiz-adv-x="1603" 
d="M20 330l234 231q92 -135 274 -215q186 -80 402 -80q166 2 257 46.5t91 123.5q0 52 -47 84t-158 55l-153 25l-113 18q-337 55 -463 150q-125 94 -125 252q0 210 193 342q192 131 518 131q256 0 471 -84t315 -219l-233 -215q-92 112 -244.5 171.5t-349.5 59.5
q-154 0 -240 -39.5t-86 -111.5q0 -58 60 -86q63 -28 354 -74q293 -44 418 -98q241 -100 241 -320q0 -224 -200 -362t-531 -138q-52 0 -76 3l-10 -23q103 -11 161 -53.5t58 -108.5q0 -80 -82 -129t-217 -49q-91 0 -170 22.5t-129 61.5l105 131q70 -57 180 -57q98 0 98 45
q0 56 -188 53l53 119q-220 34 -403 123q-183 92 -265 215z" />
    <glyph glyph-name="scedilla" unicode="&#x15f;" horiz-adv-x="1218" 
d="M20 201l181 209q75 -90 202 -139.5t283 -49.5q108 0 167.5 26.5t59.5 74.5q0 31 -30.5 48t-108.5 29l-90 13l-86 12q-242 35 -341 105t-99 200q0 167 151 270t412 103q179 0 334 -55q157 -56 241 -146l-186 -192q-73 70 -185.5 110.5t-236.5 40.5q-98 0 -150.5 -23.5
t-52.5 -66.5q0 -32 43 -53q54 -21 228 -41q264 -32 376.5 -105.5t112.5 -205.5q0 -174 -158 -283q-156 -105 -423 -105h-48l-8 -20q103 -11 161 -53.5t58 -108.5q0 -80 -82 -129t-217 -49q-91 0 -170 22.5t-129 61.5l105 131q70 -57 180 -57q98 0 98 45q0 56 -188 53l53 119
q-145 23 -264.5 78t-192.5 131z" />
    <glyph glyph-name="Scaron" unicode="&#x160;" horiz-adv-x="1603" 
d="M905 -23q-288 0 -534 99q-247 102 -351 254l234 231q92 -135 274 -215q186 -80 402 -80q166 2 257 46.5t91 123.5q0 52 -47 84t-158 55l-153 25l-113 18q-337 55 -463 150q-125 94 -125 252q0 210 193 342q192 131 518 131q256 0 471 -84t315 -219l-233 -215
q-92 112 -244.5 171.5t-349.5 59.5q-154 0 -240 -39.5t-86 -111.5q0 -58 60 -86q63 -28 354 -74q293 -44 418 -98q241 -100 241 -320q0 -224 -200 -362t-531 -138zM1524 1870l-336 -318h-350l-248 318h248l190 -131l227 131h269z" />
    <glyph glyph-name="scaron" unicode="&#x161;" horiz-adv-x="1218" 
d="M664 -23q-195 0 -375 60q-173 61 -269 164l181 209q75 -90 202 -139.5t283 -49.5q108 0 167.5 26.5t59.5 74.5q0 31 -30.5 48t-108.5 29l-90 13l-86 12q-242 35 -341 105t-99 200q0 167 151 270t412 103q179 0 334 -55q157 -56 241 -146l-186 -192q-73 70 -185.5 110.5
t-236.5 40.5q-98 0 -150.5 -23.5t-52.5 -66.5q0 -32 43 -53q54 -21 228 -41q264 -32 376.5 -105.5t112.5 -205.5q0 -174 -158 -283q-156 -105 -423 -105zM1247 1470l-309 -303h-322l-225 303h238l162 -110l196 110h260z" />
    <glyph glyph-name="Tcommaaccent" unicode="&#x162;" horiz-adv-x="1687" 
d="M1106 -205q0 -80 -82 -129t-217 -49q-91 0 -170 22.5t-129 61.5l104 131q70 -57 181 -57q98 0 98 45q0 56 -189 53l58 127h-86l164 1178h-637l41 292h1618l-41 -292h-639l-164 -1178h-111l-18 -43q103 -11 161 -53.5t58 -108.5z" />
    <glyph glyph-name="tcommaaccent" unicode="&#x163;" horiz-adv-x="1079" 
d="M293 358l63 451h-245l39 270h245l41 299h324l-43 -299h448l-39 -270h-446l-55 -385q-11 -82 31.5 -121t142.5 -39q116 0 241 49l27 -264q-171 -65 -340 -65q-2 0 -84 4l-12 -31q103 -11 161 -53.5t58 -108.5q0 -80 -82 -129t-217 -49q-91 0 -170 22.5t-129 61.5l104 131
q70 -57 181 -57q98 0 98 45q0 56 -189 53l64 141q-123 41 -179.5 130.5t-37.5 213.5z" />
    <glyph glyph-name="Tcaron" unicode="&#x164;" horiz-adv-x="1687" 
d="M1860 1470l-41 -292h-639l-164 -1178h-342l164 1178h-637l41 292h1618zM1573 1870l-336 -318h-350l-248 318h248l190 -131l228 131h268z" />
    <glyph glyph-name="tcaron" unicode="&#x165;" horiz-adv-x="1079" 
d="M727 -16q-227 0 -343 99t-91 275l63 451h-245l39 270h245l41 299h324l-43 -299h448l-39 -270h-446l-55 -385q-11 -82 31.5 -121t142.5 -39q116 0 241 49l27 -264q-171 -65 -340 -65zM1034 1167h-221l96 344h351z" />
    <glyph glyph-name="Tbar" unicode="&#x166;" horiz-adv-x="1687" 
d="M1475 881l-41 -293h-336l-82 -588h-342l82 588h-336l41 293h336l41 297h-637l41 292h1618l-41 -292h-639l-41 -297h336z" />
    <glyph glyph-name="tbar" unicode="&#x167;" horiz-adv-x="1079" 
d="M727 -16q-227 0 -343 99t-91 275l14 109h-239l32 246h242l16 121h-243l35 245h245l41 299h324l-43 -299h448l-37 -245h-446l-16 -121h446l-33 -246h-448l-6 -43q-11 -82 31.5 -121t142.5 -39q116 0 241 49l27 -264q-171 -65 -340 -65z" />
    <glyph glyph-name="Utilde" unicode="&#x168;" horiz-adv-x="1697" 
d="M901 -23q-375 0 -573 189q-194 191 -148 512l111 792h342l-109 -765q-31 -207 69.5 -318t321.5 -111q204 0 314.5 104t142.5 325l109 765h342l-113 -792q-50 -352 -251 -526.5t-558 -174.5zM903 1905q51 0 99 -13t126 -49q93 -43 134 -43q38 0 62.5 24.5t41.5 80.5h217
q-26 -166 -106 -259.5t-195 -93.5q-51 0 -99 13t-126 49q-93 43 -133 43q-79 0 -105 -105h-217q26 165 106 259t195 94z" />
    <glyph glyph-name="utilde" unicode="&#x169;" horiz-adv-x="1376" 
d="M1098 1079h327l-151 -1079h-328l21 129q-149 -152 -375 -152q-222 0 -342 138q-118 136 -88 360l84 604h327l-73 -530q-20 -137 38 -214t185 -77q123 0 203 79t100 220zM723 1489q72 0 174 -55q77 -43 119 -43q65 0 92 98h199q-26 -154 -99 -238t-182 -84q-41 0 -78.5 12
t-99.5 44q-69 41 -115 41q-68 0 -94 -97h-197q25 152 98.5 237t182.5 85z" />
    <glyph glyph-name="Umacron" unicode="&#x16a;" horiz-adv-x="1697" 
d="M901 -23q-375 0 -573 189q-194 191 -148 512l111 792h342l-109 -765q-31 -207 69.5 -318t321.5 -111q204 0 314.5 104t142.5 325l109 765h342l-113 -792q-50 -352 -251 -526.5t-558 -174.5zM1511 1810l-32 -247h-817l34 247h815z" />
    <glyph glyph-name="umacron" unicode="&#x16b;" horiz-adv-x="1376" 
d="M1098 1079h327l-151 -1079h-328l21 129q-149 -152 -375 -152q-222 0 -342 138q-118 136 -88 360l84 604h327l-73 -530q-20 -137 38 -214t185 -77q123 0 203 79t100 220zM1266 1438l-33 -244h-758l35 244h756z" />
    <glyph glyph-name="Ubreve" unicode="&#x16c;" horiz-adv-x="1697" 
d="M901 -23q-375 0 -573 189q-194 191 -148 512l111 792h342l-109 -765q-31 -207 69.5 -318t321.5 -111q204 0 314.5 104t142.5 325l109 765h342l-113 -792q-50 -352 -251 -526.5t-558 -174.5zM1106 1757q79 0 130.5 31t57.5 82h238q-20 -156 -135 -243t-305 -87
q-194 0 -303 91t-95 239h236q-6 -49 44 -81t132 -32z" />
    <glyph glyph-name="ubreve" unicode="&#x16d;" horiz-adv-x="1376" 
d="M1098 1079h327l-151 -1079h-328l21 129q-149 -152 -375 -152q-222 0 -342 138q-118 136 -88 360l84 604h327l-73 -530q-20 -137 38 -214t185 -77q123 0 203 79t100 220zM885 1368q155 0 180 102h221q-20 -152 -127 -230.5t-290 -76.5q-192 0 -290 82t-79 225h221
q0 -49 42 -75.5t122 -26.5z" />
    <glyph glyph-name="Uring" unicode="&#x16e;" horiz-adv-x="1697" 
d="M901 -23q-375 0 -573 189q-194 191 -148 512l111 792h342l-109 -765q-31 -207 69.5 -318t321.5 -111q204 0 314.5 104t142.5 325l109 765h342l-113 -792q-50 -352 -251 -526.5t-558 -174.5zM1087 1487q-118 0 -197 74t-79 184q0 120 86 203q89 86 219 86q121 0 199 -72.5
t78 -183.5q0 -122 -88 -207q-87 -84 -218 -84zM1110 1866q-47 0 -80 -33t-33 -80q0 -43 28 -70.5t71 -27.5q47 0 78.5 32.5t31.5 81.5q0 41 -27.5 69t-68.5 28z" />
    <glyph glyph-name="uring" unicode="&#x16f;" horiz-adv-x="1376" 
d="M1098 1079h327l-151 -1079h-328l21 129q-149 -152 -375 -152q-222 0 -342 138q-118 136 -88 360l84 604h327l-73 -530q-20 -137 38 -214t185 -77q123 0 203 79t100 220zM869 1149q-99 0 -164.5 61t-65.5 152q0 95 74 166t178 71q98 0 164 -61t66 -152q0 -96 -74 -167
q-73 -70 -178 -70zM885 1460q-37 0 -63.5 -27.5t-26.5 -64.5q0 -35 21.5 -57.5t56.5 -22.5q38 0 65 27t27 65q0 35 -22.5 57.5t-57.5 22.5z" />
    <glyph glyph-name="Uhungarumlaut" unicode="&#x170;" horiz-adv-x="1697" 
d="M901 -23q-375 0 -573 189q-194 191 -148 512l111 792h342l-109 -765q-31 -207 69.5 -318t321.5 -111q204 0 314.5 104t142.5 325l109 765h342l-113 -792q-50 -352 -251 -526.5t-558 -174.5zM1423 1550h-264l236 320h381zM924 1550h-262l225 320h389z" />
    <glyph glyph-name="uhungarumlaut" unicode="&#x171;" horiz-adv-x="1376" 
d="M1098 1079h327l-151 -1079h-328l21 129q-149 -152 -375 -152q-222 0 -342 138q-118 136 -88 360l84 604h327l-73 -530q-20 -137 38 -214t185 -77q123 0 203 79t100 220zM1169 1167h-260l230 303h362zM713 1167h-260l229 303h360z" />
    <glyph glyph-name="Uogonek" unicode="&#x172;" horiz-adv-x="1697" 
d="M1151 4q-154 -32 -214 -61t-60 -72q0 -26 29.5 -41.5t80.5 -15.5q47 0 109 16l-27 -186q-64 -19 -141 -19q-124 0 -199.5 50t-75.5 132q0 105 109 179q-313 34 -469 219q-153 185 -113 473l111 792h342l-109 -765q-31 -207 69.5 -318t321.5 -111q204 0 314.5 104
t142.5 325l109 765h342l-113 -792q-77 -579 -559 -674z" />
    <glyph glyph-name="uogonek" unicode="&#x173;" horiz-adv-x="1376" 
d="M1051 -375q-124 0 -199.5 50t-75.5 132q0 136 174 222l17 100q-149 -152 -375 -152q-222 0 -342 138q-118 136 -88 360l84 604h327l-73 -530q-20 -137 38 -214t185 -77q123 0 203 79t100 220l72 522h327l-151 -1079h-31q-130 -31 -188 -60.5t-58 -66.5q0 -59 113 -59
q47 0 109 16l-27 -186q-66 -19 -141 -19z" />
    <glyph glyph-name="Wcircumflex" unicode="&#x174;" horiz-adv-x="2416" 
d="M719 399l520 1071h346l154 -1071l547 1071h354l-758 -1470h-383l-151 1059l-521 -1059h-378l-244 1470h346zM1305 1870h348l250 -320h-248l-191 131l-227 -131h-270z" />
    <glyph glyph-name="wcircumflex" unicode="&#x175;" horiz-adv-x="1925" 
d="M606 393l357 686h290l121 -686l363 686h348l-608 -1079h-293l-135 684l-363 -684h-307l-236 1079h342zM1016 1470h319l226 -303h-236l-164 111l-196 -111h-260z" />
    <glyph glyph-name="Ycircumflex" unicode="&#x176;" horiz-adv-x="1775" 
d="M586 1470l418 -587l579 587h414l-852 -860l-86 -610h-342l86 610l-613 860h396zM975 1870h348l250 -320h-248l-190 131l-228 -131h-270z" />
    <glyph glyph-name="ycircumflex" unicode="&#x177;" horiz-adv-x="1378" 
d="M1538 1079l-715 -1130q-120 -191 -223 -260q-101 -70 -266 -70q-155 0 -279 51l84 250q86 -39 170 -39q55 0 93 24t75 81l29 47l-363 1046h355l231 -733l451 733h358zM738 1470h319l225 -303h-235l-164 111l-197 -111h-260z" />
    <glyph glyph-name="Ydieresis" unicode="&#x178;" horiz-adv-x="1775" 
d="M586 1470l418 -587l579 587h414l-852 -860l-86 -610h-342l86 610l-613 860h396zM1008 1550h-328l41 289h328zM1530 1550h-328l41 289h328z" />
    <glyph glyph-name="Zacute" unicode="&#x179;" horiz-adv-x="1642" 
d="M621 293h991l-41 -293h-1501l36 258l1106 920h-968l39 292h1482l-36 -256zM1155 1550h-307l272 320h469z" />
    <glyph glyph-name="zacute" unicode="&#x17a;" horiz-adv-x="1296" 
d="M584 270h686l-37 -270h-1167l34 242l758 567h-672l39 270h1153l-35 -243zM926 1167h-287l246 303h426z" />
    <glyph glyph-name="Zdotaccent" unicode="&#x17b;" horiz-adv-x="1642" 
d="M621 293h991l-41 -293h-1501l36 258l1106 920h-968l39 292h1482l-36 -256zM1212 1550h-350l41 289h350z" />
    <glyph glyph-name="zdotaccent" unicode="&#x17c;" horiz-adv-x="1296" 
d="M584 270h686l-37 -270h-1167l34 242l758 567h-672l39 270h1153l-35 -243zM983 1190h-332l39 280h332z" />
    <glyph glyph-name="Zcaron" unicode="&#x17d;" horiz-adv-x="1642" 
d="M621 293h991l-41 -293h-1501l36 258l1106 920h-968l39 292h1482l-36 -256zM1548 1870l-336 -318h-350l-248 318h248l191 -131l227 131h268z" />
    <glyph glyph-name="zcaron" unicode="&#x17e;" horiz-adv-x="1296" 
d="M584 270h686l-37 -270h-1167l34 242l758 567h-672l39 270h1153l-35 -243zM1284 1470l-309 -303h-322l-225 303h238l162 -110l196 110h260z" />
    <glyph glyph-name="florin" unicode="&#x192;" horiz-adv-x="1673" 
d="M1087 657l-75 -235q-73 -232 -214.5 -338.5t-373.5 -106.5q-125 0 -234 31t-176 86l154 230q105 -76 242 -76q201 0 266 201l67 208h-286l32 228h326l53 164q73 231 215.5 337.5t372.5 106.5q128 0 236 -31t174 -86l-154 -229q-107 76 -239 76q-198 0 -269 -201l-43 -137
h322l-31 -228h-365z" />
    <glyph glyph-name="AEacute" unicode="&#x1fc;" horiz-adv-x="2938" 
d="M-14 0l1491 1470h1607l-41 -292h-1089l-39 -283h973l-41 -289h-973l-45 -313h1091l-43 -293h-1425l45 315h-760l-319 -315h-432zM1620 1188l-600 -592h516zM2363 1550h-307l273 320h469z" />
    <glyph glyph-name="aeacute" unicode="&#x1fd;" horiz-adv-x="2209" 
d="M1593 -23q-155 0 -285.5 54.5t-215.5 154.5q-92 -102 -232 -155.5t-313 -53.5q-214 0 -339.5 86t-125.5 232q0 161 131.5 258.5t351.5 97.5h436l9 60q10 61 -52 97t-178 36q-110 0 -190.5 -38.5t-118.5 -107.5l-283 80q69 154 229.5 239t383.5 85q290 0 428 -129
q180 129 426 129q265 0 428 -141q164 -141 164 -365q0 -48 -17 -145h-936q23 -98 108 -156.5t206 -58.5q105 0 186.5 44t124.5 123l279 -112q-79 -148 -240 -231t-365 -83zM1638 850q-109 0 -196 -54t-125 -145h610q-8 88 -87.5 143.5t-201.5 55.5zM403 330
q0 -54 55.5 -83.5t155.5 -29.5q141 0 242 55q103 59 115 142l4 37h-381q-90 0 -140.5 -32.5t-50.5 -88.5zM1434 1167h-287l246 303h426z" />
    <glyph glyph-name="Oslashacute" unicode="&#x1fe;" horiz-adv-x="1832" 
d="M246 -59l-168 190l192 162q-125 175 -125 391q0 171 74.5 326.5t210.5 267.5q125 104 286.5 159.5t344.5 55.5q310 0 532 -150l197 166l168 -192l-180 -154q114 -163 114 -377q0 -171 -73.5 -326t-208.5 -267q-125 -105 -287 -160.5t-344 -55.5q-302 0 -520 142z
M1047 1204q-245 0 -400 -143t-155 -359q0 -111 51 -208l786 645q-121 65 -282 65zM993 266q241 0 398 142q157 145 157 360q0 111 -45 197l-780 -639q117 -60 270 -60zM1257 1550h-307l273 320h469z" />
    <glyph glyph-name="oslashacute" unicode="&#x1ff;" horiz-adv-x="1372" 
d="M119 506q0 255 190 424q190 172 482 172q212 0 368 -92l156 135l145 -160l-141 -123q86 -124 86 -289q0 -253 -191 -426q-191 -170 -481 -170q-207 0 -371 93l-153 -136l-143 162l139 121q-86 124 -86 289zM780 846q-153 0 -254 -96q-98 -94 -98 -236q0 -63 23 -113
l481 416q-76 29 -152 29zM743 233q154 0 254 95q99 95 99 235q0 59 -21 111l-481 -412q69 -29 149 -29zM983 1167h-287l246 303h426z" />
    <glyph glyph-name="Scommaaccent" unicode="&#x218;" horiz-adv-x="1603" 
d="M905 -23q-288 0 -534 99q-247 102 -351 254l234 231q92 -135 274 -215q186 -80 402 -80q166 2 257 46.5t91 123.5q0 52 -47 84t-158 55l-153 25l-113 18q-337 55 -463 150q-125 94 -125 252q0 210 193 342q192 131 518 131q256 0 471 -84t315 -219l-233 -215
q-92 112 -244.5 171.5t-349.5 59.5q-154 0 -240 -39.5t-86 -111.5q0 -58 60 -86q63 -28 354 -74q293 -44 418 -98q241 -100 241 -320q0 -224 -200 -362t-531 -138zM694 -252h-114l24 184h328l-17 -112q-37 -258 -364 -258l18 121q112 0 125 65z" />
    <glyph glyph-name="scommaaccent" unicode="&#x219;" horiz-adv-x="1218" 
d="M664 -23q-195 0 -375 60q-173 61 -269 164l181 209q75 -90 202 -139.5t283 -49.5q108 0 167.5 26.5t59.5 74.5q0 31 -30.5 48t-108.5 29l-90 13l-86 12q-242 35 -341 105t-99 200q0 167 151 270t412 103q179 0 334 -55q157 -56 241 -146l-186 -192q-73 70 -185.5 110.5
t-236.5 40.5q-98 0 -150.5 -23.5t-52.5 -66.5q0 -32 43 -53q54 -21 228 -41q264 -32 376.5 -105.5t112.5 -205.5q0 -174 -158 -283q-156 -105 -423 -105zM518 -252h-115l25 184h328l-17 -112q-37 -258 -364 -258l18 121q112 0 125 65z" />
    <glyph glyph-name="uni021A" unicode="&#x21a;" horiz-adv-x="1687" 
d="M1860 1470l-41 -292h-639l-164 -1178h-342l164 1178h-637l41 292h1618zM762 -252h-115l25 184h327l-16 -112q-37 -258 -365 -258l19 121q112 0 125 65z" />
    <glyph glyph-name="uni021B" unicode="&#x21b;" horiz-adv-x="1079" 
d="M727 -16q-227 0 -343 99t-91 275l63 451h-245l39 270h245l41 299h324l-43 -299h448l-39 -270h-446l-55 -385q-11 -82 31.5 -121t142.5 -39q116 0 241 49l27 -264q-171 -65 -340 -65zM537 -252h-115l24 184h328l-16 -112q-38 -258 -365 -258l19 121q112 0 125 65z" />
    <glyph glyph-name="uni0237" unicode="&#x237;" horiz-adv-x="530" 
d="M-86 -125q90 0 135 40t57 128l146 1036h328l-146 -1046q-31 -214 -147.5 -314t-333.5 -100q-154 0 -287 45l78 238q86 -27 170 -27z" />
    <glyph glyph-name="circumflex" unicode="&#x2c6;" horiz-adv-x="1228" 
d="M662 1470h319l225 -303h-235l-164 111l-197 -111h-260z" />
    <glyph glyph-name="caron" unicode="&#x2c7;" horiz-adv-x="1228" 
d="M1249 1470l-309 -303h-322l-225 303h238l162 -110l196 110h260z" />
    <glyph glyph-name="breve" unicode="&#x2d8;" horiz-adv-x="1228" 
d="M813 1368q155 0 180 102h221q-20 -152 -127 -230.5t-290 -76.5q-192 0 -290 82t-79 225h221q0 -49 42 -75.5t122 -26.5z" />
    <glyph glyph-name="dotaccent" unicode="&#x2d9;" horiz-adv-x="1228" 
d="M948 1190h-332l39 280h332z" />
    <glyph glyph-name="ring" unicode="&#x2da;" horiz-adv-x="1228" 
d="M797 1149q-99 0 -164.5 61t-65.5 152q0 95 74 166t178 71q98 0 164 -61t66 -152q0 -96 -74 -167q-73 -70 -178 -70zM813 1460q-37 0 -63.5 -27.5t-26.5 -64.5q0 -35 21.5 -57.5t56.5 -22.5q38 0 65 27t27 65q0 35 -22.5 57.5t-57.5 22.5z" />
    <glyph glyph-name="ogonek" unicode="&#x2db;" horiz-adv-x="1228" 
d="M594 -375q-124 0 -199.5 50t-75.5 132q0 100 102 176t290 113l75 -96q-130 -31 -187.5 -60.5t-57.5 -66.5q0 -59 112 -59q47 0 109 16l-27 -186q-67 -19 -141 -19z" />
    <glyph glyph-name="tilde" unicode="&#x2dc;" horiz-adv-x="1228" 
d="M649 1489q72 0 174 -55q77 -43 119 -43q65 0 92 98h199q-26 -154 -99 -238t-182 -84q-41 0 -78.5 12t-99.5 44q-69 41 -115 41q-68 0 -94 -97h-196q25 153 98.5 237.5t181.5 84.5z" />
    <glyph glyph-name="hungarumlaut" unicode="&#x2dd;" horiz-adv-x="1228" 
d="M995 1167h-260l230 303h362zM539 1167h-260l229 303h360z" />
    <glyph glyph-name="gravecmb" unicode="&#x300;" horiz-adv-x="0" 
d="M119 1470l162 -303h-258l-302 303h398z" />
    <glyph glyph-name="acutecmb" unicode="&#x301;" horiz-adv-x="0" 
d="M-49 1167h-287l246 303h426z" />
    <glyph glyph-name="circumflexcmb" unicode="&#x302;" horiz-adv-x="0" 
d="M-117 1470h320l225 -303h-235l-164 111l-197 -111h-260z" />
    <glyph glyph-name="tildecmb" unicode="&#x303;" horiz-adv-x="0" 
d="M-152 1489q73 0 175 -55q77 -43 118 -43q65 0 92 98h199q-26 -154 -99 -238t-181 -84q-41 0 -79.5 12t-99.5 44q-69 41 -114 41q-69 0 -95 -97h-196q25 153 98.5 237.5t181.5 84.5z" />
    <glyph glyph-name="macroncmb" unicode="&#x304;" horiz-adv-x="0" 
d="M395 1438l-33 -244h-757l35 244h755z" />
    <glyph glyph-name="brevecmb" unicode="&#x306;" horiz-adv-x="0" 
d="M-6 1368q79 0 123 24.5t57 77.5h221q-20 -152 -127.5 -230.5t-290.5 -76.5q-191 0 -289 82t-79 225h221q0 -49 42 -75.5t122 -26.5z" />
    <glyph glyph-name="dotaccentcmb" unicode="&#x307;" horiz-adv-x="0" 
d="M147 1190h-331l39 280h331z" />
    <glyph glyph-name="dieresiscmb" unicode="&#x308;" horiz-adv-x="0" 
d="M-104 1190h-330l39 280h327zM397 1190h-327l39 280h327z" />
    <glyph glyph-name="ringcmb" unicode="&#x30a;" horiz-adv-x="0" 
d="M-10 1149q-99 0 -164.5 61t-65.5 152q0 95 74 166t178 71q98 0 164 -61t66 -152q0 -96 -74 -167q-73 -70 -178 -70zM6 1460q-37 0 -63.5 -27.5t-26.5 -64.5q0 -35 21.5 -57.5t56.5 -22.5q38 0 65 27t27 65q0 35 -22.5 57.5t-57.5 22.5z" />
    <glyph glyph-name="hungarumlautcmb" unicode="&#x30b;" horiz-adv-x="0" 
d="M193 1167h-261l230 303h362zM-264 1167h-260l229 303h361z" />
    <glyph glyph-name="caroncmb" unicode="&#x30c;" horiz-adv-x="0" 
d="M428 1470l-309 -303h-322l-225 303h238l161 -110l197 110h260z" />
    <glyph glyph-name="commaaboverightcmb" unicode="&#x315;" horiz-adv-x="0" 
d="M-2 1126h-221l96 344h350z" />
    <glyph glyph-name="cedillacmb" unicode="&#x327;" horiz-adv-x="0" 
d="M299 -205q0 -80 -82 -129t-217 -49q-91 0 -170 22.5t-129 61.5l104 131q70 -57 181 -57q98 0 98 45q0 56 -188 53l67 152h146l-29 -68q103 -11 161 -53.5t58 -108.5z" />
    <glyph glyph-name="ogonekcmb" unicode="&#x328;" horiz-adv-x="0" 
d="M41 -375q-124 0 -199 50t-75 132q0 101 101.5 177t289.5 112l75 -96q-130 -31 -187.5 -60.5t-57.5 -66.5q0 -59 112 -59q47 0 109 16l-27 -186q-66 -19 -141 -19z" />
    <glyph glyph-name="baht" unicode="&#xe3f;" horiz-adv-x="1675" 
d="M645 0h-604l207 1470h606l29 205h276l-29 -205h60q226 0 357.5 -97.5t131.5 -264.5q0 -124 -70 -221.5t-192 -141.5q99 -41 155 -125t56 -192q0 -190 -149 -309q-146 -119 -392 -119h-165l-29 -209h-277zM516 1198l-47 -321h301l45 321h-299zM1376 1049q0 69 -54 109
t-148 40h-82l-45 -321h110q97 0 158 49t61 123zM733 618h-299l-49 -344h299zM1331 461q0 72 -56.5 114.5t-150.5 42.5h-114l-49 -344h143q99 0 163 53.5t64 133.5z" />
    <glyph glyph-name="Wgrave" unicode="&#x1e80;" horiz-adv-x="2416" 
d="M719 399l520 1071h346l154 -1071l547 1071h354l-758 -1470h-383l-151 1059l-521 -1059h-378l-244 1470h346zM1395 1870l182 -320h-272l-342 320h432z" />
    <glyph glyph-name="wgrave" unicode="&#x1e81;" horiz-adv-x="1925" 
d="M606 393l357 686h290l121 -686l363 686h348l-608 -1079h-293l-135 684l-363 -684h-307l-236 1079h342zM1122 1470l162 -303h-258l-301 303h397z" />
    <glyph glyph-name="Wacute" unicode="&#x1e82;" horiz-adv-x="2416" 
d="M719 399l520 1071h346l154 -1071l547 1071h354l-758 -1470h-383l-151 1059l-521 -1059h-378l-244 1470h346zM1577 1550h-307l272 320h469z" />
    <glyph glyph-name="wacute" unicode="&#x1e83;" horiz-adv-x="1925" 
d="M606 393l357 686h290l121 -686l363 686h348l-608 -1079h-293l-135 684l-363 -684h-307l-236 1079h342zM1274 1167h-287l246 303h426z" />
    <glyph glyph-name="Wdieresis" unicode="&#x1e84;" horiz-adv-x="2416" 
d="M719 399l520 1071h346l154 -1071l547 1071h354l-758 -1470h-383l-151 1059l-521 -1059h-378l-244 1470h346zM1329 1550h-328l41 289h328zM1851 1550h-327l41 289h327z" />
    <glyph glyph-name="wdieresis" unicode="&#x1e85;" horiz-adv-x="1925" 
d="M606 393l357 686h290l121 -686l363 686h348l-608 -1079h-293l-135 684l-363 -684h-307l-236 1079h342zM1050 1190h-329l39 280h327zM1552 1190h-328l39 280h328z" />
    <glyph glyph-name="Germandbls" unicode="&#x1e9e;" horiz-adv-x="1861" 
d="M1833 487q0 -224 -178 -368q-180 -142 -467 -142q-221 0 -383 79t-240 225l217 231q159 -254 418 -254q129 0 213 63.5t84 161.5q0 88 -76 135.5t-223 47.5h-360l30 221l408 299h-727l-166 -1186h-342l207 1470h1521l-38 -268l-406 -297q238 -13 373 -125t135 -293z" />
    <glyph glyph-name="Ygrave" unicode="&#x1ef2;" horiz-adv-x="1775" 
d="M586 1470l418 -587l579 587h414l-852 -860l-86 -610h-342l86 610l-613 860h396zM1116 1870l182 -320h-272l-342 320h432z" />
    <glyph glyph-name="ygrave" unicode="&#x1ef3;" horiz-adv-x="1378" 
d="M1538 1079l-715 -1130q-120 -191 -223 -260q-101 -70 -266 -70q-155 0 -279 51l84 250q86 -39 170 -39q55 0 93 24t75 81l29 47l-363 1046h355l231 -733l451 733h358zM864 1470l162 -303h-258l-301 303h397z" />
    <glyph glyph-name="thinspace" unicode="&#x2009;" horiz-adv-x="204" 
 />
    <glyph glyph-name="endash" unicode="&#x2013;" horiz-adv-x="1110" 
d="M1094 475h-947l39 266h947z" />
    <glyph glyph-name="emdash" unicode="&#x2014;" horiz-adv-x="1998" 
d="M1982 475h-1835l39 266h1835z" />
    <glyph glyph-name="quoteleft" unicode="&#x2018;" horiz-adv-x="471" 
d="M440 1163h148l-49 -346h-377l47 338q20 146 132.5 229.5t289.5 85.5l-25 -167q-147 -9 -162 -121z" />
    <glyph glyph-name="quoteright" unicode="&#x2019;" horiz-adv-x="471" 
d="M352 1124h-147l49 346h377l-47 -337q-20 -146 -132.5 -230t-289.5 -86l24 168q147 9 162 121z" />
    <glyph glyph-name="quotesinglbase" unicode="&#x201a;" horiz-adv-x="471" 
d="M197 25h-148l49 346h377l-47 -338q-20 -146 -132.5 -230t-289.5 -86l25 168q147 9 162 121z" />
    <glyph glyph-name="quotedblleft" unicode="&#x201c;" horiz-adv-x="946" 
d="M440 1163h148l-49 -346h-377l47 338q20 146 132.5 229.5t289.5 85.5l-25 -167q-147 -9 -162 -121zM915 1163h148l-49 -346h-377l47 338q20 146 132.5 229.5t289.5 85.5l-25 -167q-146 -9 -161 -121z" />
    <glyph glyph-name="quotedblright" unicode="&#x201d;" horiz-adv-x="946" 
d="M829 1124h-147l49 346h377l-47 -337q-20 -146 -132.5 -230t-289.5 -86l25 168q146 9 161 121zM354 1124h-147l49 346h377l-47 -337q-20 -146 -132.5 -230t-289.5 -86l24 168q147 9 162 121z" />
    <glyph glyph-name="quotedblbase" unicode="&#x201e;" horiz-adv-x="946" 
d="M674 25h-148l49 346h377l-47 -338q-20 -146 -132.5 -230t-289.5 -86l25 168q147 9 162 121zM199 25h-148l49 346h377l-47 -338q-20 -146 -132.5 -230t-289.5 -86l25 168q147 9 162 121z" />
    <glyph glyph-name="dagger" unicode="&#x2020;" horiz-adv-x="860" 
d="M631 569h-242l64 451h-277l33 237h276l37 254h242l-37 -254h277l-33 -237h-277z" />
    <glyph glyph-name="daggerdbl" unicode="&#x2021;" horiz-adv-x="847" 
d="M631 569h-254l24 174h-262l33 222h260l23 153h-262l30 221h262l25 172h254l-25 -172h262l-32 -221h-260l-23 -153h262l-30 -222h-263z" />
    <glyph glyph-name="bullet" unicode="&#x2022;" horiz-adv-x="905" 
d="M154 606q0 168 110 275q110 110 277 110q163 0 270 -110q111 -108 111 -275q0 -161 -111 -272q-109 -109 -270 -109q-162 0 -277 109q-110 107 -110 272z" />
    <glyph glyph-name="ellipsis" unicode="&#x2026;" horiz-adv-x="1525" 
d="M449 0h-377l51 367h377zM950 0h-377l52 367h376zM1454 0h-377l51 367h377z" />
    <glyph glyph-name="guilsinglleft" unicode="&#x2039;" horiz-adv-x="653" 
d="M592 100l-463 289l41 287l545 289l-45 -316l-230 -127l193 -129z" />
    <glyph glyph-name="guilsinglright" unicode="&#x203a;" horiz-adv-x="653" 
d="M211 965l463 -289l-41 -287l-545 -289l45 316l229 127l-192 129z" />
    <glyph glyph-name="fraction" unicode="&#x2044;" horiz-adv-x="329" 
d="M-553 0l1350 1470h293l-1350 -1470h-293z" />
    <glyph glyph-name="uni2070" unicode="&#x2070;" horiz-adv-x="1052" 
d="M651 645q-196 0 -323 109q-127 112 -127 280q0 189 141 318q143 131 358 131q196 0 322 -111q127 -109 127 -278q0 -188 -141 -320q-141 -129 -357 -129zM688 1282q-99 0 -165 -67.5t-66 -167.5q-1 -90 55.5 -145.5t149.5 -55.5q98 0 164.5 67.5t68.5 167.5
q0 90 -57 145.5t-150 55.5z" />
    <glyph glyph-name="uni2074" unicode="&#x2074;" horiz-adv-x="983" 
d="M893 840l-27 -183h-235l26 183h-512l27 180l485 450h324l-63 -446h178l-25 -184h-178zM717 1276l-275 -252h240z" />
    <glyph glyph-name="uni2075" unicode="&#x2075;" horiz-adv-x="925" 
d="M608 1036q-110 0 -196 -53l-213 31l114 456h723l-28 -194h-529l-26 -107q97 41 215 41q160 0 255 -68.5t95 -185.5q0 -138 -120 -224.5t-316 -86.5q-156 0 -285 60q-123 57 -162 155l223 96q25 -54 91 -86t151 -32q77 0 123.5 28.5t46.5 73.5q0 44 -43.5 70t-118.5 26z
" />
    <glyph glyph-name="uni2076" unicode="&#x2076;" horiz-adv-x="1013" 
d="M731 1483q138 0 248.5 -41t165.5 -111l-158 -133q-41 47 -110.5 73.5t-151.5 26.5q-105 0 -181 -47t-93 -121q104 78 272 78q161 0 268 -73t107 -187q0 -134 -125 -219q-128 -84 -332 -84q-215 0 -328 92.5t-114 270.5q3 208 147 340q147 135 385 135zM639 823
q94 0 152.5 31t58.5 80q0 45 -53 72.5t-140 27.5q-94 0 -152.5 -30.5t-58.5 -79.5q0 -45 53 -73t140 -28z" />
    <glyph glyph-name="uni2077" unicode="&#x2077;" horiz-adv-x="937" 
d="M799 1276h-379l-23 -150h-209l50 344h876l-29 -208q-340 -240 -391 -605h-256q58 386 361 619z" />
    <glyph glyph-name="uni2078" unicode="&#x2078;" horiz-adv-x="987" 
d="M258 1239q0 110 114 177t304 67q185 0 293 -63.5t110 -170.5q0 -57 -38 -104t-109 -76q68 -26 104 -71.5t35 -102.5q0 -115 -123 -182.5t-332 -67.5q-207 0 -329.5 64.5t-122.5 173.5q1 69 52.5 123.5t139.5 80.5q-98 59 -98 152zM500 1235q0 -32 44.5 -52t119.5 -20
q79 0 125.5 21.5t46.5 56.5t-43 54.5t-119 19.5q-79 0 -126.5 -22t-47.5 -58zM827 907q0 39 -53.5 61.5t-146.5 22.5q-98 0 -154.5 -23.5t-56.5 -64.5q0 -39 52 -60.5t148 -21.5q97 0 154 23.5t57 62.5z" />
    <glyph glyph-name="uni2079" unicode="&#x2079;" horiz-adv-x="1013" 
d="M582 645q-138 0 -250 41t-166 111l160 133q41 -47 110.5 -74t149.5 -27q105 0 182 48t94 122q-105 -79 -276 -79q-163 0 -267 73t-104 187q0 132 125 217q127 86 332 86q215 0 327.5 -93t114.5 -272q-3 -208 -147 -340q-145 -133 -385 -133zM674 1305q-94 0 -152.5 -31
t-58.5 -80q0 -45 52.5 -72.5t139.5 -27.5q94 0 152.5 30.5t58.5 79.5q0 45 -52.5 73t-139.5 28z" />
    <glyph glyph-name="uni2080" unicode="&#x2080;" horiz-adv-x="1052" 
d="M524 -258q-197 0 -323 108q-127 112 -127 281q0 189 141 318q143 131 358 131q196 0 322 -111q127 -109 127 -279q0 -187 -141 -319q-141 -129 -357 -129zM561 379q-99 0 -165 -68t-66 -168q-1 -90 55.5 -145t149.5 -55q98 0 164.5 67.5t68.5 167.5q0 90 -57 145.5
t-150 55.5z" />
    <glyph glyph-name="uni2081" unicode="&#x2081;" horiz-adv-x="770" 
d="M279 -43l43 295h-252l24 178l107 4q95 2 145.5 32t75.5 101h192l-86 -610h217l-26 -203h-723l29 203h254z" />
    <glyph glyph-name="uni2082" unicode="&#x2082;" horiz-adv-x="933" 
d="M27 -246l24 176l428 207q92 44 134 82t42 76q0 41 -36.5 63.5t-98.5 22.5q-81 0 -138.5 -43.5t-80.5 -122.5l-221 51q32 143 155.5 228.5t299.5 85.5q167 0 269.5 -72.5t102.5 -190.5q0 -87 -60 -157.5t-185 -130.5l-164 -78h379l-27 -197h-823z" />
    <glyph glyph-name="uni2083" unicode="&#x2083;" horiz-adv-x="970" 
d="M928 -8q0 -113 -117.5 -181.5t-318.5 -68.5q-183 0 -313 61t-171 166l223 97q23 -62 94 -97t173 -35q79 0 122.5 22t43.5 60q0 62 -138 62h-180l27 176h172q69 0 107 18t38 50q0 63 -139 63q-189 0 -268 -111l-189 105q62 97 182.5 149t284.5 52q179 0 286 -62.5
t107 -165.5q0 -67 -42.5 -117t-118.5 -73q135 -48 135 -170z" />
    <glyph glyph-name="uni2084" unicode="&#x2084;" horiz-adv-x="983" 
d="M766 -63l-27 -183h-235l26 183h-512l27 180l485 450h324l-63 -446h178l-25 -184h-178zM590 373l-275 -252h240z" />
    <glyph glyph-name="uni2085" unicode="&#x2085;" horiz-adv-x="925" 
d="M481 133q-110 0 -196 -53l-213 31l114 456h723l-28 -194h-529l-26 -107q97 41 215 41q160 0 255 -68.5t95 -185.5q0 -138 -120 -224.5t-316 -86.5q-158 0 -285 59q-123 57 -162 156l223 96q25 -54 91 -86.5t151 -32.5q77 0 123.5 29t46.5 74q0 44 -43.5 70t-118.5 26z
" />
    <glyph glyph-name="uni2086" unicode="&#x2086;" horiz-adv-x="1013" 
d="M604 580q138 0 248.5 -41t165.5 -111l-158 -133q-41 47 -110.5 73.5t-151.5 26.5q-105 0 -181 -47t-93 -121q104 78 272 78q159 0 268 -74q107 -73 107 -186q0 -134 -125 -219q-128 -84 -332 -84q-216 0 -328.5 92t-113.5 270q3 208 147 340q148 136 385 136zM512 -80
q94 0 152.5 31t58.5 80q0 45 -53 72.5t-140 27.5q-94 0 -152.5 -31t-58.5 -80q0 -45 53 -72.5t140 -27.5z" />
    <glyph glyph-name="uni2087" unicode="&#x2087;" horiz-adv-x="935" 
d="M672 373h-379l-23 -150h-209l50 344h876l-29 -209q-340 -240 -391 -604h-256q58 386 361 619z" />
    <glyph glyph-name="uni2088" unicode="&#x2088;" horiz-adv-x="987" 
d="M131 336q0 110 114 177t304 67q185 0 293 -63.5t110 -170.5q0 -57 -38 -104t-109 -76q68 -26 104 -71.5t35 -102.5q0 -115 -123 -182.5t-332 -67.5q-207 0 -329.5 64.5t-122.5 173.5q1 69 52.5 123.5t139.5 80.5q-98 59 -98 152zM373 332q0 -32 44.5 -52t119.5 -20
q79 0 125.5 21.5t46.5 56.5t-43 54.5t-119 19.5q-79 0 -126.5 -22t-47.5 -58zM700 4q0 39 -53.5 61.5t-146.5 22.5q-98 0 -154.5 -23.5t-56.5 -64.5q0 -39 52 -60.5t148 -21.5q97 0 154 23.5t57 62.5z" />
    <glyph glyph-name="uni2089" unicode="&#x2089;" horiz-adv-x="1013" 
d="M455 -258q-138 0 -250 41t-166 111l160 133q41 -47 110.5 -74t149.5 -27q105 0 182 48t94 122q-107 -80 -276 -80q-160 0 -266 74q-105 73 -105 186q0 133 125 218q127 86 332 86q215 0 327.5 -93t114.5 -272q-3 -208 -147 -340q-145 -133 -385 -133zM547 401
q-94 0 -152.5 -30.5t-58.5 -79.5q0 -45 52.5 -73t139.5 -28q94 0 152.5 31t58.5 80q0 45 -52.5 72.5t-139.5 27.5z" />
    <glyph glyph-name="franc" unicode="&#x20a3;" horiz-adv-x="1761" 
d="M268 260h-282l37 262h282l133 948h1411l-41 -282h-1073l-39 -277h957l-39 -284h-959l-14 -105h401l-38 -262h-400l-37 -260h-336z" />
    <glyph glyph-name="naira" unicode="&#x20a6;" horiz-adv-x="2174" 
d="M309 469h-282l30 213h283l14 106h-282l30 213h283l66 469h346l719 -987l139 987h332l-66 -469h283l-31 -213h-283l-14 -106h283l-31 -213h-283l-65 -469h-301l-758 1038l-146 -1038h-331z" />
    <glyph glyph-name="peseta" unicode="&#x20a7;" horiz-adv-x="2140" 
d="M1180 350h-547l-49 -350h-340l112 797h-282l32 229h281l64 444h821q248 0 407 -120q163 -119 187 -324h305l-33 -229h-289q-54 -210 -230.5 -328.5t-438.5 -118.5zM1239 1188h-487l-23 -162h801q-25 78 -100.5 120t-190.5 42zM694 797l-22 -164h510q113 0 195.5 42.5
t125.5 121.5h-809z" />
    <glyph glyph-name="won" unicode="&#x20a9;" horiz-adv-x="2273" 
d="M350 469h-323l30 213h267l-13 106h-239l30 213h183l-60 469h332l107 -1046l448 1046h303l154 -1042l399 1042h342l-190 -469h182l-31 -213h-237l-45 -106h268l-31 -213h-323l-191 -469h-352l-146 1014l-432 -1014h-372z" />
    <glyph glyph-name="dong" unicode="&#x20ab;" horiz-adv-x="1452" 
d="M893 168l14 94q-55 -52 -145 -82t-195 -30q-216 0 -348 114q-131 113 -131 297q0 209 160 348q165 142 411 142q110 0 200 -34.5t140 -96.5l29 204h-313l35 236h311l16 110h293l-16 -110h192l-35 -236h-190l-135 -956h-293zM958 616q0 88 -74 145.5t-192 57.5
q-133 0 -219 -67t-86 -170q0 -91 73 -147t191 -56q133 0 220 67t87 170zM1128 -236h-1130l33 236h1130z" />
    <glyph glyph-name="Euro" unicode="&#x20ac;" horiz-adv-x="1822" 
d="M346 481h-242l31 205h184q0 28 9 105h-178l28 204h211q102 229 326 363q225 135 504 135q282 0 483 -127t248 -336l-297 -135q-37 146 -157.5 227.5t-299.5 81.5q-146 0 -264.5 -54.5t-192.5 -154.5h582l-76 -204h-594q-8 -33 -8 -91v-14h563l-73 -205h-435
q61 -103 176 -159t263 -56q310 0 460 293l267 -149q-104 -207 -298.5 -320t-445.5 -113q-289 0 -499 136q-208 140 -275 368z" />
    <glyph glyph-name="peso" unicode="&#x20b1;" horiz-adv-x="2138" 
d="M334 643h-283l31 213h283l14 105h-283l31 213h283l41 296h841q197 0 339 -77.5t202 -218.5h358l-30 -213h-289q0 -61 -10 -105h284l-30 -213h-338q-85 -125 -233 -192.5t-339 -67.5h-569l-53 -383h-340zM752 1188l-76 -522h530q153 0 244.5 83t91.5 220
q0 104 -72.5 161.5t-203.5 57.5h-514z" />
    <glyph glyph-name="uni20B9" unicode="&#x20b9;" horiz-adv-x="1687" 
d="M668 477h-635l37 260h733q166 0 254 105h-973l37 262h966q-61 106 -217 106h-733l35 260h1606l-35 -260h-385q40 -53 53 -106h315l-36 -262h-289q-43 -119 -142.5 -207.5t-234.5 -126.5l317 -508h-383z" />
    <glyph glyph-name="uni20BA" unicode="&#x20ba;" horiz-adv-x="1628" 
d="M248 287l-279 -140l35 254l279 140l14 106l-272 -137l36 252l273 137l80 571h342l-56 -385l435 220l-35 -252l-434 -219l-15 -109l432 217l-36 -252l-433 -217l-24 -180h229q419 0 481 459h340q-54 -391 -253 -571.5t-574 -180.5h-606z" />
    <glyph glyph-name="uni20BD" unicode="&#x20bd;" horiz-adv-x="1855" 
d="M276 209h-284l37 270h286l15 105h-283l39 272h283l86 614h942q228 0 359.5 -111.5t131.5 -303.5q0 -210 -153 -342q-150 -129 -408 -129h-655l-15 -105h549l-39 -270h-549l-28 -209h-342zM1362 1198h-604l-47 -342h618q103 0 165 53t62 138q0 73 -50 112t-144 39z" />
    <glyph glyph-name="trademark" unicode="&#x2122;" horiz-adv-x="1935" 
d="M700 1262l-69 -496h-236l70 496h-258l29 208h751l-29 -208h-258zM1810 1198l-264 -432h-129l-143 432l-60 -432h-213l99 704h297l129 -368l229 368h307l-98 -704h-215z" />
    <glyph glyph-name="uni2153" unicode="&#x2153;" horiz-adv-x="2207" 
d="M406 860l43 295h-252l24 178l107 4q95 2 145.5 32t75.5 101h192l-86 -610h217l-26 -203h-723l29 203h254zM354 0l1350 1470h293l-1350 -1470h-293zM2200 238q0 -113 -118 -181.5t-319 -68.5q-182 0 -312 61t-171 166l223 96q23 -62 93.5 -96.5t172.5 -34.5q79 0 122.5 22
t43.5 60q0 62 -137 62h-180l27 176h172q69 0 107 17.5t38 49.5q0 31 -36.5 47.5t-102.5 16.5q-190 0 -269 -111l-188 105q61 97 182 148.5t285 51.5q179 0 286 -62t107 -165q0 -67 -43 -117t-119 -73q136 -48 136 -170z" />
    <glyph glyph-name="uni2154" unicode="&#x2154;" horiz-adv-x="2328" 
d="M154 657l24 177l428 206q92 44 134 82t42 76q0 41 -36.5 63.5t-98.5 22.5q-81 0 -138.5 -43.5t-80.5 -122.5l-221 51q32 143 155.5 228.5t299.5 85.5q167 0 269.5 -72t102.5 -190q0 -87 -60.5 -158t-185.5 -131l-163 -78h379l-27 -197h-823zM475 0l1350 1470h293
l-1350 -1470h-293zM2322 238q0 -113 -117.5 -181.5t-318.5 -68.5q-182 0 -312 61t-171 166l223 96q23 -62 93.5 -96.5t172.5 -34.5q79 0 122.5 22t43.5 60q0 62 -137 62h-180l26 176h172q69 0 107.5 17.5t38.5 49.5q0 31 -36.5 47.5t-102.5 16.5q-190 0 -269 -111l-188 105
q61 97 182 148.5t285 51.5q179 0 286 -62t107 -165q0 -67 -43 -117t-119 -73q135 -48 135 -170z" />
    <glyph glyph-name="uni215B" unicode="&#x215b;" horiz-adv-x="2224" 
d="M406 860l43 295h-252l24 178l107 4q95 2 145.5 32t75.5 101h192l-86 -610h217l-26 -203h-723l29 203h254zM354 0l1350 1470h293l-1350 -1470h-293zM1401 582q0 110 114 176.5t304 66.5q185 0 293 -63.5t110 -169.5q0 -57 -38 -104t-109 -76q68 -26 104 -71.5t35 -102.5
q0 -115 -123 -182.5t-332 -67.5q-207 0 -329.5 64t-122.5 173q2 69 53 124t139 81q-98 59 -98 152zM1642 578q0 -32 44.5 -52t119.5 -20q79 0 125.5 21.5t46.5 56.5t-42.5 54t-118.5 19q-79 0 -127 -22t-48 -57zM1970 250q0 38 -54 61t-147 23q-98 0 -154 -23.5t-56 -64.5
q0 -39 52 -60.5t148 -21.5q97 0 154 23.5t57 62.5z" />
    <glyph glyph-name="uni215C" unicode="&#x215c;" horiz-adv-x="2312" 
d="M1057 895q0 -113 -117.5 -181.5t-318.5 -68.5q-183 0 -313 61t-171 166l223 97q23 -62 93.5 -96.5t173.5 -34.5q79 0 122.5 22t43.5 60q0 61 -138 61h-180l27 176h172q69 0 107 18t38 50q0 63 -139 63q-190 0 -268 -110l-189 104q62 97 182.5 149t284.5 52
q179 0 286 -62.5t107 -165.5q0 -67 -42.5 -117t-118.5 -73q135 -48 135 -170zM442 0l1350 1470h293l-1350 -1470h-293zM1491 582q0 110 114 176.5t304 66.5q185 0 293 -63.5t110 -169.5q0 -57 -38 -104t-109 -76q68 -26 104 -71.5t35 -102.5q0 -115 -123 -182.5t-332 -67.5
q-207 0 -329.5 64t-122.5 173q2 69 53 124t139 81q-98 59 -98 152zM1733 578q0 -32 44 -52t119 -20q79 0 125.5 21.5t46.5 56.5t-42.5 54t-118.5 19q-79 0 -126.5 -22t-47.5 -57zM2060 250q0 39 -53.5 61.5t-146.5 22.5q-98 0 -154.5 -23.5t-56.5 -64.5q0 -39 52 -60.5
t148 -21.5q97 0 154 23.5t57 62.5z" />
    <glyph glyph-name="uni215D" unicode="&#x215d;" horiz-adv-x="2254" 
d="M608 1036q-110 0 -196 -53l-213 31l114 456h723l-28 -194h-529l-26 -107q97 41 215 41q160 0 255 -68.5t95 -185.5q0 -138 -120 -224.5t-316 -86.5q-156 0 -285 60q-123 57 -162 155l223 96q25 -54 91 -86t151 -32q77 0 123.5 28.5t46.5 73.5q0 44 -43.5 70t-118.5 26z
M385 0l1350 1470h293l-1350 -1470h-293zM1434 582q0 110 113.5 176.5t303.5 66.5q185 0 293.5 -63.5t110.5 -169.5q0 -57 -38 -104t-110 -76q68 -26 104.5 -71.5t35.5 -102.5q0 -115 -123 -182.5t-332 -67.5q-207 0 -330 64t-123 173q1 69 53 124t140 81q-98 59 -98 152z
M1675 578q0 -32 44.5 -52t119.5 -20q79 0 125.5 21.5t46.5 56.5t-43 54t-119 19q-79 0 -126.5 -22t-47.5 -57zM2003 250q0 38 -54 61t-147 23q-98 0 -154.5 -23.5t-56.5 -64.5q0 -39 52.5 -60.5t148.5 -21.5q97 0 154 23.5t57 62.5z" />
    <glyph glyph-name="uni215E" unicode="&#x215e;" horiz-adv-x="2142" 
d="M799 1276h-379l-23 -150h-209l50 344h876l-29 -208q-340 -240 -391 -605h-256q58 386 361 619zM272 0l1350 1470h293l-1350 -1470h-293zM1319 582q0 110 114 176.5t304 66.5q185 0 293 -63.5t110 -169.5q0 -57 -38 -104t-109 -76q68 -26 104 -71.5t35 -102.5
q0 -115 -123 -182.5t-332 -67.5q-207 0 -329.5 64t-122.5 173q2 69 53 124t139 81q-98 59 -98 152zM1561 578q0 -32 44 -52t119 -20q79 0 125.5 21.5t46.5 56.5t-42.5 54t-118.5 19q-79 0 -126.5 -22t-47.5 -57zM1888 250q0 39 -53.5 61.5t-146.5 22.5q-98 0 -154.5 -23.5
t-56.5 -64.5q0 -39 52 -60.5t148 -21.5q97 0 154 23.5t57 62.5z" />
    <glyph glyph-name="arrowleft" unicode="&#x2190;" horiz-adv-x="1658" 
d="M537 600l342 -385l-205 -192l-635 718l635 719l205 -192l-342 -385h1120v-283h-1120z" />
    <glyph glyph-name="arrowup" unicode="&#x2191;" horiz-adv-x="1531" 
d="M1407 811l-193 -203l-417 385v-993h-289v995l-420 -387l-192 203l755 682z" />
    <glyph glyph-name="arrowright" unicode="&#x2192;" horiz-adv-x="1656" 
d="M1040 1460l635 -719l-635 -718l-204 192l342 385h-1121v283h1121l-342 385z" />
    <glyph glyph-name="arrowdown" unicode="&#x2193;" horiz-adv-x="1531" 
d="M1346 862l192 -203l-756 -682l-755 682l192 203l420 -387v995h289v-993z" />
    <glyph glyph-name="minus" unicode="&#x2212;" 
d="M1602 590h-1399l37 276h1400z" />
    <glyph glyph-name="commaaccent" unicode="&#xf6c3;" horiz-adv-x="1228" 
d="M530 -252h-114l24 184h328l-16 -112q-38 -258 -365 -258l19 121q111 0 124 65z" />
    <glyph glyph-name="Euro.lt" 
d="M281 481h-158l31 205h108q3 74 10 105h-104l29 204h131q95 233 295 365q204 133 462 133q254 0 431 -127q175 -126 219 -342l-295 -111q-32 139 -130.5 215t-246.5 76q-124 0 -227.5 -54.5t-169.5 -154.5h487l-68 -204h-503q-11 -48 -11 -105h478l-70 -205h-369
q44 -102 140.5 -158.5t224.5 -56.5q270 0 411 293l265 -133q-98 -217 -279 -333t-420 -116q-260 0 -444 134q-178 134 -227 370z" />
    <glyph glyph-name="a.ord" horiz-adv-x="1026" 
d="M809 782q-117 -102 -313 -102q-147 0 -234.5 61.5t-87.5 165.5q0 108 89 175t249 81l324 27l2 12q4 43 -37 66.5t-121 23.5q-159 0 -209 -96l-221 53q51 113 168 175.5t280 62.5q195 0 296.5 -79t82.5 -216l-39 -270q-3 -36 17 -45q11 -7 26 -7l47 9l-24 -183
q-52 -12 -100 -12q-51 0 -91 12q-77 24 -104 86zM555 858q100 0 172 37.5t80 93.5l6 41l-272 -26q-123 -12 -123 -76q0 -33 36 -51.5t101 -18.5z" />
    <glyph glyph-name="acute.cap" horiz-adv-x="1228" 
d="M799 1550h-307l272 320h469z" />
    <glyph glyph-name="at.cap" horiz-adv-x="2207" 
d="M1825 1114l-172 -508q-21 -57 -2.5 -88t73.5 -31q114 0 203 111q90 116 90 264q0 208 -182 328q-183 121 -498 121q-372 0 -622 -168q-146 -98 -224.5 -240t-78.5 -307q0 -250 195 -386t552 -136q383 0 690 145l111 -211q-340 -180 -811 -180q-475 0 -746 203
q-270 199 -270 557q0 214 103.5 404t293.5 325q328 235 818 235q422 0 675 -186q258 -188 258 -492q0 -261 -178 -436q-176 -176 -432 -176q-219 0 -303 137q-67 -63 -161 -99t-197 -36q-178 0 -281.5 96t-103.5 258q0 215 161 363q166 152 398 152q106 0 187.5 -34.5
t125.5 -97.5l39 113h289zM950 655q0 -72 49.5 -113.5t135.5 -41.5q115 0 192 71q80 74 80 172q0 72 -49.5 114t-134.5 42q-115 0 -195 -74q-78 -72 -78 -170z" />
    <glyph glyph-name="b.ord" horiz-adv-x="1101" 
d="M1200 1116q0 -184 -127 -311q-125 -125 -319 -125q-177 0 -285 108l-12 -92h-250l147 1055h250l-51 -362q45 45 116 71.5t148 26.5q172 0 277 -105q106 -100 106 -266zM741 1286q-104 0 -172.5 -63.5t-68.5 -157.5q0 -82 60 -133t157 -51q104 0 172.5 63.5t68.5 157.5
q0 82 -60 133t-157 51z" />
    <glyph glyph-name="backslash.cap" horiz-adv-x="1202" 
d="M582 1587l573 -1712h-330l-573 1712h330z" />
    <glyph glyph-name="bar.cap" horiz-adv-x="577" 
d="M430 -125h-317l241 1712h318z" />
    <glyph glyph-name="braceleft.cap" horiz-adv-x="886" 
d="M236 582h-113l37 262h96q108 0 129 131l33 235q50 359 438 359h231l-36 -250h-152q-87 0 -133.5 -42t-58.5 -132l-29 -197q-26 -179 -174 -243q67 -35 92.5 -93t13.5 -149l-26 -182q-12 -92 24.5 -133.5t128.5 -41.5h146l-37 -249h-193q-192 0 -296 98.5t-81 259.5
l35 236q8 69 -9 100t-66 31z" />
    <glyph glyph-name="braceright.cap" horiz-adv-x="886" 
d="M852 844h113l-37 -262h-97q-108 0 -129 -131l-32 -236q-50 -358 -439 -358h-231l37 249h151q87 0 134 42.5t59 132.5l29 196q26 181 174 244q-68 35 -93.5 93t-13.5 149l27 182q12 92 -24.5 133t-129.5 41h-145l37 250h192q192 0 296 -99t81 -260l-35 -235
q-8 -69 9.5 -100t66.5 -31z" />
    <glyph glyph-name="bracketleft.cap" horiz-adv-x="772" 
d="M936 1319h-352l-170 -1213h352l-35 -249h-670l242 1712h670z" />
    <glyph glyph-name="bracketright.cap" horiz-adv-x="772" 
d="M37 106h352l170 1213h-352l35 250h669l-241 -1712h-670z" />
    <glyph glyph-name="breve.cap" horiz-adv-x="1228" 
d="M870 1757q79 0 131 31t58 82h237q-20 -156 -135 -243t-305 -87q-194 0 -302.5 91t-94.5 239h235q-6 -49 44 -81t132 -32z" />
    <glyph glyph-name="bullet.cap" horiz-adv-x="905" 
d="M172 731q0 167 111 275q110 110 276 110q163 0 270 -110q111 -108 111 -275q0 -161 -111 -272q-109 -109 -270 -109t-276 109q-111 108 -111 272z" />
    <glyph glyph-name="c.ord" horiz-adv-x="966" 
d="M678 1284q-99 0 -165.5 -63t-66.5 -156q0 -81 58 -131.5t151 -50.5q77 0 134.5 36.5t82.5 100.5l207 -88q-47 -119 -161 -185.5t-273 -66.5q-197 0 -319 104q-123 108 -123 275q0 183 137 305q138 123 352 123q164 0 277 -76q116 -75 143 -190l-229 -86
q-11 66 -67.5 107.5t-137.5 41.5z" />
    <glyph glyph-name="caron.Slovak" horiz-adv-x="1228" 
d="M786 1126h-221l97 344h350z" />
    <glyph glyph-name="caron.cap" horiz-adv-x="1228" 
d="M1343 1870l-335 -318h-351l-247 318h247l191 -131l227 131h268z" />
    <glyph glyph-name="cent.lt" 
d="M967 -207h-260l26 197q-227 37 -359 175.5t-132 340.5q0 250 180 424q182 176 471 203l29 204h260l-31 -213q173 -29 293 -119t155 -217l-253 -126q-47 146 -230 198l-86 -614q98 23 171 76t108 127l223 -144q-72 -137 -211.5 -220.5t-327.5 -102.5zM539 528
q0 -102 61 -174.5t170 -101.5l86 616q-143 -29 -230 -122.5t-87 -217.5z" />
    <glyph glyph-name="circumflex.cap" horiz-adv-x="1228" 
d="M702 1870h349l249 -320h-247l-191 131l-227 -131h-270z" />
    <glyph glyph-name="colon.mid" horiz-adv-x="622" 
d="M528 217h-376l51 367h377zM623 891h-377l51 366h377z" />
    <glyph glyph-name="colon.tab" horiz-adv-x="819" 
d="M598 0h-377l51 367h377zM692 674h-377l52 366h376z" />
    <glyph glyph-name="comma.tab" horiz-adv-x="819" 
d="M373 0h-152l51 367h377l-53 -377q-20 -148 -126 -224.5t-292 -76.5l23 168q153 3 168 110z" />
    <glyph glyph-name="commaturn" horiz-adv-x="1228" 
d="M852 1352h115l-25 -185h-328l17 113q37 258 364 258l-18 -121q-112 0 -125 -65z" />
    <glyph glyph-name="d.ord" horiz-adv-x="1099" 
d="M588 680q-172 0 -279 104q-106 103 -106 267q0 182 127 309t321 127q176 0 285 -109l53 373h248l-147 -1055h-250l12 84q-44 -47 -114.5 -73.5t-149.5 -26.5zM664 881q104 0 172.5 63.5t68.5 157.5q0 82 -60 133t-157 51q-104 0 -173 -63t-69 -156q0 -84 60.5 -135
t157.5 -51z" />
    <glyph glyph-name="dieresis.cap" horiz-adv-x="1228" 
d="M735 1550h-327l41 289h327zM1257 1550h-327l41 289h327z" />
    <glyph glyph-name="dollar.lt" 
d="M31 326l225 227q71 -96 198.5 -163t288.5 -97l48 334q-324 47 -443 133q-123 88 -123 248q0 203 185 329q189 130 499 136l29 202h272l-30 -219q191 -29 338 -97.5t219 -162.5l-221 -213q-126 147 -375 197l-43 -306q318 -47 444 -139q131 -91 131 -254q0 -215 -188 -344
q-186 -128 -512 -137l-29 -209h-270l31 225q-227 30 -410 113q-181 82 -264 197zM545 1047q0 -58 57 -84q69 -32 229 -54l41 293q-154 -4 -240.5 -45.5t-86.5 -109.5zM1346 442q0 61 -60.5 93.5t-228.5 56.5l-45 -320q334 12 334 170z" />
    <glyph glyph-name="dotaccent.cap" horiz-adv-x="1228" 
d="M1008 1550h-351l41 289h351z" />
    <glyph glyph-name="e.ord" horiz-adv-x="1015" 
d="M647 680q-195 0 -319 106q-125 107 -125 273q0 181 139 305q138 123 350 123q188 0 309 -103q119 -101 119 -262q0 -53 -10 -102h-664q13 -67 71 -106.5t140 -39.5q70 0 127 30t86 83l215 -80q-57 -106 -173 -166.5t-265 -60.5zM680 1296q-72 0 -130 -34.5t-87 -94.5h414
q-5 56 -60.5 92.5t-136.5 36.5z" />
    <glyph glyph-name="eight.dnom" horiz-adv-x="987" 
d="M166 582q0 110 114 176.5t304 66.5q185 0 293 -63.5t110 -169.5q0 -57 -38 -104t-109 -76q68 -26 104 -71.5t35 -102.5q0 -115 -123 -182.5t-332 -67.5q-207 0 -329.5 64t-122.5 173q2 69 53 124t139 81q-98 59 -98 152zM408 578q0 -32 44 -52t119 -20q79 0 125.5 21.5
t46.5 56.5t-42.5 54t-118.5 19q-79 0 -126.5 -22t-47.5 -57zM735 250q0 39 -53.5 61.5t-146.5 22.5q-98 0 -154.5 -23.5t-56.5 -64.5q0 -39 52 -60.5t148 -21.5q97 0 154 23.5t57 62.5z" />
    <glyph glyph-name="eight.lt" 
d="M301 1073q0 191 188 305q189 115 502 115q295 0 471 -111t176 -295q0 -111 -76 -194.5t-223 -134.5q148 -47 229 -136t81 -206q0 -200 -209 -320q-207 -119 -568 -119q-349 0 -559 115q-209 117 -209 311q0 135 108.5 236t299.5 145q-211 102 -211 289zM629 1059
q0 -76 87.5 -120t241.5 -44q160 0 253.5 49t93.5 131q0 78 -86.5 121t-241.5 43q-163 0 -255.5 -48.5t-92.5 -131.5zM1311 442q0 91 -112.5 141t-313.5 50q-203 0 -319.5 -55t-116.5 -148q0 -88 112.5 -139t308.5 -51q203 0 322 54.5t119 147.5z" />
    <glyph glyph-name="emdash.cap" horiz-adv-x="1998" 
d="M2001 600h-1835l39 266h1835z" />
    <glyph glyph-name="endash.cap" horiz-adv-x="1110" 
d="M1112 600h-946l39 266h946z" />
    <glyph glyph-name="f.ord" horiz-adv-x="720" 
d="M768 1767q137 0 219 -32l-55 -187q-76 21 -152 21q-140 0 -149 -86l-2 -13h280l-28 -204h-281l-80 -570h-246l78 570h-170l29 204h170l2 13q47 284 385 284z" />
    <glyph glyph-name="five.dnom" horiz-adv-x="925" 
d="M516 379q-111 0 -197 -53l-213 30l115 457h723l-29 -195h-528l-27 -106q97 41 215 41q160 0 255.5 -68.5t95.5 -185.5q0 -138 -120 -224.5t-317 -86.5q-157 0 -284 59q-123 57 -162 156l223 96q25 -54 91 -86.5t151 -32.5q77 0 123.5 29t46.5 74q0 44 -43.5 70t-118.5 26
z" />
    <glyph glyph-name="five.lt" 
d="M928 729q-225 0 -420 -115l-270 58l204 798h1235l-41 -292h-968l-70 -267q178 90 412 90q292 0 465 -129q174 -125 174 -340q0 -243 -211 -399q-208 -156 -551 -156q-295 0 -518 119q-227 121 -273 303l314 138q34 -120 172 -199q144 -78 323 -78q173 0 289 72
q113 70 113 178q0 100 -103.5 159.5t-275.5 59.5z" />
    <glyph glyph-name="florin.lt" 
d="M1071 657l-76 -235q-73 -231 -213 -338t-368 -107q-124 0 -230.5 30.5t-175.5 86.5l156 230q102 -76 233 -76q195 0 260 201l68 208h-285l31 228h326l53 164q73 231 213.5 337.5t368.5 106.5q124 0 230 -30.5t175 -86.5l-156 -229q-102 76 -233 76q-195 0 -260 -201
l-43 -137h321l-32 -228h-363z" />
    <glyph glyph-name="four.dnom" horiz-adv-x="983" 
d="M801 182l-27 -182h-235l26 182h-512l27 180l485 451h324l-64 -446h179l-25 -185h-178zM625 618l-275 -251h240z" />
    <glyph glyph-name="four.lt" 
d="M1356 344l-49 -344h-328l49 344h-924l37 264l934 862h438l-118 -852h286l-36 -274h-289zM1145 1178l-600 -560h522z" />
    <glyph glyph-name="g.ord" horiz-adv-x="1099" 
d="M1198 1470l-96 -667q-25 -178 -162 -279.5t-354 -101.5q-157 0 -276.5 54t-162.5 142l168 125q37 -61 110.5 -95t170.5 -34q110 0 175.5 45.5t78.5 131.5l4 22q-96 -96 -258 -96q-173 0 -283 98q-108 99 -108 256q0 176 125 295q127 121 315 121q187 0 289 -111l12 94
h252zM664 905q102 0 170.5 60.5t68.5 148.5q0 80 -60 130t-157 50q-100 0 -168.5 -60.5t-68.5 -150.5q0 -79 60.5 -128.5t154.5 -49.5z" />
    <glyph glyph-name="grave.cap" horiz-adv-x="1228" 
d="M952 1870l183 -320h-273l-342 320h432z" />
    <glyph glyph-name="guillemotleft.cap" horiz-adv-x="1216" 
d="M621 303l-463 289l41 287l544 288l-45 -315l-229 -127l193 -129zM1184 303l-463 289l41 287l545 288l-45 -315l-230 -127l193 -129z" />
    <glyph glyph-name="guillemotright.cap" horiz-adv-x="1216" 
d="M803 1167l463 -288l-41 -287l-545 -289l45 315l229 127l-192 129zM240 1167l462 -288l-40 -287l-545 -289l45 315l229 127l-192 129z" />
    <glyph glyph-name="guilsinglleft.cap" horiz-adv-x="653" 
d="M621 303l-463 289l41 287l544 288l-45 -315l-229 -127l193 -129z" />
    <glyph glyph-name="guilsinglright.cap" horiz-adv-x="653" 
d="M240 1167l462 -288l-40 -287l-545 -289l45 315l229 127l-192 129z" />
    <glyph glyph-name="h.ord" horiz-adv-x="1079" 
d="M457 696h-250l147 1055h250l-51 -371q107 107 270 107q158 0 246 -98q87 -98 66 -256l-60 -437h-250l52 367q13 96 -28.5 149.5t-129.5 53.5q-86 0 -142 -53t-69 -150z" />
    <glyph glyph-name="hungarumlaut.cap" horiz-adv-x="1228" 
d="M1083 1550h-264l236 320h381zM584 1550h-262l225 320h389z" />
    <glyph glyph-name="hyphen.cap" horiz-adv-x="770" 
d="M772 586h-608l43 295h606z" />
    <glyph glyph-name="i.ord" horiz-adv-x="464" 
d="M575 1542h-251l28 209h252zM315 1470h250l-108 -774h-250z" />
    <glyph glyph-name="idotaccent" horiz-adv-x="530" 
d="M598 1190h-332l39 280h332zM252 1079h328l-152 -1079h-328z" />
    <glyph glyph-name="j.ord" horiz-adv-x="466" 
d="M575 1542h-251l28 209h254zM84 618q61 0 88.5 25.5t38.5 91.5l104 735h250l-106 -745q-20 -155 -105 -227t-245 -72q-111 0 -211 29l59 184q70 -21 127 -21z" />
    <glyph glyph-name="k.ord" horiz-adv-x="1040" 
d="M354 1751h250l-82 -588l393 307h345l-422 -321l321 -453h-295l-223 305l-158 -120l-26 -185h-250z" />
    <glyph glyph-name="l.ord" horiz-adv-x="468" 
d="M354 1751h250l-147 -1055h-250z" />
    <glyph glyph-name="m.ord" horiz-adv-x="1644" 
d="M705 1268q-80 0 -132 -51.5t-65 -145.5l-51 -375h-250l108 774h250l-14 -90q104 107 260 107q87 0 156 -36t100 -97q133 133 317 133q162 0 252 -96q87 -93 66 -252l-62 -443h-249l51 377q12 92 -26 143.5t-120 51.5q-80 0 -131.5 -51.5t-64.5 -145.5l-51 -375h-250
l51 377q13 92 -25 143.5t-120 51.5z" />
    <glyph glyph-name="macron.cap" horiz-adv-x="1228" 
d="M1276 1810l-33 -247h-817l35 247h815z" />
    <glyph glyph-name="n.ord" horiz-adv-x="1079" 
d="M457 696h-250l108 774h250l-14 -90q107 107 272 107q158 0 246 -98q87 -98 66 -256l-60 -437h-250l52 367q13 96 -28.5 149.5t-129.5 53.5q-86 0 -142 -53t-69 -150z" />
    <glyph glyph-name="nine.dnom" horiz-adv-x="1013" 
d="M489 -12q-139 0 -250 41t-165 110l159 133q41 -47 111 -73.5t150 -26.5q105 0 182 48t94 122q-107 -80 -276 -80q-161 0 -267 74q-104 73 -104 186q0 132 125 217q127 86 332 86q215 0 327.5 -93t114.5 -271q-3 -207 -148 -340t-385 -133zM582 647q-94 0 -152.5 -30.5
t-58.5 -79.5q0 -45 52.5 -73t139.5 -28q94 0 152.5 31t58.5 80q0 45 -52.5 72.5t-139.5 27.5z" />
    <glyph glyph-name="nine.lt" 
d="M772 -23q-219 0 -390.5 80.5t-258.5 221.5l235 196q66 -106 180 -163.5t257 -57.5q205 0 352 108t190 289q-200 -176 -499 -176q-280 0 -455 135q-176 135 -176 342q0 233 207 387t540 154q351 0 538 -165.5t187 -477.5q0 -182 -68.5 -346.5t-193.5 -286.5
q-252 -240 -645 -240zM952 1223q-182 0 -294.5 -70t-112.5 -180q0 -103 104.5 -164t278.5 -61q183 0 296 69t113 178q0 103 -106 165.5t-279 62.5z" />
    <glyph glyph-name="o.ord" horiz-adv-x="1036" 
d="M688 1487q199 0 322 -105q125 -104 125 -274q0 -182 -140 -307q-139 -121 -348 -121q-199 0 -321 104q-123 105 -123 275q0 186 137 305q138 123 348 123zM680 1284q-102 0 -168 -62t-66 -155q0 -84 58 -134t153 -50q102 0 168 62.5t66 156.5q0 82 -58.5 132t-152.5 50z
" />
    <glyph glyph-name="one.dnom" horiz-adv-x="770" 
d="M313 203l43 295h-252l25 178l107 4q95 2 145.5 32t75.5 101h192l-86 -610h217l-26 -203h-723l28 203h254z" />
    <glyph glyph-name="one.lt" 
d="M1006 1477h262l-168 -1190h506l-39 -287h-1428l41 287h578l94 671h-565l37 259l333 12q152 5 233 62t116 186z" />
    <glyph glyph-name="p.ord" horiz-adv-x="1101" 
d="M1200 1116q0 -184 -127 -311q-125 -125 -319 -125q-177 0 -285 108l-49 -348h-248l143 1030h250l-12 -81q45 45 116 71.5t148 26.5q172 0 277 -105q106 -100 106 -266zM741 1286q-104 0 -172.5 -63.5t-68.5 -157.5q0 -82 60 -133t157 -51q104 0 172.5 63.5t68.5 157.5
q0 82 -60 133t-157 51z" />
    <glyph glyph-name="parenleft.cap" horiz-adv-x="831" 
d="M694 1569h359q-568 -423 -568 -983q0 -424 326 -729h-334q-165 124 -255.5 319t-90.5 424q0 298 150 553q152 262 413 416z" />
    <glyph glyph-name="parenright.cap" horiz-adv-x="831" 
d="M338 -143h-358q567 422 567 983q0 424 -326 729h334q165 -124 255.5 -319t90.5 -425q0 -299 -149 -555q-152 -258 -414 -413z" />
    <glyph glyph-name="percent.lt" 
d="M530 772q-147 0 -240 90.5t-93 233.5q0 167 110 280q114 117 281 117q148 0 241 -90.5t93 -233.5q0 -166 -113 -282q-112 -115 -279 -115zM438 0h-274l1241 1470h276zM543 967q66 0 111.5 54t45.5 132q0 63 -35 103t-90 40q-67 0 -112 -54t-45 -132q0 -66 34 -104.5
t91 -38.5zM1315 698q148 0 241 -90t93 -233q0 -167 -113 -283q-112 -115 -279 -115q-147 0 -240 90.5t-93 233.5q0 168 110 281q113 116 281 116zM1303 504q-65 0 -111.5 -55.5t-46.5 -131.5q0 -63 35 -103t90 -40q67 0 112 54t45 132q0 63 -34.5 103.5t-89.5 40.5z" />
    <glyph glyph-name="period.tab" horiz-adv-x="819" 
d="M598 0h-377l51 367h377z" />
    <glyph glyph-name="periodcentered.cap" horiz-adv-x="540" 
d="M537 555h-377l51 367h377z" />
    <glyph glyph-name="q.ord" horiz-adv-x="1101" 
d="M588 680q-172 0 -279 104q-106 103 -106 267q0 182 127 309t321 127q176 0 285 -109l12 92h250l-143 -1030h-250l47 340q-44 -47 -114.5 -73.5t-149.5 -26.5zM664 881q104 0 172.5 63.5t68.5 157.5q0 82 -60 133t-157 51q-104 0 -173 -63t-69 -156q0 -84 60.5 -135
t157.5 -51z" />
    <glyph glyph-name="r.ord" horiz-adv-x="757" 
d="M848 1475q40 0 86 -9l-35 -239q-44 8 -92 8q-133 0 -211.5 -59t-95.5 -172l-43 -308h-250l108 774h250l-18 -131q103 136 301 136z" />
    <glyph glyph-name="ring.cap" horiz-adv-x="1228" 
d="M854 1540q-118 0 -197 74t-79 184q0 120 86 203q89 86 219 86q121 0 198.5 -72.5t77.5 -183.5q0 -122 -88 -207q-87 -84 -217 -84zM877 1919q-47 0 -80 -33t-33 -80q0 -43 27.5 -70.5t70.5 -27.5q47 0 79 33t32 82q0 41 -27.5 68.5t-68.5 27.5z" />
    <glyph glyph-name="s.ord" horiz-adv-x="901" 
d="M580 680q-142 0 -267 41t-194 110l127 164q55 -61 148 -96t202 -35q156 0 156 64q0 22 -25 35q-26 13 -195 34q-175 24 -246 75t-71 145q0 123 111 196.5t301 73.5q124 0 236.5 -38t178.5 -101l-137 -146q-55 49 -136 77t-169 28q-135 0 -135 -60q0 -20 29 -33
q27 -12 159 -30q189 -23 271 -75.5t82 -145.5q0 -129 -115 -206t-311 -77z" />
    <glyph glyph-name="semicolon.tab" horiz-adv-x="819" 
d="M373 0h-152l51 367h377l-53 -377q-20 -148 -126 -224.5t-292 -76.5l23 168q153 3 168 110zM692 674h-377l52 366h376z" />
    <glyph glyph-name="seven.dnom" horiz-adv-x="937" 
d="M707 618h-379l-23 -149h-209l49 344h877l-29 -209q-340 -240 -391 -604h-256q58 385 361 618z" />
    <glyph glyph-name="seven.lt" 
d="M1368 1184h-848l-41 -283h-291l82 569h1526l-43 -305q-330 -256 -504.5 -536t-224.5 -629h-346q102 710 690 1184z" />
    <glyph glyph-name="six.dnom" horiz-adv-x="1013" 
d="M639 825q138 0 249 -40.5t165 -110.5l-158 -133q-41 47 -110.5 73.5t-151.5 26.5q-105 0 -181.5 -47t-93.5 -121q104 78 273 78q159 0 268 -74q107 -73 107 -186q0 -134 -125 -219q-128 -84 -332 -84q-216 0 -329 92t-114 270q3 207 148 340q147 135 385 135zM547 166
q94 0 152.5 30.5t58.5 79.5q0 45 -53 73t-140 28q-94 0 -152.5 -31t-58.5 -80q0 -45 53 -72.5t140 -27.5z" />
    <glyph glyph-name="six.lt" 
d="M1073 1493q219 0 391 -80t258 -221l-235 -197q-66 106 -180 164t-256 58q-205 0 -353 -109q-147 -108 -190 -289q200 176 500 176q278 0 454 -135t176 -342q0 -234 -206 -387q-207 -154 -541 -154q-350 0 -537.5 166t-187.5 478q0 182 68.5 346t193.5 286
q252 240 645 240zM893 248q182 0 294.5 70t112.5 180q0 103 -104 164t-278 61q-183 0 -296.5 -69.5t-113.5 -178.5q0 -103 106 -165t279 -62z" />
    <glyph glyph-name="slash.cap" horiz-adv-x="1202" 
d="M369 -125h-359l1028 1712h359z" />
    <glyph glyph-name="space.tab" horiz-adv-x="819" 
 />
    <glyph glyph-name="sterling.lt" 
d="M610 573h-317l31 215h182q-60 129 -60 220q0 204 183 346q185 141 463 141q265 0 421 -123q158 -125 158 -334q0 -91 -33 -176h-297q19 74 19 109q0 110 -78 172.5t-213 62.5q-136 0 -218.5 -66.5t-82.5 -172.5q0 -70 53 -179h406l-31 -215h-301q1 -14 2.5 -30.5
t1.5 -24.5q0 -68 -31 -166q146 -80 260 -80q104 0 169 56.5t85 165.5h299q-31 -242 -174.5 -379.5t-365.5 -137.5q-108 0 -203 36.5t-197 121.5q-146 -158 -348 -158q-137 0 -219 67.5t-82 182.5q0 123 95.5 202t244.5 79q101 0 199 -37q-3 50 -21 102zM426 324
q-49 0 -80 -21.5t-31 -54.5q0 -29 27.5 -46.5t71.5 -17.5q95 0 159 86q-79 54 -147 54z" />
    <glyph glyph-name="t.ord" horiz-adv-x="802" 
d="M625 684q-165 0 -249 70.5t-65 197.5l43 314h-170l29 204h172l29 211h245l-28 -211h313l-29 -204h-315l-37 -260q-6 -55 23.5 -82t97.5 -27q76 0 172 35l21 -201q-128 -47 -252 -47z" />
    <glyph glyph-name="three.dnom" horiz-adv-x="972" 
d="M965 238q0 -113 -118 -181.5t-319 -68.5q-182 0 -312 61t-171 166l223 96q23 -62 93.5 -96.5t173.5 -34.5q79 0 122 21.5t43 60.5q0 62 -137 62h-180l27 176h172q69 0 107 17.5t38 49.5q0 31 -36.5 47.5t-102.5 16.5q-190 0 -269 -111l-188 105q61 97 182 148.5t285 51.5
q179 0 286 -62t107 -165q0 -67 -43 -117t-119 -73q136 -48 136 -170z" />
    <glyph glyph-name="three.lt" 
d="M1634 438q0 -203 -202 -332q-200 -129 -535 -129q-312 0 -528 121q-215 123 -267 322l310 133q37 -134 168.5 -212.5t322.5 -78.5q168 0 270.5 55t102.5 146q0 151 -307 151h-281l41 273h272q148 0 232 44t84 122q0 72 -78.5 112.5t-218.5 40.5q-172 0 -301 -62.5
t-197 -178.5l-274 137q100 189 304.5 290t487.5 101q292 0 467 -111q179 -111 179 -290q0 -122 -84 -214t-230 -130q125 -37 193.5 -117.5t68.5 -192.5z" />
    <glyph glyph-name="tilde.cap" horiz-adv-x="1228" 
d="M668 1905q51 0 99 -13t126 -49q93 -43 133 -43q38 0 62.5 24.5t41.5 80.5h218q-26 -166 -106 -259.5t-195 -93.5q-51 0 -99.5 13t-126.5 49q-93 43 -133 43q-78 0 -104 -105h-217q26 165 106 259t195 94z" />
    <glyph glyph-name="two.dnom" horiz-adv-x="933" 
d="M61 0l25 176l428 207q92 44 134 82t42 76q0 41 -36.5 63.5t-98.5 22.5q-81 0 -138.5 -43.5t-80.5 -122.5l-221 51q32 143 155 228t299 85q168 0 270.5 -72t102.5 -190q0 -87 -60.5 -158t-185.5 -131l-164 -77h379l-26 -197h-824z" />
    <glyph glyph-name="two.lt" 
d="M94 0l39 264l838 412q174 85 254 162t80 161q0 92 -86.5 147.5t-229.5 55.5q-179 0 -310 -94t-181 -256l-301 80q71 257 288 407q219 154 525 154q288 0 465 -127q174 -125 174 -336q0 -164 -112 -294.5t-345 -239.5l-426 -203h819l-43 -293h-1448z" />
    <glyph glyph-name="u.ord" horiz-adv-x="1071" 
d="M920 1470h249l-108 -774h-250l12 90q-103 -106 -268 -106q-156 0 -244 98q-84 100 -63 258l61 434h250l-53 -372q-12 -97 27.5 -150t125.5 -53t140.5 54t66.5 151z" />
    <glyph glyph-name="v.ord" horiz-adv-x="1015" 
d="M1221 1470l-496 -774h-260l-258 774h270l158 -509l313 509h273z" />
    <glyph glyph-name="w.ord" horiz-adv-x="1413" 
d="M551 993l248 477h221l82 -477l252 477h266l-438 -774h-226l-92 478l-252 -478h-237l-168 774h260z" />
    <glyph glyph-name="x.ord" horiz-adv-x="1038" 
d="M1133 696h-302l-176 238l-239 -238h-314l412 398l-289 376h299l166 -221l221 221h314l-396 -380z" />
    <glyph glyph-name="y.ord" horiz-adv-x="1013" 
d="M1221 1470l-506 -800q-87 -139 -166 -193q-74 -51 -197 -51q-124 0 -205 37l64 186q63 -26 119 -26q41 0 66.5 16t49.5 53l19 29l-258 749h272l158 -512l313 512h271z" />
    <glyph glyph-name="yen.lt" 
d="M702 354h-430l29 213h430l10 68l-22 37h-404l31 213h246l-350 585h399l303 -552l455 552h409l-516 -585h246l-31 -213h-401l-33 -37l-10 -68h430l-31 -213h-428l-49 -354h-332z" />
    <glyph glyph-name="z.ord" horiz-adv-x="991" 
d="M567 901h475l-26 -205h-844l27 185l524 385h-467l29 204h835l-26 -184z" />
    <glyph glyph-name="zero.dnom" horiz-adv-x="1052" 
d="M559 -12q-197 0 -323 108q-127 112 -127 281q0 188 141 317q143 131 358 131q197 0 322 -110q127 -109 127 -279q0 -186 -142 -319q-141 -129 -356 -129zM596 625q-99 0 -165 -68t-66 -168q-1 -90 55 -145.5t149 -55.5q98 0 165 68t69 168q0 90 -57 145.5t-150 55.5z" />
    <glyph glyph-name="zero.lt" 
d="M883 -23q-324 0 -523 193q-200 194 -200 498q0 164 59 315.5t168 267.5q111 117 258.5 179.5t317.5 62.5q321 0 520 -193q200 -191 200 -497q0 -165 -58.5 -317t-166.5 -267q-111 -117 -258 -179.5t-317 -62.5zM954 1196q-193 0 -319 -147q-127 -148 -127 -365
q0 -188 104.5 -299t278.5 -111q192 0 319 148t127 364q0 188 -104.5 299t-278.5 111z" />
    <glyph glyph-name="commaturncmb" horiz-adv-x="0" 
d="M47 1352h115l-25 -185h-327l16 113q38 258 364 258l-18 -121q-112 0 -125 -65z" />
    <glyph glyph-name="commaaccentcmb" horiz-adv-x="0" 
d="M-47 -252h-115l25 184h327l-16 -112q-38 -258 -364 -258l18 121q112 0 125 65z" />
    <glyph glyph-name="baht.lt" 
d="M606 0h-575l207 1470h575l29 205h268l-29 -205h43q226 0 358 -97.5t132 -264.5q0 -124 -70 -221.5t-192 -141.5q99 -41 155 -125t56 -192q0 -189 -150 -309q-146 -119 -391 -119h-150l-28 -209h-266zM496 1198l-45 -321h278l45 321h-278zM1319 1049q0 69 -55.5 109
t-149.5 40h-72l-45 -321h101q97 0 159 49t62 123zM694 618h-280l-49 -344h280zM1274 461q0 72 -56 114.5t-153 42.5h-104l-50 -344h136q99 0 163 53.5t64 133.5z" />
    <glyph glyph-name="dong.lt" 
d="M975 168l14 94q-55 -52 -145 -82t-195 -30q-216 0 -348 114q-131 113 -131 297q0 209 160 348q160 142 411 142q110 0 200 -34.5t140 -96.5l29 204h-313l34 236h312l16 110h293l-16 -110h192l-35 -236h-190l-135 -956h-293zM1038 616q0 91 -73.5 147t-190.5 56
q-133 0 -219 -67t-86 -170q0 -91 73 -147t191 -56q133 0 219 67t86 170zM1210 -236h-1130l33 236h1130z" />
    <glyph glyph-name="franc.lt" 
d="M207 260h-191l39 262h189l133 948h1302l-39 -282h-968l-37 -277h850l-41 -284h-850l-14 -105h348l-37 -262h-348l-37 -260h-336z" />
    <glyph glyph-name="naira.lt" 
d="M193 469h-173l29 213h174l15 106h-175l31 213h174l66 469h344l428 -913l129 913h332l-66 -469h172l-31 -213h-172l-14 -106h172l-29 -213h-174l-65 -469h-301l-463 979l-137 -979h-332z" />
    <glyph glyph-name="peseta.lt" 
d="M864 350h-360l-49 -350h-340l112 797h-174l31 229h174l64 444h626q254 0 402 -115t168 -329h170l-33 -229h-156q-51 -209 -220 -328t-415 -119zM918 1192h-295l-25 -166h584q-23 80 -91 123t-173 43zM567 797l-24 -168h321q98 0 172.5 44t116.5 124h-586z" />
    <glyph glyph-name="peso.lt" 
d="M858 383h-354l-53 -383h-340l90 643h-166l31 213h165l15 105h-166l31 213h165l41 296h607q206 0 345.5 -76.5t196.5 -219.5h240l-31 -213h-172q0 -61 -10 -105h168l-31 -213h-219q-85 -125 -228 -192.5t-325 -67.5zM616 1188l-73 -522h301q147 0 238.5 83.5t91.5 213.5
q0 106 -73.5 165.5t-203.5 59.5h-281z" />
    <glyph glyph-name="uni20BD.lt" 
d="M168 209h-176l37 270h178l14 105h-174l39 272h174l86 614h834q229 0 361 -111.5t132 -303.5q0 -210 -153 -342q-150 -129 -408 -129h-551l-14 -105h422l-37 -270h-424l-29 -209h-340zM1145 1198h-498l-47 -342h514q102 0 163.5 53t61.5 138q0 73 -50 112t-144 39z" />
    <glyph glyph-name="uni20B9.lt" 
d="M586 477h-537l37 260h635q166 0 254 105h-875l35 262h871q-29 51 -86 78.5t-132 27.5h-634l34 260h1508l-37 -260h-383q40 -53 53 -106h313l-36 -262h-287q-43 -119 -142.5 -207.5t-234.5 -126.5l318 -508h-383z" />
    <glyph glyph-name="uni20BA.lt" 
d="M260 268l-254 -131l37 264l256 131l14 111l-252 -131l39 264l250 131l80 563h342l-53 -372l424 221l-39 -264l-422 -219l-14 -113l422 219l-37 -264l-424 -219l-23 -166h234q197 0 303 109.5t143 349.5h342q-54 -387 -248.5 -569.5t-550.5 -182.5h-606z" />
    <glyph glyph-name="won.lt" 
d="M254 469h-238l31 213h193l-7 106h-172l31 213h127l-29 469h308l45 -884l260 706h229l64 -723l295 901h319l-162 -469h129l-30 -213h-172l-35 -106h192l-30 -213h-236l-162 -469h-264l-74 840l-307 -840h-276z" />
    <glyph glyph-name="zero.slash" horiz-adv-x="1775" 
d="M1491 197q-122 -106 -280 -163t-337 -57q-352 0 -579 199q-225 200 -225 506q0 170 70 323t200 269q252 219 616 219q354 0 578 -199q227 -199 227 -506q0 -169 -70 -322t-200 -269zM952 1206q-237 0 -393 -147q-156 -144 -156 -365q0 -82 21 -143l831 573
q-122 82 -303 82zM879 264q235 0 393 146q155 146 155 366q0 77 -20 144l-832 -574q122 -82 304 -82z" />
    <glyph glyph-name="zero.slash.lt" 
d="M1380 219q-111 -117 -258 -179.5t-317 -62.5q-320 0 -520 191q-201 195 -201 500q0 164 59.5 316t169.5 267q111 117 258.5 179.5t317.5 62.5q319 0 518 -193q201 -192 201 -497q0 -164 -59.5 -316t-168.5 -268zM883 1217q-201 0 -336 -156t-135 -379q0 -64 12 -123
l721 569q-112 89 -262 89zM811 254q201 0 334 154q135 156 135 380q0 64 -12 123l-719 -569q105 -88 262 -88z" />
    <glyph glyph-name="arrowNW" horiz-adv-x="1800" 
d="M723 1198l1016 -1018l-199 -203l-1020 1018v-540h-272v1015h1016v-272h-541z" />
    <glyph glyph-name="arrowNE" horiz-adv-x="1581" 
d="M1452 455h-272v540l-1020 -1018l-199 203l1016 1018h-541v272h1016v-1015z" />
    <glyph glyph-name="arrowSE" horiz-adv-x="1800" 
d="M1184 1016h272v-1016h-1016v272h541l-1016 1018l199 203l1020 -1018v541z" />
    <glyph glyph-name="arrowSW" horiz-adv-x="1581" 
d="M659 272h541v-272h-1016v1016h273v-541l1020 1018l198 -203z" />
    <glyph glyph-name="arrowupdown" horiz-adv-x="1624" 
d="M1393 446l178 -215l-758 -614l-760 614l180 215l437 -356v967l-428 -361l-181 215l752 623l750 -623l-179 -215l-428 361v-967z" />
    <glyph glyph-name="arrowleftright" horiz-adv-x="2060" 
d="M1452 1460l627 -719l-627 -718l-205 192l336 385h-1048l335 -385l-204 -192l-627 718l627 719l204 -192l-335 -385h1048l-336 385z" />
    </font>
</defs>
</svg>
