<?xml version="1.0" standalone="no"?>
<!DOCTYPE svg PUBLIC "-//W3C//DTD SVG 1.1//EN" "http://www.w3.org/Graphics/SVG/1.1/DTD/svg11.dtd" >
<svg xmlns="http://www.w3.org/2000/svg" xmlns:xlink="http://www.w3.org/1999/xlink" version="1.1">
<metadata>
Created by FontForge 20201107 at Fri Jul 12 23:26:05 2024
 By 
Copyright 2020, Kris Sowersby, Klim Type Foundry.
</metadata>
<defs>
<font id="SohneBreit-Kraftig" horiz-adv-x="1638" >
  <font-face 
    font-family="Sohne Breit Kraftig"
    font-weight="500"
    font-stretch="expanded"
    units-per-em="2048"
    panose-1="2 11 6 5 3 2 2 6 2 3"
    ascent="1638"
    descent="-410"
    x-height="1075"
    cap-height="1470"
    bbox="-553 -412 2814 2064"
    underline-thickness="204"
    underline-position="-388"
    unicode-range="U+000D-FB04"
  />
<missing-glyph horiz-adv-x="1228" 
d="M0 0v1470h1229v-1470h-1229zM270 496l105 -105l239 240l242 -240l102 105l-237 241l237 240l-102 104l-242 -239l-239 239l-105 -104l240 -240z" />
    <glyph glyph-name="ff" unicode="ff" horiz-adv-x="1742" 
d="M266 1075v21q0 194 121 295.5t350 101.5q159 0 246 -35l-41 -215q-111 25 -205 25q-122 0 -176.5 -43.5t-54.5 -137.5v-12h553v21q0 194 121 295.5t350 101.5q159 0 246 -35l-41 -215q-111 25 -205 25q-122 0 -177 -43.5t-55 -137.5v-12h424v-209h-424v-866h-239v866
h-553v-866h-240v866h-270v209h270z" />
    <glyph glyph-name="fi" unicode="fi" horiz-adv-x="1464" 
d="M266 1075v21q0 194 121 295.5t350 101.5q134 0 226 -29l-48 -215q-80 19 -178 19q-122 0 -176.5 -43.5t-54.5 -137.5v-12h403v-209h-403v-866h-240v866h-270v209h270zM1309 1219h-254v251h254v-251zM1059 1075h246v-1075h-246v1075z" />
    <glyph glyph-name="fl" unicode="fl" horiz-adv-x="1464" 
d="M266 1075v21q0 194 121 295.5t350 101.5q134 0 226 -29l-48 -215q-80 19 -178 19q-122 0 -176.5 -43.5t-54.5 -137.5v-12h403v-209h-403v-866h-240v866h-270v209h270zM1059 1470h246v-1470h-246v1470z" />
    <glyph glyph-name="ffi" unicode="ffi" horiz-adv-x="2215" 
d="M266 1075v21q0 194 121 295.5t350 101.5q159 0 246 -35l-41 -215q-111 25 -205 25q-122 0 -176.5 -43.5t-54.5 -137.5v-12h553v21q0 194 121 295.5t350 101.5q133 0 225 -29l-47 -215q-80 19 -178 19q-122 0 -177 -43.5t-55 -137.5v-12h404v-209h-404v-866h-239v866h-553
v-866h-240v866h-270v209h270zM2101 1219h-254v251h254v-251zM1851 1075h246v-1075h-246v1075z" />
    <glyph glyph-name="ffl" unicode="ffl" horiz-adv-x="2215" 
d="M266 1075v21q0 194 121 295.5t350 101.5q159 0 246 -35l-41 -215q-111 25 -205 25q-122 0 -176.5 -43.5t-54.5 -137.5v-12h553v21q0 194 121 295.5t350 101.5q133 0 225 -29l-47 -215q-80 19 -178 19q-122 0 -177 -43.5t-55 -137.5v-12h404v-209h-404v-866h-239v866h-553
v-866h-240v866h-270v209h270zM1851 1470h246v-1470h-246v1470z" />
    <glyph glyph-name="f_b" unicode="fb" horiz-adv-x="2365" 
d="M737 1493q134 0 226 -29l-48 -215q-80 19 -178 19q-122 0 -176.5 -43.5t-54.5 -137.5v-12h403v-209h-403v-866h-240v866h-270v209h270v21q0 194 121 295.5t350 101.5zM1722 -23q-130 0 -239.5 42t-177.5 116v-135h-246v1470h246v-532q68 74 177.5 116t239.5 42
q260 0 426 -158q164 -156 164 -401q0 -246 -164 -402q-166 -158 -426 -158zM1688 891q-171 0 -283 -100q-113 -98 -113 -246v-17q0 -146 113 -247q114 -99 283 -99t280 97q111 99 111 258q0 161 -111 256q-107 98 -280 98z" />
    <glyph glyph-name="f_h" unicode="fh" horiz-adv-x="2279" 
d="M737 1493q134 0 226 -29l-48 -215q-80 19 -178 19q-122 0 -176.5 -43.5t-54.5 -137.5v-12h403v-209h-403v-866h-240v866h-270v209h270v21q0 194 121 295.5t350 101.5zM1305 0h-246v1470h246v-536q67 76 170.5 119t226.5 43q216 0 341.5 -137.5t125.5 -372.5v-586h-246
v545q0 153 -78 239t-219 86q-152 0 -236.5 -87.5t-84.5 -241.5v-541z" />
    <glyph glyph-name="f_idieresis" unicode="f&#xef;" horiz-adv-x="1433" 
d="M737 1493q159 0 246 -35l-41 -215q-111 25 -205 25q-122 0 -176.5 -43.5t-54.5 -137.5v-12h424v-209h-424v-866h-240v866h-270v209h270v21q0 194 121 295.5t350 101.5zM1575 1219h-262v251h262v-251zM1069 1075h246v-1075h-246v1075z" />
    <glyph glyph-name="f_j" unicode="fj" horiz-adv-x="1423" 
d="M737 1493q134 0 226 -29l-48 -215q-80 19 -178 19q-122 0 -176.5 -43.5t-54.5 -137.5v-12h403v-209h-403v-866h-240v866h-270v209h270v21q0 194 121 295.5t350 101.5zM1309 1219h-254v251h254v-251zM1305 1075v-1042q0 -207 -110.5 -312.5t-324.5 -105.5q-116 0 -221 37
l37 203q91 -29 170 -29q108 0 155.5 45.5t47.5 148.5v1055h246z" />
    <glyph glyph-name="f_k" unicode="fk" horiz-adv-x="2275" 
d="M737 1493q134 0 226 -29l-48 -215q-80 19 -178 19q-122 0 -176.5 -43.5t-54.5 -137.5v-12h403v-209h-403v-866h-240v866h-270v209h270v21q0 194 121 295.5t350 101.5zM1059 1470h246v-933l637 538h344l-572 -471l594 -604h-315l-455 459l-233 -193v-266h-246v1470z" />
    <glyph glyph-name=".notdef" horiz-adv-x="1228" 
d="M0 0v1470h1229v-1470h-1229zM270 496l105 -105l239 240l242 -240l102 105l-237 241l237 240l-102 104l-242 -239l-239 239l-105 -104l240 -240z" />
    <glyph glyph-name=".null" horiz-adv-x="0" 
 />
    <glyph glyph-name="nonmarkingreturn" horiz-adv-x="682" 
 />
    <glyph glyph-name="NULL" horiz-adv-x="0" 
 />
    <glyph glyph-name="NULL" horiz-adv-x="0" 
 />
    <glyph glyph-name="CR" unicode="&#xd;" horiz-adv-x="532" 
 />
    <glyph glyph-name="space" unicode=" " horiz-adv-x="532" 
 />
    <glyph glyph-name="exclam" unicode="!" horiz-adv-x="624" 
d="M403 444h-184l-63 1026h311zM461 0h-297v297h297v-297z" />
    <glyph glyph-name="quotedbl" unicode="&#x22;" horiz-adv-x="727" 
d="M268 889h-168l-59 581h287zM627 889h-168l-60 581h287z" />
    <glyph glyph-name="numbersign" unicode="#" horiz-adv-x="1490" 
d="M416 0h-221l94 393h-228v195h273l72 295h-281v194h326l94 393h223l-94 -393h348l94 393h221l-92 -393h185v-194h-232l-70 -295h240v-195h-287l-92 -393h-225l94 393h-348zM627 883l-70 -295h348l70 295h-348z" />
    <glyph glyph-name="dollar" unicode="$" horiz-adv-x="1630" 
d="M-16 362l192 166q88 -125 231 -203.5t316 -97.5v422q-377 40 -508 125q-129 88 -129 258q0 185 172 305q174 119 465 131v215h211v-221q212 -23 377.5 -102t244.5 -195l-190 -157q-124 182 -432 231v-387q289 -31 420 -76q123 -44 179 -119.5t56 -197.5
q0 -198 -171.5 -318t-483.5 -139v-219h-211v221q-243 18 -449 115q-198 98 -290 243zM334 1049q0 -78 78 -113t311 -62v375q-197 -6 -293 -55t-96 -145zM1333 436q0 88 -69 125q-74 40 -330 66v-404q195 12 297 66.5t102 146.5z" />
    <glyph glyph-name="percent" unicode="%" horiz-adv-x="1980" 
d="M475 723q-185 0 -305 108q-119 107 -119 277q0 169 119 276q121 109 305 109q182 0 303 -109t121 -276q0 -168 -121 -277q-120 -108 -303 -108zM1456 1470h236l-1166 -1470h-235zM475 1317q-97 0 -156 -57.5t-59 -151.5t59 -151.5t156 -57.5t156 57.5t59 151.5t-59 151.5
t-156 57.5zM1505 748q182 0 303 -109t121 -277q0 -167 -121 -276t-303 -109q-184 0 -305 109q-119 107 -119 276q0 170 119 277q121 109 305 109zM1505 571q-97 0 -156 -57.5t-59 -151.5t59 -151t156 -57t156 57t59 151t-59 151.5t-156 57.5z" />
    <glyph glyph-name="ampersand" unicode="&#x26;" horiz-adv-x="1810" 
d="M1470 807l244 -49q-66 -266 -268 -465q87 -54 159 -71t177 -7v-217q-140 -17 -264.5 17t-260.5 128q-265 -166 -587 -166q-291 0 -465 121q-170 120 -170 322q0 141 96 248t266 157q-106 117 -106 267q0 175 137 288t360 113q226 0 358 -104t132 -277q0 -137 -105.5 -244
t-285.5 -151l366 -285q156 147 217 375zM784 1296q-111 0 -180 -52.5t-69 -133.5q0 -63 35 -119t114 -117q173 12 262.5 71.5t89.5 162.5q0 87 -67 137.5t-185 50.5zM295 444q0 -110 109.5 -177.5t289.5 -67.5q199 0 371 94l-490 377q-133 -13 -206.5 -72.5t-73.5 -153.5z
" />
    <glyph glyph-name="quotesingle" unicode="'" horiz-adv-x="368" 
d="M268 889h-168l-59 581h287z" />
    <glyph glyph-name="parenleft" unicode="(" horiz-adv-x="776" 
d="M301 655q0 -242 120.5 -459t354.5 -397h-264q-221 142 -346 369t-125 487t125 487t346 369h264q-475 -373 -475 -856z" />
    <glyph glyph-name="parenright" unicode=")" horiz-adv-x="776" 
d="M475 655q0 483 -475 856h264q221 -142 346 -369t125 -487t-125 -487t-346 -369h-264q234 180 354.5 397t120.5 459z" />
    <glyph glyph-name="asterisk" unicode="*" horiz-adv-x="909" 
d="M780 795l-149 -109l-176 242l-176 -242l-150 109l176 241l-285 92l58 175l284 -91v299h185v-299l287 91l55 -175l-287 -92z" />
    <glyph glyph-name="plus" unicode="+" 
d="M1511 829v-215h-585v-585h-213v585h-586v215h586v586h213v-586h585z" />
    <glyph glyph-name="comma" unicode="," horiz-adv-x="460" 
d="M217 0h-135v297h297v-311q0 -127 -80 -202t-217 -77v137q69 5 102 39t33 101v16z" />
    <glyph glyph-name="hyphen" unicode="-" horiz-adv-x="737" 
d="M655 487h-573v220h573v-220z" />
    <glyph glyph-name="period" unicode="." horiz-adv-x="460" 
d="M379 0h-297v297h297v-297z" />
    <glyph glyph-name="slash" unicode="/" horiz-adv-x="1089" 
d="M276 -201h-256l793 1712h256z" />
    <glyph glyph-name="zero" unicode="0" horiz-adv-x="1777" 
d="M889 -23q-358 0 -600 216q-238 218 -238 542q0 326 238 541q239 217 600 217q362 0 598 -217q239 -214 239 -541q0 -325 -239 -542q-239 -216 -598 -216zM889 1262q-254 0 -414 -148q-158 -146 -158 -379q0 -232 158 -381q160 -145 414 -145t411 145q158 149 158 381
q0 233 -158 379q-157 148 -411 148z" />
    <glyph glyph-name="one" unicode="1" horiz-adv-x="929" 
d="M592 1481h199v-1481h-263v1014h-518v196l307 17q139 7 201.5 65t73.5 189z" />
    <glyph glyph-name="two" unicode="2" horiz-adv-x="1515" 
d="M59 0v213l711 395q228 129 264 154q82 57 118 113.5t36 128.5q0 118 -108.5 192t-280.5 74q-209 0 -351 -107.5t-174 -290.5l-237 66q56 259 260 405q205 150 514 150q283 0 457 -137q178 -135 178 -350q0 -148 -100 -263q-105 -117 -388 -272l-442 -242h965v-229h-1422z
" />
    <glyph glyph-name="three" unicode="3" horiz-adv-x="1572" 
d="M1536 422q0 -189 -209 -318q-207 -127 -530 -127q-301 0 -516 123q-213 124 -271 328l236 98q54 -150 198 -237q153 -90 351 -90q216 0 344.5 64.5t128.5 174.5q0 102 -110 155.5t-314 53.5h-269v221h265q183 0 280 50.5t97 144.5q0 97 -110 153t-296 56q-192 0 -334 -83
t-186 -220l-234 78q62 203 267 323q206 123 495 123q301 0 484 -115q184 -114 184 -297q0 -117 -71.5 -200.5t-198.5 -114.5q319 -71 319 -344z" />
    <glyph glyph-name="four" unicode="4" horiz-adv-x="1679" 
d="M1264 358v-358h-252v358h-992v205l900 907h344v-895h395v-217h-395zM1012 1257l-684 -682h684v682z" />
    <glyph glyph-name="five" unicode="5" horiz-adv-x="1572" 
d="M778 780q-275 0 -475 -153l-192 65l94 778h1208v-229h-1012l-47 -360q202 116 477 116q311 0 508 -141q199 -138 199 -362q0 -229 -211 -373q-209 -144 -536 -144q-306 0 -519 121q-212 120 -268 328l232 100q60 -161 201 -244t356 -83q218 0 348.5 78.5t130.5 211.5
q0 135 -135 211q-136 80 -359 80z" />
    <glyph glyph-name="six" unicode="6" horiz-adv-x="1671" 
d="M899 1493q242 0 434 -88t285 -240l-191 -164q-60 125 -204.5 198t-333.5 73q-257 0 -428 -142q-168 -140 -168 -354q91 104 248.5 161.5t355.5 57.5q321 0 524 -141q205 -138 205 -358q0 -226 -215 -373q-214 -146 -545 -146q-382 0 -600 197q-215 197 -215 535
q0 352 232 567q230 217 616 217zM856 199q227 0 369 80q143 79 143 208q0 130 -141 209q-140 82 -367 82q-228 0 -371 -82q-141 -79 -141 -209q0 -128 139 -208q142 -80 369 -80z" />
    <glyph glyph-name="seven" unicode="7" horiz-adv-x="1484" 
d="M1188 1245h-940v-295h-228v520h1444v-233q-300 -291 -436 -586q-133 -295 -133 -651h-266q0 711 559 1245z" />
    <glyph glyph-name="eight" unicode="8" horiz-adv-x="1650" 
d="M141 1087q0 187 187 295q187 111 497 111q309 0 496 -111q188 -108 188 -295q0 -105 -67.5 -183t-212.5 -134q191 -47 290 -139.5t99 -222.5q0 -199 -217 -316q-216 -115 -576 -115q-358 0 -577 115q-215 117 -215 316q0 130 99 222.5t290 139.5q-145 57 -213 134.5
t-68 182.5zM397 1075q0 -98 112.5 -151.5t315.5 -53.5t315.5 53.5t112.5 151.5t-112.5 151.5t-315.5 53.5t-315.5 -53.5t-112.5 -151.5zM1354 428q0 108 -141 169.5t-388 61.5t-387.5 -61.5t-140.5 -169.5q0 -112 140 -175t388 -63t388.5 63t140.5 175z" />
    <glyph glyph-name="nine" unicode="9" horiz-adv-x="1671" 
d="M772 -23q-239 0 -434 89q-193 88 -285 239l191 164q60 -125 204.5 -197.5t333.5 -72.5q256 0 426 141t170 354q-91 -104 -248.5 -161.5t-355.5 -57.5q-319 0 -526 139q-203 141 -203 361q0 226 213 371q215 147 547 147q383 0 598 -197q217 -196 217 -534
q0 -351 -231 -569q-233 -216 -617 -216zM815 1272q-226 0 -371 -80q-141 -79 -141 -209q0 -129 141 -211q142 -80 367 -80q227 0 369 80q143 82 143 211q0 130 -141 209q-139 80 -367 80z" />
    <glyph glyph-name="colon" unicode=":" horiz-adv-x="460" 
d="M379 0h-297v297h297v-297zM379 715h-297v297h297v-297z" />
    <glyph glyph-name="semicolon" unicode=";" horiz-adv-x="460" 
d="M217 0h-135v297h297v-311q0 -127 -80 -202t-217 -77v137q69 5 102 39t33 101v16zM379 715h-297v297h297v-297z" />
    <glyph glyph-name="less" unicode="&#x3c;" 
d="M1511 49l-1384 516v324l1384 514v-264l-1177 -412l1177 -414v-264z" />
    <glyph glyph-name="equal" unicode="=" 
d="M1511 883h-1384v215h1384v-215zM1511 338h-1384v215h1384v-215z" />
    <glyph glyph-name="greater" unicode="&#x3e;" 
d="M1511 889v-324l-1384 -516v264l1178 414l-1178 412v264z" />
    <glyph glyph-name="question" unicode="?" horiz-adv-x="1402" 
d="M1112 1024q0 121 -102.5 183.5t-300.5 62.5q-183 0 -306.5 -76t-146.5 -203l-256 39q38 211 233 336q198 127 490 127q297 0 477 -125q182 -123 182 -330q0 -176 -144.5 -288.5t-403.5 -143.5v-162h-242v344q269 0 394.5 57t125.5 179zM874 0h-296v297h296v-297z" />
    <glyph glyph-name="at" unicode="@" horiz-adv-x="2144" 
d="M1612 926l-103 -533q-24 -121 99 -121q120 0 202 99q82 101 82 256q0 247 -200 391q-198 143 -545 143q-397 0 -641 -194t-244 -506q0 -287 215.5 -444.5t607.5 -157.5q202 0 391 42.5t314 116.5l96 -161q-149 -92 -355 -141.5t-441 -49.5q-479 0 -760 213
q-279 212 -279 582q0 202 90 376t256 296q300 217 746 217q424 0 686 -197q264 -196 264 -518q0 -246 -145 -397q-145 -148 -379 -148q-91 0 -161 31t-105 86q-49 -53 -142.5 -85t-197.5 -32q-196 0 -313.5 101.5t-117.5 269.5q0 203 148 342q147 141 369 141q100 0 184 -31
t135 -86l21 99h223zM782 481q0 -92 59.5 -144t164.5 -52q130 0 211 75q83 77 83 193q0 92 -59.5 144.5t-163.5 52.5q-129 0 -213 -78q-82 -76 -82 -191z" />
    <glyph glyph-name="A" unicode="A" horiz-adv-x="1763" 
d="M-12 0l749 1470h289l748 -1470h-279l-186 369h-854l-187 -369h-280zM1194 598l-311 614l-312 -614h623z" />
    <glyph glyph-name="B" unicode="B" horiz-adv-x="1665" 
d="M1120 0h-981v1470h944q238 0 366 -100.5t128 -286.5q0 -112 -57 -193.5t-162 -123.5q123 -38 194.5 -133.5t71.5 -222.5q0 -190 -136 -300t-368 -110zM391 1249v-387h668q129 0 199.5 50.5t70.5 144.5t-69.5 143t-200.5 49h-668zM1106 641h-715v-420h715q122 0 194 57
t72 154q0 94 -72.5 151.5t-193.5 57.5z" />
    <glyph glyph-name="C" unicode="C" horiz-adv-x="1703" 
d="M920 1262q-262 0 -433 -148q-168 -146 -168 -379t168 -379q170 -147 433 -147q198 0 337 87t211 255l218 -119q-86 -215 -288 -335t-480 -120q-370 0 -621 216q-246 218 -246 542q0 327 246 541q248 217 621 217q278 0 480 -120t288 -335l-218 -118q-72 168 -211 255
t-337 87z" />
    <glyph glyph-name="D" unicode="D" horiz-adv-x="1765" 
d="M885 0h-746v1470h746q378 0 604 -200q225 -200 225 -535q0 -337 -225 -536q-224 -199 -604 -199zM397 1245v-1020h488q259 0 410 137.5t151 372.5q0 233 -152 373q-149 137 -411 137h-486z" />
    <glyph glyph-name="E" unicode="E" horiz-adv-x="1630" 
d="M139 0v1470h1422v-229h-1164v-369h1047v-229h-1047v-414h1164v-229h-1422z" />
    <glyph glyph-name="F" unicode="F" horiz-adv-x="1585" 
d="M397 612v-612h-258v1470h1395v-229h-1137v-399h1020v-230h-1020z" />
    <glyph glyph-name="G" unicode="G" horiz-adv-x="1832" 
d="M1731 0h-246v188q-71 -92 -228 -151q-160 -60 -335 -60q-374 0 -625 216q-246 217 -246 546q0 327 250 539q250 215 631 215q282 0 487 -119.5t291 -333.5l-217 -120q-72 166 -215.5 254t-343.5 88q-267 0 -442 -146q-170 -144 -170 -379q0 -236 167 -381
q169 -147 433 -147q230 0 399 102t178 252h-702v230h934v-793z" />
    <glyph glyph-name="H" unicode="H" horiz-adv-x="1802" 
d="M1401 872v598h262v-1470h-262v643h-1000v-643h-262v1470h262v-598h1000z" />
    <glyph glyph-name="I" unicode="I" horiz-adv-x="540" 
d="M139 1470h262v-1470h-262v1470z" />
    <glyph glyph-name="J" unicode="J" horiz-adv-x="1443" 
d="M684 -23q-242 0 -434 121q-192 124 -250 316l242 129q36 -151 155 -242q125 -94 287 -94q192 0 297.5 91t105.5 257v915h263v-921q0 -255 -185 -414q-187 -158 -481 -158z" />
    <glyph glyph-name="K" unicode="K" horiz-adv-x="1675" 
d="M139 1470h262v-737l883 737h373l-780 -628l827 -842h-352l-666 688l-285 -227v-461h-262v1470z" />
    <glyph glyph-name="L" unicode="L" horiz-adv-x="1521" 
d="M1475 0h-1336v1470h262v-1241h1074v-229z" />
    <glyph glyph-name="M" unicode="M" horiz-adv-x="2138" 
d="M1743 1233l-567 -1233h-213l-568 1233v-1233h-256v1470h406l528 -1151l529 1151h397v-1470h-256v1233z" />
    <glyph glyph-name="N" unicode="N" horiz-adv-x="1763" 
d="M1372 1470h252v-1470h-229l-1004 1141v-1141h-252v1470h271l962 -1091v1091z" />
    <glyph glyph-name="O" unicode="O" horiz-adv-x="1826" 
d="M51 735q0 328 244 543q247 215 618 215q373 0 617 -215q246 -214 246 -543q0 -327 -246 -542q-245 -216 -617 -216q-370 0 -618 216q-244 215 -244 542zM1507 735q0 237 -164 381q-166 146 -430 146t-430 -146q-164 -144 -164 -381t164 -381q165 -145 430 -145t430 145
q164 144 164 381z" />
    <glyph glyph-name="P" unicode="P" horiz-adv-x="1634" 
d="M1053 569h-652v-569h-262v1470h914q257 0 399.5 -117.5t142.5 -332.5q0 -213 -144 -332t-398 -119zM401 1245v-450h637q141 0 220 59.5t79 165.5q0 108 -78 166.5t-221 58.5h-637z" />
    <glyph glyph-name="Q" unicode="Q" horiz-adv-x="1826" 
d="M913 -23q-370 0 -618 216q-244 215 -244 542q0 328 244 543q247 215 618 215q373 0 617 -215q246 -214 246 -543q0 -179 -79.5 -332.5t-226.5 -259.5q89 -109 265 -151l-152 -189q-97 29 -184.5 92.5t-136.5 141.5q-160 -60 -349 -60zM913 209q265 0 430 145
q164 144 164 381t-164 381q-166 146 -430 146t-430 -146q-164 -144 -164 -381t164 -381q165 -145 430 -145z" />
    <glyph glyph-name="R" unicode="R" horiz-adv-x="1642" 
d="M977 569h-576v-569h-262v1470h916q254 0 398 -118.5t144 -331.5q0 -164 -89 -274.5t-255 -153.5l381 -592h-299zM401 1245v-450h639q141 0 220 59.5t79 165.5q0 108 -78 166.5t-221 58.5h-639z" />
    <glyph glyph-name="S" unicode="S" horiz-adv-x="1572" 
d="M817 -23q-271 0 -504 103q-230 101 -331 270l188 174q104 -154 273.5 -236.5t379.5 -82.5q203 0 328 61q127 62 127 158q0 78 -49 115.5t-182 60.5l-101 14q-61 9 -221 27q-380 44 -510 131q-131 88 -131 260q0 206 184 332q188 129 488 129q244 0 448 -86
q206 -86 297 -229l-188 -158q-79 118 -227 182t-341 64q-191 0 -302 -56.5t-111 -150.5q0 -81 86 -119q88 -38 393 -72q181 -20 287 -39q79 -14 170 -41q140 -47 203 -126.5t63 -206.5q0 -220 -197 -349t-520 -129z" />
    <glyph glyph-name="T" unicode="T" horiz-adv-x="1662" 
d="M1626 1470v-229h-663v-1241h-263v1241h-663v229h1589z" />
    <glyph glyph-name="U" unicode="U" horiz-adv-x="1679" 
d="M840 -20q-361 0 -553.5 189t-192.5 542v759h262v-751q0 -257 120 -382.5t364 -125.5t363.5 125.5t119.5 382.5v751h262v-759q0 -353 -192 -542t-553 -189z" />
    <glyph glyph-name="V" unicode="V" horiz-adv-x="1787" 
d="M1800 1470l-756 -1470h-303l-753 1470h280l627 -1224l627 1224h278z" />
    <glyph glyph-name="W" unicode="W" horiz-adv-x="2422" 
d="M676 264l395 1206h285l393 -1206l414 1206h272l-524 -1470h-316l-383 1188l-387 -1188h-315l-522 1470h274z" />
    <glyph glyph-name="X" unicode="X" horiz-adv-x="1710" 
d="M1358 1470h315l-657 -704l715 -766h-330l-549 596l-555 -596h-317l712 762l-659 708h327l498 -538z" />
    <glyph glyph-name="Y" unicode="Y" horiz-adv-x="1710" 
d="M303 1470l555 -624l553 624h320l-744 -831v-639h-262v639l-745 831h323z" />
    <glyph glyph-name="Z" unicode="Z" horiz-adv-x="1611" 
d="M442 229h1090v-229h-1456v203l1079 1038h-1071v229h1440v-202z" />
    <glyph glyph-name="bracketleft" unicode="[" horiz-adv-x="718" 
d="M698 1311h-376v-1313h376v-199h-616v1712h616v-200z" />
    <glyph glyph-name="backslash" unicode="\" horiz-adv-x="1089" 
d="M20 1511h256l793 -1712h-256z" />
    <glyph glyph-name="bracketright" unicode="]" horiz-adv-x="718" 
d="M397 -2v1313h-377v200h617v-1712h-617v199h377z" />
    <glyph glyph-name="asciicircum" unicode="^" horiz-adv-x="1167" 
d="M31 840l432 630h242l432 -630h-267l-286 428l-289 -428h-264z" />
    <glyph glyph-name="underscore" unicode="_" horiz-adv-x="888" 
d="M807 -319h-725v206h725v-206z" />
    <glyph glyph-name="grave" unicode="`" horiz-adv-x="1228" 
d="M627 1470l223 -288h-209l-338 288h324z" />
    <glyph glyph-name="a" unicode="a" horiz-adv-x="1337" 
d="M961 145q-78 -79 -200 -123.5t-263 -44.5q-203 0 -325 90.5t-122 243.5q0 136 106.5 221.5t307.5 110.5l467 55v9q0 85 -76 132.5t-215 47.5q-123 0 -222 -50.5t-130 -129.5l-203 90q49 132 207 215q159 84 356 84q252 0 386 -101.5t134 -292.5v-452q0 -54 37 -66
q15 -6 37 -6q33 0 86 12v-190q-65 -12 -121 -12q-71 0 -121 20q-92 39 -126 137zM518 176q165 0 289 68q125 67 125 172v90l-426 -51q-116 -13 -165.5 -46.5t-49.5 -95.5q0 -66 59 -101.5t168 -35.5z" />
    <glyph glyph-name="b" unicode="b" horiz-adv-x="1425" 
d="M1372 537q0 -246 -164 -402q-166 -158 -426 -158q-130 0 -239.5 42t-177.5 116v-135h-246v1470h246v-532q68 74 177.5 116t239.5 42q260 0 426 -158q164 -156 164 -401zM748 891q-171 0 -283 -100q-113 -98 -113 -246v-17q0 -146 113 -247q114 -99 283 -99t280 97
q111 99 111 258q0 161 -111 256q-107 98 -280 98z" />
    <glyph glyph-name="c" unicode="c" horiz-adv-x="1241" 
d="M676 887q-171 0 -281 -96q-106 -93 -106 -254t106 -254q111 -97 281 -97q121 0 221 68q98 67 133 170l195 -117q-59 -146 -209 -237q-152 -93 -338 -93q-266 0 -447 158q-178 156 -178 402q0 245 178 401q181 158 447 158q189 0 340 -95q150 -92 209 -239l-197 -113
q-35 103 -133 170q-100 68 -221 68z" />
    <glyph glyph-name="d" unicode="d" horiz-adv-x="1425" 
d="M643 -23q-260 0 -426 158q-164 156 -164 402q0 245 164 401q166 158 426 158q130 0 240 -42t178 -116v532h246v-1470h-246v135q-68 -74 -178 -116t-240 -42zM1073 528v17q0 146 -115 246q-112 100 -280 100q-173 0 -283 -98q-108 -95 -108 -256q0 -159 108 -258
q114 -97 283 -97q166 0 280 99q115 103 115 247z" />
    <glyph glyph-name="e" unicode="e" horiz-adv-x="1302" 
d="M674 -23q-272 0 -447 156q-174 155 -174 404q0 244 174 399q177 160 447 160q258 0 418 -154q159 -150 159 -391v-86h-964q25 -128 130 -203.5t257 -75.5q128 0 223 59.5t137 162.5l197 -105q-55 -143 -209 -235q-154 -91 -348 -91zM662 891q-136 0 -234.5 -65
t-130.5 -177h717q-15 101 -115 170q-104 72 -237 72z" />
    <glyph glyph-name="f" unicode="f" horiz-adv-x="950" 
d="M737 1493q159 0 246 -35l-41 -215q-111 25 -205 25q-122 0 -176.5 -43.5t-54.5 -137.5v-12h424v-209h-424v-866h-240v866h-270v209h270v21q0 194 121 295.5t350 101.5z" />
    <glyph glyph-name="g" unicode="g" horiz-adv-x="1413" 
d="M1294 1075v-934q0 -237 -180 -383q-180 -149 -461 -149q-220 0 -379.5 78t-222.5 215l197 127q38 -100 147.5 -161t251.5 -61q179 0 290.5 86t111.5 226v49q-152 -158 -414 -158q-261 0 -426 154q-164 156 -164 391q0 234 164 387q165 154 426 154q254 0 414 -154v133
h245zM1063 553v6q0 146 -113 240t-282 94t-279 -94q-108 -95 -108 -244t108 -244q110 -94 279 -94t282 94t113 242z" />
    <glyph glyph-name="h" unicode="h" horiz-adv-x="1339" 
d="M365 0h-246v1470h246v-536q67 76 170.5 119t226.5 43q216 0 341.5 -137.5t125.5 -372.5v-586h-246v545q0 153 -78 239t-219 86q-152 0 -236.5 -87.5t-84.5 -241.5v-541z" />
    <glyph glyph-name="i" unicode="i" horiz-adv-x="483" 
d="M369 1219h-254v251h254v-251zM119 1075h246v-1075h-246v1075z" />
    <glyph glyph-name="j" unicode="j" horiz-adv-x="483" 
d="M369 1219h-254v251h254v-251zM-84 -174q108 0 155.5 45.5t47.5 148.5v1055h246v-1042q0 -207 -110.5 -312.5t-324.5 -105.5q-116 0 -221 37l37 203q91 -29 170 -29z" />
    <glyph glyph-name="k" unicode="k" horiz-adv-x="1335" 
d="M119 1470h246v-933l636 538h345l-572 -471l594 -604h-315l-455 459l-233 -193v-266h-246v1470z" />
    <glyph glyph-name="l" unicode="l" horiz-adv-x="483" 
d="M119 1470h246v-1470h-246v1470z" />
    <glyph glyph-name="m" unicode="m" horiz-adv-x="2158" 
d="M676 870q-152 0 -231.5 -85t-79.5 -244v-541h-246v1075h246v-137q137 158 376 158q128 0 225 -51.5t152 -149.5q173 201 436 201q237 0 365.5 -136.5t128.5 -384.5v-575h-246v545q0 159 -72.5 242t-211.5 83q-149 0 -230.5 -85.5t-81.5 -243.5v-541h-245v545
q0 158 -73 241.5t-212 83.5z" />
    <glyph glyph-name="n" unicode="n" horiz-adv-x="1339" 
d="M365 0h-246v1075h246v-141q67 76 170.5 119t226.5 43q216 0 341.5 -137.5t125.5 -372.5v-586h-246v545q0 153 -78 239t-219 86q-152 0 -236.5 -87.5t-84.5 -241.5v-541z" />
    <glyph glyph-name="o" unicode="o" horiz-adv-x="1333" 
d="M668 1096q258 0 436 -158q176 -156 176 -401q0 -246 -176 -402q-178 -158 -436 -158q-263 0 -441 158q-174 155 -174 402q0 246 174 401q178 158 441 158zM668 885q-168 0 -273.5 -96.5t-105.5 -251.5t105.5 -252t273.5 -97q162 0 270 97q106 93 106 252q0 158 -106 251
q-108 97 -270 97z" />
    <glyph glyph-name="p" unicode="p" horiz-adv-x="1425" 
d="M1372 537q0 -246 -164 -402q-166 -158 -426 -158q-130 0 -239.5 42t-177.5 116v-504h-246v1444h246v-137q68 74 177.5 116t239.5 42q260 0 426 -158q164 -156 164 -401zM748 891q-171 0 -283 -100q-113 -98 -113 -246v-17q0 -146 113 -247q114 -99 283 -99t280 97
q111 99 111 258q0 161 -111 256q-107 98 -280 98z" />
    <glyph glyph-name="q" unicode="q" horiz-adv-x="1425" 
d="M643 -23q-260 0 -426 158q-164 156 -164 402q0 245 164 401q166 158 426 158q130 0 240 -42t178 -116v137h246v-1444h-246v504q-68 -74 -178 -116t-240 -42zM1073 528v17q0 146 -115 246q-112 100 -280 100q-173 0 -283 -98q-108 -95 -108 -256q0 -159 108 -258
q114 -97 283 -97q166 0 280 99q115 103 115 247z" />
    <glyph glyph-name="r" unicode="r" horiz-adv-x="919" 
d="M776 1081q55 0 121 -16v-246q-81 19 -127 19q-201 0 -303 -91t-102 -270v-477h-246v1075h246v-194q126 200 411 200z" />
    <glyph glyph-name="s" unicode="s" horiz-adv-x="1175" 
d="M621 -23q-210 0 -375.5 66t-253.5 184l174 158q159 -205 452 -205q139 0 212 34t73 97q0 45 -31 67.5t-116 35.5q-16 3 -117 14q-20 2 -42 5t-31 4t-11 1q-292 37 -393 107t-101 203q0 155 140 251q142 97 368 97q177 0 326 -60.5t225 -161.5l-157 -151
q-61 81 -167 125.5t-237 44.5q-128 0 -195 -31.5t-67 -91.5q0 -47 47 -68q43 -19 268 -47q161 -20 217 -32q71 -12 123 -33q193 -69 193 -254q0 -162 -148 -262q-148 -97 -376 -97z" />
    <glyph glyph-name="t" unicode="t" horiz-adv-x="1060" 
d="M705 -12q-211 0 -324 98t-113 283v497h-270v209h270v316h242v-316h473v-209h-473v-475q0 -98 54.5 -140t183.5 -42q87 0 235 45l41 -209q-67 -25 -156 -41t-163 -16z" />
    <glyph glyph-name="u" unicode="u" horiz-adv-x="1329" 
d="M965 1075h245v-1075h-245v139q-140 -162 -387 -162q-215 0 -342 136q-125 134 -125 364v598h245v-571q0 -148 74.5 -225.5t216.5 -77.5q152 0 235 85.5t83 239.5v549z" />
    <glyph glyph-name="v" unicode="v" horiz-adv-x="1314" 
d="M1315 1075l-533 -1075h-247l-535 1075h272l390 -805l387 805h266z" />
    <glyph glyph-name="w" unicode="w" horiz-adv-x="1835" 
d="M1028 1075l277 -770l278 770h252l-422 -1075h-213l-282 752l-281 -752h-213l-424 1075h260l285 -770l274 770h209z" />
    <glyph glyph-name="x" unicode="x" horiz-adv-x="1333" 
d="M1333 0h-315l-350 389l-369 -389h-299l516 535l-502 540h312l342 -377l354 377h297l-500 -522z" />
    <glyph glyph-name="y" unicode="y" horiz-adv-x="1314" 
d="M1315 1075l-576 -1175q-74 -150 -176 -217.5t-260 -67.5q-58 0 -124.5 13.5t-98.5 31.5l49 207q75 -41 160 -41q92 0 149 39t88 121l13 37l-539 1052h272l394 -805l383 805h266z" />
    <glyph glyph-name="z" unicode="z" horiz-adv-x="1261" 
d="M406 209h786v-209h-1120v184l776 682h-768v209h1106v-186z" />
    <glyph glyph-name="braceleft" unicode="{" horiz-adv-x="841" 
d="M137 555h-96v201h96q123 0 123 174v229q0 167 101 259.5t284 92.5h176v-200h-139q-105 0 -152 -48.5t-47 -156.5v-176q0 -213 -157 -275q157 -62 157 -274v-176q0 -108 47 -156.5t152 -48.5h139v-201h-176q-183 0 -284 93t-101 260v229q0 174 -123 174z" />
    <glyph glyph-name="bar" unicode="|" horiz-adv-x="528" 
d="M385 -201h-242v1712h242v-1712z" />
    <glyph glyph-name="braceright" unicode="}" horiz-adv-x="841" 
d="M705 555q-123 0 -123 -174v-229q0 -170 -101.5 -261.5t-283.5 -91.5h-177v201h140q107 0 152.5 48.5t45.5 156.5v176q0 121 43 183t115 91q-72 29 -115 91.5t-43 183.5v176q0 108 -45.5 156.5t-152.5 48.5h-140v200h177q182 0 283.5 -91t101.5 -261v-229q0 -174 123 -174
h96v-201h-96z" />
    <glyph glyph-name="asciitilde" unicode="~" horiz-adv-x="1009" 
d="M352 840q37 0 72 -15.5t94 -58.5q42 -35 65 -46t48 -11q44 0 68 30.5t38 102.5h191q-12 -181 -84 -286t-187 -105q-38 0 -73.5 16t-91.5 59q-70 58 -111 58q-45 0 -70.5 -31t-38.5 -102h-190q12 180 83.5 284.5t186.5 104.5z" />
    <glyph glyph-name="uni00A0" unicode="&#xa0;" horiz-adv-x="532" 
 />
    <glyph glyph-name="exclamdown" unicode="&#xa1;" horiz-adv-x="624" 
d="M164 1174v296h297v-296h-297zM156 0l63 1026h184l64 -1026h-311z" />
    <glyph glyph-name="cent" unicode="&#xa2;" horiz-adv-x="1290" 
d="M797 -217h-197v201q-244 30 -397 186q-152 158 -152 379t152 379q155 158 397 188v230h197v-230q172 -21 303 -115q130 -90 180 -221l-188 -110q-35 94 -113 157.5t-182 83.5v-723q104 20 183.5 86t111.5 158l186 -117q-51 -130 -181.5 -220.5t-299.5 -110.5v-201z
M281 549q0 -137 86.5 -236t232.5 -125v721q-146 -26 -232.5 -123.5t-86.5 -236.5z" />
    <glyph glyph-name="sterling" unicode="&#xa3;" horiz-adv-x="1785" 
d="M500 588h-326v194h188q-79 114 -79 230q0 204 194 342q198 139 494 139q305 0 491 -143q189 -145 189 -381q0 -55 -9 -105h-231q6 27 6 74q0 159 -119.5 245.5t-336.5 86.5q-194 0 -310 -78.5t-116 -206.5q0 -47 17 -92.5t62 -110.5h578v-194h-461q25 -77 25 -139
q0 -6 -0.5 -14t-1.5 -21.5t-2 -26.5l90 -51q82 -46 131 -70q134 -61 241 -61q134 0 215.5 68t88.5 186h241q-3 -211 -147 -346q-145 -136 -375 -136q-123 0 -242 43q-119 46 -311 173q-62 -103 -158 -159.5t-213 -56.5q-140 0 -227.5 75t-87.5 196q0 119 92 196
q94 76 238 76q109 0 213 -35q-16 64 -41 103zM338 344q-60 0 -94.5 -25.5t-34.5 -68.5q0 -39 30.5 -63.5t79.5 -24.5q66 0 118 33.5t83 95.5q-103 53 -182 53z" />
    <glyph glyph-name="yen" unicode="&#xa5;" horiz-adv-x="1832" 
d="M795 369h-574v184h574v135h-574v184h393l-614 598h330l590 -581l587 581h326l-612 -598h395v-184h-576v-135h576v-184h-576v-369h-245v369z" />
    <glyph glyph-name="section" unicode="&#xa7;" horiz-adv-x="1640" 
d="M1464 516q72 -72 72 -178q0 -165 -184 -264q-189 -97 -498 -97q-275 0 -502 68q-222 68 -332 184l175 174q104 -107 282.5 -166t403.5 -59q177 0 285 37t108 98q0 54 -52 81.5t-167 33.5l-615 37q-162 11 -255 86t-93 197q0 117 105 208q-80 77 -80 181q0 165 176 260
q181 96 483 96q260 0 459 -59t305 -168l-166 -162q-85 87 -245 132.5t-381 45.5q-179 0 -277 -32t-98 -89q0 -45 41.5 -68.5t132.5 -27.5l581 -31q214 -11 324.5 -88.5t110.5 -216.5q0 -127 -99 -213zM510 678l567 -31q88 -2 209 -33q37 40 37 86q0 57 -53.5 85t-177.5 34
l-607 33q-48 2 -114 16q-49 -37 -49 -88q0 -47 45.5 -71.5t142.5 -30.5z" />
    <glyph glyph-name="dieresis" unicode="&#xa8;" horiz-adv-x="1228" 
d="M494 1219h-263v251h263v-251zM997 1219h-262v251h262v-251z" />
    <glyph glyph-name="copyright" unicode="&#xa9;" horiz-adv-x="1832" 
d="M918 1493q353 0 595 -217q242 -214 242 -541q0 -323 -242 -540q-244 -218 -595 -218q-355 0 -599 218q-241 216 -241 540q0 328 241 541q242 217 599 217zM918 109q298 0 499 180q205 181 205 446q0 268 -203 447q-201 180 -501 180q-303 0 -504 -180
q-203 -179 -203 -447q0 -264 203 -446q204 -180 504 -180zM928 307q-214 0 -348 119q-134 122 -134 311q0 190 134 312q133 118 348 118q166 0 278.5 -62.5t159.5 -180.5l-201 -93q-65 148 -237 148q-121 0 -192.5 -65.5t-71.5 -176.5q0 -110 71.5 -175.5t192.5 -65.5
q172 0 237 147l201 -92q-47 -119 -159 -181.5t-279 -62.5z" />
    <glyph glyph-name="ordfeminine" unicode="&#xaa;" horiz-adv-x="1034" 
d="M690 797q-55 -54 -139.5 -82.5t-183.5 -28.5q-146 0 -234 64.5t-88 173.5q0 100 78.5 163t224.5 76l322 35v4q0 56 -50.5 86.5t-142.5 30.5q-82 0 -145.5 -32t-83.5 -83l-176 60q35 100 148 160.5t265 60.5q185 0 283 -73t98 -212v-301q0 -38 25 -47q12 -4 27 -4
q24 0 55 8v-154q-58 -10 -94 -10q-47 0 -88 15q-73 24 -101 90zM395 842q111 0 193 43q82 46 82 112v54l-289 -31q-74 -8 -105.5 -28.5t-31.5 -61.5q0 -88 151 -88zM973 393h-907v185h907v-185z" />
    <glyph glyph-name="guillemotleft" unicode="&#xab;" horiz-adv-x="1017" 
d="M485 141l-403 269v245l403 269v-246l-204 -146l204 -145v-246zM936 141l-404 269v245l404 269v-246l-205 -146l205 -145v-246z" />
    <glyph glyph-name="registered" unicode="&#xae;" horiz-adv-x="1110" 
d="M555 1493q210 0 350 -131q144 -129 144 -322q0 -191 -144 -323q-141 -129 -350 -129q-208 0 -352 129q-142 133 -142 323q0 192 142 322q143 131 352 131zM555 678q168 0 281 104q116 104 116 258t-116 258q-114 105 -281 105q-166 0 -283 -105q-114 -105 -114 -258
t114 -258q116 -104 283 -104zM702 1004l117 -185h-143l-92 152h-123v-152h-129v457h282q86 0 134.5 -39.5t48.5 -108.5q0 -84 -95 -124zM664 1118q0 25 -18 39t-50 14h-135v-106h135q32 0 50 14t18 39z" />
    <glyph glyph-name="overscore" unicode="&#xaf;" horiz-adv-x="1228" 
d="M985 1415v-194h-741v194h741z" />
    <glyph glyph-name="degree" unicode="&#xb0;" horiz-adv-x="821" 
d="M41 1186q0 134 102 219q101 88 267 88q165 0 266 -88q104 -85 104 -219q0 -133 -104 -221t-266 -88q-163 0 -267 88q-102 89 -102 221zM223 1186q0 -66 51 -104t136 -38q88 0 137 37.5t49 104.5t-49 104t-137 37q-85 0 -136 -38t-51 -103z" />
    <glyph glyph-name="twosuperior" unicode="&#xb2;" horiz-adv-x="899" 
d="M53 655v156l359 188q146 76 186 113q41 41 41 84q0 51 -45.5 82t-122.5 31q-97 0 -164 -50.5t-84 -136.5l-186 41q21 140 143 230t299 90q165 0 266 -75t101 -198q0 -91 -55.5 -157.5t-180.5 -126.5l-192 -97h446v-174h-811z" />
    <glyph glyph-name="threesuperior" unicode="&#xb3;" horiz-adv-x="931" 
d="M895 889q0 -105 -121 -176q-119 -70 -307 -70q-170 0 -290 61t-167 170l185 82q26 -63 102 -103t172 -40q93 0 150 25.5t57 68.5q0 84 -199 84h-151v158h145q184 0 184 80q0 37 -50 59.5t-136 22.5q-90 0 -158.5 -35.5t-93.5 -93.5l-176 78q41 100 161.5 161.5
t278.5 61.5q178 0 285.5 -66t107.5 -172q0 -60 -39.5 -106.5t-105.5 -65.5q166 -51 166 -184z" />
    <glyph glyph-name="acute" unicode="&#xb4;" horiz-adv-x="1228" 
d="M588 1182h-209l223 288h324z" />
    <glyph glyph-name="paragraph" unicode="&#xb6;" horiz-adv-x="1712" 
d="M1415 0h-246v1247h-297v-557h-358q-207 0 -336 105q-127 109 -127 280q0 177 135 285q134 110 355 110h1151v-223h-277v-1247z" />
    <glyph glyph-name="middot" unicode="&#xb7;" horiz-adv-x="460" 
d="M379 444h-297v297h297v-297z" />
    <glyph glyph-name="cedilla" unicode="&#xb8;" horiz-adv-x="1228" 
d="M887 -207q0 -79 -80 -130.5t-203 -51.5q-179 0 -272 74l86 125q73 -58 178 -58q119 0 119 53q0 30 -44 44t-153 18l47 158h127l-20 -68q97 -6 156 -51t59 -113z" />
    <glyph glyph-name="onesuperior" unicode="&#xb9;" horiz-adv-x="755" 
d="M745 655h-725v176h273v343h-273v155l140 4q86 1 127.5 33t52.5 104h158v-639h247v-176z" />
    <glyph glyph-name="ordmasculine" unicode="&#xba;" horiz-adv-x="989" 
d="M496 1485q194 0 319 -113q127 -112 127 -287q0 -171 -127 -286q-125 -113 -319 -113q-197 0 -322 113q-127 115 -127 286q0 175 127 287q125 113 322 113zM496 1315q-111 0 -181.5 -64t-70.5 -166t70.5 -165.5t181.5 -63.5t180 63.5t69 165.5q0 103 -69.5 166.5
t-179.5 63.5zM932 393h-875v185h875v-185z" />
    <glyph glyph-name="guillemotright" unicode="&#xbb;" horiz-adv-x="1017" 
d="M485 655v-245l-403 -269v246l205 145l-205 146v246zM936 655v-245l-404 -269v246l205 145l-205 146v246z" />
    <glyph glyph-name="onequarter" unicode="&#xbc;" horiz-adv-x="2050" 
d="M745 655h-725v176h273v343h-273v155l140 4q86 1 127.5 33t52.5 104h158v-639h247v-176zM367 0l1173 1470h227l-1173 -1470h-227zM1833 188v-188h-195v188h-526v158l459 469h262v-463h197v-164h-197zM1638 647l-292 -295h292v295z" />
    <glyph glyph-name="onehalf" unicode="&#xbd;" horiz-adv-x="2113" 
d="M745 655h-725v176h273v343h-273v155l140 4q86 1 127.5 33t52.5 104h158v-639h247v-176zM367 0l1173 1470h227l-1173 -1470h-227zM1268 0v156l358 188q146 76 186 113q41 41 41 84q0 51 -44.5 81.5t-122.5 30.5q-97 0 -164 -50t-84 -136l-187 41q21 138 144 229
q122 90 299 90q165 0 265.5 -74.5t100.5 -197.5q0 -91 -55.5 -158t-179.5 -127l-193 -96h447v-174h-811z" />
    <glyph glyph-name="threequarters" unicode="&#xbe;" horiz-adv-x="2062" 
d="M895 889q0 -105 -121 -176q-119 -70 -307 -70q-170 0 -290 61t-167 170l185 82q26 -63 102 -103t172 -40q93 0 150 25.5t57 68.5q0 84 -199 84h-151v158h145q184 0 184 80q0 37 -50 59.5t-136 22.5q-90 0 -158.5 -35.5t-93.5 -93.5l-176 78q41 100 161.5 161.5
t278.5 61.5q178 0 285.5 -66t107.5 -172q0 -60 -39.5 -106.5t-105.5 -65.5q166 -51 166 -184zM379 0l1173 1470h228l-1174 -1470h-227zM1845 188v-188h-194v188h-527v158l459 469h262v-463h197v-164h-197zM1651 647l-293 -295h293v295z" />
    <glyph glyph-name="questiondown" unicode="&#xbf;" horiz-adv-x="1402" 
d="M528 1493h297v-297h-297v297zM291 469q0 -121 102.5 -183.5t300.5 -62.5q183 0 306.5 76t146.5 203l256 -39q-38 -210 -234 -336q-198 -127 -489 -127q-297 0 -479 123q-181 126 -181 332q0 176 145 288.5t404 143.5v162h242v-344q-269 0 -394.5 -57t-125.5 -179z" />
    <glyph glyph-name="Agrave" unicode="&#xc0;" horiz-adv-x="1763" 
d="M-12 0l749 1470h289l748 -1470h-279l-186 369h-854l-187 -369h-280zM1194 598l-311 614l-312 -614h623zM768 1858l252 -302h-225l-389 302h362z" />
    <glyph glyph-name="Aacute" unicode="&#xc1;" horiz-adv-x="1763" 
d="M-12 0l749 1470h289l748 -1470h-279l-186 369h-854l-187 -369h-280zM1194 598l-311 614l-312 -614h623zM981 1556h-225l252 302h362z" />
    <glyph glyph-name="Acircumflex" unicode="&#xc2;" horiz-adv-x="1763" 
d="M-12 0l749 1470h289l748 -1470h-279l-186 369h-854l-187 -369h-280zM1194 598l-311 614l-312 -614h623zM737 1858h287l299 -302h-215l-227 146l-228 -146h-215z" />
    <glyph glyph-name="Atilde" unicode="&#xc3;" horiz-adv-x="1763" 
d="M-12 0l749 1470h289l748 -1470h-279l-186 369h-854l-187 -369h-280zM1194 598l-311 614l-312 -614h623zM674 1876q58 0 110 -14t134 -54q100 -49 151 -49q36 0 57 27.5t33 89.5h166q-11 -148 -74.5 -232.5t-165.5 -84.5q-58 0 -109.5 13.5t-133.5 53.5q-98 49 -150 49
q-37 0 -58.5 -27.5t-31.5 -88.5h-166q7 148 71 232.5t167 84.5z" />
    <glyph glyph-name="Adieresis" unicode="&#xc4;" horiz-adv-x="1763" 
d="M-12 0l749 1470h289l748 -1470h-279l-186 369h-854l-187 -369h-280zM1194 598l-311 614l-312 -614h623zM752 1556h-263v252h263v-252zM1272 1556h-262v252h262v-252z" />
    <glyph glyph-name="Aring" unicode="&#xc5;" horiz-adv-x="1763" 
d="M610 1628q0 105 77.5 175.5t193.5 70.5t193 -70.5t77 -175.5q0 -124 -104 -198l727 -1430h-279l-186 369h-854l-187 -369h-280l729 1427q-107 77 -107 201zM881 1739q-54 0 -87.5 -30.5t-33.5 -80.5q0 -47 35 -78.5t86 -31.5t85.5 31.5t34.5 78.5q0 50 -33 80.5t-87 30.5
zM1194 598l-311 614l-312 -614h623z" />
    <glyph glyph-name="AE" unicode="&#xc6;" horiz-adv-x="2883" 
d="M-25 0l1319 1470h1520v-229h-1163v-369h1046v-229h-1046v-414h1163v-229h-1421v360h-772l-320 -360h-326zM1393 1229l-568 -639h568v639z" />
    <glyph glyph-name="Ccedilla" unicode="&#xc7;" horiz-adv-x="1703" 
d="M51 735q0 327 246 541q248 217 621 217q278 0 480 -120t288 -335l-218 -118q-72 168 -211 255t-337 87q-262 0 -433 -148q-168 -146 -168 -379t168 -379q170 -147 433 -147q198 0 337 87t211 255l218 -119q-86 -215 -288 -335t-480 -120h-11l-6 -20q97 -6 156 -51
t59 -113q0 -79 -79.5 -130.5t-202.5 -51.5q-180 0 -273 74l86 125q73 -58 178 -58q119 0 119 53q0 30 -43.5 44t-152.5 18l34 119q-321 40 -528 247q-203 209 -203 502z" />
    <glyph glyph-name="Egrave" unicode="&#xc8;" horiz-adv-x="1630" 
d="M139 0v1470h1422v-229h-1164v-369h1047v-229h-1047v-414h1164v-229h-1422zM795 1858l252 -302h-226l-389 302h363z" />
    <glyph glyph-name="Eacute" unicode="&#xc9;" horiz-adv-x="1630" 
d="M139 0v1470h1422v-229h-1164v-369h1047v-229h-1047v-414h1164v-229h-1422zM920 1556h-226l252 302h363z" />
    <glyph glyph-name="Ecircumflex" unicode="&#xca;" horiz-adv-x="1630" 
d="M139 0v1470h1422v-229h-1164v-369h1047v-229h-1047v-414h1164v-229h-1422zM700 1858h287l299 -302h-215l-227 146l-228 -146h-215z" />
    <glyph glyph-name="Edieresis" unicode="&#xcb;" horiz-adv-x="1630" 
d="M139 0v1470h1422v-229h-1164v-369h1047v-229h-1047v-414h1164v-229h-1422zM715 1556h-262v252h262v-252zM1235 1556h-262v252h262v-252z" />
    <glyph glyph-name="Igrave" unicode="&#xcc;" horiz-adv-x="540" 
d="M139 1470h262v-1470h-262v1470zM129 1858l252 -302h-225l-389 302h362z" />
    <glyph glyph-name="Iacute" unicode="&#xcd;" horiz-adv-x="540" 
d="M139 1470h262v-1470h-262v1470zM383 1556h-225l252 302h362z" />
    <glyph glyph-name="Icircumflex" unicode="&#xce;" horiz-adv-x="540" 
d="M139 1470h262v-1470h-262v1470zM127 1858h287l299 -302h-215l-228 146l-227 -146h-215z" />
    <glyph glyph-name="Idieresis" unicode="&#xcf;" horiz-adv-x="540" 
d="M139 1470h262v-1470h-262v1470zM141 1556h-262v252h262v-252zM662 1556h-263v252h263v-252z" />
    <glyph glyph-name="Eth" unicode="&#xd0;" horiz-adv-x="1847" 
d="M967 0h-746v643h-213v225h213v602h746q378 0 604 -200q225 -200 225 -535q0 -337 -225 -536q-224 -199 -604 -199zM479 643v-418h488q259 0 410 137.5t151 372.5q0 233 -152 373q-149 137 -411 137h-486v-377h346v-225h-346z" />
    <glyph glyph-name="Ntilde" unicode="&#xd1;" horiz-adv-x="1763" 
d="M1372 1470h252v-1470h-229l-1004 1141v-1141h-252v1470h271l962 -1091v1091zM664 1876q58 0 109.5 -14t133.5 -54q100 -49 152 -49q36 0 57 27.5t33 89.5h166q-11 -148 -74.5 -232.5t-165.5 -84.5q-58 0 -110.5 13.5t-133.5 53.5q-98 49 -149 49q-37 0 -58.5 -27.5
t-31.5 -88.5h-166q7 148 71 232.5t167 84.5z" />
    <glyph glyph-name="Ograve" unicode="&#xd2;" horiz-adv-x="1826" 
d="M51 735q0 328 244 543q247 215 618 215q373 0 617 -215q246 -214 246 -543q0 -327 -246 -542q-245 -216 -617 -216q-370 0 -618 216q-244 215 -244 542zM1507 735q0 237 -164 381q-166 146 -430 146t-430 -146q-164 -144 -164 -381t164 -381q165 -145 430 -145t430 145
q164 144 164 381zM811 1858l252 -302h-225l-389 302h362z" />
    <glyph glyph-name="Oacute" unicode="&#xd3;" horiz-adv-x="1826" 
d="M51 735q0 328 244 543q247 215 618 215q373 0 617 -215q246 -214 246 -543q0 -327 -246 -542q-245 -216 -617 -216q-370 0 -618 216q-244 215 -244 542zM1507 735q0 237 -164 381q-166 146 -430 146t-430 -146q-164 -144 -164 -381t164 -381q165 -145 430 -145t430 145
q164 144 164 381zM999 1556h-225l252 302h363z" />
    <glyph glyph-name="Ocircumflex" unicode="&#xd4;" horiz-adv-x="1826" 
d="M51 735q0 328 244 543q247 215 618 215q373 0 617 -215q246 -214 246 -543q0 -327 -246 -542q-245 -216 -617 -216q-370 0 -618 216q-244 215 -244 542zM1507 735q0 237 -164 381q-166 146 -430 146t-430 -146q-164 -144 -164 -381t164 -381q165 -145 430 -145t430 145
q164 144 164 381zM770 1858h287l299 -302h-215l-228 146l-227 -146h-215z" />
    <glyph glyph-name="Otilde" unicode="&#xd5;" horiz-adv-x="1826" 
d="M51 735q0 328 244 543q247 215 618 215q373 0 617 -215q246 -214 246 -543q0 -327 -246 -542q-245 -216 -617 -216q-370 0 -618 216q-244 215 -244 542zM1507 735q0 237 -164 381q-166 146 -430 146t-430 -146q-164 -144 -164 -381t164 -381q165 -145 430 -145t430 145
q164 144 164 381zM707 1876q58 0 109.5 -14t133.5 -54q100 -49 152 -49q36 0 57 27.5t33 89.5h166q-11 -148 -74.5 -232.5t-165.5 -84.5q-58 0 -110.5 13.5t-133.5 53.5q-98 49 -149 49q-37 0 -58.5 -27.5t-31.5 -88.5h-166q7 148 71 232.5t167 84.5z" />
    <glyph glyph-name="Odieresis" unicode="&#xd6;" horiz-adv-x="1826" 
d="M51 735q0 328 244 543q247 215 618 215q373 0 617 -215q246 -214 246 -543q0 -327 -246 -542q-245 -216 -617 -216q-370 0 -618 216q-244 215 -244 542zM1507 735q0 237 -164 381q-166 146 -430 146t-430 -146q-164 -144 -164 -381t164 -381q165 -145 430 -145t430 145
q164 144 164 381zM784 1556h-262v252h262v-252zM1305 1556h-263v252h263v-252z" />
    <glyph glyph-name="multiply" unicode="&#xd7;" 
d="M166 221l502 500l-502 502l151 151l502 -500l502 500l149 -149l-499 -502l499 -502l-151 -151l-502 501l-500 -501z" />
    <glyph glyph-name="Oslash" unicode="&#xd8;" horiz-adv-x="1826" 
d="M231 -57l-155 155l160 154q-185 203 -185 483q0 328 244 543q247 215 618 215q306 0 525 -145l157 151l156 -156l-145 -141q170 -197 170 -467q0 -327 -246 -542q-245 -216 -617 -216q-283 0 -507 134zM913 1266q-264 0 -432 -148q-166 -144 -166 -383q0 -189 111 -327
l829 776q-143 82 -342 82zM913 205q265 0 433 145q165 146 165 385q0 181 -98 312l-821 -771q136 -71 321 -71z" />
    <glyph glyph-name="Ugrave" unicode="&#xd9;" horiz-adv-x="1679" 
d="M840 -20q-361 0 -553.5 189t-192.5 542v759h262v-751q0 -257 120 -382.5t364 -125.5t363.5 125.5t119.5 382.5v751h262v-759q0 -353 -192 -542t-553 -189zM776 1858l252 -302h-225l-389 302h362z" />
    <glyph glyph-name="Uacute" unicode="&#xda;" horiz-adv-x="1679" 
d="M840 -20q-361 0 -553.5 189t-192.5 542v759h262v-751q0 -257 120 -382.5t364 -125.5t363.5 125.5t119.5 382.5v751h262v-759q0 -353 -192 -542t-553 -189zM907 1556h-225l252 302h362z" />
    <glyph glyph-name="Ucircumflex" unicode="&#xdb;" horiz-adv-x="1679" 
d="M840 -20q-361 0 -553.5 189t-192.5 542v759h262v-751q0 -257 120 -382.5t364 -125.5t363.5 125.5t119.5 382.5v751h262v-759q0 -353 -192 -542t-553 -189zM696 1858h287l299 -302h-215l-227 146l-228 -146h-215z" />
    <glyph glyph-name="Udieresis" unicode="&#xdc;" horiz-adv-x="1679" 
d="M840 -20q-361 0 -553.5 189t-192.5 542v759h262v-751q0 -257 120 -382.5t364 -125.5t363.5 125.5t119.5 382.5v751h262v-759q0 -353 -192 -542t-553 -189zM711 1556h-262v252h262v-252zM1231 1556h-262v252h262v-252z" />
    <glyph glyph-name="Yacute" unicode="&#xdd;" horiz-adv-x="1710" 
d="M303 1470l555 -624l553 624h320l-744 -831v-639h-262v639l-745 831h323zM928 1556h-226l252 302h363z" />
    <glyph glyph-name="Thorn" unicode="&#xde;" horiz-adv-x="1634" 
d="M1595 756q0 -213 -144 -332t-398 -119h-652v-305h-262v1470h262v-264h652q257 0 399.5 -117.5t142.5 -332.5zM1038 987h-637v-463h637q141 0 220 61.5t79 170.5q0 110 -79 170.5t-220 60.5z" />
    <glyph glyph-name="germandbls" unicode="&#xdf;" horiz-adv-x="1480" 
d="M760 1493q229 0 370 -102q144 -102 144 -265q0 -101 -57 -175.5t-158 -110.5q181 -37 279 -141.5t98 -262.5q0 -201 -156 -330t-397 -129q-150 0 -273.5 51.5t-201.5 147.5l155 174q131 -168 322 -168q136 0 222.5 70.5t86.5 181.5q0 129 -116 197.5t-335 68.5h-215v215
h222q135 0 210.5 48.5t75.5 134.5q0 88 -74.5 138t-207.5 50q-182 0 -281.5 -97.5t-99.5 -270.5v-918h-244v928q0 245 174 403q174 162 457 162z" />
    <glyph glyph-name="agrave" unicode="&#xe0;" horiz-adv-x="1337" 
d="M961 145q-78 -79 -200 -123.5t-263 -44.5q-203 0 -325 90.5t-122 243.5q0 136 106.5 221.5t307.5 110.5l467 55v9q0 85 -76 132.5t-215 47.5q-123 0 -222 -50.5t-130 -129.5l-203 90q49 132 207 215q159 84 356 84q252 0 386 -101.5t134 -292.5v-452q0 -54 37 -66
q15 -6 37 -6q33 0 86 12v-190q-65 -12 -121 -12q-71 0 -121 20q-92 39 -126 137zM518 176q165 0 289 68q125 67 125 172v90l-426 -51q-116 -13 -165.5 -46.5t-49.5 -95.5q0 -66 59 -101.5t168 -35.5zM584 1470l223 -288h-209l-338 288h324z" />
    <glyph glyph-name="aacute" unicode="&#xe1;" horiz-adv-x="1337" 
d="M961 145q-78 -79 -200 -123.5t-263 -44.5q-203 0 -325 90.5t-122 243.5q0 136 106.5 221.5t307.5 110.5l467 55v9q0 85 -76 132.5t-215 47.5q-123 0 -222 -50.5t-130 -129.5l-203 90q49 132 207 215q159 84 356 84q252 0 386 -101.5t134 -292.5v-452q0 -54 37 -66
q15 -6 37 -6q33 0 86 12v-190q-65 -12 -121 -12q-71 0 -121 20q-92 39 -126 137zM518 176q165 0 289 68q125 67 125 172v90l-426 -51q-116 -13 -165.5 -46.5t-49.5 -95.5q0 -66 59 -101.5t168 -35.5zM742 1182h-209l223 288h324z" />
    <glyph glyph-name="acircumflex" unicode="&#xe2;" horiz-adv-x="1337" 
d="M961 145q-78 -79 -200 -123.5t-263 -44.5q-203 0 -325 90.5t-122 243.5q0 136 106.5 221.5t307.5 110.5l467 55v9q0 85 -76 132.5t-215 47.5q-123 0 -222 -50.5t-130 -129.5l-203 90q49 132 207 215q159 84 356 84q252 0 386 -101.5t134 -292.5v-452q0 -54 37 -66
q15 -6 37 -6q33 0 86 12v-190q-65 -12 -121 -12q-71 0 -121 20q-92 39 -126 137zM518 176q165 0 289 68q125 67 125 172v90l-426 -51q-116 -13 -165.5 -46.5t-49.5 -95.5q0 -66 59 -101.5t168 -35.5zM516 1470h258l265 -288h-199l-195 123l-194 -123h-199z" />
    <glyph glyph-name="atilde" unicode="&#xe3;" horiz-adv-x="1337" 
d="M961 145q-78 -79 -200 -123.5t-263 -44.5q-203 0 -325 90.5t-122 243.5q0 136 106.5 221.5t307.5 110.5l467 55v9q0 85 -76 132.5t-215 47.5q-123 0 -222 -50.5t-130 -129.5l-203 90q49 132 207 215q159 84 356 84q252 0 386 -101.5t134 -292.5v-452q0 -54 37 -66
q15 -6 37 -6q33 0 86 12v-190q-65 -12 -121 -12q-71 0 -121 20q-92 39 -126 137zM518 176q165 0 289 68q125 67 125 172v90l-426 -51q-116 -13 -165.5 -46.5t-49.5 -95.5q0 -66 59 -101.5t168 -35.5zM456 1485q47 0 90.5 -14t108.5 -54q73 -45 115 -45q31 0 49.5 26t28.5 87
h155q-8 -141 -64.5 -222t-148.5 -81q-47 0 -91.5 14t-108.5 53q-77 43 -113 43q-31 0 -49.5 -25t-28.5 -85h-156q8 141 64.5 222t148.5 81z" />
    <glyph glyph-name="adieresis" unicode="&#xe4;" horiz-adv-x="1337" 
d="M961 145q-78 -79 -200 -123.5t-263 -44.5q-203 0 -325 90.5t-122 243.5q0 136 106.5 221.5t307.5 110.5l467 55v9q0 85 -76 132.5t-215 47.5q-123 0 -222 -50.5t-130 -129.5l-203 90q49 132 207 215q159 84 356 84q252 0 386 -101.5t134 -292.5v-452q0 -54 37 -66
q15 -6 37 -6q33 0 86 12v-190q-65 -12 -121 -12q-71 0 -121 20q-92 39 -126 137zM518 176q165 0 289 68q125 67 125 172v90l-426 -51q-116 -13 -165.5 -46.5t-49.5 -95.5q0 -66 59 -101.5t168 -35.5zM532 1219h-262v251h262v-251zM1036 1219h-262v251h262v-251z" />
    <glyph glyph-name="aring" unicode="&#xe5;" horiz-adv-x="1337" 
d="M961 145q-78 -79 -200 -123.5t-263 -44.5q-203 0 -325 90.5t-122 243.5q0 136 106.5 221.5t307.5 110.5l467 55v9q0 85 -76 132.5t-215 47.5q-123 0 -222 -50.5t-130 -129.5l-203 90q49 132 207 215q159 84 356 84q252 0 386 -101.5t134 -292.5v-452q0 -54 37 -66
q15 -6 37 -6q33 0 86 12v-190q-65 -12 -121 -12q-71 0 -121 20q-92 39 -126 137zM518 176q165 0 289 68q125 67 125 172v90l-426 -51q-116 -13 -165.5 -46.5t-49.5 -95.5q0 -66 59 -101.5t168 -35.5zM641 1149q-96 0 -161.5 63t-65.5 156q0 92 65 154.5t162 62.5t162 -62.5
t65 -154.5q0 -93 -65.5 -156t-161.5 -63zM641 1466q-41 0 -68.5 -28.5t-27.5 -69.5t27.5 -69.5t68.5 -28.5t68.5 28.5t27.5 69.5t-27.5 69.5t-68.5 28.5z" />
    <glyph glyph-name="ae" unicode="&#xe6;" horiz-adv-x="2181" 
d="M51 311q0 156 131 247t359 91h391v58q0 85 -76 132.5t-215 47.5q-123 0 -222 -50.5t-130 -129.5l-203 90q49 132 207 215q159 84 356 84q326 0 451 -166q85 80 201.5 123t250.5 43q258 0 418 -154q160 -151 160 -391v-86h-965q25 -128 130 -203.5t257 -75.5
q128 0 223.5 59.5t137.5 162.5l196 -105q-55 -144 -208 -235q-154 -91 -349 -91q-168 0 -305.5 64t-216.5 180q-176 -244 -532 -244q-203 0 -325 90.5t-122 243.5zM1540 891q-134 0 -233 -66t-131 -176h716q-16 99 -116 168q-103 74 -236 74zM291 313q0 -66 59 -101.5
t168 -35.5q165 0 289 68q125 67 125 172v49h-375q-266 0 -266 -152z" />
    <glyph glyph-name="ccedilla" unicode="&#xe7;" horiz-adv-x="1241" 
d="M53 537q0 245 178 401q181 158 447 158q189 0 340 -95q150 -92 209 -239l-197 -113q-35 103 -133 170q-100 68 -221 68q-171 0 -281 -96q-106 -93 -106 -254t106 -254q111 -97 281 -97q121 0 221 68q98 67 133 170l195 -117q-59 -145 -207 -237q-149 -93 -330 -93l-6 -20
q97 -6 156 -51t59 -113q0 -79 -80 -130.5t-203 -51.5q-179 0 -272 74l86 125q73 -58 178 -58q119 0 119 53q0 30 -44 44t-153 18l35 119q-227 34 -368 184q-142 151 -142 367z" />
    <glyph glyph-name="egrave" unicode="&#xe8;" horiz-adv-x="1302" 
d="M674 -23q-272 0 -447 156q-174 155 -174 404q0 244 174 399q177 160 447 160q258 0 418 -154q159 -150 159 -391v-86h-964q25 -128 130 -203.5t257 -75.5q128 0 223 59.5t137 162.5l197 -105q-55 -143 -209 -235q-154 -91 -348 -91zM662 891q-136 0 -234.5 -65
t-130.5 -177h717q-15 101 -115 170q-104 72 -237 72zM604 1470l223 -288h-209l-337 288h323z" />
    <glyph glyph-name="eacute" unicode="&#xe9;" horiz-adv-x="1302" 
d="M674 -23q-272 0 -447 156q-174 155 -174 404q0 244 174 399q177 160 447 160q258 0 418 -154q159 -150 159 -391v-86h-964q25 -128 130 -203.5t257 -75.5q128 0 223 59.5t137 162.5l197 -105q-55 -143 -209 -235q-154 -91 -348 -91zM662 891q-136 0 -234.5 -65
t-130.5 -177h717q-15 101 -115 170q-104 72 -237 72zM762 1182h-209l223 288h324z" />
    <glyph glyph-name="ecircumflex" unicode="&#xea;" horiz-adv-x="1302" 
d="M674 -23q-272 0 -447 156q-174 155 -174 404q0 244 174 399q177 160 447 160q258 0 418 -154q159 -150 159 -391v-86h-964q25 -128 130 -203.5t257 -75.5q128 0 223 59.5t137 162.5l197 -105q-55 -143 -209 -235q-154 -91 -348 -91zM662 891q-136 0 -234.5 -65
t-130.5 -177h717q-15 101 -115 170q-104 72 -237 72zM538 1470h258l265 -288h-199l-195 123l-194 -123h-199z" />
    <glyph glyph-name="edieresis" unicode="&#xeb;" horiz-adv-x="1302" 
d="M674 -23q-272 0 -447 156q-174 155 -174 404q0 244 174 399q177 160 447 160q258 0 418 -154q159 -150 159 -391v-86h-964q25 -128 130 -203.5t257 -75.5q128 0 223 59.5t137 162.5l197 -105q-55 -143 -209 -235q-154 -91 -348 -91zM662 891q-136 0 -234.5 -65
t-130.5 -177h717q-15 101 -115 170q-104 72 -237 72zM537 1219h-263v251h263v-251zM1040 1219h-262v251h262v-251z" />
    <glyph glyph-name="igrave" unicode="&#xec;" horiz-adv-x="483" 
d="M119 1075h246v-1075h-246v1075zM133 1470l223 -288h-209l-337 288h323z" />
    <glyph glyph-name="iacute" unicode="&#xed;" horiz-adv-x="483" 
d="M119 1075h246v-1075h-246v1075zM338 1182h-209l223 288h324z" />
    <glyph glyph-name="icircumflex" unicode="&#xee;" horiz-adv-x="483" 
d="M119 1075h246v-1075h-246v1075zM112 1470h258l265 -288h-199l-195 123l-194 -123h-199z" />
    <glyph glyph-name="idieresis" unicode="&#xef;" horiz-adv-x="483" 
d="M119 1075h246v-1075h-246v1075zM121 1219h-262v251h262v-251zM625 1219h-263v251h263v-251z" />
    <glyph glyph-name="eth" unicode="&#xf0;" horiz-adv-x="1333" 
d="M643 1092q80 0 153.5 -16.5t118.5 -43.5q-64 83 -190 176l-465 -116v178l260 65q-90 53 -196 99l264 57q93 -43 182 -92l367 92v-178l-183 -47q160 -140 243 -314t83 -372q0 -268 -172 -437q-172 -166 -440 -166q-263 0 -441 158q-174 155 -174 402q0 241 170 397
q175 158 420 158zM668 885q-168 0 -273.5 -96.5t-105.5 -251.5t105.5 -252t273.5 -97q162 0 270 97q106 93 106 252q0 158 -106 251q-108 97 -270 97z" />
    <glyph glyph-name="ntilde" unicode="&#xf1;" horiz-adv-x="1339" 
d="M365 0h-246v1075h246v-141q67 76 170.5 119t226.5 43q216 0 341.5 -137.5t125.5 -372.5v-586h-246v545q0 153 -78 239t-219 86q-152 0 -236.5 -87.5t-84.5 -241.5v-541zM507 1485q47 0 90.5 -14t108.5 -54q73 -45 115 -45q31 0 49.5 26t28.5 87h155q-8 -141 -64.5 -222
t-148.5 -81q-47 0 -91.5 14t-108.5 53q-77 43 -113 43q-31 0 -49.5 -25t-28.5 -85h-156q8 141 64.5 222t148.5 81z" />
    <glyph glyph-name="ograve" unicode="&#xf2;" horiz-adv-x="1333" 
d="M668 1096q258 0 436 -158q176 -156 176 -401q0 -246 -176 -402q-178 -158 -436 -158q-263 0 -441 158q-174 155 -174 402q0 246 174 401q178 158 441 158zM668 885q-168 0 -273.5 -96.5t-105.5 -251.5t105.5 -252t273.5 -97q162 0 270 97q106 93 106 252q0 158 -106 251
q-108 97 -270 97zM580 1473l223 -289h-209l-338 289h324z" />
    <glyph glyph-name="oacute" unicode="&#xf3;" horiz-adv-x="1333" 
d="M668 1096q258 0 436 -158q176 -156 176 -401q0 -246 -176 -402q-178 -158 -436 -158q-263 0 -441 158q-174 155 -174 402q0 246 174 401q178 158 441 158zM668 885q-168 0 -273.5 -96.5t-105.5 -251.5t105.5 -252t273.5 -97q162 0 270 97q106 93 106 252q0 158 -106 251
q-108 97 -270 97zM752 1182h-209l223 288h324z" />
    <glyph glyph-name="ocircumflex" unicode="&#xf4;" horiz-adv-x="1333" 
d="M668 1096q258 0 436 -158q176 -156 176 -401q0 -246 -176 -402q-178 -158 -436 -158q-263 0 -441 158q-174 155 -174 402q0 246 174 401q178 158 441 158zM668 885q-168 0 -273.5 -96.5t-105.5 -251.5t105.5 -252t273.5 -97q162 0 270 97q106 93 106 252q0 158 -106 251
q-108 97 -270 97zM536 1470h258l265 -288h-199l-195 123l-194 -123h-199z" />
    <glyph glyph-name="otilde" unicode="&#xf5;" horiz-adv-x="1333" 
d="M668 1096q258 0 436 -158q176 -156 176 -401q0 -246 -176 -402q-178 -158 -436 -158q-263 0 -441 158q-174 155 -174 402q0 246 174 401q178 158 441 158zM668 885q-168 0 -273.5 -96.5t-105.5 -251.5t105.5 -252t273.5 -97q162 0 270 97q106 93 106 252q0 158 -106 251
q-108 97 -270 97zM499 1485q47 0 90.5 -14t108.5 -54q73 -45 115 -45q31 0 49.5 26t28.5 87h155q-8 -141 -64.5 -222t-148.5 -81q-47 0 -91.5 14t-108.5 53q-77 43 -113 43q-31 0 -49.5 -25t-28.5 -85h-156q8 141 64.5 222t148.5 81z" />
    <glyph glyph-name="odieresis" unicode="&#xf6;" horiz-adv-x="1333" 
d="M668 1096q258 0 436 -158q176 -156 176 -401q0 -246 -176 -402q-178 -158 -436 -158q-263 0 -441 158q-174 155 -174 402q0 246 174 401q178 158 441 158zM668 885q-168 0 -273.5 -96.5t-105.5 -251.5t105.5 -252t273.5 -97q162 0 270 97q106 93 106 252q0 158 -106 251
q-108 97 -270 97zM545 1219h-262v251h262v-251zM1049 1219h-263v251h263v-251z" />
    <glyph glyph-name="divide" unicode="&#xf7;" 
d="M956 1065h-278v270h278v-270zM1511 614h-1384v215h1384v-215zM956 109h-278v270h278v-270z" />
    <glyph glyph-name="oslash" unicode="&#xf8;" horiz-adv-x="1333" 
d="M55 537q0 246 174 401q178 158 439 158q202 0 350 -95l123 127l131 -122l-115 -121q123 -148 123 -348q0 -246 -176 -402q-178 -158 -436 -158q-203 0 -351 95l-122 -127l-132 123l115 120q-123 148 -123 349zM668 893q-172 0 -279 -98q-106 -97 -106 -258
q0 -120 59 -203l516 518q-90 41 -190 41zM668 180q168 0 276 99q109 100 109 258q0 117 -60 202l-516 -518q90 -41 191 -41z" />
    <glyph glyph-name="ugrave" unicode="&#xf9;" horiz-adv-x="1329" 
d="M965 1075h245v-1075h-245v139q-140 -162 -387 -162q-215 0 -342 136q-125 134 -125 364v598h245v-571q0 -148 74.5 -225.5t216.5 -77.5q152 0 235 85.5t83 239.5v549zM582 1470l223 -288h-209l-338 288h324z" />
    <glyph glyph-name="uacute" unicode="&#xfa;" horiz-adv-x="1329" 
d="M965 1075h245v-1075h-245v139q-140 -162 -387 -162q-215 0 -342 136q-125 134 -125 364v598h245v-571q0 -148 74.5 -225.5t216.5 -77.5q152 0 235 85.5t83 239.5v549zM744 1182h-209l223 288h324z" />
    <glyph glyph-name="ucircumflex" unicode="&#xfb;" horiz-adv-x="1329" 
d="M965 1075h245v-1075h-245v139q-140 -162 -387 -162q-215 0 -342 136q-125 134 -125 364v598h245v-571q0 -148 74.5 -225.5t216.5 -77.5q152 0 235 85.5t83 239.5v549zM530 1470h258l265 -288h-199l-195 123l-194 -123h-199z" />
    <glyph glyph-name="udieresis" unicode="&#xfc;" horiz-adv-x="1329" 
d="M965 1075h245v-1075h-245v139q-140 -162 -387 -162q-215 0 -342 136q-125 134 -125 364v598h245v-571q0 -148 74.5 -225.5t216.5 -77.5q152 0 235 85.5t83 239.5v549zM539 1219h-263v251h263v-251zM1042 1219h-262v251h262v-251z" />
    <glyph glyph-name="yacute" unicode="&#xfd;" horiz-adv-x="1314" 
d="M1315 1075l-576 -1175q-74 -150 -176 -217.5t-260 -67.5q-58 0 -124.5 13.5t-98.5 31.5l49 207q75 -41 160 -41q92 0 149 39t88 121l13 37l-539 1052h272l394 -805l383 805h266zM738 1182h-209l223 288h324z" />
    <glyph glyph-name="thorn" unicode="&#xfe;" horiz-adv-x="1425" 
d="M1372 537q0 -246 -164 -402q-166 -158 -426 -158q-130 0 -239.5 42t-177.5 116v-504h-246v1839h246v-532q68 74 177.5 116t239.5 42q260 0 426 -158q164 -156 164 -401zM748 891q-171 0 -283 -100q-113 -98 -113 -246v-17q0 -146 113 -247q114 -99 283 -99t280 97
q111 99 111 258q0 161 -111 256q-107 98 -280 98z" />
    <glyph glyph-name="ydieresis" unicode="&#xff;" horiz-adv-x="1314" 
d="M1315 1075l-576 -1175q-74 -150 -176 -217.5t-260 -67.5q-58 0 -124.5 13.5t-98.5 31.5l49 207q75 -41 160 -41q92 0 149 39t88 121l13 37l-539 1052h272l394 -805l383 805h266zM537 1219h-263v251h263v-251zM1040 1219h-262v251h262v-251z" />
    <glyph glyph-name="Amacron" unicode="&#x100;" horiz-adv-x="1763" 
d="M-12 0l749 1470h289l748 -1470h-279l-186 369h-854l-187 -369h-280zM1194 598l-311 614l-312 -614h623zM1274 1780v-203h-787v203h787z" />
    <glyph glyph-name="amacron" unicode="&#x101;" horiz-adv-x="1337" 
d="M961 145q-78 -79 -200 -123.5t-263 -44.5q-203 0 -325 90.5t-122 243.5q0 136 106.5 221.5t307.5 110.5l467 55v9q0 85 -76 132.5t-215 47.5q-123 0 -222 -50.5t-130 -129.5l-203 90q49 132 207 215q159 84 356 84q252 0 386 -101.5t134 -292.5v-452q0 -54 37 -66
q15 -6 37 -6q33 0 86 12v-190q-65 -12 -121 -12q-71 0 -121 20q-92 39 -126 137zM518 176q165 0 289 68q125 67 125 172v90l-426 -51q-116 -13 -165.5 -46.5t-49.5 -95.5q0 -66 59 -101.5t168 -35.5zM1010 1415v-194h-742v194h742z" />
    <glyph glyph-name="Abreve" unicode="&#x102;" horiz-adv-x="1763" 
d="M-12 0l749 1470h289l748 -1470h-279l-186 369h-854l-187 -369h-280zM1194 598l-311 614l-312 -614h623zM881 1720q94 0 154.5 39t60.5 99h184q0 -140 -108.5 -224t-290.5 -84q-183 0 -291.5 84t-108.5 224h185q0 -60 60.5 -99t154.5 -39z" />
    <glyph glyph-name="abreve" unicode="&#x103;" horiz-adv-x="1337" 
d="M961 145q-78 -79 -200 -123.5t-263 -44.5q-203 0 -325 90.5t-122 243.5q0 136 106.5 221.5t307.5 110.5l467 55v9q0 85 -76 132.5t-215 47.5q-123 0 -222 -50.5t-130 -129.5l-203 90q49 132 207 215q159 84 356 84q252 0 386 -101.5t134 -292.5v-452q0 -54 37 -66
q15 -6 37 -6q33 0 86 12v-190q-65 -12 -121 -12q-71 0 -121 20q-92 39 -126 137zM518 176q165 0 289 68q125 67 125 172v90l-426 -51q-116 -13 -165.5 -46.5t-49.5 -95.5q0 -66 59 -101.5t168 -35.5zM667 1346q188 0 203 124h168q0 -139 -99 -217.5t-272 -78.5
q-172 0 -271 78.5t-99 217.5h168q15 -124 202 -124z" />
    <glyph glyph-name="Aogonek" unicode="&#x104;" horiz-adv-x="1763" 
d="M1499 -381q-113 0 -184.5 50.5t-71.5 129.5t58 147.5t163 112.5l-155 310h-854l-187 -369h-280l749 1470h289l748 -1470h-129q-119 -38 -174.5 -75.5t-55.5 -80.5q0 -31 35 -49t96 -18q52 0 99 12v-154q-94 -16 -146 -16zM1194 598l-311 614l-312 -614h623z" />
    <glyph glyph-name="aogonek" unicode="&#x105;" horiz-adv-x="1337" 
d="M961 145q-78 -79 -200 -123.5t-263 -44.5q-203 0 -325 90.5t-122 243.5q0 136 106.5 221.5t307.5 110.5l467 55v9q0 85 -76 132.5t-215 47.5q-123 0 -222 -50.5t-130 -129.5l-203 90q49 132 207 215q159 84 356 84q252 0 386 -101.5t134 -292.5v-452q0 -54 37 -66
q15 -6 37 -6q33 0 86 12v-190q-119 -38 -174 -75.5t-55 -80.5q0 -31 35 -49t96 -18q51 0 98 12v-154q-94 -16 -145 -16q-113 0 -184.5 50.5t-71.5 129.5q0 62 36 118t103 99q-83 51 -106 129zM518 176q165 0 289 68q125 67 125 172v90l-426 -51q-116 -13 -165.5 -46.5
t-49.5 -95.5q0 -66 59 -101.5t168 -35.5z" />
    <glyph glyph-name="Cacute" unicode="&#x106;" horiz-adv-x="1703" 
d="M920 1262q-262 0 -433 -148q-168 -146 -168 -379t168 -379q170 -147 433 -147q198 0 337 87t211 255l218 -119q-86 -215 -288 -335t-480 -120q-370 0 -621 216q-246 218 -246 542q0 327 246 541q248 217 621 217q278 0 480 -120t288 -335l-218 -118q-72 168 -211 255
t-337 87zM1008 1556h-226l252 302h363z" />
    <glyph glyph-name="cacute" unicode="&#x107;" horiz-adv-x="1241" 
d="M676 887q-171 0 -281 -96q-106 -93 -106 -254t106 -254q111 -97 281 -97q121 0 221 68q98 67 133 170l195 -117q-59 -146 -209 -237q-152 -93 -338 -93q-266 0 -447 158q-178 156 -178 402q0 245 178 401q181 158 447 158q189 0 340 -95q150 -92 209 -239l-197 -113
q-35 103 -133 170q-100 68 -221 68zM752 1182h-209l223 288h324z" />
    <glyph glyph-name="Ccircumflex" unicode="&#x108;" horiz-adv-x="1703" 
d="M920 1262q-262 0 -433 -148q-168 -146 -168 -379t168 -379q170 -147 433 -147q198 0 337 87t211 255l218 -119q-86 -215 -288 -335t-480 -120q-370 0 -621 216q-246 218 -246 542q0 327 246 541q248 217 621 217q278 0 480 -120t288 -335l-218 -118q-72 168 -211 255
t-337 87zM766 1858h287l299 -302h-215l-228 146l-227 -146h-215z" />
    <glyph glyph-name="ccircumflex" unicode="&#x109;" horiz-adv-x="1241" 
d="M676 887q-171 0 -281 -96q-106 -93 -106 -254t106 -254q111 -97 281 -97q121 0 221 68q98 67 133 170l195 -117q-59 -146 -209 -237q-152 -93 -338 -93q-266 0 -447 158q-178 156 -178 402q0 245 178 401q181 158 447 158q189 0 340 -95q150 -92 209 -239l-197 -113
q-35 103 -133 170q-100 68 -221 68zM538 1470h258l265 -288h-199l-195 123l-194 -123h-199z" />
    <glyph glyph-name="Cdotaccent" unicode="&#x10a;" horiz-adv-x="1703" 
d="M920 1262q-262 0 -433 -148q-168 -146 -168 -379t168 -379q170 -147 433 -147q198 0 337 87t211 255l218 -119q-86 -215 -288 -335t-480 -120q-370 0 -621 216q-246 218 -246 542q0 327 246 541q248 217 621 217q278 0 480 -120t288 -335l-218 -118q-72 168 -211 255
t-337 87zM1032 1556h-262v252h262v-252z" />
    <glyph glyph-name="cdotaccent" unicode="&#x10b;" horiz-adv-x="1241" 
d="M676 887q-171 0 -281 -96q-106 -93 -106 -254t106 -254q111 -97 281 -97q121 0 221 68q98 67 133 170l195 -117q-59 -146 -209 -237q-152 -93 -338 -93q-266 0 -447 158q-178 156 -178 402q0 245 178 401q181 158 447 158q189 0 340 -95q150 -92 209 -239l-197 -113
q-35 103 -133 170q-100 68 -221 68zM795 1219h-254v251h254v-251z" />
    <glyph glyph-name="Ccaron" unicode="&#x10c;" horiz-adv-x="1703" 
d="M920 1262q-262 0 -433 -148q-168 -146 -168 -379t168 -379q170 -147 433 -147q198 0 337 87t211 255l218 -119q-86 -215 -288 -335t-480 -120q-370 0 -621 216q-246 218 -246 542q0 327 246 541q248 217 621 217q278 0 480 -120t288 -335l-218 -118q-72 168 -211 255
t-337 87zM1358 1858l-299 -302h-287l-299 302h215l227 -146l228 146h215z" />
    <glyph glyph-name="ccaron" unicode="&#x10d;" horiz-adv-x="1241" 
d="M676 887q-171 0 -281 -96q-106 -93 -106 -254t106 -254q111 -97 281 -97q121 0 221 68q98 67 133 170l195 -117q-59 -146 -209 -237q-152 -93 -338 -93q-266 0 -447 158q-178 156 -178 402q0 245 178 401q181 158 447 158q189 0 340 -95q150 -92 209 -239l-197 -113
q-35 103 -133 170q-100 68 -221 68zM1069 1470l-264 -288h-258l-264 288h198l195 -122l194 122h199z" />
    <glyph glyph-name="Dcaron" unicode="&#x10e;" horiz-adv-x="1765" 
d="M885 0h-746v1470h746q378 0 604 -200q225 -200 225 -535q0 -337 -225 -536q-224 -199 -604 -199zM397 1245v-1020h488q259 0 410 137.5t151 372.5q0 233 -152 373q-149 137 -411 137h-486zM1257 1858l-299 -302h-286l-299 302h215l227 -146l227 146h215z" />
    <glyph glyph-name="dcaron" unicode="&#x10f;" horiz-adv-x="1425" 
d="M643 -23q-260 0 -426 158q-164 156 -164 402q0 245 164 401q166 158 426 158q130 0 240 -42t178 -116v532h246v-1470h-246v135q-68 -74 -178 -116t-240 -42zM1073 528v17q0 146 -115 246q-112 100 -280 100q-173 0 -283 -98q-108 -95 -108 -256q0 -159 108 -258
q114 -97 283 -97q166 0 280 99q115 103 115 247zM1577 1137h-168l55 333h279z" />
    <glyph glyph-name="Dcroat" unicode="&#x110;" horiz-adv-x="1847" 
d="M967 0h-746v643h-213v225h213v602h746q378 0 604 -200q225 -200 225 -535q0 -337 -225 -536q-224 -199 -604 -199zM479 643v-418h488q259 0 410 137.5t151 372.5q0 233 -152 373q-149 137 -411 137h-486v-377h346v-225h-346z" />
    <glyph glyph-name="dslash" unicode="&#x111;" horiz-adv-x="1507" 
d="M643 -23q-260 0 -426 158q-164 156 -164 402q0 245 164 401q166 158 426 158q130 0 240 -42t178 -116v221h-338v195h338v116h246v-116h153v-195h-153v-1159h-246v135q-68 -74 -178 -116t-240 -42zM1073 528v17q0 146 -115 246q-112 100 -280 100q-173 0 -283 -98
q-108 -95 -108 -256q0 -159 108 -258q114 -97 283 -97q166 0 280 99q115 103 115 247z" />
    <glyph glyph-name="Emacron" unicode="&#x112;" horiz-adv-x="1630" 
d="M139 0v1470h1422v-229h-1164v-369h1047v-229h-1047v-414h1164v-229h-1422zM1237 1780v-203h-786v203h786z" />
    <glyph glyph-name="emacron" unicode="&#x113;" horiz-adv-x="1302" 
d="M674 -23q-272 0 -447 156q-174 155 -174 404q0 244 174 399q177 160 447 160q258 0 418 -154q159 -150 159 -391v-86h-964q25 -128 130 -203.5t257 -75.5q128 0 223 59.5t137 162.5l197 -105q-55 -143 -209 -235q-154 -91 -348 -91zM662 891q-136 0 -234.5 -65
t-130.5 -177h717q-15 101 -115 170q-104 72 -237 72zM1032 1415v-194h-741v194h741z" />
    <glyph glyph-name="Ebreve" unicode="&#x114;" horiz-adv-x="1630" 
d="M139 0v1470h1422v-229h-1164v-369h1047v-229h-1047v-414h1164v-229h-1422zM844 1720q94 0 154.5 39t60.5 99h184q0 -140 -108.5 -224t-290.5 -84q-183 0 -291.5 84t-108.5 224h185q0 -60 60.5 -99t154.5 -39z" />
    <glyph glyph-name="ebreve" unicode="&#x115;" horiz-adv-x="1302" 
d="M674 -23q-272 0 -447 156q-174 155 -174 404q0 244 174 399q177 160 447 160q258 0 418 -154q159 -150 159 -391v-86h-964q25 -128 130 -203.5t257 -75.5q128 0 223 59.5t137 162.5l197 -105q-55 -143 -209 -235q-154 -91 -348 -91zM662 891q-136 0 -234.5 -65
t-130.5 -177h717q-15 101 -115 170q-104 72 -237 72zM667 1346q188 0 203 124h168q0 -139 -99 -217.5t-272 -78.5q-172 0 -271 78.5t-99 217.5h168q15 -124 202 -124z" />
    <glyph glyph-name="Edotaccent" unicode="&#x116;" horiz-adv-x="1630" 
d="M139 0v1470h1422v-229h-1164v-369h1047v-229h-1047v-414h1164v-229h-1422zM975 1556h-262v252h262v-252z" />
    <glyph glyph-name="edotaccent" unicode="&#x117;" horiz-adv-x="1302" 
d="M674 -23q-272 0 -447 156q-174 155 -174 404q0 244 174 399q177 160 447 160q258 0 418 -154q159 -150 159 -391v-86h-964q25 -128 130 -203.5t257 -75.5q128 0 223 59.5t137 162.5l197 -105q-55 -143 -209 -235q-154 -91 -348 -91zM662 891q-136 0 -234.5 -65
t-130.5 -177h717q-15 101 -115 170q-104 72 -237 72zM782 1219h-254v251h254v-251z" />
    <glyph glyph-name="Eogonek" unicode="&#x118;" horiz-adv-x="1630" 
d="M1264 -381q-113 0 -184.5 50.5t-71.5 129.5q0 116 114 201h-983v1470h1422v-229h-1164v-369h1047v-229h-1047v-414h1164v-229h-152q-119 -38 -174 -75.5t-55 -80.5q0 -31 35 -49t96 -18q51 0 98 12v-154q-94 -16 -145 -16z" />
    <glyph glyph-name="eogonek" unicode="&#x119;" horiz-adv-x="1302" 
d="M928 23q-176 -65 -176 -156q0 -41 35 -65.5t96 -24.5q51 0 98 12v-154q-94 -16 -145 -16q-113 0 -184.5 56.5t-71.5 146.5q0 80 63 155q-258 9 -426 166q-164 156 -164 394q0 244 174 399q177 160 447 160q258 0 418 -154q159 -150 159 -391v-86h-964q25 -128 130 -203.5
t257 -75.5q128 0 223 59.5t137 162.5l197 -105q-37 -93 -116 -166t-187 -114zM662 891q-134 0 -233.5 -66t-131.5 -176h717q-16 98 -117 168q-103 74 -235 74z" />
    <glyph glyph-name="Ecaron" unicode="&#x11a;" horiz-adv-x="1630" 
d="M139 0v1470h1422v-229h-1164v-369h1047v-229h-1047v-414h1164v-229h-1422zM1286 1858l-299 -302h-287l-299 302h215l228 -146l227 146h215z" />
    <glyph glyph-name="ecaron" unicode="&#x11b;" horiz-adv-x="1302" 
d="M674 -23q-272 0 -447 156q-174 155 -174 404q0 244 174 399q177 160 447 160q258 0 418 -154q159 -150 159 -391v-86h-964q25 -128 130 -203.5t257 -75.5q128 0 223 59.5t137 162.5l197 -105q-55 -143 -209 -235q-154 -91 -348 -91zM662 891q-136 0 -234.5 -65
t-130.5 -177h717q-15 101 -115 170q-104 72 -237 72zM1061 1470l-264 -288h-258l-265 288h199l195 -122l194 122h199z" />
    <glyph glyph-name="Gcircumflex" unicode="&#x11c;" horiz-adv-x="1832" 
d="M1731 0h-246v188q-71 -92 -228 -151q-160 -60 -335 -60q-374 0 -625 216q-246 217 -246 546q0 327 250 539q250 215 631 215q282 0 487 -119.5t291 -333.5l-217 -120q-72 166 -215.5 254t-343.5 88q-267 0 -442 -146q-170 -144 -170 -379q0 -236 167 -381
q169 -147 433 -147q230 0 399 102t178 252h-702v230h934v-793zM788 1858h287l299 -302h-215l-227 146l-227 -146h-216z" />
    <glyph glyph-name="gcircumflex" unicode="&#x11d;" horiz-adv-x="1413" 
d="M1294 1075v-934q0 -237 -180 -383q-180 -149 -461 -149q-220 0 -379.5 78t-222.5 215l197 127q38 -100 147.5 -161t251.5 -61q179 0 290.5 86t111.5 226v49q-152 -158 -414 -158q-261 0 -426 154q-164 156 -164 391q0 234 164 387q165 154 426 154q254 0 414 -154v133
h245zM1063 553v6q0 146 -113 240t-282 94t-279 -94q-108 -95 -108 -244t108 -244q110 -94 279 -94t282 94t113 242zM541 1470h258l264 -288h-199l-194 123l-195 -123h-199z" />
    <glyph glyph-name="Gbreve" unicode="&#x11e;" horiz-adv-x="1832" 
d="M1731 0h-246v188q-71 -92 -228 -151q-160 -60 -335 -60q-374 0 -625 216q-246 217 -246 546q0 327 250 539q250 215 631 215q282 0 487 -119.5t291 -333.5l-217 -120q-72 166 -215.5 254t-343.5 88q-267 0 -442 -146q-170 -144 -170 -379q0 -236 167 -381
q169 -147 433 -147q230 0 399 102t178 252h-702v230h934v-793zM932 1720q94 0 154.5 39t60.5 99h184q0 -140 -108.5 -224t-290.5 -84q-183 0 -291.5 84t-108.5 224h185q0 -60 60.5 -99t154.5 -39z" />
    <glyph glyph-name="gbreve" unicode="&#x11f;" horiz-adv-x="1413" 
d="M1294 1075v-934q0 -237 -180 -383q-180 -149 -461 -149q-220 0 -379.5 78t-222.5 215l197 127q38 -100 147.5 -161t251.5 -61q179 0 290.5 86t111.5 226v49q-152 -158 -414 -158q-261 0 -426 154q-164 156 -164 391q0 234 164 387q165 154 426 154q254 0 414 -154v133
h245zM1063 553v6q0 146 -113 240t-282 94t-279 -94q-108 -95 -108 -244t108 -244q110 -94 279 -94t282 94t113 242zM684 1346q188 0 203 124h168q0 -139 -99 -217.5t-272 -78.5q-172 0 -271 78.5t-99 217.5h168q15 -124 202 -124z" />
    <glyph glyph-name="Gdotaccent" unicode="&#x120;" horiz-adv-x="1832" 
d="M1731 0h-246v188q-71 -92 -228 -151q-160 -60 -335 -60q-374 0 -625 216q-246 217 -246 546q0 327 250 539q250 215 631 215q282 0 487 -119.5t291 -333.5l-217 -120q-72 166 -215.5 254t-343.5 88q-267 0 -442 -146q-170 -144 -170 -379q0 -236 167 -381
q169 -147 433 -147q230 0 399 102t178 252h-702v230h934v-793zM1063 1556h-262v252h262v-252z" />
    <glyph glyph-name="gdotaccent" unicode="&#x121;" horiz-adv-x="1413" 
d="M1294 1075v-934q0 -237 -180 -383q-180 -149 -461 -149q-220 0 -379.5 78t-222.5 215l197 127q38 -100 147.5 -161t251.5 -61q179 0 290.5 86t111.5 226v49q-152 -158 -414 -158q-261 0 -426 154q-164 156 -164 391q0 234 164 387q165 154 426 154q254 0 414 -154v133
h245zM1063 553v6q0 146 -113 240t-282 94t-279 -94q-108 -95 -108 -244t108 -244q110 -94 279 -94t282 94t113 242zM817 1219h-254v251h254v-251z" />
    <glyph glyph-name="Gcommaaccent" unicode="&#x122;" horiz-adv-x="1832" 
d="M1731 0h-246v188q-71 -92 -228 -151q-160 -60 -335 -60q-374 0 -625 216q-246 217 -246 546q0 327 250 539q250 215 631 215q282 0 487 -119.5t291 -333.5l-217 -120q-72 166 -215.5 254t-343.5 88q-267 0 -442 -146q-170 -144 -170 -379q0 -236 167 -381
q169 -147 433 -147q230 0 399 102t178 252h-702v230h934v-793zM866 -240h-98v164h246v-129q0 -96 -66.5 -151.5t-179.5 -55.5v107q45 0 68.5 15t29.5 50z" />
    <glyph glyph-name="gcommaaccent" unicode="&#x123;" horiz-adv-x="1413" 
d="M1294 1075v-934q0 -237 -180 -383q-180 -149 -461 -149q-220 0 -379.5 78t-222.5 215l197 127q38 -100 147.5 -161t251.5 -61q179 0 290.5 86t111.5 226v49q-152 -158 -414 -158q-261 0 -426 154q-164 156 -164 391q0 234 164 387q165 154 426 154q254 0 414 -154v133
h245zM1063 553v6q0 146 -113 240t-282 94t-279 -94q-108 -95 -108 -244t108 -244q110 -94 279 -94t282 94t113 242zM715 1346h98v-164h-246v129q0 96 66.5 151.5t179.5 55.5v-107q-45 0 -68.5 -15t-29.5 -50z" />
    <glyph glyph-name="Hcircumflex" unicode="&#x124;" horiz-adv-x="1802" 
d="M1401 872v598h262v-1470h-262v643h-1000v-643h-262v1470h262v-598h1000zM737 1858h287l299 -302h-215l-227 146l-228 -146h-215z" />
    <glyph glyph-name="hcircumflex" unicode="&#x125;" horiz-adv-x="1339" 
d="M365 0h-246v1470h246v-536q67 76 170.5 119t226.5 43q216 0 341.5 -137.5t125.5 -372.5v-586h-246v545q0 153 -78 239t-219 86q-152 0 -236.5 -87.5t-84.5 -241.5v-541zM502 1858h286l299 -302h-215l-227 146l-227 -146h-215z" />
    <glyph glyph-name="Hbar" unicode="&#x126;" horiz-adv-x="1884" 
d="M1892 1194v-225h-188v-969h-262v518h-1000v-518h-262v969h-176v225h176v276h262v-276h1000v276h262v-276h188zM442 969v-226h1000v226h-1000z" />
    <glyph glyph-name="hbar" unicode="&#x127;" horiz-adv-x="1421" 
d="M446 0h-245v1159h-154v195h154v116h245v-116h338v-195h-338v-225q67 76 171 119t227 43q216 0 341.5 -137.5t125.5 -372.5v-586h-246v545q0 153 -78 239t-219 86q-152 0 -237 -87.5t-85 -241.5v-541z" />
    <glyph glyph-name="Itilde" unicode="&#x128;" horiz-adv-x="540" 
d="M139 1470h262v-1470h-262v1470zM63 1876q58 0 110 -14t134 -54q100 -49 152 -49q36 0 57 27.5t33 89.5h166q-11 -148 -74.5 -232.5t-165.5 -84.5q-58 0 -110.5 13.5t-133.5 53.5q-98 49 -149 49q-37 0 -58.5 -27.5t-31.5 -88.5h-166q7 148 70.5 232.5t166.5 84.5z" />
    <glyph glyph-name="itilde" unicode="&#x129;" horiz-adv-x="483" 
d="M119 1075h246v-1075h-246v1075zM73 1485q47 0 90.5 -14t108.5 -54q73 -45 115 -45q31 0 49.5 26t28.5 87h155q-8 -141 -64.5 -222t-148.5 -81q-47 0 -91.5 14t-108.5 53q-77 43 -113 43q-31 0 -49.5 -25t-28.5 -85h-156q8 141 64.5 222t148.5 81z" />
    <glyph glyph-name="Imacron" unicode="&#x12a;" horiz-adv-x="540" 
d="M139 1470h262v-1470h-262v1470zM664 1780v-203h-787v203h787z" />
    <glyph glyph-name="imacron" unicode="&#x12b;" horiz-adv-x="483" 
d="M119 1075h246v-1075h-246v1075zM612 1415v-194h-741v194h741z" />
    <glyph glyph-name="Ibreve" unicode="&#x12c;" horiz-adv-x="540" 
d="M139 1470h262v-1470h-262v1470zM270 1720q94 0 154.5 39t60.5 99h185q0 -140 -108.5 -224t-291.5 -84q-182 0 -290.5 84t-108.5 224h184q0 -60 60.5 -99t154.5 -39z" />
    <glyph glyph-name="ibreve" unicode="&#x12d;" horiz-adv-x="483" 
d="M119 1075h246v-1075h-246v1075zM241 1346q188 0 203 124h168q0 -139 -99 -217.5t-272 -78.5q-172 0 -271 78.5t-99 217.5h168q15 -124 202 -124z" />
    <glyph glyph-name="Iogonek" unicode="&#x12e;" horiz-adv-x="540" 
d="M256 -381q-113 0 -184.5 50.5t-71.5 129.5q0 62 36 118t103 99v1454h262v-1470q-119 -38 -174 -75.5t-55 -80.5q0 -31 35 -49t96 -18q51 0 98 12v-154q-94 -16 -145 -16z" />
    <glyph glyph-name="iogonek" unicode="&#x12f;" horiz-adv-x="483" 
d="M369 1219h-254v251h254v-251zM242 -381q-113 0 -184.5 50.5t-71.5 129.5q0 127 133 213v1063h246v-1050l22 -25q-119 -38 -174 -75.5t-55 -80.5q0 -31 35 -49t96 -18q51 0 98 12v-154q-94 -16 -145 -16z" />
    <glyph glyph-name="Idot" unicode="&#x130;" horiz-adv-x="540" 
d="M139 1470h262v-1470h-262v1470zM401 1556h-262v252h262v-252z" />
    <glyph glyph-name="dotlessi" unicode="&#x131;" horiz-adv-x="483" 
d="M119 1075h246v-1075h-246v1075z" />
    <glyph glyph-name="Jcircumflex" unicode="&#x134;" horiz-adv-x="1443" 
d="M684 -23q-242 0 -434 121q-192 124 -250 316l242 129q36 -151 155 -242q125 -94 287 -94q192 0 297.5 91t105.5 257v915h263v-921q0 -255 -185 -414q-187 -158 -481 -158zM1069 1858h287l299 -302h-215l-228 146l-227 -146h-215z" />
    <glyph glyph-name="jcircumflex" unicode="&#x135;" horiz-adv-x="483" 
d="M-84 -174q108 0 155.5 45.5t47.5 148.5v1055h246v-1042q0 -207 -110.5 -312.5t-324.5 -105.5q-116 0 -221 37l37 203q91 -29 170 -29zM113 1470h258l264 -288h-199l-194 123l-195 -123h-199z" />
    <glyph glyph-name="Kcommaaccent" unicode="&#x136;" horiz-adv-x="1675" 
d="M139 1470h262v-737l883 737h373l-780 -628l827 -842h-352l-666 688l-285 -227v-461h-262v1470zM840 -240h-99v164h246v-129q0 -96 -66.5 -151.5t-179.5 -55.5v107q88 0 99 65z" />
    <glyph glyph-name="kcommaaccent" unicode="&#x137;" horiz-adv-x="1335" 
d="M119 1470h246v-933l636 538h345l-572 -471l594 -604h-315l-455 459l-233 -193v-266h-246v1470zM678 -240h-98v164h245v-129q0 -96 -66 -151.5t-179 -55.5v107q45 0 68.5 15t29.5 50z" />
    <glyph glyph-name="kgreenlandic" unicode="&#x138;" horiz-adv-x="1335" 
d="M119 1075h246v-538l636 538h345l-572 -471l594 -604h-315l-455 459l-233 -193v-266h-246v1075z" />
    <glyph glyph-name="Lacute" unicode="&#x139;" horiz-adv-x="1521" 
d="M1475 0h-1336v1470h262v-1241h1074v-229zM387 1556h-225l252 302h362z" />
    <glyph glyph-name="lacute" unicode="&#x13a;" horiz-adv-x="483" 
d="M119 1470h246v-1470h-246v1470zM365 1556h-226l252 302h363z" />
    <glyph glyph-name="Lcommaaccent" unicode="&#x13b;" horiz-adv-x="1521" 
d="M1475 0h-1336v1470h262v-1241h1074v-229zM602 -240h-98v164h246v-129q0 -96 -66.5 -151.5t-179.5 -55.5v107q45 0 68.5 15t29.5 50z" />
    <glyph glyph-name="lcommaaccent" unicode="&#x13c;" horiz-adv-x="483" 
d="M119 1470h246v-1470h-246v1470zM217 -240h-98v164h246v-129q0 -96 -66.5 -151.5t-179.5 -55.5v107q45 0 68.5 15t29.5 50z" />
    <glyph glyph-name="Lcaron" unicode="&#x13d;" horiz-adv-x="1521" 
d="M1475 0h-1336v1470h262v-1241h1074v-229zM856 1137h-168l55 333h279z" />
    <glyph glyph-name="lcaron" unicode="&#x13e;" horiz-adv-x="483" 
d="M119 1470h246v-1470h-246v1470zM635 1137h-168l55 333h279z" />
    <glyph glyph-name="Ldot" unicode="&#x13f;" horiz-adv-x="1521" 
d="M1475 0h-1336v1470h262v-1241h1074v-229zM1157 618h-254v252h254v-252z" />
    <glyph glyph-name="ldot" unicode="&#x140;" horiz-adv-x="831" 
d="M119 1470h246v-1470h-246v1470zM784 618h-254v252h254v-252z" />
    <glyph glyph-name="Lslash" unicode="&#x141;" horiz-adv-x="1562" 
d="M1516 0h-1336v510l-198 -76v219l198 76v741h262v-653l441 168v-221l-441 -166v-369h1074v-229z" />
    <glyph glyph-name="lslash" unicode="&#x142;" horiz-adv-x="688" 
d="M684 1087v-225l-217 -106v-756h-246v653l-213 -104v225l213 105v591h246v-489z" />
    <glyph glyph-name="Nacute" unicode="&#x143;" horiz-adv-x="1763" 
d="M1372 1470h252v-1470h-229l-1004 1141v-1141h-252v1470h271l962 -1091v1091zM946 1556h-225l252 302h362z" />
    <glyph glyph-name="nacute" unicode="&#x144;" horiz-adv-x="1339" 
d="M365 0h-246v1075h246v-141q67 76 170.5 119t226.5 43q216 0 341.5 -137.5t125.5 -372.5v-586h-246v545q0 153 -78 239t-219 86q-152 0 -236.5 -87.5t-84.5 -241.5v-541zM776 1182h-209l223 288h324z" />
    <glyph glyph-name="Ncommaaccent" unicode="&#x145;" horiz-adv-x="1763" 
d="M1372 1470h252v-1470h-229l-1004 1141v-1141h-252v1470h271l962 -1091v1091zM846 -240h-98v164h245v-129q0 -96 -66 -151.5t-179 -55.5v107q45 0 68.5 15t29.5 50z" />
    <glyph glyph-name="ncommaaccent" unicode="&#x146;" horiz-adv-x="1339" 
d="M365 0h-246v1075h246v-141q67 76 170.5 119t226.5 43q216 0 341.5 -137.5t125.5 -372.5v-586h-246v545q0 153 -78 239t-219 86q-152 0 -236.5 -87.5t-84.5 -241.5v-541zM649 -240h-98v164h246v-129q0 -96 -66.5 -151.5t-179.5 -55.5v107q45 0 68.5 15t29.5 50z" />
    <glyph glyph-name="Ncaron" unicode="&#x147;" horiz-adv-x="1763" 
d="M1372 1470h252v-1470h-229l-1004 1141v-1141h-252v1470h271l962 -1091v1091zM1313 1858l-299 -302h-287l-299 302h215l227 -146l228 146h215z" />
    <glyph glyph-name="ncaron" unicode="&#x148;" horiz-adv-x="1339" 
d="M365 0h-246v1075h246v-141q67 76 170.5 119t226.5 43q216 0 341.5 -137.5t125.5 -372.5v-586h-246v545q0 153 -78 239t-219 86q-152 0 -236.5 -87.5t-84.5 -241.5v-541zM1067 1470l-264 -288h-258l-264 288h198l195 -122l194 122h199z" />
    <glyph glyph-name="Eng" unicode="&#x14a;" horiz-adv-x="1763" 
d="M1372 379v1091h252v-1437q0 -207 -110 -312.5t-324 -105.5q-116 0 -221 37l37 203q91 -29 170 -29q202 0 202 176v16l-987 1108v-1126h-252v1470h271z" />
    <glyph glyph-name="eng" unicode="&#x14b;" horiz-adv-x="1339" 
d="M762 1096q216 0 341.5 -137.5t125.5 -372.5v-553q0 -207 -110 -312.5t-324 -105.5q-53 0 -117 11.5t-105 25.5l37 203q91 -29 170 -29q108 0 155.5 45.5t47.5 148.5v525q0 153 -78 239t-219 86q-152 0 -236.5 -87.5t-84.5 -241.5v-541h-246v1075h246v-141
q67 76 170.5 119t226.5 43z" />
    <glyph glyph-name="Omacron" unicode="&#x14c;" horiz-adv-x="1826" 
d="M51 735q0 328 244 543q247 215 618 215q373 0 617 -215q246 -214 246 -543q0 -327 -246 -542q-245 -216 -617 -216q-370 0 -618 216q-244 215 -244 542zM1507 735q0 237 -164 381q-166 146 -430 146t-430 -146q-164 -144 -164 -381t164 -381q165 -145 430 -145t430 145
q164 144 164 381zM1307 1780v-203h-787v203h787z" />
    <glyph glyph-name="omacron" unicode="&#x14d;" horiz-adv-x="1333" 
d="M668 1096q258 0 436 -158q176 -156 176 -401q0 -246 -176 -402q-178 -158 -436 -158q-263 0 -441 158q-174 155 -174 402q0 246 174 401q178 158 441 158zM668 885q-168 0 -273.5 -96.5t-105.5 -251.5t105.5 -252t273.5 -97q162 0 270 97q106 93 106 252q0 158 -106 251
q-108 97 -270 97zM1036 1415v-194h-741v194h741z" />
    <glyph glyph-name="Obreve" unicode="&#x14e;" horiz-adv-x="1826" 
d="M51 735q0 328 244 543q247 215 618 215q373 0 617 -215q246 -214 246 -543q0 -327 -246 -542q-245 -216 -617 -216q-370 0 -618 216q-244 215 -244 542zM1507 735q0 237 -164 381q-166 146 -430 146t-430 -146q-164 -144 -164 -381t164 -381q165 -145 430 -145t430 145
q164 144 164 381zM913 1720q94 0 154.5 39t60.5 99h185q0 -140 -108.5 -224t-291.5 -84q-182 0 -290.5 84t-108.5 224h184q0 -60 60.5 -99t154.5 -39z" />
    <glyph glyph-name="obreve" unicode="&#x14f;" horiz-adv-x="1333" 
d="M668 1096q258 0 436 -158q176 -156 176 -401q0 -246 -176 -402q-178 -158 -436 -158q-263 0 -441 158q-174 155 -174 402q0 246 174 401q178 158 441 158zM668 885q-168 0 -273.5 -96.5t-105.5 -251.5t105.5 -252t273.5 -97q162 0 270 97q106 93 106 252q0 158 -106 251
q-108 97 -270 97zM665 1346q188 0 203 124h168q0 -139 -99 -217.5t-272 -78.5q-172 0 -271 78.5t-99 217.5h168q15 -124 202 -124z" />
    <glyph glyph-name="Ohungarumlaut" unicode="&#x150;" horiz-adv-x="1826" 
d="M51 735q0 328 244 543q247 215 618 215q373 0 617 -215q246 -214 246 -543q0 -327 -246 -542q-245 -216 -617 -216q-370 0 -618 216q-244 215 -244 542zM1507 735q0 237 -164 381q-166 146 -430 146t-430 -146q-164 -144 -164 -381t164 -381q165 -145 430 -145t430 145
q164 144 164 381zM1235 1556h-191l197 302h305zM768 1556h-190l178 302h323z" />
    <glyph glyph-name="ohungarumlaut" unicode="&#x151;" horiz-adv-x="1333" 
d="M668 1096q258 0 436 -158q176 -156 176 -401q0 -246 -176 -402q-178 -158 -436 -158q-263 0 -441 158q-174 155 -174 402q0 246 174 401q178 158 441 158zM668 885q-168 0 -273.5 -96.5t-105.5 -251.5t105.5 -252t273.5 -97q162 0 270 97q106 93 106 252q0 158 -106 251
q-108 97 -270 97zM940 1182h-184l192 288h279zM520 1182h-184l192 288h279z" />
    <glyph glyph-name="OE" unicode="&#x152;" horiz-adv-x="2789" 
d="M61 735q0 335 226 535t604 200h1829v-229h-1123v-369h1006v-229h-1006v-414h1123v-229h-1829q-380 0 -604 199q-226 200 -226 536zM1339 225v1020h-446q-265 0 -414 -137t-149 -373q0 -235 151 -372.5t410 -137.5h448z" />
    <glyph glyph-name="oe" unicode="&#x153;" horiz-adv-x="2293" 
d="M2025 408l197 -105q-55 -143 -209 -235q-154 -91 -348 -91q-158 0 -288.5 60t-215.5 170q-82 -109 -211 -169.5t-282 -60.5q-263 0 -441 158q-174 155 -174 402q0 246 174 401q178 158 441 158q152 0 281 -60.5t214 -171.5q85 111 215 171.5t287 60.5q258 0 418 -154
q160 -151 160 -391v-86h-965q25 -128 130 -203.5t257 -75.5q128 0 223 59.5t137 162.5zM1653 891q-134 0 -233.5 -66t-131.5 -176h717q-16 98 -117 168q-103 74 -235 74zM289 537q0 -155 105.5 -252t273.5 -97q162 0 270 97q106 93 106 252q0 158 -106 251q-108 97 -270 97
q-168 0 -273.5 -96.5t-105.5 -251.5z" />
    <glyph glyph-name="Racute" unicode="&#x154;" horiz-adv-x="1642" 
d="M977 569h-576v-569h-262v1470h916q254 0 398 -118.5t144 -331.5q0 -164 -89 -274.5t-255 -153.5l381 -592h-299zM401 1245v-450h639q141 0 220 59.5t79 165.5q0 108 -78 166.5t-221 58.5h-639zM887 1556h-225l251 302h363z" />
    <glyph glyph-name="racute" unicode="&#x155;" horiz-adv-x="919" 
d="M776 1081q55 0 121 -16v-246q-81 19 -127 19q-201 0 -303 -91t-102 -270v-477h-246v1075h246v-194q126 200 411 200zM584 1182h-209l223 288h324z" />
    <glyph glyph-name="Rcommaaccent" unicode="&#x156;" horiz-adv-x="1642" 
d="M977 569h-576v-569h-262v1470h916q254 0 398 -118.5t144 -331.5q0 -164 -89 -274.5t-255 -153.5l381 -592h-299zM401 1245v-450h639q141 0 220 59.5t79 165.5q0 108 -78 166.5t-221 58.5h-639zM764 -240h-98v164h245v-129q0 -96 -66 -151.5t-179 -55.5v107q45 0 68.5 15
t29.5 50z" />
    <glyph glyph-name="rcommaaccent" unicode="&#x157;" horiz-adv-x="919" 
d="M776 1081q55 0 121 -16v-246q-81 19 -127 19q-201 0 -303 -91t-102 -270v-477h-246v1075h246v-194q126 200 411 200zM217 -240h-98v164h246v-129q0 -96 -66.5 -151.5t-179.5 -55.5v107q45 0 68.5 15t29.5 50z" />
    <glyph glyph-name="Rcaron" unicode="&#x158;" horiz-adv-x="1642" 
d="M977 569h-576v-569h-262v1470h916q254 0 398 -118.5t144 -331.5q0 -164 -89 -274.5t-255 -153.5l381 -592h-299zM401 1245v-450h639q141 0 220 59.5t79 165.5q0 108 -78 166.5t-221 58.5h-639zM1257 1858l-299 -302h-286l-299 302h215l227 -146l227 146h215z" />
    <glyph glyph-name="rcaron" unicode="&#x159;" horiz-adv-x="919" 
d="M776 1081q55 0 121 -16v-246q-81 19 -127 19q-201 0 -303 -91t-102 -270v-477h-246v1075h246v-194q126 200 411 200zM907 1470l-264 -288h-258l-264 288h198l195 -122l195 122h198z" />
    <glyph glyph-name="Sacute" unicode="&#x15a;" horiz-adv-x="1572" 
d="M817 -23q-271 0 -504 103q-230 101 -331 270l188 174q104 -154 273.5 -236.5t379.5 -82.5q203 0 328 61q127 62 127 158q0 78 -49 115.5t-182 60.5l-101 14q-61 9 -221 27q-380 44 -510 131q-131 88 -131 260q0 206 184 332q188 129 488 129q244 0 448 -86
q206 -86 297 -229l-188 -158q-79 118 -227 182t-341 64q-191 0 -302 -56.5t-111 -150.5q0 -81 86 -119q88 -38 393 -72q181 -20 287 -39q79 -14 170 -41q140 -47 203 -126.5t63 -206.5q0 -220 -197 -349t-520 -129zM887 1556h-225l251 302h363z" />
    <glyph glyph-name="sacute" unicode="&#x15b;" horiz-adv-x="1175" 
d="M621 -23q-210 0 -375.5 66t-253.5 184l174 158q159 -205 452 -205q139 0 212 34t73 97q0 45 -31 67.5t-116 35.5q-16 3 -117 14q-20 2 -42 5t-31 4t-11 1q-292 37 -393 107t-101 203q0 155 140 251q142 97 368 97q177 0 326 -60.5t225 -161.5l-157 -151
q-61 81 -167 125.5t-237 44.5q-128 0 -195 -31.5t-67 -91.5q0 -47 47 -68q43 -19 268 -47q161 -20 217 -32q71 -12 123 -33q193 -69 193 -254q0 -162 -148 -262q-148 -97 -376 -97zM686 1182h-209l223 288h324z" />
    <glyph glyph-name="Scircumflex" unicode="&#x15c;" horiz-adv-x="1572" 
d="M817 -23q-271 0 -504 103q-230 101 -331 270l188 174q104 -154 273.5 -236.5t379.5 -82.5q203 0 328 61q127 62 127 158q0 78 -49 115.5t-182 60.5l-101 14q-61 9 -221 27q-380 44 -510 131q-131 88 -131 260q0 206 184 332q188 129 488 129q244 0 448 -86
q206 -86 297 -229l-188 -158q-79 118 -227 182t-341 64q-191 0 -302 -56.5t-111 -150.5q0 -81 86 -119q88 -38 393 -72q181 -20 287 -39q79 -14 170 -41q140 -47 203 -126.5t63 -206.5q0 -220 -197 -349t-520 -129zM635 1858h287l299 -302h-215l-228 146l-227 -146h-215z
" />
    <glyph glyph-name="scircumflex" unicode="&#x15d;" horiz-adv-x="1175" 
d="M621 -23q-210 0 -375.5 66t-253.5 184l174 158q159 -205 452 -205q139 0 212 34t73 97q0 45 -31 67.5t-116 35.5q-16 3 -117 14q-20 2 -42 5t-31 4t-11 1q-292 37 -393 107t-101 203q0 155 140 251q142 97 368 97q177 0 326 -60.5t225 -161.5l-157 -151
q-61 81 -167 125.5t-237 44.5q-128 0 -195 -31.5t-67 -91.5q0 -47 47 -68q43 -19 268 -47q161 -20 217 -32q71 -12 123 -33q193 -69 193 -254q0 -162 -148 -262q-148 -97 -376 -97zM446 1470h259l264 -288h-199l-195 123l-194 -123h-199z" />
    <glyph glyph-name="Scedilla" unicode="&#x15e;" horiz-adv-x="1572" 
d="M-18 350l188 174q104 -154 273.5 -236.5t379.5 -82.5q203 0 328 61q127 62 127 158q0 78 -49 115.5t-182 60.5l-101 14q-61 9 -221 27q-380 44 -510 131q-131 88 -131 260q0 206 184 332q188 129 488 129q244 0 448 -86q206 -86 297 -229l-188 -158q-79 118 -227 182
t-341 64q-191 0 -302 -56.5t-111 -150.5q0 -81 86 -119q88 -38 393 -72q181 -20 287 -39q79 -14 170 -41q140 -47 203 -126.5t63 -206.5q0 -220 -197 -349q-193 -129 -512 -129l-6 -20q97 -6 156 -51t59 -113q0 -79 -79.5 -130.5t-202.5 -51.5q-180 0 -273 74l86 125
q73 -58 178 -58q119 0 119 53q0 30 -43.5 44t-152.5 18l34 117q-244 22 -432 118q-196 103 -286 248z" />
    <glyph glyph-name="scedilla" unicode="&#x15f;" horiz-adv-x="1175" 
d="M-8 227l174 158q159 -205 452 -205q139 0 212 34t73 97q0 45 -31 67.5t-116 35.5q-16 3 -117 14q-20 2 -42 5t-31 4t-11 1q-292 37 -393 107t-101 203q0 155 140 251q142 97 368 97q177 0 326 -60.5t225 -161.5l-157 -151q-61 81 -167 125.5t-237 44.5q-128 0 -195 -31.5
t-67 -91.5q0 -47 47 -68q43 -19 268 -47q161 -20 217 -32q71 -12 123 -33q193 -69 193 -254q0 -162 -148 -262q-148 -97 -376 -97h-29l-6 -20q97 -6 156 -51t59 -113q0 -79 -80 -130.5t-203 -51.5q-179 0 -272 74l86 125q73 -58 178 -58q119 0 119 53q0 30 -44 44t-153 18
l37 121q-330 42 -477 239z" />
    <glyph glyph-name="Scaron" unicode="&#x160;" horiz-adv-x="1572" 
d="M817 -23q-271 0 -504 103q-230 101 -331 270l188 174q104 -154 273.5 -236.5t379.5 -82.5q203 0 328 61q127 62 127 158q0 78 -49 115.5t-182 60.5l-101 14q-61 9 -221 27q-380 44 -510 131q-131 88 -131 260q0 206 184 332q188 129 488 129q244 0 448 -86
q206 -86 297 -229l-188 -158q-79 118 -227 182t-341 64q-191 0 -302 -56.5t-111 -150.5q0 -81 86 -119q88 -38 393 -72q181 -20 287 -39q79 -14 170 -41q140 -47 203 -126.5t63 -206.5q0 -220 -197 -349t-520 -129zM1221 1858l-299 -302h-287l-299 302h215l227 -146l228 146
h215z" />
    <glyph glyph-name="scaron" unicode="&#x161;" horiz-adv-x="1175" 
d="M621 -23q-210 0 -375.5 66t-253.5 184l174 158q159 -205 452 -205q139 0 212 34t73 97q0 45 -31 67.5t-116 35.5q-16 3 -117 14q-20 2 -42 5t-31 4t-11 1q-292 37 -393 107t-101 203q0 155 140 251q142 97 368 97q177 0 326 -60.5t225 -161.5l-157 -151
q-61 81 -167 125.5t-237 44.5q-128 0 -195 -31.5t-67 -91.5q0 -47 47 -68q43 -19 268 -47q161 -20 217 -32q71 -12 123 -33q193 -69 193 -254q0 -162 -148 -262q-148 -97 -376 -97zM979 1470l-265 -288h-258l-264 288h199l194 -122l195 122h199z" />
    <glyph glyph-name="Tcommaaccent" unicode="&#x162;" horiz-adv-x="1662" 
d="M1090 -207q0 -79 -80 -130.5t-203 -51.5q-179 0 -272 74l86 125q73 -58 178 -58q119 0 119 53q0 30 -44 44t-153 18l39 133h-60v1241h-663v229h1589v-229h-663v-1241h-76l-13 -43q97 -6 156.5 -51.5t59.5 -112.5z" />
    <glyph glyph-name="tcommaaccent" unicode="&#x163;" horiz-adv-x="1060" 
d="M268 369v497h-270v209h270v316h242v-316h473v-209h-473v-475q0 -98 54.5 -140t183.5 -42q87 0 235 45l41 -209q-67 -25 -156 -41t-163 -16q-48 0 -62 2l-10 -33q97 -6 156 -51t59 -113q0 -79 -80 -130.5t-203 -51.5q-179 0 -272 74l86 125q73 -58 178 -58q119 0 119 53
q0 30 -44 44t-153 18l43 145q-125 35 -189.5 125.5t-64.5 231.5z" />
    <glyph glyph-name="Tcaron" unicode="&#x164;" horiz-adv-x="1662" 
d="M1626 1470v-229h-663v-1241h-263v1241h-663v229h1589zM1274 1858l-299 -302h-287l-299 302h215l227 -146l228 146h215z" />
    <glyph glyph-name="tcaron" unicode="&#x165;" horiz-adv-x="1060" 
d="M705 -12q-211 0 -324 98t-113 283v497h-270v209h270v316h242v-316h473v-209h-473v-475q0 -98 54.5 -140t183.5 -42q87 0 235 45l41 -209q-67 -25 -156 -41t-163 -16zM780 1178h-168l56 333h278z" />
    <glyph glyph-name="Tbar" unicode="&#x166;" horiz-adv-x="1662" 
d="M1290 870v-229h-327v-641h-263v641h-327v229h327v371h-663v229h1589v-229h-663v-371h327z" />
    <glyph glyph-name="tbar" unicode="&#x167;" horiz-adv-x="1060" 
d="M705 -12q-211 0 -324 98t-113 283v120h-266v209h266v168h-270v209h270v316h242v-316h473v-209h-473v-168h473v-209h-473v-98q0 -98 54.5 -140t183.5 -42q87 0 235 45l41 -209q-67 -25 -156 -41t-163 -16z" />
    <glyph glyph-name="Utilde" unicode="&#x168;" horiz-adv-x="1679" 
d="M840 -20q-361 0 -553.5 189t-192.5 542v759h262v-751q0 -257 120 -382.5t364 -125.5t363.5 125.5t119.5 382.5v751h262v-759q0 -353 -192 -542t-553 -189zM633 1876q58 0 110 -14t134 -54q100 -49 151 -49q36 0 57 27.5t33 89.5h166q-11 -148 -74.5 -232.5t-165.5 -84.5
q-58 0 -109.5 13.5t-133.5 53.5q-98 49 -150 49q-37 0 -58.5 -27.5t-31.5 -88.5h-166q7 148 71 232.5t167 84.5z" />
    <glyph glyph-name="utilde" unicode="&#x169;" horiz-adv-x="1329" 
d="M965 1075h245v-1075h-245v139q-140 -162 -387 -162q-215 0 -342 136q-125 134 -125 364v598h245v-571q0 -148 74.5 -225.5t216.5 -77.5q152 0 235 85.5t83 239.5v549zM493 1485q47 0 90.5 -14t108.5 -54q73 -45 115 -45q31 0 49.5 26t28.5 87h155q-8 -141 -64.5 -222
t-148.5 -81q-47 0 -91.5 14t-108.5 53q-77 43 -113 43q-31 0 -49.5 -25t-28.5 -85h-156q8 141 64.5 222t148.5 81z" />
    <glyph glyph-name="Umacron" unicode="&#x16a;" horiz-adv-x="1679" 
d="M840 -20q-361 0 -553.5 189t-192.5 542v759h262v-751q0 -257 120 -382.5t364 -125.5t363.5 125.5t119.5 382.5v751h262v-759q0 -353 -192 -542t-553 -189zM1233 1780v-203h-787v203h787z" />
    <glyph glyph-name="umacron" unicode="&#x16b;" horiz-adv-x="1329" 
d="M965 1075h245v-1075h-245v139q-140 -162 -387 -162q-215 0 -342 136q-125 134 -125 364v598h245v-571q0 -148 74.5 -225.5t216.5 -77.5q152 0 235 85.5t83 239.5v549zM1030 1415v-194h-741v194h741z" />
    <glyph glyph-name="Ubreve" unicode="&#x16c;" horiz-adv-x="1679" 
d="M840 -20q-361 0 -553.5 189t-192.5 542v759h262v-751q0 -257 120 -382.5t364 -125.5t363.5 125.5t119.5 382.5v751h262v-759q0 -353 -192 -542t-553 -189zM840 1720q94 0 154.5 39t60.5 99h184q0 -140 -108.5 -224t-290.5 -84q-183 0 -291.5 84t-108.5 224h185
q0 -60 60.5 -99t154.5 -39z" />
    <glyph glyph-name="ubreve" unicode="&#x16d;" horiz-adv-x="1329" 
d="M965 1075h245v-1075h-245v139q-140 -162 -387 -162q-215 0 -342 136q-125 134 -125 364v598h245v-571q0 -148 74.5 -225.5t216.5 -77.5q152 0 235 85.5t83 239.5v549zM659 1346q188 0 203 124h168q0 -139 -99 -217.5t-272 -78.5q-172 0 -271 78.5t-99 217.5h168
q15 -124 202 -124z" />
    <glyph glyph-name="Uring" unicode="&#x16e;" horiz-adv-x="1679" 
d="M840 -20q-361 0 -553.5 189t-192.5 542v759h262v-751q0 -257 120 -382.5t364 -125.5t363.5 125.5t119.5 382.5v751h262v-759q0 -353 -192 -542t-553 -189zM840 1495q-112 0 -189 74q-76 76 -76 182t76.5 179t188.5 73q114 0 188 -74q76 -70 76 -178q0 -109 -76 -182
q-77 -74 -188 -74zM840 1860q-47 0 -77 -31t-30 -78q0 -49 29.5 -79t77.5 -30q47 0 76.5 30t29.5 79q0 48 -29.5 78.5t-76.5 30.5z" />
    <glyph glyph-name="uring" unicode="&#x16f;" horiz-adv-x="1329" 
d="M965 1075h245v-1075h-245v139q-140 -162 -387 -162q-215 0 -342 136q-125 134 -125 364v598h245v-571q0 -148 74.5 -225.5t216.5 -77.5q152 0 235 85.5t83 239.5v549zM659 1149q-96 0 -161.5 63t-65.5 156q0 92 65 154.5t162 62.5t162.5 -62.5t65.5 -154.5t-65.5 -155.5
t-162.5 -63.5zM659 1466q-41 0 -68.5 -28.5t-27.5 -69.5t27.5 -69.5t68.5 -28.5t69 28.5t28 69.5t-28 69.5t-69 28.5z" />
    <glyph glyph-name="Uhungarumlaut" unicode="&#x170;" horiz-adv-x="1679" 
d="M840 -20q-361 0 -553.5 189t-192.5 542v759h262v-751q0 -257 120 -382.5t364 -125.5t363.5 125.5t119.5 382.5v751h262v-759q0 -353 -192 -542t-553 -189zM1143 1556h-191l197 302h305zM676 1556h-191l179 302h323z" />
    <glyph glyph-name="uhungarumlaut" unicode="&#x171;" horiz-adv-x="1329" 
d="M965 1075h245v-1075h-245v139q-140 -162 -387 -162q-215 0 -342 136q-125 134 -125 364v598h245v-571q0 -148 74.5 -225.5t216.5 -77.5q152 0 235 85.5t83 239.5v549zM909 1182h-184l193 288h278zM489 1182h-184l193 288h278z" />
    <glyph glyph-name="Uogonek" unicode="&#x172;" horiz-adv-x="1679" 
d="M1075 4q-110 -25 -169.5 -65.5t-59.5 -90.5q0 -33 35 -52t96 -19q51 0 98 12v-154q-94 -16 -145 -16q-113 0 -184.5 51t-71.5 133q0 97 82 179q-324 23 -493 209.5t-169 519.5v759h262v-751q0 -258 119.5 -383t364.5 -125t364 125t119 383v751h262v-759
q0 -291 -130 -471.5t-380 -235.5z" />
    <glyph glyph-name="uogonek" unicode="&#x173;" horiz-adv-x="1329" 
d="M1065 -381q-113 0 -184.5 50.5t-71.5 129.5q0 66 40.5 125t115.5 103v112q-140 -162 -387 -162q-215 0 -342 136q-125 134 -125 364v598h245v-571q0 -148 74.5 -225.5t216.5 -77.5q152 0 235 85.5t83 239.5v549h245v-1075q-119 -38 -174 -75.5t-55 -80.5q0 -31 35 -49
t96 -18q52 0 98 12v-154q-94 -16 -145 -16z" />
    <glyph glyph-name="Wcircumflex" unicode="&#x174;" horiz-adv-x="2422" 
d="M676 264l395 1206h285l393 -1206l414 1206h272l-524 -1470h-316l-383 1188l-387 -1188h-315l-522 1470h274zM1069 1858h287l299 -302h-215l-228 146l-227 -146h-215z" />
    <glyph glyph-name="wcircumflex" unicode="&#x175;" horiz-adv-x="1835" 
d="M1028 1075l277 -770l278 770h252l-422 -1075h-213l-282 752l-281 -752h-213l-424 1075h260l285 -770l274 770h209zM788 1470h259l264 -288h-199l-194 123l-195 -123h-199z" />
    <glyph glyph-name="Ycircumflex" unicode="&#x176;" horiz-adv-x="1710" 
d="M303 1470l555 -624l553 624h320l-744 -831v-639h-262v639l-745 831h323zM719 1858h287l299 -302h-215l-228 146l-227 -146h-215z" />
    <glyph glyph-name="ycircumflex" unicode="&#x177;" horiz-adv-x="1314" 
d="M1315 1075l-576 -1175q-74 -150 -176 -217.5t-260 -67.5q-58 0 -124.5 13.5t-98.5 31.5l49 207q75 -41 160 -41q92 0 149 39t88 121l13 37l-539 1052h272l394 -805l383 805h266zM528 1470h258l265 -288h-199l-195 123l-194 -123h-199z" />
    <glyph glyph-name="Ydieresis" unicode="&#x178;" horiz-adv-x="1710" 
d="M303 1470l555 -624l553 624h320l-744 -831v-639h-262v639l-745 831h323zM733 1556h-262v252h262v-252zM1253 1556h-262v252h262v-252z" />
    <glyph glyph-name="Zacute" unicode="&#x179;" horiz-adv-x="1611" 
d="M442 229h1090v-229h-1456v203l1079 1038h-1071v229h1440v-202zM877 1556h-226l252 302h363z" />
    <glyph glyph-name="zacute" unicode="&#x17a;" horiz-adv-x="1261" 
d="M406 209h786v-209h-1120v184l776 682h-768v209h1106v-186zM707 1182h-209l223 288h324z" />
    <glyph glyph-name="Zdotaccent" unicode="&#x17b;" horiz-adv-x="1611" 
d="M442 229h1090v-229h-1456v203l1079 1038h-1071v229h1440v-202zM934 1556h-262v252h262v-252z" />
    <glyph glyph-name="zdotaccent" unicode="&#x17c;" horiz-adv-x="1261" 
d="M406 209h786v-209h-1120v184l776 682h-768v209h1106v-186zM758 1219h-254v251h254v-251z" />
    <glyph glyph-name="Zcaron" unicode="&#x17d;" horiz-adv-x="1611" 
d="M442 229h1090v-229h-1456v203l1079 1038h-1071v229h1440v-202zM1245 1858l-299 -302h-287l-299 302h215l228 -146l227 146h215z" />
    <glyph glyph-name="zcaron" unicode="&#x17e;" horiz-adv-x="1261" 
d="M406 209h786v-209h-1120v184l776 682h-768v209h1106v-186zM1024 1470l-265 -288h-258l-264 288h199l194 -122l195 122h199z" />
    <glyph glyph-name="florin" unicode="&#x192;" horiz-adv-x="1675" 
d="M963 700l-52 -276q-77 -447 -520 -447q-119 0 -223.5 30.5t-167.5 84.5l109 187q54 -43 127 -68t145 -25q225 0 272 252l47 262h-301v177h334l31 170q77 446 520 446q119 0 224.5 -30.5t166.5 -84.5l-108 -186q-51 42 -125 67t-148 25q-225 0 -272 -252l-29 -155h322
v-177h-352z" />
    <glyph glyph-name="AEacute" unicode="&#x1fc;" horiz-adv-x="2883" 
d="M-25 0l1319 1470h1520v-229h-1163v-369h1046v-229h-1046v-414h1163v-229h-1421v360h-772l-320 -360h-326zM1393 1229l-568 -639h568v639zM2064 1556h-225l252 302h363z" />
    <glyph glyph-name="aeacute" unicode="&#x1fd;" horiz-adv-x="2181" 
d="M51 311q0 156 131 247t359 91h391v58q0 85 -76 132.5t-215 47.5q-123 0 -222 -50.5t-130 -129.5l-203 90q49 132 207 215q159 84 356 84q326 0 451 -166q85 80 201.5 123t250.5 43q258 0 418 -154q160 -151 160 -391v-86h-965q25 -128 130 -203.5t257 -75.5
q128 0 223.5 59.5t137.5 162.5l196 -105q-55 -144 -208 -235q-154 -91 -349 -91q-168 0 -305.5 64t-216.5 180q-176 -244 -532 -244q-203 0 -325 90.5t-122 243.5zM1540 891q-134 0 -233 -66t-131 -176h716q-16 99 -116 168q-103 74 -236 74zM291 313q0 -66 59 -101.5
t168 -35.5q165 0 289 68q125 67 125 172v49h-375q-266 0 -266 -152zM1211 1182h-209l223 288h324z" />
    <glyph glyph-name="Oslashacute" unicode="&#x1fe;" horiz-adv-x="1826" 
d="M231 -57l-155 155l160 154q-185 203 -185 483q0 328 244 543q247 215 618 215q306 0 525 -145l157 151l156 -156l-145 -141q170 -197 170 -467q0 -327 -246 -542q-245 -216 -617 -216q-283 0 -507 134zM913 1266q-264 0 -432 -148q-166 -144 -166 -383q0 -189 111 -327
l829 776q-143 82 -342 82zM913 205q265 0 433 145q165 146 165 385q0 181 -98 312l-821 -771q136 -71 321 -71zM999 1556h-225l252 302h363z" />
    <glyph glyph-name="oslashacute" unicode="&#x1ff;" horiz-adv-x="1333" 
d="M55 537q0 246 174 401q178 158 439 158q202 0 350 -95l123 127l131 -122l-115 -121q123 -148 123 -348q0 -246 -176 -402q-178 -158 -436 -158q-203 0 -351 95l-122 -127l-132 123l115 120q-123 148 -123 349zM668 893q-172 0 -279 -98q-106 -97 -106 -258
q0 -120 59 -203l516 518q-90 41 -190 41zM668 180q168 0 276 99q109 100 109 258q0 117 -60 202l-516 -518q90 -41 191 -41zM752 1182h-209l223 288h324z" />
    <glyph glyph-name="Scommaaccent" unicode="&#x218;" horiz-adv-x="1572" 
d="M817 -23q-271 0 -504 103q-230 101 -331 270l188 174q104 -154 273.5 -236.5t379.5 -82.5q203 0 328 61q127 62 127 158q0 78 -49 115.5t-182 60.5l-101 14q-61 9 -221 27q-380 44 -510 131q-131 88 -131 260q0 206 184 332q188 129 488 129q244 0 448 -86
q206 -86 297 -229l-188 -158q-79 118 -227 182t-341 64q-191 0 -302 -56.5t-111 -150.5q0 -81 86 -119q88 -38 393 -72q181 -20 287 -39q79 -14 170 -41q140 -47 203 -126.5t63 -206.5q0 -220 -197 -349t-520 -129zM754 -240h-99v164h246v-129q0 -96 -66.5 -151.5
t-179.5 -55.5v107q88 0 99 65z" />
    <glyph glyph-name="scommaaccent" unicode="&#x219;" horiz-adv-x="1175" 
d="M621 -23q-210 0 -375.5 66t-253.5 184l174 158q159 -205 452 -205q139 0 212 34t73 97q0 45 -31 67.5t-116 35.5q-16 3 -117 14q-20 2 -42 5t-31 4t-11 1q-292 37 -393 107t-101 203q0 155 140 251q142 97 368 97q177 0 326 -60.5t225 -161.5l-157 -151
q-61 81 -167 125.5t-237 44.5q-128 0 -195 -31.5t-67 -91.5q0 -47 47 -68q43 -19 268 -47q161 -20 217 -32q71 -12 123 -33q193 -69 193 -254q0 -162 -148 -262q-148 -97 -376 -97zM567 -240h-98v164h246v-129q0 -96 -66.5 -151.5t-179.5 -55.5v107q45 0 68.5 15t29.5 50z
" />
    <glyph glyph-name="uni021A" unicode="&#x21a;" horiz-adv-x="1662" 
d="M1626 1470v-229h-663v-1241h-263v1241h-663v229h1589zM807 -240h-98v164h245v-129q0 -96 -66 -151.5t-179 -55.5v107q45 0 68.5 15t29.5 50z" />
    <glyph glyph-name="uni021B" unicode="&#x21b;" horiz-adv-x="1060" 
d="M705 -12q-211 0 -324 98t-113 283v497h-270v209h270v316h242v-316h473v-209h-473v-475q0 -98 54.5 -140t183.5 -42q87 0 235 45l41 -209q-67 -25 -156 -41t-163 -16zM580 -240h-99v164h246v-129q0 -96 -66.5 -151.5t-179.5 -55.5v107q88 0 99 65z" />
    <glyph glyph-name="uni0237" unicode="&#x237;" horiz-adv-x="483" 
d="M-84 -174q108 0 155.5 45.5t47.5 148.5v1055h246v-1042q0 -207 -110.5 -312.5t-324.5 -105.5q-116 0 -221 37l37 203q91 -29 170 -29z" />
    <glyph glyph-name="circumflex" unicode="&#x2c6;" horiz-adv-x="1228" 
d="M485 1470h258l265 -288h-199l-195 123l-194 -123h-199z" />
    <glyph glyph-name="caron" unicode="&#x2c7;" horiz-adv-x="1228" 
d="M1008 1470l-265 -288h-258l-264 288h199l194 -122l195 122h199z" />
    <glyph glyph-name="breve" unicode="&#x2d8;" horiz-adv-x="1228" 
d="M614 1346q188 0 203 124h168q0 -139 -99 -217.5t-272 -78.5q-172 0 -271 78.5t-99 217.5h168q15 -124 202 -124z" />
    <glyph glyph-name="dotaccent" unicode="&#x2d9;" horiz-adv-x="1228" 
d="M741 1219h-254v251h254v-251z" />
    <glyph glyph-name="ring" unicode="&#x2da;" horiz-adv-x="1228" 
d="M614 1149q-96 0 -161.5 63t-65.5 156q0 92 65 154.5t162 62.5t162.5 -62.5t65.5 -154.5t-65.5 -155.5t-162.5 -63.5zM614 1466q-41 0 -68.5 -28.5t-27.5 -69.5t27.5 -69.5t68.5 -28.5t69 28.5t28 69.5t-28 69.5t-69 28.5z" />
    <glyph glyph-name="ogonek" unicode="&#x2db;" horiz-adv-x="1228" 
d="M633 -381q-113 0 -184.5 50.5t-71.5 129.5q0 97 83 174.5t234 120.5l84 -94q-119 -38 -174 -75.5t-55 -80.5q0 -31 35 -49t96 -18q52 0 98 12v-154q-94 -16 -145 -16z" />
    <glyph glyph-name="tilde" unicode="&#x2dc;" horiz-adv-x="1228" 
d="M446 1485q47 0 90.5 -14t108.5 -54q73 -45 115 -45q31 0 49.5 26t28.5 87h155q-8 -141 -64.5 -222t-148.5 -81q-47 0 -91.5 14t-108.5 53q-77 43 -113 43q-31 0 -49.5 -25t-28.5 -85h-156q8 141 64.5 222t148.5 81z" />
    <glyph glyph-name="hungarumlaut" unicode="&#x2dd;" horiz-adv-x="1228" 
d="M770 1182h-184l192 288h279zM350 1182h-184l192 288h279z" />
    <glyph glyph-name="gravecmb" unicode="&#x300;" horiz-adv-x="0" 
d="M51 1470l223 -288h-208l-338 288h323z" />
    <glyph glyph-name="acutecmb" unicode="&#x301;" horiz-adv-x="0" 
d="M-63 1182h-209l223 288h323z" />
    <glyph glyph-name="circumflexcmb" unicode="&#x302;" horiz-adv-x="0" 
d="M-129 1470h258l264 -288h-198l-195 123l-195 -123h-198z" />
    <glyph glyph-name="tildecmb" unicode="&#x303;" horiz-adv-x="0" 
d="M-166 1485q47 0 90.5 -14t108.5 -54q73 -45 114 -45q31 0 49.5 26t28.5 87h156q-8 -141 -64.5 -222t-148.5 -81q-48 0 -92.5 14t-108.5 53q-77 43 -112 43q-31 0 -49.5 -25t-28.5 -85h-156q8 141 64.5 222t148.5 81z" />
    <glyph glyph-name="macroncmb" unicode="&#x304;" horiz-adv-x="0" 
d="M371 1415v-194h-742v194h742z" />
    <glyph glyph-name="brevecmb" unicode="&#x306;" horiz-adv-x="0" 
d="M0 1346q188 0 203 124h168q0 -139 -99 -217.5t-272 -78.5t-272 78.5t-99 217.5h168q15 -124 203 -124z" />
    <glyph glyph-name="dotaccentcmb" unicode="&#x307;" horiz-adv-x="0" 
d="M127 1219h-254v251h254v-251z" />
    <glyph glyph-name="dieresiscmb" unicode="&#x308;" horiz-adv-x="0" 
d="M-121 1219h-262v251h262v-251zM383 1219h-262v251h262v-251z" />
    <glyph glyph-name="ringcmb" unicode="&#x30a;" horiz-adv-x="0" 
d="M0 1149q-96 0 -161.5 63t-65.5 156q0 92 65 154.5t162 62.5t162 -62.5t65 -154.5q0 -93 -65.5 -156t-161.5 -63zM0 1466q-41 0 -68.5 -28.5t-27.5 -69.5t27.5 -69.5t68.5 -28.5t68.5 28.5t27.5 69.5t-27.5 69.5t-68.5 28.5z" />
    <glyph glyph-name="hungarumlautcmb" unicode="&#x30b;" horiz-adv-x="0" 
d="M160 1182h-185l193 288h278zM-260 1182h-184l192 288h279z" />
    <glyph glyph-name="caroncmb" unicode="&#x30c;" horiz-adv-x="0" 
d="M393 1470l-264 -288h-258l-264 288h198l195 -122l195 122h198z" />
    <glyph glyph-name="commaturncmb" unicode="&#x312;" horiz-adv-x="0" 
d="M25 1346h98v-164h-246v129q0 96 66.5 151.5t179.5 55.5v-107q-45 0 -68.5 -15t-29.5 -50z" />
    <glyph glyph-name="commaaccentcmb" unicode="&#x326;" horiz-adv-x="0" 
d="M-25 -240h-98v164h246v-129q0 -96 -66.5 -151.5t-179.5 -55.5v107q45 0 68.5 15t29.5 50z" />
    <glyph glyph-name="cedillacmb" unicode="&#x327;" horiz-adv-x="0" 
d="M279 -207q0 -79 -80 -130.5t-203 -51.5q-179 0 -272 74l86 125q73 -58 178 -58q118 0 118 53q0 30 -43.5 44t-152.5 18l47 158h127l-21 -68q97 -6 156.5 -51.5t59.5 -112.5z" />
    <glyph glyph-name="ogonekcmb" unicode="&#x328;" horiz-adv-x="0" 
d="M55 -381q-113 0 -184.5 50.5t-71.5 129.5q0 97 83 174.5t235 120.5l84 -94q-119 -38 -174.5 -75.5t-55.5 -80.5q0 -31 35 -49t96 -18q52 0 99 12v-154q-94 -16 -146 -16z" />
    <glyph glyph-name="baht" unicode="&#xe3f;" horiz-adv-x="1665" 
d="M748 0h-609v1470h609v213h210v-213h125q238 0 366 -100.5t128 -286.5q0 -112 -57 -193.5t-162 -123.5q123 -38 194.5 -133.5t71.5 -222.5q0 -190 -136 -300t-368 -110h-162v-217h-210v217zM391 1249v-387h357v387h-357zM1329 1057q0 94 -69.5 143t-200.5 49h-101v-387
h101q129 0 199.5 50.5t70.5 144.5zM748 641h-357v-420h357v420zM1372 432q0 94 -72.5 151.5t-193.5 57.5h-148v-420h148q122 0 194 57t72 154z" />
    <glyph glyph-name="Wgrave" unicode="&#x1e80;" horiz-adv-x="2422" 
d="M676 264l395 1206h285l393 -1206l414 1206h272l-524 -1470h-316l-383 1188l-387 -1188h-315l-522 1470h274zM1094 1858l252 -302h-226l-389 302h363z" />
    <glyph glyph-name="wgrave" unicode="&#x1e81;" horiz-adv-x="1835" 
d="M1028 1075l277 -770l278 770h252l-422 -1075h-213l-282 752l-281 -752h-213l-424 1075h260l285 -770l274 770h209zM815 1470l223 -288h-209l-338 288h324z" />
    <glyph glyph-name="Wacute" unicode="&#x1e82;" horiz-adv-x="2422" 
d="M676 264l395 1206h285l393 -1206l414 1206h272l-524 -1470h-316l-383 1188l-387 -1188h-315l-522 1470h274zM1321 1556h-225l252 302h362z" />
    <glyph glyph-name="wacute" unicode="&#x1e83;" horiz-adv-x="1835" 
d="M1028 1075l277 -770l278 770h252l-422 -1075h-213l-282 752l-281 -752h-213l-424 1075h260l285 -770l274 770h209zM1028 1182h-209l223 288h324z" />
    <glyph glyph-name="Wdieresis" unicode="&#x1e84;" horiz-adv-x="2422" 
d="M676 264l395 1206h285l393 -1206l414 1206h272l-524 -1470h-316l-383 1188l-387 -1188h-315l-522 1470h274zM1083 1556h-262v252h262v-252zM1604 1556h-263v252h263v-252z" />
    <glyph glyph-name="wdieresis" unicode="&#x1e85;" horiz-adv-x="1835" 
d="M1028 1075l277 -770l278 770h252l-422 -1075h-213l-282 752l-281 -752h-213l-424 1075h260l285 -770l274 770h209zM797 1219h-262v251h262v-251zM1300 1219h-262v251h262v-251z" />
    <glyph glyph-name="Germandbls" unicode="&#x1e9e;" horiz-adv-x="1867" 
d="M1843 469q0 -216 -164 -354q-163 -138 -426 -138q-232 0 -409 97t-271 276l189 148q99 -156 217.5 -229.5t273.5 -73.5q152 0 247 74.5t95 193.5q0 248 -411 248h-389v166l458 368h-852v-1245h-262v1470h1475v-210l-428 -345h31q301 0 463.5 -116t162.5 -330z" />
    <glyph glyph-name="Ygrave" unicode="&#x1ef2;" horiz-adv-x="1710" 
d="M303 1470l555 -624l553 624h320l-744 -831v-639h-262v639l-745 831h323zM803 1858l252 -302h-226l-389 302h363z" />
    <glyph glyph-name="ygrave" unicode="&#x1ef3;" horiz-adv-x="1314" 
d="M1315 1075l-576 -1175q-74 -150 -176 -217.5t-260 -67.5q-58 0 -124.5 13.5t-98.5 31.5l49 207q75 -41 160 -41q92 0 149 39t88 121l13 37l-539 1052h272l394 -805l383 805h266zM594 1470l223 -288h-209l-338 288h324z" />
    <glyph glyph-name="thinspace" unicode="&#x2009;" horiz-adv-x="204" 
 />
    <glyph glyph-name="endash" unicode="&#x2013;" horiz-adv-x="1110" 
d="M1028 498h-946v198h946v-198z" />
    <glyph glyph-name="emdash" unicode="&#x2014;" horiz-adv-x="1998" 
d="M1917 498h-1835v198h1835v-198z" />
    <glyph glyph-name="quoteleft" unicode="&#x2018;" horiz-adv-x="378" 
d="M203 1180h135v-291h-297v307q0 124 81 198t216 76v-137q-69 -6 -102 -37.5t-33 -91.5v-24z" />
    <glyph glyph-name="quoteright" unicode="&#x2019;" horiz-adv-x="378" 
d="M176 1180h-135v290h297v-307q0 -124 -81 -198t-216 -76v137q69 6 102 37.5t33 91.5v25z" />
    <glyph glyph-name="quotesinglbase" unicode="&#x201a;" horiz-adv-x="378" 
d="M176 23h-135v290h297v-307q0 -124 -81 -198t-216 -76v137q69 6 102 37.5t33 91.5v25z" />
    <glyph glyph-name="quotedblleft" unicode="&#x201c;" horiz-adv-x="786" 
d="M203 1180h135v-291h-297v307q0 124 81 198t216 76v-137q-69 -6 -102 -37.5t-33 -91.5v-24zM610 1180h135v-291h-296v307q0 124 80.5 198t215.5 76v-137q-69 -6 -102 -37.5t-33 -91.5v-24z" />
    <glyph glyph-name="quotedblright" unicode="&#x201d;" horiz-adv-x="786" 
d="M176 1180h-135v290h297v-307q0 -124 -81 -198t-216 -76v137q69 6 102 37.5t33 91.5v25zM584 1180h-135v290h296v-307q0 -124 -80.5 -198t-215.5 -76v137q69 6 102 37.5t33 91.5v25z" />
    <glyph glyph-name="quotedblbase" unicode="&#x201e;" horiz-adv-x="786" 
d="M584 23h-135v290h296v-307q0 -124 -80.5 -198t-215.5 -76v137q69 6 102 37.5t33 91.5v25zM176 23h-135v290h297v-307q0 -124 -81 -198t-216 -76v137q69 6 102 37.5t33 91.5v25z" />
    <glyph glyph-name="dagger" unicode="&#x2020;" horiz-adv-x="813" 
d="M504 584h-195v477h-268v196h268v254h195v-254h268v-196h-268v-477z" />
    <glyph glyph-name="daggerdbl" unicode="&#x2021;" horiz-adv-x="813" 
d="M504 584h-195v190h-268v184h268v181h-268v184h268v188h195v-188h268v-184h-268v-181h268v-184h-268v-190z" />
    <glyph glyph-name="bullet" unicode="&#x2022;" horiz-adv-x="872" 
d="M82 594q0 152 102 254t254 102q148 0 250 -102q103 -103 103 -254q0 -149 -103 -252q-100 -100 -250 -100q-154 0 -254 100q-102 102 -102 252z" />
    <glyph glyph-name="ellipsis" unicode="&#x2026;" horiz-adv-x="1320" 
d="M379 0h-297v297h297v-297zM809 0h-297v297h297v-297zM1239 0h-297v297h297v-297z" />
    <glyph glyph-name="guilsinglleft" unicode="&#x2039;" horiz-adv-x="567" 
d="M485 141l-403 269v245l403 269v-246l-204 -146l204 -145v-246z" />
    <glyph glyph-name="guilsinglright" unicode="&#x203a;" horiz-adv-x="567" 
d="M485 655v-245l-403 -269v246l205 145l-205 146v246z" />
    <glyph glyph-name="fraction" unicode="&#x2044;" horiz-adv-x="294" 
d="M-553 0l1174 1470h227l-1174 -1470h-227z" />
    <glyph glyph-name="uni2070" unicode="&#x2070;" horiz-adv-x="1044" 
d="M522 643q-207 0 -338 119q-133 121 -133 303q0 178 133 299q134 119 338 119q205 0 336 -119q135 -120 135 -299q0 -182 -133 -303q-131 -119 -338 -119zM522 1307q-117 0 -190.5 -67t-73.5 -175q0 -110 73.5 -178t190.5 -68t189.5 68t72.5 178q0 109 -72.5 175.5
t-189.5 66.5z" />
    <glyph glyph-name="uni2074" unicode="&#x2074;" horiz-adv-x="958" 
d="M741 844v-189h-194v189h-527v157l459 469h262v-462h197v-164h-197zM547 1303l-293 -295h293v295z" />
    <glyph glyph-name="uni2075" unicode="&#x2075;" horiz-adv-x="905" 
d="M444 1051q-137 0 -219 -58l-170 31l58 446h698v-174h-545l-18 -133q90 49 231 49q178 0 284.5 -75.5t106.5 -202.5q0 -130 -118 -211q-121 -80 -303 -80q-168 0 -289.5 63t-159.5 171l186 75q29 -66 100 -103.5t165 -37.5q97 0 157 32.5t60 86.5q0 56 -60.5 88.5
t-163.5 32.5z" />
    <glyph glyph-name="uni2076" unicode="&#x2076;" horiz-adv-x="997" 
d="M543 1483q136 0 240.5 -42t160.5 -118l-135 -121q-85 115 -272 115q-126 0 -208.5 -58t-82.5 -141q104 90 299 90q175 0 291 -78q114 -76 114 -196q0 -128 -123 -211q-121 -80 -315 -80q-215 0 -338 108.5t-123 295.5q0 194 133 315q136 121 359 121zM508 805
q106 0 171.5 33t65.5 88t-65.5 89t-171.5 34t-172 -34t-66 -89t65.5 -88t172.5 -33z" />
    <glyph glyph-name="uni2077" unicode="&#x2077;" horiz-adv-x="886" 
d="M643 1298h-450v-153h-173v325h846v-182q-161 -136 -236 -289t-75 -344h-211q0 376 299 643z" />
    <glyph glyph-name="uni2078" unicode="&#x2078;" horiz-adv-x="964" 
d="M86 1247q0 108 108.5 172t288.5 64q179 0 287.5 -64t108.5 -172q0 -111 -131 -168q88 -26 136 -76t48 -116q0 -115 -120.5 -179.5t-328.5 -64.5t-329 64.5t-121 179.5q0 66 48 116t138 76q-133 58 -133 168zM289 1245q0 -43 50 -65.5t144 -22.5q93 0 144 23t51 65
q0 86 -195 86q-194 0 -194 -86zM727 901q0 100 -244 100q-245 0 -245 -100q0 -49 63 -75.5t182 -26.5q117 0 180.5 26.5t63.5 75.5z" />
    <glyph glyph-name="uni2079" unicode="&#x2079;" horiz-adv-x="997" 
d="M457 643q-137 0 -242 42t-160 120l135 121q42 -56 112.5 -86.5t160.5 -30.5q126 0 208.5 57.5t82.5 143.5q-104 -90 -299 -90q-178 0 -293 77q-113 76 -113 197q0 129 121 209q124 80 317 80q214 0 337.5 -108.5t123.5 -293.5q0 -197 -135 -317q-133 -121 -356 -121z
M492 1321q-106 0 -172 -32.5t-66 -86.5q0 -55 66 -89t172 -34t171.5 34t65.5 89t-64 87t-173 32z" />
    <glyph glyph-name="uni2080" unicode="&#x2080;" horiz-adv-x="1044" 
d="M522 -258q-207 0 -338 119q-133 121 -133 303q0 178 133 299q134 119 338 119q205 0 336 -119q135 -120 135 -299q0 -182 -133 -303q-131 -119 -338 -119zM522 406q-117 0 -190.5 -67t-73.5 -175q0 -110 73.5 -178t190.5 -68t189.5 68t72.5 178q0 109 -72.5 175.5
t-189.5 66.5z" />
    <glyph glyph-name="uni2081" unicode="&#x2081;" horiz-adv-x="755" 
d="M293 -70v342h-273v156l140 4q86 1 127.5 33t52.5 104h158v-639h247v-176h-725v176h273z" />
    <glyph glyph-name="uni2082" unicode="&#x2082;" horiz-adv-x="899" 
d="M53 -246v156l359 188q146 76 186 113q41 41 41 84q0 51 -45.5 82t-122.5 31q-97 0 -164 -50.5t-84 -136.5l-186 41q21 140 143 230t299 90q165 0 266 -75t101 -198q0 -91 -55.5 -157.5t-180.5 -126.5l-192 -97h446v-174h-811z" />
    <glyph glyph-name="uni2083" unicode="&#x2083;" horiz-adv-x="931" 
d="M895 -12q0 -105 -121 -176q-119 -70 -307 -70q-170 0 -290 61t-167 170l185 82q26 -63 102 -103t172 -40q93 0 150 25.5t57 68.5q0 84 -199 84h-151v158h145q184 0 184 80q0 37 -50 59.5t-136 22.5q-90 0 -158.5 -35.5t-93.5 -93.5l-176 77q41 100 162 162t278 62
q178 0 285.5 -66t107.5 -172q0 -60 -39.5 -106.5t-105.5 -65.5q166 -51 166 -184z" />
    <glyph glyph-name="uni2084" unicode="&#x2084;" horiz-adv-x="958" 
d="M741 -57v-189h-194v189h-527v157l459 469h262v-463h197v-163h-197zM547 401l-293 -295h293v295z" />
    <glyph glyph-name="uni2085" unicode="&#x2085;" horiz-adv-x="905" 
d="M444 150q-137 0 -219 -58l-170 31l58 446h698v-174h-545l-18 -133q90 49 231 49q178 0 284.5 -75.5t106.5 -202.5q0 -130 -118 -211q-121 -80 -303 -80q-168 0 -289.5 62.5t-159.5 170.5l186 76q29 -66 100 -103.5t165 -37.5q97 0 157 32.5t60 86.5q0 56 -60.5 88.5
t-163.5 32.5z" />
    <glyph glyph-name="uni2086" unicode="&#x2086;" horiz-adv-x="997" 
d="M543 582q136 0 240.5 -42t160.5 -118l-135 -121q-85 115 -272 115q-126 0 -208.5 -58t-82.5 -141q104 90 299 90q175 0 291 -78q114 -77 114 -196q0 -128 -123 -211q-121 -80 -315 -80q-215 0 -338 108t-123 295q0 195 133 316q136 121 359 121zM508 -96q106 0 171.5 33
t65.5 88t-65.5 88.5t-171.5 33.5t-172 -33.5t-66 -88.5t65.5 -88t172.5 -33z" />
    <glyph glyph-name="uni2087" unicode="&#x2087;" horiz-adv-x="886" 
d="M643 397h-450v-153h-173v325h846v-182q-161 -136 -236 -289t-75 -344h-211q0 376 299 643z" />
    <glyph glyph-name="uni2088" unicode="&#x2088;" horiz-adv-x="964" 
d="M86 346q0 108 108.5 172t288.5 64q179 0 287.5 -64t108.5 -172q0 -111 -131 -168q88 -26 136 -76t48 -116q0 -115 -120.5 -179.5t-328.5 -64.5t-329 64.5t-121 179.5q0 66 48 116t138 76q-133 58 -133 168zM289 344q0 -43 50 -65.5t144 -22.5q93 0 144 23t51 65
q0 86 -195 86q-194 0 -194 -86zM727 0q0 100 -244 100q-245 0 -245 -100q0 -49 63 -75.5t182 -26.5q117 0 180.5 26.5t63.5 75.5z" />
    <glyph glyph-name="uni2089" unicode="&#x2089;" horiz-adv-x="997" 
d="M455 -258q-137 0 -242 42t-160 120l135 121q42 -56 112.5 -86.5t160.5 -30.5q126 0 208.5 57.5t82.5 143.5q-105 -91 -299 -91q-177 0 -293 78q-113 76 -113 197q0 129 121 209q124 80 317 80q214 0 337.5 -108.5t123.5 -293.5q0 -197 -135 -317q-133 -121 -356 -121z
M489 420q-106 0 -171.5 -32.5t-65.5 -86.5q0 -55 65.5 -89t171.5 -34t172 34t66 89t-64.5 87t-173.5 32z" />
    <glyph glyph-name="franc" unicode="&#x20a3;" horiz-adv-x="1773" 
d="M328 324h-308v194h308v952h1394v-229h-1136v-358h1020v-230h-1020v-135h375v-194h-375v-324h-258v324z" />
    <glyph glyph-name="naira" unicode="&#x20a6;" horiz-adv-x="2181" 
d="M348 483h-307v185h307v135h-307v184h307v483h270l963 -1091v1091h252v-483h307v-184h-307v-135h307v-185h-307v-483h-229l-1004 1141v-1141h-252v483z" />
    <glyph glyph-name="peseta" unicode="&#x20a7;" horiz-adv-x="2152" 
d="M1200 410h-590v-410h-262v829h-307v222h307v419h852q252 0 406.5 -108.5t189.5 -310.5h315v-222h-315q-35 -201 -190 -310t-406 -109zM1186 1247h-576v-196h920q-32 96 -120 146t-224 50zM610 829v-196h576q136 0 224 50t120 146h-920z" />
    <glyph glyph-name="won" unicode="&#x20a9;" horiz-adv-x="2308" 
d="M379 483h-338v185h287l-37 135h-250v184h199l-136 483h263l307 -1183l350 1183h266l350 -1183l308 1183h256l-136 -483h199v-184h-250l-37 -135h287v-185h-338l-135 -483h-297l-340 1176l-340 -1176h-303z" />
    <glyph glyph-name="dong" unicode="&#x20ab;" horiz-adv-x="1486" 
d="M1016 176v109q-55 -60 -152.5 -93.5t-216.5 -33.5q-243 0 -389 125q-147 126 -147 323q0 198 147 324q151 127 389 127q119 0 216.5 -33.5t152.5 -93.5v213h-346v194h346v133h225v-133h225v-194h-225v-967h-225zM1024 600v14q0 112 -100 181q-101 73 -250 73
q-150 0 -244 -72t-94 -190q0 -116 94.5 -189t243.5 -73q145 0 248 74q102 74 102 182zM1241 -195h-1120v195h1120v-195z" />
    <glyph glyph-name="Euro" unicode="&#x20ac;" horiz-adv-x="1832" 
d="M279 487h-238v185h199q-2 14 -2 63q0 6 4 72h-201v184h242q81 227 297 365q213 137 493 137q268 0 462.5 -119.5t279.5 -335.5l-218 -118q-68 166 -205 254t-327 88q-172 0 -307.5 -72t-202.5 -199h676l-41 -184h-694q-4 -66 -4 -72q0 -7 0.5 -15t1.5 -21.5t2 -26.5h663
l-39 -185h-571q69 -131 204.5 -204.5t311.5 -73.5q190 0 327 88t205 254l218 -119q-85 -216 -279.5 -335.5t-462.5 -119.5q-281 0 -498 138q-213 137 -296 372z" />
    <glyph glyph-name="peso" unicode="&#x20b1;" horiz-adv-x="2152" 
d="M348 688h-307v184h307v136h-307v184h307v278h852q202 0 343.5 -71.5t207.5 -206.5h360v-184h-311q1 -18 2.5 -39t1.5 -29t-1.5 -29t-2.5 -39h311v-184h-360q-67 -135 -209.5 -206.5t-341.5 -71.5h-590v-410h-262v688zM610 1247v-614h576q171 0 265.5 80.5t94.5 226.5
q0 147 -94 227t-266 80h-576z" />
    <glyph glyph-name="uni20B9" unicode="&#x20b9;" horiz-adv-x="1687" 
d="M739 537h-698v221h741q211 0 277 135h-1018v221h1018q-63 135 -277 135h-741v221h1606v-221h-387q50 -62 65 -135h322v-221h-318q-25 -122 -106.5 -206.5t-210.5 -121.5l364 -565h-299z" />
    <glyph glyph-name="uni20BA" unicode="&#x20ba;" horiz-adv-x="1593" 
d="M307 317l-266 -151v205l266 151v140l-260 -148v205l260 147v604h262v-452l447 254v-205l-447 -254v-143l447 254v-205l-447 -254v-236h260q246 0 353.5 118.5t107.5 387.5h262q0 -371 -181.5 -553t-551.5 -182h-512v317z" />
    <glyph glyph-name="uni20BD" unicode="&#x20bd;" horiz-adv-x="1851" 
d="M354 250h-313v225h313v135h-307v226h307v634h955q238 0 369.5 -113t131.5 -317q0 -202 -133 -316t-368 -114h-693v-135h619v-225h-619v-250h-262v250zM1294 1245h-678v-409h678q123 0 190.5 53t67.5 151t-67.5 151.5t-190.5 53.5z" />
    <glyph glyph-name="trademark" unicode="&#x2122;" horiz-adv-x="1855" 
d="M500 1294v-506h-197v506h-262v176h719v-176h-260zM1599 1237l-215 -449h-110l-213 449v-449h-176v682h254l194 -399l195 399h250v-682h-179v449z" />
    <glyph glyph-name="uni2153" unicode="&#x2153;" horiz-adv-x="2146" 
d="M745 655h-725v176h273v343h-273v155l140 4q86 1 127.5 33t52.5 104h158v-639h247v-176zM367 0l1173 1470h227l-1173 -1470h-227zM2109 233q0 -106 -120 -176q-117 -69 -308 -69q-170 0 -289.5 61t-166.5 170l184 82q26 -63 102 -103t172 -40q93 0 150 25.5t57 68.5
q0 84 -198 84h-152v158h146q184 0 184 79q0 37 -50.5 59.5t-136.5 22.5q-90 0 -158 -35.5t-93 -93.5l-177 78q41 100 162 161.5t279 61.5q178 0 285.5 -65.5t107.5 -171.5q0 -60 -39.5 -106.5t-105.5 -65.5q165 -51 165 -185z" />
    <glyph glyph-name="uni2154" unicode="&#x2154;" horiz-adv-x="2248" 
d="M53 655v156l359 188q146 76 186 113q41 41 41 84q0 51 -45.5 82t-122.5 31q-97 0 -164 -50.5t-84 -136.5l-186 41q21 140 143 230t299 90q165 0 266 -75t101 -198q0 -91 -55.5 -157.5t-180.5 -126.5l-192 -97h446v-174h-811zM469 0l1173 1470h228l-1174 -1470h-227z
M2212 233q0 -105 -121 -176q-117 -69 -307 -69q-170 0 -290 61t-167 170l184 82q26 -63 102.5 -103t172.5 -40q93 0 150 25.5t57 68.5q0 84 -199 84h-152v158h146q184 0 184 79q0 37 -50 59.5t-136 22.5q-90 0 -158.5 -35.5t-93.5 -93.5l-176 78q41 100 161.5 161.5
t278.5 61.5q178 0 285.5 -65.5t107.5 -171.5q0 -60 -39.5 -106.5t-105.5 -65.5q166 -51 166 -185z" />
    <glyph glyph-name="uni215B" unicode="&#x215b;" horiz-adv-x="2179" 
d="M745 655h-725v176h273v343h-273v155l140 4q86 1 127.5 33t52.5 104h158v-639h247v-176zM367 0l1173 1470h227l-1173 -1470h-227zM1300 592q0 108 109 171.5t289 63.5t287.5 -63.5t107.5 -171.5q0 -111 -131 -168q88 -26 136 -76.5t48 -116.5q0 -115 -120 -179t-328 -64
q-209 0 -330 64t-121 179q0 66 48.5 116.5t138.5 76.5q-134 58 -134 168zM1503 590q0 -43 50.5 -65.5t144.5 -22.5q93 0 143.5 22.5t50.5 65.5q0 86 -194 86q-195 0 -195 -86zM1942 246q0 100 -244 100q-246 0 -246 -100q0 -50 64 -76.5t182 -26.5q117 0 180.5 27t63.5 76z
" />
    <glyph glyph-name="uni215C" unicode="&#x215c;" horiz-adv-x="2191" 
d="M895 889q0 -105 -121 -176q-119 -70 -307 -70q-170 0 -290 61t-167 170l185 82q26 -63 102 -103t172 -40q93 0 150 25.5t57 68.5q0 84 -199 84h-151v158h145q184 0 184 80q0 37 -50 59.5t-136 22.5q-90 0 -158.5 -35.5t-93.5 -93.5l-176 78q41 100 161.5 161.5
t278.5 61.5q178 0 285.5 -66t107.5 -172q0 -60 -39.5 -106.5t-105.5 -65.5q166 -51 166 -184zM379 0l1173 1470h228l-1174 -1470h-227zM1313 592q0 108 108.5 171.5t288.5 63.5t287.5 -63.5t107.5 -171.5q0 -111 -131 -168q88 -26 136.5 -76.5t48.5 -116.5q0 -115 -120 -179
t-329 -64t-329.5 64t-120.5 179q0 66 48 116.5t138 76.5q-133 58 -133 168zM1516 590q0 -43 50 -65.5t144 -22.5q93 0 144 23t51 65q0 86 -195 86q-194 0 -194 -86zM1954 246q0 100 -244 100q-246 0 -246 -100q0 -50 64 -76.5t182 -26.5q117 0 180.5 27t63.5 76z" />
    <glyph glyph-name="uni215D" unicode="&#x215d;" horiz-adv-x="2164" 
d="M444 1051q-137 0 -219 -58l-170 31l58 446h698v-174h-545l-18 -133q90 49 231 49q178 0 284.5 -75.5t106.5 -202.5q0 -130 -118 -211q-121 -80 -303 -80q-168 0 -289.5 63t-159.5 171l186 75q29 -66 100 -103.5t165 -37.5q97 0 157 32.5t60 86.5q0 56 -60.5 88.5
t-163.5 32.5zM352 0l1174 1470h227l-1173 -1470h-228zM1286 592q0 108 108.5 171.5t288.5 63.5t288 -63.5t108 -171.5q0 -111 -131 -168q88 -26 136 -76.5t48 -116.5q0 -115 -120 -179t-329 -64t-329.5 64t-120.5 179q0 66 48 116.5t138 76.5q-133 58 -133 168zM1489 590
q0 -43 50 -65.5t144 -22.5q93 0 144 23t51 65q0 86 -195 86q-194 0 -194 -86zM1927 246q0 100 -244 100q-245 0 -245 -100q0 -50 63.5 -76.5t181.5 -26.5q117 0 180.5 27t63.5 76z" />
    <glyph glyph-name="uni215E" unicode="&#x215e;" horiz-adv-x="2084" 
d="M643 1298h-450v-153h-173v325h846v-182q-161 -136 -236 -289t-75 -344h-211q0 376 299 643zM272 0l1174 1470h227l-1173 -1470h-228zM1206 592q0 108 109 171.5t289 63.5t287.5 -63.5t107.5 -171.5q0 -111 -131 -168q88 -26 136 -76.5t48 -116.5q0 -115 -120 -179
t-328 -64q-209 0 -330 64t-121 179q0 66 48 116.5t138 76.5q-133 58 -133 168zM1409 590q0 -43 50.5 -65.5t144.5 -22.5q93 0 143.5 22.5t50.5 65.5q0 86 -194 86q-195 0 -195 -86zM1847 246q0 100 -243 100q-246 0 -246 -100q0 -50 64 -76.5t182 -26.5q117 0 180 26.5
t63 76.5z" />
    <glyph glyph-name="arrowleft" unicode="&#x2190;" horiz-adv-x="1636" 
d="M446 618l373 -417l-180 -170l-629 710l629 711l180 -170l-373 -418h1180v-246h-1180z" />
    <glyph glyph-name="arrowup" unicode="&#x2191;" horiz-adv-x="1523" 
d="M1513 813l-170 -174l-458 422v-1061h-246v1061l-459 -422l-170 174l752 680z" />
    <glyph glyph-name="arrowright" unicode="&#x2192;" horiz-adv-x="1636" 
d="M997 1452l629 -711l-629 -710l-180 170l373 417h-1180v246h1180l-373 418z" />
    <glyph glyph-name="arrowdown" unicode="&#x2193;" horiz-adv-x="1523" 
d="M1343 831l170 -174l-751 -680l-752 680l170 174l459 -421v1060h246v-1060z" />
    <glyph glyph-name="minus" unicode="&#x2212;" 
d="M1511 614h-1384v215h1384v-215z" />
    <glyph glyph-name="commaaccent" unicode="&#xf6c3;" horiz-adv-x="1228" 
d="M588 -240h-99v164h246v-129q0 -96 -66.5 -151.5t-179.5 -55.5v107q88 0 99 65z" />
    <glyph glyph-name="idotaccent" horiz-adv-x="483" 
d="M369 1219h-254v251h254v-251zM119 1075h246v-1075h-246v1075z" />
    <glyph glyph-name="a.ord" horiz-adv-x="974" 
d="M690 797q-55 -54 -139.5 -82.5t-183.5 -28.5q-146 0 -234 64.5t-88 173.5q0 100 78.5 163t224.5 76l322 35v4q0 56 -50.5 86.5t-142.5 30.5q-82 0 -145.5 -32t-83.5 -83l-176 60q35 100 148 160.5t265 60.5q185 0 283 -73t98 -212v-301q0 -38 25 -47q12 -4 24 -4
q27 0 58 8v-154q-55 -10 -92 -10q-49 0 -90 15q-73 24 -101 90zM395 842q111 0 193 43q82 46 82 112v54l-289 -31q-74 -8 -105.5 -28.5t-31.5 -61.5q0 -88 151 -88z" />
    <glyph glyph-name="b.ord" horiz-adv-x="1071" 
d="M1024 1085q0 -172 -117 -286q-113 -113 -301 -113q-92 0 -168.5 29t-120.5 80v-93h-204v1049h204v-373q44 50 121.5 78.5t167.5 28.5q188 0 301 -113q117 -114 117 -287zM569 1319q-112 0 -186 -66t-74 -166v-4q0 -100 73.5 -164.5t186.5 -64.5t185.5 64t72.5 167
q0 104 -72.5 169t-185.5 65z" />
    <glyph glyph-name="c.ord" horiz-adv-x="915" 
d="M500 1317q-113 0 -184.5 -64t-71.5 -168q0 -103 70.5 -166t185.5 -63q81 0 146 45t89 115l170 -86q-42 -107 -153 -175.5t-250 -68.5q-198 0 -326 113q-129 114 -129 286q0 175 127 287q128 113 328 113q141 0 253.5 -69.5t149.5 -176.5l-170 -82q-25 70 -89.5 115
t-145.5 45z" />
    <glyph glyph-name="d.ord" horiz-adv-x="1071" 
d="M465 686q-187 0 -303 113q-115 115 -115 286q0 172 115 287q116 113 303 113q90 0 167.5 -28.5t121.5 -78.5v373h204v-1049h-204v93q-44 -51 -120.5 -80t-168.5 -29zM762 1083v4q0 100 -74 166t-186 66q-113 0 -185.5 -65t-72.5 -169q0 -103 72.5 -167t185.5 -64
t186.5 64.5t73.5 164.5z" />
    <glyph glyph-name="e.ord" horiz-adv-x="968" 
d="M500 686q-200 0 -326 111q-127 115 -127 288q0 170 127 285q130 115 326 115q190 0 307 -111q117 -108 117 -280v-64h-680q19 -82 86.5 -129t167.5 -47q86 0 149.5 37.5t89.5 103.5l172 -75q-41 -105 -154 -169.5t-255 -64.5zM492 1323q-88 0 -152.5 -42t-89.5 -114h473
q-12 66 -78 111t-153 45z" />
    <glyph glyph-name="f.ord" horiz-adv-x="665" 
d="M522 1767q113 0 183 -26l-29 -168q-63 18 -148 18q-82 0 -118.5 -26t-36.5 -86v-9h295v-170h-293v-598h-201v598h-184v170h184v13q0 139 89 211.5t259 72.5z" />
    <glyph glyph-name="g.ord" horiz-adv-x="1060" 
d="M948 1470v-659q0 -174 -131 -281q-131 -104 -342 -104q-160 0 -272.5 52t-159.5 149l166 100q29 -66 98 -102.5t166 -36.5q120 0 195 55.5t75 147.5v30q-98 -106 -284 -106q-188 0 -305 108q-115 109 -115 277t117 276q118 109 303 109q182 0 284 -105v90h205zM754 1098
v6q0 96 -74.5 157.5t-185.5 61.5t-183.5 -62.5t-72.5 -160.5t72.5 -159.5t183.5 -61.5q113 0 186.5 61.5t73.5 157.5z" />
    <glyph glyph-name="h.ord" horiz-adv-x="1038" 
d="M317 702h-204v1049h204v-377q102 111 281 111q153 0 244.5 -96.5t91.5 -258.5v-428h-205v379q0 105 -52 163.5t-145 58.5q-102 0 -158.5 -59.5t-56.5 -164.5v-377z" />
    <glyph glyph-name="i.ord" horiz-adv-x="425" 
d="M317 1561h-208v190h208v-190zM111 1470h204v-768h-204v768z" />
    <glyph glyph-name="j.ord" horiz-adv-x="425" 
d="M317 1561h-208v190h208v-190zM-25 596q72 0 104 31t32 100v743h204v-741q0 -148 -81.5 -223.5t-241.5 -75.5q-93 0 -166 25l31 161q61 -20 118 -20z" />
    <glyph glyph-name="k.ord" horiz-adv-x="987" 
d="M113 1751h204v-635l416 354h281l-396 -329l408 -439h-256l-299 316l-154 -127v-189h-204v1049z" />
    <glyph glyph-name="l.ord" horiz-adv-x="430" 
d="M113 1751h204v-1049h-204v1049z" />
    <glyph glyph-name="m.ord" horiz-adv-x="1613" 
d="M522 1303q-98 0 -151.5 -57t-53.5 -163v-381h-204v768h204v-94q100 109 269 109q88 0 157 -36t107 -103q124 139 319 139q161 0 250.5 -95.5t89.5 -265.5v-422h-204v383q0 105 -48.5 161.5t-138.5 56.5q-98 0 -151.5 -57t-53.5 -163v-381h-204v383q0 105 -48.5 161.5
t-138.5 56.5z" />
    <glyph glyph-name="n.ord" horiz-adv-x="1038" 
d="M317 702h-204v768h204v-96q102 111 281 111q153 0 244.5 -96.5t91.5 -258.5v-428h-205v379q0 105 -52 163.5t-145 58.5q-102 0 -158.5 -59.5t-56.5 -164.5v-377z" />
    <glyph glyph-name="o.ord" horiz-adv-x="989" 
d="M496 1485q194 0 319 -113q127 -112 127 -287q0 -171 -127 -286q-125 -113 -319 -113q-197 0 -322 113q-127 115 -127 286q0 175 127 287q125 113 322 113zM496 1315q-111 0 -181.5 -64t-70.5 -166t70.5 -165.5t181.5 -63.5t180 63.5t69 165.5q0 103 -69.5 166.5
t-179.5 63.5z" />
    <glyph glyph-name="p.ord" horiz-adv-x="1071" 
d="M1024 1085q0 -172 -117 -286q-113 -113 -301 -113q-92 0 -168.5 29t-120.5 80v-353h-204v1028h204v-92q44 50 121.5 78.5t167.5 28.5q188 0 301 -113q117 -114 117 -287zM569 1319q-112 0 -186 -66t-74 -166v-4q0 -100 73.5 -164.5t186.5 -64.5t185.5 64t72.5 167
q0 104 -72.5 169t-185.5 65z" />
    <glyph glyph-name="q.ord" horiz-adv-x="1071" 
d="M465 686q-187 0 -303 113q-115 115 -115 286q0 172 115 287q116 113 303 113q90 0 167.5 -28.5t121.5 -78.5v92h204v-1028h-204v353q-44 -51 -120.5 -80t-168.5 -29zM762 1083v4q0 100 -74 166t-186 66q-113 0 -185.5 -65t-72.5 -169q0 -103 72.5 -167t185.5 -64
t186.5 64.5t73.5 164.5z" />
    <glyph glyph-name="r.ord" horiz-adv-x="708" 
d="M606 1475q40 0 86 -11v-200q-59 12 -92 12q-140 0 -211.5 -62.5t-71.5 -185.5v-326h-204v768h204v-135q96 140 289 140z" />
    <glyph glyph-name="s.ord" horiz-adv-x="851" 
d="M430 686q-142 0 -260 43.5t-184 118.5l118 133q120 -135 332 -135q187 0 187 80q0 29 -29 45t-217 37q-206 28 -273 75q-71 53 -71 148q0 116 102.5 185t274.5 69q124 0 230.5 -39t168.5 -105l-117 -124q-104 110 -291 110q-82 0 -126 -19.5t-44 -56.5q0 -28 29 -41
q23 -10 193 -32q227 -27 301 -80q73 -52 73 -150q0 -121 -108 -191.5t-289 -70.5z" />
    <glyph glyph-name="t.ord" horiz-adv-x="768" 
d="M489 692q-150 0 -231.5 69t-81.5 197v342h-184v170h184v220h201v-220h328v-170h-328v-307q0 -66 36.5 -94.5t121.5 -28.5q67 0 165 33l37 -168q-115 -43 -248 -43z" />
    <glyph glyph-name="u.ord" horiz-adv-x="1028" 
d="M713 1470h202v-768h-202v97q-101 -113 -277 -113q-152 0 -242 94.5t-90 255.5v434h203v-401q0 -203 195 -203q100 0 155.5 57t55.5 160v387z" />
    <glyph glyph-name="v.ord" horiz-adv-x="952" 
d="M958 1470l-376 -768h-209l-379 768h225l262 -546l258 546h219z" />
    <glyph glyph-name="w.ord" horiz-adv-x="1337" 
d="M401 950l183 520h178l184 -520l187 520h210l-303 -768h-182l-190 512l-189 -512h-182l-303 768h217z" />
    <glyph glyph-name="x.ord" horiz-adv-x="968" 
d="M975 702h-258l-232 259l-241 -259h-250l366 385l-354 383h256l223 -247l230 247h248l-353 -372z" />
    <glyph glyph-name="y.ord" horiz-adv-x="952" 
d="M958 1470l-399 -821q-57 -118 -134 -168.5t-200 -50.5q-42 0 -91.5 9.5t-74.5 21.5l37 166q66 -29 113 -29q61 0 97.5 24.5t55.5 75.5l9 23l-377 749h227l262 -548l258 548h217z" />
    <glyph glyph-name="z.ord" horiz-adv-x="944" 
d="M352 872h529v-170h-815v152l526 446h-520v170h805v-153z" />
    <glyph glyph-name="caron.Slovak" horiz-adv-x="1228" 
d="M621 1137h-168l55 333h278z" />
    <glyph glyph-name="commaturn" horiz-adv-x="1228" 
d="M639 1346h98v-164h-245v129q0 96 66 151.5t179 55.5v-107q-45 0 -68.5 -15t-29.5 -50z" />
    <glyph glyph-name="grave.cap" horiz-adv-x="1228" 
d="M639 1858l252 -302h-225l-390 302h363z" />
    <glyph glyph-name="acute.cap" horiz-adv-x="1228" 
d="M532 1556h-225l252 302h363z" />
    <glyph glyph-name="circumflex.cap" horiz-adv-x="1228" 
d="M471 1858h287l299 -302h-215l-228 146l-227 -146h-215z" />
    <glyph glyph-name="caron.cap" horiz-adv-x="1228" 
d="M1057 1858l-299 -302h-287l-299 302h215l227 -146l228 146h215z" />
    <glyph glyph-name="tilde.cap" horiz-adv-x="1228" 
d="M408 1876q58 0 109.5 -14t133.5 -54q100 -49 152 -49q36 0 57 27.5t33 89.5h166q-11 -148 -74.5 -232.5t-165.5 -84.5q-58 0 -110.5 13.5t-133.5 53.5q-98 49 -149 49q-37 0 -58.5 -27.5t-31.5 -88.5h-166q7 148 71 232.5t167 84.5z" />
    <glyph glyph-name="macron.cap" horiz-adv-x="1228" 
d="M1008 1780v-203h-787v203h787z" />
    <glyph glyph-name="breve.cap" horiz-adv-x="1228" 
d="M614 1720q94 0 154.5 39t60.5 99h185q0 -140 -108.5 -224t-291.5 -84q-182 0 -290.5 84t-108.5 224h184q0 -60 60.5 -99t154.5 -39z" />
    <glyph glyph-name="dotaccent.cap" horiz-adv-x="1228" 
d="M745 1556h-262v252h262v-252z" />
    <glyph glyph-name="dieresis.cap" horiz-adv-x="1228" 
d="M485 1556h-262v252h262v-252zM1006 1556h-263v252h263v-252z" />
    <glyph glyph-name="ring.cap" horiz-adv-x="1228" 
d="M614 1556q-111 0 -188 74q-76 76 -76 182t76 179t188 73q116 0 189 -73q76 -70 76 -179t-76 -182q-77 -74 -189 -74zM614 1921q-47 0 -76.5 -30.5t-29.5 -78.5q0 -49 29 -78.5t77 -29.5t77.5 29.5t29.5 78.5q0 47 -30 78t-77 31z" />
    <glyph glyph-name="hungarumlaut.cap" horiz-adv-x="1228" 
d="M821 1556h-190l196 302h306zM354 1556h-190l178 302h324z" />
    <glyph glyph-name="guilsinglleft.cap" horiz-adv-x="567" 
d="M485 342l-403 268v246l403 268v-245l-204 -146l204 -145v-246z" />
    <glyph glyph-name="guilsinglright.cap" horiz-adv-x="567" 
d="M82 588l205 145l-205 146v245l403 -268v-246l-403 -268v246z" />
    <glyph glyph-name="guillemotleft.cap" horiz-adv-x="1017" 
d="M485 342l-403 268v246l403 268v-245l-204 -146l204 -145v-246zM936 342l-404 268v246l404 268v-245l-205 -146l205 -145v-246z" />
    <glyph glyph-name="guillemotright.cap" horiz-adv-x="1017" 
d="M485 860v-246l-403 -268v246l205 145l-205 146v245zM936 860v-246l-404 -268v246l205 145l-205 146v245z" />
    <glyph glyph-name="slash.cap" horiz-adv-x="1089" 
d="M276 -123h-256l793 1712h256z" />
    <glyph glyph-name="backslash.cap" horiz-adv-x="1089" 
d="M20 1589h256l793 -1712h-256z" />
    <glyph glyph-name="bar.cap" horiz-adv-x="528" 
d="M385 -123h-242v1712h242v-1712z" />
    <glyph glyph-name="periodcentered.cap" horiz-adv-x="460" 
d="M379 584h-297v297h297v-297z" />
    <glyph glyph-name="bullet.cap" horiz-adv-x="872" 
d="M82 733q0 152 102 254q103 103 254 103q147 0 250 -103t103 -254q0 -149 -103 -252q-100 -100 -250 -100q-154 0 -254 100q-102 102 -102 252z" />
    <glyph glyph-name="hyphen.cap" horiz-adv-x="737" 
d="M655 627h-573v219h573v-219z" />
    <glyph glyph-name="endash.cap" horiz-adv-x="1110" 
d="M1028 637h-946v199h946v-199z" />
    <glyph glyph-name="emdash.cap" horiz-adv-x="1998" 
d="M1917 637h-1835v199h1835v-199z" />
    <glyph glyph-name="parenleft.cap" horiz-adv-x="776" 
d="M301 696q0 -242 120.5 -459t354.5 -397h-264q-221 142 -346 369t-125 487t125 487t346 369h264q-475 -373 -475 -856z" />
    <glyph glyph-name="parenright.cap" horiz-adv-x="776" 
d="M475 696q0 483 -475 856h264q221 -142 346 -369t125 -487t-125 -487t-346 -369h-264q234 180 354.5 397t120.5 459z" />
    <glyph glyph-name="bracketleft.cap" horiz-adv-x="718" 
d="M698 1352h-376v-1313h376v-199h-616v1712h616v-200z" />
    <glyph glyph-name="bracketright.cap" horiz-adv-x="718" 
d="M397 39v1313h-377v200h617v-1712h-617v199h377z" />
    <glyph glyph-name="braceleft.cap" horiz-adv-x="841" 
d="M137 596h-96v201h96q123 0 123 174v229q0 167 101 259.5t284 92.5h176v-200h-139q-105 0 -152 -48.5t-47 -156.5v-176q0 -213 -157 -275q157 -62 157 -274v-176q0 -108 47 -156.5t152 -48.5h139v-201h-176q-183 0 -284 93t-101 260v229q0 174 -123 174z" />
    <glyph glyph-name="braceright.cap" horiz-adv-x="841" 
d="M705 596q-123 0 -123 -174v-229q0 -170 -101.5 -261.5t-283.5 -91.5h-177v201h140q107 0 152.5 48.5t45.5 156.5v176q0 121 43 183t115 91q-72 29 -115 91.5t-43 183.5v176q0 108 -45.5 156.5t-152.5 48.5h-140v200h177q182 0 283.5 -91t101.5 -261v-229q0 -174 123 -174
h96v-201h-96z" />
    <glyph glyph-name="at.cap" horiz-adv-x="2144" 
d="M1612 1110l-103 -532q-24 -121 99 -121q120 0 202 98q82 101 82 256q0 247 -200 391t-545 144q-396 0 -641 -195q-244 -194 -244 -506q0 -287 215.5 -444.5t607.5 -157.5q202 0 391 43t314 117l96 -162q-149 -92 -355 -141.5t-441 -49.5q-479 0 -760 213
q-279 211 -279 582q0 202 90 376t256 296q300 217 746 217q424 0 686 -197q264 -197 264 -518q0 -246 -145 -397q-145 -148 -379 -148q-91 0 -161 31t-105 86q-49 -53 -142.5 -85t-197.5 -32q-196 0 -313.5 101.5t-117.5 269.5q0 203 148 342q147 141 369 141
q100 0 184 -30.5t135 -85.5l21 98h223zM782 666q0 -92 60 -144.5t164 -52.5q129 0 211 76q83 77 83 192q0 92 -59.5 144.5t-163.5 52.5q-129 0 -213 -78q-82 -76 -82 -190z" />
    <glyph glyph-name="zero.dnom" horiz-adv-x="1044" 
d="M522 -12q-208 0 -338 118q-133 121 -133 304q0 178 133 299q133 118 338 118q206 0 336 -118q135 -120 135 -299q0 -183 -133 -304q-130 -118 -338 -118zM522 651q-118 0 -191 -66.5t-73 -174.5q0 -110 73.5 -178t190.5 -68t189.5 68t72.5 178q0 108 -72.5 174.5
t-189.5 66.5z" />
    <glyph glyph-name="one.dnom" horiz-adv-x="755" 
d="M293 176v342h-273v156l140 4q86 1 127.5 33t52.5 104h158v-639h247v-176h-725v176h273z" />
    <glyph glyph-name="two.dnom" horiz-adv-x="899" 
d="M53 0v156l359 188q146 76 186 113q41 41 41 84q0 51 -45 81.5t-123 30.5q-97 0 -164 -50t-84 -136l-186 41q21 139 143 229t299 90q165 0 266 -74.5t101 -197.5q0 -91 -55.5 -158t-180.5 -127l-192 -96h446v-174h-811z" />
    <glyph glyph-name="three.dnom" horiz-adv-x="931" 
d="M895 233q0 -105 -121 -176q-117 -69 -307 -69q-170 0 -290 61t-167 170l185 82q26 -63 102 -103t172 -40q93 0 150 25.5t57 68.5q0 84 -199 84h-151v158h145q184 0 184 79q0 37 -50 59.5t-136 22.5q-90 0 -158.5 -35.5t-93.5 -93.5l-176 78q41 100 161.5 161.5
t278.5 61.5q178 0 285.5 -65.5t107.5 -171.5q0 -60 -39.5 -106.5t-105.5 -65.5q166 -51 166 -185z" />
    <glyph glyph-name="four.dnom" horiz-adv-x="958" 
d="M741 188v-188h-194v188h-527v158l459 469h262v-463h197v-164h-197zM547 647l-293 -295h293v295z" />
    <glyph glyph-name="five.dnom" horiz-adv-x="905" 
d="M444 395q-139 0 -219 -57l-170 31l58 446h698v-174h-545l-18 -133q90 49 231 49q178 0 284.5 -75.5t106.5 -202.5q0 -130 -118 -211q-121 -80 -303 -80q-168 0 -289.5 62.5t-159.5 170.5l186 76q29 -66 100 -103.5t165 -37.5q97 0 157 32t60 86q0 56 -60.5 88.5
t-163.5 32.5z" />
    <glyph glyph-name="six.dnom" horiz-adv-x="997" 
d="M543 827q136 0 240.5 -42t160.5 -117l-135 -121q-85 115 -272 115q-126 0 -208.5 -58t-82.5 -141q104 90 299 90q175 0 291 -78q114 -76 114 -196q0 -129 -123 -211q-121 -80 -315 -80q-215 0 -338 108t-123 295q0 195 133 316q135 120 359 120zM508 150q107 0 172 32.5
t65 87.5t-65.5 89t-171.5 34t-172 -34t-66 -89t65.5 -87.5t172.5 -32.5z" />
    <glyph glyph-name="seven.dnom" horiz-adv-x="886" 
d="M643 643h-450v-154h-173v326h846v-182q-161 -136 -236 -289t-75 -344h-211q0 376 299 643z" />
    <glyph glyph-name="eight.dnom" horiz-adv-x="964" 
d="M86 592q0 108 108.5 171.5t288.5 63.5t288 -63.5t108 -171.5q0 -111 -131 -168q88 -26 136 -76.5t48 -116.5q0 -115 -120 -179t-329 -64t-329.5 64t-120.5 179q0 66 48 116.5t138 76.5q-133 58 -133 168zM289 590q0 -43 50 -65.5t144 -22.5q93 0 144 23t51 65
q0 86 -195 86q-194 0 -194 -86zM727 246q0 100 -244 100q-245 0 -245 -100q0 -50 63.5 -76.5t181.5 -26.5q117 0 180.5 27t63.5 76z" />
    <glyph glyph-name="nine.dnom" horiz-adv-x="997" 
d="M455 -12q-137 0 -242 42t-160 120l135 120q86 -116 273 -116q127 0 209 57.5t82 142.5q-104 -90 -299 -90q-177 0 -293 78q-113 76 -113 197q0 129 121 209q122 79 317 79q214 0 337.5 -108t123.5 -293q0 -197 -135 -317q-133 -121 -356 -121zM489 666
q-106 0 -171.5 -32.5t-65.5 -86.5q0 -55 65.5 -89t171.5 -34t172 34t66 89t-64.5 87t-173.5 32z" />
    <glyph glyph-name="colon.mid" horiz-adv-x="821" 
d="M559 229h-297v297h297v-297zM559 944h-297v297h297v-297z" />
    <glyph glyph-name="commaaboverightcmb" horiz-adv-x="0" 
d="M2 1137h-168l55 333h279z" />
    <glyph glyph-name="space.tab" horiz-adv-x="819" 
 />
    <glyph glyph-name="period.tab" horiz-adv-x="819" 
d="M559 0h-297v297h297v-297z" />
    <glyph glyph-name="comma.tab" horiz-adv-x="819" 
d="M397 0h-135v297h297v-311q0 -127 -80 -202t-217 -77v137q69 5 102 39t33 101v16z" />
    <glyph glyph-name="colon.tab" horiz-adv-x="819" 
d="M559 0h-297v297h297v-297zM559 715h-297v297h297v-297z" />
    <glyph glyph-name="semicolon.tab" horiz-adv-x="819" 
d="M397 0h-135v297h297v-311q0 -127 -80 -202t-217 -77v137q69 5 102 39t33 101v16zM559 715h-297v297h297v-297z" />
    <glyph glyph-name="florin.lt" horiz-adv-x="1636" 
d="M942 700l-51 -276q-83 -447 -516 -447q-115 0 -214 30.5t-165 86.5l113 187q119 -95 256 -95q109 0 177 64t91 188l47 262h-301v177h334l30 170q83 446 517 446q115 0 213.5 -30.5t164.5 -86.5l-112 -186q-118 94 -256 94q-109 0 -177.5 -64t-91.5 -188l-28 -155h321
v-177h-352z" />
    <glyph glyph-name="Euro.lt" 
d="M178 487h-133v185h96q-2 14 -2 63q0 56 2 72h-96v184h135q75 228 275 365q198 137 456 137q244 0 420.5 -116.5t261.5 -332.5l-217 -118q-67 166 -187 251t-286 85q-153 0 -272.5 -71.5t-181.5 -199.5h602l-41 -184h-613q-4 -66 -4 -72q0 -49 2 -63h584l-39 -185h-496
q62 -131 183 -204.5t276 -73.5q166 0 286 85t187 251l217 -119q-85 -216 -261.5 -332.5t-420.5 -116.5q-261 0 -460 138q-197 138 -273 372z" />
    <glyph glyph-name="dollar.lt" 
d="M6 362l193 166q88 -125 230.5 -203.5t315.5 -97.5v422q-374 47 -503 133q-133 89 -133 254q0 185 174 301q174 119 462 131v215h211v-221q212 -23 378 -102t245 -195l-190 -157q-124 182 -433 231v-387q391 -47 523 -135q133 -89 133 -262q0 -197 -172 -315.5
t-484 -137.5v-219h-211v221q-242 18 -448 115q-199 99 -291 243zM356 1057q0 -77 80 -115q81 -38 309 -65v372q-197 -6 -293 -53t-96 -139zM1356 428q0 87 -76 127t-324 70v-402q192 12 296 65.5t104 139.5z" />
    <glyph glyph-name="cent.lt" 
d="M965 -217h-197v201q-244 30 -397 186q-152 158 -152 379t152 379q155 158 397 188v230h197v-230q172 -21 303 -115q130 -90 180 -221l-188 -110q-35 94 -113 157.5t-182 83.5v-723q104 20 183.5 86t111.5 158l186 -117q-51 -130 -181.5 -220.5t-299.5 -110.5v-201z
M449 549q0 -137 86.5 -236t232.5 -125v721q-146 -26 -232.5 -123.5t-86.5 -236.5z" />
    <glyph glyph-name="sterling.lt" 
d="M553 582h-336v194h203q-78 125 -78 256q0 196 166 328q168 133 418 133q263 0 420 -139t157 -375q0 -68 -8 -115h-233q1 19 2.5 41.5t1.5 30.5q0 161 -90.5 247.5t-257.5 86.5q-146 0 -235 -74t-89 -195q0 -54 17.5 -103t62.5 -122h459v-194h-355q21 -64 21 -129
q0 -54 -17 -127q107 -70 175 -95.5t137 -25.5q116 0 192.5 70t83.5 186h236q3 -205 -138 -346q-138 -138 -344 -138q-100 0 -195.5 39t-223.5 136q-60 -85 -146 -130t-186 -45q-133 0 -216 74t-83 193q0 110 84.5 177.5t220.5 67.5q103 0 213 -49q0 68 -39 142zM387 324
q-51 0 -82 -23t-31 -61q0 -37 30 -57.5t81 -20.5q104 0 164 104q-88 58 -162 58z" />
    <glyph glyph-name="yen.lt" horiz-adv-x="1636" 
d="M696 369h-450v184h450v135h-450v184h303l-504 598h330l446 -581l445 581h325l-501 -598h305v-184h-453v-135h453v-184h-453v-369h-246v369z" />
    <glyph glyph-name="zero.lt" 
d="M819 -23q-313 0 -526 216q-209 218 -209 542q0 326 209 541q211 217 526 217q316 0 524 -217q211 -214 211 -541q0 -325 -211 -542q-210 -216 -524 -216zM819 1262q-207 0 -340 -148q-129 -144 -129 -379q0 -234 129 -381q133 -145 340 -145q206 0 336 145
q131 146 131 381q0 236 -131 379q-130 148 -336 148z" />
    <glyph glyph-name="one.lt" 
d="M815 1481h199v-1262h534v-219h-1390v219h594v795h-594v196l383 17q137 6 200.5 65t73.5 189z" />
    <glyph glyph-name="two.lt" 
d="M125 0v213l711 395l165 94q65 43 89 60q75 57 109 114.5t34 129.5q0 117 -106.5 190.5t-272.5 73.5q-204 0 -343 -107.5t-171 -290.5l-238 66q55 253 260 403q208 152 504 152q276 0 451 -135q174 -134 174 -350q0 -153 -102 -273q-103 -121 -365 -264l-442 -242h944
v-229h-1401z" />
    <glyph glyph-name="three.lt" 
d="M1554 422q0 -190 -204 -318q-207 -127 -523 -127q-293 0 -505 123q-209 123 -267 328l234 98q53 -149 196 -237q146 -90 340 -90q211 0 337 64.5t126 174.5q0 102 -108 155.5t-308 53.5h-262v221h258q178 0 274.5 50.5t96.5 144.5q0 97 -108 153t-291 56q-185 0 -326 -84
q-134 -82 -180 -219l-232 78q58 202 260 323q200 123 488 123q295 0 475 -115q180 -113 180 -297q0 -110 -78.5 -197.5t-207.5 -119.5q164 -37 249.5 -124t85.5 -218z" />
    <glyph glyph-name="four.lt" 
d="M1264 358v-358h-252v358h-951v205l859 907h348v-895h329v-217h-333zM1008 1257l-639 -682h639v682z" />
    <glyph glyph-name="five.lt" 
d="M829 780q-288 0 -475 -139l-190 61l92 768h1208v-229h-1011l-45 -346q85 50 210 76.5t265 25.5q297 -3 493 -143q193 -138 193 -360q0 -226 -207 -371q-208 -146 -520 -146q-306 0 -520 123q-216 124 -271 328l236 98q46 -143 200 -235q157 -92 357 -92q203 0 330 80
q129 79 129 210q0 129 -132 209q-131 82 -342 82z" />
    <glyph glyph-name="six.lt" 
d="M887 1493q215 0 390 -87t267 -241l-190 -159q-59 123 -189 196q-133 74 -288 74q-233 0 -385 -143q-154 -145 -154 -357q87 103 227 159t316 56q291 0 479 -141q188 -138 188 -354q0 -225 -198 -371q-198 -148 -500 -148q-355 0 -555 197q-199 196 -199 535
q0 352 215 567q217 217 576 217zM840 193q198 0 323 79q127 80 127 209q0 130 -125 209q-125 82 -321 82q-201 0 -326 -82q-125 -79 -125 -209q0 -129 123 -209q122 -79 324 -79z" />
    <glyph glyph-name="seven.lt" 
d="M1296 1245h-981v-295h-227v520h1485v-233q-315 -306 -447 -592q-135 -292 -135 -645h-266q0 352 140.5 658t430.5 587z" />
    <glyph glyph-name="eight.lt" 
d="M166 1087q0 189 176 297q180 109 477 109q298 0 475 -109q179 -108 179 -297q0 -112 -66 -188t-209 -127q169 -43 262.5 -137.5t93.5 -226.5q0 -205 -198 -318q-195 -113 -537 -113q-340 0 -538 113q-197 114 -197 318q0 132 93.5 226.5t262.5 137.5q-142 51 -208 126.5
t-66 188.5zM420 1083q0 -100 103.5 -153t295.5 -53t296 53t104 153q0 98 -105 152.5t-295 54.5t-294.5 -54.5t-104.5 -152.5zM1290 426q0 115 -123.5 176.5t-347.5 61.5t-347.5 -61.5t-123.5 -176.5q0 -117 122 -179.5t349 -62.5t349 62.5t122 179.5z" />
    <glyph glyph-name="nine.lt" 
d="M752 -23q-215 0 -390.5 87t-267.5 241l191 160q60 -126 188 -197q131 -73 289 -73q233 0 385 143q153 144 153 356q-87 -103 -226.5 -159t-315.5 -56q-293 0 -482 139q-186 140 -186 357q0 224 197 371q199 147 501 147q353 0 553 -197q201 -198 201 -534
q0 -352 -217 -569q-216 -216 -573 -216zM799 1278q-199 0 -326 -80q-125 -79 -125 -209q0 -129 125 -211q127 -80 322 -80q198 0 325 80q125 82 125 211t-123 209q-124 80 -323 80z" />
    <glyph glyph-name="percent.lt" 
d="M399 764q-158 0 -260 102q-102 105 -102 262q0 159 102 261q101 104 260 104t260 -104q103 -103 103 -261q0 -156 -103 -262q-102 -102 -260 -102zM403 0h-235l1067 1470h235zM399 930q75 0 121.5 54t46.5 144t-46.5 144.5t-121.5 54.5t-121.5 -54.5t-46.5 -144.5
t46.5 -144t121.5 -54zM1225 707q158 0 260 -105q102 -102 102 -260q0 -157 -102 -262q-103 -103 -260 -103q-154 0 -260 103q-103 106 -103 262q0 157 103 260q105 105 260 105zM1225 541q-75 0 -121.5 -54.5t-46.5 -144.5t46.5 -144.5t121.5 -54.5t121.5 54.5t46.5 144.5
t-46.5 144.5t-121.5 54.5z" />
    <glyph glyph-name="baht.lt" 
d="M707 0h-568v1470h568v213h211v-213h104q238 0 366 -100.5t128 -286.5q0 -112 -57.5 -193.5t-162.5 -123.5q123 -38 195 -133.5t72 -222.5q0 -190 -136 -300t-368 -110h-141v-217h-211v217zM391 1249v-387h316v387h-316zM1268 1057q0 93 -70 142.5t-201 49.5h-79v-387h79
q129 0 200 50.5t71 144.5zM707 641h-316v-420h316v420zM1311 432q0 94 -73 151.5t-194 57.5h-126v-420h126q122 0 194.5 57t72.5 154z" />
    <glyph glyph-name="dong.lt" 
d="M1077 176v109q-56 -60 -153 -93.5t-215 -33.5q-244 0 -390 125q-147 126 -147 323q0 198 147 324q151 127 390 127q118 0 215 -33.5t153 -93.5v213h-346v194h346v133h226v-133h225v-194h-225v-967h-226zM1085 600v14q0 112 -100 181q-101 73 -250 73q-150 0 -244 -72
t-94 -190q0 -116 94.5 -189t243.5 -73q145 0 248 74q102 74 102 182zM1303 -195h-1121v195h1121v-195z" />
    <glyph glyph-name="franc.lt" 
d="M279 324h-205v194h205v952h1271v-229h-1013v-358h897v-230h-897v-135h374v-194h-374v-324h-258v324z" />
    <glyph glyph-name="naira.lt" 
d="M221 483h-205v185h205v135h-205v184h205v483h271l673 -1019v1019h252v-483h205v-184h-205v-135h205v-185h-205v-483h-229l-715 1081v-1081h-252v483z" />
    <glyph glyph-name="peseta.lt" 
d="M848 410h-363v-410h-262v829h-207v222h207v419h625q252 0 406.5 -108.5t189.5 -310.5h172v-222h-172q-35 -201 -190 -310t-406 -109zM834 1247h-349v-196h693q-32 96 -120 146t-224 50zM485 829v-196h349q136 0 224 50t120 146h-693z" />
    <glyph glyph-name="peso.lt" 
d="M811 410h-328v-410h-262v688h-205v184h205v136h-205v184h205v278h590q202 0 343.5 -71.5t207.5 -206.5h258v-184h-209q1 -18 2.5 -39t1.5 -29t-1.5 -29t-2.5 -39h209v-184h-258q-67 -135 -209.5 -206.5t-341.5 -71.5zM483 1247v-614h314q171 0 265.5 80.5t94.5 226.5
q0 147 -94 227t-266 80h-314z" />
    <glyph glyph-name="uni20BD.lt" 
d="M252 250h-211v225h211v135h-205v226h205v634h852q238 0 370 -113t132 -317q0 -202 -133.5 -316t-368.5 -114h-590v-135h475v-225h-475v-250h-262v250zM1090 1245h-576v-409h576q123 0 190.5 53t67.5 151t-67.5 151.5t-190.5 53.5z" />
    <glyph glyph-name="uni20B9.lt" 
d="M659 537h-596v221h639q211 0 277 135h-916v221h916q-63 135 -277 135h-639v221h1483v-221h-366q50 -62 65 -135h301v-221h-297q-25 -122 -106.5 -206.5t-210.5 -121.5l364 -565h-299z" />
    <glyph glyph-name="uni20BA.lt" 
d="M346 315l-283 -159v215l283 159v142l-276 -158v215l276 158v583h262v-434l430 246v-215l-430 -246v-141l430 244v-215l-430 -244v-236h285q234 0 337 118.5t103 387.5h262q0 -370 -177 -552.5t-535 -182.5h-537v315z" />
    <glyph glyph-name="won.lt" 
d="M293 483h-264v185h225l-31 135h-194v184h155l-106 483h250l209 -993l186 819h197l186 -819l209 993h246l-107 -483h156v-184h-195l-31 -135h226v-185h-264l-107 -483h-209l-209 920l-209 -920h-213z" />
    <glyph glyph-name="zero.slash" horiz-adv-x="1777" 
d="M1726 735q0 -325 -239 -542q-239 -216 -598 -216q-358 0 -600 216q-238 218 -238 542q0 326 238 541q239 217 600 217q362 0 598 -217q239 -214 239 -541zM893 1272q-256 0 -422 -152q-164 -150 -164 -389q0 -137 55 -256l902 692q-151 105 -371 105zM885 199
q258 0 420 149q163 150 163 391q0 137 -55 256l-901 -692q150 -104 373 -104z" />
    <glyph glyph-name="zero.slash.lt" 
d="M1554 735q0 -325 -211 -542q-210 -216 -524 -216q-313 0 -526 216q-209 218 -209 542q0 326 209 541q211 217 526 217q316 0 524 -217q211 -214 211 -541zM819 1272q-214 0 -346 -150q-133 -151 -133 -387q0 -131 43 -239l741 667q-127 109 -305 109zM819 199
q212 0 344 147q133 151 133 389q0 127 -43 242l-739 -670q123 -108 305 -108z" />
    <glyph glyph-name="arrowNW" horiz-adv-x="1642" 
d="M555 1231l1077 -1077l-176 -177l-1077 1078v-592h-240v1007h1008v-239h-592z" />
    <glyph glyph-name="arrowNE" horiz-adv-x="1642" 
d="M1503 463h-239v592l-1078 -1078l-176 177l1077 1077h-591v239h1007v-1007z" />
    <glyph glyph-name="arrowSE" horiz-adv-x="1642" 
d="M1264 1008h239v-1008h-1007v240h591l-1077 1077l176 176l1078 -1077v592z" />
    <glyph glyph-name="arrowSW" horiz-adv-x="1642" 
d="M555 240h592v-240h-1008v1008h240v-592l1077 1077l176 -176z" />
    <glyph glyph-name="arrowupdown" horiz-adv-x="1523" 
d="M1354 432l159 -184l-751 -639l-752 639l160 184l469 -399v1077l-469 -399l-160 184l752 639l751 -639l-159 -184l-469 399v-1077z" />
    <glyph glyph-name="arrowleftright" horiz-adv-x="2019" 
d="M1380 1452l629 -711l-629 -710l-180 170l373 417h-1127l373 -417l-180 -170l-629 710l629 711l180 -170l-373 -418h1127l-373 418z" />
    </font>
</defs>
</svg>
