<?xml version="1.0" standalone="no"?>
<!DOCTYPE svg PUBLIC "-//W3C//DTD SVG 1.1//EN" "http://www.w3.org/Graphics/SVG/1.1/DTD/svg11.dtd" >
<svg xmlns="http://www.w3.org/2000/svg" xmlns:xlink="http://www.w3.org/1999/xlink" version="1.1">
<metadata>
Created by FontForge 20201107 at Fri Jul 12 23:26:04 2024
 By 
Copyright 2020, Kris Sowersby, Klim Type Foundry.
</metadata>
<defs>
<font id="SohneBreit-Extrafett" horiz-adv-x="1638" >
  <font-face 
    font-family="Sohne Breit Extrafett"
    font-weight="900"
    font-stretch="expanded"
    units-per-em="2048"
    panose-1="2 11 10 5 3 2 2 6 2 3"
    ascent="1638"
    descent="-410"
    x-height="1085"
    cap-height="1470"
    bbox="-571 -479 2959 2124"
    underline-thickness="307"
    underline-position="-398"
    unicode-range="U+000D-FB04"
  />
<missing-glyph horiz-adv-x="1228" 
d="M0 0v1470h1229v-1470h-1229zM270 496l105 -105l239 240l242 -240l102 105l-237 241l237 240l-102 104l-242 -239l-239 239l-105 -104l240 -240z" />
    <glyph glyph-name="ff" unicode="ff" horiz-adv-x="1910" 
d="M205 1085v11q0 195 144 297t421 102q160 0 270 -37l-45 -317q-93 22 -176 22q-162 0 -162 -71v-7h412v11q0 195 144 297t421 102q185 0 305 -49l-45 -316q-101 33 -211 33q-161 0 -161 -71v-7h358v-364h-356v-721h-455v721h-410v-721h-454v721h-205v364h205z" />
    <glyph glyph-name="fi" unicode="fi" horiz-adv-x="1597" 
d="M205 1085v11q0 195 144 297t421 102q124 0 240 -29l-49 -317q-89 14 -142 14q-162 0 -162 -71v-7h318v-364h-316v-721h-454v721h-205v364h205zM1524 1145h-455v325h455v-325zM1069 1085h455v-1085h-455v1085z" />
    <glyph glyph-name="fl" unicode="fl" horiz-adv-x="1597" 
d="M205 1085v11q0 195 144 297t421 102q124 0 240 -29l-49 -317q-89 14 -142 14q-162 0 -162 -71v-7h318v-364h-316v-721h-454v721h-205v364h205zM1069 1470h455v-1470h-455v1470z" />
    <glyph glyph-name="ffi" unicode="ffi" horiz-adv-x="2461" 
d="M205 1085v11q0 195 144 297t421 102q160 0 270 -37l-45 -317q-93 22 -176 22q-162 0 -162 -71v-7h412v11q0 195 144 297t421 102q124 0 240 -29l-49 -317q-89 14 -142 14q-161 0 -161 -71v-7h317v-364h-315v-721h-455v721h-410v-721h-454v721h-205v364h205zM2388 1145
h-455v325h455v-325zM1933 1085h455v-1085h-455v1085z" />
    <glyph glyph-name="ffl" unicode="ffl" horiz-adv-x="2461" 
d="M205 1085v11q0 195 144 297t421 102q160 0 270 -37l-45 -317q-93 22 -176 22q-162 0 -162 -71v-7h412v11q0 195 144 297t421 102q124 0 240 -29l-49 -317q-89 14 -142 14q-161 0 -161 -71v-7h317v-364h-315v-721h-455v721h-410v-721h-454v721h-205v364h205zM1933 1470
h455v-1470h-455v1470z" />
    <glyph glyph-name="f_b" unicode="fb" horiz-adv-x="2471" 
d="M770 1495q124 0 240 -29l-49 -317q-89 14 -142 14q-162 0 -162 -71v-7h318v-364h-316v-721h-454v721h-205v364h205v11q0 195 144 297t421 102zM1874 -25q-109 0 -204 34.5t-146 92.5v-102h-455v1470h455v-487q51 58 146 92.5t204 34.5q257 0 414 -160q157 -157 157 -407
t-157 -410q-158 -158 -414 -158zM1753 754q-105 0 -172.5 -57.5t-67.5 -149.5v-8q0 -92 67.5 -149.5t172.5 -57.5q107 0 174.5 57.5t67.5 153.5t-67.5 153.5t-174.5 57.5z" />
    <glyph glyph-name="f_h" unicode="fh" horiz-adv-x="2453" 
d="M770 1495q124 0 240 -29l-49 -317q-89 14 -142 14q-162 0 -162 -71v-7h318v-364h-316v-721h-454v721h-205v364h205v11q0 195 144 297t421 102zM1524 0h-455v1470h455v-499q142 139 383 139q211 0 342 -125q135 -123 135 -328v-657h-455v479q0 122 -47 180t-145 58
q-103 0 -158 -61t-55 -177v-479z" />
    <glyph glyph-name="f_idieresis" unicode="f&#xef;" horiz-adv-x="1626" 
d="M770 1495q185 0 305 -49l-45 -316q-101 33 -211 33q-162 0 -162 -71v-7h359v-364h-357v-721h-454v721h-205v364h205v11q0 195 144 297t421 102zM1790 1145h-430v325h430v-325zM1098 1085h454v-1085h-454v1085z" />
    <glyph glyph-name="f_j" unicode="fj" horiz-adv-x="1597" 
d="M770 1495q124 0 240 -29l-49 -317q-89 14 -142 14q-162 0 -162 -71v-7h318v-364h-316v-721h-454v721h-205v364h205v11q0 195 144 297t421 102zM1524 1145h-455v325h455v-325zM1524 1085v-1030q0 -428 -541 -428q-73 0 -151.5 11t-122.5 28l61 305q90 -22 158 -22
q78 0 109.5 29t31.5 98v1009h455z" />
    <glyph glyph-name="f_k" unicode="fk" horiz-adv-x="2461" 
d="M770 1495q124 0 240 -29l-49 -317q-89 14 -142 14q-162 0 -162 -71v-7h318v-364h-316v-721h-454v721h-205v364h205v11q0 195 144 297t421 102zM1069 1470h455v-720l362 335h596l-485 -421l485 -664h-545l-268 377l-145 -125v-252h-455v1470z" />
    <glyph glyph-name=".notdef" horiz-adv-x="1228" 
d="M0 0v1470h1229v-1470h-1229zM270 496l105 -105l239 240l242 -240l102 105l-237 241l237 240l-102 104l-242 -239l-239 239l-105 -104l240 -240z" />
    <glyph glyph-name=".null" horiz-adv-x="0" 
 />
    <glyph glyph-name="nonmarkingreturn" horiz-adv-x="682" 
 />
    <glyph glyph-name="NULL" horiz-adv-x="0" 
 />
    <glyph glyph-name="NULL" horiz-adv-x="0" 
 />
    <glyph glyph-name="CR" unicode="&#xd;" horiz-adv-x="614" 
 />
    <glyph glyph-name="space" unicode=" " horiz-adv-x="614" 
 />
    <glyph glyph-name="exclam" unicode="!" horiz-adv-x="636" 
d="M498 512h-359l-119 958h596zM575 0h-516v444h516v-444z" />
    <glyph glyph-name="quotedbl" unicode="&#x22;" horiz-adv-x="1130" 
d="M446 756h-321l-96 714h514zM1006 756h-322l-96 714h514z" />
    <glyph glyph-name="numbersign" unicode="#" horiz-adv-x="1724" 
d="M489 0h-364l92 322h-186v307h276l62 213h-283v307h373l92 321h367l-95 -321h316l94 321h366l-92 -321h187v-307h-277l-61 -213h282v-307h-372l-92 -322h-369l94 322h-315zM735 842l-63 -213h315l64 213h-316z" />
    <glyph glyph-name="dollar" unicode="$" horiz-adv-x="1724" 
d="M-33 225l254 326q177 -133 469 -182v198q-326 32 -478.5 134t-152.5 286q0 207 162.5 331t468.5 150v195h379v-201q173 -23 330 -77t268 -128l-254 -305q-130 94 -344 142v-179q325 -35 480 -140t155 -286q0 -209 -160.5 -330.5t-474.5 -152.5v-203h-379v201
q-221 21 -422 80q-199 61 -301 141zM500 1036q0 -36 41.5 -54t148.5 -30v172q-190 -12 -190 -88zM1247 442q0 38 -36.5 56.5t-141.5 31.5v-174q178 15 178 86z" />
    <glyph glyph-name="percent" unicode="%" horiz-adv-x="2035" 
d="M481 694q-188 0 -315 115q-125 113 -125 285q0 171 125 284q127 115 315 115q187 0 314 -115t127 -284q0 -170 -127 -285t-314 -115zM1421 1470h355l-1162 -1470h-354zM481 1229q-57 0 -90 -36t-33 -99t33 -99.5t90 -36.5t90 36.5t33 99.5t-33 99t-90 36zM1554 776
q188 0 314 -114q127 -115 127 -285t-127 -285t-314 -115q-188 0 -315 115q-125 113 -125 285t125 285q126 114 315 114zM1554 512q-57 0 -89.5 -36t-32.5 -99t32.5 -99t89.5 -36t90 36t33 99t-33 99t-90 36z" />
    <glyph glyph-name="ampersand" unicode="&#x26;" horiz-adv-x="1918" 
d="M1452 887l406 -94q-72 -231 -228 -420q43 -11 100.5 -11t174.5 11v-350q-196 -39 -343.5 -19.5t-277.5 100.5q-264 -129 -588 -129q-307 0 -491 123q-182 126 -182 332q0 161 101.5 275.5t285.5 164.5q-60 100 -60 203q0 184 152 303t399 119q255 0 402 -107t147 -288
q0 -251 -322 -383l170 -135q114 136 154 305zM909 1194q-66 0 -103.5 -31.5t-37.5 -85.5q0 -78 92 -149q100 24 147.5 60t47.5 91q0 54 -38.5 84.5t-107.5 30.5zM459 481q0 -74 74.5 -115.5t207.5 -41.5q123 0 224 34l-330 275q-82 -12 -129 -52t-47 -100z" />
    <glyph glyph-name="quotesingle" unicode="'" horiz-adv-x="571" 
d="M446 756h-321l-96 714h514z" />
    <glyph glyph-name="parenleft" unicode="(" horiz-adv-x="915" 
d="M502 655q0 -252 100.5 -461.5t312.5 -394.5h-446q-209 136 -324.5 361t-115.5 495q0 271 115.5 495t324.5 361h446q-212 -185 -312.5 -394.5t-100.5 -461.5z" />
    <glyph glyph-name="parenright" unicode=")" horiz-adv-x="915" 
d="M414 655q0 252 -100.5 461.5t-313.5 394.5h446q210 -137 325.5 -361t115.5 -495q0 -270 -116 -494.5t-325 -361.5h-446q213 185 313.5 394.5t100.5 461.5z" />
    <glyph glyph-name="asterisk" unicode="*" horiz-adv-x="1003" 
d="M879 748l-209 -152l-168 231l-168 -231l-209 152l168 231l-273 88l82 246l271 -86v284h260v-284l270 86l80 -246l-272 -88z" />
    <glyph glyph-name="plus" unicode="+" 
d="M1530 924v-371h-526v-526h-371v526h-527v371h527v526h371v-526h526z" />
    <glyph glyph-name="comma" unicode="," horiz-adv-x="614" 
d="M231 0h-174v473h500v-385q0 -202 -132.5 -314t-367.5 -112v215q174 0 174 119v4z" />
    <glyph glyph-name="hyphen" unicode="-" horiz-adv-x="823" 
d="M741 399h-659v414h659v-414z" />
    <glyph glyph-name="period" unicode="." horiz-adv-x="614" 
d="M557 0h-500v473h500v-473z" />
    <glyph glyph-name="slash" unicode="/" horiz-adv-x="1378" 
d="M545 -201h-504l793 1712h503z" />
    <glyph glyph-name="zero" unicode="0" horiz-adv-x="1773" 
d="M887 -25q-372 0 -617 213q-241 213 -241 547q0 335 241 545q244 215 617 215q372 0 616 -215q242 -211 242 -545q0 -333 -242 -547q-245 -213 -616 -213zM887 1096q-175 0 -283 -99q-106 -97 -106 -262t106 -262q107 -98 283 -98q171 0 278 98q109 103 109 262
q0 160 -109 260q-107 101 -278 101z" />
    <glyph glyph-name="one" unicode="1" horiz-adv-x="1034" 
d="M594 1470h358v-1470h-465v872h-458v355l194 4q173 5 259.5 60t111.5 179z" />
    <glyph glyph-name="two" unicode="2" horiz-adv-x="1605" 
d="M61 0v344l682 338q199 99 250 147q54 51 54 107q0 162 -240 162q-131 0 -230 -79.5t-128 -209.5l-426 86q14 131 88.5 249t197.5 199q216 150 522 150q303 0 498 -139q193 -138 193 -363q0 -167 -111.5 -294t-347.5 -226l-191 -82h682v-389h-1493z" />
    <glyph glyph-name="three" unicode="3" horiz-adv-x="1695" 
d="M1675 422q0 -196 -225 -322q-223 -125 -586 -125q-314 0 -536 99.5t-328 285.5l422 197q44 -88 169.5 -142.5t280.5 -54.5q131 0 212 29t81 78q0 98 -307 98h-280v348h266q153 0 223 23.5t70 73.5q0 43 -75.5 69.5t-199.5 26.5q-135 0 -248.5 -48t-158.5 -122l-396 194
q87 160 320 263q234 102 516 102q341 0 547 -123q207 -124 207 -321q0 -102 -65.5 -184t-172.5 -119q135 -51 199.5 -130.5t64.5 -195.5z" />
    <glyph glyph-name="four" unicode="4" horiz-adv-x="1708" 
d="M1372 324v-324h-440v324h-912v356l762 790h590v-784h316v-362h-316zM932 1087l-389 -401h389v401z" />
    <glyph glyph-name="five" unicode="5" horiz-adv-x="1591" 
d="M805 651q-88 0 -174.5 -20.5t-147.5 -55.5l-407 50l108 845h1301v-389h-946l-23 -151q70 36 167 57t196 21q325 0 514 -136q188 -132 188 -366q0 -232 -219 -383q-219 -148 -553 -148q-301 0 -522 105q-223 106 -301 291l426 174q114 -189 401 -189q140 0 224.5 39
t84.5 105q0 72 -83.5 111.5t-233.5 39.5z" />
    <glyph glyph-name="six" unicode="6" horiz-adv-x="1705" 
d="M938 1495q244 0 432 -67.5t299 -192.5l-291 -268q-171 155 -444 155q-185 0 -307 -67q-123 -65 -144 -166q185 110 473 110q320 0 525 -141q205 -138 205 -354q0 -242 -224 -385q-220 -144 -592 -144q-382 0 -614 197q-227 199 -227 528q0 362 247 578q248 217 662 217z
M866 338q162 0 258.5 42t96.5 114t-96.5 113.5t-258.5 41.5t-257 -41.5t-95 -113.5t95 -114t257 -42z" />
    <glyph glyph-name="seven" unicode="7" horiz-adv-x="1634" 
d="M1102 1087h-692v-264h-390v647h1594v-413q-279 -208 -415 -468t-136 -589h-477q0 325 131 600.5t385 486.5z" />
    <glyph glyph-name="eight" unicode="8" horiz-adv-x="1689" 
d="M94 1044q0 203 211 326q210 125 539 125q328 0 538 -125q213 -124 213 -326q0 -180 -202 -292q134 -50 205 -135t71 -195q0 -208 -225 -328q-223 -119 -600 -119t-600 119q-224 119 -224 328q0 110 71.5 195t205.5 135q-203 113 -203 292zM553 1042q0 -55 77 -85.5
t214 -30.5t215 30.5t78 85.5t-78 86t-215 31t-214 -31t-77 -86zM1204 457q0 63 -93 96t-267 33t-266.5 -33t-92.5 -96t92.5 -96t266.5 -33t267 33t93 96z" />
    <glyph glyph-name="nine" unicode="9" horiz-adv-x="1705" 
d="M768 -25q-244 0 -432 68t-299 193l291 268q172 -156 444 -156q181 0 307 66q123 68 144 168q-187 -111 -473 -111q-318 0 -525 139q-205 141 -205 357q0 238 222 383q227 145 594 145q385 0 612 -199q229 -195 229 -526q0 -361 -247 -577q-250 -218 -662 -218zM840 1133
q-162 0 -258.5 -42t-96.5 -114t96.5 -114t258.5 -42t257 42t95 114t-95 114t-257 42z" />
    <glyph glyph-name="colon" unicode=":" horiz-adv-x="614" 
d="M557 0h-500v473h500v-473zM557 612h-500v473h500v-473z" />
    <glyph glyph-name="semicolon" unicode=";" horiz-adv-x="614" 
d="M231 0h-174v473h500v-385q0 -202 -132.5 -314t-367.5 -112v215q174 0 174 119v4zM557 612h-500v473h500v-473z" />
    <glyph glyph-name="less" unicode="&#x3c;" 
d="M1544 2l-1450 428v604l1450 428v-444l-1075 -287l1075 -285v-444z" />
    <glyph glyph-name="equal" unicode="=" 
d="M1532 819h-1426v371h1426v-371zM1532 254h-1426v371h1426v-371z" />
    <glyph glyph-name="greater" unicode="&#x3e;" 
d="M1544 1034v-604l-1450 -428v444l1075 285l-1075 287v444z" />
    <glyph glyph-name="question" unicode="?" horiz-adv-x="1630" 
d="M1094 995q0 50 -66 77.5t-184 27.5q-134 0 -220.5 -46t-97.5 -120l-506 76q30 219 256 352q230 133 596 133q340 0 539 -129q199 -126 199 -344q0 -166 -130.5 -281.5t-361.5 -150.5v-78h-495v362q258 0 364.5 27.5t106.5 93.5zM1130 0h-516v444h516v-444z" />
    <glyph glyph-name="at" unicode="@" horiz-adv-x="2306" 
d="M1753 956l-92 -469q-14 -68 1 -95t64 -27q93 0 152 84t59 217q0 215 -183 330.5t-523 115.5q-395 0 -621 -170q-223 -168 -223 -463q0 -258 205.5 -400t578.5 -142q192 0 380.5 36.5t330.5 102.5l156 -262q-156 -84 -396 -133q-241 -52 -497 -52q-515 0 -815 230
q-299 228 -299 620q0 220 101.5 406t291.5 315q328 217 819 217q484 0 758 -194t274 -537q0 -270 -184 -442q-181 -169 -459 -166q-233 3 -346 125q-108 -117 -328 -117q-192 0 -305.5 108.5t-113.5 288.5q0 210 147 351q149 143 379 143q189 0 283 -111l18 90h387zM971 512
q0 -59 42.5 -94t112.5 -35q78 0 130.5 50t52.5 122q0 60 -42 94.5t-114 34.5q-75 0 -128.5 -51.5t-53.5 -120.5z" />
    <glyph glyph-name="A" unicode="A" horiz-adv-x="1916" 
d="M-20 0l708 1470h541l708 -1470h-514l-108 233h-733l-111 -233h-491zM1145 598l-195 418l-196 -418h391z" />
    <glyph glyph-name="B" unicode="B" horiz-adv-x="1689" 
d="M1165 0h-1083v1470h1048q251 0 385 -105.5t134 -301.5q0 -95 -53.5 -177.5t-139.5 -125.5q109 -50 170.5 -139t61.5 -201q0 -201 -136.5 -310.5t-386.5 -109.5zM528 1098v-189h553q129 0 129 95q0 94 -129 94h-553zM1114 573h-586v-196h586q60 0 92.5 25.5t32.5 72.5
t-32.5 72.5t-92.5 25.5z" />
    <glyph glyph-name="C" unicode="C" horiz-adv-x="1734" 
d="M909 1096q-177 0 -293 -101q-114 -102 -114 -260t114 -260q115 -100 293 -100q149 0 252.5 74t138.5 204l437 -184q-88 -238 -302.5 -366t-523.5 -128q-384 0 -635 213q-247 213 -247 547q0 335 247 545q250 215 635 215q309 0 523.5 -128t302.5 -366l-437 -184
q-35 130 -139 204.5t-252 74.5z" />
    <glyph glyph-name="D" unicode="D" horiz-adv-x="1779" 
d="M868 0h-786v1470h786q410 0 645 -198q238 -197 238 -537q0 -338 -238 -538q-238 -197 -645 -197zM537 1081v-692h331q198 0 310 92t112 254t-112 254t-310 92h-331z" />
    <glyph glyph-name="E" unicode="E" horiz-adv-x="1558" 
d="M82 0v1470h1434v-389h-977v-151h860v-379h-860v-162h977v-389h-1434z" />
    <glyph glyph-name="F" unicode="F" horiz-adv-x="1548" 
d="M539 469v-469h-457v1470h1434v-389h-977v-233h860v-379h-860z" />
    <glyph glyph-name="G" unicode="G" horiz-adv-x="1853" 
d="M1792 0h-428v100q-59 -56 -180 -90q-122 -35 -260 -35q-389 0 -643 213q-252 214 -252 547q0 335 256 547q257 213 661 213q300 0 516 -125t305 -344l-464 -152q-37 105 -136 164.5t-241 59.5q-183 0 -303 -105q-119 -101 -119 -268q0 -159 119 -260q119 -98 305 -98
q133 0 234.5 36t148.5 99h-496v350h977v-852z" />
    <glyph glyph-name="H" unicode="H" horiz-adv-x="1814" 
d="M1268 936v534h465v-1470h-465v547h-721v-547h-465v1470h465v-534h721z" />
    <glyph glyph-name="I" unicode="I" horiz-adv-x="628" 
d="M82 1470h465v-1470h-465v1470z" />
    <glyph glyph-name="J" unicode="J" horiz-adv-x="1568" 
d="M741 -23q-259 0 -458 105q-199 109 -283 291l410 264q43 -122 128.5 -185t206.5 -63q142 0 219.5 71t77.5 204v806h465v-858q0 -291 -207 -465q-206 -170 -559 -170z" />
    <glyph glyph-name="K" unicode="K" horiz-adv-x="1789" 
d="M82 1470h465v-569l594 569h626l-634 -598l688 -872h-582l-440 559l-252 -237v-322h-465v1470z" />
    <glyph glyph-name="L" unicode="L" horiz-adv-x="1452" 
d="M1419 0h-1337v1470h465v-1081h872v-389z" />
    <glyph glyph-name="M" unicode="M" horiz-adv-x="2228" 
d="M1694 977l-394 -977h-372l-393 977v-977h-453v1470h686l350 -899l350 899h678v-1470h-452v977z" />
    <glyph glyph-name="N" unicode="N" horiz-adv-x="1816" 
d="M1280 1470h455v-1470h-412l-786 870v-870h-455v1470h461l737 -819v819z" />
    <glyph glyph-name="O" unicode="O" horiz-adv-x="1843" 
d="M29 735q0 333 252 545q253 215 641 215t641 -215q252 -211 252 -545q0 -333 -252 -547q-254 -213 -641 -213t-641 213q-252 214 -252 547zM1339 735q0 163 -118 260q-116 101 -299 101q-182 0 -301 -101q-117 -99 -117 -260q0 -160 117 -262q119 -98 301 -98
q183 0 299 98q118 100 118 262z" />
    <glyph glyph-name="P" unicode="P" horiz-adv-x="1667" 
d="M1028 422h-481v-422h-465v1470h946q291 0 455 -138.5t164 -385.5t-164 -385.5t-455 -138.5zM547 1085v-278h457q88 0 136 36.5t48 102.5t-48 102.5t-136 36.5h-457z" />
    <glyph glyph-name="Q" unicode="Q" horiz-adv-x="1843" 
d="M922 -25q-387 0 -641 213q-252 214 -252 547t252 545q253 215 641 215t641 -215q252 -211 252 -545q0 -170 -72 -316.5t-207 -250.5q42 -38 106.5 -61t178.5 -44l-232 -329q-161 30 -303 100q-141 67 -213 152q-78 -11 -151 -11zM922 375q183 0 299 98q118 100 118 262
q0 163 -118 260q-116 101 -299 101q-182 0 -301 -101q-117 -99 -117 -260q0 -160 117 -262q119 -98 301 -98z" />
    <glyph glyph-name="R" unicode="R" horiz-adv-x="1710" 
d="M866 451h-319v-451h-465v1470h967q290 0 452 -137q166 -135 166 -372q0 -159 -81.5 -277.5t-233.5 -179.5l346 -504h-537zM547 1085v-274h477q86 0 135 36t49 99q0 66 -48 102.5t-136 36.5h-477z" />
    <glyph glyph-name="S" unicode="S" horiz-adv-x="1654" 
d="M821 -25q-244 0 -502 60q-252 62 -364 155l256 361q117 -91 288 -142t353 -51q278 0 278 84q0 41 -59 62q-56 20 -395 55q-322 35 -471.5 139t-149.5 289q0 238 203 373q206 135 561 135q240 0 449 -57q215 -56 350 -150l-258 -336q-100 75 -258.5 120.5t-323.5 45.5
q-246 0 -246 -82q0 -35 60 -53q64 -19 379 -53q351 -36 509 -143t158 -298q0 -247 -212.5 -380.5t-604.5 -133.5z" />
    <glyph glyph-name="T" unicode="T" horiz-adv-x="1726" 
d="M1694 1470v-389h-598v-1081h-465v1081h-598v389h1661z" />
    <glyph glyph-name="U" unicode="U" horiz-adv-x="1716" 
d="M858 -25q-375 0 -586 172t-211 482v841h465v-788q0 -148 85.5 -225.5t246.5 -77.5t246.5 77.5t85.5 225.5v788h465v-841q0 -310 -211 -482t-586 -172z" />
    <glyph glyph-name="V" unicode="V" horiz-adv-x="1867" 
d="M1888 1470l-696 -1470h-516l-696 1470h522l440 -958l447 958h499z" />
    <glyph glyph-name="W" unicode="W" horiz-adv-x="2408" 
d="M741 610l254 860h432l254 -860l281 860h467l-481 -1470h-486l-258 860l-260 -860h-483l-481 1470h481z" />
    <glyph glyph-name="X" unicode="X" horiz-adv-x="1869" 
d="M1247 1470h582l-602 -700l663 -770h-583l-373 455l-373 -455h-581l661 770l-602 700h584l313 -385z" />
    <glyph glyph-name="Y" unicode="Y" horiz-adv-x="1849" 
d="M526 1470l410 -514l407 514h527l-713 -905v-565h-465v565l-712 905h546z" />
    <glyph glyph-name="Z" unicode="Z" horiz-adv-x="1691" 
d="M745 389h885v-389h-1569v342l875 739h-866v389h1548v-340z" />
    <glyph glyph-name="bracketleft" unicode="[" horiz-adv-x="854" 
d="M834 1184h-328v-1059h328v-326h-752v1712h752v-327z" />
    <glyph glyph-name="backslash" unicode="\" horiz-adv-x="1378" 
d="M41 1511h504l792 -1712h-503z" />
    <glyph glyph-name="bracketright" unicode="]" horiz-adv-x="854" 
d="M348 125v1059h-328v327h752v-1712h-752v326h328z" />
    <glyph glyph-name="asciicircum" unicode="^" horiz-adv-x="1310" 
d="M20 815l429 655h413l428 -655h-430l-205 320l-204 -320h-431z" />
    <glyph glyph-name="underscore" unicode="_" horiz-adv-x="1122" 
d="M1020 -428h-918v348h918v-348z" />
    <glyph glyph-name="grave" unicode="`" horiz-adv-x="1228" 
d="M813 1470l170 -325h-369l-348 325h547z" />
    <glyph glyph-name="a" unicode="a" horiz-adv-x="1439" 
d="M913 82q-151 -105 -419 -105q-220 0 -348 89t-128 243q0 159 127.5 250.5t356.5 102.5l375 16v4q0 45 -45.5 70.5t-129.5 25.5q-79 0 -131 -23.5t-69 -66.5l-436 60q54 170 228.5 266t430.5 96q288 0 439 -109.5t151 -318.5v-303q0 -48 24 -60q12 -6 33 -6q22 0 49 6
v-319q-111 -18 -200 -18q-68 0 -115 8q-128 21 -193 92zM614 279q111 0 187 38t76 95v6l-320 -19q-55 -4 -76.5 -17t-21.5 -40q0 -63 155 -63z" />
    <glyph glyph-name="b" unicode="b" horiz-adv-x="1476" 
d="M1450 543q0 -249 -158 -410q-158 -158 -413 -158q-109 0 -204.5 35t-146.5 92v-102h-454v1470h454v-487q51 57 146.5 92t204.5 35q256 0 413 -160q158 -158 158 -407zM758 754q-105 0 -172.5 -57.5t-67.5 -149.5v-8q0 -92 67.5 -149.5t172.5 -57.5q107 0 174 57.5
t67 153.5t-67 153.5t-174 57.5z" />
    <glyph glyph-name="c" unicode="c" horiz-adv-x="1363" 
d="M715 754q-107 0 -172.5 -57.5t-65.5 -153.5t65.5 -153.5t172.5 -57.5q87 0 147.5 44t83.5 124l418 -135q-40 -169 -217 -279q-179 -111 -430 -111q-311 0 -502 156q-188 156 -188 412q0 253 188 409q193 158 502 158q251 0 430 -111q177 -110 217 -278l-418 -135
q-23 80 -83.5 124t-147.5 44z" />
    <glyph glyph-name="d" unicode="d" horiz-adv-x="1476" 
d="M598 -25q-258 0 -416 158q-155 158 -155 410t155 407q157 160 416 160q109 0 204 -34.5t146 -92.5v487h455v-1470h-455v102q-51 -58 -146 -92.5t-204 -34.5zM958 539v8q0 92 -67 149.5t-172 57.5q-107 0 -174.5 -57.5t-67.5 -153.5t67.5 -153.5t174.5 -57.5
q105 0 172 57.5t67 149.5z" />
    <glyph glyph-name="e" unicode="e" horiz-adv-x="1415" 
d="M725 -25q-310 0 -506 158q-192 155 -192 412q0 246 194 405q198 160 498 160q305 0 485 -162q182 -159 182 -411v-99h-903q26 -60 88 -91.5t150 -31.5q75 0 133 25.5t84 69.5l434 -105q-64 -152 -242 -242q-175 -88 -405 -88zM713 780q-164 0 -224 -114h426
q-11 50 -66 82t-136 32z" />
    <glyph glyph-name="f" unicode="f" horiz-adv-x="1046" 
d="M770 1495q185 0 305 -49l-45 -316q-101 33 -211 33q-162 0 -162 -71v-7h359v-364h-357v-721h-454v721h-205v364h205v11q0 195 144 297t421 102z" />
    <glyph glyph-name="g" unicode="g" horiz-adv-x="1476" 
d="M1403 1085v-892q0 -269 -198.5 -417.5t-555.5 -148.5q-221 0 -386 65t-234 181l358 182q47 -49 111 -70.5t161 -21.5q127 0 208 49.5t81 132.5v17q-51 -55 -145 -87t-205 -32q-259 0 -416 145q-155 146 -155 383q0 236 157 387q158 152 414 152q110 0 204.5 -32.5
t145.5 -88.5v96h455zM958 567v8q0 86 -67.5 141.5t-171.5 55.5q-107 0 -174.5 -55t-67.5 -146t67.5 -145.5t174.5 -54.5q104 0 171.5 55t67.5 141z" />
    <glyph glyph-name="h" unicode="h" horiz-adv-x="1458" 
d="M528 0h-454v1470h454v-499q142 139 383 139q211 0 342 -125q136 -124 136 -328v-657h-455v479q0 121 -47.5 179.5t-145.5 58.5q-103 0 -158 -61t-55 -177v-479z" />
    <glyph glyph-name="i" unicode="i" horiz-adv-x="602" 
d="M528 1145h-454v325h454v-325zM74 1085h454v-1085h-454v1085z" />
    <glyph glyph-name="j" unicode="j" horiz-adv-x="602" 
d="M528 1145h-454v325h454v-325zM-68 -51q78 0 110 29t32 98v1009h454v-1030q0 -428 -540 -428q-73 0 -152 11t-123 28l62 305q90 -22 157 -22z" />
    <glyph glyph-name="k" unicode="k" horiz-adv-x="1466" 
d="M74 1470h454v-720l363 335h596l-486 -421l486 -664h-545l-268 377l-146 -125v-252h-454v1470z" />
    <glyph glyph-name="l" unicode="l" horiz-adv-x="602" 
d="M74 1470h454v-1470h-454v1470z" />
    <glyph glyph-name="m" unicode="m" horiz-adv-x="2215" 
d="M713 721q-88 0 -136.5 -56.5t-48.5 -160.5v-504h-454v1085h454v-114q61 67 154.5 103t200.5 36q111 0 215 -45.5t159 -118.5q164 164 422 164q208 0 336 -125q131 -122 131 -328v-657h-454v504q0 217 -170 217q-88 0 -136.5 -56.5t-48.5 -160.5v-504h-454v504
q0 217 -170 217z" />
    <glyph glyph-name="n" unicode="n" horiz-adv-x="1458" 
d="M528 0h-454v1085h454v-114q142 139 383 139q211 0 342 -125q136 -124 136 -328v-657h-455v479q0 121 -47.5 179.5t-145.5 58.5q-103 0 -158 -61t-55 -177v-479z" />
    <glyph glyph-name="o" unicode="o" horiz-adv-x="1435" 
d="M717 1110q304 0 500 -158q192 -155 192 -409q0 -257 -192 -412q-193 -156 -500 -156t-500 156q-190 156 -190 412q0 253 190 409q196 158 500 158zM717 754q-107 0 -173.5 -57.5t-66.5 -153.5t66.5 -153.5t173.5 -57.5q109 0 175 57.5t66 153.5t-67 153.5t-174 57.5z" />
    <glyph glyph-name="p" unicode="p" horiz-adv-x="1476" 
d="M1450 543q0 -249 -158 -410q-158 -158 -413 -158q-109 0 -204.5 35t-146.5 92v-450h-454v1433h454v-102q51 57 146.5 92t204.5 35q256 0 413 -160q158 -158 158 -407zM758 754q-105 0 -172.5 -57.5t-67.5 -149.5v-8q0 -92 67.5 -149.5t172.5 -57.5q107 0 174 57.5
t67 153.5t-67 153.5t-174 57.5z" />
    <glyph glyph-name="q" unicode="q" horiz-adv-x="1476" 
d="M598 -25q-258 0 -416 158q-155 158 -155 410t155 407q157 160 416 160q109 0 204 -34.5t146 -92.5v102h455v-1433h-455v450q-51 -58 -146 -92.5t-204 -34.5zM958 539v8q0 92 -67 149.5t-172 57.5q-107 0 -174.5 -57.5t-67.5 -153.5t67.5 -153.5t174.5 -57.5
q105 0 172 57.5t67 149.5z" />
    <glyph glyph-name="r" unicode="r" horiz-adv-x="1046" 
d="M907 1092q69 0 117 -7v-430q-76 9 -137 9q-359 0 -359 -285v-379h-454v1085h454v-174q73 97 161.5 139t217.5 42z" />
    <glyph glyph-name="s" unicode="s" horiz-adv-x="1286" 
d="M584 -25q-159 0 -328 35q-170 38 -264 94l127 312q118 -61 258.5 -95t271.5 -34q166 0 166 41q0 14 -27 20q-27 9 -135 21q-130 12 -174 18q-241 30 -342.5 107t-101.5 217q0 189 164.5 294t459.5 105q352 0 588 -129l-188 -268q-187 94 -426 94q-135 0 -135 -39
q0 -18 25.5 -26t109.5 -15l149 -16q265 -30 380.5 -110t115.5 -224q0 -195 -178 -298.5t-516 -103.5z" />
    <glyph glyph-name="t" unicode="t" horiz-adv-x="1110" 
d="M649 -25q-209 0 -326.5 92.5t-117.5 256.5v397h-205v364h205v273h448v-273h406v-364h-406v-248q0 -121 146 -121q126 0 231 43l86 -340q-202 -80 -467 -80z" />
    <glyph glyph-name="u" unicode="u" horiz-adv-x="1447" 
d="M920 1085h454v-1085h-454v115q-143 -140 -383 -140q-206 0 -338 123q-129 126 -129 330v657h454v-522q0 -109 45 -160t142 -51q103 0 156 53.5t53 157.5v522z" />
    <glyph glyph-name="v" unicode="v" horiz-adv-x="1480" 
d="M1501 1085l-518 -1085h-485l-518 1085h507l271 -614l266 614h477z" />
    <glyph glyph-name="w" unicode="w" horiz-adv-x="2095" 
d="M668 528l182 557h420l178 -557l197 557h471l-435 -1085h-438l-194 578l-197 -578h-436l-436 1085h493z" />
    <glyph glyph-name="x" unicode="x" horiz-adv-x="1525" 
d="M1536 0h-555l-217 254l-219 -254h-555l495 559l-467 526h555l191 -223l188 223h555l-465 -526z" />
    <glyph glyph-name="y" unicode="y" horiz-adv-x="1478" 
d="M1499 1085l-504 -1060q-108 -232 -237 -314q-131 -84 -352 -84q-167 0 -277 45l64 336q76 -39 149 -39q102 0 127 54l8 18l-497 1044h509l267 -620l270 620h473z" />
    <glyph glyph-name="z" unicode="z" horiz-adv-x="1351" 
d="M748 365h546v-365h-1237v332l578 389h-572v364h1227v-331z" />
    <glyph glyph-name="braceleft" unicode="{" horiz-adv-x="956" 
d="M158 479h-117v352h117q32 0 50.5 18t18.5 50v246q0 171 115.5 268.5t323.5 97.5h270v-327h-172q-63 0 -97 -33t-34 -94v-209q0 -123 -113 -193q113 -70 113 -192v-209q0 -61 34 -94t97 -33h172v-328h-270q-208 0 -323.5 98t-115.5 269v246q0 32 -18.5 49.5t-50.5 17.5z
" />
    <glyph glyph-name="bar" unicode="|" horiz-adv-x="655" 
d="M553 -201h-451v1712h451v-1712z" />
    <glyph glyph-name="braceright" unicode="}" horiz-adv-x="956" 
d="M915 831v-352h-116q-33 0 -51.5 -17.5t-18.5 -49.5v-246q0 -171 -115 -269t-323 -98h-271v328h173q63 0 97 33t34 94v209q0 123 112 192q-112 69 -112 193v209q0 61 -34 94t-97 33h-173v327h271q208 0 323 -97.5t115 -268.5v-246q0 -32 19 -50t51 -18h116z" />
    <glyph glyph-name="asciitilde" unicode="~" horiz-adv-x="1146" 
d="M395 868q62 0 168 -49q67 -35 101 -35q36 0 54.5 19.5t24.5 64.5h322q0 -205 -84 -328.5t-229 -123.5q-62 0 -168 49q-67 35 -101 35q-37 0 -55.5 -20t-24.5 -64h-321q0 197 84 325q86 127 229 127z" />
    <glyph glyph-name="uni00A0" unicode="&#xa0;" horiz-adv-x="614" 
 />
    <glyph glyph-name="exclamdown" unicode="&#xa1;" horiz-adv-x="636" 
d="M59 1026v444h516v-444h-516zM20 0l119 958h359l118 -958h-596z" />
    <glyph glyph-name="cent" unicode="&#xa2;" horiz-adv-x="1564" 
d="M1028 -188h-358v170q-285 41 -445 194q-164 156 -164 389q0 231 164 387t445 197v174h358v-176q190 -29 320.5 -111t193.5 -211l-305 -180q-71 111 -209 148v-455q136 37 209 147l305 -180q-57 -124 -190 -207t-324 -112v-174zM459 565q0 -81 55 -140t156 -89v459
q-100 -29 -155.5 -89t-55.5 -141z" />
    <glyph glyph-name="sterling" unicode="&#xa3;" horiz-adv-x="1873" 
d="M559 563h-364v244h155q-63 92 -63 192q0 219 205 357q207 139 544 139q350 0 551 -145t201 -398q0 -14 -1 -29t-2.5 -34t-2.5 -29h-455l2 22t1.5 17t0.5 10q0 98 -71 150.5t-205 52.5q-133 0 -216 -48.5t-83 -123.5q0 -32 14.5 -61t54.5 -72h420v-244h-289q2 -8 2 -41
q0 -54 -8 -90q179 -51 297 -51q102 0 147.5 41.5t53.5 140.5h405q10 -280 -126 -434t-390 -154q-138 0 -250 37q-120 39 -274 150q-175 -187 -434 -187q-171 0 -270 75t-99 204q0 130 109 206.5t295 76.5q73 0 166 -13q-4 16 -21 39zM414 324q-50 0 -79.5 -14t-29.5 -38
q0 -25 26 -39t70 -14q108 0 160 82q-71 23 -147 23z" />
    <glyph glyph-name="yen" unicode="&#xa5;" horiz-adv-x="2033" 
d="M784 309h-542v258h542v58h-542v258h315l-567 587h567l471 -514l469 514h547l-567 -587h315v-258h-543v-58h543v-258h-543v-309h-465v309z" />
    <glyph glyph-name="section" unicode="&#xa7;" horiz-adv-x="1648" 
d="M1522 559q86 -77 86 -201q0 -187 -182 -286t-529 -99q-273 0 -508 45q-246 47 -375 119l168 322q292 -144 713 -144q126 0 178.5 11.5t52.5 40.5q0 19 -19.5 28.5t-64.5 14.5l-573 34q-188 10 -288.5 87t-100.5 208q0 111 82 193q-64 70 -64 178q0 187 186 286t541 99
q230 0 426 -32.5t320 -92.5l-162 -311q-271 94 -606 94q-118 0 -170.5 -11t-52.5 -36q0 -30 82 -39l483 -27q231 -12 337.5 -84.5t106.5 -214.5q0 -109 -67 -182zM520 725l604 -33q60 -3 119 -12q10 10 10 31q0 27 -26 39t-97 16l-542 31q-105 7 -160 16q-12 -12 -12 -31
q0 -26 24 -39t80 -18z" />
    <glyph glyph-name="dieresis" unicode="&#xa8;" horiz-adv-x="1228" 
d="M580 1145h-430v325h430v-325zM1079 1145h-430v325h430v-325z" />
    <glyph glyph-name="copyright" unicode="&#xa9;" horiz-adv-x="1839" 
d="M924 1495q363 0 608 -217q246 -218 246 -543t-248 -542q-247 -218 -606 -218q-365 0 -615 218q-248 217 -248 542q0 329 248 543q248 217 615 217zM924 186q269 0 456 158q185 156 185 391t-185 391q-187 158 -456 158q-273 0 -463 -158q-187 -156 -187 -391t187 -391
q190 -158 463 -158zM932 299q-233 0 -383 123q-152 128 -152 315q0 189 152 314q149 125 383 125q178 0 309 -76q132 -74 176 -197l-305 -106q-13 43 -65 69.5t-121 26.5q-93 0 -148 -42t-55 -114t55.5 -113.5t149.5 -41.5q68 0 117 26.5t67 69.5l305 -107
q-43 -123 -175 -197.5t-310 -74.5z" />
    <glyph glyph-name="ordfeminine" unicode="&#xaa;" horiz-adv-x="1085" 
d="M686 748q-112 -76 -305 -76q-158 0 -250 64.5t-92 174.5q0 115 90.5 180.5t255.5 73.5l274 13v4q0 33 -34.5 52t-96.5 19q-124 0 -149 -67l-307 43q38 122 164 191t309 69q204 0 313 -79t109 -228v-226q0 -34 18 -43q12 -4 27 -4q7 0 35 4v-225q-64 -11 -136 -14
q-49 0 -90 6q-91 15 -135 68zM465 885q80 0 137 29t57 71v8l-235 -14q-41 -5 -58.5 -15t-17.5 -30q0 -49 117 -49zM1034 352h-983v226h983v-226z" />
    <glyph glyph-name="guillemotleft" unicode="&#xab;" horiz-adv-x="1521" 
d="M723 35l-662 321v353l662 321v-399l-221 -99l221 -98v-399zM1460 35l-661 321v353l661 321v-399l-221 -99l221 -98v-399z" />
    <glyph glyph-name="registered" unicode="&#xae;" horiz-adv-x="1114" 
d="M557 1495q239 0 387 -133q150 -132 150 -342t-150 -342q-146 -131 -387 -131q-240 0 -389 131q-148 133 -148 342t148 342q151 133 389 133zM557 670q180 0 288.5 96t108.5 254q0 160 -108 254q-107 98 -289 98t-289 -98q-108 -94 -108 -254q0 -158 108.5 -254t288.5 -96
zM739 977l105 -189h-197l-65 140h-103v-140h-172v480h311q97 0 150 -43t53 -121q0 -82 -82 -127zM641 1090q0 38 -49 38h-113v-79h113q49 0 49 41z" />
    <glyph glyph-name="overscore" unicode="&#xaf;" horiz-adv-x="1228" 
d="M1006 1470v-315h-783v315h783z" />
    <glyph glyph-name="degree" unicode="&#xb0;" horiz-adv-x="872" 
d="M20 1145q0 160 113.5 255t302.5 95t302.5 -95t113.5 -255t-113.5 -255t-302.5 -95t-302.5 95t-113.5 255zM274 1145q0 -61 44 -96t118 -35t118 35t44 96t-44 96t-118 35t-118 -35t-44 -96z" />
    <glyph glyph-name="twosuperior" unicode="&#xb2;" horiz-adv-x="952" 
d="M59 655v191l306 180q134 79 159 107q27 27 27 55q0 26 -22.5 42.5t-59.5 16.5q-61 0 -104.5 -40.5t-49.5 -100.5l-282 51q14 147 139 237.5t320 90.5q179 0 286 -72t107 -194q0 -92 -57 -157t-193 -126l-86 -39h360v-242h-850z" />
    <glyph glyph-name="threesuperior" unicode="&#xb3;" horiz-adv-x="1030" 
d="M999 893q0 -113 -129.5 -182.5t-343.5 -69.5q-185 0 -308.5 52t-217.5 169l254 129q41 -56 114.5 -88.5t157.5 -32.5q113 0 113 52q0 39 -115 39h-149v204h131q68 0 96.5 10t28.5 35q0 20 -29 32.5t-80 12.5q-75 0 -138 -26.5t-101 -73.5l-238 121q75 100 207.5 154.5
t302.5 54.5q197 0 316.5 -67.5t119.5 -176.5q0 -57 -36.5 -102.5t-102.5 -71.5q147 -58 147 -174z" />
    <glyph glyph-name="acute" unicode="&#xb4;" horiz-adv-x="1228" 
d="M614 1145h-368l170 325h547z" />
    <glyph glyph-name="paragraph" unicode="&#xb6;" horiz-adv-x="1869" 
d="M1593 0h-379v1151h-286v-659h-383q-228 0 -371 131t-143 350q0 221 155 358q157 139 408 139h1235v-319h-236v-1151z" />
    <glyph glyph-name="middot" unicode="&#xb7;" horiz-adv-x="663" 
d="M582 371h-500v473h500v-473z" />
    <glyph glyph-name="cedilla" unicode="&#xb8;" horiz-adv-x="1228" 
d="M952 -197q0 -79 -90 -127.5t-233 -48.5q-198 0 -305 74l98 156q74 -47 172 -47q32 0 51 8t19 22q0 23 -51.5 34t-143.5 7l45 144h174l-16 -64q136 -5 208 -45t72 -113z" />
    <glyph glyph-name="onesuperior" unicode="&#xb9;" horiz-adv-x="794" 
d="M764 655h-715v242h223v225h-219v215l53 2q113 5 167 33.5t73 95.5h248v-571h170v-242z" />
    <glyph glyph-name="ordmasculine" unicode="&#xba;" horiz-adv-x="1044" 
d="M520 1489q222 0 359 -113q139 -115 139 -297t-139 -297q-136 -112 -359 -112q-220 0 -356 112q-137 113 -137 297t137 297t356 113zM520 1237q-79 0 -127.5 -43t-48.5 -115t48 -114.5t128 -42.5t130 43t50 114t-50 114.5t-130 43.5zM993 352h-942v226h942v-226z" />
    <glyph glyph-name="guillemotright" unicode="&#xbb;" horiz-adv-x="1521" 
d="M723 709v-353l-662 -321v399l222 98l-222 99v399zM1460 709v-353l-661 -321v399l221 98l-221 99v399z" />
    <glyph glyph-name="onequarter" unicode="&#xbc;" horiz-adv-x="2168" 
d="M764 655h-715v242h223v225h-219v215l53 2q113 5 167 33.5t73 95.5h248v-571h170v-242zM303 0l1137 1470h352l-1135 -1470h-354zM1952 139v-139h-310v139h-475v201l383 475h402v-457h145v-219h-145zM1642 584l-159 -226h159v226z" />
    <glyph glyph-name="onehalf" unicode="&#xbd;" horiz-adv-x="2191" 
d="M764 655h-715v242h223v225h-219v215l53 2q113 5 167 33.5t73 95.5h248v-571h170v-242zM303 0l1137 1470h352l-1135 -1470h-354zM1298 0v190l306 181q136 80 159 106q27 27 27 55q0 26 -22.5 43t-59.5 17q-61 0 -104.5 -40.5t-49.5 -100.5l-282 51q14 147 139 237t320 90
q179 0 286 -72t107 -194q0 -92 -57 -156.5t-193 -125.5l-86 -39h360v-242h-850z" />
    <glyph glyph-name="threequarters" unicode="&#xbe;" horiz-adv-x="2342" 
d="M999 893q0 -113 -129.5 -182.5t-343.5 -69.5q-185 0 -308.5 52t-217.5 169l254 129q41 -56 114.5 -88.5t157.5 -32.5q113 0 113 52q0 39 -115 39h-149v204h131q68 0 96.5 10t28.5 35q0 20 -29 32.5t-80 12.5q-75 0 -138 -26.5t-101 -73.5l-238 121q75 100 207.5 154.5
t302.5 54.5q197 0 316.5 -67.5t119.5 -176.5q0 -57 -36.5 -102.5t-102.5 -71.5q147 -58 147 -174zM477 0l1137 1470h352l-1135 -1470h-354zM2126 139v-139h-309v139h-476v201l383 475h402v-457h145v-219h-145zM1817 584l-160 -226h160v226z" />
    <glyph glyph-name="questiondown" unicode="&#xbf;" horiz-adv-x="1630" 
d="M500 1479h516v-445h-516v445zM537 483q0 -49 65 -76.5t184 -27.5q134 0 220.5 46t97.5 120l506 -76q-30 -222 -258 -354q-223 -131 -594 -131q-338 0 -539 127q-199 129 -199 346q0 166 130.5 281.5t361.5 150.5v78h496v-363q-258 0 -364.5 -27.5t-106.5 -93.5z" />
    <glyph glyph-name="Agrave" unicode="&#xc0;" horiz-adv-x="1916" 
d="M-20 0l708 1470h541l708 -1470h-514l-108 233h-733l-111 -233h-491zM1145 598l-195 418l-196 -418h391zM954 1888l191 -346h-389l-389 346h587z" />
    <glyph glyph-name="Aacute" unicode="&#xc1;" horiz-adv-x="1916" 
d="M-20 0l708 1470h541l708 -1470h-514l-108 233h-733l-111 -233h-491zM1145 598l-195 418l-196 -418h391zM1143 1542h-389l190 346h588z" />
    <glyph glyph-name="Acircumflex" unicode="&#xc2;" horiz-adv-x="1916" 
d="M-20 0l708 1470h541l708 -1470h-514l-108 233h-733l-111 -233h-491zM1145 598l-195 418l-196 -418h391zM735 1888h447l282 -346h-325l-181 109l-180 -109h-325z" />
    <glyph glyph-name="Atilde" unicode="&#xc3;" horiz-adv-x="1916" 
d="M-20 0l708 1470h541l708 -1470h-514l-108 233h-733l-111 -233h-491zM1145 598l-195 418l-196 -418h391zM764 1950q85 0 201 -54q72 -34 118 -34q36 0 55 20.5t25 67.5h293q0 -189 -81 -298.5t-220 -109.5q-83 0 -201 53q-77 35 -118 35q-36 0 -55 -20.5t-25 -67.5h-293
q0 185 82.5 296.5t218.5 111.5z" />
    <glyph glyph-name="Adieresis" unicode="&#xc4;" horiz-adv-x="1916" 
d="M-20 0l708 1470h541l708 -1470h-514l-108 233h-733l-111 -233h-491zM1145 598l-195 418l-196 -418h391zM911 1542h-430v346h430v-346zM1436 1542h-430v346h430v-346z" />
    <glyph glyph-name="Aring" unicode="&#xc5;" horiz-adv-x="1916" 
d="M582 1569q0 135 104.5 220t271.5 85t272 -85t105 -220q0 -109 -65 -183l667 -1386h-514l-108 233h-733l-111 -233h-491l667 1386q-65 74 -65 183zM958 1667q-55 0 -87.5 -27.5t-32.5 -70.5t32.5 -71t87.5 -28t88 28t33 71t-33 70.5t-88 27.5zM1145 598l-195 418
l-196 -418h391z" />
    <glyph glyph-name="AE" unicode="&#xc6;" horiz-adv-x="3002" 
d="M-20 0l1292 1470h1687v-389h-977v-151h861v-379h-861v-162h977v-389h-1433v248h-735l-216 -248h-595zM1526 1090l-424 -486h424v486z" />
    <glyph glyph-name="Ccedilla" unicode="&#xc7;" horiz-adv-x="1734" 
d="M29 735q0 335 247 545q250 215 635 215q309 0 523.5 -128t302.5 -366l-437 -184q-35 130 -139 204.5t-252 74.5q-177 0 -293 -101q-114 -102 -114 -260t114 -260q115 -100 293 -100q149 0 252.5 74t138.5 204l437 -184q-82 -223 -279 -351t-481 -141l-4 -16
q136 -5 208 -45t72 -113q0 -79 -90 -127.5t-233 -48.5q-198 0 -305 74l98 156q74 -47 172 -47q32 0 51 8t19 22q0 23 -51.5 34t-143.5 7l31 99q-350 35 -559 241q-213 210 -213 514z" />
    <glyph glyph-name="Egrave" unicode="&#xc8;" horiz-adv-x="1558" 
d="M82 0v1470h1434v-389h-977v-151h860v-379h-860v-162h977v-389h-1434zM846 1888l190 -346h-389l-389 346h588z" />
    <glyph glyph-name="Eacute" unicode="&#xc9;" horiz-adv-x="1558" 
d="M82 0v1470h1434v-389h-977v-151h860v-379h-860v-162h977v-389h-1434zM963 1542h-390l191 346h588z" />
    <glyph glyph-name="Ecircumflex" unicode="&#xca;" horiz-adv-x="1558" 
d="M82 0v1470h1434v-389h-977v-151h860v-379h-860v-162h977v-389h-1434zM575 1888h447l283 -346h-326l-180 109l-181 -109h-325z" />
    <glyph glyph-name="Edieresis" unicode="&#xcb;" horiz-adv-x="1558" 
d="M82 0v1470h1434v-389h-977v-151h860v-379h-860v-162h977v-389h-1434zM752 1542h-430v346h430v-346zM1276 1542h-430v346h430v-346z" />
    <glyph glyph-name="Igrave" unicode="&#xcc;" horiz-adv-x="628" 
d="M82 1470h465v-1470h-465v1470zM344 1888l191 -346h-390l-389 346h588z" />
    <glyph glyph-name="Iacute" unicode="&#xcd;" horiz-adv-x="628" 
d="M82 1470h465v-1470h-465v1470zM496 1542h-390l191 346h588z" />
    <glyph glyph-name="Icircumflex" unicode="&#xce;" horiz-adv-x="628" 
d="M82 1470h465v-1470h-465v1470zM90 1888h447l282 -346h-325l-181 109l-180 -109h-326z" />
    <glyph glyph-name="Idieresis" unicode="&#xcf;" horiz-adv-x="628" 
d="M82 1470h465v-1470h-465v1470zM266 1542h-430v346h430v-346zM791 1542h-431v346h431v-346z" />
    <glyph glyph-name="Eth" unicode="&#xd0;" horiz-adv-x="1861" 
d="M950 0h-786v547h-144v389h144v534h786q410 0 645 -198q238 -197 238 -537q0 -338 -238 -538q-238 -197 -645 -197zM618 547v-158h332q198 0 310 92t112 254t-112 254t-310 92h-332v-145h287v-389h-287z" />
    <glyph glyph-name="Ntilde" unicode="&#xd1;" horiz-adv-x="1816" 
d="M1280 1470h455v-1470h-412l-786 870v-870h-455v1470h461l737 -819v819zM713 1950q84 0 200 -54q72 -34 119 -34q36 0 55 20.5t25 67.5h293q0 -189 -81 -298.5t-220 -109.5q-83 0 -201 53q-77 35 -119 35q-36 0 -54.5 -20.5t-24.5 -67.5h-293q0 185 82.5 296.5
t218.5 111.5z" />
    <glyph glyph-name="Ograve" unicode="&#xd2;" horiz-adv-x="1843" 
d="M29 735q0 333 252 545q253 215 641 215t641 -215q252 -211 252 -545q0 -333 -252 -547q-254 -213 -641 -213t-641 213q-252 214 -252 547zM1339 735q0 163 -118 260q-116 101 -299 101q-182 0 -301 -101q-117 -99 -117 -260q0 -160 117 -262q119 -98 301 -98
q183 0 299 98q118 100 118 262zM956 1888l191 -346h-389l-389 346h587z" />
    <glyph glyph-name="Oacute" unicode="&#xd3;" horiz-adv-x="1843" 
d="M29 735q0 333 252 545q253 215 641 215t641 -215q252 -211 252 -545q0 -333 -252 -547q-254 -213 -641 -213t-641 213q-252 214 -252 547zM1339 735q0 163 -118 260q-116 101 -299 101q-182 0 -301 -101q-117 -99 -117 -260q0 -160 117 -262q119 -98 301 -98
q183 0 299 98q118 100 118 262zM1085 1542h-389l191 346h588z" />
    <glyph glyph-name="Ocircumflex" unicode="&#xd4;" horiz-adv-x="1843" 
d="M29 735q0 333 252 545q253 215 641 215t641 -215q252 -211 252 -545q0 -333 -252 -547q-254 -213 -641 -213t-641 213q-252 214 -252 547zM1339 735q0 163 -118 260q-116 101 -299 101q-182 0 -301 -101q-117 -99 -117 -260q0 -160 117 -262q119 -98 301 -98
q183 0 299 98q118 100 118 262zM698 1888h447l282 -346h-325l-180 109l-181 -109h-325z" />
    <glyph glyph-name="Otilde" unicode="&#xd5;" horiz-adv-x="1843" 
d="M29 735q0 333 252 545q253 215 641 215t641 -215q252 -211 252 -545q0 -333 -252 -547q-254 -213 -641 -213t-641 213q-252 214 -252 547zM1339 735q0 163 -118 260q-116 101 -299 101q-182 0 -301 -101q-117 -99 -117 -260q0 -160 117 -262q119 -98 301 -98
q183 0 299 98q118 100 118 262zM725 1950q85 0 201 -54q72 -34 118 -34q36 0 55 20.5t25 67.5h293q0 -189 -81 -298.5t-220 -109.5q-83 0 -201 53q-77 35 -118 35q-36 0 -55 -20.5t-25 -67.5h-293q0 185 82.5 296.5t218.5 111.5z" />
    <glyph glyph-name="Odieresis" unicode="&#xd6;" horiz-adv-x="1843" 
d="M29 735q0 333 252 545q253 215 641 215t641 -215q252 -211 252 -545q0 -333 -252 -547q-254 -213 -641 -213t-641 213q-252 214 -252 547zM1339 735q0 163 -118 260q-116 101 -299 101q-182 0 -301 -101q-117 -99 -117 -260q0 -160 117 -262q119 -98 301 -98
q183 0 299 98q118 100 118 262zM874 1542h-430v346h430v-346zM1399 1542h-430v346h430v-346z" />
    <glyph glyph-name="multiply" unicode="&#xd7;" 
d="M139 301l434 436l-434 434l250 252l436 -436l422 422l250 -252l-422 -420l436 -436l-249 -252l-437 436l-436 -436z" />
    <glyph glyph-name="Oslash" unicode="&#xd8;" horiz-adv-x="1841" 
d="M268 -63l-231 223l141 135q-149 187 -149 440q0 333 250 545q253 215 641 215q282 0 499 -117l152 146l231 -224l-135 -129q145 -189 145 -434q0 -333 -251 -547q-253 -212 -641 -215q-275 0 -490 113zM920 1116q-205 0 -319 -99.5t-114 -281.5q0 -90 33 -160l565 519
q-86 22 -165 22zM920 354q208 2 320 100t112 281q0 84 -31 158l-563 -516q84 -23 162 -23z" />
    <glyph glyph-name="Ugrave" unicode="&#xd9;" horiz-adv-x="1716" 
d="M858 -25q-375 0 -586 172t-211 482v841h465v-788q0 -148 85.5 -225.5t246.5 -77.5t246.5 77.5t85.5 225.5v788h465v-841q0 -310 -211 -482t-586 -172zM877 1888l190 -346h-389l-389 346h588z" />
    <glyph glyph-name="Uacute" unicode="&#xda;" horiz-adv-x="1716" 
d="M858 -25q-375 0 -586 172t-211 482v841h465v-788q0 -148 85.5 -225.5t246.5 -77.5t246.5 77.5t85.5 225.5v788h465v-841q0 -310 -211 -482t-586 -172zM1034 1542h-389l191 346h587z" />
    <glyph glyph-name="Ucircumflex" unicode="&#xdb;" horiz-adv-x="1716" 
d="M858 -25q-375 0 -586 172t-211 482v841h465v-788q0 -148 85.5 -225.5t246.5 -77.5t246.5 77.5t85.5 225.5v788h465v-841q0 -310 -211 -482t-586 -172zM641 1888h446l283 -346h-326l-180 109l-180 -109h-326z" />
    <glyph glyph-name="Udieresis" unicode="&#xdc;" horiz-adv-x="1716" 
d="M858 -25q-375 0 -586 172t-211 482v841h465v-788q0 -148 85.5 -225.5t246.5 -77.5t246.5 77.5t85.5 225.5v788h465v-841q0 -310 -211 -482t-586 -172zM817 1542h-430v346h430v-346zM1341 1542h-430v346h430v-346z" />
    <glyph glyph-name="Yacute" unicode="&#xdd;" horiz-adv-x="1849" 
d="M526 1470l410 -514l407 514h527l-713 -905v-565h-465v565l-712 905h546zM1118 1542h-389l191 346h587z" />
    <glyph glyph-name="Thorn" unicode="&#xde;" horiz-adv-x="1667" 
d="M1647 754q0 -247 -164 -386t-455 -139h-481v-229h-465v1470h465v-192h481q291 0 455 -138.5t164 -385.5zM1004 893h-457v-279h457q88 0 136 37t48 103t-48 102.5t-136 36.5z" />
    <glyph glyph-name="germandbls" unicode="&#xdf;" horiz-adv-x="1564" 
d="M788 1495q293 0 458 -110.5t165 -303.5q0 -177 -162 -284q295 -114 295 -367q0 -205 -162 -330t-424 -125q-108 0 -215 28t-182 73l96 340q127 -86 277 -86q85 0 135.5 34t50.5 91q0 63 -53.5 93t-171.5 30h-236v344h115q100 0 152.5 29.5t52.5 86.5q0 58 -49.5 88.5
t-145.5 30.5q-116 0 -182.5 -64t-66.5 -171v-922h-461v895q0 279 188 438q189 162 526 162z" />
    <glyph glyph-name="agrave" unicode="&#xe0;" horiz-adv-x="1439" 
d="M913 82q-151 -105 -419 -105q-220 0 -348 89t-128 243q0 159 127.5 250.5t356.5 102.5l375 16v4q0 45 -45.5 70.5t-129.5 25.5q-79 0 -131 -23.5t-69 -66.5l-436 60q54 170 228.5 266t430.5 96q288 0 439 -109.5t151 -318.5v-303q0 -48 24 -60q12 -6 33 -6q22 0 49 6
v-319q-111 -18 -200 -18q-68 0 -115 8q-128 21 -193 92zM614 279q111 0 187 38t76 95v6l-320 -19q-55 -4 -76.5 -17t-21.5 -40q0 -63 155 -63zM782 1470l170 -325h-368l-348 325h546z" />
    <glyph glyph-name="aacute" unicode="&#xe1;" horiz-adv-x="1439" 
d="M913 82q-151 -105 -419 -105q-220 0 -348 89t-128 243q0 159 127.5 250.5t356.5 102.5l375 16v4q0 45 -45.5 70.5t-129.5 25.5q-79 0 -131 -23.5t-69 -66.5l-436 60q54 170 228.5 266t430.5 96q288 0 439 -109.5t151 -318.5v-303q0 -48 24 -60q12 -6 33 -6q22 0 49 6
v-319q-111 -18 -200 -18q-68 0 -115 8q-128 21 -193 92zM614 279q111 0 187 38t76 95v6l-320 -19q-55 -4 -76.5 -17t-21.5 -40q0 -63 155 -63zM854 1145h-368l170 325h547z" />
    <glyph glyph-name="acircumflex" unicode="&#xe2;" horiz-adv-x="1439" 
d="M913 82q-151 -105 -419 -105q-220 0 -348 89t-128 243q0 159 127.5 250.5t356.5 102.5l375 16v4q0 45 -45.5 70.5t-129.5 25.5q-79 0 -131 -23.5t-69 -66.5l-436 60q54 170 228.5 266t430.5 96q288 0 439 -109.5t151 -318.5v-303q0 -48 24 -60q12 -6 33 -6q22 0 49 6
v-319q-111 -18 -200 -18q-68 0 -115 8q-128 21 -193 92zM614 279q111 0 187 38t76 95v6l-320 -19q-55 -4 -76.5 -17t-21.5 -40q0 -63 155 -63zM496 1470h417l273 -325h-326l-156 92l-155 -92h-326z" />
    <glyph glyph-name="atilde" unicode="&#xe3;" horiz-adv-x="1439" 
d="M913 82q-151 -105 -419 -105q-220 0 -348 89t-128 243q0 159 127.5 250.5t356.5 102.5l375 16v4q0 45 -45.5 70.5t-129.5 25.5q-79 0 -131 -23.5t-69 -66.5l-436 60q54 170 228.5 266t430.5 96q288 0 439 -109.5t151 -318.5v-303q0 -48 24 -60q12 -6 33 -6q22 0 49 6
v-319q-111 -18 -200 -18q-68 0 -115 8q-128 21 -193 92zM614 279q111 0 187 38t76 95v6l-320 -19q-55 -4 -76.5 -17t-21.5 -40q0 -63 155 -63zM532 1497q86 0 191 -45q73 -31 112 -31q60 0 72 76h262q0 -162 -73 -257t-197 -95q-86 0 -191 45q-73 31 -112 31q-60 0 -72 -76
h-262q0 160 73.5 256t196.5 96z" />
    <glyph glyph-name="adieresis" unicode="&#xe4;" horiz-adv-x="1439" 
d="M913 82q-151 -105 -419 -105q-220 0 -348 89t-128 243q0 159 127.5 250.5t356.5 102.5l375 16v4q0 45 -45.5 70.5t-129.5 25.5q-79 0 -131 -23.5t-69 -66.5l-436 60q54 170 228.5 266t430.5 96q288 0 439 -109.5t151 -318.5v-303q0 -48 24 -60q12 -6 33 -6q22 0 49 6
v-319q-111 -18 -200 -18q-68 0 -115 8q-128 21 -193 92zM614 279q111 0 187 38t76 95v6l-320 -19q-55 -4 -76.5 -17t-21.5 -40q0 -63 155 -63zM674 1145h-430v325h430v-325zM1174 1145h-431v325h431v-325z" />
    <glyph glyph-name="aring" unicode="&#xe5;" horiz-adv-x="1439" 
d="M913 82q-151 -105 -419 -105q-220 0 -348 89t-128 243q0 159 127.5 250.5t356.5 102.5l375 16v4q0 45 -45.5 70.5t-129.5 25.5q-79 0 -131 -23.5t-69 -66.5l-436 60q54 170 228.5 266t430.5 96q288 0 439 -109.5t151 -318.5v-303q0 -48 24 -60q12 -6 33 -6q22 0 49 6
v-319q-111 -18 -200 -18q-68 0 -115 8q-128 21 -193 92zM614 279q111 0 187 38t76 95v6l-320 -19q-55 -4 -76.5 -17t-21.5 -40q0 -63 155 -63zM727 1145q-110 0 -183 68t-73 171q0 101 73.5 170.5t182.5 69.5q112 0 184 -68.5t72 -171.5t-72 -171t-184 -68zM727 1452
q-26 0 -44.5 -19.5t-18.5 -48.5q0 -30 17 -48.5t46 -18.5t47.5 19t18.5 48t-18.5 48.5t-47.5 19.5z" />
    <glyph glyph-name="ae" unicode="&#xe6;" horiz-adv-x="2252" 
d="M18 309q0 165 126 254.5t358 89.5h375v29q0 47 -45 72.5t-130 25.5q-161 0 -200 -92l-436 60q54 170 228.5 266t430.5 96q271 0 420 -125q178 125 416 125q300 0 483 -160q180 -158 180 -413v-107h-899q26 -56 83 -85.5t136 -29.5q177 0 232 93l434 -105
q-64 -152 -242 -242q-177 -86 -405 -86q-322 0 -514 177q-86 -84 -222.5 -129.5t-302.5 -45.5q-235 0 -370.5 89t-135.5 243zM1550 784q-85 0 -144 -34t-85 -97h453q-20 61 -80.5 96t-143.5 35zM459 360q0 -37 41 -59t114 -22q113 0 188 38.5t75 98.5v14h-293
q-66 0 -95.5 -16.5t-29.5 -53.5z" />
    <glyph glyph-name="ccedilla" unicode="&#xe7;" horiz-adv-x="1363" 
d="M27 543q0 253 188 409q193 158 502 158q251 0 430 -111q177 -110 217 -278l-418 -135q-23 80 -83.5 124t-147.5 44q-107 0 -172.5 -57.5t-65.5 -153.5t65.5 -153.5t172.5 -57.5q87 0 147.5 44t83.5 124l418 -135q-38 -157 -197 -265q-156 -108 -387 -123l-4 -16
q136 -5 208.5 -45t72.5 -113q0 -79 -90.5 -127.5t-233.5 -48.5q-198 0 -305 74l98 156q74 -47 172 -47q32 0 51 8t19 22q0 23 -51.5 34t-143.5 7l31 101q-265 27 -422 178q-155 152 -155 383z" />
    <glyph glyph-name="egrave" unicode="&#xe8;" horiz-adv-x="1415" 
d="M725 -25q-310 0 -506 158q-192 155 -192 412q0 246 194 405q198 160 498 160q305 0 485 -162q182 -159 182 -411v-99h-903q26 -60 88 -91.5t150 -31.5q75 0 133 25.5t84 69.5l434 -105q-64 -152 -242 -242q-175 -88 -405 -88zM713 780q-164 0 -224 -114h426
q-11 50 -66 82t-136 32zM762 1470l170 -325h-369l-348 325h547z" />
    <glyph glyph-name="eacute" unicode="&#xe9;" horiz-adv-x="1415" 
d="M725 -25q-310 0 -506 158q-192 155 -192 412q0 246 194 405q198 160 498 160q305 0 485 -162q182 -159 182 -411v-99h-903q26 -60 88 -91.5t150 -31.5q75 0 133 25.5t84 69.5l434 -105q-64 -152 -242 -242q-175 -88 -405 -88zM713 780q-164 0 -224 -114h426
q-11 50 -66 82t-136 32zM870 1145h-368l170 325h547z" />
    <glyph glyph-name="ecircumflex" unicode="&#xea;" horiz-adv-x="1415" 
d="M725 -25q-310 0 -506 158q-192 155 -192 412q0 246 194 405q198 160 498 160q305 0 485 -162q182 -159 182 -411v-99h-903q26 -60 88 -91.5t150 -31.5q75 0 133 25.5t84 69.5l434 -105q-64 -152 -242 -242q-175 -88 -405 -88zM713 780q-164 0 -224 -114h426
q-11 50 -66 82t-136 32zM502 1470h417l273 -325h-326l-156 92l-155 -92h-326z" />
    <glyph glyph-name="edieresis" unicode="&#xeb;" horiz-adv-x="1415" 
d="M725 -25q-310 0 -506 158q-192 155 -192 412q0 246 194 405q198 160 498 160q305 0 485 -162q182 -159 182 -411v-99h-903q26 -60 88 -91.5t150 -31.5q75 0 133 25.5t84 69.5l434 -105q-64 -152 -242 -242q-175 -88 -405 -88zM713 780q-164 0 -224 -114h426
q-11 50 -66 82t-136 32zM682 1145h-430v325h430v-325zM1182 1145h-430v325h430v-325z" />
    <glyph glyph-name="igrave" unicode="&#xec;" horiz-adv-x="602" 
d="M74 1085h454v-1085h-454v1085zM330 1470l170 -325h-369l-348 325h547z" />
    <glyph glyph-name="iacute" unicode="&#xed;" horiz-adv-x="602" 
d="M74 1085h454v-1085h-454v1085zM477 1145h-368l170 325h547z" />
    <glyph glyph-name="icircumflex" unicode="&#xee;" horiz-adv-x="602" 
d="M74 1085h454v-1085h-454v1085zM93 1470h417l273 -325h-326l-156 92l-155 -92h-326z" />
    <glyph glyph-name="idieresis" unicode="&#xef;" horiz-adv-x="602" 
d="M74 1085h454v-1085h-454v1085zM266 1145h-430v325h430v-325zM766 1145h-430v325h430v-325z" />
    <glyph glyph-name="eth" unicode="&#xf0;" horiz-adv-x="1429" 
d="M618 1044q139 0 218 -32q-40 61 -97 118l-501 -92v271l219 39q-110 66 -213 110l487 37q63 -28 137 -72l383 70v-270l-106 -19q125 -134 191.5 -287.5t66.5 -310.5q0 -299 -181 -465t-505 -166q-303 0 -498 154q-192 155 -192 403q0 229 168 369q168 143 423 143z
M717 754q-107 0 -173.5 -57.5t-66.5 -153.5t66.5 -153.5t173.5 -57.5q109 0 175 57.5t66 153.5t-67 153.5t-174 57.5z" />
    <glyph glyph-name="ntilde" unicode="&#xf1;" horiz-adv-x="1458" 
d="M528 0h-454v1085h454v-114q142 139 383 139q211 0 342 -125q136 -124 136 -328v-657h-455v479q0 121 -47.5 179.5t-145.5 58.5q-103 0 -158 -61t-55 -177v-479zM549 1497q86 0 191 -45q73 -31 112 -31q60 0 72 76h262q0 -162 -73 -257t-197 -95q-86 0 -191 45
q-73 31 -112 31q-60 0 -72 -76h-262q0 160 73.5 256t196.5 96z" />
    <glyph glyph-name="ograve" unicode="&#xf2;" horiz-adv-x="1435" 
d="M717 1110q304 0 500 -158q192 -155 192 -409q0 -257 -192 -412q-193 -156 -500 -156t-500 156q-190 156 -190 412q0 253 190 409q196 158 500 158zM717 754q-107 0 -173.5 -57.5t-66.5 -153.5t66.5 -153.5t173.5 -57.5q109 0 175 57.5t66 153.5t-67 153.5t-174 57.5z
M758 1470l170 -325h-369l-348 325h547z" />
    <glyph glyph-name="oacute" unicode="&#xf3;" horiz-adv-x="1435" 
d="M717 1110q304 0 500 -158q192 -155 192 -409q0 -257 -192 -412q-193 -156 -500 -156t-500 156q-190 156 -190 412q0 253 190 409q196 158 500 158zM717 754q-107 0 -173.5 -57.5t-66.5 -153.5t66.5 -153.5t173.5 -57.5q109 0 175 57.5t66 153.5t-67 153.5t-174 57.5z
M888 1145h-368l170 325h547z" />
    <glyph glyph-name="ocircumflex" unicode="&#xf4;" horiz-adv-x="1435" 
d="M717 1110q304 0 500 -158q192 -155 192 -409q0 -257 -192 -412q-193 -156 -500 -156t-500 156q-190 156 -190 412q0 253 190 409q196 158 500 158zM717 754q-107 0 -173.5 -57.5t-66.5 -153.5t66.5 -153.5t173.5 -57.5q109 0 175 57.5t66 153.5t-67 153.5t-174 57.5z
M508 1470h417l273 -325h-326l-156 92l-155 -92h-326z" />
    <glyph glyph-name="otilde" unicode="&#xf5;" horiz-adv-x="1435" 
d="M717 1110q304 0 500 -158q192 -155 192 -409q0 -257 -192 -412q-193 -156 -500 -156t-500 156q-190 156 -190 412q0 253 190 409q196 158 500 158zM717 754q-107 0 -173.5 -57.5t-66.5 -153.5t66.5 -153.5t173.5 -57.5q109 0 175 57.5t66 153.5t-67 153.5t-174 57.5z
M534 1497q86 0 191 -45q73 -31 112 -31q60 0 72 76h262q0 -162 -73 -257t-197 -95q-86 0 -191 45q-73 31 -112 31q-60 0 -72 -76h-262q0 160 73.5 256t196.5 96z" />
    <glyph glyph-name="odieresis" unicode="&#xf6;" horiz-adv-x="1435" 
d="M717 1110q304 0 500 -158q192 -155 192 -409q0 -257 -192 -412q-193 -156 -500 -156t-500 156q-190 156 -190 412q0 253 190 409q196 158 500 158zM717 754q-107 0 -173.5 -57.5t-66.5 -153.5t66.5 -153.5t173.5 -57.5q109 0 175 57.5t66 153.5t-67 153.5t-174 57.5z
M682 1145h-430v325h430v-325zM1182 1145h-430v325h430v-325z" />
    <glyph glyph-name="divide" unicode="&#xf7;" 
d="M1030 1016h-424v403h424v-403zM1530 553h-1424v371h1424v-371zM1030 57h-424v404h424v-404z" />
    <glyph glyph-name="oslash" unicode="&#xf8;" horiz-adv-x="1433" 
d="M27 543q0 253 190 409q196 158 500 158q203 0 352 -70l141 131l187 -192l-107 -98q117 -142 117 -338q0 -256 -193 -412q-190 -156 -497 -156q-201 0 -359 70l-135 -125l-186 193l104 96q-114 138 -114 334zM717 784q-118 0 -191 -66t-73 -175q0 -36 10 -78l330 311
q-31 8 -76 8zM717 303q118 0 191 66t73 174q0 36 -10 78l-332 -310q31 -8 78 -8z" />
    <glyph glyph-name="ugrave" unicode="&#xf9;" horiz-adv-x="1447" 
d="M920 1085h454v-1085h-454v115q-143 -140 -383 -140q-206 0 -338 123q-129 126 -129 330v657h454v-522q0 -109 45 -160t142 -51q103 0 156 53.5t53 157.5v522zM752 1470l170 -325h-369l-348 325h547z" />
    <glyph glyph-name="uacute" unicode="&#xfa;" horiz-adv-x="1447" 
d="M920 1085h454v-1085h-454v115q-143 -140 -383 -140q-206 0 -338 123q-129 126 -129 330v657h454v-522q0 -109 45 -160t142 -51q103 0 156 53.5t53 157.5v522zM884 1145h-368l170 325h547z" />
    <glyph glyph-name="ucircumflex" unicode="&#xfb;" horiz-adv-x="1447" 
d="M920 1085h454v-1085h-454v115q-143 -140 -383 -140q-206 0 -338 123q-129 126 -129 330v657h454v-522q0 -109 45 -160t142 -51q103 0 156 53.5t53 157.5v522zM517 1470h417l273 -325h-326l-156 92l-155 -92h-326z" />
    <glyph glyph-name="udieresis" unicode="&#xfc;" horiz-adv-x="1447" 
d="M920 1085h454v-1085h-454v115q-143 -140 -383 -140q-206 0 -338 123q-129 126 -129 330v657h454v-522q0 -109 45 -160t142 -51q103 0 156 53.5t53 157.5v522zM690 1145h-430v325h430v-325zM1190 1145h-430v325h430v-325z" />
    <glyph glyph-name="yacute" unicode="&#xfd;" horiz-adv-x="1478" 
d="M1499 1085l-504 -1060q-108 -232 -237 -314q-131 -84 -352 -84q-167 0 -277 45l64 336q76 -39 149 -39q102 0 127 54l8 18l-497 1044h509l267 -620l270 620h473zM915 1145h-368l170 325h547z" />
    <glyph glyph-name="thorn" unicode="&#xfe;" horiz-adv-x="1476" 
d="M1450 543q0 -249 -158 -410q-158 -158 -413 -158q-109 0 -204.5 35t-146.5 92v-450h-454v1818h454v-487q51 57 146.5 92t204.5 35q256 0 413 -160q158 -158 158 -407zM758 754q-105 0 -172.5 -57.5t-67.5 -149.5v-8q0 -92 67.5 -149.5t172.5 -57.5q107 0 174 57.5
t67 153.5t-67 153.5t-174 57.5z" />
    <glyph glyph-name="ydieresis" unicode="&#xff;" horiz-adv-x="1478" 
d="M1499 1085l-504 -1060q-108 -232 -237 -314q-131 -84 -352 -84q-167 0 -277 45l64 336q76 -39 149 -39q102 0 127 54l8 18l-497 1044h509l267 -620l270 620h473zM705 1145h-430v325h430v-325zM1204 1145h-430v325h430v-325z" />
    <glyph glyph-name="Amacron" unicode="&#x100;" horiz-adv-x="1916" 
d="M-20 0l708 1470h541l708 -1470h-514l-108 233h-733l-111 -233h-491zM1145 598l-195 418l-196 -418h391zM1391 1858v-316h-865v316h865z" />
    <glyph glyph-name="amacron" unicode="&#x101;" horiz-adv-x="1439" 
d="M913 82q-151 -105 -419 -105q-220 0 -348 89t-128 243q0 159 127.5 250.5t356.5 102.5l375 16v4q0 45 -45.5 70.5t-129.5 25.5q-79 0 -131 -23.5t-69 -66.5l-436 60q54 170 228.5 266t430.5 96q288 0 439 -109.5t151 -318.5v-303q0 -48 24 -60q12 -6 33 -6q22 0 49 6
v-319q-111 -18 -200 -18q-68 0 -115 8q-128 21 -193 92zM614 279q111 0 187 38t76 95v6l-320 -19q-55 -4 -76.5 -17t-21.5 -40q0 -63 155 -63zM1087 1470v-315h-782v315h782z" />
    <glyph glyph-name="Abreve" unicode="&#x102;" horiz-adv-x="1916" 
d="M-20 0l708 1470h541l708 -1470h-514l-108 233h-733l-111 -233h-491zM1145 598l-195 418l-196 -418h391zM958 1815q58 0 96 20.5t38 52.5h315q0 -165 -121.5 -263.5t-327.5 -98.5t-327 98.5t-121 263.5h315q0 -32 38 -52.5t95 -20.5z" />
    <glyph glyph-name="abreve" unicode="&#x103;" horiz-adv-x="1439" 
d="M913 82q-151 -105 -419 -105q-220 0 -348 89t-128 243q0 159 127.5 250.5t356.5 102.5l375 16v4q0 45 -45.5 70.5t-129.5 25.5q-79 0 -131 -23.5t-69 -66.5l-436 60q54 170 228.5 266t430.5 96q288 0 439 -109.5t151 -318.5v-303q0 -48 24 -60q12 -6 33 -6q22 0 49 6
v-319q-111 -18 -200 -18q-68 0 -115 8q-128 21 -193 92zM614 279q111 0 187 38t76 95v6l-320 -19q-55 -4 -76.5 -17t-21.5 -40q0 -63 155 -63zM723 1403q112 0 123 67h307q-6 -167 -111 -246.5t-319 -78.5q-216 2 -320 80t-110 245h308q11 -67 122 -67z" />
    <glyph glyph-name="Aogonek" unicode="&#x104;" horiz-adv-x="1916" 
d="M1507 -365q-147 0 -232 50.5t-85 140.5q0 78 50.5 131.5t160.5 91.5l-86 184h-733l-111 -233h-491l708 1470h541l708 -1470h-247q-142 -27 -183 -43q-37 -15 -37 -39q0 -20 28 -32.5t77 -12.5q45 0 115 12v-231q-92 -19 -183 -19zM1145 598l-195 418l-196 -418h391z" />
    <glyph glyph-name="aogonek" unicode="&#x105;" horiz-adv-x="1439" 
d="M913 82q-151 -105 -419 -105q-220 0 -348 89t-128 243q0 159 127.5 250.5t356.5 102.5l375 16v4q0 45 -45.5 70.5t-129.5 25.5q-79 0 -131 -23.5t-69 -66.5l-436 60q54 170 228.5 266t430.5 96q288 0 439 -109.5t151 -318.5v-303q0 -48 24 -60q12 -6 33 -6q22 0 49 6
v-319q-140 -26 -182 -43q-37 -15 -37 -39q0 -20 28 -32.5t77 -12.5q43 0 114 12v-231q-92 -19 -182 -19q-147 0 -232 50.5t-85 140.5q0 116 114 180q-74 24 -123 76zM614 279q111 0 187 38t76 95v6l-320 -19q-55 -4 -76.5 -17t-21.5 -40q0 -63 155 -63z" />
    <glyph glyph-name="Cacute" unicode="&#x106;" horiz-adv-x="1734" 
d="M909 1096q-177 0 -293 -101q-114 -102 -114 -260t114 -260q115 -100 293 -100q149 0 252.5 74t138.5 204l437 -184q-88 -238 -302.5 -366t-523.5 -128q-384 0 -635 213q-247 213 -247 547q0 335 247 545q250 215 635 215q309 0 523.5 -128t302.5 -366l-437 -184
q-35 130 -139 204.5t-252 74.5zM1092 1542h-390l191 346h588z" />
    <glyph glyph-name="cacute" unicode="&#x107;" horiz-adv-x="1363" 
d="M715 754q-107 0 -172.5 -57.5t-65.5 -153.5t65.5 -153.5t172.5 -57.5q87 0 147.5 44t83.5 124l418 -135q-40 -169 -217 -279q-179 -111 -430 -111q-311 0 -502 156q-188 156 -188 412q0 253 188 409q193 158 502 158q251 0 430 -111q177 -110 217 -278l-418 -135
q-23 80 -83.5 124t-147.5 44zM864 1145h-368l170 325h546z" />
    <glyph glyph-name="Ccircumflex" unicode="&#x108;" horiz-adv-x="1734" 
d="M909 1096q-177 0 -293 -101q-114 -102 -114 -260t114 -260q115 -100 293 -100q149 0 252.5 74t138.5 204l437 -184q-88 -238 -302.5 -366t-523.5 -128q-384 0 -635 213q-247 213 -247 547q0 335 247 545q250 215 635 215q309 0 523.5 -128t302.5 -366l-437 -184
q-35 130 -139 204.5t-252 74.5zM692 1888h447l282 -346h-325l-181 109l-180 -109h-325z" />
    <glyph glyph-name="ccircumflex" unicode="&#x109;" horiz-adv-x="1363" 
d="M715 754q-107 0 -172.5 -57.5t-65.5 -153.5t65.5 -153.5t172.5 -57.5q87 0 147.5 44t83.5 124l418 -135q-40 -169 -217 -279q-179 -111 -430 -111q-311 0 -502 156q-188 156 -188 412q0 253 188 409q193 158 502 158q251 0 430 -111q177 -110 217 -278l-418 -135
q-23 80 -83.5 124t-147.5 44zM496 1470h417l273 -325h-326l-156 92l-155 -92h-326z" />
    <glyph glyph-name="Cdotaccent" unicode="&#x10a;" horiz-adv-x="1734" 
d="M909 1096q-177 0 -293 -101q-114 -102 -114 -260t114 -260q115 -100 293 -100q149 0 252.5 74t138.5 204l437 -184q-88 -238 -302.5 -366t-523.5 -128q-384 0 -635 213q-247 213 -247 547q0 335 247 545q250 215 635 215q309 0 523.5 -128t302.5 -366l-437 -184
q-35 130 -139 204.5t-252 74.5zM1147 1542h-488v346h488v-346z" />
    <glyph glyph-name="cdotaccent" unicode="&#x10b;" horiz-adv-x="1363" 
d="M715 754q-107 0 -172.5 -57.5t-65.5 -153.5t65.5 -153.5t172.5 -57.5q87 0 147.5 44t83.5 124l418 -135q-40 -169 -217 -279q-179 -111 -430 -111q-311 0 -502 156q-188 156 -188 412q0 253 188 409q193 158 502 158q251 0 430 -111q177 -110 217 -278l-418 -135
q-23 80 -83.5 124t-147.5 44zM930 1145h-455v325h455v-325z" />
    <glyph glyph-name="Ccaron" unicode="&#x10c;" horiz-adv-x="1734" 
d="M909 1096q-177 0 -293 -101q-114 -102 -114 -260t114 -260q115 -100 293 -100q149 0 252.5 74t138.5 204l437 -184q-88 -238 -302.5 -366t-523.5 -128q-384 0 -635 213q-247 213 -247 547q0 335 247 545q250 215 635 215q309 0 523.5 -128t302.5 -366l-437 -184
q-35 130 -139 204.5t-252 74.5zM1409 1890l-283 -346h-446l-283 346h326l180 -108l180 108h326z" />
    <glyph glyph-name="ccaron" unicode="&#x10d;" horiz-adv-x="1363" 
d="M715 754q-107 0 -172.5 -57.5t-65.5 -153.5t65.5 -153.5t172.5 -57.5q87 0 147.5 44t83.5 124l418 -135q-40 -169 -217 -279q-179 -111 -430 -111q-311 0 -502 156q-188 156 -188 412q0 253 188 409q193 158 502 158q251 0 430 -111q177 -110 217 -278l-418 -135
q-23 80 -83.5 124t-147.5 44zM1180 1470l-273 -325h-418l-272 325h326l155 -92l156 92h326z" />
    <glyph glyph-name="Dcaron" unicode="&#x10e;" horiz-adv-x="1779" 
d="M868 0h-786v1470h786q410 0 645 -198q238 -197 238 -537q0 -338 -238 -538q-238 -197 -645 -197zM537 1081v-692h331q198 0 310 92t112 254t-112 254t-310 92h-331zM1311 1890l-283 -346h-446l-283 346h326l180 -108l180 108h326z" />
    <glyph glyph-name="dcaron" unicode="&#x10f;" horiz-adv-x="1476" 
d="M598 -25q-258 0 -416 158q-155 158 -155 410t155 407q157 160 416 160q109 0 204 -34.5t146 -92.5v487h455v-1470h-455v102q-51 -58 -146 -92.5t-204 -34.5zM958 539v8q0 92 -67 149.5t-172 57.5q-107 0 -174.5 -57.5t-67.5 -153.5t67.5 -153.5t174.5 -57.5
q105 0 172 57.5t67 149.5zM1769 1110h-305l37 360h459z" />
    <glyph glyph-name="Dcroat" unicode="&#x110;" horiz-adv-x="1861" 
d="M950 0h-786v547h-144v389h144v534h786q410 0 645 -198q238 -197 238 -537q0 -338 -238 -538q-238 -197 -645 -197zM618 547v-158h332q198 0 310 92t112 254t-112 254t-310 92h-332v-145h287v-389h-287z" />
    <glyph glyph-name="dslash" unicode="&#x111;" horiz-adv-x="1517" 
d="M598 -25q-258 0 -416 158q-155 158 -155 410t155 407q157 160 416 160q109 0 204 -34.5t146 -92.5v160h-190v258h190v69h455v-69h123v-258h-123v-1143h-455v102q-51 -58 -146 -92.5t-204 -34.5zM958 539v8q0 92 -67 149.5t-172 57.5q-107 0 -174.5 -57.5t-67.5 -153.5
t67.5 -153.5t174.5 -57.5q105 0 172 57.5t67 149.5z" />
    <glyph glyph-name="Emacron" unicode="&#x112;" horiz-adv-x="1558" 
d="M82 0v1470h1434v-389h-977v-151h860v-379h-860v-162h977v-389h-1434zM1231 1858v-316h-864v316h864z" />
    <glyph glyph-name="emacron" unicode="&#x113;" horiz-adv-x="1415" 
d="M725 -25q-310 0 -506 158q-192 155 -192 412q0 246 194 405q198 160 498 160q305 0 485 -162q182 -159 182 -411v-99h-903q26 -60 88 -91.5t150 -31.5q75 0 133 25.5t84 69.5l434 -105q-64 -152 -242 -242q-175 -88 -405 -88zM713 780q-164 0 -224 -114h426
q-11 50 -66 82t-136 32zM1098 1470v-315h-783v315h783z" />
    <glyph glyph-name="Ebreve" unicode="&#x114;" horiz-adv-x="1558" 
d="M82 0v1470h1434v-389h-977v-151h860v-379h-860v-162h977v-389h-1434zM799 1815q57 0 95 20.5t38 52.5h315q0 -165 -121 -263.5t-327 -98.5t-327.5 98.5t-121.5 263.5h316q0 -32 38 -52.5t95 -20.5z" />
    <glyph glyph-name="ebreve" unicode="&#x115;" horiz-adv-x="1415" 
d="M725 -25q-310 0 -506 158q-192 155 -192 412q0 246 194 405q198 160 498 160q305 0 485 -162q182 -159 182 -411v-99h-903q26 -60 88 -91.5t150 -31.5q75 0 133 25.5t84 69.5l434 -105q-64 -152 -242 -242q-175 -88 -405 -88zM713 780q-164 0 -224 -114h426
q-11 50 -66 82t-136 32zM706 1403q112 0 123 67h307q-6 -167 -111 -246.5t-319 -78.5q-216 2 -320 80t-110 245h308q11 -67 122 -67z" />
    <glyph glyph-name="Edotaccent" unicode="&#x116;" horiz-adv-x="1558" 
d="M82 0v1470h1434v-389h-977v-151h860v-379h-860v-162h977v-389h-1434zM1042 1542h-487v346h487v-346z" />
    <glyph glyph-name="edotaccent" unicode="&#x117;" horiz-adv-x="1415" 
d="M725 -25q-310 0 -506 158q-192 155 -192 412q0 246 194 405q198 160 498 160q305 0 485 -162q182 -159 182 -411v-99h-903q26 -60 88 -91.5t150 -31.5q75 0 133 25.5t84 69.5l434 -105q-64 -152 -242 -242q-175 -88 -405 -88zM713 780q-164 0 -224 -114h426
q-11 50 -66 82t-136 32zM934 1145h-455v325h455v-325z" />
    <glyph glyph-name="Eogonek" unicode="&#x118;" horiz-adv-x="1558" 
d="M1178 -365q-147 0 -232.5 50.5t-85.5 140.5q0 111 105 174h-883v1470h1434v-389h-977v-151h860v-379h-860v-162h977v-389h-156q-140 -26 -182 -43q-37 -15 -37 -39q0 -21 27.5 -33t76.5 -12q45 0 115 12v-231q-92 -19 -182 -19z" />
    <glyph glyph-name="eogonek" unicode="&#x119;" horiz-adv-x="1415" 
d="M1090 45q-88 -40 -107 -59q-18 -18 -18 -45q0 -68 114 -68q45 0 115 12v-231q-92 -19 -182 -19q-147 0 -232.5 56.5t-85.5 154.5q0 80 49 129h-18q-310 0 -506 158q-192 155 -192 412q0 246 194 405q198 160 498 160q305 0 485 -162q182 -159 182 -411v-99h-903
q26 -59 85 -91t139 -32q178 0 231 95l434 -105q-36 -82 -102.5 -144.5t-179.5 -115.5zM713 780q-164 0 -224 -114h426q-8 45 -68 79.5t-134 34.5z" />
    <glyph glyph-name="Ecaron" unicode="&#x11a;" horiz-adv-x="1558" 
d="M82 0v1470h1434v-389h-977v-151h860v-379h-860v-162h977v-389h-1434zM1305 1890l-283 -346h-447l-282 346h325l181 -108l180 108h326z" />
    <glyph glyph-name="ecaron" unicode="&#x11b;" horiz-adv-x="1415" 
d="M725 -25q-310 0 -506 158q-192 155 -192 412q0 246 194 405q198 160 498 160q305 0 485 -162q182 -159 182 -411v-99h-903q26 -60 88 -91.5t150 -31.5q75 0 133 25.5t84 69.5l434 -105q-64 -152 -242 -242q-175 -88 -405 -88zM713 780q-164 0 -224 -114h426
q-11 50 -66 82t-136 32zM1188 1470l-273 -325h-417l-273 325h326l156 -92l155 92h326z" />
    <glyph glyph-name="Gcircumflex" unicode="&#x11c;" horiz-adv-x="1853" 
d="M1792 0h-428v100q-59 -56 -180 -90q-122 -35 -260 -35q-389 0 -643 213q-252 214 -252 547q0 335 256 547q257 213 661 213q300 0 516 -125t305 -344l-464 -152q-37 105 -136 164.5t-241 59.5q-183 0 -303 -105q-119 -101 -119 -268q0 -159 119 -260q119 -98 305 -98
q133 0 234.5 36t148.5 99h-496v350h977v-852zM727 1888h447l282 -346h-326l-180 109l-180 -109h-326z" />
    <glyph glyph-name="gcircumflex" unicode="&#x11d;" horiz-adv-x="1476" 
d="M1403 1085v-892q0 -269 -198.5 -417.5t-555.5 -148.5q-221 0 -386 65t-234 181l358 182q47 -49 111 -70.5t161 -21.5q127 0 208 49.5t81 132.5v17q-51 -55 -145 -87t-205 -32q-259 0 -416 145q-155 146 -155 383q0 236 157 387q158 152 414 152q110 0 204.5 -32.5
t145.5 -88.5v96h455zM958 567v8q0 86 -67.5 141.5t-171.5 55.5q-107 0 -174.5 -55t-67.5 -146t67.5 -145.5t174.5 -54.5q104 0 171.5 55t67.5 141zM561 1470h418l272 -325h-325l-156 92l-156 -92h-325z" />
    <glyph glyph-name="Gbreve" unicode="&#x11e;" horiz-adv-x="1853" 
d="M1792 0h-428v100q-59 -56 -180 -90q-122 -35 -260 -35q-389 0 -643 213q-252 214 -252 547q0 335 256 547q257 213 661 213q300 0 516 -125t305 -344l-464 -152q-37 105 -136 164.5t-241 59.5q-183 0 -303 -105q-119 -101 -119 -268q0 -159 119 -260q119 -98 305 -98
q133 0 234.5 36t148.5 99h-496v350h977v-852zM950 1815q57 0 95 20.5t38 52.5h316q0 -165 -121.5 -263.5t-327.5 -98.5t-327 98.5t-121 263.5h315q0 -32 38 -52.5t95 -20.5z" />
    <glyph glyph-name="gbreve" unicode="&#x11f;" horiz-adv-x="1476" 
d="M1403 1085v-892q0 -269 -198.5 -417.5t-555.5 -148.5q-221 0 -386 65t-234 181l358 182q47 -49 111 -70.5t161 -21.5q127 0 208 49.5t81 132.5v17q-51 -55 -145 -87t-205 -32q-259 0 -416 145q-155 146 -155 383q0 236 157 387q158 152 414 152q110 0 204.5 -32.5
t145.5 -88.5v96h455zM958 567v8q0 86 -67.5 141.5t-171.5 55.5q-107 0 -174.5 -55t-67.5 -146t67.5 -145.5t174.5 -54.5q104 0 171.5 55t67.5 141zM751 1403q112 0 123 67h307q-6 -167 -111 -246.5t-319 -78.5q-216 2 -320 80t-110 245h308q11 -67 122 -67z" />
    <glyph glyph-name="Gdotaccent" unicode="&#x120;" horiz-adv-x="1853" 
d="M1792 0h-428v100q-59 -56 -180 -90q-122 -35 -260 -35q-389 0 -643 213q-252 214 -252 547q0 335 256 547q257 213 661 213q300 0 516 -125t305 -344l-464 -152q-37 105 -136 164.5t-241 59.5q-183 0 -303 -105q-119 -101 -119 -268q0 -159 119 -260q119 -98 305 -98
q133 0 234.5 36t148.5 99h-496v350h977v-852zM1174 1542h-488v346h488v-346z" />
    <glyph glyph-name="gdotaccent" unicode="&#x121;" horiz-adv-x="1476" 
d="M1403 1085v-892q0 -269 -198.5 -417.5t-555.5 -148.5q-221 0 -386 65t-234 181l358 182q47 -49 111 -70.5t161 -21.5q127 0 208 49.5t81 132.5v17q-51 -55 -145 -87t-205 -32q-259 0 -416 145q-155 146 -155 383q0 236 157 387q158 152 414 152q110 0 204.5 -32.5
t145.5 -88.5v96h455zM958 567v8q0 86 -67.5 141.5t-171.5 55.5q-107 0 -174.5 -55t-67.5 -146t67.5 -145.5t174.5 -54.5q104 0 171.5 55t67.5 141zM993 1145h-454v325h454v-325z" />
    <glyph glyph-name="Gcommaaccent" unicode="&#x122;" horiz-adv-x="1853" 
d="M1792 0h-428v100q-59 -56 -180 -90q-122 -35 -260 -35q-389 0 -643 213q-252 214 -252 547q0 335 256 547q257 213 661 213q300 0 516 -125t305 -344l-464 -152q-37 105 -136 164.5t-241 59.5q-183 0 -303 -105q-119 -101 -119 -268q0 -159 119 -260q119 -98 305 -98
q133 0 234.5 36t148.5 99h-496v350h977v-852zM846 -268h-144v215h455v-66q0 -185 -111 -272.5t-344 -87.5v145q135 0 144 66z" />
    <glyph glyph-name="gcommaaccent" unicode="&#x123;" horiz-adv-x="1476" 
d="M1403 1085v-892q0 -269 -198.5 -417.5t-555.5 -148.5q-221 0 -386 65t-234 181l358 182q47 -49 111 -70.5t161 -21.5q127 0 208 49.5t81 132.5v17q-51 -55 -145 -87t-205 -32q-259 0 -416 145q-155 146 -155 383q0 236 157 387q158 152 414 152q110 0 204.5 -32.5
t145.5 -88.5v96h455zM958 567v8q0 86 -67.5 141.5t-171.5 55.5q-107 0 -174.5 -55t-67.5 -146t67.5 -145.5t174.5 -54.5q104 0 171.5 55t67.5 141zM844 1360h143v-215h-455v65q0 185 111 273t344 88v-146q-134 0 -143 -65z" />
    <glyph glyph-name="Hcircumflex" unicode="&#x124;" horiz-adv-x="1814" 
d="M1268 936v534h465v-1470h-465v547h-721v-547h-465v1470h465v-534h721zM684 1888h446l283 -346h-326l-180 109l-180 -109h-326z" />
    <glyph glyph-name="hcircumflex" unicode="&#x125;" horiz-adv-x="1458" 
d="M528 0h-454v1470h454v-499q142 139 383 139q211 0 342 -125q136 -124 136 -328v-657h-455v479q0 121 -47.5 179.5t-145.5 58.5q-103 0 -158 -61t-55 -177v-479zM506 1888h446l283 -346h-326l-180 109l-180 -109h-326z" />
    <glyph glyph-name="Hbar" unicode="&#x126;" horiz-adv-x="1978" 
d="M1958 1262v-377h-143v-885h-465v350h-721v-350h-465v885h-144v377h144v208h465v-208h721v208h465v-208h143zM629 885v-158h721v158h-721z" />
    <glyph glyph-name="hbar" unicode="&#x127;" horiz-adv-x="1499" 
d="M569 0h-454v1143h-123v264h123v63h454v-63h287v-264h-287v-172q142 139 383 139q211 0 342 -125q136 -124 136 -328v-657h-455v479q0 121 -47.5 179.5t-145.5 58.5q-103 0 -158 -61t-55 -177v-479z" />
    <glyph glyph-name="Itilde" unicode="&#x128;" horiz-adv-x="628" 
d="M82 1470h465v-1470h-465v1470zM117 1950q84 0 200 -54q72 -34 119 -34q36 0 55 20.5t25 67.5h293q0 -189 -81 -298.5t-220 -109.5q-83 0 -201 53q-77 35 -119 35q-36 0 -54.5 -20.5t-24.5 -67.5h-293q0 185 82.5 296.5t218.5 111.5z" />
    <glyph glyph-name="itilde" unicode="&#x129;" horiz-adv-x="602" 
d="M74 1085h454v-1085h-454v1085zM117 1497q86 0 191 -45q73 -31 112 -31q60 0 72 76h262q0 -162 -73 -257t-197 -95q-86 0 -191 45q-73 31 -112 31q-60 0 -72 -76h-262q0 160 73.5 256t196.5 96z" />
    <glyph glyph-name="Imacron" unicode="&#x12a;" horiz-adv-x="628" 
d="M82 1470h465v-1470h-465v1470zM745 1858v-316h-864v316h864z" />
    <glyph glyph-name="imacron" unicode="&#x12b;" horiz-adv-x="602" 
d="M74 1085h454v-1085h-454v1085zM692 1470v-315h-782v315h782z" />
    <glyph glyph-name="Ibreve" unicode="&#x12c;" horiz-adv-x="628" 
d="M82 1470h465v-1470h-465v1470zM313 1815q57 0 95 20.5t38 52.5h316q0 -165 -121.5 -263.5t-327.5 -98.5t-327 98.5t-121 263.5h315q0 -32 38 -52.5t95 -20.5z" />
    <glyph glyph-name="ibreve" unicode="&#x12d;" horiz-adv-x="602" 
d="M74 1085h454v-1085h-454v1085zM301 1403q112 0 123 67h307q-6 -167 -111 -246.5t-319 -78.5q-216 2 -320 80t-110 245h308q11 -67 122 -67z" />
    <glyph glyph-name="Iogonek" unicode="&#x12e;" horiz-adv-x="628" 
d="M365 -365q-147 0 -232.5 50.5t-85.5 140.5q0 111 105 174h-70v1470h465v-1470q-140 -26 -182 -43q-37 -15 -37 -39q0 -21 27.5 -33t76.5 -12q44 0 115 12v-231q-92 -19 -182 -19z" />
    <glyph glyph-name="iogonek" unicode="&#x12f;" horiz-adv-x="602" 
d="M528 1145h-454v325h454v-325zM346 -365q-147 0 -232 50.5t-85 140.5q0 112 104 174h-59v1085h454v-1085q-140 -26 -182 -43q-37 -15 -37 -39q0 -20 28 -32.5t77 -12.5q44 0 114 12v-231q-92 -19 -182 -19z" />
    <glyph glyph-name="Idot" unicode="&#x130;" horiz-adv-x="628" 
d="M82 1470h465v-1470h-465v1470zM557 1542h-487v346h487v-346z" />
    <glyph glyph-name="dotlessi" unicode="&#x131;" horiz-adv-x="602" 
d="M74 1085h454v-1085h-454v1085z" />
    <glyph glyph-name="Jcircumflex" unicode="&#x134;" horiz-adv-x="1568" 
d="M741 -23q-259 0 -458 105q-199 109 -283 291l410 264q43 -122 128.5 -185t206.5 -63q142 0 219.5 71t77.5 204v806h465v-858q0 -291 -207 -465q-206 -170 -559 -170zM1053 1888h446l283 -346h-326l-180 109l-180 -109h-326z" />
    <glyph glyph-name="jcircumflex" unicode="&#x135;" horiz-adv-x="602" 
d="M-68 -51q78 0 110 29t32 98v1009h454v-1030q0 -428 -540 -428q-73 0 -152 11t-123 28l62 305q90 -22 157 -22zM90 1470h418l272 -325h-325l-156 92l-156 -92h-325z" />
    <glyph glyph-name="Kcommaaccent" unicode="&#x136;" horiz-adv-x="1789" 
d="M82 1470h465v-569l594 569h626l-634 -598l688 -872h-582l-440 559l-252 -237v-322h-465v1470zM776 -268h-143v215h454v-66q0 -185 -110.5 -272.5t-343.5 -87.5v145q134 0 143 66z" />
    <glyph glyph-name="kcommaaccent" unicode="&#x137;" horiz-adv-x="1466" 
d="M74 1470h454v-720l363 335h596l-486 -421l486 -664h-545l-268 377l-146 -125v-252h-454v1470zM649 -268h-143v215h455v-66q0 -185 -111 -272.5t-344 -87.5v145q134 0 143 66z" />
    <glyph glyph-name="kgreenlandic" unicode="&#x138;" horiz-adv-x="1466" 
d="M74 1085h454v-335l363 335h596l-486 -421l486 -664h-545l-268 377l-146 -125v-252h-454v1085z" />
    <glyph glyph-name="Lacute" unicode="&#x139;" horiz-adv-x="1452" 
d="M1419 0h-1337v1470h465v-1081h872v-389zM494 1542h-390l191 346h588z" />
    <glyph glyph-name="lacute" unicode="&#x13a;" horiz-adv-x="602" 
d="M74 1470h454v-1470h-454v1470zM479 1542h-389l191 346h587z" />
    <glyph glyph-name="Lcommaaccent" unicode="&#x13b;" horiz-adv-x="1452" 
d="M1419 0h-1337v1470h465v-1081h872v-389zM543 -268h-144v215h455v-66q0 -185 -111 -272.5t-344 -87.5v145q135 0 144 66z" />
    <glyph glyph-name="lcommaaccent" unicode="&#x13c;" horiz-adv-x="602" 
d="M74 1470h454v-1470h-454v1470zM217 -268h-143v215h454v-66q0 -185 -110.5 -272.5t-343.5 -87.5v145q134 0 143 66z" />
    <glyph glyph-name="Lcaron" unicode="&#x13d;" horiz-adv-x="1452" 
d="M1419 0h-1337v1470h465v-1081h872v-389zM934 1110h-305l37 360h458z" />
    <glyph glyph-name="lcaron" unicode="&#x13e;" horiz-adv-x="602" 
d="M74 1470h454v-1470h-454v1470zM895 1110h-305l37 360h458z" />
    <glyph glyph-name="Ldot" unicode="&#x13f;" horiz-adv-x="1452" 
d="M1419 0h-1337v1470h465v-1081h872v-389zM1268 641h-455v326h455v-326z" />
    <glyph glyph-name="ldot" unicode="&#x140;" horiz-adv-x="1044" 
d="M74 1470h454v-1470h-454v1470zM1051 578h-455v325h455v-325z" />
    <glyph glyph-name="Lslash" unicode="&#x141;" horiz-adv-x="1554" 
d="M1534 0h-1337v422l-177 -70v387l177 70v661h465v-516l430 158v-387l-430 -158v-178h872v-389z" />
    <glyph glyph-name="lslash" unicode="&#x142;" horiz-adv-x="841" 
d="M821 1106v-393l-176 -92v-621h-455v412l-170 -93v394l170 88v669h455v-458z" />
    <glyph glyph-name="Nacute" unicode="&#x143;" horiz-adv-x="1816" 
d="M1280 1470h455v-1470h-412l-786 870v-870h-455v1470h461l737 -819v819zM1071 1542h-389l190 346h588z" />
    <glyph glyph-name="nacute" unicode="&#x144;" horiz-adv-x="1458" 
d="M528 0h-454v1085h454v-114q142 139 383 139q211 0 342 -125q136 -124 136 -328v-657h-455v479q0 121 -47.5 179.5t-145.5 58.5q-103 0 -158 -61t-55 -177v-479zM895 1145h-368l170 325h547z" />
    <glyph glyph-name="Ncommaaccent" unicode="&#x145;" horiz-adv-x="1816" 
d="M1280 1470h455v-1470h-412l-786 870v-870h-455v1470h461l737 -819v819zM823 -268h-143v215h455v-66q0 -185 -111 -272.5t-344 -87.5v145q134 0 143 66z" />
    <glyph glyph-name="ncommaaccent" unicode="&#x146;" horiz-adv-x="1458" 
d="M528 0h-454v1085h454v-114q142 139 383 139q211 0 342 -125q136 -124 136 -328v-657h-455v479q0 121 -47.5 179.5t-145.5 58.5q-103 0 -158 -61t-55 -177v-479zM647 -268h-143v215h454v-66q0 -185 -110.5 -272.5t-343.5 -87.5v145q134 0 143 66z" />
    <glyph glyph-name="Ncaron" unicode="&#x147;" horiz-adv-x="1816" 
d="M1280 1470h455v-1470h-412l-786 870v-870h-455v1470h461l737 -819v819zM1413 1890l-283 -346h-446l-283 346h326l180 -108l180 108h326z" />
    <glyph glyph-name="ncaron" unicode="&#x148;" horiz-adv-x="1458" 
d="M528 0h-454v1085h454v-114q142 139 383 139q211 0 342 -125q136 -124 136 -328v-657h-455v479q0 121 -47.5 179.5t-145.5 58.5q-103 0 -158 -61t-55 -177v-479zM1235 1470l-272 -325h-418l-273 325h326l156 -92l155 92h326z" />
    <glyph glyph-name="Eng" unicode="&#x14a;" horiz-adv-x="1816" 
d="M1280 651v819h455v-1421q0 -213 -134.5 -317.5t-406.5 -104.5q-185 0 -272 35l59 320q94 -23 158 -23q63 0 101 24.5t38 65.5v2l-741 819v-870h-455v1470h461z" />
    <glyph glyph-name="eng" unicode="&#x14b;" horiz-adv-x="1458" 
d="M911 1110q211 0 342 -125q136 -124 136 -328v-602q0 -428 -541 -428q-186 0 -273 35l60 320q94 -23 158 -23q78 0 109.5 29t31.5 98v393q0 121 -47.5 179.5t-145.5 58.5q-103 0 -158 -61t-55 -177v-479h-454v1085h454v-114q142 139 383 139z" />
    <glyph glyph-name="Omacron" unicode="&#x14c;" horiz-adv-x="1843" 
d="M29 735q0 333 252 545q253 215 641 215t641 -215q252 -211 252 -545q0 -333 -252 -547q-254 -213 -641 -213t-641 213q-252 214 -252 547zM1339 735q0 163 -118 260q-116 101 -299 101q-182 0 -301 -101q-117 -99 -117 -260q0 -160 117 -262q119 -98 301 -98
q183 0 299 98q118 100 118 262zM1354 1858v-316h-865v316h865z" />
    <glyph glyph-name="omacron" unicode="&#x14d;" horiz-adv-x="1435" 
d="M717 1110q304 0 500 -158q192 -155 192 -409q0 -257 -192 -412q-193 -156 -500 -156t-500 156q-190 156 -190 412q0 253 190 409q196 158 500 158zM717 754q-107 0 -173.5 -57.5t-66.5 -153.5t66.5 -153.5t173.5 -57.5q109 0 175 57.5t66 153.5t-67 153.5t-174 57.5z
M1108 1470v-315h-782v315h782z" />
    <glyph glyph-name="Obreve" unicode="&#x14e;" horiz-adv-x="1843" 
d="M29 735q0 333 252 545q253 215 641 215t641 -215q252 -211 252 -545q0 -333 -252 -547q-254 -213 -641 -213t-641 213q-252 214 -252 547zM1339 735q0 163 -118 260q-116 101 -299 101q-182 0 -301 -101q-117 -99 -117 -260q0 -160 117 -262q119 -98 301 -98
q183 0 299 98q118 100 118 262zM922 1815q57 0 95 20.5t38 52.5h315q0 -165 -121 -263.5t-327 -98.5t-327.5 98.5t-121.5 263.5h315q0 -32 38 -52.5t96 -20.5z" />
    <glyph glyph-name="obreve" unicode="&#x14f;" horiz-adv-x="1435" 
d="M717 1110q304 0 500 -158q192 -155 192 -409q0 -257 -192 -412q-193 -156 -500 -156t-500 156q-190 156 -190 412q0 253 190 409q196 158 500 158zM717 754q-107 0 -173.5 -57.5t-66.5 -153.5t66.5 -153.5t173.5 -57.5q109 0 175 57.5t66 153.5t-67 153.5t-174 57.5z
M716 1403q112 0 123 67h307q-6 -167 -111 -246.5t-319 -78.5q-216 2 -320 80t-110 245h308q11 -67 122 -67z" />
    <glyph glyph-name="Ohungarumlaut" unicode="&#x150;" horiz-adv-x="1843" 
d="M29 735q0 333 252 545q253 215 641 215t641 -215q252 -211 252 -545q0 -333 -252 -547q-254 -213 -641 -213t-641 213q-252 214 -252 547zM1339 735q0 163 -118 260q-116 101 -299 101q-182 0 -301 -101q-117 -99 -117 -260q0 -160 117 -262q119 -98 301 -98
q183 0 299 98q118 100 118 262zM1364 1542h-348l184 346h465zM827 1542h-346l185 346h462z" />
    <glyph glyph-name="ohungarumlaut" unicode="&#x151;" horiz-adv-x="1435" 
d="M717 1110q304 0 500 -158q192 -155 192 -409q0 -257 -192 -412q-193 -156 -500 -156t-500 156q-190 156 -190 412q0 253 190 409q196 158 500 158zM717 754q-107 0 -173.5 -57.5t-66.5 -153.5t66.5 -153.5t173.5 -57.5q109 0 175 57.5t66 153.5t-67 153.5t-174 57.5z
M1118 1145h-348l178 325h461zM612 1145h-348l178 325h461z" />
    <glyph glyph-name="OE" unicode="&#x152;" horiz-adv-x="2637" 
d="M29 735q0 342 235 537q235 198 647 198h1684v-389h-936v-151h819v-379h-819v-162h936v-389h-1684q-409 0 -647 197q-235 198 -235 538zM1202 389v692h-291q-198 0 -310 -92t-112 -254t112 -254t310 -92h291z" />
    <glyph glyph-name="oe" unicode="&#x153;" horiz-adv-x="2338" 
d="M1649 -12q-271 0 -461 137q-188 -150 -477 -150q-303 0 -494 156q-190 156 -190 412q0 253 190 409q193 158 494 158q284 0 465 -139q199 151 477 151q301 0 477 -161q180 -158 180 -412v-98h-903q26 -59 84.5 -91t138.5 -32q172 0 232 102l434 -104q-69 -160 -244 -248
q-178 -90 -403 -90zM1636 793q-162 0 -223 -115h426q-8 45 -68.5 80t-134.5 35zM477 543q0 -96 66.5 -153.5t173.5 -57.5q109 0 175 57.5t66 153.5t-68 153.5t-179 57.5q-104 0 -169 -57.5t-65 -153.5z" />
    <glyph glyph-name="Racute" unicode="&#x154;" horiz-adv-x="1710" 
d="M866 451h-319v-451h-465v1470h967q290 0 452 -137q166 -135 166 -372q0 -159 -81.5 -277.5t-233.5 -179.5l346 -504h-537zM547 1085v-274h477q86 0 135 36t49 99q0 66 -48 102.5t-136 36.5h-477zM1022 1542h-389l190 346h588z" />
    <glyph glyph-name="racute" unicode="&#x155;" horiz-adv-x="1046" 
d="M907 1092q69 0 117 -7v-430q-76 9 -137 9q-359 0 -359 -285v-379h-454v1085h454v-174q73 97 161.5 139t217.5 42zM664 1145h-369l170 325h547z" />
    <glyph glyph-name="Rcommaaccent" unicode="&#x156;" horiz-adv-x="1710" 
d="M866 451h-319v-451h-465v1470h967q290 0 452 -137q166 -135 166 -372q0 -159 -81.5 -277.5t-233.5 -179.5l346 -504h-537zM547 1085v-274h477q86 0 135 36t49 99q0 66 -48 102.5t-136 36.5h-477zM764 -268h-143v215h454v-66q0 -185 -110.5 -272.5t-343.5 -87.5v145
q134 0 143 66z" />
    <glyph glyph-name="rcommaaccent" unicode="&#x157;" horiz-adv-x="1046" 
d="M907 1092q69 0 117 -7v-430q-76 9 -137 9q-359 0 -359 -285v-379h-454v1085h454v-174q73 97 161.5 139t217.5 42zM217 -268h-143v215h454v-66q0 -185 -110.5 -272.5t-343.5 -87.5v145q134 0 143 66z" />
    <glyph glyph-name="Rcaron" unicode="&#x158;" horiz-adv-x="1710" 
d="M866 451h-319v-451h-465v1470h967q290 0 452 -137q166 -135 166 -372q0 -159 -81.5 -277.5t-233.5 -179.5l346 -504h-537zM547 1085v-274h477q86 0 135 36t49 99q0 66 -48 102.5t-136 36.5h-477zM1323 1890l-283 -346h-446l-283 346h326l180 -108l180 108h326z" />
    <glyph glyph-name="rcaron" unicode="&#x159;" horiz-adv-x="1046" 
d="M907 1092q69 0 117 -7v-430q-76 9 -137 9q-359 0 -359 -285v-379h-454v1085h454v-174q73 97 161.5 139t217.5 42zM1012 1470l-273 -325h-417l-273 325h326l155 -92l156 92h326z" />
    <glyph glyph-name="Sacute" unicode="&#x15a;" horiz-adv-x="1654" 
d="M821 -25q-244 0 -502 60q-252 62 -364 155l256 361q117 -91 288 -142t353 -51q278 0 278 84q0 41 -59 62q-56 20 -395 55q-322 35 -471.5 139t-149.5 289q0 238 203 373q206 135 561 135q240 0 449 -57q215 -56 350 -150l-258 -336q-100 75 -258.5 120.5t-323.5 45.5
q-246 0 -246 -82q0 -35 60 -53q64 -19 379 -53q351 -36 509 -143t158 -298q0 -247 -212.5 -380.5t-604.5 -133.5zM1012 1542h-389l190 346h588z" />
    <glyph glyph-name="sacute" unicode="&#x15b;" horiz-adv-x="1286" 
d="M584 -25q-159 0 -328 35q-170 38 -264 94l127 312q118 -61 258.5 -95t271.5 -34q166 0 166 41q0 14 -27 20q-27 9 -135 21q-130 12 -174 18q-241 30 -342.5 107t-101.5 217q0 189 164.5 294t459.5 105q352 0 588 -129l-188 -268q-187 94 -426 94q-135 0 -135 -39
q0 -18 25.5 -26t109.5 -15l149 -16q265 -30 380.5 -110t115.5 -224q0 -195 -178 -298.5t-516 -103.5zM850 1145h-368l170 325h547z" />
    <glyph glyph-name="Scircumflex" unicode="&#x15c;" horiz-adv-x="1654" 
d="M821 -25q-244 0 -502 60q-252 62 -364 155l256 361q117 -91 288 -142t353 -51q278 0 278 84q0 41 -59 62q-56 20 -395 55q-322 35 -471.5 139t-149.5 289q0 238 203 373q206 135 561 135q240 0 449 -57q215 -56 350 -150l-258 -336q-100 75 -258.5 120.5t-323.5 45.5
q-246 0 -246 -82q0 -35 60 -53q64 -19 379 -53q351 -36 509 -143t158 -298q0 -247 -212.5 -380.5t-604.5 -133.5zM575 1888h447l283 -346h-326l-180 109l-181 -109h-325z" />
    <glyph glyph-name="scircumflex" unicode="&#x15d;" horiz-adv-x="1286" 
d="M584 -25q-159 0 -328 35q-170 38 -264 94l127 312q118 -61 258.5 -95t271.5 -34q166 0 166 41q0 14 -27 20q-27 9 -135 21q-130 12 -174 18q-241 30 -342.5 107t-101.5 217q0 189 164.5 294t459.5 105q352 0 588 -129l-188 -268q-187 94 -426 94q-135 0 -135 -39
q0 -18 25.5 -26t109.5 -15l149 -16q265 -30 380.5 -110t115.5 -224q0 -195 -178 -298.5t-516 -103.5zM453 1470h417l273 -325h-326l-155 92l-156 -92h-326z" />
    <glyph glyph-name="Scedilla" unicode="&#x15e;" horiz-adv-x="1654" 
d="M-45 190l256 361q117 -91 288 -142t353 -51q278 0 278 84q0 41 -59 62q-56 20 -395 55q-322 35 -471.5 139t-149.5 289q0 238 203 373q206 135 561 135q240 0 449 -57q215 -56 350 -150l-258 -336q-100 75 -258.5 120.5t-323.5 45.5q-246 0 -246 -82q0 -35 60 -53
q64 -19 379 -53q351 -36 509 -143t158 -298q0 -245 -207 -377t-591 -137l-4 -14q136 -5 208 -45t72 -113q0 -79 -90 -127.5t-233 -48.5q-199 0 -306 74l99 156q74 -47 172 -47q69 0 69 30q0 23 -51 34t-143 7l31 101q-229 18 -420 73q-195 59 -289 135z" />
    <glyph glyph-name="scedilla" unicode="&#x15f;" horiz-adv-x="1286" 
d="M-8 104l127 312q118 -61 258.5 -95t271.5 -34q166 0 166 41q0 14 -27 20q-27 9 -135 21q-130 12 -174 18q-241 30 -342.5 107t-101.5 217q0 189 164.5 294t459.5 105q352 0 588 -129l-188 -268q-187 94 -426 94q-135 0 -135 -39q0 -18 25.5 -26t109.5 -15l149 -16
q265 -30 380.5 -110t115.5 -224q0 -184 -157.5 -286.5t-456.5 -113.5l-5 -16q136 -5 208.5 -45t72.5 -113q0 -79 -90.5 -127.5t-233.5 -48.5q-198 0 -305 74l99 156q74 -47 172 -47q69 0 69 30q0 23 -51 34t-143 7l30 99q-144 11 -277.5 44t-217.5 80z" />
    <glyph glyph-name="Scaron" unicode="&#x160;" horiz-adv-x="1654" 
d="M821 -25q-244 0 -502 60q-252 62 -364 155l256 361q117 -91 288 -142t353 -51q278 0 278 84q0 41 -59 62q-56 20 -395 55q-322 35 -471.5 139t-149.5 289q0 238 203 373q206 135 561 135q240 0 449 -57q215 -56 350 -150l-258 -336q-100 75 -258.5 120.5t-323.5 45.5
q-246 0 -246 -82q0 -35 60 -53q64 -19 379 -53q351 -36 509 -143t158 -298q0 -247 -212.5 -380.5t-604.5 -133.5zM1325 1890l-283 -346h-446l-283 346h326l180 -108l180 108h326z" />
    <glyph glyph-name="scaron" unicode="&#x161;" horiz-adv-x="1286" 
d="M584 -25q-159 0 -328 35q-170 38 -264 94l127 312q118 -61 258.5 -95t271.5 -34q166 0 166 41q0 14 -27 20q-27 9 -135 21q-130 12 -174 18q-241 30 -342.5 107t-101.5 217q0 189 164.5 294t459.5 105q352 0 588 -129l-188 -268q-187 94 -426 94q-135 0 -135 -39
q0 -18 25.5 -26t109.5 -15l149 -16q265 -30 380.5 -110t115.5 -224q0 -195 -178 -298.5t-516 -103.5zM1137 1470l-273 -325h-417l-273 325h326l155 -92l156 92h326z" />
    <glyph glyph-name="Tcommaaccent" unicode="&#x162;" horiz-adv-x="1726" 
d="M1204 -197q0 -79 -90 -127.5t-233 -48.5q-199 0 -306 74l99 156q74 -47 172 -47q69 0 69 30q0 23 -51 34t-143 7l37 119h-127v1081h-598v389h1661v-389h-598v-1081h-162l-10 -39q136 -5 208 -45t72 -113z" />
    <glyph glyph-name="tcommaaccent" unicode="&#x163;" horiz-adv-x="1110" 
d="M205 324v397h-205v364h205v273h448v-273h406v-364h-406v-248q0 -121 146 -121q126 0 231 43l86 -340q-202 -80 -467 -80l-4 -14q136 -5 208.5 -45t72.5 -113q0 -79 -90.5 -127.5t-233.5 -48.5q-198 0 -305 74l98 156q74 -47 172 -47q32 0 51 8t19 22q0 23 -51.5 34
t-143.5 7l35 113q-130 32 -201 118.5t-71 211.5z" />
    <glyph glyph-name="Tcaron" unicode="&#x164;" horiz-adv-x="1726" 
d="M1694 1470v-389h-598v-1081h-465v1081h-598v389h1661zM1368 1890l-283 -346h-446l-283 346h326l180 -108l180 108h326z" />
    <glyph glyph-name="tcaron" unicode="&#x165;" horiz-adv-x="1110" 
d="M649 -25q-209 0 -326.5 92.5t-117.5 256.5v397h-205v364h205v273h448v-273h406v-364h-406v-248q0 -121 146 -121q126 0 231 43l86 -340q-202 -80 -467 -80zM1020 1151h-305l37 360h458z" />
    <glyph glyph-name="Tbar" unicode="&#x166;" horiz-adv-x="1726" 
d="M1444 895v-389h-348v-506h-465v506h-348v389h348v186h-598v389h1661v-389h-598v-186h348z" />
    <glyph glyph-name="tbar" unicode="&#x167;" horiz-adv-x="1110" 
d="M649 -25q-209 0 -326.5 92.5t-117.5 256.5v94h-205v303h205v61h-205v303h205v273h448v-273h406v-303h-406v-61h406v-303h-402q20 -86 148 -86q111 0 231 45l80 -322q-202 -80 -467 -80z" />
    <glyph glyph-name="Utilde" unicode="&#x168;" horiz-adv-x="1716" 
d="M858 -25q-375 0 -586 172t-211 482v841h465v-788q0 -148 85.5 -225.5t246.5 -77.5t246.5 77.5t85.5 225.5v788h465v-841q0 -310 -211 -482t-586 -172zM670 1950q84 0 200 -54q72 -34 119 -34q36 0 55 20.5t25 67.5h293q0 -189 -81 -298.5t-220 -109.5q-83 0 -201 53
q-77 35 -119 35q-36 0 -54.5 -20.5t-24.5 -67.5h-293q0 185 82.5 296.5t218.5 111.5z" />
    <glyph glyph-name="utilde" unicode="&#x169;" horiz-adv-x="1447" 
d="M920 1085h454v-1085h-454v115q-143 -140 -383 -140q-206 0 -338 123q-129 126 -129 330v657h454v-522q0 -109 45 -160t142 -51q103 0 156 53.5t53 157.5v522zM543 1497q86 0 191 -45q73 -31 112 -31q60 0 72 76h262q0 -162 -73 -257t-197 -95q-86 0 -191 45
q-73 31 -112 31q-60 0 -72 -76h-262q0 160 73.5 256t196.5 96z" />
    <glyph glyph-name="Umacron" unicode="&#x16a;" horiz-adv-x="1716" 
d="M858 -25q-375 0 -586 172t-211 482v841h465v-788q0 -148 85.5 -225.5t246.5 -77.5t246.5 77.5t85.5 225.5v788h465v-841q0 -310 -211 -482t-586 -172zM1296 1858v-316h-864v316h864z" />
    <glyph glyph-name="umacron" unicode="&#x16b;" horiz-adv-x="1447" 
d="M920 1085h454v-1085h-454v115q-143 -140 -383 -140q-206 0 -338 123q-129 126 -129 330v657h454v-522q0 -109 45 -160t142 -51q103 0 156 53.5t53 157.5v522zM1116 1470v-315h-782v315h782z" />
    <glyph glyph-name="Ubreve" unicode="&#x16c;" horiz-adv-x="1716" 
d="M858 -25q-375 0 -586 172t-211 482v841h465v-788q0 -148 85.5 -225.5t246.5 -77.5t246.5 77.5t85.5 225.5v788h465v-841q0 -310 -211 -482t-586 -172zM864 1815q57 0 95 20.5t38 52.5h316q0 -165 -121.5 -263.5t-327.5 -98.5t-327 98.5t-121 263.5h315q0 -32 38 -52.5
t95 -20.5z" />
    <glyph glyph-name="ubreve" unicode="&#x16d;" horiz-adv-x="1447" 
d="M920 1085h454v-1085h-454v115q-143 -140 -383 -140q-206 0 -338 123q-129 126 -129 330v657h454v-522q0 -109 45 -160t142 -51q103 0 156 53.5t53 157.5v522zM725 1403q112 0 123 67h307q-6 -167 -111 -246.5t-319 -78.5q-216 2 -320 80t-110 245h308q11 -67 122 -67z
" />
    <glyph glyph-name="Uring" unicode="&#x16e;" horiz-adv-x="1716" 
d="M858 -25q-375 0 -586 172t-211 482v841h465v-788q0 -148 85.5 -225.5t246.5 -77.5t246.5 77.5t85.5 225.5v788h465v-841q0 -310 -211 -482t-586 -172zM864 1473q-141 0 -235 88t-94 217q0 127 94 215q96 90 235 90q140 0 236 -90q94 -88 94 -215q0 -129 -94 -217
t-236 -88zM864 1876q-42 0 -68 -27.5t-26 -70.5t26 -71t68 -28t68 28t26 71t-26 70.5t-68 27.5z" />
    <glyph glyph-name="uring" unicode="&#x16f;" horiz-adv-x="1447" 
d="M920 1085h454v-1085h-454v115q-143 -140 -383 -140q-206 0 -338 123q-129 126 -129 330v657h454v-522q0 -109 45 -160t142 -51q103 0 156 53.5t53 157.5v522zM725 1145q-110 0 -183 68t-73 171q0 101 73.5 170.5t182.5 69.5q112 0 184 -68.5t72 -171.5t-72 -171t-184 -68
zM725 1452q-26 0 -44.5 -19.5t-18.5 -48.5q0 -30 17 -48.5t46 -18.5t47.5 19t18.5 48t-18.5 48.5t-47.5 19.5z" />
    <glyph glyph-name="Uhungarumlaut" unicode="&#x170;" horiz-adv-x="1716" 
d="M858 -25q-375 0 -586 172t-211 482v841h465v-788q0 -148 85.5 -225.5t246.5 -77.5t246.5 77.5t85.5 225.5v788h465v-841q0 -310 -211 -482t-586 -172zM1282 1542h-348l184 346h465zM745 1542h-346l185 346h463z" />
    <glyph glyph-name="uhungarumlaut" unicode="&#x171;" horiz-adv-x="1447" 
d="M920 1085h454v-1085h-454v115q-143 -140 -383 -140q-206 0 -338 123q-129 126 -129 330v657h454v-522q0 -109 45 -160t142 -51q103 0 156 53.5t53 157.5v522zM1135 1145h-349l179 325h460zM629 1145h-348l178 325h461z" />
    <glyph glyph-name="Uogonek" unicode="&#x172;" horiz-adv-x="1722" 
d="M1163 8q-179 -48 -196 -57q-23 -16 -23 -33q0 -20 28 -32.5t77 -12.5q43 0 114 12v-231q-92 -19 -182 -19q-147 0 -232 50.5t-85 140.5q0 95 73 156q-320 29 -494.5 197.5t-174.5 449.5v841h464v-788q0 -148 85.5 -225.5t246.5 -77.5t246.5 77.5t85.5 225.5v788h465v-841
q0 -239 -129.5 -400t-368.5 -221z" />
    <glyph glyph-name="uogonek" unicode="&#x173;" horiz-adv-x="1447" 
d="M1067 -365q-147 0 -232 50.5t-85 140.5q0 136 170 207v82q-143 -140 -383 -140q-206 0 -338 123q-129 126 -129 330v657h454v-522q0 -109 45 -160t142 -51q103 0 156 53.5t53 157.5v522h454v-1085h-125q-140 -26 -182 -43q-37 -15 -37 -39q0 -20 28 -32.5t77 -12.5
q43 0 114 12v-231q-92 -19 -182 -19z" />
    <glyph glyph-name="Wcircumflex" unicode="&#x174;" horiz-adv-x="2408" 
d="M741 610l254 860h432l254 -860l281 860h467l-481 -1470h-486l-258 860l-260 -860h-483l-481 1470h481zM1001 1888h447l283 -346h-326l-180 109l-181 -109h-325z" />
    <glyph glyph-name="wcircumflex" unicode="&#x175;" horiz-adv-x="2095" 
d="M668 528l182 557h420l178 -557l197 557h471l-435 -1085h-438l-194 578l-197 -578h-436l-436 1085h493zM838 1470h417l273 -325h-326l-155 92l-156 -92h-326z" />
    <glyph glyph-name="Ycircumflex" unicode="&#x176;" horiz-adv-x="1849" 
d="M526 1470l410 -514l407 514h527l-713 -905v-565h-465v565l-712 905h546zM700 1888h447l283 -346h-326l-180 109l-181 -109h-325z" />
    <glyph glyph-name="ycircumflex" unicode="&#x177;" horiz-adv-x="1478" 
d="M1499 1085l-504 -1060q-108 -232 -237 -314q-131 -84 -352 -84q-167 0 -277 45l64 336q76 -39 149 -39q102 0 127 54l8 18l-497 1044h509l267 -620l270 620h473zM531 1470h417l273 -325h-326l-156 92l-155 -92h-326z" />
    <glyph glyph-name="Ydieresis" unicode="&#x178;" horiz-adv-x="1849" 
d="M526 1470l410 -514l407 514h527l-713 -905v-565h-465v565l-712 905h546zM877 1542h-431v346h431v-346zM1401 1542h-430v346h430v-346z" />
    <glyph glyph-name="Zacute" unicode="&#x179;" horiz-adv-x="1691" 
d="M745 389h885v-389h-1569v342l875 739h-866v389h1548v-340zM1012 1542h-389l190 346h588z" />
    <glyph glyph-name="zacute" unicode="&#x17a;" horiz-adv-x="1351" 
d="M748 365h546v-365h-1237v332l578 389h-572v364h1227v-331zM827 1145h-368l170 325h547z" />
    <glyph glyph-name="Zdotaccent" unicode="&#x17b;" horiz-adv-x="1691" 
d="M745 389h885v-389h-1569v342l875 739h-866v389h1548v-340zM1090 1542h-488v346h488v-346z" />
    <glyph glyph-name="zdotaccent" unicode="&#x17c;" horiz-adv-x="1351" 
d="M748 365h546v-365h-1237v332l578 389h-572v364h1227v-331zM903 1145h-454v325h454v-325z" />
    <glyph glyph-name="Zcaron" unicode="&#x17d;" horiz-adv-x="1691" 
d="M745 389h885v-389h-1569v342l875 739h-866v389h1548v-340zM1352 1890l-283 -346h-446l-283 346h326l180 -108l180 108h326z" />
    <glyph glyph-name="zcaron" unicode="&#x17e;" horiz-adv-x="1351" 
d="M748 365h546v-365h-1237v332l578 389h-572v364h1227v-331zM1157 1470l-273 -325h-417l-273 325h326l155 -92l156 92h326z" />
    <glyph glyph-name="florin" unicode="&#x192;" horiz-adv-x="1671" 
d="M1047 592l-27 -141q-43 -244 -189 -360t-409 -116q-267 0 -422 107l168 313q92 -53 197 -53q80 0 128 32t58 93l22 125h-262v305h318l22 123q43 244 189 359.5t409 115.5q269 0 422 -106l-168 -314q-92 53 -196 53q-80 0 -128.5 -31.5t-58.5 -92.5l-18 -107h325v-305
h-380z" />
    <glyph glyph-name="AEacute" unicode="&#x1fc;" horiz-adv-x="3002" 
d="M-20 0l1292 1470h1687v-389h-977v-151h861v-379h-861v-162h977v-389h-1433v248h-735l-216 -248h-595zM1526 1090l-424 -486h424v486zM2253 1542h-389l190 346h588z" />
    <glyph glyph-name="aeacute" unicode="&#x1fd;" horiz-adv-x="2252" 
d="M18 309q0 165 126 254.5t358 89.5h375v29q0 47 -45 72.5t-130 25.5q-161 0 -200 -92l-436 60q54 170 228.5 266t430.5 96q271 0 420 -125q178 125 416 125q300 0 483 -160q180 -158 180 -413v-107h-899q26 -56 83 -85.5t136 -29.5q177 0 232 93l434 -105
q-64 -152 -242 -242q-177 -86 -405 -86q-322 0 -514 177q-86 -84 -222.5 -129.5t-302.5 -45.5q-235 0 -370.5 89t-135.5 243zM1550 784q-85 0 -144 -34t-85 -97h453q-20 61 -80.5 96t-143.5 35zM459 360q0 -37 41 -59t114 -22q113 0 188 38.5t75 98.5v14h-293
q-66 0 -95.5 -16.5t-29.5 -53.5zM1343 1145h-368l170 325h547z" />
    <glyph glyph-name="Oslashacute" unicode="&#x1fe;" horiz-adv-x="1841" 
d="M268 -63l-231 223l141 135q-149 187 -149 440q0 333 250 545q253 215 641 215q282 0 499 -117l152 146l231 -224l-135 -129q145 -189 145 -434q0 -333 -251 -547q-253 -212 -641 -215q-275 0 -490 113zM920 1116q-205 0 -319 -99.5t-114 -281.5q0 -90 33 -160l565 519
q-86 22 -165 22zM920 354q208 2 320 100t112 281q0 84 -31 158l-563 -516q84 -23 162 -23zM1083 1542h-389l191 346h588z" />
    <glyph glyph-name="oslashacute" unicode="&#x1ff;" horiz-adv-x="1433" 
d="M27 543q0 253 190 409q196 158 500 158q203 0 352 -70l141 131l187 -192l-107 -98q117 -142 117 -338q0 -256 -193 -412q-190 -156 -497 -156q-201 0 -359 70l-135 -125l-186 193l104 96q-114 138 -114 334zM717 784q-118 0 -191 -66t-73 -175q0 -36 10 -78l330 311
q-31 8 -76 8zM717 303q118 0 191 66t73 174q0 36 -10 78l-332 -310q31 -8 78 -8zM901 1145h-368l170 325h547z" />
    <glyph glyph-name="Scommaaccent" unicode="&#x218;" horiz-adv-x="1654" 
d="M821 -25q-244 0 -502 60q-252 62 -364 155l256 361q117 -91 288 -142t353 -51q278 0 278 84q0 41 -59 62q-56 20 -395 55q-322 35 -471.5 139t-149.5 289q0 238 203 373q206 135 561 135q240 0 449 -57q215 -56 350 -150l-258 -336q-100 75 -258.5 120.5t-323.5 45.5
q-246 0 -246 -82q0 -35 60 -53q64 -19 379 -53q351 -36 509 -143t158 -298q0 -247 -212.5 -380.5t-604.5 -133.5zM690 -268h-143v215h454v-66q0 -185 -110.5 -272.5t-343.5 -87.5v145q134 0 143 66z" />
    <glyph glyph-name="scommaaccent" unicode="&#x219;" horiz-adv-x="1286" 
d="M584 -25q-159 0 -328 35q-170 38 -264 94l127 312q118 -61 258.5 -95t271.5 -34q166 0 166 41q0 14 -27 20q-27 9 -135 21q-130 12 -174 18q-241 30 -342.5 107t-101.5 217q0 189 164.5 294t459.5 105q352 0 588 -129l-188 -268q-187 94 -426 94q-135 0 -135 -39
q0 -18 25.5 -26t109.5 -15l149 -16q265 -30 380.5 -110t115.5 -224q0 -195 -178 -298.5t-516 -103.5zM528 -268h-143v215h455v-66q0 -185 -111 -272.5t-344 -87.5v145q134 0 143 66z" />
    <glyph glyph-name="uni021A" unicode="&#x21a;" horiz-adv-x="1726" 
d="M1694 1470v-389h-598v-1081h-465v1081h-598v389h1661zM780 -268h-143v215h455v-66q0 -185 -111 -272.5t-344 -87.5v145q134 0 143 66z" />
    <glyph glyph-name="uni021B" unicode="&#x21b;" horiz-adv-x="1110" 
d="M649 -25q-209 0 -326.5 92.5t-117.5 256.5v397h-205v364h205v273h448v-273h406v-364h-406v-248q0 -121 146 -121q126 0 231 43l86 -340q-202 -80 -467 -80zM555 -268h-143v215h454v-66q0 -185 -110.5 -272.5t-343.5 -87.5v145q134 0 143 66z" />
    <glyph glyph-name="uni0237" unicode="&#x237;" horiz-adv-x="602" 
d="M-68 -51q78 0 110 29t32 98v1009h454v-1030q0 -428 -540 -428q-73 0 -152 11t-123 28l62 305q90 -22 157 -22z" />
    <glyph glyph-name="circumflex" unicode="&#x2c6;" horiz-adv-x="1228" 
d="M406 1470h417l273 -325h-326l-156 92l-155 -92h-326z" />
    <glyph glyph-name="caron" unicode="&#x2c7;" horiz-adv-x="1228" 
d="M1096 1470l-273 -325h-417l-273 325h326l155 -92l156 92h326z" />
    <glyph glyph-name="breve" unicode="&#x2d8;" horiz-adv-x="1228" 
d="M614 1403q112 0 123 67h307q-6 -167 -111 -246.5t-319 -78.5q-216 2 -320 80t-110 245h308q11 -67 122 -67z" />
    <glyph glyph-name="dotaccent" unicode="&#x2d9;" horiz-adv-x="1228" 
d="M842 1145h-455v325h455v-325z" />
    <glyph glyph-name="ring" unicode="&#x2da;" horiz-adv-x="1228" 
d="M614 1145q-110 0 -183 68t-73 171q0 101 73.5 170.5t182.5 69.5q112 0 184 -68.5t72 -171.5t-72 -171t-184 -68zM614 1452q-26 0 -44.5 -19.5t-18.5 -48.5q0 -30 17 -48.5t46 -18.5t47.5 19t18.5 48t-18.5 48.5t-47.5 19.5z" />
    <glyph glyph-name="ogonek" unicode="&#x2db;" horiz-adv-x="1228" 
d="M614 -365q-147 0 -232 50.5t-85 140.5q0 105 94.5 167.5t325.5 106.5l80 -100q-142 -27 -183 -43q-36 -14 -36 -39q0 -21 27.5 -33t76.5 -12q44 0 115 12v-231q-92 -19 -183 -19z" />
    <glyph glyph-name="tilde" unicode="&#x2dc;" horiz-adv-x="1228" 
d="M430 1497q86 0 191 -45q73 -31 112 -31q60 0 72 76h262q0 -162 -73 -257t-197 -95q-86 0 -191 45q-73 31 -112 31q-60 0 -72 -76h-262q0 160 73.5 256t196.5 96z" />
    <glyph glyph-name="hungarumlaut" unicode="&#x2dd;" horiz-adv-x="1228" 
d="M907 1145h-348l178 325h461zM401 1145h-348l178 325h461z" />
    <glyph glyph-name="gravecmb" unicode="&#x300;" horiz-adv-x="0" 
d="M188 1470l170 -325h-368l-348 325h546z" />
    <glyph glyph-name="acutecmb" unicode="&#x301;" horiz-adv-x="0" 
d="M10 1145h-368l170 325h546z" />
    <glyph glyph-name="circumflexcmb" unicode="&#x302;" horiz-adv-x="0" 
d="M-209 1470h418l272 -325h-325l-156 92l-156 -92h-325z" />
    <glyph glyph-name="tildecmb" unicode="&#x303;" horiz-adv-x="0" 
d="M-182 1497q85 0 190 -45q73 -31 113 -31q60 0 72 76h262q0 -161 -73.5 -256.5t-197.5 -95.5q-85 0 -190 45q-73 31 -113 31q-59 0 -71 -76h-263q0 160 74 256t197 96z" />
    <glyph glyph-name="macroncmb" unicode="&#x304;" horiz-adv-x="0" 
d="M391 1470v-315h-782v315h782z" />
    <glyph glyph-name="brevecmb" unicode="&#x306;" horiz-adv-x="0" 
d="M0 1403q112 0 123 67h307q-6 -167 -111 -246.5t-319 -78.5q-216 2 -320 80t-110 245h307q11 -67 123 -67z" />
    <glyph glyph-name="dotaccentcmb" unicode="&#x307;" horiz-adv-x="0" 
d="M227 1145h-454v325h454v-325z" />
    <glyph glyph-name="dieresiscmb" unicode="&#x308;" horiz-adv-x="0" 
d="M-35 1145h-430v325h430v-325zM465 1145h-430v325h430v-325z" />
    <glyph glyph-name="ringcmb" unicode="&#x30a;" horiz-adv-x="0" 
d="M0 1145q-110 0 -183 68t-73 171q0 101 73.5 170.5t182.5 69.5q112 0 184 -68.5t72 -171.5t-72 -171t-184 -68zM0 1452q-26 0 -44.5 -19.5t-18.5 -48.5q0 -30 17 -48.5t46 -18.5t47.5 19t18.5 48t-18.5 48.5t-47.5 19.5z" />
    <glyph glyph-name="hungarumlautcmb" unicode="&#x30b;" horiz-adv-x="0" 
d="M283 1145h-349l179 325h460zM-223 1145h-348l178 325h461z" />
    <glyph glyph-name="caroncmb" unicode="&#x30c;" horiz-adv-x="0" 
d="M481 1470l-272 -325h-418l-272 325h325l156 -92l156 92h325z" />
    <glyph glyph-name="commaturncmb" unicode="&#x312;" horiz-adv-x="0" 
d="M84 1360h143v-215h-454v65q0 185 110.5 273t343.5 88v-146q-134 0 -143 -65z" />
    <glyph glyph-name="commaaccentcmb" unicode="&#x326;" horiz-adv-x="0" 
d="M-84 -268h-143v215h454v-66q0 -185 -110.5 -272.5t-343.5 -87.5v145q134 0 143 66z" />
    <glyph glyph-name="cedillacmb" unicode="&#x327;" horiz-adv-x="0" 
d="M315 -197q0 -79 -90 -127.5t-233 -48.5q-198 0 -305 74l98 156q74 -47 172 -47q32 0 51 8t19 22q0 23 -51.5 34t-143.5 7l45 144h174l-16 -64q136 -5 208 -45t72 -113z" />
    <glyph glyph-name="ogonekcmb" unicode="&#x328;" horiz-adv-x="0" 
d="M68 -365q-147 0 -232.5 50.5t-85.5 140.5q0 105 94.5 167.5t325.5 106.5l80 -100q-140 -26 -182 -43q-37 -15 -37 -39q0 -21 27.5 -33t76.5 -12q45 0 115 12v-231q-92 -19 -182 -19z" />
    <glyph glyph-name="baht" unicode="&#xe3f;" horiz-adv-x="1689" 
d="M682 0h-600v1470h600v193h379v-193h69q252 0 385.5 -103.5t133.5 -299.5q0 -96 -54 -180.5t-139 -126.5q109 -50 170.5 -139t61.5 -201q0 -201 -136.5 -310.5t-386.5 -109.5h-104v-197h-379v197zM471 1118v-219h211v219h-211zM1268 1004q0 114 -133 114h-74v-219h74
q133 0 133 105zM682 584h-211v-230h211v230zM1296 475q0 51 -34 80t-95 29h-106v-230h106q61 0 95 32.5t34 88.5z" />
    <glyph glyph-name="Wgrave" unicode="&#x1e80;" horiz-adv-x="2408" 
d="M741 610l254 860h432l254 -860l281 860h467l-481 -1470h-486l-258 860l-260 -860h-483l-481 1470h481zM1214 1888l191 -346h-389l-389 346h587z" />
    <glyph glyph-name="wgrave" unicode="&#x1e81;" horiz-adv-x="2095" 
d="M668 528l182 557h420l178 -557l197 557h471l-435 -1085h-438l-194 578l-197 -578h-436l-436 1085h493zM1092 1470l170 -325h-369l-348 325h547z" />
    <glyph glyph-name="Wacute" unicode="&#x1e82;" horiz-adv-x="2408" 
d="M741 610l254 860h432l254 -860l281 860h467l-481 -1470h-486l-258 860l-260 -860h-483l-481 1470h481zM1395 1542h-389l190 346h588z" />
    <glyph glyph-name="wacute" unicode="&#x1e83;" horiz-adv-x="2095" 
d="M668 528l182 557h420l178 -557l197 557h471l-435 -1085h-438l-194 578l-197 -578h-436l-436 1085h493zM1216 1145h-368l170 325h547z" />
    <glyph glyph-name="Wdieresis" unicode="&#x1e84;" horiz-adv-x="2408" 
d="M741 610l254 860h432l254 -860l281 860h467l-481 -1470h-486l-258 860l-260 -860h-483l-481 1470h481zM1157 1542h-430v346h430v-346zM1681 1542h-430v346h430v-346z" />
    <glyph glyph-name="wdieresis" unicode="&#x1e85;" horiz-adv-x="2095" 
d="M668 528l182 557h420l178 -557l197 557h471l-435 -1085h-438l-194 578l-197 -578h-436l-436 1085h493zM1012 1145h-430v325h430v-325zM1511 1145h-430v325h430v-325z" />
    <glyph glyph-name="Germandbls" unicode="&#x1e9e;" horiz-adv-x="1857" 
d="M1851 477q0 -226 -188 -364q-187 -138 -487 -138q-313 0 -535 150l184 360q78 -57 175 -92t178 -35q91 0 144.5 33t53.5 88q0 56 -57.5 86.5t-165.5 30.5h-295v305l256 195h-567v-1096h-465v1470h1595v-356l-301 -225q235 -25 355 -129t120 -283z" />
    <glyph glyph-name="Ygrave" unicode="&#x1ef2;" horiz-adv-x="1849" 
d="M526 1470l410 -514l407 514h527l-713 -905v-565h-465v565l-712 905h546zM956 1888l191 -346h-389l-389 346h587z" />
    <glyph glyph-name="ygrave" unicode="&#x1ef3;" horiz-adv-x="1478" 
d="M1499 1085l-504 -1060q-108 -232 -237 -314q-131 -84 -352 -84q-167 0 -277 45l64 336q76 -39 149 -39q102 0 127 54l8 18l-497 1044h509l267 -620l270 620h473zM776 1470l170 -325h-368l-349 325h547z" />
    <glyph glyph-name="thinspace" unicode="&#x2009;" horiz-adv-x="204" 
 />
    <glyph glyph-name="endash" unicode="&#x2013;" horiz-adv-x="1110" 
d="M1028 418h-946v375h946v-375z" />
    <glyph glyph-name="emdash" unicode="&#x2014;" horiz-adv-x="1998" 
d="M1917 418h-1835v375h1835v-375z" />
    <glyph glyph-name="quoteleft" unicode="&#x2018;" horiz-adv-x="614" 
d="M393 1139h164v-430h-500v385q0 179 132 277.5t368 98.5v-215q-164 -3 -164 -110v-6z" />
    <glyph glyph-name="quoteright" unicode="&#x2019;" horiz-adv-x="614" 
d="M221 1040h-164v430h500v-385q0 -179 -132 -277.5t-368 -98.5v215q164 3 164 110v6z" />
    <glyph glyph-name="quotesinglbase" unicode="&#x201a;" horiz-adv-x="614" 
d="M221 25h-164v430h500v-385q0 -179 -132 -278t-368 -99v215q164 3 164 110v7z" />
    <glyph glyph-name="quotedblleft" unicode="&#x201c;" horiz-adv-x="1196" 
d="M393 1139h164v-430h-500v385q0 179 132 277.5t368 98.5v-215q-164 -3 -164 -110v-6zM975 1139h164v-430h-500v385q0 179 132 277.5t368 98.5v-215q-164 -3 -164 -110v-6z" />
    <glyph glyph-name="quotedblright" unicode="&#x201d;" horiz-adv-x="1196" 
d="M221 1040h-164v430h500v-385q0 -179 -132 -277.5t-368 -98.5v215q164 3 164 110v6zM803 1040h-164v430h500v-385q0 -179 -132 -277.5t-368 -98.5v215q164 3 164 110v6z" />
    <glyph glyph-name="quotedblbase" unicode="&#x201e;" horiz-adv-x="1196" 
d="M803 25h-164v430h500v-385q0 -179 -132 -278t-368 -99v215q164 3 164 110v7zM221 25h-164v430h500v-385q0 -179 -132 -278t-368 -99v215q164 3 164 110v7z" />
    <glyph glyph-name="dagger" unicode="&#x2020;" horiz-adv-x="933" 
d="M625 549h-316v407h-289v304h289v251h316v-251h288v-304h-288v-407z" />
    <glyph glyph-name="daggerdbl" unicode="&#x2021;" horiz-adv-x="901" 
d="M623 549h-344v147h-252v277h252v114h-252v277h252v147h344v-147h251v-277h-251v-114h251v-277h-251v-147z" />
    <glyph glyph-name="bullet" unicode="&#x2022;" horiz-adv-x="954" 
d="M47 604q0 189 123 309q123 123 309 123q183 0 303 -123q123 -120 123 -309q0 -183 -123 -303q-124 -121 -303 -121q-182 0 -309 121q-123 120 -123 303z" />
    <glyph glyph-name="ellipsis" unicode="&#x2026;" horiz-adv-x="1843" 
d="M557 0h-500v473h500v-473zM1171 0h-499v473h499v-473zM1786 0h-500v473h500v-473z" />
    <glyph glyph-name="guilsinglleft" unicode="&#x2039;" horiz-adv-x="784" 
d="M723 35l-662 321v353l662 321v-399l-221 -99l221 -98v-399z" />
    <glyph glyph-name="guilsinglright" unicode="&#x203a;" horiz-adv-x="784" 
d="M723 709v-353l-662 -321v399l222 98l-222 99v399z" />
    <glyph glyph-name="fraction" unicode="&#x2044;" horiz-adv-x="382" 
d="M-553 0l1137 1470h352l-1135 -1470h-354z" />
    <glyph glyph-name="uni2070" unicode="&#x2070;" horiz-adv-x="1040" 
d="M520 641q-213 0 -348 117q-133 121 -133 305q0 185 133 303q134 119 348 119q215 0 346 -119q135 -117 135 -303q0 -185 -135 -305q-132 -117 -346 -117zM520 1241q-68 0 -109.5 -48.5t-41.5 -129.5t41.5 -129.5t109.5 -48.5q66 0 109 49.5t43 128.5t-43 128.5t-109 49.5
z" />
    <glyph glyph-name="uni2074" unicode="&#x2074;" horiz-adv-x="991" 
d="M815 795v-140h-309v140h-475v200l383 475h401v-456h146v-219h-146zM506 1239l-160 -225h160v225z" />
    <glyph glyph-name="uni2075" unicode="&#x2075;" horiz-adv-x="917" 
d="M463 1006q-66 0 -125 -35l-301 26l65 473h752v-223h-500l-8 -84q87 37 199 37q166 0 259 -70t93 -194q0 -130 -123 -213q-119 -82 -311 -82q-156 0 -281 57t-186 156l280 98q61 -80 189 -80q51 0 82 18.5t31 49.5t-30.5 48.5t-84.5 17.5z" />
    <glyph glyph-name="uni2076" unicode="&#x2076;" horiz-adv-x="1013" 
d="M569 1485q239 0 392 -121l-154 -168q-116 64 -232 64q-90 0 -151.5 -34.5t-61.5 -78.5q109 47 234 47q164 0 276 -74q111 -73 111 -184q0 -136 -126 -215.5t-343 -79.5q-211 0 -340 111t-129 290q0 201 143 320q144 123 381 123zM514 860q63 0 101 19t38 51t-37.5 50.5
t-103.5 18.5t-102.5 -18.5t-36.5 -50.5t39 -51t102 -19z" />
    <glyph glyph-name="uni2077" unicode="&#x2077;" horiz-adv-x="993" 
d="M598 1237h-297v-143h-270v376h932v-253q-297 -204 -297 -562h-338q0 173 69.5 322t200.5 260z" />
    <glyph glyph-name="uni2078" unicode="&#x2078;" horiz-adv-x="995" 
d="M55 1227q0 115 127 186q129 72 316 72q188 0 317 -72q127 -71 127 -186q0 -100 -108 -158q69 -25 100 -67t31 -111q0 -116 -127 -183t-340 -67q-212 0 -339.5 67.5t-127.5 182.5q0 70 31 111.5t102 66.5q-109 59 -109 158zM381 1227q0 -25 31 -39t86 -14t86.5 14t31.5 39
q0 26 -31 40.5t-87 14.5t-86.5 -14.5t-30.5 -40.5zM639 911q0 58 -141 58q-140 0 -140 -58q0 -26 37 -41.5t103 -15.5t103.5 15.5t37.5 41.5z" />
    <glyph glyph-name="uni2079" unicode="&#x2079;" horiz-adv-x="1013" 
d="M444 641q-240 0 -391 119l154 170q116 -64 231 -64q90 0 151.5 33.5t61.5 77.5q-109 -47 -233 -47q-165 0 -277 74q-110 73 -110 184q0 137 126.5 217t342.5 80q211 0 340 -111t129 -293q0 -194 -146 -319q-145 -121 -379 -121zM500 1264q-63 0 -101.5 -19t-38.5 -51
t38 -51t104 -19t102.5 19t36.5 51t-39 51t-102 19zM670 997l-2 -4z" />
    <glyph glyph-name="uni2080" unicode="&#x2080;" horiz-adv-x="1040" 
d="M520 -260q-213 0 -348 117q-133 121 -133 305q0 185 133 303q134 119 348 119q215 0 346 -119q135 -117 135 -303q0 -185 -135 -305q-132 -117 -346 -117zM520 340q-68 0 -109.5 -48.5t-41.5 -129.5t41.5 -129.5t109.5 -48.5q66 0 109 49.5t43 128.5t-43 128.5t-109 49.5
z" />
    <glyph glyph-name="uni2081" unicode="&#x2081;" horiz-adv-x="794" 
d="M272 -4v225h-219v215l53 2q113 5 167 33.5t73 95.5h248v-571h170v-242h-715v242h223z" />
    <glyph glyph-name="uni2082" unicode="&#x2082;" horiz-adv-x="952" 
d="M59 -246v191l306 180q136 80 159 106q27 27 27 56q0 26 -22.5 42.5t-59.5 16.5q-61 0 -104.5 -40.5t-49.5 -100.5l-282 51q14 147 139 237.5t320 90.5q179 0 286 -72t107 -195q0 -92 -57 -156.5t-193 -125.5l-86 -39h360v-242h-850z" />
    <glyph glyph-name="uni2083" unicode="&#x2083;" horiz-adv-x="1030" 
d="M999 -8q0 -113 -129.5 -182.5t-343.5 -69.5q-185 0 -308.5 52t-217.5 169l254 129q41 -56 114.5 -88.5t157.5 -32.5q113 0 113 51q0 39 -115 39h-149v205h131q68 0 96.5 10t28.5 35q0 20 -29 32.5t-80 12.5q-75 0 -138 -26.5t-101 -73.5l-238 121q75 100 207.5 154.5
t302.5 54.5q197 0 316.5 -67.5t119.5 -176.5q0 -57 -36.5 -102.5t-102.5 -71.5q147 -59 147 -174z" />
    <glyph glyph-name="uni2084" unicode="&#x2084;" horiz-adv-x="991" 
d="M815 -106v-140h-309v140h-475v200l383 475h401v-456h146v-219h-146zM506 338l-160 -225h160v225z" />
    <glyph glyph-name="uni2085" unicode="&#x2085;" horiz-adv-x="917" 
d="M463 104q-67 0 -125 -34l-301 26l65 473h752v-223h-500l-8 -84q87 37 199 37q166 0 259 -70t93 -194q0 -130 -123 -213q-119 -82 -311 -82q-156 0 -281 57t-186 156l280 98q61 -80 189 -80q51 0 82 18.5t31 49.5t-30.5 48t-84.5 17z" />
    <glyph glyph-name="uni2086" unicode="&#x2086;" horiz-adv-x="1013" 
d="M569 584q239 0 392 -121l-154 -168q-114 63 -232 63q-90 0 -151.5 -34t-61.5 -78q109 47 234 47q164 0 276 -74q111 -73 111 -184q0 -136 -126 -215.5t-343 -79.5q-212 0 -340 110q-129 111 -129 291q0 201 143 320q144 123 381 123zM514 -41q63 0 101 19t38 51
t-37.5 50.5t-103.5 18.5t-102.5 -18.5t-36.5 -50.5t39 -51t102 -19z" />
    <glyph glyph-name="uni2087" unicode="&#x2087;" horiz-adv-x="993" 
d="M598 336h-297v-143h-270v376h932v-254q-297 -204 -297 -561h-338q0 173 69.5 322t200.5 260z" />
    <glyph glyph-name="uni2088" unicode="&#x2088;" horiz-adv-x="995" 
d="M55 326q0 115 127 186q129 72 316 72q188 0 317 -72q127 -71 127 -186q0 -100 -108 -158q69 -25 100 -67t31 -111q0 -116 -127 -183t-340 -67q-212 0 -339.5 67.5t-127.5 182.5q0 70 31 111.5t102 66.5q-109 59 -109 158zM381 326q0 -25 31 -39.5t86 -14.5t86.5 14.5
t31.5 39.5q0 26 -31 40.5t-87 14.5t-86.5 -14.5t-30.5 -40.5zM639 10q0 58 -141 58q-140 0 -140 -58q0 -26 37 -41.5t103 -15.5t103.5 15.5t37.5 41.5z" />
    <glyph glyph-name="uni2089" unicode="&#x2089;" horiz-adv-x="1013" 
d="M444 -260q-240 0 -391 119l154 170q116 -64 231 -64q90 0 151.5 33.5t61.5 77.5q-109 -47 -233 -47q-167 0 -277 73t-110 185q0 137 126.5 217t342.5 80q211 0 340 -111t129 -293q0 -194 -146 -319q-145 -121 -379 -121zM500 362q-64 0 -102 -18.5t-38 -50.5t38 -51
t104 -19t102.5 19t36.5 51t-38.5 50.5t-102.5 18.5zM670 96l-2 -4z" />
    <glyph glyph-name="franc" unicode="&#x20a3;" horiz-adv-x="1742" 
d="M276 160h-245v368h245v942h1434v-366h-977v-150h860v-368h-860v-58h441v-368h-441v-160h-457v160z" />
    <glyph glyph-name="naira" unicode="&#x20a6;" horiz-adv-x="2164" 
d="M276 449h-245v258h245v57h-245v258h245v448h461l697 -802v802h454v-448h246v-258h-246v-57h246v-258h-246v-449h-411l-746 858v-858h-455v449z" />
    <glyph glyph-name="peseta" unicode="&#x20a7;" horiz-adv-x="2117" 
d="M1141 258h-406v-258h-459v743h-245v244h245v483h865q295 0 474 -125t216 -358h256v-244h-254q-37 -233 -217 -359t-475 -126zM1116 1096h-381v-109h625q-62 109 -244 109zM735 743v-110h381q183 0 244 110h-625z" />
    <glyph glyph-name="won" unicode="&#x20a9;" horiz-adv-x="2220" 
d="M330 449h-299v258h235l-14 57h-221v258h157l-110 448h465l172 -817l221 817h360l222 -817l172 817h450l-110 -448h159v-258h-223l-14 -57h237v-258h-301l-110 -449h-461l-207 756l-209 -756h-461z" />
    <glyph glyph-name="dong" unicode="&#x20ab;" horiz-adv-x="1396" 
d="M838 154v84q-39 -45 -122 -73t-179 -28q-226 0 -363 125t-137 326q0 200 137 325q139 127 363 127q96 0 179.5 -28t121.5 -72v154h-260v299h260v77h397v-77h139v-299h-139v-940h-397zM829 586v6q0 63 -56 106t-136 43q-86 0 -137 -41t-51 -112t51 -112.5t137 -41.5
q80 0 136 43.5t56 108.5zM1233 -299h-1149v299h1149v-299z" />
    <glyph glyph-name="Euro" unicode="&#x20ac;" horiz-adv-x="1806" 
d="M233 471h-200v238h151v57h-151v238h200q89 226 306 358q219 133 495 133q285 0 486 -119q207 -121 276 -323l-383 -185q-41 118 -141 183t-240 65q-186 0 -307 -112h379l-55 -238h-433q-2 -8 -2 -31v-26h420l-55 -238h-258q117 -117 311 -117q140 0 240 65t141 183
l383 -184q-70 -204 -276 -324q-201 -119 -486 -119q-276 0 -497 134q-219 136 -304 362z" />
    <glyph glyph-name="peso" unicode="&#x20b1;" horiz-adv-x="2117" 
d="M276 573h-245v258h245v58h-245v258h245v323h926q227 0 380 -82.5t216 -240.5h289v-258h-246q0 -6 -0.5 -13.5t-1.5 -20t-2 -24.5h250v-258h-336q-160 -233 -549 -233h-467v-340h-459v573zM735 1096v-381h443q103 0 157 49t54 141t-54 141.5t-157 49.5h-443z" />
    <glyph glyph-name="uni20B9" unicode="&#x20b9;" horiz-adv-x="1687" 
d="M590 383h-549v322h707q112 0 174 59h-881v326h881q-65 59 -174 59h-707v321h1606v-321h-334q18 -18 43 -59h291v-326h-265q-62 -234 -303 -330l400 -434h-537z" />
    <glyph glyph-name="uni20BA" unicode="&#x20ba;" horiz-adv-x="1746" 
d="M276 264l-245 -123v305l245 123v58l-245 -123v305l245 123v538h465v-303l334 168v-305l-334 -168v-57l334 168v-305l-334 -168v-111h121q190 0 297 101t113 286h465q-9 -362 -230 -571q-217 -205 -600 -205h-631v264z" />
    <glyph glyph-name="uni20BD" unicode="&#x20bd;" horiz-adv-x="1863" 
d="M279 143h-246v344h246v58h-248l4 344h244v581h987q269 0 423 -123t154 -339t-154 -339.5t-423 -123.5h-523v-58h439v-344h-439v-143h-464v143zM1241 1126h-498v-237h498q66 0 104.5 32t38.5 87t-38.5 86.5t-104.5 31.5z" />
    <glyph glyph-name="trademark" unicode="&#x2122;" horiz-adv-x="2091" 
d="M590 1212v-481h-293v481h-256v258h805v-258h-256zM1739 1137l-187 -406h-155l-189 406v-406h-270v739h383l156 -319l153 319h379v-739h-270v406z" />
    <glyph glyph-name="uni2153" unicode="&#x2153;" horiz-adv-x="2269" 
d="M764 655h-715v242h223v225h-219v215l53 2q113 5 167 33.5t73 95.5h248v-571h170v-242zM303 0l1137 1470h352l-1135 -1470h-354zM2238 238q0 -113 -129.5 -182.5t-343.5 -69.5q-185 0 -308.5 52t-217.5 169l254 129q41 -56 114.5 -88.5t157.5 -32.5q113 0 113 51
q0 39 -115 39h-149v205h131q68 0 96.5 10t28.5 35q0 20 -29 32.5t-80 12.5q-75 0 -138 -26.5t-101 -73.5l-238 121q75 100 207.5 154t302.5 54q197 0 316.5 -67t119.5 -176q0 -57 -36.5 -102.5t-102.5 -71.5q147 -58 147 -174z" />
    <glyph glyph-name="uni2154" unicode="&#x2154;" horiz-adv-x="2426" 
d="M39 655v191l305 180q136 80 160 107q26 26 26 55q0 26 -22 42.5t-59 16.5q-61 0 -104.5 -40.5t-49.5 -100.5l-283 51q14 147 139 237.5t320 90.5q179 0 286 -72t107 -194q0 -92 -57 -157t-193 -126l-86 -39h361v-242h-850zM461 0l1136 1470h353l-1135 -1470h-354z
M2396 238q0 -113 -129.5 -182.5t-343.5 -69.5q-185 0 -308.5 52t-217.5 169l254 129q41 -56 114.5 -88.5t157.5 -32.5q113 0 113 51q0 39 -115 39h-149v205h131q68 0 96.5 10t28.5 35q0 20 -29 32.5t-80 12.5q-75 0 -138.5 -26.5t-101.5 -73.5l-237 121q75 100 207.5 154
t302.5 54q197 0 316.5 -67t119.5 -176q0 -57 -36.5 -102.5t-102.5 -71.5q147 -58 147 -174z" />
    <glyph glyph-name="uni215B" unicode="&#x215b;" horiz-adv-x="2234" 
d="M764 655h-715v242h223v225h-219v215l53 2q113 5 167 33.5t73 95.5h248v-571h170v-242zM303 0l1137 1470h352l-1135 -1470h-354zM1294 571q0 116 127 187t316 71q190 0 317 -71t127 -187q0 -99 -108 -157q69 -25 100 -67t31 -111q0 -116 -127 -183t-340 -67
q-212 0 -339.5 67.5t-127.5 182.5q0 70 31 111.5t102 66.5q-57 31 -83 68.5t-26 88.5zM1620 571q0 -25 31 -39t86 -14t86.5 14t31.5 39q0 26 -31.5 41t-86.5 15t-86 -15t-31 -41zM1878 256q0 57 -141 57q-140 0 -140 -57q0 -26 37 -41.5t103 -15.5t103.5 15.5t37.5 41.5z
" />
    <glyph glyph-name="uni215C" unicode="&#x215c;" horiz-adv-x="2408" 
d="M999 893q0 -113 -129.5 -182.5t-343.5 -69.5q-185 0 -308.5 52t-217.5 169l254 129q41 -56 114.5 -88.5t157.5 -32.5q113 0 113 52q0 39 -115 39h-149v204h131q68 0 96.5 10t28.5 35q0 20 -29 32.5t-80 12.5q-75 0 -138 -26.5t-101 -73.5l-238 121q75 100 207.5 154.5
t302.5 54.5q197 0 316.5 -67.5t119.5 -176.5q0 -57 -36.5 -102.5t-102.5 -71.5q147 -58 147 -174zM477 0l1137 1470h352l-1135 -1470h-354zM1468 571q0 116 127 187t316 71q190 0 317 -71t127 -187q0 -99 -108 -157q69 -25 100 -67t31 -111q0 -116 -127 -183t-340 -67
q-212 0 -339.5 67.5t-127.5 182.5q0 70 31 111.5t102 66.5q-57 31 -83 68.5t-26 88.5zM1794 571q0 -25 31 -39t86 -14q56 0 87.5 14t31.5 39q0 26 -31.5 41t-87.5 15q-55 0 -86 -15t-31 -41zM2052 256q0 57 -141 57q-139 0 -139 -57q0 -26 36.5 -41.5t102.5 -15.5
t103.5 15.5t37.5 41.5z" />
    <glyph glyph-name="uni215D" unicode="&#x215d;" horiz-adv-x="2295" 
d="M463 1006q-66 0 -125 -35l-301 26l65 473h752v-223h-500l-8 -84q87 37 199 37q166 0 259 -70t93 -194q0 -130 -123 -213q-119 -82 -311 -82q-156 0 -281 57t-186 156l280 98q61 -80 189 -80q51 0 82 18.5t31 49.5t-30.5 48.5t-84.5 17.5zM365 0l1136 1470h352
l-1134 -1470h-354zM1356 571q0 116 127 187t315 71q191 0 318 -71t127 -187q0 -51 -26 -88.5t-83 -68.5q69 -25 100 -67t31 -111q0 -116 -127 -183t-340 -67q-212 0 -339.5 67.5t-127.5 182.5q0 70 31 111.5t102 66.5q-108 58 -108 157zM1681 571q0 -25 31 -39t86 -14
q56 0 87.5 14t31.5 39q0 26 -31.5 41t-87.5 15q-55 0 -86 -15t-31 -41zM1939 256q0 57 -141 57q-139 0 -139 -57q0 -26 36.5 -41.5t102.5 -15.5t103.5 15.5t37.5 41.5z" />
    <glyph glyph-name="uni215E" unicode="&#x215e;" horiz-adv-x="2269" 
d="M598 1237h-297v-143h-270v376h932v-253q-297 -204 -297 -562h-338q0 173 69.5 322t200.5 260zM338 0l1137 1470h352l-1135 -1470h-354zM1329 571q0 116 127 187t316 71q190 0 317 -71t127 -187q0 -51 -26 -88.5t-83 -68.5q69 -25 100 -67t31 -111q0 -116 -126.5 -183
t-339.5 -67q-212 0 -339.5 67.5t-127.5 182.5q0 70 31 111.5t102 66.5q-57 31 -83 68.5t-26 88.5zM1655 571q0 -25 31 -39t86 -14t86.5 14t31.5 39q0 26 -31.5 41t-86.5 15t-86 -15t-31 -41zM1913 256q0 57 -141 57q-140 0 -140 -57q0 -26 37 -41.5t103 -15.5t103.5 15.5
t37.5 41.5z" />
    <glyph glyph-name="arrowleft" unicode="&#x2190;" horiz-adv-x="1642" 
d="M604 573l295 -333l-246 -228l-643 729l643 729l246 -227l-295 -334h1028v-336h-1028z" />
    <glyph glyph-name="arrowup" unicode="&#x2191;" horiz-adv-x="1544" 
d="M1534 807l-227 -246l-357 330v-891h-356v891l-356 -330l-228 246l762 688z" />
    <glyph glyph-name="arrowright" unicode="&#x2192;" horiz-adv-x="1642" 
d="M989 1470l643 -729l-643 -729l-246 228l295 333h-1028v336h1028l-295 334z" />
    <glyph glyph-name="arrowdown" unicode="&#x2193;" horiz-adv-x="1544" 
d="M1307 909l227 -245l-762 -689l-762 689l228 245l356 -329v890h356v-890z" />
    <glyph glyph-name="minus" unicode="&#x2212;" 
d="M1530 553h-1424v371h1424v-371z" />
    <glyph glyph-name="commaaccent" unicode="&#xf6c3;" horiz-adv-x="1228" 
d="M528 -268h-143v215h455v-66q0 -185 -111 -272.5t-344 -87.5v145q134 0 143 66z" />
    <glyph glyph-name="idotaccent" horiz-adv-x="602" 
d="M528 1145h-454v325h454v-325zM74 1085h454v-1085h-454v1085z" />
    <glyph glyph-name="a.ord" horiz-adv-x="1085" 
d="M686 748q-112 -76 -305 -76q-158 0 -250 64.5t-92 174.5q0 115 90.5 180.5t255.5 73.5l274 13v4q0 33 -34.5 52t-96.5 19q-124 0 -149 -67l-307 43q38 122 164 191t309 69q204 0 313 -79t109 -228v-226q0 -34 18 -43q12 -4 23 -4t39 4v-225q-71 -14 -142 -14q-43 0 -84 6
q-91 15 -135 68zM465 885q80 0 137 29t57 71v8l-235 -14q-41 -5 -58.5 -15t-17.5 -30q0 -49 117 -49z" />
    <glyph glyph-name="b.ord" horiz-adv-x="1128" 
d="M1081 1079q0 -181 -114 -295t-297 -114q-81 0 -149 25.5t-107 68.5v-76h-320v1061h320v-354q39 43 107 68.5t149 25.5q182 0 297 -115q114 -114 114 -295zM586 1237q-78 0 -129 -43.5t-51 -112.5v-4q0 -69 50.5 -112t129.5 -43t128.5 43t49.5 114t-49.5 114.5
t-128.5 43.5z" />
    <glyph glyph-name="c.ord" horiz-adv-x="1026" 
d="M543 1237q-80 0 -129 -43t-49 -115t49 -114.5t129 -42.5q63 0 108 32.5t62 92.5l293 -99q-26 -117 -158 -198q-127 -80 -305 -80q-225 0 -361 112q-135 114 -135 297q0 181 135 295q139 115 361 115q178 0 305 -80q131 -81 158 -199l-293 -98q-17 60 -62 92.5t-108 32.5z
" />
    <glyph glyph-name="d.ord" horiz-adv-x="1128" 
d="M459 670q-185 0 -299 114q-113 113 -113 295t113 295q115 115 299 115q81 0 149 -25.5t107 -68.5v354h319v-1061h-319v76q-39 -43 -107 -68.5t-149 -25.5zM723 1077v4q0 69 -51 112.5t-129 43.5q-79 0 -128.5 -43.5t-49.5 -114.5t49.5 -114t128.5 -43t129.5 43t50.5 112z
" />
    <glyph glyph-name="e.ord" horiz-adv-x="1071" 
d="M547 670q-227 0 -363 112q-137 113 -137 299q0 178 139 293q142 115 357 115q216 0 348 -117q131 -113 131 -297v-69h-653q43 -95 176 -95q124 0 162 72l305 -76q-47 -110 -173.5 -173.5t-291.5 -63.5zM539 1255q-124 0 -166 -88h317q-6 37 -48.5 62.5t-102.5 25.5z" />
    <glyph glyph-name="f.ord" horiz-adv-x="784" 
d="M575 1765q143 0 218 -34l-33 -224q-64 23 -152 23q-119 0 -119 -55v-5h261v-258h-261v-524h-319v524h-150v258h150v9q0 141 103.5 213.5t301.5 72.5z" />
    <glyph glyph-name="g.ord" horiz-adv-x="1128" 
d="M1034 1470v-645q0 -194 -142.5 -300.5t-395.5 -106.5q-157 0 -277 47.5t-170 132.5l252 129q69 -72 201 -72q93 0 153 38t60 100v12q-39 -39 -107.5 -62.5t-148.5 -23.5q-186 0 -299 104q-113 107 -113 277q0 173 113 280q115 109 299 109q79 0 148.5 -24.5t107.5 -65.5
v71h319zM721 1096v6q0 66 -50 106.5t-128 40.5q-79 0 -130 -41t-51 -108t50.5 -108.5t130.5 -41.5q79 0 128.5 40t49.5 106z" />
    <glyph glyph-name="h.ord" horiz-adv-x="1124" 
d="M414 688h-320v1061h320v-363q103 103 276 103q153 0 248 -92q96 -90 96 -238v-471h-319v348q0 174 -144 174q-75 0 -116 -45t-41 -129v-348z" />
    <glyph glyph-name="i.ord" horiz-adv-x="507" 
d="M414 1516h-320v233h320v-233zM94 1470h320v-782h-320v782z" />
    <glyph glyph-name="j.ord" horiz-adv-x="507" 
d="M414 1516h-320v233h320v-233zM-10 653q57 0 80.5 22t23.5 73v722h320v-743q0 -307 -385 -307q-128 0 -195 24l41 226q80 -17 115 -17z" />
    <glyph glyph-name="k.ord" horiz-adv-x="1105" 
d="M94 1749h320v-528l272 249h420l-352 -307l352 -475h-383l-201 275l-108 -95v-180h-320v1061z" />
    <glyph glyph-name="l.ord" horiz-adv-x="507" 
d="M94 1749h320v-1061h-320v1061z" />
    <glyph glyph-name="m.ord" horiz-adv-x="1673" 
d="M551 1214q-66 0 -101.5 -41.5t-35.5 -119.5v-365h-320v782h320v-84q98 103 256 103q83 0 157.5 -33t112.5 -88q121 121 305 121q150 0 244 -91t94 -239v-471h-319v365q0 79 -32.5 120t-94.5 41q-66 0 -103 -42t-37 -119v-365h-319v365q0 79 -32.5 120t-94.5 41z" />
    <glyph glyph-name="n.ord" horiz-adv-x="1124" 
d="M414 688h-320v782h320v-84q103 103 276 103q153 0 248 -92q96 -90 96 -238v-471h-319v348q0 174 -144 174q-75 0 -116 -45t-41 -129v-348z" />
    <glyph glyph-name="o.ord" horiz-adv-x="1085" 
d="M541 1489q221 0 358 -113q139 -115 139 -297t-139 -297q-136 -112 -358 -112q-221 0 -357 112q-137 113 -137 297t137 297t357 113zM541 1237q-79 0 -127.5 -43t-48.5 -115t48 -114.5t128 -42.5t130 43t50 114t-50 114.5t-130 43.5z" />
    <glyph glyph-name="p.ord" horiz-adv-x="1128" 
d="M1081 1079q0 -181 -114 -295t-297 -114q-81 0 -149 25.5t-107 68.5v-328h-320v1034h320v-75q39 43 107 68.5t149 25.5q182 0 297 -115q114 -114 114 -295zM586 1237q-78 0 -129 -43.5t-51 -112.5v-4q0 -69 50.5 -112t129.5 -43t128.5 43t49.5 114t-49.5 114.5
t-128.5 43.5z" />
    <glyph glyph-name="q.ord" horiz-adv-x="1128" 
d="M459 670q-185 0 -299 114q-113 113 -113 295t113 295q115 115 299 115q81 0 149 -25.5t107 -68.5v75h319v-1034h-319v328q-39 -43 -107 -68.5t-149 -25.5zM723 1077v4q0 69 -51 112.5t-129 43.5q-79 0 -128.5 -43.5t-49.5 -114.5t49.5 -114t128.5 -43t129.5 43t50.5 112z
" />
    <glyph glyph-name="r.ord" horiz-adv-x="815" 
d="M688 1475q11 0 35 -2t49 -3v-303q-50 7 -98 7q-260 0 -260 -209v-277h-320v782h320v-127q52 70 115 101t159 31z" />
    <glyph glyph-name="s.ord" horiz-adv-x="964" 
d="M440 670q-118 0 -238.5 27.5t-189.5 70.5l94 219q184 -96 379 -96q125 0 125 33q0 19 -104 28l-139 17q-175 23 -248.5 77.5t-73.5 155.5q0 135 118 211t329 76q251 0 421 -98l-135 -189q-138 72 -307 72q-100 0 -100 -33q0 -13 18.5 -19t77.5 -12q85 -11 108 -12
q193 -20 277 -77t84 -163q0 -139 -128.5 -213.5t-367.5 -74.5z" />
    <glyph glyph-name="t.ord" horiz-adv-x="835" 
d="M492 672q-152 0 -237 66.5t-85 185.5v288h-150v258h150v199h315v-199h295v-258h-295v-186q0 -90 109 -90q95 0 168 33l59 -242q-130 -55 -329 -55z" />
    <glyph glyph-name="u.ord" horiz-adv-x="1118" 
d="M705 1470h319v-782h-319v84q-105 -102 -277 -102q-150 0 -244 90.5t-94 238.5v471h322v-378q0 -156 137 -156q75 0 115.5 41.5t40.5 116.5v376z" />
    <glyph glyph-name="v.ord" horiz-adv-x="1089" 
d="M1090 1470l-375 -782h-340l-375 782h358l199 -450l197 450h336z" />
    <glyph glyph-name="w.ord" horiz-adv-x="1529" 
d="M492 1061l135 409h295l131 -409l145 409h332l-313 -782h-308l-143 424l-145 -424h-306l-315 782h348z" />
    <glyph glyph-name="x.ord" horiz-adv-x="1126" 
d="M1116 688h-391l-162 189l-164 -189h-389l357 402l-338 380h391l143 -165l144 165h389l-336 -378z" />
    <glyph glyph-name="y.ord" horiz-adv-x="1087" 
d="M1087 1470l-364 -770q-75 -160 -170 -221q-89 -59 -250 -59q-123 0 -197 31l46 237q54 -26 106 -26q75 0 96 40l6 15l-360 753h358l197 -454l201 454h331z" />
    <glyph glyph-name="z.ord" horiz-adv-x="1044" 
d="M563 946h404v-258h-889v234l424 290h-418v258h879v-233z" />
    <glyph glyph-name="caron.Slovak" horiz-adv-x="1228" 
d="M641 1110h-305l37 360h458z" />
    <glyph glyph-name="commaturn" horiz-adv-x="1228" 
d="M698 1360h144v-215h-455v65q0 185 111 273t344 88v-146q-135 0 -144 -65z" />
    <glyph glyph-name="grave.cap" horiz-adv-x="1228" 
d="M793 1888l190 -346h-389l-389 346h588z" />
    <glyph glyph-name="acute.cap" horiz-adv-x="1228" 
d="M635 1542h-389l190 346h588z" />
    <glyph glyph-name="circumflex.cap" horiz-adv-x="1228" 
d="M391 1888h447l282 -346h-325l-181 109l-180 -109h-325z" />
    <glyph glyph-name="caron.cap" horiz-adv-x="1228" 
d="M1120 1890l-282 -346h-447l-282 346h325l180 -108l181 108h325z" />
    <glyph glyph-name="tilde.cap" horiz-adv-x="1228" 
d="M418 1950q84 0 200 -54q72 -34 119 -34q36 0 55 20.5t25 67.5h293q0 -189 -81 -298.5t-220 -109.5q-83 0 -201 53q-77 35 -119 35q-36 0 -54.5 -20.5t-24.5 -67.5h-293q0 185 82.5 296.5t218.5 111.5z" />
    <glyph glyph-name="macron.cap" horiz-adv-x="1228" 
d="M1047 1858v-316h-865v316h865z" />
    <glyph glyph-name="breve.cap" horiz-adv-x="1228" 
d="M614 1815q58 0 96 20.5t38 52.5h315q0 -165 -121.5 -263.5t-327.5 -98.5t-327 98.5t-121 263.5h315q0 -32 38 -52.5t95 -20.5z" />
    <glyph glyph-name="dotaccent.cap" horiz-adv-x="1228" 
d="M858 1542h-487v346h487v-346z" />
    <glyph glyph-name="dieresis.cap" horiz-adv-x="1228" 
d="M567 1542h-430v346h430v-346zM1092 1542h-430v346h430v-346z" />
    <glyph glyph-name="ring.cap" horiz-adv-x="1228" 
d="M614 1513q-140 0 -235 89q-94 88 -94 217q0 127 94 215q96 90 235 90q140 0 236 -90q94 -88 94 -215q0 -129 -94 -217q-95 -89 -236 -89zM614 1917q-42 0 -68 -27.5t-26 -70.5t26 -71t68 -28t68.5 28t26.5 71t-26.5 70.5t-68.5 27.5z" />
    <glyph glyph-name="hungarumlaut.cap" horiz-adv-x="1228" 
d="M913 1542h-348l185 346h464zM377 1542h-346l184 346h463z" />
    <glyph glyph-name="guilsinglleft.cap" horiz-adv-x="784" 
d="M723 240l-662 321v352l662 322v-399l-221 -99l221 -98v-399z" />
    <glyph glyph-name="guilsinglright.cap" horiz-adv-x="784" 
d="M61 639l222 98l-222 99v399l662 -322v-352l-662 -321v399z" />
    <glyph glyph-name="guillemotleft.cap" horiz-adv-x="1521" 
d="M723 240l-662 321v352l662 322v-399l-221 -99l221 -98v-399zM1460 240l-661 321v352l661 322v-399l-221 -99l221 -98v-399z" />
    <glyph glyph-name="guillemotright.cap" horiz-adv-x="1521" 
d="M723 913v-352l-662 -321v399l222 98l-222 99v399zM1460 913v-352l-661 -321v399l221 98l-221 99v399z" />
    <glyph glyph-name="slash.cap" horiz-adv-x="1378" 
d="M545 -129h-504l793 1712h503z" />
    <glyph glyph-name="backslash.cap" horiz-adv-x="1378" 
d="M41 1583h504l792 -1712h-503z" />
    <glyph glyph-name="bar.cap" horiz-adv-x="655" 
d="M553 -129h-451v1712h451v-1712z" />
    <glyph glyph-name="periodcentered.cap" horiz-adv-x="663" 
d="M582 532h-500v474h500v-474z" />
    <glyph glyph-name="bullet.cap" horiz-adv-x="954" 
d="M47 727q0 189 123 309q123 123 309 123q183 0 303 -123q123 -120 123 -309q0 -183 -123 -303q-124 -121 -303 -121q-182 0 -309 121q-123 120 -123 303z" />
    <glyph glyph-name="hyphen.cap" horiz-adv-x="823" 
d="M741 522h-659v414h659v-414z" />
    <glyph glyph-name="endash.cap" horiz-adv-x="1110" 
d="M1028 541h-946v374h946v-374z" />
    <glyph glyph-name="emdash.cap" horiz-adv-x="1998" 
d="M1917 541h-1835v374h1835v-374z" />
    <glyph glyph-name="parenleft.cap" horiz-adv-x="915" 
d="M498 717q0 -252 100.5 -461.5t312.5 -394.5h-446q-209 136 -324.5 361t-115.5 495q0 271 115.5 495t324.5 361h446q-212 -185 -312.5 -394.5t-100.5 -461.5z" />
    <glyph glyph-name="parenright.cap" horiz-adv-x="915" 
d="M418 717q0 252 -100.5 461.5t-313.5 394.5h447q209 -137 324.5 -361t115.5 -495q0 -270 -115.5 -495t-324.5 -361h-447q213 185 313.5 394.5t100.5 461.5z" />
    <glyph glyph-name="bracketleft.cap" horiz-adv-x="854" 
d="M834 1245h-328v-1059h328v-325h-752v1712h752v-328z" />
    <glyph glyph-name="bracketright.cap" horiz-adv-x="854" 
d="M348 186v1059h-328v328h752v-1712h-752v325h328z" />
    <glyph glyph-name="braceleft.cap" horiz-adv-x="956" 
d="M158 541h-117v352h117q32 0 50.5 18t18.5 50v245q0 171 115.5 269t323.5 98h270v-328h-172q-63 0 -97 -33t-34 -94v-209q0 -122 -113 -192q113 -70 113 -193v-209q0 -61 34 -94t97 -33h172v-327h-270q-208 0 -323.5 97.5t-115.5 268.5v246q0 32 -18.5 50t-50.5 18z" />
    <glyph glyph-name="braceright.cap" horiz-adv-x="956" 
d="M915 893v-352h-116q-32 0 -51 -18t-19 -50v-246q0 -171 -115 -268.5t-323 -97.5h-271v327h173q63 0 97 33t34 94v209q0 124 112 193q-112 69 -112 192v209q0 61 -34 94t-97 33h-173v328h271q208 0 323 -98t115 -269v-245q0 -32 19 -50t51 -18h116z" />
    <glyph glyph-name="at.cap" horiz-adv-x="2306" 
d="M1753 1120l-92 -469q-14 -68 1 -95.5t64 -27.5q93 0 152 84t59 217q0 215 -183 331t-523 116q-395 0 -621 -170q-223 -168 -223 -463q0 -258 205.5 -400.5t578.5 -142.5q191 0 380 37t331 103l156 -263q-156 -84 -396 -133q-236 -51 -497 -51q-515 0 -815 230
q-299 228 -299 620q0 220 101.5 406t291.5 315q328 217 819 217q483 0 758 -195q274 -194 274 -536q0 -270 -184 -442q-181 -169 -459 -166q-233 3 -346 125q-108 -117 -328 -117q-192 0 -305.5 108.5t-113.5 288.5q0 209 147 350q150 144 379 144q189 0 283 -111l18 90h387
zM971 676q0 -59 42.5 -94t112.5 -35q78 0 130.5 50t52.5 122q0 60 -42 94.5t-114 34.5q-75 0 -128.5 -51.5t-53.5 -120.5z" />
    <glyph glyph-name="zero.dnom" horiz-adv-x="1040" 
d="M520 -14q-214 0 -348 116q-133 121 -133 306t133 303t348 118q216 0 346 -118q135 -117 135 -303t-135 -306q-131 -116 -346 -116zM520 586q-68 0 -109.5 -48.5t-41.5 -129.5t41.5 -130t109.5 -49q66 0 109 50t43 129t-43 128.5t-109 49.5z" />
    <glyph glyph-name="one.dnom" horiz-adv-x="794" 
d="M272 242v225h-219v215l53 2q113 5 167 33.5t73 95.5h248v-571h170v-242h-715v242h223z" />
    <glyph glyph-name="two.dnom" horiz-adv-x="952" 
d="M59 0v190l306 181q136 80 159 106q27 27 27 55q0 26 -22.5 43t-59.5 17q-61 0 -104.5 -40.5t-49.5 -100.5l-282 51q14 147 139 237t320 90q179 0 286 -72t107 -194q0 -92 -57 -156.5t-193 -125.5l-86 -39h360v-242h-850z" />
    <glyph glyph-name="three.dnom" horiz-adv-x="1030" 
d="M999 238q0 -113 -129.5 -182.5t-343.5 -69.5q-185 0 -308.5 52t-217.5 169l254 129q41 -56 114.5 -88.5t157.5 -32.5q113 0 113 51q0 39 -115 39h-149v205h131q68 0 96.5 10t28.5 35q0 20 -29 32.5t-80 12.5q-75 0 -138 -26.5t-101 -73.5l-238 121q75 100 207.5 154
t302.5 54q197 0 316.5 -67t119.5 -176q0 -57 -36.5 -102.5t-102.5 -71.5q147 -58 147 -174z" />
    <glyph glyph-name="four.dnom" horiz-adv-x="991" 
d="M815 139v-139h-309v139h-475v201l383 475h401v-457h146v-219h-146zM506 584l-160 -226h160v226z" />
    <glyph glyph-name="five.dnom" horiz-adv-x="917" 
d="M463 350q-66 0 -125 -35l-301 27l65 473h752v-223h-500l-8 -84q87 37 199 37q166 0 259 -70t93 -194q0 -131 -123 -213q-119 -82 -311 -82q-156 0 -281 57t-186 156l280 98q61 -80 189 -80q51 0 82 18.5t31 49.5t-30.5 48t-84.5 17z" />
    <glyph glyph-name="six.dnom" horiz-adv-x="1013" 
d="M569 829q240 0 392 -120l-154 -168q-114 63 -232 63q-90 0 -151.5 -34t-61.5 -78q109 47 234 47q164 0 276 -74q111 -73 111 -184q0 -136 -126 -215.5t-343 -79.5q-212 0 -340 110q-129 111 -129 291q0 201 143 320q143 122 381 122zM514 205q63 0 101 18.5t38 50.5
t-37.5 51t-103.5 19t-102.5 -19t-36.5 -51t38.5 -50.5t102.5 -18.5z" />
    <glyph glyph-name="seven.dnom" horiz-adv-x="993" 
d="M598 582h-297v-144h-270v377h932v-254q-297 -204 -297 -561h-338q0 173 69.5 322t200.5 260z" />
    <glyph glyph-name="eight.dnom" horiz-adv-x="995" 
d="M55 571q0 116 127 187t316 71q190 0 317 -71t127 -187q0 -99 -108 -157q69 -25 100 -67t31 -111q0 -116 -127 -183t-340 -67q-212 0 -339.5 67.5t-127.5 182.5q0 70 31 111.5t102 66.5q-57 31 -83 68.5t-26 88.5zM381 571q0 -25 31 -39t86 -14t86.5 14t31.5 39
q0 26 -31.5 41t-86.5 15t-86 -15t-31 -41zM639 256q0 57 -141 57q-140 0 -140 -57q0 -26 37 -41.5t103 -15.5t103.5 15.5t37.5 41.5z" />
    <glyph glyph-name="nine.dnom" horiz-adv-x="1013" 
d="M444 -14q-241 0 -391 118l154 170q114 -63 231 -63q90 0 151.5 33.5t61.5 77.5q-111 -48 -233 -48q-165 0 -277 74q-110 73 -110 184q0 137 126.5 217t342.5 80q212 0 340 -110q129 -111 129 -293q0 -195 -146 -320q-144 -120 -379 -120zM500 608q-64 0 -102 -18.5
t-38 -50.5t38 -51t104 -19t102.5 19t36.5 51t-38.5 50.5t-102.5 18.5zM670 342l-2 -4z" />
    <glyph glyph-name="colon.mid" horiz-adv-x="819" 
d="M659 197h-499v473h499v-473zM659 809h-499v473h499v-473z" />
    <glyph glyph-name="commaaboverightcmb" horiz-adv-x="0" 
d="M57 1110h-305l37 360h459z" />
    <glyph glyph-name="space.tab" horiz-adv-x="819" 
 />
    <glyph glyph-name="period.tab" horiz-adv-x="819" 
d="M659 0h-499v473h499v-473z" />
    <glyph glyph-name="comma.tab" horiz-adv-x="819" 
d="M334 0h-174v473h499v-385q0 -202 -132 -314t-367 -112v215q174 0 174 119v4z" />
    <glyph glyph-name="colon.tab" horiz-adv-x="819" 
d="M659 0h-499v473h499v-473zM659 612h-499v473h499v-473z" />
    <glyph glyph-name="semicolon.tab" horiz-adv-x="819" 
d="M334 0h-174v473h499v-385q0 -202 -132 -314t-367 -112v215q174 0 174 119v4zM659 612h-499v473h499v-473z" />
    <glyph glyph-name="florin.lt" 
d="M1030 592l-26 -141q-43 -244 -189 -360t-409 -116q-267 0 -422 107l168 313q92 -53 196 -53q80 0 128.5 32t58.5 93l22 125h-262v305h317l23 123q43 244 189 359.5t409 115.5q269 0 422 -106l-168 -314q-92 53 -197 53q-165 0 -186 -124l-19 -107h326v-305h-381z" />
    <glyph glyph-name="Euro.lt" 
d="M225 471h-145v238h108v57h-108v238h145q69 232 250 361.5t438 129.5q268 0 440 -121.5t234 -353.5l-393 -129q-20 109 -94 167t-191 58q-164 0 -247 -112h294l-38 -238h-332v-57h323l-39 -238h-211q85 -117 250 -117q117 0 191 58.5t94 167.5l393 -129
q-62 -232 -234 -354t-440 -122q-258 0 -439 131t-249 365z" />
    <glyph glyph-name="dollar.lt" 
d="M-33 225l244 326q173 -135 448 -182v198q-312 32 -458 134t-146 286q0 206 156.5 330.5t447.5 150.5v195h363v-201q168 -23 316.5 -76.5t254.5 -128.5l-243 -305q-129 95 -328 142v-179q311 -35 458.5 -140t147.5 -286q0 -209 -153 -330.5t-453 -152.5v-203h-363v201
q-206 20 -403 80q-195 62 -289 141zM477 1036q0 -36 39 -54t143 -30v172q-182 -12 -182 -88zM1192 442q0 38 -35 56t-135 32v-174q170 15 170 86z" />
    <glyph glyph-name="cent.lt" horiz-adv-x="1640" 
d="M1040 -188h-358v170q-284 41 -444 194q-164 156 -164 389q0 231 164 387t444 197v174h358v-176q190 -29 320.5 -111t193.5 -211l-305 -180q-71 111 -209 148v-455q136 37 209 147l305 -180q-57 -124 -190 -207t-324 -112v-174zM471 565q0 -81 55 -140t156 -89v459
q-100 -29 -155.5 -89t-55.5 -141z" />
    <glyph glyph-name="sterling.lt" 
d="M494 563h-289v244h123q-86 128 -86 231q0 199 190 328q189 131 494 131q295 0 469 -131q176 -132 176 -348q0 -68 -23 -158h-397q0 5 3 29t3 35q0 186 -229 186q-109 0 -174.5 -39.5t-65.5 -105.5q0 -27 12 -54q10 -24 72 -104h318v-244h-216v-18q0 -77 -20 -144
q82 -26 162 -26q102 0 157.5 44t55.5 124h385q1 -270 -139 -419t-394 -149q-218 0 -403 136q-142 -136 -336 -136q-140 0 -228.5 78.5t-88.5 202.5q0 129 90.5 205t244.5 76q63 0 150 -17q-1 6 -16 43zM367 324q-35 0 -57.5 -15.5t-22.5 -40.5q0 -23 21.5 -38t53.5 -15
q69 0 117 66q-57 43 -112 43z" />
    <glyph glyph-name="yen.lt" 
d="M586 330h-400v258h369l-35 57h-334v258h176l-346 567h547l266 -507l265 507h526l-346 -567h168v-258h-326l-35 -57h361v-258h-391v-330h-465v330z" />
    <glyph glyph-name="zero.lt" 
d="M819 -25q-341 0 -563 213q-219 216 -219 547q0 332 219 545q221 215 563 215q343 0 561 -215q222 -213 222 -545q0 -331 -222 -547q-219 -213 -561 -213zM819 1096q-141 0 -227 -98.5t-86 -262.5t86 -262t227 -98q140 0 225.5 98t85.5 262t-85.5 262.5t-225.5 98.5z" />
    <glyph glyph-name="one.lt" 
d="M770 1470h358v-1081h465v-389h-1482v389h553v483h-521v355l256 4q173 2 259.5 57t111.5 182z" />
    <glyph glyph-name="two.lt" 
d="M72 0v344l563 283l252 127q108 60 150 100.5t42 85.5q0 75 -66.5 114.5t-195.5 39.5q-131 0 -228 -77.5t-126 -207.5l-422 86q27 251 250 426q224 172 549 172q315 0 516 -139q200 -138 200 -363q0 -165 -94 -278q-92 -112 -315 -213l-244 -111h692v-389h-1523z" />
    <glyph glyph-name="three.lt" 
d="M1606 422q0 -197 -213 -324q-211 -123 -559 -123q-288 0 -496.5 99t-319.5 286l422 197q46 -85 158 -141q115 -56 244 -56q117 0 185.5 28.5t68.5 78.5q0 98 -281 98h-219v348h205q139 0 202.5 23.5t63.5 73.5q0 44 -63 70t-173 26q-115 0 -217.5 -47.5t-152.5 -122.5
l-395 194q90 162 313 263q225 102 485 102q326 0 520 -123q195 -124 195 -321q0 -102 -65.5 -184t-172.5 -119q135 -51 200 -131t65 -195z" />
    <glyph glyph-name="four.lt" 
d="M1378 324v-324h-440v324h-891v356l741 790h590v-784h213v-362h-213zM938 1090l-369 -404h369v404z" />
    <glyph glyph-name="five.lt" 
d="M846 651q-88 0 -174.5 -20.5t-147.5 -55.5l-407 50l108 845h1280v-389h-925l-23 -151q70 36 167 57t196 21q314 0 497 -136q185 -132 185 -366q0 -232 -213 -383q-213 -148 -539 -148q-302 0 -522 105q-223 106 -301 291l426 174q114 -189 401 -189q132 0 210.5 38.5
t78.5 105.5q0 72 -78.5 111.5t-218.5 39.5z" />
    <glyph glyph-name="six.lt" 
d="M911 1495q223 0 396 -66t286 -194l-290 -268q-168 155 -404 155q-165 0 -278 -65t-132 -166q175 108 433 108q300 0 493 -141q195 -139 195 -354q0 -241 -211 -385t-563 -144q-366 0 -584 197q-217 199 -217 528q0 359 239 576q242 219 637 219zM831 338q143 0 228.5 42
t85.5 114t-85.5 113.5t-228.5 41.5q-142 0 -226.5 -41.5t-84.5 -113.5t84.5 -114t226.5 -42z" />
    <glyph glyph-name="seven.lt" 
d="M1106 1087h-696v-264h-390v647h1598v-413q-276 -204 -409.5 -464t-133.5 -593h-477q0 330 128.5 605t379.5 482z" />
    <glyph glyph-name="eight.lt" 
d="M102 1044q0 202 201 326q201 125 514 125q316 0 514 -125q203 -123 203 -326q0 -178 -209 -292q134 -50 205.5 -135t71.5 -195q0 -207 -213 -328q-210 -119 -572 -119q-359 0 -569 119q-213 121 -213 328q0 110 71 195t205 135q-209 114 -209 292zM561 1042
q0 -55 67 -85.5t189 -30.5t190 30.5t68 85.5t-68 86t-190 31q-121 0 -188.5 -30.5t-67.5 -86.5zM1137 457q0 63 -83 96t-237 33t-235.5 -33t-81.5 -96t81.5 -96t235.5 -33t237 33t83 96z" />
    <glyph glyph-name="nine.lt" 
d="M727 -25q-222 0 -395.5 66.5t-286.5 194.5l291 268q169 -156 403 -156q165 0 278 65.5t132 166.5q-177 -109 -432 -109q-301 0 -496 139q-192 140 -192 357q0 239 211 383q213 145 563 145q366 0 583 -199q218 -197 218 -526q0 -360 -240 -577q-241 -218 -637 -218z
M807 1133q-143 0 -228 -42t-85 -114t85 -114t228 -42q142 0 226.5 42t84.5 114t-84.5 114t-226.5 42z" />
    <glyph glyph-name="percent.lt" 
d="M397 782q-162 0 -270 99q-107 101 -107 256t107 256q106 100 270 100q163 0 269 -100t106 -256t-106 -256q-105 -99 -269 -99zM467 0h-309l1009 1470h314zM397 1024q47 0 76 31t29 82q0 55 -27.5 84.5t-77.5 29.5t-78 -30t-28 -84q0 -51 29.5 -82t76.5 -31zM1243 688
q162 0 268 -100q107 -101 107 -256t-107 -256q-105 -99 -268 -99q-162 0 -270 99q-107 101 -107 256t107 256q106 100 270 100zM1243 446q-50 0 -78 -30t-28 -84q0 -51 29.5 -82t76.5 -31t76 31t29 82q0 54 -27.5 84t-77.5 30z" />
    <glyph glyph-name="baht.lt" 
d="M645 0h-592v1470h592v193h352v-193h64q252 0 385 -103.5t133 -299.5q0 -96 -54 -180.5t-139 -126.5q109 -50 170.5 -139t61.5 -201q0 -201 -136 -310.5t-386 -109.5h-99v-197h-352v197zM420 1118v-219h225v219h-225zM1219 1004q0 114 -134 114h-88v-219h88q134 0 134 105
zM645 584h-225v-230h225v230zM1247 475q0 51 -34 80t-95 29h-121v-230h121q61 0 95 32.5t34 88.5z" />
    <glyph glyph-name="dong.lt" horiz-adv-x="1640" 
d="M950 154v84q-39 -45 -122 -73t-179 -28q-225 0 -362 125t-137 326q0 200 137 325q139 127 362 127q96 0 179.5 -28t121.5 -72v154h-260v299h260v77h398v-77h139v-299h-139v-940h-398zM942 586v6q0 63 -56 106t-136 43q-86 0 -137.5 -41t-51.5 -112t51.5 -112.5
t137.5 -41.5q80 0 136 43.5t56 108.5zM1346 -299h-1149v299h1149v-299z" />
    <glyph glyph-name="franc.lt" 
d="M195 160h-164v368h164v942h1351v-366h-895v-150h779v-368h-779v-58h307v-368h-307v-160h-456v160z" />
    <glyph glyph-name="naira.lt" 
d="M174 449h-123v258h123v57h-123v258h123v448h461l375 -718v718h454v-448h123v-258h-123v-57h123v-258h-123v-449h-411l-424 788v-788h-455v449z" />
    <glyph glyph-name="peseta.lt" 
d="M860 258h-262v-258h-459v743h-123v244h123v483h721q270 0 433 -125t198 -358h131v-244h-131q-32 -233 -196.5 -359t-434.5 -126zM836 1106h-238v-119h428q-49 119 -190 119zM598 743v-120h238q143 0 190 120h-428z" />
    <glyph glyph-name="peso.lt" 
d="M129 573h-102v258h102v58h-102v258h102v323h741q227 0 380 -82.5t216 -240.5h146v-258h-103q0 -6 -0.5 -13.5t-1.5 -20t-2 -24.5h107v-258h-193q-160 -233 -549 -233h-282v-340h-459v573zM588 1096v-381h258q103 0 157 49t54 141t-54 141.5t-157 49.5h-258z" />
    <glyph glyph-name="uni20BD.lt" 
d="M156 143h-123v344h123v58h-125l4 344h121v581h882q269 0 424 -122q156 -123 156 -340t-156 -340t-424 -123h-417v-58h335v-344h-335v-143h-465v143zM1014 1126h-393v-237h393q68 0 106.5 32t38.5 87t-38.5 86.5t-106.5 31.5z" />
    <glyph glyph-name="uni20B9.lt" 
d="M514 383h-467v322h625q112 0 174 59h-799v326h799q-65 59 -174 59h-625v321h1544v-321h-354q18 -18 43 -59h311v-326h-284q-62 -234 -303 -330l399 -434h-537z" />
    <glyph glyph-name="uni20BA.lt" 
d="M215 219l-164 -90v317l164 91v63l-164 -90v317l164 91v552h465v-299l334 183v-318l-334 -182v-63l334 182v-318l-334 -182v-84h100q155 0 248.5 104t99.5 283h465q-9 -358 -217 -569q-207 -207 -551 -207h-610v219z" />
    <glyph glyph-name="won.lt" 
d="M213 449h-190v258h143l-10 57h-133v258h86l-80 448h438l100 -690l115 508h283l129 -569l108 751h406l-80 -448h88v-258h-135l-11 -57h146v-258h-193l-80 -449h-364l-162 717l-164 -717h-360z" />
    <glyph glyph-name="zero.slash" horiz-adv-x="1773" 
d="M1745 735q0 -333 -242 -547q-245 -213 -616 -213q-372 0 -617 213q-241 213 -241 547q0 335 241 545q244 215 617 215q372 0 616 -215q242 -211 242 -545zM887 1116q-184 0 -297 -104t-113 -277q0 -42 10 -94l596 436q-92 39 -196 39zM887 354q181 0 295 105t114 276
q0 42 -10 94l-596 -436q92 -39 197 -39z" />
    <glyph glyph-name="zero.slash.lt" 
d="M1602 735q0 -331 -222 -547q-219 -213 -561 -213q-341 0 -563 213q-219 216 -219 547q0 332 219 545q221 215 563 215q343 0 561 -215q222 -213 222 -545zM819 1137q-160 0 -257 -109.5t-97 -292.5q0 -62 8 -98l526 453q-77 47 -180 47zM819 334q160 0 257.5 109.5
t97.5 291.5q0 59 -9 99l-526 -453q77 -47 180 -47z" />
    <glyph glyph-name="arrowNW" horiz-adv-x="1581" 
d="M645 1149l926 -926l-238 -248l-930 930v-463h-321v1028h1028v-321h-465z" />
    <glyph glyph-name="arrowNE" horiz-adv-x="1581" 
d="M1499 442h-321v463l-930 -930l-238 248l926 926h-465v321h1028v-1028z" />
    <glyph glyph-name="arrowSE" horiz-adv-x="1581" 
d="M1178 1028h321v-1028h-1028v322h465l-926 925l238 248l930 -930v463z" />
    <glyph glyph-name="arrowSW" horiz-adv-x="1581" 
d="M645 322h465v-322h-1028v1028h321v-463l930 930l238 -248z" />
    <glyph glyph-name="arrowupdown" horiz-adv-x="1560" 
d="M1341 471l209 -264l-770 -580l-770 580l209 264l387 -297v805l-366 -305l-209 262l749 600l750 -600l-209 -264l-367 305v-803z" />
    <glyph glyph-name="arrowleftright" horiz-adv-x="2123" 
d="M1491 1470l623 -729l-623 -729l-246 228l283 333h-932l283 -333l-246 -228l-623 729l623 729l246 -227l-283 -334h932l-283 334z" />
    </font>
</defs>
</svg>
