<?xml version="1.0" standalone="no"?>
<!DOCTYPE svg PUBLIC "-//W3C//DTD SVG 1.1//EN" "http://www.w3.org/Graphics/SVG/1.1/DTD/svg11.dtd" >
<svg xmlns="http://www.w3.org/2000/svg" xmlns:xlink="http://www.w3.org/1999/xlink" version="1.1">
<metadata>
Created by FontForge 20170731 at Mon Dec 17 23:50:48 2018
 By Aleksey,,,
</metadata>
<defs>
<font id="FKScreamer-Upright" horiz-adv-x="387" >
  <font-face 
    font-family="FK Screamer Upright"
    font-weight="400"
    font-stretch="condensed"
    units-per-em="1100"
    panose-1="0 0 5 6 0 0 0 0 0 0"
    ascent="880"
    descent="-220"
    x-height="640"
    cap-height="800"
    bbox="-316 -220 840 975"
    underline-thickness="50"
    underline-position="-150"
    unicode-range="U+0020-FB02"
  />
<missing-glyph horiz-adv-x="480" 
d="M394 -160h-305v960h305v-960zM161 736v-32h63v-36h-64v-31h160v31h-64v36h64v32h-159zM160 612v-100h160v33h-64v67h-96zM224 545h-32v34h32v-34zM160 486v-32h64v-35h-64v-32h96v67h64v32h-160zM288 428v-63h-128v-33h160v96h-32zM224 311v-53h32v22h32v-45h-96v76h-32
v-108h160v108h-96zM160 145v-108h160v108h-160zM288 68h-96v46h96v-46zM160 15v-32h68l-68 -45v-32h160v32h-98l67 45h31v32h-160z" />
    <glyph glyph-name="fi" unicode="fi" horiz-adv-x="476" 
d="M78 640v30q0 73 32 104t83 31q47 0 85 -20l-10 -70h-20q-19 0 -27 -9t-8 -31v-35h70v-85h-70v-555h-135v555h-70v85h70zM451 640v-640h-135v640h135zM456 800v-115h-145v115h145z" />
    <glyph glyph-name="fl" unicode="fl" horiz-adv-x="476" 
d="M78 640v30q0 73 32 104t83 31q47 0 85 -20l-10 -70h-20q-19 0 -27 -9t-8 -31v-35h70v-85h-70v-555h-135v555h-70v85h70zM451 800v-800h-135v800h135z" />
    <glyph glyph-name="f_f.liga" unicode="ff" horiz-adv-x="511" 
d="M503 555h-70v-555h-135v555h-85v-555h-135v555h-70v85h70v30q0 73 32 104t83 31q47 0 85 -20l-15 -70h-15q-19 0 -27 -9t-8 -31v-35h85v30q0 73 32 104t83 31q47 0 85 -20l-10 -70h-20q-19 0 -27 -9t-8 -31v-35h70v-85z" />
    <glyph glyph-name="f_t.liga" unicode="ft" horiz-adv-x="530" 
d="M213 640h70v-85h-70v-555h-135v555h-70v85h70v30q0 73 32 104t83 31q47 0 85 -20l-10 -70h-20q-19 0 -27 -9t-8 -31v-35zM448 555v-430q0 -22 8 -31t27 -9h20l8 -75q-38 -20 -83 -20q-51 0 -83 31t-32 104v512q17 22 26.5 52.5t13.5 80.5h95v-130h72v-85h-72z" />
    <glyph glyph-name="k_t.liga" unicode="kt" horiz-adv-x="604" 
d="M242 640h120v-10l-80 -300v-10l80 -310v-10h-120l-72 242h-10v-242h-135v800h135v-397h10zM522 555v-430q0 -22 8 -31t27 -9h20l8 -75q-37 -20 -83 -20q-51 0 -83 31t-32 104v512q17 22 26.5 52.5t13.5 80.5h95v-130h72v-85h-72z" />
    <glyph glyph-name="r_f.liga" unicode="rf" horiz-adv-x="495" 
d="M485 555h-70v-555h-135v670q0 73 32 104t83 31q48 0 85 -20l-10 -70h-20q-19 0 -27 -9t-8 -31v-35h70v-85zM229 641h21v-125h-25q-34 0 -49.5 -17.5t-15.5 -60.5v-438h-135v640h95l10 -85h10q12 86 89 86z" />
    <glyph glyph-name="r_t.liga" unicode="rt" horiz-adv-x="497" 
d="M415 555v-430q0 -22 8 -31t27 -9h20l8 -75q-37 -20 -83 -20q-51 0 -83 31t-32 104v512q17 22 26.5 52.5t13.5 80.5h95v-130h72v-85h-72zM229 641h21v-125h-25q-34 0 -49.5 -17.5t-15.5 -60.5v-438h-135v640h95l10 -85h10q12 86 89 86z" />
    <glyph glyph-name="t_t.liga" unicode="tt" horiz-adv-x="503" 
d="M423 555v-430q0 -22 8 -31t27 -9h21l8 -75q-37 -20 -84 -20q-51 0 -83 31t-32 104v430h-85v-430q0 -22 8 -31t27 -9h21l8 -75q-37 -20 -84 -20q-51 0 -83 31t-32 104v430h-60v82q54 4 74.5 35t25.5 98h95v-133h15q46 0 69 15.5t30 42t11 75.5h95v-130h70v-85h-70z" />
    <glyph glyph-name=".notdef" horiz-adv-x="480" 
d="M394 -160h-305v960h305v-960zM161 736v-32h63v-36h-64v-31h160v31h-64v36h64v32h-159zM160 612v-100h160v33h-64v67h-96zM224 545h-32v34h32v-34zM160 486v-32h64v-35h-64v-32h96v67h64v32h-160zM288 428v-63h-128v-33h160v96h-32zM224 311v-53h32v22h32v-45h-96v76h-32
v-108h160v108h-96zM160 145v-108h160v108h-160zM288 68h-96v46h96v-46zM160 15v-32h68l-68 -45v-32h160v32h-98l67 45h31v32h-160z" />
    <glyph glyph-name=".null" horiz-adv-x="0" 
 />
    <glyph glyph-name="nonmarkingreturn" horiz-adv-x="366" 
 />
    <glyph glyph-name="space" unicode=" " horiz-adv-x="140" 
 />
    <glyph glyph-name="exclam" unicode="!" horiz-adv-x="185" 
d="M155 800v-200l-35 -395h-55l-35 395v200h125zM150 160v-160h-115v160h115z" />
    <glyph glyph-name="quotedbl" unicode="&#x22;" horiz-adv-x="300" 
d="M30 800h105v-155l-55 -165h-30v10l25 150h-45v160zM270 800v-155l-55 -165h-30v10l25 150h-45v160h105z" />
    <glyph glyph-name="numbersign" unicode="#" horiz-adv-x="475" 
d="M386 465l-7 -125h76v-115h-82l-13 -225h-115v10l12 215h-59l-13 -225h-115v10l12 215h-62v115h69l7 125h-76v115h82l13 220h115v-10l-12 -210h59l13 220h115v-10l-12 -210h62v-115h-69zM271 465h-60l-7 -125h60z" />
    <glyph glyph-name="dollar" unicode="$" horiz-adv-x="384" 
d="M236 580v67q0 23 -10 35.5t-26 12.5q-17 0 -28 -13t-11 -37v-15q0 -34 17.5 -66t57.5 -82l30 -38q55 -70 80.5 -127t25.5 -127q0 -80 -37.5 -132t-102.5 -65v-78h-90v81q-65 15 -98.5 69.5t-33.5 143.5q0 38 -6 56v10h137q6 -12 6 -45v-74q0 -23 10 -37t27 -14
q18 0 28 13.5t10 35.5v15q0 37 -22 77t-64 95l-29 38q-53 69 -74.5 120.5t-21.5 115.5q0 75 37 126.5t103 64.5v79h90v-80q63 -15 96.5 -68t33.5 -134q0 -39 6 -58v-10h-135q-6 17 -6 45z" />
    <glyph glyph-name="percent" unicode="%" horiz-adv-x="528" 
d="M47.5 533q-32.5 43 -32.5 117t32.5 117t87.5 43t87.5 -43t32.5 -117t-32.5 -117t-87.5 -43t-87.5 43zM485 800v-10l-322 -790h-120v10l322 790h120zM155 610v80q0 35 -20 35t-20 -35v-80q0 -35 20 -35t20 35zM305.5 33q-32.5 43 -32.5 117t32.5 117t87.5 43t87.5 -43
t32.5 -117t-32.5 -117t-87.5 -43t-87.5 43zM413 110v80q0 35 -20 35t-20 -35v-80q0 -35 20 -35t20 35z" />
    <glyph glyph-name="ampersand" unicode="&#x26;" horiz-adv-x="520" 
d="M35.5 291.5q27.5 51.5 82.5 117.5q-31 56 -47 103t-16 106q0 57 23.5 100.5t63.5 67.5t87 24q50 0 87.5 -23.5t58 -64t20.5 -91.5q0 -64 -29.5 -119.5t-80.5 -112.5l37 -72h10l20 54q12 34 31 49h137v-10q-14 -10 -22.5 -21.5t-18.5 -33.5l-81 -182l39 -72
q37 -67 83 -101v-10h-172q-14 9 -27 32h-9q-22 -18 -49.5 -30t-67.5 -12q-88 0 -137.5 50.5t-49.5 135.5q0 64 27.5 115.5zM205 580q5 -26 17 -53h10q43 56 43 115q0 28 -9.5 43t-27.5 15q-38 0 -38 -63q0 -31 5 -57zM171 137.5q13 -17.5 36 -17.5q18 0 30.5 10.5t18.5 27.5
l-61 114h-10q-27 -45 -27 -87q0 -30 13 -47.5z" />
    <glyph glyph-name="quotesingle" unicode="'" horiz-adv-x="175" 
d="M145 800v-155l-55 -165h-40v10l25 150h-45v160h115z" />
    <glyph glyph-name="parenleft" unicode="(" horiz-adv-x="230" 
d="M230 850q-80 -240 -80 -495t80 -495v-10h-85q-62 113 -93.5 234.5t-31.5 270.5t31.5 270.5t93.5 234.5h85v-10z" />
    <glyph glyph-name="parenright" unicode=")" horiz-adv-x="230" 
d="M178.5 625.5q31.5 -121.5 31.5 -270.5t-31.5 -270.5t-93.5 -234.5h-85v10q80 240 80 495t-80 495v10h85q62 -113 93.5 -234.5z" />
    <glyph glyph-name="asterisk" unicode="*" horiz-adv-x="440" 
d="M255 796v-15l-35 -195l-33 195v15h68zM152 771l68 -185l-125 148l-7 13l56 37zM352 747l-7 -13l-125 -148l68 185l8 13zM72 709l148 -123l-180 64l-13 7l32 60zM413 657l-13 -7l-180 -64l148 123l13 8zM35 619l185 -33l-185 -35h-15v68h15zM420 551h-15l-185 35l185 33
h15v-68zM27 515l13 7l180 64l-148 -123l-13 -8zM88 425l7 13l125 148l-68 -185l-8 -13zM187 391l33 195l35 -195v-15h-68v15zM368 463l-148 123l180 -64l13 -7l-32 -60zM288 401l-68 185l125 -148l7 -13l-56 -37z" />
    <glyph glyph-name="plus" unicode="+" horiz-adv-x="404" 
d="M379 335h-112v-142h-130v142h-112v120h112v143h130v-143h112v-120z" />
    <glyph glyph-name="comma" unicode="," horiz-adv-x="175" 
d="M145 160v-155l-55 -165h-40v10l25 150h-45v160h115z" />
    <glyph glyph-name="hyphen" unicode="-" horiz-adv-x="275" 
d="M250 370v-110h-225v110h225z" />
    <glyph glyph-name="period" unicode="." horiz-adv-x="175" 
d="M145 160v-160h-115v160h115z" />
    <glyph glyph-name="slash" unicode="/" horiz-adv-x="285" 
d="M280 800v-10l-145 -1010h-130v10l145 1010h130z" />
    <glyph glyph-name="zero" unicode="0" horiz-adv-x="438" 
d="M14 430q0 200 52 290t153 90t153 -90t52 -290v-60q0 -200 -52 -290t-153 -90t-153 90t-52 290v60zM179 166q0 -24 11 -37.5t29 -13.5t29 13.5t11 37.5v473q0 24 -11 37.5t-29 13.5t-29 -13.5t-11 -37.5v-473z" />
    <glyph glyph-name="one" unicode="1" horiz-adv-x="250" 
d="M5 750l110 50h115v-800h-150v675h-75v75z" />
    <glyph glyph-name="two" unicode="2" horiz-adv-x="384" 
d="M370 0h-356v95l161 354q49 107 49 176v18q0 25 -10 38.5t-28 13.5t-27.5 -12t-9.5 -36v-87q0 -28 -6 -45h-135v10q6 18 6 53v19q0 100 48.5 156.5t133.5 56.5q84 0 131 -54.5t47 -145.5q0 -72 -26.5 -140.5t-76.5 -159.5l-102 -185h201v-125z" />
    <glyph glyph-name="three" unicode="3" horiz-adv-x="386" 
d="M8 300h137q6 -13 6 -45v-99q0 -23 10 -37t27 -14q18 0 28 13t10 35v154q0 22 -10.5 35t-31.5 13h-62v120h61q20 0 31.5 12.5t11.5 37.5v120q0 24 -11 37t-28 13q-16 0 -26 -12.5t-10 -35.5v-77q0 -32 -6 -45h-135v10q6 19 6 53v20q0 93 47.5 147.5t134.5 54.5
q85 0 131.5 -55t46.5 -148q0 -71 -29.5 -118t-70.5 -68v-10q46 -24 74 -70.5t28 -130.5q0 -104 -47.5 -162t-131.5 -58q-88 0 -136.5 56.5t-48.5 158.5v33q0 34 -6 52v10z" />
    <glyph glyph-name="four" unicode="4" horiz-adv-x="364" 
d="M4 280l170 520h170v-800h-150v175h-190v105zM194 300v215h-10l-65 -215h75z" />
    <glyph glyph-name="five" unicode="5" horiz-adv-x="389" 
d="M8 275h140q6 -13 6 -47v-72q0 -23 10 -37t27 -14q18 0 28 13t10 38v208q0 24 -11 37.5t-29 13.5q-35 0 -50 -50h-125l15 435h340v-125h-201l-8 -205h10q23 65 85 65q57 0 90.5 -58.5t33.5 -152.5v-84q0 -121 -49 -185.5t-132 -64.5q-88 0 -136 58t-48 163q0 35 -6 54v10z
" />
    <glyph glyph-name="six" unicode="6" horiz-adv-x="407" 
d="M14 435q0 194 51.5 284.5t150.5 90.5q82 0 125 -55t43 -150q0 -40 5 -60v-10h-129q-6 20 -6 46v63q0 21 -10 33.5t-28 12.5q-19 0 -30.5 -13.5t-11.5 -37.5v-209h10q24 60 85 60q60 0 95 -60.5t35 -145.5v-44q0 -73 -22 -129.5t-63.5 -88.5t-97.5 -32q-96 0 -149 87.5
t-53 272.5v85zM185 123.5q11 -13.5 29 -13.5t29 13.5t11 37.5v158q0 24 -11 37.5t-29 13.5t-29 -13.5t-11 -37.5v-158q0 -24 11 -37.5z" />
    <glyph glyph-name="seven" unicode="7" horiz-adv-x="351" 
d="M8 800h335v-95l-147 -705h-148v10l144 665h-184v125z" />
    <glyph glyph-name="eight" unicode="8" horiz-adv-x="406" 
d="M37.5 334q29.5 52 70.5 72v10q-40 26 -67.5 72t-27.5 117q0 61 25.5 107.5t68.5 72t96 25.5t96 -25.5t68.5 -72t25.5 -107.5q0 -71 -27.5 -117t-67.5 -72v-10q41 -20 70.5 -72t29.5 -131q0 -64 -25.5 -112t-70 -74.5t-99.5 -26.5t-99.5 26.5t-70 74.5t-25.5 112
q0 79 29.5 131zM203 465q40 0 40 60v110q0 60 -40 60t-40 -60v-110q0 -60 40 -60zM174 119.5q11 -14.5 29 -14.5t29 14.5t11 45.5v125q0 31 -11 45.5t-29 14.5t-29 -14.5t-11 -45.5v-125q0 -31 11 -45.5z" />
    <glyph glyph-name="nine" unicode="9" horiz-adv-x="413" 
d="M399 365q0 -194 -50.5 -284.5t-147.5 -90.5q-83 0 -127.5 55t-44.5 150q0 40 -5 60v10h129q6 -19 6 -46v-63q0 -21 10 -33.5t28 -12.5q19 0 30.5 13.5t11.5 37.5v209h-10q-24 -60 -85 -60q-60 0 -95 60.5t-35 145.5v44q0 73 22 129.5t63.5 88.5t97.5 32q96 0 149 -87.5
t53 -272.5v-85zM228 676.5q-11 13.5 -29 13.5t-29 -13.5t-11 -37.5v-158q0 -24 11 -37.5t29 -13.5t29 13.5t11 37.5v158q0 24 -11 37.5z" />
    <glyph glyph-name="colon" unicode=":" horiz-adv-x="175" 
d="M145 640v-160h-115v160h115zM145 160v-160h-115v160h115z" />
    <glyph glyph-name="semicolon" unicode=";" horiz-adv-x="175" 
d="M145 640v-160h-115v160h115zM30 160h115v-155l-55 -165h-40v10l25 150h-45v160z" />
    <glyph glyph-name="less" unicode="&#x3c;" horiz-adv-x="404" 
d="M379 576v-116l-213 -60v-10l213 -60v-116h-10l-344 121v120l344 121h10z" />
    <glyph glyph-name="equal" unicode="=" horiz-adv-x="404" 
d="M379 545v-120h-354v120h354zM379 365v-120h-354v120h354z" />
    <glyph glyph-name="greater" unicode="&#x3e;" horiz-adv-x="404" 
d="M379 455v-120l-344 -121h-10v116l213 60v10l-213 60v116h10z" />
    <glyph glyph-name="question" unicode="?" horiz-adv-x="329" 
d="M63 237q-39 42 -39 105q0 53 23 97.5t68 91.5q40 42 59.5 74.5t19.5 65.5q0 20 -8 32t-24 12t-24.5 -12t-8.5 -34v-44q0 -23 -5 -40h-114v10q4 13 4 46q0 81 39.5 125t110.5 44t110.5 -42t39.5 -113q0 -57 -26 -101.5t-75 -95.5q-41 -43 -57.5 -69.5t-16.5 -57.5
q0 -20 7.5 -30.5t20.5 -10.5q27 0 27 39v21q0 28 5 40h109v-10q-4 -13 -4 -40q0 -62 -37 -103.5t-101 -41.5t-103 42zM222 160v-160h-115v160h115z" />
    <glyph glyph-name="at" unicode="@" horiz-adv-x="740" 
d="M20 470q0 166 86.5 248t235.5 82h66q148 0 230 -81.5t82 -248.5v-275q0 -87 -33.5 -136t-106.5 -49q-100 0 -130 90h-10q-8 -39 -32 -64.5t-69 -25.5q-69 0 -101.5 49t-32.5 136v260q0 87 32.5 136t101.5 49q45 0 69 -25.5t32 -64.5h10l15 80h70v-465q0 -25 7 -37.5
t23 -12.5t23 12.5t7 37.5v315q0 107 -48.5 161t-148.5 54h-56q-100 0 -148.5 -54t-48.5 -161v-310q0 -108 48.5 -161.5t148.5 -53.5h223v-105h-223q-149 0 -235.5 82t-86.5 248v290zM347 127.5q7 -12.5 23 -12.5t23 12.5t7 37.5v320q0 25 -7 37.5t-23 12.5t-23 -12.5
t-7 -37.5v-320q0 -25 7 -37.5z" />
    <glyph glyph-name="A" unicode="A" horiz-adv-x="380" 
d="M300 800l75 -790v-10h-140l-17 190h-56l-17 -190h-140v10l75 790h220zM217 320l-22 275h-10l-22 -275h54z" />
    <glyph glyph-name="B" unicode="B" horiz-adv-x="408" 
d="M163 800q63 0 116 -23.5t84.5 -69.5t31.5 -112q0 -133 -120 -185v-10q54 -19 89.5 -64t35.5 -123q0 -69 -29.5 -117t-80 -72t-112.5 -24h-158v800h143zM170 460h10q27 0 43.5 20t16.5 60v60q0 40 -16.5 60t-43.5 20h-10v-220zM170 120h10q28 0 46.5 21t18.5 64v50
q0 43 -18.5 64t-46.5 21h-10v-220z" />
    <glyph glyph-name="C" unicode="C" horiz-adv-x="417" 
d="M66.5 720q52.5 90 153.5 90q89 0 136.5 -65.5t47.5 -179.5q0 -35 5 -55v-10h-150q-5 17 -5 45v99q0 22 -9 34t-27 12t-28.5 -13.5t-10.5 -37.5v-473q0 -24 10.5 -37.5t28.5 -13.5t27 12.5t9 33.5v99q0 28 5 45h150v-10q-5 -18 -5 -60q0 -114 -47.5 -179.5t-136.5 -65.5
q-101 0 -153.5 90t-52.5 290v60q0 200 52.5 290z" />
    <glyph glyph-name="D" unicode="D" horiz-adv-x="404" 
d="M160 800q112 0 171 -79.5t59 -250.5v-140q0 -171 -59 -250.5t-171 -79.5h-140v800h140zM165 125h15q29 0 44.5 19t15.5 52v413q0 33 -15.5 52t-44.5 19h-15v-555z" />
    <glyph glyph-name="E" unicode="E" horiz-adv-x="302" 
d="M20 800h270v-130h-120v-200h105v-130h-105v-210h120v-130h-270v800z" />
    <glyph glyph-name="F" unicode="F" horiz-adv-x="298" 
d="M20 800h270v-130h-120v-200h100v-130h-100v-340h-150v800z" />
    <glyph glyph-name="G" unicode="G" horiz-adv-x="419" 
d="M222 810q88 0 135 -67.5t47 -182.5q0 -35 5 -55v-10h-150q-5 17 -5 45v104q0 22 -9 34t-27 12t-28.5 -13.5t-10.5 -37.5v-473q0 -24 10.5 -37.5t28.5 -13.5t27 12.5t9 33.5v164h145v-325h-70l-25 103h-10q-6 -50 -33 -81.5t-80 -31.5q-42 0 -80 29.5t-62.5 100
t-24.5 185.5v125q0 380 208 380z" />
    <glyph glyph-name="H" unicode="H" horiz-adv-x="395" 
d="M165 800v-330h65v330h145v-800h-145v340h-65v-340h-145v800h145z" />
    <glyph glyph-name="I" unicode="I" horiz-adv-x="190" 
d="M170 800v-800h-150v800h150z" />
    <glyph glyph-name="J" unicode="J" horiz-adv-x="300" 
d="M20 130h74q22 0 31.5 10t9.5 31v499h-115v130h260v-635q0 -79 -37 -124.5t-113 -45.5q-55 0 -120 10z" />
    <glyph glyph-name="K" unicode="K" horiz-adv-x="385" 
d="M170 800l-7 -267h10l67 267h140v-10l-90 -380v-10l95 -390v-10h-145l-67 272h-10l7 -272h-150v800h150z" />
    <glyph glyph-name="L" unicode="L" horiz-adv-x="303" 
d="M170 800v-670h125v-130h-275v800h150z" />
    <glyph glyph-name="M" unicode="M" horiz-adv-x="510" 
d="M185 800l65 -430h10l65 430h165v-800h-130l10 370h-10l-55 -370h-100l-55 370h-10l10 -370h-130v800h165z" />
    <glyph glyph-name="N" unicode="N" horiz-adv-x="390" 
d="M150 800l85 -400h10l-15 400h140v-800h-130l-85 400h-10l15 -400h-140v800h130z" />
    <glyph glyph-name="O" unicode="O" horiz-adv-x="438" 
d="M14 430q0 200 52 290t153 90t153 -90t52 -290v-60q0 -200 -52 -290t-153 -90t-153 90t-52 290v60zM179 166q0 -24 11 -37.5t29 -13.5t29 13.5t11 37.5v473q0 24 -11 37.5t-29 13.5t-29 -13.5t-11 -37.5v-473z" />
    <glyph glyph-name="P" unicode="P" horiz-adv-x="403" 
d="M168 800q63 0 114.5 -28t82 -84t30.5 -138v-20q0 -82 -30.5 -138t-81.5 -84t-113 -28v-280h-150v800h148zM170 400h10q65 0 65 80v120q0 80 -65 80h-10v-280z" />
    <glyph glyph-name="Q" unicode="Q" horiz-adv-x="438" 
d="M392.5 127q-31.5 -88 -92.5 -119l44 -88v-10h-135l-9 81q-92 8 -139 98.5t-47 280.5v60q0 200 52 290t153 90t153 -90t52 -290v-60q0 -155 -31.5 -243zM190 128.5q11 -13.5 29 -13.5t29 13.5t11 37.5v473q0 24 -11 37.5t-29 13.5t-29 -13.5t-11 -37.5v-473
q0 -24 11 -37.5z" />
    <glyph glyph-name="R" unicode="R" horiz-adv-x="398" 
d="M168 800q64 0 114 -29t79 -83.5t29 -130.5q0 -72 -20.5 -119.5t-64.5 -90.5l75 -337v-10h-145l-57 300h-15l7 -300h-150v800h148zM170 410h5q28 0 46.5 21t18.5 59v110q0 38 -18.5 59t-46.5 21h-5v-270z" />
    <glyph glyph-name="S" unicode="S" horiz-adv-x="384" 
d="M4 275h137q6 -12 6 -45v-74q0 -23 10 -37t27 -14q18 0 28 13.5t10 35.5v15q0 37 -22 77t-64 95l-29 38q-53 69 -74.5 120.5t-21.5 115.5q0 87 49 141t133 54q85 0 131.5 -55.5t46.5 -151.5q0 -39 6 -58v-10h-135q-6 17 -6 45v67q0 23 -10 35.5t-26 12.5q-17 0 -28 -13
t-11 -37v-15q0 -34 17.5 -66t57.5 -82l30 -38q55 -70 80.5 -127t25.5 -127q0 -92 -48 -146t-130 -54q-91 0 -137.5 56.5t-46.5 162.5q0 38 -6 56v10z" />
    <glyph glyph-name="T" unicode="T" horiz-adv-x="366" 
d="M358 800v-130h-100v-670h-150v670h-100v130h350z" />
    <glyph glyph-name="U" unicode="U" horiz-adv-x="410" 
d="M390 800v-600q0 -98 -49.5 -154t-135.5 -56t-135.5 56t-49.5 154v600h150v-639q0 -51 35 -51t35 51v639h150z" />
    <glyph glyph-name="V" unicode="V" horiz-adv-x="380" 
d="M5 790v10h150l30 -425h10l30 425h150v-10l-80 -790h-210z" />
    <glyph glyph-name="W" unicode="W" horiz-adv-x="490" 
d="M135 800l20 -450h10l30 450h100l30 -450h10l20 450h125v-10l-45 -790h-155l-30 350h-10l-30 -350h-155l-45 790v10h125z" />
    <glyph glyph-name="X" unicode="X" horiz-adv-x="390" 
d="M5 10l60 390v10l-55 380v10h140l40 -267h10l40 267h140v-10l-55 -380v-10l60 -390v-10h-145l-40 272h-10l-40 -272h-145v10z" />
    <glyph glyph-name="Y" unicode="Y" horiz-adv-x="370" 
d="M105 285l-100 505v10h140l35 -247h10l35 247h140v-10l-100 -505v-285h-160v285z" />
    <glyph glyph-name="Z" unicode="Z" horiz-adv-x="385" 
d="M15 115l195 560h-195v125h355v-115l-195 -560h195v-125h-355v115z" />
    <glyph glyph-name="bracketleft" unicode="[" horiz-adv-x="230" 
d="M150 780v-850h80v-80h-205v1010h205v-80h-80z" />
    <glyph glyph-name="backslash" unicode="\" horiz-adv-x="285" 
d="M280 -210v-10h-130l-145 1010v10h130z" />
    <glyph glyph-name="bracketright" unicode="]" horiz-adv-x="230" 
d="M205 -150h-205v80h80v850h-80v80h205v-1010z" />
    <glyph glyph-name="asciicircum" unicode="^" horiz-adv-x="350" 
d="M20 490l105 310h100l105 -310v-10h-105l-45 165h-10l-45 -165h-105v10z" />
    <glyph glyph-name="underscore" unicode="_" horiz-adv-x="395" 
d="M370 -40v-100h-345v100h345z" />
    <glyph glyph-name="grave" unicode="`" horiz-adv-x="185" 
d="M75 685l-55 105v10h125l20 -105v-10h-90z" />
    <glyph glyph-name="a" unicode="a" 
d="M22 465q0 86 35 135.5t104 49.5q45 0 71.5 -26t34.5 -64h10l15 80h70v-640h-100l-10 70h-10q-8 -34 -31 -57t-65 -23q-65 0 -94.5 49t-29.5 136v290zM166 108q9 -13 26 -13t26 13t9 38v348q0 25 -9 38t-26 13t-26 -13t-9 -38v-348q0 -25 9 -38z" />
    <glyph glyph-name="b" unicode="b" 
d="M160 800v-205h10q19 55 80 55q54 0 84.5 -43.5t30.5 -131.5v-300q0 -86 -35 -135.5t-104 -49.5q-45 0 -71.5 26t-34.5 64h-10l-15 -80h-70v800h135zM160 146q0 -25 9 -38t26 -13t26 13t9 38v348q0 25 -9 38t-26 13t-26 -13t-9 -38v-348z" />
    <glyph glyph-name="c" unicode="c" horiz-adv-x="362" 
d="M60.5 578.5q46.5 71.5 133.5 71.5q75 0 115 -50.5t40 -129.5q0 -35 5 -55v-10h-124q-6 17 -6 55v44q0 25 -9 38t-26 13t-26 -13t-9 -38v-368q0 -25 9 -38t26 -13t26 13t9 38v49q0 38 6 55h124v-10q-5 -17 -5 -55q0 -80 -40 -132.5t-115 -52.5q-87 0 -133.5 71.5
t-46.5 188.5v140q0 117 46.5 188.5z" />
    <glyph glyph-name="d" unicode="d" 
d="M22 475q0 88 30.5 131.5t84.5 43.5q61 0 80 -55h10v205h135v-800h-100l-10 70h-10q-8 -34 -31 -57t-65 -23q-65 0 -94.5 49t-29.5 136v300zM166 108q9 -13 26 -13t26 13t9 38v348q0 25 -9 38t-26 13t-26 -13t-9 -38v-348q0 -25 9 -38z" />
    <glyph glyph-name="e" unicode="e" horiz-adv-x="362" 
d="M14 390q0 118 44 189t131 71q80 0 118.5 -54.5t38.5 -140.5v-140h-192v-179q0 -25 9.5 -38t26.5 -13q16 0 25 13t9 36v66q0 37 6 55h118v-10q-4 -24 -4 -65q0 -88 -40.5 -139t-117.5 -51q-80 0 -126 67t-46 183v150zM224 400v104q0 25 -9 38t-26 13t-26 -13t-9 -38v-104
h70z" />
    <glyph glyph-name="f" unicode="f" horiz-adv-x="291" 
d="M78 640v30q0 73 32 104t83 31q47 0 85 -20l-10 -70h-20q-19 0 -27 -9t-8 -31v-35h70v-85h-70v-555h-135v555h-70v85h70z" />
    <glyph glyph-name="g" unicode="g" horiz-adv-x="379" 
d="M14 465q0 86 35 135.5t104 49.5q45 0 71.5 -26t34.5 -64h10l15 80h70v-610q0 -86 -43 -138t-120 -52q-80 0 -121 47.5t-41 118.5q0 19 -4 34v10h119q5 -14 5 -48v-24q0 -23 9.5 -35.5t26.5 -12.5q34 0 34 49v161h-10q-19 -55 -80 -55q-54 0 -84.5 43.5t-30.5 131.5v205z
M158 203q9 -13 26 -13t26 13t9 38v253q0 25 -9 38t-26 13t-26 -13t-9 -38v-253q0 -25 9 -38z" />
    <glyph glyph-name="h" unicode="h" 
d="M160 800v-210h10q13 29 34.5 42t54.5 13q56 0 81 -41t25 -119v-485h-135v494q0 25 -9 38t-26 13t-26 -13t-9 -38v-494h-135v800h135z" />
    <glyph glyph-name="i" unicode="i" horiz-adv-x="185" 
d="M160 640v-640h-135v640h135zM165 800v-115h-145v115h145z" />
    <glyph glyph-name="j" unicode="j" horiz-adv-x="185" 
d="M160 -20q0 -73 -32 -104t-83 -31q-45 0 -83 15l8 80h20q19 0 27 9t8 31v660h135v-660zM165 800v-115h-145v115h145z" />
    <glyph glyph-name="k" unicode="k" horiz-adv-x="367" 
d="M160 800v-397h10l72 237h120v-10l-80 -300v-10l80 -310v-10h-120l-72 242h-10v-242h-135v800h135z" />
    <glyph glyph-name="l" unicode="l" horiz-adv-x="185" 
d="M160 800v-800h-135v800h135z" />
    <glyph glyph-name="m" unicode="m" horiz-adv-x="592" 
d="M110 640l10 -80h10q12 42 37.5 63.5t69.5 21.5t69.5 -23.5t29.5 -56.5h10q12 41 38.5 60.5t70.5 19.5q62 0 88.5 -43.5t26.5 -126.5v-475h-135v494q0 25 -9 38t-26 13t-26 -13t-9 -38v-494h-135v494q0 25 -9 38t-26 13t-26 -13t-9 -38v-494h-135v640h85z" />
    <glyph glyph-name="n" unicode="n" 
d="M25 640h90l10 -80h10q14 44 41 64.5t73 20.5q57 0 86.5 -41.5t29.5 -114.5v-489h-135v494q0 25 -8.5 38t-25.5 13t-26.5 -13.5t-9.5 -37.5v-494h-135v640z" />
    <glyph glyph-name="o" unicode="o" horiz-adv-x="378" 
d="M58 579q44 71 131 71t131 -71t44 -189v-140q0 -118 -44 -189t-131 -71t-131 71t-44 189v140q0 118 44 189zM154 136q0 -25 9 -38t26 -13t26 13t9 38v368q0 25 -9 38t-26 13t-26 -13t-9 -38v-368z" />
    <glyph glyph-name="p" unicode="p" 
d="M25 640h100l10 -70h10q8 34 31.5 57t64.5 23q65 0 94.5 -49t29.5 -136v-300q0 -88 -30.5 -131.5t-84.5 -43.5q-61 0 -80 55h-10v-195h-135v790zM169 108q9 -13 26 -13t26 13t9 38v348q0 25 -9 38t-26 13t-26 -13t-9 -38v-348q0 -25 9 -38z" />
    <glyph glyph-name="q" unicode="q" 
d="M22 465q0 86 35 135.5t104 49.5q45 0 71.5 -26t34.5 -64h10l15 80h70v-790h-135v195h-10q-19 -55 -80 -55q-54 0 -84.5 43.5t-30.5 131.5v300zM166 108q9 -13 26 -13t26 13t9 38v348q0 25 -9 38t-26 13t-26 -13t-9 -38v-348q0 -25 9 -38z" />
    <glyph glyph-name="r" unicode="r" horiz-adv-x="256" 
d="M120 640l10 -85h10q5 42 23.5 64.5t57.5 22.5h29v-125h-25q-34 0 -49.5 -17.5t-15.5 -60.5v-439h-135v640h95z" />
    <glyph glyph-name="s" unicode="s" horiz-adv-x="346" 
d="M289 607q43 -43 43 -122q0 -17 4 -30v-10h-114q-5 13 -5 40v19q0 51 -37 51q-18 0 -28 -12.5t-10 -34.5q0 -24 13.5 -45.5t30.5 -42t23 -27.5l19 -23q37 -45 57.5 -74t34.5 -65t14 -78q0 -75 -45 -119t-117 -44q-73 0 -116.5 45.5t-43.5 129.5q0 17 -4 30v10h116
q5 -12 5 -40v-30q0 -23 9.5 -36.5t28.5 -13.5t28 13t9 35q0 28 -16 55.5t-51 70.5q-4 6 -14 18l-18 23q-35 46 -52 70t-29 54.5t-12 65.5q0 74 45.5 117t115.5 43q73 0 116 -43z" />
    <glyph glyph-name="t" unicode="t" horiz-adv-x="283" 
d="M8 637q54 4 74.5 35t25.5 98h95v-130h70v-85h-70v-430q0 -22 8 -31t27 -9h21l8 -75q-37 -20 -84 -20q-51 0 -83 31t-32 104v430h-60v82z" />
    <glyph glyph-name="u" unicode="u" 
d="M362 0h-90l-10 80h-10q-14 -44 -41 -64.5t-73 -20.5q-57 0 -86.5 41.5t-29.5 114.5v489h135v-494q0 -25 9 -38t25 -13q17 0 26.5 13.5t9.5 37.5v494h135v-640z" />
    <glyph glyph-name="v" unicode="v" horiz-adv-x="338" 
d="M4 630v10h125l35 -360h10l35 360h125v-10l-85 -630h-160z" />
    <glyph glyph-name="w" unicode="w" horiz-adv-x="452" 
d="M6 640h110l23 -330h10l32 330h90l32 -330h10l23 330h110v-10l-65 -630h-120l-30 310h-10l-30 -310h-120l-65 630v10z" />
    <glyph glyph-name="x" unicode="x" horiz-adv-x="356" 
d="M6 10l55 310v5l-55 305v10h125l42 -232h10l42 232h125v-10l-55 -305v-5l55 -310v-10h-125l-42 237h-10l-42 -237h-125v10z" />
    <glyph glyph-name="y" unicode="y" horiz-adv-x="338" 
d="M4 630v10h125l35 -360h10l35 360h125v-10l-106 -780h-117v10l32 215h-65z" />
    <glyph glyph-name="z" unicode="z" horiz-adv-x="318" 
d="M14 60l142 490h-142v90h290v-60l-142 -490h142v-90h-290v60z" />
    <glyph glyph-name="braceleft" unicode="{" horiz-adv-x="290" 
d="M110 350q54 0 82 -25t28 -80v-315h70v-80h-60q-65 0 -100 34t-35 101v270q0 31 -13.5 45.5t-46.5 14.5h-20v80h20q33 0 46.5 14.5t13.5 45.5v270q0 67 35 101t100 34h60v-80h-70v-315q0 -55 -28 -80t-82 -25v-10z" />
    <glyph glyph-name="bar" unicode="|" horiz-adv-x="165" 
d="M145 800v-950h-125v950h125z" />
    <glyph glyph-name="braceright" unicode="}" horiz-adv-x="290" 
d="M275 395v-80h-20q-33 0 -46.5 -14.5t-13.5 -45.5v-270q0 -67 -35 -101t-100 -34h-60v80h70v315q0 55 28 80t82 25v10q-54 0 -82 25t-28 80v315h-70v80h60q65 0 100 -34t35 -101v-270q0 -31 13.5 -45.5t46.5 -14.5h20z" />
    <glyph glyph-name="asciitilde" unicode="~" horiz-adv-x="404" 
d="M379 470v-45q0 -52 -18.5 -81t-63.5 -29q-21 0 -42 7t-55 21q-48 22 -69 22q-36 0 -36 -45h-70v45q0 52 18.5 81t63.5 29q21 0 42 -7t55 -21q48 -22 69 -22q36 0 36 45h70z" />
    <glyph glyph-name="exclamdown" unicode="&#xa1;" horiz-adv-x="185" 
d="M35 640h115v-160h-115v160zM30 40l35 395h55l35 -395v-200h-125v200z" />
    <glyph glyph-name="cent" unicode="&#xa2;" horiz-adv-x="362" 
d="M224 460v44q0 25 -9 38t-26 13t-26 -13t-9 -38v-368q0 -25 9 -38t26 -13t26 13t9 38v49q0 38 6 55h124v-10q-5 -17 -5 -55q0 -67 -28.5 -116.5t-83.5 -63.5v-80h-90v81q-65 19 -99 86.5t-34 167.5v140q0 100 34 167.5t99 86.5v81h90v-80q55 -14 83.5 -61t28.5 -114
q0 -35 5 -55v-10h-124q-6 17 -6 55z" />
    <glyph glyph-name="sterling" unicode="&#xa3;" horiz-adv-x="434" 
d="M268 560v87q0 24 -9.5 36t-27.5 12t-28 -13.5t-10 -38.5v-18q0 -29 5.5 -61.5t17.5 -84.5q6 -24 16 -74h81v-85h-70q2 -30 2 -45q0 -50 -11.5 -85t-35.5 -65h211v-125h-356v95q24 35 36.5 71t12.5 89q0 28 -5 65h-82v85h65l-11 48q-14 58 -20 91t-6 66q0 91 48.5 145.5
t133.5 54.5t131.5 -56.5t46.5 -156.5v-19q0 -35 6 -53v-10h-135q-6 17 -6 45z" />
    <glyph glyph-name="currency" unicode="&#xa4;" horiz-adv-x="638" 
d="M541 231l82 -81l-64 -64l-86 85q-72 -45 -154 -45t-154 45l-86 -85l-64 64l82 81q-60 75 -60 167t60 167l-82 81l64 64l86 -85q72 45 154 45t154 -45l86 85l64 -64l-82 -81q60 -75 60 -167t-60 -167zM399 257q36 21 56.5 58t20.5 83t-20.5 83t-56.5 58t-80 21t-80 -21
t-56.5 -58t-20.5 -83t20.5 -83t56.5 -58t80 -21t80 21z" />
    <glyph glyph-name="yen" unicode="&#xa5;" horiz-adv-x="390" 
d="M375 790l-65 -325h65v-85h-100v-60h100v-85h-100v-235h-160v235h-100v85h100v60h-100v85h65l-65 325v10h140l35 -247h10l35 247h140v-10z" />
    <glyph glyph-name="brokenbar" unicode="&#xa6;" horiz-adv-x="165" 
d="M20 800h125v-360h-125v360zM20 220h125v-370h-125v370z" />
    <glyph glyph-name="section" unicode="&#xa7;" horiz-adv-x="455" 
d="M423.5 186q-21.5 -35 -64.5 -66q30 -55 30 -117q0 -75 -45 -119t-117 -44q-73 0 -116.5 45.5t-43.5 129.5q0 27 -4 40v10h114q5 -12 5 -40v-40q0 -23 10 -36.5t29 -13.5t28.5 13.5t9.5 34.5q0 33 -20.5 66.5t-60.5 77.5l-60 65q-60 66 -84 108t-24 91q0 53 21.5 88
t63.5 65q-27 51 -27 106q0 75 44.5 117.5t114.5 42.5q73 0 116 -43t43 -122q0 -27 4 -40v-10h-114q-5 13 -5 40v29q0 51 -37 51q-18 0 -28 -12.5t-10 -34.5q0 -27 16.5 -52.5t50.5 -62.5l74 -80q60 -66 84 -108t24 -91q0 -53 -21.5 -88zM308 191q18 20 18 46q0 23 -9 42.5
t-36 48.5l-134 146q-18 -20 -18 -46q0 -23 9 -42.5t36 -48.5z" />
    <glyph glyph-name="dieresis" unicode="&#xa8;" horiz-adv-x="310" 
d="M140 800v-115h-120v115h120zM290 800v-115h-120v115h120z" />
    <glyph glyph-name="copyright" unicode="&#xa9;" horiz-adv-x="734" 
d="M20 495q0 112 42.5 191t118 119t171.5 40h30q96 0 171.5 -40t118 -119t42.5 -191v-190q0 -112 -42.5 -191t-118 -119t-171.5 -40h-30q-96 0 -171.5 40t-118 119t-42.5 191v190zM197 122.5q52 -62.5 155 -62.5h30q103 0 155 63t52 172v210q0 110 -52 172.5t-155 62.5h-30
q-103 0 -155 -63t-52 -172v-210q0 -110 52 -172.5zM243.5 608.5q46.5 71.5 133.5 71.5q74 0 111.5 -47t37.5 -113q0 -35 5 -55v-10h-118q-6 17 -6 55v24q0 25 -9 38t-26 13t-26 -13t-9 -38v-268q0 -25 9 -38t26 -13t26 13t9 38v29q0 38 6 55h118v-10q-5 -17 -5 -55
q0 -67 -38 -116t-111 -49q-87 0 -133.5 71.5t-46.5 188.5v40q0 117 46.5 188.5z" />
    <glyph glyph-name="guillemotleft" unicode="&#xab;" horiz-adv-x="315" 
d="M170 525v-10l-65 -185v-10l65 -185v-10h-95l-70 195v10l70 195h95zM305 525v-10l-65 -185v-10l65 -185v-10h-95l-70 195v10l70 195h95z" />
    <glyph glyph-name="registered" unicode="&#xae;" horiz-adv-x="734" 
d="M20 495q0 112 42.5 191t118 119t171.5 40h30q96 0 171.5 -40t118 -119t42.5 -191v-190q0 -112 -42.5 -191t-118 -119t-171.5 -40h-30q-96 0 -171.5 40t-118 119t-42.5 191v190zM197 122.5q52 -62.5 155 -62.5h30q103 0 155 63t52 172v210q0 110 -52 172.5t-155 62.5h-30
q-103 0 -155 -63t-52 -172v-210q0 -110 52 -172.5zM368 670q77 0 124 -45t47 -123q0 -51 -16 -83t-44 -62l44 -217v-10h-124l-31 196h-15l6 -196h-125v540h134zM359 411h17q43 0 43 59v46q0 59 -43 59h-17v-164z" />
    <glyph glyph-name="macron" unicode="&#xaf;" horiz-adv-x="285" 
d="M265 770v-80h-245v80h245z" />
    <glyph glyph-name="degree" unicode="&#xb0;" horiz-adv-x="270" 
d="M47.5 533q-32.5 43 -32.5 117t32.5 117t87.5 43t87.5 -43t32.5 -117t-32.5 -117t-87.5 -43t-87.5 43zM155 610v80q0 35 -20 35t-20 -35v-80q0 -35 20 -35t20 35z" />
    <glyph glyph-name="plusminus" unicode="&#xb1;" horiz-adv-x="404" 
d="M379 455v-120h-112v-142h-130v142h-112v120h112v143h130v-143h112zM25 120h354v-120h-354v120z" />
    <glyph glyph-name="acute" unicode="&#xb4;" horiz-adv-x="185" 
d="M20 695l20 105h125v-10l-55 -105h-90v10z" />
    <glyph glyph-name="paragraph" unicode="&#xb6;" horiz-adv-x="611" 
d="M603 670h-60v-670h-125v670h-80v-670h-125v330q-57 0 -103.5 26t-74 79t-27.5 130t27.5 130t74.5 79t105 26h388v-130z" />
    <glyph glyph-name="periodcentered" unicode="&#xb7;" horiz-adv-x="175" 
d="M145 420v-160h-115v160h115z" />
    <glyph glyph-name="cedilla" unicode="&#xb8;" horiz-adv-x="240" 
d="M120 0v-50h10q13 21 42 21q21 0 34.5 -13.5t13.5 -37.5q0 -50 -56.5 -79t-133.5 -36h-10v70h62q47 0 47 26q0 17 -23 17h-38v82h52z" />
    <glyph glyph-name="guillemotright" unicode="&#xbb;" horiz-adv-x="315" 
d="M175 330v-10l-70 -195h-95v10l65 185v10l-65 185v10h95zM310 330v-10l-70 -195h-95v10l65 185v10l-65 185v10h95z" />
    <glyph glyph-name="questiondown" unicode="&#xbf;" horiz-adv-x="329" 
d="M107 480v160h115v-160h-115zM266 403q39 -42 39 -105q0 -48 -23 -88.5t-70 -90.5q-40 -43 -58.5 -75t-18.5 -65q0 -20 8 -32t24 -12t24.5 12t8.5 34v44q0 23 5 40h114v-10q-4 -13 -4 -46q0 -81 -39.5 -125t-110.5 -44t-110.5 42t-39.5 113q0 56 25.5 98.5t75.5 93.5
q41 41 57.5 67.5t16.5 54.5q0 20 -7.5 30.5t-20.5 10.5q-27 0 -27 -39v-21q0 -27 -5 -40h-109v10q4 13 4 40q0 62 37 103.5t101 41.5t103 -42z" />
    <glyph glyph-name="Agrave" unicode="&#xc0;" horiz-adv-x="380" 
d="M300 800l75 -790v-10h-140l-17 190h-56l-17 -190h-140v10l75 790h220zM217 320l-22 275h-10l-22 -275h54zM161 830l-75 95v10h135l40 -95v-10h-100z" />
    <glyph glyph-name="Aacute" unicode="&#xc1;" horiz-adv-x="380" 
d="M300 800l75 -790v-10h-140l-17 190h-56l-17 -190h-140v10l75 790h220zM217 320l-22 275h-10l-22 -275h54zM120 840l40 95h135v-10l-75 -95h-100v10z" />
    <glyph glyph-name="Acircumflex" unicode="&#xc2;" horiz-adv-x="380" 
d="M300 800l75 -790v-10h-140l-17 190h-56l-17 -190h-140v10l75 790h220zM217 320l-22 275h-10l-22 -275h54zM55 840l65 95h140l65 -95v-10h-100l-30 45h-10l-30 -45h-100v10z" />
    <glyph glyph-name="Atilde" unicode="&#xc3;" horiz-adv-x="380" 
d="M300 800l75 -790v-10h-140l-17 190h-56l-17 -190h-140v10l75 790h220zM217 320l-22 275h-10l-22 -275h54zM323 935v-20q0 -40 -17.5 -65t-54.5 -25q-22 0 -37.5 6t-34.5 18q-2 1 -10.5 6t-16 7.5t-14.5 2.5q-17 0 -24 -9t-7 -26h-50v20q0 40 17.5 65t54.5 25
q22 0 37.5 -6t34.5 -18q2 -1 10.5 -6t16 -7.5t14.5 -2.5q17 0 24 9t7 26h50z" />
    <glyph glyph-name="Adieresis" unicode="&#xc4;" horiz-adv-x="380" 
d="M300 800l75 -790v-10h-140l-17 190h-56l-17 -190h-140v10l75 790h220zM217 320l-22 275h-10l-22 -275h54zM172 935v-105h-125v105h125zM333 935v-105h-125v105h125z" />
    <glyph glyph-name="Aring" unicode="&#xc5;" horiz-adv-x="380" 
d="M300 800l75 -790v-10h-140l-17 190h-56l-17 -190h-140v10l75 790h220zM217 320l-22 275h-10l-22 -275h54zM129.5 838q-24.5 23 -24.5 57t24.5 57t60.5 23t60.5 -23t24.5 -57t-24.5 -57t-60.5 -23t-60.5 23zM208 877q7 7 7 18t-7 18t-18 7t-18 -7t-7 -18t7 -18t18 -7t18 7
z" />
    <glyph glyph-name="AE" unicode="&#xc6;" horiz-adv-x="467" 
d="M455 800v-130h-110v-200h95v-130h-95v-210h110v-130h-260v190h-38l-12 -190h-140v10l75 790h375zM195 320v350h-10l-27 -350h37z" />
    <glyph glyph-name="Ccedilla" unicode="&#xc7;" horiz-adv-x="417" 
d="M254 545v99q0 22 -9 34t-27 12t-28.5 -13.5t-10.5 -37.5v-473q0 -24 10.5 -37.5t28.5 -13.5t27 12.5t9 33.5v99q0 28 5 45h150v-10q-5 -18 -5 -60q0 -105 -41 -169t-117 -74v-42h10q13 21 42 21q21 0 34.5 -13.5t13.5 -37.5q0 -50 -56.5 -79t-133.5 -36h-10v70h62
q47 0 47 26q0 17 -23 17h-38v74q-88 10 -134 100.5t-46 277.5v60q0 200 52.5 290t153.5 90q89 0 136.5 -65.5t47.5 -179.5q0 -35 5 -55v-10h-150q-5 17 -5 45z" />
    <glyph glyph-name="Egrave" unicode="&#xc8;" horiz-adv-x="302" 
d="M20 800h270v-130h-120v-200h105v-130h-105v-210h120v-130h-270v800zM121 830l-75 95v10h135l40 -95v-10h-100z" />
    <glyph glyph-name="Eacute" unicode="&#xc9;" horiz-adv-x="302" 
d="M20 800h270v-130h-120v-200h105v-130h-105v-210h120v-130h-270v800zM80 840l40 95h135v-10l-75 -95h-100v10z" />
    <glyph glyph-name="Ecircumflex" unicode="&#xca;" horiz-adv-x="302" 
d="M20 800h270v-130h-120v-200h105v-130h-105v-210h120v-130h-270v800zM15 840l65 95h140l65 -95v-10h-100l-30 45h-10l-30 -45h-100v10z" />
    <glyph glyph-name="Edieresis" unicode="&#xcb;" horiz-adv-x="302" 
d="M20 800h270v-130h-120v-200h105v-130h-105v-210h120v-130h-270v800zM132 935v-105h-125v105h125zM293 935v-105h-125v105h125z" />
    <glyph glyph-name="Igrave" unicode="&#xcc;" horiz-adv-x="190" 
d="M170 800v-800h-150v800h150zM66 830l-75 95v10h135l40 -95v-10h-100z" />
    <glyph glyph-name="Iacute" unicode="&#xcd;" horiz-adv-x="190" 
d="M170 800v-800h-150v800h150zM25 840l40 95h135v-10l-75 -95h-100v10z" />
    <glyph glyph-name="Icircumflex" unicode="&#xce;" horiz-adv-x="190" 
d="M170 800v-800h-150v800h150zM-40 840l65 95h140l65 -95v-10h-100l-30 45h-10l-30 -45h-100v10z" />
    <glyph glyph-name="Idieresis" unicode="&#xcf;" horiz-adv-x="190" 
d="M170 800v-800h-150v800h150zM77 935v-105h-125v105h125zM238 935v-105h-125v105h125z" />
    <glyph glyph-name="Eth" unicode="&#xd0;" horiz-adv-x="434" 
d="M361 720.5q59 -79.5 59 -250.5v-140q0 -171 -59 -250.5t-171 -79.5h-140v380h-50v60h50v360h140q112 0 171 -79.5zM270 609q0 33 -15.5 52t-44.5 19h-15v-240h50v-60h-50v-255h15q29 0 44.5 19t15.5 52v413z" />
    <glyph glyph-name="Ntilde" unicode="&#xd1;" horiz-adv-x="390" 
d="M150 800l85 -400h10l-15 400h140v-800h-130l-85 400h-10l15 -400h-140v800h130zM331 960v-30q0 -40 -17.5 -65t-54.5 -25q-22 0 -37 7t-33 19q-13 10 -22.5 14.5t-20.5 4.5q-17 0 -24 -9.5t-7 -30.5h-50v30q0 40 17.5 65t54.5 25q22 0 37 -7t33 -19q13 -10 22.5 -14.5
t20.5 -4.5q17 0 24 9.5t7 30.5h50z" />
    <glyph glyph-name="Ograve" unicode="&#xd2;" horiz-adv-x="438" 
d="M14 430q0 200 52 290t153 90t153 -90t52 -290v-60q0 -200 -52 -290t-153 -90t-153 90t-52 290v60zM179 166q0 -24 11 -37.5t29 -13.5t29 13.5t11 37.5v473q0 24 -11 37.5t-29 13.5t-29 -13.5t-11 -37.5v-473zM190 830l-75 95v10h135l40 -95v-10h-100z" />
    <glyph glyph-name="Oacute" unicode="&#xd3;" horiz-adv-x="438" 
d="M14 430q0 200 52 290t153 90t153 -90t52 -290v-60q0 -200 -52 -290t-153 -90t-153 90t-52 290v60zM179 166q0 -24 11 -37.5t29 -13.5t29 13.5t11 37.5v473q0 24 -11 37.5t-29 13.5t-29 -13.5t-11 -37.5v-473zM149 840l40 95h135v-10l-75 -95h-100v10z" />
    <glyph glyph-name="Ocircumflex" unicode="&#xd4;" horiz-adv-x="438" 
d="M14 430q0 200 52 290t153 90t153 -90t52 -290v-60q0 -200 -52 -290t-153 -90t-153 90t-52 290v60zM179 166q0 -24 11 -37.5t29 -13.5t29 13.5t11 37.5v473q0 24 -11 37.5t-29 13.5t-29 -13.5t-11 -37.5v-473zM84 840l65 95h140l65 -95v-10h-100l-30 45h-10l-30 -45h-100
v10z" />
    <glyph glyph-name="Otilde" unicode="&#xd5;" horiz-adv-x="438" 
d="M14 430q0 200 52 290t153 90t153 -90t52 -290v-60q0 -200 -52 -290t-153 -90t-153 90t-52 290v60zM179 166q0 -24 11 -37.5t29 -13.5t29 13.5t11 37.5v473q0 24 -11 37.5t-29 13.5t-29 -13.5t-11 -37.5v-473zM352 935v-20q0 -40 -17.5 -65t-54.5 -25q-22 0 -37.5 6
t-34.5 18q-2 1 -10.5 6t-16 7.5t-14.5 2.5q-17 0 -24 -9t-7 -26h-50v20q0 40 17.5 65t54.5 25q22 0 37.5 -6t34.5 -18q2 -1 10.5 -6t16 -7.5t14.5 -2.5q17 0 24 9t7 26h50z" />
    <glyph glyph-name="Odieresis" unicode="&#xd6;" horiz-adv-x="438" 
d="M14 430q0 200 52 290t153 90t153 -90t52 -290v-60q0 -200 -52 -290t-153 -90t-153 90t-52 290v60zM179 166q0 -24 11 -37.5t29 -13.5t29 13.5t11 37.5v473q0 24 -11 37.5t-29 13.5t-29 -13.5t-11 -37.5v-473zM201 935v-105h-125v105h125zM362 935v-105h-125v105h125z" />
    <glyph glyph-name="multiply" unicode="&#xd7;" horiz-adv-x="404" 
d="M286 395l93 -94l-84 -84l-93 94l-93 -93l-84 84l93 93l-92 93l84 84l92 -93l93 92l84 -84z" />
    <glyph glyph-name="Oslash" unicode="&#xd8;" horiz-adv-x="438" 
d="M424 430v-60q0 -200 -52 -290t-153 -90q-78 0 -126 52l-18 -42h-54v10l36 87q-43 94 -43 273v60q0 200 52 290t153 90q78 0 126 -52l18 42h54v-10l-36 -87q43 -94 43 -273zM179 390h10l70 170v79q0 24 -11 37.5t-29 13.5t-29 -13.5t-11 -37.5v-249zM259 410h-10l-69 -170
l-1 -2v-72q0 -24 11 -37.5t29 -13.5t29 13.5t11 37.5v244z" />
    <glyph glyph-name="Ugrave" unicode="&#xd9;" horiz-adv-x="410" 
d="M390 800v-600q0 -98 -49.5 -154t-135.5 -56t-135.5 56t-49.5 154v600h150v-639q0 -51 35 -51t35 51v639h150zM176 830l-75 95v10h135l40 -95v-10h-100z" />
    <glyph glyph-name="Uacute" unicode="&#xda;" horiz-adv-x="410" 
d="M390 800v-600q0 -98 -49.5 -154t-135.5 -56t-135.5 56t-49.5 154v600h150v-639q0 -51 35 -51t35 51v639h150zM135 840l40 95h135v-10l-75 -95h-100v10z" />
    <glyph glyph-name="Ucircumflex" unicode="&#xdb;" horiz-adv-x="410" 
d="M390 800v-600q0 -98 -49.5 -154t-135.5 -56t-135.5 56t-49.5 154v600h150v-639q0 -51 35 -51t35 51v639h150zM70 840l65 95h140l65 -95v-10h-100l-30 45h-10l-30 -45h-100v10z" />
    <glyph glyph-name="Udieresis" unicode="&#xdc;" horiz-adv-x="410" 
d="M390 800v-600q0 -98 -49.5 -154t-135.5 -56t-135.5 56t-49.5 154v600h150v-639q0 -51 35 -51t35 51v639h150zM187 935v-105h-125v105h125zM348 935v-105h-125v105h125z" />
    <glyph glyph-name="Yacute" unicode="&#xdd;" horiz-adv-x="370" 
d="M105 285l-100 505v10h140l35 -247h10l35 247h140v-10l-100 -505v-285h-160v285zM115 840l40 95h135v-10l-75 -95h-100v10z" />
    <glyph glyph-name="Thorn" unicode="&#xde;" horiz-adv-x="403" 
d="M170 800v-130q62 -1 113.5 -28.5t81.5 -84t30 -137.5v-20q0 -82 -30.5 -138t-81.5 -84t-113 -28v-150h-150v800h150zM170 270h10q65 0 65 80v120q0 80 -65 80h-10v-280z" />
    <glyph glyph-name="germandbls" unicode="&#xdf;" horiz-adv-x="385" 
d="M25 570q0 121 45.5 180.5t132.5 59.5q77 0 117 -48t40 -119q0 -63 -25.5 -109.5t-65.5 -71.5v-10q43 -15 74.5 -64t31.5 -134v-30q0 -100 -44.5 -162t-125.5 -62h-15v85h5q40 0 40 51v223q0 51 -40 51h-5v85h5q17 0 26 13t9 38v118q0 25 -9 38t-26 13t-26 -13t-9 -38
v-664h-135v570z" />
    <glyph glyph-name="agrave" unicode="&#xe0;" 
d="M22 465q0 86 35 135.5t104 49.5q45 0 71.5 -26t34.5 -64h10l15 80h70v-640h-100l-10 70h-10q-8 -34 -31 -57t-65 -23q-65 0 -94.5 49t-29.5 136v290zM166 108q9 -13 26 -13t26 13t9 38v348q0 25 -9 38t-26 13t-26 -13t-9 -38v-348q0 -25 9 -38zM168 685l-55 105v10h125
l20 -105v-10h-90z" />
    <glyph glyph-name="aacute" unicode="&#xe1;" 
d="M22 465q0 86 35 135.5t104 49.5q45 0 71.5 -26t34.5 -64h10l15 80h70v-640h-100l-10 70h-10q-8 -34 -31 -57t-65 -23q-65 0 -94.5 49t-29.5 136v290zM166 108q9 -13 26 -13t26 13t9 38v348q0 25 -9 38t-26 13t-26 -13t-9 -38v-348q0 -25 9 -38zM147 695l20 105h125v-10
l-55 -105h-90v10z" />
    <glyph glyph-name="acircumflex" unicode="&#xe2;" 
d="M22 465q0 86 35 135.5t104 49.5q45 0 71.5 -26t34.5 -64h10l15 80h70v-640h-100l-10 70h-10q-8 -34 -31 -57t-65 -23q-65 0 -94.5 49t-29.5 136v290zM166 108q9 -13 26 -13t26 13t9 38v348q0 25 -9 38t-26 13t-26 -13t-9 -38v-348q0 -25 9 -38zM82 695l55 105h130
l55 -105v-10h-95l-20 55h-10l-20 -55h-95v10z" />
    <glyph glyph-name="atilde" unicode="&#xe3;" 
d="M22 465q0 86 35 135.5t104 49.5q45 0 71.5 -26t34.5 -64h10l15 80h70v-640h-100l-10 70h-10q-8 -34 -31 -57t-65 -23q-65 0 -94.5 49t-29.5 136v290zM166 108q9 -13 26 -13t26 13t9 38v348q0 25 -9 38t-26 13t-26 -13t-9 -38v-348q0 -25 9 -38zM335 800v-30
q0 -40 -17.5 -65t-54.5 -25q-22 0 -37 7t-33 19q-13 10 -22.5 14.5t-20.5 4.5q-17 0 -24 -9.5t-7 -30.5h-50v30q0 40 17.5 65t54.5 25q22 0 37 -7t33 -19q13 -10 22.5 -14.5t20.5 -4.5q17 0 24 9.5t7 30.5h50z" />
    <glyph glyph-name="adieresis" unicode="&#xe4;" 
d="M22 465q0 86 35 135.5t104 49.5q45 0 71.5 -26t34.5 -64h10l15 80h70v-640h-100l-10 70h-10q-8 -34 -31 -57t-65 -23q-65 0 -94.5 49t-29.5 136v290zM166 108q9 -13 26 -13t26 13t9 38v348q0 25 -9 38t-26 13t-26 -13t-9 -38v-348q0 -25 9 -38zM187 800v-115h-120v115
h120zM337 800v-115h-120v115h120z" />
    <glyph glyph-name="aring" unicode="&#xe5;" 
d="M22 465q0 86 35 135.5t104 49.5q45 0 71.5 -26t34.5 -64h10l15 80h70v-640h-100l-10 70h-10q-8 -34 -31 -57t-65 -23q-65 0 -94.5 49t-29.5 136v290zM166 108q9 -13 26 -13t26 13t9 38v348q0 25 -9 38t-26 13t-26 -13t-9 -38v-348q0 -25 9 -38zM141.5 688
q-24.5 23 -24.5 57t24.5 57t60.5 23t60.5 -23t24.5 -57t-24.5 -57t-60.5 -23t-60.5 23zM220 727q7 7 7 18t-7 18t-18 7t-18 -7t-7 -18t7 -18t18 -7t18 7z" />
    <glyph glyph-name="ae" unicode="&#xe6;" horiz-adv-x="576" 
d="M22 465q0 86 32 135.5t97 49.5q76 0 96 -80h10l15 70h50v-70h10q11 36 36.5 58t65.5 22q72 0 98.5 -52t26.5 -143v-150h-192v-169q0 -25 9.5 -38t26.5 -13q16 0 25 13t9 36v66q0 37 6 55h119v-10q-5 -20 -5 -65q0 -93 -28.5 -141.5t-97.5 -48.5q-39 0 -63.5 20t-35.5 50
h-10v-60h-50l-15 60h-10q-10 -29 -33 -49.5t-63 -20.5q-65 0 -97 49.5t-32 135.5v290zM437 390v114q0 25 -9 38t-26 13t-26 -13t-9 -38v-114h70zM166 108q9 -13 26 -13t26 13t9 38v348q0 25 -9 38t-26 13t-26 -13t-9 -38v-348q0 -25 9 -38z" />
    <glyph glyph-name="ccedilla" unicode="&#xe7;" horiz-adv-x="362" 
d="M224 460v44q0 25 -9 38t-26 13t-26 -13t-9 -38v-368q0 -25 9 -38t26 -13t26 13t9 38v49q0 38 6 55h124v-10q-5 -17 -5 -55q0 -73 -33.5 -123.5t-97.5 -59.5v-42h10q13 21 42 21q21 0 34.5 -13.5t13.5 -37.5q0 -50 -56.5 -79t-133.5 -36h-10v70h62q47 0 47 26q0 17 -23 17
h-38v74q-74 12 -113 81.5t-39 176.5v140q0 117 46.5 188.5t133.5 71.5q75 0 115 -50.5t40 -129.5q0 -35 5 -55v-10h-124q-6 17 -6 55z" />
    <glyph glyph-name="egrave" unicode="&#xe8;" horiz-adv-x="362" 
d="M14 390q0 118 44 189t131 71q80 0 118.5 -54.5t38.5 -140.5v-140h-192v-179q0 -25 9.5 -38t26.5 -13q16 0 25 13t9 36v66q0 37 6 55h118v-10q-4 -24 -4 -65q0 -88 -40.5 -139t-117.5 -51q-80 0 -126 67t-46 183v150zM224 400v104q0 25 -9 38t-26 13t-26 -13t-9 -38v-104
h70zM155 685l-55 105v10h125l20 -105v-10h-90z" />
    <glyph glyph-name="eacute" unicode="&#xe9;" horiz-adv-x="362" 
d="M14 390q0 118 44 189t131 71q80 0 118.5 -54.5t38.5 -140.5v-140h-192v-179q0 -25 9.5 -38t26.5 -13q16 0 25 13t9 36v66q0 37 6 55h118v-10q-4 -24 -4 -65q0 -88 -40.5 -139t-117.5 -51q-80 0 -126 67t-46 183v150zM224 400v104q0 25 -9 38t-26 13t-26 -13t-9 -38v-104
h70zM134 695l20 105h125v-10l-55 -105h-90v10z" />
    <glyph glyph-name="ecircumflex" unicode="&#xea;" horiz-adv-x="362" 
d="M14 390q0 118 44 189t131 71q80 0 118.5 -54.5t38.5 -140.5v-140h-192v-179q0 -25 9.5 -38t26.5 -13q16 0 25 13t9 36v66q0 37 6 55h118v-10q-4 -24 -4 -65q0 -88 -40.5 -139t-117.5 -51q-80 0 -126 67t-46 183v150zM224 400v104q0 25 -9 38t-26 13t-26 -13t-9 -38v-104
h70zM69 695l55 105h130l55 -105v-10h-95l-20 55h-10l-20 -55h-95v10z" />
    <glyph glyph-name="edieresis" unicode="&#xeb;" horiz-adv-x="362" 
d="M14 390q0 118 44 189t131 71q80 0 118.5 -54.5t38.5 -140.5v-140h-192v-179q0 -25 9.5 -38t26.5 -13q16 0 25 13t9 36v66q0 37 6 55h118v-10q-4 -24 -4 -65q0 -88 -40.5 -139t-117.5 -51q-80 0 -126 67t-46 183v150zM224 400v104q0 25 -9 38t-26 13t-26 -13t-9 -38v-104
h70zM174 800v-115h-120v115h120zM324 800v-115h-120v115h120z" />
    <glyph glyph-name="igrave" unicode="&#xec;" horiz-adv-x="185" 
d="M160 640v-640h-135v640h135zM58 685l-55 105v10h125l20 -105v-10h-90z" />
    <glyph glyph-name="iacute" unicode="&#xed;" horiz-adv-x="185" 
d="M160 640v-640h-135v640h135zM37 695l20 105h125v-10l-55 -105h-90v10z" />
    <glyph glyph-name="icircumflex" unicode="&#xee;" horiz-adv-x="185" 
d="M160 640v-640h-135v640h135zM-28 695l55 105h130l55 -105v-10h-95l-20 55h-10l-20 -55h-95v10z" />
    <glyph glyph-name="idieresis" unicode="&#xef;" horiz-adv-x="185" 
d="M160 640v-640h-135v640h135zM77 800v-115h-120v115h120zM227 800v-115h-120v115h120z" />
    <glyph glyph-name="eth" unicode="&#xf0;" horiz-adv-x="378" 
d="M364 715l-63 -26q63 -132 63 -339v-100q0 -118 -44 -189t-131 -71t-131 71t-44 189v100q0 110 36.5 167.5t98.5 57.5q31 0 49.5 -11.5t25.5 -28.5h10q-4 59 -27 115l-93 -38h-10v65l74 31q-25 42 -56 82v10h110q17 -21 39 -54l83 34h10v-65zM224 419q0 25 -9 38t-26 13
t-26 -13t-9 -38v-283q0 -25 9 -38t26 -13t26 13t9 38v283z" />
    <glyph glyph-name="ntilde" unicode="&#xf1;" 
d="M25 640h90l10 -80h10q14 44 41 64.5t73 20.5q57 0 86.5 -41.5t29.5 -114.5v-489h-135v494q0 25 -8.5 38t-25.5 13t-26.5 -13.5t-9.5 -37.5v-494h-135v640zM326 800v-30q0 -40 -17.5 -65t-54.5 -25q-22 0 -37 7t-33 19q-13 10 -22.5 14.5t-20.5 4.5q-17 0 -24 -9.5
t-7 -30.5h-50v30q0 40 17.5 65t54.5 25q22 0 37 -7t33 -19q13 -10 22.5 -14.5t20.5 -4.5q17 0 24 9.5t7 30.5h50z" />
    <glyph glyph-name="ograve" unicode="&#xf2;" horiz-adv-x="378" 
d="M58 579q44 71 131 71t131 -71t44 -189v-140q0 -118 -44 -189t-131 -71t-131 71t-44 189v140q0 118 44 189zM154 136q0 -25 9 -38t26 -13t26 13t9 38v368q0 25 -9 38t-26 13t-26 -13t-9 -38v-368zM155 685l-55 105v10h125l20 -105v-10h-90z" />
    <glyph glyph-name="oacute" unicode="&#xf3;" horiz-adv-x="378" 
d="M58 579q44 71 131 71t131 -71t44 -189v-140q0 -118 -44 -189t-131 -71t-131 71t-44 189v140q0 118 44 189zM154 136q0 -25 9 -38t26 -13t26 13t9 38v368q0 25 -9 38t-26 13t-26 -13t-9 -38v-368zM134 695l20 105h125v-10l-55 -105h-90v10z" />
    <glyph glyph-name="ocircumflex" unicode="&#xf4;" horiz-adv-x="378" 
d="M58 579q44 71 131 71t131 -71t44 -189v-140q0 -118 -44 -189t-131 -71t-131 71t-44 189v140q0 118 44 189zM154 136q0 -25 9 -38t26 -13t26 13t9 38v368q0 25 -9 38t-26 13t-26 -13t-9 -38v-368zM69 695l55 105h130l55 -105v-10h-95l-20 55h-10l-20 -55h-95v10z" />
    <glyph glyph-name="otilde" unicode="&#xf5;" horiz-adv-x="378" 
d="M58 579q44 71 131 71t131 -71t44 -189v-140q0 -118 -44 -189t-131 -71t-131 71t-44 189v140q0 118 44 189zM154 136q0 -25 9 -38t26 -13t26 13t9 38v368q0 25 -9 38t-26 13t-26 -13t-9 -38v-368zM322 800v-30q0 -40 -17.5 -65t-54.5 -25q-22 0 -37 7t-33 19
q-13 10 -22.5 14.5t-20.5 4.5q-17 0 -24 -9.5t-7 -30.5h-50v30q0 40 17.5 65t54.5 25q22 0 37 -7t33 -19q13 -10 22.5 -14.5t20.5 -4.5q17 0 24 9.5t7 30.5h50z" />
    <glyph glyph-name="odieresis" unicode="&#xf6;" horiz-adv-x="378" 
d="M58 579q44 71 131 71t131 -71t44 -189v-140q0 -118 -44 -189t-131 -71t-131 71t-44 189v140q0 118 44 189zM154 136q0 -25 9 -38t26 -13t26 13t9 38v368q0 25 -9 38t-26 13t-26 -13t-9 -38v-368zM174 800v-115h-120v115h120zM324 800v-115h-120v115h120z" />
    <glyph glyph-name="divide" unicode="&#xf7;" horiz-adv-x="404" 
d="M272 495h-140v115h140v-115zM379 455v-120h-354v120h354zM272 180h-140v115h140v-115z" />
    <glyph glyph-name="oslash" unicode="&#xf8;" horiz-adv-x="378" 
d="M364 390v-140q0 -118 -44 -189t-131 -71q-63 0 -105 40l-14 -30h-54v10l32 69q-34 67 -34 171v140q0 118 44 189t131 71q63 0 105 -40l14 30h54v-10l-32 -69q34 -67 34 -171zM154 310h10l60 150v44q0 25 -9 38t-26 13t-26 -13t-9 -38v-194zM224 330h-10l-59 -150l-1 -2
v-42q0 -25 9 -38t26 -13t26 13t9 38v194z" />
    <glyph glyph-name="ugrave" unicode="&#xf9;" 
d="M362 0h-90l-10 80h-10q-14 -44 -41 -64.5t-73 -20.5q-57 0 -86.5 41.5t-29.5 114.5v489h135v-494q0 -25 9 -38t25 -13q17 0 26.5 13.5t9.5 37.5v494h135v-640zM158 685l-55 105v10h125l20 -105v-10h-90z" />
    <glyph glyph-name="uacute" unicode="&#xfa;" 
d="M362 0h-90l-10 80h-10q-14 -44 -41 -64.5t-73 -20.5q-57 0 -86.5 41.5t-29.5 114.5v489h135v-494q0 -25 9 -38t25 -13q17 0 26.5 13.5t9.5 37.5v494h135v-640zM137 695l20 105h125v-10l-55 -105h-90v10z" />
    <glyph glyph-name="ucircumflex" unicode="&#xfb;" 
d="M362 0h-90l-10 80h-10q-14 -44 -41 -64.5t-73 -20.5q-57 0 -86.5 41.5t-29.5 114.5v489h135v-494q0 -25 9 -38t25 -13q17 0 26.5 13.5t9.5 37.5v494h135v-640zM72 695l55 105h130l55 -105v-10h-95l-20 55h-10l-20 -55h-95v10z" />
    <glyph glyph-name="udieresis" unicode="&#xfc;" 
d="M362 0h-90l-10 80h-10q-14 -44 -41 -64.5t-73 -20.5q-57 0 -86.5 41.5t-29.5 114.5v489h135v-494q0 -25 9 -38t25 -13q17 0 26.5 13.5t9.5 37.5v494h135v-640zM177 800v-115h-120v115h120zM327 800v-115h-120v115h120z" />
    <glyph glyph-name="yacute" unicode="&#xfd;" horiz-adv-x="338" 
d="M4 630v10h125l35 -360h10l35 360h125v-10l-106 -780h-117v10l32 215h-65zM114 695l20 105h125v-10l-55 -105h-90v10z" />
    <glyph glyph-name="thorn" unicode="&#xfe;" horiz-adv-x="379" 
d="M25 800h135v-205h10q19 55 80 55q54 0 84.5 -43.5t30.5 -131.5v-310q0 -88 -30.5 -131.5t-84.5 -43.5q-61 0 -80 55h-10v-195h-135v950zM169 108q9 -13 26 -13t26 13t9 38v348q0 25 -9 38t-26 13t-26 -13t-9 -38v-348q0 -25 9 -38z" />
    <glyph glyph-name="ydieresis" unicode="&#xff;" horiz-adv-x="338" 
d="M4 630v10h125l35 -360h10l35 360h125v-10l-106 -780h-117v10l32 215h-65zM154 800v-115h-120v115h120zM304 800v-115h-120v115h120z" />
    <glyph glyph-name="Amacron" unicode="&#x100;" horiz-adv-x="380" 
d="M300 800l75 -790v-10h-140l-17 190h-56l-17 -190h-140v10l75 790h220zM217 320l-22 275h-10l-22 -275h54zM323 915v-80h-265v80h265z" />
    <glyph glyph-name="amacron" unicode="&#x101;" 
d="M22 465q0 86 35 135.5t104 49.5q45 0 71.5 -26t34.5 -64h10l15 80h70v-640h-100l-10 70h-10q-8 -34 -31 -57t-65 -23q-65 0 -94.5 49t-29.5 136v290zM166 108q9 -13 26 -13t26 13t9 38v348q0 25 -9 38t-26 13t-26 -13t-9 -38v-348q0 -25 9 -38zM325 770v-80h-245v80h245z
" />
    <glyph glyph-name="Abreve" unicode="&#x102;" horiz-adv-x="380" 
d="M300 800l75 -790v-10h-140l-17 190h-56l-17 -190h-140v10l75 790h220zM217 320l-22 275h-10l-22 -275h54zM150 935q3 -40 40 -40t40 40h83q0 -50 -31 -80t-92 -30t-92 30t-31 80h83z" />
    <glyph glyph-name="abreve" unicode="&#x103;" 
d="M22 465q0 86 35 135.5t104 49.5q45 0 71.5 -26t34.5 -64h10l15 80h70v-640h-100l-10 70h-10q-8 -34 -31 -57t-65 -23q-65 0 -94.5 49t-29.5 136v290zM166 108q9 -13 26 -13t26 13t9 38v348q0 25 -9 38t-26 13t-26 -13t-9 -38v-348q0 -25 9 -38zM167 800q0 -45 35 -45
t35 45h75q0 -57 -29 -88.5t-81 -31.5t-81 31.5t-29 88.5h75z" />
    <glyph glyph-name="Aogonek" unicode="&#x104;" horiz-adv-x="380" 
d="M300 800l75 -790v-10h-140l-17 190h-56l-17 -190h-140v10l75 790h220zM217 320l-22 275h-10l-22 -275h54zM318 -54q-10 -19 -10 -36q0 -19 11 -27t34 -8h22v-60h-34q-52 0 -84 19.5t-32 57.5q0 31 20 54.5t58 53.5h50q-25 -35 -35 -54z" />
    <glyph glyph-name="aogonek" unicode="&#x105;" 
d="M340 0q-25 -35 -35 -54t-10 -36q0 -19 11 -27t34 -8h22v-60h-34q-52 0 -84 19.5t-32 57.5q0 31 20 54.5t58 53.5h-28l-10 70h-10q-8 -34 -31 -57t-65 -23q-65 0 -94.5 49t-29.5 136v290q0 86 35 135.5t104 49.5q45 0 71.5 -26t34.5 -64h10l15 80h70v-640h-22zM227 494
q0 25 -9 38t-26 13t-26 -13t-9 -38v-348q0 -25 9 -38t26 -13t26 13t9 38v348z" />
    <glyph glyph-name="Cacute" unicode="&#x106;" horiz-adv-x="417" 
d="M66.5 720q52.5 90 153.5 90q89 0 136.5 -65.5t47.5 -179.5q0 -35 5 -55v-10h-150q-5 17 -5 45v99q0 22 -9 34t-27 12t-28.5 -13.5t-10.5 -37.5v-473q0 -24 10.5 -37.5t28.5 -13.5t27 12.5t9 33.5v99q0 28 5 45h150v-10q-5 -18 -5 -60q0 -114 -47.5 -179.5t-136.5 -65.5
q-101 0 -153.5 90t-52.5 290v60q0 200 52.5 290zM148 840l40 95h135v-10l-75 -95h-100v10z" />
    <glyph glyph-name="cacute" unicode="&#x107;" horiz-adv-x="362" 
d="M60.5 578.5q46.5 71.5 133.5 71.5q75 0 115 -50.5t40 -129.5q0 -35 5 -55v-10h-124q-6 17 -6 55v44q0 25 -9 38t-26 13t-26 -13t-9 -38v-368q0 -25 9 -38t26 -13t26 13t9 38v49q0 38 6 55h124v-10q-5 -17 -5 -55q0 -80 -40 -132.5t-115 -52.5q-87 0 -133.5 71.5
t-46.5 188.5v140q0 117 46.5 188.5zM134 695l20 105h125v-10l-55 -105h-90v10z" />
    <glyph glyph-name="Cdotaccent" unicode="&#x10a;" horiz-adv-x="417" 
d="M66.5 720q52.5 90 153.5 90q89 0 136.5 -65.5t47.5 -179.5q0 -35 5 -55v-10h-150q-5 17 -5 45v99q0 22 -9 34t-27 12t-28.5 -13.5t-10.5 -37.5v-473q0 -24 10.5 -37.5t28.5 -13.5t27 12.5t9 33.5v99q0 28 5 45h150v-10q-5 -18 -5 -60q0 -114 -47.5 -179.5t-136.5 -65.5
q-101 0 -153.5 90t-52.5 290v60q0 200 52.5 290zM296 935v-105h-155v105h155z" />
    <glyph glyph-name="cdotaccent" unicode="&#x10b;" horiz-adv-x="362" 
d="M60.5 578.5q46.5 71.5 133.5 71.5q75 0 115 -50.5t40 -129.5q0 -35 5 -55v-10h-124q-6 17 -6 55v44q0 25 -9 38t-26 13t-26 -13t-9 -38v-368q0 -25 9 -38t26 -13t26 13t9 38v49q0 38 6 55h124v-10q-5 -17 -5 -55q0 -80 -40 -132.5t-115 -52.5q-87 0 -133.5 71.5
t-46.5 188.5v140q0 117 46.5 188.5zM262 800v-115h-145v115h145z" />
    <glyph glyph-name="Ccaron" unicode="&#x10c;" horiz-adv-x="417" 
d="M66.5 720q52.5 90 153.5 90q89 0 136.5 -65.5t47.5 -179.5q0 -35 5 -55v-10h-150q-5 17 -5 45v99q0 22 -9 34t-27 12t-28.5 -13.5t-10.5 -37.5v-473q0 -24 10.5 -37.5t28.5 -13.5t27 12.5t9 33.5v99q0 28 5 45h150v-10q-5 -18 -5 -60q0 -114 -47.5 -179.5t-136.5 -65.5
q-101 0 -153.5 90t-52.5 290v60q0 200 52.5 290zM183 935l30 -45h10l30 45h100v-10l-65 -95h-140l-65 95v10h100z" />
    <glyph glyph-name="ccaron" unicode="&#x10d;" horiz-adv-x="362" 
d="M60.5 578.5q46.5 71.5 133.5 71.5q75 0 115 -50.5t40 -129.5q0 -35 5 -55v-10h-124q-6 17 -6 55v44q0 25 -9 38t-26 13t-26 -13t-9 -38v-368q0 -25 9 -38t26 -13t26 13t9 38v49q0 38 6 55h124v-10q-5 -17 -5 -55q0 -80 -40 -132.5t-115 -52.5q-87 0 -133.5 71.5
t-46.5 188.5v140q0 117 46.5 188.5zM164 800l20 -55h10l20 55h95v-10l-55 -105h-130l-55 105v10h95z" />
    <glyph glyph-name="Dcaron" unicode="&#x10e;" horiz-adv-x="404" 
d="M160 800q112 0 171 -79.5t59 -250.5v-140q0 -171 -59 -250.5t-171 -79.5h-140v800h140zM165 125h15q29 0 44.5 19t15.5 52v413q0 33 -15.5 52t-44.5 19h-15v-555zM135 935l30 -45h10l30 45h100v-10l-65 -95h-140l-65 95v10h100z" />
    <glyph glyph-name="dcaron" unicode="&#x10f;" horiz-adv-x="467" 
d="M22 475q0 88 30.5 131.5t84.5 43.5q61 0 80 -55h10v205h135v-800h-100l-10 70h-10q-8 -34 -31 -57t-65 -23q-65 0 -94.5 49t-29.5 136v300zM507 800v-10l-55 -200h-50v210h105zM166 108q9 -13 26 -13t26 13t9 38v348q0 25 -9 38t-26 13t-26 -13t-9 -38v-348q0 -25 9 -38z
" />
    <glyph glyph-name="Dcroat" unicode="&#x110;" horiz-adv-x="434" 
d="M361 720.5q59 -79.5 59 -250.5v-140q0 -171 -59 -250.5t-171 -79.5h-140v380h-50v60h50v360h140q112 0 171 -79.5zM270 609q0 33 -15.5 52t-44.5 19h-15v-240h50v-60h-50v-255h15q29 0 44.5 19t15.5 52v413z" />
    <glyph glyph-name="dcroat" unicode="&#x111;" horiz-adv-x="413" 
d="M413 690h-51v-690h-100l-10 70h-10q-8 -34 -31 -57t-65 -23q-65 0 -94.5 49t-29.5 136v300q0 88 30.5 131.5t84.5 43.5q61 0 80 -55h10v95h-79v60h79v50h135v-50h51v-60zM227 494q0 25 -9 38t-26 13t-26 -13t-9 -38v-348q0 -25 9 -38t26 -13t26 13t9 38v348z" />
    <glyph glyph-name="Emacron" unicode="&#x112;" horiz-adv-x="302" 
d="M20 800h270v-130h-120v-200h105v-130h-105v-210h120v-130h-270v800zM283 915v-80h-265v80h265z" />
    <glyph glyph-name="emacron" unicode="&#x113;" horiz-adv-x="362" 
d="M14 390q0 118 44 189t131 71q80 0 118.5 -54.5t38.5 -140.5v-140h-192v-179q0 -25 9.5 -38t26.5 -13q16 0 25 13t9 36v66q0 37 6 55h118v-10q-4 -24 -4 -65q0 -88 -40.5 -139t-117.5 -51q-80 0 -126 67t-46 183v150zM224 400v104q0 25 -9 38t-26 13t-26 -13t-9 -38v-104
h70zM312 770v-80h-245v80h245z" />
    <glyph glyph-name="Edotaccent" unicode="&#x116;" horiz-adv-x="302" 
d="M20 800h270v-130h-120v-200h105v-130h-105v-210h120v-130h-270v800zM228 935v-105h-155v105h155z" />
    <glyph glyph-name="edotaccent" unicode="&#x117;" horiz-adv-x="362" 
d="M14 390q0 118 44 189t131 71q80 0 118.5 -54.5t38.5 -140.5v-140h-192v-179q0 -25 9.5 -38t26.5 -13q16 0 25 13t9 36v66q0 37 6 55h118v-10q-4 -24 -4 -65q0 -88 -40.5 -139t-117.5 -51q-80 0 -126 67t-46 183v150zM224 400v104q0 25 -9 38t-26 13t-26 -13t-9 -38v-104
h70zM262 800v-115h-145v115h145z" />
    <glyph glyph-name="Eogonek" unicode="&#x118;" horiz-adv-x="302" 
d="M20 800h270v-130h-120v-200h105v-130h-105v-210h120v-130h-270v800zM233 -54q-10 -19 -10 -36q0 -19 11 -27t34 -8h22v-60h-34q-52 0 -84 19.5t-32 57.5q0 31 20 54.5t58 53.5h50q-25 -35 -35 -54z" />
    <glyph glyph-name="eogonek" unicode="&#x119;" horiz-adv-x="362" 
d="M348 255v-10q-4 -24 -4 -65q0 -93 -43 -142q-42 -55 -53 -78t-11 -48q0 -20 11 -28.5t34 -8.5h22v-60h-34q-52 0 -84 19.5t-32 57.5q0 46 52 89v10q-6 -1 -20 -1q-80 0 -126 67t-46 183v150q0 118 44 189t131 71q80 0 118.5 -54.5t38.5 -140.5v-140h-192v-179
q0 -25 9.5 -38t26.5 -13q16 0 25 13t9 36v66q0 37 6 55h118zM154 400h70v104q0 25 -9 38t-26 13t-26 -13t-9 -38v-104z" />
    <glyph glyph-name="Ecaron" unicode="&#x11a;" horiz-adv-x="302" 
d="M20 800h270v-130h-120v-200h105v-130h-105v-210h120v-130h-270v800zM115 935l30 -45h10l30 45h100v-10l-65 -95h-140l-65 95v10h100z" />
    <glyph glyph-name="ecaron" unicode="&#x11b;" horiz-adv-x="362" 
d="M14 390q0 118 44 189t131 71q80 0 118.5 -54.5t38.5 -140.5v-140h-192v-179q0 -25 9.5 -38t26.5 -13q16 0 25 13t9 36v66q0 37 6 55h118v-10q-4 -24 -4 -65q0 -88 -40.5 -139t-117.5 -51q-80 0 -126 67t-46 183v150zM224 400v104q0 25 -9 38t-26 13t-26 -13t-9 -38v-104
h70zM164 800l20 -55h10l20 55h95v-10l-55 -105h-130l-55 105v10h95z" />
    <glyph glyph-name="Gbreve" unicode="&#x11e;" horiz-adv-x="419" 
d="M222 810q88 0 135 -67.5t47 -182.5q0 -35 5 -55v-10h-150q-5 17 -5 45v104q0 22 -9 34t-27 12t-28.5 -13.5t-10.5 -37.5v-473q0 -24 10.5 -37.5t28.5 -13.5t27 12.5t9 33.5v164h145v-325h-70l-25 103h-10q-6 -50 -33 -81.5t-80 -31.5q-42 0 -80 29.5t-62.5 100
t-24.5 185.5v125q0 380 208 380zM178 935q3 -40 40 -40t40 40h83q0 -50 -31 -80t-92 -30t-92 30t-31 80h83z" />
    <glyph glyph-name="gbreve" unicode="&#x11f;" horiz-adv-x="379" 
d="M14 465q0 86 35 135.5t104 49.5q45 0 71.5 -26t34.5 -64h10l15 80h70v-610q0 -86 -43 -138t-120 -52q-80 0 -121 47.5t-41 118.5q0 19 -4 34v10h119q5 -14 5 -48v-24q0 -23 9.5 -35.5t26.5 -12.5q34 0 34 49v161h-10q-19 -55 -80 -55q-54 0 -84.5 43.5t-30.5 131.5v205z
M158 203q9 -13 26 -13t26 13t9 38v253q0 25 -9 38t-26 13t-26 -13t-9 -38v-253q0 -25 9 -38zM155 800q0 -45 35 -45t35 45h75q0 -57 -29 -88.5t-81 -31.5t-81 31.5t-29 88.5h75z" />
    <glyph glyph-name="Gdotaccent" unicode="&#x120;" horiz-adv-x="419" 
d="M222 810q88 0 135 -67.5t47 -182.5q0 -35 5 -55v-10h-150q-5 17 -5 45v104q0 22 -9 34t-27 12t-28.5 -13.5t-10.5 -37.5v-473q0 -24 10.5 -37.5t28.5 -13.5t27 12.5t9 33.5v164h145v-325h-70l-25 103h-10q-6 -50 -33 -81.5t-80 -31.5q-42 0 -80 29.5t-62.5 100
t-24.5 185.5v125q0 380 208 380zM296 935v-105h-155v105h155z" />
    <glyph glyph-name="gdotaccent" unicode="&#x121;" horiz-adv-x="379" 
d="M14 465q0 86 35 135.5t104 49.5q45 0 71.5 -26t34.5 -64h10l15 80h70v-610q0 -86 -43 -138t-120 -52q-80 0 -121 47.5t-41 118.5q0 19 -4 34v10h119q5 -14 5 -48v-24q0 -23 9.5 -35.5t26.5 -12.5q34 0 34 49v161h-10q-19 -55 -80 -55q-54 0 -84.5 43.5t-30.5 131.5v205z
M158 203q9 -13 26 -13t26 13t9 38v253q0 25 -9 38t-26 13t-26 -13t-9 -38v-253q0 -25 9 -38zM263 800v-115h-145v115h145z" />
    <glyph glyph-name="uni0122" unicode="&#x122;" horiz-adv-x="419" 
d="M222 810q88 0 135 -67.5t47 -182.5q0 -35 5 -55v-10h-150q-5 17 -5 45v104q0 22 -9 34t-27 12t-28.5 -13.5t-10.5 -37.5v-473q0 -24 10.5 -37.5t28.5 -13.5t27 12.5t9 33.5v164h145v-325h-70l-25 103h-10q-6 -50 -33 -81.5t-80 -31.5q-42 0 -80 29.5t-62.5 100
t-24.5 185.5v125q0 380 208 380zM298 -35v-90l-75 -85h-45v10l45 70h-70v95h145z" />
    <glyph glyph-name="uni0123" unicode="&#x123;" horiz-adv-x="379" 
d="M14 465q0 86 35 135.5t104 49.5q45 0 71.5 -26t34.5 -64h10l15 80h70v-610q0 -86 -43 -138t-120 -52q-80 0 -121 47.5t-41 118.5q0 19 -4 34v10h119q5 -14 5 -48v-24q0 -23 9.5 -35.5t26.5 -12.5q34 0 34 49v161h-10q-19 -55 -80 -55q-54 0 -84.5 43.5t-30.5 131.5v205z
M158 203q9 -13 26 -13t26 13t9 38v253q0 25 -9 38t-26 13t-26 -13t-9 -38v-253q0 -25 9 -38zM263 780v-95h-145v90l75 85h45v-10l-45 -70h70z" />
    <glyph glyph-name="Hbar" unicode="&#x126;" horiz-adv-x="455" 
d="M455 600h-50v-600h-145v340h-65v-340h-145v600h-50v60h50v140h145v-140h65v140h145v-140h50v-60zM260 600h-65v-130h65v130z" />
    <glyph glyph-name="hbar" unicode="&#x127;" horiz-adv-x="412" 
d="M365 604q25 -41 25 -119v-485h-135v494q0 25 -9 38t-26 13t-26 -13t-9 -38v-494h-135v690h-50v60h50v50h135v-50h80v-60h-80v-100h10q13 29 34.5 42t54.5 13q56 0 81 -41z" />
    <glyph glyph-name="Imacron" unicode="&#x12a;" horiz-adv-x="190" 
d="M170 800v-800h-150v800h150zM228 915v-80h-265v80h265z" />
    <glyph glyph-name="imacron" unicode="&#x12b;" horiz-adv-x="185" 
d="M160 640v-640h-135v640h135zM215 770v-80h-245v80h245z" />
    <glyph glyph-name="Iogonek" unicode="&#x12e;" horiz-adv-x="190" 
d="M170 800v-800h-150v800h150zM113 -54q-10 -19 -10 -36q0 -19 11 -27t34 -8h22v-60h-34q-52 0 -84 19.5t-32 57.5q0 31 20 54.5t58 53.5h50q-25 -35 -35 -54z" />
    <glyph glyph-name="iogonek" unicode="&#x12f;" horiz-adv-x="185" 
d="M160 640v-640h-135v640h135zM165 800v-115h-145v115h145zM103 -54q-10 -19 -10 -36q0 -19 11 -27t34 -8h22v-60h-34q-52 0 -84 19.5t-32 57.5q0 31 20 54.5t58 53.5h50q-25 -35 -35 -54z" />
    <glyph glyph-name="Idotaccent" unicode="&#x130;" horiz-adv-x="190" 
d="M170 800v-800h-150v800h150zM173 935v-105h-155v105h155z" />
    <glyph glyph-name="dotlessi" unicode="&#x131;" horiz-adv-x="185" 
d="M160 640v-640h-135v640h135z" />
    <glyph glyph-name="uni0136" unicode="&#x136;" horiz-adv-x="385" 
d="M170 800l-7 -267h10l67 267h140v-10l-90 -380v-10l95 -390v-10h-145l-67 272h-10l7 -272h-150v800h150zM273 -35v-90l-75 -85h-45v10l45 70h-70v95h145z" />
    <glyph glyph-name="uni0137" unicode="&#x137;" horiz-adv-x="367" 
d="M160 800v-397h10l72 237h120v-10l-80 -300v-10l80 -310v-10h-120l-72 242h-10v-242h-135v800h135zM274 -35v-90l-75 -85h-45v10l45 70h-70v95h145z" />
    <glyph glyph-name="Lacute" unicode="&#x139;" horiz-adv-x="303" 
d="M170 800v-670h125v-130h-275v800h150zM25 840l40 95h135v-10l-75 -95h-100v10z" />
    <glyph glyph-name="lacute" unicode="&#x13a;" horiz-adv-x="185" 
d="M160 800v-800h-135v800h135zM22 840l40 95h135v-10l-75 -95h-100v10z" />
    <glyph glyph-name="uni013B" unicode="&#x13b;" horiz-adv-x="303" 
d="M170 800v-670h125v-130h-275v800h150zM228 -35v-90l-75 -85h-45v10l45 70h-70v95h145z" />
    <glyph glyph-name="uni013C" unicode="&#x13c;" horiz-adv-x="185" 
d="M160 800v-800h-135v800h135zM165 -35v-90l-75 -85h-45v10l45 70h-70v95h145z" />
    <glyph glyph-name="Lcaron" unicode="&#x13d;" horiz-adv-x="303" 
d="M170 800v-670h125v-130h-275v800h150zM60 935l30 -45h10l30 45h100v-10l-65 -95h-140l-65 95v10h100z" />
    <glyph glyph-name="lcaron" unicode="&#x13e;" horiz-adv-x="265" 
d="M160 800v-800h-135v800h135zM305 800v-10l-55 -200h-50v210h105z" />
    <glyph glyph-name="Lslash" unicode="&#x141;" horiz-adv-x="333" 
d="M325 130v-130h-275v365l-50 -16h-10v64l60 19v368h150v-320l55 17h10v-64l-65 -21v-282h125z" />
    <glyph glyph-name="lslash" unicode="&#x142;" horiz-adv-x="275" 
d="M275 353l-80 -25v-328h-135v285l-50 -16h-10v64l60 19v448h135v-405l70 22h10v-64z" />
    <glyph glyph-name="Nacute" unicode="&#x143;" horiz-adv-x="390" 
d="M150 800l85 -400h10l-15 400h140v-800h-130l-85 400h-10l15 -400h-140v800h130zM128 840l40 95h135v-10l-75 -95h-100v10z" />
    <glyph glyph-name="nacute" unicode="&#x144;" 
d="M25 640h90l10 -80h10q14 44 41 64.5t73 20.5q57 0 86.5 -41.5t29.5 -114.5v-489h-135v494q0 25 -8.5 38t-25.5 13t-26.5 -13.5t-9.5 -37.5v-494h-135v640zM138 695l20 105h125v-10l-55 -105h-90v10z" />
    <glyph glyph-name="uni0145" unicode="&#x145;" horiz-adv-x="390" 
d="M150 800l85 -400h10l-15 400h140v-800h-130l-85 400h-10l15 -400h-140v800h130zM273 -35v-90l-75 -85h-45v10l45 70h-70v95h145z" />
    <glyph glyph-name="uni0146" unicode="&#x146;" 
d="M25 640h90l10 -80h10q14 44 41 64.5t73 20.5q57 0 86.5 -41.5t29.5 -114.5v-489h-135v494q0 25 -8.5 38t-25.5 13t-26.5 -13.5t-9.5 -37.5v-494h-135v640zM268 -35v-90l-75 -85h-45v10l45 70h-70v95h145z" />
    <glyph glyph-name="Ncaron" unicode="&#x147;" horiz-adv-x="390" 
d="M150 800l85 -400h10l-15 400h140v-800h-130l-85 400h-10l15 -400h-140v800h130zM163 935l30 -45h10l30 45h100v-10l-65 -95h-140l-65 95v10h100z" />
    <glyph glyph-name="ncaron" unicode="&#x148;" 
d="M25 640h90l10 -80h10q14 44 41 64.5t73 20.5q57 0 86.5 -41.5t29.5 -114.5v-489h-135v494q0 25 -8.5 38t-25.5 13t-26.5 -13.5t-9.5 -37.5v-494h-135v640zM168 800l20 -55h10l20 55h95v-10l-55 -105h-130l-55 105v10h95z" />
    <glyph glyph-name="Eng" unicode="&#x14a;" horiz-adv-x="390" 
d="M150 800l85 -400h10l-15 400h140v-820q0 -73 -32 -104t-83 -31q-46 0 -83 15l8 80h20q19 0 27 9t8 31v44l-80 376h-10l15 -400h-140v800h130z" />
    <glyph glyph-name="eng" unicode="&#x14b;" 
d="M25 640h90l10 -80h10q14 44 41 64.5t73 20.5q57 0 86.5 -41.5t29.5 -114.5v-509q0 -73 -32 -104t-83 -31q-46 0 -83 15l8 80h20q19 0 27 9t8 31v514q0 25 -8.5 38t-25.5 13t-26.5 -13.5t-9.5 -37.5v-494h-135v640z" />
    <glyph glyph-name="Omacron" unicode="&#x14c;" horiz-adv-x="438" 
d="M14 430q0 200 52 290t153 90t153 -90t52 -290v-60q0 -200 -52 -290t-153 -90t-153 90t-52 290v60zM179 166q0 -24 11 -37.5t29 -13.5t29 13.5t11 37.5v473q0 24 -11 37.5t-29 13.5t-29 -13.5t-11 -37.5v-473zM352 915v-80h-265v80h265z" />
    <glyph glyph-name="omacron" unicode="&#x14d;" horiz-adv-x="378" 
d="M58 579q44 71 131 71t131 -71t44 -189v-140q0 -118 -44 -189t-131 -71t-131 71t-44 189v140q0 118 44 189zM154 136q0 -25 9 -38t26 -13t26 13t9 38v368q0 25 -9 38t-26 13t-26 -13t-9 -38v-368zM312 770v-80h-245v80h245z" />
    <glyph glyph-name="Ohungarumlaut" unicode="&#x150;" horiz-adv-x="438" 
d="M14 430q0 200 52 290t153 90t153 -90t52 -290v-60q0 -200 -52 -290t-153 -90t-153 90t-52 290v60zM179 166q0 -24 11 -37.5t29 -13.5t29 13.5t11 37.5v473q0 24 -11 37.5t-29 13.5t-29 -13.5t-11 -37.5v-473zM99 840l5 95h122v-10l-37 -95h-90v10zM237 840l15 95h127v-10
l-47 -95h-95v10z" />
    <glyph glyph-name="ohungarumlaut" unicode="&#x151;" horiz-adv-x="378" 
d="M58 579q44 71 131 71t131 -71t44 -189v-140q0 -118 -44 -189t-131 -71t-131 71t-44 189v140q0 118 44 189zM154 136q0 -25 9 -38t26 -13t26 13t9 38v368q0 25 -9 38t-26 13t-26 -13t-9 -38v-368zM77 695l5 105h112v-10l-37 -105h-80v10zM202 695l15 105h117v-10l-47 -105
h-85v10z" />
    <glyph glyph-name="OE" unicode="&#x152;" horiz-adv-x="501" 
d="M69 711.5q55 88.5 160 88.5h260v-130h-110v-200h95v-130h-95v-210h110v-130h-260q-105 0 -160 88.5t-55 281.5v60q0 193 55 281.5zM179 171q0 -51 50 -51v565q-50 0 -50 -51v-463z" />
    <glyph glyph-name="oe" unicode="&#x153;" horiz-adv-x="573" 
d="M14 390q0 118 41 189t120 71q48 0 75.5 -20.5t41.5 -59.5h10q15 40 41.5 60t71.5 20q75 0 108 -54t33 -141v-150h-192v-169q0 -25 9.5 -38t26.5 -13q16 0 25 13t9 36v66q0 37 6 55h119v-10q-5 -20 -5 -65q0 -90 -35 -140t-107 -50q-43 0 -70.5 22t-39.5 63h-10
q-15 -41 -42 -63t-75 -22q-79 0 -120 71t-41 189v140zM163 98q9 -13 26 -13t26 13t9 38v368q0 25 -9 38t-26 13t-26 -13t-9 -38v-368q0 -25 9 -38zM434 390v114q0 25 -9 38t-26 13t-26 -13t-9 -38v-114h70z" />
    <glyph glyph-name="Racute" unicode="&#x154;" horiz-adv-x="398" 
d="M168 800q64 0 114 -29t79 -83.5t29 -130.5q0 -72 -20.5 -119.5t-64.5 -90.5l75 -337v-10h-145l-57 300h-15l7 -300h-150v800h148zM170 410h5q28 0 46.5 21t18.5 59v110q0 38 -18.5 59t-46.5 21h-5v-270zM108 840l40 95h135v-10l-75 -95h-100v10z" />
    <glyph glyph-name="racute" unicode="&#x155;" horiz-adv-x="256" 
d="M120 640l10 -85h10q5 42 23.5 64.5t57.5 22.5h29v-125h-25q-34 0 -49.5 -17.5t-15.5 -60.5v-439h-135v640h95zM83 695l20 105h125v-10l-55 -105h-90v10z" />
    <glyph glyph-name="uni0156" unicode="&#x156;" horiz-adv-x="398" 
d="M168 800q64 0 114 -29t79 -83.5t29 -130.5q0 -72 -20.5 -119.5t-64.5 -90.5l75 -337v-10h-145l-57 300h-15l7 -300h-150v800h148zM170 410h5q28 0 46.5 21t18.5 59v110q0 38 -18.5 59t-46.5 21h-5v-270zM273 -35v-90l-75 -85h-45v10l45 70h-70v95h145z" />
    <glyph glyph-name="uni0157" unicode="&#x157;" horiz-adv-x="256" 
d="M120 640l10 -85h10q5 42 23.5 64.5t57.5 22.5h29v-125h-25q-34 0 -49.5 -17.5t-15.5 -60.5v-439h-135v640h95zM165 -35v-90l-75 -85h-45v10l45 70h-70v95h145z" />
    <glyph glyph-name="Rcaron" unicode="&#x158;" horiz-adv-x="398" 
d="M168 800q64 0 114 -29t79 -83.5t29 -130.5q0 -72 -20.5 -119.5t-64.5 -90.5l75 -337v-10h-145l-57 300h-15l7 -300h-150v800h148zM170 410h5q28 0 46.5 21t18.5 59v110q0 38 -18.5 59t-46.5 21h-5v-270zM143 935l30 -45h10l30 45h100v-10l-65 -95h-140l-65 95v10h100z
" />
    <glyph glyph-name="rcaron" unicode="&#x159;" horiz-adv-x="256" 
d="M120 640l10 -85h10q5 42 23.5 64.5t57.5 22.5h29v-125h-25q-34 0 -49.5 -17.5t-15.5 -60.5v-439h-135v640h95zM113 800l20 -55h10l20 55h95v-10l-55 -105h-130l-55 105v10h95z" />
    <glyph glyph-name="Sacute" unicode="&#x15a;" horiz-adv-x="384" 
d="M4 275h137q6 -12 6 -45v-74q0 -23 10 -37t27 -14q18 0 28 13.5t10 35.5v15q0 37 -22 77t-64 95l-29 38q-53 69 -74.5 120.5t-21.5 115.5q0 87 49 141t133 54q85 0 131.5 -55.5t46.5 -151.5q0 -39 6 -58v-10h-135q-6 17 -6 45v67q0 23 -10 35.5t-26 12.5q-17 0 -28 -13
t-11 -37v-15q0 -34 17.5 -66t57.5 -82l30 -38q55 -70 80.5 -127t25.5 -127q0 -92 -48 -146t-130 -54q-91 0 -137.5 56.5t-46.5 162.5q0 38 -6 56v10zM120 840l40 95h135v-10l-75 -95h-100v10z" />
    <glyph glyph-name="sacute" unicode="&#x15b;" horiz-adv-x="346" 
d="M289 607q43 -43 43 -122q0 -17 4 -30v-10h-114q-5 13 -5 40v19q0 51 -37 51q-18 0 -28 -12.5t-10 -34.5q0 -24 13.5 -45.5t30.5 -42t23 -27.5l19 -23q37 -45 57.5 -74t34.5 -65t14 -78q0 -75 -45 -119t-117 -44q-73 0 -116.5 45.5t-43.5 129.5q0 17 -4 30v10h116
q5 -12 5 -40v-30q0 -23 9.5 -36.5t28.5 -13.5t28 13t9 35q0 28 -16 55.5t-51 70.5q-4 6 -14 18l-18 23q-35 46 -52 70t-29 54.5t-12 65.5q0 74 45.5 117t115.5 43q73 0 116 -43zM126 695l20 105h125v-10l-55 -105h-90v10z" />
    <glyph glyph-name="Scedilla" unicode="&#x15e;" horiz-adv-x="384" 
d="M236 580v67q0 23 -10 35.5t-26 12.5q-17 0 -28 -13t-11 -37v-15q0 -34 17.5 -66t57.5 -82l30 -38q55 -70 80.5 -127t25.5 -127q0 -84 -41 -137t-112 -62v-41h10q13 21 42 21q21 0 34.5 -13.5t13.5 -37.5q0 -50 -56.5 -79t-133.5 -36h-10v70h62q47 0 47 26q0 17 -23 17
h-38v73q-77 8 -117 64t-40 154q0 38 -6 56v10h137q6 -12 6 -45v-74q0 -23 10 -37t27 -14q18 0 28 13.5t10 35.5v15q0 37 -22 77t-64 95l-29 38q-53 69 -74.5 120.5t-21.5 115.5q0 87 49 141t133 54q85 0 131.5 -55.5t46.5 -151.5q0 -39 6 -58v-10h-135q-6 17 -6 45z" />
    <glyph glyph-name="scedilla" unicode="&#x15f;" horiz-adv-x="346" 
d="M217 485v19q0 51 -37 51q-18 0 -28 -12.5t-10 -34.5q0 -24 13.5 -45.5t30.5 -42t23 -27.5l19 -23q37 -45 57.5 -74t34.5 -65t14 -78q0 -67 -36.5 -110t-96.5 -51v-42h10q13 21 42 21q21 0 34.5 -13.5t13.5 -37.5q0 -50 -56.5 -79t-133.5 -36h-10v70h62q47 0 47 26
q0 17 -23 17h-38v73q-63 7 -100 52t-37 122q0 17 -4 30v10h116q5 -12 5 -40v-30q0 -23 9.5 -36.5t28.5 -13.5t28 13t9 35q0 28 -16 55.5t-51 70.5q-4 6 -14 18l-18 23q-35 46 -52 70t-29 54.5t-12 65.5q0 74 45.5 117t115.5 43q73 0 116 -43t43 -122q0 -17 4 -30v-10h-114
q-5 13 -5 40z" />
    <glyph glyph-name="Scaron" unicode="&#x160;" horiz-adv-x="384" 
d="M4 275h137q6 -12 6 -45v-74q0 -23 10 -37t27 -14q18 0 28 13.5t10 35.5v15q0 37 -22 77t-64 95l-29 38q-53 69 -74.5 120.5t-21.5 115.5q0 87 49 141t133 54q85 0 131.5 -55.5t46.5 -151.5q0 -39 6 -58v-10h-135q-6 17 -6 45v67q0 23 -10 35.5t-26 12.5q-17 0 -28 -13
t-11 -37v-15q0 -34 17.5 -66t57.5 -82l30 -38q55 -70 80.5 -127t25.5 -127q0 -92 -48 -146t-130 -54q-91 0 -137.5 56.5t-46.5 162.5q0 38 -6 56v10zM155 935l30 -45h10l30 45h100v-10l-65 -95h-140l-65 95v10h100z" />
    <glyph glyph-name="scaron" unicode="&#x161;" horiz-adv-x="346" 
d="M289 607q43 -43 43 -122q0 -17 4 -30v-10h-114q-5 13 -5 40v19q0 51 -37 51q-18 0 -28 -12.5t-10 -34.5q0 -24 13.5 -45.5t30.5 -42t23 -27.5l19 -23q37 -45 57.5 -74t34.5 -65t14 -78q0 -75 -45 -119t-117 -44q-73 0 -116.5 45.5t-43.5 129.5q0 17 -4 30v10h116
q5 -12 5 -40v-30q0 -23 9.5 -36.5t28.5 -13.5t28 13t9 35q0 28 -16 55.5t-51 70.5q-4 6 -14 18l-18 23q-35 46 -52 70t-29 54.5t-12 65.5q0 74 45.5 117t115.5 43q73 0 116 -43zM156 800l20 -55h10l20 55h95v-10l-55 -105h-130l-55 105v10h95z" />
    <glyph glyph-name="uni0162" unicode="&#x162;" horiz-adv-x="366" 
d="M358 800v-130h-100v-670h-150v670h-100v130h350zM209 0v-50h10q13 21 42 21q21 0 34.5 -13.5t13.5 -37.5q0 -50 -56.5 -79t-133.5 -36h-10v70h62q47 0 47 26q0 17 -23 17h-38v82h52z" />
    <glyph glyph-name="uni0163" unicode="&#x163;" horiz-adv-x="283" 
d="M273.5 -42.5q13.5 -13.5 13.5 -37.5q0 -50 -56.5 -79t-133.5 -36h-10v70h62q47 0 47 26q0 17 -23 17h-38v80q-67 26 -67 127v430h-60v82q54 4 74.5 35t25.5 98h95v-130h70v-85h-70v-430q0 -22 8 -31t27 -9h21l8 -75q-33 -19 -80 -20v-40h10q13 21 42 21q21 0 34.5 -13.5z
" />
    <glyph glyph-name="Tcaron" unicode="&#x164;" horiz-adv-x="366" 
d="M358 800v-130h-100v-670h-150v670h-100v130h350zM148 935l30 -45h10l30 45h100v-10l-65 -95h-140l-65 95v10h100z" />
    <glyph glyph-name="tcaron" unicode="&#x165;" horiz-adv-x="283" 
d="M353 830v-10l-60 -150h-50v10l5 150h105zM8 637q54 4 74.5 35t25.5 98h95v-130h70v-85h-70v-430q0 -22 8 -31t27 -9h21l8 -75q-37 -20 -84 -20q-51 0 -83 31t-32 104v430h-60v82z" />
    <glyph glyph-name="Tbar" unicode="&#x166;" horiz-adv-x="366" 
d="M258 670v-230h50v-60h-50v-380h-150v380h-50v60h50v230h-100v130h350v-130h-100z" />
    <glyph glyph-name="tbar" unicode="&#x167;" horiz-adv-x="283" 
d="M203 555v-195h70v-60h-70v-175q0 -22 8 -31t27 -9h21l8 -75q-37 -20 -84 -20q-51 0 -83 31t-32 104v175h-60v60h60v195h-60v82q54 4 74.5 35t25.5 98h95v-130h70v-85h-70z" />
    <glyph glyph-name="Umacron" unicode="&#x16a;" horiz-adv-x="410" 
d="M390 800v-600q0 -98 -49.5 -154t-135.5 -56t-135.5 56t-49.5 154v600h150v-639q0 -51 35 -51t35 51v639h150zM338 915v-80h-265v80h265z" />
    <glyph glyph-name="umacron" unicode="&#x16b;" 
d="M362 0h-90l-10 80h-10q-14 -44 -41 -64.5t-73 -20.5q-57 0 -86.5 41.5t-29.5 114.5v489h135v-494q0 -25 9 -38t25 -13q17 0 26.5 13.5t9.5 37.5v494h135v-640zM315 770v-80h-245v80h245z" />
    <glyph glyph-name="Uring" unicode="&#x16e;" horiz-adv-x="410" 
d="M390 800v-600q0 -98 -49.5 -154t-135.5 -56t-135.5 56t-49.5 154v600h150v-639q0 -51 35 -51t35 51v639h150zM144.5 838q-24.5 23 -24.5 57t24.5 57t60.5 23t60.5 -23t24.5 -57t-24.5 -57t-60.5 -23t-60.5 23zM223 877q7 7 7 18t-7 18t-18 7t-18 -7t-7 -18t7 -18t18 -7
t18 7z" />
    <glyph glyph-name="uring" unicode="&#x16f;" 
d="M362 0h-90l-10 80h-10q-14 -44 -41 -64.5t-73 -20.5q-57 0 -86.5 41.5t-29.5 114.5v489h135v-494q0 -25 9 -38t25 -13q17 0 26.5 13.5t9.5 37.5v494h135v-640zM131.5 688q-24.5 23 -24.5 57t24.5 57t60.5 23t60.5 -23t24.5 -57t-24.5 -57t-60.5 -23t-60.5 23zM210 727
q7 7 7 18t-7 18t-18 7t-18 -7t-7 -18t7 -18t18 -7t18 7z" />
    <glyph glyph-name="Uhungarumlaut" unicode="&#x170;" horiz-adv-x="410" 
d="M390 800v-600q0 -98 -49.5 -154t-135.5 -56t-135.5 56t-49.5 154v600h150v-639q0 -51 35 -51t35 51v639h150zM85 840l5 95h122v-10l-37 -95h-90v10zM223 840l15 95h127v-10l-47 -95h-95v10z" />
    <glyph glyph-name="uhungarumlaut" unicode="&#x171;" 
d="M362 0h-90l-10 80h-10q-14 -44 -41 -64.5t-73 -20.5q-57 0 -86.5 41.5t-29.5 114.5v489h135v-494q0 -25 9 -38t25 -13q17 0 26.5 13.5t9.5 37.5v494h135v-640zM80 695l5 105h112v-10l-37 -105h-80v10zM205 695l15 105h117v-10l-47 -105h-85v10z" />
    <glyph glyph-name="Uogonek" unicode="&#x172;" horiz-adv-x="410" 
d="M390 800v-600q0 -55 -16.5 -98t-46.5 -70q-43 -47 -57 -72.5t-14 -47.5q0 -20 11 -28.5t34 -8.5h22v-60h-34q-52 0 -84 19.5t-32 57.5q0 46 52 89v10q-7 -1 -20 -1q-86 0 -135.5 56t-49.5 154v600h150v-639q0 -51 35 -51t35 51v639h150z" />
    <glyph glyph-name="uogonek" unicode="&#x173;" 
d="M340 0q-25 -35 -35 -54t-10 -36q0 -19 11 -27t34 -8h22v-60h-34q-52 0 -84 19.5t-32 57.5q0 31 20 54.5t58 53.5h-18l-10 80h-10q-14 -44 -41 -64.5t-73 -20.5q-57 0 -86.5 41.5t-29.5 114.5v489h135v-494q0 -25 9 -38t25 -13q17 0 26.5 13.5t9.5 37.5v494h135v-640h-22z
" />
    <glyph glyph-name="Wcircumflex" unicode="&#x174;" horiz-adv-x="490" 
d="M135 800l20 -450h10l30 450h100l30 -450h10l20 450h125v-10l-45 -790h-155l-30 350h-10l-30 -350h-155l-45 790v10h125zM110 840l65 95h140l65 -95v-10h-100l-30 45h-10l-30 -45h-100v10z" />
    <glyph glyph-name="wcircumflex" unicode="&#x175;" horiz-adv-x="452" 
d="M6 640h110l23 -330h10l32 330h90l32 -330h10l23 330h110v-10l-65 -630h-120l-30 310h-10l-30 -310h-120l-65 630v10zM106 695l55 105h130l55 -105v-10h-95l-20 55h-10l-20 -55h-95v10z" />
    <glyph glyph-name="Ycircumflex" unicode="&#x176;" horiz-adv-x="370" 
d="M105 285l-100 505v10h140l35 -247h10l35 247h140v-10l-100 -505v-285h-160v285zM50 840l65 95h140l65 -95v-10h-100l-30 45h-10l-30 -45h-100v10z" />
    <glyph glyph-name="ycircumflex" unicode="&#x177;" horiz-adv-x="338" 
d="M4 630v10h125l35 -360h10l35 360h125v-10l-106 -780h-117v10l32 215h-65zM49 695l55 105h130l55 -105v-10h-95l-20 55h-10l-20 -55h-95v10z" />
    <glyph glyph-name="Ydieresis" unicode="&#x178;" horiz-adv-x="370" 
d="M105 285l-100 505v10h140l35 -247h10l35 247h140v-10l-100 -505v-285h-160v285zM167 935v-105h-125v105h125zM328 935v-105h-125v105h125z" />
    <glyph glyph-name="Zacute" unicode="&#x179;" horiz-adv-x="385" 
d="M15 115l195 560h-195v125h355v-115l-195 -560h195v-125h-355v115zM122 840l40 95h135v-10l-75 -95h-100v10z" />
    <glyph glyph-name="zacute" unicode="&#x17a;" horiz-adv-x="318" 
d="M14 60l142 490h-142v90h290v-60l-142 -490h142v-90h-290v60zM111 695l20 105h125v-10l-55 -105h-90v10z" />
    <glyph glyph-name="Zdotaccent" unicode="&#x17b;" horiz-adv-x="385" 
d="M15 115l195 560h-195v125h355v-115l-195 -560h195v-125h-355v115zM270 935v-105h-155v105h155z" />
    <glyph glyph-name="zdotaccent" unicode="&#x17c;" horiz-adv-x="318" 
d="M14 60l142 490h-142v90h290v-60l-142 -490h142v-90h-290v60zM239 800v-115h-145v115h145z" />
    <glyph glyph-name="Zcaron" unicode="&#x17d;" horiz-adv-x="385" 
d="M15 115l195 560h-195v125h355v-115l-195 -560h195v-125h-355v115zM157 935l30 -45h10l30 45h100v-10l-65 -95h-140l-65 95v10h100z" />
    <glyph glyph-name="zcaron" unicode="&#x17e;" horiz-adv-x="318" 
d="M14 60l142 490h-142v90h290v-60l-142 -490h142v-90h-290v60zM141 800l20 -55h10l20 55h95v-10l-55 -105h-130l-55 105v10h95z" />
    <glyph glyph-name="uni0218" unicode="&#x218;" horiz-adv-x="384" 
d="M4 275h137q6 -12 6 -45v-74q0 -23 10 -37t27 -14q18 0 28 13.5t10 35.5v15q0 37 -22 77t-64 95l-29 38q-53 69 -74.5 120.5t-21.5 115.5q0 87 49 141t133 54q85 0 131.5 -55.5t46.5 -151.5q0 -39 6 -58v-10h-135q-6 17 -6 45v67q0 23 -10 35.5t-26 12.5q-17 0 -28 -13
t-11 -37v-15q0 -34 17.5 -66t57.5 -82l30 -38q55 -70 80.5 -127t25.5 -127q0 -92 -48 -146t-130 -54q-91 0 -137.5 56.5t-46.5 162.5q0 38 -6 56v10zM266 -35v-90l-75 -85h-45v10l45 70h-70v95h145z" />
    <glyph glyph-name="uni0219" unicode="&#x219;" horiz-adv-x="346" 
d="M289 607q43 -43 43 -122q0 -17 4 -30v-10h-114q-5 13 -5 40v19q0 51 -37 51q-18 0 -28 -12.5t-10 -34.5q0 -24 13.5 -45.5t30.5 -42t23 -27.5l19 -23q37 -45 57.5 -74t34.5 -65t14 -78q0 -75 -45 -119t-117 -44q-73 0 -116.5 45.5t-43.5 129.5q0 17 -4 30v10h116
q5 -12 5 -40v-30q0 -23 9.5 -36.5t28.5 -13.5t28 13t9 35q0 28 -16 55.5t-51 70.5q-4 6 -14 18l-18 23q-35 46 -52 70t-29 54.5t-12 65.5q0 74 45.5 117t115.5 43q73 0 116 -43zM248 -35v-90l-75 -85h-45v10l45 70h-70v95h145z" />
    <glyph glyph-name="uni021A" unicode="&#x21a;" horiz-adv-x="366" 
d="M358 800v-130h-100v-670h-150v670h-100v130h350zM256 -35v-90l-75 -85h-45v10l45 70h-70v95h145z" />
    <glyph glyph-name="uni021B" unicode="&#x21b;" horiz-adv-x="283" 
d="M8 637q54 4 74.5 35t25.5 98h95v-130h70v-85h-70v-430q0 -22 8 -31t27 -9h21l8 -75q-37 -20 -84 -20q-51 0 -83 31t-32 104v430h-60v82zM234 -35v-90l-75 -85h-45v10l45 70h-70v95h145z" />
    <glyph glyph-name="uni0237" unicode="&#x237;" horiz-adv-x="185" 
d="M160 -20q0 -73 -32 -104t-83 -31q-45 0 -83 15l8 80h20q19 0 27 9t8 31v660h135v-660z" />
    <glyph glyph-name="circumflex" unicode="&#x2c6;" horiz-adv-x="280" 
d="M20 695l55 105h130l55 -105v-10h-95l-20 55h-10l-20 -55h-95v10z" />
    <glyph glyph-name="caron" unicode="&#x2c7;" horiz-adv-x="280" 
d="M115 800l20 -55h10l20 55h95v-10l-55 -105h-130l-55 105v10h95z" />
    <glyph glyph-name="breve" unicode="&#x2d8;" horiz-adv-x="260" 
d="M95 800q0 -45 35 -45t35 45h75q0 -57 -29 -88.5t-81 -31.5t-81 31.5t-29 88.5h75z" />
    <glyph glyph-name="dotaccent" unicode="&#x2d9;" horiz-adv-x="185" 
d="M165 800v-115h-145v115h145z" />
    <glyph glyph-name="ring" unicode="&#x2da;" horiz-adv-x="210" 
d="M44.5 688q-24.5 23 -24.5 57t24.5 57t60.5 23t60.5 -23t24.5 -57t-24.5 -57t-60.5 -23t-60.5 23zM123 727q7 7 7 18t-7 18t-18 7t-18 -7t-7 -18t7 -18t18 -7t18 7z" />
    <glyph glyph-name="ogonek" unicode="&#x2db;" horiz-adv-x="190" 
d="M113 -54q-10 -19 -10 -36q0 -19 11 -27t34 -8h22v-60h-34q-52 0 -84 19.5t-32 57.5q0 31 20 54.5t58 53.5h50q-25 -35 -35 -54z" />
    <glyph glyph-name="tilde" unicode="&#x2dc;" horiz-adv-x="306" 
d="M286 800v-30q0 -40 -17.5 -65t-54.5 -25q-22 0 -37 7t-33 19q-13 10 -22.5 14.5t-20.5 4.5q-17 0 -24 -9.5t-7 -30.5h-50v30q0 40 17.5 65t54.5 25q22 0 37 -7t33 -19q13 -10 22.5 -14.5t20.5 -4.5q17 0 24 9.5t7 30.5h50z" />
    <glyph glyph-name="hungarumlaut" unicode="&#x2dd;" horiz-adv-x="297" 
d="M20 695l5 105h112v-10l-37 -105h-80v10zM145 695l15 105h117v-10l-47 -105h-85v10z" />
    <glyph glyph-name="gravecomb" unicode="&#x300;" horiz-adv-x="0" 
d="M-157 685l-55 105v10h125l20 -105v-10h-90z" />
    <glyph glyph-name="acutecomb" unicode="&#x301;" horiz-adv-x="0" 
d="M-178 695l20 105h125v-10l-55 -105h-90v10z" />
    <glyph glyph-name="uni0302" unicode="&#x302;" horiz-adv-x="0" 
d="M-243 695l55 105h130l55 -105v-10h-95l-20 55h-10l-20 -55h-95v10z" />
    <glyph glyph-name="tildecomb" unicode="&#x303;" horiz-adv-x="0" 
d="M-40 800v-30q0 -40 -17.5 -65t-54.5 -25q-22 0 -37 7t-33 19q-13 10 -22.5 14.5t-20.5 4.5q-17 0 -24 -9.5t-7 -30.5h-50v30q0 40 17.5 65t54.5 25q22 0 37 -7t33 -19q13 -10 22.5 -14.5t20.5 -4.5q17 0 24 9.5t7 30.5h50z" />
    <glyph glyph-name="uni0304" unicode="&#x304;" horiz-adv-x="0" 
d="M-20 770v-80h-245v80h245z" />
    <glyph glyph-name="uni0306" unicode="&#x306;" horiz-adv-x="0" 
d="M-157 800q0 -45 35 -45t35 45h75q0 -57 -29 -88.5t-81 -31.5t-81 31.5t-29 88.5h75z" />
    <glyph glyph-name="uni0307" unicode="&#x307;" horiz-adv-x="0" 
d="M-30 800v-115h-145v115h145z" />
    <glyph glyph-name="uni0308" unicode="&#x308;" horiz-adv-x="0" 
d="M-180 800v-115h-120v115h120zM-30 800v-115h-120v115h120z" />
    <glyph glyph-name="uni030A" unicode="&#x30a;" horiz-adv-x="0" 
d="M-175.5 688q-24.5 23 -24.5 57t24.5 57t60.5 23t60.5 -23t24.5 -57t-24.5 -57t-60.5 -23t-60.5 23zM-97 727q7 7 7 18t-7 18t-18 7t-18 -7t-7 -18t7 -18t18 -7t18 7z" />
    <glyph glyph-name="uni030B" unicode="&#x30b;" horiz-adv-x="0" 
d="M-300 695l5 105h112v-10l-37 -105h-80v10zM-175 695l15 105h117v-10l-47 -105h-85v10z" />
    <glyph glyph-name="uni030C" unicode="&#x30c;" horiz-adv-x="0" 
d="M-148 800l20 -55h10l20 55h95v-10l-55 -105h-130l-55 105v10h95z" />
    <glyph glyph-name="uni0312" unicode="&#x312;" horiz-adv-x="0" 
d="M-30 760v-95h-145v90l75 85h45v-10l-45 -70h70z" />
    <glyph glyph-name="uni0326" unicode="&#x326;" horiz-adv-x="0" 
d="M-30 -35v-90l-75 -85h-45v10l45 70h-70v95h145z" />
    <glyph glyph-name="uni0327" unicode="&#x327;" horiz-adv-x="0" 
d="M-110 0v-50h10q13 21 42 21q21 0 34.5 -13.5t13.5 -37.5q0 -50 -56.5 -79t-133.5 -36h-10v70h62q47 0 47 26q0 17 -23 17h-38v82h52z" />
    <glyph glyph-name="uni0328" unicode="&#x328;" horiz-adv-x="0" 
d="M-97 -54q-10 -19 -10 -36q0 -19 11 -27t34 -8h22v-60h-34q-52 0 -84 19.5t-32 57.5q0 31 20 54.5t58 53.5h50q-25 -35 -35 -54z" />
    <glyph glyph-name="Wgrave" unicode="&#x1e80;" horiz-adv-x="490" 
d="M135 800l20 -450h10l30 450h100l30 -450h10l20 450h125v-10l-45 -790h-155l-30 350h-10l-30 -350h-155l-45 790v10h125zM216 830l-75 95v10h135l40 -95v-10h-100z" />
    <glyph glyph-name="wgrave" unicode="&#x1e81;" horiz-adv-x="452" 
d="M6 640h110l23 -330h10l32 330h90l32 -330h10l23 330h110v-10l-65 -630h-120l-30 310h-10l-30 -310h-120l-65 630v10zM192 685l-55 105v10h125l20 -105v-10h-90z" />
    <glyph glyph-name="Wacute" unicode="&#x1e82;" horiz-adv-x="490" 
d="M135 800l20 -450h10l30 450h100l30 -450h10l20 450h125v-10l-45 -790h-155l-30 350h-10l-30 -350h-155l-45 790v10h125zM175 840l40 95h135v-10l-75 -95h-100v10z" />
    <glyph glyph-name="wacute" unicode="&#x1e83;" horiz-adv-x="452" 
d="M6 640h110l23 -330h10l32 330h90l32 -330h10l23 330h110v-10l-65 -630h-120l-30 310h-10l-30 -310h-120l-65 630v10zM171 695l20 105h125v-10l-55 -105h-90v10z" />
    <glyph glyph-name="Wdieresis" unicode="&#x1e84;" horiz-adv-x="490" 
d="M135 800l20 -450h10l30 450h100l30 -450h10l20 450h125v-10l-45 -790h-155l-30 350h-10l-30 -350h-155l-45 790v10h125zM227 935v-105h-125v105h125zM388 935v-105h-125v105h125z" />
    <glyph glyph-name="wdieresis" unicode="&#x1e85;" horiz-adv-x="452" 
d="M6 640h110l23 -330h10l32 330h90l32 -330h10l23 330h110v-10l-65 -630h-120l-30 310h-10l-30 -310h-120l-65 630v10zM211 800v-115h-120v115h120zM361 800v-115h-120v115h120z" />
    <glyph glyph-name="Ygrave" unicode="&#x1ef2;" horiz-adv-x="370" 
d="M105 285l-100 505v10h140l35 -247h10l35 247h140v-10l-100 -505v-285h-160v285zM156 830l-75 95v10h135l40 -95v-10h-100z" />
    <glyph glyph-name="ygrave" unicode="&#x1ef3;" horiz-adv-x="338" 
d="M4 630v10h125l35 -360h10l35 360h125v-10l-106 -780h-117v10l32 215h-65zM135 685l-55 105v10h125l20 -105v-10h-90z" />
    <glyph glyph-name="endash" unicode="&#x2013;" horiz-adv-x="395" 
d="M370 370v-110h-345v110h345z" />
    <glyph glyph-name="emdash" unicode="&#x2014;" horiz-adv-x="515" 
d="M490 370v-110h-465v110h465z" />
    <glyph glyph-name="quoteleft" unicode="&#x2018;" horiz-adv-x="175" 
d="M145 720v-160h-115v155l55 165h40v-10l-25 -150h45z" />
    <glyph glyph-name="quoteright" unicode="&#x2019;" horiz-adv-x="175" 
d="M145 800v-155l-55 -165h-40v10l25 150h-45v160h115z" />
    <glyph glyph-name="quotesinglbase" unicode="&#x201a;" horiz-adv-x="175" 
d="M145 160v-155l-55 -165h-40v10l25 150h-45v160h115z" />
    <glyph glyph-name="quotedblleft" unicode="&#x201c;" horiz-adv-x="300" 
d="M90 720h45v-160h-105v155l55 165h30v-10zM270 720v-160h-105v155l55 165h30v-10l-25 -150h45z" />
    <glyph glyph-name="quotedblright" unicode="&#x201d;" horiz-adv-x="300" 
d="M30 800h105v-155l-55 -165h-30v10l25 150h-45v160zM270 800v-155l-55 -165h-30v10l25 150h-45v160h105z" />
    <glyph glyph-name="quotedblbase" unicode="&#x201e;" horiz-adv-x="300" 
d="M30 160h105v-155l-55 -165h-30v10l25 150h-45v160zM270 160v-155l-55 -165h-30v10l25 150h-45v160h105z" />
    <glyph glyph-name="dagger" unicode="&#x2020;" horiz-adv-x="495" 
d="M480 430h-170v-580h-125v580h-170v110h170v260h125v-260h170v-110z" />
    <glyph glyph-name="daggerdbl" unicode="&#x2021;" horiz-adv-x="495" 
d="M310 430v-180h170v-110h-170v-290h-125v290h-170v110h170v180h-170v110h170v260h125v-260h170v-110h-170z" />
    <glyph glyph-name="bullet" unicode="&#x2022;" horiz-adv-x="320" 
d="M15 339q0 83 36.5 134.5t108.5 51.5t108.5 -51.5t36.5 -134.5v-8q0 -83 -36.5 -134.5t-108.5 -51.5t-108.5 51.5t-36.5 134.5v8z" />
    <glyph glyph-name="ellipsis" unicode="&#x2026;" horiz-adv-x="425" 
d="M125 160v-160h-95v160h95zM260 160v-160h-95v160h95zM395 160v-160h-95v160h95z" />
    <glyph glyph-name="perthousand" unicode="&#x2030;" horiz-adv-x="793" 
d="M47.5 533q-32.5 43 -32.5 117t32.5 117t87.5 43t87.5 -43t32.5 -117t-32.5 -117t-87.5 -43t-87.5 43zM485 800v-10l-322 -790h-120v10l322 790h120zM155 610v80q0 35 -20 35t-20 -35v-80q0 -35 20 -35t20 35zM305.5 33q-32.5 43 -32.5 117t32.5 117t87.5 43t87.5 -43
t32.5 -117t-32.5 -117t-87.5 -43t-87.5 43zM570.5 33q-32.5 43 -32.5 117t32.5 117t87.5 43t87.5 -43t32.5 -117t-32.5 -117t-87.5 -43t-87.5 43zM413 110v80q0 35 -20 35t-20 -35v-80q0 -35 20 -35t20 35zM678 110v80q0 35 -20 35t-20 -35v-80q0 -35 20 -35t20 35z" />
    <glyph glyph-name="prime" unicode="&#x2032;" horiz-adv-x="170" 
d="M135 800v-130l-55 -190h-40v320h95z" />
    <glyph glyph-name="primedbl" unicode="&#x2033;" horiz-adv-x="305" 
d="M135 800v-130l-55 -190h-40v320h95zM270 800v-130l-55 -190h-40v320h95z" />
    <glyph glyph-name="guilsinglleft" unicode="&#x2039;" horiz-adv-x="200" 
d="M190 525v-10l-65 -185v-10l65 -185v-10h-115l-70 195v10l70 195h115z" />
    <glyph glyph-name="guilsinglright" unicode="&#x203a;" horiz-adv-x="200" 
d="M195 330v-10l-70 -195h-115v10l65 185v10l-65 185v10h115z" />
    <glyph glyph-name="fraction" unicode="&#x2044;" horiz-adv-x="370" 
d="M360 800v-10l-216 -790h-134v10l216 790h134z" />
    <glyph glyph-name="Euro" unicode="&#x20ac;" horiz-adv-x="486" 
d="M478 245v-10q-4 -14 -4.5 -33t-0.5 -27q-2 -77 -42.5 -131t-125.5 -54q-94 0 -146.5 72.5t-61.5 232.5h-87v15l12 70h73v50h-64l14 85h53q10 155 62 225t147 70q85 0 123.5 -53.5t40.5 -131.5q0 -35 5 -55v-10h-136q-5 17 -5 45v39q0 21 -9 33.5t-27 12.5t-28.5 -13.5
t-10.5 -37.5v-124h127v-15l-12 -70h-115v-50h106l-14 -85h-92v-129q0 -24 10.5 -37.5t28.5 -13.5t27 12.5t9 33.5v39q0 28 5 45h138z" />
    <glyph glyph-name="trademark" unicode="&#x2122;" horiz-adv-x="531" 
d="M197 800v-76h-49v-302h-91v302h-49v76h189zM321 800l41 -203h5l40 203h104v-378h-87l4 175h-4l-36 -175h-47l-36 175h-5l5 -175h-88v378h104z" />
    <glyph glyph-name="arrowleft" unicode="&#x2190;" horiz-adv-x="855" 
d="M835 370v-110h-610v-110h-60l-150 130v70l150 130h60v-110h610z" />
    <glyph glyph-name="arrowup" unicode="&#x2191;" horiz-adv-x="350" 
d="M340 490v-60h-110v-430h-110v430h-110v60l130 150h70z" />
    <glyph glyph-name="arrowright" unicode="&#x2192;" horiz-adv-x="855" 
d="M840 350v-70l-150 -130h-60v110h-610v110h610v110h60z" />
    <glyph glyph-name="arrowdown" unicode="&#x2193;" horiz-adv-x="350" 
d="M340 210v-60l-130 -150h-70l-130 150v60h110v430h110v-430h110z" />
    <glyph glyph-name="arrowboth" unicode="&#x2194;" horiz-adv-x="850" 
d="M835 350v-70l-150 -130h-60v110h-400v-110h-60l-150 130v70l150 130h60v-110h400v110h60z" />
    <glyph glyph-name="arrowupdn" unicode="&#x2195;" horiz-adv-x="350" 
d="M230 430v-220h110v-60l-130 -150h-70l-130 150v60h110v220h-110v60l130 150h70l130 -150v-60h-110z" />
    <glyph glyph-name="uni2196" unicode="&#x2196;" horiz-adv-x="675" 
d="M592 -10l-448 449l-79 -79l-45 45v185l50 50h185l45 -45l-78 -78l448 -449z" />
    <glyph glyph-name="uni2197" unicode="&#x2197;" horiz-adv-x="675" 
d="M655 590v-185l-45 -45l-78 79l-449 -449l-78 78l449 449l-79 78l45 45h185z" />
    <glyph glyph-name="uni2198" unicode="&#x2198;" horiz-adv-x="675" 
d="M655 235v-185l-50 -50h-185l-45 45l79 79l-449 448l78 78l449 -448l78 78z" />
    <glyph glyph-name="uni2199" unicode="&#x2199;" horiz-adv-x="675" 
d="M222 124l78 -79l-45 -45h-185l-50 50v185l45 45l79 -78l448 448l78 -78z" />
    <glyph glyph-name="emptyset" unicode="&#x2205;" horiz-adv-x="638" 
d="M542 563q59 -72 59 -165q0 -75 -39 -137.5t-104.5 -98.5t-138.5 -36q-84 0 -156 47l-84 -87l-64 64l81 83q-59 72 -59 165q0 75 39 137.5t104.5 98.5t138.5 36q84 0 156 -47l84 87l64 -64zM180 320l215 221q-35 19 -76 19q-44 0 -80 -21t-56.5 -58t-20.5 -83
q0 -45 18 -78zM458 476l-215 -221q35 -19 76 -19q44 0 80 21t56.5 58t20.5 83q0 45 -18 78z" />
    <glyph glyph-name="minus" unicode="&#x2212;" horiz-adv-x="404" 
d="M379 455v-120h-354v120h354z" />
    <glyph glyph-name="approxequal" unicode="&#x2248;" horiz-adv-x="404" 
d="M379 560v-45q0 -52 -18.5 -81t-63.5 -29q-21 0 -42 7t-55 21q-48 22 -69 22q-36 0 -36 -45h-70v45q0 52 18.5 81t63.5 29q21 0 42 -7t55 -21q48 -22 69 -22q36 0 36 45h70zM309 380h70v-45q0 -52 -18.5 -81t-63.5 -29q-21 0 -42 7t-55 21q-48 22 -69 22q-36 0 -36 -45
h-70v45q0 52 18.5 81t63.5 29q21 0 42 -7t55 -21q48 -22 69 -22q36 0 36 45z" />
    <glyph glyph-name="notequal" unicode="&#x2260;" horiz-adv-x="404" 
d="M256 425l-15 -60h138v-120h-169l-25 -100h-90v10l23 90h-93v120h123l15 60h-138v120h169l25 100h90v-10l-23 -90h93v-120h-123z" />
    <glyph glyph-name="lessequal" unicode="&#x2264;" horiz-adv-x="404" 
d="M379 576v-116l-213 -60v-10l213 -60v-116h-10l-344 121v120l344 121h10zM379 0h-354v120h354v-120z" />
    <glyph glyph-name="greaterequal" unicode="&#x2265;" horiz-adv-x="404" 
d="M379 455v-120l-344 -121h-10v116l213 60v10l-213 60v116h10zM379 120v-120h-354v120h354z" />
    <glyph glyph-name="lozenge" unicode="&#x25ca;" horiz-adv-x="460" 
d="M445 405v-10l-155 -395h-120l-155 395v10l155 395h120zM320 400l-85 233h-10l-85 -233l85 -233h10z" />
    <glyph glyph-name="i.loclTRK" horiz-adv-x="185" 
d="M160 640v-640h-135v640h135zM165 800v-115h-145v115h145z" />
    <glyph glyph-name="zero.lf" horiz-adv-x="438" 
d="M14 430q0 200 52 290t153 90t153 -90t52 -290v-60q0 -200 -52 -290t-153 -90t-153 90t-52 290v60zM179 166q0 -24 11 -37.5t29 -13.5t29 13.5t11 37.5v473q0 24 -11 37.5t-29 13.5t-29 -13.5t-11 -37.5v-473z" />
    <glyph glyph-name="one.lf" horiz-adv-x="250" 
d="M5 750l110 50h115v-800h-150v675h-75v75z" />
    <glyph glyph-name="two.lf" horiz-adv-x="384" 
d="M370 0h-356v95l161 354q49 107 49 176v18q0 25 -10 38.5t-28 13.5t-27.5 -12t-9.5 -36v-87q0 -28 -6 -45h-135v10q6 18 6 53v19q0 100 48.5 156.5t133.5 56.5q84 0 131 -54.5t47 -145.5q0 -72 -26.5 -140.5t-76.5 -159.5l-102 -185h201v-125z" />
    <glyph glyph-name="three.lf" horiz-adv-x="386" 
d="M8 300h137q6 -13 6 -45v-99q0 -23 10 -37t27 -14q18 0 28 13t10 35v154q0 22 -10.5 35t-31.5 13h-62v120h61q20 0 31.5 12.5t11.5 37.5v120q0 24 -11 37t-28 13q-16 0 -26 -12.5t-10 -35.5v-77q0 -32 -6 -45h-135v10q6 19 6 53v20q0 93 47.5 147.5t134.5 54.5
q85 0 131.5 -55t46.5 -148q0 -71 -29.5 -118t-70.5 -68v-10q46 -24 74 -70.5t28 -130.5q0 -104 -47.5 -162t-131.5 -58q-88 0 -136.5 56.5t-48.5 158.5v33q0 34 -6 52v10z" />
    <glyph glyph-name="four.lf" horiz-adv-x="364" 
d="M4 280l170 520h170v-800h-150v175h-190v105zM194 300v215h-10l-65 -215h75z" />
    <glyph glyph-name="five.lf" horiz-adv-x="389" 
d="M8 275h140q6 -13 6 -47v-72q0 -23 10 -37t27 -14q18 0 28 13t10 38v208q0 24 -11 37.5t-29 13.5q-35 0 -50 -50h-125l15 435h340v-125h-201l-8 -205h10q23 65 85 65q57 0 90.5 -58.5t33.5 -152.5v-84q0 -121 -49 -185.5t-132 -64.5q-88 0 -136 58t-48 163q0 35 -6 54v10z
" />
    <glyph glyph-name="six.lf" horiz-adv-x="407" 
d="M14 435q0 194 51.5 284.5t150.5 90.5q82 0 125 -55t43 -150q0 -40 5 -60v-10h-129q-6 20 -6 46v63q0 21 -10 33.5t-28 12.5q-19 0 -30.5 -13.5t-11.5 -37.5v-209h10q24 60 85 60q60 0 95 -60.5t35 -145.5v-44q0 -73 -22 -129.5t-63.5 -88.5t-97.5 -32q-96 0 -149 87.5
t-53 272.5v85zM185 123.5q11 -13.5 29 -13.5t29 13.5t11 37.5v158q0 24 -11 37.5t-29 13.5t-29 -13.5t-11 -37.5v-158q0 -24 11 -37.5z" />
    <glyph glyph-name="seven.lf" horiz-adv-x="351" 
d="M8 800h335v-95l-147 -705h-148v10l144 665h-184v125z" />
    <glyph glyph-name="eight.lf" horiz-adv-x="406" 
d="M37.5 334q29.5 52 70.5 72v10q-40 26 -67.5 72t-27.5 117q0 61 25.5 107.5t68.5 72t96 25.5t96 -25.5t68.5 -72t25.5 -107.5q0 -71 -27.5 -117t-67.5 -72v-10q41 -20 70.5 -72t29.5 -131q0 -64 -25.5 -112t-70 -74.5t-99.5 -26.5t-99.5 26.5t-70 74.5t-25.5 112
q0 79 29.5 131zM203 465q40 0 40 60v110q0 60 -40 60t-40 -60v-110q0 -60 40 -60zM174 119.5q11 -14.5 29 -14.5t29 14.5t11 45.5v125q0 31 -11 45.5t-29 14.5t-29 -14.5t-11 -45.5v-125q0 -31 11 -45.5z" />
    <glyph glyph-name="nine.lf" horiz-adv-x="413" 
d="M399 365q0 -194 -50.5 -284.5t-147.5 -90.5q-83 0 -127.5 55t-44.5 150q0 40 -5 60v10h129q6 -19 6 -46v-63q0 -21 10 -33.5t28 -12.5q19 0 30.5 13.5t11.5 37.5v209h-10q-24 -60 -85 -60q-60 0 -95 60.5t-35 145.5v44q0 73 22 129.5t63.5 88.5t97.5 32q96 0 149 -87.5
t53 -272.5v-85zM228 676.5q-11 13.5 -29 13.5t-29 -13.5t-11 -37.5v-158q0 -24 11 -37.5t29 -13.5t29 13.5t11 37.5v158q0 24 -11 37.5z" />
    <glyph glyph-name="zero.lf.zero" horiz-adv-x="438" 
d="M372 720q52 -90 52 -290v-60q0 -200 -52 -290t-153 -90t-153 90t-52 290v60q0 200 52 290t153 90t153 -90zM259 639q0 24 -11 37.5t-29 13.5t-29 -13.5t-11 -37.5v-229h10l70 100v129zM259 400h-10l-70 -100v-134q0 -24 11 -37.5t29 -13.5t29 13.5t11 37.5v234z" />
    <glyph glyph-name="zero.tf" horiz-adv-x="400" 
d="M12 430q0 137 20 220.5t61.5 121.5t106.5 38t106.5 -38t61.5 -121.5t20 -220.5v-60q0 -137 -20 -220.5t-61.5 -121.5t-106.5 -38t-106.5 38t-61.5 121.5t-20 220.5v60zM165 166q0 -25 9 -38t26 -13t26 13t9 38v473q0 25 -9 38t-26 13t-26 -13t-9 -38v-473z" />
    <glyph glyph-name="one.tf" horiz-adv-x="400" 
d="M388 125v-125h-376v125h130v525h-105v80l140 70h115v-675h96z" />
    <glyph glyph-name="two.tf" horiz-adv-x="400" 
d="M380 0h-356v95l161 354q49 107 49 176v18q0 25 -10 38.5t-28 13.5t-27.5 -12t-9.5 -36v-87q0 -28 -6 -45h-135v10q6 18 6 53v19q0 100 48.5 156.5t133.5 56.5q84 0 131 -54.5t47 -145.5q0 -72 -26.5 -140.5t-76.5 -159.5l-102 -185h201v-125z" />
    <glyph glyph-name="three.tf" horiz-adv-x="400" 
d="M14 300h137q6 -13 6 -45v-99q0 -23 10 -37t27 -14q18 0 28 13t10 35v154q0 22 -10.5 35t-31.5 13h-62v120h61q20 0 31.5 12.5t11.5 37.5v120q0 24 -11 37t-28 13q-16 0 -26 -12.5t-10 -35.5v-77q0 -32 -6 -45h-135v10q6 19 6 53v20q0 93 47.5 147.5t134.5 54.5
q85 0 131.5 -55t46.5 -148q0 -71 -29.5 -118t-70.5 -68v-10q46 -24 74 -70.5t28 -130.5q0 -104 -47.5 -162t-131.5 -58q-88 0 -136.5 56.5t-48.5 158.5v33q0 34 -6 52v10z" />
    <glyph glyph-name="four.tf" horiz-adv-x="400" 
d="M10 280l190 520h170v-800h-150v175h-210v105zM220 300v233h-10l-85 -233h95z" />
    <glyph glyph-name="five.tf" horiz-adv-x="400" 
d="M13 275h140q6 -13 6 -47v-72q0 -23 10 -37t27 -14q18 0 28 13t10 38v208q0 24 -11 37.5t-29 13.5q-35 0 -50 -50h-125l15 435h340v-125h-201l-8 -205h10q23 65 85 65q57 0 90.5 -58.5t33.5 -152.5v-84q0 -121 -49 -185.5t-132 -64.5q-88 0 -136 58t-48 163q0 35 -6 54v10
z" />
    <glyph glyph-name="six.tf" horiz-adv-x="400" 
d="M15 435q0 195 49 285t148 90q82 0 125 -55t43 -150q0 -40 5 -60v-10h-129q-6 20 -6 46v63q0 21 -10 33.5t-28 12.5q-19 0 -30.5 -13.5t-11.5 -37.5v-209h10q24 60 85 60q59 0 92 -60t33 -146v-44q0 -112 -47 -181t-131 -69q-197 0 -197 360v85zM181 128.5
q11 -13.5 29 -13.5t29 13.5t11 37.5v153q0 24 -11 37.5t-29 13.5t-29 -13.5t-11 -37.5v-153q0 -24 11 -37.5z" />
    <glyph glyph-name="seven.tf" horiz-adv-x="400" 
d="M12 800h376v-95l-165 -705h-148v10l160 665h-223v125z" />
    <glyph glyph-name="eight.tf" horiz-adv-x="400" 
d="M37.5 335q27.5 52 67.5 71v10q-38 25 -64 71t-26 118q0 61 24 107.5t66.5 72t94.5 25.5t94.5 -25.5t66.5 -72t24 -107.5q0 -72 -26 -118t-64 -71v-10q40 -19 67.5 -71t27.5 -132q0 -64 -24.5 -112t-67.5 -74.5t-98 -26.5t-98 26.5t-67.5 74.5t-24.5 112q0 80 27.5 132z
M200 465q40 0 40 60v110q0 60 -40 60t-40 -60v-110q0 -60 40 -60zM171 119.5q11 -14.5 29 -14.5t29 14.5t11 45.5v125q0 31 -11 45.5t-29 14.5t-29 -14.5t-11 -45.5v-125q0 -31 11 -45.5z" />
    <glyph glyph-name="nine.tf" horiz-adv-x="400" 
d="M385 365q0 -195 -48.5 -285t-144.5 -90q-83 0 -127.5 55t-44.5 150q0 40 -5 60v10h129q6 -19 6 -46v-63q0 -21 10 -33.5t28 -12.5q19 0 30.5 13.5t11.5 37.5v209h-10q-24 -60 -85 -60q-59 0 -92 60t-33 146v44q0 112 47 181t131 69q197 0 197 -360v-85zM219 671.5
q-11 13.5 -29 13.5t-29 -13.5t-11 -37.5v-153q0 -24 11 -37.5t29 -13.5t29 13.5t11 37.5v153q0 24 -11 37.5z" />
    <glyph glyph-name="zero.tf.zero" horiz-adv-x="400" 
d="M306.5 772q41.5 -38 61.5 -121.5t20 -220.5v-60q0 -137 -20 -220.5t-61.5 -121.5t-106.5 -38t-106.5 38t-61.5 121.5t-20 220.5v60q0 137 20 220.5t61.5 121.5t106.5 38t106.5 -38zM235 639q0 25 -9 38t-26 13t-26 -13t-9 -38v-225h10l60 92v133zM235 396h-10l-60 -92
v-138q0 -25 9 -38t26 -13t26 13t9 38v230z" />
    <glyph glyph-name="zero.zero" horiz-adv-x="438" 
d="M372 720q52 -90 52 -290v-60q0 -200 -52 -290t-153 -90t-153 90t-52 290v60q0 200 52 290t153 90t153 -90zM259 639q0 24 -11 37.5t-29 13.5t-29 -13.5t-11 -37.5v-229h10l70 100v129zM259 400h-10l-70 -100v-134q0 -24 11 -37.5t29 -13.5t29 13.5t11 37.5v234z" />
    <glyph glyph-name="exclamdown.case" horiz-adv-x="185" 
d="M35 800h115v-160h-115v160zM30 200l35 395h55l35 -395v-200h-125v200z" />
    <glyph glyph-name="questiondown.case" horiz-adv-x="329" 
d="M107 640v160h115v-160h-115zM266 563q39 -42 39 -105q0 -53 -23 -97.5t-68 -91.5q-40 -42 -59.5 -74.5t-19.5 -65.5q0 -20 8 -32t24 -12t24.5 12.5t8.5 33.5v44q0 23 5 40h114v-10q-4 -13 -4 -46q0 -81 -39.5 -125t-110.5 -44t-110.5 42t-39.5 113q0 57 26 101.5t75 95.5
q41 43 57.5 69.5t16.5 57.5q0 20 -7.5 30.5t-20.5 10.5q-27 0 -27 -39v-21q0 -27 -5 -40h-109v10q4 13 4 40q0 62 37 103.5t101 41.5t103 -42z" />
    <glyph glyph-name="bullet.case" horiz-adv-x="320" 
d="M15 399q0 83 36.5 134.5t108.5 51.5t108.5 -51.5t36.5 -134.5v-8q0 -83 -36.5 -134.5t-108.5 -51.5t-108.5 51.5t-36.5 134.5v8z" />
    <glyph glyph-name="slash.case" horiz-adv-x="275" 
d="M270 860v-10l-135 -910h-130v10l135 910h130z" />
    <glyph glyph-name="backslash.case" horiz-adv-x="275" 
d="M270 -50v-10h-130l-135 910v10h130z" />
    <glyph glyph-name="parenleft.case" horiz-adv-x="235" 
d="M235 870q-33 -112 -51.5 -225.5t-18.5 -244.5t18.5 -244.5t51.5 -225.5v-10h-90q-61 111 -90.5 225.5t-29.5 254.5t29.5 254.5t90.5 225.5h90v-10z" />
    <glyph glyph-name="parenright.case" horiz-adv-x="240" 
d="M185.5 654.5q29.5 -114.5 29.5 -254.5t-29.5 -254.5t-90.5 -225.5h-90v10q33 112 51.5 225.5t18.5 244.5t-18.5 244.5t-51.5 225.5v10h90q61 -111 90.5 -225.5z" />
    <glyph glyph-name="braceleft.case" horiz-adv-x="295" 
d="M115 395q54 0 82 -25t28 -80v-290h70v-80h-70q-65 0 -100 34t-35 101v245q0 31 -13.5 45.5t-46.5 14.5h-20v80h20q33 0 46.5 14.5t13.5 45.5v245q0 67 35 101t100 34h70v-80h-70v-290q0 -55 -28 -80t-82 -25v-10z" />
    <glyph glyph-name="braceright.case" horiz-adv-x="295" 
d="M285 440v-80h-20q-33 0 -46.5 -14.5t-13.5 -45.5v-245q0 -67 -35 -101t-100 -34h-70v80h70v290q0 55 28 80t82 25v10q-54 0 -82 25t-28 80v290h-70v80h70q65 0 100 -34t35 -101v-245q0 -31 13.5 -45.5t46.5 -14.5h20z" />
    <glyph glyph-name="bracketleft.case" horiz-adv-x="235" 
d="M155 800v-800h80v-80h-215v960h215v-80h-80z" />
    <glyph glyph-name="bracketright.case" horiz-adv-x="235" 
d="M215 -80h-215v80h80v800h-80v80h215v-960z" />
    <glyph glyph-name="hyphen.case" horiz-adv-x="275" 
d="M250 455v-120h-225v120h225z" />
    <glyph glyph-name="endash.case" horiz-adv-x="395" 
d="M370 455v-120h-345v120h345z" />
    <glyph glyph-name="emdash.case" horiz-adv-x="515" 
d="M490 455v-120h-465v120h465z" />
    <glyph glyph-name="guillemotleft.case" horiz-adv-x="315" 
d="M170 605v-10l-65 -185v-10l65 -185v-10h-95l-70 195v10l70 195h95zM305 605v-10l-65 -185v-10l65 -185v-10h-95l-70 195v10l70 195h95z" />
    <glyph glyph-name="guillemotright.case" horiz-adv-x="315" 
d="M175 410v-10l-70 -195h-95v10l65 185v10l-65 185v10h95zM310 410v-10l-70 -195h-95v10l65 185v10l-65 185v10h95z" />
    <glyph glyph-name="guilsinglleft.case" horiz-adv-x="200" 
d="M190 605v-10l-65 -185v-10l65 -185v-10h-115l-70 195v10l70 195h115z" />
    <glyph glyph-name="guilsinglright.case" horiz-adv-x="200" 
d="M195 410v-10l-70 -195h-115v10l65 185v10l-65 185v10h115z" />
    <glyph glyph-name="arrowup.case" horiz-adv-x="350" 
d="M340 650v-60h-110v-590h-110v590h-110v60l130 150h70z" />
    <glyph glyph-name="arrowright.case" horiz-adv-x="855" 
d="M840 440v-70l-150 -130h-60v105h-610v120h610v105h60z" />
    <glyph glyph-name="arrowdown.case" horiz-adv-x="350" 
d="M340 210v-60l-130 -150h-70l-130 150v60h110v590h110v-590h110z" />
    <glyph glyph-name="arrowleft.case" horiz-adv-x="855" 
d="M835 465v-120h-610v-105h-60l-150 130v70l150 130h60v-105h610z" />
    <glyph glyph-name="arrowboth.case" horiz-adv-x="850" 
d="M835 440v-70l-150 -130h-60v105h-400v-105h-60l-150 130v70l150 130h60v-105h400v105h60z" />
    <glyph glyph-name="arrowupdn.case" horiz-adv-x="350" 
d="M230 590v-380h110v-60l-130 -150h-70l-130 150v60h110v380h-110v60l130 150h70l130 -150v-60h-110z" />
    <glyph glyph-name="at.case" horiz-adv-x="740" 
d="M20 500q0 166 86.5 248t235.5 82h66q148 0 230 -81.5t82 -248.5v-185q0 -87 -33.5 -136t-106.5 -49q-100 0 -130 90h-10q-8 -39 -32 -64.5t-69 -25.5q-69 0 -101.5 49t-32.5 136v170q0 87 32.5 136t101.5 49q45 0 69 -25.5t32 -64.5h10l15 80h70v-375q0 -25 7 -37.5
t23 -12.5t23 12.5t7 37.5v225q0 107 -48.5 161t-148.5 54h-56q-100 0 -148.5 -54t-48.5 -161v-220q0 -108 48.5 -161.5t148.5 -53.5h223v-105h-223q-149 0 -235.5 82t-86.5 248v200zM347 247.5q7 -12.5 23 -12.5t23 12.5t7 37.5v230q0 25 -7 37.5t-23 12.5t-23 -12.5
t-7 -37.5v-230q0 -25 7 -37.5z" />
    <glyph glyph-name="uni0308.case" horiz-adv-x="0" 
d="M-191 935v-105h-125v105h125zM-30 935v-105h-125v105h125z" />
    <glyph glyph-name="uni0307.case" horiz-adv-x="0" 
d="M-25 935v-105h-155v105h155z" />
    <glyph glyph-name="gravecomb.case" horiz-adv-x="0" 
d="M-152 830l-75 95v10h135l40 -95v-10h-100z" />
    <glyph glyph-name="acutecomb.case" horiz-adv-x="0" 
d="M-193 840l40 95h135v-10l-75 -95h-100v10z" />
    <glyph glyph-name="uni030B.case" horiz-adv-x="0" 
d="M-308 840l5 95h122v-10l-37 -95h-90v10zM-170 840l15 95h127v-10l-47 -95h-95v10z" />
    <glyph glyph-name="uni0302.case" horiz-adv-x="0" 
d="M-278 840l65 95h140l65 -95v-10h-100l-30 45h-10l-30 -45h-100v10z" />
    <glyph glyph-name="uni030C.case" horiz-adv-x="0" 
d="M-178 935l30 -45h10l30 45h100v-10l-65 -95h-140l-65 95v10h100z" />
    <glyph glyph-name="uni0306.case" horiz-adv-x="0" 
d="M-177 935q3 -40 40 -40t40 40h83q0 -50 -31 -80t-92 -30t-92 30t-31 80h83z" />
    <glyph glyph-name="uni030A.case" horiz-adv-x="0" 
d="M-183.5 838q-24.5 23 -24.5 57t24.5 57t60.5 23t60.5 -23t24.5 -57t-24.5 -57t-60.5 -23t-60.5 23zM-105 877q7 7 7 18t-7 18t-18 7t-18 -7t-7 -18t7 -18t18 -7t18 7z" />
    <glyph glyph-name="tildecomb.case" horiz-adv-x="0" 
d="M-40 935v-20q0 -40 -17.5 -65t-54.5 -25q-22 0 -37.5 6t-34.5 18q-2 1 -10.5 6t-16 7.5t-14.5 2.5q-17 0 -24 -9t-7 -26h-50v20q0 40 17.5 65t54.5 25q22 0 37.5 -6t34.5 -18q2 -1 10.5 -6t16 -7.5t14.5 -2.5q17 0 24 9t7 26h50z" />
    <glyph glyph-name="uni0304.case" horiz-adv-x="0" 
d="M-20 915v-80h-265v80h265z" />
    </font>
</defs>
</svg>
