<?xml version="1.0" standalone="no"?>
<!DOCTYPE svg PUBLIC "-//W3C//DTD SVG 1.1//EN" "http://www.w3.org/Graphics/SVG/1.1/DTD/svg11.dtd" >
<svg xmlns="http://www.w3.org/2000/svg" xmlns:xlink="http://www.w3.org/1999/xlink" version="1.1">
<metadata>
Created by FontForge 20201107 at Mon Jun 27 14:44:05 2022
 By 
(c)rajeshrajput
</metadata>
<defs>
<font id="Humane-Bold" horiz-adv-x="232" >
  <font-face 
    font-family="Mango Grotesque"
    font-weight="700"
    font-stretch="normal"
    units-per-em="1000"
    panose-1="0 0 0 0 0 0 0 0 0 0"
    ascent="800"
    descent="-200"
    x-height="569"
    cap-height="700"
    bbox="-36 -210 790 882"
    underline-thickness="50"
    underline-position="-125"
    unicode-range="U+000D-FB02"
  />
<missing-glyph horiz-adv-x="354" 
d="M20 700h314v-700h-314v700zM177 422l76 218h-154zM274 149v408l-72 -206zM80 143l72 208l-72 203v-411zM101 60h155l-78 220z" />
    <glyph glyph-name=".notdef" horiz-adv-x="354" 
d="M20 700h314v-700h-314v700zM177 422l76 218h-154zM274 149v408l-72 -206zM80 143l72 208l-72 203v-411zM101 60h155l-78 220z" />
    <glyph glyph-name=".null" horiz-adv-x="0" 
 />
    <glyph glyph-name=".null" horiz-adv-x="0" 
 />
    <glyph glyph-name="uni000D" unicode="&#xd;" horiz-adv-x="250" 
 />
    <glyph glyph-name="space" unicode=" " horiz-adv-x="90" 
 />
    <glyph glyph-name="exclam" unicode="!" horiz-adv-x="160" 
d="M140 700v-100l-30 -440h-60l-30 440v100h120zM30 120h100v-120h-100v120z" />
    <glyph glyph-name="quotedbl" unicode="&#x22;" horiz-adv-x="260" 
d="M240 631l-5 -111h-90l-5 111v69h100v-69zM120 631l-5 -111h-90l-5 111v69h100v-69z" />
    <glyph glyph-name="numbersign" unicode="#" horiz-adv-x="330" 
d="M49 216h-29v80h34l6 108h-30v80h35l12 216h100l-12 -216h20l12 216h100l-12 -216h25v-80h-30l-6 -108h26v-80h-31l-12 -216h-100l12 216h-20l-12 -216h-100zM174 296l6 108h-20l-6 -108h20z" />
    <glyph glyph-name="dollar" unicode="$" horiz-adv-x="236" 
d="M228 104q0 -41 -18.5 -67t-50.5 -37l9 -99h-100l9 99q-32 11 -50.5 37t-18.5 67v142h100v-147q0 -15 10 -15t10 15v116q0 32 -16.5 63.5t-36.5 65.5q-24 39 -45.5 81.5t-21.5 90.5v80q0 40 19 66t50 37l-9 100h100l-9 -99q32 -11 50.5 -37t18.5 -67v-111h-100v116
q0 15 -10 15t-10 -15v-85q0 -32 16.5 -63.5t37.5 -65.5q24 -39 45 -81.5t21 -90.5v-111z" />
    <glyph glyph-name="percent" unicode="%" horiz-adv-x="578" 
d="M232 409q0 -53 -30 -81.5t-76 -28.5t-76 28.5t-30 81.5v187q0 52 30.5 81t76.5 29t75.5 -28.5t29.5 -81.5v-187zM389 700h100l-300 -700h-100zM136 601q0 15 -10 15t-10 -15v-197q0 -15 10 -15t10 15v197zM558 104q0 -53 -30 -81.5t-76 -28.5t-76 28.5t-30 81.5v187
q0 52 30.5 81t76.5 29t75.5 -28.5t29.5 -81.5v-187zM462 296q0 15 -10 15t-10 -15v-197q0 -15 10 -15t10 15v197z" />
    <glyph glyph-name="ampersand" unicode="&#x26;" horiz-adv-x="260" 
d="M230 491v-101h20v-90h-20v-300h-100v40l-2 1q-8 -23 -22 -35t-32 -12q-28 0 -46 28.5t-18 81.5v138q0 45 6.5 69t35.5 33v2q-28 10 -35 33.5t-7 68.5v148q0 52 31.5 81t79.5 29t78.5 -28.5t30.5 -81.5v-85h-100v90q0 15 -10 15t-10 -15v-196q0 -15 10 -15h10v101h100z
M120 300q-10 0 -10 -15v-186q0 -15 10 -15t10 15v201h-10z" />
    <glyph glyph-name="quotesingle" unicode="'" horiz-adv-x="140" 
d="M120 631l-5 -111h-90l-5 111v69h100v-69z" />
    <glyph glyph-name="parenleft" unicode="(" horiz-adv-x="159" 
d="M77 -195q-35 138 -51 255t-16 229q0 110 16 227.5t51 253.5l71 -11q-20 -141 -29 -254t-9 -217q0 -52 2 -105t6.5 -110.5t12 -121t17.5 -135.5z" />
    <glyph glyph-name="parenright" unicode=")" horiz-adv-x="159" 
d="M81.0049 769.988q34.998 -137.992 50.9971 -254.984q15.999 -116.993 15.999 -228.986q0 -109.993 -15.999 -227.486q-15.999 -117.492 -50.9971 -253.484l-70.9961 10.999q19.999 140.992 28.998 253.985q9 112.992 9 216.986q0 51.9971 -2 104.993
q-2 52.9971 -6.5 110.494q-4.49902 57.4961 -11.999 120.992q-7.49902 63.4961 -17.499 135.491z" />
    <glyph glyph-name="asterisk" unicode="*" horiz-adv-x="212" 
d="M62 617l-42 5l22 67l37 -21l-8 42h70l-8 -42l38 20l21 -66l-41 -5l30 -29l-56 -41l-19 39l-18 -40l-57 42z" />
    <glyph glyph-name="plus" unicode="+" horiz-adv-x="300" 
d="M280 294h-80v-80h-100v80h-80v90h80v80h100v-80h80v-90z" />
    <glyph glyph-name="comma" unicode="," horiz-adv-x="140" 
d="M20 120h100v-120l-21 -84h-52l21 84h-48v120z" />
    <glyph glyph-name="hyphen" unicode="-" horiz-adv-x="180" 
d="M160 294h-140v90h140v-90z" />
    <glyph glyph-name="period" unicode="." horiz-adv-x="140" 
d="M20 120h100v-120h-100v120z" />
    <glyph glyph-name="slash" unicode="/" horiz-adv-x="228" 
d="M20 -80l88 810h100l-88 -810h-100z" />
    <glyph glyph-name="zero" unicode="0" horiz-adv-x="240" 
d="M230 104q0 -53 -31 -81.5t-79 -28.5t-79 28.5t-31 81.5v492q0 52 31.5 81t79.5 29t78.5 -28.5t30.5 -81.5v-492zM130 601q0 15 -10 15t-10 -15v-502q0 -15 10 -15t10 15v502z" />
    <glyph glyph-name="one" unicode="1" horiz-adv-x="200" 
d="M150 90h40v-90h-180v90h40v474h-40v80q38 0 54 11.5t16 44.5h70v-610z" />
    <glyph glyph-name="two" unicode="2" horiz-adv-x="240" 
d="M10 90q0 48 21.5 102t45.5 106q20 45 36.5 85.5t16.5 72.5v145q0 15 -10 15t-10 -15v-166h-100v161q0 53 30.5 81.5t78.5 28.5t79.5 -29t31.5 -81v-140q0 -48 -21.5 -102t-45.5 -106q-21 -44 -37 -83t-16 -69v-6h120v-90h-220v90z" />
    <glyph glyph-name="three" unicode="3" horiz-adv-x="240" 
d="M110 465h-100v131q0 53 30.5 81.5t78.5 28.5t79.5 -29t31.5 -81v-118q0 -22 -1 -39t-5.5 -29.5t-13 -20.5t-22.5 -13v-2q29 -9 35.5 -33t6.5 -69v-168q0 -52 -31.5 -81t-79.5 -29t-78.5 28.5t-30.5 81.5v151h100v-156q0 -15 10 -15t10 15v196q0 23 -6 29t-34 6h-10v90h10
q28 0 34 6t6 29v146q0 15 -10 15t-10 -15v-136z" />
    <glyph glyph-name="four" unicode="4" horiz-adv-x="252" 
d="M10 192l62 508h150v-508h20v-90h-20v-102h-100v102h-112v90zM122 192l17 407h-2l-35 -407h20z" />
    <glyph glyph-name="five" unicode="5" horiz-adv-x="240" 
d="M110 365h-100v335h215v-90h-115v-146l2 -1q15 47 57 47q32 0 46.5 -29t14.5 -81v-296q0 -53 -31 -81.5t-79 -28.5t-79 28.5t-31 81.5v181h100v-186q0 -15 10 -15t10 15v316q0 15 -10 15t-10 -15v-50z" />
    <glyph glyph-name="six" unicode="6" horiz-adv-x="240" 
d="M112 393q17 47 57 47q32 0 46.5 -29t14.5 -81v-226q0 -53 -31 -81.5t-79 -28.5t-79 28.5t-31 81.5v502q0 24 9 42.5t24 31t35.5 19.5t42.5 7q48 0 78.5 -28.5t30.5 -81.5v-111h-100v116q0 15 -10 15t-10 -15v-207zM110 99q0 -15 10 -15t10 15v246q0 15 -10 15t-10 -15
v-246z" />
    <glyph glyph-name="seven" unicode="7" horiz-adv-x="230" 
d="M220 610l-90 -610h-100l89 608l-2 2h-107v90h210v-90z" />
    <glyph glyph-name="eight" unicode="8" horiz-adv-x="240" 
d="M119 706q49 0 80 -28.5t31 -81.5v-131q0 -38 -8 -59t-34 -30v-2q29 -9 35.5 -33t6.5 -69v-168q0 -53 -30.5 -81.5t-78.5 -28.5q-49 0 -80 28.5t-31 81.5v168q0 45 6.5 69t35.5 33v2q-26 9 -34 30t-8 59v131q0 53 30.5 81.5t78.5 28.5zM110 455q0 -23 2.5 -29t7.5 -6
t7.5 6t2.5 29v146q0 15 -10 15t-10 -15v-146zM120 84q10 0 10 15v196q0 23 -2.5 29t-7.5 6t-7.5 -6t-2.5 -29v-196q0 -15 10 -15z" />
    <glyph glyph-name="nine" unicode="9" horiz-adv-x="240" 
d="M120 706q48 0 79 -28.5t31 -81.5v-502q0 -24 -9 -42.5t-24 -31t-35 -19.5t-43 -7q-48 0 -78.5 28.5t-30.5 81.5v141h100v-146q0 -15 10 -15t10 15v237l-2 1q-16 -47 -57 -47q-32 0 -46.5 29t-14.5 81v196q0 53 31 81.5t79 28.5zM130 601q0 15 -10 15t-10 -15v-216
q0 -15 10 -15t10 15v216z" />
    <glyph glyph-name="colon" unicode=":" horiz-adv-x="150" 
d="M20 120h100v-120h-100v120zM20 520h100v-120h-100v120z" />
    <glyph glyph-name="semicolon" unicode=";" horiz-adv-x="150" 
d="M20 520h100v-120h-100v120zM20 120h100v-120l-21 -84h-52l21 84h-48v120z" />
    <glyph glyph-name="less" unicode="&#x3c;" horiz-adv-x="250" 
d="M108 340v-2l122 -35v-80l-210 71v90l210 71v-80z" />
    <glyph glyph-name="equal" unicode="=" horiz-adv-x="300" 
d="M280 351h-260v90h260v-90zM280 231h-260v90h260v-90z" />
    <glyph glyph-name="greater" unicode="&#x3e;" horiz-adv-x="250" 
d="M142.007 338.021v2l-121.993 34.998v79.9951l209.987 -70.9961v-89.9941l-209.987 -70.9961v79.9951z" />
    <glyph glyph-name="question" unicode="?" horiz-adv-x="260" 
d="M90 215q0 45 8 79t17 63t17 57t8 62v125q0 15 -10 15t-10 -15v-166h-100v161q0 53 30.5 81.5t78.5 28.5t79.5 -29t31.5 -81v-120q0 -45 -8 -78.5t-17 -63t-17 -57.5t-8 -62v-55h-100v55zM90 120h100v-120h-100v120z" />
    <glyph glyph-name="at" unicode="@" horiz-adv-x="484" 
d="M347 -118q-49 -23 -105 -23q-42 0 -81.5 13.5t-71 40t-50.5 66.5t-19 93v395q0 53 19 93t50.5 66.5t71 40t81.5 13.5t81.5 -13.5t71 -40t50.5 -66.5t19 -93v-360q0 -52 -29 -82.5t-77 -30.5q-40 0 -66.5 20.5t-34.5 56.5h-2q-5 -36 -20 -56.5t-38 -20.5q-28 0 -44.5 29.5
t-16.5 80.5v319q0 50 17 80t45 30q19 0 32.5 -15t19.5 -42h2v47h96v-424q0 -15 10 -15t10 16v367q0 31 -10.5 54t-28 38.5t-39.5 23t-46 7.5t-47 -8t-41 -23.5t-29 -39t-11 -54.5v-391q0 -31 11 -54.5t29 -39t41 -23.5t47 -8q40 0 72 20zM252 428q0 15 -10 15t-10 -15v-329
q0 -15 10 -15t10 15v329z" />
    <glyph glyph-name="A" unicode="A" horiz-adv-x="250" 
d="M250 0h-110l-6 167h-28l-6 -167h-100l55 700h140zM131 257l-7 212l-3 121h-2l-3 -121l-7 -212h22z" />
    <glyph glyph-name="B" unicode="B" horiz-adv-x="238" 
d="M230 478q0 -22 -1 -39t-5.5 -29.5t-13 -20.5t-22.5 -13v-2q29 -9 35.5 -33t6.5 -69v-172q0 -53 -27 -76.5t-83 -23.5h-110v700h111q55 0 82 -23.5t27 -76.5v-122zM130 595q0 15 -10 15h-10v-190h10q10 0 10 15v160zM130 315q0 15 -10 15h-10v-240h10q10 0 10 15v210z" />
    <glyph glyph-name="C" unicode="C" horiz-adv-x="240" 
d="M130 601q0 15 -10 15t-10 -15v-502q0 -15 10 -15t10 15v197h100v-192q0 -53 -31 -81.5t-79 -28.5t-79 28.5t-31 81.5v492q0 52 31.5 81t79.5 29t78.5 -28.5t30.5 -81.5v-161h-100v166z" />
    <glyph glyph-name="D" unicode="D" horiz-adv-x="240" 
d="M230 100q0 -53 -27 -76.5t-83 -23.5h-110v700h111q55 0 82 -23.5t27 -76.5v-500zM130 595q0 15 -10 15h-10v-520h10q10 0 10 15v490z" />
    <glyph glyph-name="E" unicode="E" horiz-adv-x="160" 
d="M150 610h-40v-206h35v-90h-35v-224h45v-90h-145v700h140v-90z" />
    <glyph glyph-name="F" unicode="F" horiz-adv-x="155" 
d="M150 610h-40v-216h35v-90h-35v-304h-100v700h140v-90z" />
    <glyph glyph-name="G" unicode="G" horiz-adv-x="240" 
d="M230 369v-369h-100v40l-2 1q-8 -23 -22 -35t-32 -12q-28 0 -46 28.5t-18 81.5v492q0 52 31.5 81t79.5 29t78.5 -28.5t30.5 -81.5v-161h-100v166q0 15 -10 15t-10 -15v-506q0 -15 10 -15t10 15v184h-10v90h110z" />
    <glyph glyph-name="H" unicode="H" horiz-adv-x="240" 
d="M230 0h-100v304h-20v-304h-100v700h100v-306h20v306h100v-700z" />
    <glyph glyph-name="I" unicode="I" horiz-adv-x="120" 
d="M110 0h-100v700h100v-700z" />
    <glyph glyph-name="J" unicode="J" horiz-adv-x="240" 
d="M230 104q0 -53 -31 -81.5t-79 -28.5t-79 28.5t-31 81.5v192h100v-197q0 -15 10 -15t10 15v601h100v-596z" />
    <glyph glyph-name="K" unicode="K" horiz-adv-x="252" 
d="M196 380v-2l56 -378h-103l-37 322h-2v-322h-100v700h100v-283h2l37 283h103z" />
    <glyph glyph-name="L" unicode="L" horiz-adv-x="157" 
d="M110 700v-610h42v-90h-142v700h100z" />
    <glyph glyph-name="M" unicode="M" horiz-adv-x="381" 
d="M370 0h-95l6 450l-1 120h-2l-7 -120l-36 -450h-89l-36 450l-8 120h-2l-1 -120l6 -450h-95v700h163l12 -399l5 -111h2l4 111l11 399h163v-700z" />
    <glyph glyph-name="N" unicode="N" horiz-adv-x="291" 
d="M280 0h-125l-69 540h-2l16 -225l5 -315h-95v700h125l69 -540h2l-16 225l-5 315h95v-700z" />
    <glyph glyph-name="O" unicode="O" horiz-adv-x="240" 
d="M230 104q0 -53 -31 -81.5t-79 -28.5t-79 28.5t-31 81.5v492q0 52 31.5 81t79.5 29t78.5 -28.5t30.5 -81.5v-492zM130 601q0 15 -10 15t-10 -15v-502q0 -15 10 -15t10 15v502z" />
    <glyph glyph-name="P" unicode="P" horiz-adv-x="240" 
d="M230 390q0 -53 -27 -76.5t-83 -23.5h-10v-290h-100v700h111q55 0 82 -23.5t27 -76.5v-210zM130 595q0 15 -10 15h-10v-230h10q10 0 10 15v200z" />
    <glyph glyph-name="Q" unicode="Q" horiz-adv-x="240" 
d="M230 104q0 -41 -19 -67.5t-51 -36.5v-13q0 -8 1.5 -10t9.5 -2h36v-81h-39q-46 0 -67 17t-21 64v25q-32 11 -51 37t-19 67v492q0 52 31.5 81t79.5 29t78.5 -28.5t30.5 -81.5v-492zM130 601q0 15 -10 15t-10 -15v-502q0 -15 10 -15t10 15v502z" />
    <glyph glyph-name="R" unicode="R" horiz-adv-x="240" 
d="M130 295q0 15 -10 15h-10v-310h-100v700h111q55 0 82 -23.5t27 -76.5v-142q0 -22 -1 -39t-5.5 -29.5t-13 -20.5t-22.5 -13v-2q29 -9 35.5 -33t6.5 -69v-160q0 -17 0.5 -28.5t1.5 -21.5t3.5 -19t6.5 -21v-2h-103q-5 20 -7 38.5t-2 52.5v204zM130 595q0 15 -10 15h-10v-210
h10q10 0 10 15v180z" />
    <glyph glyph-name="S" unicode="S" horiz-adv-x="236" 
d="M228 104q0 -53 -31 -81.5t-79 -28.5t-79 28.5t-31 81.5v142h100v-147q0 -15 10 -15t10 15v116q0 32 -16.5 63.5t-36.5 65.5q-24 39 -45.5 81.5t-21.5 90.5v80q0 52 31.5 81t79.5 29t78.5 -28.5t30.5 -81.5v-111h-100v116q0 15 -10 15t-10 -15v-85q0 -32 16.5 -63.5
t37.5 -65.5q24 -39 45 -81.5t21 -90.5v-111z" />
    <glyph glyph-name="T" unicode="T" horiz-adv-x="210" 
d="M205 610h-50v-610h-100v610h-50v90h200v-90z" />
    <glyph glyph-name="U" unicode="U" horiz-adv-x="240" 
d="M230 104q0 -53 -31 -81.5t-79 -28.5t-79 28.5t-31 81.5v596h100v-601q0 -15 10 -15t10 15v601h100v-596z" />
    <glyph glyph-name="V" unicode="V" horiz-adv-x="244" 
d="M192 0h-140l-52 700h110l16 -590h2l16 590h100z" />
    <glyph glyph-name="W" unicode="W" horiz-adv-x="389" 
d="M352 0h-135l-17 479l-2 110h-2l-2 -110l-17 -479h-135l-42 700h115l1 -469v-121h2l4 121l22 469h106l22 -469l4 -121h2l1 121v469h110z" />
    <glyph glyph-name="X" unicode="X" horiz-adv-x="250" 
d="M205 360v-2l45 -358h-102l-17 199l-4 100h-2l-4 -100l-19 -199h-102l45 358v2l-42 340h102l15 -181l4 -100h2l4 100l15 181h102z" />
    <glyph glyph-name="Y" unicode="Y" horiz-adv-x="244" 
d="M172 230v-230h-100v230l-72 470h102l15 -241l4 -100h2l4 100l15 241h102z" />
    <glyph glyph-name="Z" unicode="Z" horiz-adv-x="195" 
d="M190 610l-83 -520h82v-90h-184v90l83 520h-78v90h180v-90z" />
    <glyph glyph-name="bracketleft" unicode="[" horiz-adv-x="180" 
d="M10 -195v955h160v-90h-60v-775h60v-90h-160z" />
    <glyph glyph-name="backslash" unicode="\" horiz-adv-x="228" 
d="M208 -80h-100l-88 810h100z" />
    <glyph glyph-name="bracketright" unicode="]" horiz-adv-x="180" 
d="M170.001 759.988v-954.941h-159.99v89.9941h59.9961v774.952h-59.9961v89.9951h159.99z" />
    <glyph glyph-name="asciicircum" unicode="^" horiz-adv-x="252" 
d="M127 612h-2l-19 -92h-86l49 180h114l49 -180h-86z" />
    <glyph glyph-name="underscore" unicode="_" horiz-adv-x="270" 
d="M250 -90h-230v90h230v-90z" />
    <glyph glyph-name="grave" unicode="`" horiz-adv-x="133" 
d="M20 695h80l13 -126h-64z" />
    <glyph glyph-name="a" unicode="a" 
d="M106 366h-96v100q0 53 29.5 81.5t75.5 28.5t76.5 -29t30.5 -81v-466h-96v72h-2q-5 -38 -21 -58t-43 -20q-26 0 -38 21t-12 69v144q0 28 8.5 47.5t24 33t37 23t46.5 18.5v121q0 15 -10 15t-10 -15v-105zM126 269q-13 -6 -16.5 -23t-3.5 -35v-113q0 -14 10 -14t10 15v170z
" />
    <glyph glyph-name="b" unicode="b" 
d="M10 730h96v-201h2q8 22 22.5 34.5t34.5 12.5q29 0 43 -26.5t14 -83.5v-362q0 -110 -58 -110q-40 0 -56 46h-2v-40h-96v730zM126 471q0 15 -10 15t-10 -15v-372q0 -15 10 -15t10 15v372z" />
    <glyph glyph-name="c" unicode="c" 
d="M126 471q0 15 -10 15t-10 -15v-372q0 -15 10 -15t10 15v144h96v-139q0 -53 -30 -81.5t-76 -28.5t-76 28.5t-30 81.5v362q0 52 30.5 81t76.5 29t75.5 -28.5t29.5 -81.5v-113h-96v118z" />
    <glyph glyph-name="d" unicode="d" 
d="M126 0v40h-2q-16 -46 -56 -46q-58 0 -58 110v362q0 57 14 83.5t43 26.5q20 0 34.5 -12.5t22.5 -34.5h2v201h96v-730h-96zM106 99q0 -15 10 -15t10 15v372q0 15 -10 15t-10 -15v-372z" />
    <glyph glyph-name="e" unicode="e" 
d="M222 223v-119q0 -53 -30 -81.5t-76 -28.5t-76 28.5t-30 81.5v362q0 52 30.5 81t76.5 29t75.5 -28.5t29.5 -81.5v-206h-116v-161q0 -15 10 -15t10 15v124h96zM126 471q0 15 -10 15t-10 -15v-121h20v121z" />
    <glyph glyph-name="f" unicode="f" horiz-adv-x="156" 
d="M25 484h-20v86h20v33q0 45 3.5 70.5t14.5 38t32 15.5t56 3h20v-86q-21 0 -25.5 -6t-4.5 -28v-40h30v-86h-30v-484h-96v484z" />
    <glyph glyph-name="g" unicode="g" 
d="M222 -56q0 -53 -30 -81.5t-76 -28.5t-76 28t-30 76v32h96v-31q0 -15 10 -15t10 15v102h-2q-8 -22 -22.5 -34.5t-34.5 -12.5q-29 0 -43 26.5t-14 83.5v362q0 57 14.5 83.5t43.5 26.5q40 0 56 -46h2v40h96v-626zM106 99q0 -15 10 -15t10 15v372q0 15 -10 15t-10 -15v-372z
" />
    <glyph glyph-name="h" unicode="h" 
d="M126 471q0 15 -10 15t-10 -15v-471h-96v730h96v-200l2 -1q16 47 56 47q29 0 43.5 -26.5t14.5 -83.5v-466h-96v471z" />
    <glyph glyph-name="i" unicode="i" horiz-adv-x="116" 
d="M10 700h96v-110h-96v110zM10 570h96v-570h-96v570z" />
    <glyph glyph-name="j" unicode="j" horiz-adv-x="117" 
d="M107 590h-96v110h96v-110zM107 -48q0 -43 -4 -67.5t-15 -36.5t-32 -15t-55 -3h-20v86q23 0 26.5 4.5t3.5 18.5v631h96v-618z" />
    <glyph glyph-name="k" unicode="k" horiz-adv-x="244" 
d="M188 311v-2l55 -309h-99l-36 271h-2v-271h-96v731h96v-398h2l37 238h99z" />
    <glyph glyph-name="l" unicode="l" horiz-adv-x="116" 
d="M10 730h96v-730h-96v730z" />
    <glyph glyph-name="m" unicode="m" horiz-adv-x="348" 
d="M126 471q0 15 -10 15t-10 -15v-471h-96v570h96v-40l2 -1q16 47 56 47q47 0 54 -66h2q5 32 20.5 49t39.5 17q29 0 43.5 -26.5t14.5 -83.5v-466h-96v471q0 15 -10 15t-10 -15v-471h-96v471z" />
    <glyph glyph-name="n" unicode="n" 
d="M126 471q0 15 -10 15t-10 -15v-471h-96v570h96v-40l2 -1q16 47 56 47q29 0 43.5 -26.5t14.5 -83.5v-466h-96v471z" />
    <glyph glyph-name="o" unicode="o" 
d="M222 104q0 -53 -30 -81.5t-76 -28.5t-76 28.5t-30 81.5v362q0 52 30.5 81t76.5 29t75.5 -28.5t29.5 -81.5v-362zM126 471q0 15 -10 15t-10 -15v-372q0 -15 10 -15t10 15v372z" />
    <glyph glyph-name="p" unicode="p" 
d="M106 570v-40h2q16 46 56 46q29 0 43.5 -26.5t14.5 -83.5v-362q0 -57 -14 -83.5t-43 -26.5q-20 0 -34.5 12.5t-22.5 34.5h-2v-201h-96v730h96zM126 471q0 15 -10 15t-10 -15v-372q0 -15 10 -15t10 15v372z" />
    <glyph glyph-name="q" unicode="q" 
d="M222 -160h-96v201h-2q-8 -22 -22.5 -34.5t-34.5 -12.5q-29 0 -43 26.5t-14 83.5v362q0 57 14.5 83.5t43.5 26.5q40 0 56 -46h2v40h96v-730zM106 99q0 -15 10 -15t10 15v372q0 15 -10 15t-10 -15v-372z" />
    <glyph glyph-name="r" unicode="r" 
d="M126 471q0 15 -10 15t-10 -15v-471h-96v570h96v-40l2 -1q16 47 56 47q29 0 43.5 -26.5t14.5 -83.5v-130h-96v135z" />
    <glyph glyph-name="s" unicode="s" horiz-adv-x="228" 
d="M220 104q0 -53 -30 -81.5t-76 -28.5t-76 28.5t-30 81.5v97h96v-102q0 -15 10 -15t10 15v88q0 21 -14.5 42t-33.5 44q-24 28 -46 60.5t-22 75.5v57q0 52 30.5 81t76.5 29t75.5 -28.5t29.5 -81.5v-70h-96v75q0 15 -10 15t-10 -15v-62q0 -23 14.5 -43.5t34.5 -42.5
q24 -28 45.5 -61t21.5 -75v-83z" />
    <glyph glyph-name="t" unicode="t" horiz-adv-x="161" 
d="M121 680v-110h35v-86h-35v-374q0 -14 5 -19t30 -5v-86h-25q-35 0 -56 2t-32 12t-14.5 31t-3.5 58v381h-20v86h20v110h96z" />
    <glyph glyph-name="u" unicode="u" 
d="M106 99q0 -15 10 -15t10 15v471h96v-570h-96v40l-2 1q-16 -47 -56 -47q-29 0 -43.5 26.5t-14.5 83.5v466h96v-471z" />
    <glyph glyph-name="v" unicode="v" horiz-adv-x="242" 
d="M0 570h106l18 -460h2l19 460h96l-55 -570h-131z" />
    <glyph glyph-name="w" unicode="w" horiz-adv-x="394" 
d="M394 570l-45 -570h-132l-16 370l-3 90h-2l-3 -90l-16 -370h-132l-45 570h106l8 -372l1 -88h2l4 88l25 372h102l25 -372l4 -88h2l1 89l8 371h106z" />
    <glyph glyph-name="x" unicode="x" horiz-adv-x="236" 
d="M190 294v-2l49 -292h-98l-17 168l-4 85h-2l-4 -85l-19 -168h-98l49 292v2l-46 277h98l15 -154l4 -85h2l4 85l15 154h98z" />
    <glyph glyph-name="y" unicode="y" horiz-adv-x="238" 
d="M119 262l4 -99h1l4 99l15 307h96l-95 -729h-96l22 160l-72 569h106z" />
    <glyph glyph-name="z" unicode="z" horiz-adv-x="191" 
d="M186 484l-83 -398h82v-86h-180v72l83 412h-78v86h176v-86z" />
    <glyph glyph-name="braceleft" unicode="{" horiz-adv-x="245" 
d="M180 428q0 -35 -4.5 -61.5t-15 -44.5t-28.5 -27.5t-46 -9.5v-4q28 0 46 -9.5t28.5 -27.5t15 -44.5t4.5 -61.5v-176q0 -40 9 -53.5t27 -13.5h19v-90h-27q-31 0 -54.5 7.5t-40 26t-25 49.5t-8.5 78v203q0 34 -12.5 51.5t-57.5 17.5v90q45 0 57.5 17.5t12.5 51.5v202
q0 47 8.5 78t25 49.5t40 26t54.5 7.5h27v-90h-19q-18 0 -27 -13.5t-9 -53.5v-175z" />
    <glyph glyph-name="bar" unicode="|" horiz-adv-x="140" 
d="M20 -185v935h100v-935h-100z" />
    <glyph glyph-name="braceright" unicode="}" horiz-adv-x="245" 
d="M65.0107 137.026q0 34.998 4.5 61.4961t14.999 44.4971t28.498 27.498q17.999 9.5 45.9971 9.5v4q-27.998 0 -45.9971 9.49902t-28.498 27.498t-14.999 44.4971q-4.5 26.499 -4.5 61.4971v175.989q0 39.9971 -8.99902 53.4961q-9 13.499 -26.998 13.499h-18.999v89.9951
h26.998q30.998 0 54.4971 -7.5q23.498 -7.49902 39.9971 -25.998t24.999 -49.4971q8.49902 -30.998 8.49902 -77.9951v-202.987q0 -33.998 12.499 -51.4971t57.4971 -17.499v-89.9951q-44.998 0 -57.4971 -17.498q-12.499 -17.499 -12.499 -51.4971v-201.988
q0 -46.9971 -8.49902 -77.9951q-8.5 -30.998 -24.999 -49.4971q-16.499 -18.498 -39.9971 -25.998q-23.499 -7.49902 -54.4971 -7.49902h-26.998v89.9941h18.999q17.998 0 26.998 13.499q8.99902 13.499 8.99902 53.4971v174.989z" />
    <glyph glyph-name="asciitilde" unicode="~" horiz-adv-x="248" 
d="M228 408q0 -58 -13 -83.5t-42 -25.5q-13 0 -25 4t-23.5 8.5t-22 8.5t-20.5 4q-20 0 -20 -23v-2h-42v2q0 110 58 110q12 0 24 -4t24 -8.5t23 -8.5t20 -4q19 0 19 22v3h40v-3z" />
    <glyph glyph-name="exclamdown" unicode="&#xa1;" horiz-adv-x="160" 
d="M130 570v-120h-100v120h100zM20 -30l30 440h60l30 -440v-100h-120v100z" />
    <glyph glyph-name="cent" unicode="&#xa2;" 
d="M126 471q0 15 -10 15t-10 -15v-372q0 -15 10 -15t10 15v144h96v-139q0 -40 -18 -66t-47 -37l9 -100h-100l9 100q-29 11 -47 37t-18 66v362q0 39 18 65.5t47 37.5l-9 100h100l-9 -100q29 -11 47 -37t18 -66v-113h-96v118z" />
    <glyph glyph-name="sterling" unicode="&#xa3;" horiz-adv-x="270" 
d="M160 601q0 15 -10 15t-10 -15v-278h100v-90h-100v-42q0 -63 -17 -101h137v-90h-250v89q19 23 24.5 44.5t5.5 53.5v46h-30v90h30v274q0 51 31.5 80t79.5 29t78.5 -28.5t30.5 -81.5v-161h-100v166z" />
    <glyph glyph-name="currency" unicode="&#xa4;" horiz-adv-x="354" 
d="M20 700h314v-700h-314v700zM177 422l76 218h-154zM274 149v408l-72 -206zM80 143l72 208l-72 203v-411zM101 60h155l-78 220z" />
    <glyph glyph-name="yen" unicode="&#xa5;" horiz-adv-x="244" 
d="M184 306h51v-90h-63v-20h63v-90h-63v-106h-100v106h-63v90h63v20h-63v90h51l-60 394h102l15 -241l4 -100h2l4 100l15 241h103z" />
    <glyph glyph-name="brokenbar" unicode="&#xa6;" horiz-adv-x="140" 
d="M20 343v407h100v-407h-100zM20 -185v408h100v-408h-100z" />
    <glyph glyph-name="section" unicode="&#xa7;" horiz-adv-x="252" 
d="M232 230q0 -40 -19 -69q19 -32 19 -69v-83q0 -53 -30 -81.5t-76 -28.5t-76 28.5t-30 81.5v97h96v-102q0 -15 10 -15t10 15v88q0 21 -14.5 42t-33.5 44q-24 28 -46 60.5t-22 75.5v61q0 25 7.5 44.5t20.5 33.5q-12 19 -20 40t-8 46v57q0 52 30.5 81t76.5 29t75.5 -28.5
t29.5 -81.5v-70h-96v75q0 15 -10 15t-10 -15v-62q0 -23 14.5 -43.5t34.5 -42.5q24 -28 45.5 -61t21.5 -75v-87zM136 317q0 13 -5.5 25t-14.5 25v-53q0 -13 5.5 -25.5t14.5 -25.5v54z" />
    <glyph glyph-name="dieresis" unicode="&#xa8;" horiz-adv-x="181" 
d="M20 682h60v-100h-60v100zM101 682h60v-100h-60v100z" />
    <glyph glyph-name="copyright" unicode="&#xa9;" horiz-adv-x="511" 
d="M20 468q0 59 20.5 103.5t53.5 74t75.5 44.5t86.5 15t86.5 -15t75.5 -44.5t53 -74t20 -103.5v-236q0 -60 -20 -104.5t-53 -74t-75.5 -44.5t-86.5 -15t-86.5 15t-75.5 44.5t-53.5 74t-20.5 104.5v236zM105 232q0 -40 13 -69.5t34.5 -49.5t48.5 -30t55 -10t55 10t48 30
t34 49.5t13 69.5v236q0 40 -13 69.5t-34 49t-48 29.5t-55 10t-55 -10t-48.5 -29.5t-34.5 -49t-13 -69.5v-236zM266 485q0 15 -10 15t-10 -15v-270q0 -15 10 -15t10 15v105h100v-100q0 -53 -31 -81.5t-79 -28.5t-79 28.5t-31 81.5v260q0 52 31.5 81t79.5 29t78.5 -28.5
t30.5 -81.5v-81h-100v86z" />
    <glyph glyph-name="ordfeminine" unicode="&#xaa;" horiz-adv-x="190" 
d="M88 560h-67v69q0 37 20.5 57t52.5 20t53.5 -20.5t21.5 -56.5v-327h-67v50h-2q-6 -55 -44 -55q-19 0 -27 15t-8 48v103q0 20 6 33.5t16.5 23t25.5 16t33 12.5v84q0 11 -7 11t-7 -11v-72zM102 492q-9 -4 -11.5 -16t-2.5 -25v-81q0 -10 7 -10t7 10v122z" />
    <glyph glyph-name="guillemotleft" unicode="&#xab;" horiz-adv-x="240" 
d="M60 407h70l-40 -120l40 -120h-70l-40 120zM150 407h70l-40 -120l40 -120h-70l-40 120z" />
    <glyph glyph-name="logicalnot" unicode="&#xac;" horiz-adv-x="354" 
d="M20 700h314v-700h-314v700zM177 422l76 218h-154zM274 149v408l-72 -206zM80 143l72 208l-72 203v-411zM101 60h155l-78 220z" />
    <glyph glyph-name="registered" unicode="&#xae;" horiz-adv-x="511" 
d="M20 468q0 59 20.5 103.5t53.5 74t75.5 44.5t86.5 15t86 -15t75 -44.5t53.5 -74t20.5 -103.5v-237q0 -59 -20.5 -103.5t-53.5 -74t-75 -44.5t-86 -15t-86.5 15t-75.5 44.5t-53.5 74t-20.5 103.5v237zM105 231q0 -39 13 -69t34 -49.5t48 -29.5t55 -10q34 0 65.5 14t53.5 43
h-100q-5 20 -7 38t-2 52v75q0 15 -10 15h-10v-180h-100v440h111q57 0 83 -24.5t26 -75.5v-22q0 -27 -2 -43t-6.5 -25.5t-12.5 -14.5t-21 -9v-2q13 -4 21 -10.5t12.5 -18t6.5 -29.5t2 -44v-30q0 -18 0.5 -30t2 -21.5t3.5 -18t6 -19.5q14 19 21.5 43.5t7.5 54.5v237
q0 39 -13 69t-34 49.5t-48 29.5t-55 10t-55.5 -10t-48.5 -29.5t-34 -49.5t-13 -69v-237zM265 465q0 15 -10 15h-10v-80h10q10 0 10 15v50z" />
    <glyph glyph-name="macron" unicode="&#xaf;" horiz-adv-x="180" 
d="M160 586h-140v90h140v-90z" />
    <glyph glyph-name="degree" unicode="&#xb0;" horiz-adv-x="190" 
d="M20 631q0 32 21.5 53.5t53.5 21.5q31 0 53 -21.5t22 -53.5q0 -31 -22 -53t-53 -22q-32 0 -53.5 22t-21.5 53zM65 631q0 -12 8.5 -21t21.5 -9q12 0 21 9t9 21q0 13 -9 21.5t-21 8.5q-13 0 -21.5 -8.5t-8.5 -21.5z" />
    <glyph glyph-name="plusminus" unicode="&#xb1;" horiz-adv-x="300" 
d="M280 344h-80v-80h-100v80h-80v90h80v80h100v-80h80v-90zM280 134h-260v90h260v-90z" />
    <glyph glyph-name="twosuperior" unicode="&#xb2;" horiz-adv-x="190" 
d="M20 367q0 28 14.5 58.5t31.5 59.5q14 25 25 46.5t11 38.5v77q0 8 -7 8t-7 -9v-93h-68v80q0 38 21 55.5t53 17.5q33 0 54.5 -17t21.5 -53v-65q0 -25 -14 -55t-31 -59q-14 -25 -25.5 -49t-11.5 -38v-3h82v-63h-150v63z" />
    <glyph glyph-name="threesuperior" unicode="&#xb3;" horiz-adv-x="192" 
d="M89 568h-69v64q0 35 21.5 54.5t53.5 19.5t54 -19.5t22 -54.5v-61q0 -24 -4.5 -36.5t-24.5 -17.5v-1q20 -5 24.5 -18t4.5 -37v-93q0 -35 -22 -54.5t-54 -19.5t-53.5 19.5t-21.5 54.5v79h69v-92q0 -9 7 -9q6 0 6 9v115q0 14 -4 17t-23 3h-7v52h7q19 0 23 3.5t4 16.5v83
q0 9 -6 9q-7 0 -7 -9v-77z" />
    <glyph glyph-name="acute" unicode="&#xb4;" horiz-adv-x="133" 
d="M20 569l13 126h80l-29 -126h-64z" />
    <glyph glyph-name="paragraph" unicode="&#xb6;" horiz-adv-x="350" 
d="M230 -60v760h100v-760h-100zM110 -60v393q-23 0 -40 9.5t-28 31t-16.5 56.5t-5.5 87t7 87t20 56.5t32 30.5t44 9h87v-760h-100z" />
    <glyph glyph-name="periodcentered" unicode="&#xb7;" horiz-adv-x="140" 
d="M20 390h100v-120h-100v120z" />
    <glyph glyph-name="cedilla" unicode="&#xb8;" horiz-adv-x="182" 
d="M99 4l-8 -25q30 0 50.5 -16.5t20.5 -41.5q0 -28 -27 -45t-71 -17q-10 0 -21 1.5t-23 3.5v60q10 -2 18 -3.5t16 -1.5q36 0 36 17q0 10 -13.5 15t-34.5 5l10 48h47z" />
    <glyph glyph-name="onesuperior" unicode="&#xb9;" horiz-adv-x="154" 
d="M111 367h23v-63h-114v63h23v243h-23v58q21 0 30.5 6.5t9.5 25.5h51v-333z" />
    <glyph glyph-name="ordmasculine" unicode="&#xba;" horiz-adv-x="190" 
d="M170 371q0 -37 -21.5 -57.5t-53.5 -20.5t-53.5 20.5t-21.5 57.5v258q0 36 22 56.5t54 20.5t53 -20t21 -57v-258zM102 632q0 11 -7 11t-7 -11v-264q0 -11 7 -11t7 11v264z" />
    <glyph glyph-name="guillemotright" unicode="&#xbb;" horiz-adv-x="240" 
d="M180.004 167.024h-69.9961l39.998 119.993l-39.998 119.992h69.9961l39.9971 -119.992zM90.0088 167.024h-69.9951l39.9971 119.993l-39.9971 119.992h69.9951l39.998 -119.992z" />
    <glyph glyph-name="onequarter" unicode="&#xbc;" horiz-adv-x="441" 
d="M111 367h23v-63h-114v63h23v243h-23v58q21 0 30.5 6.5t9.5 25.5h51v-333zM100 0l138 700h81l-138 -700h-81zM256 99l44 298h106v-288h14v-63h-14v-46h-69v46h-81v53zM337 109l10 231h-1l-31 -231h22z" />
    <glyph glyph-name="onehalf" unicode="&#xbd;" horiz-adv-x="456" 
d="M100 0l138 700h81l-138 -700h-81zM286 63q0 28 14.5 58.5t31.5 59.5q14 25 25 46.5t11 38.5v77q0 8 -7 8t-7 -9v-93h-68v80q0 38 21 55.5t53 17.5q33 0 54.5 -17t21.5 -53v-65q0 -25 -14 -55t-31 -59q-14 -25 -25.5 -49t-11.5 -38v-3h82v-63h-150v63zM111 367h23v-63
h-114v63h23v243h-23v58q21 0 30.5 6.5t9.5 25.5h51v-333z" />
    <glyph glyph-name="threequarters" unicode="&#xbe;" horiz-adv-x="471" 
d="M130 0l138 700h81l-138 -700h-81zM286 87l44 298h106v-288h14v-63h-14v-46h-69v46h-81v53zM367 97l10 231h-1l-31 -231h22zM89 568h-69v64q0 35 21.5 54.5t53.5 19.5t54 -19.5t22 -54.5v-61q0 -24 -4.5 -36.5t-24.5 -17.5v-1q20 -5 24.5 -18t4.5 -37v-93q0 -35 -22 -54.5
t-54 -19.5t-53.5 19.5t-21.5 54.5v79h69v-92q0 -9 7 -9q6 0 6 9v115q0 14 -4 17t-23 3h-7v52h7q19 0 23 3.5t4 16.5v83q0 9 -6 9q-7 0 -7 -9v-77z" />
    <glyph glyph-name="questiondown" unicode="&#xbf;" horiz-adv-x="260" 
d="M170 450h-100v120h100v-120zM170 355q0 -45 -8 -78.5t-17 -63t-17 -57.5t-8 -62v-125q0 -15 10 -15t10 15v166h100v-161q0 -53 -30.5 -81.5t-78.5 -28.5t-79.5 29t-31.5 81v120q0 45 8 79t17 63t17 57t8 62v55h100v-55z" />
    <glyph glyph-name="Agrave" unicode="&#xc0;" horiz-adv-x="250" 
d="M250 0h-110l-6 167h-28l-6 -167h-100l55 700h140zM131 257l-7 212l-3 121h-2l-3 -121l-7 -212h22zM62 852h80l13 -126h-64z" />
    <glyph glyph-name="Aacute" unicode="&#xc1;" horiz-adv-x="250" 
d="M250 0h-110l-6 167h-28l-6 -167h-100l55 700h140zM131 257l-7 212l-3 121h-2l-3 -121l-7 -212h22zM95 726l13 126h80l-29 -126h-64z" />
    <glyph glyph-name="Acircumflex" unicode="&#xc2;" horiz-adv-x="250" 
d="M250 0h-110l-6 167h-28l-6 -167h-100l55 700h140zM131 257l-7 212l-3 121h-2l-3 -121l-7 -212h22zM50 726l28 126h94l28 -126h-64l-10 66h-2l-10 -66h-64z" />
    <glyph glyph-name="Atilde" unicode="&#xc3;" horiz-adv-x="250" 
d="M250 0h-110l-6 167h-28l-6 -167h-100l55 700h140zM131 257l-7 212l-3 121h-2l-3 -121l-7 -212h22zM205 839q0 -59 -8.5 -83.5t-28.5 -24.5q-10 0 -20.5 4.5t-20.5 9.5l-19 9.5t-15 4.5q-14 0 -14 -27v-1h-32v2q0 56 9 82t29 26q9 0 19 -4t19.5 -9t18.5 -9t16 -4
q16 0 16 24v2h31v-2z" />
    <glyph glyph-name="Adieresis" unicode="&#xc4;" horiz-adv-x="250" 
d="M250 0h-110l-6 167h-28l-6 -167h-100l55 700h140zM131 257l-7 212l-3 121h-2l-3 -121l-7 -212h22zM55 839h60v-100h-60v100zM136 839h60v-100h-60v100z" />
    <glyph glyph-name="Aring" unicode="&#xc5;" horiz-adv-x="250" 
d="M250 0h-110l-6 167h-28l-6 -167h-100l55 700h140zM131 257l-7 212l-3 121h-2l-3 -121l-7 -212h22zM55 789q0 68 70 68q33 0 51 -17.5t18 -51.5q0 -68 -69 -68q-70 0 -70 69zM104 788q0 -20 21 -20q20 0 20 20q0 21 -20 21q-21 0 -21 -21z" />
    <glyph glyph-name="AE" unicode="&#xc6;" horiz-adv-x="290" 
d="M275 610h-35v-206h40v-90h-40v-224h45v-90h-145v167h-28l-12 -167h-100l74 700h201v-90zM140 257v333h-2l-3 -121l-16 -212h21z" />
    <glyph glyph-name="Ccedilla" unicode="&#xc7;" horiz-adv-x="240" 
d="M130 601q0 15 -10 15t-10 -15v-502q0 -15 10 -15t10 15v197h100v-192q0 -53 -31 -81.5t-79 -28.5t-79 28.5t-31 81.5v492q0 52 31.5 81t79.5 29t78.5 -28.5t30.5 -81.5v-161h-100v166zM149 4l-8 -25q30 0 50.5 -16.5t20.5 -41.5q0 -28 -27 -45t-71 -17q-10 0 -21 1.5
t-23 3.5v60q10 -2 18 -3.5t16 -1.5q36 0 36 17q0 10 -13.5 15t-34.5 5l10 48h47z" />
    <glyph glyph-name="Egrave" unicode="&#xc8;" horiz-adv-x="160" 
d="M150 610h-40v-206h35v-90h-35v-224h45v-90h-145v700h140v-90zM15 852h80l13 -126h-64z" />
    <glyph glyph-name="Eacute" unicode="&#xc9;" horiz-adv-x="160" 
d="M150 610h-40v-206h35v-90h-35v-224h45v-90h-145v700h140v-90zM48 726l13 126h80l-29 -126h-64z" />
    <glyph glyph-name="Ecircumflex" unicode="&#xca;" horiz-adv-x="160" 
d="M150 610h-40v-206h35v-90h-35v-224h45v-90h-145v700h140v-90zM3 726l28 126h94l28 -126h-64l-10 66h-2l-10 -66h-64z" />
    <glyph glyph-name="Edieresis" unicode="&#xcb;" horiz-adv-x="160" 
d="M150 610h-40v-206h35v-90h-35v-224h45v-90h-145v700h140v-90zM8 839h60v-100h-60v100zM89 839h60v-100h-60v100z" />
    <glyph glyph-name="Igrave" unicode="&#xcc;" horiz-adv-x="120" 
d="M110 0h-100v700h100v-700zM-3 852h80l13 -126h-64z" />
    <glyph glyph-name="Iacute" unicode="&#xcd;" horiz-adv-x="120" 
d="M110 0h-100v700h100v-700zM30 726l13 126h80l-29 -126h-64z" />
    <glyph glyph-name="Icircumflex" unicode="&#xce;" horiz-adv-x="120" 
d="M110 0h-100v700h100v-700zM-15 726l28 126h94l28 -126h-64l-10 66h-2l-10 -66h-64z" />
    <glyph glyph-name="Idieresis" unicode="&#xcf;" horiz-adv-x="120" 
d="M110 0h-100v700h100v-700zM-10 839h60v-100h-60v100zM71 839h60v-100h-60v100z" />
    <glyph glyph-name="Eth" unicode="&#xd0;" horiz-adv-x="240" 
d="M230 100q0 -53 -27 -76.5t-83 -23.5h-110v700h111q55 0 82 -23.5t27 -76.5v-500zM130 595q0 15 -10 15h-10v-520h10q10 0 10 15v490zM121 305h-121v90h121v-90z" />
    <glyph glyph-name="Ntilde" unicode="&#xd1;" horiz-adv-x="291" 
d="M280 0h-125l-69 540h-2l16 -225l5 -315h-95v700h125l69 -540h2l-16 225l-5 315h95v-700zM225 839q0 -59 -8.5 -83.5t-28.5 -24.5q-10 0 -20.5 4.5t-20.5 9.5l-19 9.5t-15 4.5q-14 0 -14 -27v-1h-32v2q0 56 9 82t29 26q9 0 19 -4t19.5 -9t18.5 -9t16 -4q16 0 16 24v2h31
v-2z" />
    <glyph glyph-name="Ograve" unicode="&#xd2;" horiz-adv-x="240" 
d="M230 104q0 -53 -31 -81.5t-79 -28.5t-79 28.5t-31 81.5v492q0 52 31.5 81t79.5 29t78.5 -28.5t30.5 -81.5v-492zM130 601q0 15 -10 15t-10 -15v-502q0 -15 10 -15t10 15v502zM58 852h80l13 -126h-64z" />
    <glyph glyph-name="Oacute" unicode="&#xd3;" horiz-adv-x="240" 
d="M230 104q0 -53 -31 -81.5t-79 -28.5t-79 28.5t-31 81.5v492q0 52 31.5 81t79.5 29t78.5 -28.5t30.5 -81.5v-492zM130 601q0 15 -10 15t-10 -15v-502q0 -15 10 -15t10 15v502zM91 726l13 126h80l-29 -126h-64z" />
    <glyph glyph-name="Ocircumflex" unicode="&#xd4;" horiz-adv-x="240" 
d="M230 104q0 -53 -31 -81.5t-79 -28.5t-79 28.5t-31 81.5v492q0 52 31.5 81t79.5 29t78.5 -28.5t30.5 -81.5v-492zM130 601q0 15 -10 15t-10 -15v-502q0 -15 10 -15t10 15v502zM46 726l28 126h94l28 -126h-64l-10 66h-2l-10 -66h-64z" />
    <glyph glyph-name="Otilde" unicode="&#xd5;" horiz-adv-x="240" 
d="M230 104q0 -53 -31 -81.5t-79 -28.5t-79 28.5t-31 81.5v492q0 52 31.5 81t79.5 29t78.5 -28.5t30.5 -81.5v-492zM130 601q0 15 -10 15t-10 -15v-502q0 -15 10 -15t10 15v502zM201 839q0 -59 -8.5 -83.5t-28.5 -24.5q-10 0 -20.5 4.5t-20.5 9.5l-19 9.5t-15 4.5
q-14 0 -14 -27v-1h-32v2q0 56 9 82t29 26q9 0 19 -4t19.5 -9t18.5 -9t16 -4q16 0 16 24v2h31v-2z" />
    <glyph glyph-name="Odieresis" unicode="&#xd6;" horiz-adv-x="240" 
d="M230 104q0 -53 -31 -81.5t-79 -28.5t-79 28.5t-31 81.5v492q0 52 31.5 81t79.5 29t78.5 -28.5t30.5 -81.5v-492zM130 601q0 15 -10 15t-10 -15v-502q0 -15 10 -15t10 15v502zM51 839h60v-100h-60v100zM132 839h60v-100h-60v100z" />
    <glyph glyph-name="multiply" unicode="&#xd7;" horiz-adv-x="316" 
d="M232 201l-74 75l-71 -71l-63 64l70 70l-74 75l64 63l74 -74l71 70l63 -63l-70 -71l74 -74z" />
    <glyph glyph-name="Oslash" unicode="&#xd8;" horiz-adv-x="240" 
d="M230 104q0 -53 -31 -81.5t-79 -28.5q-42 0 -69 21l-6 -21l-35 10l12 45q-12 24 -12 55v492q0 52 31.5 81t79.5 29q40 0 68 -20l5 20l36 -10l-12 -45q12 -22 12 -55v-492zM130 601q0 15 -10 15t-10 -15v-215l20 76v139zM110 99q0 -15 10 -15t10 15v218l-20 -76v-142z" />
    <glyph glyph-name="Ugrave" unicode="&#xd9;" horiz-adv-x="240" 
d="M230 104q0 -53 -31 -81.5t-79 -28.5t-79 28.5t-31 81.5v596h100v-601q0 -15 10 -15t10 15v601h100v-596zM57 852h80l13 -126h-64z" />
    <glyph glyph-name="Uacute" unicode="&#xda;" horiz-adv-x="240" 
d="M230 104q0 -53 -31 -81.5t-79 -28.5t-79 28.5t-31 81.5v596h100v-601q0 -15 10 -15t10 15v601h100v-596zM90 726l13 126h80l-29 -126h-64z" />
    <glyph glyph-name="Ucircumflex" unicode="&#xdb;" horiz-adv-x="240" 
d="M230 104q0 -53 -31 -81.5t-79 -28.5t-79 28.5t-31 81.5v596h100v-601q0 -15 10 -15t10 15v601h100v-596zM45 726l28 126h94l28 -126h-64l-10 66h-2l-10 -66h-64z" />
    <glyph glyph-name="Udieresis" unicode="&#xdc;" horiz-adv-x="240" 
d="M230 104q0 -53 -31 -81.5t-79 -28.5t-79 28.5t-31 81.5v596h100v-601q0 -15 10 -15t10 15v601h100v-596zM50 839h60v-100h-60v100zM131 839h60v-100h-60v100z" />
    <glyph glyph-name="Yacute" unicode="&#xdd;" horiz-adv-x="244" 
d="M172 230v-230h-100v230l-72 470h102l15 -241l4 -100h2l4 100l15 241h102zM92 726l13 126h80l-29 -126h-64z" />
    <glyph glyph-name="Thorn" unicode="&#xde;" horiz-adv-x="240" 
d="M230 245q0 -53 -27 -76.5t-83 -23.5h-10v-145h-100v700h100v-145h11q55 0 82 -23.5t27 -76.5v-210zM130 450q0 15 -10 15h-10v-230h10q10 0 10 15v200z" />
    <glyph glyph-name="germandbls" unicode="&#xdf;" horiz-adv-x="238" 
d="M130 601q0 15 -10 15h-1q-9 0 -9 -15v-601h-100v606q0 53 27 76.5t82 23.5h2q55 0 82 -23.5t27 -76.5v-128q0 -22 -1 -39t-5.5 -29.5t-13 -20.5t-22.5 -13v-2q29 -9 35.5 -33t6.5 -69v-172q0 -53 -27 -76.5t-83 -23.5h-2v90h2q10 0 10 15v210q0 15 -10 15h-2v90h2
q10 0 10 15v166z" />
    <glyph glyph-name="agrave" unicode="&#xe0;" 
d="M106 366h-96v100q0 53 29.5 81.5t75.5 28.5t76.5 -29t30.5 -81v-466h-96v72h-2q-5 -38 -21 -58t-43 -20q-26 0 -38 21t-12 69v144q0 28 8.5 47.5t24 33t37 23t46.5 18.5v121q0 15 -10 15t-10 -15v-105zM126 269q-13 -6 -16.5 -23t-3.5 -35v-113q0 -14 10 -14t10 15v170z
M52 722h80l13 -126h-64z" />
    <glyph glyph-name="aacute" unicode="&#xe1;" 
d="M106 366h-96v100q0 53 29.5 81.5t75.5 28.5t76.5 -29t30.5 -81v-466h-96v72h-2q-5 -38 -21 -58t-43 -20q-26 0 -38 21t-12 69v144q0 28 8.5 47.5t24 33t37 23t46.5 18.5v121q0 15 -10 15t-10 -15v-105zM126 269q-13 -6 -16.5 -23t-3.5 -35v-113q0 -14 10 -14t10 15v170z
M85 596l13 126h80l-29 -126h-64z" />
    <glyph glyph-name="acircumflex" unicode="&#xe2;" 
d="M106 366h-96v100q0 53 29.5 81.5t75.5 28.5t76.5 -29t30.5 -81v-466h-96v72h-2q-5 -38 -21 -58t-43 -20q-26 0 -38 21t-12 69v144q0 28 8.5 47.5t24 33t37 23t46.5 18.5v121q0 15 -10 15t-10 -15v-105zM126 269q-13 -6 -16.5 -23t-3.5 -35v-113q0 -14 10 -14t10 15v170z
M40 596l28 126h94l28 -126h-64l-10 66h-2l-10 -66h-64z" />
    <glyph glyph-name="atilde" unicode="&#xe3;" 
d="M106 366h-96v100q0 53 29.5 81.5t75.5 28.5t76.5 -29t30.5 -81v-466h-96v72h-2q-5 -38 -21 -58t-43 -20q-26 0 -38 21t-12 69v144q0 28 8.5 47.5t24 33t37 23t46.5 18.5v121q0 15 -10 15t-10 -15v-105zM126 269q-13 -6 -16.5 -23t-3.5 -35v-113q0 -14 10 -14t10 15v170z
M195 709q0 -59 -8.5 -83.5t-28.5 -24.5q-10 0 -20.5 4.5t-20.5 9.5l-19 9.5t-15 4.5q-14 0 -14 -27v-1h-32v2q0 56 9 82t29 26q9 0 19 -4t19.5 -9t18.5 -9t16 -4q16 0 16 24v2h31v-2z" />
    <glyph glyph-name="adieresis" unicode="&#xe4;" 
d="M106 366h-96v100q0 53 29.5 81.5t75.5 28.5t76.5 -29t30.5 -81v-466h-96v72h-2q-5 -38 -21 -58t-43 -20q-26 0 -38 21t-12 69v144q0 28 8.5 47.5t24 33t37 23t46.5 18.5v121q0 15 -10 15t-10 -15v-105zM126 269q-13 -6 -16.5 -23t-3.5 -35v-113q0 -14 10 -14t10 15v170z
M45 709h60v-100h-60v100zM126 709h60v-100h-60v100z" />
    <glyph glyph-name="aring" unicode="&#xe5;" 
d="M106 366h-96v100q0 53 29.5 81.5t75.5 28.5t76.5 -29t30.5 -81v-466h-96v72h-2q-5 -38 -21 -58t-43 -20q-26 0 -38 21t-12 69v144q0 28 8.5 47.5t24 33t37 23t46.5 18.5v121q0 15 -10 15t-10 -15v-105zM126 269q-13 -6 -16.5 -23t-3.5 -35v-113q0 -14 10 -14t10 15v170z
M45 659q0 68 70 68q33 0 51 -17.5t18 -51.5q0 -68 -69 -68q-70 0 -70 69zM94 658q0 -20 21 -20q20 0 20 20q0 21 -20 21q-21 0 -21 -21z" />
    <glyph glyph-name="ae" unicode="&#xe6;" horiz-adv-x="348" 
d="M128 72q-5 -37 -22.5 -57.5t-45.5 -20.5q-26 0 -38 21t-12 69v139q0 23 6 41t19.5 32.5t35.5 26t55 21.5v127q0 15 -10 15t-10 -15v-105h-96v100q0 51 27.5 80.5t72.5 29.5q39 0 63 -26h2q24 26 63 26q45 0 72.5 -29.5t27.5 -80.5v-206h-116v-161q0 -15 10 -15t10 15v124
h96v-119q0 -51 -29 -80.5t-77 -29.5q-40 0 -67 20.5t-35 57.5h-2zM242 471q0 15 -10 15t-10 -15v-121h20v121zM126 264q-20 -9 -20 -58v-108q0 -14 10 -14t10 15v165z" />
    <glyph glyph-name="ccedilla" unicode="&#xe7;" 
d="M126 471q0 15 -10 15t-10 -15v-372q0 -15 10 -15t10 15v144h96v-139q0 -53 -30 -81.5t-76 -28.5t-76 28.5t-30 81.5v362q0 52 30.5 81t76.5 29t75.5 -28.5t29.5 -81.5v-113h-96v118zM145 4l-8 -25q30 0 50.5 -16.5t20.5 -41.5q0 -28 -27 -45t-71 -17q-10 0 -21 1.5
t-23 3.5v60q10 -2 18 -3.5t16 -1.5q36 0 36 17q0 10 -13.5 15t-34.5 5l10 48h47z" />
    <glyph glyph-name="egrave" unicode="&#xe8;" 
d="M222 223v-119q0 -53 -30 -81.5t-76 -28.5t-76 28.5t-30 81.5v362q0 52 30.5 81t76.5 29t75.5 -28.5t29.5 -81.5v-206h-116v-161q0 -15 10 -15t10 15v124h96zM126 471q0 15 -10 15t-10 -15v-121h20v121zM54 722h80l13 -126h-64z" />
    <glyph glyph-name="eacute" unicode="&#xe9;" 
d="M222 223v-119q0 -53 -30 -81.5t-76 -28.5t-76 28.5t-30 81.5v362q0 52 30.5 81t76.5 29t75.5 -28.5t29.5 -81.5v-206h-116v-161q0 -15 10 -15t10 15v124h96zM126 471q0 15 -10 15t-10 -15v-121h20v121zM87 596l13 126h80l-29 -126h-64z" />
    <glyph glyph-name="ecircumflex" unicode="&#xea;" 
d="M222 223v-119q0 -53 -30 -81.5t-76 -28.5t-76 28.5t-30 81.5v362q0 52 30.5 81t76.5 29t75.5 -28.5t29.5 -81.5v-206h-116v-161q0 -15 10 -15t10 15v124h96zM126 471q0 15 -10 15t-10 -15v-121h20v121zM42 596l28 126h94l28 -126h-64l-10 66h-2l-10 -66h-64z" />
    <glyph glyph-name="edieresis" unicode="&#xeb;" 
d="M222 223v-119q0 -53 -30 -81.5t-76 -28.5t-76 28.5t-30 81.5v362q0 52 30.5 81t76.5 29t75.5 -28.5t29.5 -81.5v-206h-116v-161q0 -15 10 -15t10 15v124h96zM126 471q0 15 -10 15t-10 -15v-121h20v121zM47 709h60v-100h-60v100zM128 709h60v-100h-60v100z" />
    <glyph glyph-name="igrave" unicode="&#xec;" horiz-adv-x="116" 
d="M10 570h96v-570h-96v570zM-5 722h80l13 -126h-64z" />
    <glyph glyph-name="iacute" unicode="&#xed;" horiz-adv-x="116" 
d="M10 570h96v-570h-96v570zM28 596l13 126h80l-29 -126h-64z" />
    <glyph glyph-name="icircumflex" unicode="&#xee;" horiz-adv-x="116" 
d="M10 570h96v-570h-96v570zM-17 596l28 126h94l28 -126h-64l-10 66h-2l-10 -66h-64z" />
    <glyph glyph-name="idieresis" unicode="&#xef;" horiz-adv-x="116" 
d="M10 570h96v-570h-96v570zM-12 709h60v-100h-60v100zM69 709h60v-100h-60v100z" />
    <glyph glyph-name="eth" unicode="&#xf0;" 
d="M23 750q68 -10 109 -42l40 27l28 -42l-31 -21q17 -23 27.5 -51t16 -59.5t7.5 -66t2 -71.5v-320q0 -53 -30 -81.5t-76 -28.5t-76 28.5t-30 81.5v362q0 52 19.5 81t47.5 29q29 0 44 -33l2 1q-3 23 -8.5 44t-13.5 39l-31 -20l-29 41l34 22q-26 29 -65 42zM126 471
q0 15 -10 15t-10 -15v-372q0 -15 10 -15t10 15v372z" />
    <glyph glyph-name="ntilde" unicode="&#xf1;" 
d="M126 471q0 15 -10 15t-10 -15v-471h-96v570h96v-40l2 -1q16 47 56 47q29 0 43.5 -26.5t14.5 -83.5v-466h-96v471zM196 709q0 -59 -8.5 -83.5t-28.5 -24.5q-10 0 -20.5 4.5t-20.5 9.5l-19 9.5t-15 4.5q-14 0 -14 -27v-1h-32v2q0 56 9 82t29 26q9 0 19 -4t19.5 -9t18.5 -9
t16 -4q16 0 16 24v2h31v-2z" />
    <glyph glyph-name="ograve" unicode="&#xf2;" 
d="M222 104q0 -53 -30 -81.5t-76 -28.5t-76 28.5t-30 81.5v362q0 52 30.5 81t76.5 29t75.5 -28.5t29.5 -81.5v-362zM126 471q0 15 -10 15t-10 -15v-372q0 -15 10 -15t10 15v372zM54 722h80l13 -126h-64z" />
    <glyph glyph-name="oacute" unicode="&#xf3;" 
d="M222 104q0 -53 -30 -81.5t-76 -28.5t-76 28.5t-30 81.5v362q0 52 30.5 81t76.5 29t75.5 -28.5t29.5 -81.5v-362zM126 471q0 15 -10 15t-10 -15v-372q0 -15 10 -15t10 15v372zM87 596l13 126h80l-29 -126h-64z" />
    <glyph glyph-name="ocircumflex" unicode="&#xf4;" 
d="M222 104q0 -53 -30 -81.5t-76 -28.5t-76 28.5t-30 81.5v362q0 52 30.5 81t76.5 29t75.5 -28.5t29.5 -81.5v-362zM126 471q0 15 -10 15t-10 -15v-372q0 -15 10 -15t10 15v372zM42 596l28 126h94l28 -126h-64l-10 66h-2l-10 -66h-64z" />
    <glyph glyph-name="otilde" unicode="&#xf5;" 
d="M222 104q0 -53 -30 -81.5t-76 -28.5t-76 28.5t-30 81.5v362q0 52 30.5 81t76.5 29t75.5 -28.5t29.5 -81.5v-362zM126 471q0 15 -10 15t-10 -15v-372q0 -15 10 -15t10 15v372zM197 709q0 -59 -8.5 -83.5t-28.5 -24.5q-10 0 -20.5 4.5t-20.5 9.5l-19 9.5t-15 4.5
q-14 0 -14 -27v-1h-32v2q0 56 9 82t29 26q9 0 19 -4t19.5 -9t18.5 -9t16 -4q16 0 16 24v2h31v-2z" />
    <glyph glyph-name="odieresis" unicode="&#xf6;" 
d="M222 104q0 -53 -30 -81.5t-76 -28.5t-76 28.5t-30 81.5v362q0 52 30.5 81t76.5 29t75.5 -28.5t29.5 -81.5v-362zM126 471q0 15 -10 15t-10 -15v-372q0 -15 10 -15t10 15v372zM47 709h60v-100h-60v100zM128 709h60v-100h-60v100z" />
    <glyph glyph-name="divide" unicode="&#xf7;" horiz-adv-x="353" 
d="M332.004 294h-312.004v90h312.004v-90zM132 513.003h90.0029v-108.003h-90.0029v108.003zM132 274.003h90.0029v-108.003h-90.0029v108.003z" />
    <glyph glyph-name="oslash" unicode="&#xf8;" 
d="M222 104q0 -53 -30 -81.5t-76 -28.5q-36 0 -65 19l-6 -19l-35 10l13 42q-13 26 -13 58v362q0 52 30.5 81t76.5 29q38 0 63 -19l6 19l36 -10l-13 -42q13 -26 13 -58v-362zM126 471q0 15 -10 15t-10 -15v-155l20 65v90zM106 99q0 -15 10 -15t10 15v157l-20 -65v-92z" />
    <glyph glyph-name="ugrave" unicode="&#xf9;" 
d="M106 99q0 -15 10 -15t10 15v471h96v-570h-96v40l-2 1q-16 -47 -56 -47q-29 0 -43.5 26.5t-14.5 83.5v466h96v-471zM53 722h80l13 -126h-64z" />
    <glyph glyph-name="uacute" unicode="&#xfa;" 
d="M106 99q0 -15 10 -15t10 15v471h96v-570h-96v40l-2 1q-16 -47 -56 -47q-29 0 -43.5 26.5t-14.5 83.5v466h96v-471zM86 596l13 126h80l-29 -126h-64z" />
    <glyph glyph-name="ucircumflex" unicode="&#xfb;" 
d="M106 99q0 -15 10 -15t10 15v471h96v-570h-96v40l-2 1q-16 -47 -56 -47q-29 0 -43.5 26.5t-14.5 83.5v466h96v-471zM41 596l28 126h94l28 -126h-64l-10 66h-2l-10 -66h-64z" />
    <glyph glyph-name="udieresis" unicode="&#xfc;" 
d="M106 99q0 -15 10 -15t10 15v471h96v-570h-96v40l-2 1q-16 -47 -56 -47q-29 0 -43.5 26.5t-14.5 83.5v466h96v-471zM46 709h60v-100h-60v100zM127 709h60v-100h-60v100z" />
    <glyph glyph-name="yacute" unicode="&#xfd;" horiz-adv-x="238" 
d="M119 262l4 -99h1l4 99l15 307h96l-95 -729h-96l22 160l-72 569h106zM89 596l13 126h80l-29 -126h-64z" />
    <glyph glyph-name="thorn" unicode="&#xfe;" 
d="M106 730v-200h2q16 46 56 46q29 0 43.5 -26.5t14.5 -83.5v-362q0 -57 -14 -83.5t-43 -26.5q-20 0 -34.5 12.5t-22.5 34.5h-2v-201h-96v890h96zM126 471q0 15 -10 15t-10 -15v-372q0 -15 10 -15t10 15v372z" />
    <glyph glyph-name="ydieresis" unicode="&#xff;" horiz-adv-x="238" 
d="M119 262l4 -99h1l4 99l15 307h96l-95 -729h-96l22 160l-72 569h106zM49 709h60v-100h-60v100zM130 709h60v-100h-60v100z" />
    <glyph glyph-name="Amacron" unicode="&#x100;" horiz-adv-x="250" 
d="M250 0h-110l-6 167h-28l-6 -167h-100l55 700h140zM131 257l-7 212l-3 121h-2l-3 -121l-7 -212h22zM195 743h-140v90h140v-90z" />
    <glyph glyph-name="amacron" unicode="&#x101;" 
d="M106 366h-96v100q0 53 29.5 81.5t75.5 28.5t76.5 -29t30.5 -81v-466h-96v72h-2q-5 -38 -21 -58t-43 -20q-26 0 -38 21t-12 69v144q0 28 8.5 47.5t24 33t37 23t46.5 18.5v121q0 15 -10 15t-10 -15v-105zM126 269q-13 -6 -16.5 -23t-3.5 -35v-113q0 -14 10 -14t10 15v170z
M185 613h-140v90h140v-90z" />
    <glyph glyph-name="Abreve" unicode="&#x102;" horiz-adv-x="250" 
d="M250 0h-110l-6 167h-28l-6 -167h-100l55 700h140zM131 257l-7 212l-3 121h-2l-3 -121l-7 -212h22zM107 847q0 -37 18 -37t18 37h70q0 -64 -22 -90.5t-66 -26.5q-43 0 -65.5 26.5t-22.5 90.5h70z" />
    <glyph glyph-name="abreve" unicode="&#x103;" 
d="M106 366h-96v100q0 53 29.5 81.5t75.5 28.5t76.5 -29t30.5 -81v-466h-96v72h-2q-5 -38 -21 -58t-43 -20q-26 0 -38 21t-12 69v144q0 28 8.5 47.5t24 33t37 23t46.5 18.5v121q0 15 -10 15t-10 -15v-105zM126 269q-13 -6 -16.5 -23t-3.5 -35v-113q0 -14 10 -14t10 15v170z
M97 717q0 -37 18 -37t18 37h70q0 -64 -22 -90.5t-66 -26.5q-43 0 -65.5 26.5t-22.5 90.5h70z" />
    <glyph glyph-name="Aogonek" unicode="&#x104;" horiz-adv-x="250" 
d="M250 0h-110l-6 167h-28l-6 -167h-100l55 700h140zM131 257l-7 212l-3 121h-2l-3 -121l-7 -212h22zM249 0q-19 0 -34.5 -10t-15.5 -22q0 -10 10.5 -13.5t22.5 -3.5q7 0 17 2v-80q-18 -3 -34 -3q-39 0 -58.5 17.5t-19.5 40.5q0 14 7 28t21 25t35 18t49 7v-6z" />
    <glyph glyph-name="aogonek" unicode="&#x105;" 
d="M106 366h-96v100q0 53 29.5 81.5t75.5 28.5t76.5 -29t30.5 -81v-466h-96v72h-2q-5 -38 -21 -58t-43 -20q-26 0 -38 21t-12 69v144q0 28 8.5 47.5t24 33t37 23t46.5 18.5v121q0 15 -10 15t-10 -15v-105zM126 269q-13 -6 -16.5 -23t-3.5 -35v-113q0 -14 10 -14t10 15v170z
M221 0q-19 0 -34.5 -10t-15.5 -22q0 -10 10.5 -13.5t22.5 -3.5q7 0 17 2v-80q-18 -3 -34 -3q-39 0 -58.5 17.5t-19.5 40.5q0 14 7 28t21 25t35 18t49 7v-6z" />
    <glyph glyph-name="Cacute" unicode="&#x106;" horiz-adv-x="240" 
d="M130 601q0 15 -10 15t-10 -15v-502q0 -15 10 -15t10 15v197h100v-192q0 -53 -31 -81.5t-79 -28.5t-79 28.5t-31 81.5v492q0 52 31.5 81t79.5 29t78.5 -28.5t30.5 -81.5v-161h-100v166zM91 726l13 126h80l-29 -126h-64z" />
    <glyph glyph-name="cacute" unicode="&#x107;" 
d="M126 471q0 15 -10 15t-10 -15v-372q0 -15 10 -15t10 15v144h96v-139q0 -53 -30 -81.5t-76 -28.5t-76 28.5t-30 81.5v362q0 52 30.5 81t76.5 29t75.5 -28.5t29.5 -81.5v-113h-96v118zM87 596l13 126h80l-29 -126h-64z" />
    <glyph glyph-name="Ccircumflex" unicode="&#x108;" horiz-adv-x="240" 
d="M130 601q0 15 -10 15t-10 -15v-502q0 -15 10 -15t10 15v197h100v-192q0 -53 -31 -81.5t-79 -28.5t-79 28.5t-31 81.5v492q0 52 31.5 81t79.5 29t78.5 -28.5t30.5 -81.5v-161h-100v166zM46 726l28 126h94l28 -126h-64l-10 66h-2l-10 -66h-64z" />
    <glyph glyph-name="ccircumflex" unicode="&#x109;" 
d="M126 471q0 15 -10 15t-10 -15v-372q0 -15 10 -15t10 15v144h96v-139q0 -53 -30 -81.5t-76 -28.5t-76 28.5t-30 81.5v362q0 52 30.5 81t76.5 29t75.5 -28.5t29.5 -81.5v-113h-96v118zM42 596l28 126h94l28 -126h-64l-10 66h-2l-10 -66h-64z" />
    <glyph glyph-name="Cdotaccent" unicode="&#x10a;" horiz-adv-x="240" 
d="M130 601q0 15 -10 15t-10 -15v-502q0 -15 10 -15t10 15v197h100v-192q0 -53 -31 -81.5t-79 -28.5t-79 28.5t-31 81.5v492q0 52 31.5 81t79.5 29t78.5 -28.5t30.5 -81.5v-161h-100v166zM81 839h80v-100h-80v100z" />
    <glyph glyph-name="cdotaccent" unicode="&#x10b;" 
d="M126 471q0 15 -10 15t-10 -15v-372q0 -15 10 -15t10 15v144h96v-139q0 -53 -30 -81.5t-76 -28.5t-76 28.5t-30 81.5v362q0 52 30.5 81t76.5 29t75.5 -28.5t29.5 -81.5v-113h-96v118zM77 709h80v-100h-80v100z" />
    <glyph glyph-name="Ccaron" unicode="&#x10c;" horiz-adv-x="240" 
d="M130 601q0 15 -10 15t-10 -15v-502q0 -15 10 -15t10 15v197h100v-192q0 -53 -31 -81.5t-79 -28.5t-79 28.5t-31 81.5v492q0 52 31.5 81t79.5 29t78.5 -28.5t30.5 -81.5v-161h-100v166zM201.001 852.035l-27.998 -125.993h-93.9941l-27.998 125.993h63.9961
l9.99902 -65.9961h2l9.99902 65.9961h63.9961z" />
    <glyph glyph-name="ccaron" unicode="&#x10d;" 
d="M126 471q0 15 -10 15t-10 -15v-372q0 -15 10 -15t10 15v144h96v-139q0 -53 -30 -81.5t-76 -28.5t-76 28.5t-30 81.5v362q0 52 30.5 81t76.5 29t75.5 -28.5t29.5 -81.5v-113h-96v118zM197.001 722.035l-27.998 -125.993h-93.9941l-27.998 125.993h63.9961
l9.99902 -65.9961h2l9.99902 65.9961h63.9961z" />
    <glyph glyph-name="Dcaron" unicode="&#x10e;" horiz-adv-x="240" 
d="M230 100q0 -53 -27 -76.5t-83 -23.5h-110v700h111q55 0 82 -23.5t27 -76.5v-500zM130 595q0 15 -10 15h-10v-520h10q10 0 10 15v490zM185.001 852.035l-27.998 -125.993h-93.9941l-27.998 125.993h63.9961l9.99902 -65.9961h2l9.99902 65.9961h63.9961z" />
    <glyph glyph-name="dcaron" unicode="&#x10f;" horiz-adv-x="318" 
d="M126 0v40h-2q-16 -46 -56 -46q-58 0 -58 110v362q0 57 14 83.5t43 26.5q20 0 34.5 -12.5t22.5 -34.5h2v201h96v-730h-96zM106 99q0 -15 10 -15t10 15v372q0 15 -10 15t-10 -15v-372zM242 730h76l-26 -117h-56z" />
    <glyph glyph-name="Dcroat" unicode="&#x110;" horiz-adv-x="240" 
d="M230 100q0 -53 -27 -76.5t-83 -23.5h-110v700h111q55 0 82 -23.5t27 -76.5v-500zM130 595q0 15 -10 15h-10v-520h10q10 0 10 15v490zM121 305h-121v90h121v-90z" />
    <glyph glyph-name="dcroat" unicode="&#x111;" 
d="M126 0v40h-2q-16 -46 -56 -46q-58 0 -58 110v362q0 57 14 83.5t43 26.5q20 0 34.5 -12.5t22.5 -34.5h2v201h96v-730h-96zM106 99q0 -15 10 -15t10 15v372q0 15 -10 15t-10 -15v-372zM242 579h-140v96h140v-96z" />
    <glyph glyph-name="Emacron" unicode="&#x112;" horiz-adv-x="160" 
d="M150 610h-40v-206h35v-90h-35v-224h45v-90h-145v700h140v-90zM148 743h-140v90h140v-90z" />
    <glyph glyph-name="emacron" unicode="&#x113;" 
d="M222 223v-119q0 -53 -30 -81.5t-76 -28.5t-76 28.5t-30 81.5v362q0 52 30.5 81t76.5 29t75.5 -28.5t29.5 -81.5v-206h-116v-161q0 -15 10 -15t10 15v124h96zM126 471q0 15 -10 15t-10 -15v-121h20v121zM187 613h-140v90h140v-90z" />
    <glyph glyph-name="Ebreve" unicode="&#x114;" horiz-adv-x="160" 
d="M150 610h-40v-206h35v-90h-35v-224h45v-90h-145v700h140v-90zM60 847q0 -37 18 -37t18 37h70q0 -64 -22 -90.5t-66 -26.5q-43 0 -65.5 26.5t-22.5 90.5h70z" />
    <glyph glyph-name="ebreve" unicode="&#x115;" 
d="M222 223v-119q0 -53 -30 -81.5t-76 -28.5t-76 28.5t-30 81.5v362q0 52 30.5 81t76.5 29t75.5 -28.5t29.5 -81.5v-206h-116v-161q0 -15 10 -15t10 15v124h96zM126 471q0 15 -10 15t-10 -15v-121h20v121zM99 717q0 -37 18 -37t18 37h70q0 -64 -22 -90.5t-66 -26.5
q-43 0 -65.5 26.5t-22.5 90.5h70z" />
    <glyph glyph-name="Edotaccent" unicode="&#x116;" horiz-adv-x="160" 
d="M150 610h-40v-206h35v-90h-35v-224h45v-90h-145v700h140v-90zM38 839h80v-100h-80v100z" />
    <glyph glyph-name="edotaccent" unicode="&#x117;" 
d="M222 223v-119q0 -53 -30 -81.5t-76 -28.5t-76 28.5t-30 81.5v362q0 52 30.5 81t76.5 29t75.5 -28.5t29.5 -81.5v-206h-116v-161q0 -15 10 -15t10 15v124h96zM126 471q0 15 -10 15t-10 -15v-121h20v121zM77 709h80v-100h-80v100z" />
    <glyph glyph-name="Eogonek" unicode="&#x118;" horiz-adv-x="160" 
d="M150 610h-40v-206h35v-90h-35v-224h45v-90h-145v700h140v-90zM154 0q-19 0 -34.5 -10t-15.5 -22q0 -10 10.5 -13.5t22.5 -3.5q7 0 17 2v-80q-18 -3 -34 -3q-39 0 -58.5 17.5t-19.5 40.5q0 14 7 28t21 25t35 18t49 7v-6z" />
    <glyph glyph-name="eogonek" unicode="&#x119;" 
d="M222 223v-119q0 -53 -30 -81.5t-76 -28.5t-76 28.5t-30 81.5v362q0 52 30.5 81t76.5 29t75.5 -28.5t29.5 -81.5v-206h-116v-161q0 -15 10 -15t10 15v124h96zM126 471q0 15 -10 15t-10 -15v-121h20v121zM147 -2q-11 -5 -19 -12t-8 -15q0 -10 10.5 -13.5t22.5 -3.5
q7 0 17 2v-80q-18 -3 -31 -3q-38 0 -59.5 20t-21.5 46q0 23 20 42.5t66 25.5z" />
    <glyph glyph-name="Ecaron" unicode="&#x11a;" horiz-adv-x="160" 
d="M150 610h-40v-206h35v-90h-35v-224h45v-90h-145v700h140v-90zM158.001 852.035l-27.998 -125.993h-93.9941l-27.998 125.993h63.9961l9.99902 -65.9961h2l9.99902 65.9961h63.9961z" />
    <glyph glyph-name="ecaron" unicode="&#x11b;" 
d="M222 223v-119q0 -53 -30 -81.5t-76 -28.5t-76 28.5t-30 81.5v362q0 52 30.5 81t76.5 29t75.5 -28.5t29.5 -81.5v-206h-116v-161q0 -15 10 -15t10 15v124h96zM126 471q0 15 -10 15t-10 -15v-121h20v121zM197.001 722.035l-27.998 -125.993h-93.9941l-27.998 125.993
h63.9961l9.99902 -65.9961h2l9.99902 65.9961h63.9961z" />
    <glyph glyph-name="Gcircumflex" unicode="&#x11c;" horiz-adv-x="240" 
d="M230 369v-369h-100v40l-2 1q-8 -23 -22 -35t-32 -12q-28 0 -46 28.5t-18 81.5v492q0 52 31.5 81t79.5 29t78.5 -28.5t30.5 -81.5v-161h-100v166q0 15 -10 15t-10 -15v-506q0 -15 10 -15t10 15v184h-10v90h110zM46 726l28 126h94l28 -126h-64l-10 66h-2l-10 -66h-64z" />
    <glyph glyph-name="gcircumflex" unicode="&#x11d;" 
d="M222 -56q0 -53 -30 -81.5t-76 -28.5t-76 28t-30 76v32h96v-31q0 -15 10 -15t10 15v102h-2q-8 -22 -22.5 -34.5t-34.5 -12.5q-29 0 -43 26.5t-14 83.5v362q0 57 14.5 83.5t43.5 26.5q40 0 56 -46h2v40h96v-626zM106 99q0 -15 10 -15t10 15v372q0 15 -10 15t-10 -15v-372z
M44 596l28 126h94l28 -126h-64l-10 66h-2l-10 -66h-64z" />
    <glyph glyph-name="Gbreve" unicode="&#x11e;" horiz-adv-x="240" 
d="M230 369v-369h-100v40l-2 1q-8 -23 -22 -35t-32 -12q-28 0 -46 28.5t-18 81.5v492q0 52 31.5 81t79.5 29t78.5 -28.5t30.5 -81.5v-161h-100v166q0 15 -10 15t-10 -15v-506q0 -15 10 -15t10 15v184h-10v90h110zM103 847q0 -37 18 -37t18 37h70q0 -64 -22 -90.5t-66 -26.5
q-43 0 -65.5 26.5t-22.5 90.5h70z" />
    <glyph glyph-name="gbreve" unicode="&#x11f;" 
d="M222 -56q0 -53 -30 -81.5t-76 -28.5t-76 28t-30 76v32h96v-31q0 -15 10 -15t10 15v102h-2q-8 -22 -22.5 -34.5t-34.5 -12.5q-29 0 -43 26.5t-14 83.5v362q0 57 14.5 83.5t43.5 26.5q40 0 56 -46h2v40h96v-626zM106 99q0 -15 10 -15t10 15v372q0 15 -10 15t-10 -15v-372z
M101 717q0 -37 18 -37t18 37h70q0 -64 -22 -90.5t-66 -26.5q-43 0 -65.5 26.5t-22.5 90.5h70z" />
    <glyph glyph-name="Gdotaccent" unicode="&#x120;" horiz-adv-x="240" 
d="M230 369v-369h-100v40l-2 1q-8 -23 -22 -35t-32 -12q-28 0 -46 28.5t-18 81.5v492q0 52 31.5 81t79.5 29t78.5 -28.5t30.5 -81.5v-161h-100v166q0 15 -10 15t-10 -15v-506q0 -15 10 -15t10 15v184h-10v90h110zM81 839h80v-100h-80v100z" />
    <glyph glyph-name="gdotaccent" unicode="&#x121;" 
d="M222 -56q0 -53 -30 -81.5t-76 -28.5t-76 28t-30 76v32h96v-31q0 -15 10 -15t10 15v102h-2q-8 -22 -22.5 -34.5t-34.5 -12.5q-29 0 -43 26.5t-14 83.5v362q0 57 14.5 83.5t43.5 26.5q40 0 56 -46h2v40h96v-626zM106 99q0 -15 10 -15t10 15v372q0 15 -10 15t-10 -15v-372z
M79 709h80v-100h-80v100z" />
    <glyph glyph-name="uni0122" unicode="&#x122;" horiz-adv-x="240" 
d="M230 369v-369h-100v40l-2 1q-8 -23 -22 -35t-32 -12q-28 0 -46 28.5t-18 81.5v492q0 52 31.5 81t79.5 29t78.5 -28.5t30.5 -81.5v-161h-100v166q0 15 -10 15t-10 -15v-506q0 -15 10 -15t10 15v184h-10v90h110zM87 -16h75v-95l-13 -54h-34l13 54h-41v95z" />
    <glyph glyph-name="uni0123" unicode="&#x123;" 
d="M222 -56q0 -53 -30 -81.5t-76 -28.5t-76 28t-30 76v32h96v-31q0 -15 10 -15t10 15v102h-2q-8 -22 -22.5 -34.5t-34.5 -12.5q-29 0 -43 26.5t-14 83.5v362q0 57 14.5 83.5t43.5 26.5q40 0 56 -46h2v40h96v-626zM106 99q0 -15 10 -15t10 15v372q0 15 -10 15t-10 -15v-372z
M157.001 586.006h-74.9951v94.9941l12.999 53.9971h33.998l-12.999 -53.9971h40.9971v-94.9941z" />
    <glyph glyph-name="Hcircumflex" unicode="&#x124;" horiz-adv-x="240" 
d="M230 0h-100v304h-20v-304h-100v700h100v-306h20v306h100v-700zM45 726l28 126h94l28 -126h-64l-10 66h-2l-10 -66h-64z" />
    <glyph glyph-name="hcircumflex" unicode="&#x125;" 
d="M126 471q0 15 -10 15t-10 -15v-471h-96v730h96v-200l2 -1q16 47 56 47q29 0 43.5 -26.5t14.5 -83.5v-466h-96v471zM-17 756l28 126h94l28 -126h-64l-10 66h-2l-10 -66h-64z" />
    <glyph glyph-name="Hbar" unicode="&#x126;" horiz-adv-x="240" 
d="M230 0h-100v304h-20v-304h-100v700h100v-306h20v306h100v-700zM241 501h-240v90h240v-90z" />
    <glyph glyph-name="hbar" unicode="&#x127;" 
d="M126 471q0 15 -10 15t-10 -15v-471h-96v730h96v-200l2 -1q16 47 56 47q29 0 43.5 -26.5t14.5 -83.5v-466h-96v471zM128 579h-140v96h140v-96z" />
    <glyph glyph-name="Itilde" unicode="&#x128;" horiz-adv-x="120" 
d="M110 0h-100v700h100v-700zM140 839q0 -59 -8.5 -83.5t-28.5 -24.5q-10 0 -20.5 4.5t-20.5 9.5l-19 9.5t-15 4.5q-14 0 -14 -27v-1h-32v2q0 56 9 82t29 26q9 0 19 -4t19.5 -9t18.5 -9t16 -4q16 0 16 24v2h31v-2z" />
    <glyph glyph-name="itilde" unicode="&#x129;" horiz-adv-x="116" 
d="M10 570h96v-570h-96v570zM138 709q0 -59 -8.5 -83.5t-28.5 -24.5q-10 0 -20.5 4.5t-20.5 9.5l-19 9.5t-15 4.5q-14 0 -14 -27v-1h-32v2q0 56 9 82t29 26q9 0 19 -4t19.5 -9t18.5 -9t16 -4q16 0 16 24v2h31v-2z" />
    <glyph glyph-name="Imacron" unicode="&#x12a;" horiz-adv-x="120" 
d="M110 0h-100v700h100v-700zM130 743h-140v90h140v-90z" />
    <glyph glyph-name="imacron" unicode="&#x12b;" horiz-adv-x="116" 
d="M10 570h96v-570h-96v570zM128 613h-140v90h140v-90z" />
    <glyph glyph-name="Ibreve" unicode="&#x12c;" horiz-adv-x="120" 
d="M110 0h-100v700h100v-700zM42 847q0 -37 18 -37t18 37h70q0 -64 -22 -90.5t-66 -26.5q-43 0 -65.5 26.5t-22.5 90.5h70z" />
    <glyph glyph-name="ibreve" unicode="&#x12d;" horiz-adv-x="116" 
d="M10 570h96v-570h-96v570zM40 717q0 -37 18 -37t18 37h70q0 -64 -22 -90.5t-66 -26.5q-43 0 -65.5 26.5t-22.5 90.5h70z" />
    <glyph glyph-name="Iogonek" unicode="&#x12e;" horiz-adv-x="120" 
d="M110 0h-100v700h100v-700zM109 0q-19 0 -34.5 -10t-15.5 -22q0 -10 10.5 -13.5t22.5 -3.5q7 0 17 2v-80q-18 -3 -34 -3q-39 0 -58.5 17.5t-19.5 40.5q0 14 7 28t21 25t35 18t49 7v-6z" />
    <glyph glyph-name="iogonek" unicode="&#x12f;" horiz-adv-x="116" 
d="M10 700h96v-110h-96v110zM10 570h96v-570h-96v570zM105 0q-19 0 -34.5 -10t-15.5 -22q0 -10 10.5 -13.5t22.5 -3.5q7 0 17 2v-80q-18 -3 -34 -3q-39 0 -58.5 17.5t-19.5 40.5q0 14 7 28t21 25t35 18t49 7v-6z" />
    <glyph glyph-name="Idotaccent" unicode="&#x130;" horiz-adv-x="120" 
d="M110 0h-100v700h100v-700zM20 839h80v-100h-80v100z" />
    <glyph glyph-name="dotlessi" unicode="&#x131;" horiz-adv-x="116" 
d="M10 570h96v-570h-96v570z" />
    <glyph glyph-name="IJ" unicode="&#x132;" horiz-adv-x="360" 
d="M110 0h-100v700h100v-700zM350 104q0 -53 -31 -81.5t-79 -28.5t-79 28.5t-31 81.5v192h100v-197q0 -15 10 -15t10 15v601h100v-596z" />
    <glyph glyph-name="ij" unicode="&#x133;" horiz-adv-x="233" 
d="M10 700h96v-110h-96v110zM10 570h96v-570h-96v570zM223 590h-96v110h96v-110zM223 -48q0 -43 -4 -67.5t-15 -36.5t-32 -15t-55 -3h-20v86q23 0 26.5 4.5t3.5 18.5v631h96v-618z" />
    <glyph glyph-name="Jcircumflex" unicode="&#x134;" horiz-adv-x="240" 
d="M230 104q0 -53 -31 -81.5t-79 -28.5t-79 28.5t-31 81.5v192h100v-197q0 -15 10 -15t10 15v601h100v-596zM105 726l28 126h94l28 -126h-64l-10 66h-2l-10 -66h-64z" />
    <glyph glyph-name="jcircumflex" unicode="&#x135;" horiz-adv-x="117" 
d="M107 -48q0 -43 -4 -67.5t-15 -36.5t-32 -15t-55 -3h-20v86q23 0 26.5 4.5t3.5 18.5v631h96v-618zM-16 596l28 126h94l28 -126h-64l-10 66h-2l-10 -66h-64z" />
    <glyph glyph-name="uni0136" unicode="&#x136;" horiz-adv-x="252" 
d="M196 380v-2l56 -378h-103l-37 322h-2v-322h-100v700h100v-283h2l37 283h103zM92 -16h75v-95l-13 -54h-34l13 54h-41v95z" />
    <glyph glyph-name="uni0137" unicode="&#x137;" horiz-adv-x="244" 
d="M188 311v-2l55 -309h-99l-36 271h-2v-271h-96v731h96v-398h2l37 238h99zM88 -16h75v-95l-13 -54h-34l13 54h-41v95z" />
    <glyph glyph-name="kgreenlandic" unicode="&#x138;" horiz-adv-x="244" 
d="M188 311v-2l55 -309h-99l-36 271h-2v-271h-96v571h96v-238h2l37 238h99z" />
    <glyph glyph-name="Lacute" unicode="&#x139;" horiz-adv-x="157" 
d="M110 700v-610h42v-90h-142v700h100zM29 726l13 126h80l-29 -126h-64z" />
    <glyph glyph-name="lacute" unicode="&#x13a;" horiz-adv-x="116" 
d="M10 730h96v-730h-96v730zM28 756l13 126h80l-29 -126h-64z" />
    <glyph glyph-name="uni013B" unicode="&#x13b;" horiz-adv-x="157" 
d="M110 700v-610h42v-90h-142v700h100zM44 -16h75v-95l-13 -54h-34l13 54h-41v95z" />
    <glyph glyph-name="uni013C" unicode="&#x13c;" horiz-adv-x="116" 
d="M10 730h96v-730h-96v730zM21 -16h75v-95l-13 -54h-34l13 54h-41v95z" />
    <glyph glyph-name="Lcaron" unicode="&#x13d;" horiz-adv-x="157" 
d="M110 700v-610h42v-90h-142v700h100zM130 700h76l-26 -117h-56z" />
    <glyph glyph-name="lcaron" unicode="&#x13e;" horiz-adv-x="203" 
d="M10 730h96v-730h-96v730zM127 730h76l-26 -117h-56z" />
    <glyph glyph-name="Ldot" unicode="&#x13f;" horiz-adv-x="206" 
d="M110 700v-610h42v-90h-142v700h100zM121 401h80v-100h-80v100z" />
    <glyph glyph-name="ldot" unicode="&#x140;" horiz-adv-x="216" 
d="M10 730h96v-730h-96v730zM126 413h80v-100h-80v100z" />
    <glyph glyph-name="Lslash" unicode="&#x141;" horiz-adv-x="162" 
d="M110 700v-610h42v-90h-142v700h100zM156 335l-156 -63l-36 89l157 63z" />
    <glyph glyph-name="lslash" unicode="&#x142;" horiz-adv-x="116" 
d="M10 730h96v-730h-96v730zM153 347l-153 -66l-36 89l154 66z" />
    <glyph glyph-name="Nacute" unicode="&#x143;" horiz-adv-x="291" 
d="M280 0h-125l-69 540h-2l16 -225l5 -315h-95v700h125l69 -540h2l-16 225l-5 315h95v-700zM115 726l13 126h80l-29 -126h-64z" />
    <glyph glyph-name="nacute" unicode="&#x144;" 
d="M126 471q0 15 -10 15t-10 -15v-471h-96v570h96v-40l2 -1q16 47 56 47q29 0 43.5 -26.5t14.5 -83.5v-466h-96v471zM86 596l13 126h80l-29 -126h-64z" />
    <glyph glyph-name="uni0145" unicode="&#x145;" horiz-adv-x="291" 
d="M280 0h-125l-69 540h-2l16 -225l5 -315h-95v700h125l69 -540h2l-16 225l-5 315h95v-700zM108 -16h75v-95l-13 -54h-34l13 54h-41v95z" />
    <glyph glyph-name="uni0146" unicode="&#x146;" 
d="M126 471q0 15 -10 15t-10 -15v-471h-96v570h96v-40l2 -1q16 47 56 47q29 0 43.5 -26.5t14.5 -83.5v-466h-96v471zM79 -16h75v-95l-13 -54h-34l13 54h-41v95z" />
    <glyph glyph-name="Ncaron" unicode="&#x147;" horiz-adv-x="291" 
d="M280 0h-125l-69 540h-2l16 -225l5 -315h-95v700h125l69 -540h2l-16 225l-5 315h95v-700zM225.001 852.035l-27.998 -125.993h-93.9941l-27.998 125.993h63.9961l9.99902 -65.9961h2l9.99902 65.9961h63.9961z" />
    <glyph glyph-name="ncaron" unicode="&#x148;" 
d="M126 471q0 15 -10 15t-10 -15v-471h-96v570h96v-40l2 -1q16 47 56 47q29 0 43.5 -26.5t14.5 -83.5v-466h-96v471zM196.001 722.035l-27.998 -125.993h-93.9941l-27.998 125.993h63.9961l9.99902 -65.9961h2l9.99902 65.9961h63.9961z" />
    <glyph glyph-name="napostrophe" unicode="&#x149;" horiz-adv-x="354" 
d="M20 700h314v-700h-314v700zM177 422l76 218h-154zM274 149v408l-72 -206zM80 143l72 208l-72 203v-411zM101 60h155l-78 220z" />
    <glyph glyph-name="Eng" unicode="&#x14a;" horiz-adv-x="334" 
d="M10 700h314v-700h-314v700zM167 422l76 218h-154zM264 149v408l-72 -206zM70 143l72 208l-72 203v-411zM91 60h155l-78 220z" />
    <glyph glyph-name="eng" unicode="&#x14b;" horiz-adv-x="334" 
d="M10 700h314v-700h-314v700zM167 422l76 218h-154zM264 149v408l-72 -206zM70 143l72 208l-72 203v-411zM91 60h155l-78 220z" />
    <glyph glyph-name="Omacron" unicode="&#x14c;" horiz-adv-x="240" 
d="M230 104q0 -53 -31 -81.5t-79 -28.5t-79 28.5t-31 81.5v492q0 52 31.5 81t79.5 29t78.5 -28.5t30.5 -81.5v-492zM130 601q0 15 -10 15t-10 -15v-502q0 -15 10 -15t10 15v502zM191 743h-140v90h140v-90z" />
    <glyph glyph-name="omacron" unicode="&#x14d;" 
d="M222 104q0 -53 -30 -81.5t-76 -28.5t-76 28.5t-30 81.5v362q0 52 30.5 81t76.5 29t75.5 -28.5t29.5 -81.5v-362zM126 471q0 15 -10 15t-10 -15v-372q0 -15 10 -15t10 15v372zM187 613h-140v90h140v-90z" />
    <glyph glyph-name="Obreve" unicode="&#x14e;" horiz-adv-x="240" 
d="M230 104q0 -53 -31 -81.5t-79 -28.5t-79 28.5t-31 81.5v492q0 52 31.5 81t79.5 29t78.5 -28.5t30.5 -81.5v-492zM130 601q0 15 -10 15t-10 -15v-502q0 -15 10 -15t10 15v502zM103 847q0 -37 18 -37t18 37h70q0 -64 -22 -90.5t-66 -26.5q-43 0 -65.5 26.5t-22.5 90.5h70z
" />
    <glyph glyph-name="obreve" unicode="&#x14f;" 
d="M222 104q0 -53 -30 -81.5t-76 -28.5t-76 28.5t-30 81.5v362q0 52 30.5 81t76.5 29t75.5 -28.5t29.5 -81.5v-362zM126 471q0 15 -10 15t-10 -15v-372q0 -15 10 -15t10 15v372zM99 717q0 -37 18 -37t18 37h70q0 -64 -22 -90.5t-66 -26.5q-43 0 -65.5 26.5t-22.5 90.5h70z
" />
    <glyph glyph-name="Ohungarumlaut" unicode="&#x150;" horiz-adv-x="240" 
d="M230 104q0 -53 -31 -81.5t-79 -28.5t-79 28.5t-31 81.5v492q0 52 31.5 81t79.5 29t78.5 -28.5t30.5 -81.5v-492zM130 601q0 15 -10 15t-10 -15v-502q0 -15 10 -15t10 15v502zM44 726l13 126h80l-29 -126h-64zM135 726l13 126h80l-29 -126h-64z" />
    <glyph glyph-name="ohungarumlaut" unicode="&#x151;" 
d="M222 104q0 -53 -30 -81.5t-76 -28.5t-76 28.5t-30 81.5v362q0 52 30.5 81t76.5 29t75.5 -28.5t29.5 -81.5v-362zM126 471q0 15 -10 15t-10 -15v-372q0 -15 10 -15t10 15v372zM40 596l13 126h80l-29 -126h-64zM131 596l13 126h80l-29 -126h-64z" />
    <glyph glyph-name="OE" unicode="&#x152;" horiz-adv-x="280" 
d="M265 610h-35v-206h40v-90h-40v-224h45v-90h-155q-48 0 -79 28.5t-31 81.5v480q0 52 31.5 81t79.5 29h144v-90zM120 610q-10 0 -10 -15v-490q0 -15 10 -15h10v520h-10z" />
    <glyph glyph-name="oe" unicode="&#x153;" horiz-adv-x="348" 
d="M338 223v-119q0 -51 -28 -80.5t-73 -29.5q-39 0 -62 25h-2q-23 -25 -62 -25q-45 0 -73 29.5t-28 80.5v362q0 49 28.5 79.5t74.5 30.5q37 0 61 -25h2q24 25 62 25q45 0 72.5 -30t27.5 -80v-206h-116v-161q0 -15 10 -15t10 15v124h96zM126 471q0 15 -10 15t-10 -15v-372
q0 -15 10 -15t10 15v372zM242 471q0 15 -10 15t-10 -15v-121h20v121z" />
    <glyph glyph-name="Racute" unicode="&#x154;" horiz-adv-x="240" 
d="M130 295q0 15 -10 15h-10v-310h-100v700h111q55 0 82 -23.5t27 -76.5v-142q0 -22 -1 -39t-5.5 -29.5t-13 -20.5t-22.5 -13v-2q29 -9 35.5 -33t6.5 -69v-160q0 -17 0.5 -28.5t1.5 -21.5t3.5 -19t6.5 -21v-2h-103q-5 20 -7 38.5t-2 52.5v204zM130 595q0 15 -10 15h-10v-210
h10q10 0 10 15v180zM70 726l13 126h80l-29 -126h-64z" />
    <glyph glyph-name="racute" unicode="&#x155;" 
d="M126 471q0 15 -10 15t-10 -15v-471h-96v570h96v-40l2 -1q16 47 56 47q29 0 43.5 -26.5t14.5 -83.5v-130h-96v135zM86 596l13 126h80l-29 -126h-64z" />
    <glyph glyph-name="uni0156" unicode="&#x156;" horiz-adv-x="240" 
d="M130 295q0 15 -10 15h-10v-310h-100v700h111q55 0 82 -23.5t27 -76.5v-142q0 -22 -1 -39t-5.5 -29.5t-13 -20.5t-22.5 -13v-2q29 -9 35.5 -33t6.5 -69v-160q0 -17 0.5 -28.5t1.5 -21.5t3.5 -19t6.5 -21v-2h-103q-5 20 -7 38.5t-2 52.5v204zM130 595q0 15 -10 15h-10v-210
h10q10 0 10 15v180zM89 -16h75v-95l-13 -54h-34l13 54h-41v95z" />
    <glyph glyph-name="uni0157" unicode="&#x157;" 
d="M126 471q0 15 -10 15t-10 -15v-471h-96v570h96v-40l2 -1q16 47 56 47q29 0 43.5 -26.5t14.5 -83.5v-130h-96v135zM21 -16h75v-95l-13 -54h-34l13 54h-41v95z" />
    <glyph glyph-name="Rcaron" unicode="&#x158;" horiz-adv-x="240" 
d="M130 295q0 15 -10 15h-10v-310h-100v700h111q55 0 82 -23.5t27 -76.5v-142q0 -22 -1 -39t-5.5 -29.5t-13 -20.5t-22.5 -13v-2q29 -9 35.5 -33t6.5 -69v-160q0 -17 0.5 -28.5t1.5 -21.5t3.5 -19t6.5 -21v-2h-103q-5 20 -7 38.5t-2 52.5v204zM130 595q0 15 -10 15h-10v-210
h10q10 0 10 15v180zM180.001 852.035l-27.998 -125.993h-93.9941l-27.998 125.993h63.9961l9.99902 -65.9961h2l9.99902 65.9961h63.9961z" />
    <glyph glyph-name="rcaron" unicode="&#x159;" 
d="M126 471q0 15 -10 15t-10 -15v-471h-96v570h96v-40l2 -1q16 47 56 47q29 0 43.5 -26.5t14.5 -83.5v-130h-96v135zM196.001 722.035l-27.998 -125.993h-93.9941l-27.998 125.993h63.9961l9.99902 -65.9961h2l9.99902 65.9961h63.9961z" />
    <glyph glyph-name="Sacute" unicode="&#x15a;" horiz-adv-x="236" 
d="M228 104q0 -53 -31 -81.5t-79 -28.5t-79 28.5t-31 81.5v142h100v-147q0 -15 10 -15t10 15v116q0 32 -16.5 63.5t-36.5 65.5q-24 39 -45.5 81.5t-21.5 90.5v80q0 52 31.5 81t79.5 29t78.5 -28.5t30.5 -81.5v-111h-100v116q0 15 -10 15t-10 -15v-85q0 -32 16.5 -63.5
t37.5 -65.5q24 -39 45 -81.5t21 -90.5v-111zM89 726l13 126h80l-29 -126h-64z" />
    <glyph glyph-name="sacute" unicode="&#x15b;" horiz-adv-x="228" 
d="M220 104q0 -53 -30 -81.5t-76 -28.5t-76 28.5t-30 81.5v97h96v-102q0 -15 10 -15t10 15v88q0 21 -14.5 42t-33.5 44q-24 28 -46 60.5t-22 75.5v57q0 52 30.5 81t76.5 29t75.5 -28.5t29.5 -81.5v-70h-96v75q0 15 -10 15t-10 -15v-62q0 -23 14.5 -43.5t34.5 -42.5
q24 -28 45.5 -61t21.5 -75v-83zM85 596l13 126h80l-29 -126h-64z" />
    <glyph glyph-name="Scircumflex" unicode="&#x15c;" horiz-adv-x="236" 
d="M228 104q0 -53 -31 -81.5t-79 -28.5t-79 28.5t-31 81.5v142h100v-147q0 -15 10 -15t10 15v116q0 32 -16.5 63.5t-36.5 65.5q-24 39 -45.5 81.5t-21.5 90.5v80q0 52 31.5 81t79.5 29t78.5 -28.5t30.5 -81.5v-111h-100v116q0 15 -10 15t-10 -15v-85q0 -32 16.5 -63.5
t37.5 -65.5q24 -39 45 -81.5t21 -90.5v-111zM44 726l28 126h94l28 -126h-64l-10 66h-2l-10 -66h-64z" />
    <glyph glyph-name="scircumflex" unicode="&#x15d;" horiz-adv-x="228" 
d="M220 104q0 -53 -30 -81.5t-76 -28.5t-76 28.5t-30 81.5v97h96v-102q0 -15 10 -15t10 15v88q0 21 -14.5 42t-33.5 44q-24 28 -46 60.5t-22 75.5v57q0 52 30.5 81t76.5 29t75.5 -28.5t29.5 -81.5v-70h-96v75q0 15 -10 15t-10 -15v-62q0 -23 14.5 -43.5t34.5 -42.5
q24 -28 45.5 -61t21.5 -75v-83zM40 596l28 126h94l28 -126h-64l-10 66h-2l-10 -66h-64z" />
    <glyph glyph-name="Scedilla" unicode="&#x15e;" horiz-adv-x="236" 
d="M228 104q0 -53 -31 -81.5t-79 -28.5t-79 28.5t-31 81.5v142h100v-147q0 -15 10 -15t10 15v116q0 32 -16.5 63.5t-36.5 65.5q-24 39 -45.5 81.5t-21.5 90.5v80q0 52 31.5 81t79.5 29t78.5 -28.5t30.5 -81.5v-111h-100v116q0 15 -10 15t-10 -15v-85q0 -32 16.5 -63.5
t37.5 -65.5q24 -39 45 -81.5t21 -90.5v-111zM147 4l-8 -25q30 0 50.5 -16.5t20.5 -41.5q0 -28 -27 -45t-71 -17q-10 0 -21 1.5t-23 3.5v60q10 -2 18 -3.5t16 -1.5q36 0 36 17q0 10 -13.5 15t-34.5 5l10 48h47z" />
    <glyph glyph-name="scedilla" unicode="&#x15f;" horiz-adv-x="228" 
d="M220 104q0 -53 -30 -81.5t-76 -28.5t-76 28.5t-30 81.5v97h96v-102q0 -15 10 -15t10 15v88q0 21 -14.5 42t-33.5 44q-24 28 -46 60.5t-22 75.5v57q0 52 30.5 81t76.5 29t75.5 -28.5t29.5 -81.5v-70h-96v75q0 15 -10 15t-10 -15v-62q0 -23 14.5 -43.5t34.5 -42.5
q24 -28 45.5 -61t21.5 -75v-83zM143 4l-8 -25q30 0 50.5 -16.5t20.5 -41.5q0 -28 -27 -45t-71 -17q-10 0 -21 1.5t-23 3.5v60q10 -2 18 -3.5t16 -1.5q36 0 36 17q0 10 -13.5 15t-34.5 5l10 48h47z" />
    <glyph glyph-name="Scaron" unicode="&#x160;" horiz-adv-x="236" 
d="M228 104q0 -53 -31 -81.5t-79 -28.5t-79 28.5t-31 81.5v142h100v-147q0 -15 10 -15t10 15v116q0 32 -16.5 63.5t-36.5 65.5q-24 39 -45.5 81.5t-21.5 90.5v80q0 52 31.5 81t79.5 29t78.5 -28.5t30.5 -81.5v-111h-100v116q0 15 -10 15t-10 -15v-85q0 -32 16.5 -63.5
t37.5 -65.5q24 -39 45 -81.5t21 -90.5v-111zM199.001 852.035l-27.998 -125.993h-93.9941l-27.998 125.993h63.9961l9.99902 -65.9961h2l9.99902 65.9961h63.9961z" />
    <glyph glyph-name="scaron" unicode="&#x161;" horiz-adv-x="228" 
d="M220 104q0 -53 -30 -81.5t-76 -28.5t-76 28.5t-30 81.5v97h96v-102q0 -15 10 -15t10 15v88q0 21 -14.5 42t-33.5 44q-24 28 -46 60.5t-22 75.5v57q0 52 30.5 81t76.5 29t75.5 -28.5t29.5 -81.5v-70h-96v75q0 15 -10 15t-10 -15v-62q0 -23 14.5 -43.5t34.5 -42.5
q24 -28 45.5 -61t21.5 -75v-83zM195.001 722.035l-27.998 -125.993h-93.9941l-27.998 125.993h63.9961l9.99902 -65.9961h2l9.99902 65.9961h63.9961z" />
    <glyph glyph-name="uni0162" unicode="&#x162;" horiz-adv-x="210" 
d="M205 610h-50v-610h-100v610h-50v90h200v-90zM134 4l-8 -25q30 0 50.5 -16.5t20.5 -41.5q0 -28 -27 -45t-71 -17q-10 0 -21 1.5t-23 3.5v60q10 -2 18 -3.5t16 -1.5q36 0 36 17q0 10 -13.5 15t-34.5 5l10 48h47z" />
    <glyph glyph-name="uni0163" unicode="&#x163;" horiz-adv-x="161" 
d="M121 680v-110h35v-86h-35v-374q0 -14 5 -19t30 -5v-86h-25q-35 0 -56 2t-32 12t-14.5 31t-3.5 58v381h-20v86h20v110h96zM126 4l-8 -25q30 0 50.5 -16.5t20.5 -41.5q0 -28 -27 -45t-71 -17q-10 0 -21 1.5t-23 3.5v60q10 -2 18 -3.5t16 -1.5q36 0 36 17q0 10 -13.5 15
t-34.5 5l10 48h47z" />
    <glyph glyph-name="Tcaron" unicode="&#x164;" horiz-adv-x="210" 
d="M205 610h-50v-610h-100v610h-50v90h200v-90zM185.001 852.035l-27.998 -125.993h-93.9941l-27.998 125.993h63.9961l9.99902 -65.9961h2l9.99902 65.9961h63.9961z" />
    <glyph glyph-name="tcaron" unicode="&#x165;" horiz-adv-x="212" 
d="M121 680v-110h35v-86h-35v-374q0 -14 5 -19t30 -5v-86h-25q-35 0 -56 2t-32 12t-14.5 31t-3.5 58v381h-20v86h20v110h96zM136 730h76l-26 -117h-56z" />
    <glyph glyph-name="Tbar" unicode="&#x166;" horiz-adv-x="210" 
d="M205 610h-50v-610h-100v610h-50v90h200v-90zM175 258h-140v96h140v-96z" />
    <glyph glyph-name="tbar" unicode="&#x167;" horiz-adv-x="161" 
d="M121 680v-110h35v-86h-35v-374q0 -14 5 -19t30 -5v-86h-25q-35 0 -56 2t-32 12t-14.5 31t-3.5 58v381h-20v86h20v110h96zM156 362h-151v96h151v-96z" />
    <glyph glyph-name="Utilde" unicode="&#x168;" horiz-adv-x="240" 
d="M230 104q0 -53 -31 -81.5t-79 -28.5t-79 28.5t-31 81.5v596h100v-601q0 -15 10 -15t10 15v601h100v-596zM200 839q0 -59 -8.5 -83.5t-28.5 -24.5q-10 0 -20.5 4.5t-20.5 9.5l-19 9.5t-15 4.5q-14 0 -14 -27v-1h-32v2q0 56 9 82t29 26q9 0 19 -4t19.5 -9t18.5 -9t16 -4
q16 0 16 24v2h31v-2z" />
    <glyph glyph-name="utilde" unicode="&#x169;" 
d="M106 99q0 -15 10 -15t10 15v471h96v-570h-96v40l-2 1q-16 -47 -56 -47q-29 0 -43.5 26.5t-14.5 83.5v466h96v-471zM196 709q0 -59 -8.5 -83.5t-28.5 -24.5q-10 0 -20.5 4.5t-20.5 9.5l-19 9.5t-15 4.5q-14 0 -14 -27v-1h-32v2q0 56 9 82t29 26q9 0 19 -4t19.5 -9t18.5 -9
t16 -4q16 0 16 24v2h31v-2z" />
    <glyph glyph-name="Umacron" unicode="&#x16a;" horiz-adv-x="240" 
d="M230 104q0 -53 -31 -81.5t-79 -28.5t-79 28.5t-31 81.5v596h100v-601q0 -15 10 -15t10 15v601h100v-596zM190 743h-140v90h140v-90z" />
    <glyph glyph-name="umacron" unicode="&#x16b;" 
d="M106 99q0 -15 10 -15t10 15v471h96v-570h-96v40l-2 1q-16 -47 -56 -47q-29 0 -43.5 26.5t-14.5 83.5v466h96v-471zM186 613h-140v90h140v-90z" />
    <glyph glyph-name="Ubreve" unicode="&#x16c;" horiz-adv-x="240" 
d="M230 104q0 -53 -31 -81.5t-79 -28.5t-79 28.5t-31 81.5v596h100v-601q0 -15 10 -15t10 15v601h100v-596zM102 847q0 -37 18 -37t18 37h70q0 -64 -22 -90.5t-66 -26.5q-43 0 -65.5 26.5t-22.5 90.5h70z" />
    <glyph glyph-name="ubreve" unicode="&#x16d;" 
d="M106 99q0 -15 10 -15t10 15v471h96v-570h-96v40l-2 1q-16 -47 -56 -47q-29 0 -43.5 26.5t-14.5 83.5v466h96v-471zM98 717q0 -37 18 -37t18 37h70q0 -64 -22 -90.5t-66 -26.5q-43 0 -65.5 26.5t-22.5 90.5h70z" />
    <glyph glyph-name="Uring" unicode="&#x16e;" horiz-adv-x="240" 
d="M230 104q0 -53 -31 -81.5t-79 -28.5t-79 28.5t-31 81.5v596h100v-601q0 -15 10 -15t10 15v601h100v-596zM50 789q0 68 70 68q33 0 51 -17.5t18 -51.5q0 -68 -69 -68q-70 0 -70 69zM99 788q0 -20 21 -20q20 0 20 20q0 21 -20 21q-21 0 -21 -21z" />
    <glyph glyph-name="uring" unicode="&#x16f;" 
d="M106 99q0 -15 10 -15t10 15v471h96v-570h-96v40l-2 1q-16 -47 -56 -47q-29 0 -43.5 26.5t-14.5 83.5v466h96v-471zM46 659q0 68 70 68q33 0 51 -17.5t18 -51.5q0 -68 -69 -68q-70 0 -70 69zM95 658q0 -20 21 -20q20 0 20 20q0 21 -20 21q-21 0 -21 -21z" />
    <glyph glyph-name="Uhungarumlaut" unicode="&#x170;" horiz-adv-x="240" 
d="M230 104q0 -53 -31 -81.5t-79 -28.5t-79 28.5t-31 81.5v596h100v-601q0 -15 10 -15t10 15v601h100v-596zM43 726l13 126h80l-29 -126h-64zM134 726l13 126h80l-29 -126h-64z" />
    <glyph glyph-name="uhungarumlaut" unicode="&#x171;" 
d="M106 99q0 -15 10 -15t10 15v471h96v-570h-96v40l-2 1q-16 -47 -56 -47q-29 0 -43.5 26.5t-14.5 83.5v466h96v-471zM39 596l13 126h80l-29 -126h-64zM130 596l13 126h80l-29 -126h-64z" />
    <glyph glyph-name="Uogonek" unicode="&#x172;" horiz-adv-x="240" 
d="M230 104q0 -53 -31 -81.5t-79 -28.5t-79 28.5t-31 81.5v596h100v-601q0 -15 10 -15t10 15v601h100v-596zM142 -5q-11 -5 -19 -12t-8 -15q0 -10 10.5 -13.5t22.5 -3.5q7 0 17 2v-80q-18 -3 -31 -3q-38 0 -59.5 20t-21.5 46q0 23 20 42.5t66 25.5z" />
    <glyph glyph-name="uogonek" unicode="&#x173;" 
d="M106 99q0 -15 10 -15t10 15v471h96v-570h-96v40l-2 1q-16 -47 -56 -47q-29 0 -43.5 26.5t-14.5 83.5v466h96v-471zM221 0q-19 0 -34.5 -10t-15.5 -22q0 -10 10.5 -13.5t22.5 -3.5q7 0 17 2v-80q-18 -3 -34 -3q-39 0 -58.5 17.5t-19.5 40.5q0 14 7 28t21 25t35 18t49 7v-6
z" />
    <glyph glyph-name="Wcircumflex" unicode="&#x174;" horiz-adv-x="389" 
d="M352 0h-135l-17 479l-2 110h-2l-2 -110l-17 -479h-135l-42 700h115l1 -469v-121h2l4 121l22 469h106l22 -469l4 -121h2l1 121v469h110zM123 726l28 126h94l28 -126h-64l-10 66h-2l-10 -66h-64z" />
    <glyph glyph-name="wcircumflex" unicode="&#x175;" horiz-adv-x="394" 
d="M394 570l-45 -570h-132l-16 370l-3 90h-2l-3 -90l-16 -370h-132l-45 570h106l8 -372l1 -88h2l4 88l25 372h102l25 -372l4 -88h2l1 89l8 371h106zM121 596l28 126h94l28 -126h-64l-10 66h-2l-10 -66h-64z" />
    <glyph glyph-name="Ycircumflex" unicode="&#x176;" horiz-adv-x="244" 
d="M172 230v-230h-100v230l-72 470h102l15 -241l4 -100h2l4 100l15 241h102zM47 726l28 126h94l28 -126h-64l-10 66h-2l-10 -66h-64z" />
    <glyph glyph-name="ycircumflex" unicode="&#x177;" horiz-adv-x="238" 
d="M119 262l4 -99h1l4 99l15 307h96l-95 -729h-96l22 160l-72 569h106zM44 596l28 126h94l28 -126h-64l-10 66h-2l-10 -66h-64z" />
    <glyph glyph-name="Ydieresis" unicode="&#x178;" horiz-adv-x="244" 
d="M172 230v-230h-100v230l-72 470h102l15 -241l4 -100h2l4 100l15 241h102zM52 839h60v-100h-60v100zM133 839h60v-100h-60v100z" />
    <glyph glyph-name="Zacute" unicode="&#x179;" horiz-adv-x="195" 
d="M190 610l-83 -520h82v-90h-184v90l83 520h-78v90h180v-90zM71 726l13 126h80l-29 -126h-64z" />
    <glyph glyph-name="zacute" unicode="&#x17a;" horiz-adv-x="191" 
d="M186 484l-83 -398h82v-86h-180v72l83 412h-78v86h176v-86zM66 596l13 126h80l-29 -126h-64z" />
    <glyph glyph-name="Zdotaccent" unicode="&#x17b;" horiz-adv-x="195" 
d="M190 610l-83 -520h82v-90h-184v90l83 520h-78v90h180v-90zM61 839h80v-100h-80v100z" />
    <glyph glyph-name="zdotaccent" unicode="&#x17c;" horiz-adv-x="191" 
d="M186 484l-83 -398h82v-86h-180v72l83 412h-78v86h176v-86zM56 709h80v-100h-80v100z" />
    <glyph glyph-name="Zcaron" unicode="&#x17d;" horiz-adv-x="195" 
d="M190 610l-83 -520h82v-90h-184v90l83 520h-78v90h180v-90zM181.001 852.035l-27.998 -125.993h-93.9941l-27.998 125.993h63.9961l9.99902 -65.9961h2l9.99902 65.9961h63.9961z" />
    <glyph glyph-name="zcaron" unicode="&#x17e;" horiz-adv-x="191" 
d="M186 484l-83 -398h82v-86h-180v72l83 412h-78v86h176v-86zM175.001 722.035l-27.998 -125.993h-93.9941l-27.998 125.993h63.9961l9.99902 -65.9961h2l9.99902 65.9961h63.9961z" />
    <glyph glyph-name="longs" unicode="&#x17f;" horiz-adv-x="354" 
d="M20 700h314v-700h-314v700zM177 422l76 218h-154zM274 149v408l-72 -206zM80 143l72 208l-72 203v-411zM101 60h155l-78 220z" />
    <glyph glyph-name="florin" unicode="&#x192;" horiz-adv-x="171" 
d="M10 -124q21 0 25.5 6t4.5 28v574h-20v86h20v33q0 45 3.5 70.5t14.5 38t32 15.5t56 3h20v-86q-21 0 -25.5 -6t-4.5 -28v-40h30v-86h-30v-567q0 -45 -3.5 -70.5t-14.5 -38t-32 -15.5t-56 -3h-20v86z" />
    <glyph glyph-name="AEacute" unicode="&#x1fc;" horiz-adv-x="290" 
d="M275 610h-35v-206h40v-90h-40v-224h45v-90h-145v167h-28l-12 -167h-100l74 700h201v-90zM140 257v333h-2l-3 -121l-16 -212h21zM143 726l13 126h80l-29 -126h-64z" />
    <glyph glyph-name="aeacute" unicode="&#x1fd;" horiz-adv-x="348" 
d="M128 72q-5 -37 -22.5 -57.5t-45.5 -20.5q-26 0 -38 21t-12 69v139q0 23 6 41t19.5 32.5t35.5 26t55 21.5v127q0 15 -10 15t-10 -15v-105h-96v100q0 51 27.5 80.5t72.5 29.5q39 0 63 -26h2q24 26 63 26q45 0 72.5 -29.5t27.5 -80.5v-206h-116v-161q0 -15 10 -15t10 15v124
h96v-119q0 -51 -29 -80.5t-77 -29.5q-40 0 -67 20.5t-35 57.5h-2zM242 471q0 15 -10 15t-10 -15v-121h20v121zM126 264q-20 -9 -20 -58v-108q0 -14 10 -14t10 15v165zM128 569l13 126h80l-29 -126h-64z" />
    <glyph glyph-name="Oslashacute" unicode="&#x1fe;" horiz-adv-x="240" 
d="M230 104q0 -53 -31 -81.5t-79 -28.5q-42 0 -69 21l-6 -21l-35 10l12 45q-12 24 -12 55v492q0 52 31.5 81t79.5 29q40 0 68 -20l5 20l36 -10l-12 -45q12 -22 12 -55v-492zM130 601q0 15 -10 15t-10 -15v-215l20 76v139zM110 99q0 -15 10 -15t10 15v218l-20 -76v-142z
M91 726l13 126h80l-29 -126h-64z" />
    <glyph glyph-name="oslashacute" unicode="&#x1ff;" 
d="M222 104q0 -53 -30 -81.5t-76 -28.5q-36 0 -65 19l-6 -19l-35 10l13 42q-13 26 -13 58v362q0 52 30.5 81t76.5 29q38 0 63 -19l6 19l36 -10l-13 -42q13 -26 13 -58v-362zM126 471q0 15 -10 15t-10 -15v-155l20 65v90zM106 99q0 -15 10 -15t10 15v157l-20 -65v-92zM87 596
l13 126h80l-29 -126h-64z" />
    <glyph glyph-name="uni0218" unicode="&#x218;" horiz-adv-x="236" 
d="M228 104q0 -53 -31 -81.5t-79 -28.5t-79 28.5t-31 81.5v142h100v-147q0 -15 10 -15t10 15v116q0 32 -16.5 63.5t-36.5 65.5q-24 39 -45.5 81.5t-21.5 90.5v80q0 52 31.5 81t79.5 29t78.5 -28.5t30.5 -81.5v-111h-100v116q0 15 -10 15t-10 -15v-85q0 -32 16.5 -63.5
t37.5 -65.5q24 -39 45 -81.5t21 -90.5v-111zM81 -16h75v-95l-13 -54h-34l13 54h-41v95z" />
    <glyph glyph-name="uni0219" unicode="&#x219;" horiz-adv-x="228" 
d="M220 104q0 -53 -30 -81.5t-76 -28.5t-76 28.5t-30 81.5v97h96v-102q0 -15 10 -15t10 15v88q0 21 -14.5 42t-33.5 44q-24 28 -46 60.5t-22 75.5v57q0 52 30.5 81t76.5 29t75.5 -28.5t29.5 -81.5v-70h-96v75q0 15 -10 15t-10 -15v-62q0 -23 14.5 -43.5t34.5 -42.5
q24 -28 45.5 -61t21.5 -75v-83zM77 -16h75v-95l-13 -54h-34l13 54h-41v95z" />
    <glyph glyph-name="uni021A" unicode="&#x21a;" horiz-adv-x="210" 
d="M205 610h-50v-610h-100v610h-50v90h200v-90zM68 -16h75v-95l-13 -54h-34l13 54h-41v95z" />
    <glyph glyph-name="uni021B" unicode="&#x21b;" horiz-adv-x="161" 
d="M121 680v-110h35v-86h-35v-374q0 -14 5 -19t30 -5v-86h-25q-35 0 -56 2t-32 12t-14.5 31t-3.5 58v381h-20v86h20v110h96zM60 -16h75v-95l-13 -54h-34l13 54h-41v95z" />
    <glyph glyph-name="uni0237" unicode="&#x237;" horiz-adv-x="117" 
d="M107 -48q0 -43 -4 -67.5t-15 -36.5t-32 -15t-55 -3h-20v86q23 0 26.5 4.5t3.5 18.5v631h96v-618z" />
    <glyph glyph-name="circumflex" unicode="&#x2c6;" horiz-adv-x="190" 
d="M20 569l28 126h94l28 -126h-64l-10 66h-2l-10 -66h-64z" />
    <glyph glyph-name="caron" unicode="&#x2c7;" horiz-adv-x="220" 
d="M200.001 695.035l-27.998 -125.993h-93.9941l-27.998 125.993h63.9961l9.99902 -65.9961h2l9.99902 65.9961h63.9961z" />
    <glyph glyph-name="breve" unicode="&#x2d8;" horiz-adv-x="216" 
d="M90 690q0 -37 18 -37t18 37h70q0 -64 -22 -90.5t-66 -26.5q-43 0 -65.5 26.5t-22.5 90.5h70z" />
    <glyph glyph-name="dotaccent" unicode="&#x2d9;" horiz-adv-x="120" 
d="M20 682h80v-100h-80v100z" />
    <glyph glyph-name="ring" unicode="&#x2da;" horiz-adv-x="180" 
d="M20 632q0 68 70 68q33 0 51 -17.5t18 -51.5q0 -68 -69 -68q-70 0 -70 69zM69 631q0 -20 21 -20q20 0 20 20q0 21 -20 21q-21 0 -21 -21z" />
    <glyph glyph-name="ogonek" unicode="&#x2db;" horiz-adv-x="153" 
d="M133 -10q-19 0 -34.5 -10t-15.5 -22q0 -10 10.5 -13.5t22.5 -3.5q7 0 17 2v-80q-18 -3 -34 -3q-39 0 -58.5 17.5t-19.5 40.5q0 14 7 28t21 25t35 18t49 7v-6z" />
    <glyph glyph-name="tilde" unicode="&#x2dc;" horiz-adv-x="199" 
d="M179 682q0 -59 -8.5 -83.5t-28.5 -24.5q-10 0 -20.5 4.5t-20.5 9.5l-19 9.5t-15 4.5q-14 0 -14 -27v-1h-32v2q0 56 9 82t29 26q9 0 19 -4t19.5 -9t18.5 -9t16 -4q16 0 16 24v2h31v-2z" />
    <glyph glyph-name="hungarumlaut" unicode="&#x2dd;" horiz-adv-x="266" 
d="M20 569l13 126h80l-29 -126h-64zM111 569l13 126h80l-29 -126h-64z" />
    <glyph glyph-name="uni03BC" unicode="&#x3bc;" horiz-adv-x="354" 
d="M20 700h314v-700h-314v700zM177 422l76 218h-154zM274 149v408l-72 -206zM80 143l72 208l-72 203v-411zM101 60h155l-78 220z" />
    <glyph glyph-name="Wgrave" unicode="&#x1e80;" horiz-adv-x="389" 
d="M352 0h-135l-17 479l-2 110h-2l-2 -110l-17 -479h-135l-42 700h115l1 -469v-121h2l4 121l22 469h106l22 -469l4 -121h2l1 121v469h110zM135 852h80l13 -126h-64z" />
    <glyph glyph-name="wgrave" unicode="&#x1e81;" horiz-adv-x="394" 
d="M394 570l-45 -570h-132l-16 370l-3 90h-2l-3 -90l-16 -370h-132l-45 570h106l8 -372l1 -88h2l4 88l25 372h102l25 -372l4 -88h2l1 89l8 371h106zM133 722h80l13 -126h-64z" />
    <glyph glyph-name="Wacute" unicode="&#x1e82;" horiz-adv-x="389" 
d="M352 0h-135l-17 479l-2 110h-2l-2 -110l-17 -479h-135l-42 700h115l1 -469v-121h2l4 121l22 469h106l22 -469l4 -121h2l1 121v469h110zM168 726l13 126h80l-29 -126h-64z" />
    <glyph glyph-name="wacute" unicode="&#x1e83;" horiz-adv-x="394" 
d="M394 570l-45 -570h-132l-16 370l-3 90h-2l-3 -90l-16 -370h-132l-45 570h106l8 -372l1 -88h2l4 88l25 372h102l25 -372l4 -88h2l1 89l8 371h106zM166 596l13 126h80l-29 -126h-64z" />
    <glyph glyph-name="Wdieresis" unicode="&#x1e84;" horiz-adv-x="389" 
d="M352 0h-135l-17 479l-2 110h-2l-2 -110l-17 -479h-135l-42 700h115l1 -469v-121h2l4 121l22 469h106l22 -469l4 -121h2l1 121v469h110zM128 839h60v-100h-60v100zM209 839h60v-100h-60v100z" />
    <glyph glyph-name="wdieresis" unicode="&#x1e85;" horiz-adv-x="394" 
d="M394 570l-45 -570h-132l-16 370l-3 90h-2l-3 -90l-16 -370h-132l-45 570h106l8 -372l1 -88h2l4 88l25 372h102l25 -372l4 -88h2l1 89l8 371h106zM126 709h60v-100h-60v100zM207 709h60v-100h-60v100z" />
    <glyph glyph-name="Ygrave" unicode="&#x1ef2;" horiz-adv-x="244" 
d="M172 230v-230h-100v230l-72 470h102l15 -241l4 -100h2l4 100l15 241h102zM59 852h80l13 -126h-64z" />
    <glyph glyph-name="ygrave" unicode="&#x1ef3;" horiz-adv-x="238" 
d="M119 262l4 -99h1l4 99l15 307h96l-95 -729h-96l22 160l-72 569h106zM56 722h80l13 -126h-64z" />
    <glyph glyph-name="endash" unicode="&#x2013;" horiz-adv-x="460" 
d="M440 294h-420v90h420v-90z" />
    <glyph glyph-name="emdash" unicode="&#x2014;" horiz-adv-x="700" 
d="M680 294h-660v90h660v-90z" />
    <glyph glyph-name="quoteleft" unicode="&#x2018;" horiz-adv-x="140" 
d="M120.001 496.008h-99.9932v119.992l20.998 83.9951h51.9971l-20.999 -83.9951h47.9971v-119.992z" />
    <glyph glyph-name="quoteright" unicode="&#x2019;" horiz-adv-x="140" 
d="M20.0068 700.022h99.9863v-119.985l-20.9961 -83.9893h-51.9941l20.998 83.9893h-47.9941v119.985z" />
    <glyph glyph-name="quotesinglbase" unicode="&#x201a;" horiz-adv-x="140" 
d="M20 120h100v-120l-21 -84h-52l21 84h-48v120z" />
    <glyph glyph-name="quotedblleft" unicode="&#x201c;" horiz-adv-x="260" 
d="M120.001 496.008h-99.9932v119.992l20.998 83.9951h51.9971l-20.999 -83.9951h47.9971v-119.992zM240.001 496.008h-99.9932v119.992l20.998 83.9951h51.9971l-20.999 -83.9951h47.9971v-119.992z" />
    <glyph glyph-name="quotedblright" unicode="&#x201d;" horiz-adv-x="260" 
d="M140.007 700.022h99.9863v-119.985l-20.9961 -83.9893h-51.9941l20.998 83.9893h-47.9941v119.985zM20.0137 700.022h99.9873v-119.985l-20.9971 -83.9893h-51.9941l20.998 83.9893h-47.9941v119.985z" />
    <glyph glyph-name="quotedblbase" unicode="&#x201e;" horiz-adv-x="260" 
d="M20 120h100v-120l-21 -84h-52l21 84h-48v120zM140 120h100v-120l-21 -84h-52l21 84h-48v120z" />
    <glyph glyph-name="dagger" unicode="&#x2020;" horiz-adv-x="280" 
d="M190 700v-130h70v-90h-70v-480h-100v480h-70v90h70v130h100z" />
    <glyph glyph-name="daggerdbl" unicode="&#x2021;" horiz-adv-x="280" 
d="M20 570h70v130h100v-130h70v-90h-70v-260h70v-90h-70v-130h-100v130h-70v90h70v260h-70v90z" />
    <glyph glyph-name="bullet" unicode="&#x2022;" horiz-adv-x="161" 
d="M21 363q0 25 17.5 42.5t42.5 17.5t42.5 -17.5t17.5 -42.5t-17.5 -42.5t-42.5 -17.5t-42.5 17.5t-17.5 42.5z" />
    <glyph glyph-name="ellipsis" unicode="&#x2026;" horiz-adv-x="422" 
d="M20 120h100v-120h-100v120zM160 120h100v-120h-100v120zM302 120h100v-120h-100v120z" />
    <glyph glyph-name="perthousand" unicode="&#x2030;" horiz-adv-x="810" 
d="M232 409q0 -53 -30 -81.5t-76 -28.5t-76 28.5t-30 81.5v187q0 52 30.5 81t76.5 29t75.5 -28.5t29.5 -81.5v-187zM389 700h100l-300 -700h-100zM136 601q0 15 -10 15t-10 -15v-197q0 -15 10 -15t10 15v197zM558 104q0 -53 -30 -81.5t-76 -28.5t-76 28.5t-30 81.5v187
q0 52 30.5 81t76.5 29t75.5 -28.5t29.5 -81.5v-187zM790 104q0 -53 -30 -81.5t-76 -28.5t-76 28.5t-30 81.5v187q0 52 30.5 81t76.5 29t75.5 -28.5t29.5 -81.5v-187zM462 296q0 15 -10 15t-10 -15v-197q0 -15 10 -15t10 15v197zM694 296q0 15 -10 15t-10 -15v-197
q0 -15 10 -15t10 15v197z" />
    <glyph glyph-name="guilsinglleft" unicode="&#x2039;" horiz-adv-x="150" 
d="M60 407h70l-40 -120l40 -120h-70l-40 120z" />
    <glyph glyph-name="guilsinglright" unicode="&#x203a;" horiz-adv-x="150" 
d="M90.0039 167.024h-69.9961l39.998 119.993l-39.998 119.992h69.9961l39.9971 -119.992z" />
    <glyph glyph-name="fraction" unicode="&#x2044;" horiz-adv-x="259" 
d="M20 0l138 700h81l-138 -700h-81z" />
    <glyph glyph-name="uni2074" unicode="&#x2074;" horiz-adv-x="205" 
d="M20 402l44 298h106v-288h14v-63h-14v-46h-69v46h-81v53zM101 412l10 231h-1l-31 -231h22z" />
    <glyph glyph-name="Euro" unicode="&#x20ac;" horiz-adv-x="270" 
d="M160 601q0 15 -10 15t-10 -15v-157h100l-10 -69h-90v-20h90l-10 -69h-80v-187q0 -15 10 -15t10 15v157h100v-152q0 -53 -31 -81.5t-79 -28.5t-79 28.5t-31 81.5v182h-30v69h30v20h-30v69h30v152q0 52 31.5 81t79.5 29t78.5 -28.5t30.5 -81.5v-121h-100v126z" />
    <glyph glyph-name="trademark" unicode="&#x2122;" horiz-adv-x="310" 
d="M114 663h-25v-173h-44v173h-25v37h94v-37zM289 490h-42l3 171h-2l-2 -36l-11 -135h-56l-13 171h-1l-1 -36l2 -135h-42v210h77l4 -120l2 -33h1l2 33l3 120h77z" />
    <glyph glyph-name="minus" unicode="&#x2212;" horiz-adv-x="300" 
d="M280 294h-260v90h260v-90z" />
    <glyph glyph-name="fi" unicode="&#xfb01;" horiz-adv-x="272" 
d="M25 484h-20v86h20v33q0 45 3.5 70.5t14.5 38t32 15.5t56 3h20v-86q-21 0 -25.5 -6t-4.5 -28v-40h30v-86h-30v-484h-96v484zM166 700h96v-110h-96v110zM166 570h96v-570h-96v570z" />
    <glyph glyph-name="fl" unicode="&#xfb02;" horiz-adv-x="272" 
d="M25 484h-20v86h20v33q0 45 3.5 70.5t14.5 38t32 15.5t56 3h20v-86q-21 0 -25.5 -6t-4.5 -28v-40h30v-86h-30v-484h-96v484zM166 730h96v-730h-96v730z" />
    <glyph glyph-name="ethbar" horiz-adv-x="161" 
d="M141 294h-121v90h121v-90z" />
    <glyph glyph-name="crossbar" horiz-adv-x="233" 
d="M212 330l-156 -63l-36 89l157 63z" />
    <glyph glyph-name="ethbar.case" horiz-adv-x="180" 
d="M160 291h-140v96h140v-96z" />
    <glyph glyph-name="crossbar.case" horiz-adv-x="230" 
d="M209 323l-153 -66l-36 89l154 66z" />
    <glyph glyph-name="commaccent" horiz-adv-x="123" 
d="M27 -10h76l-26 -117h-56z" />
    <glyph glyph-name="commaccent2" horiz-adv-x="116" 
d="M21 95h75v-95l-13 -54h-34l13 54h-41v95z" />
    <glyph glyph-name="commaccent3" horiz-adv-x="116" 
d="M95.001 0.00585938h-74.9951v94.9941l12.999 53.9971h33.998l-12.999 -53.9971h40.9971v-94.9941z" />
    <glyph glyph-name="tbarnew" horiz-adv-x="191" 
d="M171 291h-151v96h151v-96z" />
    <glyph glyph-name="ogonek2" horiz-adv-x="151" 
d="M108 -15q-11 -5 -19 -12t-8 -15q0 -10 10.5 -13.5t22.5 -3.5q7 0 17 2v-80q-18 -3 -31 -3q-38 0 -59.5 20t-21.5 46q0 23 20 42.5t66 25.5z" />
    <glyph glyph-name="custombarH" horiz-adv-x="280" 
d="M260 294h-240v90h240v-90z" />
    <glyph glyph-name="dotaccent2" horiz-adv-x="120" 
d="M20 682h80v-100h-80v100z" />
    </font>
</defs>
</svg>
