<?xml version="1.0" standalone="no"?>
<!DOCTYPE svg PUBLIC "-//W3C//DTD SVG 1.1//EN" "http://www.w3.org/Graphics/SVG/1.1/DTD/svg11.dtd" >
<svg xmlns="http://www.w3.org/2000/svg" xmlns:xlink="http://www.w3.org/1999/xlink" version="1.1">
<metadata>
Created by FontForge 20170731 at Fri Jun  7 00:29:45 2019
 By Aleksey,,,
(C) 2015-2019 Frere-Jones Type LLC
</metadata>
<defs>
<font id="Mallory-BookItalic" horiz-adv-x="0" >
  <font-face 
    font-family="Mallory Book"
    font-weight="400"
    font-style="italic"
    font-stretch="normal"
    units-per-em="1000"
    panose-1="2 1 5 2 3 5 1 9 3 4"
    ascent="800"
    descent="-200"
    x-height="500"
    cap-height="700"
    bbox="-285 -259 1374 1070"
    underline-thickness="0"
    underline-position="0"
    slope="-14"
    unicode-range="U+0020-FB04"
  />
<missing-glyph horiz-adv-x="700" 
d="M600 -200h-500v1000h500v-1000zM507 750h-315l158 -381zM550 714l-172 -414l172 -414v828zM150 -114l171 414l-171 414v-828zM507 -150l-157 381l-158 -381h315z" />
    <glyph glyph-name="f_f" unicode="ff" horiz-adv-x="801" 
d="M446 500l-19 -77h-165l-105 -423h-91l105 423h-88l19 77h89l22 90q20 80 72 123.5t128 43.5q20 0 38 -3.5t34 -9.5l22 -92l-3 -2q-22 12 -43.5 18t-45.5 6q-45 0 -75 -28t-43 -82l-16 -64h165zM846 500l-19 -77h-165l-105 -423h-91l105 423h-88l19 77h89l22 90
q20 80 72 123.5t128 43.5q20 0 38 -3.5t34 -9.5l22 -92l-3 -2q-22 12 -43.5 18t-45.5 6q-45 0 -75 -28t-43 -82l-16 -64h165z" />
    <glyph glyph-name="fi" unicode="fi" horiz-adv-x="666" 
d="M446 500l-19 -77h-165l-105 -423h-91l105 423h-88l19 77h89l22 90q20 80 72 123.5t128 43.5q20 0 38 -3.5t34 -9.5l22 -92l-3 -2q-22 12 -43.5 18t-45.5 6q-45 0 -75 -28t-43 -82l-16 -64h165zM637 741q26 0 44 -18t18 -44t-18 -44t-44 -18t-44 18t-18 44t18 44t44 18z
M516 0h-91l125 500h90z" />
    <glyph glyph-name="fl" unicode="fl" horiz-adv-x="666" 
d="M446 500l-19 -77h-165l-105 -423h-91l105 423h-88l19 77h89l22 90q20 80 72 123.5t128 43.5q20 0 38 -3.5t34 -9.5l22 -92l-3 -2q-22 12 -43.5 18t-45.5 6q-45 0 -75 -28t-43 -82l-16 -64h165zM516 0h-91l181 725l99 34z" />
    <glyph glyph-name="f_f_i" unicode="ffi" horiz-adv-x="1066" 
d="M446 500l-19 -77h-165l-105 -423h-91l105 423h-88l19 77h89l22 90q20 80 72 123.5t128 43.5q20 0 38 -3.5t34 -9.5l22 -92l-3 -2q-22 12 -43.5 18t-45.5 6q-45 0 -75 -28t-43 -82l-16 -64h165zM846 500l-19 -77h-165l-105 -423h-91l105 423h-88l19 77h89l22 90
q20 80 72 123.5t128 43.5q20 0 38 -3.5t34 -9.5l22 -92l-3 -2q-22 12 -43.5 18t-45.5 6q-45 0 -75 -28t-43 -82l-16 -64h165zM1038 741q26 0 44 -18t18 -44t-18 -44t-44 -18t-44 18t-18 44t18 44t44 18zM917 0h-91l125 500h90z" />
    <glyph glyph-name="f_f_l" unicode="ffl" horiz-adv-x="1066" 
d="M446 500l-19 -77h-165l-105 -423h-91l105 423h-88l19 77h89l22 90q20 80 72 123.5t128 43.5q20 0 38 -3.5t34 -9.5l22 -92l-3 -2q-22 12 -43.5 18t-45.5 6q-45 0 -75 -28t-43 -82l-16 -64h165zM846 500l-19 -77h-165l-105 -423h-91l105 423h-88l19 77h89l22 90
q20 80 72 123.5t128 43.5q20 0 38 -3.5t34 -9.5l22 -92l-3 -2q-22 12 -43.5 18t-45.5 6q-45 0 -75 -28t-43 -82l-16 -64h165zM917 0h-91l181 725l99 34z" />
    <glyph glyph-name=".notdef" horiz-adv-x="700" 
d="M600 -200h-500v1000h500v-1000zM507 750h-315l158 -381zM550 714l-172 -414l172 -414v828zM150 -114l171 414l-171 414v-828zM507 -150l-157 381l-158 -381h315z" />
    <glyph glyph-name="uni0000" 
 />
    <glyph glyph-name="uni0000" 
 />
    <glyph glyph-name="nonmarkingreturn" horiz-adv-x="333" 
 />
    <glyph glyph-name="space" unicode=" " horiz-adv-x="216" 
 />
    <glyph glyph-name="exclam" unicode="!" horiz-adv-x="259" 
d="M291 700l-28 -111l-121 -365h-39l62 365l28 111h98zM84 -9q-28 0 -48 20t-20 48t20 48t48 20t48 -20t20 -48t-20 -48t-48 -20z" />
    <glyph glyph-name="quotedbl" unicode="&#x22;" horiz-adv-x="438" 
d="M86 429l132 271h114l-212 -287zM278 429l131 271h114l-212 -287z" />
    <glyph glyph-name="numbersign" unicode="#" horiz-adv-x="670" 
d="M438 -2h-62l46 179h-205l-46 -179h-62l46 179h-118l21 83h119l46 180h-120l21 83h121l46 179h62l-46 -179h205l46 179h62l-46 -179h108l-21 -83h-109l-46 -180h111l-22 -83h-111zM285 440l-46 -180h205l46 180h-205z" />
    <glyph glyph-name="dollar" unicode="$" horiz-adv-x="589" 
d="M525 199q0 -90 -67.5 -145.5t-177.5 -55.5h-2.5h-3.5l-33 -133h-69l35 140q-46 10 -88 28t-73 42l-21 117l2 1q46 -44 97.5 -71.5t105.5 -36.5l59 237q-81 33 -119.5 77.5t-38.5 107.5q0 87 67 141t174 54h4h4l30 120h69l-32 -128q40 -7 78 -23t70 -39l1 -94l-2 -1
q-43 32 -84.5 51.5t-84.5 26.5l-57 -229q81 -34 119 -79t38 -108zM217 515q0 -35 22 -60.5t71 -46.5l53 212q-66 -1 -106 -30t-40 -75zM439 192q0 35 -22 60.5t-71 46.5l-54 -219q66 1 106.5 32t40.5 80z" />
    <glyph glyph-name="percent" unicode="%" horiz-adv-x="953" 
d="M455 549q0 -101 -57 -169.5t-140 -68.5q-66 0 -106.5 45t-40.5 120q0 101 57 169.5t140 68.5q66 0 106.5 -45t40.5 -120zM241 -2h-87l322 369l288 335h86l-322 -369zM377 547q0 47 -19.5 73t-53.5 26q-47 0 -81.5 -49.5t-34.5 -118.5q0 -47 19.5 -73t54.5 -26
q46 0 80.5 49.5t34.5 118.5zM893 224q0 -101 -57 -169.5t-140 -68.5q-66 0 -106 45t-40 120q0 102 56.5 170t139.5 68q66 0 106.5 -45t40.5 -120zM816 222q0 47 -19.5 73t-54.5 26q-46 0 -80.5 -49.5t-34.5 -118.5q0 -47 19.5 -73t53.5 -26q47 0 81.5 49.5t34.5 118.5z" />
    <glyph glyph-name="ampersand" unicode="&#x26;" horiz-adv-x="702" 
d="M614 0h-109q-18 19 -36 40t-36 43q-60 -46 -114 -68t-111 -22q-79 0 -128.5 47t-49.5 122t53 130.5t157 90.5q-13 31 -19.5 62t-6.5 59q0 95 55.5 152.5t146.5 57.5q71 0 116.5 -42.5t45.5 -107.5q0 -70 -55.5 -125.5t-166.5 -95.5q20 -34 43 -69t51 -72q32 31 67.5 72
t74.5 91h101v-3q-54 -70 -102.5 -124.5t-92.5 -96.5q20 -26 47 -57.5t70 -80.5zM411 640q-46 0 -77 -36t-31 -92q0 -24 5.5 -50.5t16.5 -54.5q86 33 125 69t39 83q0 37 -21.5 59t-56.5 22zM273 314q-78 -27 -115.5 -63t-37.5 -84q0 -42 26.5 -67.5t71.5 -25.5q39 0 80 17.5
t87 52.5q-36 47 -64 89.5t-48 80.5z" />
    <glyph glyph-name="quotesingle" unicode="'" horiz-adv-x="247" 
d="M86 429l132 271h114l-212 -287z" />
    <glyph glyph-name="parenleft" unicode="(" horiz-adv-x="409" 
d="M84 221q0 163 97.5 293t300.5 236l20 -31q-172 -118 -251.5 -237.5t-79.5 -261.5q0 -86 29 -165t95 -171l-29 -24q-92 89 -137 178t-45 183z" />
    <glyph glyph-name="parenright" unicode=")" horiz-adv-x="409" 
d="M353 389q0 -163 -97.5 -293t-300.5 -236l-20 31q172 118 251.5 237.5t79.5 261.5q0 86 -29 165t-95 171l29 24q92 -89 137 -178t45 -183z" />
    <glyph glyph-name="asterisk" unicode="*" horiz-adv-x="531" 
d="M329 713l98 -24l-82 -156l-16 4v176zM289 510l-166 55l54 86l122 -126zM533 563l8 -102l-173 29l-3 18zM302 464l-102 -141l-67 77l159 78zM350 464l102 -144l-93 -37l-26 173z" />
    <glyph glyph-name="plus" unicode="+" horiz-adv-x="600" 
d="M585 397l-20 -80h-208l-53 -211h-83l53 211h-209l20 80h209l52 210h83l-52 -210h208z" />
    <glyph glyph-name="comma" unicode="," horiz-adv-x="205" 
d="M52 -55q-22 -28 -52 -52.5t-90 -59.5l-20 25q57 49 85.5 96.5t46.5 122.5l9 34h93q-14 -55 -31.5 -95.5t-40.5 -70.5z" />
    <glyph glyph-name="hyphen" unicode="-" horiz-adv-x="389" 
d="M60 232l21 85h260l-21 -85h-260z" />
    <glyph glyph-name="period" unicode="." horiz-adv-x="205" 
d="M55 -9q-28 0 -48 20t-20 48t20 48t48 20t47.5 -20t19.5 -48t-19.5 -48t-47.5 -20z" />
    <glyph glyph-name="slash" unicode="/" horiz-adv-x="455" 
d="M-19 -130h-85l568 870h86z" />
    <glyph glyph-name="zero" unicode="0" horiz-adv-x="674" 
d="M561 145q-48 -76 -114.5 -117.5t-139.5 -41.5q-104 0 -165.5 73t-61.5 198q0 83 21 159.5t61 138.5q48 76 115 117.5t140 41.5q103 0 164.5 -73t61.5 -198q0 -83 -21 -159.5t-61 -138.5zM175 256q0 -89 36 -137t102 -48q70 0 131.5 68t88.5 175q7 30 11 62.5t4 67.5
q0 89 -36 137t-101 48q-70 0 -131.5 -68t-88.5 -175q-8 -32 -12 -64.5t-4 -65.5z" />
    <glyph glyph-name="one" unicode="1" horiz-adv-x="434" 
d="M94 443l-2 1l27 107l297 162l17 -5l-176 -708h-92l138 558z" />
    <glyph glyph-name="two" unicode="2" horiz-adv-x="577" 
d="M178 83h320l-66 -83h-431l-2 18l318 314q77 75 105 119t28 87q0 40 -25.5 63t-70.5 23q-52 0 -105.5 -31t-121.5 -101h-2l14 120q52 49 107 73.5t114 24.5q83 0 133 -45t50 -119q0 -60 -36.5 -120.5t-129.5 -149.5z" />
    <glyph glyph-name="three" unicode="3" horiz-adv-x="549" 
d="M358 357q58 -20 90 -62.5t32 -98.5q0 -91 -71.5 -149t-181.5 -58q-57 0 -103.5 12.5t-90.5 40.5l-8 108l2 1q45 -37 95.5 -57t99.5 -20q71 0 116 34.5t45 90.5q0 54 -47.5 86.5t-151.5 49.5l6 38q133 34 197 76.5t64 96.5q0 37 -28.5 58.5t-77.5 21.5q-51 0 -102.5 -19
t-107.5 -59l-2 1l27 107q48 28 93.5 41t95.5 13q89 0 143 -42.5t54 -114.5q0 -66 -47.5 -115.5t-140.5 -80.5z" />
    <glyph glyph-name="four" unicode="4" horiz-adv-x="623" 
d="M364 163h-353l-4 22l489 520h90l-116 -466h115l-21 -76h-113l-40 -163h-88zM464 564l-305 -325h224z" />
    <glyph glyph-name="five" unicode="5" horiz-adv-x="577" 
d="M301 434q95 0 152.5 -53.5t57.5 -142.5q0 -108 -80.5 -179t-203.5 -71q-53 0 -100 13t-88 38l-7 101l2 1q48 -36 96 -53t99 -17q79 0 133 47.5t54 115.5q0 54 -38 85t-105 31q-38 0 -72 -5.5t-79 -18.5l-13 8l117 366h380l-22 -85h-299l-61 -189q21 4 40 6t37 2z" />
    <glyph glyph-name="six" unicode="6" horiz-adv-x="599" 
d="M322 445q97 0 158.5 -58t61.5 -152q0 -100 -75 -174.5t-180 -74.5q-104 0 -168 59.5t-64 158.5q0 76 43.5 153t157.5 197l141 146h125l-180 -182q-30 -31 -48.5 -50.5t-24.5 -26.5q11 2 23.5 3t29.5 1zM208 367q-32 -46 -45.5 -83t-13.5 -78q0 -63 39 -100.5t103 -37.5
q65 0 111.5 49t46.5 115q0 67 -44 103t-127 36q-12 0 -26 -1t-44 -3z" />
    <glyph glyph-name="seven" unicode="7" horiz-adv-x="576" 
d="M650 700l5 -18l-469 -682h-106l429 617h-378l54 83h465z" />
    <glyph glyph-name="eight" unicode="8" horiz-adv-x="612" 
d="M454 345q40 -25 61.5 -63.5t21.5 -84.5q0 -93 -71.5 -151t-186.5 -58q-104 0 -167 51.5t-63 135.5q0 68 43.5 120t119.5 75q-32 23 -49.5 57.5t-17.5 74.5q0 91 68.5 150.5t172.5 59.5q91 0 148.5 -52t57.5 -131q0 -61 -37 -110t-101 -74zM378 631q-61 0 -101.5 -36
t-40.5 -89q0 -50 34 -81t88 -31q60 0 101 37t41 92q0 48 -33.5 78t-88.5 30zM304 316q-69 0 -116.5 -38t-47.5 -94q0 -52 40 -83t106 -31q70 0 114.5 37t44.5 95q0 53 -37.5 83.5t-103.5 30.5z" />
    <glyph glyph-name="nine" unicode="9" horiz-adv-x="599" 
d="M593 494q0 -75 -44 -152t-157 -196l-140 -146h-126l181 182q15 16 31 32.5t34 35.5q-11 -2 -22 -2.5t-24 -0.5q-97 0 -158 59.5t-61 154.5q0 103 75 177.5t180 74.5t168 -60t63 -159zM359 632q-65 0 -112.5 -49.5t-47.5 -117.5q0 -69 44.5 -106.5t126.5 -37.5q17 0 33 1
t31 3q36 47 51 86t15 82q0 62 -39 100.5t-102 38.5z" />
    <glyph glyph-name="colon" unicode=":" horiz-adv-x="233" 
d="M162 373q-28 0 -47.5 20t-19.5 48t19.5 48t47.5 20t48 -20t20 -48t-20 -48t-48 -20zM71 -9q-28 0 -48 20t-20 48t20 48t48 20t47.5 -20t19.5 -48t-19.5 -48t-47.5 -20z" />
    <glyph glyph-name="semicolon" unicode=";" horiz-adv-x="233" 
d="M165 373q-28 0 -47.5 20t-19.5 48t19.5 48t47.5 20t48 -20t20 -48t-20 -48t-48 -20zM61 -56q-21 -27 -51 -51t-91 -60l-19 25q56 49 84.5 96.5t47.5 122.5l8 34h93q-13 -55 -30.5 -95.5t-41.5 -71.5z" />
    <glyph glyph-name="less" unicode="&#x3c;" horiz-adv-x="600" 
d="M218 350l302 -165l-21 -81l-423 241l6 25l543 240l-23 -94z" />
    <glyph glyph-name="equal" unicode="=" horiz-adv-x="600" 
d="M601 497l-20 -80h-480l20 80h480zM551 297l-20 -80h-480l20 80h480z" />
    <glyph glyph-name="greater" unicode="&#x3e;" horiz-adv-x="600" 
d="M577 370l-6 -25l-544 -241l24 94l383 166l-301 166l20 80z" />
    <glyph glyph-name="question" unicode="?" horiz-adv-x="483" 
d="M114 528l28 112q39 33 90.5 51.5t105.5 18.5q75 0 122 -39.5t47 -103.5q0 -59 -36 -100.5t-123 -81.5q-67 -31 -92.5 -53t-25.5 -50q0 -12 3.5 -25t13.5 -32h-48q-19 24 -28.5 46t-9.5 41q0 41 32 72.5t115 70.5q60 27 85 51t25 55q0 29 -23.5 47t-61.5 18
q-51 0 -103.5 -24t-113.5 -75zM166 -9q-28 0 -48 20t-20 48t20 48t48 20t48 -20t20 -48t-20 -48t-48 -20z" />
    <glyph glyph-name="at" unicode="@" horiz-adv-x="1024" 
d="M773 -101v-34q-73 -26 -142.5 -38t-148.5 -12q-198 0 -312 103.5t-114 284.5q0 104 42 203.5t118 176.5q76 78 174 120t205 42q178 0 286.5 -102t108.5 -269q0 -138 -68 -227.5t-178 -89.5q-49 0 -85 22t-45 59q-45 -41 -87 -60.5t-88 -19.5q-67 0 -108 45t-41 121
q0 112 84.5 197.5t201.5 85.5q30 0 60 -7t58 -20l64 20l11 -2l-74 -301q-3 -15 -4 -22t-1 -14q0 -31 20.5 -49t55.5 -18q80 0 135 81.5t55 197.5q0 156 -98.5 248.5t-264.5 92.5q-99 0 -190 -40t-163 -113q-71 -73 -110 -166t-39 -190q0 -169 104 -264t289 -95q81 0 151 13
t138 40zM572 437q-84 0 -143 -61.5t-59 -144.5q0 -48 25.5 -75t69.5 -27q36 0 71.5 16t78.5 51l54 221q-21 10 -45 15t-52 5z" />
    <glyph glyph-name="A" unicode="A" horiz-adv-x="783" 
d="M77 0h-108l489 704h93l139 -704h-97l-33 180h-360zM484 596l-226 -331h287z" />
    <glyph glyph-name="B" unicode="B" horiz-adv-x="615" 
d="M457 352q43 -21 66.5 -58t23.5 -84q0 -93 -80 -151.5t-209 -58.5h-220l174 700h190q93 0 148.5 -45t55.5 -119q0 -61 -39.5 -110t-109.5 -74zM510 524q0 44 -32 68.5t-89 24.5h-104l-55 -219h105q78 0 126.5 35.5t48.5 90.5zM451 215q0 47 -33.5 74t-92.5 27h-116
l-58 -233h117q82 0 132.5 36.5t50.5 95.5z" />
    <glyph glyph-name="C" unicode="C" horiz-adv-x="716" 
d="M656 195l3 -2l-56 -138q-44 -33 -100 -50t-120 -17q-134 0 -219.5 85t-85.5 220q0 84 30.5 160t86.5 135q58 59 133.5 91.5t157.5 32.5q74 0 136 -28t111 -84l-22 -112h-2q-48 67 -105.5 100.5t-122.5 33.5q-100 0 -184.5 -69.5t-110.5 -174.5q-4 -19 -6.5 -38t-2.5 -39
q0 -98 61.5 -160.5t157.5 -62.5q65 0 129 28.5t131 88.5z" />
    <glyph glyph-name="D" unicode="D" horiz-adv-x="778" 
d="M752 406q0 -176 -134.5 -291t-336.5 -115h-243l174 700h185q167 0 261 -78t94 -216zM653 396q0 103 -70.5 159.5t-198.5 56.5h-98l-131 -524h120q137 0 240 67t130 174q4 17 6 33.5t2 33.5z" />
    <glyph glyph-name="E" unicode="E" horiz-adv-x="578" 
d="M439 0h-401l174 700h411l-23 -87h-313l-54 -214h262l-22 -86h-261l-57 -226h337z" />
    <glyph glyph-name="F" unicode="F" horiz-adv-x="542" 
d="M134 0h-96l174 700h371l24 -87h-320l-57 -226h246l-22 -87h-245z" />
    <glyph glyph-name="G" unicode="G" horiz-adv-x="791" 
d="M728 364l-79 -305q-58 -34 -123 -51.5t-134 -17.5q-142 0 -228 82.5t-86 218.5q0 89 33 166.5t95 135.5q61 56 140.5 86.5t167.5 30.5q74 0 141 -18.5t121 -54.5l-24 -95h-2q-53 37 -115 57t-126 20q-117 0 -207 -68.5t-116 -175.5q-5 -18 -7.5 -37t-2.5 -39
q0 -101 60.5 -160t164.5 -59q46 0 87.5 9.5t79.5 27.5l43 159h-208l22 88h303z" />
    <glyph glyph-name="H" unicode="H" horiz-adv-x="805" 
d="M642 0h-96l78 313h-412l-78 -313h-96l174 700h96l-74 -298h412l74 298h96z" />
    <glyph glyph-name="I" unicode="I" horiz-adv-x="306" 
d="M139 0h-96l174 700h96z" />
    <glyph glyph-name="J" unicode="J" horiz-adv-x="458" 
d="M136 80q43 0 72 26t42 75l129 519h96l-135 -541q-21 -86 -70 -127.5t-129 -41.5q-35 0 -65 10t-54 29l-17 115l4 1q30 -33 60.5 -49t66.5 -16z" />
    <glyph glyph-name="K" unicode="K" horiz-adv-x="689" 
d="M607 0h-118l-253 316h-23l-79 -316h-96l174 700h96l-75 -301h24l386 301h131v-3l-451 -347l284 -347v-3z" />
    <glyph glyph-name="L" unicode="L" horiz-adv-x="533" 
d="M155 87h300l-22 -87h-395l174 700h96z" />
    <glyph glyph-name="M" unicode="M" horiz-adv-x="1028" 
d="M240 700h134l116 -526l382 526h141l-119 -700h-94l102 592l-446 -603h-16l-141 608l-194 -597h-95z" />
    <glyph glyph-name="N" unicode="N" horiz-adv-x="817" 
d="M129 0h-91l174 700h89l308 -513l128 513h91l-175 -705h-33l-348 579z" />
    <glyph glyph-name="O" unicode="O" horiz-adv-x="834" 
d="M685 109q-58 -59 -134 -91t-158 -32q-138 0 -225.5 86.5t-87.5 224.5q0 84 30.5 160t88.5 134q57 59 133 91t158 32q138 0 225.5 -86.5t87.5 -224.5q0 -84 -30.5 -160t-87.5 -134zM178 302q0 -102 62.5 -164t162.5 -62q101 0 183.5 68t108.5 173q5 19 7.5 39t2.5 42
q0 102 -62.5 164t-161.5 62q-101 0 -184 -68t-108 -173q-6 -18 -8.5 -38t-2.5 -43z" />
    <glyph glyph-name="P" unicode="P" horiz-adv-x="592" 
d="M610 510q0 -116 -82.5 -187t-217.5 -71h-113l-63 -252h-96l174 700h177q101 0 161 -51.5t60 -138.5zM513 501q0 55 -36 84t-104 29h-87l-69 -275h111q78 0 131.5 47t53.5 115z" />
    <glyph glyph-name="Q" unicode="Q" horiz-adv-x="834" 
d="M702 -48l-47 -91q-18 -6 -36.5 -8.5t-37.5 -2.5q-70 0 -113 29.5t-98 107.5q-130 8 -210 93.5t-80 216.5q0 84 30.5 160t88.5 134q57 59 133 91t158 32q138 0 225.5 -86.5t87.5 -224.5q0 -145 -85.5 -256.5t-221.5 -147.5q30 -36 53 -49.5t56 -13.5q23 0 46.5 4.5
t48.5 13.5zM178 302q0 -102 62.5 -164t162.5 -62q101 0 183.5 68t108.5 173q5 19 7.5 39t2.5 42q0 102 -62.5 164t-161.5 62q-101 0 -184 -68t-108 -173q-6 -18 -8.5 -38t-2.5 -43z" />
    <glyph glyph-name="R" unicode="R" horiz-adv-x="632" 
d="M581 0h-111l-194 280h-73l-69 -280h-96l174 700h179q98 0 154.5 -48.5t56.5 -132.5q0 -89 -61.5 -151.5t-161.5 -78.5zM504 511q0 49 -32.5 76t-91.5 27h-95l-62 -249h106q75 0 125 41.5t50 104.5z" />
    <glyph glyph-name="S" unicode="S" horiz-adv-x="550" 
d="M136 512q0 87 64.5 143.5t166.5 56.5q48 0 94.5 -13t86.5 -38v-108l-2 -1q-42 34 -88 52t-94 18q-59 0 -96.5 -28t-37.5 -71q0 -34 22.5 -61.5t86.5 -67.5q82 -52 114 -96t32 -104q0 -92 -65 -149t-169 -57q-57 0 -112 21.5t-94 57.5l-25 134l2 1q57 -61 115.5 -92.5
t114.5 -31.5q61 0 99.5 29t38.5 76q0 36 -21.5 63t-86.5 69q-82 52 -114 95.5t-32 101.5z" />
    <glyph glyph-name="T" unicode="T" horiz-adv-x="700" 
d="M778 700l-22 -87h-266l-152 -613h-96l152 613h-270l23 87h631z" />
    <glyph glyph-name="U" unicode="U" horiz-adv-x="781" 
d="M99 235q0 22 3.5 47.5t9.5 52.5l91 365h96l-93 -374q-5 -23 -8 -44t-3 -38q0 -78 45.5 -122.5t126.5 -44.5q87 0 151 55.5t88 154.5l103 413h93l-106 -427q-35 -140 -121.5 -212.5t-217.5 -72.5q-117 0 -187.5 67.5t-70.5 179.5z" />
    <glyph glyph-name="V" unicode="V" horiz-adv-x="764" 
d="M734 700h112l-522 -716h-23l-158 716h101l107 -537z" />
    <glyph glyph-name="W" unicode="W" horiz-adv-x="1169" 
d="M1136 700h111l-419 -704h-95l-93 506l-325 -506h-99l-67 704h100l46 -581l379 589h18l109 -588z" />
    <glyph glyph-name="X" unicode="X" horiz-adv-x="730" 
d="M631 0h-105l-148 288l-281 -288h-123v2l359 361l-177 337h106l143 -277l273 277h122v-2l-351 -350z" />
    <glyph glyph-name="Y" unicode="Y" horiz-adv-x="658" 
d="M756 700v-2l-367 -392l-76 -306h-97l79 317l-171 383h101l132 -305l282 305h117z" />
    <glyph glyph-name="Z" unicode="Z" horiz-adv-x="691" 
d="M175 87h444l-61 -87h-563l-7 16l569 597h-411l23 87h567l8 -16z" />
    <glyph glyph-name="bracketleft" unicode="[" horiz-adv-x="410" 
d="M110 -74h185l-28 -56h-255l216 870h252l3 -56h-185z" />
    <glyph glyph-name="backslash" unicode="\" horiz-adv-x="455" 
d="M229 740l134 -870h-73l-135 870h74z" />
    <glyph glyph-name="bracketright" unicode="]" horiz-adv-x="410" 
d="M170 740h255l-216 -870h-251l-3 56h185l188 758h-186z" />
    <glyph glyph-name="asciicircum" unicode="^" horiz-adv-x="600" 
d="M569 335h-82l-96 265l-229 -265h-98l339 390h22z" />
    <glyph glyph-name="underscore" unicode="_" horiz-adv-x="600" 
d="M-100 -140l16 62h605l-16 -62h-605z" />
    <glyph glyph-name="grave" unicode="`" horiz-adv-x="500" 
d="M314 772l44 -169h-40l-120 169h116z" />
    <glyph glyph-name="a" unicode="a" horiz-adv-x="552" 
d="M484 247l-64 -237l-96 -20l23 86q-54 -43 -102 -63.5t-92 -20.5q-61 0 -98 35t-37 94q0 82 72.5 127t206.5 45q25 0 52.5 -2t53.5 -5l3 25.5t1 15.5q0 46 -30 72.5t-82 26.5q-42 0 -86.5 -13.5t-94.5 -42.5l-1 2l45 104q37 17 74.5 25t78.5 8q86 0 135.5 -47t49.5 -126
q0 -23 -3 -44.5t-9 -44.5zM307 234q-94 0 -146 -27.5t-52 -75.5q0 -29 18.5 -45.5t51.5 -16.5q40 0 85 17.5t101 54.5l24 88q-23 3 -43.5 4t-38.5 1z" />
    <glyph glyph-name="b" unicode="b" horiz-adv-x="607" 
d="M567 314q0 -67 -23.5 -126t-68.5 -104t-104 -68.5t-124 -23.5q-37 0 -72.5 8t-69.5 23l-74 -24l-11 2l181 724l99 34l-83 -331q44 43 86 62.5t88 19.5q77 0 126.5 -54.5t49.5 -141.5zM474 307q0 57 -29.5 89.5t-80.5 32.5q-39 0 -79.5 -17.5t-85.5 -54.5l-64 -260
q27 -13 56 -19t62 -6q74 0 134 48.5t79 124.5q4 15 6 31t2 31z" />
    <glyph glyph-name="c" unicode="c" horiz-adv-x="529" 
d="M463 147l-48 -118q-33 -20 -73.5 -30.5t-81.5 -10.5q-97 0 -157.5 59t-60.5 155q0 131 88 220.5t214 89.5q46 0 89.5 -16.5t77.5 -46.5l-19 -99h-2q-32 39 -70.5 59t-82.5 20q-66 0 -121 -46t-74 -117q-4 -16 -5.5 -30t-1.5 -28q0 -64 37.5 -100.5t103.5 -36.5
q46 0 94 20.5t90 57.5z" />
    <glyph glyph-name="d" unicode="d" horiz-adv-x="611" 
d="M467 0h-91l18 72q-45 -43 -87 -62.5t-88 -19.5q-79 0 -129 54.5t-50 141.5q0 67 25 127.5t71 106.5q42 42 95.5 65t110.5 23q42 0 80 -11t69 -33l65 261l100 34zM140 251q-3 -13 -5 -27.5t-2 -30.5q0 -57 30 -89.5t83 -32.5q39 0 79 17.5t86 54.5l61 243q-27 21 -58 31.5
t-66 10.5q-72 0 -130.5 -50t-77.5 -127z" />
    <glyph glyph-name="e" unicode="e" horiz-adv-x="555" 
d="M459 124l-22 -90q-42 -22 -87.5 -33.5t-95.5 -11.5q-95 0 -153.5 58.5t-58.5 155.5q0 127 87 219t205 92q84 0 134.5 -53.5t50.5 -143.5q0 -24 -3.5 -50t-10.5 -52h-373v-1q0 -69 36.5 -106t104.5 -37q46 0 92.5 13.5t91.5 40.5zM429 306q0 62 -28 95.5t-79 33.5
q-56 0 -107 -43.5t-72 -109.5h285q1 4 1 9v15z" />
    <glyph glyph-name="f" unicode="f" horiz-adv-x="400" 
d="M446 500l-19 -77h-165l-105 -423h-91l105 423h-88l19 77h89l22 90q20 80 72 123.5t128 43.5q20 0 38 -3.5t34 -9.5l22 -92l-3 -2q-22 12 -43.5 18t-45.5 6q-45 0 -75 -28t-43 -82l-16 -64h165z" />
    <glyph glyph-name="g" unicode="g" horiz-adv-x="611" 
d="M591 499l-121 -485q-26 -106 -93.5 -158t-177.5 -52q-55 0 -104.5 13t-88.5 38l-17 102l3 2q49 -36 101.5 -54t106.5 -18q72 0 118.5 35.5t66.5 107.5l19 67q-47 -45 -91.5 -66t-93.5 -21q-78 0 -127 52t-49 137q0 62 23 118t67 100q45 44 104 67.5t125 23.5
q40 0 75 -7.5t71 -23.5l73 24zM142 257q-3 -14 -4.5 -26.5t-1.5 -26.5q0 -55 29 -85t82 -30q40 0 81.5 19t88.5 58l60 239q-29 13 -57 19.5t-57 6.5q-76 0 -139 -49.5t-82 -124.5z" />
    <glyph glyph-name="h" unicode="h" horiz-adv-x="596" 
d="M449 343q0 41 -22.5 63.5t-62.5 22.5q-38 0 -79 -21t-88 -64l-86 -344h-91l181 725l99 34l-85 -340q46 47 88 69t85 22q67 0 109.5 -41t42.5 -108q0 -20 -3.5 -43t-10.5 -51l-67 -267h-90l71 285q5 19 7 33t2 25z" />
    <glyph glyph-name="i" unicode="i" horiz-adv-x="266" 
d="M237 741q26 0 44 -18t18 -44t-18 -44t-44 -18t-44 18t-18 44t18 44t44 18zM116 0h-91l125 500h90z" />
    <glyph glyph-name="j" unicode="j" horiz-adv-x="268" 
d="M239 741q26 0 44 -18t18 -44t-18 -44t-44 -18t-44 18t-18 44t18 44t44 18zM152 500h90l-137 -553q-18 -73 -58 -108t-108 -35q-15 0 -28 2t-24 5l-12 79l2 2q9 -5 20.5 -7.5t25.5 -2.5q40 0 62.5 19t32.5 61z" />
    <glyph glyph-name="k" unicode="k" horiz-adv-x="543" 
d="M469 0h-106l-169 220h-28l-55 -220h-91l181 725l99 34l-117 -471h27l250 212h120v-3l-303 -252l192 -243v-2z" />
    <glyph glyph-name="l" unicode="l" horiz-adv-x="266" 
d="M116 0h-91l181 725l99 34z" />
    <glyph glyph-name="m" unicode="m" horiz-adv-x="906" 
d="M429 343q0 40 -21.5 63t-58.5 23q-35 0 -72.5 -20t-79.5 -62l-86 -347h-91l122 488l95 20l-21 -86q42 45 80.5 66.5t77.5 21.5q49 0 86.5 -25.5t52.5 -69.5q52 49 97.5 72t92.5 23q64 0 105 -41.5t41 -107.5q0 -20 -3.5 -43t-10.5 -51l-66 -267h-91l71 285q5 19 7 33
t2 25q0 40 -21.5 63t-58.5 23t-75.5 -18t-81.5 -55q-1 -17 -4 -36.5t-11 -52.5l-66 -267h-91l71 285q5 19 7 33t2 25z" />
    <glyph glyph-name="n" unicode="n" horiz-adv-x="596" 
d="M449 343q0 41 -22.5 63.5t-62.5 22.5q-38 0 -79 -20.5t-89 -64.5l-85 -344h-91l122 488l95 20l-22 -90q46 47 88 69.5t85 22.5q67 0 109.5 -41t42.5 -108q0 -20 -3.5 -43t-10.5 -51l-67 -267h-90l71 285q5 19 7 33t2 25z" />
    <glyph glyph-name="o" unicode="o" horiz-adv-x="606" 
d="M564 292q0 -130 -86 -218t-209 -88q-100 0 -163 62t-63 160q0 130 86 218t209 88q100 0 163 -62t63 -160zM471 289q0 65 -38.5 104.5t-100.5 39.5q-65 0 -118.5 -46t-71.5 -117q-3 -12 -5 -27t-2 -32q0 -65 38.5 -104.5t100.5 -39.5q66 0 119.5 46t70.5 117q3 12 5 27
t2 32z" />
    <glyph glyph-name="p" unicode="p" horiz-adv-x="611" 
d="M476 80q-43 -42 -96.5 -65t-110.5 -23q-42 0 -79.5 11.5t-68.5 33.5l-57 -228h-91l169 679l95 20l-19 -80q44 43 86 62.5t89 19.5q78 0 128 -54.5t50 -141.5q0 -66 -24.5 -127t-70.5 -107zM479 307q0 57 -30.5 89.5t-82.5 32.5q-40 0 -80 -17.5t-86 -54.5l-60 -243
q27 -21 58 -31.5t66 -10.5q72 0 131 50t77 127q3 13 5 27.5t2 30.5z" />
    <glyph glyph-name="q" unicode="q" horiz-adv-x="607" 
d="M576 501l11 -2l-172 -690h-90l66 264q-45 -43 -87 -63t-88 -20q-77 0 -126.5 54.5t-49.5 141.5q0 67 23.5 126t68.5 104t104 68.5t124 23.5q37 0 72.5 -8t69.5 -23zM141 255q-4 -15 -6 -31t-2 -31q0 -57 29.5 -89.5t80.5 -32.5q39 0 79.5 18t85.5 55l64 258
q-27 13 -55.5 19.5t-62.5 6.5q-74 0 -134 -48.5t-79 -124.5z" />
    <glyph glyph-name="r" unicode="r" horiz-adv-x="406" 
d="M380 412q-41 0 -85 -21.5t-105 -72.5l-79 -318h-91l122 488l95 20l-30 -121q67 73 105 97t81 24q9 0 19 -1.5t20 -3.5l-15 -96q-9 3 -17.5 4t-19.5 1z" />
    <glyph glyph-name="s" unicode="s" horiz-adv-x="493" 
d="M231 213q-78 30 -110 64t-32 86q0 65 54.5 106.5t140.5 41.5q46 0 89 -12.5t80 -36.5v-97l-3 -1q-43 34 -85.5 50.5t-86.5 16.5q-45 0 -73 -17t-28 -44q0 -25 20.5 -42.5t75.5 -38.5q76 -30 108.5 -64.5t32.5 -85.5q0 -67 -56 -108.5t-147 -41.5q-50 0 -98 14.5t-81 40.5
l-16 104l2 2q43 -39 95 -60t105 -21q47 0 77.5 17.5t30.5 44.5q0 24 -21 42t-74 40z" />
    <glyph glyph-name="t" unicode="t" horiz-adv-x="445" 
d="M381 119l-30 -101q-25 -15 -52.5 -22t-57.5 -7q-68 0 -108 39t-40 106q0 17 2 33t7 33l60 223h-85l20 77h86l30 111l98 34l-39 -145h192l-19 -77h-194l-64 -237q-3 -12 -4.5 -22.5t-1.5 -20.5q0 -33 21.5 -53t56.5 -20q30 0 60 12.5t60 38.5z" />
    <glyph glyph-name="u" unicode="u" horiz-adv-x="596" 
d="M452 0h-91l20 81q-46 -47 -88 -69t-85 -22q-67 0 -109.5 41.5t-42.5 107.5q0 17 3 38t11 56l67 267h91l-71 -285q-5 -19 -7 -33t-2 -25q0 -41 22 -63.5t62 -22.5q38 0 79 20.5t89 63.5l86 345h90z" />
    <glyph glyph-name="v" unicode="v" horiz-adv-x="564" 
d="M500 500h105l-378 -514h-19l-126 514h93l78 -347z" />
    <glyph glyph-name="w" unicode="w" horiz-adv-x="876" 
d="M814 500h100l-314 -507h-80l-65 333l-228 -333h-78l-64 507h91l40 -391l271 397h17l77 -397z" />
    <glyph glyph-name="x" unicode="x" horiz-adv-x="555" 
d="M466 0h-99l-100 196l-189 -196h-112v2l260 261l-126 237h100l92 -180l174 180h112v-2l-246 -245z" />
    <glyph glyph-name="y" unicode="y" horiz-adv-x="546" 
d="M586 500l-371 -574q-42 -64 -86.5 -93t-100.5 -29q-22 0 -39.5 4t-31.5 12l-23 93l3 2q17 -13 36.5 -19.5t44.5 -6.5q39 0 68.5 19t56.5 61l40 62l-99 469h93l72 -375l235 375h102z" />
    <glyph glyph-name="z" unicode="z" horiz-adv-x="527" 
d="M145 78h315l-58 -78h-427l-5 15l398 407h-277l19 78h428l5 -15z" />
    <glyph glyph-name="braceleft" unicode="{" horiz-adv-x="492" 
d="M284 -74h94l-27 -56h-91q-84 0 -129.5 32.5t-45.5 91.5q0 25 12 52.5t50 75.5q28 38 36.5 55t8.5 31q0 26 -21 43.5t-59 23.5l-66 10l9 40l77 11q64 9 92 30t28 61q0 9 -1.5 23t-7.5 47q-6 35 -8 51.5t-2 28.5q0 77 58 120t163 43h107l5 -56h-114q-61 0 -95 -29.5
t-34 -81.5q0 -11 1.5 -25t6.5 -45q5 -32 6.5 -48t1.5 -28q0 -49 -30 -81.5t-91 -48.5q33 -14 51 -37.5t18 -52.5q0 -18 -10.5 -41t-44.5 -71q-31 -43 -40.5 -62.5t-9.5 -34.5q0 -36 25.5 -54t76.5 -18z" />
    <glyph glyph-name="bar" unicode="|" horiz-adv-x="371" 
d="M346 740l-216 -870h-78l216 870h78z" />
    <glyph glyph-name="braceright" unicode="}" horiz-adv-x="492" 
d="M277 113q6 -35 8 -51.5t2 -28.5q0 -77 -58 -120t-163 -43h-108l-4 56h114q61 0 94.5 29.5t33.5 81.5q0 11 -1.5 25t-5.5 45q-5 32 -6.5 48t-1.5 28q0 49 30 81.5t90 48.5q-33 14 -51 37.5t-18 52.5q0 18 11 41t45 71q31 43 40.5 62.5t9.5 34.5q0 36 -25.5 54t-77.5 18
h-93l27 56h91q84 0 129.5 -32.5t45.5 -91.5q0 -25 -12 -52.5t-50 -75.5q-29 -38 -37.5 -55t-8.5 -31q0 -26 21 -43.5t60 -23.5l66 -10l-10 -40l-76 -11q-64 -9 -92 -30t-28 -61q0 -9 1.5 -23t7.5 -47z" />
    <glyph glyph-name="asciitilde" unicode="~" horiz-adv-x="600" 
d="M346 396q42 -29 59 -37.5t27 -8.5q18 0 40.5 20.5t69.5 81.5l46 -31q-59 -94 -92.5 -128t-67.5 -34q-16 0 -41 11.5t-79 48.5q-42 29 -59 37.5t-27 8.5q-19 0 -41 -20.5t-69 -82.5l-46 31q58 93 92 127.5t68 34.5q16 0 41 -11.5t79 -47.5z" />
    <glyph glyph-name="uni00A0" unicode="&#xa0;" horiz-adv-x="216" 
 />
    <glyph glyph-name="exclamdown" unicode="&#xa1;" horiz-adv-x="259" 
d="M225 709q28 0 48 -20t20 -48t-20 -48t-48 -20t-48 20t-20 48t20 48t48 20zM18 0l28 111l121 365h39l-62 -365l-28 -111h-98z" />
    <glyph glyph-name="cent" unicode="&#xa2;" horiz-adv-x="545" 
d="M495 254l-47 -115q-33 -19 -73 -29.5t-79 -12.5l-26 -102h-69l28 108q-72 17 -114.5 72.5t-42.5 132.5q0 120 82.5 204.5t202.5 89.5l27 103h69l-29 -109q35 -8 66.5 -25t56.5 -41l-17 -89h-2q-29 32 -61 51.5t-66 26.5l-88 -342q47 3 92.5 23.5t86.5 55.5zM164 365
q-3 -13 -4.5 -26t-1.5 -26q0 -50 25 -84.5t69 -46.5l87 339q-63 -7 -111 -50t-64 -106z" />
    <glyph glyph-name="sterling" unicode="&#xa3;" horiz-adv-x="579" 
d="M189 83h298l-40 -83h-446l-2 18q138 108 179.5 155.5t41.5 91.5q0 11 -1 20t-3 19h-155l16 65h122q-14 51 -19 77t-5 47q0 97 68.5 158t178.5 61q49 0 94 -16.5t82 -48.5l4 -101l-3 -1q-43 41 -88.5 62.5t-91.5 21.5q-68 0 -110.5 -38t-42.5 -100q0 -18 4 -41t20 -81h227
l-16 -65h-196q2 -12 2.5 -22t0.5 -19q0 -49 -28 -90.5t-91 -89.5z" />
    <glyph glyph-name="yen" unicode="&#xa5;" horiz-adv-x="625" 
d="M544 218l-14 -57h-195l-40 -161h-91l40 161h-194l14 57h195l20 83h-194l14 57h168l-130 342h95l109 -305l263 305h110l-302 -342h167l-14 -57h-196l-20 -83h195z" />
    <glyph glyph-name="section" unicode="&#xa7;" horiz-adv-x="629" 
d="M386 87q28 -24 41 -51t13 -61q0 -75 -60 -121.5t-160 -46.5q-55 0 -106 15t-95 44l-21 117l2 1q57 -49 111 -72t113 -23q57 0 91.5 21.5t34.5 56.5q0 33 -27.5 57.5t-96.5 55.5q-99 46 -138 86.5t-39 99.5q0 65 49 106t150 60q-27 23 -40 49.5t-13 61.5q0 76 60.5 122.5
t159.5 46.5q50 0 95.5 -12t88.5 -37l1 -96l-2 -1q-47 33 -92.5 48.5t-93.5 15.5q-58 0 -92.5 -22t-34.5 -57q0 -32 27.5 -56.5t96.5 -56.5q98 -45 137.5 -86t39.5 -99q0 -65 -49 -106t-151 -60zM140 273q0 -34 31 -60.5t109 -62.5q12 -5 23 -10.5t21 -11.5q85 21 128 50.5
t43 66.5q0 34 -31 60.5t-109 62.5q-9 4 -18.5 9t-25.5 13q-85 -21 -128 -50.5t-43 -66.5z" />
    <glyph glyph-name="dieresis" unicode="&#xa8;" horiz-adv-x="500" 
d="M310 664q0 -26 -18 -44t-44 -18t-44 18.5t-18 43.5q0 26 18 44t44 18t44 -18t18 -44zM515 664q0 -25 -18 -43.5t-44 -18.5t-44.5 18t-18.5 44t18.5 44t44.5 18t44 -18t18 -44z" />
    <glyph glyph-name="copyright" unicode="&#xa9;" horiz-adv-x="890" 
d="M183 68q-57 55 -87.5 128t-30.5 153t31 153t88 129q57 55 131 85t154 30q81 0 154 -29.5t130 -84.5t87.5 -128t30.5 -153t-31 -153t-88 -129q-57 -55 -131 -85t-154 -30q-81 0 -154 29.5t-130 84.5zM467 715q-155 0 -262.5 -106t-107.5 -258q0 -153 108.5 -259.5
t263.5 -106.5t262.5 106t107.5 258q0 153 -108.5 259.5t-263.5 106.5zM480 177q45 0 88 16.5t84 49.5l2 -1l-12 -71q-38 -28 -77.5 -41t-87.5 -13q-103 0 -172.5 65.5t-69.5 167.5q0 100 72 167t178 67q46 0 87 -14.5t76 -44.5v-74h-2q-40 36 -80.5 54.5t-81.5 18.5
q-76 0 -129 -50t-53 -123q0 -75 52 -124.5t126 -49.5z" />
    <glyph glyph-name="ordfeminine" unicode="&#xaa;" horiz-adv-x="496" 
d="M425 348h-68l17 59q-41 -32 -79 -48.5t-74 -16.5q-44 0 -71 25t-27 65q0 61 59.5 93.5t172.5 32.5q15 0 29.5 -1t27.5 -3q1 10 1.5 14.5t0.5 7.5q0 32 -21 50.5t-57 18.5q-33 0 -67.5 -11t-75.5 -35l-2 1l34 77q27 14 59 21.5t64 7.5q59 0 97 -35t38 -89
q0 -14 -2.5 -29.5t-7.5 -32.5zM353 513q-77 0 -118.5 -19t-41.5 -52q0 -20 13.5 -31.5t36.5 -11.5q28 0 62.5 14t79.5 43l16 55q-16 1 -27.5 1.5t-20.5 0.5zM56 195l14 56h350l-14 -56h-350z" />
    <glyph glyph-name="guillemotleft" unicode="&#xab;" horiz-adv-x="625" 
d="M154 242l97 -230l-32 -19l-174 249l4 16l292 249l27 -24zM406 242l98 -230l-32 -19l-174 249l3 16l293 249l27 -24z" />
    <glyph glyph-name="registered" unicode="&#xae;" horiz-adv-x="547" 
d="M550 510q0 -91 -65 -154.5t-157 -63.5q-93 0 -157.5 63t-64.5 154t65 154.5t157 63.5q93 0 157.5 -63t64.5 -154zM525 509q0 83 -57 139t-141 56q-82 0 -138.5 -56.5t-56.5 -138.5q0 -83 56.5 -138.5t140.5 -55.5q82 0 139 56.5t57 137.5zM450 390h-52l-86 92h-25v-92
h-41v251h81q41 0 65.5 -21.5t24.5 -56.5q0 -26 -16 -45.5t-43 -27.5zM322 605h-35v-88h33q26 0 40.5 12t14.5 32q0 21 -14 32.5t-39 11.5z" />
    <glyph glyph-name="macron" unicode="&#xaf;" horiz-adv-x="500" 
d="M174 628l17 68h335l-17 -68h-335z" />
    <glyph glyph-name="degree" unicode="&#xb0;" horiz-adv-x="526" 
d="M116 473q0 101 68 171t165 70q82 0 134 -52.5t52 -134.5q0 -101 -68 -171t-165 -70q-82 0 -134 52.5t-52 134.5zM192 476q0 -56 31 -89.5t83 -33.5q62 0 107.5 50.5t45.5 120.5q0 56 -31 89.5t-83 33.5q-62 0 -107.5 -50.5t-45.5 -120.5z" />
    <glyph glyph-name="plusminus" unicode="&#xb1;" horiz-adv-x="600" 
d="M598 468l-20 -80h-202l-53 -211h-83l53 211h-203l20 80h203l52 210h83l-52 -210h202zM501 77l-20 -77h-488l20 77h488z" />
    <glyph glyph-name="two.sup" unicode="&#xb2;" horiz-adv-x="359" 
d="M208 471h186l-45 -62h-265l-2 24l183 171q52 49 67.5 71.5t15.5 42.5q0 22 -14 34t-39 12q-34 0 -69.5 -20t-70.5 -58l-2 1l12 85q27 27 63.5 41.5t75.5 14.5q52 0 84 -27t32 -72q0 -36 -20.5 -68t-85.5 -93z" />
    <glyph glyph-name="three.sup" unicode="&#xb3;" horiz-adv-x="353" 
d="M308 612q36 -13 54 -35.5t18 -55.5q0 -51 -45 -84.5t-115 -33.5q-34 0 -64.5 8.5t-53.5 24.5l-5 73l2 1q27 -23 57 -34.5t63 -11.5q39 0 64 17t25 43q0 28 -28 45.5t-90 30.5l6 24q81 24 117.5 48.5t36.5 54.5q0 18 -15 29t-39 11q-30 0 -62 -11.5t-71 -35.5l-2 1l18 71
q29 18 62 27t67 9q51 0 83 -26t32 -67t-29 -72.5t-86 -50.5z" />
    <glyph glyph-name="acute" unicode="&#xb4;" horiz-adv-x="500" 
d="M555 770l-205 -167h-48l125 169h128v-2z" />
    <glyph glyph-name="uni00B5" unicode="&#xb5;" horiz-adv-x="604" 
d="M111 69l-43 -220l-10 -40h-86l173 691h90l-71 -285q-5 -19 -7 -33t-2 -25q0 -41 22.5 -63.5t62.5 -22.5q38 0 79.5 21t88.5 64l85 344h91l-125 -500h-71l11 91q-46 -48 -89.5 -71.5t-88.5 -23.5q-40 0 -69 19.5t-41 53.5z" />
    <glyph glyph-name="paragraph" unicode="&#xb6;" horiz-adv-x="683" 
d="M98 436q0 113 97.5 188.5t244.5 75.5h249l-174 -700h-61l154 618h-96l-154 -618h-60l59 236h-27q-104 0 -168 55t-64 145zM191 431q0 -64 41.5 -101.5t111.5 -37.5h27l81 326h-27q-101 0 -167.5 -53.5t-66.5 -133.5z" />
    <glyph glyph-name="periodcentered" unicode="&#xb7;" horiz-adv-x="220" 
d="M116 207q-28 0 -48 19.5t-20 47.5t20 48t48 20t47.5 -20t19.5 -48t-19.5 -47.5t-47.5 -19.5z" />
    <glyph glyph-name="cedilla" unicode="&#xb8;" horiz-adv-x="500" 
d="M273 -116q0 -36 -33.5 -57.5t-92.5 -21.5q-17 0 -33 2.5t-31 6.5l-21 47l2 2q20 -7 38 -10.5t38 -3.5q30 0 47 8.5t17 23.5q0 13 -12.5 20t-35.5 7q-5 0 -16.5 -1.5t-30.5 -3.5l-2 4l66 98h57l-37 -55q35 -1 57.5 -19.5t22.5 -46.5z" />
    <glyph glyph-name="one.sup" unicode="&#xb9;" horiz-adv-x="293" 
d="M133 651l-2 1l19 76l203 102l10 -3l-104 -418h-71l77 309z" />
    <glyph glyph-name="ordmasculine" unicode="&#xba;" horiz-adv-x="499" 
d="M509 545q0 -88 -60.5 -147t-150.5 -59q-75 0 -123 46.5t-48 119.5q0 88 60.5 147t150.5 59q75 0 123 -46.5t48 -119.5zM436 543q0 47 -28 75.5t-73 28.5q-56 0 -95.5 -41t-39.5 -99q0 -47 28 -75.5t74 -28.5q56 0 95 41t39 99zM60 195l14 56h353l-14 -56h-353z" />
    <glyph glyph-name="guillemotright" unicode="&#xbb;" horiz-adv-x="625" 
d="M580 258l-4 -16l-292 -249l-27 25l214 240l-97 230l32 19zM327 258l-4 -16l-292 -249l-27 25l214 240l-97 230l32 19z" />
    <glyph glyph-name="onequarter" unicode="&#xbc;" horiz-adv-x="825" 
d="M103 529l-2 1l19 76l203 102l10 -3l-104 -418h-71l77 309zM137 -2h-77l333 368l296 336h77l-333 -368zM627 91h-215l-2 17l272 308h92l-67 -270h68l-14 -55h-67l-23 -91h-67zM692 354l-176 -208h124z" />
    <glyph glyph-name="onehalf" unicode="&#xbd;" horiz-adv-x="848" 
d="M103 529l-2 1l19 76l203 102l10 -3l-104 -418h-71l77 309zM137 -2h-77l333 368l296 336h77l-333 -368zM595 62h186l-45 -62h-265l-2 24l183 171q52 49 67.5 71.5t15.5 42.5q0 22 -14 34t-39 12q-34 0 -69.5 -20t-70.5 -58l-2 1l12 85q27 27 63.5 41.5t75.5 14.5
q52 0 84 -27t32 -72q0 -36 -20.5 -68t-85.5 -93z" />
    <glyph glyph-name="threequarters" unicode="&#xbe;" horiz-adv-x="881" 
d="M278 490q36 -13 54 -35.5t18 -55.5q0 -51 -45 -84.5t-115 -33.5q-34 0 -64.5 8.5t-53.5 24.5l-5 73l2 1q27 -23 57 -34.5t63 -11.5q39 0 64 17t25 43q0 28 -28 45.5t-90 30.5l6 24q81 24 117.5 48.5t36.5 54.5q0 18 -15 29t-39 11q-30 0 -62 -11.5t-71 -35.5l-2 1l18 71
q29 18 62 27t67 9q51 0 83 -26t32 -67t-29 -72.5t-86 -50.5zM193 -2h-77l333 368l296 336h77l-333 -368zM683 91h-215l-2 17l272 308h92l-67 -270h68l-14 -55h-67l-23 -91h-67zM748 354l-176 -208h124z" />
    <glyph glyph-name="questiondown" unicode="&#xbf;" horiz-adv-x="483" 
d="M367 709q28 0 48 -20t20 -48t-20 -48t-48 -20t-48 20t-20 48t20 48t48 20zM419 172l-28 -112q-39 -33 -90.5 -51.5t-105.5 -18.5q-75 0 -122 39.5t-47 103.5q0 59 36 100.5t123 81.5q67 31 92.5 53t25.5 50q0 12 -3.5 25t-13.5 32h48q19 -24 28.5 -46t9.5 -41
q0 -41 -32 -72.5t-115 -70.5q-61 -28 -85.5 -51.5t-24.5 -54.5q0 -29 24 -47t62 -18q51 0 103 24t113 75z" />
    <glyph glyph-name="Agrave" unicode="&#xc0;" horiz-adv-x="783" 
d="M77 0h-108l489 704h93l139 -704h-97l-33 180h-360zM484 596l-226 -331h287zM494 913l47 -141h-45l-127 141h125z" />
    <glyph glyph-name="Aacute" unicode="&#xc1;" horiz-adv-x="783" 
d="M77 0h-108l489 704h93l139 -704h-97l-33 180h-360zM484 596l-226 -331h287zM735 911l-200 -139h-56l115 141h141v-2z" />
    <glyph glyph-name="Acircumflex" unicode="&#xc2;" horiz-adv-x="783" 
d="M77 0h-108l489 704h93l139 -704h-97l-33 180h-360zM484 596l-226 -331h287zM686 768h-50l-98 75l-137 -75h-57v1l161 140h88z" />
    <glyph glyph-name="Atilde" unicode="&#xc3;" horiz-adv-x="783" 
d="M77 0h-108l489 704h93l139 -704h-97l-33 180h-360zM484 596l-226 -331h287zM546 870q26 -17 37.5 -22t19.5 -5q15 0 33.5 14t53.5 51l35 -30q-42 -59 -70.5 -83t-56.5 -24q-13 0 -29 6.5t-48 27.5q-27 18 -39 23t-20 5q-14 0 -32 -13.5t-54 -51.5l-36 30q42 59 71 83
t57 24q13 0 29 -6.5t49 -28.5z" />
    <glyph glyph-name="Adieresis" unicode="&#xc4;" horiz-adv-x="783" 
d="M77 0h-108l489 704h93l139 -704h-97l-33 180h-360zM484 596l-226 -331h287zM426 896q26 0 44 -18.5t18 -44.5t-18 -44.5t-44 -18.5q-27 0 -45 18t-18 45t18 45t45 18zM631 896q27 0 45 -18t18 -45t-18 -45t-45 -18q-26 0 -44.5 18.5t-18.5 44.5t18.5 44.5t44.5 18.5z" />
    <glyph glyph-name="Aring" unicode="&#xc5;" horiz-adv-x="783" 
d="M690 0h-97l-33 180h-361l-122 -180h-108l459 661q-17 15 -26.5 37t-9.5 48q0 54 38.5 92.5t91.5 38.5q50 0 82.5 -33t32.5 -82q0 -38 -20 -69.5t-54 -48.5zM436 747q0 -33 20.5 -54t52.5 -21q35 0 59.5 26t24.5 63q0 32 -20.5 53t-52.5 21q-34 0 -59 -26t-25 -62z
M484 596l-227 -331h288z" />
    <glyph glyph-name="AE" unicode="&#xc6;" horiz-adv-x="992" 
d="M-49 0v2l618 698h468l-23 -87h-313l-54 -214h262l-22 -86h-261l-57 -226h337l-53 -87h-401l45 180h-276l-159 -180h-111zM605 614l-309 -349h222z" />
    <glyph glyph-name="Ccedilla" unicode="&#xc7;" horiz-adv-x="716" 
d="M443 -121q0 -36 -34 -57.5t-93 -21.5q-17 0 -33 2.5t-30 6.5l-21 47l1 2q20 -7 38 -10.5t38 -3.5q31 0 48 8.5t17 23.5q0 13 -12.5 20t-35.5 7q-6 0 -12.5 -0.5t-34.5 -4.5l-2 4l59 89q-116 15 -187 97.5t-71 204.5q0 84 30.5 160t86.5 135q58 59 133.5 91.5t157.5 32.5
q74 0 136 -28t111 -84l-22 -112h-2q-48 67 -105.5 100.5t-122.5 33.5q-100 0 -184.5 -69.5t-110.5 -174.5q-4 -19 -6.5 -38t-2.5 -39q0 -98 61.5 -160.5t157.5 -62.5q65 0 129 28.5t131 88.5l3 -2l-56 -138q-43 -32 -96.5 -49t-115.5 -18l-29 -43q36 -1 58.5 -19.5
t22.5 -46.5z" />
    <glyph glyph-name="Egrave" unicode="&#xc8;" horiz-adv-x="578" 
d="M439 0h-401l174 700h411l-23 -87h-313l-54 -214h262l-22 -86h-261l-57 -226h337zM411 913l47 -141h-45l-127 141h125z" />
    <glyph glyph-name="Eacute" unicode="&#xc9;" horiz-adv-x="578" 
d="M439 0h-401l174 700h411l-23 -87h-313l-54 -214h262l-22 -86h-261l-57 -226h337zM652 911l-200 -139h-56l115 141h141v-2z" />
    <glyph glyph-name="Ecircumflex" unicode="&#xca;" horiz-adv-x="578" 
d="M439 0h-401l174 700h411l-23 -87h-313l-54 -214h262l-22 -86h-261l-57 -226h337zM604 772h-50l-98 75l-137 -75h-57v1l161 140h88z" />
    <glyph glyph-name="Edieresis" unicode="&#xcb;" horiz-adv-x="578" 
d="M439 0h-401l174 700h411l-23 -87h-313l-54 -214h262l-22 -86h-261l-57 -226h337zM343 896q26 0 44 -18.5t18 -44.5t-18 -44.5t-44 -18.5q-27 0 -45 18t-18 45t18 45t45 18zM548 896q27 0 45 -18t18 -45t-18 -45t-45 -18q-26 0 -44.5 18.5t-18.5 44.5t18.5 44.5t44.5 18.5
z" />
    <glyph glyph-name="Igrave" unicode="&#xcc;" horiz-adv-x="306" 
d="M139 0h-96l174 700h96zM260 913l47 -141h-45l-127 141h125z" />
    <glyph glyph-name="Iacute" unicode="&#xcd;" horiz-adv-x="306" 
d="M139 0h-96l174 700h96zM501 911l-200 -139h-56l115 141h141v-2z" />
    <glyph glyph-name="Icircumflex" unicode="&#xce;" horiz-adv-x="306" 
d="M139 0h-96l174 700h96zM453 768h-50l-98 75l-137 -75h-57v1l161 140h88z" />
    <glyph glyph-name="Idieresis" unicode="&#xcf;" horiz-adv-x="306" 
d="M139 0h-96l174 700h96zM192 896q26 0 44 -18.5t18 -44.5t-18 -44.5t-44 -18.5q-27 0 -45 18t-18 45t18 45t45 18zM397 896q27 0 45 -18t18 -45t-18 -45t-45 -18q-26 0 -44.5 18.5t-18.5 44.5t18.5 44.5t44.5 18.5z" />
    <glyph glyph-name="Eth" unicode="&#xd0;" horiz-adv-x="798" 
d="M772 406q0 -176 -134.5 -291t-336.5 -115h-243l80 323h-96l17 69h96l77 308h185q167 0 261 -78t94 -216zM440 392l-17 -69h-189l-59 -235h120q137 0 240 67t130 174q4 17 6 33.5t2 33.5q0 103 -70.5 159.5t-198.5 56.5h-98l-55 -220h189z" />
    <glyph glyph-name="Ntilde" unicode="&#xd1;" horiz-adv-x="817" 
d="M129 0h-91l174 700h89l308 -513l128 513h91l-175 -705h-33l-348 579zM558 870q26 -17 37.5 -22t19.5 -5q15 0 33.5 14t53.5 51l35 -30q-42 -59 -70.5 -83t-56.5 -24q-13 0 -29 6.5t-48 27.5q-27 18 -39 23t-20 5q-14 0 -32 -13.5t-54 -51.5l-36 30q42 59 71 83t57 24
q13 0 29 -6.5t49 -28.5z" />
    <glyph glyph-name="Ograve" unicode="&#xd2;" horiz-adv-x="834" 
d="M685 109q-58 -59 -134 -91t-158 -32q-138 0 -225.5 86.5t-87.5 224.5q0 84 30.5 160t88.5 134q57 59 133 91t158 32q138 0 225.5 -86.5t87.5 -224.5q0 -84 -30.5 -160t-87.5 -134zM178 302q0 -102 62.5 -164t162.5 -62q101 0 183.5 68t108.5 173q5 19 7.5 39t2.5 42
q0 102 -62.5 164t-161.5 62q-101 0 -184 -68t-108 -173q-6 -18 -8.5 -38t-2.5 -43zM502 918l47 -141h-45l-127 141h125z" />
    <glyph glyph-name="Oacute" unicode="&#xd3;" horiz-adv-x="834" 
d="M685 109q-58 -59 -134 -91t-158 -32q-138 0 -225.5 86.5t-87.5 224.5q0 84 30.5 160t88.5 134q57 59 133 91t158 32q138 0 225.5 -86.5t87.5 -224.5q0 -84 -30.5 -160t-87.5 -134zM178 302q0 -102 62.5 -164t162.5 -62q101 0 183.5 68t108.5 173q5 19 7.5 39t2.5 42
q0 102 -62.5 164t-161.5 62q-101 0 -184 -68t-108 -173q-6 -18 -8.5 -38t-2.5 -43zM743 916l-200 -139h-56l115 141h141v-2z" />
    <glyph glyph-name="Ocircumflex" unicode="&#xd4;" horiz-adv-x="834" 
d="M685 109q-58 -59 -134 -91t-158 -32q-138 0 -225.5 86.5t-87.5 224.5q0 84 30.5 160t88.5 134q57 59 133 91t158 32q138 0 225.5 -86.5t87.5 -224.5q0 -84 -30.5 -160t-87.5 -134zM178 302q0 -102 62.5 -164t162.5 -62q101 0 183.5 68t108.5 173q5 19 7.5 39t2.5 42
q0 102 -62.5 164t-161.5 62q-101 0 -184 -68t-108 -173q-6 -18 -8.5 -38t-2.5 -43zM693 772h-50l-98 75l-137 -75h-57v1l161 140h88z" />
    <glyph glyph-name="Otilde" unicode="&#xd5;" horiz-adv-x="834" 
d="M685 109q-58 -59 -134 -91t-158 -32q-138 0 -225.5 86.5t-87.5 224.5q0 84 30.5 160t88.5 134q57 59 133 91t158 32q138 0 225.5 -86.5t87.5 -224.5q0 -84 -30.5 -160t-87.5 -134zM178 302q0 -102 62.5 -164t162.5 -62q101 0 183.5 68t108.5 173q5 19 7.5 39t2.5 42
q0 102 -62.5 164t-161.5 62q-101 0 -184 -68t-108 -173q-6 -18 -8.5 -38t-2.5 -43zM554 875q26 -17 37.5 -22t19.5 -5q15 0 33.5 14t53.5 51l35 -30q-42 -59 -70.5 -83t-56.5 -24q-13 0 -29 6.5t-48 27.5q-27 18 -39 23t-20 5q-14 0 -32 -13.5t-54 -51.5l-36 30q42 59 71 83
t57 24q13 0 29 -6.5t49 -28.5z" />
    <glyph glyph-name="Odieresis" unicode="&#xd6;" horiz-adv-x="834" 
d="M685 109q-58 -59 -134 -91t-158 -32q-138 0 -225.5 86.5t-87.5 224.5q0 84 30.5 160t88.5 134q57 59 133 91t158 32q138 0 225.5 -86.5t87.5 -224.5q0 -84 -30.5 -160t-87.5 -134zM178 302q0 -102 62.5 -164t162.5 -62q101 0 183.5 68t108.5 173q5 19 7.5 39t2.5 42
q0 102 -62.5 164t-161.5 62q-101 0 -184 -68t-108 -173q-6 -18 -8.5 -38t-2.5 -43zM434 901q26 0 44 -18.5t18 -44.5t-18 -44.5t-44 -18.5q-27 0 -45 18t-18 45t18 45t45 18zM639 901q27 0 45 -18t18 -45t-18 -45t-45 -18q-26 0 -44.5 18.5t-18.5 44.5t18.5 44.5t44.5 18.5z
" />
    <glyph glyph-name="multiply" unicode="&#xd7;" horiz-adv-x="600" 
d="M379 353l134 -173l-65 -52l-130 176l-214 -175l-48 62l217 173l-133 173l65 51l129 -175l214 174l49 -62z" />
    <glyph glyph-name="Oslash" unicode="&#xd8;" horiz-adv-x="834" 
d="M685 109q-58 -59 -134 -91t-158 -32q-56 0 -106.5 16.5t-92.5 48.5l-92 -94h-100v2l141 143q-31 40 -47 90t-16 105q0 84 30.5 160t88.5 134q57 59 133 91t158 32q56 0 106.5 -16.5t92.5 -48.5l92 94h100v-2l-141 -143q31 -40 47 -90t16 -105q0 -84 -30.5 -160
t-87.5 -134zM185 384q-5 -19 -7.5 -39t-2.5 -43q0 -39 9 -73.5t27 -62.5l412 420q-28 21 -64.5 31.5t-77.5 10.5q-102 0 -185.5 -69t-110.5 -175zM698 316q5 19 7.5 39t2.5 43q0 39 -9 73.5t-27 62.5l-412 -420q29 -21 65.5 -31.5t77.5 -10.5q101 0 184.5 69t110.5 175z" />
    <glyph glyph-name="Ugrave" unicode="&#xd9;" horiz-adv-x="781" 
d="M99 235q0 22 3.5 47.5t9.5 52.5l91 365h96l-93 -374q-5 -23 -8 -44t-3 -38q0 -78 45.5 -122.5t126.5 -44.5q87 0 151 55.5t88 154.5l103 413h93l-106 -427q-35 -140 -121.5 -212.5t-217.5 -72.5q-117 0 -187.5 67.5t-70.5 179.5zM492 902l47 -141h-45l-127 141h125z" />
    <glyph glyph-name="Uacute" unicode="&#xda;" horiz-adv-x="781" 
d="M99 235q0 22 3.5 47.5t9.5 52.5l91 365h96l-93 -374q-5 -23 -8 -44t-3 -38q0 -78 45.5 -122.5t126.5 -44.5q87 0 151 55.5t88 154.5l103 413h93l-106 -427q-35 -140 -121.5 -212.5t-217.5 -72.5q-117 0 -187.5 67.5t-70.5 179.5zM733 900l-200 -139h-56l115 141h141v-2z
" />
    <glyph glyph-name="Ucircumflex" unicode="&#xdb;" horiz-adv-x="781" 
d="M99 235q0 22 3.5 47.5t9.5 52.5l91 365h96l-93 -374q-5 -23 -8 -44t-3 -38q0 -78 45.5 -122.5t126.5 -44.5q87 0 151 55.5t88 154.5l103 413h93l-106 -427q-35 -140 -121.5 -212.5t-217.5 -72.5q-117 0 -187.5 67.5t-70.5 179.5zM689 772h-50l-98 75l-137 -75h-57v1
l161 140h88z" />
    <glyph glyph-name="Udieresis" unicode="&#xdc;" horiz-adv-x="781" 
d="M99 235q0 22 3.5 47.5t9.5 52.5l91 365h96l-93 -374q-5 -23 -8 -44t-3 -38q0 -78 45.5 -122.5t126.5 -44.5q87 0 151 55.5t88 154.5l103 413h93l-106 -427q-35 -140 -121.5 -212.5t-217.5 -72.5q-117 0 -187.5 67.5t-70.5 179.5zM428 896q26 0 44 -18.5t18 -44.5
t-18 -44.5t-44 -18.5q-27 0 -45 18t-18 45t18 45t45 18zM633 896q27 0 45 -18t18 -45t-18 -45t-45 -18q-26 0 -44.5 18.5t-18.5 44.5t18.5 44.5t44.5 18.5z" />
    <glyph glyph-name="Yacute" unicode="&#xdd;" horiz-adv-x="658" 
d="M756 700v-2l-367 -392l-76 -306h-97l79 317l-171 383h101l132 -305l282 305h117zM665 906l-200 -139h-56l115 141h141v-2z" />
    <glyph glyph-name="Thorn" unicode="&#xde;" horiz-adv-x="608" 
d="M587 389q0 -112 -82.5 -181t-217.5 -69h-118l-35 -139h-96l174 700h96l-32 -128h110q91 0 146 -50t55 -133zM489 379q0 50 -32.5 78.5t-90.5 28.5h-113l-64 -261h107q86 0 139.5 43t53.5 111z" />
    <glyph glyph-name="germandbls" unicode="&#xdf;" horiz-adv-x="665" 
d="M470 366q60 -29 90.5 -73t30.5 -100q0 -83 -65.5 -141.5t-162.5 -58.5q-26 0 -51 5t-47 15l-16 89l2 2q27 -15 54 -22.5t55 -7.5q58 0 99 35.5t41 85.5q0 51 -41.5 88t-127.5 61v34q102 38 153 86.5t51 107.5q0 47 -27 74.5t-73 27.5q-52 0 -90.5 -36.5t-54.5 -101.5
l-133 -536h-91l106 423h-89l19 77h89l15 61q23 93 85.5 144.5t152.5 51.5q82 0 133 -49t51 -128q0 -63 -40.5 -117.5t-117.5 -96.5z" />
    <glyph glyph-name="agrave" unicode="&#xe0;" horiz-adv-x="552" 
d="M484 247l-64 -237l-96 -20l23 86q-54 -43 -102 -63.5t-92 -20.5q-61 0 -98 35t-37 94q0 82 72.5 127t206.5 45q25 0 52.5 -2t53.5 -5l3 25.5t1 15.5q0 46 -30 72.5t-82 26.5q-42 0 -86.5 -13.5t-94.5 -42.5l-1 2l45 104q37 17 74.5 25t78.5 8q86 0 135.5 -47t49.5 -126
q0 -23 -3 -44.5t-9 -44.5zM307 234q-94 0 -146 -27.5t-52 -75.5q0 -29 18.5 -45.5t51.5 -16.5q40 0 85 17.5t101 54.5l24 88q-23 3 -43.5 4t-38.5 1zM338 772l44 -169h-40l-120 169h116z" />
    <glyph glyph-name="aacute" unicode="&#xe1;" horiz-adv-x="552" 
d="M484 247l-64 -237l-96 -20l23 86q-54 -43 -102 -63.5t-92 -20.5q-61 0 -98 35t-37 94q0 82 72.5 127t206.5 45q25 0 52.5 -2t53.5 -5l3 25.5t1 15.5q0 46 -30 72.5t-82 26.5q-42 0 -86.5 -13.5t-94.5 -42.5l-1 2l45 104q37 17 74.5 25t78.5 8q86 0 135.5 -47t49.5 -126
q0 -23 -3 -44.5t-9 -44.5zM307 234q-94 0 -146 -27.5t-52 -75.5q0 -29 18.5 -45.5t51.5 -16.5q40 0 85 17.5t101 54.5l24 88q-23 3 -43.5 4t-38.5 1zM579 770l-205 -167h-48l125 169h128v-2z" />
    <glyph glyph-name="acircumflex" unicode="&#xe2;" horiz-adv-x="552" 
d="M484 247l-64 -237l-96 -20l23 86q-54 -43 -102 -63.5t-92 -20.5q-61 0 -98 35t-37 94q0 82 72.5 127t206.5 45q25 0 52.5 -2t53.5 -5l3 25.5t1 15.5q0 46 -30 72.5t-82 26.5q-42 0 -86.5 -13.5t-94.5 -42.5l-1 2l45 104q37 17 74.5 25t78.5 8q86 0 135.5 -47t49.5 -126
q0 -23 -3 -44.5t-9 -44.5zM307 234q-94 0 -146 -27.5t-52 -75.5q0 -29 18.5 -45.5t51.5 -16.5q40 0 85 17.5t101 54.5l24 88q-23 3 -43.5 4t-38.5 1zM522 603h-41l-91 95l-142 -95h-48v2l162 167h81z" />
    <glyph glyph-name="atilde" unicode="&#xe3;" horiz-adv-x="552" 
d="M484 247l-64 -237l-96 -20l23 86q-54 -43 -102 -63.5t-92 -20.5q-61 0 -98 35t-37 94q0 82 72.5 127t206.5 45q25 0 52.5 -2t53.5 -5l3 25.5t1 15.5q0 46 -30 72.5t-82 26.5q-42 0 -86.5 -13.5t-94.5 -42.5l-1 2l45 104q37 17 74.5 25t78.5 8q86 0 135.5 -47t49.5 -126
q0 -23 -3 -44.5t-9 -44.5zM307 234q-94 0 -146 -27.5t-52 -75.5q0 -29 18.5 -45.5t51.5 -16.5q40 0 85 17.5t101 54.5l24 88q-23 3 -43.5 4t-38.5 1zM397 711q29 -19 40.5 -25t19.5 -6q13 0 29 13t60 62l38 -30q-55 -76 -81.5 -99.5t-53.5 -23.5q-13 0 -30.5 8t-52.5 32
q-29 20 -41 26t-20 6q-13 0 -29 -13t-60 -62l-38 30q55 76 81.5 99.5t53.5 23.5q13 0 30.5 -8t53.5 -33z" />
    <glyph glyph-name="adieresis" unicode="&#xe4;" horiz-adv-x="552" 
d="M484 247l-64 -237l-96 -20l23 86q-54 -43 -102 -63.5t-92 -20.5q-61 0 -98 35t-37 94q0 82 72.5 127t206.5 45q25 0 52.5 -2t53.5 -5l3 25.5t1 15.5q0 46 -30 72.5t-82 26.5q-42 0 -86.5 -13.5t-94.5 -42.5l-1 2l45 104q37 17 74.5 25t78.5 8q86 0 135.5 -47t49.5 -126
q0 -23 -3 -44.5t-9 -44.5zM307 234q-94 0 -146 -27.5t-52 -75.5q0 -29 18.5 -45.5t51.5 -16.5q40 0 85 17.5t101 54.5l24 88q-23 3 -43.5 4t-38.5 1zM334 664q0 -26 -18 -44t-44 -18t-44 18.5t-18 43.5q0 26 18 44t44 18t44 -18t18 -44zM539 664q0 -25 -18 -43.5t-44 -18.5
t-44.5 18t-18.5 44t18.5 44t44.5 18t44 -18t18 -44z" />
    <glyph glyph-name="aring" unicode="&#xe5;" horiz-adv-x="552" 
d="M484 247l-64 -237l-96 -20l23 86q-54 -43 -102 -63.5t-92 -20.5q-61 0 -98 35t-37 94q0 82 72.5 127t206.5 45q25 0 52.5 -2t53.5 -5l3 25.5t1 15.5q0 46 -30 72.5t-82 26.5q-42 0 -86.5 -13.5t-94.5 -42.5l-1 2l45 104q37 17 74.5 25t78.5 8q86 0 135.5 -47t49.5 -126
q0 -23 -3 -44.5t-9 -44.5zM307 234q-94 0 -146 -27.5t-52 -75.5q0 -29 18.5 -45.5t51.5 -16.5q40 0 85 17.5t101 54.5l24 88q-23 3 -43.5 4t-38.5 1zM506 726q0 -54 -37.5 -92t-89.5 -38q-49 0 -81.5 32.5t-32.5 80.5q0 53 37.5 92t89.5 39q49 0 81.5 -32.5t32.5 -81.5z
M310 711q0 -33 20 -53.5t51 -20.5q33 0 57 26t24 62q0 32 -20 52.5t-51 20.5q-33 0 -57 -25.5t-24 -61.5z" />
    <glyph glyph-name="ae" unicode="&#xe6;" horiz-adv-x="903" 
d="M806 124l-21 -90q-42 -23 -88 -34t-96 -11q-63 0 -111 27t-74 77q-69 -53 -128.5 -77t-123.5 -24q-67 0 -106.5 35t-39.5 94q0 82 72 127t206 45q25 0 52.5 -2t53.5 -5l3 25.5t1 15.5q0 46 -30 72.5t-82 26.5q-41 0 -85.5 -14t-94.5 -42l-1 2l45 104q37 17 74.5 25
t77.5 8q59 0 102 -23t64 -65q42 44 95.5 68.5t110.5 24.5q83 0 133.5 -53.5t50.5 -143.5q0 -26 -3.5 -52t-9.5 -50h-372v-1q0 -69 36.5 -106t103.5 -37q46 0 92.5 13.5t90.5 40.5zM776 306q0 62 -27.5 95.5t-78.5 33.5q-55 0 -106.5 -44t-71.5 -109h283q1 4 1 9v15zM307 234
q-94 0 -146 -27.5t-52 -75.5q0 -29 19 -45.5t53 -16.5q45 0 96 22t117 70q-1 10 -2 20.5t-1 21.5v15.5t1 9.5q-21 3 -42.5 4.5t-42.5 1.5z" />
    <glyph glyph-name="ccedilla" unicode="&#xe7;" horiz-adv-x="529" 
d="M319 -120q0 -36 -34 -57.5t-92 -21.5q-16 0 -32.5 2t-31.5 6l-21 47l2 3q20 -8 38.5 -11.5t36.5 -3.5q30 0 47.5 9t17.5 24q0 12 -12.5 19t-35.5 7q-11 0 -23 -1.5t-24 -3.5l-2 4l59 90q-78 14 -124 70t-46 140q0 131 88 220.5t214 89.5q46 0 89.5 -16.5t77.5 -46.5
l-19 -99h-2q-32 39 -70.5 59t-82.5 20q-66 0 -121 -46t-74 -117q-4 -16 -5.5 -30t-1.5 -28q0 -64 37.5 -100.5t103.5 -36.5q46 0 94 20.5t90 57.5l3 -2l-48 -118q-32 -19 -70 -29.5t-78 -11.5l-28 -42q34 -1 57 -19.5t23 -46.5z" />
    <glyph glyph-name="egrave" unicode="&#xe8;" horiz-adv-x="555" 
d="M459 124l-22 -90q-42 -22 -87.5 -33.5t-95.5 -11.5q-95 0 -153.5 58.5t-58.5 155.5q0 127 87 219t205 92q84 0 134.5 -53.5t50.5 -143.5q0 -24 -3.5 -50t-10.5 -52h-373v-1q0 -69 36.5 -106t104.5 -37q46 0 92.5 13.5t91.5 40.5zM429 306q0 62 -28 95.5t-79 33.5
q-56 0 -107 -43.5t-72 -109.5h285q1 4 1 9v15zM342 776l44 -169h-40l-120 169h116z" />
    <glyph glyph-name="eacute" unicode="&#xe9;" horiz-adv-x="555" 
d="M459 124l-22 -90q-42 -22 -87.5 -33.5t-95.5 -11.5q-95 0 -153.5 58.5t-58.5 155.5q0 127 87 219t205 92q84 0 134.5 -53.5t50.5 -143.5q0 -24 -3.5 -50t-10.5 -52h-373v-1q0 -69 36.5 -106t104.5 -37q46 0 92.5 13.5t91.5 40.5zM429 306q0 62 -28 95.5t-79 33.5
q-56 0 -107 -43.5t-72 -109.5h285q1 4 1 9v15zM583 774l-205 -167h-48l125 169h128v-2z" />
    <glyph glyph-name="ecircumflex" unicode="&#xea;" horiz-adv-x="555" 
d="M459 124l-22 -90q-42 -22 -87.5 -33.5t-95.5 -11.5q-95 0 -153.5 58.5t-58.5 155.5q0 127 87 219t205 92q84 0 134.5 -53.5t50.5 -143.5q0 -24 -3.5 -50t-10.5 -52h-373v-1q0 -69 36.5 -106t104.5 -37q46 0 92.5 13.5t91.5 40.5zM429 306q0 62 -28 95.5t-79 33.5
q-56 0 -107 -43.5t-72 -109.5h285q1 4 1 9v15zM524 598h-41l-91 95l-142 -95h-48v2l162 167h81z" />
    <glyph glyph-name="edieresis" unicode="&#xeb;" horiz-adv-x="555" 
d="M459 124l-22 -90q-42 -22 -87.5 -33.5t-95.5 -11.5q-95 0 -153.5 58.5t-58.5 155.5q0 127 87 219t205 92q84 0 134.5 -53.5t50.5 -143.5q0 -24 -3.5 -50t-10.5 -52h-373v-1q0 -69 36.5 -106t104.5 -37q46 0 92.5 13.5t91.5 40.5zM429 306q0 62 -28 95.5t-79 33.5
q-56 0 -107 -43.5t-72 -109.5h285q1 4 1 9v15zM338 668q0 -26 -18 -44t-44 -18t-44 18.5t-18 43.5q0 26 18 44t44 18t44 -18t18 -44zM543 668q0 -25 -18 -43.5t-44 -18.5t-44.5 18t-18.5 44t18.5 44t44.5 18t44 -18t18 -44z" />
    <glyph glyph-name="igrave" unicode="&#xec;" horiz-adv-x="266" 
d="M116 0h-91l125 500h90zM196 772l44 -169h-40l-120 169h116z" />
    <glyph glyph-name="iacute" unicode="&#xed;" horiz-adv-x="266" 
d="M116 0h-91l125 500h90zM437 770l-205 -167h-48l125 169h128v-2z" />
    <glyph glyph-name="icircumflex" unicode="&#xee;" horiz-adv-x="266" 
d="M116 0h-91l125 500h90zM378 595h-41l-91 95l-142 -95h-48v2l162 167h81z" />
    <glyph glyph-name="idieresis" unicode="&#xef;" horiz-adv-x="266" 
d="M116 0h-91l125 500h90zM192 664q0 -26 -18 -44t-44 -18t-44 18.5t-18 43.5q0 26 18 44t44 18t44 -18t18 -44zM397 664q0 -25 -18 -43.5t-44 -18.5t-44.5 18t-18.5 44t18.5 44t44.5 18t44 -18t18 -44z" />
    <glyph glyph-name="eth" unicode="&#xf0;" horiz-adv-x="601" 
d="M546 289q0 -136 -78 -219.5t-202 -83.5q-100 0 -163 61t-63 156q0 105 78 182.5t183 77.5q48 0 86.5 -15.5t67.5 -47.5q-13 53 -39 99.5t-72 96.5l-80 -67l-38 44l78 64q-19 18 -37 34.5t-37 32.5l58 54q22 -17 41.5 -34.5t36.5 -34.5l84 70l38 -44l-82 -68
q72 -81 106 -167.5t34 -190.5zM455 249q0 62 -40.5 99t-108.5 37q-58 0 -106 -38.5t-63 -97.5q-3 -12 -4 -22.5t-1 -20.5q0 -61 39 -100t101 -39q64 0 113 37.5t64 97.5q3 11 4.5 23t1.5 24z" />
    <glyph glyph-name="ntilde" unicode="&#xf1;" horiz-adv-x="596" 
d="M449 343q0 41 -22.5 63.5t-62.5 22.5q-38 0 -79 -20.5t-89 -64.5l-85 -344h-91l122 488l95 20l-22 -90q46 47 88 69.5t85 22.5q67 0 109.5 -41t42.5 -108q0 -20 -3.5 -43t-10.5 -51l-67 -267h-90l71 285q5 19 7 33t2 25zM413 711q29 -19 40.5 -25t19.5 -6q13 0 29 13
t60 62l38 -30q-55 -76 -81.5 -99.5t-53.5 -23.5q-13 0 -30.5 8t-52.5 32q-29 20 -41 26t-20 6q-13 0 -29 -13t-60 -62l-38 30q55 76 81.5 99.5t53.5 23.5q13 0 30.5 -8t53.5 -33z" />
    <glyph glyph-name="ograve" unicode="&#xf2;" horiz-adv-x="606" 
d="M564 292q0 -130 -86 -218t-209 -88q-100 0 -163 62t-63 160q0 130 86 218t209 88q100 0 163 -62t63 -160zM471 289q0 65 -38.5 104.5t-100.5 39.5q-65 0 -118.5 -46t-71.5 -117q-3 -12 -5 -27t-2 -32q0 -65 38.5 -104.5t100.5 -39.5q66 0 119.5 46t70.5 117q3 12 5 27
t2 32zM353 776l44 -169h-40l-120 169h116z" />
    <glyph glyph-name="oacute" unicode="&#xf3;" horiz-adv-x="606" 
d="M564 292q0 -130 -86 -218t-209 -88q-100 0 -163 62t-63 160q0 130 86 218t209 88q100 0 163 -62t63 -160zM471 289q0 65 -38.5 104.5t-100.5 39.5q-65 0 -118.5 -46t-71.5 -117q-3 -12 -5 -27t-2 -32q0 -65 38.5 -104.5t100.5 -39.5q66 0 119.5 46t70.5 117q3 12 5 27
t2 32zM594 774l-205 -167h-48l125 169h128v-2z" />
    <glyph glyph-name="ocircumflex" unicode="&#xf4;" horiz-adv-x="606" 
d="M564 292q0 -130 -86 -218t-209 -88q-100 0 -163 62t-63 160q0 130 86 218t209 88q100 0 163 -62t63 -160zM471 289q0 65 -38.5 104.5t-100.5 39.5q-65 0 -118.5 -46t-71.5 -117q-3 -12 -5 -27t-2 -32q0 -65 38.5 -104.5t100.5 -39.5q66 0 119.5 46t70.5 117q3 12 5 27
t2 32zM535 598h-41l-91 95l-142 -95h-48v2l162 167h81z" />
    <glyph glyph-name="otilde" unicode="&#xf5;" horiz-adv-x="606" 
d="M564 292q0 -130 -86 -218t-209 -88q-100 0 -163 62t-63 160q0 130 86 218t209 88q100 0 163 -62t63 -160zM471 289q0 65 -38.5 104.5t-100.5 39.5q-65 0 -118.5 -46t-71.5 -117q-3 -12 -5 -27t-2 -32q0 -65 38.5 -104.5t100.5 -39.5q66 0 119.5 46t70.5 117q3 12 5 27
t2 32zM412 715q29 -19 40.5 -25t19.5 -6q13 0 29 13t60 62l38 -30q-55 -76 -81.5 -99.5t-53.5 -23.5q-13 0 -30.5 8t-52.5 32q-29 20 -41 26t-20 6q-13 0 -29 -13t-60 -62l-38 30q55 76 81.5 99.5t53.5 23.5q13 0 30.5 -8t53.5 -33z" />
    <glyph glyph-name="odieresis" unicode="&#xf6;" horiz-adv-x="606" 
d="M564 292q0 -130 -86 -218t-209 -88q-100 0 -163 62t-63 160q0 130 86 218t209 88q100 0 163 -62t63 -160zM471 289q0 65 -38.5 104.5t-100.5 39.5q-65 0 -118.5 -46t-71.5 -117q-3 -12 -5 -27t-2 -32q0 -65 38.5 -104.5t100.5 -39.5q66 0 119.5 46t70.5 117q3 12 5 27
t2 32zM349 668q0 -26 -18 -44t-44 -18t-44 18.5t-18 43.5q0 26 18 44t44 18t44 -18t18 -44zM554 668q0 -25 -18 -43.5t-44 -18.5t-44.5 18t-18.5 44t18.5 44t44.5 18t44 -18t18 -44z" />
    <glyph glyph-name="divide" unicode="&#xf7;" horiz-adv-x="600" 
d="M376 493q-28 0 -48 20t-20 48t20 48t48 20t47.5 -20t19.5 -48t-19.5 -48t-47.5 -20zM85 397h500l-20 -80h-500zM275 85q-28 0 -48 20t-20 48q0 27 20 47t48 20q27 0 47 -20t20 -47q0 -28 -19.5 -48t-47.5 -20z" />
    <glyph glyph-name="oslash" unicode="&#xf8;" horiz-adv-x="606" 
d="M564 292q0 -130 -86 -218t-209 -88q-39 0 -73.5 10.5t-63.5 30.5l-68 -71h-87v2l109 114q-21 29 -32 63.5t-11 72.5q0 130 86 218t209 88q38 0 72.5 -10.5t63.5 -30.5l68 71h88v-2l-109 -114q21 -29 32 -63.5t11 -72.5zM139 267q-4 -13 -5.5 -26.5t-1.5 -29.5
q0 -21 4.5 -40.5t12.5 -35.5l266 279q-17 11 -38 17t-45 6q-65 0 -120.5 -48.5t-72.5 -121.5zM468 233q4 13 5.5 27t1.5 29q0 21 -4.5 40.5t-12.5 35.5l-267 -279q17 -11 38 -17t45 -6q66 0 121 48.5t73 121.5z" />
    <glyph glyph-name="ugrave" unicode="&#xf9;" horiz-adv-x="596" 
d="M452 0h-91l20 81q-46 -47 -88 -69t-85 -22q-67 0 -109.5 41.5t-42.5 107.5q0 17 3 38t11 56l67 267h91l-71 -285q-5 -19 -7 -33t-2 -25q0 -41 22 -63.5t62 -22.5q38 0 79 20.5t89 63.5l86 345h90zM347 766l44 -169h-40l-120 169h116z" />
    <glyph glyph-name="uacute" unicode="&#xfa;" horiz-adv-x="596" 
d="M452 0h-91l20 81q-46 -47 -88 -69t-85 -22q-67 0 -109.5 41.5t-42.5 107.5q0 17 3 38t11 56l67 267h91l-71 -285q-5 -19 -7 -33t-2 -25q0 -41 22 -63.5t62 -22.5q38 0 79 20.5t89 63.5l86 345h90zM588 764l-205 -167h-48l125 169h128v-2z" />
    <glyph glyph-name="ucircumflex" unicode="&#xfb;" horiz-adv-x="596" 
d="M452 0h-91l20 81q-46 -47 -88 -69t-85 -22q-67 0 -109.5 41.5t-42.5 107.5q0 17 3 38t11 56l67 267h91l-71 -285q-5 -19 -7 -33t-2 -25q0 -41 22 -63.5t62 -22.5q38 0 79 20.5t89 63.5l86 345h90zM531 603h-41l-91 95l-142 -95h-48v2l162 167h81z" />
    <glyph glyph-name="udieresis" unicode="&#xfc;" horiz-adv-x="596" 
d="M452 0h-91l20 81q-46 -47 -88 -69t-85 -22q-67 0 -109.5 41.5t-42.5 107.5q0 17 3 38t11 56l67 267h91l-71 -285q-5 -19 -7 -33t-2 -25q0 -41 22 -63.5t62 -22.5q38 0 79 20.5t89 63.5l86 345h90zM343 664q0 -26 -18 -44t-44 -18t-44 18.5t-18 43.5q0 26 18 44t44 18
t44 -18t18 -44zM548 664q0 -25 -18 -43.5t-44 -18.5t-44.5 18t-18.5 44t18.5 44t44.5 18t44 -18t18 -44z" />
    <glyph glyph-name="yacute" unicode="&#xfd;" horiz-adv-x="546" 
d="M586 500l-371 -574q-42 -64 -86.5 -93t-100.5 -29q-22 0 -39.5 4t-31.5 12l-23 93l3 2q17 -13 36.5 -19.5t44.5 -6.5q39 0 68.5 19t56.5 61l40 62l-99 469h93l72 -375l235 375h102zM566 765l-205 -167h-48l125 169h128v-2z" />
    <glyph glyph-name="thorn" unicode="&#xfe;" horiz-adv-x="611" 
d="M476 80q-43 -42 -96.5 -65t-110.5 -23q-42 0 -79.5 11.5t-68.5 33.5l-57 -228h-91l228 916l99 34l-82 -331q44 43 86 62.5t89 19.5q78 0 128 -54.5t50 -141.5q0 -66 -24.5 -127t-70.5 -107zM479 307q0 57 -30.5 89.5t-82.5 32.5q-40 0 -80 -17.5t-86 -54.5l-60 -243
q27 -21 58 -31.5t66 -10.5q72 0 131 50t77 127q3 13 5 27.5t2 30.5z" />
    <glyph glyph-name="ydieresis" unicode="&#xff;" horiz-adv-x="546" 
d="M586 500l-371 -574q-42 -64 -86.5 -93t-100.5 -29q-22 0 -39.5 4t-31.5 12l-23 93l3 2q17 -13 36.5 -19.5t44.5 -6.5q39 0 68.5 19t56.5 61l40 62l-99 469h93l72 -375l235 375h102zM323 664q0 -26 -18 -44t-44 -18t-44 18.5t-18 43.5q0 26 18 44t44 18t44 -18t18 -44z
M528 664q0 -25 -18 -43.5t-44 -18.5t-44.5 18t-18.5 44t18.5 44t44.5 18t44 -18t18 -44z" />
    <glyph glyph-name="Amacron" unicode="&#x100;" horiz-adv-x="783" 
d="M77 0h-108l489 704h93l139 -704h-97l-33 180h-360zM484 596l-226 -331h287zM341 796l17 68h356l-16 -68h-357z" />
    <glyph glyph-name="amacron" unicode="&#x101;" horiz-adv-x="552" 
d="M484 247l-64 -237l-96 -20l23 86q-54 -43 -102 -63.5t-92 -20.5q-61 0 -98 35t-37 94q0 82 72.5 127t206.5 45q25 0 52.5 -2t53.5 -5l3 25.5t1 15.5q0 46 -30 72.5t-82 26.5q-42 0 -86.5 -13.5t-94.5 -42.5l-1 2l45 104q37 17 74.5 25t78.5 8q86 0 135.5 -47t49.5 -126
q0 -23 -3 -44.5t-9 -44.5zM307 234q-94 0 -146 -27.5t-52 -75.5q0 -29 18.5 -45.5t51.5 -16.5q40 0 85 17.5t101 54.5l24 88q-23 3 -43.5 4t-38.5 1zM198 628l17 68h335l-17 -68h-335z" />
    <glyph glyph-name="Abreve" unicode="&#x102;" horiz-adv-x="783" 
d="M77 0h-108l489 704h93l139 -704h-97l-33 180h-360zM484 596l-226 -331h287zM523 772q-59 0 -101.5 32t-56.5 87l43 29q19 -37 50 -55.5t73 -18.5q40 0 77 17.5t80 56.5l39 -29q-36 -56 -90 -87.5t-114 -31.5z" />
    <glyph glyph-name="abreve" unicode="&#x103;" horiz-adv-x="552" 
d="M484 247l-64 -237l-96 -20l23 86q-54 -43 -102 -63.5t-92 -20.5q-61 0 -98 35t-37 94q0 82 72.5 127t206.5 45q25 0 52.5 -2t53.5 -5l3 25.5t1 15.5q0 46 -30 72.5t-82 26.5q-42 0 -86.5 -13.5t-94.5 -42.5l-1 2l45 104q37 17 74.5 25t78.5 8q86 0 135.5 -47t49.5 -126
q0 -23 -3 -44.5t-9 -44.5zM307 234q-94 0 -146 -27.5t-52 -75.5q0 -29 18.5 -45.5t51.5 -16.5q40 0 85 17.5t101 54.5l24 88q-23 3 -43.5 4t-38.5 1zM378 675q40 0 76 20.5t72 64.5l38 -30q-32 -62 -83 -97.5t-109 -35.5q-54 0 -95 36.5t-54 96.5l42 30q19 -42 48 -63.5
t65 -21.5z" />
    <glyph glyph-name="Aogonek" unicode="&#x104;" horiz-adv-x="783" 
d="M77 0h-108l489 704h93l139 -704h-18l-37 -43q-24 -28 -31.5 -41.5t-7.5 -24.5q0 -17 19 -26t57 -9h16l-25 -42q-16 -4 -31 -6t-28 -2q-38 0 -61.5 18.5t-23.5 47.5q0 23 14.5 46t47.5 54l32 28h-20l-33 180h-360zM484 596l-226 -331h287z" />
    <glyph glyph-name="aogonek" unicode="&#x105;" horiz-adv-x="552" 
d="M408 -144l-25 -42q-16 -4 -31 -6t-29 -2q-37 0 -61 18.5t-24 47.5q0 22 14.5 45t48.5 55l24 21l22 83q-54 -43 -102 -63.5t-92 -20.5q-61 0 -98 35t-37 94q0 82 72.5 127t206.5 45q25 0 52.5 -2t53.5 -5l3 25.5t1 15.5q0 46 -30 72.5t-82 26.5q-42 0 -86.5 -13.5
t-94.5 -42.5l-1 2l45 104q37 17 74.5 25t78.5 8q86 0 135.5 -47t49.5 -126q0 -23 -3 -44.5t-9 -44.5l-64 -237l-23 -5l-42 -48q-23 -26 -31 -40t-8 -26q0 -17 19 -26t57 -9h16zM307 234q-94 0 -146 -27.5t-52 -75.5q0 -29 18.5 -45.5t51.5 -16.5q40 0 85 17.5t101 54.5
l24 88q-23 3 -43.5 4t-38.5 1z" />
    <glyph glyph-name="Cacute" unicode="&#x106;" horiz-adv-x="716" 
d="M656 195l3 -2l-56 -138q-44 -33 -100 -50t-120 -17q-134 0 -219.5 85t-85.5 220q0 84 30.5 160t86.5 135q58 59 133.5 91.5t157.5 32.5q74 0 136 -28t111 -84l-22 -112h-2q-48 67 -105.5 100.5t-122.5 33.5q-100 0 -184.5 -69.5t-110.5 -174.5q-4 -19 -6.5 -38t-2.5 -39
q0 -98 61.5 -160.5t157.5 -62.5q65 0 129 28.5t131 88.5zM733 916l-200 -139h-56l115 141h141v-2z" />
    <glyph glyph-name="cacute" unicode="&#x107;" horiz-adv-x="529" 
d="M463 147l-48 -118q-33 -20 -73.5 -30.5t-81.5 -10.5q-97 0 -157.5 59t-60.5 155q0 131 88 220.5t214 89.5q46 0 89.5 -16.5t77.5 -46.5l-19 -99h-2q-32 39 -70.5 59t-82.5 20q-66 0 -121 -46t-74 -117q-4 -16 -5.5 -30t-1.5 -28q0 -64 37.5 -100.5t103.5 -36.5
q46 0 94 20.5t90 57.5zM583 774l-205 -167h-48l125 169h128v-2z" />
    <glyph glyph-name="Ccircumflex" unicode="&#x108;" horiz-adv-x="716" 
d="M656 195l3 -2l-56 -138q-44 -33 -100 -50t-120 -17q-134 0 -219.5 85t-85.5 220q0 84 30.5 160t86.5 135q58 59 133.5 91.5t157.5 32.5q74 0 136 -28t111 -84l-22 -112h-2q-48 67 -105.5 100.5t-122.5 33.5q-100 0 -184.5 -69.5t-110.5 -174.5q-4 -19 -6.5 -38t-2.5 -39
q0 -98 61.5 -160.5t157.5 -62.5q65 0 129 28.5t131 88.5zM683 772h-50l-98 75l-137 -75h-57v1l161 140h88z" />
    <glyph glyph-name="ccircumflex" unicode="&#x109;" horiz-adv-x="529" 
d="M463 147l-48 -118q-33 -20 -73.5 -30.5t-81.5 -10.5q-97 0 -157.5 59t-60.5 155q0 131 88 220.5t214 89.5q46 0 89.5 -16.5t77.5 -46.5l-19 -99h-2q-32 39 -70.5 59t-82.5 20q-66 0 -121 -46t-74 -117q-4 -16 -5.5 -30t-1.5 -28q0 -64 37.5 -100.5t103.5 -36.5
q46 0 94 20.5t90 57.5zM524 598h-41l-91 95l-142 -95h-48v2l162 167h81z" />
    <glyph glyph-name="Cdotaccent" unicode="&#x10a;" horiz-adv-x="716" 
d="M656 195l3 -2l-56 -138q-44 -33 -100 -50t-120 -17q-134 0 -219.5 85t-85.5 220q0 84 30.5 160t86.5 135q58 59 133.5 91.5t157.5 32.5q74 0 136 -28t111 -84l-22 -112h-2q-48 67 -105.5 100.5t-122.5 33.5q-100 0 -184.5 -69.5t-110.5 -174.5q-4 -19 -6.5 -38t-2.5 -39
q0 -98 61.5 -160.5t157.5 -62.5q65 0 129 28.5t131 88.5zM527 901q26 0 44.5 -18.5t18.5 -44.5t-18.5 -44.5t-44.5 -18.5q-27 0 -45 18t-18 45t18 45t45 18z" />
    <glyph glyph-name="cdotaccent" unicode="&#x10b;" horiz-adv-x="529" 
d="M463 147l-48 -118q-33 -20 -73.5 -30.5t-81.5 -10.5q-97 0 -157.5 59t-60.5 155q0 131 88 220.5t214 89.5q46 0 89.5 -16.5t77.5 -46.5l-19 -99h-2q-32 39 -70.5 59t-82.5 20q-66 0 -121 -46t-74 -117q-4 -16 -5.5 -30t-1.5 -28q0 -64 37.5 -100.5t103.5 -36.5
q46 0 94 20.5t90 57.5zM379 606q-26 0 -44 18t-18 44t18 44t44 18t44 -18t18 -44t-18 -44t-44 -18z" />
    <glyph glyph-name="Ccaron" unicode="&#x10c;" horiz-adv-x="716" 
d="M656 195l3 -2l-56 -138q-44 -33 -100 -50t-120 -17q-134 0 -219.5 85t-85.5 220q0 84 30.5 160t86.5 135q58 59 133.5 91.5t157.5 32.5q74 0 136 -28t111 -84l-22 -112h-2q-48 67 -105.5 100.5t-122.5 33.5q-100 0 -184.5 -69.5t-110.5 -174.5q-4 -19 -6.5 -38t-2.5 -39
q0 -98 61.5 -160.5t157.5 -62.5q65 0 129 28.5t131 88.5zM719 915v-2l-162 -139h-87l-93 141h50l98 -75l136 75h58z" />
    <glyph glyph-name="ccaron" unicode="&#x10d;" horiz-adv-x="529" 
d="M463 147l-48 -118q-33 -20 -73.5 -30.5t-81.5 -10.5q-97 0 -157.5 59t-60.5 155q0 131 88 220.5t214 89.5q46 0 89.5 -16.5t77.5 -46.5l-19 -99h-2q-32 39 -70.5 59t-82.5 20q-66 0 -121 -46t-74 -117q-4 -16 -5.5 -30t-1.5 -28q0 -64 37.5 -100.5t103.5 -36.5
q46 0 94 20.5t90 57.5zM567 776v-2l-162 -167h-81l-79 169h41l91 -95l142 95h48z" />
    <glyph glyph-name="Dcaron" unicode="&#x10e;" horiz-adv-x="778" 
d="M752 406q0 -176 -134.5 -291t-336.5 -115h-243l174 700h185q167 0 261 -78t94 -216zM653 396q0 103 -70.5 159.5t-198.5 56.5h-98l-131 -524h120q137 0 240 67t130 174q4 17 6 33.5t2 33.5zM714 910v-2l-162 -139h-87l-93 141h50l98 -75l136 75h58z" />
    <glyph glyph-name="dcaron" unicode="&#x10f;" horiz-adv-x="611" 
d="M467 0h-91l18 72q-45 -43 -87 -62.5t-88 -19.5q-79 0 -129 54.5t-50 141.5q0 67 25 127.5t71 106.5q42 42 95.5 65t110.5 23q42 0 80 -11t69 -33l65 261l100 34zM140 251q-3 -13 -5 -27.5t-2 -30.5q0 -57 30 -89.5t83 -32.5q39 0 79 17.5t86 54.5l61 243q-27 21 -58 31.5
t-66 10.5q-72 0 -130.5 -50t-77.5 -127zM703 549h-44v2q28 32 42 69t14 77q0 14 -1.5 27t-4.5 26h86q1 -62 -21 -110t-71 -91z" />
    <glyph glyph-name="Dcroat" unicode="&#x110;" horiz-adv-x="798" 
d="M772 406q0 -176 -134.5 -291t-336.5 -115h-243l80 323h-96l17 69h96l77 308h185q167 0 261 -78t94 -216zM440 392l-17 -69h-189l-59 -235h120q137 0 240 67t130 174q4 17 6 33.5t2 33.5q0 103 -70.5 159.5t-198.5 56.5h-98l-55 -220h189z" />
    <glyph glyph-name="dcroat" unicode="&#x111;" horiz-adv-x="620" 
d="M467 0h-91l18 72q-45 -43 -87 -62.5t-88 -19.5q-79 0 -129 54.5t-50 141.5q0 67 24.5 126t70.5 104q41 42 94.5 64.5t112.5 22.5q41 0 78.5 -11t69.5 -33l32 128h-147l14 60h148l19 78l100 34l-28 -112h80l-15 -60h-80zM141 253q-4 -15 -6 -30.5t-2 -29.5q0 -57 30 -89.5
t83 -32.5q39 0 79 17.5t86 54.5l59 238q-27 21 -57.5 31.5t-65.5 10.5q-70 0 -128.5 -48t-77.5 -122z" />
    <glyph glyph-name="Emacron" unicode="&#x112;" horiz-adv-x="578" 
d="M439 0h-401l174 700h411l-23 -87h-313l-54 -214h262l-22 -86h-261l-57 -226h337zM258 796l17 68h356l-16 -68h-357z" />
    <glyph glyph-name="emacron" unicode="&#x113;" horiz-adv-x="555" 
d="M459 124l-22 -90q-42 -22 -87.5 -33.5t-95.5 -11.5q-95 0 -153.5 58.5t-58.5 155.5q0 127 87 219t205 92q84 0 134.5 -53.5t50.5 -143.5q0 -24 -3.5 -50t-10.5 -52h-373v-1q0 -69 36.5 -106t104.5 -37q46 0 92.5 13.5t91.5 40.5zM429 306q0 62 -28 95.5t-79 33.5
q-56 0 -107 -43.5t-72 -109.5h285q1 4 1 9v15zM202 632l17 68h335l-17 -68h-335z" />
    <glyph glyph-name="Ebreve" unicode="&#x114;" horiz-adv-x="578" 
d="M439 0h-401l174 700h411l-23 -87h-313l-54 -214h262l-22 -86h-261l-57 -226h337zM440 772q-59 0 -101.5 32t-56.5 87l43 29q19 -37 50 -55.5t73 -18.5q40 0 77 17.5t80 56.5l39 -29q-36 -56 -90 -87.5t-114 -31.5z" />
    <glyph glyph-name="ebreve" unicode="&#x115;" horiz-adv-x="555" 
d="M459 124l-22 -90q-42 -22 -87.5 -33.5t-95.5 -11.5q-95 0 -153.5 58.5t-58.5 155.5q0 127 87 219t205 92q84 0 134.5 -53.5t50.5 -143.5q0 -24 -3.5 -50t-10.5 -52h-373v-1q0 -69 36.5 -106t104.5 -37q46 0 92.5 13.5t91.5 40.5zM429 306q0 62 -28 95.5t-79 33.5
q-56 0 -107 -43.5t-72 -109.5h285q1 4 1 9v15zM382 679q40 0 76 20.5t72 64.5l38 -30q-32 -62 -83 -97.5t-109 -35.5q-54 0 -95 36.5t-54 96.5l42 30q19 -42 48 -63.5t65 -21.5z" />
    <glyph glyph-name="Edotaccent" unicode="&#x116;" horiz-adv-x="578" 
d="M439 0h-401l174 700h411l-23 -87h-313l-54 -214h262l-22 -86h-261l-57 -226h337zM446 896q26 0 44.5 -18.5t18.5 -44.5t-18.5 -44.5t-44.5 -18.5q-27 0 -45 18t-18 45t18 45t45 18z" />
    <glyph glyph-name="edotaccent" unicode="&#x117;" horiz-adv-x="555" 
d="M459 124l-22 -90q-42 -22 -87.5 -33.5t-95.5 -11.5q-95 0 -153.5 58.5t-58.5 155.5q0 127 87 219t205 92q84 0 134.5 -53.5t50.5 -143.5q0 -24 -3.5 -50t-10.5 -52h-373v-1q0 -69 36.5 -106t104.5 -37q46 0 92.5 13.5t91.5 40.5zM429 306q0 62 -28 95.5t-79 33.5
q-56 0 -107 -43.5t-72 -109.5h285q1 4 1 9v15zM379 606q-26 0 -44 18t-18 44t18 44t44 18t44 -18t18 -44t-18 -44t-44 -18z" />
    <glyph glyph-name="Eogonek" unicode="&#x118;" horiz-adv-x="578" 
d="M422 -144l-25 -42q-17 -4 -32 -6t-28 -2q-38 0 -61.5 18.5t-23.5 47.5q0 23 14.5 46t48.5 54l31 28h-308l174 700h411l-23 -87h-313l-54 -214h262l-22 -86h-261l-57 -226h337l-53 -87h-33l-38 -43q-22 -26 -30 -40t-8 -26q0 -17 19 -26t56 -9h17z" />
    <glyph glyph-name="eogonek" unicode="&#x119;" horiz-adv-x="555" 
d="M351 -144l-25 -42q-16 -4 -31 -6t-29 -2q-37 0 -61 18.5t-24 47.5q0 27 20 51.5t60 46.5l39 22q-11 -2 -22.5 -2.5t-23.5 -0.5q-95 0 -153.5 58.5t-58.5 155.5q0 127 87 219t205 92q84 0 134.5 -53.5t50.5 -143.5q0 -24 -3.5 -50t-10.5 -52h-373v-1q0 -69 36.5 -106
t104.5 -37q46 0 92.5 13.5t91.5 40.5l2 -1l-22 -90l-126 -86q-29 -19 -40.5 -32t-11.5 -25q0 -17 19 -26t57 -9h16zM429 306q0 62 -28 95.5t-79 33.5q-56 0 -107 -43.5t-72 -109.5h285q1 4 1 9v15z" />
    <glyph glyph-name="Ecaron" unicode="&#x11a;" horiz-adv-x="578" 
d="M439 0h-401l174 700h411l-23 -87h-313l-54 -214h262l-22 -86h-261l-57 -226h337zM638 910v-2l-162 -139h-87l-93 141h50l98 -75l136 75h58z" />
    <glyph glyph-name="ecaron" unicode="&#x11b;" horiz-adv-x="555" 
d="M459 124l-22 -90q-42 -22 -87.5 -33.5t-95.5 -11.5q-95 0 -153.5 58.5t-58.5 155.5q0 127 87 219t205 92q84 0 134.5 -53.5t50.5 -143.5q0 -24 -3.5 -50t-10.5 -52h-373v-1q0 -69 36.5 -106t104.5 -37q46 0 92.5 13.5t91.5 40.5zM429 306q0 62 -28 95.5t-79 33.5
q-56 0 -107 -43.5t-72 -109.5h285q1 4 1 9v15zM567 776v-2l-162 -167h-81l-79 169h41l91 -95l142 95h48z" />
    <glyph glyph-name="Gcircumflex" unicode="&#x11c;" horiz-adv-x="791" 
d="M728 364l-79 -305q-58 -34 -123 -51.5t-134 -17.5q-142 0 -228 82.5t-86 218.5q0 89 33 166.5t95 135.5q61 56 140.5 86.5t167.5 30.5q74 0 141 -18.5t121 -54.5l-24 -95h-2q-53 37 -115 57t-126 20q-117 0 -207 -68.5t-116 -175.5q-5 -18 -7.5 -37t-2.5 -39
q0 -101 60.5 -160t164.5 -59q46 0 87.5 9.5t79.5 27.5l43 159h-208l22 88h303zM690 772h-50l-98 75l-137 -75h-57v1l161 140h88z" />
    <glyph glyph-name="gcircumflex" unicode="&#x11d;" horiz-adv-x="611" 
d="M591 499l-121 -485q-26 -106 -93.5 -158t-177.5 -52q-55 0 -104.5 13t-88.5 38l-17 102l3 2q49 -36 101.5 -54t106.5 -18q72 0 118.5 35.5t66.5 107.5l19 67q-47 -45 -91.5 -66t-93.5 -21q-78 0 -127 52t-49 137q0 62 23 118t67 100q45 44 104 67.5t125 23.5
q40 0 75 -7.5t71 -23.5l73 24zM142 257q-3 -14 -4.5 -26.5t-1.5 -26.5q0 -55 29 -85t82 -30q40 0 81.5 19t88.5 58l60 239q-29 13 -57 19.5t-57 6.5q-76 0 -139 -49.5t-82 -124.5zM545 603h-41l-91 95l-142 -95h-48v2l162 167h81z" />
    <glyph glyph-name="Gbreve" unicode="&#x11e;" horiz-adv-x="791" 
d="M728 364l-79 -305q-58 -34 -123 -51.5t-134 -17.5q-142 0 -228 82.5t-86 218.5q0 89 33 166.5t95 135.5q61 56 140.5 86.5t167.5 30.5q74 0 141 -18.5t121 -54.5l-24 -95h-2q-53 37 -115 57t-126 20q-117 0 -207 -68.5t-116 -175.5q-5 -18 -7.5 -37t-2.5 -39
q0 -101 60.5 -160t164.5 -59q46 0 87.5 9.5t79.5 27.5l43 159h-208l22 88h303zM528 777q-59 0 -101.5 32t-56.5 87l43 29q19 -37 50 -55.5t73 -18.5q40 0 77 17.5t80 56.5l39 -29q-36 -56 -90 -87.5t-114 -31.5z" />
    <glyph glyph-name="gbreve" unicode="&#x11f;" horiz-adv-x="611" 
d="M591 499l-121 -485q-26 -106 -93.5 -158t-177.5 -52q-55 0 -104.5 13t-88.5 38l-17 102l3 2q49 -36 101.5 -54t106.5 -18q72 0 118.5 35.5t66.5 107.5l19 67q-47 -45 -91.5 -66t-93.5 -21q-78 0 -127 52t-49 137q0 62 23 118t67 100q45 44 104 67.5t125 23.5
q40 0 75 -7.5t71 -23.5l73 24zM142 257q-3 -14 -4.5 -26.5t-1.5 -26.5q0 -55 29 -85t82 -30q40 0 81.5 19t88.5 58l60 239q-29 13 -57 19.5t-57 6.5q-76 0 -139 -49.5t-82 -124.5zM401 675q40 0 76 20.5t72 64.5l38 -30q-32 -62 -83 -97.5t-109 -35.5q-54 0 -95 36.5
t-54 96.5l42 30q19 -42 48 -63.5t65 -21.5z" />
    <glyph glyph-name="Gdotaccent" unicode="&#x120;" horiz-adv-x="791" 
d="M728 364l-79 -305q-58 -34 -123 -51.5t-134 -17.5q-142 0 -228 82.5t-86 218.5q0 89 33 166.5t95 135.5q61 56 140.5 86.5t167.5 30.5q74 0 141 -18.5t121 -54.5l-24 -95h-2q-53 37 -115 57t-126 20q-117 0 -207 -68.5t-116 -175.5q-5 -18 -7.5 -37t-2.5 -39
q0 -101 60.5 -160t164.5 -59q46 0 87.5 9.5t79.5 27.5l43 159h-208l22 88h303zM534 901q26 0 44.5 -18.5t18.5 -44.5t-18.5 -44.5t-44.5 -18.5q-27 0 -45 18t-18 45t18 45t45 18z" />
    <glyph glyph-name="gdotaccent" unicode="&#x121;" horiz-adv-x="611" 
d="M591 499l-121 -485q-26 -106 -93.5 -158t-177.5 -52q-55 0 -104.5 13t-88.5 38l-17 102l3 2q49 -36 101.5 -54t106.5 -18q72 0 118.5 35.5t66.5 107.5l19 67q-47 -45 -91.5 -66t-93.5 -21q-78 0 -127 52t-49 137q0 62 23 118t67 100q45 44 104 67.5t125 23.5
q40 0 75 -7.5t71 -23.5l73 24zM142 257q-3 -14 -4.5 -26.5t-1.5 -26.5q0 -55 29 -85t82 -30q40 0 81.5 19t88.5 58l60 239q-29 13 -57 19.5t-57 6.5q-76 0 -139 -49.5t-82 -124.5zM398 602q-26 0 -44 18t-18 44t18 44t44 18t44 -18t18 -44t-18 -44t-44 -18z" />
    <glyph glyph-name="uni0122" unicode="&#x122;" horiz-adv-x="791" 
d="M728 364l-79 -305q-58 -34 -123 -51.5t-134 -17.5q-142 0 -228 82.5t-86 218.5q0 89 33 166.5t95 135.5q61 56 140.5 86.5t167.5 30.5q74 0 141 -18.5t121 -54.5l-24 -95h-2q-53 37 -115 57t-126 20q-117 0 -207 -68.5t-116 -175.5q-5 -18 -7.5 -37t-2.5 -39
q0 -101 60.5 -160t164.5 -59q46 0 87.5 9.5t79.5 27.5l43 159h-208l22 88h303zM261 -115l99 28q25 -11 38 -27t13 -35q0 -31 -33.5 -58.5t-101.5 -51.5l-46 19v3q45 21 64.5 37.5t19.5 33.5q0 13 -13 25t-40 23v3z" />
    <glyph glyph-name="uni0123" unicode="&#x123;" horiz-adv-x="611" 
d="M591 499l-121 -485q-26 -106 -93.5 -158t-177.5 -52q-55 0 -104.5 13t-88.5 38l-17 102l3 2q49 -36 101.5 -54t106.5 -18q72 0 118.5 35.5t66.5 107.5l19 67q-47 -45 -91.5 -66t-93.5 -21q-78 0 -127 52t-49 137q0 62 23 118t67 100q45 44 104 67.5t125 23.5
q40 0 75 -7.5t71 -23.5l73 24zM142 257q-3 -14 -4.5 -26.5t-1.5 -26.5q0 -55 29 -85t82 -30q40 0 81.5 19t88.5 58l60 239q-29 13 -57 19.5t-57 6.5q-76 0 -139 -49.5t-82 -124.5zM468 627l-100 -29q-26 14 -37.5 30t-11.5 36q0 34 35 64.5t103 56.5l45 -20v-3
q-46 -25 -66.5 -44t-20.5 -37q0 -13 11 -24t42 -27v-3z" />
    <glyph glyph-name="Hcircumflex" unicode="&#x124;" horiz-adv-x="805" 
d="M642 0h-96l78 313h-412l-78 -313h-96l174 700h96l-74 -298h412l74 298h96zM698 772h-50l-98 75l-137 -75h-57v1l161 140h88z" />
    <glyph glyph-name="hcircumflex" unicode="&#x125;" horiz-adv-x="596" 
d="M449 343q0 41 -22.5 63.5t-62.5 22.5q-38 0 -79 -21t-88 -64l-86 -344h-91l181 725l99 34l-85 -340q46 47 88 69t85 22q67 0 109.5 -41t42.5 -108q0 -20 -3.5 -43t-10.5 -51l-67 -267h-90l71 285q5 19 7 33t2 25zM428 815h-41l-91 95l-142 -95h-48v2l162 167h81z" />
    <glyph glyph-name="Hbar" unicode="&#x126;" horiz-adv-x="845" 
d="M662 0h-96l69 278h-412l-69 -278h-96l129 518h-97l17 69h97l28 113h96l-28 -113h412l28 113h96l-28 -113h97l-18 -69h-96zM283 519l-38 -152h412l38 152h-412z" />
    <glyph glyph-name="hbar" unicode="&#x127;" horiz-adv-x="605" 
d="M457 338q0 40 -22.5 62.5t-62.5 22.5q-38 0 -79.5 -21t-88.5 -64l-84 -338h-91l146 587h-80l15 60h80l19 78l100 34l-28 -112h147l-15 -60h-147l-43 -174q47 48 88.5 70t84.5 22q67 0 109.5 -41.5t42.5 -107.5q0 -20 -3.5 -43t-10.5 -51l-66 -262h-90l70 280
q4 17 6.5 31.5t2.5 26.5z" />
    <glyph glyph-name="Itilde" unicode="&#x128;" horiz-adv-x="306" 
d="M139 0h-96l174 700h96zM312 870q26 -17 37.5 -22t19.5 -5q15 0 33.5 14t53.5 51l35 -30q-42 -59 -70.5 -83t-56.5 -24q-13 0 -29 6.5t-48 27.5q-27 18 -39 23t-20 5q-14 0 -32 -13.5t-54 -51.5l-36 30q42 59 71 83t57 24q13 0 29 -6.5t49 -28.5z" />
    <glyph glyph-name="itilde" unicode="&#x129;" horiz-adv-x="266" 
d="M116 0h-91l125 500h90zM255 711q29 -19 40.5 -25t19.5 -6q13 0 29 13t60 62l38 -30q-55 -76 -81.5 -99.5t-53.5 -23.5q-13 0 -30.5 8t-52.5 32q-29 20 -41 26t-20 6q-13 0 -29 -13t-60 -62l-38 30q55 76 81.5 99.5t53.5 23.5q13 0 30.5 -8t53.5 -33z" />
    <glyph glyph-name="Imacron" unicode="&#x12a;" horiz-adv-x="306" 
d="M139 0h-96l174 700h96zM147 796l17 68h277l-17 -68h-277z" />
    <glyph glyph-name="imacron" unicode="&#x12b;" horiz-adv-x="266" 
d="M116 0h-91l125 500h90zM86 628l16 68h276l-17 -68h-275z" />
    <glyph glyph-name="Ibreve" unicode="&#x12c;" horiz-adv-x="306" 
d="M139 0h-96l174 700h96zM289 772q-59 0 -101.5 32t-56.5 87l43 29q19 -37 50 -55.5t73 -18.5q40 0 77 17.5t80 56.5l39 -29q-36 -56 -90 -87.5t-114 -31.5z" />
    <glyph glyph-name="ibreve" unicode="&#x12d;" horiz-adv-x="266" 
d="M116 0h-91l125 500h90zM236 675q40 0 76 20.5t72 64.5l38 -30q-32 -62 -83 -97.5t-109 -35.5q-54 0 -95 36.5t-54 96.5l42 30q19 -42 48 -63.5t65 -21.5z" />
    <glyph glyph-name="Iogonek" unicode="&#x12e;" horiz-adv-x="306" 
d="M139 -144l-25 -42q-16 -4 -31 -6t-29 -2q-37 0 -61 18.5t-24 47.5q0 22 14.5 45t48.5 55l32 28h-21l174 700h96l-174 -700h-16l-37 -43q-24 -28 -31.5 -41.5t-7.5 -24.5q0 -17 19 -26t57 -9h16z" />
    <glyph glyph-name="iogonek" unicode="&#x12f;" horiz-adv-x="266" 
d="M237 741q26 0 44 -18t18 -44t-18 -44t-44 -18t-44 18t-18 44t18 44t44 18zM119 -144l-25 -42q-16 -4 -31 -6t-29 -2q-38 0 -61.5 18.5t-23.5 47.5q0 22 14.5 45t48.5 55l31 28h-18l125 500h90l-124 -500h-13l-37 -43q-23 -26 -31 -40t-8 -26q0 -17 19 -26t56 -9h17z" />
    <glyph glyph-name="Idotaccent" unicode="&#x130;" horiz-adv-x="306" 
d="M139 0h-96l174 700h96zM295 896q26 0 44.5 -18.5t18.5 -44.5t-18.5 -44.5t-44.5 -18.5q-27 0 -45 18t-18 45t18 45t45 18z" />
    <glyph glyph-name="dotlessi" unicode="&#x131;" horiz-adv-x="266" 
d="M116 0h-91l125 500h90z" />
    <glyph glyph-name="Jcircumflex" unicode="&#x134;" horiz-adv-x="458" 
d="M136 80q43 0 72 26t42 75l129 519h96l-135 -541q-21 -86 -70 -127.5t-129 -41.5q-35 0 -65 10t-54 29l-17 115l4 1q30 -33 60.5 -49t66.5 -16zM614 768h-50l-98 75l-137 -75h-57v1l161 140h88z" />
    <glyph glyph-name="jcircumflex" unicode="&#x135;" horiz-adv-x="268" 
d="M152 500h90l-137 -553q-18 -73 -58 -108t-108 -35q-15 0 -28 2t-24 5l-12 79l2 2q9 -5 20.5 -7.5t25.5 -2.5q40 0 62.5 19t32.5 61zM380 595h-41l-91 95l-142 -95h-48v2l162 167h81z" />
    <glyph glyph-name="uni0136" unicode="&#x136;" horiz-adv-x="689" 
d="M607 0h-118l-253 316h-23l-79 -316h-96l174 700h96l-75 -301h24l386 301h131v-3l-451 -347l284 -347v-3zM211 -105l99 28q25 -11 38 -27t13 -35q0 -31 -33.5 -58.5t-101.5 -51.5l-46 19v3q45 21 64.5 37.5t19.5 33.5q0 13 -13 25t-40 23v3z" />
    <glyph glyph-name="uni0137" unicode="&#x137;" horiz-adv-x="543" 
d="M469 0h-106l-169 220h-28l-55 -220h-91l181 725l99 34l-117 -471h27l250 212h120v-3l-303 -252l192 -243v-2zM146 -105l99 28q25 -11 38 -27t13 -35q0 -31 -33.5 -58.5t-101.5 -51.5l-46 19v3q45 21 64.5 37.5t19.5 33.5q0 13 -13 25t-40 23v3z" />
    <glyph glyph-name="Lacute" unicode="&#x139;" horiz-adv-x="533" 
d="M155 87h300l-22 -87h-395l174 700h96zM496 911l-200 -139h-56l115 141h141v-2z" />
    <glyph glyph-name="lacute" unicode="&#x13a;" horiz-adv-x="266" 
d="M116 0h-91l181 725l99 34zM491 990l-205 -167h-48l125 169h128v-2z" />
    <glyph glyph-name="uni013B" unicode="&#x13b;" horiz-adv-x="533" 
d="M155 87h300l-22 -87h-395l174 700h96zM141 -110l99 28q25 -11 38 -27t13 -35q0 -31 -33.5 -58.5t-101.5 -51.5l-46 19v3q45 21 64.5 37.5t19.5 33.5q0 13 -13 25t-40 23v3z" />
    <glyph glyph-name="uni013C" unicode="&#x13c;" horiz-adv-x="266" 
d="M116 0h-91l181 725l99 34zM-34 -110l99 28q25 -11 38 -27t13 -35q0 -31 -33.5 -58.5t-101.5 -51.5l-46 19v3q45 21 64.5 37.5t19.5 33.5q0 13 -13 25t-40 23v3z" />
    <glyph glyph-name="Lcaron" unicode="&#x13d;" horiz-adv-x="533" 
d="M155 87h300l-22 -87h-395l174 700h96zM384 548h-44v2q28 32 42 69t14 77q0 14 -1.5 27t-4.5 26h86q1 -62 -21 -110t-71 -91z" />
    <glyph glyph-name="lcaron" unicode="&#x13e;" horiz-adv-x="266" 
d="M116 0h-91l181 725l99 34zM352 549h-44v2q28 32 42 69t14 77q0 14 -1.5 27t-4.5 26h86q1 -62 -21 -110t-71 -91z" />
    <glyph glyph-name="Lslash" unicode="&#x141;" horiz-adv-x="553" 
d="M175 87h300l-22 -87h-395l62 250l-112 -70l-2 1l23 91l114 70l89 358h96l-74 -297l194 122l2 -1l-23 -91l-196 -121z" />
    <glyph glyph-name="lslash" unicode="&#x142;" horiz-adv-x="312" 
d="M361 508l-22 -84l-110 -63l-90 -361h-90l77 311l-109 -63l-1 1l21 84l110 63l82 329l99 34l-78 -312l109 62z" />
    <glyph glyph-name="Nacute" unicode="&#x143;" horiz-adv-x="817" 
d="M129 0h-91l174 700h89l308 -513l128 513h91l-175 -705h-33l-348 579zM745 900l-200 -139h-56l115 141h141v-2z" />
    <glyph glyph-name="nacute" unicode="&#x144;" horiz-adv-x="596" 
d="M449 343q0 41 -22.5 63.5t-62.5 22.5q-38 0 -79 -20.5t-89 -64.5l-85 -344h-91l122 488l95 20l-22 -90q46 47 88 69.5t85 22.5q67 0 109.5 -41t42.5 -108q0 -20 -3.5 -43t-10.5 -51l-67 -267h-90l71 285q5 19 7 33t2 25zM595 770l-205 -167h-48l125 169h128v-2z" />
    <glyph glyph-name="uni0145" unicode="&#x145;" horiz-adv-x="817" 
d="M129 0h-91l174 700h89l308 -513l128 513h91l-175 -705h-33l-348 579zM266 -99l99 28q25 -11 38 -27t13 -35q0 -31 -33.5 -58.5t-101.5 -51.5l-46 19v3q45 21 64.5 37.5t19.5 33.5q0 13 -13 25t-40 23v3z" />
    <glyph glyph-name="uni0146" unicode="&#x146;" horiz-adv-x="596" 
d="M449 343q0 41 -22.5 63.5t-62.5 22.5q-38 0 -79 -20.5t-89 -64.5l-85 -344h-91l122 488l95 20l-22 -90q46 47 88 69.5t85 22.5q67 0 109.5 -41t42.5 -108q0 -20 -3.5 -43t-10.5 -51l-67 -267h-90l71 285q5 19 7 33t2 25zM148 -104l99 28q25 -11 38 -27t13 -35
q0 -31 -33.5 -58.5t-101.5 -51.5l-46 19v3q45 21 64.5 37.5t19.5 33.5q0 13 -13 25t-40 23v3z" />
    <glyph glyph-name="Ncaron" unicode="&#x147;" horiz-adv-x="817" 
d="M129 0h-91l174 700h89l308 -513l128 513h91l-175 -705h-33l-348 579zM731 899v-2l-162 -139h-87l-93 141h50l98 -75l136 75h58z" />
    <glyph glyph-name="ncaron" unicode="&#x148;" horiz-adv-x="596" 
d="M449 343q0 41 -22.5 63.5t-62.5 22.5q-38 0 -79 -20.5t-89 -64.5l-85 -344h-91l122 488l95 20l-22 -90q46 47 88 69.5t85 22.5q67 0 109.5 -41t42.5 -108q0 -20 -3.5 -43t-10.5 -51l-67 -267h-90l71 285q5 19 7 33t2 25zM579 772v-2l-162 -167h-81l-79 169h41l91 -95
l142 95h48z" />
    <glyph glyph-name="Eng" unicode="&#x14a;" horiz-adv-x="817" 
d="M129 0h-91l174 700h89l303 -536l133 536h91l-176 -708q-24 -95 -77.5 -141.5t-139.5 -46.5q-25 0 -46.5 3.5t-38.5 11.5l-16 92l2 1q23 -12 44 -17.5t45 -5.5q56 0 91 32t51 98l5 21l-300 533z" />
    <glyph glyph-name="eng" unicode="&#x14b;" horiz-adv-x="596" 
d="M526 267l-79 -320q-18 -73 -58.5 -108t-108.5 -35q-14 0 -27 1.5t-24 5.5l-13 79l2 2q10 -5 21.5 -7.5t24.5 -2.5q40 0 62.5 19t33.5 61l80 323q5 19 7 33t2 25q0 41 -22.5 63.5t-62.5 22.5q-38 0 -79 -20.5t-89 -64.5l-85 -344h-91l122 488l95 20l-22 -90q46 47 88 69.5
t85 22.5q67 0 109.5 -41t42.5 -108q0 -20 -3.5 -43t-10.5 -51z" />
    <glyph glyph-name="Omacron" unicode="&#x14c;" horiz-adv-x="834" 
d="M685 109q-58 -59 -134 -91t-158 -32q-138 0 -225.5 86.5t-87.5 224.5q0 84 30.5 160t88.5 134q57 59 133 91t158 32q138 0 225.5 -86.5t87.5 -224.5q0 -84 -30.5 -160t-87.5 -134zM178 302q0 -102 62.5 -164t162.5 -62q101 0 183.5 68t108.5 173q5 19 7.5 39t2.5 42
q0 102 -62.5 164t-161.5 62q-101 0 -184 -68t-108 -173q-6 -18 -8.5 -38t-2.5 -43zM349 801l17 68h356l-16 -68h-357z" />
    <glyph glyph-name="omacron" unicode="&#x14d;" horiz-adv-x="606" 
d="M564 292q0 -130 -86 -218t-209 -88q-100 0 -163 62t-63 160q0 130 86 218t209 88q100 0 163 -62t63 -160zM471 289q0 65 -38.5 104.5t-100.5 39.5q-65 0 -118.5 -46t-71.5 -117q-3 -12 -5 -27t-2 -32q0 -65 38.5 -104.5t100.5 -39.5q66 0 119.5 46t70.5 117q3 12 5 27
t2 32zM213 632l17 68h335l-17 -68h-335z" />
    <glyph glyph-name="Obreve" unicode="&#x14e;" horiz-adv-x="834" 
d="M685 109q-58 -59 -134 -91t-158 -32q-138 0 -225.5 86.5t-87.5 224.5q0 84 30.5 160t88.5 134q57 59 133 91t158 32q138 0 225.5 -86.5t87.5 -224.5q0 -84 -30.5 -160t-87.5 -134zM178 302q0 -102 62.5 -164t162.5 -62q101 0 183.5 68t108.5 173q5 19 7.5 39t2.5 42
q0 102 -62.5 164t-161.5 62q-101 0 -184 -68t-108 -173q-6 -18 -8.5 -38t-2.5 -43zM531 777q-59 0 -101.5 32t-56.5 87l43 29q19 -37 50 -55.5t73 -18.5q40 0 77 17.5t80 56.5l39 -29q-36 -56 -90 -87.5t-114 -31.5z" />
    <glyph glyph-name="obreve" unicode="&#x14f;" horiz-adv-x="606" 
d="M564 292q0 -130 -86 -218t-209 -88q-100 0 -163 62t-63 160q0 130 86 218t209 88q100 0 163 -62t63 -160zM471 289q0 65 -38.5 104.5t-100.5 39.5q-65 0 -118.5 -46t-71.5 -117q-3 -12 -5 -27t-2 -32q0 -65 38.5 -104.5t100.5 -39.5q66 0 119.5 46t70.5 117q3 12 5 27
t2 32zM393 679q40 0 76 20.5t72 64.5l38 -30q-32 -62 -83 -97.5t-109 -35.5q-54 0 -95 36.5t-54 96.5l42 30q19 -42 48 -63.5t65 -21.5z" />
    <glyph glyph-name="Ohungarumlaut" unicode="&#x150;" horiz-adv-x="834" 
d="M685 109q-58 -59 -134 -91t-158 -32q-138 0 -225.5 86.5t-87.5 224.5q0 84 30.5 160t88.5 134q57 59 133 91t158 32q138 0 225.5 -86.5t87.5 -224.5q0 -84 -30.5 -160t-87.5 -134zM178 302q0 -102 62.5 -164t162.5 -62q101 0 183.5 68t108.5 173q5 19 7.5 39t2.5 42
q0 102 -62.5 164t-161.5 62q-101 0 -184 -68t-108 -173q-6 -18 -8.5 -38t-2.5 -43zM628 916l-191 -139h-55l116 141h130v-2zM817 916l-191 -139h-55l115 141h131v-2z" />
    <glyph glyph-name="ohungarumlaut" unicode="&#x151;" horiz-adv-x="606" 
d="M564 292q0 -130 -86 -218t-209 -88q-100 0 -163 62t-63 160q0 130 86 218t209 88q100 0 163 -62t63 -160zM471 289q0 65 -38.5 104.5t-100.5 39.5q-65 0 -118.5 -46t-71.5 -117q-3 -12 -5 -27t-2 -32q0 -65 38.5 -104.5t100.5 -39.5q66 0 119.5 46t70.5 117q3 12 5 27
t2 32zM481 774l-196 -167h-48l125 169h119v-2zM669 774l-196 -167h-48l125 169h119v-2z" />
    <glyph glyph-name="OE" unicode="&#x152;" horiz-adv-x="1001" 
d="M914 87l-52 -87h-431q-167 0 -261 78t-94 216q0 176 134.5 291t336.5 115h498l-22 -87h-314l-53 -214h262l-22 -86h-261l-57 -226h336zM175 304q0 -103 70.5 -159.5t198.5 -56.5h39l130 524h-60q-137 0 -240 -66.5t-130 -173.5q-4 -18 -6 -34.5t-2 -33.5z" />
    <glyph glyph-name="oe" unicode="&#x153;" horiz-adv-x="971" 
d="M669 -11q-61 0 -108 28t-72 80q-40 -53 -98.5 -82t-123.5 -29q-99 0 -161.5 62t-62.5 160q0 130 85.5 218t208.5 88q65 0 116 -31t78 -86q41 55 98.5 86t120.5 31q83 0 133.5 -53.5t50.5 -143.5q0 -26 -3.5 -52t-9.5 -50h-373v-1q0 -69 36.5 -106t103.5 -37q46 0 93 13.5
t92 40.5l2 -1l-22 -90q-42 -23 -88 -34t-96 -11zM845 306q0 62 -28 95.5t-80 33.5q-55 0 -106 -43.5t-72 -109.5h285q1 4 1 9v15zM469 289q0 65 -38 104.5t-100 39.5q-64 0 -117.5 -46t-71.5 -117q-3 -12 -5 -27t-2 -32q0 -65 38 -104.5t100 -39.5q65 0 118.5 46t70.5 117
q3 12 5 27t2 32z" />
    <glyph glyph-name="Racute" unicode="&#x154;" horiz-adv-x="632" 
d="M581 0h-111l-194 280h-73l-69 -280h-96l174 700h179q98 0 154.5 -48.5t56.5 -132.5q0 -89 -61.5 -151.5t-161.5 -78.5zM504 511q0 49 -32.5 76t-91.5 27h-95l-62 -249h106q75 0 125 41.5t50 104.5zM660 911l-200 -139h-56l115 141h141v-2z" />
    <glyph glyph-name="racute" unicode="&#x155;" horiz-adv-x="406" 
d="M380 412q-41 0 -85 -21.5t-105 -72.5l-79 -318h-91l122 488l95 20l-30 -121q67 73 105 97t81 24q9 0 19 -1.5t20 -3.5l-15 -96q-9 3 -17.5 4t-19.5 1zM531 770l-205 -167h-48l125 169h128v-2z" />
    <glyph glyph-name="uni0156" unicode="&#x156;" horiz-adv-x="632" 
d="M581 0h-111l-194 280h-73l-69 -280h-96l174 700h179q98 0 154.5 -48.5t56.5 -132.5q0 -89 -61.5 -151.5t-161.5 -78.5zM504 511q0 49 -32.5 76t-91.5 27h-95l-62 -249h106q75 0 125 41.5t50 104.5zM200 -105l99 28q25 -11 38 -27t13 -35q0 -31 -33.5 -58.5t-101.5 -51.5
l-46 19v3q45 21 64.5 37.5t19.5 33.5q0 13 -13 25t-40 23v3z" />
    <glyph glyph-name="uni0157" unicode="&#x157;" horiz-adv-x="406" 
d="M380 412q-41 0 -85 -21.5t-105 -72.5l-79 -318h-91l122 488l95 20l-30 -121q67 73 105 97t81 24q9 0 19 -1.5t20 -3.5l-15 -96q-9 3 -17.5 4t-19.5 1zM-34 -110l99 28q25 -11 38 -27t13 -35q0 -31 -33.5 -58.5t-101.5 -51.5l-46 19v3q45 21 64.5 37.5t19.5 33.5
q0 13 -13 25t-40 23v3z" />
    <glyph glyph-name="Rcaron" unicode="&#x158;" horiz-adv-x="632" 
d="M581 0h-111l-194 280h-73l-69 -280h-96l174 700h179q98 0 154.5 -48.5t56.5 -132.5q0 -89 -61.5 -151.5t-161.5 -78.5zM504 511q0 49 -32.5 76t-91.5 27h-95l-62 -249h106q75 0 125 41.5t50 104.5zM646 910v-2l-162 -139h-87l-93 141h50l98 -75l136 75h58z" />
    <glyph glyph-name="rcaron" unicode="&#x159;" horiz-adv-x="406" 
d="M380 412q-41 0 -85 -21.5t-105 -72.5l-79 -318h-91l122 488l95 20l-30 -121q67 73 105 97t81 24q9 0 19 -1.5t20 -3.5l-15 -96q-9 3 -17.5 4t-19.5 1zM515 772v-2l-162 -167h-81l-79 169h41l91 -95l142 95h48z" />
    <glyph glyph-name="Sacute" unicode="&#x15a;" horiz-adv-x="550" 
d="M136 512q0 87 64.5 143.5t166.5 56.5q48 0 94.5 -13t86.5 -38v-108l-2 -1q-42 34 -88 52t-94 18q-59 0 -96.5 -28t-37.5 -71q0 -34 22.5 -61.5t86.5 -67.5q82 -52 114 -96t32 -104q0 -92 -65 -149t-169 -57q-57 0 -112 21.5t-94 57.5l-25 134l2 1q57 -61 115.5 -92.5
t114.5 -31.5q61 0 99.5 29t38.5 76q0 36 -21.5 63t-86.5 69q-82 52 -114 95.5t-32 101.5zM619 916l-200 -139h-56l115 141h141v-2z" />
    <glyph glyph-name="sacute" unicode="&#x15b;" horiz-adv-x="493" 
d="M231 213q-78 30 -110 64t-32 86q0 65 54.5 106.5t140.5 41.5q46 0 89 -12.5t80 -36.5v-97l-3 -1q-43 34 -85.5 50.5t-86.5 16.5q-45 0 -73 -17t-28 -44q0 -25 20.5 -42.5t75.5 -38.5q76 -30 108.5 -64.5t32.5 -85.5q0 -67 -56 -108.5t-147 -41.5q-50 0 -98 14.5t-81 40.5
l-16 104l2 2q43 -39 95 -60t105 -21q47 0 77.5 17.5t30.5 44.5q0 24 -21 42t-74 40zM544 772l-205 -167h-48l125 169h128v-2z" />
    <glyph glyph-name="Scircumflex" unicode="&#x15c;" horiz-adv-x="550" 
d="M136 512q0 87 64.5 143.5t166.5 56.5q48 0 94.5 -13t86.5 -38v-108l-2 -1q-42 34 -88 52t-94 18q-59 0 -96.5 -28t-37.5 -71q0 -34 22.5 -61.5t86.5 -67.5q82 -52 114 -96t32 -104q0 -92 -65 -149t-169 -57q-57 0 -112 21.5t-94 57.5l-25 134l2 1q57 -61 115.5 -92.5
t114.5 -31.5q61 0 99.5 29t38.5 76q0 36 -21.5 63t-86.5 69q-82 52 -114 95.5t-32 101.5zM569 772h-50l-98 75l-137 -75h-57v1l161 140h88z" />
    <glyph glyph-name="scircumflex" unicode="&#x15d;" horiz-adv-x="493" 
d="M231 213q-78 30 -110 64t-32 86q0 65 54.5 106.5t140.5 41.5q46 0 89 -12.5t80 -36.5v-97l-3 -1q-43 34 -85.5 50.5t-86.5 16.5q-45 0 -73 -17t-28 -44q0 -25 20.5 -42.5t75.5 -38.5q76 -30 108.5 -64.5t32.5 -85.5q0 -67 -56 -108.5t-147 -41.5q-50 0 -98 14.5t-81 40.5
l-16 104l2 2q43 -39 95 -60t105 -21q47 0 77.5 17.5t30.5 44.5q0 24 -21 42t-74 40zM486 598h-41l-91 95l-142 -95h-48v2l162 167h81z" />
    <glyph glyph-name="uni015E" unicode="&#x15e;" horiz-adv-x="550" 
d="M312 -121q0 -36 -34 -57.5t-93 -21.5q-17 0 -33 2.5t-30 6.5l-21 47l1 2q20 -7 38 -10.5t38 -3.5q31 0 48 8.5t17 23.5q0 13 -13 20t-36 7q-5 0 -11 -0.5t-35 -4.5l-2 4l59 90q-45 6 -87 26t-73 49l-25 134l2 1q57 -61 115.5 -92.5t114.5 -31.5q61 0 99.5 29t38.5 76
q0 36 -21.5 63t-86.5 69q-82 52 -114 95.5t-32 101.5q0 87 64.5 143.5t166.5 56.5q48 0 94.5 -13t86.5 -38v-108l-2 -1q-42 34 -88 52t-94 18q-59 0 -96.5 -28t-37.5 -71q0 -34 22.5 -61.5t86.5 -67.5q82 -52 114 -96t32 -104q0 -90 -62 -146.5t-163 -59.5l-29 -43
q36 -1 58.5 -19.5t22.5 -46.5z" />
    <glyph glyph-name="uni015F" unicode="&#x15f;" horiz-adv-x="493" 
d="M276 -118q0 -36 -34.5 -57.5t-92.5 -21.5q-17 0 -33 2.5t-30 6.5l-21 47l1 3q19 -8 37 -11.5t39 -3.5q30 0 47.5 9t17.5 24q0 12 -13 19t-36 7q-11 0 -23 -1.5t-23 -3.5l-2 4l58 87q-39 5 -74.5 18.5t-61.5 33.5l-16 104l2 2q43 -39 95 -60t105 -21q47 0 77.5 17.5
t30.5 44.5q0 24 -21 42t-74 40q-78 30 -110 64t-32 86q0 65 54.5 106.5t140.5 41.5q46 0 89 -12.5t80 -36.5v-97l-3 -1q-43 34 -85.5 50.5t-86.5 16.5q-45 0 -73 -17t-28 -44q0 -25 20.5 -42.5t75.5 -38.5q76 -30 108.5 -64.5t32.5 -85.5q0 -65 -52.5 -106t-138.5 -44
l-27 -40q35 -1 57.5 -19.5t22.5 -47.5z" />
    <glyph glyph-name="Scaron" unicode="&#x160;" horiz-adv-x="550" 
d="M136 512q0 87 64.5 143.5t166.5 56.5q48 0 94.5 -13t86.5 -38v-108l-2 -1q-42 34 -88 52t-94 18q-59 0 -96.5 -28t-37.5 -71q0 -34 22.5 -61.5t86.5 -67.5q82 -52 114 -96t32 -104q0 -92 -65 -149t-169 -57q-57 0 -112 21.5t-94 57.5l-25 134l2 1q57 -61 115.5 -92.5
t114.5 -31.5q61 0 99.5 29t38.5 76q0 36 -21.5 63t-86.5 69q-82 52 -114 95.5t-32 101.5zM605 915v-2l-162 -139h-87l-93 141h50l98 -75l136 75h58z" />
    <glyph glyph-name="scaron" unicode="&#x161;" horiz-adv-x="493" 
d="M231 213q-78 30 -110 64t-32 86q0 65 54.5 106.5t140.5 41.5q46 0 89 -12.5t80 -36.5v-97l-3 -1q-43 34 -85.5 50.5t-86.5 16.5q-45 0 -73 -17t-28 -44q0 -25 20.5 -42.5t75.5 -38.5q76 -30 108.5 -64.5t32.5 -85.5q0 -67 -56 -108.5t-147 -41.5q-50 0 -98 14.5t-81 40.5
l-16 104l2 2q43 -39 95 -60t105 -21q47 0 77.5 17.5t30.5 44.5q0 24 -21 42t-74 40zM528 774v-2l-162 -167h-81l-79 169h41l91 -95l142 95h48z" />
    <glyph glyph-name="uni0162" unicode="&#x162;" horiz-adv-x="700" 
d="M368 -116q0 -36 -34 -57.5t-93 -21.5q-16 0 -32.5 2.5t-30.5 6.5l-21 47l2 2q19 -7 37 -10.5t38 -3.5q31 0 48 8.5t17 23.5q0 13 -12.5 20t-35.5 7q-6 0 -13 -0.5t-34 -4.5l-2 4l62 93h-22l152 613h-270l23 87h631l-22 -87h-266l-152 -613h-17l-33 -50q34 -1 57 -19.5
t23 -46.5z" />
    <glyph glyph-name="uni0163" unicode="&#x163;" horiz-adv-x="445" 
d="M292 -116q0 -36 -33.5 -57.5t-92.5 -21.5q-17 0 -33 2.5t-31 6.5l-21 47l2 2q20 -7 38 -10.5t38 -3.5q30 0 47 8.5t17 23.5q0 13 -12.5 20t-35.5 7q-5 0 -16.5 -1.5t-30.5 -3.5l-2 4l61 90q-45 14 -69.5 50t-24.5 87q0 17 2 33t7 33l60 223h-85l20 77h86l30 111l98 34
l-39 -145h192l-19 -77h-194l-64 -237q-3 -12 -4.5 -22.5t-1.5 -20.5q0 -33 21.5 -53t56.5 -20q30 0 60 12.5t60 38.5l2 -2l-30 -101q-25 -15 -52.5 -22t-57.5 -7h-1.5h-1.5l-26 -39q35 -1 57.5 -19.5t22.5 -46.5z" />
    <glyph glyph-name="Tcaron" unicode="&#x164;" horiz-adv-x="700" 
d="M778 700l-22 -87h-266l-152 -613h-96l152 613h-270l23 87h631zM686 910v-2l-162 -139h-87l-93 141h50l98 -75l136 75h58z" />
    <glyph glyph-name="tcaron" unicode="&#x165;" horiz-adv-x="445" 
d="M381 119l-30 -101q-25 -15 -52.5 -22t-57.5 -7q-68 0 -108 39t-40 106q0 17 2 33t7 33l60 223h-85l20 77h86l30 111l98 34l-39 -145h192l-19 -77h-194l-64 -237q-3 -12 -4.5 -22.5t-1.5 -20.5q0 -33 21.5 -53t56.5 -20q30 0 60 12.5t60 38.5zM398 569h-44v2q28 32 42 69
t14 77q0 14 -1.5 27t-4.5 26h86q1 -62 -21 -110t-71 -91z" />
    <glyph glyph-name="Tbar" unicode="&#x166;" horiz-adv-x="700" 
d="M585 371l-18 -70h-154l-75 -301h-96l75 301h-155l18 70h154l60 242h-270l23 87h631l-22 -87h-266l-60 -242h155z" />
    <glyph glyph-name="tbar" unicode="&#x167;" horiz-adv-x="445" 
d="M381 119l-30 -101q-25 -15 -52.5 -22t-57.5 -7q-68 0 -108 39t-40 106q0 17 2 33t7 33l11 42h-80l15 60h82l32 121h-85l20 77h86l30 111l98 34l-39 -145h192l-19 -77h-194l-33 -121h162l-15 -60h-163l-15 -56q-3 -12 -4.5 -22.5t-1.5 -20.5q0 -34 21 -53.5t57 -19.5
q30 0 60 12.5t60 38.5z" />
    <glyph glyph-name="Utilde" unicode="&#x168;" horiz-adv-x="781" 
d="M99 235q0 22 3.5 47.5t9.5 52.5l91 365h96l-93 -374q-5 -23 -8 -44t-3 -38q0 -78 45.5 -122.5t126.5 -44.5q87 0 151 55.5t88 154.5l103 413h93l-106 -427q-35 -140 -121.5 -212.5t-217.5 -72.5q-117 0 -187.5 67.5t-70.5 179.5zM548 870q26 -17 37.5 -22t19.5 -5
q15 0 33.5 14t53.5 51l35 -30q-42 -59 -70.5 -83t-56.5 -24q-13 0 -29 6.5t-48 27.5q-27 18 -39 23t-20 5q-14 0 -32 -13.5t-54 -51.5l-36 30q42 59 71 83t57 24q13 0 29 -6.5t49 -28.5z" />
    <glyph glyph-name="utilde" unicode="&#x169;" horiz-adv-x="596" 
d="M452 0h-91l20 81q-46 -47 -88 -69t-85 -22q-67 0 -109.5 41.5t-42.5 107.5q0 17 3 38t11 56l67 267h91l-71 -285q-5 -19 -7 -33t-2 -25q0 -41 22 -63.5t62 -22.5q38 0 79 20.5t89 63.5l86 345h90zM406 711q29 -19 40.5 -25t19.5 -6q13 0 29 13t60 62l38 -30
q-55 -76 -81.5 -99.5t-53.5 -23.5q-13 0 -30.5 8t-52.5 32q-29 20 -41 26t-20 6q-13 0 -29 -13t-60 -62l-38 30q55 76 81.5 99.5t53.5 23.5q13 0 30.5 -8t53.5 -33z" />
    <glyph glyph-name="Umacron" unicode="&#x16a;" horiz-adv-x="781" 
d="M99 235q0 22 3.5 47.5t9.5 52.5l91 365h96l-93 -374q-5 -23 -8 -44t-3 -38q0 -78 45.5 -122.5t126.5 -44.5q87 0 151 55.5t88 154.5l103 413h93l-106 -427q-35 -140 -121.5 -212.5t-217.5 -72.5q-117 0 -187.5 67.5t-70.5 179.5zM343 796l17 68h356l-16 -68h-357z" />
    <glyph glyph-name="umacron" unicode="&#x16b;" horiz-adv-x="596" 
d="M452 0h-91l20 81q-46 -47 -88 -69t-85 -22q-67 0 -109.5 41.5t-42.5 107.5q0 17 3 38t11 56l67 267h91l-71 -285q-5 -19 -7 -33t-2 -25q0 -41 22 -63.5t62 -22.5q38 0 79 20.5t89 63.5l86 345h90zM207 628l17 68h335l-17 -68h-335z" />
    <glyph glyph-name="Ubreve" unicode="&#x16c;" horiz-adv-x="781" 
d="M99 235q0 22 3.5 47.5t9.5 52.5l91 365h96l-93 -374q-5 -23 -8 -44t-3 -38q0 -78 45.5 -122.5t126.5 -44.5q87 0 151 55.5t88 154.5l103 413h93l-106 -427q-35 -140 -121.5 -212.5t-217.5 -72.5q-117 0 -187.5 67.5t-70.5 179.5zM521 761q-59 0 -101.5 32t-56.5 87l43 29
q19 -37 50 -55.5t73 -18.5q40 0 77 17.5t80 56.5l39 -29q-36 -56 -90 -87.5t-114 -31.5z" />
    <glyph glyph-name="ubreve" unicode="&#x16d;" horiz-adv-x="596" 
d="M452 0h-91l20 81q-46 -47 -88 -69t-85 -22q-67 0 -109.5 41.5t-42.5 107.5q0 17 3 38t11 56l67 267h91l-71 -285q-5 -19 -7 -33t-2 -25q0 -41 22 -63.5t62 -22.5q38 0 79 20.5t89 63.5l86 345h90zM387 669q40 0 76 20.5t72 64.5l38 -30q-32 -62 -83 -97.5t-109 -35.5
q-54 0 -95 36.5t-54 96.5l42 30q19 -42 48 -63.5t65 -21.5z" />
    <glyph glyph-name="Uring" unicode="&#x16e;" horiz-adv-x="781" 
d="M99 235q0 22 3.5 47.5t9.5 52.5l91 365h96l-93 -374q-5 -23 -8 -44t-3 -38q0 -78 45.5 -122.5t126.5 -44.5q87 0 151 55.5t88 154.5l103 413h93l-106 -427q-35 -140 -121.5 -212.5t-217.5 -72.5q-117 0 -187.5 67.5t-70.5 179.5zM418 874q0 54 38.5 92.5t91.5 38.5
q50 0 83 -33t33 -82q0 -54 -38.5 -92.5t-91.5 -38.5q-50 0 -83 33t-33 82zM463 875q0 -33 20.5 -54t52.5 -21q34 0 59 26.5t25 62.5q0 32 -21 53t-53 21q-34 0 -58.5 -26t-24.5 -62z" />
    <glyph glyph-name="uring" unicode="&#x16f;" horiz-adv-x="596" 
d="M452 0h-91l20 81q-46 -47 -88 -69t-85 -22q-67 0 -109.5 41.5t-42.5 107.5q0 17 3 38t11 56l67 267h91l-71 -285q-5 -19 -7 -33t-2 -25q0 -41 22 -63.5t62 -22.5q38 0 79 20.5t89 63.5l86 345h90zM515 720q0 -54 -37.5 -92t-89.5 -38q-49 0 -81.5 32.5t-32.5 80.5
q0 53 37.5 92t89.5 39q49 0 81.5 -32.5t32.5 -81.5zM319 705q0 -33 20 -53.5t51 -20.5q33 0 57 26t24 62q0 32 -20 52.5t-51 20.5q-33 0 -57 -25.5t-24 -61.5z" />
    <glyph glyph-name="Uhungarumlaut" unicode="&#x170;" horiz-adv-x="781" 
d="M99 235q0 22 3.5 47.5t9.5 52.5l91 365h96l-93 -374q-5 -23 -8 -44t-3 -38q0 -78 45.5 -122.5t126.5 -44.5q87 0 151 55.5t88 154.5l103 413h93l-106 -427q-35 -140 -121.5 -212.5t-217.5 -72.5q-117 0 -187.5 67.5t-70.5 179.5zM622 911l-191 -139h-55l116 141h130v-2z
M811 911l-191 -139h-55l115 141h131v-2z" />
    <glyph glyph-name="uhungarumlaut" unicode="&#x171;" horiz-adv-x="596" 
d="M452 0h-91l20 81q-46 -47 -88 -69t-85 -22q-67 0 -109.5 41.5t-42.5 107.5q0 17 3 38t11 56l67 267h91l-71 -285q-5 -19 -7 -33t-2 -25q0 -41 22 -63.5t62 -22.5q38 0 79 20.5t89 63.5l86 345h90zM475 770l-196 -167h-48l125 169h119v-2zM663 770l-196 -167h-48l125 169
h119v-2z" />
    <glyph glyph-name="Uogonek" unicode="&#x172;" horiz-adv-x="781" 
d="M383 -149l-26 -42q-16 -4 -31 -6t-28 -2q-38 0 -61.5 18.5t-23.5 47.5q0 23 14.5 46t48.5 54l28 25q-95 15 -150 80t-55 163q0 22 3.5 47.5t9.5 52.5l91 365h96l-93 -374q-5 -23 -8 -44t-3 -38q0 -78 45.5 -122.5t126.5 -44.5q87 0 151 55.5t88 154.5l103 413h93
l-106 -427q-35 -140 -121 -212.5t-215 -72.5l-31 -36q-24 -28 -31.5 -41.5t-7.5 -24.5q0 -17 19 -26t57 -9h17z" />
    <glyph glyph-name="uogonek" unicode="&#x173;" horiz-adv-x="596" 
d="M455 -144l-25 -42q-17 -4 -32 -6t-28 -2q-38 0 -61.5 18.5t-23.5 47.5q0 23 14.5 46t48.5 54l31 28h-18l20 81q-46 -47 -88 -69t-85 -22q-67 0 -109.5 41.5t-42.5 107.5q0 17 3 38t11 56l67 267h91l-71 -285q-5 -19 -7 -33t-2 -25q0 -41 22 -63.5t62 -22.5q38 0 79 20.5
t89 63.5l86 345h90l-124 -500h-13l-38 -43q-22 -26 -30 -40t-8 -26q0 -17 19 -26t56 -9h17z" />
    <glyph glyph-name="Wcircumflex" unicode="&#x174;" horiz-adv-x="1169" 
d="M1136 700h111l-419 -704h-95l-93 506l-325 -506h-99l-67 704h100l46 -581l379 589h18l109 -588zM872 772h-50l-98 75l-137 -75h-57v1l161 140h88z" />
    <glyph glyph-name="wcircumflex" unicode="&#x175;" horiz-adv-x="876" 
d="M814 500h100l-314 -507h-80l-65 333l-228 -333h-78l-64 507h91l40 -391l271 397h17l77 -397zM677 603h-41l-91 95l-142 -95h-48v2l162 167h81z" />
    <glyph glyph-name="Ycircumflex" unicode="&#x176;" horiz-adv-x="658" 
d="M756 700v-2l-367 -392l-76 -306h-97l79 317l-171 383h101l132 -305l282 305h117zM618 772h-50l-98 75l-137 -75h-57v1l161 140h88z" />
    <glyph glyph-name="ycircumflex" unicode="&#x177;" horiz-adv-x="546" 
d="M586 500l-371 -574q-42 -64 -86.5 -93t-100.5 -29q-22 0 -39.5 4t-31.5 12l-23 93l3 2q17 -13 36.5 -19.5t44.5 -6.5q39 0 68.5 19t56.5 61l40 62l-99 469h93l72 -375l235 375h102zM511 603h-41l-91 95l-142 -95h-48v2l162 167h81z" />
    <glyph glyph-name="Ydieresis" unicode="&#x178;" horiz-adv-x="658" 
d="M756 700v-2l-367 -392l-76 -306h-97l79 317l-171 383h101l132 -305l282 305h117zM357 896q26 0 44 -18.5t18 -44.5t-18 -44.5t-44 -18.5q-27 0 -45 18t-18 45t18 45t45 18zM562 896q27 0 45 -18t18 -45t-18 -45t-45 -18q-26 0 -44.5 18.5t-18.5 44.5t18.5 44.5t44.5 18.5
z" />
    <glyph glyph-name="Zacute" unicode="&#x179;" horiz-adv-x="691" 
d="M175 87h444l-61 -87h-563l-7 16l569 597h-411l23 87h567l8 -16zM672 911l-200 -139h-56l115 141h141v-2z" />
    <glyph glyph-name="zacute" unicode="&#x17a;" horiz-adv-x="527" 
d="M145 78h315l-58 -78h-427l-5 15l398 407h-277l19 78h428l5 -15zM562 770l-205 -167h-48l125 169h128v-2z" />
    <glyph glyph-name="Zdotaccent" unicode="&#x17b;" horiz-adv-x="691" 
d="M175 87h444l-61 -87h-563l-7 16l569 597h-411l23 87h567l8 -16zM466 896q26 0 44.5 -18.5t18.5 -44.5t-18.5 -44.5t-44.5 -18.5q-27 0 -45 18t-18 45t18 45t45 18z" />
    <glyph glyph-name="zdotaccent" unicode="&#x17c;" horiz-adv-x="527" 
d="M145 78h315l-58 -78h-427l-5 15l398 407h-277l19 78h428l5 -15zM358 602q-26 0 -44 18t-18 44t18 44t44 18t44 -18t18 -44t-18 -44t-44 -18z" />
    <glyph glyph-name="Zcaron" unicode="&#x17d;" horiz-adv-x="691" 
d="M175 87h444l-61 -87h-563l-7 16l569 597h-411l23 87h567l8 -16zM658 910v-2l-162 -139h-87l-93 141h50l98 -75l136 75h58z" />
    <glyph glyph-name="zcaron" unicode="&#x17e;" horiz-adv-x="527" 
d="M145 78h315l-58 -78h-427l-5 15l398 407h-277l19 78h428l5 -15zM546 772v-2l-162 -167h-81l-79 169h41l91 -95l142 95h48z" />
    <glyph glyph-name="uni018F" unicode="&#x18f;" horiz-adv-x="771" 
d="M444 712q136 0 218 -80t82 -215q0 -86 -30 -164t-85 -138q-58 -62 -134 -95.5t-160 -33.5q-119 0 -193 73.5t-74 190.5q0 35 5.5 72t15.5 71h556v10v10q0 96 -56.5 152.5t-150.5 56.5q-69 0 -141.5 -26t-148.5 -79l-3 2l42 118q55 35 123 55t134 20zM166 254
q0 -82 48.5 -130.5t130.5 -48.5q95 0 174.5 64.5t110.5 167.5h-459q-3 -11 -4 -23.5t-1 -29.5z" />
    <glyph glyph-name="Ohorn" unicode="&#x1a0;" horiz-adv-x="834" 
d="M683 641q60 -41 90 -100.5t30 -137.5q0 -84 -30.5 -160t-87.5 -134q-58 -59 -134 -91t-158 -32q-138 0 -225.5 86.5t-87.5 224.5q0 83 31 158t88 133q58 57 133 88.5t157 31.5q14 0 29.5 -1t45.5 -3t45.5 -3t28.5 -1q70 0 108.5 36.5t38.5 104.5h85q0 -87 -48.5 -139
t-138.5 -61zM178 302q0 -102 62.5 -164t162.5 -62t182.5 67.5t109.5 171.5q5 22 7.5 42.5t2.5 39.5q0 100 -62.5 161.5t-162.5 61.5q-101 0 -184 -68t-108 -172q-5 -17 -7.5 -36.5t-2.5 -41.5z" />
    <glyph glyph-name="ohorn" unicode="&#x1a1;" horiz-adv-x="607" 
d="M498 449q32 -30 49 -70.5t17 -86.5q0 -130 -86 -218t-209 -88q-100 0 -163 62t-63 160q0 127 86 213t209 86q7 0 17.5 -0.5t32.5 -0.5q23 -1 34 -1.5t20 -0.5q63 0 93 27.5t30 85.5h79q0 -72 -37 -114.5t-109 -53.5zM471 289q0 64 -38 102t-101 38q-65 0 -118.5 -44.5
t-71.5 -114.5q-4 -18 -5.5 -32t-1.5 -27q0 -65 38.5 -104.5t100.5 -39.5q65 0 118.5 45t71.5 116q4 17 5.5 32t1.5 29z" />
    <glyph glyph-name="Uhorn" unicode="&#x1af;" horiz-adv-x="801" 
d="M367 77q87 0 151 55.5t88 154.5l103 413h20q68 0 105.5 37t37.5 104h85q0 -83 -44 -135t-125 -64l-92 -369q-35 -140 -121.5 -212.5t-217.5 -72.5q-117 0 -187.5 67.5t-70.5 179.5q0 22 3.5 47.5t9.5 52.5l91 365h96l-93 -374q-5 -23 -8 -44t-3 -38q0 -78 45.5 -122.5
t126.5 -44.5z" />
    <glyph glyph-name="uhorn" unicode="&#x1b0;" horiz-adv-x="617" 
d="M148 157q0 -41 22 -63.5t62 -22.5q38 0 79 20.5t89 63.5l86 345h30q62 0 91.5 26t29.5 81h79q0 -71 -39 -113t-115 -51l-110 -443h-91l20 81q-46 -47 -88 -69t-85 -22q-67 0 -109.5 41.5t-42.5 107.5q0 17 3 38t11 56l67 267h91l-71 -285q-5 -19 -7 -33t-2 -25z" />
    <glyph glyph-name="uni01CD" unicode="&#x1cd;" horiz-adv-x="783" 
d="M77 0h-108l489 704h93l139 -704h-97l-33 180h-360zM484 596l-226 -331h287zM721 910v-2l-162 -139h-87l-93 141h50l98 -75l136 75h58z" />
    <glyph glyph-name="uni01CE" unicode="&#x1ce;" horiz-adv-x="552" 
d="M484 247l-64 -237l-96 -20l23 86q-54 -43 -102 -63.5t-92 -20.5q-61 0 -98 35t-37 94q0 82 72.5 127t206.5 45q25 0 52.5 -2t53.5 -5l3 25.5t1 15.5q0 46 -30 72.5t-82 26.5q-42 0 -86.5 -13.5t-94.5 -42.5l-1 2l45 104q37 17 74.5 25t78.5 8q86 0 135.5 -47t49.5 -126
q0 -23 -3 -44.5t-9 -44.5zM307 234q-94 0 -146 -27.5t-52 -75.5q0 -29 18.5 -45.5t51.5 -16.5q40 0 85 17.5t101 54.5l24 88q-23 3 -43.5 4t-38.5 1zM563 772v-2l-162 -167h-81l-79 169h41l91 -95l142 95h48z" />
    <glyph glyph-name="uni01CF" unicode="&#x1cf;" horiz-adv-x="306" 
d="M139 0h-96l174 700h96zM487 910v-2l-162 -139h-87l-93 141h50l98 -75l136 75h58z" />
    <glyph glyph-name="uni01D0" unicode="&#x1d0;" horiz-adv-x="266" 
d="M116 0h-91l125 500h90zM421 772v-2l-162 -167h-81l-79 169h41l91 -95l142 95h48z" />
    <glyph glyph-name="uni01D1" unicode="&#x1d1;" horiz-adv-x="834" 
d="M685 109q-58 -59 -134 -91t-158 -32q-138 0 -225.5 86.5t-87.5 224.5q0 84 30.5 160t88.5 134q57 59 133 91t158 32q138 0 225.5 -86.5t87.5 -224.5q0 -84 -30.5 -160t-87.5 -134zM178 302q0 -102 62.5 -164t162.5 -62q101 0 183.5 68t108.5 173q5 19 7.5 39t2.5 42
q0 102 -62.5 164t-161.5 62q-101 0 -184 -68t-108 -173q-6 -18 -8.5 -38t-2.5 -43zM729 915v-2l-162 -139h-87l-93 141h50l98 -75l136 75h58z" />
    <glyph glyph-name="uni01D2" unicode="&#x1d2;" horiz-adv-x="606" 
d="M564 292q0 -130 -86 -218t-209 -88q-100 0 -163 62t-63 160q0 130 86 218t209 88q100 0 163 -62t63 -160zM471 289q0 65 -38.5 104.5t-100.5 39.5q-65 0 -118.5 -46t-71.5 -117q-3 -12 -5 -27t-2 -32q0 -65 38.5 -104.5t100.5 -39.5q66 0 119.5 46t70.5 117q3 12 5 27
t2 32zM578 776v-2l-162 -167h-81l-79 169h41l91 -95l142 95h48z" />
    <glyph glyph-name="uni01D3" unicode="&#x1d3;" horiz-adv-x="781" 
d="M99 235q0 22 3.5 47.5t9.5 52.5l91 365h96l-93 -374q-5 -23 -8 -44t-3 -38q0 -78 45.5 -122.5t126.5 -44.5q87 0 151 55.5t88 154.5l103 413h93l-106 -427q-35 -140 -121.5 -212.5t-217.5 -72.5q-117 0 -187.5 67.5t-70.5 179.5zM719 899v-2l-162 -139h-87l-93 141h50
l98 -75l136 75h58z" />
    <glyph glyph-name="uni01D4" unicode="&#x1d4;" horiz-adv-x="596" 
d="M452 0h-91l20 81q-46 -47 -88 -69t-85 -22q-67 0 -109.5 41.5t-42.5 107.5q0 17 3 38t11 56l67 267h91l-71 -285q-5 -19 -7 -33t-2 -25q0 -41 22 -63.5t62 -22.5q38 0 79 20.5t89 63.5l86 345h90zM572 766v-2l-162 -167h-81l-79 169h41l91 -95l142 95h48z" />
    <glyph glyph-name="uni01D5" unicode="&#x1d5;" horiz-adv-x="781" 
d="M99 235q0 22 3.5 47.5t9.5 52.5l91 365h96l-93 -374q-5 -23 -8 -44t-3 -38q0 -78 45.5 -122.5t126.5 -44.5q87 0 151 55.5t88 154.5l103 413h93l-106 -427q-35 -140 -121.5 -212.5t-217.5 -72.5q-117 0 -187.5 67.5t-70.5 179.5zM390 947l16 64h333l-16 -64h-333z
M428 896q26 0 44 -18.5t18 -44.5t-18 -44.5t-44 -18.5q-27 0 -45 18t-18 45t18 45t45 18zM633 896q27 0 45 -18t18 -45t-18 -45t-45 -18q-26 0 -44.5 18.5t-18.5 44.5t18.5 44.5t44.5 18.5z" />
    <glyph glyph-name="uni01D6" unicode="&#x1d6;" horiz-adv-x="596" 
d="M452 0h-91l20 81q-46 -47 -88 -69t-85 -22q-67 0 -109.5 41.5t-42.5 107.5q0 17 3 38t11 56l67 267h91l-71 -285q-5 -19 -7 -33t-2 -25q0 -41 22 -63.5t62 -22.5q38 0 79 20.5t89 63.5l86 345h90zM247 790l16 65h331l-16 -65h-331zM281 602q-26 0 -44 18.5t-18 43.5
q0 26 18 44t44 18t44 -18t18 -44t-18 -44t-44 -18zM486 602q-26 0 -44.5 18t-18.5 44t18.5 44t44.5 18t44 -18t18 -44q0 -25 -18 -43.5t-44 -18.5z" />
    <glyph glyph-name="uni01D7" unicode="&#x1d7;" horiz-adv-x="781" 
d="M99 235q0 22 3.5 47.5t9.5 52.5l91 365h96l-93 -374q-5 -23 -8 -44t-3 -38q0 -78 45.5 -122.5t126.5 -44.5q87 0 151 55.5t88 154.5l103 413h93l-106 -427q-35 -140 -121.5 -212.5t-217.5 -72.5q-117 0 -187.5 67.5t-70.5 179.5zM562 922h-48l96 130h124v-2zM428 896
q26 0 44 -18.5t18 -44.5t-18 -44.5t-44 -18.5q-27 0 -45 18t-18 45t18 45t45 18zM633 896q27 0 45 -18t18 -45t-18 -45t-45 -18q-26 0 -44.5 18.5t-18.5 44.5t18.5 44.5t44.5 18.5z" />
    <glyph glyph-name="uni01D8" unicode="&#x1d8;" horiz-adv-x="596" 
d="M452 0h-91l20 81q-46 -47 -88 -69t-85 -22q-67 0 -109.5 41.5t-42.5 107.5q0 17 3 38t11 56l67 267h91l-71 -285q-5 -19 -7 -33t-2 -25q0 -41 22 -63.5t62 -22.5q38 0 79 20.5t89 63.5l86 345h90zM421 759h-49l97 140h127v-2zM281 602q-26 0 -44 18.5t-18 43.5
q0 26 18 44t44 18t44 -18t18 -44t-18 -44t-44 -18zM486 602q-26 0 -44.5 18t-18.5 44t18.5 44t44.5 18t44 -18t18 -44q0 -25 -18 -43.5t-44 -18.5z" />
    <glyph glyph-name="uni01D9" unicode="&#x1d9;" horiz-adv-x="781" 
d="M99 235q0 22 3.5 47.5t9.5 52.5l91 365h96l-93 -374q-5 -23 -8 -44t-3 -38q0 -78 45.5 -122.5t126.5 -44.5q87 0 151 55.5t88 154.5l103 413h93l-106 -427q-35 -140 -121.5 -212.5t-217.5 -72.5q-117 0 -187.5 67.5t-70.5 179.5zM731 1052v-2l-158 -128h-67l-96 130h46
l95 -61l127 61h53zM428 896q26 0 44 -18.5t18 -44.5t-18 -44.5t-44 -18.5q-27 0 -45 18t-18 45t18 45t45 18zM633 896q27 0 45 -18t18 -45t-18 -45t-45 -18q-26 0 -44.5 18.5t-18.5 44.5t18.5 44.5t44.5 18.5z" />
    <glyph glyph-name="uni01DA" unicode="&#x1da;" horiz-adv-x="596" 
d="M452 0h-91l20 81q-46 -47 -88 -69t-85 -22q-67 0 -109.5 41.5t-42.5 107.5q0 17 3 38t11 56l67 267h91l-71 -285q-5 -19 -7 -33t-2 -25q0 -41 22 -63.5t62 -22.5q38 0 79 20.5t89 63.5l86 345h90zM585 899v-2l-155 -135h-64l-86 137h46l85 -68l122 68h52zM281 602
q-26 0 -44 18.5t-18 43.5q0 26 18 44t44 18t44 -18t18 -44t-18 -44t-44 -18zM486 602q-26 0 -44.5 18t-18.5 44t18.5 44t44.5 18t44 -18t18 -44q0 -25 -18 -43.5t-44 -18.5z" />
    <glyph glyph-name="uni01DB" unicode="&#x1db;" horiz-adv-x="781" 
d="M99 235q0 22 3.5 47.5t9.5 52.5l91 365h96l-93 -374q-5 -23 -8 -44t-3 -38q0 -78 45.5 -122.5t126.5 -44.5q87 0 151 55.5t88 154.5l103 413h93l-106 -427q-35 -140 -121.5 -212.5t-217.5 -72.5q-117 0 -187.5 67.5t-70.5 179.5zM527 1052l32 -130h-40l-106 130h114z
M428 896q26 0 44 -18.5t18 -44.5t-18 -44.5t-44 -18.5q-27 0 -45 18t-18 45t18 45t45 18zM633 896q27 0 45 -18t18 -45t-18 -45t-45 -18q-26 0 -44.5 18.5t-18.5 44.5t18.5 44.5t44.5 18.5z" />
    <glyph glyph-name="uni01DC" unicode="&#x1dc;" horiz-adv-x="596" 
d="M452 0h-91l20 81q-46 -47 -88 -69t-85 -22q-67 0 -109.5 41.5t-42.5 107.5q0 17 3 38t11 56l67 267h91l-71 -285q-5 -19 -7 -33t-2 -25q0 -41 22 -63.5t62 -22.5q38 0 79 20.5t89 63.5l86 345h90zM379 899l32 -140h-40l-106 140h114zM281 602q-26 0 -44 18.5t-18 43.5
q0 26 18 44t44 18t44 -18t18 -44t-18 -44t-44 -18zM486 602q-26 0 -44.5 18t-18.5 44t18.5 44t44.5 18t44 -18t18 -44q0 -25 -18 -43.5t-44 -18.5z" />
    <glyph glyph-name="Gcaron" unicode="&#x1e6;" horiz-adv-x="791" 
d="M728 364l-79 -305q-58 -34 -123 -51.5t-134 -17.5q-142 0 -228 82.5t-86 218.5q0 89 33 166.5t95 135.5q61 56 140.5 86.5t167.5 30.5q74 0 141 -18.5t121 -54.5l-24 -95h-2q-53 37 -115 57t-126 20q-117 0 -207 -68.5t-116 -175.5q-5 -18 -7.5 -37t-2.5 -39
q0 -101 60.5 -160t164.5 -59q46 0 87.5 9.5t79.5 27.5l43 159h-208l22 88h303zM726 915v-2l-162 -139h-87l-93 141h50l98 -75l136 75h58z" />
    <glyph glyph-name="gcaron" unicode="&#x1e7;" horiz-adv-x="611" 
d="M591 499l-121 -485q-26 -106 -93.5 -158t-177.5 -52q-55 0 -104.5 13t-88.5 38l-17 102l3 2q49 -36 101.5 -54t106.5 -18q72 0 118.5 35.5t66.5 107.5l19 67q-47 -45 -91.5 -66t-93.5 -21q-78 0 -127 52t-49 137q0 62 23 118t67 100q45 44 104 67.5t125 23.5
q40 0 75 -7.5t71 -23.5l73 24zM142 257q-3 -14 -4.5 -26.5t-1.5 -26.5q0 -55 29 -85t82 -30q40 0 81.5 19t88.5 58l60 239q-29 13 -57 19.5t-57 6.5q-76 0 -139 -49.5t-82 -124.5zM586 772v-2l-162 -167h-81l-79 169h41l91 -95l142 95h48z" />
    <glyph glyph-name="uni01EA" unicode="&#x1ea;" horiz-adv-x="834" 
d="M426 -149l-25 -42q-16 -4 -31 -6t-29 -2q-37 0 -61 18.5t-24 47.5q0 22 14.5 45t48.5 55l25 22q-120 16 -192 100t-72 208q0 84 30.5 160t88.5 134q57 59 133 91t158 32q138 0 225.5 -86.5t87.5 -224.5q0 -83 -29.5 -158t-85.5 -133q-56 -59 -130 -91.5t-155 -34.5
l-30 -34q-24 -28 -31.5 -41.5t-7.5 -24.5q0 -17 19 -26t57 -9h16zM178 302q0 -102 62.5 -164t162.5 -62q101 0 183.5 68t108.5 173q5 19 7.5 39t2.5 42q0 102 -62.5 164t-161.5 62q-101 0 -184 -68t-108 -173q-6 -18 -8.5 -38t-2.5 -43z" />
    <glyph glyph-name="uni01EB" unicode="&#x1eb;" horiz-adv-x="606" 
d="M300 -148l-25 -43q-14 -3 -29 -5t-30 -2q-37 0 -61 18.5t-24 46.5q0 23 14 45.5t48 54.5l26 24q-80 14 -128 73t-48 144q0 130 86 218t209 88q100 0 163 -62t63 -160q0 -128 -83.5 -215.5t-204.5 -90.5l-29 -33q-22 -26 -30.5 -40.5t-8.5 -25.5q0 -18 18.5 -26.5
t57.5 -8.5h16zM471 289q0 65 -38.5 104.5t-100.5 39.5q-65 0 -118.5 -46t-71.5 -117q-3 -12 -5 -27t-2 -32q0 -65 38.5 -104.5t100.5 -39.5q66 0 119.5 46t70.5 117q3 12 5 27t2 32z" />
    <glyph glyph-name="uni01F0" unicode="&#x1f0;" horiz-adv-x="268" 
d="M152 500h90l-137 -553q-18 -73 -58 -108t-108 -35q-15 0 -28 2t-24 5l-12 79l2 2q9 -5 20.5 -7.5t25.5 -2.5q40 0 62.5 19t32.5 61zM423 772v-2l-162 -167h-81l-79 169h41l91 -95l142 95h48z" />
    <glyph glyph-name="uni01F8" unicode="&#x1f8;" horiz-adv-x="817" 
d="M129 0h-91l174 700h89l308 -513l128 513h91l-175 -705h-33l-348 579zM504 902l47 -141h-45l-127 141h125z" />
    <glyph glyph-name="uni01F9" unicode="&#x1f9;" horiz-adv-x="596" 
d="M449 343q0 41 -22.5 63.5t-62.5 22.5q-38 0 -79 -20.5t-89 -64.5l-85 -344h-91l122 488l95 20l-22 -90q46 47 88 69.5t85 22.5q67 0 109.5 -41t42.5 -108q0 -20 -3.5 -43t-10.5 -51l-67 -267h-90l71 285q5 19 7 33t2 25zM354 772l44 -169h-40l-120 169h116z" />
    <glyph glyph-name="Aringacute" unicode="&#x1fa;" horiz-adv-x="783" 
d="M690 0h-97l-33 180h-361l-122 -180h-108l459 661q-17 15 -26.5 37t-9.5 48q0 54 38.5 92.5t91.5 38.5q50 0 82.5 -33t32.5 -82q0 -38 -20 -69.5t-54 -48.5zM436 747q0 -33 20.5 -54t52.5 -21q35 0 59.5 26t24.5 63q0 32 -20.5 53t-52.5 21q-34 0 -59 -26t-25 -62z
M484 596l-227 -331h288zM771 1058l-200 -139h-56l115 141h141v-2z" />
    <glyph glyph-name="aringacute" unicode="&#x1fb;" horiz-adv-x="552" 
d="M484 247l-64 -237l-96 -20l23 86q-54 -43 -102 -63.5t-92 -20.5q-61 0 -98 35t-37 94q0 82 72.5 127t206.5 45q25 0 52.5 -2t53.5 -5l3 25.5t1 15.5q0 46 -30 72.5t-82 26.5q-42 0 -86.5 -13.5t-94.5 -42.5l-1 2l45 104q37 17 74.5 25t78.5 8q86 0 135.5 -47t49.5 -126
q0 -23 -3 -44.5t-9 -44.5zM307 234q-94 0 -146 -27.5t-52 -75.5q0 -29 18.5 -45.5t51.5 -16.5q40 0 85 17.5t101 54.5l24 88q-23 3 -43.5 4t-38.5 1zM453 868h-49l85 108h99v-1zM507 726q0 -54 -37.5 -92t-89.5 -38q-49 0 -81.5 32.5t-32.5 80.5q0 53 37.5 92t89.5 39
q49 0 81.5 -32.5t32.5 -81.5zM311 711q0 -33 20 -53.5t51 -20.5q33 0 57 26t24 62q0 32 -20 52.5t-51 20.5q-33 0 -57 -25.5t-24 -61.5z" />
    <glyph glyph-name="AEacute" unicode="&#x1fc;" horiz-adv-x="992" 
d="M-49 0v2l618 698h468l-23 -87h-313l-54 -214h262l-22 -86h-261l-57 -226h337l-53 -87h-401l45 180h-276l-159 -180h-111zM605 614l-309 -349h222zM967 911l-200 -139h-56l115 141h141v-2z" />
    <glyph glyph-name="aeacute" unicode="&#x1fd;" horiz-adv-x="903" 
d="M806 124l-21 -90q-42 -23 -88 -34t-96 -11q-63 0 -111 27t-74 77q-69 -53 -128.5 -77t-123.5 -24q-67 0 -106.5 35t-39.5 94q0 82 72 127t206 45q25 0 52.5 -2t53.5 -5l3 25.5t1 15.5q0 46 -30 72.5t-82 26.5q-41 0 -85.5 -14t-94.5 -42l-1 2l45 104q37 17 74.5 25
t77.5 8q59 0 102 -23t64 -65q42 44 95.5 68.5t110.5 24.5q83 0 133.5 -53.5t50.5 -143.5q0 -26 -3.5 -52t-9.5 -50h-372v-1q0 -69 36.5 -106t103.5 -37q46 0 92.5 13.5t90.5 40.5zM776 306q0 62 -27.5 95.5t-78.5 33.5q-55 0 -106.5 -44t-71.5 -109h283q1 4 1 9v15zM307 234
q-94 0 -146 -27.5t-52 -75.5q0 -29 19 -45.5t53 -16.5q45 0 96 22t117 70q-1 10 -2 20.5t-1 21.5v15.5t1 9.5q-21 3 -42.5 4.5t-42.5 1.5zM751 772l-205 -167h-48l125 169h128v-2z" />
    <glyph glyph-name="Oslashacute" unicode="&#x1fe;" horiz-adv-x="834" 
d="M685 109q-58 -59 -134 -91t-158 -32q-56 0 -106.5 16.5t-92.5 48.5l-92 -94h-100v2l141 143q-31 40 -47 90t-16 105q0 84 30.5 160t88.5 134q57 59 133 91t158 32q56 0 106.5 -16.5t92.5 -48.5l92 94h100v-2l-141 -143q31 -40 47 -90t16 -105q0 -84 -30.5 -160
t-87.5 -134zM185 384q-5 -19 -7.5 -39t-2.5 -43q0 -39 9 -73.5t27 -62.5l412 420q-28 21 -64.5 31.5t-77.5 10.5q-102 0 -185.5 -69t-110.5 -175zM698 316q5 19 7.5 39t2.5 43q0 39 -9 73.5t-27 62.5l-412 -420q29 -21 65.5 -31.5t77.5 -10.5q101 0 184.5 69t110.5 175z
M743 916l-200 -139h-56l115 141h141v-2z" />
    <glyph glyph-name="oslashacute" unicode="&#x1ff;" horiz-adv-x="606" 
d="M564 292q0 -130 -86 -218t-209 -88q-39 0 -73.5 10.5t-63.5 30.5l-68 -71h-87v2l109 114q-21 29 -32 63.5t-11 72.5q0 130 86 218t209 88q38 0 72.5 -10.5t63.5 -30.5l68 71h88v-2l-109 -114q21 -29 32 -63.5t11 -72.5zM139 267q-4 -13 -5.5 -26.5t-1.5 -29.5
q0 -21 4.5 -40.5t12.5 -35.5l266 279q-17 11 -38 17t-45 6q-65 0 -120.5 -48.5t-72.5 -121.5zM468 233q4 13 5.5 27t1.5 29q0 21 -4.5 40.5t-12.5 35.5l-267 -279q17 -11 38 -17t45 -6q66 0 121 48.5t73 121.5zM594 774l-205 -167h-48l125 169h128v-2z" />
    <glyph glyph-name="uni0218" unicode="&#x218;" horiz-adv-x="550" 
d="M136 512q0 87 64.5 143.5t166.5 56.5q48 0 94.5 -13t86.5 -38v-108l-2 -1q-42 34 -88 52t-94 18q-59 0 -96.5 -28t-37.5 -71q0 -34 22.5 -61.5t86.5 -67.5q82 -52 114 -96t32 -104q0 -92 -65 -149t-169 -57q-57 0 -112 21.5t-94 57.5l-25 134l2 1q57 -61 115.5 -92.5
t114.5 -31.5q61 0 99.5 29t38.5 76q0 36 -21.5 63t-86.5 69q-82 52 -114 95.5t-32 101.5zM122 -115l99 28q25 -11 38 -27t13 -35q0 -31 -33.5 -58.5t-101.5 -51.5l-46 19v3q45 21 64.5 37.5t19.5 33.5q0 13 -13 25t-40 23v3z" />
    <glyph glyph-name="uni0219" unicode="&#x219;" horiz-adv-x="493" 
d="M231 213q-78 30 -110 64t-32 86q0 65 54.5 106.5t140.5 41.5q46 0 89 -12.5t80 -36.5v-97l-3 -1q-43 34 -85.5 50.5t-86.5 16.5q-45 0 -73 -17t-28 -44q0 -25 20.5 -42.5t75.5 -38.5q76 -30 108.5 -64.5t32.5 -85.5q0 -67 -56 -108.5t-147 -41.5q-50 0 -98 14.5t-81 40.5
l-16 104l2 2q43 -39 95 -60t105 -21q47 0 77.5 17.5t30.5 44.5q0 24 -21 42t-74 40zM86 -112l99 28q25 -11 38 -27t13 -35q0 -31 -33.5 -58.5t-101.5 -51.5l-46 19v3q45 21 64.5 37.5t19.5 33.5q0 13 -13 25t-40 23v3z" />
    <glyph glyph-name="uni021A" unicode="&#x21a;" horiz-adv-x="700" 
d="M778 700l-22 -87h-266l-152 -613h-96l152 613h-270l23 87h631zM186 -110l99 28q25 -11 38 -27t13 -35q0 -31 -33.5 -58.5t-101.5 -51.5l-46 19v3q45 21 64.5 37.5t19.5 33.5q0 13 -13 25t-40 23v3z" />
    <glyph glyph-name="uni021B" unicode="&#x21b;" horiz-adv-x="445" 
d="M381 119l-30 -101q-25 -15 -52.5 -22t-57.5 -7q-68 0 -108 39t-40 106q0 17 2 33t7 33l60 223h-85l20 77h86l30 111l98 34l-39 -145h192l-19 -77h-194l-64 -237q-3 -12 -4.5 -22.5t-1.5 -20.5q0 -33 21.5 -53t56.5 -20q30 0 60 12.5t60 38.5zM103 -110l99 28
q25 -11 38 -27t13 -35q0 -31 -33.5 -58.5t-101.5 -51.5l-46 19v3q45 21 64.5 37.5t19.5 33.5q0 13 -13 25t-40 23v3z" />
    <glyph glyph-name="uni0226" unicode="&#x226;" horiz-adv-x="783" 
d="M77 0h-108l489 704h93l139 -704h-97l-33 180h-360zM484 596l-226 -331h287zM529 896q26 0 44.5 -18.5t18.5 -44.5t-18.5 -44.5t-44.5 -18.5q-27 0 -45 18t-18 45t18 45t45 18z" />
    <glyph glyph-name="uni0227" unicode="&#x227;" horiz-adv-x="552" 
d="M484 247l-64 -237l-96 -20l23 86q-54 -43 -102 -63.5t-92 -20.5q-61 0 -98 35t-37 94q0 82 72.5 127t206.5 45q25 0 52.5 -2t53.5 -5l3 25.5t1 15.5q0 46 -30 72.5t-82 26.5q-42 0 -86.5 -13.5t-94.5 -42.5l-1 2l45 104q37 17 74.5 25t78.5 8q86 0 135.5 -47t49.5 -126
q0 -23 -3 -44.5t-9 -44.5zM307 234q-94 0 -146 -27.5t-52 -75.5q0 -29 18.5 -45.5t51.5 -16.5q40 0 85 17.5t101 54.5l24 88q-23 3 -43.5 4t-38.5 1zM375 602q-26 0 -44 18t-18 44t18 44t44 18t44 -18t18 -44t-18 -44t-44 -18z" />
    <glyph glyph-name="uni022E" unicode="&#x22e;" horiz-adv-x="834" 
d="M685 109q-58 -59 -134 -91t-158 -32q-138 0 -225.5 86.5t-87.5 224.5q0 84 30.5 160t88.5 134q57 59 133 91t158 32q138 0 225.5 -86.5t87.5 -224.5q0 -84 -30.5 -160t-87.5 -134zM178 302q0 -102 62.5 -164t162.5 -62q101 0 183.5 68t108.5 173q5 19 7.5 39t2.5 42
q0 102 -62.5 164t-161.5 62q-101 0 -184 -68t-108 -173q-6 -18 -8.5 -38t-2.5 -43zM537 901q26 0 44.5 -18.5t18.5 -44.5t-18.5 -44.5t-44.5 -18.5q-27 0 -45 18t-18 45t18 45t45 18z" />
    <glyph glyph-name="uni022F" unicode="&#x22f;" horiz-adv-x="606" 
d="M564 292q0 -130 -86 -218t-209 -88q-100 0 -163 62t-63 160q0 130 86 218t209 88q100 0 163 -62t63 -160zM471 289q0 65 -38.5 104.5t-100.5 39.5q-65 0 -118.5 -46t-71.5 -117q-3 -12 -5 -27t-2 -32q0 -65 38.5 -104.5t100.5 -39.5q66 0 119.5 46t70.5 117q3 12 5 27
t2 32zM390 606q-26 0 -44 18t-18 44t18 44t44 18t44 -18t18 -44t-18 -44t-44 -18z" />
    <glyph glyph-name="uni0232" unicode="&#x232;" horiz-adv-x="658" 
d="M756 700v-2l-367 -392l-76 -306h-97l79 317l-171 383h101l132 -305l282 305h117zM272 796l17 68h356l-16 -68h-357z" />
    <glyph glyph-name="uni0233" unicode="&#x233;" horiz-adv-x="546" 
d="M586 500l-371 -574q-42 -64 -86.5 -93t-100.5 -29q-22 0 -39.5 4t-31.5 12l-23 93l3 2q17 -13 36.5 -19.5t44.5 -6.5q39 0 68.5 19t56.5 61l40 62l-99 469h93l72 -375l235 375h102zM187 628l17 68h335l-17 -68h-335z" />
    <glyph glyph-name="uni0237" unicode="&#x237;" horiz-adv-x="268" 
d="M152 500h90l-137 -553q-18 -73 -58 -108t-108 -35q-15 0 -28 2t-24 5l-12 79l2 2q9 -5 20.5 -7.5t25.5 -2.5q40 0 62.5 19t32.5 61z" />
    <glyph glyph-name="uni0259" unicode="&#x259;" horiz-adv-x="555" 
d="M302 511q95 0 153 -59t58 -155q0 -127 -87 -219t-205 -92q-83 0 -133.5 53.5t-50.5 143.5q0 26 3.5 52t9.5 50h373v1q0 69 -36.5 106t-103.5 37q-46 0 -93 -13.5t-92 -40.5l-2 1l22 90q41 23 86.5 34t97.5 11zM126 194q0 -62 28 -95.5t80 -33.5q55 0 106 43.5t72 109.5
h-285q-1 -4 -1 -9v-15z" />
    <glyph glyph-name="uni02B9" unicode="&#x2b9;" horiz-adv-x="247" 
d="M86 429l132 271h114l-212 -287z" />
    <glyph glyph-name="uni02BA" unicode="&#x2ba;" horiz-adv-x="438" 
d="M86 429l132 271h114l-212 -287zM278 429l131 271h114l-212 -287z" />
    <glyph glyph-name="uni02BB" unicode="&#x2bb;" horiz-adv-x="216" 
d="M189 523q0 -20 8.5 -42t31.5 -60h-93q-16 30 -23 52.5t-7 44.5q0 41 38 85.5t126 104.5l24 -26q-59 -57 -82 -92.5t-23 -66.5z" />
    <glyph glyph-name="uni02BC" unicode="&#x2bc;" horiz-adv-x="216" 
d="M181 599q0 19 -8.5 41t-31.5 60h92q16 -28 23.5 -50.5t7.5 -45.5q0 -41 -38.5 -85.5t-125.5 -105.5l-24 26q59 57 82 93t23 67z" />
    <glyph glyph-name="uni02BE" unicode="&#x2be;" horiz-adv-x="201" 
d="M279 692q0 -61 -48 -100.5t-121 -39.5l13 51q42 1 71 26.5t29 59.5q0 26 -17.5 42.5t-46.5 17.5l13 51q47 0 77 -30.5t30 -77.5z" />
    <glyph glyph-name="uni02BF" unicode="&#x2bf;" horiz-adv-x="201" 
d="M134 660q0 61 48 100.5t121 39.5l-13 -51q-42 -1 -71 -26.5t-29 -59.5q0 -26 17.5 -42.5t46.5 -17.5l-12 -51q-47 0 -77.5 30.5t-30.5 77.5z" />
    <glyph glyph-name="circumflex" unicode="&#x2c6;" horiz-adv-x="500" 
d="M498 603h-41l-91 95l-142 -95h-48v2l162 167h81z" />
    <glyph glyph-name="caron" unicode="&#x2c7;" horiz-adv-x="500" 
d="M539 772v-2l-162 -167h-81l-79 169h41l91 -95l142 95h48z" />
    <glyph glyph-name="uni02C8" unicode="&#x2c8;" horiz-adv-x="184" 
d="M194 554h-53l61 244h53z" />
    <glyph glyph-name="uni02CC" unicode="&#x2cc;" horiz-adv-x="184" 
d="M8 -191h-53l61 244h53z" />
    <glyph glyph-name="uni02CD" unicode="&#x2cd;" horiz-adv-x="500" 
d="M-22 -179l17 68h336l-17 -68h-336z" />
    <glyph glyph-name="breve" unicode="&#x2d8;" horiz-adv-x="500" 
d="M354 675q40 0 76 20.5t72 64.5l38 -30q-32 -62 -83 -97.5t-109 -35.5q-54 0 -95 36.5t-54 96.5l42 30q19 -42 48 -63.5t65 -21.5z" />
    <glyph glyph-name="dotaccent" unicode="&#x2d9;" horiz-adv-x="500" 
d="M351 602q-26 0 -44 18t-18 44t18 44t44 18t44 -18t18 -44t-18 -44t-44 -18z" />
    <glyph glyph-name="ring" unicode="&#x2da;" horiz-adv-x="500" 
d="M482 726q0 -54 -37.5 -92t-89.5 -38q-49 0 -81.5 32.5t-32.5 80.5q0 53 37.5 92t89.5 39q49 0 81.5 -32.5t32.5 -81.5zM286 711q0 -33 20 -53.5t51 -20.5q33 0 57 26t24 62q0 32 -20 52.5t-51 20.5q-33 0 -57 -25.5t-24 -61.5z" />
    <glyph glyph-name="ogonek" unicode="&#x2db;" horiz-adv-x="500" 
d="M235 -144l-25 -42q-16 -4 -31 -6t-29 -2q-38 0 -61.5 18.5t-23.5 47.5q0 22 14.5 45t48.5 55l42 38h58l-46 -53q-23 -26 -31 -40t-8 -26q0 -17 19 -26t56 -9h17z" />
    <glyph glyph-name="tilde" unicode="&#x2dc;" horiz-adv-x="500" 
d="M373 711q29 -19 40.5 -25t19.5 -6q13 0 29 13t60 62l38 -30q-55 -76 -81.5 -99.5t-53.5 -23.5q-13 0 -30.5 8t-52.5 32q-29 20 -41 26t-20 6q-13 0 -29 -13t-60 -62l-38 30q55 76 81.5 99.5t53.5 23.5q13 0 30.5 -8t53.5 -33z" />
    <glyph glyph-name="hungarumlaut" unicode="&#x2dd;" horiz-adv-x="500" 
d="M442 770l-196 -167h-48l125 169h119v-2zM630 770l-196 -167h-48l125 169h119v-2z" />
    <glyph glyph-name="uni0300" unicode="&#x300;" 
d="M64 772l44 -169h-40l-120 169h116z" />
    <glyph glyph-name="uni0301" unicode="&#x301;" 
d="M305 770l-205 -167h-48l125 169h128v-2z" />
    <glyph glyph-name="uni0302" unicode="&#x302;" 
d="M248 603h-41l-91 95l-142 -95h-48v2l162 167h81z" />
    <glyph glyph-name="uni0303" unicode="&#x303;" 
d="M123 711q29 -19 40.5 -25t19.5 -6q13 0 29 13t60 62l38 -30q-55 -76 -81.5 -99.5t-53.5 -23.5q-13 0 -30.5 8t-52.5 32q-29 20 -41 26t-20 6q-13 0 -29 -13t-60 -62l-38 30q55 76 81.5 99.5t53.5 23.5q13 0 30.5 -8t53.5 -33z" />
    <glyph glyph-name="uni0304" unicode="&#x304;" 
d="M-76 628l17 68h335l-17 -68h-335z" />
    <glyph glyph-name="uni0306" unicode="&#x306;" 
d="M104 675q40 0 76 20.5t72 64.5l38 -30q-32 -62 -83 -97.5t-109 -35.5q-54 0 -95 36.5t-54 96.5l42 30q19 -42 48 -63.5t65 -21.5z" />
    <glyph glyph-name="uni0307" unicode="&#x307;" 
d="M101 602q-26 0 -44 18t-18 44t18 44t44 18t44 -18t18 -44t-18 -44t-44 -18z" />
    <glyph glyph-name="uni0308" unicode="&#x308;" 
d="M60 664q0 -26 -18 -44t-44 -18t-44 18.5t-18 43.5q0 26 18 44t44 18t44 -18t18 -44zM265 664q0 -25 -18 -43.5t-44 -18.5t-44.5 18t-18.5 44t18.5 44t44.5 18t44 -18t18 -44z" />
    <glyph glyph-name="uni0309" unicode="&#x309;" 
d="M1 702l19 80q28 18 59 28t63 10q44 0 70 -21t26 -56q0 -37 -34 -72t-111 -75l-57 18v2q71 41 100 66.5t29 45.5q0 12 -9 18.5t-26 6.5q-25 0 -56 -12.5t-71 -39.5z" />
    <glyph glyph-name="uni030A" unicode="&#x30a;" 
d="M232 726q0 -54 -37.5 -92t-89.5 -38q-49 0 -81.5 32.5t-32.5 80.5q0 53 37.5 92t89.5 39q49 0 81.5 -32.5t32.5 -81.5zM36 711q0 -33 20 -53.5t51 -20.5q33 0 57 26t24 62q0 32 -20 52.5t-51 20.5q-33 0 -57 -25.5t-24 -61.5z" />
    <glyph glyph-name="uni030B" unicode="&#x30b;" 
d="M192 770l-196 -167h-48l125 169h119v-2zM380 770l-196 -167h-48l125 169h119v-2z" />
    <glyph glyph-name="uni030C" unicode="&#x30c;" 
d="M289 772v-2l-162 -167h-81l-79 169h41l91 -95l142 95h48z" />
    <glyph glyph-name="uni0312" unicode="&#x312;" 
d="M171 627l-100 -29q-26 14 -37.5 30t-11.5 36q0 34 35 64.5t103 56.5l45 -20v-3q-46 -25 -66.5 -44t-20.5 -37q0 -13 11 -24t42 -27v-3z" />
    <glyph glyph-name="uni0315" unicode="&#x315;" 
d="M119 550h-44v2q28 32 42 69t14 77q0 14 -1.5 27t-4.5 26h86q1 -62 -21 -110t-71 -91z" />
    <glyph glyph-name="uni0323" unicode="&#x323;" 
d="M-96 -210q-26 0 -44 18t-18 44t18 44t44 18t44 -18t18 -44q0 -25 -18 -43.5t-44 -18.5z" />
    <glyph glyph-name="uni0324" unicode="&#x324;" 
d="M-137 -148q0 -26 -18 -44t-44 -18t-44 18.5t-18 43.5q0 26 18 44t44 18t44 -18t18 -44zM68 -148q0 -25 -18 -43.5t-44 -18.5t-44.5 18t-18.5 44t18.5 44t44.5 18t44 -18t18 -44z" />
    <glyph glyph-name="uni0326" unicode="&#x326;" 
d="M-166 -110l99 28q25 -11 38 -27t13 -35q0 -31 -33.5 -58.5t-101.5 -51.5l-46 19v3q45 21 64.5 37.5t19.5 33.5q0 13 -13 25t-40 23v3z" />
    <glyph glyph-name="uni0327" unicode="&#x327;" 
d="M23 -116q0 -36 -33.5 -57.5t-92.5 -21.5q-17 0 -33 2.5t-31 6.5l-21 47l2 2q20 -7 38 -10.5t38 -3.5q30 0 47 8.5t17 23.5q0 13 -12.5 20t-35.5 7q-5 0 -16.5 -1.5t-30.5 -3.5l-2 4l66 98h57l-37 -55q35 -1 57.5 -19.5t22.5 -46.5z" />
    <glyph glyph-name="uni0328" unicode="&#x328;" 
d="M-15 -144l-25 -42q-16 -4 -31 -6t-29 -2q-38 0 -61.5 18.5t-23.5 47.5q0 22 14.5 45t48.5 55l42 38h58l-46 -53q-23 -26 -31 -40t-8 -26q0 -17 19 -26t56 -9h17z" />
    <glyph glyph-name="uni032D" unicode="&#x32d;" 
d="M37 -255h-41l-91 95l-142 -95h-48v2l162 167h81z" />
    <glyph glyph-name="uni032E" unicode="&#x32e;" 
d="M-106 -178q39 0 75 20.5t73 64.5l38 -30q-32 -62 -83 -97.5t-109 -35.5q-54 0 -95 36.5t-54 96.5l42 30q19 -42 48 -63.5t65 -21.5z" />
    <glyph glyph-name="uni0331" unicode="&#x331;" 
d="M-272 -179l17 68h336l-17 -68h-336z" />
    <glyph glyph-name="uni0E3F" unicode="&#xe3f;" horiz-adv-x="658" 
d="M494 352q45 -20 69.5 -57t24.5 -85q0 -93 -79.5 -151.5t-207.5 -58.5l-33 -135h-68l34 135h-195l174 700h195l30 122h68l-31 -124q80 -7 126 -50.5t46 -111.5q0 -62 -41 -111t-112 -73zM391 619h-111l-56 -223h111zM557 525q0 41 -27.5 65.5t-77.5 27.5l-55 -222
q71 4 115.5 40.5t44.5 88.5zM316 318h-111l-59 -237h111zM498 215q0 47 -32.5 75t-87.5 28l-60 -237q80 1 130 38.5t50 95.5z" />
    <glyph glyph-name="uni1E06" unicode="&#x1e06;" horiz-adv-x="615" 
d="M457 352q43 -21 66.5 -58t23.5 -84q0 -93 -80 -151.5t-209 -58.5h-220l174 700h190q93 0 148.5 -45t55.5 -119q0 -61 -39.5 -110t-109.5 -74zM510 524q0 44 -32 68.5t-89 24.5h-104l-55 -219h105q78 0 126.5 35.5t48.5 90.5zM451 215q0 47 -33.5 74t-92.5 27h-116
l-58 -233h117q82 0 132.5 36.5t50.5 95.5zM67 -179l17 68h336l-17 -68h-336z" />
    <glyph glyph-name="uni1E07" unicode="&#x1e07;" horiz-adv-x="607" 
d="M567 314q0 -67 -23.5 -126t-68.5 -104t-104 -68.5t-124 -23.5q-37 0 -72.5 8t-69.5 23l-74 -24l-11 2l181 724l99 34l-83 -331q44 43 86 62.5t88 19.5q77 0 126.5 -54.5t49.5 -141.5zM474 307q0 57 -29.5 89.5t-80.5 32.5q-39 0 -79.5 -17.5t-85.5 -54.5l-64 -260
q27 -13 56 -19t62 -6q74 0 134 48.5t79 124.5q4 15 6 31t2 31zM41 -179l17 68h336l-17 -68h-336z" />
    <glyph glyph-name="uni1E0C" unicode="&#x1e0c;" horiz-adv-x="778" 
d="M752 406q0 -176 -134.5 -291t-336.5 -115h-243l174 700h185q167 0 261 -78t94 -216zM653 396q0 103 -70.5 159.5t-198.5 56.5h-98l-131 -524h120q137 0 240 67t130 174q4 17 6 33.5t2 33.5zM315 -210q-26 0 -44 18t-18 44t18 44t44 18t44 -18t18 -44q0 -25 -18 -43.5
t-44 -18.5z" />
    <glyph glyph-name="uni1E0D" unicode="&#x1e0d;" horiz-adv-x="611" 
d="M467 0h-91l18 72q-45 -43 -87 -62.5t-88 -19.5q-79 0 -129 54.5t-50 141.5q0 67 25 127.5t71 106.5q42 42 95.5 65t110.5 23q42 0 80 -11t69 -33l65 261l100 34zM140 251q-3 -13 -5 -27.5t-2 -30.5q0 -57 30 -89.5t83 -32.5q39 0 79 17.5t86 54.5l61 243q-27 21 -58 31.5
t-66 10.5q-72 0 -130.5 -50t-77.5 -127zM220 -210q-26 0 -44 18t-18 44t18 44t44 18t44 -18t18 -44q0 -25 -18 -43.5t-44 -18.5z" />
    <glyph glyph-name="uni1E0E" unicode="&#x1e0e;" horiz-adv-x="778" 
d="M752 406q0 -176 -134.5 -291t-336.5 -115h-243l174 700h185q167 0 261 -78t94 -216zM653 396q0 103 -70.5 159.5t-198.5 56.5h-98l-131 -524h120q137 0 240 67t130 174q4 17 6 33.5t2 33.5zM139 -179l17 68h336l-17 -68h-336z" />
    <glyph glyph-name="uni1E0F" unicode="&#x1e0f;" horiz-adv-x="611" 
d="M467 0h-91l18 72q-45 -43 -87 -62.5t-88 -19.5q-79 0 -129 54.5t-50 141.5q0 67 25 127.5t71 106.5q42 42 95.5 65t110.5 23q42 0 80 -11t69 -33l65 261l100 34zM140 251q-3 -13 -5 -27.5t-2 -30.5q0 -57 30 -89.5t83 -32.5q39 0 79 17.5t86 54.5l61 243q-27 21 -58 31.5
t-66 10.5q-72 0 -130.5 -50t-77.5 -127zM44 -179l17 68h336l-17 -68h-336z" />
    <glyph glyph-name="uni1E12" unicode="&#x1e12;" horiz-adv-x="778" 
d="M752 406q0 -176 -134.5 -291t-336.5 -115h-243l174 700h185q167 0 261 -78t94 -216zM653 396q0 103 -70.5 159.5t-198.5 56.5h-98l-131 -524h120q137 0 240 67t130 174q4 17 6 33.5t2 33.5zM448 -255h-41l-91 95l-142 -95h-48v2l162 167h81z" />
    <glyph glyph-name="uni1E13" unicode="&#x1e13;" horiz-adv-x="611" 
d="M467 0h-91l18 72q-45 -43 -87 -62.5t-88 -19.5q-79 0 -129 54.5t-50 141.5q0 67 25 127.5t71 106.5q42 42 95.5 65t110.5 23q42 0 80 -11t69 -33l65 261l100 34zM140 251q-3 -13 -5 -27.5t-2 -30.5q0 -57 30 -89.5t83 -32.5q39 0 79 17.5t86 54.5l61 243q-27 21 -58 31.5
t-66 10.5q-72 0 -130.5 -50t-77.5 -127zM353 -255h-41l-91 95l-142 -95h-48v2l162 167h81z" />
    <glyph glyph-name="uni1E20" unicode="&#x1e20;" horiz-adv-x="791" 
d="M728 364l-79 -305q-58 -34 -123 -51.5t-134 -17.5q-142 0 -228 82.5t-86 218.5q0 89 33 166.5t95 135.5q61 56 140.5 86.5t167.5 30.5q74 0 141 -18.5t121 -54.5l-24 -95h-2q-53 37 -115 57t-126 20q-117 0 -207 -68.5t-116 -175.5q-5 -18 -7.5 -37t-2.5 -39
q0 -101 60.5 -160t164.5 -59q46 0 87.5 9.5t79.5 27.5l43 159h-208l22 88h303zM346 801l17 68h356l-16 -68h-357z" />
    <glyph glyph-name="uni1E21" unicode="&#x1e21;" horiz-adv-x="611" 
d="M591 499l-121 -485q-26 -106 -93.5 -158t-177.5 -52q-55 0 -104.5 13t-88.5 38l-17 102l3 2q49 -36 101.5 -54t106.5 -18q72 0 118.5 35.5t66.5 107.5l19 67q-47 -45 -91.5 -66t-93.5 -21q-78 0 -127 52t-49 137q0 62 23 118t67 100q45 44 104 67.5t125 23.5
q40 0 75 -7.5t71 -23.5l73 24zM142 257q-3 -14 -4.5 -26.5t-1.5 -26.5q0 -55 29 -85t82 -30q40 0 81.5 19t88.5 58l60 239q-29 13 -57 19.5t-57 6.5q-76 0 -139 -49.5t-82 -124.5zM221 628l17 68h335l-17 -68h-335z" />
    <glyph glyph-name="uni1E24" unicode="&#x1e24;" horiz-adv-x="805" 
d="M642 0h-96l78 313h-412l-78 -313h-96l174 700h96l-74 -298h412l74 298h96zM311 -204q-26 0 -44 18t-18 44t18 44t44 18t44 -18t18 -44q0 -25 -18 -43.5t-44 -18.5z" />
    <glyph glyph-name="uni1E25" unicode="&#x1e25;" horiz-adv-x="596" 
d="M449 343q0 41 -22.5 63.5t-62.5 22.5q-38 0 -79 -21t-88 -64l-86 -344h-91l181 725l99 34l-85 -340q46 47 88 69t85 22q67 0 109.5 -41t42.5 -108q0 -20 -3.5 -43t-10.5 -51l-67 -267h-90l71 285q5 19 7 33t2 25zM218 -204q-26 0 -44 18t-18 44t18 44t44 18t44 -18
t18 -44q0 -25 -18 -43.5t-44 -18.5z" />
    <glyph glyph-name="uni1E28" unicode="&#x1e28;" horiz-adv-x="805" 
d="M164 -116q0 -36 -34 -57.5t-92 -21.5q-17 0 -33.5 2.5t-30.5 6.5l-21 47l2 2q19 -7 37 -10.5t38 -3.5q31 0 48 8.5t17 23.5q0 13 -12.5 20t-35.5 7q-5 0 -16.5 -1.5t-30.5 -3.5l-2 4l62 93h-22l174 700h96l-74 -298h412l74 298h96l-174 -700h-96l78 313h-412l-78 -313
h-16l-34 -50q35 -1 57.5 -19.5t22.5 -46.5z" />
    <glyph glyph-name="uni1E29" unicode="&#x1e29;" horiz-adv-x="596" 
d="M144 -116q0 -36 -34 -57.5t-93 -21.5q-17 0 -33 2.5t-30 6.5l-21 47l1 2q20 -7 38 -10.5t38 -3.5q31 0 48 8.5t17 23.5q0 13 -13 20t-36 7q-5 0 -11 -0.5t-35 -4.5l-2 4l62 93h-20l181 725l99 34l-85 -340q46 47 88 69t85 22q67 0 109.5 -41t42.5 -108q0 -20 -3.5 -43
t-10.5 -51l-67 -267h-90l71 285q5 19 7 33t2 25q0 41 -22.5 63.5t-62.5 22.5q-38 0 -79 -21t-88 -64l-86 -344h-14l-34 -50q36 -1 58.5 -19.5t22.5 -46.5z" />
    <glyph glyph-name="uni1E2A" unicode="&#x1e2a;" horiz-adv-x="805" 
d="M642 0h-96l78 313h-412l-78 -313h-96l174 700h96l-74 -298h412l74 298h96zM300 -178q39 0 75 20.5t73 64.5l38 -30q-32 -62 -83 -97.5t-109 -35.5q-54 0 -95 36.5t-54 96.5l42 30q19 -42 48 -63.5t65 -21.5z" />
    <glyph glyph-name="uni1E2B" unicode="&#x1e2b;" horiz-adv-x="596" 
d="M449 343q0 41 -22.5 63.5t-62.5 22.5q-38 0 -79 -21t-88 -64l-86 -344h-91l181 725l99 34l-85 -340q46 47 88 69t85 22q67 0 109.5 -41t42.5 -108q0 -20 -3.5 -43t-10.5 -51l-67 -267h-90l71 285q5 19 7 33t2 25zM207 -178q39 0 75 20.5t73 64.5l38 -30
q-32 -62 -83 -97.5t-109 -35.5q-54 0 -95 36.5t-54 96.5l42 30q19 -42 48 -63.5t65 -21.5z" />
    <glyph glyph-name="uni1E32" unicode="&#x1e32;" horiz-adv-x="689" 
d="M607 0h-118l-253 316h-23l-79 -316h-96l174 700h96l-75 -301h24l386 301h131v-3l-451 -347l284 -347v-3zM281 -205q-26 0 -44 18t-18 44t18 44t44 18t44 -18t18 -44q0 -25 -18 -43.5t-44 -18.5z" />
    <glyph glyph-name="uni1E33" unicode="&#x1e33;" horiz-adv-x="543" 
d="M469 0h-106l-169 220h-28l-55 -220h-91l181 725l99 34l-117 -471h27l250 212h120v-3l-303 -252l192 -243v-2zM216 -205q-26 0 -44 18t-18 44t18 44t44 18t44 -18t18 -44q0 -25 -18 -43.5t-44 -18.5z" />
    <glyph glyph-name="uni1E34" unicode="&#x1e34;" horiz-adv-x="689" 
d="M607 0h-118l-253 316h-23l-79 -316h-96l174 700h96l-75 -301h24l386 301h131v-3l-451 -347l284 -347v-3zM104 -179l17 68h336l-17 -68h-336z" />
    <glyph glyph-name="uni1E35" unicode="&#x1e35;" horiz-adv-x="543" 
d="M469 0h-106l-169 220h-28l-55 -220h-91l181 725l99 34l-117 -471h27l250 212h120v-3l-303 -252l192 -243v-2zM39 -179l17 68h336l-17 -68h-336z" />
    <glyph glyph-name="uni1E36" unicode="&#x1e36;" horiz-adv-x="533" 
d="M155 87h300l-22 -87h-395l174 700h96zM211 -210q-26 0 -44 18t-18 44t18 44t44 18t44 -18t18 -44q0 -25 -18 -43.5t-44 -18.5z" />
    <glyph glyph-name="uni1E37" unicode="&#x1e37;" horiz-adv-x="266" 
d="M116 0h-91l181 725l99 34zM36 -210q-26 0 -44 18t-18 44t18 44t44 18t44 -18t18 -44q0 -25 -18 -43.5t-44 -18.5z" />
    <glyph glyph-name="uni1E38" unicode="&#x1e38;" horiz-adv-x="533" 
d="M155 87h300l-22 -87h-395l174 700h96zM142 796l17 68h277l-17 -68h-277zM211 -210q-26 0 -44 18t-18 44t18 44t44 18t44 -18t18 -44q0 -25 -18 -43.5t-44 -18.5z" />
    <glyph glyph-name="uni1E39" unicode="&#x1e39;" horiz-adv-x="266" 
d="M116 0h-91l181 725l99 34zM140 848l16 68h276l-17 -68h-275zM36 -210q-26 0 -44 18t-18 44t18 44t44 18t44 -18t18 -44q0 -25 -18 -43.5t-44 -18.5z" />
    <glyph glyph-name="uni1E3A" unicode="&#x1e3a;" horiz-adv-x="533" 
d="M155 87h300l-22 -87h-395l174 700h96zM35 -179l17 68h336l-17 -68h-336z" />
    <glyph glyph-name="uni1E3B" unicode="&#x1e3b;" horiz-adv-x="266" 
d="M116 0h-91l181 725l99 34zM-110 -179l17 68h276l-17 -68h-276z" />
    <glyph glyph-name="uni1E3C" unicode="&#x1e3c;" horiz-adv-x="533" 
d="M155 87h300l-22 -87h-395l174 700h96zM344 -255h-41l-91 95l-142 -95h-48v2l162 167h81z" />
    <glyph glyph-name="uni1E3D" unicode="&#x1e3d;" horiz-adv-x="266" 
d="M116 0h-91l181 725l99 34zM169 -255h-41l-91 95l-142 -95h-48v2l162 167h81z" />
    <glyph glyph-name="uni1E3E" unicode="&#x1e3e;" horiz-adv-x="1028" 
d="M240 700h134l116 -526l382 526h141l-119 -700h-94l102 592l-446 -603h-16l-141 608l-194 -597h-95zM835 895l-200 -139h-56l115 141h141v-2z" />
    <glyph glyph-name="uni1E3F" unicode="&#x1e3f;" horiz-adv-x="906" 
d="M429 343q0 40 -21.5 63t-58.5 23q-35 0 -72.5 -20t-79.5 -62l-86 -347h-91l122 488l95 20l-21 -86q42 45 80.5 66.5t77.5 21.5q49 0 86.5 -25.5t52.5 -69.5q52 49 97.5 72t92.5 23q64 0 105 -41.5t41 -107.5q0 -20 -3.5 -43t-10.5 -51l-66 -267h-91l71 285q5 19 7 33
t2 25q0 40 -21.5 63t-58.5 23t-75.5 -18t-81.5 -55q-1 -17 -4 -36.5t-11 -52.5l-66 -267h-91l71 285q5 19 7 33t2 25zM756 770l-205 -167h-48l125 169h128v-2z" />
    <glyph glyph-name="uni1E40" unicode="&#x1e40;" horiz-adv-x="1028" 
d="M240 700h134l116 -526l382 526h141l-119 -700h-94l102 592l-446 -603h-16l-141 608l-194 -597h-95zM629 880q26 0 44.5 -18.5t18.5 -44.5t-18.5 -44.5t-44.5 -18.5q-27 0 -45 18t-18 45t18 45t45 18z" />
    <glyph glyph-name="uni1E41" unicode="&#x1e41;" horiz-adv-x="906" 
d="M429 343q0 40 -21.5 63t-58.5 23q-35 0 -72.5 -20t-79.5 -62l-86 -347h-91l122 488l95 20l-21 -86q42 45 80.5 66.5t77.5 21.5q49 0 86.5 -25.5t52.5 -69.5q52 49 97.5 72t92.5 23q64 0 105 -41.5t41 -107.5q0 -20 -3.5 -43t-10.5 -51l-66 -267h-91l71 285q5 19 7 33
t2 25q0 40 -21.5 63t-58.5 23t-75.5 -18t-81.5 -55q-1 -17 -4 -36.5t-11 -52.5l-66 -267h-91l71 285q5 19 7 33t2 25zM552 602q-26 0 -44 18t-18 44t18 44t44 18t44 -18t18 -44t-18 -44t-44 -18z" />
    <glyph glyph-name="uni1E42" unicode="&#x1e42;" horiz-adv-x="1028" 
d="M240 700h134l116 -526l382 526h141l-119 -700h-94l102 592l-446 -603h-16l-141 608l-194 -597h-95zM422 -210q-26 0 -44 18t-18 44t18 44t44 18t44 -18t18 -44q0 -25 -18 -43.5t-44 -18.5z" />
    <glyph glyph-name="uni1E43" unicode="&#x1e43;" horiz-adv-x="906" 
d="M429 343q0 40 -21.5 63t-58.5 23q-35 0 -72.5 -20t-79.5 -62l-86 -347h-91l122 488l95 20l-21 -86q42 45 80.5 66.5t77.5 21.5q49 0 86.5 -25.5t52.5 -69.5q52 49 97.5 72t92.5 23q64 0 105 -41.5t41 -107.5q0 -20 -3.5 -43t-10.5 -51l-66 -267h-91l71 285q5 19 7 33
t2 25q0 40 -21.5 63t-58.5 23t-75.5 -18t-81.5 -55q-1 -17 -4 -36.5t-11 -52.5l-66 -267h-91l71 285q5 19 7 33t2 25zM360 -210q-26 0 -44 18t-18 44t18 44t44 18t44 -18t18 -44q0 -25 -18 -43.5t-44 -18.5z" />
    <glyph glyph-name="uni1E44" unicode="&#x1e44;" horiz-adv-x="817" 
d="M129 0h-91l174 700h89l308 -513l128 513h91l-175 -705h-33l-348 579zM539 885q26 0 44.5 -18.5t18.5 -44.5t-18.5 -44.5t-44.5 -18.5q-27 0 -45 18t-18 45t18 45t45 18z" />
    <glyph glyph-name="uni1E45" unicode="&#x1e45;" horiz-adv-x="596" 
d="M449 343q0 41 -22.5 63.5t-62.5 22.5q-38 0 -79 -20.5t-89 -64.5l-85 -344h-91l122 488l95 20l-22 -90q46 47 88 69.5t85 22.5q67 0 109.5 -41t42.5 -108q0 -20 -3.5 -43t-10.5 -51l-67 -267h-90l71 285q5 19 7 33t2 25zM391 602q-26 0 -44 18t-18 44t18 44t44 18t44 -18
t18 -44t-18 -44t-44 -18z" />
    <glyph glyph-name="uni1E46" unicode="&#x1e46;" horiz-adv-x="817" 
d="M129 0h-91l174 700h89l308 -513l128 513h91l-175 -705h-33l-348 579zM336 -199q-26 0 -44 18t-18 44t18 44t44 18t44 -18t18 -44q0 -25 -18 -43.5t-44 -18.5z" />
    <glyph glyph-name="uni1E47" unicode="&#x1e47;" horiz-adv-x="596" 
d="M449 343q0 41 -22.5 63.5t-62.5 22.5q-38 0 -79 -20.5t-89 -64.5l-85 -344h-91l122 488l95 20l-22 -90q46 47 88 69.5t85 22.5q67 0 109.5 -41t42.5 -108q0 -20 -3.5 -43t-10.5 -51l-67 -267h-90l71 285q5 19 7 33t2 25zM218 -204q-26 0 -44 18t-18 44t18 44t44 18
t44 -18t18 -44q0 -25 -18 -43.5t-44 -18.5z" />
    <glyph glyph-name="uni1E48" unicode="&#x1e48;" horiz-adv-x="817" 
d="M129 0h-91l174 700h89l308 -513l128 513h91l-175 -705h-33l-348 579zM158 -179l17 68h336l-17 -68h-336z" />
    <glyph glyph-name="uni1E49" unicode="&#x1e49;" horiz-adv-x="596" 
d="M449 343q0 41 -22.5 63.5t-62.5 22.5q-38 0 -79 -20.5t-89 -64.5l-85 -344h-91l122 488l95 20l-22 -90q46 47 88 69.5t85 22.5q67 0 109.5 -41t42.5 -108q0 -20 -3.5 -43t-10.5 -51l-67 -267h-90l71 285q5 19 7 33t2 25zM41 -179l17 68h336l-17 -68h-336z" />
    <glyph glyph-name="uni1E4A" unicode="&#x1e4a;" horiz-adv-x="817" 
d="M129 0h-91l174 700h89l308 -513l128 513h91l-175 -705h-33l-348 579zM469 -244h-41l-91 95l-142 -95h-48v2l162 167h81z" />
    <glyph glyph-name="uni1E4B" unicode="&#x1e4b;" horiz-adv-x="596" 
d="M449 343q0 41 -22.5 63.5t-62.5 22.5q-38 0 -79 -20.5t-89 -64.5l-85 -344h-91l122 488l95 20l-22 -90q46 47 88 69.5t85 22.5q67 0 109.5 -41t42.5 -108q0 -20 -3.5 -43t-10.5 -51l-67 -267h-90l71 285q5 19 7 33t2 25zM351 -249h-41l-91 95l-142 -95h-48v2l162 167h81z
" />
    <glyph glyph-name="uni1E58" unicode="&#x1e58;" horiz-adv-x="632" 
d="M581 0h-111l-194 280h-73l-69 -280h-96l174 700h179q98 0 154.5 -48.5t56.5 -132.5q0 -89 -61.5 -151.5t-161.5 -78.5zM504 511q0 49 -32.5 76t-91.5 27h-95l-62 -249h106q75 0 125 41.5t50 104.5zM454 896q26 0 44.5 -18.5t18.5 -44.5t-18.5 -44.5t-44.5 -18.5
q-27 0 -45 18t-18 45t18 45t45 18z" />
    <glyph glyph-name="uni1E59" unicode="&#x1e59;" horiz-adv-x="406" 
d="M380 412q-41 0 -85 -21.5t-105 -72.5l-79 -318h-91l122 488l95 20l-30 -121q67 73 105 97t81 24q9 0 19 -1.5t20 -3.5l-15 -96q-9 3 -17.5 4t-19.5 1zM327 602q-26 0 -44 18t-18 44t18 44t44 18t44 -18t18 -44t-18 -44t-44 -18z" />
    <glyph glyph-name="uni1E5A" unicode="&#x1e5a;" horiz-adv-x="632" 
d="M581 0h-111l-194 280h-73l-69 -280h-96l174 700h179q98 0 154.5 -48.5t56.5 -132.5q0 -89 -61.5 -151.5t-161.5 -78.5zM504 511q0 49 -32.5 76t-91.5 27h-95l-62 -249h106q75 0 125 41.5t50 104.5zM270 -205q-26 0 -44 18t-18 44t18 44t44 18t44 -18t18 -44
q0 -25 -18 -43.5t-44 -18.5z" />
    <glyph glyph-name="uni1E5B" unicode="&#x1e5b;" horiz-adv-x="406" 
d="M380 412q-41 0 -85 -21.5t-105 -72.5l-79 -318h-91l122 488l95 20l-30 -121q67 73 105 97t81 24q9 0 19 -1.5t20 -3.5l-15 -96q-9 3 -17.5 4t-19.5 1zM36 -210q-26 0 -44 18t-18 44t18 44t44 18t44 -18t18 -44q0 -25 -18 -43.5t-44 -18.5z" />
    <glyph glyph-name="uni1E5C" unicode="&#x1e5c;" horiz-adv-x="632" 
d="M581 0h-111l-194 280h-73l-69 -280h-96l174 700h179q98 0 154.5 -48.5t56.5 -132.5q0 -89 -61.5 -151.5t-161.5 -78.5zM504 511q0 49 -32.5 76t-91.5 27h-95l-62 -249h106q75 0 125 41.5t50 104.5zM266 796l17 68h356l-16 -68h-357zM270 -205q-26 0 -44 18t-18 44t18 44
t44 18t44 -18t18 -44q0 -25 -18 -43.5t-44 -18.5z" />
    <glyph glyph-name="uni1E5D" unicode="&#x1e5d;" horiz-adv-x="406" 
d="M380 412q-41 0 -85 -21.5t-105 -72.5l-79 -318h-91l122 488l95 20l-30 -121q67 73 105 97t81 24q9 0 19 -1.5t20 -3.5l-15 -96q-9 3 -17.5 4t-19.5 1zM180 628l16 68h276l-17 -68h-275zM36 -210q-26 0 -44 18t-18 44t18 44t44 18t44 -18t18 -44q0 -25 -18 -43.5
t-44 -18.5z" />
    <glyph glyph-name="uni1E5E" unicode="&#x1e5e;" horiz-adv-x="632" 
d="M581 0h-111l-194 280h-73l-69 -280h-96l174 700h179q98 0 154.5 -48.5t56.5 -132.5q0 -89 -61.5 -151.5t-161.5 -78.5zM504 511q0 49 -32.5 76t-91.5 27h-95l-62 -249h106q75 0 125 41.5t50 104.5zM93 -179l17 68h336l-17 -68h-336z" />
    <glyph glyph-name="uni1E5F" unicode="&#x1e5f;" horiz-adv-x="406" 
d="M380 412q-41 0 -85 -21.5t-105 -72.5l-79 -318h-91l122 488l95 20l-30 -121q67 73 105 97t81 24q9 0 19 -1.5t20 -3.5l-15 -96q-9 3 -17.5 4t-19.5 1zM-110 -179l17 68h276l-17 -68h-276z" />
    <glyph glyph-name="uni1E62" unicode="&#x1e62;" horiz-adv-x="550" 
d="M136 512q0 87 64.5 143.5t166.5 56.5q48 0 94.5 -13t86.5 -38v-108l-2 -1q-42 34 -88 52t-94 18q-59 0 -96.5 -28t-37.5 -71q0 -34 22.5 -61.5t86.5 -67.5q82 -52 114 -96t32 -104q0 -92 -65 -149t-169 -57q-57 0 -112 21.5t-94 57.5l-25 134l2 1q57 -61 115.5 -92.5
t114.5 -31.5q61 0 99.5 29t38.5 76q0 36 -21.5 63t-86.5 69q-82 52 -114 95.5t-32 101.5zM192 -215q-26 0 -44 18t-18 44t18 44t44 18t44 -18t18 -44q0 -25 -18 -43.5t-44 -18.5z" />
    <glyph glyph-name="uni1E63" unicode="&#x1e63;" horiz-adv-x="493" 
d="M231 213q-78 30 -110 64t-32 86q0 65 54.5 106.5t140.5 41.5q46 0 89 -12.5t80 -36.5v-97l-3 -1q-43 34 -85.5 50.5t-86.5 16.5q-45 0 -73 -17t-28 -44q0 -25 20.5 -42.5t75.5 -38.5q76 -30 108.5 -64.5t32.5 -85.5q0 -67 -56 -108.5t-147 -41.5q-50 0 -98 14.5t-81 40.5
l-16 104l2 2q43 -39 95 -60t105 -21q47 0 77.5 17.5t30.5 44.5q0 24 -21 42t-74 40zM156 -212q-26 0 -44 18t-18 44t18 44t44 18t44 -18t18 -44q0 -25 -18 -43.5t-44 -18.5z" />
    <glyph glyph-name="uni1E6C" unicode="&#x1e6c;" horiz-adv-x="700" 
d="M778 700l-22 -87h-266l-152 -613h-96l152 613h-270l23 87h631zM256 -210q-26 0 -44 18t-18 44t18 44t44 18t44 -18t18 -44q0 -25 -18 -43.5t-44 -18.5z" />
    <glyph glyph-name="uni1E6D" unicode="&#x1e6d;" horiz-adv-x="445" 
d="M381 119l-30 -101q-25 -15 -52.5 -22t-57.5 -7q-68 0 -108 39t-40 106q0 17 2 33t7 33l60 223h-85l20 77h86l30 111l98 34l-39 -145h192l-19 -77h-194l-64 -237q-3 -12 -4.5 -22.5t-1.5 -20.5q0 -33 21.5 -53t56.5 -20q30 0 60 12.5t60 38.5zM173 -210q-26 0 -44 18
t-18 44t18 44t44 18t44 -18t18 -44q0 -25 -18 -43.5t-44 -18.5z" />
    <glyph glyph-name="uni1E6E" unicode="&#x1e6e;" horiz-adv-x="700" 
d="M778 700l-22 -87h-266l-152 -613h-96l152 613h-270l23 87h631zM80 -179l17 68h336l-17 -68h-336z" />
    <glyph glyph-name="uni1E6F" unicode="&#x1e6f;" horiz-adv-x="445" 
d="M381 119l-30 -101q-25 -15 -52.5 -22t-57.5 -7q-68 0 -108 39t-40 106q0 17 2 33t7 33l60 223h-85l20 77h86l30 111l98 34l-39 -145h192l-19 -77h-194l-64 -237q-3 -12 -4.5 -22.5t-1.5 -20.5q0 -33 21.5 -53t56.5 -20q30 0 60 12.5t60 38.5zM27 -179l17 68h276l-17 -68
h-276z" />
    <glyph glyph-name="uni1E70" unicode="&#x1e70;" horiz-adv-x="700" 
d="M778 700l-22 -87h-266l-152 -613h-96l152 613h-270l23 87h631zM389 -255h-41l-91 95l-142 -95h-48v2l162 167h81z" />
    <glyph glyph-name="uni1E71" unicode="&#x1e71;" horiz-adv-x="445" 
d="M381 119l-30 -101q-25 -15 -52.5 -22t-57.5 -7q-68 0 -108 39t-40 106q0 17 2 33t7 33l60 223h-85l20 77h86l30 111l98 34l-39 -145h192l-19 -77h-194l-64 -237q-3 -12 -4.5 -22.5t-1.5 -20.5q0 -33 21.5 -53t56.5 -20q30 0 60 12.5t60 38.5zM306 -255h-41l-91 95
l-142 -95h-48v2l162 167h81z" />
    <glyph glyph-name="uni1E7E" unicode="&#x1e7e;" horiz-adv-x="764" 
d="M734 700h112l-522 -716h-23l-158 716h101l107 -537zM286 -219q-26 0 -44 18t-18 44t18 44t44 18t44 -18t18 -44q0 -25 -18 -43.5t-44 -18.5z" />
    <glyph glyph-name="uni1E7F" unicode="&#x1e7f;" horiz-adv-x="564" 
d="M500 500h105l-378 -514h-19l-126 514h93l78 -347zM192 -210q-26 0 -44 18t-18 44t18 44t44 18t44 -18t18 -44q0 -25 -18 -43.5t-44 -18.5z" />
    <glyph glyph-name="Wgrave" unicode="&#x1e80;" horiz-adv-x="1169" 
d="M1136 700h111l-419 -704h-95l-93 506l-325 -506h-99l-67 704h100l46 -581l379 589h18l109 -588zM679 913l47 -141h-45l-127 141h125z" />
    <glyph glyph-name="wgrave" unicode="&#x1e81;" horiz-adv-x="876" 
d="M814 500h100l-314 -507h-80l-65 333l-228 -333h-78l-64 507h91l40 -391l271 397h17l77 -397zM493 772l44 -169h-40l-120 169h116z" />
    <glyph glyph-name="Wacute" unicode="&#x1e82;" horiz-adv-x="1169" 
d="M1136 700h111l-419 -704h-95l-93 506l-325 -506h-99l-67 704h100l46 -581l379 589h18l109 -588zM920 911l-200 -139h-56l115 141h141v-2z" />
    <glyph glyph-name="wacute" unicode="&#x1e83;" horiz-adv-x="876" 
d="M814 500h100l-314 -507h-80l-65 333l-228 -333h-78l-64 507h91l40 -391l271 397h17l77 -397zM734 770l-205 -167h-48l125 169h128v-2z" />
    <glyph glyph-name="Wdieresis" unicode="&#x1e84;" horiz-adv-x="1169" 
d="M1136 700h111l-419 -704h-95l-93 506l-325 -506h-99l-67 704h100l46 -581l379 589h18l109 -588zM611 896q26 0 44 -18.5t18 -44.5t-18 -44.5t-44 -18.5q-27 0 -45 18t-18 45t18 45t45 18zM816 896q27 0 45 -18t18 -45t-18 -45t-45 -18q-26 0 -44.5 18.5t-18.5 44.5
t18.5 44.5t44.5 18.5z" />
    <glyph glyph-name="wdieresis" unicode="&#x1e85;" horiz-adv-x="876" 
d="M814 500h100l-314 -507h-80l-65 333l-228 -333h-78l-64 507h91l40 -391l271 397h17l77 -397zM489 664q0 -26 -18 -44t-44 -18t-44 18.5t-18 43.5q0 26 18 44t44 18t44 -18t18 -44zM694 664q0 -25 -18 -43.5t-44 -18.5t-44.5 18t-18.5 44t18.5 44t44.5 18t44 -18t18 -44z
" />
    <glyph glyph-name="uni1E8C" unicode="&#x1e8c;" horiz-adv-x="730" 
d="M631 0h-105l-148 288l-281 -288h-123v2l359 361l-177 337h106l143 -277l273 277h122v-2l-351 -350zM395 896q26 0 44 -18.5t18 -44.5t-18 -44.5t-44 -18.5q-27 0 -45 18t-18 45t18 45t45 18zM600 896q27 0 45 -18t18 -45t-18 -45t-45 -18q-26 0 -44.5 18.5t-18.5 44.5
t18.5 44.5t44.5 18.5z" />
    <glyph glyph-name="uni1E8D" unicode="&#x1e8d;" horiz-adv-x="555" 
d="M466 0h-99l-100 196l-189 -196h-112v2l260 261l-126 237h100l92 -180l174 180h112v-2l-246 -245zM336 664q0 -26 -18 -44t-44 -18t-44 18.5t-18 43.5q0 26 18 44t44 18t44 -18t18 -44zM541 664q0 -25 -18 -43.5t-44 -18.5t-44.5 18t-18.5 44t18.5 44t44.5 18t44 -18
t18 -44z" />
    <glyph glyph-name="uni1E8E" unicode="&#x1e8e;" horiz-adv-x="658" 
d="M756 700v-2l-367 -392l-76 -306h-97l79 317l-171 383h101l132 -305l282 305h117zM459 891q26 0 44.5 -18.5t18.5 -44.5t-18.5 -44.5t-44.5 -18.5q-27 0 -45 18t-18 45t18 45t45 18z" />
    <glyph glyph-name="uni1E8F" unicode="&#x1e8f;" horiz-adv-x="546" 
d="M586 500l-371 -574q-42 -64 -86.5 -93t-100.5 -29q-22 0 -39.5 4t-31.5 12l-23 93l3 2q17 -13 36.5 -19.5t44.5 -6.5q39 0 68.5 19t56.5 61l40 62l-99 469h93l72 -375l235 375h102zM362 597q-26 0 -44 18t-18 44t18 44t44 18t44 -18t18 -44t-18 -44t-44 -18z" />
    <glyph glyph-name="uni1E90" unicode="&#x1e90;" horiz-adv-x="691" 
d="M175 87h444l-61 -87h-563l-7 16l569 597h-411l23 87h567l8 -16zM624 772h-50l-98 75l-137 -75h-57v1l161 140h88z" />
    <glyph glyph-name="uni1E91" unicode="&#x1e91;" horiz-adv-x="527" 
d="M145 78h315l-58 -78h-427l-5 15l398 407h-277l19 78h428l5 -15zM505 603h-41l-91 95l-142 -95h-48v2l162 167h81z" />
    <glyph glyph-name="uni1E92" unicode="&#x1e92;" horiz-adv-x="691" 
d="M175 87h444l-61 -87h-563l-7 16l569 597h-411l23 87h567l8 -16zM277 -210q-26 0 -44 18t-18 44t18 44t44 18t44 -18t18 -44q0 -25 -18 -43.5t-44 -18.5z" />
    <glyph glyph-name="uni1E93" unicode="&#x1e93;" horiz-adv-x="527" 
d="M145 78h315l-58 -78h-427l-5 15l398 407h-277l19 78h428l5 -15zM169 -210q-26 0 -44 18t-18 44t18 44t44 18t44 -18t18 -44q0 -25 -18 -43.5t-44 -18.5z" />
    <glyph glyph-name="uni1E94" unicode="&#x1e94;" horiz-adv-x="691" 
d="M175 87h444l-61 -87h-563l-7 16l569 597h-411l23 87h567l8 -16zM101 -179l17 68h336l-17 -68h-336z" />
    <glyph glyph-name="uni1E95" unicode="&#x1e95;" horiz-adv-x="527" 
d="M145 78h315l-58 -78h-427l-5 15l398 407h-277l19 78h428l5 -15zM-7 -179l17 68h336l-17 -68h-336z" />
    <glyph glyph-name="uni1E96" unicode="&#x1e96;" horiz-adv-x="596" 
d="M449 343q0 41 -22.5 63.5t-62.5 22.5q-38 0 -79 -21t-88 -64l-86 -344h-91l181 725l99 34l-85 -340q46 47 88 69t85 22q67 0 109.5 -41t42.5 -108q0 -20 -3.5 -43t-10.5 -51l-67 -267h-90l71 285q5 19 7 33t2 25zM41 -179l17 68h336l-17 -68h-336z" />
    <glyph glyph-name="uni1E9E" unicode="&#x1e9e;" horiz-adv-x="703" 
d="M632 184q0 -85 -65 -140.5t-164 -55.5q-34 0 -68 7.5t-64 21.5l-22 100l2 1q35 -21 71.5 -32t73.5 -11q63 0 101.5 30t38.5 79q0 48 -43 82t-149 69v15l233 240q-30 17 -62 25.5t-65 8.5q-80 0 -136 -48t-78 -136l-111 -440h-96l115 458q31 122 111 189t195 67
q70 0 133.5 -26.5t114.5 -77.5v-14l-219 -225q79 -33 116 -78.5t37 -108.5z" />
    <glyph glyph-name="uni1EA0" unicode="&#x1ea0;" horiz-adv-x="783" 
d="M77 0h-108l489 704h93l139 -704h-97l-33 180h-360zM484 596l-226 -331h287zM318 -199q-26 0 -44 18t-18 44t18 44t44 18t44 -18t18 -44q0 -25 -18 -43.5t-44 -18.5z" />
    <glyph glyph-name="uni1EA1" unicode="&#x1ea1;" horiz-adv-x="552" 
d="M484 247l-64 -237l-96 -20l23 86q-54 -43 -102 -63.5t-92 -20.5q-61 0 -98 35t-37 94q0 82 72.5 127t206.5 45q25 0 52.5 -2t53.5 -5l3 25.5t1 15.5q0 46 -30 72.5t-82 26.5q-42 0 -86.5 -13.5t-94.5 -42.5l-1 2l45 104q37 17 74.5 25t78.5 8q86 0 135.5 -47t49.5 -126
q0 -23 -3 -44.5t-9 -44.5zM307 234q-94 0 -146 -27.5t-52 -75.5q0 -29 18.5 -45.5t51.5 -16.5q40 0 85 17.5t101 54.5l24 88q-23 3 -43.5 4t-38.5 1zM186 -210q-26 0 -44 18t-18 44t18 44t44 18t44 -18t18 -44q0 -25 -18 -43.5t-44 -18.5z" />
    <glyph glyph-name="uni1EA2" unicode="&#x1ea2;" horiz-adv-x="783" 
d="M77 0h-108l489 704h93l139 -704h-97l-33 180h-360zM484 596l-226 -331h287zM663 885q0 -33 -34 -61.5t-106 -56.5l-60 18v2q69 30 99 49.5t30 34.5q0 9 -9.5 13.5t-27.5 4.5q-27 0 -60 -10.5t-68 -30.5l-2 1l17 66q26 15 59 23.5t64 8.5q44 0 71 -17t27 -45z" />
    <glyph glyph-name="uni1EA3" unicode="&#x1ea3;" horiz-adv-x="552" 
d="M484 247l-64 -237l-96 -20l23 86q-54 -43 -102 -63.5t-92 -20.5q-61 0 -98 35t-37 94q0 82 72.5 127t206.5 45q25 0 52.5 -2t53.5 -5l3 25.5t1 15.5q0 46 -30 72.5t-82 26.5q-42 0 -86.5 -13.5t-94.5 -42.5l-1 2l45 104q37 17 74.5 25t78.5 8q86 0 135.5 -47t49.5 -126
q0 -23 -3 -44.5t-9 -44.5zM307 234q-94 0 -146 -27.5t-52 -75.5q0 -29 18.5 -45.5t51.5 -16.5q40 0 85 17.5t101 54.5l24 88q-23 3 -43.5 4t-38.5 1zM275 702l19 80q28 18 59 28t63 10q44 0 70 -21t26 -56q0 -37 -34 -72t-111 -75l-57 18v2q71 41 100 66.5t29 45.5
q0 12 -9 18.5t-26 6.5q-25 0 -56 -12.5t-71 -39.5z" />
    <glyph glyph-name="uni1EA4" unicode="&#x1ea4;" horiz-adv-x="783" 
d="M77 0h-108l489 704h93l139 -704h-97l-33 180h-360zM484 596l-226 -331h287zM716 872h-53l90 110h129v-2zM687 768h-50l-100 61l-135 -61h-57v1l157 119h87z" />
    <glyph glyph-name="uni1EA5" unicode="&#x1ea5;" horiz-adv-x="552" 
d="M484 247l-64 -237l-96 -20l23 86q-54 -43 -102 -63.5t-92 -20.5q-61 0 -98 35t-37 94q0 82 72.5 127t206.5 45q25 0 52.5 -2t53.5 -5l3 25.5t1 15.5q0 46 -30 72.5t-82 26.5q-42 0 -86.5 -13.5t-94.5 -42.5l-1 2l45 104q37 17 74.5 25t78.5 8q86 0 135.5 -47t49.5 -126
q0 -23 -3 -44.5t-9 -44.5zM307 234q-94 0 -146 -27.5t-52 -75.5q0 -29 18.5 -45.5t51.5 -16.5q40 0 85 17.5t101 54.5l24 88q-23 3 -43.5 4t-38.5 1zM561 722h-47l94 128h105v-2zM532 603h-43l-103 68l-145 -68h-47v2l160 129h81z" />
    <glyph glyph-name="uni1EA6" unicode="&#x1ea6;" horiz-adv-x="783" 
d="M77 0h-108l489 704h93l139 -704h-97l-33 180h-360zM484 596l-226 -331h287zM724 982l41 -110h-42l-110 110h111zM687 768h-50l-100 61l-135 -61h-57v1l157 119h87z" />
    <glyph glyph-name="uni1EA7" unicode="&#x1ea7;" horiz-adv-x="552" 
d="M484 247l-64 -237l-96 -20l23 86q-54 -43 -102 -63.5t-92 -20.5q-61 0 -98 35t-37 94q0 82 72.5 127t206.5 45q25 0 52.5 -2t53.5 -5l3 25.5t1 15.5q0 46 -30 72.5t-82 26.5q-42 0 -86.5 -13.5t-94.5 -42.5l-1 2l45 104q37 17 74.5 25t78.5 8q86 0 135.5 -47t49.5 -126
q0 -23 -3 -44.5t-9 -44.5zM307 234q-94 0 -146 -27.5t-52 -75.5q0 -29 18.5 -45.5t51.5 -16.5q40 0 85 17.5t101 54.5l24 88q-23 3 -43.5 4t-38.5 1zM556 850l38 -128h-40l-92 128h94zM532 603h-43l-103 68l-145 -68h-47v2l160 129h81z" />
    <glyph glyph-name="uni1EA8" unicode="&#x1ea8;" horiz-adv-x="783" 
d="M77 0h-108l489 704h93l139 -704h-97l-33 180h-360zM484 596l-226 -331h287zM770 952q0 8 -8.5 12.5t-24.5 4.5q-21 0 -47.5 -8.5t-52.5 -22.5l-2 1l14 54q21 12 46.5 18t52.5 6q39 0 62.5 -14.5t23.5 -37.5q0 -26 -26 -47t-89 -45l-46 17v2q53 21 75 34.5t22 25.5z
M687 768h-50l-100 61l-135 -61h-57v1l157 119h87z" />
    <glyph glyph-name="uni1EA9" unicode="&#x1ea9;" horiz-adv-x="552" 
d="M484 247l-64 -237l-96 -20l23 86q-54 -43 -102 -63.5t-92 -20.5q-61 0 -98 35t-37 94q0 82 72.5 127t206.5 45q25 0 52.5 -2t53.5 -5l3 25.5t1 15.5q0 46 -30 72.5t-82 26.5q-42 0 -86.5 -13.5t-94.5 -42.5l-1 2l45 104q37 17 74.5 25t78.5 8q86 0 135.5 -47t49.5 -126
q0 -23 -3 -44.5t-9 -44.5zM307 234q-94 0 -146 -27.5t-52 -75.5q0 -29 18.5 -45.5t51.5 -16.5q40 0 85 17.5t101 54.5l24 88q-23 3 -43.5 4t-38.5 1zM630 807q0 10 -8 15.5t-23 5.5q-23 0 -52 -11.5t-62 -33.5l-2 1l20 65q24 17 51 25.5t55 8.5q37 0 61.5 -18t24.5 -45
q0 -29 -28 -54t-94 -55l-49 16v2q57 28 81.5 46t24.5 32zM532 603h-43l-103 68l-145 -68h-47v2l160 129h81z" />
    <glyph glyph-name="uni1EAA" unicode="&#x1eaa;" horiz-adv-x="783" 
d="M77 0h-108l489 704h93l139 -704h-97l-33 180h-360zM484 596l-226 -331h287zM640 923q-12 0 -29 5.5t-53 24.5q-30 14 -42 18.5t-20 4.5q-15 0 -27.5 -10t-37.5 -43l-34 21q30 53 52.5 74.5t47.5 21.5q12 0 28.5 -5.5t52.5 -23.5q30 -15 42.5 -19.5t20.5 -4.5
q15 0 27.5 10t37.5 43l34 -21q-30 -53 -52.5 -74.5t-47.5 -21.5zM687 768h-50l-100 61l-135 -61h-57v1l157 119h87z" />
    <glyph glyph-name="uni1EAB" unicode="&#x1eab;" horiz-adv-x="552" 
d="M484 247l-64 -237l-96 -20l23 86q-54 -43 -102 -63.5t-92 -20.5q-61 0 -98 35t-37 94q0 82 72.5 127t206.5 45q25 0 52.5 -2t53.5 -5l3 25.5t1 15.5q0 46 -30 72.5t-82 26.5q-42 0 -86.5 -13.5t-94.5 -42.5l-1 2l45 104q37 17 74.5 25t78.5 8q86 0 135.5 -47t49.5 -126
q0 -23 -3 -44.5t-9 -44.5zM307 234q-94 0 -146 -27.5t-52 -75.5q0 -29 18.5 -45.5t51.5 -16.5q40 0 85 17.5t101 54.5l24 88q-23 3 -43.5 4t-38.5 1zM488 773q-12 0 -27.5 5t-49.5 20q-28 13 -40.5 17t-20.5 4q-14 0 -28 -9t-44 -38l-32 30q37 48 59 66t44 18q12 0 27.5 -5
t48.5 -20q29 -13 41.5 -17t21.5 -4q13 0 26.5 9t44.5 39l32 -30q-37 -48 -59 -66.5t-44 -18.5zM532 603h-43l-103 68l-145 -68h-47v2l160 129h81z" />
    <glyph glyph-name="uni1EAC" unicode="&#x1eac;" horiz-adv-x="783" 
d="M77 0h-108l489 704h93l139 -704h-97l-33 180h-360zM484 596l-226 -331h287zM686 768h-50l-98 75l-137 -75h-57v1l161 140h88zM318 -199q-26 0 -44 18t-18 44t18 44t44 18t44 -18t18 -44q0 -25 -18 -43.5t-44 -18.5z" />
    <glyph glyph-name="uni1EAD" unicode="&#x1ead;" horiz-adv-x="552" 
d="M484 247l-64 -237l-96 -20l23 86q-54 -43 -102 -63.5t-92 -20.5q-61 0 -98 35t-37 94q0 82 72.5 127t206.5 45q25 0 52.5 -2t53.5 -5l3 25.5t1 15.5q0 46 -30 72.5t-82 26.5q-42 0 -86.5 -13.5t-94.5 -42.5l-1 2l45 104q37 17 74.5 25t78.5 8q86 0 135.5 -47t49.5 -126
q0 -23 -3 -44.5t-9 -44.5zM307 234q-94 0 -146 -27.5t-52 -75.5q0 -29 18.5 -45.5t51.5 -16.5q40 0 85 17.5t101 54.5l24 88q-23 3 -43.5 4t-38.5 1zM522 603h-41l-91 95l-142 -95h-48v2l162 167h81zM186 -210q-26 0 -44 18t-18 44t18 44t44 18t44 -18t18 -44
q0 -25 -18 -43.5t-44 -18.5z" />
    <glyph glyph-name="uni1EAE" unicode="&#x1eae;" horiz-adv-x="783" 
d="M77 0h-108l489 704h93l139 -704h-97l-33 180h-360zM484 596l-226 -331h287zM559 909h-48l92 118h125v-1zM521 772q-56 0 -97.5 29t-60.5 80l40 28q22 -31 54 -47t73 -16t79.5 15.5t76.5 47.5l37 -28q-38 -52 -90.5 -80.5t-111.5 -28.5z" />
    <glyph glyph-name="uni1EAF" unicode="&#x1eaf;" horiz-adv-x="552" 
d="M484 247l-64 -237l-96 -20l23 86q-54 -43 -102 -63.5t-92 -20.5q-61 0 -98 35t-37 94q0 82 72.5 127t206.5 45q25 0 52.5 -2t53.5 -5l3 25.5t1 15.5q0 46 -30 72.5t-82 26.5q-42 0 -86.5 -13.5t-94.5 -42.5l-1 2l45 104q37 17 74.5 25t78.5 8q86 0 135.5 -47t49.5 -126
q0 -23 -3 -44.5t-9 -44.5zM307 234q-94 0 -146 -27.5t-52 -75.5q0 -29 18.5 -45.5t51.5 -16.5q40 0 85 17.5t101 54.5l24 88q-23 3 -43.5 4t-38.5 1zM579 876l-169 -126h-47l93 128h123v-2zM377 667q39 0 75 16.5t72 51.5l34 -32q-32 -49 -82.5 -77.5t-105.5 -28.5
q-53 0 -92.5 28.5t-57.5 77.5l37 32q21 -33 52 -50.5t68 -17.5z" />
    <glyph glyph-name="uni1EB0" unicode="&#x1eb0;" horiz-adv-x="783" 
d="M77 0h-108l489 704h93l139 -704h-97l-33 180h-360zM484 596l-226 -331h287zM530 1027l38 -118h-39l-105 118h106zM521 772q-56 0 -97.5 29t-60.5 80l40 28q22 -31 54 -47t73 -16t79.5 15.5t76.5 47.5l37 -28q-38 -52 -90.5 -80.5t-111.5 -28.5z" />
    <glyph glyph-name="uni1EB1" unicode="&#x1eb1;" horiz-adv-x="552" 
d="M484 247l-64 -237l-96 -20l23 86q-54 -43 -102 -63.5t-92 -20.5q-61 0 -98 35t-37 94q0 82 72.5 127t206.5 45q25 0 52.5 -2t53.5 -5l3 25.5t1 15.5q0 46 -30 72.5t-82 26.5q-42 0 -86.5 -13.5t-94.5 -42.5l-1 2l45 104q37 17 74.5 25t78.5 8q86 0 135.5 -47t49.5 -126
q0 -23 -3 -44.5t-9 -44.5zM307 234q-94 0 -146 -27.5t-52 -75.5q0 -29 18.5 -45.5t51.5 -16.5q40 0 85 17.5t101 54.5l24 88q-23 3 -43.5 4t-38.5 1zM381 878l37 -128h-38l-110 128h111zM377 667q39 0 75 16.5t72 51.5l34 -32q-32 -49 -82.5 -77.5t-105.5 -28.5
q-53 0 -92.5 28.5t-57.5 77.5l37 32q21 -33 52 -50.5t68 -17.5z" />
    <glyph glyph-name="uni1EB2" unicode="&#x1eb2;" horiz-adv-x="783" 
d="M77 0h-108l489 704h93l139 -704h-97l-33 180h-360zM484 596l-226 -331h287zM672 1011q0 -28 -29 -53t-89 -49l-55 18v2q59 25 81 40t22 29q0 9 -9.5 14t-27.5 5q-23 0 -48.5 -8.5t-57.5 -27.5l-2 1l15 61q23 13 50 20t55 7q42 0 68.5 -16.5t26.5 -42.5zM521 772
q-56 0 -97.5 29t-60.5 80l40 28q22 -31 54 -47t73 -16t79.5 15.5t76.5 47.5l37 -28q-38 -52 -90.5 -80.5t-111.5 -28.5z" />
    <glyph glyph-name="uni1EB3" unicode="&#x1eb3;" horiz-adv-x="552" 
d="M484 247l-64 -237l-96 -20l23 86q-54 -43 -102 -63.5t-92 -20.5q-61 0 -98 35t-37 94q0 82 72.5 127t206.5 45q25 0 52.5 -2t53.5 -5l3 25.5t1 15.5q0 46 -30 72.5t-82 26.5q-42 0 -86.5 -13.5t-94.5 -42.5l-1 2l45 104q37 17 74.5 25t78.5 8q86 0 135.5 -47t49.5 -126
q0 -23 -3 -44.5t-9 -44.5zM307 234q-94 0 -146 -27.5t-52 -75.5q0 -29 18.5 -45.5t51.5 -16.5q40 0 85 17.5t101 54.5l24 88q-23 3 -43.5 4t-38.5 1zM532 856q0 -29 -28.5 -55t-95.5 -57l-50 17v2q57 26 83 45t26 35q0 10 -8.5 15.5t-23.5 5.5q-23 0 -53 -11.5t-64 -34.5
l-1 1l20 66q24 17 52 25.5t56 8.5q37 0 62 -18t25 -45zM377 667q39 0 75 16.5t72 51.5l34 -32q-32 -49 -82.5 -77.5t-105.5 -28.5q-53 0 -92.5 28.5t-57.5 77.5l37 32q21 -33 52 -50.5t68 -17.5z" />
    <glyph glyph-name="uni1EB4" unicode="&#x1eb4;" horiz-adv-x="783" 
d="M77 0h-108l489 704h93l139 -704h-97l-33 180h-360zM484 596l-226 -331h287zM643 941q-12 0 -29 5.5t-53 24.5q-30 14 -42 18.5t-20 4.5q-15 0 -27.5 -10t-37.5 -43l-35 21q31 53 53.5 74.5t47.5 21.5q11 0 28 -5.5t52 -24.5q31 -15 43.5 -19.5t20.5 -4.5q14 0 26.5 9.5
t38.5 44.5l34 -21q-30 -53 -52.5 -74.5t-47.5 -21.5zM521 772q-56 0 -97.5 29t-60.5 80l40 28q22 -31 54 -47t73 -16t79.5 15.5t76.5 47.5l37 -28q-38 -52 -90.5 -80.5t-111.5 -28.5z" />
    <glyph glyph-name="uni1EB5" unicode="&#x1eb5;" horiz-adv-x="552" 
d="M484 247l-64 -237l-96 -20l23 86q-54 -43 -102 -63.5t-92 -20.5q-61 0 -98 35t-37 94q0 82 72.5 127t206.5 45q25 0 52.5 -2t53.5 -5l3 25.5t1 15.5q0 46 -30 72.5t-82 26.5q-42 0 -86.5 -13.5t-94.5 -42.5l-1 2l45 104q37 17 74.5 25t78.5 8q86 0 135.5 -47t49.5 -126
q0 -23 -3 -44.5t-9 -44.5zM307 234q-94 0 -146 -27.5t-52 -75.5q0 -29 18.5 -45.5t51.5 -16.5q40 0 85 17.5t101 54.5l24 88q-23 3 -43.5 4t-38.5 1zM486 775q-12 0 -27.5 5t-48.5 22q-28 14 -40 18t-20 4q-16 0 -31.5 -10.5t-41.5 -36.5l-32 30q37 49 58.5 67t43.5 18
q12 0 27.5 -5.5t48.5 -21.5q28 -14 40.5 -18.5t20.5 -4.5q16 0 31.5 10.5t41.5 36.5l32 -30q-38 -49 -59.5 -66.5t-43.5 -17.5zM377 667q39 0 75 16.5t72 51.5l34 -32q-32 -49 -82.5 -77.5t-105.5 -28.5q-53 0 -92.5 28.5t-57.5 77.5l37 32q21 -33 52 -50.5t68 -17.5z" />
    <glyph glyph-name="uni1EB6" unicode="&#x1eb6;" horiz-adv-x="783" 
d="M77 0h-108l489 704h93l139 -704h-97l-33 180h-360zM484 596l-226 -331h287zM523 772q-59 0 -101.5 32t-56.5 87l43 29q19 -37 50 -55.5t73 -18.5q40 0 77 17.5t80 56.5l39 -29q-36 -56 -90 -87.5t-114 -31.5zM318 -199q-26 0 -44 18t-18 44t18 44t44 18t44 -18t18 -44
q0 -25 -18 -43.5t-44 -18.5z" />
    <glyph glyph-name="uni1EB7" unicode="&#x1eb7;" horiz-adv-x="552" 
d="M484 247l-64 -237l-96 -20l23 86q-54 -43 -102 -63.5t-92 -20.5q-61 0 -98 35t-37 94q0 82 72.5 127t206.5 45q25 0 52.5 -2t53.5 -5l3 25.5t1 15.5q0 46 -30 72.5t-82 26.5q-42 0 -86.5 -13.5t-94.5 -42.5l-1 2l45 104q37 17 74.5 25t78.5 8q86 0 135.5 -47t49.5 -126
q0 -23 -3 -44.5t-9 -44.5zM307 234q-94 0 -146 -27.5t-52 -75.5q0 -29 18.5 -45.5t51.5 -16.5q40 0 85 17.5t101 54.5l24 88q-23 3 -43.5 4t-38.5 1zM378 675q40 0 76 20.5t72 64.5l38 -30q-32 -62 -83 -97.5t-109 -35.5q-54 0 -95 36.5t-54 96.5l42 30q19 -42 48 -63.5
t65 -21.5zM186 -210q-26 0 -44 18t-18 44t18 44t44 18t44 -18t18 -44q0 -25 -18 -43.5t-44 -18.5z" />
    <glyph glyph-name="uni1EB8" unicode="&#x1eb8;" horiz-adv-x="578" 
d="M439 0h-401l174 700h411l-23 -87h-313l-54 -214h262l-22 -86h-261l-57 -226h337zM220 -210q-26 0 -44 18t-18 44t18 44t44 18t44 -18t18 -44q0 -25 -18 -43.5t-44 -18.5z" />
    <glyph glyph-name="uni1EB9" unicode="&#x1eb9;" horiz-adv-x="555" 
d="M459 124l-22 -90q-42 -22 -87.5 -33.5t-95.5 -11.5q-95 0 -153.5 58.5t-58.5 155.5q0 127 87 219t205 92q84 0 134.5 -53.5t50.5 -143.5q0 -24 -3.5 -50t-10.5 -52h-373v-1q0 -69 36.5 -106t104.5 -37q46 0 92.5 13.5t91.5 40.5zM429 306q0 62 -28 95.5t-79 33.5
q-56 0 -107 -43.5t-72 -109.5h285q1 4 1 9v15zM200 -214q-26 0 -44 18t-18 44t18 44t44 18t44 -18t18 -44q0 -25 -18 -43.5t-44 -18.5z" />
    <glyph glyph-name="uni1EBA" unicode="&#x1eba;" horiz-adv-x="578" 
d="M439 0h-401l174 700h411l-23 -87h-313l-54 -214h262l-22 -86h-261l-57 -226h337zM580 885q0 -33 -34 -61.5t-106 -56.5l-60 18v2q69 30 99 49.5t30 34.5q0 9 -9.5 13.5t-27.5 4.5q-27 0 -60 -10.5t-68 -30.5l-2 1l17 66q26 15 59 23.5t64 8.5q44 0 71 -17t27 -45z" />
    <glyph glyph-name="uni1EBB" unicode="&#x1ebb;" horiz-adv-x="555" 
d="M459 124l-22 -90q-42 -22 -87.5 -33.5t-95.5 -11.5q-95 0 -153.5 58.5t-58.5 155.5q0 127 87 219t205 92q84 0 134.5 -53.5t50.5 -143.5q0 -24 -3.5 -50t-10.5 -52h-373v-1q0 -69 36.5 -106t104.5 -37q46 0 92.5 13.5t91.5 40.5zM429 306q0 62 -28 95.5t-79 33.5
q-56 0 -107 -43.5t-72 -109.5h285q1 4 1 9v15zM279 706l19 80q28 18 59 28t63 10q44 0 70 -21t26 -56q0 -37 -34 -72t-111 -75l-57 18v2q71 41 100 66.5t29 45.5q0 12 -9 18.5t-26 6.5q-25 0 -56 -12.5t-71 -39.5z" />
    <glyph glyph-name="uni1EBC" unicode="&#x1ebc;" horiz-adv-x="578" 
d="M439 0h-401l174 700h411l-23 -87h-313l-54 -214h262l-22 -86h-261l-57 -226h337zM463 870q26 -17 37.5 -22t19.5 -5q15 0 33.5 14t53.5 51l35 -30q-42 -59 -70.5 -83t-56.5 -24q-13 0 -29 6.5t-48 27.5q-27 18 -39 23t-20 5q-14 0 -32 -13.5t-54 -51.5l-36 30
q42 59 71 83t57 24q13 0 29 -6.5t49 -28.5z" />
    <glyph glyph-name="uni1EBD" unicode="&#x1ebd;" horiz-adv-x="555" 
d="M459 124l-22 -90q-42 -22 -87.5 -33.5t-95.5 -11.5q-95 0 -153.5 58.5t-58.5 155.5q0 127 87 219t205 92q84 0 134.5 -53.5t50.5 -143.5q0 -24 -3.5 -50t-10.5 -52h-373v-1q0 -69 36.5 -106t104.5 -37q46 0 92.5 13.5t91.5 40.5zM429 306q0 62 -28 95.5t-79 33.5
q-56 0 -107 -43.5t-72 -109.5h285q1 4 1 9v15zM401 715q29 -19 40.5 -25t19.5 -6q13 0 29 13t60 62l38 -30q-55 -76 -81.5 -99.5t-53.5 -23.5q-13 0 -30.5 8t-52.5 32q-29 20 -41 26t-20 6q-13 0 -29 -13t-60 -62l-38 30q55 76 81.5 99.5t53.5 23.5q13 0 30.5 -8t53.5 -33z
" />
    <glyph glyph-name="uni1EBE" unicode="&#x1ebe;" horiz-adv-x="578" 
d="M439 0h-401l174 700h411l-23 -87h-313l-54 -214h262l-22 -86h-261l-57 -226h337zM634 876h-53l90 110h129v-2zM605 772h-50l-100 61l-135 -61h-57v1l157 119h87z" />
    <glyph glyph-name="uni1EBF" unicode="&#x1ebf;" horiz-adv-x="555" 
d="M459 124l-22 -90q-42 -22 -87.5 -33.5t-95.5 -11.5q-95 0 -153.5 58.5t-58.5 155.5q0 127 87 219t205 92q84 0 134.5 -53.5t50.5 -143.5q0 -24 -3.5 -50t-10.5 -52h-373v-1q0 -69 36.5 -106t104.5 -37q46 0 92.5 13.5t91.5 40.5zM429 306q0 62 -28 95.5t-79 33.5
q-56 0 -107 -43.5t-72 -109.5h285q1 4 1 9v15zM563 717h-47l94 128h105v-2zM534 598h-43l-103 68l-145 -68h-47v2l160 129h81z" />
    <glyph glyph-name="uni1EC0" unicode="&#x1ec0;" horiz-adv-x="578" 
d="M439 0h-401l174 700h411l-23 -87h-313l-54 -214h262l-22 -86h-261l-57 -226h337zM642 986l41 -110h-42l-110 110h111zM605 772h-50l-100 61l-135 -61h-57v1l157 119h87z" />
    <glyph glyph-name="uni1EC1" unicode="&#x1ec1;" horiz-adv-x="555" 
d="M459 124l-22 -90q-42 -22 -87.5 -33.5t-95.5 -11.5q-95 0 -153.5 58.5t-58.5 155.5q0 127 87 219t205 92q84 0 134.5 -53.5t50.5 -143.5q0 -24 -3.5 -50t-10.5 -52h-373v-1q0 -69 36.5 -106t104.5 -37q46 0 92.5 13.5t91.5 40.5zM429 306q0 62 -28 95.5t-79 33.5
q-56 0 -107 -43.5t-72 -109.5h285q1 4 1 9v15zM558 845l38 -128h-40l-92 128h94zM534 598h-43l-103 68l-145 -68h-47v2l160 129h81z" />
    <glyph glyph-name="uni1EC2" unicode="&#x1ec2;" horiz-adv-x="578" 
d="M439 0h-401l174 700h411l-23 -87h-313l-54 -214h262l-22 -86h-261l-57 -226h337zM688 956q0 8 -8.5 12.5t-24.5 4.5q-21 0 -47.5 -8.5t-52.5 -22.5l-2 1l14 54q21 12 46.5 18t52.5 6q39 0 62.5 -14.5t23.5 -37.5q0 -26 -26 -47t-89 -45l-46 17v2q53 21 75 34.5t22 25.5z
M605 772h-50l-100 61l-135 -61h-57v1l157 119h87z" />
    <glyph glyph-name="uni1EC3" unicode="&#x1ec3;" horiz-adv-x="555" 
d="M459 124l-22 -90q-42 -22 -87.5 -33.5t-95.5 -11.5q-95 0 -153.5 58.5t-58.5 155.5q0 127 87 219t205 92q84 0 134.5 -53.5t50.5 -143.5q0 -24 -3.5 -50t-10.5 -52h-373v-1q0 -69 36.5 -106t104.5 -37q46 0 92.5 13.5t91.5 40.5zM429 306q0 62 -28 95.5t-79 33.5
q-56 0 -107 -43.5t-72 -109.5h285q1 4 1 9v15zM632 802q0 10 -8 15.5t-23 5.5q-23 0 -52 -11.5t-62 -33.5l-2 1l20 65q24 17 51 25.5t55 8.5q37 0 61.5 -18t24.5 -45q0 -29 -28 -54t-94 -55l-49 16v2q57 28 81.5 46t24.5 32zM534 598h-43l-103 68l-145 -68h-47v2l160 129h81
z" />
    <glyph glyph-name="uni1EC4" unicode="&#x1ec4;" horiz-adv-x="578" 
d="M439 0h-401l174 700h411l-23 -87h-313l-54 -214h262l-22 -86h-261l-57 -226h337zM558 927q-12 0 -29 5.5t-53 24.5q-30 14 -42 18.5t-20 4.5q-15 0 -27.5 -10t-37.5 -43l-34 21q30 53 52.5 74.5t47.5 21.5q12 0 28.5 -5.5t52.5 -23.5q30 -15 42.5 -19.5t20.5 -4.5
q15 0 27.5 10t37.5 43l34 -21q-30 -53 -52.5 -74.5t-47.5 -21.5zM605 772h-50l-100 61l-135 -61h-57v1l157 119h87z" />
    <glyph glyph-name="uni1EC5" unicode="&#x1ec5;" horiz-adv-x="555" 
d="M459 124l-22 -90q-42 -22 -87.5 -33.5t-95.5 -11.5q-95 0 -153.5 58.5t-58.5 155.5q0 127 87 219t205 92q84 0 134.5 -53.5t50.5 -143.5q0 -24 -3.5 -50t-10.5 -52h-373v-1q0 -69 36.5 -106t104.5 -37q46 0 92.5 13.5t91.5 40.5zM429 306q0 62 -28 95.5t-79 33.5
q-56 0 -107 -43.5t-72 -109.5h285q1 4 1 9v15zM490 768q-12 0 -27.5 5t-49.5 20q-28 13 -40.5 17t-20.5 4q-14 0 -28 -9t-44 -38l-32 30q37 48 59 66t44 18q12 0 27.5 -5t48.5 -20q29 -13 41.5 -17t21.5 -4q13 0 26.5 9t44.5 39l32 -30q-37 -48 -59 -66.5t-44 -18.5z
M534 598h-43l-103 68l-145 -68h-47v2l160 129h81z" />
    <glyph glyph-name="uni1EC6" unicode="&#x1ec6;" horiz-adv-x="578" 
d="M439 0h-401l174 700h411l-23 -87h-313l-54 -214h262l-22 -86h-261l-57 -226h337zM604 772h-50l-98 75l-137 -75h-57v1l161 140h88zM220 -210q-26 0 -44 18t-18 44t18 44t44 18t44 -18t18 -44q0 -25 -18 -43.5t-44 -18.5z" />
    <glyph glyph-name="uni1EC7" unicode="&#x1ec7;" horiz-adv-x="555" 
d="M459 124l-22 -90q-42 -22 -87.5 -33.5t-95.5 -11.5q-95 0 -153.5 58.5t-58.5 155.5q0 127 87 219t205 92q84 0 134.5 -53.5t50.5 -143.5q0 -24 -3.5 -50t-10.5 -52h-373v-1q0 -69 36.5 -106t104.5 -37q46 0 92.5 13.5t91.5 40.5zM429 306q0 62 -28 95.5t-79 33.5
q-56 0 -107 -43.5t-72 -109.5h285q1 4 1 9v15zM524 598h-41l-91 95l-142 -95h-48v2l162 167h81zM200 -214q-26 0 -44 18t-18 44t18 44t44 18t44 -18t18 -44q0 -25 -18 -43.5t-44 -18.5z" />
    <glyph glyph-name="uni1EC8" unicode="&#x1ec8;" horiz-adv-x="306" 
d="M139 0h-96l174 700h96zM429 885q0 -33 -34 -61.5t-106 -56.5l-60 18v2q69 30 99 49.5t30 34.5q0 9 -9.5 13.5t-27.5 4.5q-27 0 -60 -10.5t-68 -30.5l-2 1l17 66q26 15 59 23.5t64 8.5q44 0 71 -17t27 -45z" />
    <glyph glyph-name="uni1EC9" unicode="&#x1ec9;" horiz-adv-x="266" 
d="M116 0h-91l125 500h90zM133 702l19 80q28 18 59 28t63 10q44 0 70 -21t26 -56q0 -37 -34 -72t-111 -75l-57 18v2q71 41 100 66.5t29 45.5q0 12 -9 18.5t-26 6.5q-25 0 -56 -12.5t-71 -39.5z" />
    <glyph glyph-name="uni1ECA" unicode="&#x1eca;" horiz-adv-x="306" 
d="M139 0h-96l174 700h96zM57 -210q-26 0 -44 18t-18 44t18 44t44 18t44 -18t18 -44q0 -25 -18 -43.5t-44 -18.5z" />
    <glyph glyph-name="uni1ECB" unicode="&#x1ecb;" horiz-adv-x="266" 
d="M237 741q26 0 44 -18t18 -44t-18 -44t-44 -18t-44 18t-18 44t18 44t44 18zM116 0h-91l125 500h90zM36 -210q-26 0 -44 18t-18 44t18 44t44 18t44 -18t18 -44q0 -25 -18 -43.5t-44 -18.5z" />
    <glyph glyph-name="uni1ECC" unicode="&#x1ecc;" horiz-adv-x="834" 
d="M685 109q-58 -59 -134 -91t-158 -32q-138 0 -225.5 86.5t-87.5 224.5q0 84 30.5 160t88.5 134q57 59 133 91t158 32q138 0 225.5 -86.5t87.5 -224.5q0 -84 -30.5 -160t-87.5 -134zM178 302q0 -102 62.5 -164t162.5 -62q101 0 183.5 68t108.5 173q5 19 7.5 39t2.5 42
q0 102 -62.5 164t-161.5 62q-101 0 -184 -68t-108 -173q-6 -18 -8.5 -38t-2.5 -43zM345 -215q-26 0 -44 18t-18 44t18 44t44 18t44 -18t18 -44q0 -25 -18 -43.5t-44 -18.5z" />
    <glyph glyph-name="uni1ECD" unicode="&#x1ecd;" horiz-adv-x="606" 
d="M564 292q0 -130 -86 -218t-209 -88q-100 0 -163 62t-63 160q0 130 86 218t209 88q100 0 163 -62t63 -160zM471 289q0 65 -38.5 104.5t-100.5 39.5q-65 0 -118.5 -46t-71.5 -117q-3 -12 -5 -27t-2 -32q0 -65 38.5 -104.5t100.5 -39.5q66 0 119.5 46t70.5 117q3 12 5 27
t2 32zM219 -214q-26 0 -44 18t-18 44t18 44t44 18t44 -18t18 -44q0 -25 -18 -43.5t-44 -18.5z" />
    <glyph glyph-name="uni1ECE" unicode="&#x1ece;" horiz-adv-x="834" 
d="M685 109q-58 -59 -134 -91t-158 -32q-138 0 -225.5 86.5t-87.5 224.5q0 84 30.5 160t88.5 134q57 59 133 91t158 32q138 0 225.5 -86.5t87.5 -224.5q0 -84 -30.5 -160t-87.5 -134zM178 302q0 -102 62.5 -164t162.5 -62q101 0 183.5 68t108.5 173q5 19 7.5 39t2.5 42
q0 102 -62.5 164t-161.5 62q-101 0 -184 -68t-108 -173q-6 -18 -8.5 -38t-2.5 -43zM671 890q0 -33 -34 -61.5t-106 -56.5l-60 18v2q69 30 99 49.5t30 34.5q0 9 -9.5 13.5t-27.5 4.5q-27 0 -60 -10.5t-68 -30.5l-2 1l17 66q26 15 59 23.5t64 8.5q44 0 71 -17t27 -45z" />
    <glyph glyph-name="uni1ECF" unicode="&#x1ecf;" horiz-adv-x="606" 
d="M564 292q0 -130 -86 -218t-209 -88q-100 0 -163 62t-63 160q0 130 86 218t209 88q100 0 163 -62t63 -160zM471 289q0 65 -38.5 104.5t-100.5 39.5q-65 0 -118.5 -46t-71.5 -117q-3 -12 -5 -27t-2 -32q0 -65 38.5 -104.5t100.5 -39.5q66 0 119.5 46t70.5 117q3 12 5 27
t2 32zM290 706l19 80q28 18 59 28t63 10q44 0 70 -21t26 -56q0 -37 -34 -72t-111 -75l-57 18v2q71 41 100 66.5t29 45.5q0 12 -9 18.5t-26 6.5q-25 0 -56 -12.5t-71 -39.5z" />
    <glyph glyph-name="uni1ED0" unicode="&#x1ed0;" horiz-adv-x="834" 
d="M685 109q-58 -59 -134 -91t-158 -32q-138 0 -225.5 86.5t-87.5 224.5q0 84 30.5 160t88.5 134q57 59 133 91t158 32q138 0 225.5 -86.5t87.5 -224.5q0 -84 -30.5 -160t-87.5 -134zM178 302q0 -102 62.5 -164t162.5 -62q101 0 183.5 68t108.5 173q5 19 7.5 39t2.5 42
q0 102 -62.5 164t-161.5 62q-101 0 -184 -68t-108 -173q-6 -18 -8.5 -38t-2.5 -43zM723 876h-53l90 110h129v-2zM694 772h-50l-100 61l-135 -61h-57v1l157 119h87z" />
    <glyph glyph-name="uni1ED1" unicode="&#x1ed1;" horiz-adv-x="606" 
d="M564 292q0 -130 -86 -218t-209 -88q-100 0 -163 62t-63 160q0 130 86 218t209 88q100 0 163 -62t63 -160zM471 289q0 65 -38.5 104.5t-100.5 39.5q-65 0 -118.5 -46t-71.5 -117q-3 -12 -5 -27t-2 -32q0 -65 38.5 -104.5t100.5 -39.5q66 0 119.5 46t70.5 117q3 12 5 27
t2 32zM574 717h-47l94 128h105v-2zM545 598h-43l-103 68l-145 -68h-47v2l160 129h81z" />
    <glyph glyph-name="uni1ED2" unicode="&#x1ed2;" horiz-adv-x="834" 
d="M685 109q-58 -59 -134 -91t-158 -32q-138 0 -225.5 86.5t-87.5 224.5q0 84 30.5 160t88.5 134q57 59 133 91t158 32q138 0 225.5 -86.5t87.5 -224.5q0 -84 -30.5 -160t-87.5 -134zM178 302q0 -102 62.5 -164t162.5 -62q101 0 183.5 68t108.5 173q5 19 7.5 39t2.5 42
q0 102 -62.5 164t-161.5 62q-101 0 -184 -68t-108 -173q-6 -18 -8.5 -38t-2.5 -43zM731 986l41 -110h-42l-110 110h111zM694 772h-50l-100 61l-135 -61h-57v1l157 119h87z" />
    <glyph glyph-name="uni1ED3" unicode="&#x1ed3;" horiz-adv-x="606" 
d="M564 292q0 -130 -86 -218t-209 -88q-100 0 -163 62t-63 160q0 130 86 218t209 88q100 0 163 -62t63 -160zM471 289q0 65 -38.5 104.5t-100.5 39.5q-65 0 -118.5 -46t-71.5 -117q-3 -12 -5 -27t-2 -32q0 -65 38.5 -104.5t100.5 -39.5q66 0 119.5 46t70.5 117q3 12 5 27
t2 32zM569 845l38 -128h-40l-92 128h94zM545 598h-43l-103 68l-145 -68h-47v2l160 129h81z" />
    <glyph glyph-name="uni1ED4" unicode="&#x1ed4;" horiz-adv-x="834" 
d="M685 109q-58 -59 -134 -91t-158 -32q-138 0 -225.5 86.5t-87.5 224.5q0 84 30.5 160t88.5 134q57 59 133 91t158 32q138 0 225.5 -86.5t87.5 -224.5q0 -84 -30.5 -160t-87.5 -134zM178 302q0 -102 62.5 -164t162.5 -62q101 0 183.5 68t108.5 173q5 19 7.5 39t2.5 42
q0 102 -62.5 164t-161.5 62q-101 0 -184 -68t-108 -173q-6 -18 -8.5 -38t-2.5 -43zM777 956q0 8 -8.5 12.5t-24.5 4.5q-21 0 -47.5 -8.5t-52.5 -22.5l-2 1l14 54q21 12 46.5 18t52.5 6q39 0 62.5 -14.5t23.5 -37.5q0 -26 -26 -47t-89 -45l-46 17v2q53 21 75 34.5t22 25.5z
M694 772h-50l-100 61l-135 -61h-57v1l157 119h87z" />
    <glyph glyph-name="uni1ED5" unicode="&#x1ed5;" horiz-adv-x="606" 
d="M564 292q0 -130 -86 -218t-209 -88q-100 0 -163 62t-63 160q0 130 86 218t209 88q100 0 163 -62t63 -160zM471 289q0 65 -38.5 104.5t-100.5 39.5q-65 0 -118.5 -46t-71.5 -117q-3 -12 -5 -27t-2 -32q0 -65 38.5 -104.5t100.5 -39.5q66 0 119.5 46t70.5 117q3 12 5 27
t2 32zM643 802q0 10 -8 15.5t-23 5.5q-23 0 -52 -11.5t-62 -33.5l-2 1l20 65q24 17 51 25.5t55 8.5q37 0 61.5 -18t24.5 -45q0 -29 -28 -54t-94 -55l-49 16v2q57 28 81.5 46t24.5 32zM545 598h-43l-103 68l-145 -68h-47v2l160 129h81z" />
    <glyph glyph-name="uni1ED6" unicode="&#x1ed6;" horiz-adv-x="834" 
d="M685 109q-58 -59 -134 -91t-158 -32q-138 0 -225.5 86.5t-87.5 224.5q0 84 30.5 160t88.5 134q57 59 133 91t158 32q138 0 225.5 -86.5t87.5 -224.5q0 -84 -30.5 -160t-87.5 -134zM178 302q0 -102 62.5 -164t162.5 -62q101 0 183.5 68t108.5 173q5 19 7.5 39t2.5 42
q0 102 -62.5 164t-161.5 62q-101 0 -184 -68t-108 -173q-6 -18 -8.5 -38t-2.5 -43zM647 927q-12 0 -29 5.5t-53 24.5q-30 14 -42 18.5t-20 4.5q-15 0 -27.5 -10t-37.5 -43l-34 21q30 53 52.5 74.5t47.5 21.5q12 0 28.5 -5.5t52.5 -23.5q30 -15 42.5 -19.5t20.5 -4.5
q15 0 27.5 10t37.5 43l34 -21q-30 -53 -52.5 -74.5t-47.5 -21.5zM694 772h-50l-100 61l-135 -61h-57v1l157 119h87z" />
    <glyph glyph-name="uni1ED7" unicode="&#x1ed7;" horiz-adv-x="606" 
d="M564 292q0 -130 -86 -218t-209 -88q-100 0 -163 62t-63 160q0 130 86 218t209 88q100 0 163 -62t63 -160zM471 289q0 65 -38.5 104.5t-100.5 39.5q-65 0 -118.5 -46t-71.5 -117q-3 -12 -5 -27t-2 -32q0 -65 38.5 -104.5t100.5 -39.5q66 0 119.5 46t70.5 117q3 12 5 27
t2 32zM501 768q-12 0 -27.5 5t-49.5 20q-28 13 -40.5 17t-20.5 4q-14 0 -28 -9t-44 -38l-32 30q37 48 59 66t44 18q12 0 27.5 -5t48.5 -20q29 -13 41.5 -17t21.5 -4q13 0 26.5 9t44.5 39l32 -30q-37 -48 -59 -66.5t-44 -18.5zM545 598h-43l-103 68l-145 -68h-47v2l160 129
h81z" />
    <glyph glyph-name="uni1ED8" unicode="&#x1ed8;" horiz-adv-x="834" 
d="M685 109q-58 -59 -134 -91t-158 -32q-138 0 -225.5 86.5t-87.5 224.5q0 84 30.5 160t88.5 134q57 59 133 91t158 32q138 0 225.5 -86.5t87.5 -224.5q0 -84 -30.5 -160t-87.5 -134zM178 302q0 -102 62.5 -164t162.5 -62q101 0 183.5 68t108.5 173q5 19 7.5 39t2.5 42
q0 102 -62.5 164t-161.5 62q-101 0 -184 -68t-108 -173q-6 -18 -8.5 -38t-2.5 -43zM693 772h-50l-98 75l-137 -75h-57v1l161 140h88zM345 -215q-26 0 -44 18t-18 44t18 44t44 18t44 -18t18 -44q0 -25 -18 -43.5t-44 -18.5z" />
    <glyph glyph-name="uni1ED9" unicode="&#x1ed9;" horiz-adv-x="606" 
d="M564 292q0 -130 -86 -218t-209 -88q-100 0 -163 62t-63 160q0 130 86 218t209 88q100 0 163 -62t63 -160zM471 289q0 65 -38.5 104.5t-100.5 39.5q-65 0 -118.5 -46t-71.5 -117q-3 -12 -5 -27t-2 -32q0 -65 38.5 -104.5t100.5 -39.5q66 0 119.5 46t70.5 117q3 12 5 27
t2 32zM535 598h-41l-91 95l-142 -95h-48v2l162 167h81zM219 -214q-26 0 -44 18t-18 44t18 44t44 18t44 -18t18 -44q0 -25 -18 -43.5t-44 -18.5z" />
    <glyph glyph-name="uni1EDA" unicode="&#x1eda;" horiz-adv-x="834" 
d="M683 641q60 -41 90 -100.5t30 -137.5q0 -84 -30.5 -160t-87.5 -134q-58 -59 -134 -91t-158 -32q-138 0 -225.5 86.5t-87.5 224.5q0 83 31 158t88 133q58 57 133 88.5t157 31.5q14 0 29.5 -1t45.5 -3t45.5 -3t28.5 -1q70 0 108.5 36.5t38.5 104.5h85q0 -87 -48.5 -139
t-138.5 -61zM178 302q0 -102 62.5 -164t162.5 -62t182.5 67.5t109.5 171.5q5 22 7.5 42.5t2.5 39.5q0 100 -62.5 161.5t-162.5 61.5q-101 0 -184 -68t-108 -172q-5 -17 -7.5 -36.5t-2.5 -41.5zM743 916l-200 -139h-56l115 141h141v-2z" />
    <glyph glyph-name="uni1EDB" unicode="&#x1edb;" horiz-adv-x="607" 
d="M498 449q32 -30 49 -70.5t17 -86.5q0 -130 -86 -218t-209 -88q-100 0 -163 62t-63 160q0 127 86 213t209 86q7 0 17.5 -0.5t32.5 -0.5q23 -1 34 -1.5t20 -0.5q63 0 93 27.5t30 85.5h79q0 -72 -37 -114.5t-109 -53.5zM471 289q0 64 -38 102t-101 38q-65 0 -118.5 -44.5
t-71.5 -114.5q-4 -18 -5.5 -32t-1.5 -27q0 -65 38.5 -104.5t100.5 -39.5q65 0 118.5 45t71.5 116q4 17 5.5 32t1.5 29zM594 774l-205 -167h-48l125 169h128v-2z" />
    <glyph glyph-name="uni1EDC" unicode="&#x1edc;" horiz-adv-x="834" 
d="M683 641q60 -41 90 -100.5t30 -137.5q0 -84 -30.5 -160t-87.5 -134q-58 -59 -134 -91t-158 -32q-138 0 -225.5 86.5t-87.5 224.5q0 83 31 158t88 133q58 57 133 88.5t157 31.5q14 0 29.5 -1t45.5 -3t45.5 -3t28.5 -1q70 0 108.5 36.5t38.5 104.5h85q0 -87 -48.5 -139
t-138.5 -61zM178 302q0 -102 62.5 -164t162.5 -62t182.5 67.5t109.5 171.5q5 22 7.5 42.5t2.5 39.5q0 100 -62.5 161.5t-162.5 61.5q-101 0 -184 -68t-108 -172q-5 -17 -7.5 -36.5t-2.5 -41.5zM502 918l47 -141h-45l-127 141h125z" />
    <glyph glyph-name="uni1EDD" unicode="&#x1edd;" horiz-adv-x="607" 
d="M498 449q32 -30 49 -70.5t17 -86.5q0 -130 -86 -218t-209 -88q-100 0 -163 62t-63 160q0 127 86 213t209 86q7 0 17.5 -0.5t32.5 -0.5q23 -1 34 -1.5t20 -0.5q63 0 93 27.5t30 85.5h79q0 -72 -37 -114.5t-109 -53.5zM471 289q0 64 -38 102t-101 38q-65 0 -118.5 -44.5
t-71.5 -114.5q-4 -18 -5.5 -32t-1.5 -27q0 -65 38.5 -104.5t100.5 -39.5q65 0 118.5 45t71.5 116q4 17 5.5 32t1.5 29zM353 776l44 -169h-40l-120 169h116z" />
    <glyph glyph-name="uni1EDE" unicode="&#x1ede;" horiz-adv-x="834" 
d="M683 641q60 -41 90 -100.5t30 -137.5q0 -84 -30.5 -160t-87.5 -134q-58 -59 -134 -91t-158 -32q-138 0 -225.5 86.5t-87.5 224.5q0 83 31 158t88 133q58 57 133 88.5t157 31.5q14 0 29.5 -1t45.5 -3t45.5 -3t28.5 -1q70 0 108.5 36.5t38.5 104.5h85q0 -87 -48.5 -139
t-138.5 -61zM178 302q0 -102 62.5 -164t162.5 -62t182.5 67.5t109.5 171.5q5 22 7.5 42.5t2.5 39.5q0 100 -62.5 161.5t-162.5 61.5q-101 0 -184 -68t-108 -172q-5 -17 -7.5 -36.5t-2.5 -41.5zM671 890q0 -33 -34 -61.5t-106 -56.5l-60 18v2q69 30 99 49.5t30 34.5
q0 9 -9.5 13.5t-27.5 4.5q-27 0 -60 -10.5t-68 -30.5l-2 1l17 66q26 15 59 23.5t64 8.5q44 0 71 -17t27 -45z" />
    <glyph glyph-name="uni1EDF" unicode="&#x1edf;" horiz-adv-x="607" 
d="M498 449q32 -30 49 -70.5t17 -86.5q0 -130 -86 -218t-209 -88q-100 0 -163 62t-63 160q0 127 86 213t209 86q7 0 17.5 -0.5t32.5 -0.5q23 -1 34 -1.5t20 -0.5q63 0 93 27.5t30 85.5h79q0 -72 -37 -114.5t-109 -53.5zM471 289q0 64 -38 102t-101 38q-65 0 -118.5 -44.5
t-71.5 -114.5q-4 -18 -5.5 -32t-1.5 -27q0 -65 38.5 -104.5t100.5 -39.5q65 0 118.5 45t71.5 116q4 17 5.5 32t1.5 29zM290 706l19 80q28 18 59 28t63 10q44 0 70 -21t26 -56q0 -37 -34 -72t-111 -75l-57 18v2q71 41 100 66.5t29 45.5q0 12 -9 18.5t-26 6.5q-25 0 -56 -12.5
t-71 -39.5z" />
    <glyph glyph-name="uni1EE0" unicode="&#x1ee0;" horiz-adv-x="834" 
d="M538 875q25 -17 36 -22t19 -5q15 0 32.5 13.5t51.5 51.5l36 -30q-40 -58 -68 -82.5t-55 -24.5q-12 0 -28 6.5t-47 27.5q-26 18 -37.5 23t-19.5 5q-15 0 -32.5 -13.5t-51.5 -51.5l-36 30q40 58 68.5 82.5t55.5 24.5q12 0 28 -7t48 -28zM683 641q60 -41 90 -100.5
t30 -137.5q0 -84 -30.5 -160t-87.5 -134q-58 -59 -134 -91t-158 -32q-138 0 -225.5 86.5t-87.5 224.5q0 83 31 158t88 133q58 57 133 88.5t157 31.5q14 0 29.5 -1t45.5 -3t45.5 -3t28.5 -1q70 0 108.5 36.5t38.5 104.5h85q0 -87 -48.5 -139t-138.5 -61zM178 302
q0 -102 62.5 -164t162.5 -62t182.5 67.5t109.5 171.5q5 22 7.5 42.5t2.5 39.5q0 100 -62.5 161.5t-162.5 61.5q-101 0 -184 -68t-108 -172q-5 -17 -7.5 -36.5t-2.5 -41.5z" />
    <glyph glyph-name="uni1EE1" unicode="&#x1ee1;" horiz-adv-x="607" 
d="M376 715q25 -19 36 -25t18 -6q13 0 28 13.5t54 61.5l39 -30q-50 -76 -75 -99.5t-50 -23.5q-12 0 -28 8t-50 33q-25 19 -36 25t-18 6q-13 0 -28 -13.5t-55 -61.5l-38 31q50 74 75 98t50 24q12 0 28 -8t50 -33zM498 449q32 -30 49 -70.5t17 -86.5q0 -130 -86 -218t-209 -88
q-100 0 -163 62t-63 160q0 127 86 213t209 86q7 0 17.5 -0.5t32.5 -0.5q23 -1 34 -1.5t20 -0.5q63 0 93 27.5t30 85.5h79q0 -72 -37 -114.5t-109 -53.5zM471 289q0 64 -38 102t-101 38q-65 0 -118.5 -44.5t-71.5 -114.5q-4 -18 -5.5 -32t-1.5 -27q0 -65 38.5 -104.5
t100.5 -39.5q65 0 118.5 45t71.5 116q4 17 5.5 32t1.5 29z" />
    <glyph glyph-name="uni1EE2" unicode="&#x1ee2;" horiz-adv-x="834" 
d="M683 641q60 -41 90 -100.5t30 -137.5q0 -84 -30.5 -160t-87.5 -134q-58 -59 -134 -91t-158 -32q-138 0 -225.5 86.5t-87.5 224.5q0 83 31 158t88 133q58 57 133 88.5t157 31.5q14 0 29.5 -1t45.5 -3t45.5 -3t28.5 -1q70 0 108.5 36.5t38.5 104.5h85q0 -87 -48.5 -139
t-138.5 -61zM178 302q0 -102 62.5 -164t162.5 -62t182.5 67.5t109.5 171.5q5 22 7.5 42.5t2.5 39.5q0 100 -62.5 161.5t-162.5 61.5q-101 0 -184 -68t-108 -172q-5 -17 -7.5 -36.5t-2.5 -41.5zM345 -215q-26 0 -44 18t-18 44t18 44t44 18t44 -18t18 -44q0 -25 -18 -43.5
t-44 -18.5z" />
    <glyph glyph-name="uni1EE3" unicode="&#x1ee3;" horiz-adv-x="607" 
d="M498 449q32 -30 49 -70.5t17 -86.5q0 -130 -86 -218t-209 -88q-100 0 -163 62t-63 160q0 127 86 213t209 86q7 0 17.5 -0.5t32.5 -0.5q23 -1 34 -1.5t20 -0.5q63 0 93 27.5t30 85.5h79q0 -72 -37 -114.5t-109 -53.5zM471 289q0 64 -38 102t-101 38q-65 0 -118.5 -44.5
t-71.5 -114.5q-4 -18 -5.5 -32t-1.5 -27q0 -65 38.5 -104.5t100.5 -39.5q65 0 118.5 45t71.5 116q4 17 5.5 32t1.5 29zM219 -214q-26 0 -44 18t-18 44t18 44t44 18t44 -18t18 -44q0 -25 -18 -43.5t-44 -18.5z" />
    <glyph glyph-name="uni1EE4" unicode="&#x1ee4;" horiz-adv-x="781" 
d="M99 235q0 22 3.5 47.5t9.5 52.5l91 365h96l-93 -374q-5 -23 -8 -44t-3 -38q0 -78 45.5 -122.5t126.5 -44.5q87 0 151 55.5t88 154.5l103 413h93l-106 -427q-35 -140 -121.5 -212.5t-217.5 -72.5q-117 0 -187.5 67.5t-70.5 179.5zM302 -215q-26 0 -44 18t-18 44t18 44
t44 18t44 -18t18 -44q0 -25 -18 -43.5t-44 -18.5z" />
    <glyph glyph-name="uni1EE5" unicode="&#x1ee5;" horiz-adv-x="596" 
d="M452 0h-91l20 81q-46 -47 -88 -69t-85 -22q-67 0 -109.5 41.5t-42.5 107.5q0 17 3 38t11 56l67 267h91l-71 -285q-5 -19 -7 -33t-2 -25q0 -41 22 -63.5t62 -22.5q38 0 79 20.5t89 63.5l86 345h90zM208 -210q-26 0 -44 18t-18 44t18 44t44 18t44 -18t18 -44
q0 -25 -18 -43.5t-44 -18.5z" />
    <glyph glyph-name="uni1EE6" unicode="&#x1ee6;" horiz-adv-x="781" 
d="M99 235q0 22 3.5 47.5t9.5 52.5l91 365h96l-93 -374q-5 -23 -8 -44t-3 -38q0 -78 45.5 -122.5t126.5 -44.5q87 0 151 55.5t88 154.5l103 413h93l-106 -427q-35 -140 -121.5 -212.5t-217.5 -72.5q-117 0 -187.5 67.5t-70.5 179.5zM661 874q0 -33 -34 -61.5t-106 -56.5
l-60 18v2q69 30 99 49.5t30 34.5q0 9 -9.5 13.5t-27.5 4.5q-27 0 -60 -10.5t-68 -30.5l-2 1l17 66q26 15 59 23.5t64 8.5q44 0 71 -17t27 -45z" />
    <glyph glyph-name="uni1EE7" unicode="&#x1ee7;" horiz-adv-x="596" 
d="M452 0h-91l20 81q-46 -47 -88 -69t-85 -22q-67 0 -109.5 41.5t-42.5 107.5q0 17 3 38t11 56l67 267h91l-71 -285q-5 -19 -7 -33t-2 -25q0 -41 22 -63.5t62 -22.5q38 0 79 20.5t89 63.5l86 345h90zM284 696l19 80q28 18 59 28t63 10q44 0 70 -21t26 -56q0 -37 -34 -72
t-111 -75l-57 18v2q71 41 100 66.5t29 45.5q0 12 -9 18.5t-26 6.5q-25 0 -56 -12.5t-71 -39.5z" />
    <glyph glyph-name="uni1EE8" unicode="&#x1ee8;" horiz-adv-x="801" 
d="M367 77q87 0 151 55.5t88 154.5l103 413h20q68 0 105.5 37t37.5 104h85q0 -83 -44 -135t-125 -64l-92 -369q-35 -140 -121.5 -212.5t-217.5 -72.5q-117 0 -187.5 67.5t-70.5 179.5q0 22 3.5 47.5t9.5 52.5l91 365h96l-93 -374q-5 -23 -8 -44t-3 -38q0 -78 45.5 -122.5
t126.5 -44.5zM734 900l-200 -139h-56l115 141h141v-2z" />
    <glyph glyph-name="uni1EE9" unicode="&#x1ee9;" horiz-adv-x="617" 
d="M148 157q0 -41 22 -63.5t62 -22.5q38 0 79 20.5t89 63.5l86 345h30q62 0 91.5 26t29.5 81h79q0 -71 -39 -113t-115 -51l-110 -443h-91l20 81q-46 -47 -88 -69t-85 -22q-67 0 -109.5 41.5t-42.5 107.5q0 17 3 38t11 56l67 267h91l-71 -285q-5 -19 -7 -33t-2 -25zM588 764
l-205 -167h-48l125 169h128v-2z" />
    <glyph glyph-name="uni1EEA" unicode="&#x1eea;" horiz-adv-x="801" 
d="M367 77q87 0 151 55.5t88 154.5l103 413h20q68 0 105.5 37t37.5 104h85q0 -83 -44 -135t-125 -64l-92 -369q-35 -140 -121.5 -212.5t-217.5 -72.5q-117 0 -187.5 67.5t-70.5 179.5q0 22 3.5 47.5t9.5 52.5l91 365h96l-93 -374q-5 -23 -8 -44t-3 -38q0 -78 45.5 -122.5
t126.5 -44.5zM493 902l47 -141h-45l-127 141h125z" />
    <glyph glyph-name="uni1EEB" unicode="&#x1eeb;" horiz-adv-x="617" 
d="M148 157q0 -41 22 -63.5t62 -22.5q38 0 79 20.5t89 63.5l86 345h30q62 0 91.5 26t29.5 81h79q0 -71 -39 -113t-115 -51l-110 -443h-91l20 81q-46 -47 -88 -69t-85 -22q-67 0 -109.5 41.5t-42.5 107.5q0 17 3 38t11 56l67 267h91l-71 -285q-5 -19 -7 -33t-2 -25zM347 766
l44 -169h-40l-120 169h116z" />
    <glyph glyph-name="uni1EEC" unicode="&#x1eec;" horiz-adv-x="801" 
d="M367 77q87 0 151 55.5t88 154.5l103 413h20q68 0 105.5 37t37.5 104h85q0 -83 -44 -135t-125 -64l-92 -369q-35 -140 -121.5 -212.5t-217.5 -72.5q-117 0 -187.5 67.5t-70.5 179.5q0 22 3.5 47.5t9.5 52.5l91 365h96l-93 -374q-5 -23 -8 -44t-3 -38q0 -78 45.5 -122.5
t126.5 -44.5zM662 874q0 -33 -34 -61.5t-106 -56.5l-60 18v2q69 30 99 49.5t30 34.5q0 9 -9.5 13.5t-27.5 4.5q-27 0 -60 -10.5t-68 -30.5l-2 1l17 66q26 15 59 23.5t64 8.5q44 0 71 -17t27 -45z" />
    <glyph glyph-name="uni1EED" unicode="&#x1eed;" horiz-adv-x="617" 
d="M148 157q0 -41 22 -63.5t62 -22.5q38 0 79 20.5t89 63.5l86 345h30q62 0 91.5 26t29.5 81h79q0 -71 -39 -113t-115 -51l-110 -443h-91l20 81q-46 -47 -88 -69t-85 -22q-67 0 -109.5 41.5t-42.5 107.5q0 17 3 38t11 56l67 267h91l-71 -285q-5 -19 -7 -33t-2 -25zM284 696
l19 80q28 18 59 28t63 10q44 0 70 -21t26 -56q0 -37 -34 -72t-111 -75l-57 18v2q71 41 100 66.5t29 45.5q0 12 -9 18.5t-26 6.5q-25 0 -56 -12.5t-71 -39.5z" />
    <glyph glyph-name="uni1EEE" unicode="&#x1eee;" horiz-adv-x="801" 
d="M547 870q26 -17 38 -22t20 -5q15 0 33.5 14t52.5 51l36 -30q-42 -58 -71 -82.5t-56 -24.5q-13 0 -29 6.5t-48 27.5q-27 18 -39 23t-20 5q-15 0 -33.5 -14t-52.5 -51l-36 30q42 58 71 82.5t56 24.5q13 0 29 -6.5t49 -28.5zM367 77q87 0 151 55.5t88 154.5l103 413h20
q68 0 105.5 37t37.5 104h85q0 -83 -44 -135t-125 -64l-92 -369q-35 -140 -121.5 -212.5t-217.5 -72.5q-117 0 -187.5 67.5t-70.5 179.5q0 22 3.5 47.5t9.5 52.5l91 365h96l-93 -374q-5 -23 -8 -44t-3 -38q0 -78 45.5 -122.5t126.5 -44.5z" />
    <glyph glyph-name="uni1EEF" unicode="&#x1eef;" horiz-adv-x="617" 
d="M406 711q28 -19 40 -25t20 -6q13 0 29 13t60 62l38 -30q-55 -76 -81.5 -99.5t-53.5 -23.5q-13 0 -30.5 8t-52.5 32q-29 20 -41 26t-20 6q-13 0 -29 -13t-60 -62l-38 30q57 78 83 100.5t53 22.5q13 0 30 -8t53 -33zM148 157q0 -41 22 -63.5t62 -22.5q38 0 79 20.5t89 63.5
l86 345h30q62 0 91.5 26t29.5 81h79q0 -71 -39 -113t-115 -51l-110 -443h-91l20 81q-46 -47 -88 -69t-85 -22q-67 0 -109.5 41.5t-42.5 107.5q0 17 3 38t11 56l67 267h91l-71 -285q-5 -19 -7 -33t-2 -25z" />
    <glyph glyph-name="uni1EF0" unicode="&#x1ef0;" horiz-adv-x="801" 
d="M367 77q87 0 151 55.5t88 154.5l103 413h20q68 0 105.5 37t37.5 104h85q0 -83 -44 -135t-125 -64l-92 -369q-35 -140 -121.5 -212.5t-217.5 -72.5q-117 0 -187.5 67.5t-70.5 179.5q0 22 3.5 47.5t9.5 52.5l91 365h96l-93 -374q-5 -23 -8 -44t-3 -38q0 -78 45.5 -122.5
t126.5 -44.5zM302 -215q-26 0 -44 18t-18 44t18 44t44 18t44 -18t18 -44q0 -25 -18 -43.5t-44 -18.5z" />
    <glyph glyph-name="uni1EF1" unicode="&#x1ef1;" horiz-adv-x="617" 
d="M148 157q0 -41 22 -63.5t62 -22.5q38 0 79 20.5t89 63.5l86 345h30q62 0 91.5 26t29.5 81h79q0 -71 -39 -113t-115 -51l-110 -443h-91l20 81q-46 -47 -88 -69t-85 -22q-67 0 -109.5 41.5t-42.5 107.5q0 17 3 38t11 56l67 267h91l-71 -285q-5 -19 -7 -33t-2 -25zM208 -210
q-26 0 -44 18t-18 44t18 44t44 18t44 -18t18 -44q0 -25 -18 -43.5t-44 -18.5z" />
    <glyph glyph-name="Ygrave" unicode="&#x1ef2;" horiz-adv-x="658" 
d="M756 700v-2l-367 -392l-76 -306h-97l79 317l-171 383h101l132 -305l282 305h117zM424 908l47 -141h-45l-127 141h125z" />
    <glyph glyph-name="ygrave" unicode="&#x1ef3;" horiz-adv-x="546" 
d="M586 500l-371 -574q-42 -64 -86.5 -93t-100.5 -29q-22 0 -39.5 4t-31.5 12l-23 93l3 2q17 -13 36.5 -19.5t44.5 -6.5q39 0 68.5 19t56.5 61l40 62l-99 469h93l72 -375l235 375h102zM325 767l44 -169h-40l-120 169h116z" />
    <glyph glyph-name="uni1EF4" unicode="&#x1ef4;" horiz-adv-x="658" 
d="M756 700v-2l-367 -392l-76 -306h-97l79 317l-171 383h101l132 -305l282 305h117zM229 -210q-26 0 -44 18t-18 44t18 44t44 18t44 -18t18 -44q0 -25 -18 -43.5t-44 -18.5z" />
    <glyph glyph-name="uni1EF5" unicode="&#x1ef5;" horiz-adv-x="546" 
d="M586 500l-371 -574q-42 -64 -86.5 -93t-100.5 -29q-22 0 -39.5 4t-31.5 12l-23 93l3 2q17 -13 36.5 -19.5t44.5 -6.5q39 0 68.5 19t56.5 61l40 62l-99 469h93l72 -375l235 375h102zM359 -210q-26 0 -44 18t-18 44t18 44t44 18t44 -18t18 -44q0 -25 -18 -43.5t-44 -18.5z
" />
    <glyph glyph-name="uni1EF6" unicode="&#x1ef6;" horiz-adv-x="658" 
d="M756 700v-2l-367 -392l-76 -306h-97l79 317l-171 383h101l132 -305l282 305h117zM593 880q0 -33 -34 -61.5t-106 -56.5l-60 18v2q69 30 99 49.5t30 34.5q0 9 -9.5 13.5t-27.5 4.5q-27 0 -60 -10.5t-68 -30.5l-2 1l17 66q26 15 59 23.5t64 8.5q44 0 71 -17t27 -45z" />
    <glyph glyph-name="uni1EF7" unicode="&#x1ef7;" horiz-adv-x="546" 
d="M586 500l-371 -574q-42 -64 -86.5 -93t-100.5 -29q-22 0 -39.5 4t-31.5 12l-23 93l3 2q17 -13 36.5 -19.5t44.5 -6.5q39 0 68.5 19t56.5 61l40 62l-99 469h93l72 -375l235 375h102zM262 697l19 80q28 18 59 28t63 10q44 0 70 -21t26 -56q0 -37 -34 -72t-111 -75l-57 18v2
q71 41 100 66.5t29 45.5q0 12 -9 18.5t-26 6.5q-25 0 -56 -12.5t-71 -39.5z" />
    <glyph glyph-name="uni1EF8" unicode="&#x1ef8;" horiz-adv-x="658" 
d="M756 700v-2l-367 -392l-76 -306h-97l79 317l-171 383h101l132 -305l282 305h117zM477 870q26 -17 37.5 -22t19.5 -5q15 0 33.5 14t53.5 51l35 -30q-42 -59 -70.5 -83t-56.5 -24q-13 0 -29 6.5t-48 27.5q-27 18 -39 23t-20 5q-14 0 -32 -13.5t-54 -51.5l-36 30
q42 59 71 83t57 24q13 0 29 -6.5t49 -28.5z" />
    <glyph glyph-name="uni1EF9" unicode="&#x1ef9;" horiz-adv-x="546" 
d="M586 500l-371 -574q-42 -64 -86.5 -93t-100.5 -29q-22 0 -39.5 4t-31.5 12l-23 93l3 2q17 -13 36.5 -19.5t44.5 -6.5q39 0 68.5 19t56.5 61l40 62l-99 469h93l72 -375l235 375h102zM386 711q29 -19 40.5 -25t19.5 -6q13 0 29 13t60 62l38 -30q-55 -76 -81.5 -99.5
t-53.5 -23.5q-13 0 -30.5 8t-52.5 32q-29 20 -41 26t-20 6q-13 0 -29 -13t-60 -62l-38 30q55 76 81.5 99.5t53.5 23.5q13 0 30.5 -8t53.5 -33z" />
    <glyph glyph-name="uni2002" unicode="&#x2002;" horiz-adv-x="500" 
 />
    <glyph glyph-name="uni2003" unicode="&#x2003;" horiz-adv-x="1000" 
 />
    <glyph glyph-name="uni2004" unicode="&#x2004;" horiz-adv-x="333" 
 />
    <glyph glyph-name="uni2005" unicode="&#x2005;" horiz-adv-x="250" 
 />
    <glyph glyph-name="uni2007" unicode="&#x2007;" horiz-adv-x="600" 
 />
    <glyph glyph-name="uni2009" unicode="&#x2009;" horiz-adv-x="125" 
 />
    <glyph glyph-name="uni200A" unicode="&#x200a;" horiz-adv-x="42" 
 />
    <glyph glyph-name="uni2011" unicode="&#x2011;" horiz-adv-x="389" 
d="M60 232l21 85h260l-21 -85h-260z" />
    <glyph glyph-name="figuredash" unicode="&#x2012;" horiz-adv-x="600" 
d="M92 317l21 81h439l-21 -81h-439z" />
    <glyph glyph-name="endash" unicode="&#x2013;" horiz-adv-x="551" 
d="M60 233l20 82h423l-20 -82h-423z" />
    <glyph glyph-name="emdash" unicode="&#x2014;" horiz-adv-x="931" 
d="M60 233l20 82h803l-20 -82h-803z" />
    <glyph glyph-name="uni2015" unicode="&#x2015;" horiz-adv-x="931" 
d="M60 233l20 82h803l-20 -82h-803z" />
    <glyph glyph-name="quoteleft" unicode="&#x2018;" horiz-adv-x="216" 
d="M189 523q0 -20 8.5 -42t31.5 -60h-93q-16 30 -23 52.5t-7 44.5q0 41 38 85.5t126 104.5l24 -26q-59 -57 -82 -92.5t-23 -66.5z" />
    <glyph glyph-name="quoteright" unicode="&#x2019;" horiz-adv-x="216" 
d="M181 599q0 19 -8.5 41t-31.5 60h92q16 -28 23.5 -50.5t7.5 -45.5q0 -41 -38.5 -85.5t-125.5 -105.5l-24 26q59 57 82 93t23 67z" />
    <glyph glyph-name="quotesinglbase" unicode="&#x201a;" horiz-adv-x="201" 
d="M28 10q0 19 -8.5 41t-31.5 60h92q16 -28 23.5 -50.5t7.5 -45.5q0 -41 -38.5 -85.5t-125.5 -105.5l-24 26q59 57 82 93t23 67z" />
    <glyph glyph-name="uni201B" unicode="&#x201b;" horiz-adv-x="216" 
d="M189 700h110q-50 -41 -75 -77.5t-25 -69.5q0 -20 6.5 -44.5t26.5 -76.5l-34 -19q-46 62 -61.5 97t-15.5 68q0 30 16.5 59.5t51.5 62.5z" />
    <glyph glyph-name="quotedblleft" unicode="&#x201c;" horiz-adv-x="406" 
d="M379 523q0 -20 8.5 -42t31.5 -60h-93q-16 30 -23 52.5t-7 44.5q0 41 38 85t126 105l24 -26q-59 -57 -82 -92.5t-23 -66.5zM189 523q0 -20 8.5 -42t31.5 -60h-93q-16 30 -23 52.5t-7 44.5q0 41 38 85.5t126 104.5l24 -26q-59 -57 -82 -92.5t-23 -66.5z" />
    <glyph glyph-name="quotedblright" unicode="&#x201d;" horiz-adv-x="406" 
d="M181 599q0 19 -8.5 41t-31.5 60h92q16 -28 23.5 -50.5t7.5 -45.5q0 -41 -38.5 -85.5t-125.5 -105.5l-24 26q59 57 82 93t23 67zM371 599q0 19 -8.5 41t-31.5 60h93q16 -28 23 -51t7 -45q0 -41 -38.5 -85.5t-125.5 -105.5l-24 26q59 57 82 93t23 67z" />
    <glyph glyph-name="quotedblbase" unicode="&#x201e;" horiz-adv-x="391" 
d="M28 10q0 19 -8.5 41t-31.5 60h92q16 -28 23.5 -50.5t7.5 -45.5q0 -41 -38.5 -85.5t-125.5 -105.5l-24 26q59 57 82 93t23 67zM218 10q0 19 -8.5 41t-31.5 60h93q16 -28 23 -51t7 -45q0 -41 -38.5 -85.5t-125.5 -105.5l-24 26q59 57 82 93t23 67z" />
    <glyph glyph-name="uni201F" unicode="&#x201f;" horiz-adv-x="406" 
d="M189 700h110q-50 -41 -75 -77.5t-25 -69.5q0 -20 6.5 -44.5t26.5 -76.5l-34 -19q-46 62 -61.5 97t-15.5 68q0 30 16.5 59.5t51.5 62.5zM380 700h109q-51 -41 -75.5 -77.5t-24.5 -69.5q0 -20 6.5 -44.5t26.5 -76.5l-34 -19q-46 62 -61.5 97t-15.5 68q0 30 16.5 59.5
t52.5 62.5z" />
    <glyph glyph-name="dagger" unicode="&#x2020;" horiz-adv-x="531" 
d="M345 534h-17v170h101zM290 504l-4 -17l-180 -41l25 100zM366 504l181 42l-25 -100l-160 41zM211 -10h-21l38 298l81 170h17l-5 -170z" />
    <glyph glyph-name="daggerdbl" unicode="&#x2021;" horiz-adv-x="531" 
d="M328 704h101l-84 -170h-17v170zM291 504l-5 -17l-180 -41l25 100zM362 487l5 17l180 42l-25 -100zM272 242h-17l-11 108l65 108h17l10 -108zM218 212l-5 -17l-180 -41l25 100zM294 212l180 42l-25 -100l-160 41zM253 166v-170h-101l84 170h17z" />
    <glyph glyph-name="bullet" unicode="&#x2022;" horiz-adv-x="498" 
d="M271 214q-58 0 -97 39.5t-39 98.5q0 61 43 105t103 44q58 0 97 -39.5t39 -98.5q0 -61 -43 -105t-103 -44z" />
    <glyph glyph-name="uni2025" unicode="&#x2025;" horiz-adv-x="600" 
d="M104 -9q-28 0 -48 20t-20 48t20 48t48 20t48 -20t20 -48t-20 -48t-48 -20zM404 -9q-28 0 -48 20t-20 48t20 48t48 20t48 -20t20 -48t-20 -48t-48 -20z" />
    <glyph glyph-name="ellipsis" unicode="&#x2026;" horiz-adv-x="599" 
d="M50 -9q-26 0 -45 19t-19 45t19 45.5t45 19.5q27 0 46 -19t19 -46q0 -26 -19 -45t-46 -19zM251 -9q-26 0 -45 19t-19 45q0 27 18.5 46t45.5 19t45.5 -19t18.5 -46q0 -26 -19 -45t-45 -19zM451 -9q-26 0 -45 19t-19 45q0 27 18.5 46t45.5 19t45.5 -19t18.5 -46
q0 -26 -19 -45t-45 -19z" />
    <glyph glyph-name="uni202F" unicode="&#x202f;" horiz-adv-x="125" 
 />
    <glyph glyph-name="guilsinglleft" unicode="&#x2039;" horiz-adv-x="382" 
d="M155 243l106 -231l-32 -19l-184 249l4 16l302 249l27 -24z" />
    <glyph glyph-name="guilsinglright" unicode="&#x203a;" horiz-adv-x="382" 
d="M337 258l-4 -16l-302 -249l-27 25l223 239l-106 231l32 19z" />
    <glyph glyph-name="fraction" unicode="&#x2044;" horiz-adv-x="143" 
d="M-180 -2h-77l333 368l296 336h77l-333 -368z" />
    <glyph glyph-name="zero.sup" unicode="&#x2070;" horiz-adv-x="421" 
d="M127 565q0 112 59.5 188.5t144.5 76.5q65 0 105 -44.5t40 -119.5q0 -113 -59 -189t-145 -76q-65 0 -105 44.5t-40 119.5zM198 566q0 -49 20.5 -76t56.5 -27q52 0 90.5 59.5t38.5 142.5q0 48 -20 75t-56 27q-52 0 -91 -59t-39 -142z" />
    <glyph glyph-name="four.sup" unicode="&#x2074;" horiz-adv-x="396" 
d="M300 500h-215l-2 17l272 308h92l-67 -270h68l-14 -55h-67l-23 -91h-67zM365 763l-176 -208h124z" />
    <glyph glyph-name="five.sup" unicode="&#x2075;" horiz-adv-x="374" 
d="M277 667q57 0 92.5 -30.5t35.5 -80.5q0 -67 -52 -110.5t-132 -43.5q-31 0 -59 7t-54 21l-3 69l2 1q30 -19 59 -28t59 -9q46 0 78 25t32 62q0 30 -22.5 45.5t-64.5 15.5q-20 0 -40 -3.5t-52 -12.5l-7 7l72 220h240l-16 -63h-182l-32 -97q13 3 24 4t22 1z" />
    <glyph glyph-name="six.sup" unicode="&#x2076;" horiz-adv-x="381" 
d="M292 675q56 0 92.5 -35.5t36.5 -90.5q0 -62 -46.5 -105t-115.5 -43q-64 0 -106 39t-42 99q0 47 26.5 92t91.5 108l85 83h90l-120 -116l-21 -21t-12 -13q8 2 16 2.5t25 0.5zM210 621q-15 -21 -21.5 -39.5t-6.5 -39.5q0 -37 21.5 -59.5t56.5 -22.5q38 0 64.5 26t26.5 63
q0 36 -25 55.5t-70 19.5q-13 0 -23 -0.5t-23 -2.5z" />
    <glyph glyph-name="seven.sup" unicode="&#x2077;" horiz-adv-x="364" 
d="M483 822l3 -10l-278 -403h-81l243 351h-215l34 62h294z" />
    <glyph glyph-name="eight.sup" unicode="&#x2078;" horiz-adv-x="396" 
d="M370 612q25 -15 38.5 -37t13.5 -48q0 -55 -46.5 -90t-121.5 -35q-66 0 -105.5 30t-39.5 79q0 41 27.5 72t76.5 45q-21 14 -32 34t-11 44q0 53 43.5 88t109.5 35q59 0 97 -31t38 -79q0 -36 -23.5 -64.5t-64.5 -42.5zM319 773q-35 0 -57.5 -19.5t-22.5 -49.5
q0 -26 20 -42.5t51 -16.5q33 0 56 19.5t23 48.5q0 27 -19.5 43.5t-50.5 16.5zM272 592q-41 0 -67 -20.5t-26 -51.5q0 -28 22 -45t58 -17q41 0 67 20.5t26 52.5q0 27 -22.5 44t-57.5 17z" />
    <glyph glyph-name="nine.sup" unicode="&#x2079;" horiz-adv-x="381" 
d="M453 692q0 -47 -26.5 -91.5t-91.5 -108.5l-86 -83h-89l120 116l21 21t12 13q-10 -2 -20 -2.5t-21 -0.5q-57 0 -93.5 35.5t-36.5 90.5q0 62 47 105t116 43q64 0 106 -39t42 -99zM304 771q-38 0 -64.5 -26t-26.5 -63q0 -36 25 -55t70 -19q20 0 28.5 0.5t16.5 2.5
q16 21 22.5 39t6.5 39q0 37 -22 59.5t-56 22.5z" />
    <glyph glyph-name="zero.inf" unicode="&#x2080;" horiz-adv-x="421" 
d="M-8 24q0 112 59.5 188.5t144.5 76.5q65 0 105 -44.5t40 -119.5q0 -113 -59 -189t-145 -76q-65 0 -105 44.5t-40 119.5zM63 25q0 -49 20.5 -76t56.5 -27q52 0 90.5 59.5t38.5 142.5q0 48 -20 75t-56 27q-52 0 -91 -59t-39 -142z" />
    <glyph glyph-name="one.inf" unicode="&#x2081;" horiz-adv-x="293" 
d="M-2 110l-2 1l19 76l203 102l10 -3l-104 -418h-71l77 309z" />
    <glyph glyph-name="two.inf" unicode="&#x2082;" horiz-adv-x="359" 
d="M73 -70h186l-45 -62h-265l-2 24l183 171q52 49 67.5 71.5t15.5 42.5q0 22 -14 34t-39 12q-34 0 -69.5 -20t-70.5 -58l-2 1l12 85q27 27 63.5 41.5t75.5 14.5q52 0 84 -27t32 -72q0 -36 -20.5 -68t-85.5 -93z" />
    <glyph glyph-name="three.inf" unicode="&#x2083;" horiz-adv-x="353" 
d="M173 71q36 -13 54 -35.5t18 -55.5q0 -51 -45 -84.5t-115 -33.5q-34 0 -64.5 8.5t-53.5 24.5l-5 73l2 1q27 -23 57 -34.5t63 -11.5q39 0 64 17t25 43q0 28 -28 45.5t-90 30.5l6 24q81 24 117.5 48.5t36.5 54.5q0 18 -15 29t-39 11q-30 0 -62 -11.5t-71 -35.5l-2 1l18 71
q29 18 62 27t67 9q51 0 83 -26t32 -67t-29 -72.5t-86 -50.5z" />
    <glyph glyph-name="four.inf" unicode="&#x2084;" horiz-adv-x="396" 
d="M165 -41h-215l-2 17l272 308h92l-67 -270h68l-14 -55h-67l-23 -91h-67zM230 222l-176 -208h124z" />
    <glyph glyph-name="five.inf" unicode="&#x2085;" horiz-adv-x="374" 
d="M142 126q57 0 92.5 -30.5t35.5 -80.5q0 -67 -52 -110.5t-132 -43.5q-31 0 -59 7t-54 21l-3 69l2 1q30 -19 59 -28t59 -9q46 0 78 25t32 62q0 30 -22.5 45.5t-64.5 15.5q-20 0 -40 -3.5t-52 -12.5l-7 7l72 220h240l-16 -63h-182l-32 -97q13 3 24 4t22 1z" />
    <glyph glyph-name="six.inf" unicode="&#x2086;" horiz-adv-x="381" 
d="M157 134q56 0 92.5 -35.5t36.5 -90.5q0 -62 -46.5 -105t-115.5 -43q-64 0 -106 39t-42 99q0 47 26.5 92t91.5 108l85 83h90l-120 -116l-21 -21t-12 -13q8 2 16 2.5t25 0.5zM75 80q-15 -21 -21.5 -39.5t-6.5 -39.5q0 -37 21.5 -59.5t56.5 -22.5q38 0 64.5 26t26.5 63
q0 36 -25 55.5t-70 19.5q-13 0 -23 -0.5t-23 -2.5z" />
    <glyph glyph-name="seven.inf" unicode="&#x2087;" horiz-adv-x="364" 
d="M348 281l3 -10l-278 -403h-81l243 351h-215l34 62h294z" />
    </font>
</defs>
</svg>
